<?xml version="1.0" encoding="UTF-8" standalone="no"?>
<!-- Created with Inkscape (http://www.inkscape.org/) -->

<svg
   xmlns:dc="http://purl.org/dc/elements/1.1/"
   xmlns:cc="http://creativecommons.org/ns#"
   xmlns:rdf="http://www.w3.org/1999/02/22-rdf-syntax-ns#"
   xmlns:svg="http://www.w3.org/2000/svg"
   xmlns="http://www.w3.org/2000/svg"
   xmlns:sodipodi="http://sodipodi.sourceforge.net/DTD/sodipodi-0.dtd"
   xmlns:inkscape="http://www.inkscape.org/namespaces/inkscape"
   id="svg2"
   viewBox="0 0 200 200"
   version="1.1"
   inkscape:version="0.91 r13725"
   sodipodi:docname="pig.svg"
   width="200"
   height="200">
  <defs
     id="defs26" />
  <sodipodi:namedview
     pagecolor="#ffffff"
     bordercolor="#666666"
     borderopacity="1"
     objecttolerance="10"
     gridtolerance="10"
     guidetolerance="10"
     inkscape:pageopacity="0"
     inkscape:pageshadow="2"
     inkscape:window-width="1301"
     inkscape:window-height="744"
     id="namedview24"
     showgrid="false"
     inkscape:zoom="1.8541911"
     inkscape:cx="115.9322"
     inkscape:cy="101.12701"
     inkscape:window-x="65"
     inkscape:window-y="24"
     inkscape:window-maximized="1"
     inkscape:current-layer="svg2" />
  <g
     transform="matrix(0.48256031,0,0,0.48256031,-85.059624,-171.05128)"
     id="g5358">
    <path
       inkscape:connector-curvature="0"
       d="m 514.6,511.63 c 2.5274,-2.5274 5.7002,-0.29183 8.3626,0.41308 21.578,5.7131 16.142,-27.945 8.7558,-19.474 -7.006,8.0349 10.826,28.621 15.558,9.1466 2.5061,-10.312 12.944,-6.3646 12.944,-6.3646"
       style="fill:none;stroke:#361127;stroke-width:1.01450002;stroke-linecap:round;stroke-linejoin:round"
       id="path5327" />
    <path
       inkscape:connector-curvature="0"
       d="m 308.54,669.26 c 0,0 10.624,3.8677 10.364,29.512 0,0 4.8893,5.8406 8.345,-26.341 l -18.709,-3.1716 z m 134.43,2.4772 c 0,0 9.8662,-3.1845 8.3109,25.052 0,0 6.302,1.7195 12.133,-29.814 l -20.444,4.762 z m 36.009,-9.5922 c 0,0 2.8819,17.086 -2.3694,33.71 -1.3269,4.2006 57.751,-53.653 54.085,-128.79 -4.89,-100.17 -105.45,-109.5 -139.82,-105.59 l -0.6911,18.228 c 0,0 1.3914,-34.742 -5.9392,-56.123 0,0 -5.991,25.119 -27.965,48.487 0,0 -31.766,-7.1016 -67.35,3.6653 0,0 5.5082,-1.9706 9.6811,-2.8528 0,0 -15.522,-0.61277 -19.818,-46.093 0,0 -12.314,-2.8268 -10.786,61.775 0,0 -22.546,34.41 -23.825,47.649 -1.1328,11.729 -10.969,55.047 -31.409,50.376 -6.172,-1.4104 -6.2749,2.1699 -5.8551,5.2147 0,0 13.096,47.32 32.072,51.315 40.165,8.4542 39.708,27.795 110.88,31.155 0,0 3.8442,12.708 0.17892,25.537 0,0 13.622,-12.434 21.508,-27.064 0,0 47.859,9.8637 107.42,-10.601 z"
       style="fill:#ff00ff;stroke:#361127;stroke-width:1.01450002;stroke-linecap:round;stroke-linejoin:round"
       id="path5319" />
    <path
       inkscape:connector-curvature="0"
       d="m 242.1,594.44 c 0,0 -10.095,-8.8362 -20.733,-8.1205 m 26.321,-5.535 c 0,0 -9.3576,-6.1766 -18.037,-2.8909 m 11.085,30.075 c 0,0 6.2354,1.1847 7.5096,5.2296 m 0.12651,-22.387 c 0,0 -9.5429,-9.3946 -22.372,-7.8674 m 155.11,-129.2 c 0,0 1.936,18.6 -9.5032,40.173 0,0 3.5637,-0.21598 12.527,-5.5075"
       style="fill:none;stroke:#361127;stroke-width:1.01450002;stroke-linecap:round;stroke-linejoin:round"
       id="path5203" />
    <g
       transform="matrix(1.2095,0,0,1.2095,145.46,-384.37)"
       id="g5279">
      <path
         inkscape:connector-curvature="0"
         transform="matrix(0.91428,0,0,1.0263,-82.597,508.55)"
         d="m 250.71,266.65 a 12.5,13.571 0 1 1 -25,0 12.5,13.571 0 1 1 25,0 z"
         style="fill:#000000"
         id="path5175" />
      <path
         inkscape:connector-curvature="0"
         transform="matrix(0.49697,-0.60711,0.42014,0.91691,-89.808,684.08)"
         d="m 245.21,262.42 a 2.6517,4.0406 0 1 1 -5.3033,0 2.6517,4.0406 0 1 1 5.3033,0 z"
         style="fill:#ffffff"
         id="path5177" />
    </g>
  </g>
  <metadata
     id="metadata22">
    <rdf:RDF>
      <cc:Work>
        <dc:format>image/svg+xml</dc:format>
        <dc:type
           rdf:resource="http://purl.org/dc/dcmitype/StillImage" />
        <cc:license
           rdf:resource="http://creativecommons.org/publicdomain/zero/1.0/" />
        <dc:publisher>
          <cc:Agent
             rdf:about="http://openclipart.org/">
            <dc:title>Openclipart</dc:title>
          </cc:Agent>
        </dc:publisher>
        <dc:title>Magenta Pig</dc:title>
        <dc:date>2012-12-15T13:47:40</dc:date>
        <dc:description>I found a cute public domain pig at\nhttp://www.clker.com/clipart-11665.html\n\nThis Magenta Pig as I call it is my edit of it. Now it has a more solid magenta fill instead of it's original gradient.</dc:description>
        <dc:source>https://openclipart.org/detail/173796/magenta-pig-by-10binary-173796</dc:source>
        <dc:creator>
          <cc:Agent>
            <dc:title>10binary</dc:title>
          </cc:Agent>
        </dc:creator>
        <dc:subject>
          <rdf:Bag>
            <rdf:li>cute</rdf:li>
            <rdf:li>magenta</rdf:li>
            <rdf:li>pig</rdf:li>
          </rdf:Bag>
        </dc:subject>
      </cc:Work>
      <cc:License
         rdf:about="http://creativecommons.org/publicdomain/zero/1.0/">
        <cc:permits
           rdf:resource="http://creativecommons.org/ns#Reproduction" />
        <cc:permits
           rdf:resource="http://creativecommons.org/ns#Distribution" />
        <cc:permits
           rdf:resource="http://creativecommons.org/ns#DerivativeWorks" />
      </cc:License>
    </rdf:RDF>
  </metadata>
</svg>
