<svg xmlns="http://www.w3.org/2000/svg" xmlns:xlink="http://www.w3.org/1999/xlink" width="559.371" height="793.701" viewBox="0 0 419.528 595.276"><defs><path id="d" d="M3.344 2.297v-.078L1.5-2.5l1.844-4.703v-.078c0-.11-.078-.203-.188-.203a.24.24 0 0 0-.203.14L1.11-2.562c-.015.015-.015.046-.015.062 0 .031 0 .063.015.078L2.953 2.36a.24.24 0 0 0 .203.141c.11 0 .188-.094.188-.203m0 0"/><path id="e" d="M4.281-1.062c0-.063-.047-.141-.11-.141-.062 0-.077.031-.14.11-.781.984-1.875.984-1.984.984-.781 0-.875-.844-.875-1.157 0-.125.016-.421.156-1.03h.531c.297 0 1.032-.032 1.532-.235.703-.297.75-.89.75-1.031 0-.438-.375-.844-1.063-.844-1.11 0-2.625.968-2.625 2.718C.453-.671 1.047.11 2.031.11c1.422 0 2.25-1.062 2.25-1.171m-.468-2.5c0 1.046-1.594 1.046-2.016 1.046H1.39c.39-1.515 1.422-1.671 1.687-1.671.453 0 .735.296.735.625m0 0"/><path id="f" d="M2.781-2.5c0-.016 0-.047-.015-.062L.922-7.344c-.031-.078-.11-.14-.188-.14a.207.207 0 0 0-.203.203v.078L2.375-2.5.531 2.219v.078c0 .11.094.203.203.203.079 0 .157-.062.188-.14l1.844-4.782c.015-.015.015-.047.015-.078m0 0"/><path id="g" d="M6.047-.156c0-.094-.11-.11-.14-.11-.25 0-.376-.03-.5-.312L4.218-3.297 5.766-4.5c.218-.172.812-.625 1.312-.672.063-.016.156-.031.156-.156 0-.047-.03-.11-.109-.11 0 0-.234.016-.281.016h-.328c-.266 0-.563-.016-.813-.016-.047 0-.172 0-.172.141 0 .11.14.125.14.125.11 0 .173.047.173.11 0 .125-.14.25-.172.28l-.047.048c-.016.015-.031.015-.094.078L2.563-2.344l.609-2.5c.078-.265.125-.328.61-.328.171 0 .265 0 .265-.156 0-.047-.031-.11-.125-.11-.14 0-.313.016-.453.016h-.953l-.453-.016c-.047 0-.172 0-.172.141 0 .125.093.125.234.125.219 0 .438 0 .438.11 0 .046 0 .062-.032.171L1.47-.609c-.078.28-.125.343-.61.343-.171 0-.265 0-.265.157C.594-.047.64 0 .719 0c.031 0 .39-.016.453-.031h.484c.672 0 .89.031.938.031s.156 0 .156-.156c0-.11-.094-.11-.234-.11-.25 0-.438 0-.438-.125 0-.046.047-.218.078-.328l.297-1.203 1.25-.969.985 2.25c.046.094.046.11.046.141 0 .203-.187.234-.343.234-.094 0-.188.016-.188.157 0 .062.047.109.11.109.28 0 .578-.031.843-.031.672 0 .64.031.735.031.03 0 .156 0 .156-.156m0 0"/><path id="h" d="M2.828-1.14c0-.11-.11-.11-.156-.11-.125 0-.125.031-.172.172-.14.516-.406.937-.734.937-.157 0-.188-.109-.188-.25 0-.187.063-.328.188-.656l.515-1.39c.063-.172.094-.25.094-.422 0-.438-.312-.657-.656-.657-.75 0-1.078 1.11-1.078 1.22 0 .108.093.108.14.108.14 0 .14-.03.172-.171.125-.407.375-.938.75-.938.14 0 .172.11.172.25 0 .188-.047.344-.156.61L1.156-.953a1.1 1.1 0 0 0-.078.375c0 .36.266.656.672.656.75 0 1.078-1.125 1.078-1.219m.125-3.704a.354.354 0 0 0-.36-.375.55.55 0 0 0-.53.532c0 .234.171.359.359.359.265 0 .531-.234.531-.516m0 0"/><path id="i" d="M4.14-1.14c0-.11-.109-.11-.14-.11-.14 0-.156.047-.187.172-.11.453-.266.937-.61.937-.14 0-.25-.078-.25-.375 0-.125.031-.265.063-.39.03-.125.03-.172.03-.25 0-.563-.546-.75-1.108-.86.296-.187.625-.53.671-.593.454-.5.766-.688 1.063-.688.11 0 .172.063.203.11-.156.03-.344.171-.344.39s.188.266.281.266c.204 0 .407-.14.407-.453 0-.266-.157-.532-.547-.532s-.75.266-1.188.735c-.484.515-.656.594-.796.672l.796-3.188c0-.031.016-.094.016-.125 0-.11-.125-.11-.219-.094l-.828.063c-.11.016-.187.016-.187.156 0 .125.093.125.203.125.375 0 .375.047.375.11a.7.7 0 0 1-.032.171L.657-.266c0 .032-.015.079-.015.11 0 .11.078.234.25.234.14 0 .265-.094.328-.297l.39-1.578c.313.031.891.172.891.656 0 .047 0 .079-.031.188a1 1 0 0 0-.031.25c0 .437.296.781.734.781.36 0 .562-.265.656-.406.188-.297.313-.766.313-.813m0 0"/><path id="j" d="M4.297-2.172c0-.828-.547-1.344-1.266-1.344C2-3.516.921-2.437.921-1.266c0 .875.595 1.344 1.267 1.344 1.062 0 2.109-1.094 2.109-2.25m-.594-.281c0 .265-.125 1.031-.437 1.578-.266.438-.688.734-1.078.734-.297 0-.672-.203-.672-.843 0-.36.172-1.11.422-1.547.343-.578.812-.766 1.078-.766.39 0 .687.297.687.844m0 0"/><path id="k" d="M5.11-1.781V-7.72c0-.39-.094-.578-.579-.578h-.578c-.453 0-.578.156-.578.578v5.86c0 .25 0 .922-1.047.922-.687 0-1.078-.375-1.234-.594-.11-.125-.125-.14-.203-.14-.11 0-.141.109-.157.218C.672-1.078.547-.437.547-.391c0 .11.078.141.297.235a5 5 0 0 0 1.969.422c1.28 0 2.296-.641 2.296-2.047m0 0"/><path id="l" d="M5.969-.578v-4.328c0-.375-.078-.563-.563-.563h-.484c-.453 0-.578.157-.578.563v2.843c0 .782-.407 1.47-1.266 1.47-.656 0-.734-.173-.734-.813v-3.5c0-.375-.078-.563-.578-.563h-.47c-.437 0-.577.125-.577.563V-1.5c0 1.266.687 1.625 1.937 1.625.313 0 1.172 0 1.735-1.016v.313c0 .39.078.578.562.578h.453c.453 0 .563-.156.563-.578m0 0"/><path id="m" d="M5.266-.437c0-.454-.36-.454-.72-.454L2.72-.875h-.547l2.922-3.687c.125-.157.14-.22.14-.407 0-.5-.375-.5-.578-.5H1.125c-.156 0-.578 0-.578.453 0 .438.39.438.703.438l1.734-.031h.454L.515-.906C.39-.75.375-.687.375-.5c0 .5.36.5.563.5h3.765c.156 0 .563 0 .563-.437M3.719-7.25v-.219c0-.39-.078-.578-.578-.578h-.61c-.453 0-.578.156-.578.578v.219c0 .36.063.578.578.578h.61c.5 0 .578-.219.578-.578m0 0"/><path id="n" d="M2.313-.578v-4.328c0-.375-.079-.563-.563-.563h-.453c-.422 0-.563.125-.563.563v4.328c0 .437.125.578.563.578h.453c.453 0 .563-.156.563-.578m.093-6.672v-.219c0-.39-.094-.578-.578-.578h-.61c-.452 0-.577.156-.577.578v.219c0 .36.062.578.578.578h.61c.5 0 .577-.219.577-.578m0 0"/><path id="o" d="M5.969-.578v-7.14c0-.391-.094-.579-.578-.579h-.438c-.453 0-.578.156-.578.578v2.703a2.18 2.18 0 0 0-1.5-.593C.438-5.61.438-3.312.438-2.72c0 .547 0 2.844 2.375 2.844.5 0 1.015-.14 1.53-.687 0 .437.157.562.563.562h.485c.453 0 .578-.156.578-.578M4.344-1.5c0 .203 0 .313-.344.563a1.35 1.35 0 0 1-.719.203c-1.219 0-1.219-1.094-1.219-1.985 0-.906 0-2.031 1.344-2.031.344 0 .672.125.938.375Zm0 0"/><path id="p" d="M5.266-.437c0-.454-.36-.454-.72-.454L2.72-.875h-.547l2.922-3.687c.125-.157.14-.22.14-.407 0-.5-.375-.5-.578-.5H1.125c-.156 0-.578 0-.578.453 0 .438.39.438.703.438l1.734-.031h.454L.515-.906C.39-.75.375-.687.375-.5c0 .5.36.5.563.5h3.765c.156 0 .563 0 .563-.437m0 0"/><path id="q" d="M5.719-3.11c0-1.546-.703-2.562-2.485-2.562-1.921 0-2.859 1.063-2.859 2.89 0 1.954 1.125 2.907 3 2.907.469 0 1.14-.047 1.938-.453.25-.125.343-.156.343-.313 0-.078-.031-.421-.047-.515-.046-.375-.062-.39-.171-.39-.047 0-.079 0-.204.124a2.7 2.7 0 0 1-1.796.688c-1.36 0-1.5-1.063-1.532-1.828h3.25c.266 0 .563 0 .563-.547m-1.313-.078h-2.5c.047-.734.282-1.624 1.328-1.624.954 0 1.125.687 1.172 1.625m0 0"/><path id="r" d="M9.64-.578v-3.313c0-1.218-.53-1.718-1.75-1.718-.843 0-1.5.39-1.937 1.187-.187-1.14-1.203-1.187-1.703-1.187-.234 0-.734 0-1.281.39-.36.282-.61.672-.688.844h-.015v-.594c0-.39-.079-.578-.563-.578h-.406c-.438 0-.578.125-.578.578v4.39c0 .438.125.579.578.579h.469c.453 0 .578-.156.578-.578v-2.64c0-1.079.734-1.532 1.312-1.532s.703.25.703.89v3.282c0 .437.141.578.579.578h.484c.453 0 .562-.156.562-.578v-2.64c0-1.079.735-1.532 1.313-1.532s.719.25.719.89v3.282c0 .437.125.578.562.578h.485c.453 0 .578-.156.578-.578m0 0"/><path id="s" d="M6.188-2.687c0-1.97-.954-2.985-2.907-2.985-1.984 0-2.906 1.063-2.906 2.984C.375-.733 1.406.126 3.281.126s2.907-.86 2.907-2.812m-1.625-.141c0 .937 0 2.031-1.282 2.031C2-.797 2-1.875 2-2.828c0-.922 0-1.985 1.281-1.985s1.281 1.047 1.281 1.985m.593-5.313c0-.156-.14-.156-.328-.156h-.984c-.235 0-.25.016-.36.14L2.47-6.75c-.11.125-.11.172-.11.172 0 .156.125.156.313.156h.453l1.89-1.531c.063-.063.141-.11.141-.188m0 0"/><path id="t" d="M2.672.375v-5.281c0-.375-.078-.563-.563-.563h-.453c-.453 0-.562.157-.562.563V.672c0 .297 0 .781-.719.781-.219 0-.5-.047-.75-.219-.031-.015-.078-.046-.125-.046-.094 0-.11 0-.219.312-.047.125-.125.36-.125.39 0 .22.985.563 1.735.563 1.328 0 1.78-.89 1.78-2.078m0-7.625v-.219c0-.39-.078-.578-.563-.578H1.5c-.453 0-.578.156-.578.578v.219c0 .36.062.578.578.578h.61c.5 0 .562-.219.562-.578m0 0"/><path id="u" d="M8.016-2.312c0-1.688-1.657-1.954-2.094-2.032 1.094-.25 1.734-.875 1.734-1.797 0-2.156-2.547-2.156-3.047-2.156H1.656c-.422 0-.562.14-.562.578v7.14c0 .438.125.579.562.579h3.282c.89 0 3.078-.156 3.078-2.312M6.03-6.11c0 1.359-1.578 1.359-1.875 1.359h-1.39v-2.516h1.406c.469 0 1.86.032 1.86 1.157m.328 3.765C6.36-1.109 5.08-1.03 4.5-1.03H2.766v-2.86H4.28c.422 0 2.078 0 2.078 1.547m0 0"/><path id="v" d="M6.39-4.844c0-.047-.062-.328-.093-.453-.047-.281-.047-.312-.266-.312-.36 0-.968.14-1.422.422-.562-.375-1.171-.422-1.687-.422-.5 0-2.406 0-2.406 1.968 0 .485.125 1.079.578 1.485C.78-1.72.78-1.25.78-1.187c0 .218.063.609.313.937C.922-.172.297.031.297.797c0 .375.187 1 .937 1.344.672.312 1.485.328 2.047.328.703 0 2.985 0 2.985-1.703 0-1.86-1.688-1.86-3.297-1.86H2.39c-.438 0-.594 0-.766-.156-.047-.047-.25-.219-.25-.531 0-.078.016-.11.031-.172.547.297 1.266.297 1.516.297.5 0 2.39 0 2.39-1.969 0-.687-.25-1.11-.359-1.234.203 0 .61 0 1.11.125a.36.36 0 0 0 .171.046c.094 0 .157-.062.157-.156M3.798-3.64c0 .672-.047 1.125-.875 1.125-.844 0-.875-.453-.875-1.109s.031-1.125.875-1.125c.828 0 .875.453.875 1.11M5.03.797c0 .812-1.36.812-1.75.812-.469 0-1.75 0-1.75-.843 0-.563.375-.563.64-.563h1.392c.968 0 1.468.172 1.468.594m0 0"/><path id="w" d="M6.016 0 4.219-3.766l3-2.453h-.89L2.312-2.922l.703-3.297h-.813L.875 0h.813l.437-2.047 1.469-1.187L5.125 0Zm0 0"/><path id="x" d="M4.75-1.969C5-3.14 4.313-4.14 3.172-4.14c-1.11 0-2.234.97-2.484 2.172C.438-.797 1.188.094 2.28.094 3.391.094 4.5-.812 4.75-1.97m-.719-.093C3.797-1.016 3.063-.516 2.406-.516c-.687 0-1.172-.53-.953-1.546.219-1.047.984-1.485 1.594-1.485.64 0 1.203.453.984 1.485m0 0"/><path id="y" d="m1.453 0 1.328-6.219h-.719L.734 0Zm0 0"/><path id="z" d="M4.25-1.969c.063-.281.188-.953-.047-1.5-.25-.562-.797-.672-1.14-.672-1.047 0-2.079.97-2.313 2.11C.5-.844 1.172.094 2.297.094c-.453.265-.781.625-.844 1.047-.078.39.125.765.719.765.297 0 .531-.062.937-.234l-.015-.531c-.219.093-.438.14-.625.14-.25-.031-.453-.078-.406-.343.078-.407.546-.72 1-.954.25-.078.515-.171.796-.328l.079-.61c-.657.391-1.204.47-1.516.47-.75 0-1.172-.657-1.016-1.485ZM3.828-2.5H1.563c.265-.562.812-1.047 1.375-1.047.328 0 .906.14.89 1.047m0 0"/><path id="A" d="m4.016 0 1.328-6.219h-.719l-.578 2.625c-.406-.422-.969-.484-1.25-.484-.906 0-1.813.937-2.047 2.094C.5-.828 1 .094 1.875.094c.266 0 .844-.063 1.484-.563L3.266 0ZM3.53-1.266c-.031.172-.031.188-.156.313-.312.328-.656.469-.984.469-.578 0-1.141-.422-.907-1.5C1.734-3.125 2.578-3.5 3.141-3.5c.406 0 .64.234.765.469Zm0 0"/><path id="B" d="m3.781 0 .547-2.594c.188-.89-.312-1.547-1.203-1.547-.594 0-1.047.157-1.531.407l-.078.625C2.03-3.437 2.5-3.562 3-3.562s.719.39.594.984l-.094.375C1.953-2.172.86-1.766.703-1.047.625-.625.75.093 1.531.093c.172 0 .953-.015 1.61-.437L3.062 0Zm-.469-1.25c-.046.188-.093.406-.453.594-.265.14-.562.172-.75.172-.453 0-.78-.22-.703-.578.125-.625 1.89-.657 2-.657Zm0 0"/><path id="D" d="M-1.937-6.234h-.266c.031.406.031.625.031 1.093 0 .329 0 .985-.031 1.297h.265v-.281c0-.766.094-.781.391-.781h.516c.156 0 .484 0 .718.422.22.39.22.843.22.937 0 .813-.5 2.25-2.626 2.25-2.172 0-2.625-1.453-2.625-2.187 0-.797.578-1.688 1.89-1.891.079-.016.126-.016.126-.125 0-.14-.047-.14-.203-.14h-1.875c-.125 0-.203 0-.203.109 0 .047 0 .062.109.125l.594.406a2.13 2.13 0 0 0-.703 1.594c0 1.594 1.28 2.937 2.89 2.937 1.578 0 2.89-1.312 2.89-2.968 0-.61-.187-1.297-.655-1.61.218-.156.484-.422.484-.5 0-.094-.094-.094-.203-.094h-1.375c-.313 0-.36-.03-.36-.593m0 0"/><path id="E" d="M0-2.078h-.266c0 .531-.03.562-.343.562h-2.907l.094 1.157h.266c0-.516.047-.578.437-.578h2.094c.36 0 .36.093.36.609H0c-.031-.313-.031-.766-.031-.89 0-.095 0-.579.031-.86m-4.797.453a.453.453 0 0 0-.453.453.45.45 0 0 0 .453.438.437.437 0 0 0 .438-.438.45.45 0 0 0-.438-.453m0 0"/><path id="F" d="M-.719-4.094h-.437v.25h.437c.328 0 .453.11.453.281 0 .297-.359.297-.453.297h-1.656c-.781 0-1.172.75-1.172 1.485 0 .656.25 1.25.781 1.25a.36.36 0 0 0 .375-.375.36.36 0 0 0-.375-.375.356.356 0 0 0-.359.297c-.203-.297-.203-.735-.203-.782 0-.453.312-.89.969-.89h.234c.031.453.047.984.281 1.547.313.703.766.843 1.032.843.687 0 .89-.812.89-1.359a1.23 1.23 0 0 0-.64-1.11c.296-.046.609-.25.609-.609 0-.078-.031-.75-.766-.75m-.406 1.438c.781 0 .984.64.984.969 0 .406-.28.765-.671.765-.516 0-1.063-.5-1.094-1.734Zm-3.094.015-1.218 1.016c-.125.11-.125.219-.125.25 0 .14.14.313.312.313.14 0 .203-.063.266-.157l.937-1.25Zm0 0"/><path id="G" d="M-3.172-4.281h-.265c.03.265.03.281.03.61 0 .077 0 .452-.03.702h.265c.016-.281.188-.36.328-.36.078 0 .125.017.188.048l2.015.86-2.171.952c-.094.047-.157.047-.157.047-.203 0-.203-.297-.203-.422h-.265c.03.344.03.719.03.86 0 .172 0 .547-.03.812h.265c0-.484.047-.531.313-.656l2.765-1.188c.125-.062.172-.109.172-.218 0-.11-.062-.172-.156-.203L-2.61-3.532c-.453-.188-.547-.469-.563-.75m0 0"/><path id="H" d="M-.953-3.516a.12.12 0 0 0-.11.125c0 .094.047.11.094.125.782.282.797.97.797 1.11 0 .36-.156.734-.531.969-.36.234-.875.234-1.11.234v-2.344c0-.172 0-.219-.187-.219-.703 0-1.547.391-1.547 1.516 0 .984.813 1.766 1.797 1.766 1.031 0 1.828-.86 1.828-1.875 0-1-.844-1.407-1.031-1.407m-1.078.547v2.016c-1.11-.078-1.297-.75-1.297-1.047 0-.937 1.125-.969 1.297-.969m0 0"/><path id="I" d="M0-4.484h-.266c0 .515 0 .609-.359.609h-1.797c-.656 0-1.094.313-1.094 1.14 0 .797.579 1.157.766 1.25h-.766l.094 1.157h.266c0-.547.047-.61.437-.61h2.094c.36 0 .36.094.36.61H0c-.031-.344-.031-.688-.031-.906 0-.235 0-.563.031-.907h-.266c0 .5 0 .61-.359.61h-1.437c-.844 0-1.235-.64-1.235-1.125s.344-.61.844-.61h1.828c.36 0 .36.094.36.61H0C-.031-3-.031-3.36-.031-3.562c0-.235 0-.579.031-.922m0 0"/><path id="J" d="M0-2.125h-.266c0 .5 0 .61-.359.61h-4.906l.093 1.187h.266c0-.547.047-.61.438-.61h4.109c.36 0 .36.094.36.61H0c-.031-.313-.031-.766-.031-.906 0-.157 0-.578.031-.891m0 0"/><path id="K" d="M0-6.828h-.266c0 .516 0 .61-.359.61h-1.797c-.64 0-1.094.28-1.094 1.14 0 .734.5 1.11.735 1.234-.578.14-.735.594-.735 1.11 0 .78.547 1.14.766 1.25h-.766l.094 1.156h.266c0-.547.047-.61.437-.61h2.094c.36 0 .36.094.36.61H0c-.031-.344-.031-.688-.031-.906 0-.235 0-.563.031-.907h-.266c0 .5 0 .61-.359.61h-1.437c-.844 0-1.235-.64-1.235-1.14 0-.517.406-.61.844-.61h1.828c.36 0 .36.11.36.61H0c-.031-.345-.031-.688-.031-.907 0-.235 0-.563.031-.906h-.266c0 .515 0 .609-.359.609h-1.437c-.844 0-1.235-.64-1.235-1.14 0-.516.406-.61.844-.61h1.828c.36 0 .36.11.36.61H0c-.031-.344-.031-.688-.031-.907 0-.234 0-.562.031-.906m0 0"/><path id="L" d="M-1.703-3.984c-.984 0-1.844.828-1.844 1.875s.86 1.875 1.844 1.875c1 0 1.781-.86 1.781-1.875 0-1.032-.781-1.875-1.781-1.875m-.063.703c.36 0 .797.015 1.141.25.313.203.453.562.453.922 0 .422-.203.765-.484.937-.328.203-.719.219-1.11.219-.312 0-.78 0-1.125-.235a1.14 1.14 0 0 1-.437-.921c0-.422.203-.766.469-.938.343-.219.765-.234 1.093-.234m0 0"/><path id="M" d="M-2.672-5.984c-1.531 0-2.765 1.156-2.765 2.593v3.032h.265v-.188c0-.61.078-.625.375-.625H-.64c.297 0 .375.016.375.625v.188H0v-3.032c0-1.437-1.187-2.593-2.672-2.593m0 .812c.406 0 1.188 0 1.766.5.328.266.64.781.64 1.5v.906c0 .375-.046.391-.328.391h-4.265c-.266 0-.313-.016-.313-.39v-.907c0-.625.25-1.14.64-1.5.61-.5 1.47-.5 1.86-.5m0 0"/><path id="N" d="M-1.719-4.422c-1 0-1.797.813-1.797 1.781 0 .313.079.766.5 1.172h-.5l.094 1.188h.266c0-.563.047-.61.375-.61H.922c.36 0 .36.11.36.61h.265c-.031-.344-.031-.688-.031-.906 0-.235 0-.563.03-.907h-.265c0 .516 0 .61-.36.61H-.39a1.37 1.37 0 0 0 .47-1.047c0-1-.782-1.89-1.798-1.89m0 .719c.907 0 1.578.578 1.578 1.219 0 .28-.125.64-.515.906-.14.094-.156.094-.297.094h-1.703a1.3 1.3 0 0 1-.61-1.094c0-.61.672-1.125 1.547-1.125m0 0"/><path id="O" d="M-.437-1.625a.453.453 0 0 0-.454.453c0 .266.22.438.438.438A.44.44 0 0 0 0-1.172a.45.45 0 0 0-.437-.453m0 0"/><path id="P" d="M-5.125-4.11v2.032c0 .203-.016.437-.031.64-.032.422-.11.422-.235.454v.25l1.688.265v-.25c-.125-.015-.672-.11-.735-.219-.046-.078-.046-.687-.046-.796v-1.688l1.109.813C-2.172-1.703-.906-1.5-.281-1.5c.078 0 .453 0 .453-.375s-.36-.375-.453-.375h-.39c-1.141 0-2.079-.203-2.61-.594L-4.86-4.03c-.079-.078-.094-.078-.266-.078m0 0"/><path id="Q" d="M-1.36-3.875c-.671 0-1.265.531-1.452 1.344-.22-.625-.75-1.11-1.391-1.11-.64 0-1.094.72-1.094 1.547 0 .86.453 1.5 1.063 1.5.297 0 .422-.187.422-.406 0-.25-.172-.406-.407-.406-.297 0-.406.265-.406.437-.437-.343-.469-.953-.469-1.094 0-.203.063-.812.89-.812.548 0 .891.234 1.016.344.25.234.266.422.297.906 0 .156.016.219.125.219.11 0 .11-.078.11-.219v-.39c0-.626.453-1.032 1.297-1.032 1 0 1.28.563 1.28.985 0 .437-.155 1.046-.577 1.328 0-.297-.188-.5-.438-.5-.265 0-.437.187-.437.453 0 .203.125.437.453.437.75 0 1.25-.812 1.25-1.734 0-1.047-.734-1.797-1.531-1.797m0 0"/><path id="R" d="M5.172 6.219h.266c-.016-.25-.016-.657-.016-.797 0-.25 0-.484.016-.875h-.266c0 .281-.14.406-.281.406-.11 0-.188-.062-.266-.11l-2.11-1.405 2.329-1.563c.047-.031.093-.062.156-.062.172 0 .172.343.172.515h.266l-.016-1.156c0-.438 0-.625.016-1.047h-.266V.25c0 .422-.047.594-.281.75L2.17 2.813H.642c-.297 0-.375-.016-.375-.626v-.171H0l.031 1.14L0 4.312h.266v-.171c0-.625.093-.625.359-.625h1.563L4.64 5.172c.187.125.53.36.53 1.047m0 0"/><path id="S" d="M.719 4.094h.437v-.25H.72c-.328 0-.453-.11-.453-.281 0-.297.359-.297.453-.297h1.656c.781 0 1.172-.75 1.172-1.485 0-.656-.25-1.25-.781-1.25a.36.36 0 0 0-.375.375c0 .219.156.375.375.375a.356.356 0 0 0 .359-.297c.203.297.203.735.203.782 0 .453-.312.89-.969.89h-.234c-.031-.453-.047-.984-.281-1.547C1.53.406 1.078.266.813.266c-.688 0-.891.812-.891 1.359 0 .578.328.938.64 1.11-.296.046-.609.25-.609.609 0 .078.031.75.766.75m.406-1.438c-.781 0-.984-.64-.984-.969 0-.406.28-.765.672-.765.515 0 1.062.5 1.093 1.734Zm0 0"/><path id="T" d="M3.172 4.281h.265c-.03-.265-.03-.281-.03-.61 0-.077 0-.452.03-.702h-.265c-.016.281-.188.36-.328.36a.4.4 0 0 1-.188-.048l-2.015-.86 2.172-.952c.093-.047.156-.047.156-.047.203 0 .203.297.203.422h.265c-.03-.344-.03-.719-.03-.86 0-.171 0-.546.03-.812h-.265c0 .484-.047.531-.313.656L.094 2.016c-.125.062-.172.109-.172.218 0 .11.062.172.156.204L2.61 3.53c.454.188.547.469.563.75m0 0"/><path id="U" d="M0 2.078h.266c0-.531.03-.562.343-.562h2.907L3.422.359h-.266c0 .516-.047.579-.437.579H.625c-.36 0-.36-.094-.36-.61H0c.031.313.031.766.031.89 0 .095 0 .579-.031.86m4.797-.453a.453.453 0 0 0 .453-.453.45.45 0 0 0-.453-.438.437.437 0 0 0-.438.438c0 .25.204.453.438.453m0 0"/><path id="V" d="M.953 3.516a.12.12 0 0 0 .11-.125c0-.094-.047-.11-.094-.125a1.14 1.14 0 0 1-.797-1.11c0-.36.156-.734.531-.969.36-.234.875-.234 1.11-.234v2.344c0 .172 0 .219.187.219.703 0 1.547-.391 1.547-1.516 0-.984-.813-1.766-1.797-1.766-1.031 0-1.828.86-1.828 1.875 0 1 .844 1.407 1.031 1.407m1.078-.547V.953c1.11.078 1.297.75 1.297 1.047 0 .938-1.125.969-1.297.969m0 0"/><path id="W" d="M0 4.484h.266c0-.515 0-.609.359-.609h1.797c.656 0 1.094-.312 1.094-1.14a1.38 1.38 0 0 0-.766-1.25h.766L3.422.327h-.266c0 .547-.047.61-.437.61H.625c-.36 0-.36-.094-.36-.61H0c.031.344.031.688.031.906 0 .235 0 .563-.031.907h.266c0-.5 0-.61.359-.61h1.438c.843 0 1.234.64 1.234 1.125s-.344.61-.844.61H.625c-.36 0-.36-.094-.36-.61H0c.031.344.031.703.031.906 0 .235 0 .579-.031.922m0 0"/><path id="X" d="M0 6.828h.266c0-.516 0-.61.359-.61h1.797c.64 0 1.094-.28 1.094-1.14 0-.734-.5-1.11-.735-1.234.578-.14.735-.594.735-1.11a1.37 1.37 0 0 0-.766-1.25h.766L3.422.328h-.266c0 .547-.047.61-.437.61H.625c-.36 0-.36-.094-.36-.61H0c.031.344.031.688.031.906 0 .235 0 .563-.031.907h.266c0-.5 0-.61.359-.61h1.438c.843 0 1.234.64 1.234 1.14 0 .517-.406.61-.844.61H.625c-.36 0-.36-.11-.36-.61H0c.031.345.031.688.031.907 0 .235 0 .563-.031.906h.266c0-.515 0-.609.359-.609h1.438c.843 0 1.234.64 1.234 1.14 0 .516-.406.61-.844.61H.625c-.36 0-.36-.11-.36-.61H0c.031.344.031.688.031.907 0 .234 0 .562-.031.906m0 0"/><path id="Y" d="M2.672 5.984c1.531 0 2.766-1.156 2.766-2.593V.359h-.266v.188c0 .61-.078.625-.375.625H.64c-.297 0-.375-.016-.375-.625V.359H0v3.032c0 1.437 1.188 2.593 2.672 2.593m0-.812c-.406 0-1.188 0-1.766-.5-.328-.266-.64-.781-.64-1.5v-.906c0-.375.046-.391.328-.391h4.265c.266 0 .313.016.313.39v.907c0 .625-.25 1.14-.64 1.5-.61.5-1.47.5-1.86.5m0 0"/><path id="Z" d="M1.703 3.984c.984 0 1.844-.828 1.844-1.875 0-1.046-.86-1.875-1.844-1.875-1 0-1.781.86-1.781 1.875 0 1.032.781 1.875 1.781 1.875m.063-.703c-.36 0-.797-.015-1.141-.25C.313 2.828.172 2.47.172 2.11c0-.421.203-.765.484-.937.328-.203.719-.219 1.11-.219.312 0 .78 0 1.125.235.28.218.437.546.437.921 0 .422-.203.766-.469.938-.343.219-.765.234-1.093.234m0 0"/><path id="aa" d="M1.031 3.047c.375 0 .938-.219 1.11-1.172.015-.062.093-.516.093-.547.063-.25.235-.625.547-.625.235 0 .578.188.578.938 0 .89-.656.937-.875.953-.062 0-.093.062-.093.11 0 .14.062.14.203.14h.75c.125 0 .203 0 .203-.11 0-.046 0-.062-.125-.187 0-.016-.078-.094-.078-.11 0 0 0-.03.031-.078.094-.125.172-.359.172-.718 0-1.11-.594-1.36-.985-1.36-.39 0-.624.297-.656.313-.234.328-.265.5-.36 1.047-.077.375-.187.984-.718.984-.312 0-.687-.203-.687-.937C.14.875.766.64 1.188.547c.109-.031.14-.047.14-.14C1.328.28 1.266.28 1.11.28H.125c-.125 0-.203 0-.203.094 0 .063 0 .063.156.203.047.047.14.125.188.172-.328.36-.344.734-.344.938 0 1.015.578 1.359 1.11 1.359m0 0"/><path id="ab" d="M1.719 4.422c1 0 1.797-.813 1.797-1.781 0-.313-.079-.766-.5-1.172h.5L3.422.28h-.266c0 .563-.047.61-.375.61H-.922c-.36 0-.36-.11-.36-.61h-.265c.031.344.031.688.031.907 0 .234 0 .562-.03.906h.265c0-.516 0-.61.36-.61H.39a1.37 1.37 0 0 0-.47 1.047c0 1 .782 1.89 1.798 1.89m0-.719C.812 3.703.14 3.125.14 2.484c0-.28.125-.64.515-.906.14-.094.156-.094.297-.094h1.703c.313.188.61.594.61 1.094 0 .61-.672 1.125-1.547 1.125m0 0"/><path id="ac" d="M.438 1.625a.453.453 0 0 0 .453-.453.436.436 0 0 0-.438-.438.44.44 0 0 0-.453.438.45.45 0 0 0 .438.453m0 0"/><path id="ad" d="M0 3.563h.266V3.28c0-.75.093-.781.39-.781h4.422c.219 0 .219-.016.219-.234-.313-.328-.5-.75-.5-1.5H4.53c0 .218 0 .64.203 1.109H.656c-.297 0-.39-.031-.39-.781V.812H0c.031.329.031 1.016.031 1.376s0 1.046-.031 1.374m0 0"/><path id="ae" d="M5.125 4.11V2.077c0-.203.016-.437.031-.64.032-.422.11-.422.235-.454v-.25L3.703.47v.25c.125.015.672.11.735.219.046.078.046.687.046.796v1.688l-1.109-.813C2.172 1.703.906 1.5.281 1.5c-.078 0-.453 0-.453.375s.36.375.453.375h.39c1.142 0 2.079.203 2.61.594L4.86 4.03c.079.078.094.078.266.078m0 0"/><path id="af" d="M1.313 3.984h.25v-.843h3.593c.157 0 .219 0 .219-.172 0-.094 0-.11-.11-.188L1.564.234h-.25v2.25H.64c-.297 0-.375-.015-.375-.64v-.172H0l.031 1.14L0 3.954h.266v-.172c0-.625.078-.64.375-.64h.672Zm.25-1.437V.516l2.953 2.03Zm0 0"/><path id="ag" d="M13.61-7.687v-.516l-1.297.031c-.344 0-1.22 0-1.5-.031v.515c.14 0 1.187 0 1.187.172 0 0 0 .032-.047.141L9.938-2.047l-2.126-5.64h1.125v-.516c-.374.031-1.484.031-1.937.031-.375 0-1.531 0-1.828-.031v.515h1.016l.484 1.297-1.64 4.344-2.126-5.64h1.125v-.516c-.343.031-1.515.031-1.953.031-.375 0-1.515 0-1.812-.031v.515h1L4.109-.171c.079.203.11.281.375.281.266 0 .297-.078.375-.28l2.079-5.5 2.093 5.5c.063.202.094.28.36.28.234 0 .297-.046.375-.28L12.5-7.407c.094-.203.11-.282 1.11-.282m0 0"/><path id="aG" d="M9.953 0v-.516h-.312c-.657 0-.703-.062-.813-.218L5.61-5.047l2.844-2.406c.156-.14.266-.234 1.328-.234v-.516L8.5-8.172c-.36 0-1.297 0-1.594-.031v.515c.266 0 .547.016.86.141l-4.47 3.813v-3.953h1.267v-.516c-.344.031-1.625.031-2.047.031-.438 0-1.72 0-2.063-.031v.515H1.72v7.172H.453V0c.344-.031 1.625-.031 2.063-.031.422 0 1.703 0 2.047.031v-.516H3.297v-2.562L4.53-4.125l2.5 3.344c.016.031.063.094.063.14 0 .125-.578.125-.844.125V0c.39-.031 1.5-.031 1.953-.031.36 0 1.485 0 1.75.031m0 0"/><path id="be" d="M5.766 0v-.516H4.14V-7.5c0-.344-.032-.344-.407-.344-.89.766-2.218.766-2.484.766h-.219v.516h.219c.422 0 1.063-.079 1.531-.235v6.281H1.125V0l2.313-.031Zm0 0"/><path id="bf" d="M6.188-3.812c0-1.141 0-4.032-2.829-4.032C.531-7.844.531-4.969.531-3.812c0 1.14 0 3.953 2.813 3.953 2.828 0 2.844-2.766 2.844-3.953M4.75-3.953c0 2.812-.187 2.984-.547 3.344a1.24 1.24 0 0 1-.844.359c-.39 0-.671-.156-.906-.406-.297-.297-.5-.485-.5-3.297 0-.844 0-1.61.11-2.234.156-1.172 1.015-1.266 1.28-1.266.391 0 1.126.187 1.298 1.187.109.61.109 1.579.109 2.313m0 0"/><path id="ah" d="M5.14-1.281c0-.063-.077-.157-.14-.157-.062 0-.094.032-.156.125C3.89-.125 2.594-.125 2.454-.125c-.938 0-1.048-1.016-1.048-1.39 0-.141.016-.516.203-1.25h.625c.344 0 1.235-.016 1.829-.266.843-.36.89-1.063.89-1.235 0-.53-.453-1.015-1.266-1.015-1.328 0-3.14 1.156-3.14 3.25C.547-.812 1.25.125 2.422.125 4.14.125 5.14-1.141 5.14-1.281m-.577-2.985c0 1.235-1.907 1.235-2.407 1.235h-.484c.469-1.813 1.703-1.985 2.016-1.985.562 0 .874.344.874.75m0 0"/><path id="av" d="M12.234-7.672c.047-.14.032-.578-.546-.578-.47 0-.782.188-1.22.5a5.3 5.3 0 0 0-1.14 1.219 9.4 9.4 0 0 0-.969 1.89H5.641l.797-3.093L7.094-8l.062-.203a38 38 0 0 0-1.39-.031c-.5 0-.922.062-1.438.172a3.2 3.2 0 0 0-1.219.609c-.484.36-.921.828-1.062 1.375-.047.187-.078.36-.094.562 0 .11 0 .235.078.313.047.078.125.156.25.156.156 0 .297-.11.438-.219a.49.49 0 0 0 .172-.328l.015-.484c.016-.14.016-.297.063-.453.078-.313.36-.563.61-.782.265-.203.562-.296.858-.359a5.5 5.5 0 0 1 1.235-.125l-.844 3.36c-.187.765-.422 1.546-.781 2.296-.203.47-.516.954-.938 1.297-.328.266-.75.407-1 .407-.203 0-.406-.016-.515-.172A1 1 0 0 1 1.5-.906a.75.75 0 0 0-.094-.281c-.062-.079-.218-.079-.343-.079a.57.57 0 0 0-.375.125.5.5 0 0 0-.188.297c-.062.25 0 .469.14.625.188.25.5.297.844.297.75 0 1.454-.36 2.11-.89.484-.375.89-.86 1.156-1.391.313-.625.578-1.313.781-1.985h2.672c-.172.5-.36 1.11-.453 1.47-.125.546-.25 1.077-.266 1.609 0 .359.094.703.266.968.156.172.39.235.656.235.422 0 .766-.172 1.125-.453.203-.172.406-.375.703-.672l-.187-.203a8 8 0 0 1-.656.593c-.141.141-.422.282-.563.282-.156 0-.25-.032-.328-.141-.156-.234-.172-.562-.172-.89a7.3 7.3 0 0 1 .297-1.594c.234-.985.484-1.97.89-2.922.126-.328.282-.594.5-.922.188-.266.376-.422.579-.578a.8.8 0 0 1 .5-.188c.172 0 .234.094.328.203a.3.3 0 0 0 .265.157.576.576 0 0 0 .547-.438m0 0"/><path id="ai" d="M4.531-1.766v-6.53h-1v6.483c0 .688-.344 1.329-1.39 1.329a1.96 1.96 0 0 1-1.485-.657L.484-.25c.704.36 1.375.5 2 .5 1.25 0 2.047-.734 2.047-2.016m0 0"/><path id="aj" d="M5.063 0v-5.312h-.907v3.421c0 .907-.625 1.36-1.406 1.36-.844 0-.922-.313-.922-.844v-3.937H.922v3.984c0 .86.265 1.453 1.25 1.453.344 0 1.281-.062 2.015-.719V0Zm0 0"/><path id="ak" d="M4.703 0v-.734H2.984c-.14 0-.28.015-.421.015H1.547l3.11-4.125v-.468H.483v.703h2.953L.329-.484V0ZM3.047-6.797v-1.016H2.016v1.016Zm0 0"/><path id="al" d="M1.813 0v-5.312H.938V0Zm.078-6.797v-1.016H.859v1.016Zm0 0"/><path id="am" d="M5.063 0v-8.297h-.891v3.485a2.65 2.65 0 0 0-1.688-.61c-1.14 0-2.062 1.219-2.062 2.766S1.297.125 2.437.125c.438 0 1.11-.156 1.704-.734V0ZM4.14-1.406c-.282.515-.703.812-1.22.812-.733 0-1.593-.562-1.593-2.047 0-1.593 1.016-2.062 1.703-2.062.469 0 .86.234 1.11.625Zm0 0"/><path id="an" d="M4.703 0v-.734H2.984c-.14 0-.28.015-.421.015H1.547l3.11-4.125v-.468H.483v.703h2.953L.329-.484V0Zm0 0"/><path id="ao" d="M4.86-2.687c0-.516-.048-1.25-.423-1.876-.5-.828-1.328-.921-1.671-.921C1.469-5.484.39-4.25.39-2.687.39-1.11 1.547.124 2.92.124c.563 0 1.22-.156 1.876-.64 0-.047-.047-.438-.047-.438s-.031-.281-.031-.328c-.703.593-1.407.687-1.766.687-.922 0-1.703-.828-1.734-2.093Zm-.704-.641h-2.86c.204-.813.767-1.438 1.47-1.438.359 0 1.187.157 1.39 1.438m0 0"/><path id="ap" d="M8.328 0v-3.594c0-.828-.219-1.828-1.61-1.828-1.015 0-1.577.703-1.765.969-.203-.766-.86-.969-1.484-.969-.985 0-1.5.625-1.703.875v-.812H.922V0h.906v-2.969c0-.797.313-1.734 1.188-1.734 1.093 0 1.156.75 1.156 1.187V0h.906v-2.969c0-.797.313-1.734 1.188-1.734 1.093 0 1.156.75 1.156 1.187V0Zm0 0"/><path id="aq" d="M5.484-2.625c0-1.625-1.187-2.86-2.562-2.86-1.406 0-2.563 1.266-2.563 2.86 0 1.563 1.188 2.75 2.563 2.75 1.406 0 2.562-1.219 2.562-2.75m-.906-.125c0 1.469-.844 2.125-1.656 2.125-.86 0-1.656-.719-1.656-2.125 0-1.453.89-2.016 1.656-2.016.812 0 1.656.625 1.656 2.016m-.016-5.547h-.906l-1.547 2h.72Zm0 0"/><path id="ar" d="M2.14.703v-6.015h-.89v6.14c0 .781-.625.86-.875.86-.531 0-.86-.344-.875-.375l-.234.718c.375.235.859.406 1.406.406.75 0 1.469-.624 1.469-1.734m0-7.5v-1.016H1.11v1.016Zm0 0"/><path id="as" d="M7.11-2.25c0-1.047-1.032-1.89-2.266-2.094 1.39-.375 1.937-1.172 1.937-1.875 0-1.078-1.218-2.078-2.906-2.078H1.109V0h3.094C5.875 0 7.11-1.078 7.11-2.25M5.86-6.203c0 .844-1.032 1.531-2.298 1.531H2.079v-2.953h1.469c1.281 0 2.312.625 2.312 1.422m.312 3.937c0 .844-.969 1.594-2.313 1.594H2.08v-3.281h1.593c1.547 0 2.5.86 2.5 1.687m0 0"/><path id="at" d="m5.672-4.703-.125-.719c-.234 0-1.047 0-1.828.39-.39-.327-.875-.39-1.11-.39-1.046 0-1.875.875-1.875 1.922 0 .422.125.828.391 1.188a1.64 1.64 0 0 0-.344 1.015c0 .453.156.75.297.906C.468 0 .328.516.328.844c0 .875 1.125 1.61 2.594 1.61 1.453 0 2.594-.704 2.594-1.61 0-1.688-1.938-1.688-2.422-1.688H2.078c-.172 0-.672 0-.672-.625 0-.265.047-.343.11-.437.203.14.593.343 1.078.343 1.031 0 1.875-.859 1.875-1.937a2.13 2.13 0 0 0-.36-1.156 7 7 0 0 1 .954-.063c.046 0 .312 0 .609.016M3.64-3.5c0 1.063-.672 1.281-1.032 1.281-.53 0-1.062-.36-1.062-1.265 0-1.063.672-1.282 1.047-1.282.531 0 1.047.36 1.047 1.266M4.688.844c0 .562-.829.953-1.766.953-.922 0-1.766-.375-1.766-.953 0-.047 0-.813.907-.813h1.046c.266 0 1.579 0 1.579.813m0 0"/><path id="au" d="M2.11-.016v-.953h-.97V0h.298L1.14 1.5h.468Zm0 0"/><path id="ax" d="M7.547 0 4.28-5.016l3.125-3.28H6.281L2.094-3.892v-4.406h-1V0h1v-2.703L3.64-4.328 6.453 0Zm0 0"/><path id="ay" d="M3.797-4.625v-.797c-1.078 0-1.719.64-2.047 1.11V-5.36H.938V0h.875v-2.625c0-1.203.906-1.984 1.984-2m0 0"/><path id="az" d="M1.813 0v-8.297H.938V0Zm0 0"/><path id="aA" d="M2.11 0v-.969h-.97V0Zm0 0"/><path id="aB" d="M6.547 0v-.766H5.422l-3.094.032h-.375l4.531-7.078v-.485H.813v.735h2.343c.14 0 .281-.016.422-.016h1.61L.64-.484V0Zm0 0"/><path id="aC" d="M5.563-2.672c0-1.469-.782-2.75-1.891-2.75-.344 0-1.11.063-1.86.672v-3.547H.939V0h.906v-.531c.547.515 1.125.656 1.547.656 1.14 0 2.172-1.172 2.172-2.797m-.907 0c0 1.563-.968 2.078-1.703 2.078-.328 0-.562-.125-.781-.297-.281-.25-.328-.453-.328-.656V-4.03c.218-.328.64-.672 1.234-.672.719 0 1.578.547 1.578 2.031m0 0"/><path id="aD" d="M4.797 0v-3.5c0-1.156-.828-1.984-1.938-1.984-.718 0-1.25.172-1.843.5l.078.78c.515-.374 1.062-.593 1.765-.593.547 0 1.032.453 1.032 1.313v.5c-.547.015-1.266.062-1.985.297C1.11-2.422.641-1.97.641-1.375c0 .531.312 1.5 1.328 1.5.656 0 1.5-.203 1.937-.562V0ZM3.89-1.61c0 .25 0 .532-.407.766-.312.203-.718.25-.906.25-.64 0-1.078-.343-1.078-.797 0-.812 1.656-.984 2.39-.984Zm0 0"/><path id="aE" d="M7.766-5.312H6.89l-.703 2.437c-.172.563-.516 1.688-.563 2.203-.047-.281-.234-1.078-.484-1.937l-.797-2.703H3.53L2.844-2.97c-.219.75-.5 1.781-.531 2.282h-.016c-.016-.235-.14-.86-.375-1.672l-.844-2.953H.172L1.766 0h.922c.453-1.5 1.156-3.781 1.218-4.61h.016c.015.485.265 1.344.344 1.626L5.109 0h1.063Zm0 0"/><path id="aF" d="M4.86-.5c0-.031-.032-.406-.048-.453l-.015-.344a2.8 2.8 0 0 1-1.828.672c-1 0-1.64-.875-1.64-2.047 0-.984.484-2.078 1.671-2.078.797 0 1.14.203 1.656.547l.14-.781c-.702-.407-1.093-.5-1.796-.5-1.656 0-2.578 1.453-2.578 2.812C.422-1.14 1.516.125 2.953.125c.578 0 1.25-.156 1.906-.625m0 0"/><path id="aH" d="M4.203-1.516c0-.609-.36-1-.406-1.046-.453-.47-.813-.532-1.531-.672-.438-.094-1.047-.203-1.047-.813 0-.734.843-.734 1-.734.625 0 1.125.14 1.656.437l.14-.765a3.9 3.9 0 0 0-1.687-.375c-.265 0-1.937 0-1.937 1.547 0 .53.297.89.468 1.062.438.36.735.422 1.438.563.39.093 1.078.234 1.078.859 0 .828-.922.828-1.094.828A3.12 3.12 0 0 1 .47-1.219l-.14.813c.046.031.859.531 1.968.531 1.547 0 1.906-.937 1.906-1.64m0 0"/><path id="aI" d="m3.89-.344-.171-.703c-.422.375-.86.422-1.078.422-.532 0-.594-.562-.594-.984v-3h1.64v-.703h-1.64v-1.516h-.828v1.516h-1v.703h.969v3.203c0 .703.156 1.531.984 1.531.797 0 1.36-.281 1.719-.469m0 0"/><path id="aJ" d="M5.484-2.625c0-1.625-1.187-2.86-2.562-2.86-1.406 0-2.563 1.266-2.563 2.86 0 1.563 1.188 2.75 2.563 2.75 1.406 0 2.562-1.219 2.562-2.75m-.906-.125c0 1.469-.844 2.125-1.656 2.125-.86 0-1.656-.719-1.656-2.125 0-1.453.89-2.016 1.656-2.016.812 0 1.656.625 1.656 2.016m0 0"/><path id="aK" d="M5.063 0v-3.594c0-.734-.157-1.828-1.594-1.828-.672 0-1.25.297-1.703.875v-.812H.922V0h.906v-2.969c0-.75.281-1.734 1.188-1.734 1.109 0 1.14.766 1.14 1.187V0Zm0 0"/><path id="aL" d="M5.469 0 3.25-3.266l1.969-2.046h-1.11L1.813-2.906v-5.39H.938V0h.828v-1.719l.906-.953L4.5 0Zm0 0"/><path id="aM" d="M5.172-5.312h-.89c-.548 1.421-1.47 3.765-1.516 4.625H2.75c-.062-.72-.687-2.282-.797-2.532L1.11-5.312H.172L2.39 0l-.422 1.094c-.266.593-.438.656-.657.656-.171 0-.546-.047-.921-.187l.078.78c.062.016.469.095.844.095.296 0 .843 0 1.359-1.313Zm0 0"/><path id="aN" d="m5.219 2.234-.157-.703c-.265.11-.546.172-.812.172-.328-.031-.61-.094-.625-.453C3.609.719 4.109.313 4.656 0h.14v-3.5c0-1.156-.827-1.984-1.937-1.984-.718 0-1.25.172-1.843.5l.078.78c.515-.374 1.062-.593 1.765-.593.547 0 1.032.453 1.032 1.313v.5c-.547.015-1.266.062-1.985.297C1.11-2.422.641-1.97.641-1.375c0 .531.312 1.5 1.328 1.5.656 0 1.5-.203 1.937-.562V0c-.594.328-1.078.906-1.031 1.516 0 .515.375 1.015 1.172 1.015.406 0 .703-.062 1.172-.297M3.89-1.609c0 .25 0 .53-.407.765-.312.203-.718.25-.906.25-.64 0-1.078-.343-1.078-.797 0-.812 1.656-.984 2.39-.984Zm0 0"/><path id="aO" d="M9.016 0v-8.297h-1.36L6.281-4.609c-.61 1.672-1.078 2.922-1.203 3.468h-.016c-.03-.203-.187-.64-.343-1.109-.219-.64-.219-.672-.407-1.156L2.5-8.296H1.14V0h.923v-7.375c.171.813 2.109 5.922 2.562 7.125H5.5c.39-1.031 2.36-6.234 2.578-7.14h.016V0Zm0 0"/><path id="aP" d="M4.047-7.5v-.797c-.078-.015-.469-.125-.922-.125-1.125 0-1.937.875-1.937 2.031v1.079H.313v.703h.875V0h.875v-4.61h1.28v-.702H2.048v-1.422c0-.813.672-.97 1.078-.97s.781.141.922.204m0 0"/><path id="aQ" d="M2.11 0v-.969h-.97V0Zm2.03 0v-.969h-.968V0Zm2.048 0v-.969h-.97V0Zm0 0"/><path id="aR" d="m3.688-5.36-.485-.515-.828.719v-3.14H1.5v3.874L.328-3.375l.453.547.719-.656V0h.875v-4.234Zm0 0"/><path id="aS" d="M4.203-1.516c0-.609-.36-1-.406-1.046-.453-.47-.813-.532-1.531-.672-.438-.094-1.047-.203-1.047-.813 0-.734.843-.734 1-.734.625 0 1.125.14 1.656.437l.14-.765a3.9 3.9 0 0 0-1.687-.375c-.265 0-1.937 0-1.937 1.547 0 .53.297.89.468 1.062.438.36.735.422 1.438.563.39.093 1.078.234 1.078.859 0 .828-.922.828-1.094.828A3.12 3.12 0 0 1 .47-1.219l-.14.813c.046.031.859.531 1.968.531 1.547 0 1.906-.937 1.906-1.64m-.312-6.78h-.922l-1.547 2h.719Zm0 0"/><path id="aT" d="M7.969-4.125c0-2.531-1.719-4.422-3.657-4.422-1.984 0-3.671 1.922-3.671 4.422C.64-1.609 2.375.25 4.297.25c1.984 0 3.672-1.875 3.672-4.375m-1.032-.172C6.938-1.953 5.658-.5 4.313-.5c-1.39 0-2.64-1.5-2.64-3.797 0-2.203 1.297-3.516 2.625-3.516 1.375 0 2.64 1.344 2.64 3.516m0 0"/><path id="aU" d="M5.563-2.672c0-1.437-.75-2.75-1.875-2.75-.485 0-1.25.156-1.876.672v-.562H.939v7.625h.906V-.531c.406.36.906.656 1.547.656 1.156 0 2.172-1.172 2.172-2.797m-.907.016c0 1.203-.812 2.062-1.703 2.062-.328 0-.562-.125-.781-.297-.297-.25-.328-.468-.328-.656v-2.469a1.47 1.47 0 0 1 1.219-.671c.874 0 1.593.89 1.593 2.03m0 0"/><path id="aV" d="M4.86-.5c0-.031-.032-.406-.048-.453l-.015-.344a2.8 2.8 0 0 1-1.828.672c-1 0-1.64-.875-1.64-2.047 0-.984.484-2.078 1.671-2.078.797 0 1.14.203 1.656.547l.14-.781c-.702-.407-1.093-.5-1.796-.5-1.656 0-2.578 1.453-2.578 2.812C.422-1.14 1.516.125 2.953.125c.578 0 1.25-.156 1.906-.625M4.5-8.297h-.922l-1.547 2h.719Zm0 0"/><path id="aW" d="M5.063 0v-3.594c0-.734-.157-1.828-1.594-1.828-.828 0-1.375.469-1.656.813v-3.688H.922V0h.906v-2.969c0-.75.281-1.734 1.188-1.734 1.109 0 1.14.766 1.14 1.187V0Zm0 0"/><path id="aX" d="M6.797-5.875c0-1.266-1.172-2.422-2.797-2.422H1.094V0h1.015v-3.453H4c1.656 0 2.797-1.188 2.797-2.422m-.953-.016c0 .938-.735 1.75-2.094 1.75H2.094v-3.484H3.75c1.406 0 2.094.828 2.094 1.734m0 0"/><path id="aY" d="M5.844-2.266c0-.765-.375-1.328-.625-1.625-.563-.593-1-.718-1.797-.921-.813-.204-1.11-.266-1.375-.516-.156-.172-.485-.469-.485-1 0-.734.657-1.438 1.72-1.438 1.015 0 1.546.391 1.984.766l.172-.953c-.485-.266-1.094-.594-2.157-.594-1.594 0-2.64 1.14-2.64 2.344 0 .844.515 1.39.578 1.453.593.61 1 .703 1.75.906 1.031.25 1.187.297 1.578.688.203.219.375.594.375 1.015 0 .829-.672 1.594-1.703 1.594a3.75 3.75 0 0 1-2.516-1l-.172.969A4.9 4.9 0 0 0 3.22.25C4.75.25 5.844-.937 5.844-2.266m-.328-8.093H4.203L2.11-8.906h1.063Zm0 0"/><path id="aZ" d="M2.11-4.344v-.968h-.97v.968ZM2.11 0v-.969h-.97V0Zm0 0"/><path id="ba" d="M2.344-8.297h-.969l.094 6.235h.781Zm0 8.297v-.969h-.969V0Zm0 0"/><path id="bb" d="M4.86-2.687c0-.516-.048-1.25-.423-1.876-.5-.828-1.328-.921-1.671-.921C1.469-5.484.39-4.25.39-2.687.39-1.141 1.5.078 2.844.124c-.531.344-.875.828-.828 1.39 0 .516.375 1.016 1.172 1.016.39 0 .703-.062 1.171-.297l-.156-.703c-.266.11-.547.172-.812.172-.328-.031-.625-.094-.625-.453-.016-.531.5-.969 1.047-1.281.328-.094.64-.25.984-.485 0-.046-.047-.437-.047-.437s-.031-.281-.031-.328c-.703.593-1.407.687-1.766.687-.922 0-1.703-.828-1.734-2.093Zm-.704-.641h-2.86c.204-.813.767-1.438 1.47-1.438.359 0 1.187.157 1.39 1.438m0 0"/><path id="aw" d="M4.344-5.125H2.25c-.312 0-.406-.016-.687-.031-.422-.047-.438-.094-.454-.235H.844L.563-3.687h.265c.016-.11.094-.641.219-.72.062-.046.719-.046.828-.046h1.75l-.844 1.047C1.75-2.031 1.656-.766 1.656-.296c0 .093 0 .452.375.452s.375-.36.375-.453v-.328c0-1.547.313-2.25.656-2.687l1.204-1.5c.078-.094.078-.11.078-.313m0 0"/><path id="bg" d="M5.547 0v-.25h-.125c-.469 0-.516-.078-.594-.266L3.125-4.812c-.031-.11-.062-.157-.187-.157-.141 0-.157.047-.204.157L1.125-.734C1.063-.562.938-.25.313-.25V0c.234-.016.484-.031.718-.031.282 0 .797.031.844.031v-.25c-.312 0-.516-.14-.516-.328 0-.063.016-.078.047-.14l.328-.86H3.72l.406 1.016c0 .03.031.078.031.109 0 .203-.375.203-.562.203V0l1.031-.031c.328 0 .86.031.922.031M3.609-1.828H1.83l.89-2.266Zm0 0"/><path id="bh" d="M4.047 0v-.25c-.469 0-.516-.047-.516-.39v-4.204l-1.047.078v.25c.47 0 .516.063.516.391v1.453a1.37 1.37 0 0 0-.969-.406c-.937 0-1.703.703-1.703 1.578S1.062.063 1.938.063c.578 0 .921-.297 1.03-.422v.422ZM2.969-.734c-.172.328-.531.609-.985.609-.39 0-.671-.234-.812-.437-.14-.204-.219-.485-.219-.922 0-.172 0-.688.281-1.016.282-.312.625-.375.829-.375.328 0 .64.156.828.406.078.11.078.11.078.25Zm0 0"/><path id="bi" d="M5.469-2.75V-3c-.188.016-.313.031-.5.031-.219 0-.485-.015-.688-.031v.25c.235 0 .36.14.36.297 0 .062 0 .078-.047.172L3.922-.547l-.75-1.906a.3.3 0 0 1-.031-.125c0-.156.172-.172.375-.172V-3c-.25.016-.5.031-.75.031-.203 0-.422-.015-.625-.031v.25c.172 0 .312 0 .406.047.094.078.156.312.156.312s-.015.063-.031.079L2.016-.641l-.703-1.812c-.032-.094-.032-.094-.032-.125 0-.172.25-.172.375-.172V-3s-.515.031-.797.031C.641-2.969.422-2.984.203-3v.25c.281 0 .438 0 .5.203l.969 2.453c.047.11.062.157.203.157.125 0 .14-.047.172-.141l.797-1.984.765 1.968c.047.094.063.157.204.157.124 0 .14-.047.187-.157l.875-2.234c.14-.344.375-.422.594-.422m0 0"/><path id="bj" d="M3.266-.844c0-.015-.016-.094-.125-.094-.094 0-.11.047-.125.11-.22.562-.75.672-1 .672-.328 0-.641-.14-.844-.406-.266-.329-.266-.75-.266-1.032h2.157c.156 0 .203 0 .203-.14 0-.625-.344-1.375-1.391-1.375a1.59 1.59 0 0 0-1.61 1.578c0 .89.782 1.594 1.704 1.594.937 0 1.297-.75 1.297-.907m-.485-.922H.906c.078-.984.703-1.14.969-1.14.86 0 .89.969.906 1.14m0 0"/><path id="bk" d="M4.11 0v-.25c-.454 0-.516 0-.516-.297v-1.562c0-.61-.297-.97-1.047-.97-.578 0-.938.313-1.14.688v-.687L.374-3v.25c.469 0 .531.047.531.39v1.813c0 .297-.078.297-.531.297V0s.5-.031.797-.031c.25 0 .734.031.797.031v-.25c-.453 0-.516 0-.516-.297v-1.265c0-.72.578-1.063 1.031-1.063.485 0 .547.375.547.734v1.594c0 .297-.062.297-.515.297V0s.5-.031.797-.031c.25 0 .734.031.796.031m0 0"/><path id="bl" d="M2.61-.875v-.39h-.235v.374c0 .485-.219.735-.5.735-.469 0-.469-.578-.469-.703V-2.75h1.078V-3H1.406v-1.281h-.25c0 .625-.281 1.312-.953 1.328v.203h.64v1.875c0 .781.595.938.985.938.469 0 .781-.391.781-.938m0 0"/><path id="bm" d="M3.516-1.266H3.28c-.015.157-.094.563-.187.625-.047.047-.578.047-.688.047H1.125c.734-.64.984-.843 1.39-1.172.516-.406 1-.843 1-1.5 0-.843-.734-1.359-1.624-1.359-.86 0-1.453.61-1.453 1.25 0 .344.296.39.375.39.156 0 .359-.124.359-.374 0-.125-.047-.375-.406-.375.218-.485.687-.641 1.015-.641.703 0 1.063.547 1.063 1.11 0 .609-.438 1.078-.656 1.328L.516-.266C.437-.203.437-.187.437 0h2.876Zm0 0"/><path id="bn" d="M3.594-2.219c0-.765-.094-1.328-.406-1.812-.22-.313-.657-.594-1.204-.594C.36-4.625.36-2.719.36-2.219s0 2.36 1.625 2.36c1.61 0 1.61-1.86 1.61-2.36m-.625-.094c0 .516 0 1.032-.094 1.47-.14.64-.61.78-.89.78-.329 0-.75-.187-.891-.75C1-1.219 1-1.796 1-2.312c0-.515 0-1.046.094-1.421.156-.547.593-.703.89-.703.375 0 .735.234.86.64.11.375.125.875.125 1.485m0 0"/><path id="bo" d="M3.516-1.406c0-.782-.594-1.5-1.453-1.5-.313 0-.672.062-.985.328v-1.313c.36.094.563.094.672.094.922 0 1.469-.625 1.469-.734 0-.078-.047-.094-.078-.094 0 0-.032 0-.063.016-.172.062-.531.203-1.047.203-.203 0-.562-.016-1.015-.188-.079-.031-.094-.031-.094-.031-.094 0-.094.078-.094.188v2.046c0 .125 0 .204.11.204.062 0 .078 0 .14-.094.297-.375.734-.438.969-.438.422 0 .61.328.64.39.126.235.172.5.172.907 0 .203 0 .61-.218.922a.98.98 0 0 1-.813.422c-.453 0-.922-.25-1.094-.719.266.016.407-.156.407-.344 0-.296-.266-.343-.36-.343 0 0-.343 0-.343.375 0 .625.578 1.25 1.406 1.25.89 0 1.672-.657 1.672-1.547m0 0"/><path id="bp" d="M7.813-1.75v-.203H.109v.203Zm0 0"/><path id="bq" d="M3.578-2.297c0-1.719-.765-2.328-1.578-2.328a1.55 1.55 0 0 0-1.11.422c-.234.234-.515.5-.515 1.125 0 .89.703 1.547 1.516 1.547.562 0 .859-.375 1.015-.688v.14c0 1.735-.844 2-1.265 2-.157 0-.532-.015-.72-.233a.315.315 0 0 0 .313-.329.32.32 0 0 0-.328-.328c-.203 0-.328.14-.328.344 0 .469.39.766 1.063.766 1 0 1.937-.938 1.937-2.438M2.891-3c0 .906-.516 1.266-.953 1.266-.282 0-.532-.079-.735-.407-.156-.25-.156-.546-.156-.937 0-.406 0-.672.203-.953.172-.25.39-.39.75-.39s.578.218.688.405c.187.282.203.782.203 1.016m0 0"/><path id="br" d="M2.516 0v-.25h-.172c-.578 0-.578-.078-.578-.328v-3.61c0-.234 0-.328.578-.328h.172v-.25l-1.078.032-1.079-.032v.25h.172c.578 0 .578.094.578.329v3.609c0 .25 0 .328-.578.328H.36V0l1.079-.031Zm0 0"/><path id="bs" d="M3.578-1.422c0-.89-.703-1.547-1.515-1.547-.563 0-.86.375-1.016.688 0-.563.047-1.078.312-1.516.235-.375.61-.625 1.063-.625.203 0 .484.047.625.234-.172.016-.328.141-.328.344a.32.32 0 0 0 .328.328c.219 0 .344-.14.344-.343 0-.407-.297-.766-.985-.766-1 0-2.031.922-2.031 2.422C.375-.406 1.219.14 2 .14c.844 0 1.578-.657 1.578-1.563m-.672 0c0 .39 0 .688-.187.969A.82.82 0 0 1 2-.078c-.36 0-.625-.203-.781-.516-.094-.203-.157-.562-.157-.968 0-.688.407-1.204.97-1.204.312 0 .53.125.702.375.172.266.172.563.172.97m0 0"/><path id="bt" d="M2.016 1.734v-.328h-.72V-4.89h.72v-.328H.953v6.953Zm0 0"/><path id="bu" d="M3.797-4.484H1.969c-.282 0-.36-.016-.61-.032C1-4.546.984-4.594.97-4.703H.734L.484-3.22H.72c.015-.11.094-.562.203-.64.047-.032.625-.032.719-.032h1.515l-.719.922c-.906 1.188-1 2.297-1 2.703 0 .079 0 .407.329.407.343 0 .343-.313.343-.407v-.28c0-1.345.282-1.97.579-2.345l1.046-1.312c.063-.094.063-.11.063-.281m0 0"/><path id="bv" d="M3.578-1.203c0-.547-.437-1.094-1.203-1.25.719-.266.984-.781.984-1.219 0-.547-.625-.953-1.406-.953-.766 0-1.36.375-1.36.938 0 .234.157.359.36.359.219 0 .36-.156.36-.344 0-.203-.141-.36-.36-.375.25-.297.719-.375.985-.375.312 0 .75.156.75.75 0 .297-.094.625-.282.828-.219.266-.422.281-.765.313-.172.015-.188.015-.22.015 0 0-.077.016-.077.094 0 .094.062.094.187.094h.375c.547 0 .938.375.938 1.125 0 .86-.516 1.125-.906 1.125-.282 0-.907-.078-1.188-.5.328 0 .406-.235.406-.39 0-.22-.172-.376-.39-.376a.38.38 0 0 0-.391.407C.375-.281 1.094.14 1.938.14c.968 0 1.64-.657 1.64-1.344m0 0"/><path id="bw" d="M1.531-.39a.403.403 0 0 0-.406-.407.4.4 0 0 0-.406.39c0 .25.203.407.406.407a.4.4 0 0 0 .406-.39m0 0"/><path id="bx" d="M1.297 1.734v-6.953H.219v.328h.734v6.297H.22v.328Zm0 0"/><path id="by" d="M4.563 0v-.437H3.266v-5.157c0-.187 0-.297-.266-.297-.11 0-.125 0-.203.063-.688.516-1.656.516-1.828.516H.797v.437h.172a4.2 4.2 0 0 0 1.203-.172v4.61H.89V0c.343-.031 1.422-.031 1.828-.031.422 0 1.484 0 1.844.031m0 0"/><path id="bz" d="M4.86-2.953c0-.469-.032-1.39-.485-2.094-.297-.437-.828-.844-1.719-.844-1.281 0-2.218.72-2.218 1.938 0 1.125.765 1.937 2.093 1.937.406 0 .781-.203 1.063-.687v.172c0 .578-.063 1.156-.235 1.531-.109.234-.468.703-1.171.703-.079 0-.454 0-.735-.187a.55.55 0 0 0 .422-.563c0-.375-.281-.578-.578-.578-.25 0-.594.14-.594.594 0 .61.469 1.14 1.5 1.14 1.25 0 2.656-.796 2.656-3.062m-1.266-.89c0 .406-.172 1.452-1.031 1.452-.86 0-.86-.656-.86-1.53 0-.876 0-1.61.984-1.61.563 0 .766.515.797.593.11.297.11.782.11 1.094m0 0"/><path id="bA" d="M4.766-2.016h-.453c-.016.125-.094.766-.235.829-.11.046-.781.046-.937.046H1.859c.485-.39 1.016-.812 1.47-1.125.75-.53 1.437-1.015 1.437-1.89 0-1.047-.953-1.735-2.25-1.735-1.11 0-1.985.532-1.985 1.36 0 .468.36.687.672.687a.65.65 0 0 0 .656-.672c0-.203-.078-.53-.468-.64.312-.25.718-.282.89-.282.735 0 1.203.547 1.203 1.282 0 .656-.375 1.234-.859 1.718l-2 1.985c-.094.094-.094.11-.094.281V0H4.5Zm0 0"/><clipPath id="b"><path d="M.535.266h6.883v9.636H.535Zm0 0"/></clipPath><clipPath id="a"><path d="M0 0h8v10H0z"/></clipPath><clipPath id="C"><path d="M385.168 26.766h13.95v9.636h-13.95Zm0 0"/></clipPath><clipPath id="bc"><path d="M15.023 568.348H403v11.336H15.023Zm0 0"/></clipPath><linearGradient id="bd" x1="0" x2="388.063" y1="0" y2="0" gradientTransform="matrix(1 0 0 -1 15.024 579.685)" gradientUnits="userSpaceOnUse"><stop offset="0" stop-color="#f2f2f2"/><stop offset=".25" stop-color="#f2f2f2"/><stop offset=".313" stop-color="#f2f2f2"/><stop offset=".344" stop-color="#f2f2f2"/><stop offset=".359" stop-color="#f3f3f3"/><stop offset=".363" stop-color="#f4f4f4"/><stop offset=".367" stop-color="#f5f5f5"/><stop offset=".371" stop-color="#f6f6f6"/><stop offset=".375" stop-color="#f7f7f7"/><stop offset=".379" stop-color="#f8f8f8"/><stop offset=".383" stop-color="#f9f9f9"/><stop offset=".387" stop-color="#fafafa"/><stop offset=".391" stop-color="#fbfbfb"/><stop offset=".395" stop-color="#fcfcfc"/><stop offset=".398" stop-color="#fcfcfc"/><stop offset=".406" stop-color="#fcfcfc"/><stop offset=".438" stop-color="#fcfcfc"/><stop offset=".5" stop-color="#fcfcfc"/><stop offset=".563" stop-color="#fcfcfc"/><stop offset=".566" stop-color="#fcfcfc"/><stop offset=".57" stop-color="#fbfbfb"/><stop offset=".574" stop-color="#fafafa"/><stop offset=".578" stop-color="#f9f9f9"/><stop offset=".582" stop-color="#f8f8f8"/><stop offset=".586" stop-color="#f7f7f7"/><stop offset=".59" stop-color="#f6f6f6"/><stop offset=".594" stop-color="#f5f5f5"/><stop offset=".598" stop-color="#f4f4f4"/><stop offset=".602" stop-color="#f3f3f3"/><stop offset=".609" stop-color="#f3f3f3"/><stop offset=".625" stop-color="#f2f2f2"/><stop offset=".75" stop-color="#f2f2f2"/><stop offset="1" stop-color="#f2f2f2"/></linearGradient><g id="c" clip-path="url(#a)"><g clip-path="url(#b)"><path fill-rule="evenodd" d="m3.977 7.836 3.441 2.066V1.645c0-.762-.617-1.38-1.375-1.38H1.914C1.152.266.535.884.535 1.646v8.257Zm-2.754.851 2.754-1.652L6.73 8.687V1.646a.69.69 0 0 0-.687-.692H1.914a.69.69 0 0 0-.691.692Zm0 0"/></g></g></defs><use xlink:href="#c" transform="translate(9 27)"/><use xlink:href="#d" x="17.008" y="23.315"/><use xlink:href="#e" x="20.884" y="23.315"/><use xlink:href="#f" x="25.526" y="23.315"/><use xlink:href="#g" x="384.039" y="23.315"/><use xlink:href="#h" x="390.168" y="23.315"/><use xlink:href="#i" x="392.79" y="23.315"/><use xlink:href="#j" x="396.727" y="23.315"/><use xlink:href="#k" x="140.458" y="34.908"/><use xlink:href="#l" x="146.663" y="34.908"/><use xlink:href="#m" x="153.369" y="34.908"/><use xlink:href="#n" x="163.448" y="34.908"/><use xlink:href="#o" x="166.508" y="34.908"/><use xlink:href="#p" x="173.215" y="34.908"/><use xlink:href="#n" x="178.905" y="34.908"/><use xlink:href="#q" x="181.966" y="34.908"/><use xlink:href="#r" x="192.462" y="34.908"/><use xlink:href="#s" x="202.827" y="34.908"/><use xlink:href="#t" x="209.402" y="34.908"/><use xlink:href="#u" x="217.209" y="34.908"/><use xlink:href="#s" x="225.972" y="34.908"/><use xlink:href="#v" x="232.547" y="34.908"/><use xlink:href="#w" x="248.09" y="34.908"/><use xlink:href="#x" x="254.241" y="34.908"/><use xlink:href="#y" x="258.849" y="34.908"/><use xlink:href="#z" x="261.046" y="34.908"/><use xlink:href="#A" x="265.143" y="34.908"/><use xlink:href="#B" x="269.904" y="34.908"/><g clip-path="url(#C)"><path d="M394.441 28.977c-.253.289-.46.57-.968.777-.13.05-.192.105-.153.273.516 2.235.496 2.657.688 3.118.027.07-.031.085-.07.113a1.6 1.6 0 0 1-.543.176c-.079.011-.106.027-.106.109q.005 1.137.004 2.273c0 .153.105.207.223.23.086.02.156.067.238.087.078.023.101.105.086.183-.02.133-.098.063-.883.082-.113.004-.14-.054-.144-.14-.02-.488-.086-.973-.114-1.461-.02-.383-.11-.766-.156-1.152-.023-.172-.148-.075-.285-.106-.121-.027-.16.063-.164.14-.028.446-.137.88-.149 1.329-.011.414-.062.824-.101 1.238-.008.082-.051.121-.149.121-.78-.023-.86.047-.879-.086-.03-.191.153-.203.215-.23.332-.137.332-.14.332-.496q-.001-1.001.004-1.996c0-.274-.14-.055-.637-.329-.074-.042-.097-.078-.074-.171.239-.875.469-1.754.703-2.63.036-.128.012-.202-.12-.261-1.223-.55-1.462-.895-1.75-1.05-.094.136-.122.292-.192.433-.48.972-.79.965-.79 1.238 0 1.559.005 3.117 0 4.68-.003.226.173.32.305.441.067.063.165.102.137.211-.031.125-.14.106-.238.106-.121-.004-.246.015-.36-.012-.187-.043-.421-.36-.425-.563-.012-.52-.14-1.027-.172-1.547a7 7 0 0 0-.117-.89c-.117.105-.106.234-.137.347-.617 2.446-.523 2.274-.777 2.57-.098.122-.176.09-.586.095-.059 0-.125.003-.137-.07-.05-.313.25.011.484-.79a7 7 0 0 0 .223-1.156c.191-1.465.234-1.809.223-3.223-.004-.11-.032-.183-.11-.254-.636-.59-1.36-1.39-1.636-2.218a.24.24 0 0 1 .03-.227c.063-.082.114-.129.204-.004 1.203 1.66 1.445 1.758 1.695 1.746.047-.004.117.032.121-.054 0-.067.02-.13-.066-.172-.273-.14-.469-.36-.527-.664-.118-.602.101-1.106.832-1.137.16-.008.32-.012.484.058.3.125.48.329.512.645.05.488-.059.832-.528 1.117-.074.047-.097.098-.086.18.012.105.094.055.145.058.09.008.18.004.266-.042.476-.258.77-.668.98-1.153.035-.082-.027-.101-.062-.137-.172-.171-.356-.335-.418-.585-.079-.32.101-.45.285-.27.672.648.484.633 1.87 1.316.18.09.083.028.852.051.079.004.122-.027.137-.094.012-.066.024-.136-.05-.18-.544-.316-.739-.859-.57-1.468.093-.332.28-.555.589-.664 1.11-.39 1.656.941 1.238 1.71-.074.138-.199.24-.316.333-.078.058-.063.117-.055.176.008.078.082.043.125.047.477.039.856-.141 1.2-.473.456-.442 1.046-1.145 1.077-.606.02.262-.152.422-.332.555-.125.094-.164.145-.09.309.25.574.606 1.058 1.075 1.468.125.11.262.204.437.192.043-.004.117.027.114-.059 0-.054.03-.12-.055-.16-.317-.137-.438-.414-.516-.723-.097-.378.23-.894.574-1.02a.81.81 0 0 1 1 .423q.333.666-.203 1.21c-.074.079-.195.13-.18.274.005.063.016.086.087.09.183.012.328-.066.457-.184 1.144-.992.984-1.695 1.37-1.812.067-.02.15-.082.2.004.094.148-.05.336-.094.363-.183.125-.219.332-.297.512-.242.562-.48 1.133-.965 1.531-.238.2-.23.402-.16.637.168.57.235 1.168.43 1.73.035.094-.004.164-.113.18-.145.02-.29.055-.434.062-.09.008-.101.043-.101.118 0 .593.16 1.59.136 1.882-.035.375.461.317.375.59-.02.063-.07.106-.144.098-.13-.012-.258.023-.387-.027-.398-.149-.273-.493-.457-1.914-.027-.204-.027-.41-.04-.614-.003-.035.017-.086-.046-.09-.066-.003-.05.047-.055.086-.035.41-.054.825-.109 1.235-.082.59.012 1.289-.562 1.293-.07 0-.137-.004-.208 0-.082.004-.132-.04-.152-.11-.031-.12.04-.18.152-.234.34-.172.2-.508.329-2.113.011-.149-.024-.203-.192-.2-.183.004-.367-.035-.55-.066-.122-.02-.098-.117-.075-.191.168-.5.246-1.024.371-1.532.028-.12.192-.632.047-.714-.43-.247-.644-.665-.875-1.075-.183-.324-.305-.675-.469-1.05m0 0"/></g><path fill="none" stroke="#000" stroke-miterlimit="10" stroke-width=".398" d="M17.008 39.293h384.094"/><use xlink:href="#D" x="399.042" y="133.778"/><use xlink:href="#E" x="399.042" y="127.131"/><use xlink:href="#F" x="399.042" y="124.78"/><use xlink:href="#G" x="399.042" y="117.726"/><use xlink:href="#E" x="399.042" y="113.255"/><use xlink:href="#H" x="399.042" y="110.904"/><use xlink:href="#I" x="399.042" y="107.142"/><use xlink:href="#H" x="399.042" y="102.44"/><use xlink:href="#E" x="399.042" y="95.857"/><use xlink:href="#J" x="399.042" y="93.506"/><use xlink:href="#K" x="399.042" y="88.333"/><use xlink:href="#E" x="399.042" y="81.28"/><use xlink:href="#L" x="399.042" y="78.928"/><use xlink:href="#M" x="399.042" y="71.875"/><use xlink:href="#E" x="399.042" y="65.411"/><use xlink:href="#L" x="399.042" y="63.06"/><use xlink:href="#N" x="399.042" y="56.007"/><use xlink:href="#O" x="399.042" y="51.304"/><use xlink:href="#P" x="399.042" y="48.953"/><use xlink:href="#Q" x="399.042" y="44.721"/><use xlink:href="#R" x="403.164" y="40.487"/><use xlink:href="#S" x="403.164" y="46.122"/><use xlink:href="#T" x="403.164" y="53.167"/><use xlink:href="#U" x="403.164" y="57.638"/><use xlink:href="#V" x="403.164" y="59.99"/><use xlink:href="#W" x="403.164" y="63.751"/><use xlink:href="#V" x="403.164" y="68.454"/><use xlink:href="#X" x="403.164" y="75.037"/><use xlink:href="#U" x="403.164" y="82.09"/><use xlink:href="#Y" x="403.164" y="87.263"/><use xlink:href="#U" x="403.164" y="93.727"/><use xlink:href="#Z" x="403.164" y="96.078"/><use xlink:href="#aa" x="403.164" y="100.31"/><use xlink:href="#ab" x="403.164" y="106.471"/><use xlink:href="#ac" x="403.164" y="111.173"/><use xlink:href="#ad" x="403.164" y="113.524"/><use xlink:href="#ae" x="403.164" y="117.756"/><use xlink:href="#af" x="403.164" y="121.988"/><use xlink:href="#ag" x="97.705" y="60.378"/><use xlink:href="#ah" x="117.574" y="50.293" fill="red"/><use xlink:href="#ai" x="117.574" y="60.378"/><use xlink:href="#aj" x="123.061" y="60.378"/><use xlink:href="#ak" x="129.063" y="60.378"/><use xlink:href="#al" x="138.041" y="60.378"/><use xlink:href="#am" x="140.791" y="60.378"/><use xlink:href="#an" x="146.792" y="60.378"/><use xlink:href="#al" x="151.873" y="60.378"/><use xlink:href="#ao" x="154.623" y="60.378"/><use xlink:href="#ap" x="163.72" y="60.378"/><use xlink:href="#aq" x="172.973" y="60.378"/><use xlink:href="#ar" x="178.831" y="60.378"/><use xlink:href="#as" x="185.813" y="60.378"/><use xlink:href="#aq" x="193.584" y="60.378"/><use xlink:href="#at" x="199.442" y="60.378"/><use xlink:href="#au" x="205.3" y="60.378"/><use xlink:href="#ar" x="212.449" y="60.378"/><use xlink:href="#aj" x="215.533" y="60.378"/><use xlink:href="#ak" x="221.535" y="60.378"/><use xlink:href="#al" x="230.513" y="60.378"/><use xlink:href="#am" x="233.262" y="60.378"/><use xlink:href="#an" x="239.264" y="60.378"/><use xlink:href="#al" x="244.345" y="60.378"/><use xlink:href="#ao" x="247.094" y="60.378"/><use xlink:href="#ap" x="256.192" y="60.378"/><use xlink:href="#aq" x="265.445" y="60.378"/><use xlink:href="#ar" x="271.303" y="60.378"/><use xlink:href="#av" x="278.288" y="50.293" fill="red"/><use xlink:href="#aw" x="291.02" y="45.953" fill="red"/><use xlink:href="#ax" x="278.288" y="60.378"/><use xlink:href="#ay" x="286.346" y="60.378"/><use xlink:href="#aq" x="290.327" y="60.378"/><use xlink:href="#az" x="296.185" y="60.378"/><use xlink:href="#aA" x="298.934" y="60.378"/><use xlink:href="#ai" x="117.574" y="81.226"/><use xlink:href="#aj" x="123.061" y="81.226"/><use xlink:href="#ak" x="129.063" y="81.226"/><use xlink:href="#al" x="138.041" y="81.226"/><use xlink:href="#am" x="140.791" y="81.226"/><use xlink:href="#an" x="146.792" y="81.226"/><use xlink:href="#al" x="151.873" y="81.226"/><use xlink:href="#ao" x="154.623" y="81.226"/><use xlink:href="#ap" x="163.72" y="81.226"/><use xlink:href="#aq" x="172.973" y="81.226"/><use xlink:href="#ar" x="178.831" y="81.226"/><use xlink:href="#as" x="185.813" y="81.226"/><use xlink:href="#aq" x="193.584" y="81.226"/><use xlink:href="#at" x="199.442" y="81.226"/><use xlink:href="#au" x="205.3" y="81.226"/><use xlink:href="#ar" x="212.449" y="81.226"/><use xlink:href="#aj" x="215.533" y="81.226"/><use xlink:href="#ak" x="221.535" y="81.226"/><use xlink:href="#al" x="230.513" y="81.226"/><use xlink:href="#am" x="233.262" y="81.226"/><use xlink:href="#an" x="239.264" y="81.226"/><use xlink:href="#al" x="244.345" y="81.226"/><use xlink:href="#ao" x="247.094" y="81.226"/><use xlink:href="#ap" x="256.192" y="81.226"/><use xlink:href="#aq" x="265.445" y="81.226"/><use xlink:href="#ar" x="271.303" y="81.226"/><use xlink:href="#ah" x="278.288" y="71.14" fill="red"/><use xlink:href="#ax" x="278.288" y="81.226"/><use xlink:href="#ay" x="286.346" y="81.226"/><use xlink:href="#aq" x="290.327" y="81.226"/><use xlink:href="#az" x="296.185" y="81.226"/><use xlink:href="#aA" x="298.934" y="81.226"/><use xlink:href="#ai" x="117.574" y="102.073"/><use xlink:href="#aj" x="123.061" y="102.073"/><use xlink:href="#ak" x="129.063" y="102.073"/><use xlink:href="#al" x="138.041" y="102.073"/><use xlink:href="#am" x="140.791" y="102.073"/><use xlink:href="#an" x="146.792" y="102.073"/><use xlink:href="#al" x="151.873" y="102.073"/><use xlink:href="#ao" x="154.623" y="102.073"/><use xlink:href="#au" x="159.823" y="102.073"/><use xlink:href="#ar" x="166.972" y="102.073"/><use xlink:href="#aj" x="170.056" y="102.073"/><use xlink:href="#ak" x="176.058" y="102.073"/><use xlink:href="#al" x="185.036" y="102.073"/><use xlink:href="#am" x="187.786" y="102.073"/><use xlink:href="#an" x="193.787" y="102.073"/><use xlink:href="#al" x="198.868" y="102.073"/><use xlink:href="#ao" x="201.618" y="102.073"/><use xlink:href="#ap" x="210.715" y="102.073"/><use xlink:href="#aq" x="219.969" y="102.073"/><use xlink:href="#ar" x="225.826" y="102.073"/><use xlink:href="#aB" x="232.808" y="102.073"/><use xlink:href="#aC" x="239.957" y="102.073"/><use xlink:href="#aD" x="245.959" y="102.073"/><use xlink:href="#av" x="251.568" y="91.988" fill="red"/><use xlink:href="#aw" x="264.3" y="87.648" fill="red"/><use xlink:href="#aE" x="251.568" y="102.073"/><use xlink:href="#al" x="259.53" y="102.073"/><use xlink:href="#aF" x="262.28" y="102.073"/><use xlink:href="#al" x="267.48" y="102.073"/><use xlink:href="#ao" x="270.23" y="102.073"/><use xlink:href="#az" x="275.43" y="102.073"/><use xlink:href="#au" x="278.18" y="102.073"/><use xlink:href="#ar" x="117.574" y="122.92"/><use xlink:href="#aj" x="120.658" y="122.92"/><use xlink:href="#ak" x="126.66" y="122.92"/><use xlink:href="#al" x="135.638" y="122.92"/><use xlink:href="#am" x="138.388" y="122.92"/><use xlink:href="#an" x="144.389" y="122.92"/><use xlink:href="#al" x="149.47" y="122.92"/><use xlink:href="#ao" x="152.22" y="122.92"/><use xlink:href="#au" x="157.42" y="122.92"/><use xlink:href="#ar" x="164.569" y="122.92"/><use xlink:href="#aj" x="167.654" y="122.92"/><use xlink:href="#ak" x="173.655" y="122.92"/><use xlink:href="#al" x="182.633" y="122.92"/><use xlink:href="#am" x="185.383" y="122.92"/><use xlink:href="#an" x="191.384" y="122.92"/><use xlink:href="#al" x="196.465" y="122.92"/><use xlink:href="#ao" x="199.215" y="122.92"/><use xlink:href="#ap" x="208.312" y="122.92"/><use xlink:href="#aq" x="217.566" y="122.92"/><use xlink:href="#ar" x="223.424" y="122.92"/><use xlink:href="#ah" x="230.407" y="112.835" fill="red"/><use xlink:href="#ax" x="230.407" y="122.92"/><use xlink:href="#ay" x="238.465" y="122.92"/><use xlink:href="#aq" x="242.446" y="122.92"/><use xlink:href="#az" x="248.304" y="122.92"/><use xlink:href="#aA" x="251.053" y="122.92"/><use xlink:href="#aG" x="101.064" y="146.756"/><use xlink:href="#ah" x="117.574" y="136.671" fill="red"/><use xlink:href="#ai" x="117.574" y="146.756"/><use xlink:href="#ao" x="123.061" y="146.756"/><use xlink:href="#aH" x="128.262" y="146.756"/><use xlink:href="#aI" x="132.745" y="146.756"/><use xlink:href="#ay" x="140.874" y="146.756"/><use xlink:href="#aJ" x="144.855" y="146.756"/><use xlink:href="#aC" x="150.713" y="146.756"/><use xlink:href="#aJ" x="157.037" y="146.756"/><use xlink:href="#aI" x="162.895" y="146.756"/><use xlink:href="#aK" x="167.127" y="146.756"/><use xlink:href="#al" x="173.129" y="146.756"/><use xlink:href="#aL" x="175.879" y="146.756"/><use xlink:href="#al" x="181.557" y="146.756"/><use xlink:href="#ao" x="184.307" y="146.756"/><use xlink:href="#ap" x="189.507" y="146.756"/><use xlink:href="#au" x="198.76" y="146.756"/><use xlink:href="#an" x="205.91" y="146.756"/><use xlink:href="#ay" x="210.99" y="146.756"/><use xlink:href="#aJ" x="214.971" y="146.756"/><use xlink:href="#am" x="221.152" y="146.756"/><use xlink:href="#an" x="227.154" y="146.756"/><use xlink:href="#aJ" x="232.234" y="146.756"/><use xlink:href="#aK" x="238.092" y="146.756"/><use xlink:href="#aM" x="244.094" y="146.756"/><use xlink:href="#ap" x="249.45" y="146.756"/><use xlink:href="#aE" x="262.6" y="146.756"/><use xlink:href="#as" x="274.459" y="146.756"/><use xlink:href="#ao" x="282.23" y="146.756"/><use xlink:href="#aI" x="287.431" y="146.756"/><use xlink:href="#av" x="291.666" y="136.671" fill="red"/><use xlink:href="#aw" x="304.398" y="132.331" fill="red"/><use xlink:href="#az" x="291.666" y="146.756"/><use xlink:href="#ao" x="294.416" y="146.756"/><use xlink:href="#ar" x="299.616" y="146.756"/><use xlink:href="#ao" x="302.7" y="146.756"/><use xlink:href="#ap" x="307.901" y="146.756"/><use xlink:href="#au" x="317.154" y="146.756"/><use xlink:href="#ai" x="117.574" y="167.604"/><use xlink:href="#ao" x="123.061" y="167.604"/><use xlink:href="#at" x="128.262" y="167.604"/><use xlink:href="#aJ" x="134.12" y="167.604"/><use xlink:href="#ap" x="143.875" y="167.604"/><use xlink:href="#aD" x="153.128" y="167.604"/><use xlink:href="#aI" x="158.735" y="167.604"/><use xlink:href="#aL" x="162.967" y="167.604"/><use xlink:href="#aN" x="168.646" y="167.604"/><use xlink:href="#aO" x="178.15" y="167.604"/><use xlink:href="#aD" x="188.312" y="167.604"/><use xlink:href="#ay" x="193.596" y="167.604"/><use xlink:href="#aM" x="197.577" y="167.604"/><use xlink:href="#ar" x="202.933" y="167.604"/><use xlink:href="#aD" x="206.017" y="167.604"/><use xlink:href="#au" x="211.624" y="167.604"/><use xlink:href="#aD" x="218.773" y="167.604"/><use xlink:href="#ai" x="228.277" y="167.604"/><use xlink:href="#aq" x="233.765" y="167.604"/><use xlink:href="#an" x="239.623" y="167.604"/><use xlink:href="#ao" x="244.704" y="167.604"/><use xlink:href="#aP" x="249.904" y="167.604"/><use xlink:href="#ar" x="257.376" y="167.604"/><use xlink:href="#ao" x="260.46" y="167.604"/><use xlink:href="#aH" x="265.661" y="167.604"/><use xlink:href="#aI" x="270.144" y="167.604"/><use xlink:href="#ah" x="278.276" y="157.519" fill="red"/><use xlink:href="#aJ" x="278.276" y="167.604"/><use xlink:href="#ar" x="284.134" y="167.604"/><use xlink:href="#aF" x="287.218" y="167.604"/><use xlink:href="#ao" x="292.419" y="167.604"/><use xlink:href="#ap" x="297.619" y="167.604"/><use xlink:href="#aA" x="306.872" y="167.604"/><use xlink:href="#ai" x="117.574" y="188.451"/><use xlink:href="#aj" x="123.061" y="188.451"/><use xlink:href="#ak" x="129.063" y="188.451"/><use xlink:href="#al" x="138.041" y="188.451"/><use xlink:href="#am" x="140.791" y="188.451"/><use xlink:href="#an" x="146.792" y="188.451"/><use xlink:href="#al" x="151.873" y="188.451"/><use xlink:href="#ao" x="154.623" y="188.451"/><use xlink:href="#au" x="159.823" y="188.451"/><use xlink:href="#ar" x="166.972" y="188.451"/><use xlink:href="#aj" x="170.056" y="188.451"/><use xlink:href="#ak" x="176.058" y="188.451"/><use xlink:href="#al" x="185.036" y="188.451"/><use xlink:href="#am" x="187.786" y="188.451"/><use xlink:href="#an" x="193.787" y="188.451"/><use xlink:href="#al" x="198.868" y="188.451"/><use xlink:href="#ao" x="201.618" y="188.451"/><use xlink:href="#ap" x="210.715" y="188.451"/><use xlink:href="#aq" x="219.969" y="188.451"/><use xlink:href="#ar" x="225.826" y="188.451"/><use xlink:href="#aB" x="232.808" y="188.451"/><use xlink:href="#aC" x="239.957" y="188.451"/><use xlink:href="#aD" x="245.959" y="188.451"/><use xlink:href="#av" x="251.568" y="178.366" fill="red"/><use xlink:href="#aw" x="264.3" y="174.026" fill="red"/><use xlink:href="#aE" x="251.568" y="188.451"/><use xlink:href="#al" x="259.53" y="188.451"/><use xlink:href="#aF" x="262.28" y="188.451"/><use xlink:href="#al" x="267.48" y="188.451"/><use xlink:href="#ao" x="270.23" y="188.451"/><use xlink:href="#az" x="275.43" y="188.451"/><use xlink:href="#au" x="278.18" y="188.451"/><use xlink:href="#ar" x="117.574" y="209.299"/><use xlink:href="#aj" x="120.658" y="209.299"/><use xlink:href="#ak" x="126.66" y="209.299"/><use xlink:href="#al" x="135.638" y="209.299"/><use xlink:href="#am" x="138.388" y="209.299"/><use xlink:href="#an" x="144.389" y="209.299"/><use xlink:href="#al" x="149.47" y="209.299"/><use xlink:href="#ao" x="152.22" y="209.299"/><use xlink:href="#au" x="157.42" y="209.299"/><use xlink:href="#ar" x="164.569" y="209.299"/><use xlink:href="#aj" x="167.654" y="209.299"/><use xlink:href="#ak" x="173.655" y="209.299"/><use xlink:href="#al" x="182.633" y="209.299"/><use xlink:href="#am" x="185.383" y="209.299"/><use xlink:href="#an" x="191.384" y="209.299"/><use xlink:href="#al" x="196.465" y="209.299"/><use xlink:href="#ao" x="199.215" y="209.299"/><use xlink:href="#ap" x="208.312" y="209.299"/><use xlink:href="#aq" x="217.566" y="209.299"/><use xlink:href="#ar" x="223.424" y="209.299"/><use xlink:href="#ah" x="230.407" y="199.213" fill="red"/><use xlink:href="#ax" x="230.407" y="209.299"/><use xlink:href="#ay" x="238.465" y="209.299"/><use xlink:href="#aq" x="242.446" y="209.299"/><use xlink:href="#az" x="248.304" y="209.299"/><use xlink:href="#aA" x="251.053" y="209.299"/><use xlink:href="#ag" x="97.705" y="230.146"/><use xlink:href="#ah" x="117.574" y="220.061" fill="red"/><use xlink:href="#ai" x="117.574" y="230.146"/><use xlink:href="#aj" x="123.061" y="230.146"/><use xlink:href="#ak" x="129.063" y="230.146"/><use xlink:href="#al" x="138.041" y="230.146"/><use xlink:href="#am" x="140.791" y="230.146"/><use xlink:href="#an" x="146.792" y="230.146"/><use xlink:href="#al" x="151.873" y="230.146"/><use xlink:href="#ao" x="154.623" y="230.146"/><use xlink:href="#ap" x="163.72" y="230.146"/><use xlink:href="#aq" x="172.973" y="230.146"/><use xlink:href="#ar" x="178.831" y="230.146"/><use xlink:href="#as" x="185.813" y="230.146"/><use xlink:href="#aq" x="193.584" y="230.146"/><use xlink:href="#at" x="199.442" y="230.146"/><use xlink:href="#aQ" x="209.197" y="230.146"/><use xlink:href="#aG" x="101.064" y="253.982"/><use xlink:href="#ah" x="117.574" y="243.897" fill="red"/><use xlink:href="#ai" x="117.574" y="253.982"/><use xlink:href="#ao" x="123.061" y="253.982"/><use xlink:href="#at" x="128.262" y="253.982"/><use xlink:href="#aJ" x="134.12" y="253.982"/><use xlink:href="#aJ" x="143.875" y="253.982"/><use xlink:href="#aF" x="150.056" y="253.982"/><use xlink:href="#an" x="155.256" y="253.982"/><use xlink:href="#aM" x="160.337" y="253.982"/><use xlink:href="#ap" x="169.59" y="253.982"/><use xlink:href="#aq" x="178.843" y="253.982"/><use xlink:href="#aE" x="184.379" y="253.982"/><use xlink:href="#al" x="192.341" y="253.982"/><use xlink:href="#aN" x="195.09" y="253.982"/><use xlink:href="#aJ" x="204.594" y="253.982"/><use xlink:href="#ap" x="214.35" y="253.982"/><use xlink:href="#al" x="223.603" y="253.982"/><use xlink:href="#av" x="226.354" y="243.897" fill="red"/><use xlink:href="#aw" x="239.087" y="239.557" fill="red"/><use xlink:href="#aR" x="226.354" y="253.982"/><use xlink:href="#aJ" x="229.785" y="253.982"/><use xlink:href="#aS" x="235.643" y="253.982"/><use xlink:href="#aF" x="240.126" y="253.982"/><use xlink:href="#al" x="245.327" y="253.982"/><use xlink:href="#au" x="248.076" y="253.982"/><use xlink:href="#ap" x="117.574" y="274.83"/><use xlink:href="#aq" x="126.827" y="274.83"/><use xlink:href="#aE" x="132.362" y="274.83"/><use xlink:href="#al" x="140.324" y="274.83"/><use xlink:href="#aN" x="143.074" y="274.83"/><use xlink:href="#aJ" x="152.578" y="274.83"/><use xlink:href="#aT" x="162.334" y="274.83"/><use xlink:href="#ar" x="170.965" y="274.83"/><use xlink:href="#aF" x="174.049" y="274.83"/><use xlink:href="#aj" x="179.25" y="274.83"/><use xlink:href="#au" x="185.251" y="274.83"/><use xlink:href="#ap" x="192.4" y="274.83"/><use xlink:href="#aq" x="201.654" y="274.83"/><use xlink:href="#aE" x="207.189" y="274.83"/><use xlink:href="#al" x="215.151" y="274.83"/><use xlink:href="#aN" x="217.9" y="274.83"/><use xlink:href="#aJ" x="227.405" y="274.83"/><use xlink:href="#ah" x="237.162" y="264.744" fill="red"/><use xlink:href="#as" x="237.162" y="274.83"/><use xlink:href="#aJ" x="244.933" y="274.83"/><use xlink:href="#at" x="250.791" y="274.83"/><use xlink:href="#aj" x="256.649" y="274.83"/><use xlink:href="#aA" x="262.65" y="274.83"/><use xlink:href="#ai" x="117.574" y="295.677"/><use xlink:href="#aj" x="123.061" y="295.677"/><use xlink:href="#ak" x="129.063" y="295.677"/><use xlink:href="#al" x="138.041" y="295.677"/><use xlink:href="#am" x="140.791" y="295.677"/><use xlink:href="#an" x="146.792" y="295.677"/><use xlink:href="#al" x="151.873" y="295.677"/><use xlink:href="#ao" x="154.623" y="295.677"/><use xlink:href="#au" x="159.823" y="295.677"/><use xlink:href="#ar" x="166.972" y="295.677"/><use xlink:href="#aj" x="170.056" y="295.677"/><use xlink:href="#ak" x="176.058" y="295.677"/><use xlink:href="#al" x="185.036" y="295.677"/><use xlink:href="#am" x="187.786" y="295.677"/><use xlink:href="#an" x="193.787" y="295.677"/><use xlink:href="#al" x="198.868" y="295.677"/><use xlink:href="#ao" x="201.618" y="295.677"/><use xlink:href="#ap" x="210.715" y="295.677"/><use xlink:href="#aq" x="219.969" y="295.677"/><use xlink:href="#ar" x="225.826" y="295.677"/><use xlink:href="#aB" x="232.808" y="295.677"/><use xlink:href="#aC" x="239.957" y="295.677"/><use xlink:href="#aD" x="245.959" y="295.677"/><use xlink:href="#av" x="251.568" y="285.592" fill="red"/><use xlink:href="#aw" x="264.3" y="281.252" fill="red"/><use xlink:href="#aE" x="251.568" y="295.677"/><use xlink:href="#al" x="259.53" y="295.677"/><use xlink:href="#aF" x="262.28" y="295.677"/><use xlink:href="#al" x="267.48" y="295.677"/><use xlink:href="#ao" x="270.23" y="295.677"/><use xlink:href="#az" x="275.43" y="295.677"/><use xlink:href="#au" x="278.18" y="295.677"/><use xlink:href="#ar" x="117.574" y="316.524"/><use xlink:href="#aj" x="120.658" y="316.524"/><use xlink:href="#ak" x="126.66" y="316.524"/><use xlink:href="#al" x="135.638" y="316.524"/><use xlink:href="#am" x="138.388" y="316.524"/><use xlink:href="#an" x="144.389" y="316.524"/><use xlink:href="#al" x="149.47" y="316.524"/><use xlink:href="#ao" x="152.22" y="316.524"/><use xlink:href="#au" x="157.42" y="316.524"/><use xlink:href="#ar" x="164.569" y="316.524"/><use xlink:href="#aj" x="167.654" y="316.524"/><use xlink:href="#ak" x="173.655" y="316.524"/><use xlink:href="#al" x="182.633" y="316.524"/><use xlink:href="#am" x="185.383" y="316.524"/><use xlink:href="#an" x="191.384" y="316.524"/><use xlink:href="#al" x="196.465" y="316.524"/><use xlink:href="#ao" x="199.215" y="316.524"/><use xlink:href="#ap" x="208.312" y="316.524"/><use xlink:href="#aq" x="217.566" y="316.524"/><use xlink:href="#ar" x="223.424" y="316.524"/><use xlink:href="#ah" x="230.407" y="306.439" fill="red"/><use xlink:href="#ax" x="230.407" y="316.524"/><use xlink:href="#ay" x="238.465" y="316.524"/><use xlink:href="#aq" x="242.446" y="316.524"/><use xlink:href="#az" x="248.304" y="316.524"/><use xlink:href="#aA" x="251.053" y="316.524"/><use xlink:href="#ag" x="97.705" y="337.372"/><use xlink:href="#ah" x="117.574" y="327.286" fill="red"/><use xlink:href="#ai" x="117.574" y="337.372"/><use xlink:href="#aj" x="123.061" y="337.372"/><use xlink:href="#ak" x="129.063" y="337.372"/><use xlink:href="#al" x="138.041" y="337.372"/><use xlink:href="#am" x="140.791" y="337.372"/><use xlink:href="#an" x="146.792" y="337.372"/><use xlink:href="#al" x="151.873" y="337.372"/><use xlink:href="#ao" x="154.623" y="337.372"/><use xlink:href="#ap" x="163.72" y="337.372"/><use xlink:href="#aq" x="172.973" y="337.372"/><use xlink:href="#ar" x="178.831" y="337.372"/><use xlink:href="#as" x="185.813" y="337.372"/><use xlink:href="#aq" x="193.584" y="337.372"/><use xlink:href="#at" x="199.442" y="337.372"/><use xlink:href="#aQ" x="209.197" y="337.372"/><use xlink:href="#aG" x="101.064" y="361.208"/><use xlink:href="#ah" x="117.574" y="351.123" fill="red"/><use xlink:href="#aT" x="117.574" y="361.208"/><use xlink:href="#aK" x="126.206" y="361.208"/><use xlink:href="#aj" x="136.104" y="361.208"/><use xlink:href="#ap" x="142.106" y="361.208"/><use xlink:href="#aD" x="151.359" y="361.208"/><use xlink:href="#ay" x="156.643" y="361.208"/><use xlink:href="#aR" x="160.624" y="361.208"/><use xlink:href="#aK" x="168.275" y="361.208"/><use xlink:href="#aD" x="174.277" y="361.208"/><use xlink:href="#aL" x="183.781" y="361.208"/><use xlink:href="#ay" x="189.459" y="361.208"/><use xlink:href="#an" x="193.44" y="361.208"/><use xlink:href="#aM" x="198.521" y="361.208"/><use xlink:href="#ak" x="203.877" y="361.208"/><use xlink:href="#aj" x="208.958" y="361.208"/><use xlink:href="#aU" x="218.857" y="361.208"/><use xlink:href="#ao" x="225.181" y="361.208"/><use xlink:href="#aR" x="230.381" y="361.208"/><use xlink:href="#ao" x="233.813" y="361.208"/><use xlink:href="#aK" x="239.013" y="361.208"/><use xlink:href="#aC" x="248.912" y="361.208"/><use xlink:href="#aJ" x="255.236" y="361.208"/><use xlink:href="#av" x="261.096" y="351.123" fill="red"/><use xlink:href="#aw" x="273.828" y="346.783" fill="red"/><use xlink:href="#az" x="261.096" y="361.208"/><use xlink:href="#ao" x="263.846" y="361.208"/><use xlink:href="#aS" x="269.046" y="361.208"/><use xlink:href="#aF" x="273.529" y="361.208"/><use xlink:href="#al" x="278.73" y="361.208"/><use xlink:href="#au" x="281.479" y="361.208"/><use xlink:href="#aj" x="117.574" y="382.055"/><use xlink:href="#ap" x="123.575" y="382.055"/><use xlink:href="#aD" x="132.829" y="382.055"/><use xlink:href="#ay" x="138.113" y="382.055"/><use xlink:href="#aR" x="142.094" y="382.055"/><use xlink:href="#an" x="149.745" y="382.055"/><use xlink:href="#aD" x="154.826" y="382.055"/><use xlink:href="#az" x="164.33" y="382.055"/><use xlink:href="#aj" x="167.08" y="382.055"/><use xlink:href="#am" x="173.081" y="382.055"/><use xlink:href="#an" x="179.082" y="382.055"/><use xlink:href="#al" x="184.163" y="382.055"/><use xlink:href="#aU" x="190.81" y="382.055"/><use xlink:href="#ao" x="197.135" y="382.055"/><use xlink:href="#aR" x="202.335" y="382.055"/><use xlink:href="#ao" x="205.766" y="382.055"/><use xlink:href="#aK" x="210.966" y="382.055"/><use xlink:href="#ap" x="220.865" y="382.055"/><use xlink:href="#al" x="230.118" y="382.055"/><use xlink:href="#ah" x="232.87" y="371.97" fill="red"/><use xlink:href="#aR" x="232.87" y="382.055"/><use xlink:href="#aJ" x="236.301" y="382.055"/><use xlink:href="#aS" x="242.159" y="382.055"/><use xlink:href="#aF" x="246.642" y="382.055"/><use xlink:href="#al" x="251.843" y="382.055"/><use xlink:href="#aA" x="254.592" y="382.055"/><use xlink:href="#ai" x="117.574" y="402.903"/><use xlink:href="#aj" x="123.061" y="402.903"/><use xlink:href="#ak" x="129.063" y="402.903"/><use xlink:href="#al" x="138.041" y="402.903"/><use xlink:href="#am" x="140.791" y="402.903"/><use xlink:href="#an" x="146.792" y="402.903"/><use xlink:href="#al" x="151.873" y="402.903"/><use xlink:href="#ao" x="154.623" y="402.903"/><use xlink:href="#au" x="159.823" y="402.903"/><use xlink:href="#ar" x="166.972" y="402.903"/><use xlink:href="#aj" x="170.056" y="402.903"/><use xlink:href="#ak" x="176.058" y="402.903"/><use xlink:href="#al" x="185.036" y="402.903"/><use xlink:href="#am" x="187.786" y="402.903"/><use xlink:href="#an" x="193.787" y="402.903"/><use xlink:href="#al" x="198.868" y="402.903"/><use xlink:href="#ao" x="201.618" y="402.903"/><use xlink:href="#ap" x="210.715" y="402.903"/><use xlink:href="#aq" x="219.969" y="402.903"/><use xlink:href="#ar" x="225.826" y="402.903"/><use xlink:href="#aB" x="232.808" y="402.903"/><use xlink:href="#aC" x="239.957" y="402.903"/><use xlink:href="#aD" x="245.959" y="402.903"/><use xlink:href="#av" x="251.568" y="392.817" fill="red"/><use xlink:href="#aw" x="264.3" y="388.478" fill="red"/><use xlink:href="#aE" x="251.568" y="402.903"/><use xlink:href="#al" x="259.53" y="402.903"/><use xlink:href="#aF" x="262.28" y="402.903"/><use xlink:href="#al" x="267.48" y="402.903"/><use xlink:href="#ao" x="270.23" y="402.903"/><use xlink:href="#az" x="275.43" y="402.903"/><use xlink:href="#au" x="278.18" y="402.903"/><use xlink:href="#ar" x="117.574" y="423.75"/><use xlink:href="#aj" x="120.658" y="423.75"/><use xlink:href="#ak" x="126.66" y="423.75"/><use xlink:href="#al" x="135.638" y="423.75"/><use xlink:href="#am" x="138.388" y="423.75"/><use xlink:href="#an" x="144.389" y="423.75"/><use xlink:href="#al" x="149.47" y="423.75"/><use xlink:href="#ao" x="152.22" y="423.75"/><use xlink:href="#au" x="157.42" y="423.75"/><use xlink:href="#ar" x="164.569" y="423.75"/><use xlink:href="#aj" x="167.654" y="423.75"/><use xlink:href="#ak" x="173.655" y="423.75"/><use xlink:href="#al" x="182.633" y="423.75"/><use xlink:href="#am" x="185.383" y="423.75"/><use xlink:href="#an" x="191.384" y="423.75"/><use xlink:href="#al" x="196.465" y="423.75"/><use xlink:href="#ao" x="199.215" y="423.75"/><use xlink:href="#ap" x="208.312" y="423.75"/><use xlink:href="#aq" x="217.566" y="423.75"/><use xlink:href="#ar" x="223.424" y="423.75"/><use xlink:href="#ah" x="230.407" y="413.665" fill="red"/><use xlink:href="#ax" x="230.407" y="423.75"/><use xlink:href="#ay" x="238.465" y="423.75"/><use xlink:href="#aq" x="242.446" y="423.75"/><use xlink:href="#az" x="248.304" y="423.75"/><use xlink:href="#aA" x="251.053" y="423.75"/><use xlink:href="#ag" x="97.705" y="444.598"/><use xlink:href="#ah" x="117.574" y="434.512" fill="red"/><use xlink:href="#ai" x="117.574" y="444.598"/><use xlink:href="#aj" x="123.061" y="444.598"/><use xlink:href="#ak" x="129.063" y="444.598"/><use xlink:href="#al" x="138.041" y="444.598"/><use xlink:href="#am" x="140.791" y="444.598"/><use xlink:href="#an" x="146.792" y="444.598"/><use xlink:href="#al" x="151.873" y="444.598"/><use xlink:href="#ao" x="154.623" y="444.598"/><use xlink:href="#ap" x="163.72" y="444.598"/><use xlink:href="#aq" x="172.973" y="444.598"/><use xlink:href="#ar" x="178.831" y="444.598"/><use xlink:href="#as" x="185.813" y="444.598"/><use xlink:href="#aq" x="193.584" y="444.598"/><use xlink:href="#at" x="199.442" y="444.598"/><use xlink:href="#aQ" x="209.197" y="444.598"/><use xlink:href="#aG" x="101.064" y="468.434"/><use xlink:href="#ah" x="117.574" y="458.348" fill="red"/><use xlink:href="#aT" x="117.574" y="468.434"/><use xlink:href="#aK" x="126.206" y="468.434"/><use xlink:href="#aE" x="136.104" y="468.434"/><use xlink:href="#aH" x="144.066" y="468.434"/><use xlink:href="#an" x="148.549" y="468.434"/><use xlink:href="#ao" x="153.63" y="468.434"/><use xlink:href="#am" x="158.831" y="468.434"/><use xlink:href="#aR" x="164.832" y="468.434"/><use xlink:href="#aE" x="172.483" y="468.434"/><use xlink:href="#aS" x="184.343" y="468.434"/><use xlink:href="#ap" x="188.826" y="468.434"/><use xlink:href="#al" x="198.079" y="468.434"/><use xlink:href="#ao" x="200.829" y="468.434"/><use xlink:href="#ay" x="206.029" y="468.434"/><use xlink:href="#aV" x="210.01" y="468.434"/><use xlink:href="#au" x="215.211" y="468.434"/><use xlink:href="#aE" x="222.36" y="468.434"/><use xlink:href="#aH" x="230.322" y="468.434"/><use xlink:href="#an" x="234.805" y="468.434"/><use xlink:href="#ao" x="239.886" y="468.434"/><use xlink:href="#am" x="245.086" y="468.434"/><use xlink:href="#aR" x="251.087" y="468.434"/><use xlink:href="#ap" x="258.739" y="468.434"/><use xlink:href="#aq" x="267.992" y="468.434"/><use xlink:href="#ar" x="273.85" y="468.434"/><use xlink:href="#av" x="280.834" y="458.348" fill="red"/><use xlink:href="#aw" x="293.566" y="454.009" fill="red"/><use xlink:href="#as" x="280.834" y="468.434"/><use xlink:href="#aq" x="288.605" y="468.434"/><use xlink:href="#at" x="294.463" y="468.434"/><use xlink:href="#au" x="300.321" y="468.434"/><use xlink:href="#ar" x="117.574" y="489.281"/><use xlink:href="#aj" x="120.658" y="489.281"/><use xlink:href="#ak" x="126.66" y="489.281"/><use xlink:href="#al" x="135.638" y="489.281"/><use xlink:href="#am" x="138.388" y="489.281"/><use xlink:href="#an" x="144.389" y="489.281"/><use xlink:href="#al" x="149.47" y="489.281"/><use xlink:href="#ao" x="152.22" y="489.281"/><use xlink:href="#au" x="157.42" y="489.281"/><use xlink:href="#ar" x="164.569" y="489.281"/><use xlink:href="#aj" x="167.654" y="489.281"/><use xlink:href="#ak" x="173.655" y="489.281"/><use xlink:href="#aE" x="182.633" y="489.281"/><use xlink:href="#aH" x="190.595" y="489.281"/><use xlink:href="#aI" x="195.078" y="489.281"/><use xlink:href="#aD" x="199.31" y="489.281"/><use xlink:href="#ar" x="204.917" y="489.281"/><use xlink:href="#ao" x="208.002" y="489.281"/><use xlink:href="#au" x="213.202" y="489.281"/><use xlink:href="#ar" x="220.351" y="489.281"/><use xlink:href="#aj" x="223.435" y="489.281"/><use xlink:href="#ak" x="229.437" y="489.281"/><use xlink:href="#aK" x="238.415" y="489.281"/><use xlink:href="#aD" x="244.417" y="489.281"/><use xlink:href="#am" x="250.023" y="489.281"/><use xlink:href="#aF" x="256.025" y="489.281"/><use xlink:href="#aW" x="261.225" y="489.281"/><use xlink:href="#aJ" x="267.227" y="489.281"/><use xlink:href="#am" x="273.407" y="489.281"/><use xlink:href="#an" x="279.409" y="489.281"/><use xlink:href="#al" x="284.49" y="489.281"/><use xlink:href="#ah" x="291.14" y="479.196" fill="red"/><use xlink:href="#aX" x="291.14" y="489.281"/><use xlink:href="#aD" x="298.265" y="489.281"/><use xlink:href="#aK" x="303.872" y="489.281"/><use xlink:href="#aA" x="309.873" y="489.281"/><use xlink:href="#aY" x="117.574" y="510.128"/><use xlink:href="#aU" x="124.078" y="510.128"/><use xlink:href="#al" x="130.079" y="510.128"/><use xlink:href="#ao" x="132.829" y="510.128"/><use xlink:href="#aE" x="138.029" y="510.128"/><use xlink:href="#aD" x="145.668" y="510.128"/><use xlink:href="#ar" x="151.275" y="510.128"/><use xlink:href="#aF" x="154.36" y="510.128"/><use xlink:href="#al" x="159.56" y="510.128"/><use xlink:href="#ao" x="162.31" y="510.128"/><use xlink:href="#au" x="167.51" y="510.128"/><use xlink:href="#aE" x="174.659" y="510.128"/><use xlink:href="#aJ" x="182.298" y="510.128"/><use xlink:href="#aR" x="188.156" y="510.128"/><use xlink:href="#aD" x="191.587" y="510.128"/><use xlink:href="#ar" x="197.194" y="510.128"/><use xlink:href="#aF" x="200.279" y="510.128"/><use xlink:href="#al" x="205.479" y="510.128"/><use xlink:href="#ao" x="208.229" y="510.128"/><use xlink:href="#aZ" x="213.429" y="510.128"/><use xlink:href="#an" x="220.578" y="510.128"/><use xlink:href="#ap" x="225.659" y="510.128"/><use xlink:href="#aD" x="234.912" y="510.128"/><use xlink:href="#ay" x="240.196" y="510.128"/><use xlink:href="#aI" x="244.177" y="510.128"/><use xlink:href="#aE" x="248.087" y="510.128"/><use xlink:href="#aM" x="256.049" y="510.128"/><use xlink:href="#aF" x="261.405" y="510.128"/><use xlink:href="#aW" x="266.605" y="510.128"/><use xlink:href="#aE" x="272.606" y="510.128"/><use xlink:href="#aH" x="280.568" y="510.128"/><use xlink:href="#aI" x="285.052" y="510.128"/><use xlink:href="#aD" x="289.284" y="510.128"/><use xlink:href="#aR" x="294.891" y="510.128"/><use xlink:href="#av" x="302.545" y="500.043" fill="red"/><use xlink:href="#aw" x="315.277" y="495.703" fill="red"/><use xlink:href="#aX" x="302.545" y="510.128"/><use xlink:href="#aD" x="309.67" y="510.128"/><use xlink:href="#aK" x="315.277" y="510.128"/><use xlink:href="#ba" x="321.278" y="510.128"/><use xlink:href="#aT" x="117.574" y="530.976"/><use xlink:href="#aK" x="126.206" y="530.976"/><use xlink:href="#an" x="136.104" y="530.976"/><use xlink:href="#aE" x="141.185" y="530.976"/><use xlink:href="#aM" x="149.147" y="530.976"/><use xlink:href="#aF" x="154.503" y="530.976"/><use xlink:href="#al" x="159.703" y="530.976"/><use xlink:href="#bb" x="162.453" y="530.976"/><use xlink:href="#ak" x="167.654" y="530.976"/><use xlink:href="#aM" x="172.734" y="530.976"/><use xlink:href="#aR" x="178.09" y="530.976"/><use xlink:href="#au" x="181.844" y="530.976"/><use xlink:href="#an" x="188.993" y="530.976"/><use xlink:href="#aE" x="194.074" y="530.976"/><use xlink:href="#aM" x="202.036" y="530.976"/><use xlink:href="#aF" x="207.392" y="530.976"/><use xlink:href="#al" x="212.592" y="530.976"/><use xlink:href="#bb" x="215.342" y="530.976"/><use xlink:href="#ak" x="220.542" y="530.976"/><use xlink:href="#aM" x="225.623" y="530.976"/><use xlink:href="#aR" x="230.979" y="530.976"/><use xlink:href="#ap" x="238.63" y="530.976"/><use xlink:href="#al" x="247.884" y="530.976"/><use xlink:href="#ah" x="250.635" y="520.891" fill="red"/><use xlink:href="#aR" x="250.635" y="530.976"/><use xlink:href="#aJ" x="254.066" y="530.976"/><use xlink:href="#aS" x="259.924" y="530.976"/><use xlink:href="#aF" x="264.407" y="530.976"/><use xlink:href="#al" x="269.608" y="530.976"/><use xlink:href="#aN" x="272.357" y="530.976"/><use xlink:href="#aA" x="277.964" y="530.976"/><use xlink:href="#ag" x="97.705" y="551.823"/><use xlink:href="#ah" x="117.574" y="541.738" fill="red"/><use xlink:href="#ai" x="117.574" y="551.823"/><use xlink:href="#aj" x="123.061" y="551.823"/><use xlink:href="#ak" x="129.063" y="551.823"/><use xlink:href="#al" x="138.041" y="551.823"/><use xlink:href="#am" x="140.791" y="551.823"/><use xlink:href="#an" x="146.792" y="551.823"/><use xlink:href="#al" x="151.873" y="551.823"/><use xlink:href="#ao" x="154.623" y="551.823"/><use xlink:href="#ap" x="163.72" y="551.823"/><use xlink:href="#aq" x="172.973" y="551.823"/><use xlink:href="#ar" x="178.831" y="551.823"/><use xlink:href="#as" x="185.813" y="551.823"/><use xlink:href="#aq" x="193.584" y="551.823"/><use xlink:href="#at" x="199.442" y="551.823"/><use xlink:href="#aQ" x="209.197" y="551.823"/><g clip-path="url(#bc)"><path fill="url(#bd)" d="M15.023 579.684v-11.336h388.063v11.336Zm0 0"/></g><use xlink:href="#be" x="17.008" y="577.985"/><use xlink:href="#be" x="23.739" y="577.985"/><use xlink:href="#bf" x="30.469" y="577.985"/><use xlink:href="#bg" x="268.202" y="577.985"/><use xlink:href="#bh" x="273.865" y="577.985"/><use xlink:href="#bi" x="278.265" y="577.985"/><use xlink:href="#bj" x="283.74" y="577.985"/><use xlink:href="#bk" x="287.283" y="577.985"/><use xlink:href="#bl" x="291.467" y="577.985"/><use xlink:href="#bm" x="297.263" y="577.985"/><use xlink:href="#bn" x="301.231" y="577.985"/><use xlink:href="#bm" x="305.199" y="577.985"/><use xlink:href="#bo" x="309.167" y="577.985"/><use xlink:href="#bp" x="315.82" y="577.985"/><use xlink:href="#bm" x="326.449" y="577.985"/><use xlink:href="#bq" x="330.417" y="577.985"/><use xlink:href="#br" x="337.07" y="577.985"/><use xlink:href="#bm" x="342.636" y="577.985"/><use xlink:href="#bn" x="346.604" y="577.985"/><use xlink:href="#bm" x="350.572" y="577.985"/><use xlink:href="#bs" x="354.54" y="577.985"/><use xlink:href="#bp" x="361.193" y="577.985"/><use xlink:href="#bt" x="371.822" y="577.985"/><use xlink:href="#bu" x="374.074" y="577.985"/><use xlink:href="#bv" x="378.043" y="577.985"/><use xlink:href="#bw" x="382.011" y="577.985"/><use xlink:href="#bm" x="384.263" y="577.985"/><use xlink:href="#bx" x="388.232" y="577.985"/><use xlink:href="#bs" x="393.169" y="577.985"/><use xlink:href="#bs" x="397.137" y="577.985"/><path fill="#f2f2f2" stroke="#000" stroke-miterlimit="10" stroke-width=".797" d="M196.602 576.055v-3.989a2.99 2.99 0 0 1 2.988-2.988h18.93a2.99 2.99 0 0 1 2.988 2.988v3.989a2.99 2.99 0 0 1-2.988 2.988h-18.93a2.99 2.99 0 0 1-2.988-2.988Zm0 0"/><use xlink:href="#by" x="198.439" y="576.948"/><use xlink:href="#bz" x="203.747" y="576.948"/><use xlink:href="#bz" x="209.055" y="576.948"/><use xlink:href="#bA" x="214.363" y="576.948"/></svg>