<svg xmlns="http://www.w3.org/2000/svg" xmlns:xlink="http://www.w3.org/1999/xlink" width="559.371" height="793.701" viewBox="0 0 419.528 595.276"><defs><path id="d" d="M3.344 2.297v-.078L1.5-2.5l1.844-4.703v-.078c0-.11-.078-.203-.188-.203a.24.24 0 0 0-.203.14L1.11-2.562c-.015.015-.015.046-.015.062 0 .031 0 .063.015.078L2.953 2.36a.24.24 0 0 0 .203.141c.11 0 .188-.094.188-.203m0 0"/><path id="e" d="M8.14-3.906c.188-.75.25-1.531-.156-2.063-.265-.343-.671-.547-1.109-.687-.562-.188-1.187-.203-1.844-.203l.063-.235-.063-.047-.687.313c-.719.047-1.578.266-2.297.844-.36.28-.656.687-.75 1.093-.047.204-.063.391-.016.5a.26.26 0 0 0 .235.141c.109 0 .234-.062.312-.14a.56.56 0 0 0 .203-.329c.047-.218.016-.39.078-.61a1.24 1.24 0 0 1 .391-.609 2.8 2.8 0 0 1 1.781-.609l-.765 3.094c-.125.484-.25.984-.47 1.453-.124.297-.312.594-.546.797-.516.422-1.11.672-1.687.672l-.407.484h2.89c1.048 0 2.11-.39 3.017-1.125.921-.719 1.578-1.703 1.828-2.734m-.734.047a6 6 0 0 1-.593 1.53c-.22.392-.5.767-.875 1.063-.329.266-.704.485-1.079.594-.484.14-.968.14-1.437.14H2.219L2.203-.64 2.641-1c.437-.36.78-.828 1.03-1.297a8.3 8.3 0 0 0 .704-1.906l.578-2.344c.5 0 .953.047 1.39.188.329.093.626.25.829.5.39.53.422 1.28.234 2m0 0"/><path id="f" d="M2.781-2.5c0-.016 0-.047-.015-.062L.922-7.344c-.031-.078-.11-.14-.188-.14a.207.207 0 0 0-.203.203v.078L2.375-2.5.531 2.219v.078c0 .11.094.203.203.203.079 0 .157-.062.188-.14l1.844-4.782c.015-.015.015-.047.015-.078m0 0"/><path id="g" d="M6.047-.156c0-.094-.11-.11-.14-.11-.25 0-.376-.03-.5-.312L4.218-3.297 5.766-4.5c.218-.172.812-.625 1.312-.672.063-.016.156-.031.156-.156 0-.047-.03-.11-.109-.11 0 0-.234.016-.281.016h-.328c-.266 0-.563-.016-.813-.016-.047 0-.172 0-.172.141 0 .11.14.125.14.125.11 0 .173.047.173.11 0 .125-.14.25-.172.28l-.047.048c-.016.015-.031.015-.094.078L2.563-2.344l.609-2.5c.078-.265.125-.328.61-.328.171 0 .265 0 .265-.156 0-.047-.031-.11-.125-.11-.14 0-.313.016-.453.016h-.953l-.453-.016c-.047 0-.172 0-.172.141 0 .125.093.125.234.125.219 0 .438 0 .438.11 0 .046 0 .062-.032.171L1.47-.609c-.078.28-.125.343-.61.343-.171 0-.265 0-.265.157C.594-.047.64 0 .719 0c.031 0 .39-.016.453-.031h.484c.672 0 .89.031.938.031s.156 0 .156-.156c0-.11-.094-.11-.234-.11-.25 0-.438 0-.438-.125 0-.046.047-.218.078-.328l.297-1.203 1.25-.969.985 2.25c.046.094.046.11.046.141 0 .203-.187.234-.343.234-.094 0-.188.016-.188.157 0 .062.047.109.11.109.28 0 .578-.031.843-.031.672 0 .64.031.735.031.03 0 .156 0 .156-.156m0 0"/><path id="h" d="M2.828-1.14c0-.11-.11-.11-.156-.11-.125 0-.125.031-.172.172-.14.516-.406.937-.734.937-.157 0-.188-.109-.188-.25 0-.187.063-.328.188-.656l.515-1.39c.063-.172.094-.25.094-.422 0-.438-.312-.657-.656-.657-.75 0-1.078 1.11-1.078 1.22 0 .108.093.108.14.108.14 0 .14-.03.172-.171.125-.407.375-.938.75-.938.14 0 .172.11.172.25 0 .188-.047.344-.156.61L1.156-.953a1.1 1.1 0 0 0-.078.375c0 .36.266.656.672.656.75 0 1.078-1.125 1.078-1.219m.125-3.704a.354.354 0 0 0-.36-.375.55.55 0 0 0-.53.532c0 .234.171.359.359.359.265 0 .531-.234.531-.516m0 0"/><path id="i" d="M4.14-1.14c0-.11-.109-.11-.14-.11-.14 0-.156.047-.187.172-.11.453-.266.937-.61.937-.14 0-.25-.078-.25-.375 0-.125.031-.265.063-.39.03-.125.03-.172.03-.25 0-.563-.546-.75-1.108-.86.296-.187.625-.53.671-.593.454-.5.766-.688 1.063-.688.11 0 .172.063.203.11-.156.03-.344.171-.344.39s.188.266.281.266c.204 0 .407-.14.407-.453 0-.266-.157-.532-.547-.532s-.75.266-1.188.735c-.484.515-.656.594-.796.672l.796-3.188c0-.031.016-.094.016-.125 0-.11-.125-.11-.219-.094l-.828.063c-.11.016-.187.016-.187.156 0 .125.093.125.203.125.375 0 .375.047.375.11a.7.7 0 0 1-.032.171L.657-.266c0 .032-.015.079-.015.11 0 .11.078.234.25.234.14 0 .265-.094.328-.297l.39-1.578c.313.031.891.172.891.656 0 .047 0 .079-.031.188a1 1 0 0 0-.031.25c0 .437.296.781.734.781.36 0 .562-.265.656-.406.188-.297.313-.766.313-.813m0 0"/><path id="j" d="M4.297-2.172c0-.828-.547-1.344-1.266-1.344C2-3.516.921-2.437.921-1.266c0 .875.595 1.344 1.267 1.344 1.062 0 2.109-1.094 2.109-2.25m-.594-.281c0 .265-.125 1.031-.437 1.578-.266.438-.688.734-1.078.734-.297 0-.672-.203-.672-.843 0-.36.172-1.11.422-1.547.343-.578.812-.766 1.078-.766.39 0 .687.297.687.844m0 0"/><path id="k" d="m8.375-.344-3.344-4.5 3.14-2.953c.142-.125.142-.203.142-.25 0-.25-.235-.25-.407-.25h-.718c-.204 0-.454 0-.704.235l-3.843 3.64v-3.297c0-.39-.079-.578-.578-.578h-.407c-.422 0-.562.14-.562.578v7.14c0 .438.125.579.562.579h.407c.453 0 .578-.156.578-.578v-2l1.328-1.266L6.64-.25c.203.25.375.25.609.25h.703c.266 0 .422 0 .422-.344m0 0"/><path id="l" d="M2.313-.578v-4.328c0-.375-.079-.563-.563-.563h-.453c-.422 0-.563.125-.563.563v4.328c0 .437.125.578.563.578h.453c.453 0 .563-.156.563-.578m.093-6.672v-.219c0-.39-.094-.578-.578-.578h-.61c-.452 0-.577.156-.577.578v.219c0 .36.062.578.578.578h.61c.5 0 .577-.219.577-.578m0 0"/><path id="m" d="M5.719-3.11c0-1.546-.703-2.562-2.485-2.562-1.921 0-2.859 1.063-2.859 2.89 0 1.954 1.125 2.907 3 2.907.469 0 1.14-.047 1.938-.453.25-.125.343-.156.343-.313 0-.078-.031-.421-.047-.515-.046-.375-.062-.39-.171-.39-.047 0-.079 0-.204.124a2.7 2.7 0 0 1-1.796.688c-1.36 0-1.5-1.063-1.532-1.828h3.25c.266 0 .563 0 .563-.547m-1.313-.078h-2.5c.047-.734.282-1.624 1.328-1.624.954 0 1.125.687 1.172 1.625m0 0"/><path id="n" d="M5.969-.578v-7.14c0-.391-.094-.579-.578-.579h-.438c-.453 0-.578.156-.578.578v2.703a2.18 2.18 0 0 0-1.5-.593C.438-5.61.438-3.312.438-2.72c0 .547 0 2.844 2.375 2.844.5 0 1.015-.14 1.53-.687 0 .437.157.562.563.562h.485c.453 0 .578-.156.578-.578M4.344-1.5c0 .203 0 .313-.344.563a1.35 1.35 0 0 1-.719.203c-1.219 0-1.219-1.094-1.219-1.985 0-.906 0-2.031 1.344-2.031.344 0 .672.125.938.375Zm0 0"/><path id="o" d="M5.656-5.156c0-.313-.328-.313-.484-.313h-.266c-.187 0-.453 0-.625.266-.031.062-1 2.703-1.062 3.5h-.016c-.062-.578-.547-1.688-1.062-2.844-.328-.75-.422-.922-1.016-.922H.813c-.172 0-.47 0-.47.313 0 .047.032.125.063.187L2.672 0c-.11.25-.14.375-.172.5-.14.39-.344.938-1 .938-.39 0-.656-.172-.797-.25C.641 1.14.625 1.14.578 1.14s-.14.03-.14.172c0 .093.062.921.093.968.11.14.766.172.953.172 1.485 0 2.063-1.406 2.157-1.703l1.953-5.656c.062-.157.062-.188.062-.25m0 0"/><path id="p" d="M7.656-5.719c0-1.797-1.172-2.578-3-2.578h-3c-.422 0-.562.14-.562.578v7.14c0 .438.125.579.562.579h.61c.453 0 .578-.156.578-.578v-2.625h1.812c1.875 0 3-.797 3-2.516M6-5.719c0 .813-.125 1.578-1.734 1.578H2.813v-3.125H4.28C5.844-7.266 6-6.546 6-5.719m0 0"/><path id="q" d="M5.672-.578v-3.203c0-1.89-1.828-1.89-2.422-1.89-.562 0-1.156.046-1.953.374-.25.11-.313.14-.313.281 0 .079.063.766.079.875a.17.17 0 0 0 .156.125c.062 0 .093-.03.125-.078.515-.531 1.125-.797 1.86-.797.64 0 .843.391.843 1.094v.422c-.422 0-3.563.031-3.563 1.781C.484-.75 1.156.125 2.22.125c.406 0 1.297-.11 1.86-.937v.234c0 .39.077.578.577.578h.438c.453 0 .578-.156.578-.578M4.047-1.844c0 1.11-1.14 1.11-1.172 1.11-.516 0-.828-.422-.828-.875 0-1.172 1.656-1.266 2-1.266Zm0 0"/><path id="r" d="M5.969-.578v-3.313c0-1.218-.516-1.718-1.735-1.718-1.265 0-1.796.906-1.953 1.234h-.015v-.594c0-.39-.079-.578-.563-.578h-.406c-.438 0-.578.125-.578.578v4.39c0 .438.125.579.578.579h.469c.453 0 .578-.156.578-.578v-2.64c0-1.032.687-1.532 1.312-1.532.578 0 .688.281.688.89v3.282c0 .39.093.578.578.578h.484c.453 0 .563-.156.563-.578m0 0"/><path id="s" d="M4.734-1.687c0-.672-.359-1.079-.578-1.282-.468-.422-.89-.5-1.39-.594-.657-.124-1.141-.218-1.141-.687 0-.484.39-.578.86-.578.796 0 1.234.297 1.546.562.11.125.14.125.188.125.125 0 .14-.109.156-.156.031-.11.14-.766.14-.828 0-.187-.624-.36-.765-.406-.469-.14-.86-.14-1.172-.14-.531 0-2.14 0-2.14 1.702 0 .594.265.938.593 1.235.422.375.875.468 1.563.593.344.063.953.172.953.688 0 .562-.469.656-.922.656a2.21 2.21 0 0 1-1.766-.828c-.062-.062-.093-.094-.171-.094-.11 0-.141.11-.157.172-.015.172-.156.86-.156.969 0 .219.89.5.89.5a4.4 4.4 0 0 0 1.36.203c.61 0 2.11-.047 2.11-1.812m0 0"/><path id="t" d="M6.25-2.766c0-.578 0-2.843-2.156-2.843-.719 0-1.344.297-1.782.703 0-.453-.156-.563-.562-.563h-.453c-.422 0-.563.125-.563.563V1.75c0 .422.125.563.563.563h.484c.453 0 .578-.157.578-.563V-.469a1.77 1.77 0 0 0 1.36.594c2.531 0 2.531-2.281 2.531-2.89m-1.625.032c0 .468 0 2-1.344 2-.281 0-.5-.094-.64-.203-.282-.204-.282-.25-.282-.47V-4.28c.125-.125.516-.39 1.032-.39 1.218 0 1.234 1.405 1.234 1.937m0 0"/><path id="u" d="M4.25-4.719v-.562c0-.235 0-.328-.203-.328-.344 0-1.219.125-1.781 1.406v-.766c0-.39-.094-.578-.578-.578h-.391c-.422 0-.563.125-.563.578v4.39C.734-.14.86 0 1.297 0h.453c.453 0 .563-.156.563-.578V-2.75c0-1.14.953-1.594 1.703-1.656.218 0 .234 0 .234-.313m0 0"/><path id="v" d="M8.594-5.14c-.031-.329-.25-.329-.625-.329-.563 0-.703.032-.875.657l-.969 3.468-1.016-3.593c-.062-.266-.156-.532-.703-.532-.172 0-.453 0-.61.266-.108.187-.64 2.25-1.062 3.656l-.953-3.39c-.125-.407-.25-.532-.734-.532h-.25c-.219 0-.469 0-.516.328L1.547-.547C1.703 0 2.016 0 2.313 0h.343c.563 0 .656-.172.781-.656.282-1 .704-2.5.766-3.125v-.016c.078.688.61 2.578.75 3.14.14.423.203.657.797.657h.813c.515 0 .64-.14.75-.547Zm0 0"/><path id="w" d="M4.39-6.469a.45.45 0 0 0-.64-.062l-.766.61V-7.72c0-.39-.078-.578-.562-.578h-.453c-.422 0-.563.14-.563.578v3.063l-1.078.843a.46.46 0 0 0-.062.626c.156.187.422.234.625.062l.515-.406v2.953c0 .437.125.578.563.578h.453c.453 0 .562-.156.562-.578v-4.219l1.329-1.062a.444.444 0 0 0 .078-.61m0 0"/><path id="x" d="M2.61-.328v-.922c0-.297-.016-.312-.329-.312H1.36c-.312 0-.312.015-.312.312v.922c0 .312 0 .328.406.328-.078.188-.14.375-.203.578-.078.172-.203.531-.203.531 0 .157.125.157.312.157H1.5c.25 0 .25-.016.375-.203L2.5.078c.11-.172.11-.203.11-.406m0 0"/><path id="y" d="M5.266-.437c0-.454-.36-.454-.72-.454L2.72-.875h-.547l2.922-3.687c.125-.157.14-.22.14-.407 0-.5-.375-.5-.578-.5H1.125c-.156 0-.578 0-.578.453 0 .438.39.438.703.438l1.734-.031h.454L.515-.906C.39-.75.375-.687.375-.5c0 .5.36.5.563.5h3.765c.156 0 .563 0 .563-.437M3.719-7.25v-.219c0-.39-.078-.578-.578-.578h-.61c-.453 0-.578.156-.578.578v.219c0 .36.063.578.578.578h.61c.5 0 .578-.219.578-.578m0 0"/><path id="z" d="M6.188-2.687c0-1.97-.954-2.985-2.907-2.985-1.984 0-2.906 1.063-2.906 2.984C.375-.733 1.406.126 3.281.126s2.907-.86 2.907-2.812m-1.625-.141c0 .937 0 2.031-1.282 2.031C2-.797 2-1.875 2-2.828c0-.922 0-1.985 1.281-1.985s1.281 1.047 1.281 1.985m0 0"/><path id="A" d="M6.188-2.687c0-1.97-.954-2.985-2.907-2.985-1.984 0-2.906 1.063-2.906 2.984C.375-.733 1.406.126 3.281.126s2.907-.86 2.907-2.812m-1.625-.141c0 .937 0 2.031-1.282 2.031C2-.797 2-1.875 2-2.828c0-.922 0-1.985 1.281-1.985s1.281 1.047 1.281 1.985m.593-5.313c0-.156-.14-.156-.328-.156h-.984c-.235 0-.25.016-.36.14L2.47-6.75c-.11.125-.11.172-.11.172 0 .156.125.156.313.156h.453l1.89-1.531c.063-.063.141-.11.141-.188m0 0"/><path id="B" d="M5.469-.594c0-.14-.047-.687-.078-.843 0-.032-.032-.157-.141-.157-.047 0-.078 0-.187.125-.204.172-.766.672-1.75.672-1.25 0-1.25-1.219-1.25-1.969 0-.968.062-1.984 1.28-1.984.782 0 1.11.203 1.532.547.14.14.172.14.219.14.125 0 .14-.109.156-.156.016-.093.14-.765.14-.828 0-.11-.077-.156-.28-.25-.579-.266-.938-.375-1.782-.375-1.781 0-2.89.828-2.89 2.922C.438-.766 1.468.125 3.28.125c.313 0 1.031 0 1.828-.406.344-.188.36-.203.36-.313m0 0"/><path id="C" d="M2.313-.578v-7.14c0-.391-.079-.579-.563-.579h-.453c-.422 0-.563.14-.563.578v7.14C.734-.14.86 0 1.297 0h.453c.453 0 .563-.156.563-.578m0 0"/><path id="D" d="M2.594 2.234c-.375-.5-1.25-1.64-.64-4.484.609-2.828 1.952-3.969 2.546-4.484h-.594c-1.25.89-2.265 2.422-2.703 4.484-.453 2.14-.031 3.625.813 4.484Zm0 0"/><path id="E" d="M6.313-4.406c.203-.953-.516-1.813-1.797-1.813H2.203L.875 0h.86l.546-2.562h1.453c1.266 0 2.36-.86 2.579-1.844m-.782 0c-.156.718-.843 1.297-1.89 1.297H2.375l.547-2.578h1.265c1.032 0 1.485.562 1.344 1.28m0 0"/><path id="F" d="M3.563-1.156a.97.97 0 0 0-.25-.89c-.25-.267-.5-.329-1.032-.423-.312-.062-.75-.156-.656-.578.11-.515.75-.515.89-.515.657 0 .985.203 1.22.343l.25-.625c-.5-.25-.907-.297-1.282-.297-.203 0-1.515 0-1.765 1.188a.9.9 0 0 0 .187.797c.281.297.5.344 1.078.469.281.046.781.14.672.609C2.75-.5 2.031-.5 1.906-.5c-.531 0-1-.187-1.328-.453l-.25.656c.469.281 1 .39 1.453.39.594 0 1.563-.187 1.782-1.25m0 0"/><path id="G" d="m3.922 0 .11-.562H2.89l1.172-5.5h-.188c-.734.578-1.594.578-1.906.578l-.11.562c.25 0 .704 0 1.25-.203L2.125-.562H.985L.858 0Zm0 0"/><path id="H" d="m4.14 0 .141-.672H2.594c-.094 0-.203.016-.313.016h-.984L3.047-2c1.11-.766 1.781-1.25 1.969-2.125.218-1.031-.328-1.937-1.547-1.937-.953 0-1.625.546-2.094 1.437l.297.516c.453-1.047.984-1.344 1.531-1.344.813 0 1.188.61 1.016 1.344-.172.812-.844 1.343-1.64 1.937l-2 1.563L.452 0Zm0 0"/><path id="I" d="M4.64-2c.11-.5.126-.953-.077-1.437-.235-.563-.516-.72-.938-.72-.344 0-1.031.11-1.719.735C2.266-4.625 3.063-5.5 4.031-5.5c.172 0 .5 0 .922.188l.11-.579a2.5 2.5 0 0 0-.922-.171c-1.297 0-2.735 1.25-3.141 3.187C.469-.422 1.422.203 2.266.203c.547 0 .984-.203 1.437-.61.531-.468.797-.89.938-1.593m-.78 0c-.079.344-.157.719-.47 1.11-.218.265-.53.5-1 .5-.953 0-.812-1.282-.78-1.579.03-.125.03-.14.062-.234.14-.688.719-1.36 1.453-1.36.344 0 .61.126.766.547.093.313.062.61-.032 1.016m0 0"/><path id="J" d="M3.328-2.25c.453-2.125.031-3.625-.812-4.484h-.578c.39.5 1.25 1.656.64 4.484C1.984.594.625 1.734.031 2.234h.594c1.234-.89 2.266-2.421 2.703-4.484m0 0"/><path id="K" d="M.078-6.156c-.078 0-.187 0-.187.11 0 .109.078.109.14.124.485.047.688.438.688.75 0 .328-.188.531-.781.797-.282-.734-1.204-1.734-2.641-1.734-1.594 0-2.906 1.265-2.906 2.812 0 1.578 1.312 2.828 2.906 2.828 1.61 0 2.875-1.281 2.875-2.828 0-.25-.047-.515-.11-.765.813-.172 1.485-.313 1.485-1.047 0-.828-1.016-1.047-1.469-1.047m-2.781.86c1 0 1.86.312 2.344 1.046-.735.313-.844.688-.844.953 0 .406.312.703.672.703a.8.8 0 0 0 .344-.078c-.329.844-1.172 1.39-2.516 1.39-1.922 0-2.656-1.124-2.656-2 0-.921.765-2.015 2.656-2.015M-.234-4c.125.266.156.516.156.703 0 .422-.344.485-.453.485a.47.47 0 0 1-.453-.485c0-.39.297-.578.75-.703m0 0"/><path id="L" d="M0-4.484h-.266c0 .547-.046.609-.437.609h-2.813l.094 1.219h.266c0-.547.047-.61.437-.61h1.39c.688 0 1.188.407 1.188 1.016 0 .688-.343.719-.75.719h-2.625l.094 1.203h.266c0-.61.015-.61.719-.61h1.203c.578 0 1.312 0 1.312-1.265 0-.75-.578-1.047-.64-1.078v-.016h.64Zm0 0"/><path id="M" d="M-.719-4.094h-.437v.25h.437c.328 0 .453.11.453.281 0 .297-.359.297-.453.297h-1.656c-.781 0-1.172.75-1.172 1.485 0 .656.25 1.25.781 1.25a.36.36 0 0 0 .375-.375.36.36 0 0 0-.375-.375.356.356 0 0 0-.359.297c-.203-.297-.203-.735-.203-.782 0-.453.312-.89.969-.89h.234c.031.453.047.984.281 1.547.313.703.766.843 1.032.843.687 0 .89-.812.89-1.359a1.23 1.23 0 0 0-.64-1.11c.296-.046.609-.25.609-.609 0-.078-.031-.75-.766-.75m-.406 1.438c.781 0 .984.64.984.969 0 .406-.28.765-.671.765-.516 0-1.063-.5-1.094-1.734Zm0 0"/><path id="N" d="M0-4.484h-.266c0 .515 0 .609-.359.609h-1.797c-.656 0-1.094.313-1.094 1.14 0 .797.579 1.157.766 1.25h-.766l.094 1.157h.266c0-.547.047-.61.437-.61h2.094c.36 0 .36.094.36.61H0c-.031-.344-.031-.688-.031-.906 0-.235 0-.563.031-.907h-.266c0 .5 0 .61-.359.61h-1.437c-.844 0-1.235-.64-1.235-1.125s.344-.61.844-.61h1.828c.36 0 .36.094.36.61H0C-.031-3-.031-3.36-.031-3.562c0-.235 0-.579.031-.922m0 0"/><path id="O" d="M0-4.422h-.266c0 .547-.046.61-.437.61h-4.828l.093 1.187h.266c0-.531.047-.61.438-.61h1.687a1.4 1.4 0 0 0-.469 1.079c0 1 .782 1.875 1.797 1.875.985 0 1.797-.797 1.797-1.797 0-.469-.219-.86-.5-1.125h.5Zm-.984 1.219c.14 0 .172 0 .328.125.328.219.515.578.515.953s-.187.688-.484.875c-.312.219-.703.266-1.078.266-.469 0-.797-.079-1.063-.266a1.15 1.15 0 0 1-.53-.953c0-.375.202-.766.608-1Zm0 0"/><path id="P" d="M-1.703-3.984c-.984 0-1.844.828-1.844 1.875s.86 1.875 1.844 1.875c1 0 1.781-.86 1.781-1.875 0-1.032-.781-1.875-1.781-1.875m-.063.703c.36 0 .797.015 1.141.25.313.203.453.562.453.922 0 .422-.203.765-.484.937-.328.203-.719.219-1.11.219-.312 0-.78 0-1.125-.235a1.14 1.14 0 0 1-.437-.921c0-.422.203-.766.469-.938.343-.219.765-.234 1.093-.234m0 0"/><path id="Q" d="M0-2.078h-.266c0 .531-.03.562-.343.562h-2.907l.094 1.157h.266c0-.516.047-.578.437-.578h2.094c.36 0 .36.093.36.609H0c-.031-.313-.031-.766-.031-.89 0-.095 0-.579.031-.86m-4.797.453a.453.453 0 0 0-.453.453.45.45 0 0 0 .453.438.437.437 0 0 0 .438-.438.45.45 0 0 0-.438-.453m0 0"/><path id="R" d="M0-2.125h-.266c0 .5 0 .61-.359.61h-4.906l.093 1.187h.266c0-.547.047-.61.438-.61h4.109c.36 0 .36.094.36.61H0c-.031-.313-.031-.766-.031-.906 0-.157 0-.578.031-.891m0 0"/><path id="S" d="M-1.469-4.219a1.62 1.62 0 0 0-1.593 1.266l-.266 1.094c-.11.515-.516.89-1 .89-.547 0-1.047-.468-1.047-1.156 0-1.375 1.297-1.562 1.594-1.61.094-.015.14-.015.14-.124 0-.125-.046-.125-.203-.125h-1.562c-.125 0-.203 0-.203.109 0 .063.015.078.109.125l.453.281c-.437.406-.562.906-.562 1.344 0 .953.718 1.656 1.53 1.656.61 0 .938-.343 1.095-.5.28-.281.343-.547.547-1.406.156-.687.187-.797.468-1.062.078-.079.344-.282.735-.282.562 0 1.14.422 1.14 1.172 0 .875-.422 1.781-1.531 1.828-.125.016-.187.016-.187.125 0 .125.062.125.218.125h1.547c.14 0 .219 0 .219-.11C.172-.64.156-.64.078-.702.031-.734-.047-.766-.375-.984c.438-.5.547-1.094.547-1.578 0-.985-.797-1.657-1.64-1.657m0 0"/><path id="T" d="M-3.203-4.11a.43.43 0 0 0-.406.454c0 .14.046.531.375.89-.141.204-.282.516-.282.891 0 .781.547 1.36 1.172 1.36.375 0 .656-.204.813-.376a.934.934 0 0 0 1.36-.094c.108.423.421.75.78.75.579 0 1.032-.827 1.032-1.874 0-1-.407-1.875-1.047-1.875-.422 0-.766.25-.89.515-.25.469-.25.86-.25 1.64v.454c-.032.25-.235.438-.532.438-.188 0-.266-.047-.328-.094.187-.344.234-.657.234-.844 0-.781-.547-1.375-1.172-1.375-.297 0-.562.14-.765.328a1.2 1.2 0 0 1-.266-.765c.016.03.063.078.188.078.14 0 .25-.11.25-.25a.25.25 0 0 0-.266-.25m.86 1.5c.296 0 .5.032.656.157a.7.7 0 0 1 .28.578c0 .734-.765.734-.937.734-.297 0-.5-.03-.656-.156a.72.72 0 0 1-.281-.578c0-.734.765-.734.937-.734m2.952-.906c.422 0 .797.61.797 1.407S1.031-.703.61-.703c-.171 0-.64-.14-.64-.781v-.766c0-.219 0-1.266.64-1.266m0 0"/><path id="U" d="M-3.016-3.062c-.28 0-.5.25-.5.609 0 .515.391.875.844 1.031v.016h-.844l.094 1.125h.266c0-.547.047-.61.437-.61h2.094c.36 0 .36.11.36.61H0c-.031-.313-.031-.75-.031-.938 0-.468 0-.484.031-1h-.266v.156c0 .579-.078.594-.375.594h-1.171c-.61 0-1.47-.25-1.485-1.015.031.046.094.14.281.14.25 0 .36-.203.36-.36 0-.187-.125-.358-.36-.358m0 0"/><path id="V" d="M-.953-3.516a.12.12 0 0 0-.11.125c0 .094.047.11.094.125.782.282.797.97.797 1.11 0 .36-.156.734-.531.969-.36.234-.875.234-1.11.234v-2.344c0-.172 0-.219-.187-.219-.703 0-1.547.391-1.547 1.516 0 .984.813 1.766 1.797 1.766 1.031 0 1.828-.86 1.828-1.875 0-1-.844-1.407-1.031-1.407m-1.078.547v2.016c-1.11-.078-1.297-.75-1.297-1.047 0-.937 1.125-.969 1.297-.969m0 0"/><path id="W" d="M-1.719-4.422c-1 0-1.797.813-1.797 1.781 0 .313.079.766.5 1.172h-.5l.094 1.188h.266c0-.563.047-.61.375-.61H.922c.36 0 .36.11.36.61h.265c-.031-.344-.031-.688-.031-.906 0-.235 0-.563.03-.907h-.265c0 .516 0 .61-.36.61H-.39a1.37 1.37 0 0 0 .47-1.047c0-1-.782-1.89-1.798-1.89m0 .719c.907 0 1.578.578 1.578 1.219 0 .28-.125.64-.515.906-.14.094-.156.094-.297.094h-1.703a1.3 1.3 0 0 1-.61-1.094c0-.61.672-1.125 1.547-1.125m0 0"/><path id="X" d="M-.437-1.625a.453.453 0 0 0-.454.453c0 .266.22.438.438.438A.44.44 0 0 0 0-1.172a.45.45 0 0 0-.437-.453m0 0"/><path id="Y" d="M0-3.562h-.266v.28c0 .75-.093.782-.39.782h-4.422c-.219 0-.219.016-.219.234.313.329.5.75.5 1.5h.266c0-.218 0-.64-.203-1.109h4.078c.297 0 .39.031.39.781v.282H0c-.031-.329-.031-1.016-.031-1.375 0-.36 0-1.047.031-1.376m0 0"/><path id="Z" d="M-1.312-3.984h-.25v.843h-3.594c-.157 0-.219 0-.219.172 0 .094 0 .11.11.188l3.702 2.547h.25v-2.25h.672c.297 0 .375.015.375.64v.172H0l-.031-1.14L0-3.953h-.266v.172c0 .625-.078.64-.375.64h-.671Zm-.25 1.437v2.031l-2.954-2.03Zm0 0"/><path id="aa" d="M1.86 5.64c.077 0 .156 0 .156-.14 0-.078-.047-.11-.125-.11C.67 5.329.094 4.329.094 3.485c0-.671.422-2.187 2.625-2.187 2.156 0 2.625 1.437 2.625 2.187s-.532 1.672-1.907 1.891c-.062 0-.109.016-.109.125 0 .14.047.14.203.14h1.875c.125 0 .203 0 .203-.109 0-.062 0-.062-.109-.14l-.594-.407c.313-.28.703-.812.703-1.578C5.61 1.812 4.33.47 2.72.47s-2.89 1.328-2.89 2.953C-.172 4.75.89 5.64 1.858 5.64m0 0"/><path id="ab" d="M0 4.484h.266c0-.546.046-.609.437-.609h2.813l-.094-1.219h-.266c0 .547-.047.61-.437.61h-1.39C.64 3.266.14 2.859.14 2.25c0-.687.343-.719.75-.719h2.625L3.422.328h-.266c0 .61-.015.61-.719.61H1.235c-.578 0-1.312 0-1.312 1.265 0 .75.578 1.047.64 1.078v.016h-.64Zm0 0"/><path id="ac" d="M.719 4.094h.437v-.25H.72c-.328 0-.453-.11-.453-.281 0-.297.359-.297.453-.297h1.656c.781 0 1.172-.75 1.172-1.485 0-.656-.25-1.25-.781-1.25a.36.36 0 0 0-.375.375c0 .219.156.375.375.375a.356.356 0 0 0 .359-.297c.203.297.203.735.203.782 0 .453-.312.89-.969.89h-.234c-.031-.453-.047-.984-.281-1.547C1.53.406 1.078.266.813.266c-.688 0-.891.812-.891 1.359 0 .578.328.938.64 1.11-.296.046-.609.25-.609.609 0 .078.031.75.766.75m.406-1.438c-.781 0-.984-.64-.984-.969 0-.406.28-.765.672-.765.515 0 1.062.5 1.093 1.734Zm0 0"/><path id="ad" d="M0 4.484h.266c0-.515 0-.609.359-.609h1.797c.656 0 1.094-.312 1.094-1.14a1.38 1.38 0 0 0-.766-1.25h.766L3.422.327h-.266c0 .547-.047.61-.437.61H.625c-.36 0-.36-.094-.36-.61H0c.031.344.031.688.031.906 0 .235 0 .563-.031.907h.266c0-.5 0-.61.359-.61h1.438c.843 0 1.234.64 1.234 1.125s-.344.61-.844.61H.625c-.36 0-.36-.094-.36-.61H0c.031.344.031.703.031.906 0 .235 0 .579-.031.922m0 0"/><path id="ae" d="M0 4.422h.266c0-.547.046-.61.437-.61h4.828l-.093-1.187h-.266c0 .531-.047.61-.438.61H3.047c.312-.282.469-.657.469-1.079 0-1-.782-1.875-1.797-1.875-.985 0-1.797.797-1.797 1.797 0 .469.219.86.5 1.125h-.5Zm.984-1.219c-.14 0-.171 0-.328-.125a1.15 1.15 0 0 1-.515-.953c0-.375.187-.687.484-.875.313-.219.703-.266 1.078-.266.469 0 .797.079 1.063.266.297.188.53.547.53.953 0 .375-.202.766-.608 1Zm0 0"/><path id="af" d="M1.703 3.984c.984 0 1.844-.828 1.844-1.875 0-1.046-.86-1.875-1.844-1.875-1 0-1.781.86-1.781 1.875 0 1.032.781 1.875 1.781 1.875m.063-.703c-.36 0-.797-.015-1.141-.25C.313 2.828.172 2.47.172 2.11c0-.421.203-.765.484-.937.328-.203.719-.219 1.11-.219.312 0 .78 0 1.125.235.28.218.437.546.437.921 0 .422-.203.766-.469.938-.343.219-.765.234-1.093.234m0 0"/><path id="ag" d="M.953 3.516a.12.12 0 0 0 .11-.125c0-.094-.047-.11-.094-.125a1.14 1.14 0 0 1-.797-1.11c0-.36.156-.734.531-.969.36-.234.875-.234 1.11-.234v2.344c0 .172 0 .219.187.219.703 0 1.547-.391 1.547-1.516 0-.984-.813-1.766-1.797-1.766-1.031 0-1.828.86-1.828 1.875 0 1 .844 1.407 1.031 1.407m1.078-.547V.953c1.11.078 1.297.75 1.297 1.047 0 .938-1.125.969-1.297.969m0 0"/><path id="ah" d="M0 2.125h.266c0-.5 0-.61.359-.61h4.906L5.438.329h-.266c0 .547-.047.61-.438.61H.625c-.36 0-.36-.094-.36-.61H0c.031.313.031.766.031.906 0 .157 0 .579-.031.891m0 0"/><path id="ai" d="M1.469 4.219a1.62 1.62 0 0 0 1.594-1.266l.265-1.094c.11-.515.516-.89 1-.89.547 0 1.047.469 1.047 1.156 0 1.375-1.297 1.563-1.594 1.61-.094.015-.14.015-.14.124 0 .125.046.125.203.125h1.562c.125 0 .203 0 .203-.109 0-.062-.015-.078-.109-.125l-.453-.281c.437-.406.562-.906.562-1.344 0-.953-.718-1.656-1.53-1.656-.61 0-.938.344-1.095.5-.28.281-.343.547-.546 1.406-.157.688-.188.797-.47 1.063a1.08 1.08 0 0 1-.734.28c-.562 0-1.14-.421-1.14-1.171 0-.875.422-1.781 1.531-1.828.125-.016.188-.016.188-.125 0-.125-.063-.125-.22-.125H.048c-.14 0-.219 0-.219.11 0 .062.016.062.094.124.047.031.125.063.453.281-.437.5-.547 1.094-.547 1.579 0 .984.797 1.656 1.64 1.656m0 0"/><path id="aj" d="M0 4.484h.266c0-.515 0-.609.359-.609h1.797c.656 0 1.094-.312 1.094-1.14a1.38 1.38 0 0 0-.766-1.25h.766L3.422.327h-.266c0 .547-.047.61-.437.61H.625c-.36 0-.36-.094-.36-.61H0c.031.344.031.688.031.906 0 .235 0 .563-.031.907h.266c0-.5 0-.61.359-.61h1.438c.843 0 1.234.64 1.234 1.125s-.344.61-.844.61H.625c-.36 0-.36-.094-.36-.61H0c.031.344.031.703.031.906 0 .235 0 .579-.031.922m5.047-.718.156-.157c-.36-.328-.36-.578-.36-.671 0-.188.079-.344.173-.532.109-.219.187-.36.187-.547 0-.312-.172-.468-.64-.906l-.157.156c.36.329.36.579.36.672 0 .172-.079.344-.188.532-.094.218-.172.359-.172.546 0 .313.172.47.64.907m0 0"/><path id="ak" d="M3.016 3.063c.28 0 .5-.25.5-.61 0-.515-.391-.875-.844-1.031v-.016h.844L3.422.281h-.266c0 .547-.047.61-.437.61H.625C.265.89.265.78.265.28H0c.031.313.031.75.031.938 0 .468 0 .484-.031 1h.266v-.156c0-.579.078-.594.375-.594h1.172c.609 0 1.468.25 1.484 1.015-.031-.046-.094-.14-.281-.14-.25 0-.36.203-.36.36 0 .187.125.358.36.358m0 0"/><path id="al" d="M1.719 4.422c1 0 1.797-.813 1.797-1.781 0-.313-.079-.766-.5-1.172h.5L3.422.28h-.266c0 .563-.047.61-.375.61H-.922c-.36 0-.36-.11-.36-.61h-.265c.031.344.031.688.031.907 0 .234 0 .562-.03.906h.265c0-.516 0-.61.36-.61H.39a1.37 1.37 0 0 0-.47 1.047c0 1 .782 1.89 1.798 1.89m0-.719C.812 3.703.14 3.125.14 2.484c0-.28.125-.64.515-.906.14-.094.156-.094.297-.094h1.703c.313.188.61.594.61 1.094 0 .61-.672 1.125-1.547 1.125m0 0"/><path id="am" d="M.438 1.625a.453.453 0 0 0 .453-.453.436.436 0 0 0-.438-.438.44.44 0 0 0-.453.438.45.45 0 0 0 .438.453m0 0"/><path id="an" d="M1.313 3.984h.25v-.843h3.593c.157 0 .219 0 .219-.172 0-.094 0-.11-.11-.188L1.564.234h-.25v2.25H.64c-.297 0-.375-.015-.375-.64v-.172H0l.031 1.14L0 3.954h.266v-.172c0-.625.078-.64.375-.64h.672Zm.25-1.437V.516l2.953 2.03Zm0 0"/><path id="ao" d="M1.36 3.875c.671 0 1.265-.531 1.453-1.344.218.625.75 1.11 1.39 1.11s1.094-.72 1.094-1.547c0-.86-.453-1.5-1.063-1.5-.296 0-.421.187-.421.406 0 .25.171.406.406.406.297 0 .406-.265.406-.437.438.344.469.953.469 1.094 0 .203-.063.812-.89.812-.548 0-.891-.234-1.016-.344-.25-.234-.266-.422-.297-.906 0-.156-.016-.219-.125-.219-.11 0-.11.078-.11.219v.39c0 .626-.453 1.032-1.297 1.032-1 0-1.28-.563-1.28-.985 0-.437.155-1.046.577-1.328 0 .297.188.5.438.5.265 0 .437-.187.437-.453 0-.203-.125-.437-.453-.437-.75 0-1.25.812-1.25 1.734 0 1.047.734 1.797 1.531 1.797m0 0"/><path id="ap" d="M9.953 0v-.516h-.312c-.657 0-.703-.062-.813-.218L5.61-5.047l2.844-2.406c.156-.14.266-.234 1.328-.234v-.516L8.5-8.172c-.36 0-1.297 0-1.594-.031v.515c.266 0 .547.016.86.141l-4.47 3.813v-3.953h1.267v-.516c-.344.031-1.625.031-2.047.031-.438 0-1.72 0-2.063-.031v.515H1.72v7.172H.453V0c.344-.031 1.625-.031 2.063-.031.422 0 1.703 0 2.047.031v-.516H3.297v-2.562L4.53-4.125l2.5 3.344c.016.031.063.094.063.14 0 .125-.578.125-.844.125V0c.39-.031 1.5-.031 1.953-.031.36 0 1.485 0 1.75.031m0 0"/><path id="be" d="M13.61-7.687v-.516l-1.297.031c-.344 0-1.22 0-1.5-.031v.515c.14 0 1.187 0 1.187.172 0 0 0 .032-.047.141L9.938-2.047l-2.126-5.64h1.125v-.516c-.374.031-1.484.031-1.937.031-.375 0-1.531 0-1.828-.031v.515h1.016l.484 1.297-1.64 4.344-2.126-5.64h1.125v-.516c-.343.031-1.515.031-1.953.031-.375 0-1.515 0-1.812-.031v.515h1L4.109-.171c.079.203.11.281.375.281.266 0 .297-.078.375-.28l2.079-5.5 2.093 5.5c.063.202.094.28.36.28.234 0 .297-.046.375-.28L12.5-7.407c.094-.203.11-.282 1.11-.282m0 0"/><path id="bp" d="M5.766 0v-.516H4.14V-7.5c0-.344-.032-.344-.407-.344-.89.766-2.218.766-2.484.766h-.219v.516h.219c.422 0 1.063-.079 1.531-.235v6.281H1.125V0l2.313-.031Zm0 0"/><path id="bq" d="M6.031-2.562h-.5c-.031.25-.11.953-.297 1.062-.093.094-1.03.094-1.203.094h-1.86l1.72-1.422c1.328-1 2.14-1.61 2.14-2.75 0-1.422-1.281-2.266-2.86-2.266-1.343 0-2.5.766-2.5 1.907 0 .625.517.812.782.812.375 0 .813-.25.813-.797 0-.516-.375-.766-.75-.812.484-.547 1.109-.594 1.359-.594 1.11 0 1.625.89 1.625 1.766 0 .921-.625 1.78-1.125 2.296L.781-.546c-.11.109-.11.124-.11.343V0h5.017Zm0 0"/><path id="aq" d="M9.766-4.687c.234-.891.28-1.829-.188-2.454-.328-.421-.797-.671-1.328-.843-.687-.22-1.437-.235-2.219-.235l.078-.297-.078-.046-.812.374c-.875.063-1.89.313-2.766 1-.437.344-.781.829-.906 1.329-.047.234-.063.453 0 .593a.29.29 0 0 0 .266.172.56.56 0 0 0 .39-.172c.125-.093.188-.25.219-.39.078-.266.047-.469.11-.735A1.35 1.35 0 0 1 3-7.109a3.32 3.32 0 0 1 2.125-.735L4.203-4.14c-.14.579-.297 1.172-.562 1.75-.141.344-.36.704-.657.954-.609.5-1.328.796-2.015.796l-.485.594h3.47c1.25 0 2.53-.484 3.624-1.36 1.094-.859 1.875-2.046 2.188-3.28m-.891.062c-.156.625-.36 1.25-.703 1.828-.266.485-.61.938-1.047 1.281a3.5 3.5 0 0 1-1.297.704c-.578.171-1.156.171-1.719.171H2.656l-.015-.125.53-.437c.517-.438.923-1 1.235-1.563a9.8 9.8 0 0 0 .844-2.28l.688-2.798c.593 0 1.14.047 1.671.219.391.125.75.297 1 .61.47.624.485 1.515.266 2.39m0 0"/><path id="aI" d="M5.14-1.281c0-.063-.077-.157-.14-.157-.062 0-.094.032-.156.125C3.89-.125 2.594-.125 2.454-.125c-.938 0-1.048-1.016-1.048-1.39 0-.141.016-.516.203-1.25h.625c.344 0 1.235-.016 1.829-.266.843-.36.89-1.063.89-1.235 0-.53-.453-1.015-1.266-1.015-1.328 0-3.14 1.156-3.14 3.25C.547-.812 1.25.125 2.422.125 4.14.125 5.14-1.141 5.14-1.281m-.577-2.985c0 1.235-1.907 1.235-2.407 1.235h-.484c.469-1.813 1.703-1.985 2.016-1.985.562 0 .874.344.874.75m0 0"/><path id="bb" d="M3.969 2.844c0-.031-.031-.078-.047-.094-1.25-.937-2.063-3.328-2.063-5.234v-1c0-1.922.813-4.313 2.063-5.235.015-.031.047-.062.047-.11 0-.046-.063-.108-.125-.108-.016 0-.047.015-.063.015-1.312 1-2.578 3.39-2.578 5.438v1c0 2.047 1.266 4.437 2.578 5.422a.12.12 0 0 0 .063.03.134.134 0 0 0 .125-.124m0 0"/><path id="bd" d="M3.438-2.484v-1c0-2.047-1.25-4.438-2.563-5.438-.031 0-.047-.015-.078-.015-.063 0-.11.062-.11.109s.016.078.047.11c1.235.921 2.063 3.312 2.063 5.234v1c0 1.906-.828 4.297-2.063 5.234-.03.016-.046.063-.046.094 0 .062.046.125.109.125.031 0 .047-.016.078-.031 1.313-.985 2.563-3.375 2.563-5.422m0 0"/><path id="bg" d="M7.656-6.953c.094-.344.047-.656-.14-.906-.282-.391-.985-.47-1.375-.47-.891 0-1.766.22-2.657.813-.718.485-1.218 1.282-1.421 2.079-.172.718-.235 1.453.156 1.984.406.531 1.094.781 1.844.781.593 0 1.25-.172 1.828-.531l-.25 1.14c-.125.516-.328.97-.578 1.47-.22.374-.5.75-.86 1.046-.469.39-1.031.656-1.578.656-.36 0-.719-.062-.922-.328-.11-.156-.11-.375-.11-.593.016-.157.016-.329-.062-.438a.34.34 0 0 0-.281-.125.75.75 0 0 0-.469.14.84.84 0 0 0-.265.407.98.98 0 0 0 .172.89c.28.391.812.485 1.359.485.984 0 1.984-.406 2.86-1.11.452-.359.78-.812 1.03-1.328.36-.718.61-1.468.797-2.234l.391-1.578-.672.156c-.156.344-.5.828-.687.969-.47.39-1 .547-1.532.547-.5 0-.89-.219-1.156-.563-.36-.484-.312-1.187-.14-1.86a3.62 3.62 0 0 1 1.265-1.952 2.5 2.5 0 0 1 1.547-.516c.297 0 .719.11.922.406.14.188.219.407.14.672-.046.219-.125.469-.328.64-.28.22-.546.25-.828.25l-.093.204c.187.031.468.11.53.11.36 0 .704-.188 1.016-.438.297-.25.47-.563.547-.875m0 0"/><path id="bh" d="M9.766-8.062v-.235c-.344.031-.891.11-1.297.266-.36.125-.719.312-1.031.5-.5.297-.907.797-1.25 1.265-.547.75-1 1.485-1.485 2.266-.516.828-1.328 2.156-1.578 2.469s-.547.687-.86.937a.88.88 0 0 1-.562.219c-.094 0-.203-.031-.266-.11-.03-.062-.093-.124-.062-.218s.063-.188.11-.281c.015-.063.062-.157.062-.203a.22.22 0 0 0-.031-.22c-.063-.093-.172-.155-.328-.155a.58.58 0 0 0-.375.109.82.82 0 0 0-.297.437c-.079.313-.047.61.109.844a.87.87 0 0 0 .672.297c.469 0 .969-.25 1.39-.578.5-.406 1.407-1.328 2.047-2.375h2.641l-.469 1.89a2 2 0 0 0-.093.594c.015.125.03.266.093.36.078.109.235.156.39.156.298 0 .61-.14.876-.297.453-.25.86-.547 1.25-.906l-.14-.203a5 5 0 0 1-.563.39.83.83 0 0 1-.469.172c-.094 0-.187-.015-.25-.094-.156-.203-.14-.484-.094-.78.157-.829.36-1.688.563-2.516l.86-3.47c.062-.218.108-.327.25-.421Zm-1.188.437L7.5-3.328H5.063c.5-.922 1-1.828 1.578-2.703.343-.5.672-1 1.14-1.375.235-.172.485-.297.719-.344Zm0 0"/><path id="ar" d="M7.547 0 4.28-5.016l3.125-3.28H6.281L2.094-3.892v-4.406h-1V0h1v-2.703L3.64-4.328 6.453 0Zm0 0"/><path id="as" d="M1.813 0v-5.312H.938V0Zm.078-6.797v-1.016H.859v1.016Zm0 0"/><path id="at" d="M4.86-2.687c0-.516-.048-1.25-.423-1.876-.5-.828-1.328-.921-1.671-.921C1.469-5.484.39-4.25.39-2.687.39-1.11 1.547.124 2.92.124c.563 0 1.22-.156 1.876-.64 0-.047-.047-.438-.047-.438s-.031-.281-.031-.328c-.703.593-1.407.687-1.766.687-.922 0-1.703-.828-1.734-2.093Zm-.704-.641h-2.86c.204-.813.767-1.438 1.47-1.438.359 0 1.187.157 1.39 1.438m0 0"/><path id="au" d="M5.063 0v-8.297h-.891v3.485a2.65 2.65 0 0 0-1.688-.61c-1.14 0-2.062 1.219-2.062 2.766S1.297.125 2.437.125c.438 0 1.11-.156 1.704-.734V0ZM4.14-1.406c-.282.515-.703.812-1.22.812-.733 0-1.593-.562-1.593-2.047 0-1.593 1.016-2.062 1.703-2.062.469 0 .86.234 1.11.625Zm0 0"/><path id="av" d="M5.172-5.312h-.89c-.548 1.421-1.47 3.765-1.516 4.625H2.75c-.062-.72-.687-2.282-.797-2.532L1.11-5.312H.172L2.39 0l-.422 1.094c-.266.593-.438.656-.657.656-.171 0-.546-.047-.921-.187l.078.78c.062.016.469.095.844.095.296 0 .843 0 1.359-1.313Zm0 0"/><path id="aw" d="M6.797-5.875c0-1.266-1.172-2.422-2.797-2.422H1.094V0h1.015v-3.453H4c1.656 0 2.797-1.188 2.797-2.422m-.953-.016c0 .938-.735 1.75-2.094 1.75H2.094v-3.484H3.75c1.406 0 2.094.828 2.094 1.734m0 0"/><path id="ax" d="M4.797 0v-3.5c0-1.156-.828-1.984-1.938-1.984-.718 0-1.25.172-1.843.5l.078.78c.515-.374 1.062-.593 1.765-.593.547 0 1.032.453 1.032 1.313v.5c-.547.015-1.266.062-1.985.297C1.11-2.422.641-1.97.641-1.375c0 .531.312 1.5 1.328 1.5.656 0 1.5-.203 1.937-.562V0ZM3.89-1.61c0 .25 0 .532-.407.766-.312.203-.718.25-.906.25-.64 0-1.078-.343-1.078-.797 0-.812 1.656-.984 2.39-.984Zm0 0"/><path id="ay" d="M5.063 0v-3.594c0-.734-.157-1.828-1.594-1.828-.672 0-1.25.297-1.703.875v-.812H.922V0h.906v-2.969c0-.75.281-1.734 1.188-1.734 1.109 0 1.14.766 1.14 1.187V0Zm0 0"/><path id="az" d="M4.203-1.516c0-.609-.36-1-.406-1.046-.453-.47-.813-.532-1.531-.672-.438-.094-1.047-.203-1.047-.813 0-.734.843-.734 1-.734.625 0 1.125.14 1.656.437l.14-.765a3.9 3.9 0 0 0-1.687-.375c-.265 0-1.937 0-1.937 1.547 0 .53.297.89.468 1.062.438.36.735.422 1.438.563.39.093 1.078.234 1.078.859 0 .828-.922.828-1.094.828A3.12 3.12 0 0 1 .47-1.219l-.14.813c.046.031.859.531 1.968.531 1.547 0 1.906-.937 1.906-1.64m0 0"/><path id="aA" d="M5.563-2.672c0-1.437-.75-2.75-1.875-2.75-.485 0-1.25.156-1.876.672v-.562H.939v7.625h.906V-.531c.406.36.906.656 1.547.656 1.156 0 2.172-1.172 2.172-2.797m-.907.016c0 1.203-.812 2.062-1.703 2.062-.328 0-.562-.125-.781-.297-.297-.25-.328-.468-.328-.656v-2.469a1.47 1.47 0 0 1 1.219-.671c.874 0 1.593.89 1.593 2.03m0 0"/><path id="aB" d="M3.797-4.625v-.797c-1.078 0-1.719.64-2.047 1.11V-5.36H.938V0h.875v-2.625c0-1.203.906-1.984 1.984-2m0 0"/><path id="aC" d="M7.766-5.312H6.89l-.703 2.437c-.172.563-.516 1.688-.563 2.203-.047-.281-.234-1.078-.484-1.937l-.797-2.703H3.53L2.844-2.97c-.219.75-.5 1.781-.531 2.282h-.016c-.016-.235-.14-.86-.375-1.672l-.844-2.953H.172L1.766 0h.922c.453-1.5 1.156-3.781 1.218-4.61h.016c.015.485.265 1.344.344 1.626L5.109 0h1.063Zm0 0"/><path id="aD" d="m3.688-5.36-.485-.515-.828.719v-3.14H1.5v3.874L.328-3.375l.453.547.719-.656V0h.875v-4.234Zm0 0"/><path id="aE" d="M2.11-.016v-.953h-.97V0h.298L1.14 1.5h.468Zm0 0"/><path id="aF" d="M4.703 0v-.734H2.984c-.14 0-.28.015-.421.015H1.547l3.11-4.125v-.468H.483v.703h2.953L.329-.484V0ZM3.047-6.797v-1.016H2.016v1.016Zm0 0"/><path id="aG" d="M5.484-2.625c0-1.625-1.187-2.86-2.562-2.86-1.406 0-2.563 1.266-2.563 2.86 0 1.563 1.188 2.75 2.563 2.75 1.406 0 2.562-1.219 2.562-2.75m-.906-.125c0 1.469-.844 2.125-1.656 2.125-.86 0-1.656-.719-1.656-2.125 0-1.453.89-2.016 1.656-2.016.812 0 1.656.625 1.656 2.016m0 0"/><path id="aH" d="M5.484-2.625c0-1.625-1.187-2.86-2.562-2.86-1.406 0-2.563 1.266-2.563 2.86 0 1.563 1.188 2.75 2.563 2.75 1.406 0 2.562-1.219 2.562-2.75m-.906-.125c0 1.469-.844 2.125-1.656 2.125-.86 0-1.656-.719-1.656-2.125 0-1.453.89-2.016 1.656-2.016.812 0 1.656.625 1.656 2.016m-.016-5.547h-.906l-1.547 2h.72Zm0 0"/><path id="aJ" d="M4.86-.5c0-.031-.032-.406-.048-.453l-.015-.344a2.8 2.8 0 0 1-1.828.672c-1 0-1.64-.875-1.64-2.047 0-.984.484-2.078 1.671-2.078.797 0 1.14.203 1.656.547l.14-.781c-.702-.407-1.093-.5-1.796-.5-1.656 0-2.578 1.453-2.578 2.812C.422-1.14 1.516.125 2.953.125c.578 0 1.25-.156 1.906-.625m0 0"/><path id="aK" d="M1.813 0v-8.297H.938V0Zm0 0"/><path id="aL" d="m5.672-4.703-.125-.719c-.234 0-1.047 0-1.828.39-.39-.327-.875-.39-1.11-.39-1.046 0-1.875.875-1.875 1.922 0 .422.125.828.391 1.188a1.64 1.64 0 0 0-.344 1.015c0 .453.156.75.297.906C.468 0 .328.516.328.844c0 .875 1.125 1.61 2.594 1.61 1.453 0 2.594-.704 2.594-1.61 0-1.688-1.938-1.688-2.422-1.688H2.078c-.172 0-.672 0-.672-.625 0-.265.047-.343.11-.437.203.14.593.343 1.078.343 1.031 0 1.875-.859 1.875-1.937a2.13 2.13 0 0 0-.36-1.156 7 7 0 0 1 .954-.063c.046 0 .312 0 .609.016M3.64-3.5c0 1.063-.672 1.281-1.032 1.281-.53 0-1.062-.36-1.062-1.265 0-1.063.672-1.282 1.047-1.282.531 0 1.047.36 1.047 1.266M4.688.844c0 .562-.829.953-1.766.953-.922 0-1.766-.375-1.766-.953 0-.047 0-.813.907-.813h1.046c.266 0 1.579 0 1.579.813m0 0"/><path id="aM" d="M5.063 0v-3.594c0-.734-.157-1.828-1.594-1.828-.672 0-1.25.297-1.703.875v-.812H.922V0h.906v-2.969c0-.75.281-1.734 1.188-1.734 1.109 0 1.14.766 1.14 1.187V0ZM4.64-8.297h-.907l-1.562 2h.719Zm0 0"/><path id="aN" d="M5.844-2.266c0-.765-.375-1.328-.625-1.625-.563-.593-1-.718-1.797-.921-.813-.204-1.11-.266-1.375-.516-.156-.172-.485-.469-.485-1 0-.734.657-1.438 1.72-1.438 1.015 0 1.546.391 1.984.766l.172-.953c-.485-.266-1.094-.594-2.157-.594-1.594 0-2.64 1.14-2.64 2.344 0 .844.515 1.39.578 1.453.593.61 1 .703 1.75.906 1.031.25 1.187.297 1.578.688.203.219.375.594.375 1.015 0 .829-.672 1.594-1.703 1.594a3.75 3.75 0 0 1-2.516-1l-.172.969A4.9 4.9 0 0 0 3.22.25C4.75.25 5.844-.937 5.844-2.266m0 0"/><path id="aO" d="M2.14.703v-6.015h-.89v6.14c0 .781-.625.86-.875.86-.531 0-.86-.344-.875-.375l-.234.718c.375.235.859.406 1.406.406.75 0 1.469-.624 1.469-1.734m0-7.5v-1.016H1.11v1.016Zm0 0"/><path id="aP" d="M5.063 0v-5.312h-.907v3.421c0 .907-.625 1.36-1.406 1.36-.844 0-.922-.313-.922-.844v-3.937H.922v3.984c0 .86.265 1.453 1.25 1.453.344 0 1.281-.062 2.015-.719V0Zm0 0"/><path id="aQ" d="M8.328 0v-3.594c0-.828-.219-1.828-1.61-1.828-1.015 0-1.577.703-1.765.969-.203-.766-.86-.969-1.484-.969-.985 0-1.5.625-1.703.875v-.812H.922V0h.906v-2.969c0-.797.313-1.734 1.188-1.734 1.093 0 1.156.75 1.156 1.187V0h.906v-2.969c0-.797.313-1.734 1.188-1.734 1.093 0 1.156.75 1.156 1.187V0Zm0 0"/><path id="aR" d="M4.86-2.687c0-.516-.048-1.25-.423-1.876-.5-.828-1.328-.921-1.671-.921C1.469-5.484.39-4.25.39-2.687.39-1.141 1.5.078 2.844.124c-.531.344-.875.828-.828 1.39 0 .516.375 1.016 1.172 1.016.39 0 .703-.062 1.171-.297l-.156-.703c-.266.11-.547.172-.812.172-.328-.031-.625-.094-.625-.453-.016-.531.5-.969 1.047-1.281.328-.094.64-.25.984-.485 0-.046-.047-.437-.047-.437s-.031-.281-.031-.328c-.703.593-1.407.687-1.766.687-.922 0-1.703-.828-1.734-2.093Zm-.704-.641h-2.86c.204-.813.767-1.438 1.47-1.438.359 0 1.187.157 1.39 1.438m0 0"/><path id="aS" d="m3.89-.344-.171-.703c-.422.375-.86.422-1.078.422-.532 0-.594-.562-.594-.984v-3h1.64v-.703h-1.64v-1.516h-.828v1.516h-1v.703h.969v3.203c0 .703.156 1.531.984 1.531.797 0 1.36-.281 1.719-.469m0 0"/><path id="aT" d="M2.11 0v-.969h-.97V0Zm0 0"/><path id="aU" d="M7.094 0v-8.297h-.907V-.89h-.015l-.969-2-2.64-5.406h-1.47V0h.923v-7.406l.968 2L5.625 0Zm0 0"/><path id="aV" d="M4.703 0v-.734H2.984c-.14 0-.28.015-.421.015H1.547l3.11-4.125v-.468H.483v.703h2.953L.329-.484V0Zm0 0"/><path id="aW" d="M5.563-2.672c0-1.469-.782-2.75-1.891-2.75-.344 0-1.11.063-1.86.672v-3.547H.939V0h.906v-.531c.547.515 1.125.656 1.547.656 1.14 0 2.172-1.172 2.172-2.797m-.907 0c0 1.563-.968 2.078-1.703 2.078-.328 0-.562-.125-.781-.297-.281-.25-.328-.453-.328-.656V-4.03c.218-.328.64-.672 1.234-.672.719 0 1.578.547 1.578 2.031m0 0"/><path id="aX" d="M4.203-1.516c0-.609-.36-1-.406-1.046-.453-.47-.813-.532-1.531-.672-.438-.094-1.047-.203-1.047-.813 0-.734.843-.734 1-.734.625 0 1.125.14 1.656.437l.14-.765a3.9 3.9 0 0 0-1.687-.375c-.265 0-1.937 0-1.937 1.547 0 .53.297.89.468 1.062.438.36.735.422 1.438.563.39.093 1.078.234 1.078.859 0 .828-.922.828-1.094.828A3.12 3.12 0 0 1 .47-1.219l-.14.813c.046.031.859.531 1.968.531 1.547 0 1.906-.937 1.906-1.64m-.312-6.78h-.922l-1.547 2h.719Zm0 0"/><path id="aY" d="M5.063 0v-3.594c0-.734-.157-1.828-1.594-1.828-.828 0-1.375.469-1.656.813v-3.688H.922V0h.906v-2.969c0-.75.281-1.734 1.188-1.734 1.109 0 1.14.766 1.14 1.187V0Zm0 0"/><path id="aZ" d="M5.469 0 3.25-3.266l1.969-2.046h-1.11L1.813-2.906v-5.39H.938V0h.828v-1.719l.906-.953L4.5 0Zm0 0"/><path id="ba" d="M11.688-2.922v-.719H0v.72Zm0 0"/><path id="bf" d="M7.11-2.25c0-1.047-1.032-1.89-2.266-2.094 1.39-.375 1.937-1.172 1.937-1.875 0-1.078-1.218-2.078-2.906-2.078H1.109V0h3.094C5.875 0 7.11-1.078 7.11-2.25M5.86-6.203c0 .844-1.032 1.531-2.298 1.531H2.079v-2.953h1.469c1.281 0 2.312.625 2.312 1.422m.312 3.937c0 .844-.969 1.594-2.313 1.594H2.08v-3.281h1.593c1.547 0 2.5.86 2.5 1.687m0 0"/><path id="bi" d="m5.219 2.234-.157-.703c-.265.11-.546.172-.812.172-.328-.031-.61-.094-.625-.453C3.609.719 4.109.313 4.656 0h.14v-3.5c0-1.156-.827-1.984-1.937-1.984-.718 0-1.25.172-1.843.5l.078.78c.515-.374 1.062-.593 1.765-.593.547 0 1.032.453 1.032 1.313v.5c-.547.015-1.266.062-1.985.297C1.11-2.422.641-1.97.641-1.375c0 .531.312 1.5 1.328 1.5.656 0 1.5-.203 1.937-.562V0c-.594.328-1.078.906-1.031 1.516 0 .515.375 1.015 1.172 1.015.406 0 .703-.062 1.172-.297M3.89-1.609c0 .25 0 .53-.407.765-.312.203-.718.25-.906.25-.64 0-1.078-.343-1.078-.797 0-.812 1.656-.984 2.39-.984Zm0 0"/><path id="bj" d="M7.406 0 4.391-8.297H3.328L.328 0h.875l.875-2.422h3.375L6.328 0ZM5.203-3.094h-2.86l1.423-4.344Zm0 0"/><path id="bk" d="M7.203 0 4.86-3.89c1.313-.376 2.016-1.282 2.016-2.172 0-1.188-1.281-2.235-2.969-2.235H1.094V0h1v-3.797h1.86L6.171 0ZM5.922-6.062c0 .75-.64 1.562-2.14 1.562H2.093v-3.125H3.78c1.438 0 2.14.766 2.14 1.563m0 0"/><path id="bl" d="M2.11-4.344v-.968h-.97v.968Zm0 4.328v-.953h-.97V0h.298L1.14 1.5h.468Zm0 0"/><path id="bm" d="m6.875-.531-.078-.844c-.313.234-.672.484-1.063.61-.375.124-.78.14-1.187.14-.766 0-1.469-.422-1.938-1.031-.546-.703-.796-1.594-.796-2.485 0-.906.25-1.796.796-2.5.47-.609 1.172-1.03 1.938-1.03.36 0 .719.03 1.062.14.344.125.672.297.97.515l.171-1a5.6 5.6 0 0 0-1.078-.312 5.6 5.6 0 0 0-1.125-.094c-1.031 0-1.984.469-2.656 1.25C1.14-6.344.78-5.266.78-4.14c0 1.094.36 2.188 1.11 3.016.672.766 1.625 1.25 2.656 1.25.406 0 .812-.016 1.219-.125.406-.125.765-.328 1.109-.531m0 0"/><path id="bc" d="M4.344-5.125H2.25c-.312 0-.406-.016-.687-.031-.422-.047-.438-.094-.454-.235H.844L.563-3.687h.265c.016-.11.094-.641.219-.72.062-.046.719-.046.828-.046h1.75l-.844 1.047C1.75-2.031 1.656-.766 1.656-.296c0 .093 0 .452.375.452s.375-.36.375-.453v-.328c0-1.547.313-2.25.656-2.687l1.204-1.5c.078-.094.078-.11.078-.313m0 0"/><path id="br" d="M4.563 0v-.437H3.266v-5.157c0-.187 0-.297-.266-.297-.11 0-.125 0-.203.063-.688.516-1.656.516-1.828.516H.797v.437h.172a4.2 4.2 0 0 0 1.203-.172v4.61H.89V0c.343-.031 1.422-.031 1.828-.031.422 0 1.484 0 1.844.031m0 0"/><path id="bs" d="M4.86-2.953c0-.469-.032-1.39-.485-2.094-.297-.437-.828-.844-1.719-.844-1.281 0-2.218.72-2.218 1.938 0 1.125.765 1.937 2.093 1.937.406 0 .781-.203 1.063-.687v.172c0 .578-.063 1.156-.235 1.531-.109.234-.468.703-1.171.703-.079 0-.454 0-.735-.187a.55.55 0 0 0 .422-.563c0-.375-.281-.578-.578-.578-.25 0-.594.14-.594.594 0 .61.469 1.14 1.5 1.14 1.25 0 2.656-.796 2.656-3.062m-1.266-.89c0 .406-.172 1.452-1.031 1.452-.86 0-.86-.656-.86-1.53 0-.876 0-1.61.984-1.61.563 0 .766.515.797.593.11.297.11.782.11 1.094m0 0"/><path id="bt" d="M4.766-2.016h-.453c-.016.125-.094.766-.235.829-.11.046-.781.046-.937.046H1.859c.485-.39 1.016-.812 1.47-1.125.75-.53 1.437-1.015 1.437-1.89 0-1.047-.953-1.735-2.25-1.735-1.11 0-1.985.532-1.985 1.36 0 .468.36.687.672.687a.65.65 0 0 0 .656-.672c0-.203-.078-.53-.468-.64.312-.25.718-.282.89-.282.735 0 1.203.547 1.203 1.282 0 .656-.375 1.234-.859 1.718l-2 1.985c-.094.094-.094.11-.094.281V0H4.5Zm0 0"/><path id="bu" d="M3.797-4.484H1.969c-.282 0-.36-.016-.61-.032C1-4.546.984-4.594.97-4.703H.734L.484-3.22H.72c.015-.11.094-.562.203-.64.047-.032.625-.032.719-.032h1.515l-.719.922c-.906 1.188-1 2.297-1 2.703 0 .079 0 .407.329.407.343 0 .343-.313.343-.407v-.28c0-1.345.282-1.97.579-2.345l1.046-1.312c.063-.094.063-.11.063-.281m0 0"/><path id="bv" d="M2.016 1.734v-.328h-.72V-4.89h.72v-.328H.953v6.953Zm0 0"/><path id="bw" d="M3.688-1.14v-.25h-.782V-4.5c0-.14 0-.203-.14-.203-.094 0-.125 0-.188.11L.266-1.392v.25h2.062v.563c0 .25 0 .328-.578.328h-.187V0l1.046-.031L3.672 0v-.25h-.188c-.578 0-.578-.078-.578-.328v-.563Zm-1.313-.25H.531l1.844-2.548Zm0 0"/><path id="bx" d="M3.578-2.297c0-1.719-.765-2.328-1.578-2.328a1.55 1.55 0 0 0-1.11.422c-.234.234-.515.5-.515 1.125 0 .89.703 1.547 1.516 1.547.562 0 .859-.375 1.015-.688v.14c0 1.735-.844 2-1.265 2-.157 0-.532-.015-.72-.233a.315.315 0 0 0 .313-.329.32.32 0 0 0-.328-.328c-.203 0-.328.14-.328.344 0 .469.39.766 1.063.766 1 0 1.937-.938 1.937-2.438M2.891-3c0 .906-.516 1.266-.953 1.266-.282 0-.532-.079-.735-.407-.156-.25-.156-.546-.156-.937 0-.406 0-.672.203-.953.172-.25.39-.39.75-.39s.578.218.688.405c.187.282.203.782.203 1.016m0 0"/><path id="by" d="M1.297 1.734v-6.953H.219v.328h.734v6.297H.22v.328Zm0 0"/><path id="bz" d="M7.813-1.75v-.203H.109v.203Zm0 0"/><path id="bA" d="M3.516-1.266H3.28c-.015.157-.094.563-.187.625-.047.047-.578.047-.688.047H1.125c.734-.64.984-.843 1.39-1.172.516-.406 1-.843 1-1.5 0-.843-.734-1.359-1.624-1.359-.86 0-1.453.61-1.453 1.25 0 .344.296.39.375.39.156 0 .359-.124.359-.374 0-.125-.047-.375-.406-.375.218-.485.687-.641 1.015-.641.703 0 1.063.547 1.063 1.11 0 .609-.438 1.078-.656 1.328L.516-.266C.437-.203.437-.187.437 0h2.876Zm0 0"/><path id="bB" d="M2.516 0v-.25h-.172c-.578 0-.578-.078-.578-.328v-3.61c0-.234 0-.328.578-.328h.172v-.25l-1.078.032-1.079-.032v.25h.172c.578 0 .578.094.578.329v3.609c0 .25 0 .328-.578.328H.36V0l1.079-.031Zm0 0"/><path id="bC" d="M3.594-2.219c0-.765-.094-1.328-.406-1.812-.22-.313-.657-.594-1.204-.594C.36-4.625.36-2.719.36-2.219s0 2.36 1.625 2.36c1.61 0 1.61-1.86 1.61-2.36m-.625-.094c0 .516 0 1.032-.094 1.47-.14.64-.61.78-.89.78-.329 0-.75-.187-.891-.75C1-1.219 1-1.796 1-2.312c0-.515 0-1.046.094-1.421.156-.547.593-.703.89-.703.375 0 .735.234.86.64.11.375.125.875.125 1.485m0 0"/><path id="bD" d="M3.578-1.422c0-.89-.703-1.547-1.515-1.547-.563 0-.86.375-1.016.688 0-.563.047-1.078.312-1.516.235-.375.61-.625 1.063-.625.203 0 .484.047.625.234-.172.016-.328.141-.328.344a.32.32 0 0 0 .328.328c.219 0 .344-.14.344-.343 0-.407-.297-.766-.985-.766-1 0-2.031.922-2.031 2.422C.375-.406 1.219.14 2 .14c.844 0 1.578-.657 1.578-1.563m-.672 0c0 .39 0 .688-.187.969A.82.82 0 0 1 2-.078c-.36 0-.625-.203-.781-.516-.094-.203-.157-.562-.157-.968 0-.688.407-1.204.97-1.204.312 0 .53.125.702.375.172.266.172.563.172.97m0 0"/><path id="bE" d="M5.547 0v-.25h-.125c-.469 0-.516-.078-.594-.266L3.125-4.812c-.031-.11-.062-.157-.187-.157-.141 0-.157.047-.204.157L1.125-.734C1.063-.562.938-.25.313-.25V0c.234-.016.484-.031.718-.031.282 0 .797.031.844.031v-.25c-.312 0-.516-.14-.516-.328 0-.063.016-.078.047-.14l.328-.86H3.72l.406 1.016c0 .03.031.078.031.109 0 .203-.375.203-.562.203V0l1.031-.031c.328 0 .86.031.922.031M3.609-1.828H1.83l.89-2.266Zm0 0"/><path id="bF" d="M4.047 0v-.25c-.469 0-.516-.047-.516-.39v-4.204l-1.047.078v.25c.47 0 .516.063.516.391v1.453a1.37 1.37 0 0 0-.969-.406c-.937 0-1.703.703-1.703 1.578S1.062.063 1.938.063c.578 0 .921-.297 1.03-.422v.422ZM2.969-.734c-.172.328-.531.609-.985.609-.39 0-.671-.234-.812-.437-.14-.204-.219-.485-.219-.922 0-.172 0-.688.281-1.016.282-.312.625-.375.829-.375.328 0 .64.156.828.406.078.11.078.11.078.25Zm0 0"/><path id="bG" d="M5.469-2.75V-3c-.188.016-.313.031-.5.031-.219 0-.485-.015-.688-.031v.25c.235 0 .36.14.36.297 0 .062 0 .078-.047.172L3.922-.547l-.75-1.906a.3.3 0 0 1-.031-.125c0-.156.172-.172.375-.172V-3c-.25.016-.5.031-.75.031-.203 0-.422-.015-.625-.031v.25c.172 0 .312 0 .406.047.094.078.156.312.156.312s-.015.063-.031.079L2.016-.641l-.703-1.812c-.032-.094-.032-.094-.032-.125 0-.172.25-.172.375-.172V-3s-.515.031-.797.031C.641-2.969.422-2.984.203-3v.25c.281 0 .438 0 .5.203l.969 2.453c.047.11.062.157.203.157.125 0 .14-.047.172-.141l.797-1.984.765 1.968c.047.094.063.157.204.157.124 0 .14-.047.187-.157l.875-2.234c.14-.344.375-.422.594-.422m0 0"/><path id="bH" d="M3.266-.844c0-.015-.016-.094-.125-.094-.094 0-.11.047-.125.11-.22.562-.75.672-1 .672-.328 0-.641-.14-.844-.406-.266-.329-.266-.75-.266-1.032h2.157c.156 0 .203 0 .203-.14 0-.625-.344-1.375-1.391-1.375a1.59 1.59 0 0 0-1.61 1.578c0 .89.782 1.594 1.704 1.594.937 0 1.297-.75 1.297-.907m-.485-.922H.906c.078-.984.703-1.14.969-1.14.86 0 .89.969.906 1.14m0 0"/><path id="bI" d="M4.11 0v-.25c-.454 0-.516 0-.516-.297v-1.562c0-.61-.297-.97-1.047-.97-.578 0-.938.313-1.14.688v-.687L.374-3v.25c.469 0 .531.047.531.39v1.813c0 .297-.078.297-.531.297V0s.5-.031.797-.031c.25 0 .734.031.797.031v-.25c-.453 0-.516 0-.516-.297v-1.265c0-.72.578-1.063 1.031-1.063.485 0 .547.375.547.734v1.594c0 .297-.062.297-.515.297V0s.5-.031.797-.031c.25 0 .734.031.796.031m0 0"/><path id="bJ" d="M2.61-.875v-.39h-.235v.374c0 .485-.219.735-.5.735-.469 0-.469-.578-.469-.703V-2.75h1.078V-3H1.406v-1.281h-.25c0 .625-.281 1.312-.953 1.328v.203h.64v1.875c0 .781.595.938.985.938.469 0 .781-.391.781-.938m0 0"/><path id="bK" d="M3.516-1.406c0-.782-.594-1.5-1.453-1.5-.313 0-.672.062-.985.328v-1.313c.36.094.563.094.672.094.922 0 1.469-.625 1.469-.734 0-.078-.047-.094-.078-.094 0 0-.032 0-.063.016-.172.062-.531.203-1.047.203-.203 0-.562-.016-1.015-.188-.079-.031-.094-.031-.094-.031-.094 0-.094.078-.094.188v2.046c0 .125 0 .204.11.204.062 0 .078 0 .14-.094.297-.375.734-.438.969-.438.422 0 .61.328.64.39.126.235.172.5.172.907 0 .203 0 .61-.218.922a.98.98 0 0 1-.813.422c-.453 0-.922-.25-1.094-.719.266.016.407-.156.407-.344 0-.296-.266-.343-.36-.343 0 0-.343 0-.343.375 0 .625.578 1.25 1.406 1.25.89 0 1.672-.657 1.672-1.547m0 0"/><clipPath id="b"><path d="M.535.266h6.883v9.636H.535Zm0 0"/></clipPath><clipPath id="a"><path d="M0 0h8v10H0z"/></clipPath><clipPath id="bn"><path d="M15.023 568.348H403v11.336H15.023Zm0 0"/></clipPath><linearGradient id="bo" x1="0" x2="388.063" y1="0" y2="0" gradientTransform="matrix(1 0 0 -1 15.024 579.685)" gradientUnits="userSpaceOnUse"><stop offset="0" stop-color="#f2f2f2"/><stop offset=".25" stop-color="#f2f2f2"/><stop offset=".313" stop-color="#f2f2f2"/><stop offset=".344" stop-color="#f2f2f2"/><stop offset=".359" stop-color="#f3f3f3"/><stop offset=".363" stop-color="#f4f4f4"/><stop offset=".367" stop-color="#f5f5f5"/><stop offset=".371" stop-color="#f6f6f6"/><stop offset=".375" stop-color="#f7f7f7"/><stop offset=".379" stop-color="#f8f8f8"/><stop offset=".383" stop-color="#f9f9f9"/><stop offset=".387" stop-color="#fafafa"/><stop offset=".391" stop-color="#fbfbfb"/><stop offset=".395" stop-color="#fcfcfc"/><stop offset=".398" stop-color="#fcfcfc"/><stop offset=".406" stop-color="#fcfcfc"/><stop offset=".438" stop-color="#fcfcfc"/><stop offset=".5" stop-color="#fcfcfc"/><stop offset=".563" stop-color="#fcfcfc"/><stop offset=".566" stop-color="#fcfcfc"/><stop offset=".57" stop-color="#fbfbfb"/><stop offset=".574" stop-color="#fafafa"/><stop offset=".578" stop-color="#f9f9f9"/><stop offset=".582" stop-color="#f8f8f8"/><stop offset=".586" stop-color="#f7f7f7"/><stop offset=".59" stop-color="#f6f6f6"/><stop offset=".594" stop-color="#f5f5f5"/><stop offset=".598" stop-color="#f4f4f4"/><stop offset=".602" stop-color="#f3f3f3"/><stop offset=".609" stop-color="#f3f3f3"/><stop offset=".625" stop-color="#f2f2f2"/><stop offset=".75" stop-color="#f2f2f2"/><stop offset="1" stop-color="#f2f2f2"/></linearGradient><g id="c" clip-path="url(#a)"><g clip-path="url(#b)"><path fill-rule="evenodd" d="m3.977 7.836 3.441 2.066V1.645c0-.762-.617-1.38-1.375-1.38H1.914C1.152.266.535.884.535 1.646v8.257Zm-2.754.851 2.754-1.652L6.73 8.687V1.646a.69.69 0 0 0-.687-.692H1.914a.69.69 0 0 0-.691.692Zm0 0"/></g></g></defs><use xlink:href="#c" transform="translate(9 27)"/><use xlink:href="#d" x="17.008" y="23.315"/><use xlink:href="#e" x="20.884" y="23.315"/><use xlink:href="#f" x="29.561" y="23.315"/><use xlink:href="#g" x="384.039" y="23.315"/><use xlink:href="#h" x="390.168" y="23.315"/><use xlink:href="#i" x="392.79" y="23.315"/><use xlink:href="#j" x="396.727" y="23.315"/><use xlink:href="#k" x="101.102" y="34.908"/><use xlink:href="#l" x="110.236" y="34.908"/><use xlink:href="#m" x="113.296" y="34.908"/><use xlink:href="#n" x="119.405" y="34.908"/><use xlink:href="#o" x="126.112" y="34.908"/><use xlink:href="#p" x="136.477" y="34.908"/><use xlink:href="#q" x="144.511" y="34.908"/><use xlink:href="#r" x="150.787" y="34.908"/><use xlink:href="#s" x="161.881" y="34.908"/><use xlink:href="#t" x="166.926" y="34.908"/><use xlink:href="#u" x="173.262" y="34.908"/><use xlink:href="#q" x="177.71" y="34.908"/><use xlink:href="#v" x="183.615" y="34.908"/><use xlink:href="#l" x="192.51" y="34.908"/><use xlink:href="#w" x="195.57" y="34.908"/><use xlink:href="#x" x="200.125" y="34.908"/><use xlink:href="#y" x="208.171" y="34.908"/><use xlink:href="#m" x="213.862" y="34.908"/><use xlink:href="#t" x="224.358" y="34.908"/><use xlink:href="#z" x="231.435" y="34.908"/><use xlink:href="#v" x="237.64" y="34.908"/><use xlink:href="#u" x="246.535" y="34.908"/><use xlink:href="#A" x="250.982" y="34.908"/><use xlink:href="#B" x="257.928" y="34.908"/><use xlink:href="#l" x="263.774" y="34.908"/><use xlink:href="#C" x="266.834" y="34.908"/><use xlink:href="#l" x="269.895" y="34.908"/><use xlink:href="#D" x="281.924" y="34.908"/><use xlink:href="#E" x="285.51" y="34.908"/><use xlink:href="#F" x="291.401" y="34.908"/><use xlink:href="#G" x="296.27" y="34.908"/><use xlink:href="#H" x="300.878" y="34.908"/><use xlink:href="#I" x="305.487" y="34.908"/><use xlink:href="#J" x="310.095" y="34.908"/><path fill="none" stroke="#000" stroke-miterlimit="10" stroke-width=".398" d="M17.008 39.293h384.094"/><use xlink:href="#K" x="399.042" y="129.84"/><use xlink:href="#L" x="399.042" y="123.257"/><use xlink:href="#M" x="399.042" y="118.554"/><use xlink:href="#N" x="399.042" y="114.322"/><use xlink:href="#O" x="399.042" y="109.62"/><use xlink:href="#P" x="399.042" y="104.918"/><use xlink:href="#Q" x="399.042" y="97.864"/><use xlink:href="#R" x="399.042" y="95.513"/><use xlink:href="#S" x="399.042" y="90.341"/><use xlink:href="#Q" x="399.042" y="85.638"/><use xlink:href="#T" x="399.042" y="83.287"/><use xlink:href="#N" x="399.042" y="79.055"/><use xlink:href="#P" x="399.042" y="74.353"/><use xlink:href="#U" x="399.042" y="70.121"/><use xlink:href="#V" x="399.042" y="66.821"/><use xlink:href="#W" x="399.042" y="60.238"/><use xlink:href="#X" x="399.042" y="55.536"/><use xlink:href="#Y" x="399.042" y="53.184"/><use xlink:href="#Z" x="399.042" y="48.952"/><use xlink:href="#Y" x="399.042" y="44.72"/><use xlink:href="#aa" x="403.164" y="40.487"/><use xlink:href="#ab" x="403.164" y="46.6"/><use xlink:href="#ac" x="403.164" y="51.302"/><use xlink:href="#ad" x="403.164" y="55.534"/><use xlink:href="#ae" x="403.164" y="60.237"/><use xlink:href="#af" x="403.164" y="64.939"/><use xlink:href="#ag" x="403.164" y="71.984"/><use xlink:href="#ah" x="403.164" y="75.746"/><use xlink:href="#ai" x="403.164" y="80.919"/><use xlink:href="#ag" x="403.164" y="85.621"/><use xlink:href="#aj" x="403.164" y="89.383"/><use xlink:href="#af" x="403.164" y="94.085"/><use xlink:href="#ak" x="403.164" y="98.317"/><use xlink:href="#al" x="403.164" y="104.438"/><use xlink:href="#am" x="403.164" y="109.141"/><use xlink:href="#an" x="403.164" y="111.492"/><use xlink:href="#ao" x="403.164" y="115.724"/><use xlink:href="#ap" x="48.144" y="61.174"/><use xlink:href="#aq" x="64.654" y="51.089" fill="red"/><use xlink:href="#ar" x="64.654" y="61.174"/><use xlink:href="#as" x="72.712" y="61.174"/><use xlink:href="#at" x="75.461" y="61.174"/><use xlink:href="#au" x="80.662" y="61.174"/><use xlink:href="#av" x="86.663" y="61.174"/><use xlink:href="#aw" x="95.916" y="61.174"/><use xlink:href="#ax" x="103.042" y="61.174"/><use xlink:href="#ay" x="108.648" y="61.174"/><use xlink:href="#az" x="118.547" y="61.174"/><use xlink:href="#aA" x="123.03" y="61.174"/><use xlink:href="#aB" x="128.709" y="61.174"/><use xlink:href="#ax" x="132.69" y="61.174"/><use xlink:href="#aC" x="137.974" y="61.174"/><use xlink:href="#as" x="145.936" y="61.174"/><use xlink:href="#aD" x="148.686" y="61.174"/><use xlink:href="#aE" x="152.44" y="61.174"/><use xlink:href="#aF" x="64.654" y="82.818"/><use xlink:href="#at" x="69.735" y="82.818"/><use xlink:href="#aA" x="78.833" y="82.818"/><use xlink:href="#aG" x="85.157" y="82.818"/><use xlink:href="#aC" x="90.692" y="82.818"/><use xlink:href="#aB" x="98.654" y="82.818"/><use xlink:href="#aH" x="102.635" y="82.818"/><use xlink:href="#aI" x="108.494" y="72.733" fill="red"/><use xlink:href="#aJ" x="108.494" y="82.818"/><use xlink:href="#as" x="113.694" y="82.818"/><use xlink:href="#aK" x="116.444" y="82.818"/><use xlink:href="#as" x="119.194" y="82.818"/><use xlink:href="#aC" x="64.654" y="104.462"/><use xlink:href="#av" x="72.616" y="104.462"/><use xlink:href="#aL" x="77.972" y="104.462"/><use xlink:href="#aq" x="83.831" y="94.376" fill="red"/><use xlink:href="#ay" x="83.831" y="104.462"/><use xlink:href="#ax" x="89.832" y="104.462"/><use xlink:href="#aM" x="95.439" y="104.462"/><use xlink:href="#aJ" x="101.441" y="104.462"/><use xlink:href="#av" x="106.641" y="104.462"/><use xlink:href="#aN" x="64.654" y="126.105"/><use xlink:href="#av" x="71.158" y="126.105"/><use xlink:href="#aI" x="76.514" y="116.02" fill="red"/><use xlink:href="#aO" x="76.514" y="126.105"/><use xlink:href="#aG" x="79.598" y="126.105"/><use xlink:href="#ay" x="85.456" y="126.105"/><use xlink:href="#aP" x="91.458" y="126.105"/><use xlink:href="#aE" x="97.459" y="126.105"/><use xlink:href="#aC" x="64.654" y="147.749"/><use xlink:href="#av" x="72.616" y="147.749"/><use xlink:href="#au" x="77.972" y="147.749"/><use xlink:href="#ax" x="83.973" y="147.749"/><use xlink:href="#aC" x="89.257" y="147.749"/><use xlink:href="#ax" x="96.897" y="147.749"/><use xlink:href="#aD" x="102.504" y="147.749"/><use xlink:href="#aG" x="105.935" y="147.749"/><use xlink:href="#ay" x="115.69" y="147.749"/><use xlink:href="#ax" x="121.691" y="147.749"/><use xlink:href="#aQ" x="127.298" y="147.749"/><use xlink:href="#az" x="140.449" y="147.749"/><use xlink:href="#as" x="144.932" y="147.749"/><use xlink:href="#aR" x="147.681" y="147.749"/><use xlink:href="#aS" x="156.779" y="147.749"/><use xlink:href="#aG" x="161.011" y="147.749"/><use xlink:href="#aq" x="170.769" y="137.664" fill="red"/><use xlink:href="#az" x="170.769" y="147.749"/><use xlink:href="#ay" x="175.252" y="147.749"/><use xlink:href="#at" x="181.254" y="147.749"/><use xlink:href="#aQ" x="186.454" y="147.749"/><use xlink:href="#aT" x="195.707" y="147.749"/><use xlink:href="#aU" x="64.654" y="169.393"/><use xlink:href="#ax" x="72.855" y="169.393"/><use xlink:href="#az" x="78.462" y="169.393"/><use xlink:href="#aV" x="82.945" y="169.393"/><use xlink:href="#at" x="88.026" y="169.393"/><use xlink:href="#aI" x="97.125" y="159.307" fill="red"/><use xlink:href="#aP" x="97.125" y="169.393"/><use xlink:href="#az" x="103.126" y="169.393"/><use xlink:href="#aS" x="107.61" y="169.393"/><use xlink:href="#ax" x="111.842" y="169.393"/><use xlink:href="#aW" x="64.654" y="191.036"/><use xlink:href="#av" x="70.333" y="191.036"/><use xlink:href="#aD" x="75.688" y="191.036"/><use xlink:href="#av" x="79.442" y="191.036"/><use xlink:href="#aA" x="88.696" y="191.036"/><use xlink:href="#at" x="95.02" y="191.036"/><use xlink:href="#aD" x="100.22" y="191.036"/><use xlink:href="#ay" x="103.974" y="191.036"/><use xlink:href="#at" x="109.975" y="191.036"/><use xlink:href="#aq" x="119.074" y="180.951" fill="red"/><use xlink:href="#aX" x="119.074" y="191.036"/><use xlink:href="#aQ" x="123.557" y="191.036"/><use xlink:href="#as" x="132.81" y="191.036"/><use xlink:href="#at" x="135.56" y="191.036"/><use xlink:href="#aJ" x="140.76" y="191.036"/><use xlink:href="#aY" x="145.961" y="191.036"/><use xlink:href="#aP" x="151.962" y="191.036"/><use xlink:href="#aE" x="157.964" y="191.036"/><use xlink:href="#ax" x="64.654" y="212.68"/><use xlink:href="#aI" x="74.159" y="202.595" fill="red"/><use xlink:href="#aO" x="74.159" y="212.68"/><use xlink:href="#aR" x="77.243" y="212.68"/><use xlink:href="#aV" x="82.444" y="212.68"/><use xlink:href="#av" x="87.525" y="212.68"/><use xlink:href="#aZ" x="92.881" y="212.68"/><use xlink:href="#ba" x="64.654" y="234.324"/><use xlink:href="#aA" x="80.255" y="234.324"/><use xlink:href="#at" x="86.579" y="234.324"/><use xlink:href="#aD" x="91.78" y="234.324"/><use xlink:href="#at" x="95.211" y="234.324"/><use xlink:href="#ay" x="100.411" y="234.324"/><use xlink:href="#aq" x="110.311" y="224.238" fill="red"/><use xlink:href="#aA" x="110.311" y="234.324"/><use xlink:href="#as" x="116.312" y="234.324"/><use xlink:href="#at" x="119.062" y="234.324"/><use xlink:href="#aX" x="124.262" y="234.324"/><use xlink:href="#ay" x="128.746" y="234.324"/><use xlink:href="#as" x="134.747" y="234.324"/><use xlink:href="#aT" x="137.497" y="234.324"/><g fill="red"><use xlink:href="#bb" x="140.749" y="224.238"/><use xlink:href="#aq" x="145.399" y="224.238"/></g><use xlink:href="#bc" x="155.813" y="219.899" fill="red"/><use xlink:href="#bd" x="159.024" y="224.238" fill="red"/><use xlink:href="#be" x="44.785" y="261.945"/><use xlink:href="#bf" x="64.654" y="261.945"/><use xlink:href="#aG" x="72.425" y="261.945"/><use xlink:href="#aL" x="82.18" y="261.945"/><use xlink:href="#au" x="88.038" y="261.945"/><use xlink:href="#av" x="94.039" y="261.945"/><use xlink:href="#az" x="103.293" y="261.945"/><use xlink:href="#as" x="107.776" y="261.945"/><use xlink:href="#aR" x="110.525" y="261.945"/><use xlink:href="#aC" x="119.623" y="261.945"/><use xlink:href="#av" x="127.585" y="261.945"/><use xlink:href="#bg" x="132.942" y="251.859" fill="red"/><use xlink:href="#aB" x="132.942" y="261.945"/><use xlink:href="#aP" x="136.923" y="261.945"/><use xlink:href="#az" x="142.924" y="261.945"/><use xlink:href="#aV" x="147.408" y="261.945"/><use xlink:href="#ax" x="152.488" y="261.945"/><use xlink:href="#aE" x="158.095" y="261.945"/><use xlink:href="#as" x="64.654" y="283.588"/><use xlink:href="#au" x="67.404" y="283.588"/><use xlink:href="#aV" x="73.405" y="283.588"/><use xlink:href="#as" x="78.486" y="283.588"/><use xlink:href="#at" x="81.236" y="283.588"/><use xlink:href="#az" x="90.333" y="283.588"/><use xlink:href="#as" x="94.816" y="283.588"/><use xlink:href="#aR" x="97.566" y="283.588"/><use xlink:href="#bh" x="106.665" y="273.503" fill="red"/><use xlink:href="#aV" x="106.665" y="283.588"/><use xlink:href="#aA" x="115.643" y="283.588"/><use xlink:href="#aD" x="121.645" y="283.588"/><use xlink:href="#ax" x="125.076" y="283.588"/><use xlink:href="#aJ" x="130.683" y="283.588"/><use xlink:href="#aV" x="135.883" y="283.588"/><use xlink:href="#at" x="140.964" y="283.588"/><use xlink:href="#aQ" x="146.164" y="283.588"/><use xlink:href="#aq" x="155.418" y="273.503" fill="red"/><use xlink:href="#aE" x="155.418" y="283.588"/><use xlink:href="#aB" x="64.654" y="305.232"/><use xlink:href="#aV" x="68.635" y="305.232"/><use xlink:href="#aP" x="73.716" y="305.232"/><use xlink:href="#aI" x="79.718" y="295.147" fill="red"/><use xlink:href="#aJ" x="79.718" y="305.232"/><use xlink:href="#ax" x="84.918" y="305.232"/><use xlink:href="#aO" x="90.525" y="305.232"/><use xlink:href="#bi" x="93.61" y="305.232"/><use xlink:href="#aJ" x="99.217" y="305.232"/><use xlink:href="#ay" x="64.654" y="326.876"/><use xlink:href="#ax" x="70.655" y="326.876"/><use xlink:href="#aq" x="76.263" y="316.79" fill="red"/><use xlink:href="#az" x="76.263" y="326.876"/><use xlink:href="#as" x="80.746" y="326.876"/><use xlink:href="#aG" x="83.496" y="326.876"/><use xlink:href="#ay" x="89.354" y="326.876"/><use xlink:href="#ax" x="95.355" y="326.876"/><use xlink:href="#aT" x="100.962" y="326.876"/><g fill="red"><use xlink:href="#bb" x="104.214" y="316.79"/><use xlink:href="#aq" x="108.864" y="316.79"/></g><use xlink:href="#bc" x="119.278" y="312.451" fill="red"/><use xlink:href="#bd" x="122.489" y="316.79" fill="red"/><use xlink:href="#bj" x="64.654" y="348.519"/><use xlink:href="#aL" x="76.286" y="348.519"/><use xlink:href="#au" x="82.144" y="348.519"/><use xlink:href="#av" x="88.146" y="348.519"/><use xlink:href="#az" x="97.399" y="348.519"/><use xlink:href="#as" x="101.882" y="348.519"/><use xlink:href="#aR" x="104.632" y="348.519"/><use xlink:href="#bg" x="113.73" y="338.434" fill="red"/><use xlink:href="#aC" x="113.73" y="348.519"/><use xlink:href="#aB" x="121.692" y="348.519"/><use xlink:href="#ax" x="125.673" y="348.519"/><use xlink:href="#aJ" x="131.28" y="348.519"/><use xlink:href="#ax" x="136.48" y="348.519"/><use xlink:href="#aE" x="142.087" y="348.519"/><use xlink:href="#aC" x="64.654" y="370.163"/><use xlink:href="#aB" x="72.616" y="370.163"/><use xlink:href="#ax" x="76.597" y="370.163"/><use xlink:href="#aJ" x="82.204" y="370.163"/><use xlink:href="#ax" x="87.404" y="370.163"/><use xlink:href="#az" x="96.909" y="370.163"/><use xlink:href="#as" x="101.392" y="370.163"/><use xlink:href="#aR" x="104.141" y="370.163"/><use xlink:href="#aV" x="113.239" y="370.163"/><use xlink:href="#at" x="118.32" y="370.163"/><use xlink:href="#bh" x="127.419" y="360.078" fill="red"/><use xlink:href="#aX" x="127.419" y="370.163"/><use xlink:href="#aA" x="131.902" y="370.163"/><use xlink:href="#as" x="137.904" y="370.163"/><use xlink:href="#at" x="140.653" y="370.163"/><use xlink:href="#aC" x="145.854" y="370.163"/><use xlink:href="#at" x="153.493" y="370.163"/><use xlink:href="#aq" x="158.694" y="360.078" fill="red"/><use xlink:href="#aQ" x="158.694" y="370.163"/><use xlink:href="#aE" x="167.947" y="370.163"/><use xlink:href="#aA" x="64.654" y="391.807"/><use xlink:href="#aB" x="70.333" y="391.807"/><use xlink:href="#aV" x="74.314" y="391.807"/><use xlink:href="#av" x="79.395" y="391.807"/><use xlink:href="#aI" x="84.751" y="381.721" fill="red"/><use xlink:href="#ay" x="84.751" y="391.807"/><use xlink:href="#aG" x="90.752" y="391.807"/><use xlink:href="#az" x="96.61" y="391.807"/><use xlink:href="#aV" x="101.093" y="391.807"/><use xlink:href="#bi" x="106.174" y="391.807"/><use xlink:href="#aJ" x="111.781" y="391.807"/><use xlink:href="#aA" x="64.654" y="413.45"/><use xlink:href="#at" x="70.978" y="413.45"/><use xlink:href="#aD" x="76.179" y="413.45"/><use xlink:href="#ay" x="79.933" y="413.45"/><use xlink:href="#at" x="85.934" y="413.45"/><use xlink:href="#aq" x="95.033" y="403.365" fill="red"/><use xlink:href="#az" x="95.033" y="413.45"/><use xlink:href="#ay" x="99.516" y="413.45"/><use xlink:href="#aG" x="105.518" y="413.45"/><use xlink:href="#aA" x="111.375" y="413.45"/><use xlink:href="#av" x="117.054" y="413.45"/><use xlink:href="#aT" x="121.43" y="413.45"/><use xlink:href="#ap" x="48.144" y="447.049"/><use xlink:href="#aq" x="64.654" y="436.964" fill="red"/><use xlink:href="#bk" x="64.654" y="447.049"/><use xlink:href="#aV" x="72.186" y="447.049"/><use xlink:href="#at" x="77.267" y="447.049"/><use xlink:href="#aJ" x="82.467" y="447.049"/><use xlink:href="#aV" x="87.667" y="447.049"/><use xlink:href="#av" x="92.748" y="447.049"/><use xlink:href="#aC" x="102.001" y="447.049"/><use xlink:href="#as" x="109.963" y="447.049"/><use xlink:href="#at" x="112.713" y="447.049"/><use xlink:href="#aK" x="117.914" y="447.049"/><use xlink:href="#aZ" x="120.663" y="447.049"/><use xlink:href="#as" x="126.342" y="447.049"/><use xlink:href="#aJ" x="129.091" y="447.049"/><use xlink:href="#aY" x="134.292" y="447.049"/><use xlink:href="#aB" x="64.654" y="468.693"/><use xlink:href="#aV" x="68.635" y="468.693"/><use xlink:href="#at" x="73.716" y="468.693"/><use xlink:href="#aJ" x="78.916" y="468.693"/><use xlink:href="#aV" x="84.117" y="468.693"/><use xlink:href="#av" x="89.198" y="468.693"/><use xlink:href="#aJ" x="98.451" y="468.693"/><use xlink:href="#aP" x="103.651" y="468.693"/><use xlink:href="#aI" x="109.654" y="458.607" fill="red"/><use xlink:href="#au" x="109.654" y="468.693"/><use xlink:href="#aG" x="115.655" y="468.693"/><use xlink:href="#aC" x="121.191" y="468.693"/><use xlink:href="#ay" x="129.153" y="468.693"/><use xlink:href="#av" x="135.154" y="468.693"/><use xlink:href="#aJ" x="140.51" y="468.693"/><use xlink:href="#aY" x="145.71" y="468.693"/><use xlink:href="#au" x="64.654" y="490.336"/><use xlink:href="#aG" x="70.655" y="490.336"/><use xlink:href="#aZ" x="76.513" y="490.336"/><use xlink:href="#aG" x="81.869" y="490.336"/><use xlink:href="#ay" x="87.727" y="490.336"/><use xlink:href="#ax" x="93.729" y="490.336"/><use xlink:href="#aD" x="99.335" y="490.336"/><use xlink:href="#au" x="106.987" y="490.336"/><use xlink:href="#aK" x="112.988" y="490.336"/><use xlink:href="#ax" x="115.738" y="490.336"/><use xlink:href="#ay" x="125.242" y="490.336"/><use xlink:href="#ax" x="131.243" y="490.336"/><use xlink:href="#az" x="136.85" y="490.336"/><use xlink:href="#aq" x="145.232" y="480.251" fill="red"/><use xlink:href="#aw" x="145.232" y="490.336"/><use xlink:href="#ax" x="152.357" y="490.336"/><use xlink:href="#ay" x="157.964" y="490.336"/><use xlink:href="#bl" x="163.965" y="490.336"/><use xlink:href="#au" x="64.654" y="511.98"/><use xlink:href="#aK" x="70.655" y="511.98"/><use xlink:href="#ax" x="73.405" y="511.98"/><use xlink:href="#aI" x="79.013" y="501.895" fill="red"/><use xlink:href="#aS" x="79.013" y="511.98"/><use xlink:href="#at" x="83.245" y="511.98"/><use xlink:href="#aL" x="88.445" y="511.98"/><use xlink:href="#aG" x="94.303" y="511.98"/><use xlink:href="#aS" x="64.654" y="533.624"/><use xlink:href="#aB" x="68.886" y="533.624"/><use xlink:href="#aC" x="72.867" y="533.624"/><use xlink:href="#ax" x="80.506" y="533.624"/><use xlink:href="#aQ" x="86.113" y="533.624"/><use xlink:href="#av" x="95.366" y="533.624"/><use xlink:href="#aC" x="104.62" y="533.624"/><use xlink:href="#aP" x="116.479" y="533.624"/><use xlink:href="#ay" x="122.48" y="533.624"/><use xlink:href="#as" x="128.482" y="533.624"/><use xlink:href="#at" x="131.231" y="533.624"/><use xlink:href="#aq" x="136.433" y="523.538" fill="red"/><use xlink:href="#az" x="136.433" y="533.624"/><use xlink:href="#as" x="140.916" y="533.624"/><use xlink:href="#at" x="143.666" y="533.624"/><use xlink:href="#ay" x="148.866" y="533.624"/><use xlink:href="#as" x="154.868" y="533.624"/><use xlink:href="#aP" x="157.617" y="533.624"/><use xlink:href="#aT" x="163.619" y="533.624"/><g fill="red"><use xlink:href="#bb" x="166.871" y="523.538"/><use xlink:href="#aq" x="171.521" y="523.538"/></g><use xlink:href="#bc" x="181.935" y="519.199" fill="red"/><use xlink:href="#bd" x="185.146" y="523.538" fill="red"/><use xlink:href="#be" x="226.736" y="61.174"/><use xlink:href="#bf" x="246.605" y="61.174"/><use xlink:href="#aG" x="254.376" y="61.174"/><use xlink:href="#aL" x="264.131" y="61.174"/><use xlink:href="#au" x="269.989" y="61.174"/><use xlink:href="#av" x="275.99" y="61.174"/><use xlink:href="#az" x="285.244" y="61.174"/><use xlink:href="#as" x="289.727" y="61.174"/><use xlink:href="#aR" x="292.476" y="61.174"/><use xlink:href="#aC" x="301.574" y="61.174"/><use xlink:href="#av" x="309.536" y="61.174"/><use xlink:href="#bg" x="314.893" y="51.089" fill="red"/><use xlink:href="#aB" x="314.893" y="61.174"/><use xlink:href="#aP" x="318.874" y="61.174"/><use xlink:href="#az" x="324.875" y="61.174"/><use xlink:href="#aV" x="329.359" y="61.174"/><use xlink:href="#ax" x="334.439" y="61.174"/><use xlink:href="#aE" x="340.046" y="61.174"/><use xlink:href="#as" x="246.605" y="82.818"/><use xlink:href="#au" x="249.355" y="82.818"/><use xlink:href="#aV" x="255.356" y="82.818"/><use xlink:href="#as" x="260.437" y="82.818"/><use xlink:href="#at" x="263.187" y="82.818"/><use xlink:href="#az" x="272.284" y="82.818"/><use xlink:href="#as" x="276.767" y="82.818"/><use xlink:href="#aR" x="279.517" y="82.818"/><use xlink:href="#bh" x="288.616" y="72.733" fill="red"/><use xlink:href="#aV" x="288.616" y="82.818"/><use xlink:href="#aA" x="297.594" y="82.818"/><use xlink:href="#aD" x="303.596" y="82.818"/><use xlink:href="#ax" x="307.027" y="82.818"/><use xlink:href="#aJ" x="312.634" y="82.818"/><use xlink:href="#aV" x="317.834" y="82.818"/><use xlink:href="#at" x="322.915" y="82.818"/><use xlink:href="#aQ" x="328.115" y="82.818"/><use xlink:href="#aq" x="337.369" y="72.733" fill="red"/><use xlink:href="#aE" x="337.369" y="82.818"/><use xlink:href="#aB" x="246.605" y="104.462"/><use xlink:href="#aV" x="250.586" y="104.462"/><use xlink:href="#aP" x="255.667" y="104.462"/><use xlink:href="#aI" x="261.669" y="94.376" fill="red"/><use xlink:href="#aJ" x="261.669" y="104.462"/><use xlink:href="#ax" x="266.869" y="104.462"/><use xlink:href="#aO" x="272.476" y="104.462"/><use xlink:href="#bi" x="275.561" y="104.462"/><use xlink:href="#aJ" x="281.168" y="104.462"/><use xlink:href="#ay" x="246.605" y="126.105"/><use xlink:href="#ax" x="252.606" y="126.105"/><use xlink:href="#aq" x="258.214" y="116.02" fill="red"/><use xlink:href="#az" x="258.214" y="126.105"/><use xlink:href="#as" x="262.697" y="126.105"/><use xlink:href="#aG" x="265.447" y="126.105"/><use xlink:href="#ay" x="271.305" y="126.105"/><use xlink:href="#ax" x="277.306" y="126.105"/><use xlink:href="#aT" x="282.913" y="126.105"/><use xlink:href="#bj" x="246.605" y="147.749"/><use xlink:href="#aL" x="258.237" y="147.749"/><use xlink:href="#au" x="264.095" y="147.749"/><use xlink:href="#av" x="270.097" y="147.749"/><use xlink:href="#az" x="279.35" y="147.749"/><use xlink:href="#as" x="283.833" y="147.749"/><use xlink:href="#aR" x="286.583" y="147.749"/><use xlink:href="#bg" x="295.681" y="137.664" fill="red"/><use xlink:href="#aC" x="295.681" y="147.749"/><use xlink:href="#aB" x="303.643" y="147.749"/><use xlink:href="#ax" x="307.624" y="147.749"/><use xlink:href="#aJ" x="313.231" y="147.749"/><use xlink:href="#ax" x="318.431" y="147.749"/><use xlink:href="#aE" x="324.038" y="147.749"/><use xlink:href="#aC" x="246.605" y="169.393"/><use xlink:href="#aB" x="254.567" y="169.393"/><use xlink:href="#ax" x="258.548" y="169.393"/><use xlink:href="#aJ" x="264.155" y="169.393"/><use xlink:href="#ax" x="269.355" y="169.393"/><use xlink:href="#az" x="278.86" y="169.393"/><use xlink:href="#as" x="283.343" y="169.393"/><use xlink:href="#aR" x="286.092" y="169.393"/><use xlink:href="#aV" x="295.19" y="169.393"/><use xlink:href="#at" x="300.271" y="169.393"/><use xlink:href="#bh" x="309.37" y="159.307" fill="red"/><use xlink:href="#aX" x="309.37" y="169.393"/><use xlink:href="#aA" x="313.853" y="169.393"/><use xlink:href="#as" x="319.855" y="169.393"/><use xlink:href="#at" x="322.604" y="169.393"/><use xlink:href="#aC" x="327.805" y="169.393"/><use xlink:href="#at" x="335.444" y="169.393"/><use xlink:href="#aq" x="340.645" y="159.307" fill="red"/><use xlink:href="#aQ" x="340.645" y="169.393"/><use xlink:href="#aE" x="349.898" y="169.393"/><use xlink:href="#aA" x="246.605" y="191.036"/><use xlink:href="#aB" x="252.284" y="191.036"/><use xlink:href="#aV" x="256.265" y="191.036"/><use xlink:href="#av" x="261.346" y="191.036"/><use xlink:href="#aI" x="266.702" y="180.951" fill="red"/><use xlink:href="#ay" x="266.702" y="191.036"/><use xlink:href="#aG" x="272.703" y="191.036"/><use xlink:href="#az" x="278.561" y="191.036"/><use xlink:href="#aV" x="283.044" y="191.036"/><use xlink:href="#bi" x="288.125" y="191.036"/><use xlink:href="#aJ" x="293.732" y="191.036"/><use xlink:href="#aA" x="246.605" y="212.68"/><use xlink:href="#at" x="252.929" y="212.68"/><use xlink:href="#aD" x="258.13" y="212.68"/><use xlink:href="#ay" x="261.884" y="212.68"/><use xlink:href="#at" x="267.885" y="212.68"/><use xlink:href="#aq" x="276.983" y="202.595" fill="red"/><use xlink:href="#az" x="276.983" y="212.68"/><use xlink:href="#ay" x="281.466" y="212.68"/><use xlink:href="#aG" x="287.468" y="212.68"/><use xlink:href="#aA" x="293.325" y="212.68"/><use xlink:href="#av" x="299.004" y="212.68"/><use xlink:href="#aT" x="303.38" y="212.68"/><use xlink:href="#ap" x="230.095" y="246.279"/><use xlink:href="#aq" x="246.605" y="236.193" fill="red"/><use xlink:href="#bm" x="246.605" y="246.279"/><use xlink:href="#as" x="254.089" y="246.279"/><use xlink:href="#aE" x="256.838" y="246.279"/><use xlink:href="#aZ" x="263.988" y="246.279"/><use xlink:href="#aS" x="269.666" y="246.279"/><use xlink:href="#aH" x="273.898" y="246.279"/><use xlink:href="#aB" x="279.433" y="246.279"/><use xlink:href="#aV" x="283.414" y="246.279"/><use xlink:href="#av" x="288.495" y="246.279"/><use xlink:href="#az" x="297.749" y="246.279"/><use xlink:href="#as" x="302.232" y="246.279"/><use xlink:href="#at" x="304.981" y="246.279"/><use xlink:href="#aO" x="310.182" y="246.279"/><use xlink:href="#bi" x="313.266" y="246.279"/><use xlink:href="#aA" x="246.605" y="267.922"/><use xlink:href="#aG" x="252.929" y="267.922"/><use xlink:href="#aL" x="258.787" y="267.922"/><use xlink:href="#aB" x="264.645" y="267.922"/><use xlink:href="#bi" x="268.626" y="267.922"/><use xlink:href="#aI" x="274.234" y="257.837" fill="red"/><use xlink:href="#aF" x="274.234" y="267.922"/><use xlink:href="#at" x="279.315" y="267.922"/><use xlink:href="#ay" x="284.515" y="267.922"/><use xlink:href="#as" x="290.517" y="267.922"/><use xlink:href="#az" x="246.605" y="289.566"/><use xlink:href="#bi" x="251.088" y="289.566"/><use xlink:href="#aq" x="260.593" y="279.481" fill="red"/><use xlink:href="#aC" x="260.593" y="289.566"/><use xlink:href="#az" x="272.452" y="289.566"/><use xlink:href="#aQ" x="276.935" y="289.566"/><use xlink:href="#aP" x="286.189" y="289.566"/><use xlink:href="#aS" x="292.19" y="289.566"/><use xlink:href="#aZ" x="296.422" y="289.566"/><use xlink:href="#aP" x="302.101" y="289.566"/><use xlink:href="#aE" x="308.102" y="289.566"/><use xlink:href="#ax" x="246.605" y="311.21"/><use xlink:href="#aK" x="252.212" y="311.21"/><use xlink:href="#at" x="254.962" y="311.21"/><use xlink:href="#aL" x="264.059" y="311.21"/><use xlink:href="#au" x="269.917" y="311.21"/><use xlink:href="#av" x="275.919" y="311.21"/><use xlink:href="#aF" x="285.172" y="311.21"/><use xlink:href="#ay" x="290.253" y="311.21"/><use xlink:href="#as" x="296.254" y="311.21"/><use xlink:href="#aI" x="299.005" y="301.124" fill="red"/><use xlink:href="#aC" x="299.005" y="311.21"/><use xlink:href="#aP" x="306.967" y="311.21"/><use xlink:href="#aO" x="312.968" y="311.21"/><use xlink:href="#bi" x="316.053" y="311.21"/><use xlink:href="#aE" x="321.66" y="311.21"/><use xlink:href="#aC" x="246.605" y="332.853"/><use xlink:href="#av" x="254.567" y="332.853"/><use xlink:href="#aZ" x="259.923" y="332.853"/><use xlink:href="#aB" x="265.601" y="332.853"/><use xlink:href="#aV" x="269.583" y="332.853"/><use xlink:href="#av" x="274.663" y="332.853"/><use xlink:href="#aZ" x="280.019" y="332.853"/><use xlink:href="#aP" x="285.698" y="332.853"/><use xlink:href="#aO" x="291.699" y="332.853"/><use xlink:href="#bi" x="294.784" y="332.853"/><use xlink:href="#aV" x="304.288" y="332.853"/><use xlink:href="#aB" x="313.266" y="332.853"/><use xlink:href="#ax" x="317.247" y="332.853"/><use xlink:href="#aq" x="322.855" y="322.768" fill="red"/><use xlink:href="#au" x="322.855" y="332.853"/><use xlink:href="#aG" x="328.856" y="332.853"/><use xlink:href="#aX" x="334.714" y="332.853"/><use xlink:href="#aJ" x="339.197" y="332.853"/><use xlink:href="#as" x="344.398" y="332.853"/><use xlink:href="#aT" x="347.148" y="332.853"/><g fill="red"><use xlink:href="#bb" x="350.4" y="322.768"/><use xlink:href="#aq" x="355.05" y="322.768"/></g><use xlink:href="#bc" x="365.464" y="318.428" fill="red"/><use xlink:href="#bd" x="368.675" y="322.768" fill="red"/><use xlink:href="#be" x="226.736" y="360.474"/><use xlink:href="#bf" x="246.605" y="360.474"/><use xlink:href="#aG" x="254.376" y="360.474"/><use xlink:href="#aL" x="264.131" y="360.474"/><use xlink:href="#au" x="269.989" y="360.474"/><use xlink:href="#av" x="275.99" y="360.474"/><use xlink:href="#az" x="285.244" y="360.474"/><use xlink:href="#as" x="289.727" y="360.474"/><use xlink:href="#aR" x="292.476" y="360.474"/><use xlink:href="#aC" x="301.574" y="360.474"/><use xlink:href="#av" x="309.536" y="360.474"/><use xlink:href="#bg" x="314.893" y="350.389" fill="red"/><use xlink:href="#aB" x="314.893" y="360.474"/><use xlink:href="#aP" x="318.874" y="360.474"/><use xlink:href="#az" x="324.875" y="360.474"/><use xlink:href="#aV" x="329.359" y="360.474"/><use xlink:href="#ax" x="334.439" y="360.474"/><use xlink:href="#aE" x="340.046" y="360.474"/><use xlink:href="#as" x="246.605" y="382.118"/><use xlink:href="#au" x="249.355" y="382.118"/><use xlink:href="#aV" x="255.356" y="382.118"/><use xlink:href="#as" x="260.437" y="382.118"/><use xlink:href="#at" x="263.187" y="382.118"/><use xlink:href="#az" x="272.284" y="382.118"/><use xlink:href="#as" x="276.767" y="382.118"/><use xlink:href="#aR" x="279.517" y="382.118"/><use xlink:href="#bh" x="288.616" y="372.033" fill="red"/><use xlink:href="#aV" x="288.616" y="382.118"/><use xlink:href="#aA" x="297.594" y="382.118"/><use xlink:href="#aD" x="303.596" y="382.118"/><use xlink:href="#ax" x="307.027" y="382.118"/><use xlink:href="#aJ" x="312.634" y="382.118"/><use xlink:href="#aV" x="317.834" y="382.118"/><use xlink:href="#at" x="322.915" y="382.118"/><use xlink:href="#aQ" x="328.115" y="382.118"/><use xlink:href="#aq" x="337.369" y="372.033" fill="red"/><use xlink:href="#aE" x="337.369" y="382.118"/><use xlink:href="#aB" x="246.605" y="403.762"/><use xlink:href="#aV" x="250.586" y="403.762"/><use xlink:href="#aP" x="255.667" y="403.762"/><use xlink:href="#aI" x="261.669" y="393.676" fill="red"/><use xlink:href="#aJ" x="261.669" y="403.762"/><use xlink:href="#ax" x="266.869" y="403.762"/><use xlink:href="#aO" x="272.476" y="403.762"/><use xlink:href="#bi" x="275.561" y="403.762"/><use xlink:href="#aJ" x="281.168" y="403.762"/><use xlink:href="#ay" x="246.605" y="425.405"/><use xlink:href="#ax" x="252.606" y="425.405"/><use xlink:href="#aq" x="258.214" y="415.32" fill="red"/><use xlink:href="#az" x="258.214" y="425.405"/><use xlink:href="#as" x="262.697" y="425.405"/><use xlink:href="#aG" x="265.447" y="425.405"/><use xlink:href="#ay" x="271.305" y="425.405"/><use xlink:href="#ax" x="277.306" y="425.405"/><use xlink:href="#aT" x="282.913" y="425.405"/><use xlink:href="#bj" x="246.605" y="447.049"/><use xlink:href="#aL" x="258.237" y="447.049"/><use xlink:href="#au" x="264.095" y="447.049"/><use xlink:href="#av" x="270.097" y="447.049"/><use xlink:href="#az" x="279.35" y="447.049"/><use xlink:href="#as" x="283.833" y="447.049"/><use xlink:href="#aR" x="286.583" y="447.049"/><use xlink:href="#bg" x="295.681" y="436.964" fill="red"/><use xlink:href="#aC" x="295.681" y="447.049"/><use xlink:href="#aB" x="303.643" y="447.049"/><use xlink:href="#ax" x="307.624" y="447.049"/><use xlink:href="#aJ" x="313.231" y="447.049"/><use xlink:href="#ax" x="318.431" y="447.049"/><use xlink:href="#aE" x="324.038" y="447.049"/><use xlink:href="#aC" x="246.605" y="468.693"/><use xlink:href="#aB" x="254.567" y="468.693"/><use xlink:href="#ax" x="258.548" y="468.693"/><use xlink:href="#aJ" x="264.155" y="468.693"/><use xlink:href="#ax" x="269.355" y="468.693"/><use xlink:href="#az" x="278.86" y="468.693"/><use xlink:href="#as" x="283.343" y="468.693"/><use xlink:href="#aR" x="286.092" y="468.693"/><use xlink:href="#aV" x="295.19" y="468.693"/><use xlink:href="#at" x="300.271" y="468.693"/><use xlink:href="#bh" x="309.37" y="458.607" fill="red"/><use xlink:href="#aX" x="309.37" y="468.693"/><use xlink:href="#aA" x="313.853" y="468.693"/><use xlink:href="#as" x="319.855" y="468.693"/><use xlink:href="#at" x="322.604" y="468.693"/><use xlink:href="#aC" x="327.805" y="468.693"/><use xlink:href="#at" x="335.444" y="468.693"/><use xlink:href="#aq" x="340.645" y="458.607" fill="red"/><use xlink:href="#aQ" x="340.645" y="468.693"/><use xlink:href="#aE" x="349.898" y="468.693"/><use xlink:href="#aA" x="246.605" y="490.336"/><use xlink:href="#aB" x="252.284" y="490.336"/><use xlink:href="#aV" x="256.265" y="490.336"/><use xlink:href="#av" x="261.346" y="490.336"/><use xlink:href="#aI" x="266.702" y="480.251" fill="red"/><use xlink:href="#ay" x="266.702" y="490.336"/><use xlink:href="#aG" x="272.703" y="490.336"/><use xlink:href="#az" x="278.561" y="490.336"/><use xlink:href="#aV" x="283.044" y="490.336"/><use xlink:href="#bi" x="288.125" y="490.336"/><use xlink:href="#aJ" x="293.732" y="490.336"/><use xlink:href="#aA" x="246.605" y="511.98"/><use xlink:href="#at" x="252.929" y="511.98"/><use xlink:href="#aD" x="258.13" y="511.98"/><use xlink:href="#ay" x="261.884" y="511.98"/><use xlink:href="#at" x="267.885" y="511.98"/><use xlink:href="#aq" x="276.983" y="501.895" fill="red"/><use xlink:href="#az" x="276.983" y="511.98"/><use xlink:href="#ay" x="281.466" y="511.98"/><use xlink:href="#aG" x="287.468" y="511.98"/><use xlink:href="#aA" x="293.325" y="511.98"/><use xlink:href="#av" x="299.004" y="511.98"/><use xlink:href="#aT" x="303.38" y="511.98"/><g clip-path="url(#bn)"><path fill="url(#bo)" d="M15.023 579.684v-11.336h388.063v11.336Zm0 0"/></g><use xlink:href="#bp" x="380.91" y="577.985"/><use xlink:href="#bq" x="387.641" y="577.985"/><use xlink:href="#bp" x="394.371" y="577.985"/><path fill="#f2f2f2" stroke="#000" stroke-miterlimit="10" stroke-width=".797" d="M196.602 576.055v-3.989a2.99 2.99 0 0 1 2.988-2.988h18.93a2.99 2.99 0 0 1 2.988 2.988v3.989a2.99 2.99 0 0 1-2.988 2.988h-18.93a2.99 2.99 0 0 1-2.988-2.988Zm0 0"/><use xlink:href="#br" x="198.439" y="576.948"/><use xlink:href="#bs" x="203.747" y="576.948"/><use xlink:href="#bs" x="209.055" y="576.948"/><use xlink:href="#bt" x="214.363" y="576.948"/><use xlink:href="#bu" x="17.008" y="577.985"/><use xlink:href="#bu" x="20.976" y="577.985"/><use xlink:href="#bv" x="27.629" y="577.985"/><use xlink:href="#bw" x="29.882" y="577.985"/><use xlink:href="#bx" x="33.85" y="577.985"/><use xlink:href="#by" x="37.818" y="577.985"/><use xlink:href="#bz" x="42.756" y="577.985"/><use xlink:href="#bA" x="53.384" y="577.985"/><use xlink:href="#bx" x="57.353" y="577.985"/><use xlink:href="#bB" x="64.006" y="577.985"/><use xlink:href="#bA" x="69.571" y="577.985"/><use xlink:href="#bC" x="73.539" y="577.985"/><use xlink:href="#bA" x="77.508" y="577.985"/><use xlink:href="#bD" x="81.476" y="577.985"/><use xlink:href="#bz" x="88.129" y="577.985"/><use xlink:href="#bE" x="98.757" y="577.985"/><use xlink:href="#bF" x="104.42" y="577.985"/><use xlink:href="#bG" x="108.821" y="577.985"/><use xlink:href="#bH" x="114.295" y="577.985"/><use xlink:href="#bI" x="117.838" y="577.985"/><use xlink:href="#bJ" x="122.023" y="577.985"/><use xlink:href="#bA" x="127.818" y="577.985"/><use xlink:href="#bC" x="131.786" y="577.985"/><use xlink:href="#bA" x="135.754" y="577.985"/><use xlink:href="#bK" x="139.723" y="577.985"/></svg>