<svg xmlns="http://www.w3.org/2000/svg" xmlns:xlink="http://www.w3.org/1999/xlink" width="559.371" height="793.701" viewBox="0 0 419.528 595.276"><defs><path id="d" d="M3.344 2.297v-.078L1.5-2.5l1.844-4.703v-.078c0-.11-.078-.203-.188-.203a.24.24 0 0 0-.203.14L1.11-2.562c-.015.015-.015.046-.015.062 0 .031 0 .063.015.078L2.953 2.36a.24.24 0 0 0 .203.141c.11 0 .188-.094.188-.203m0 0"/><path id="e" d="M4.969-1.422c0-.11-.094-.11-.125-.11-.094 0-.11.048-.14.188-.173.64-.345 1.235-.75 1.235-.282 0-.298-.266-.298-.453 0-.22.016-.313.125-.75L4-2.203l.36-1.39c.062-.282.062-.298.062-.344 0-.172-.11-.266-.281-.266-.25 0-.391.219-.422.437-.188-.375-.469-.64-.922-.64-1.156 0-2.39 1.468-2.39 2.922C.406-.547.952.109 1.718.109c.203 0 .703-.046 1.297-.75a.91.91 0 0 0 .906.75c.36 0 .578-.234.75-.546.156-.36.297-.985.297-.985m-1.375-1.89a.6.6 0 0 1-.031.171l-.485 1.954c-.062.187-.062.203-.203.375-.437.546-.844.703-1.125.703-.5 0-.64-.547-.64-.938 0-.5.312-1.719.546-2.187.313-.578.75-.953 1.157-.953.64 0 .78.812.78.875m0 0"/><path id="f" d="M2.781-2.5c0-.016 0-.047-.015-.062L.922-7.344c-.031-.078-.11-.14-.188-.14a.207.207 0 0 0-.203.203v.078L2.375-2.5.531 2.219v.078c0 .11.094.203.203.203.079 0 .157-.062.188-.14l1.844-4.782c.015-.015.015-.047.015-.078m0 0"/><path id="h" d="M5.438-1.422c0-.11-.079-.11-.11-.11-.11 0-.11.032-.156.188-.14.532-.469 1.235-1.016 1.235-.172 0-.234-.094-.234-.328 0-.25.078-.485.172-.704.156-.437.61-1.625.61-2.203 0-.64-.391-1.062-1.141-1.062-.626 0-1.11.312-1.485.765l.781-3.171s0-.11-.125-.11c-.234 0-.953.078-1.218.11-.079 0-.188.015-.188.187 0 .125.094.125.234.125.485 0 .5.063.5.172l-.03.203L.593-.391C.547-.25.547-.234.547-.17c0 .234.203.28.297.28a.41.41 0 0 0 .36-.265l.187-.75.218-.89c.063-.235.125-.454.172-.673.016-.062.11-.39.11-.453.03-.094.343-.64.687-.922.219-.156.516-.344.953-.344.422 0 .531.344.531.704 0 .53-.375 1.625-.609 2.234-.078.219-.14.344-.14.547 0 .469.359.812.828.812.937 0 1.297-1.453 1.297-1.53m0 0"/><path id="i" d="M1.906-3.672A.524.524 0 1 0 .86-3.687a.524.524 0 0 0 1.047.015m0 2.36a.524.524 0 1 0-1.047.016.524.524 0 0 0 1.047-.016m0 0"/><path id="g" d="M2.031-.016c0-.625-.25-1.046-.64-1.046-.36 0-.532.28-.532.53 0 .266.172.532.532.532.14 0 .28-.062.39-.156.016.781-.25 1.39-.687 1.86-.063.062-.078.077-.078.109 0 .078.046.109.093.109.125 0 .922-.781.922-1.938m0 0"/><path id="j" d="M3.75-4.672c0-.062-.047-.094-.125-.094-.266 0-.578.016-.86.016-.28 0-.593-.016-.874-.016-.047 0-.157 0-.157.157 0 .093.094.093.22.093.234 0 .421 0 .421.11 0 .062-.016.11-.031.156L1.422-.531c-.063.219-.11.281-.578.281-.156 0-.235 0-.235.156 0 0 .016.094.11.094.281 0 .594-.031.86-.031.296 0 .609.031.89.031.031 0 .14 0 .14-.156 0-.094-.078-.094-.203-.094 0 0-.14 0-.265-.016-.157-.015-.157-.03-.157-.109 0-.016 0-.031.032-.14l.922-3.72c.062-.218.078-.28.578-.28.14 0 .234 0 .234-.157m0 0"/><path id="k" d="M6.047-.156c0-.094-.11-.11-.14-.11-.25 0-.376-.03-.5-.312L4.218-3.297 5.766-4.5c.218-.172.812-.625 1.312-.672.063-.016.156-.031.156-.156 0-.047-.03-.11-.109-.11 0 0-.234.016-.281.016h-.328c-.266 0-.563-.016-.813-.016-.047 0-.172 0-.172.141 0 .11.14.125.14.125.11 0 .173.047.173.11 0 .125-.14.25-.172.28l-.047.048c-.016.015-.031.015-.094.078L2.563-2.344l.609-2.5c.078-.265.125-.328.61-.328.171 0 .265 0 .265-.156 0-.047-.031-.11-.125-.11-.14 0-.313.016-.453.016h-.953l-.453-.016c-.047 0-.172 0-.172.141 0 .125.093.125.234.125.219 0 .438 0 .438.11 0 .046 0 .062-.032.171L1.47-.609c-.078.28-.125.343-.61.343-.171 0-.265 0-.265.157C.594-.047.64 0 .719 0c.031 0 .39-.016.453-.031h.484c.672 0 .89.031.938.031s.156 0 .156-.156c0-.11-.094-.11-.234-.11-.25 0-.438 0-.438-.125 0-.046.047-.218.078-.328l.297-1.203 1.25-.969.985 2.25c.046.094.046.11.046.141 0 .203-.187.234-.343.234-.094 0-.188.016-.188.157 0 .062.047.109.11.109.28 0 .578-.031.843-.031.672 0 .64.031.735.031.03 0 .156 0 .156-.156m0 0"/><path id="l" d="M2.828-1.14c0-.11-.11-.11-.156-.11-.125 0-.125.031-.172.172-.14.516-.406.937-.734.937-.157 0-.188-.109-.188-.25 0-.187.063-.328.188-.656l.515-1.39c.063-.172.094-.25.094-.422 0-.438-.312-.657-.656-.657-.75 0-1.078 1.11-1.078 1.22 0 .108.093.108.14.108.14 0 .14-.03.172-.171.125-.407.375-.938.75-.938.14 0 .172.11.172.25 0 .188-.047.344-.156.61L1.156-.953a1.1 1.1 0 0 0-.078.375c0 .36.266.656.672.656.75 0 1.078-1.125 1.078-1.219m.125-3.704a.354.354 0 0 0-.36-.375.55.55 0 0 0-.53.532c0 .234.171.359.359.359.265 0 .531-.234.531-.516m0 0"/><path id="m" d="M4.14-1.14c0-.11-.109-.11-.14-.11-.14 0-.156.047-.187.172-.11.453-.266.937-.61.937-.14 0-.25-.078-.25-.375 0-.125.031-.265.063-.39.03-.125.03-.172.03-.25 0-.563-.546-.75-1.108-.86.296-.187.625-.53.671-.593.454-.5.766-.688 1.063-.688.11 0 .172.063.203.11-.156.03-.344.171-.344.39s.188.266.281.266c.204 0 .407-.14.407-.453 0-.266-.157-.532-.547-.532s-.75.266-1.188.735c-.484.515-.656.594-.796.672l.796-3.188c0-.031.016-.094.016-.125 0-.11-.125-.11-.219-.094l-.828.063c-.11.016-.187.016-.187.156 0 .125.093.125.203.125.375 0 .375.047.375.11a.7.7 0 0 1-.032.171L.657-.266c0 .032-.015.079-.015.11 0 .11.078.234.25.234.14 0 .265-.094.328-.297l.39-1.578c.313.031.891.172.891.656 0 .047 0 .079-.031.188a1 1 0 0 0-.031.25c0 .437.296.781.734.781.36 0 .562-.265.656-.406.188-.297.313-.766.313-.813m0 0"/><path id="n" d="M4.297-2.172c0-.828-.547-1.344-1.266-1.344C2-3.516.921-2.437.921-1.266c0 .875.595 1.344 1.267 1.344 1.062 0 2.109-1.094 2.109-2.25m-.594-.281c0 .265-.125 1.031-.437 1.578-.266.438-.688.734-1.078.734-.297 0-.672-.203-.672-.843 0-.36.172-1.11.422-1.547.343-.578.812-.766 1.078-.766.39 0 .687.297.687.844m0 0"/><path id="o" d="m8.375-.344-3.344-4.5 3.14-2.953c.142-.125.142-.203.142-.25 0-.25-.235-.25-.407-.25h-.718c-.204 0-.454 0-.704.235l-3.843 3.64v-3.297c0-.39-.079-.578-.578-.578h-.407c-.422 0-.562.14-.562.578v7.14c0 .438.125.579.562.579h.407c.453 0 .578-.156.578-.578v-2l1.328-1.266L6.64-.25c.203.25.375.25.609.25h.703c.266 0 .422 0 .422-.344m0 0"/><path id="p" d="M2.313-.578v-4.328c0-.375-.079-.563-.563-.563h-.453c-.422 0-.563.125-.563.563v4.328c0 .437.125.578.563.578h.453c.453 0 .563-.156.563-.578m.093-6.672v-.219c0-.39-.094-.578-.578-.578h-.61c-.452 0-.577.156-.577.578v.219c0 .36.062.578.578.578h.61c.5 0 .577-.219.577-.578m0 0"/><path id="q" d="M9.64-.578v-3.313c0-1.218-.53-1.718-1.75-1.718-.843 0-1.5.39-1.937 1.187-.187-1.14-1.203-1.187-1.703-1.187-.234 0-.734 0-1.281.39-.36.282-.61.672-.688.844h-.015v-.594c0-.39-.079-.578-.563-.578h-.406c-.438 0-.578.125-.578.578v4.39c0 .438.125.579.578.579h.469c.453 0 .578-.156.578-.578v-2.64c0-1.079.734-1.532 1.312-1.532s.703.25.703.89v3.282c0 .437.141.578.579.578h.484c.453 0 .562-.156.562-.578v-2.64c0-1.079.735-1.532 1.313-1.532s.719.25.719.89v3.282c0 .437.125.578.562.578h.485c.453 0 .578-.156.578-.578m0 0"/><path id="r" d="M2.672.375v-5.281c0-.375-.078-.563-.563-.563h-.453c-.453 0-.562.157-.562.563V.672c0 .297 0 .781-.719.781-.219 0-.5-.047-.75-.219-.031-.015-.078-.046-.125-.046-.094 0-.11 0-.219.312-.047.125-.125.36-.125.39 0 .22.985.563 1.735.563 1.328 0 1.78-.89 1.78-2.078m0-7.625v-.219c0-.39-.078-.578-.563-.578H1.5c-.453 0-.578.156-.578.578v.219c0 .36.062.578.578.578h.61c.5 0 .562-.219.562-.578m0 0"/><path id="s" d="M5.719-3.11c0-1.546-.703-2.562-2.485-2.562-1.921 0-2.859 1.063-2.859 2.89 0 1.954 1.125 2.907 3 2.907.469 0 1.14-.047 1.938-.453.25-.125.343-.156.343-.313 0-.078-.031-.421-.047-.515-.046-.375-.062-.39-.171-.39-.047 0-.079 0-.204.124a2.7 2.7 0 0 1-1.796.688c-1.36 0-1.5-1.063-1.532-1.828h3.25c.266 0 .563 0 .563-.547m-1.313-.078h-2.5c.047-.734.282-1.624 1.328-1.624.954 0 1.125.687 1.172 1.625m0 0"/><path id="t" d="M4.734-1.687c0-.672-.359-1.079-.578-1.282-.468-.422-.89-.5-1.39-.594-.657-.124-1.141-.218-1.141-.687 0-.484.39-.578.86-.578.796 0 1.234.297 1.546.562.11.125.14.125.188.125.125 0 .14-.109.156-.156.031-.11.14-.766.14-.828 0-.187-.624-.36-.765-.406-.469-.14-.86-.14-1.172-.14-.531 0-2.14 0-2.14 1.702 0 .594.265.938.593 1.235.422.375.875.468 1.563.593.344.063.953.172.953.688 0 .562-.469.656-.922.656a2.21 2.21 0 0 1-1.766-.828c-.062-.062-.093-.094-.171-.094-.11 0-.141.11-.157.172-.015.172-.156.86-.156.969 0 .219.89.5.89.5a4.4 4.4 0 0 0 1.36.203c.61 0 2.11-.047 2.11-1.812m0 0"/><path id="u" d="M4.453-.562c0-.032-.016-.125-.094-.375-.062-.235-.078-.313-.187-.313-.063 0-.078.016-.14.094-.141.093-.454.36-.954.36-.297 0-.469-.204-.469-1V-4.61h1.063c.14 0 .578 0 .578-.438 0-.422-.437-.422-.578-.422H2.609v-1c0-.375-.093-.578-.578-.578h-.375c-.422 0-.562.14-.562.578v1H.812c-.125 0-.578 0-.578.422 0 .438.438.438.579.438h.234v3.015c0 1.219.437 1.719 1.266 1.719.109 0 .624 0 1.25-.187.203-.063.89-.266.89-.5m0 0"/><path id="v" d="M5.672-.578v-3.203c0-1.89-1.828-1.89-2.422-1.89-.562 0-1.156.046-1.953.374-.25.11-.313.14-.313.281 0 .079.063.766.079.875a.17.17 0 0 0 .156.125c.062 0 .093-.03.125-.078.515-.531 1.125-.797 1.86-.797.64 0 .843.391.843 1.094v.422c-.422 0-3.563.031-3.563 1.781C.484-.75 1.156.125 2.22.125c.406 0 1.297-.11 1.86-.937v.234c0 .39.077.578.577.578h.438c.453 0 .578-.156.578-.578M4.047-1.844c0 1.11-1.14 1.11-1.172 1.11-.516 0-.828-.422-.828-.875 0-1.172 1.656-1.266 2-1.266Zm0 0"/><path id="w" d="M2.594 2.234c-.375-.5-1.25-1.64-.64-4.484.609-2.828 1.952-3.969 2.546-4.484h-.594c-1.25.89-2.265 2.422-2.703 4.484-.453 2.14-.031 3.625.813 4.484Zm0 0"/><path id="x" d="M6.313-4.406c.203-.953-.516-1.813-1.797-1.813H2.203L.875 0h.86l.546-2.562h1.453c1.266 0 2.36-.86 2.579-1.844m-.782 0c-.156.718-.843 1.297-1.89 1.297H2.375l.547-2.578h1.265c1.032 0 1.485.562 1.344 1.28m0 0"/><path id="y" d="m4.031 0 .563-2.656c.14-.672.125-1.422-.969-1.422-.703 0-1.219.406-1.484.672l.14-.625h-.687L.719 0h.75l.468-2.187c.125-.594.516-1.313 1.188-1.313.906 0 .766.64.719.906L3.28 0Zm0 0"/><path id="z" d="M4.86-2c.218-1.078-.126-2.078-1-2.078-.25 0-.922.047-1.641.531l.094-.437h-.72L.376 1.734h.75l.453-2.14c.266.312.672.5 1.14.5.907 0 1.876-.89 2.141-2.094m-.75.016c-.188.859-.954 1.5-1.657 1.5-.281 0-.578-.11-.734-.563l.406-1.937c.14-.157.547-.485 1.063-.485.671 0 1.093.64.921 1.485m0 0"/><path id="A" d="M4.563-1.625c.125-.562-.094-1.219-.938-1.547.61-.172 1.281-.656 1.422-1.328.172-.812-.438-1.562-1.453-1.562-1.047 0-1.953.765-2.125 1.562-.14.672.312 1.156.843 1.328C1.298-2.828.845-2.156.72-1.625.516-.641 1.188.203 2.25.203c1.094 0 2.11-.86 2.313-1.828m-.188-2.86c-.11.563-.594 1.016-1.344 1.016-.703 0-1.031-.422-.906-1.015.14-.594.656-1.016 1.344-1.016.734 0 1.031.438.906 1.016m-.594 2.86c-.172.828-.797 1.234-1.39 1.234-.641 0-1.063-.421-.891-1.234.203-.953.953-1.25 1.406-1.25.516 0 1.078.328.875 1.25m0 0"/><path id="B" d="m1.656-.016.172-.75h-.781L.89 0h.234L.641 1.14h.375Zm0 0"/><path id="C" d="M4.531-1.828c.235-1.11-.375-2-1.328-2-.11 0-.547 0-1.047.36l.375-1.782h2.422l.125-.61h-3.11L1.267-2.53h.64c.438-.656.985-.703 1.157-.703.374 0 .843.28.609 1.406-.235 1.094-.953 1.437-1.5 1.437-.453 0-1.031-.218-1.235-.812L.5-.687c.094.203.547.89 1.563.89 1.124 0 2.234-.906 2.468-2.031m0 0"/><path id="D" d="m5.063-2.172.125-.578H.577l-.125.578Zm0 0"/><path id="E" d="m5.328-5.25.14-.61H1.626l-.14.673H3.25c.11 0 .219-.016.313-.016h1.109C2.953-3.734 1.797-1.922 1.375.094h.797c.5-2.313 1.875-4.203 3.156-5.344m0 0"/><path id="F" d="M3.328-2.25c.453-2.125.031-3.625-.812-4.484h-.578c.39.5 1.25 1.656.64 4.484C1.984.594.625 1.734.031 2.234h.594c1.234-.89 2.266-2.421 2.703-4.484m0 0"/><path id="G" d="M-1.86-5.64c-.077 0-.156 0-.156.14 0 .078.047.11.125.11 1.22.062 1.797 1.062 1.797 1.906 0 .672-.422 2.187-2.625 2.187-2.156 0-2.625-1.437-2.625-2.187s.532-1.672 1.907-1.891c.062 0 .109-.016.109-.125 0-.14-.047-.14-.203-.14h-1.875c-.125 0-.203 0-.203.109 0 .062 0 .062.109.14l.594.407a2.12 2.12 0 0 0-.703 1.578c0 1.594 1.28 2.937 2.89 2.937S.171-1.797.171-3.422C.172-4.75-.89-5.64-1.858-5.64m0 0"/><path id="H" d="M0-4.484h-.266c0 .515 0 .609-.359.609h-1.797c-.656 0-1.094.313-1.094 1.14 0 .704.454 1.063.704 1.22h-2.72l.095 1.187h.265c0-.547.047-.61.438-.61h4.109c.36 0 .36.094.36.61H0c-.031-.344-.031-.688-.031-.906 0-.235 0-.563.031-.907h-.266c0 .5 0 .61-.359.61h-1.437c-.844 0-1.235-.64-1.235-1.125s.344-.61.844-.61h1.828c.36 0 .36.094.36.61H0C-.031-3-.031-3.36-.031-3.562c0-.235 0-.579.031-.922m0 0"/><path id="I" d="M0-2.078h-.266c0 .531-.03.562-.343.562h-2.907l.094 1.157h.266c0-.516.047-.578.437-.578h2.094c.36 0 .36.093.36.609H0c-.031-.313-.031-.766-.031-.89 0-.095 0-.579.031-.86m-4.797.453a.453.453 0 0 0-.453.453.45.45 0 0 0 .453.438.437.437 0 0 0 .438-.438.45.45 0 0 0-.438-.453m0 0"/><path id="J" d="M-.953-3.516a.12.12 0 0 0-.11.125c0 .094.047.11.094.125.782.282.797.97.797 1.11 0 .36-.156.734-.531.969-.36.234-.875.234-1.11.234v-2.344c0-.172 0-.219-.187-.219-.703 0-1.547.391-1.547 1.516 0 .984.813 1.766 1.797 1.766 1.031 0 1.828-.86 1.828-1.875 0-1-.844-1.407-1.031-1.407m-1.078.547v2.016c-1.11-.078-1.297-.75-1.297-1.047 0-.937 1.125-.969 1.297-.969m-2.188.563-1.218 1.031c-.125.094-.125.219-.125.25 0 .14.14.297.312.297.14 0 .203-.063.266-.156l.937-1.25Zm0 0"/><path id="K" d="M-.953-3.516c-.094 0-.094.11-.094.125 0 .063 0 .094.078.125.172.047.797.282.797 1.079 0 .484-.375 1.203-1.562 1.203-1.141 0-1.578-.594-1.578-1.172 0-.078 0-.5.156-.781.062.234.25.265.344.265a.36.36 0 0 0 .374-.375c0-.219-.14-.375-.39-.375-.485 0-.719.531-.719 1.281 0 1.11.875 1.86 1.828 1.86C-.703-.281.078-1.11.078-2.11c0-1.125-.937-1.407-1.031-1.407m0 0"/><path id="L" d="M-1.703-3.984c-.984 0-1.844.828-1.844 1.875s.86 1.875 1.844 1.875c1 0 1.781-.86 1.781-1.875 0-1.032-.781-1.875-1.781-1.875m-.063.703c.36 0 .797.015 1.141.25.313.203.453.562.453.922 0 .422-.203.765-.484.937-.328.203-.719.219-1.11.219-.312 0-.78 0-1.125-.235a1.14 1.14 0 0 1-.437-.921c0-.422.203-.766.469-.938.343-.219.765-.234 1.093-.234m0 0"/><path id="M" d="M0-2.125h-.266c0 .5 0 .61-.359.61h-4.906l.093 1.187h.266c0-.547.047-.61.438-.61h4.109c.36 0 .36.094.36.61H0c-.031-.313-.031-.766-.031-.906 0-.157 0-.578.031-.891m0 0"/><path id="N" d="M-.953-3.516a.12.12 0 0 0-.11.125c0 .094.047.11.094.125.782.282.797.97.797 1.11 0 .36-.156.734-.531.969-.36.234-.875.234-1.11.234v-2.344c0-.172 0-.219-.187-.219-.703 0-1.547.391-1.547 1.516 0 .984.813 1.766 1.797 1.766 1.031 0 1.828-.86 1.828-1.875 0-1-.844-1.407-1.031-1.407m-1.078.547v2.016c-1.11-.078-1.297-.75-1.297-1.047 0-.937 1.125-.969 1.297-.969m0 0"/><path id="O" d="M-1.719-4.422c-1 0-1.797.813-1.797 1.781 0 .313.079.766.5 1.172h-.5l.094 1.188h.266c0-.563.047-.61.375-.61H.922c.36 0 .36.11.36.61h.265c-.031-.344-.031-.688-.031-.906 0-.235 0-.563.03-.907h-.265c0 .516 0 .61-.36.61H-.39a1.37 1.37 0 0 0 .47-1.047c0-1-.782-1.89-1.798-1.89m0 .719c.907 0 1.578.578 1.578 1.219 0 .28-.125.64-.515.906-.14.094-.156.094-.297.094h-1.703a1.3 1.3 0 0 1-.61-1.094c0-.61.672-1.125 1.547-1.125m0 0"/><path id="P" d="M-.437-1.625a.453.453 0 0 0-.454.453c0 .266.22.438.438.438A.44.44 0 0 0 0-1.172a.45.45 0 0 0-.437-.453m0 0"/><path id="Q" d="M-1.312-3.984h-.25v.843h-3.594c-.157 0-.219 0-.219.172 0 .094 0 .11.11.188l3.702 2.547h.25v-2.25h.672c.297 0 .375.015.375.64v.172H0l-.031-1.14L0-3.953h-.266v.172c0 .625-.078.64-.375.64h-.671Zm-.25 1.437v2.031l-2.954-2.03Zm0 0"/><path id="R" d="M-2.547-3.89c-.844 0-1.36.078-1.875.343-.703.344-.875 1-.875 1.438 0 1 .75 1.375.969 1.484.578.281 1.375.297 1.781.297.531 0 1.328-.016 1.969-.406.594-.36.75-.953.75-1.375 0-.391-.125-1.063-.906-1.47-.578-.296-1.297-.312-1.813-.312m-.094.703c.47 0 1.188 0 1.641.093.828.172.938.719.938.985 0 .265-.125.812-.954.984-.453.094-1.203.094-1.625.094-.546 0-1.109 0-1.546-.094-.813-.172-.891-.781-.891-.984 0-.266.14-.828.86-.985.437-.094 1.046-.094 1.577-.094m0 0"/><path id="S" d="M-.031-1.719c-.438 0-.86.172-.86.547 0 .266.22.438.438.438.25 0 .453-.172.453-.438 0-.187-.094-.297-.125-.312.25 0 .89 0 1.469.593.015.032.031.047.078.047.078 0 .125-.062.125-.11 0-.093-.625-.765-1.578-.765m0 0"/><path id="T" d="M1.828-2.672h-.047l-3.765 1.469-3.782-1.469h-.046c-.094 0-.157.063-.157.156 0 .063.032.125.094.157l3.828 1.468c.016.016.031.016.063.016.015 0 .03 0 .046-.016l3.829-1.468a.17.17 0 0 0 .093-.157c0-.093-.062-.156-.156-.156m0 0"/><path id="U" d="M-1.14-4.547c-.11 0-.11.094-.11.125 0 .11.031.125.25.172.39.094.86.25.86.578 0 .219-.172.266-.391.266-.14 0-.422-.063-.625-.11l-.719-.187c-.297-.078-.344-.078-.61-.156C-2.687-3.906-3.062-4-3.108-4c-.172 0-.25.14-.25.266 0 .14.093.328.312.375a.93.93 0 0 0-.469.812c0 1.031 1.125 2.063 2.266 2.063C-.469-.484.078-1 .078-1.687c0-.438-.25-.813-.562-1.141.484-.14.562-.61.562-.813 0-.28-.172-.484-.422-.625a2.6 2.6 0 0 0-.797-.28M-2.595-3.25c.031 0 .078.016.11.016L-1-2.86c.234.062.39.234.531.406.078.078.328.39.328.734 0 .297-.203.594-.78.594-.423 0-1.298-.234-1.61-.422-.64-.36-.766-.766-.766-1 0-.547.61-.703.703-.703m0 0"/><path id="V" d="M-1.984-2.219h-.063L-5.875-.734a.17.17 0 0 0-.094.156c0 .078.063.156.157.156.015 0 .03 0 .046-.016l3.782-1.453L1.78-.437c.016.015.032.015.047.015a.157.157 0 0 0 .156-.156.17.17 0 0 0-.093-.156L-1.937-2.22zm0 0"/><path id="W" d="M-1.14-4.937c-.11 0-.11.093-.11.125 0 .109.063.125.14.156.641.172.97.531.97.843 0 .157-.11.188-.282.188-.187 0-.281-.031-.64-.172-.25-.094-1.094-.422-1.547-.422-.125 0-.453 0-.688.297-.11.125-.219.36-.219.735 0 .578.313 1 .657 1.296L-5.297-2.5c-.016 0-.125-.031-.125-.031a.12.12 0 0 0-.11.125c0 .172.063.828.079 1.031.016.063.016.172.187.172.11 0 .11-.11.11-.203 0-.39.062-.39.125-.39.047 0 .093.015.172.03L-.344-.64a.8.8 0 0 0 .172.047c.11 0 .25-.094.25-.281a.34.34 0 0 0-.203-.312c-.047-.032-.344-.11-.5-.141l-.719-.188c-.11-.015-.422-.109-.531-.125-.312-.078-.312-.078-.578-.234-.39-.266-.844-.656-.844-1.281 0-.453.375-.469.563-.469.484 0 1.359.344 1.703.469.218.094.297.125.422.125.422 0 .687-.36.687-.766 0-.797-1.094-1.14-1.219-1.14m0 0"/><path id="X" d="M-2.937-1.531a.42.42 0 0 0-.422.422.42.42 0 0 0 .422.422.42.42 0 0 0 .421-.422.42.42 0 0 0-.421-.422m1.89 0a.42.42 0 0 0-.422.422.42.42 0 0 0 .422.422.42.42 0 0 0 .422-.422.42.42 0 0 0-.422-.422m0 0"/><path id="Y" d="M-4-3.203q-.093 0-.094.094c0 .234.032.5.032.734 0 .25-.032.516-.032.75 0 .047 0 .14.14.14.079 0 .079-.077.079-.187 0-.203 0-.36.094-.36.047 0 .094.016.14.016l3.188.797c.187.047.234.094.234.5 0 .125 0 .188.14.188 0 0 .079 0 .079-.078 0-.25-.031-.516-.031-.75 0-.25.031-.516.031-.75 0-.032 0-.125-.125-.125-.094 0-.094.062-.094.172 0 0 0 .124-.015.218 0 .14-.016.14-.078.14-.032 0-.047 0-.125-.015l-3.188-.797c-.187-.046-.25-.062-.25-.5 0-.125 0-.187-.125-.187m0 0"/><path id="Z" d="M-.078 6.156c.078 0 .187 0 .187-.11 0-.109-.078-.109-.14-.124-.485-.047-.688-.438-.688-.75 0-.328.188-.531.782-.797.28.734 1.203 1.734 2.64 1.734 1.594 0 2.906-1.265 2.906-2.812C5.61 1.719 4.297.469 2.703.469 1.093.469-.172 1.75-.172 3.297c0 .25.047.515.11.765-.813.172-1.485.313-1.485 1.047 0 .829 1.016 1.047 1.469 1.047m2.781-.86c-1 0-1.86-.312-2.344-1.046.735-.312.844-.687.844-.953a.684.684 0 0 0-.672-.703.8.8 0 0 0-.343.078c.328-.844 1.171-1.39 2.515-1.39 1.922 0 2.656 1.124 2.656 2 0 .921-.765 2.015-2.656 2.015M.234 4a1.65 1.65 0 0 1-.156-.703c0-.422.344-.485.453-.485a.47.47 0 0 1 .453.485c0 .39-.296.578-.75.703m0 0"/><path id="aa" d="M0 4.484h.266c0-.546.046-.609.437-.609h2.813l-.094-1.219h-.266c0 .547-.047.61-.437.61h-1.39C.64 3.266.14 2.859.14 2.25c0-.687.343-.719.75-.719h2.625L3.422.328h-.266c0 .61-.015.61-.719.61H1.235c-.578 0-1.312 0-1.312 1.265 0 .75.578 1.047.64 1.078v.016h-.64Zm0 0"/><path id="ab" d="M0 2.078h.266c0-.531.03-.562.343-.562h2.907L3.422.359h-.266c0 .516-.047.579-.437.579H.625c-.36 0-.36-.094-.36-.61H0c.031.313.031.766.031.89 0 .095 0 .579-.031.86m4.797-.453a.453.453 0 0 0 .453-.453.45.45 0 0 0-.453-.438.437.437 0 0 0-.438.438c0 .25.204.453.438.453m0 0"/><path id="ac" d="M.953 3.516a.12.12 0 0 0 .11-.125c0-.094-.047-.11-.094-.125a1.14 1.14 0 0 1-.797-1.11c0-.36.156-.734.531-.969.36-.234.875-.234 1.11-.234v2.344c0 .172 0 .219.187.219.703 0 1.547-.391 1.547-1.516 0-.984-.813-1.766-1.797-1.766-1.031 0-1.828.86-1.828 1.875 0 1 .844 1.407 1.031 1.407m1.078-.547V.953c1.11.078 1.297.75 1.297 1.047 0 .938-1.125.969-1.297.969m3.219-.031c.172 0 .313-.172.313-.313 0-.031 0-.14-.125-.25l-1.22-1.016-.171.157.937 1.25c.063.093.125.172.266.172m0 0"/><path id="ad" d="M0 4.484h.266c0-.515 0-.609.359-.609h1.797c.656 0 1.094-.312 1.094-1.14a1.38 1.38 0 0 0-.766-1.25h.766L3.422.327h-.266c0 .547-.047.61-.437.61H.625c-.36 0-.36-.094-.36-.61H0c.031.344.031.688.031.906 0 .235 0 .563-.031.907h.266c0-.5 0-.61.359-.61h1.438c.843 0 1.234.64 1.234 1.125s-.344.61-.844.61H.625c-.36 0-.36-.094-.36-.61H0c.031.344.031.703.031.906 0 .235 0 .579-.031.922m0 0"/><path id="ae" d="M.953 3.516a.12.12 0 0 0 .11-.125c0-.094-.047-.11-.094-.125a1.14 1.14 0 0 1-.797-1.11c0-.36.156-.734.531-.969.36-.234.875-.234 1.11-.234v2.344c0 .172 0 .219.187.219.703 0 1.547-.391 1.547-1.516 0-.984-.813-1.766-1.797-1.766-1.031 0-1.828.86-1.828 1.875 0 1 .844 1.407 1.031 1.407m1.078-.547V.953c1.11.078 1.297.75 1.297 1.047 0 .938-1.125.969-1.297.969m0 0"/><path id="af" d="M1.031 3.047c.375 0 .938-.219 1.11-1.172.015-.062.093-.516.093-.547.063-.25.235-.625.547-.625.235 0 .578.188.578.938 0 .89-.656.937-.875.953-.062 0-.093.062-.093.11 0 .14.062.14.203.14h.75c.125 0 .203 0 .203-.11 0-.046 0-.062-.125-.187 0-.016-.078-.094-.078-.11 0 0 0-.03.031-.078.094-.125.172-.359.172-.718 0-1.11-.594-1.36-.985-1.36-.39 0-.624.297-.656.313-.234.328-.265.5-.36 1.047-.077.375-.187.984-.718.984-.312 0-.687-.203-.687-.937C.14.875.766.64 1.188.547c.109-.031.14-.047.14-.14C1.328.28 1.266.28 1.11.28H.125c-.125 0-.203 0-.203.094 0 .063 0 .063.156.203.047.047.14.125.188.172-.328.36-.344.734-.344.938 0 1.015.578 1.359 1.11 1.359m0 0"/><path id="ag" d="M1 2.813h.438v-.25h-.422c-.547 0-.844-.25-.844-.547 0-.532.687-.532.812-.532h2.188v1.188h.265V1.484h1.47v-.25c-.735 0-1.485-.328-1.516-1.078h-.22v.719H1c-.937 0-1.078.719-1.078 1.078 0 .547.469.86 1.078.86m0 0"/><path id="ah" d="M.719 4.094h.437v-.25H.72c-.328 0-.453-.11-.453-.281 0-.297.359-.297.453-.297h1.656c.781 0 1.172-.75 1.172-1.485 0-.656-.25-1.25-.781-1.25a.36.36 0 0 0-.375.375c0 .219.156.375.375.375a.356.356 0 0 0 .359-.297c.203.297.203.735.203.782 0 .453-.312.89-.969.89h-.234c-.031-.453-.047-.984-.281-1.547C1.53.406 1.078.266.813.266c-.688 0-.891.812-.891 1.359 0 .578.328.938.64 1.11-.296.046-.609.25-.609.609 0 .078.031.75.766.75m.406-1.438c-.781 0-.984-.64-.984-.969 0-.406.28-.765.672-.765.515 0 1.062.5 1.093 1.734Zm0 0"/><path id="ai" d="M-1.547 4.422h.266c0-.516 0-.61.36-.61h4.437v-.218l-.688-.297c.422-.266.688-.64.688-1.14 0-1-.782-1.876-1.797-1.876-1 0-1.797.813-1.797 1.797 0 .578.312.938.562 1.14H-.922c-.36 0-.36-.109-.36-.609h-.265c.031.344.031.688.031.907 0 .234 0 .562-.03.906m2.672-1.188c-.125 0-.172 0-.375-.125-.484-.28-.61-.703-.61-.984 0-.64.72-1.14 1.579-1.14.906 0 1.547.593 1.547 1.218 0 .656-.641 1.031-1.078 1.031Zm0 0"/><path id="aj" d="M1.719 4.422c1 0 1.797-.828 1.797-1.797 0-.64-.344-1.016-.485-1.156h2.5L5.438.28h-.266c0 .547-.047.61-.438.61H0v.234l.5.297a1.32 1.32 0 0 0-.578 1.11c0 1 .781 1.89 1.797 1.89m.015-.719c-.187 0-.75 0-1.125-.281C.25 3.125.141 2.75.141 2.5c0-.39.203-.703.515-.922.156-.094.156-.094.313-.094h1.547c.156 0 .172 0 .312.125.297.235.469.61.469.97 0 .405-.25.718-.485.874-.218.14-.5.25-1.078.25m0 0"/><path id="ak" d="M0 4.422h.266c0-.547.046-.61.437-.61h4.828l-.093-1.187h-.266c0 .531-.047.61-.438.61H3.047c.312-.282.469-.657.469-1.079 0-1-.782-1.875-1.797-1.875-.985 0-1.797.797-1.797 1.797 0 .469.219.86.5 1.125h-.5Zm.984-1.219c-.14 0-.171 0-.328-.125a1.15 1.15 0 0 1-.515-.953c0-.375.187-.687.484-.875.313-.219.703-.266 1.078-.266.469 0 .797.079 1.063.266.297.188.53.547.53.953 0 .375-.202.766-.608 1Zm0 0"/><path id="al" d="M0 2.125h.266c0-.5 0-.61.359-.61h4.906L5.438.329h-.266c0 .547-.047.61-.438.61H.625c-.36 0-.36-.094-.36-.61H0c.031.313.031.766.031.906 0 .157 0 .579-.031.891m0 0"/><path id="am" d="M3.016 3.063c.28 0 .5-.25.5-.61 0-.515-.391-.875-.844-1.031v-.016h.844L3.422.281h-.266c0 .547-.047.61-.437.61H.625C.265.89.265.78.265.28H0c.031.313.031.75.031.938 0 .468 0 .484-.031 1h.266v-.156c0-.579.078-.594.375-.594h1.172c.609 0 1.468.25 1.484 1.015-.031-.046-.094-.14-.281-.14-.25 0-.36.203-.36.36 0 .187.125.358.36.358m0 0"/><path id="an" d="M1.703 3.984c.984 0 1.844-.828 1.844-1.875 0-1.046-.86-1.875-1.844-1.875-1 0-1.781.86-1.781 1.875 0 1.032.781 1.875 1.781 1.875m.063-.703c-.36 0-.797-.015-1.141-.25C.313 2.828.172 2.47.172 2.11c0-.421.203-.765.484-.937.328-.203.719-.219 1.11-.219.312 0 .78 0 1.125.235.28.218.437.546.437.921 0 .422-.203.766-.469.938-.343.219-.765.234-1.093.234m0 0"/><path id="ao" d="M1.719 4.422c1 0 1.797-.813 1.797-1.781 0-.313-.079-.766-.5-1.172h.5L3.422.28h-.266c0 .563-.047.61-.375.61H-.922c-.36 0-.36-.11-.36-.61h-.265c.031.344.031.688.031.907 0 .234 0 .562-.03.906h.265c0-.516 0-.61.36-.61H.39a1.37 1.37 0 0 0-.47 1.047c0 1 .782 1.89 1.798 1.89m0-.719C.812 3.703.14 3.125.14 2.484c0-.28.125-.64.515-.906.14-.094.156-.094.297-.094h1.703c.313.188.61.594.61 1.094 0 .61-.672 1.125-1.547 1.125m0 0"/><path id="ap" d="M.438 1.625a.453.453 0 0 0 .453-.453.436.436 0 0 0-.438-.438.44.44 0 0 0-.453.438.45.45 0 0 0 .438.453m0 0"/><path id="aq" d="M0 3.563h.266V3.28c0-.75.093-.781.39-.781h4.422c.219 0 .219-.016.219-.234-.313-.328-.5-.75-.5-1.5H4.53c0 .218 0 .64.203 1.109H.656c-.297 0-.39-.031-.39-.781V.812H0c.031.329.031 1.016.031 1.376s0 1.046-.031 1.374m0 0"/><path id="ar" d="M1.36 3.875c.671 0 1.265-.531 1.453-1.344.218.625.75 1.11 1.39 1.11s1.094-.72 1.094-1.547c0-.86-.453-1.5-1.063-1.5-.296 0-.421.187-.421.406 0 .25.171.406.406.406.297 0 .406-.265.406-.437.438.344.469.953.469 1.094 0 .203-.063.812-.89.812-.548 0-.891-.234-1.016-.344-.25-.234-.266-.422-.297-.906 0-.156-.016-.219-.125-.219-.11 0-.11.078-.11.219v.39c0 .626-.453 1.032-1.297 1.032-1 0-1.28-.563-1.28-.985 0-.437.155-1.046.577-1.328 0 .297.188.5.438.5.265 0 .437-.187.437-.453 0-.203-.125-.437-.453-.437-.75 0-1.25.812-1.25 1.734 0 1.047.734 1.797 1.531 1.797m0 0"/><path id="as" d="M1.344 3.875c.5 0 .828-.266.968-.406.126-.125.141-.14.563-.828.219.453.61 1 1.234 1 .766 0 1.188-.782 1.188-1.516 0-.844-.578-1.531-1.328-1.531-.297 0-.563.094-.797.297-.172.14-.188.172-.5.656C2.234.563 1.656.344 1.219.344c-.89 0-1.39.89-1.39 1.765 0 .97.671 1.766 1.515 1.766m2.765-.64c-.453 0-.843-.36-1.078-.829l.594-1c.14-.234.375-.422.64-.422.5 0 .829.547.829 1.125 0 .61-.422 1.125-.985 1.125m-3.046.187c-.61 0-.985-.656-.985-1.297 0-.719.485-1.312 1.14-1.312.595 0 1.063.437 1.313.984l-.656 1.078c-.078.125-.328.547-.812.547m0 0"/><path id="at" d="M.031 1.719c.438 0 .86-.172.86-.547A.436.436 0 0 0 .453.734C.203.734 0 .906 0 1.172c0 .187.094.297.125.312-.25 0-.89 0-1.469-.593-.015-.032-.031-.047-.078-.047-.078 0-.125.062-.125.11 0 .093.625.765 1.578.765m0 0"/><path id="au" d="M-1.828 2.672h.047l3.765-1.469 3.782 1.469h.046c.094 0 .157-.063.157-.156a.17.17 0 0 0-.094-.157L2.047.891C2.03.875 2.016.875 1.984.875c-.015 0-.03 0-.046.016l-3.829 1.468a.17.17 0 0 0-.093.157c0 .093.062.156.156.156m0 0"/><path id="av" d="M1.14 4.547c.11 0 .11-.094.11-.125 0-.11-.031-.125-.25-.172C.61 4.156.14 4 .14 3.672c0-.219.173-.266.391-.266.14 0 .422.063.625.11l.719.187c.297.078.344.078.61.156.203.047.578.141.624.141.172 0 .25-.14.25-.266a.39.39 0 0 0-.312-.375.93.93 0 0 0 .469-.812C3.516 1.516 2.39.484 1.25.484.469.484-.078 1-.078 1.688c0 .437.25.812.562 1.14-.484.14-.562.61-.562.813 0 .28.172.484.422.625.312.187.765.28.797.28M2.595 3.25c-.031 0-.078-.016-.11-.016L1 2.86c-.234-.062-.39-.234-.531-.406C.39 2.375.14 2.063.14 1.72c0-.297.203-.594.78-.594.423 0 1.298.234 1.61.422.64.36.766.766.766 1 0 .547-.61.703-.703.703m0 0"/><path id="aw" d="M1.984 2.219h.063L5.875.734a.17.17 0 0 0 .094-.156.157.157 0 0 0-.157-.156c-.015 0-.03 0-.046.016L1.984 1.89-1.78.438c-.016-.016-.032-.016-.047-.016a.157.157 0 0 0-.156.156c0 .063.03.125.093.156L1.938 2.22zm0 0"/><path id="ax" d="M.828 3.938c.047 0 .125-.063.125-.126 0-.046-.015-.062-.078-.124C.141 3.062.141 2.125.141 1.984c0-.578.39-.828.89-.828.235 0 1.094.11 1.64.532.392.296.626.718.626 1.109 0 .11-.016.5-.25.687-.047-.28-.266-.406-.438-.406-.218 0-.296.172-.296.313 0 .172.124.453.515.453.531 0 .688-.61.688-1.047C3.516 1.609 2.422.5 1.313.5.625.5-.079.969-.079 1.969c0 1.344.781 1.969.906 1.969m0 0"/><path id="ay" d="M2.938 1.531a.42.42 0 0 0 .421-.422.42.42 0 0 0-.421-.421.42.42 0 0 0-.422.421.42.42 0 0 0 .422.422m-1.891 0a.42.42 0 0 0 .422-.422.42.42 0 0 0-.422-.421.42.42 0 0 0-.422.421.42.42 0 0 0 .422.422m0 0"/><path id="az" d="M4 3.203q.094 0 .094-.094c0-.234-.032-.5-.032-.734 0-.25.032-.516.032-.75 0-.047 0-.14-.14-.14-.079 0-.079.077-.079.187 0 .203 0 .36-.094.36-.047 0-.094-.016-.14-.016L.453 1.219C.266 1.172.22 1.125.22.719c0-.125 0-.188-.14-.188 0 0-.079 0-.079.078 0 .25.031.516.031.75 0 .25-.031.516-.031.75 0 .032 0 .125.125.125.094 0 .094-.062.094-.171 0 0 0-.126.015-.22 0-.14.016-.14.078-.14.032 0 .047 0 .126.016l3.187.797c.188.046.25.062.25.5 0 .125 0 .187.125.187m0 0"/><path id="aA" d="M13.61-7.687v-.516l-1.297.031c-.344 0-1.22 0-1.5-.031v.515c.14 0 1.187 0 1.187.172 0 0 0 .032-.047.141L9.938-2.047l-2.126-5.64h1.125v-.516c-.374.031-1.484.031-1.937.031-.375 0-1.531 0-1.828-.031v.515h1.016l.484 1.297-1.64 4.344-2.126-5.64h1.125v-.516c-.343.031-1.515.031-1.953.031-.375 0-1.515 0-1.812-.031v.515h1L4.109-.171c.079.203.11.281.375.281.266 0 .297-.078.375-.28l2.079-5.5 2.093 5.5c.063.202.094.28.36.28.234 0 .297-.046.375-.28L12.5-7.407c.094-.203.11-.282 1.11-.282m0 0"/><path id="bg" d="M9.953 0v-.516h-.312c-.657 0-.703-.062-.813-.218L5.61-5.047l2.844-2.406c.156-.14.266-.234 1.328-.234v-.516L8.5-8.172c-.36 0-1.297 0-1.594-.031v.515c.266 0 .547.016.86.141l-4.47 3.813v-3.953h1.267v-.516c-.344.031-1.625.031-2.047.031-.438 0-1.72 0-2.063-.031v.515H1.72v7.172H.453V0c.344-.031 1.625-.031 2.063-.031.422 0 1.703 0 2.047.031v-.516H3.297v-2.562L4.53-4.125l2.5 3.344c.016.031.063.094.063.14 0 .125-.578.125-.844.125V0c.39-.031 1.5-.031 1.953-.031.36 0 1.485 0 1.75.031m0 0"/><path id="bv" d="M5.766 0v-.516H4.14V-7.5c0-.344-.032-.344-.407-.344-.89.766-2.218.766-2.484.766h-.219v.516h.219c.422 0 1.063-.079 1.531-.235v6.281H1.125V0l2.313-.031Zm0 0"/><path id="bw" d="M6.031-2.562h-.5c-.031.25-.11.953-.297 1.062-.093.094-1.03.094-1.203.094h-1.86l1.72-1.422c1.328-1 2.14-1.61 2.14-2.75 0-1.422-1.281-2.266-2.86-2.266-1.343 0-2.5.766-2.5 1.907 0 .625.517.812.782.812.375 0 .813-.25.813-.797 0-.516-.375-.766-.75-.812.484-.547 1.109-.594 1.359-.594 1.11 0 1.625.89 1.625 1.766 0 .921-.625 1.78-1.125 2.296L.781-.546c-.11.109-.11.124-.11.343V0h5.017Zm0 0"/><path id="aB" d="M5.953-1.703c0-.125-.11-.125-.14-.125-.125 0-.141.047-.172.219-.203.765-.422 1.484-.907 1.484-.328 0-.359-.312-.359-.562s.031-.36.156-.875l.266-1.079.422-1.671c.093-.344.093-.36.093-.407 0-.203-.156-.328-.359-.328-.281 0-.453.266-.5.531-.203-.437-.562-.765-1.094-.765-1.406 0-2.875 1.75-2.875 3.5 0 1.125.657 1.906 1.579 1.906.25 0 .843-.047 1.562-.89.094.5.516.89 1.078.89.422 0 .703-.266.89-.656.204-.422.36-1.172.36-1.172M4.313-3.97c0 .078-.016.14-.032.203l-.593 2.344c-.063.219-.063.234-.25.438-.516.656-1.016.859-1.344.859-.594 0-.766-.656-.766-1.125 0-.61.375-2.078.656-2.625.375-.703.907-1.14 1.391-1.14.766 0 .938.968.938 1.046m0 0"/><path id="aP" d="M6.172-8.156s0-.14-.156-.14c-.188 0-1.313.108-1.516.14-.094 0-.172.062-.172.219 0 .14.11.14.281.14.579 0 .61.094.61.203l-.047.25-.719 2.828c-.203-.437-.562-.765-1.094-.765-1.406 0-2.875 1.75-2.875 3.5 0 1.125.657 1.906 1.579 1.906.25 0 .843-.047 1.562-.89.094.5.516.89 1.078.89.422 0 .703-.266.89-.656.204-.422.36-1.172.36-1.172 0-.125-.11-.125-.14-.125-.125 0-.141.047-.172.219-.203.765-.422 1.484-.907 1.484-.328 0-.359-.312-.359-.562 0-.282.031-.36.078-.563ZM4.312-3.97c0 .078-.015.14-.03.203l-.594 2.344c-.063.219-.063.234-.25.438-.516.656-1.016.859-1.344.859-.594 0-.766-.656-.766-1.125 0-.61.375-2.078.656-2.625.375-.703.907-1.14 1.391-1.14.766 0 .938.968.938 1.046m0 0"/><path id="aX" d="m10.344-8.156-.172-.11-.375.422c-.14.14-.36.266-.563.266-.078 0-.25-.031-.359-.047a18 18 0 0 1-1.687-.36l.078-.327-.063-.047-.672.297a10 10 0 0 0-.718-.047c-.954 0-1.813.187-2.657.859-.531.438-1.015 1-1.172 1.61-.046.202-.078.406.032.546.093.094.172.172.328.172.125 0 .265-.094.375-.172a.63.63 0 0 0 .219-.36c.03-.124.015-.296.015-.421.016-.172.016-.312.078-.469.047-.187.375-.61.656-.843.563-.438 1.126-.563 1.72-.563a4.5 4.5 0 0 1 .921.094l-.86 3.172H3.704l-.25.343h1.938l-.282 1.047c-.125.422-.25.844-.484 1.25a3 3 0 0 1-.687.875c-.407.375-.97.672-1.47.672-.312 0-.609-.078-.78-.312a1.1 1.1 0 0 1-.188-.407c-.094-.437-.14-.453-.312-.453a.73.73 0 0 0-.438.14c-.125.11-.203.204-.234.345-.063.25-.032.5.125.672.234.328.609.484 1.062.484.969 0 2.031-.39 2.844-1.094.437-.375.672-.687.906-1.094.281-.5.469-1.015.61-1.546l.14-.579h1.469l.344-.343H6.28l.766-2.97c.156.063.937.329 1.422.47.156.062.344.109.5.109.25 0 .531-.219.703-.422Zm0 0"/><path id="bd" d="M6.828-7.234c.063-.282.016-.578-.125-.75-.234-.328-.672-.407-1.125-.407-.719 0-1.406.094-2.062.625-.438.344-.766.829-.891 1.313-.11.469-.11.937.14 1.266.172.25.47.421.782.53l-.031.126a3.46 3.46 0 0 0-1.766.734C1.172-3.328.734-2.719.563-2.062.438-1.532.438-.984.734-.61c.204.265.516.437.829.562.406.14.859.188 1.328.188.89 0 1.797-.328 2.578-.953.11-.079.265-.297.39-.454l-.39-.578-.157.032c-.125.343-.312.656-.593.875-.469.375-1 .656-1.532.656-.562 0-1.14-.094-1.437-.5-.297-.39-.312-.922-.187-1.469.14-.547.453-1.062.921-1.437.344-.266.782-.407 1.157-.5.562-.125 1.109-.157 1.672-.157l.062-.312c-.406 0-.797-.032-1.172-.14-.25-.063-.5-.173-.656-.391-.219-.282-.266-.704-.172-1.125.14-.516.453-1.032.89-1.391.298-.25.688-.313 1.032-.313.281 0 .469.063.61.204a.5.5 0 0 1 .109.468c-.047.203-.157.328-.266.453-.078.094-.14.172-.187.282a.36.36 0 0 0 .03.234c.079.094.126.094.266.094s.422-.078.625-.266c.22-.234.282-.437.344-.687m0 0"/><path id="bh" d="M7.656-6.953c.094-.344.047-.656-.14-.906-.282-.391-.985-.47-1.375-.47-.891 0-1.766.22-2.657.813-.718.485-1.218 1.282-1.421 2.079-.172.718-.235 1.453.156 1.984.406.531 1.094.781 1.844.781.593 0 1.25-.172 1.828-.531l-.25 1.14c-.125.516-.328.97-.578 1.47-.22.374-.5.75-.86 1.046-.469.39-1.031.656-1.578.656-.36 0-.719-.062-.922-.328-.11-.156-.11-.375-.11-.593.016-.157.016-.329-.062-.438a.34.34 0 0 0-.281-.125.75.75 0 0 0-.469.14.84.84 0 0 0-.265.407.98.98 0 0 0 .172.89c.28.391.812.485 1.359.485.984 0 1.984-.406 2.86-1.11.452-.359.78-.812 1.03-1.328.36-.718.61-1.468.797-2.234l.391-1.578-.672.156c-.156.344-.5.828-.687.969-.47.39-1 .547-1.532.547-.5 0-.89-.219-1.156-.563-.36-.484-.312-1.187-.14-1.86a3.62 3.62 0 0 1 1.265-1.952 2.5 2.5 0 0 1 1.547-.516c.297 0 .719.11.922.406.14.188.219.407.14.672-.046.219-.125.469-.328.64-.28.22-.546.25-.828.25l-.093.204c.187.031.468.11.53.11.36 0 .704-.188 1.016-.438.297-.25.47-.563.547-.875m0 0"/><path id="aC" d="M7.547 0 4.28-5.016l3.125-3.28H6.281L2.094-3.892v-4.406h-1V0h1v-2.703L3.64-4.328 6.453 0Zm0 0"/><path id="aD" d="M1.813 0v-5.312H.938V0Zm.078-6.797v-1.016H.859v1.016Zm0 0"/><path id="aE" d="M8.328 0v-3.594c0-.828-.219-1.828-1.61-1.828-1.015 0-1.577.703-1.765.969-.203-.766-.86-.969-1.484-.969-.985 0-1.5.625-1.703.875v-.812H.922V0h.906v-2.969c0-.797.313-1.734 1.188-1.734 1.093 0 1.156.75 1.156 1.187V0h.906v-2.969c0-.797.313-1.734 1.188-1.734 1.093 0 1.156.75 1.156 1.187V0Zm0 0"/><path id="aF" d="M2.14.703v-6.015h-.89v6.14c0 .781-.625.86-.875.86-.531 0-.86-.344-.875-.375l-.234.718c.375.235.859.406 1.406.406.75 0 1.469-.624 1.469-1.734m0-7.5v-1.016H1.11v1.016Zm0 0"/><path id="aG" d="M4.86-2.687c0-.516-.048-1.25-.423-1.876-.5-.828-1.328-.921-1.671-.921C1.469-5.484.39-4.25.39-2.687.39-1.11 1.547.124 2.92.124c.563 0 1.22-.156 1.876-.64 0-.047-.047-.438-.047-.438s-.031-.281-.031-.328c-.703.593-1.407.687-1.766.687-.922 0-1.703-.828-1.734-2.093Zm-.704-.641h-2.86c.204-.813.767-1.438 1.47-1.438.359 0 1.187.157 1.39 1.438m0 0"/><path id="aH" d="M4.203-1.516c0-.609-.36-1-.406-1.046-.453-.47-.813-.532-1.531-.672-.438-.094-1.047-.203-1.047-.813 0-.734.843-.734 1-.734.625 0 1.125.14 1.656.437l.14-.765a3.9 3.9 0 0 0-1.687-.375c-.265 0-1.937 0-1.937 1.547 0 .53.297.89.468 1.062.438.36.735.422 1.438.563.39.093 1.078.234 1.078.859 0 .828-.922.828-1.094.828A3.12 3.12 0 0 1 .47-1.219l-.14.813c.046.031.859.531 1.968.531 1.547 0 1.906-.937 1.906-1.64m0 0"/><path id="aI" d="m3.89-.344-.171-.703c-.422.375-.86.422-1.078.422-.532 0-.594-.562-.594-.984v-3h1.64v-.703h-1.64v-1.516h-.828v1.516h-1v.703h.969v3.203c0 .703.156 1.531.984 1.531.797 0 1.36-.281 1.719-.469m0 0"/><path id="aJ" d="M4.797 0v-3.5c0-1.156-.828-1.984-1.938-1.984-.718 0-1.25.172-1.843.5l.078.78c.515-.374 1.062-.593 1.765-.593.547 0 1.032.453 1.032 1.313v.5c-.547.015-1.266.062-1.985.297C1.11-2.422.641-1.97.641-1.375c0 .531.312 1.5 1.328 1.5.656 0 1.5-.203 1.937-.562V0ZM3.89-1.61c0 .25 0 .532-.407.766-.312.203-.718.25-.906.25-.64 0-1.078-.343-1.078-.797 0-.812 1.656-.984 2.39-.984Zm0 0"/><path id="aK" d="M2.11-.016v-.953h-.97V0h.298L1.14 1.5h.468Zm0 0"/><path id="aL" d="M4.86-.5c0-.031-.032-.406-.048-.453l-.015-.344a2.8 2.8 0 0 1-1.828.672c-1 0-1.64-.875-1.64-2.047 0-.984.484-2.078 1.671-2.078.797 0 1.14.203 1.656.547l.14-.781c-.702-.407-1.093-.5-1.796-.5-1.656 0-2.578 1.453-2.578 2.812C.422-1.14 1.516.125 2.953.125c.578 0 1.25-.156 1.906-.625m0 0"/><path id="aM" d="M5.484-2.625c0-1.625-1.187-2.86-2.562-2.86-1.406 0-2.563 1.266-2.563 2.86 0 1.563 1.188 2.75 2.563 2.75 1.406 0 2.562-1.219 2.562-2.75m-.906-.125c0 1.469-.844 2.125-1.656 2.125-.86 0-1.656-.719-1.656-2.125 0-1.453.89-2.016 1.656-2.016.812 0 1.656.625 1.656 2.016m0 0"/><path id="aN" d="M7.766-5.312H6.89l-.703 2.437c-.172.563-.516 1.688-.563 2.203-.047-.281-.234-1.078-.484-1.937l-.797-2.703H3.53L2.844-2.97c-.219.75-.5 1.781-.531 2.282h-.016c-.016-.235-.14-.86-.375-1.672l-.844-2.953H.172L1.766 0h.922c.453-1.5 1.156-3.781 1.218-4.61h.016c.015.485.265 1.344.344 1.626L5.109 0h1.063Zm0 0"/><path id="aO" d="M5.172-5.312h-.89c-.548 1.421-1.47 3.765-1.516 4.625H2.75c-.062-.72-.687-2.282-.797-2.532L1.11-5.312H.172L2.39 0l-.422 1.094c-.266.593-.438.656-.657.656-.171 0-.546-.047-.921-.187l.078.78c.062.016.469.095.844.095.296 0 .843 0 1.359-1.313Zm0 0"/><path id="aQ" d="m3.688-5.36-.485-.515-.828.719v-3.14H1.5v3.874L.328-3.375l.453.547.719-.656V0h.875v-4.234Zm0 0"/><path id="aR" d="M5.063 0v-3.594c0-.734-.157-1.828-1.594-1.828-.672 0-1.25.297-1.703.875v-.812H.922V0h.906v-2.969c0-.75.281-1.734 1.188-1.734 1.109 0 1.14.766 1.14 1.187V0Zm0 0"/><path id="aS" d="M4.86-2.687c0-.516-.048-1.25-.423-1.876-.5-.828-1.328-.921-1.671-.921C1.469-5.484.39-4.25.39-2.687.39-1.141 1.5.078 2.844.124c-.531.344-.875.828-.828 1.39 0 .516.375 1.016 1.172 1.016.39 0 .703-.062 1.171-.297l-.156-.703c-.266.11-.547.172-.812.172-.328-.031-.625-.094-.625-.453-.016-.531.5-.969 1.047-1.281.328-.094.64-.25.984-.485 0-.046-.047-.437-.047-.437s-.031-.281-.031-.328c-.703.593-1.407.687-1.766.687-.922 0-1.703-.828-1.734-2.093Zm-.704-.641h-2.86c.204-.813.767-1.438 1.47-1.438.359 0 1.187.157 1.39 1.438m0 0"/><path id="aT" d="M4.703 0v-.734H2.984c-.14 0-.28.015-.421.015H1.547l3.11-4.125v-.468H.483v.703h2.953L.329-.484V0Zm0 0"/><path id="aU" d="M5.563-2.672c0-1.437-.75-2.75-1.875-2.75-.485 0-1.25.156-1.876.672v-.562H.939v7.625h.906V-.531c.406.36.906.656 1.547.656 1.156 0 2.172-1.172 2.172-2.797m-.907.016c0 1.203-.812 2.062-1.703 2.062-.328 0-.562-.125-.781-.297-.297-.25-.328-.468-.328-.656v-2.469a1.47 1.47 0 0 1 1.219-.671c.874 0 1.593.89 1.593 2.03m0 0"/><path id="aV" d="M5.063 0v-5.312h-.907v3.421c0 .907-.625 1.36-1.406 1.36-.844 0-.922-.313-.922-.844v-3.937H.922v3.984c0 .86.265 1.453 1.25 1.453.344 0 1.281-.062 2.015-.719V0Zm0 0"/><path id="aW" d="M4.86-6.562c0-.922-.563-1.86-2.25-1.86-.938 0-1.61.375-1.97.64l.266.735a2.5 2.5 0 0 1 1.719-.656c.64 0 1.328.156 1.328 1.125 0 .547-.25.766-.453.937C2.828-5.062 2.203-4 2.203-2.67v.608h.766v-.578c0-1.28.781-2.125 1.234-2.5.25-.203.656-.593.656-1.421M3.077 0v-.969H2.11V0Zm0 0"/><path id="aY" d="M2.11 0v-8.297H1.077V0Zm0 0"/><path id="aZ" d="M5.063 0v-8.297h-.891v3.485a2.65 2.65 0 0 0-1.688-.61c-1.14 0-2.062 1.219-2.062 2.766S1.297.125 2.437.125c.438 0 1.11-.156 1.704-.734V0ZM4.14-1.406c-.282.515-.703.812-1.22.812-.733 0-1.593-.562-1.593-2.047 0-1.593 1.016-2.062 1.703-2.062.469 0 .86.234 1.11.625Zm0 0"/><path id="ba" d="M3.797-4.625v-.797c-1.078 0-1.719.64-2.047 1.11V-5.36H.938V0h.875v-2.625c0-1.203.906-1.984 1.984-2m0 0"/><path id="bb" d="M5.563-2.672c0-1.469-.782-2.75-1.891-2.75-.344 0-1.11.063-1.86.672v-3.547H.939V0h.906v-.531c.547.515 1.125.656 1.547.656 1.14 0 2.172-1.172 2.172-2.797m-.907 0c0 1.563-.968 2.078-1.703 2.078-.328 0-.562-.125-.781-.297-.281-.25-.328-.453-.328-.656V-4.03c.218-.328.64-.672 1.234-.672.719 0 1.578.547 1.578 2.031m0 0"/><path id="bc" d="M1.813 0v-8.297H.938V0Zm0 0"/><path id="be" d="M5.063 0v-3.594c0-.734-.157-1.828-1.594-1.828-.672 0-1.25.297-1.703.875v-.812H.922V0h.906v-2.969c0-.75.281-1.734 1.188-1.734 1.109 0 1.14.766 1.14 1.187V0ZM4.64-8.297h-.907l-1.562 2h.719Zm0 0"/><path id="bf" d="M2.11 0v-.969h-.97V0Zm0 0"/><path id="bi" d="M6.797-5.875c0-1.266-1.172-2.422-2.797-2.422H1.094V0h1.015v-3.453H4c1.656 0 2.797-1.188 2.797-2.422m-.953-.016c0 .938-.735 1.75-2.094 1.75H2.094v-3.484H3.75c1.406 0 2.094.828 2.094 1.734m0 0"/><path id="bj" d="m5.219 2.234-.157-.703c-.265.11-.546.172-.812.172-.328-.031-.61-.094-.625-.453C3.609.719 4.109.313 4.656 0h.14v-3.5c0-1.156-.827-1.984-1.937-1.984-.718 0-1.25.172-1.843.5l.078.78c.515-.374 1.062-.593 1.765-.593.547 0 1.032.453 1.032 1.313v.5c-.547.015-1.266.062-1.985.297C1.11-2.422.641-1.97.641-1.375c0 .531.312 1.5 1.328 1.5.656 0 1.5-.203 1.937-.562V0c-.594.328-1.078.906-1.031 1.516 0 .515.375 1.015 1.172 1.015.406 0 .703-.062 1.172-.297M3.89-1.609c0 .25 0 .53-.407.765-.312.203-.718.25-.906.25-.64 0-1.078-.343-1.078-.797 0-.812 1.656-.984 2.39-.984Zm0 0"/><path id="bk" d="m5.672-4.703-.125-.719c-.234 0-1.047 0-1.828.39-.39-.327-.875-.39-1.11-.39-1.046 0-1.875.875-1.875 1.922 0 .422.125.828.391 1.188a1.64 1.64 0 0 0-.344 1.015c0 .453.156.75.297.906C.468 0 .328.516.328.844c0 .875 1.125 1.61 2.594 1.61 1.453 0 2.594-.704 2.594-1.61 0-1.688-1.938-1.688-2.422-1.688H2.078c-.172 0-.672 0-.672-.625 0-.265.047-.343.11-.437.203.14.593.343 1.078.343 1.031 0 1.875-.859 1.875-1.937a2.13 2.13 0 0 0-.36-1.156 7 7 0 0 1 .954-.063c.046 0 .312 0 .609.016M3.64-3.5c0 1.063-.672 1.281-1.032 1.281-.53 0-1.062-.36-1.062-1.265 0-1.063.672-1.282 1.047-1.282.531 0 1.047.36 1.047 1.266M4.688.844c0 .562-.829.953-1.766.953-.922 0-1.766-.375-1.766-.953 0-.047 0-.813.907-.813h1.046c.266 0 1.579 0 1.579.813m0 0"/><path id="bl" d="M5.469 0 3.25-3.266l1.969-2.046h-1.11L1.813-2.906v-5.39H.938V0h.828v-1.719l.906-.953L4.5 0Zm0 0"/><path id="bm" d="M5.484-2.625c0-1.625-1.187-2.86-2.562-2.86-1.406 0-2.563 1.266-2.563 2.86 0 1.563 1.188 2.75 2.563 2.75 1.406 0 2.562-1.219 2.562-2.75m-.906-.125c0 1.469-.844 2.125-1.656 2.125-.86 0-1.656-.719-1.656-2.125 0-1.453.89-2.016 1.656-2.016.812 0 1.656.625 1.656 2.016m-.016-5.547h-.906l-1.547 2h.72Zm0 0"/><path id="bn" d="M4.703 0v-.734H2.984c-.14 0-.28.015-.421.015H1.547l3.11-4.125v-.468H.483v.703h2.953L.329-.484V0ZM3.047-6.797v-1.016H2.016v1.016Zm0 0"/><path id="bo" d="M4.86-.5c0-.031-.032-.406-.048-.453l-.015-.344a2.8 2.8 0 0 1-1.828.672c-1 0-1.64-.875-1.64-2.047 0-.984.484-2.078 1.671-2.078.797 0 1.14.203 1.656.547l.14-.781c-.702-.407-1.093-.5-1.796-.5-1.656 0-2.578 1.453-2.578 2.812C.422-1.14 1.516.125 2.953.125c.578 0 1.25-.156 1.906-.625M4.5-8.297h-.922l-1.547 2h.719Zm0 0"/><path id="bp" d="M7.11-2.25c0-1.047-1.032-1.89-2.266-2.094 1.39-.375 1.937-1.172 1.937-1.875 0-1.078-1.218-2.078-2.906-2.078H1.109V0h3.094C5.875 0 7.11-1.078 7.11-2.25M5.86-6.203c0 .844-1.032 1.531-2.298 1.531H2.079v-2.953h1.469c1.281 0 2.312.625 2.312 1.422m.312 3.937c0 .844-.969 1.594-2.313 1.594H2.08v-3.281h1.593c1.547 0 2.5.86 2.5 1.687m0 0"/><path id="bq" d="M4.203-1.516c0-.609-.36-1-.406-1.046-.453-.47-.813-.532-1.531-.672-.438-.094-1.047-.203-1.047-.813 0-.734.843-.734 1-.734.625 0 1.125.14 1.656.437l.14-.765a3.9 3.9 0 0 0-1.687-.375c-.265 0-1.937 0-1.937 1.547 0 .53.297.89.468 1.062.438.36.735.422 1.438.563.39.093 1.078.234 1.078.859 0 .828-.922.828-1.094.828A3.12 3.12 0 0 1 .47-1.219l-.14.813c.046.031.859.531 1.968.531 1.547 0 1.906-.937 1.906-1.64m-.312-6.78h-.922l-1.547 2h.719Zm0 0"/><path id="br" d="M5.063 0v-3.594c0-.734-.157-1.828-1.594-1.828-.828 0-1.375.469-1.656.813v-3.688H.922V0h.906v-2.969c0-.75.281-1.734 1.188-1.734 1.109 0 1.14.766 1.14 1.187V0Zm0 0"/><path id="bs" d="M7-.453v-3.172H4.547v.719h1.531v2.031a4.6 4.6 0 0 1-1.531.25c-.766 0-1.469-.422-1.938-1.031-.546-.703-.796-1.594-.796-2.485 0-.906.25-1.796.796-2.5.47-.609 1.172-1.03 1.938-1.03.39 0 .797.046 1.172.187.375.14.718.375 1.015.64l.172-1c-.36-.187-.734-.36-1.14-.453a5.4 5.4 0 0 0-1.22-.125c-1.03 0-1.984.469-2.655 1.25C1.14-6.344.78-5.266.78-4.14c0 1.094.36 2.188 1.11 3.016.672.766 1.625 1.25 2.656 1.25C5.39.125 6.234-.078 7-.453m0 0"/><path id="bx" d="M5.547 0v-.25h-.125c-.469 0-.516-.078-.594-.266L3.125-4.812c-.031-.11-.062-.157-.187-.157-.141 0-.157.047-.204.157L1.125-.734C1.063-.562.938-.25.313-.25V0c.234-.016.484-.031.718-.031.282 0 .797.031.844.031v-.25c-.312 0-.516-.14-.516-.328 0-.063.016-.078.047-.14l.328-.86H3.72l.406 1.016c0 .03.031.078.031.109 0 .203-.375.203-.562.203V0l1.031-.031c.328 0 .86.031.922.031M3.609-1.828H1.83l.89-2.266Zm0 0"/><path id="by" d="M4.047 0v-.25c-.469 0-.516-.047-.516-.39v-4.204l-1.047.078v.25c.47 0 .516.063.516.391v1.453a1.37 1.37 0 0 0-.969-.406c-.937 0-1.703.703-1.703 1.578S1.062.063 1.938.063c.578 0 .921-.297 1.03-.422v.422ZM2.969-.734c-.172.328-.531.609-.985.609-.39 0-.671-.234-.812-.437-.14-.204-.219-.485-.219-.922 0-.172 0-.688.281-1.016.282-.312.625-.375.829-.375.328 0 .64.156.828.406.078.11.078.11.078.25Zm0 0"/><path id="bz" d="M5.469-2.75V-3c-.188.016-.313.031-.5.031-.219 0-.485-.015-.688-.031v.25c.235 0 .36.14.36.297 0 .062 0 .078-.047.172L3.922-.547l-.75-1.906a.3.3 0 0 1-.031-.125c0-.156.172-.172.375-.172V-3c-.25.016-.5.031-.75.031-.203 0-.422-.015-.625-.031v.25c.172 0 .312 0 .406.047.094.078.156.312.156.312s-.015.063-.031.079L2.016-.641l-.703-1.812c-.032-.094-.032-.094-.032-.125 0-.172.25-.172.375-.172V-3s-.515.031-.797.031C.641-2.969.422-2.984.203-3v.25c.281 0 .438 0 .5.203l.969 2.453c.047.11.062.157.203.157.125 0 .14-.047.172-.141l.797-1.984.765 1.968c.047.094.063.157.204.157.124 0 .14-.047.187-.157l.875-2.234c.14-.344.375-.422.594-.422m0 0"/><path id="bA" d="M3.266-.844c0-.015-.016-.094-.125-.094-.094 0-.11.047-.125.11-.22.562-.75.672-1 .672-.328 0-.641-.14-.844-.406-.266-.329-.266-.75-.266-1.032h2.157c.156 0 .203 0 .203-.14 0-.625-.344-1.375-1.391-1.375a1.59 1.59 0 0 0-1.61 1.578c0 .89.782 1.594 1.704 1.594.937 0 1.297-.75 1.297-.907m-.485-.922H.906c.078-.984.703-1.14.969-1.14.86 0 .89.969.906 1.14m0 0"/><path id="bB" d="M4.11 0v-.25c-.454 0-.516 0-.516-.297v-1.562c0-.61-.297-.97-1.047-.97-.578 0-.938.313-1.14.688v-.687L.374-3v.25c.469 0 .531.047.531.39v1.813c0 .297-.078.297-.531.297V0s.5-.031.797-.031c.25 0 .734.031.797.031v-.25c-.453 0-.516 0-.516-.297v-1.265c0-.72.578-1.063 1.031-1.063.485 0 .547.375.547.734v1.594c0 .297-.062.297-.515.297V0s.5-.031.797-.031c.25 0 .734.031.796.031m0 0"/><path id="bC" d="M2.61-.875v-.39h-.235v.374c0 .485-.219.735-.5.735-.469 0-.469-.578-.469-.703V-2.75h1.078V-3H1.406v-1.281h-.25c0 .625-.281 1.312-.953 1.328v.203h.64v1.875c0 .781.595.938.985.938.469 0 .781-.391.781-.938m0 0"/><path id="bD" d="M3.516-1.266H3.28c-.015.157-.094.563-.187.625-.047.047-.578.047-.688.047H1.125c.734-.64.984-.843 1.39-1.172.516-.406 1-.843 1-1.5 0-.843-.734-1.359-1.624-1.359-.86 0-1.453.61-1.453 1.25 0 .344.296.39.375.39.156 0 .359-.124.359-.374 0-.125-.047-.375-.406-.375.218-.485.687-.641 1.015-.641.703 0 1.063.547 1.063 1.11 0 .609-.438 1.078-.656 1.328L.516-.266C.437-.203.437-.187.437 0h2.876Zm0 0"/><path id="bE" d="M3.594-2.219c0-.765-.094-1.328-.406-1.812-.22-.313-.657-.594-1.204-.594C.36-4.625.36-2.719.36-2.219s0 2.36 1.625 2.36c1.61 0 1.61-1.86 1.61-2.36m-.625-.094c0 .516 0 1.032-.094 1.47-.14.64-.61.78-.89.78-.329 0-.75-.187-.891-.75C1-1.219 1-1.796 1-2.312c0-.515 0-1.046.094-1.421.156-.547.593-.703.89-.703.375 0 .735.234.86.64.11.375.125.875.125 1.485m0 0"/><path id="bF" d="M3.516-1.406c0-.782-.594-1.5-1.453-1.5-.313 0-.672.062-.985.328v-1.313c.36.094.563.094.672.094.922 0 1.469-.625 1.469-.734 0-.078-.047-.094-.078-.094 0 0-.032 0-.063.016-.172.062-.531.203-1.047.203-.203 0-.562-.016-1.015-.188-.079-.031-.094-.031-.094-.031-.094 0-.094.078-.094.188v2.046c0 .125 0 .204.11.204.062 0 .078 0 .14-.094.297-.375.734-.438.969-.438.422 0 .61.328.64.39.126.235.172.5.172.907 0 .203 0 .61-.218.922a.98.98 0 0 1-.813.422c-.453 0-.922-.25-1.094-.719.266.016.407-.156.407-.344 0-.296-.266-.343-.36-.343 0 0-.343 0-.343.375 0 .625.578 1.25 1.406 1.25.89 0 1.672-.657 1.672-1.547m0 0"/><path id="bG" d="M7.813-1.75v-.203H.109v.203Zm0 0"/><path id="bH" d="M3.578-2.297c0-1.719-.765-2.328-1.578-2.328a1.55 1.55 0 0 0-1.11.422c-.234.234-.515.5-.515 1.125 0 .89.703 1.547 1.516 1.547.562 0 .859-.375 1.015-.688v.14c0 1.735-.844 2-1.265 2-.157 0-.532-.015-.72-.233a.315.315 0 0 0 .313-.329.32.32 0 0 0-.328-.328c-.203 0-.328.14-.328.344 0 .469.39.766 1.063.766 1 0 1.937-.938 1.937-2.438M2.891-3c0 .906-.516 1.266-.953 1.266-.282 0-.532-.079-.735-.407-.156-.25-.156-.546-.156-.937 0-.406 0-.672.203-.953.172-.25.39-.39.75-.39s.578.218.688.405c.187.282.203.782.203 1.016m0 0"/><path id="bI" d="M2.516 0v-.25h-.172c-.578 0-.578-.078-.578-.328v-3.61c0-.234 0-.328.578-.328h.172v-.25l-1.078.032-1.079-.032v.25h.172c.578 0 .578.094.578.329v3.609c0 .25 0 .328-.578.328H.36V0l1.079-.031Zm0 0"/><path id="bJ" d="M3.578-1.422c0-.89-.703-1.547-1.515-1.547-.563 0-.86.375-1.016.688 0-.563.047-1.078.312-1.516.235-.375.61-.625 1.063-.625.203 0 .484.047.625.234-.172.016-.328.141-.328.344a.32.32 0 0 0 .328.328c.219 0 .344-.14.344-.343 0-.407-.297-.766-.985-.766-1 0-2.031.922-2.031 2.422C.375-.406 1.219.14 2 .14c.844 0 1.578-.657 1.578-1.563m-.672 0c0 .39 0 .688-.187.969A.82.82 0 0 1 2-.078c-.36 0-.625-.203-.781-.516-.094-.203-.157-.562-.157-.968 0-.688.407-1.204.97-1.204.312 0 .53.125.702.375.172.266.172.563.172.97m0 0"/><path id="bK" d="M2.016 1.734v-.328h-.72V-4.89h.72v-.328H.953v6.953Zm0 0"/><path id="bL" d="M3.797-4.484H1.969c-.282 0-.36-.016-.61-.032C1-4.546.984-4.594.97-4.703H.734L.484-3.22H.72c.015-.11.094-.562.203-.64.047-.032.625-.032.719-.032h1.515l-.719.922c-.906 1.188-1 2.297-1 2.703 0 .079 0 .407.329.407.343 0 .343-.313.343-.407v-.28c0-1.345.282-1.97.579-2.345l1.046-1.312c.063-.094.063-.11.063-.281m0 0"/><path id="bM" d="M1.297 1.734v-6.953H.219v.328h.734v6.297H.22v.328Zm0 0"/><path id="bN" d="M3.578-1.172c0-.469-.265-.86-.672-1.094l-.437-.25c.547-.265.89-.593.89-1.078 0-.672-.703-1.031-1.375-1.031-.765 0-1.39.5-1.39 1.156 0 .328.156.563.281.703.125.157.172.188.578.422-.39.172-1.078.547-1.078 1.281 0 .766.797 1.204 1.594 1.204.89 0 1.61-.563 1.61-1.313M3-3.594c0 .625-.734.938-.734.938s-.032 0-.079-.031l-.843-.485c-.188-.11-.375-.297-.375-.562 0-.438.5-.688 1-.688.547 0 1.031.344 1.031.828m.156 2.657c0 .53-.578.859-1.172.859-.64 0-1.187-.422-1.187-.984 0-.516.375-.922.875-1.141.39.219.406.219.969.547.172.11.515.312.515.718m0 0"/><path id="bO" d="M4.563 0v-.437H3.266v-5.157c0-.187 0-.297-.266-.297-.11 0-.125 0-.203.063-.688.516-1.656.516-1.828.516H.797v.437h.172a4.2 4.2 0 0 0 1.203-.172v4.61H.89V0c.343-.031 1.422-.031 1.828-.031.422 0 1.484 0 1.844.031m0 0"/><path id="bP" d="M4.86-2.953c0-.469-.032-1.39-.485-2.094-.297-.437-.828-.844-1.719-.844-1.281 0-2.218.72-2.218 1.938 0 1.125.765 1.937 2.093 1.937.406 0 .781-.203 1.063-.687v.172c0 .578-.063 1.156-.235 1.531-.109.234-.468.703-1.171.703-.079 0-.454 0-.735-.187a.55.55 0 0 0 .422-.563c0-.375-.281-.578-.578-.578-.25 0-.594.14-.594.594 0 .61.469 1.14 1.5 1.14 1.25 0 2.656-.796 2.656-3.062m-1.266-.89c0 .406-.172 1.452-1.031 1.452-.86 0-.86-.656-.86-1.53 0-.876 0-1.61.984-1.61.563 0 .766.515.797.593.11.297.11.782.11 1.094m0 0"/><path id="bQ" d="M4.86-1.61c0-.718-.532-1.327-1.548-1.546.907-.313 1.25-.938 1.25-1.485 0-.671-.671-1.25-2-1.25-1.109 0-1.828.594-1.828 1.329 0 .406.282.656.641.656.39 0 .656-.281.656-.656 0-.297-.172-.547-.531-.625.063-.063.438-.344 1.016-.344.78 0 .78.593.78.875 0 .5-.187 1.281-.968 1.328l-.422.031c-.14.016-.14.11-.14.172 0 .188.093.188.265.188h.422c1 0 1 .874 1 1.328 0 .406 0 1.312-.953 1.312-.11 0-.734-.016-1.14-.312.406-.11.5-.47.5-.672 0-.422-.298-.703-.72-.703-.374 0-.702.25-.702.703 0 .843.906 1.39 2.093 1.39 1.64 0 2.328-.906 2.328-1.718m0 0"/><clipPath id="b"><path d="M.535.266h6.883v9.636H.535Zm0 0"/></clipPath><clipPath id="a"><path d="M0 0h8v10H0z"/></clipPath><clipPath id="bt"><path d="M15.023 568.348H403v11.336H15.023Zm0 0"/></clipPath><linearGradient id="bu" x1="0" x2="388.063" y1="0" y2="0" gradientTransform="matrix(1 0 0 -1 15.024 579.685)" gradientUnits="userSpaceOnUse"><stop offset="0" stop-color="#f2f2f2"/><stop offset=".25" stop-color="#f2f2f2"/><stop offset=".313" stop-color="#f2f2f2"/><stop offset=".344" stop-color="#f2f2f2"/><stop offset=".359" stop-color="#f3f3f3"/><stop offset=".363" stop-color="#f4f4f4"/><stop offset=".367" stop-color="#f5f5f5"/><stop offset=".371" stop-color="#f6f6f6"/><stop offset=".375" stop-color="#f7f7f7"/><stop offset=".379" stop-color="#f8f8f8"/><stop offset=".383" stop-color="#f9f9f9"/><stop offset=".387" stop-color="#fafafa"/><stop offset=".391" stop-color="#fbfbfb"/><stop offset=".395" stop-color="#fcfcfc"/><stop offset=".398" stop-color="#fcfcfc"/><stop offset=".406" stop-color="#fcfcfc"/><stop offset=".438" stop-color="#fcfcfc"/><stop offset=".5" stop-color="#fcfcfc"/><stop offset=".563" stop-color="#fcfcfc"/><stop offset=".566" stop-color="#fcfcfc"/><stop offset=".57" stop-color="#fbfbfb"/><stop offset=".574" stop-color="#fafafa"/><stop offset=".578" stop-color="#f9f9f9"/><stop offset=".582" stop-color="#f8f8f8"/><stop offset=".586" stop-color="#f7f7f7"/><stop offset=".59" stop-color="#f6f6f6"/><stop offset=".594" stop-color="#f5f5f5"/><stop offset=".598" stop-color="#f4f4f4"/><stop offset=".602" stop-color="#f3f3f3"/><stop offset=".609" stop-color="#f3f3f3"/><stop offset=".625" stop-color="#f2f2f2"/><stop offset=".75" stop-color="#f2f2f2"/><stop offset="1" stop-color="#f2f2f2"/></linearGradient><g id="c" clip-path="url(#a)"><g clip-path="url(#b)"><path fill-rule="evenodd" d="m3.977 7.836 3.441 2.066V1.645c0-.762-.617-1.38-1.375-1.38H1.914C1.152.266.535.884.535 1.646v8.257Zm-2.754.851 2.754-1.652L6.73 8.687V1.646a.69.69 0 0 0-.687-.692H1.914a.69.69 0 0 0-.691.692Zm0 0"/></g></g></defs><use xlink:href="#c" transform="translate(9 27)"/><use xlink:href="#d" x="17.008" y="23.315"/><use xlink:href="#e" x="20.884" y="23.315"/><use xlink:href="#f" x="26.154" y="23.315"/><use xlink:href="#g" x="30.03" y="23.315"/><use xlink:href="#h" x="36.116" y="23.315"/><use xlink:href="#i" x="42.961" y="23.315"/><use xlink:href="#e" x="49.048" y="23.315"/><use xlink:href="#j" x="54.322" y="25.775"/><use xlink:href="#j" x="57.501" y="25.775"/><use xlink:href="#k" x="384.039" y="23.315"/><use xlink:href="#l" x="390.168" y="23.315"/><use xlink:href="#m" x="392.79" y="23.315"/><use xlink:href="#n" x="396.727" y="23.315"/><use xlink:href="#o" x="148.854" y="34.908"/><use xlink:href="#p" x="157.988" y="34.908"/><use xlink:href="#q" x="161.048" y="34.908"/><use xlink:href="#r" x="175.801" y="34.908"/><use xlink:href="#s" x="179.22" y="34.908"/><use xlink:href="#t" x="185.329" y="34.908"/><use xlink:href="#u" x="190.374" y="34.908"/><use xlink:href="#u" x="199.591" y="34.908"/><use xlink:href="#v" x="204.421" y="34.908"/><use xlink:href="#w" x="219.664" y="34.908"/><use xlink:href="#x" x="223.25" y="34.908"/><use xlink:href="#y" x="229.141" y="34.908"/><use xlink:href="#z" x="233.902" y="34.908"/><use xlink:href="#A" x="240.008" y="34.908"/><use xlink:href="#B" x="244.616" y="34.908"/><use xlink:href="#C" x="248.526" y="34.908"/><use xlink:href="#D" x="253.134" y="34.908"/><use xlink:href="#E" x="257.743" y="34.908"/><use xlink:href="#F" x="262.351" y="34.908"/><path fill="none" stroke="#000" stroke-miterlimit="10" stroke-width=".398" d="M17.008 39.293h384.094"/><use xlink:href="#G" x="399.042" y="141.865"/><use xlink:href="#H" x="399.042" y="135.752"/><use xlink:href="#I" x="399.042" y="131.05"/><use xlink:href="#J" x="399.042" y="125.877"/><use xlink:href="#K" x="399.042" y="119.294"/><use xlink:href="#L" x="399.042" y="115.532"/><use xlink:href="#M" x="399.042" y="111.3"/><use xlink:href="#N" x="399.042" y="108.949"/><use xlink:href="#I" x="399.042" y="105.187"/><use xlink:href="#O" x="399.042" y="100.014"/><use xlink:href="#P" x="399.042" y="95.312"/><use xlink:href="#Q" x="399.042" y="92.961"/><use xlink:href="#R" x="399.042" y="88.729"/><use xlink:href="#S" x="399.042" y="84.497"/><use xlink:href="#T" x="399.042" y="79.323"/><use xlink:href="#U" x="399.042" y="76.223"/><use xlink:href="#V" x="399.042" y="71.281"/><use xlink:href="#S" x="399.042" y="68.181"/><use xlink:href="#W" x="399.042" y="63.008"/><use xlink:href="#X" x="399.042" y="56.791"/><use xlink:href="#U" x="399.042" y="51.922"/><use xlink:href="#Y" x="401.011" y="46.977"/><use xlink:href="#Y" x="401.011" y="44.257"/><use xlink:href="#Z" x="403.164" y="40.487"/><use xlink:href="#aa" x="403.164" y="47.07"/><use xlink:href="#ab" x="403.164" y="51.773"/><use xlink:href="#ac" x="403.164" y="54.124"/><use xlink:href="#ad" x="403.164" y="57.886"/><use xlink:href="#ae" x="403.164" y="65.401"/><use xlink:href="#af" x="403.164" y="69.163"/><use xlink:href="#ae" x="403.164" y="75.324"/><use xlink:href="#af" x="403.164" y="79.086"/><use xlink:href="#ag" x="403.164" y="82.425"/><use xlink:href="#ah" x="403.164" y="85.717"/><use xlink:href="#ai" x="403.164" y="92.77"/><use xlink:href="#aa" x="403.164" y="97.241"/><use xlink:href="#ae" x="403.164" y="101.944"/><use xlink:href="#af" x="403.164" y="108.527"/><use xlink:href="#aa" x="403.164" y="111.866"/><use xlink:href="#aj" x="403.164" y="116.569"/><use xlink:href="#ae" x="403.164" y="121.518"/><use xlink:href="#ak" x="403.164" y="128.101"/><use xlink:href="#ae" x="403.164" y="132.804"/><use xlink:href="#al" x="403.164" y="136.565"/><use xlink:href="#ak" x="403.164" y="141.738"/><use xlink:href="#ae" x="403.164" y="146.44"/><use xlink:href="#af" x="403.164" y="150.202"/><use xlink:href="#ab" x="403.164" y="153.541"/><use xlink:href="#ae" x="403.164" y="155.893"/><use xlink:href="#am" x="403.164" y="159.654"/><use xlink:href="#ag" x="403.164" y="162.954"/><use xlink:href="#an" x="403.164" y="166.246"/><use xlink:href="#ao" x="403.164" y="173.299"/><use xlink:href="#ap" x="403.164" y="178.001"/><use xlink:href="#aq" x="403.164" y="180.353"/><use xlink:href="#ar" x="403.164" y="184.585"/><use xlink:href="#as" x="403.164" y="188.817"/><use xlink:href="#at" x="403.164" y="193.049"/><use xlink:href="#au" x="403.164" y="198.223"/><use xlink:href="#av" x="403.164" y="201.323"/><use xlink:href="#aw" x="403.164" y="206.265"/><use xlink:href="#at" x="403.164" y="209.365"/><use xlink:href="#ax" x="403.164" y="214.538"/><use xlink:href="#ay" x="403.164" y="219.495"/><use xlink:href="#av" x="403.164" y="224.365"/><use xlink:href="#az" x="401.195" y="229.31"/><use xlink:href="#az" x="401.195" y="232.03"/><use xlink:href="#az" x="401.195" y="234.75"/><use xlink:href="#aA" x="92.068" y="60.909"/><use xlink:href="#aB" x="111.937" y="50.824" fill="red"/><use xlink:href="#aC" x="111.937" y="60.909"/><use xlink:href="#aD" x="119.995" y="60.909"/><use xlink:href="#aE" x="122.744" y="60.909"/><use xlink:href="#aF" x="135.895" y="60.909"/><use xlink:href="#aG" x="138.979" y="60.909"/><use xlink:href="#aH" x="144.18" y="60.909"/><use xlink:href="#aI" x="148.663" y="60.909"/><use xlink:href="#aI" x="156.792" y="60.909"/><use xlink:href="#aJ" x="161.024" y="60.909"/><use xlink:href="#aK" x="166.631" y="60.909"/><use xlink:href="#aL" x="173.78" y="60.909"/><use xlink:href="#aM" x="178.981" y="60.909"/><use xlink:href="#aN" x="188.736" y="60.909"/><use xlink:href="#aO" x="196.698" y="60.909"/><use xlink:href="#aP" x="202.056" y="50.824" fill="red"/><use xlink:href="#aQ" x="202.056" y="60.909"/><use xlink:href="#aJ" x="205.487" y="60.909"/><use xlink:href="#aR" x="211.094" y="60.909"/><use xlink:href="#aD" x="217.095" y="60.909"/><use xlink:href="#aJ" x="219.845" y="60.909"/><use xlink:href="#aH" x="229.349" y="60.909"/><use xlink:href="#aD" x="233.832" y="60.909"/><use xlink:href="#aS" x="236.582" y="60.909"/><use xlink:href="#aT" x="245.68" y="60.909"/><use xlink:href="#aU" x="254.658" y="60.909"/><use xlink:href="#aV" x="260.659" y="60.909"/><use xlink:href="#aB" x="266.661" y="50.824" fill="red"/><use xlink:href="#aH" x="266.661" y="60.909"/><use xlink:href="#aI" x="271.144" y="60.909"/><use xlink:href="#aO" x="275.053" y="60.909"/><use xlink:href="#aR" x="280.409" y="60.909"/><use xlink:href="#aD" x="286.411" y="60.909"/><use xlink:href="#aW" x="289.16" y="60.909"/><use xlink:href="#aC" x="111.937" y="82.287"/><use xlink:href="#aD" x="119.995" y="82.287"/><use xlink:href="#aE" x="122.744" y="82.287"/><use xlink:href="#aF" x="135.895" y="82.287"/><use xlink:href="#aG" x="138.979" y="82.287"/><use xlink:href="#aH" x="144.18" y="82.287"/><use xlink:href="#aI" x="148.663" y="82.287"/><use xlink:href="#aI" x="156.792" y="82.287"/><use xlink:href="#aJ" x="161.024" y="82.287"/><use xlink:href="#aK" x="166.631" y="82.287"/><use xlink:href="#aL" x="173.78" y="82.287"/><use xlink:href="#aM" x="178.981" y="82.287"/><use xlink:href="#aN" x="188.736" y="82.287"/><use xlink:href="#aO" x="196.698" y="82.287"/><use xlink:href="#aX" x="202.056" y="72.202" fill="red"/><use xlink:href="#aQ" x="202.056" y="82.287"/><use xlink:href="#aJ" x="205.487" y="82.287"/><use xlink:href="#aR" x="211.094" y="82.287"/><use xlink:href="#aD" x="217.095" y="82.287"/><use xlink:href="#aJ" x="219.845" y="82.287"/><use xlink:href="#aH" x="229.349" y="82.287"/><use xlink:href="#aD" x="233.832" y="82.287"/><use xlink:href="#aS" x="236.582" y="82.287"/><use xlink:href="#aT" x="245.68" y="82.287"/><use xlink:href="#aU" x="254.658" y="82.287"/><use xlink:href="#aV" x="260.659" y="82.287"/><use xlink:href="#aB" x="266.661" y="72.202" fill="red"/><use xlink:href="#aH" x="266.661" y="82.287"/><use xlink:href="#aI" x="271.144" y="82.287"/><use xlink:href="#aO" x="275.053" y="82.287"/><use xlink:href="#aR" x="280.409" y="82.287"/><use xlink:href="#aD" x="286.411" y="82.287"/><use xlink:href="#aW" x="289.16" y="82.287"/><use xlink:href="#aY" x="111.937" y="103.665"/><use xlink:href="#aZ" x="115.117" y="103.665"/><use xlink:href="#aT" x="121.118" y="103.665"/><use xlink:href="#aD" x="126.199" y="103.665"/><use xlink:href="#aG" x="128.949" y="103.665"/><use xlink:href="#aX" x="138.048" y="93.58" fill="red"/><use xlink:href="#aN" x="138.048" y="103.665"/><use xlink:href="#aH" x="146.01" y="103.665"/><use xlink:href="#aU" x="150.493" y="103.665"/><use xlink:href="#aJ" x="156.495" y="103.665"/><use xlink:href="#ba" x="161.779" y="103.665"/><use xlink:href="#aI" x="165.76" y="103.665"/><use xlink:href="#aJ" x="169.992" y="103.665"/><use xlink:href="#aR" x="179.496" y="103.665"/><use xlink:href="#aJ" x="185.497" y="103.665"/><use xlink:href="#aH" x="195.002" y="103.665"/><use xlink:href="#aN" x="199.485" y="103.665"/><use xlink:href="#aM" x="207.124" y="103.665"/><use xlink:href="#aD" x="212.982" y="103.665"/><use xlink:href="#aE" x="215.732" y="103.665"/><use xlink:href="#aM" x="228.882" y="103.665"/><use xlink:href="#bb" x="234.74" y="103.665"/><use xlink:href="#bc" x="240.741" y="103.665"/><use xlink:href="#aV" x="243.491" y="103.665"/><use xlink:href="#bd" x="249.494" y="93.58" fill="red"/><use xlink:href="#bb" x="249.494" y="103.665"/><use xlink:href="#aD" x="255.495" y="103.665"/><use xlink:href="#aG" x="258.245" y="103.665"/><use xlink:href="#be" x="263.445" y="103.665"/><use xlink:href="#aL" x="269.447" y="103.665"/><use xlink:href="#aV" x="274.647" y="103.665"/><use xlink:href="#bf" x="280.649" y="103.665"/><use xlink:href="#aY" x="111.937" y="125.044"/><use xlink:href="#aZ" x="115.117" y="125.044"/><use xlink:href="#aT" x="121.118" y="125.044"/><use xlink:href="#aD" x="126.199" y="125.044"/><use xlink:href="#aG" x="128.949" y="125.044"/><use xlink:href="#aX" x="138.048" y="114.958" fill="red"/><use xlink:href="#aN" x="138.048" y="125.044"/><use xlink:href="#aH" x="146.01" y="125.044"/><use xlink:href="#aU" x="150.493" y="125.044"/><use xlink:href="#aJ" x="156.495" y="125.044"/><use xlink:href="#ba" x="161.779" y="125.044"/><use xlink:href="#aI" x="165.76" y="125.044"/><use xlink:href="#aJ" x="169.992" y="125.044"/><use xlink:href="#aR" x="179.496" y="125.044"/><use xlink:href="#aJ" x="185.497" y="125.044"/><use xlink:href="#aH" x="195.002" y="125.044"/><use xlink:href="#aN" x="199.485" y="125.044"/><use xlink:href="#aO" x="207.447" y="125.044"/><use xlink:href="#aE" x="212.803" y="125.044"/><use xlink:href="#aM" x="225.953" y="125.044"/><use xlink:href="#bb" x="231.811" y="125.044"/><use xlink:href="#bc" x="237.812" y="125.044"/><use xlink:href="#aV" x="240.562" y="125.044"/><use xlink:href="#aB" x="246.565" y="114.958" fill="red"/><use xlink:href="#bb" x="246.565" y="125.044"/><use xlink:href="#aD" x="252.566" y="125.044"/><use xlink:href="#aG" x="255.316" y="125.044"/><use xlink:href="#be" x="260.516" y="125.044"/><use xlink:href="#aL" x="266.518" y="125.044"/><use xlink:href="#aV" x="271.718" y="125.044"/><use xlink:href="#bf" x="277.72" y="125.044"/><use xlink:href="#bg" x="95.427" y="149.411"/><use xlink:href="#bh" x="111.937" y="139.325" fill="red"/><use xlink:href="#bi" x="111.937" y="149.411"/><use xlink:href="#aM" x="119.062" y="149.411"/><use xlink:href="#aZ" x="125.243" y="149.411"/><use xlink:href="#aF" x="135.142" y="149.411"/><use xlink:href="#aJ" x="138.226" y="149.411"/><use xlink:href="#bb" x="143.833" y="149.411"/><use xlink:href="#aQ" x="149.834" y="149.411"/><use xlink:href="#aM" x="153.265" y="149.411"/><use xlink:href="#aR" x="159.123" y="149.411"/><use xlink:href="#aD" x="165.125" y="149.411"/><use xlink:href="#bj" x="167.874" y="149.411"/><use xlink:href="#aX" x="177.38" y="139.325" fill="red"/><use xlink:href="#aL" x="177.38" y="149.411"/><use xlink:href="#aD" x="182.58" y="149.411"/><use xlink:href="#aS" x="185.33" y="149.411"/><use xlink:href="#aM" x="194.428" y="149.411"/><use xlink:href="#bb" x="200.286" y="149.411"/><use xlink:href="#aV" x="206.287" y="149.411"/><use xlink:href="#aB" x="212.289" y="139.325" fill="red"/><use xlink:href="#aZ" x="212.289" y="149.411"/><use xlink:href="#aT" x="218.29" y="149.411"/><use xlink:href="#aD" x="223.371" y="149.411"/><use xlink:href="#aQ" x="226.121" y="149.411"/><use xlink:href="#aG" x="229.552" y="149.411"/><use xlink:href="#aE" x="234.752" y="149.411"/><use xlink:href="#aK" x="244.006" y="149.411"/><use xlink:href="#aI" x="111.937" y="170.789"/><use xlink:href="#aJ" x="116.169" y="170.789"/><use xlink:href="#aE" x="121.776" y="170.789"/><use xlink:href="#bh" x="134.927" y="160.703" fill="red"/><use xlink:href="#bk" x="134.927" y="170.789"/><use xlink:href="#aZ" x="140.785" y="170.789"/><use xlink:href="#aT" x="146.786" y="170.789"/><use xlink:href="#aD" x="151.867" y="170.789"/><use xlink:href="#aG" x="154.617" y="170.789"/><use xlink:href="#aL" x="163.715" y="170.789"/><use xlink:href="#aD" x="168.915" y="170.789"/><use xlink:href="#aS" x="171.665" y="170.789"/><use xlink:href="#aU" x="180.762" y="170.789"/><use xlink:href="#aM" x="187.087" y="170.789"/><use xlink:href="#aX" x="192.946" y="160.703" fill="red"/><use xlink:href="#aL" x="192.946" y="170.789"/><use xlink:href="#aT" x="198.146" y="170.789"/><use xlink:href="#aS" x="203.227" y="170.789"/><use xlink:href="#aQ" x="208.428" y="170.789"/><use xlink:href="#aJ" x="211.859" y="170.789"/><use xlink:href="#aI" x="221.363" y="170.789"/><use xlink:href="#aN" x="225.272" y="170.789"/><use xlink:href="#aM" x="232.912" y="170.789"/><use xlink:href="#aF" x="238.769" y="170.789"/><use xlink:href="#aJ" x="241.854" y="170.789"/><use xlink:href="#aB" x="251.359" y="160.703" fill="red"/><use xlink:href="#aE" x="251.359" y="170.789"/><use xlink:href="#aJ" x="260.612" y="170.789"/><use xlink:href="#aI" x="266.219" y="170.789"/><use xlink:href="#bl" x="270.451" y="170.789"/><use xlink:href="#aJ" x="276.13" y="170.789"/><use xlink:href="#aK" x="281.737" y="170.789"/><use xlink:href="#aI" x="111.937" y="192.167"/><use xlink:href="#aJ" x="116.169" y="192.167"/><use xlink:href="#aE" x="121.776" y="192.167"/><use xlink:href="#aX" x="134.927" y="182.082" fill="red"/><use xlink:href="#bk" x="134.927" y="192.167"/><use xlink:href="#aZ" x="140.785" y="192.167"/><use xlink:href="#aT" x="146.786" y="192.167"/><use xlink:href="#aD" x="151.867" y="192.167"/><use xlink:href="#aG" x="154.617" y="192.167"/><use xlink:href="#aI" x="163.715" y="192.167"/><use xlink:href="#aN" x="167.624" y="192.167"/><use xlink:href="#aM" x="175.263" y="192.167"/><use xlink:href="#aF" x="181.121" y="192.167"/><use xlink:href="#aJ" x="184.205" y="192.167"/><use xlink:href="#aE" x="193.71" y="192.167"/><use xlink:href="#aJ" x="202.963" y="192.167"/><use xlink:href="#aI" x="208.57" y="192.167"/><use xlink:href="#bl" x="212.802" y="192.167"/><use xlink:href="#aJ" x="218.48" y="192.167"/><use xlink:href="#aL" x="227.985" y="192.167"/><use xlink:href="#aD" x="233.185" y="192.167"/><use xlink:href="#aS" x="235.935" y="192.167"/><use xlink:href="#aT" x="245.033" y="192.167"/><use xlink:href="#ba" x="250.113" y="192.167"/><use xlink:href="#aM" x="254.094" y="192.167"/><use xlink:href="#bd" x="259.954" y="182.082" fill="red"/><use xlink:href="#aZ" x="259.954" y="192.167"/><use xlink:href="#aT" x="265.955" y="192.167"/><use xlink:href="#aD" x="271.036" y="192.167"/><use xlink:href="#aQ" x="273.786" y="192.167"/><use xlink:href="#aJ" x="277.217" y="192.167"/><use xlink:href="#aK" x="282.824" y="192.167"/><use xlink:href="#aI" x="111.937" y="213.545"/><use xlink:href="#aJ" x="116.169" y="213.545"/><use xlink:href="#aE" x="121.776" y="213.545"/><use xlink:href="#aX" x="134.927" y="203.46" fill="red"/><use xlink:href="#bk" x="134.927" y="213.545"/><use xlink:href="#aZ" x="140.785" y="213.545"/><use xlink:href="#aT" x="146.786" y="213.545"/><use xlink:href="#aD" x="151.867" y="213.545"/><use xlink:href="#aG" x="154.617" y="213.545"/><use xlink:href="#aI" x="163.715" y="213.545"/><use xlink:href="#aN" x="167.624" y="213.545"/><use xlink:href="#aM" x="175.263" y="213.545"/><use xlink:href="#aF" x="181.121" y="213.545"/><use xlink:href="#aJ" x="184.205" y="213.545"/><use xlink:href="#aE" x="193.71" y="213.545"/><use xlink:href="#aJ" x="202.963" y="213.545"/><use xlink:href="#aI" x="208.57" y="213.545"/><use xlink:href="#bl" x="212.802" y="213.545"/><use xlink:href="#aJ" x="218.48" y="213.545"/><use xlink:href="#aL" x="227.985" y="213.545"/><use xlink:href="#aD" x="233.185" y="213.545"/><use xlink:href="#aS" x="235.935" y="213.545"/><use xlink:href="#aV" x="245.033" y="213.545"/><use xlink:href="#ba" x="251.034" y="213.545"/><use xlink:href="#aM" x="255.015" y="213.545"/><use xlink:href="#aB" x="260.875" y="203.46" fill="red"/><use xlink:href="#aZ" x="260.875" y="213.545"/><use xlink:href="#aT" x="266.876" y="213.545"/><use xlink:href="#aD" x="271.957" y="213.545"/><use xlink:href="#aQ" x="274.707" y="213.545"/><use xlink:href="#aJ" x="278.138" y="213.545"/><use xlink:href="#bf" x="283.745" y="213.545"/><use xlink:href="#aA" x="92.068" y="234.924"/><use xlink:href="#aB" x="111.937" y="224.838" fill="red"/><use xlink:href="#aC" x="111.937" y="234.924"/><use xlink:href="#aD" x="119.995" y="234.924"/><use xlink:href="#aE" x="122.744" y="234.924"/><use xlink:href="#aF" x="135.895" y="234.924"/><use xlink:href="#aG" x="138.979" y="234.924"/><use xlink:href="#aH" x="144.18" y="234.924"/><use xlink:href="#aI" x="148.663" y="234.924"/><use xlink:href="#aI" x="156.792" y="234.924"/><use xlink:href="#aJ" x="161.024" y="234.924"/><use xlink:href="#aK" x="166.631" y="234.924"/><use xlink:href="#aL" x="173.78" y="234.924"/><use xlink:href="#aM" x="178.981" y="234.924"/><use xlink:href="#aN" x="188.736" y="234.924"/><use xlink:href="#aO" x="196.698" y="234.924"/><use xlink:href="#aP" x="202.056" y="224.838" fill="red"/><use xlink:href="#aQ" x="202.056" y="234.924"/><use xlink:href="#aJ" x="205.487" y="234.924"/><use xlink:href="#aR" x="211.094" y="234.924"/><use xlink:href="#aD" x="217.095" y="234.924"/><use xlink:href="#aJ" x="219.845" y="234.924"/><use xlink:href="#aH" x="229.349" y="234.924"/><use xlink:href="#aD" x="233.832" y="234.924"/><use xlink:href="#aS" x="236.582" y="234.924"/><use xlink:href="#aT" x="245.68" y="234.924"/><use xlink:href="#aU" x="254.658" y="234.924"/><use xlink:href="#aV" x="260.659" y="234.924"/><use xlink:href="#aB" x="266.661" y="224.838" fill="red"/><use xlink:href="#aH" x="266.661" y="234.924"/><use xlink:href="#aI" x="271.144" y="234.924"/><use xlink:href="#aO" x="275.053" y="234.924"/><use xlink:href="#aR" x="280.409" y="234.924"/><use xlink:href="#aD" x="286.411" y="234.924"/><use xlink:href="#aW" x="289.16" y="234.924"/><use xlink:href="#aC" x="111.937" y="256.302"/><use xlink:href="#aD" x="119.995" y="256.302"/><use xlink:href="#aE" x="122.744" y="256.302"/><use xlink:href="#aF" x="135.895" y="256.302"/><use xlink:href="#aG" x="138.979" y="256.302"/><use xlink:href="#aH" x="144.18" y="256.302"/><use xlink:href="#aI" x="148.663" y="256.302"/><use xlink:href="#aI" x="156.792" y="256.302"/><use xlink:href="#aJ" x="161.024" y="256.302"/><use xlink:href="#aK" x="166.631" y="256.302"/><use xlink:href="#aL" x="173.78" y="256.302"/><use xlink:href="#aM" x="178.981" y="256.302"/><use xlink:href="#aN" x="188.736" y="256.302"/><use xlink:href="#aO" x="196.698" y="256.302"/><use xlink:href="#aX" x="202.056" y="246.216" fill="red"/><use xlink:href="#aQ" x="202.056" y="256.302"/><use xlink:href="#aJ" x="205.487" y="256.302"/><use xlink:href="#aR" x="211.094" y="256.302"/><use xlink:href="#aD" x="217.095" y="256.302"/><use xlink:href="#aJ" x="219.845" y="256.302"/><use xlink:href="#aH" x="229.349" y="256.302"/><use xlink:href="#aD" x="233.832" y="256.302"/><use xlink:href="#aS" x="236.582" y="256.302"/><use xlink:href="#aT" x="245.68" y="256.302"/><use xlink:href="#aU" x="254.658" y="256.302"/><use xlink:href="#aV" x="260.659" y="256.302"/><use xlink:href="#aB" x="266.661" y="246.216" fill="red"/><use xlink:href="#aH" x="266.661" y="256.302"/><use xlink:href="#aI" x="271.144" y="256.302"/><use xlink:href="#aO" x="275.053" y="256.302"/><use xlink:href="#aR" x="280.409" y="256.302"/><use xlink:href="#aD" x="286.411" y="256.302"/><use xlink:href="#aW" x="289.16" y="256.302"/><use xlink:href="#aY" x="111.937" y="277.68"/><use xlink:href="#aZ" x="115.117" y="277.68"/><use xlink:href="#aT" x="121.118" y="277.68"/><use xlink:href="#aD" x="126.199" y="277.68"/><use xlink:href="#aG" x="128.949" y="277.68"/><use xlink:href="#aX" x="138.048" y="267.595" fill="red"/><use xlink:href="#aN" x="138.048" y="277.68"/><use xlink:href="#aH" x="146.01" y="277.68"/><use xlink:href="#aU" x="150.493" y="277.68"/><use xlink:href="#aJ" x="156.495" y="277.68"/><use xlink:href="#ba" x="161.779" y="277.68"/><use xlink:href="#aI" x="165.76" y="277.68"/><use xlink:href="#aJ" x="169.992" y="277.68"/><use xlink:href="#aR" x="179.496" y="277.68"/><use xlink:href="#aJ" x="185.497" y="277.68"/><use xlink:href="#aH" x="195.002" y="277.68"/><use xlink:href="#aN" x="199.485" y="277.68"/><use xlink:href="#aM" x="207.124" y="277.68"/><use xlink:href="#aD" x="212.982" y="277.68"/><use xlink:href="#aE" x="215.732" y="277.68"/><use xlink:href="#aM" x="228.882" y="277.68"/><use xlink:href="#bb" x="234.74" y="277.68"/><use xlink:href="#bc" x="240.741" y="277.68"/><use xlink:href="#aV" x="243.491" y="277.68"/><use xlink:href="#bd" x="249.494" y="267.595" fill="red"/><use xlink:href="#bb" x="249.494" y="277.68"/><use xlink:href="#aD" x="255.495" y="277.68"/><use xlink:href="#aG" x="258.245" y="277.68"/><use xlink:href="#be" x="263.445" y="277.68"/><use xlink:href="#aL" x="269.447" y="277.68"/><use xlink:href="#aV" x="274.647" y="277.68"/><use xlink:href="#bf" x="280.649" y="277.68"/><use xlink:href="#aY" x="111.937" y="299.058"/><use xlink:href="#aZ" x="115.117" y="299.058"/><use xlink:href="#aT" x="121.118" y="299.058"/><use xlink:href="#aD" x="126.199" y="299.058"/><use xlink:href="#aG" x="128.949" y="299.058"/><use xlink:href="#aX" x="138.048" y="288.973" fill="red"/><use xlink:href="#aN" x="138.048" y="299.058"/><use xlink:href="#aH" x="146.01" y="299.058"/><use xlink:href="#aU" x="150.493" y="299.058"/><use xlink:href="#aJ" x="156.495" y="299.058"/><use xlink:href="#ba" x="161.779" y="299.058"/><use xlink:href="#aI" x="165.76" y="299.058"/><use xlink:href="#aJ" x="169.992" y="299.058"/><use xlink:href="#aR" x="179.496" y="299.058"/><use xlink:href="#aJ" x="185.497" y="299.058"/><use xlink:href="#aH" x="195.002" y="299.058"/><use xlink:href="#aN" x="199.485" y="299.058"/><use xlink:href="#aO" x="207.447" y="299.058"/><use xlink:href="#aE" x="212.803" y="299.058"/><use xlink:href="#aM" x="225.953" y="299.058"/><use xlink:href="#bb" x="231.811" y="299.058"/><use xlink:href="#bc" x="237.812" y="299.058"/><use xlink:href="#aV" x="240.562" y="299.058"/><use xlink:href="#aB" x="246.565" y="288.973" fill="red"/><use xlink:href="#bb" x="246.565" y="299.058"/><use xlink:href="#aD" x="252.566" y="299.058"/><use xlink:href="#aG" x="255.316" y="299.058"/><use xlink:href="#be" x="260.516" y="299.058"/><use xlink:href="#aL" x="266.518" y="299.058"/><use xlink:href="#aV" x="271.718" y="299.058"/><use xlink:href="#bf" x="277.72" y="299.058"/><use xlink:href="#bg" x="95.427" y="323.425"/><use xlink:href="#bh" x="111.937" y="313.34" fill="red"/><use xlink:href="#bi" x="111.937" y="323.425"/><use xlink:href="#aM" x="119.062" y="323.425"/><use xlink:href="#aQ" x="124.92" y="323.425"/><use xlink:href="#bm" x="128.351" y="323.425"/><use xlink:href="#bn" x="134.209" y="323.425"/><use xlink:href="#aE" x="143.187" y="323.425"/><use xlink:href="#aR" x="152.441" y="323.425"/><use xlink:href="#aD" x="158.442" y="323.425"/><use xlink:href="#aG" x="161.192" y="323.425"/><use xlink:href="#aI" x="170.289" y="323.425"/><use xlink:href="#aJ" x="174.521" y="323.425"/><use xlink:href="#bl" x="180.128" y="323.425"/><use xlink:href="#aF" x="189.704" y="323.425"/><use xlink:href="#aJ" x="192.789" y="323.425"/><use xlink:href="#bl" x="198.396" y="323.425"/><use xlink:href="#aM" x="203.751" y="323.425"/><use xlink:href="#aX" x="213.509" y="313.34" fill="red"/><use xlink:href="#aU" x="213.509" y="323.425"/><use xlink:href="#aD" x="219.51" y="323.425"/><use xlink:href="#aG" x="222.26" y="323.425"/><use xlink:href="#aL" x="227.46" y="323.425"/><use xlink:href="#aT" x="232.661" y="323.425"/><use xlink:href="#aS" x="237.742" y="323.425"/><use xlink:href="#bo" x="242.942" y="323.425"/><use xlink:href="#aR" x="252.04" y="323.425"/><use xlink:href="#aJ" x="258.041" y="323.425"/><use xlink:href="#aI" x="267.546" y="323.425"/><use xlink:href="#aN" x="271.455" y="323.425"/><use xlink:href="#aO" x="279.417" y="323.425"/><use xlink:href="#aE" x="284.773" y="323.425"/><use xlink:href="#aB" x="297.924" y="313.34" fill="red"/><use xlink:href="#aH" x="297.924" y="323.425"/><use xlink:href="#aG" x="302.407" y="323.425"/><use xlink:href="#ba" x="307.608" y="323.425"/><use xlink:href="#aL" x="311.589" y="323.425"/><use xlink:href="#aV" x="316.789" y="323.425"/><use xlink:href="#aK" x="322.79" y="323.425"/><use xlink:href="#bh" x="111.937" y="334.718" fill="red"/><use xlink:href="#aF" x="111.937" y="344.803"/><use xlink:href="#aJ" x="115.021" y="344.803"/><use xlink:href="#bl" x="120.628" y="344.803"/><use xlink:href="#aM" x="125.984" y="344.803"/><use xlink:href="#aI" x="135.739" y="344.803"/><use xlink:href="#aJ" x="139.971" y="344.803"/><use xlink:href="#aX" x="145.579" y="334.718" fill="red"/><use xlink:href="#aI" x="145.579" y="344.803"/><use xlink:href="#aV" x="149.811" y="344.803"/><use xlink:href="#aJ" x="155.812" y="344.803"/><use xlink:href="#bn" x="161.419" y="344.803"/><use xlink:href="#aR" x="170.398" y="344.803"/><use xlink:href="#aJ" x="176.399" y="344.803"/><use xlink:href="#aI" x="185.903" y="344.803"/><use xlink:href="#aN" x="189.813" y="344.803"/><use xlink:href="#aG" x="197.452" y="344.803"/><use xlink:href="#aF" x="202.652" y="344.803"/><use xlink:href="#aB" x="209.635" y="334.718" fill="red"/><use xlink:href="#ba" x="209.635" y="344.803"/><use xlink:href="#aS" x="213.616" y="344.803"/><use xlink:href="#aL" x="218.816" y="344.803"/><use xlink:href="#aG" x="224.017" y="344.803"/><use xlink:href="#bf" x="229.217" y="344.803"/><use xlink:href="#bp" x="111.937" y="366.182"/><use xlink:href="#aM" x="119.708" y="366.182"/><use xlink:href="#aN" x="125.243" y="366.182"/><use xlink:href="#aD" x="133.205" y="366.182"/><use xlink:href="#aG" x="135.955" y="366.182"/><use xlink:href="#aE" x="141.155" y="366.182"/><use xlink:href="#aF" x="154.306" y="366.182"/><use xlink:href="#aJ" x="157.39" y="366.182"/><use xlink:href="#bl" x="162.997" y="366.182"/><use xlink:href="#aX" x="172.574" y="356.096" fill="red"/><use xlink:href="#bq" x="172.574" y="366.182"/><use xlink:href="#aE" x="177.057" y="366.182"/><use xlink:href="#aD" x="186.31" y="366.182"/><use xlink:href="#aG" x="189.06" y="366.182"/><use xlink:href="#ba" x="194.26" y="366.182"/><use xlink:href="#bo" x="198.241" y="366.182"/><use xlink:href="#aU" x="207.339" y="366.182"/><use xlink:href="#aM" x="213.663" y="366.182"/><use xlink:href="#aI" x="219.521" y="366.182"/><use xlink:href="#aS" x="223.753" y="366.182"/><use xlink:href="#bn" x="228.954" y="366.182"/><use xlink:href="#aR" x="234.035" y="366.182"/><use xlink:href="#aJ" x="240.036" y="366.182"/><use xlink:href="#aF" x="249.54" y="366.182"/><use xlink:href="#aG" x="252.625" y="366.182"/><use xlink:href="#aH" x="257.825" y="366.182"/><use xlink:href="#aI" x="262.308" y="366.182"/><use xlink:href="#bd" x="270.439" y="356.096" fill="red"/><use xlink:href="#aE" x="270.439" y="366.182"/><use xlink:href="#aD" x="279.692" y="366.182"/><use xlink:href="#aQ" x="282.442" y="366.182"/><use xlink:href="#aM" x="285.873" y="366.182"/><use xlink:href="#bq" x="291.731" y="366.182"/><use xlink:href="#bo" x="296.214" y="366.182"/><use xlink:href="#aK" x="301.414" y="366.182"/><use xlink:href="#aF" x="111.937" y="387.56"/><use xlink:href="#aJ" x="115.021" y="387.56"/><use xlink:href="#bl" x="120.628" y="387.56"/><use xlink:href="#aX" x="130.205" y="377.475" fill="red"/><use xlink:href="#aU" x="130.205" y="387.56"/><use xlink:href="#aQ" x="136.206" y="387.56"/><use xlink:href="#aM" x="139.637" y="387.56"/><use xlink:href="#aE" x="145.495" y="387.56"/><use xlink:href="#aD" x="154.749" y="387.56"/><use xlink:href="#aG" x="157.498" y="387.56"/><use xlink:href="#be" x="162.699" y="387.56"/><use xlink:href="#aK" x="168.7" y="387.56"/><use xlink:href="#aL" x="175.849" y="387.56"/><use xlink:href="#aM" x="181.05" y="387.56"/><use xlink:href="#aU" x="190.805" y="387.56"/><use xlink:href="#aM" x="197.129" y="387.56"/><use xlink:href="#aL" x="203.31" y="387.56"/><use xlink:href="#br" x="208.51" y="387.56"/><use xlink:href="#aM" x="214.512" y="387.56"/><use xlink:href="#aZ" x="220.692" y="387.56"/><use xlink:href="#aT" x="226.694" y="387.56"/><use xlink:href="#aD" x="231.775" y="387.56"/><use xlink:href="#aM" x="238.422" y="387.56"/><use xlink:href="#aZ" x="244.602" y="387.56"/><use xlink:href="#bd" x="254.503" y="377.475" fill="red"/><use xlink:href="#bi" x="254.503" y="387.56"/><use xlink:href="#aJ" x="261.628" y="387.56"/><use xlink:href="#aR" x="267.235" y="387.56"/><use xlink:href="#aJ" x="273.236" y="387.56"/><use xlink:href="#aK" x="278.843" y="387.56"/><use xlink:href="#aD" x="111.937" y="408.938"/><use xlink:href="#aX" x="118.585" y="398.853" fill="red"/><use xlink:href="#aN" x="118.585" y="408.938"/><use xlink:href="#aM" x="126.224" y="408.938"/><use xlink:href="#aZ" x="132.405" y="408.938"/><use xlink:href="#aO" x="138.406" y="408.938"/><use xlink:href="#aF" x="147.66" y="408.938"/><use xlink:href="#aG" x="150.744" y="408.938"/><use xlink:href="#aF" x="155.944" y="408.938"/><use xlink:href="#aR" x="162.926" y="408.938"/><use xlink:href="#aD" x="168.928" y="408.938"/><use xlink:href="#aG" x="171.677" y="408.938"/><use xlink:href="#aV" x="180.775" y="408.938"/><use xlink:href="#bd" x="186.777" y="398.853" fill="red"/><use xlink:href="#bk" x="186.777" y="408.938"/><use xlink:href="#aJ" x="192.635" y="408.938"/><use xlink:href="#aH" x="198.242" y="408.938"/><use xlink:href="#aT" x="202.725" y="408.938"/><use xlink:href="#bj" x="207.806" y="408.938"/><use xlink:href="#bf" x="213.413" y="408.938"/><use xlink:href="#bs" x="111.937" y="430.316"/><use xlink:href="#aZ" x="119.744" y="430.316"/><use xlink:href="#aO" x="125.745" y="430.316"/><use xlink:href="#bb" x="131.101" y="430.316"/><use xlink:href="#aO" x="136.779" y="430.316"/><use xlink:href="#bq" x="142.135" y="430.316"/><use xlink:href="#aL" x="150.516" y="430.316"/><use xlink:href="#br" x="155.716" y="430.316"/><use xlink:href="#aL" x="161.718" y="430.316"/><use xlink:href="#aD" x="166.918" y="430.316"/><use xlink:href="#aJ" x="169.668" y="430.316"/><use xlink:href="#aQ" x="175.275" y="430.316"/><use xlink:href="#aX" x="182.927" y="420.231" fill="red"/><use xlink:href="#aM" x="182.927" y="430.316"/><use xlink:href="#aZ" x="189.108" y="430.316"/><use xlink:href="#aZ" x="195.109" y="430.316"/><use xlink:href="#aJ" x="201.111" y="430.316"/><use xlink:href="#bo" x="206.717" y="430.316"/><use xlink:href="#aT" x="215.815" y="430.316"/><use xlink:href="#aJ" x="220.896" y="430.316"/><use xlink:href="#aE" x="230.4" y="430.316"/><use xlink:href="#aD" x="239.654" y="430.316"/><use xlink:href="#aQ" x="242.403" y="430.316"/><use xlink:href="#aM" x="245.834" y="430.316"/><use xlink:href="#bq" x="251.692" y="430.316"/><use xlink:href="#bo" x="256.175" y="430.316"/><use xlink:href="#aN" x="111.937" y="451.695"/><use xlink:href="#aH" x="119.899" y="451.695"/><use xlink:href="#aT" x="124.382" y="451.695"/><use xlink:href="#aO" x="129.463" y="451.695"/><use xlink:href="#aH" x="134.819" y="451.695"/><use xlink:href="#aI" x="139.302" y="451.695"/><use xlink:href="#bl" x="143.534" y="451.695"/><use xlink:href="#aD" x="149.213" y="451.695"/><use xlink:href="#aG" x="151.962" y="451.695"/><use xlink:href="#bb" x="161.06" y="451.695"/><use xlink:href="#aM" x="167.384" y="451.695"/><use xlink:href="#bk" x="173.242" y="451.695"/><use xlink:href="#aJ" x="179.1" y="451.695"/><use xlink:href="#aL" x="184.707" y="451.695"/><use xlink:href="#aI" x="189.908" y="451.695"/><use xlink:href="#aN" x="193.817" y="451.695"/><use xlink:href="#aJ" x="201.456" y="451.695"/><use xlink:href="#aH" x="210.96" y="451.695"/><use xlink:href="#aN" x="215.443" y="451.695"/><use xlink:href="#aG" x="223.083" y="451.695"/><use xlink:href="#bk" x="228.283" y="451.695"/><use xlink:href="#aM" x="234.141" y="451.695"/><use xlink:href="#bd" x="243.899" y="441.609" fill="red"/><use xlink:href="#aZ" x="243.899" y="451.695"/><use xlink:href="#aM" x="249.9" y="451.695"/><use xlink:href="#aE" x="255.758" y="451.695"/><use xlink:href="#aV" x="265.012" y="451.695"/><use xlink:href="#aK" x="271.013" y="451.695"/><use xlink:href="#aX" x="111.937" y="462.987" fill="red"/><use xlink:href="#aT" x="111.937" y="473.073"/><use xlink:href="#aR" x="117.018" y="473.073"/><use xlink:href="#aJ" x="123.019" y="473.073"/><use xlink:href="#bc" x="128.626" y="473.073"/><use xlink:href="#aJ" x="131.376" y="473.073"/><use xlink:href="#aT" x="136.983" y="473.073"/><use xlink:href="#aQ" x="142.064" y="473.073"/><use xlink:href="#bb" x="145.817" y="473.073"/><use xlink:href="#aO" x="151.496" y="473.073"/><use xlink:href="#bq" x="156.852" y="473.073"/><use xlink:href="#aF" x="165.232" y="473.073"/><use xlink:href="#aG" x="168.317" y="473.073"/><use xlink:href="#aZ" x="173.517" y="473.073"/><use xlink:href="#aO" x="179.519" y="473.073"/><use xlink:href="#aR" x="184.874" y="473.073"/><use xlink:href="#aD" x="190.876" y="473.073"/><use xlink:href="#aG" x="193.626" y="473.073"/><use xlink:href="#aU" x="202.723" y="473.073"/><use xlink:href="#aM" x="209.047" y="473.073"/><use xlink:href="#bd" x="214.907" y="462.987" fill="red"/><use xlink:href="#bk" x="214.907" y="473.073"/><use xlink:href="#aJ" x="220.765" y="473.073"/><use xlink:href="#ba" x="226.049" y="473.073"/><use xlink:href="#aZ" x="230.03" y="473.073"/><use xlink:href="#aS" x="236.031" y="473.073"/><use xlink:href="#bf" x="241.232" y="473.073"/><use xlink:href="#aA" x="92.068" y="494.451"/><use xlink:href="#aB" x="111.937" y="484.366" fill="red"/><use xlink:href="#aC" x="111.937" y="494.451"/><use xlink:href="#aD" x="119.995" y="494.451"/><use xlink:href="#aE" x="122.744" y="494.451"/><use xlink:href="#aF" x="135.895" y="494.451"/><use xlink:href="#aG" x="138.979" y="494.451"/><use xlink:href="#aH" x="144.18" y="494.451"/><use xlink:href="#aI" x="148.663" y="494.451"/><use xlink:href="#aI" x="156.792" y="494.451"/><use xlink:href="#aJ" x="161.024" y="494.451"/><use xlink:href="#aK" x="166.631" y="494.451"/><use xlink:href="#aL" x="173.78" y="494.451"/><use xlink:href="#aM" x="178.981" y="494.451"/><use xlink:href="#aN" x="188.736" y="494.451"/><use xlink:href="#aO" x="196.698" y="494.451"/><use xlink:href="#aP" x="202.056" y="484.366" fill="red"/><use xlink:href="#aQ" x="202.056" y="494.451"/><use xlink:href="#aJ" x="205.487" y="494.451"/><use xlink:href="#aR" x="211.094" y="494.451"/><use xlink:href="#aD" x="217.095" y="494.451"/><use xlink:href="#aJ" x="219.845" y="494.451"/><use xlink:href="#aH" x="229.349" y="494.451"/><use xlink:href="#aD" x="233.832" y="494.451"/><use xlink:href="#aS" x="236.582" y="494.451"/><use xlink:href="#aT" x="245.68" y="494.451"/><use xlink:href="#aU" x="254.658" y="494.451"/><use xlink:href="#aV" x="260.659" y="494.451"/><use xlink:href="#aB" x="266.661" y="484.366" fill="red"/><use xlink:href="#aH" x="266.661" y="494.451"/><use xlink:href="#aI" x="271.144" y="494.451"/><use xlink:href="#aO" x="275.053" y="494.451"/><use xlink:href="#aR" x="280.409" y="494.451"/><use xlink:href="#aD" x="286.411" y="494.451"/><use xlink:href="#aW" x="289.16" y="494.451"/><use xlink:href="#aC" x="111.937" y="515.829"/><use xlink:href="#aD" x="119.995" y="515.829"/><use xlink:href="#aE" x="122.744" y="515.829"/><use xlink:href="#aF" x="135.895" y="515.829"/><use xlink:href="#aG" x="138.979" y="515.829"/><use xlink:href="#aH" x="144.18" y="515.829"/><use xlink:href="#aI" x="148.663" y="515.829"/><use xlink:href="#aI" x="156.792" y="515.829"/><use xlink:href="#aJ" x="161.024" y="515.829"/><use xlink:href="#aK" x="166.631" y="515.829"/><use xlink:href="#aL" x="173.78" y="515.829"/><use xlink:href="#aM" x="178.981" y="515.829"/><use xlink:href="#aN" x="188.736" y="515.829"/><use xlink:href="#aO" x="196.698" y="515.829"/><use xlink:href="#aX" x="202.056" y="505.744" fill="red"/><use xlink:href="#aQ" x="202.056" y="515.829"/><use xlink:href="#aJ" x="205.487" y="515.829"/><use xlink:href="#aR" x="211.094" y="515.829"/><use xlink:href="#aD" x="217.095" y="515.829"/><use xlink:href="#aJ" x="219.845" y="515.829"/><use xlink:href="#aH" x="229.349" y="515.829"/><use xlink:href="#aD" x="233.832" y="515.829"/><use xlink:href="#aS" x="236.582" y="515.829"/><use xlink:href="#aT" x="245.68" y="515.829"/><use xlink:href="#aU" x="254.658" y="515.829"/><use xlink:href="#aV" x="260.659" y="515.829"/><use xlink:href="#aB" x="266.661" y="505.744" fill="red"/><use xlink:href="#aH" x="266.661" y="515.829"/><use xlink:href="#aI" x="271.144" y="515.829"/><use xlink:href="#aO" x="275.053" y="515.829"/><use xlink:href="#aR" x="280.409" y="515.829"/><use xlink:href="#aD" x="286.411" y="515.829"/><use xlink:href="#aW" x="289.16" y="515.829"/><use xlink:href="#aY" x="111.937" y="537.207"/><use xlink:href="#aZ" x="115.117" y="537.207"/><use xlink:href="#aT" x="121.118" y="537.207"/><use xlink:href="#aD" x="126.199" y="537.207"/><use xlink:href="#aG" x="128.949" y="537.207"/><use xlink:href="#aX" x="138.048" y="527.122" fill="red"/><use xlink:href="#aN" x="138.048" y="537.207"/><use xlink:href="#aH" x="146.01" y="537.207"/><use xlink:href="#aU" x="150.493" y="537.207"/><use xlink:href="#aJ" x="156.495" y="537.207"/><use xlink:href="#ba" x="161.779" y="537.207"/><use xlink:href="#aI" x="165.76" y="537.207"/><use xlink:href="#aJ" x="169.992" y="537.207"/><use xlink:href="#aR" x="179.496" y="537.207"/><use xlink:href="#aJ" x="185.497" y="537.207"/><use xlink:href="#aH" x="195.002" y="537.207"/><use xlink:href="#aN" x="199.485" y="537.207"/><use xlink:href="#aM" x="207.124" y="537.207"/><use xlink:href="#aD" x="212.982" y="537.207"/><use xlink:href="#aE" x="215.732" y="537.207"/><use xlink:href="#aM" x="228.882" y="537.207"/><use xlink:href="#bb" x="234.74" y="537.207"/><use xlink:href="#bc" x="240.741" y="537.207"/><use xlink:href="#aV" x="243.491" y="537.207"/><use xlink:href="#bd" x="249.494" y="527.122" fill="red"/><use xlink:href="#bb" x="249.494" y="537.207"/><use xlink:href="#aD" x="255.495" y="537.207"/><use xlink:href="#aG" x="258.245" y="537.207"/><use xlink:href="#be" x="263.445" y="537.207"/><use xlink:href="#aL" x="269.447" y="537.207"/><use xlink:href="#aV" x="274.647" y="537.207"/><use xlink:href="#bf" x="280.649" y="537.207"/><use xlink:href="#aY" x="111.937" y="558.586"/><use xlink:href="#aZ" x="115.117" y="558.586"/><use xlink:href="#aT" x="121.118" y="558.586"/><use xlink:href="#aD" x="126.199" y="558.586"/><use xlink:href="#aG" x="128.949" y="558.586"/><use xlink:href="#aX" x="138.048" y="548.5" fill="red"/><use xlink:href="#aN" x="138.048" y="558.586"/><use xlink:href="#aH" x="146.01" y="558.586"/><use xlink:href="#aU" x="150.493" y="558.586"/><use xlink:href="#aJ" x="156.495" y="558.586"/><use xlink:href="#ba" x="161.779" y="558.586"/><use xlink:href="#aI" x="165.76" y="558.586"/><use xlink:href="#aJ" x="169.992" y="558.586"/><use xlink:href="#aR" x="179.496" y="558.586"/><use xlink:href="#aJ" x="185.497" y="558.586"/><use xlink:href="#aH" x="195.002" y="558.586"/><use xlink:href="#aN" x="199.485" y="558.586"/><use xlink:href="#aO" x="207.447" y="558.586"/><use xlink:href="#aE" x="212.803" y="558.586"/><use xlink:href="#aM" x="225.953" y="558.586"/><use xlink:href="#bb" x="231.811" y="558.586"/><use xlink:href="#bc" x="237.812" y="558.586"/><use xlink:href="#aV" x="240.562" y="558.586"/><use xlink:href="#aB" x="246.565" y="548.5" fill="red"/><use xlink:href="#bb" x="246.565" y="558.586"/><use xlink:href="#aD" x="252.566" y="558.586"/><use xlink:href="#aG" x="255.316" y="558.586"/><use xlink:href="#be" x="260.516" y="558.586"/><use xlink:href="#aL" x="266.518" y="558.586"/><use xlink:href="#aV" x="271.718" y="558.586"/><use xlink:href="#bf" x="277.72" y="558.586"/><g clip-path="url(#bt)"><path fill="url(#bu)" d="M15.023 579.684v-11.336h388.063v11.336Zm0 0"/></g><use xlink:href="#bv" x="17.008" y="577.985"/><use xlink:href="#bw" x="23.739" y="577.985"/><use xlink:href="#bw" x="30.469" y="577.985"/><use xlink:href="#bx" x="270.454" y="577.985"/><use xlink:href="#by" x="276.117" y="577.985"/><use xlink:href="#bz" x="280.517" y="577.985"/><use xlink:href="#bA" x="285.999" y="577.985"/><use xlink:href="#bB" x="289.542" y="577.985"/><use xlink:href="#bC" x="293.726" y="577.985"/><use xlink:href="#bD" x="299.515" y="577.985"/><use xlink:href="#bE" x="303.483" y="577.985"/><use xlink:href="#bD" x="307.451" y="577.985"/><use xlink:href="#bF" x="311.419" y="577.985"/><use xlink:href="#bG" x="318.072" y="577.985"/><use xlink:href="#bD" x="328.701" y="577.985"/><use xlink:href="#bH" x="332.669" y="577.985"/><use xlink:href="#bI" x="339.322" y="577.985"/><use xlink:href="#bD" x="344.888" y="577.985"/><use xlink:href="#bE" x="348.856" y="577.985"/><use xlink:href="#bD" x="352.824" y="577.985"/><use xlink:href="#bJ" x="356.792" y="577.985"/><use xlink:href="#bG" x="363.445" y="577.985"/><use xlink:href="#bK" x="374.074" y="577.985"/><use xlink:href="#bD" x="376.326" y="577.985"/><use xlink:href="#bL" x="380.295" y="577.985"/><use xlink:href="#bF" x="384.263" y="577.985"/><use xlink:href="#bM" x="388.231" y="577.985"/><use xlink:href="#bL" x="393.169" y="577.985"/><use xlink:href="#bN" x="397.137" y="577.985"/><path fill="#f2f2f2" stroke="#000" stroke-miterlimit="10" stroke-width=".797" d="M196.602 576.055v-3.989a2.99 2.99 0 0 1 2.988-2.988h18.93a2.99 2.99 0 0 1 2.988 2.988v3.989a2.99 2.99 0 0 1-2.988 2.988h-18.93a2.99 2.99 0 0 1-2.988-2.988Zm0 0"/><use xlink:href="#bO" x="198.439" y="576.948"/><use xlink:href="#bP" x="203.747" y="576.948"/><use xlink:href="#bP" x="209.055" y="576.948"/><use xlink:href="#bQ" x="214.363" y="576.948"/></svg>