<svg xmlns="http://www.w3.org/2000/svg" xmlns:xlink="http://www.w3.org/1999/xlink" width="559.371" height="793.701" viewBox="0 0 419.528 595.276"><defs><path id="d" d="M3.344 2.297v-.078L1.5-2.5l1.844-4.703v-.078c0-.11-.078-.203-.188-.203a.24.24 0 0 0-.203.14L1.11-2.562c-.015.015-.015.046-.015.062 0 .031 0 .063.015.078L2.953 2.36a.24.24 0 0 0 .203.141c.11 0 .188-.094.188-.203m0 0"/><path id="e" d="M4.969-1.422c0-.11-.094-.11-.125-.11-.094 0-.11.048-.14.188-.173.64-.345 1.235-.75 1.235-.282 0-.298-.266-.298-.453 0-.22.016-.313.125-.75L4-2.203l.36-1.39c.062-.282.062-.298.062-.344 0-.172-.11-.266-.281-.266-.25 0-.391.219-.422.437-.188-.375-.469-.64-.922-.64-1.156 0-2.39 1.468-2.39 2.922C.406-.547.952.109 1.718.109c.203 0 .703-.046 1.297-.75a.91.91 0 0 0 .906.75c.36 0 .578-.234.75-.546.156-.36.297-.985.297-.985m-1.375-1.89a.6.6 0 0 1-.031.171l-.485 1.954c-.062.187-.062.203-.203.375-.437.546-.844.703-1.125.703-.5 0-.64-.547-.64-.938 0-.5.312-1.719.546-2.187.313-.578.75-.953 1.157-.953.64 0 .78.812.78.875m0 0"/><path id="f" d="M2.781-2.5c0-.016 0-.047-.015-.062L.922-7.344c-.031-.078-.11-.14-.188-.14a.207.207 0 0 0-.203.203v.078L2.375-2.5.531 2.219v.078c0 .11.094.203.203.203.079 0 .157-.062.188-.14l1.844-4.782c.015-.015.015-.047.015-.078m0 0"/><path id="g" d="M6.047-.156c0-.094-.11-.11-.14-.11-.25 0-.376-.03-.5-.312L4.218-3.297 5.766-4.5c.218-.172.812-.625 1.312-.672.063-.016.156-.031.156-.156 0-.047-.03-.11-.109-.11 0 0-.234.016-.281.016h-.328c-.266 0-.563-.016-.813-.016-.047 0-.172 0-.172.141 0 .11.14.125.14.125.11 0 .173.047.173.11 0 .125-.14.25-.172.28l-.047.048c-.016.015-.031.015-.094.078L2.563-2.344l.609-2.5c.078-.265.125-.328.61-.328.171 0 .265 0 .265-.156 0-.047-.031-.11-.125-.11-.14 0-.313.016-.453.016h-.953l-.453-.016c-.047 0-.172 0-.172.141 0 .125.093.125.234.125.219 0 .438 0 .438.11 0 .046 0 .062-.032.171L1.47-.609c-.078.28-.125.343-.61.343-.171 0-.265 0-.265.157C.594-.047.64 0 .719 0c.031 0 .39-.016.453-.031h.484c.672 0 .89.031.938.031s.156 0 .156-.156c0-.11-.094-.11-.234-.11-.25 0-.438 0-.438-.125 0-.046.047-.218.078-.328l.297-1.203 1.25-.969.985 2.25c.046.094.046.11.046.141 0 .203-.187.234-.343.234-.094 0-.188.016-.188.157 0 .062.047.109.11.109.28 0 .578-.031.843-.031.672 0 .64.031.735.031.03 0 .156 0 .156-.156m0 0"/><path id="h" d="M2.828-1.14c0-.11-.11-.11-.156-.11-.125 0-.125.031-.172.172-.14.516-.406.937-.734.937-.157 0-.188-.109-.188-.25 0-.187.063-.328.188-.656l.515-1.39c.063-.172.094-.25.094-.422 0-.438-.312-.657-.656-.657-.75 0-1.078 1.11-1.078 1.22 0 .108.093.108.14.108.14 0 .14-.03.172-.171.125-.407.375-.938.75-.938.14 0 .172.11.172.25 0 .188-.047.344-.156.61L1.156-.953a1.1 1.1 0 0 0-.078.375c0 .36.266.656.672.656.75 0 1.078-1.125 1.078-1.219m.125-3.704a.354.354 0 0 0-.36-.375.55.55 0 0 0-.53.532c0 .234.171.359.359.359.265 0 .531-.234.531-.516m0 0"/><path id="i" d="M4.14-1.14c0-.11-.109-.11-.14-.11-.14 0-.156.047-.187.172-.11.453-.266.937-.61.937-.14 0-.25-.078-.25-.375 0-.125.031-.265.063-.39.03-.125.03-.172.03-.25 0-.563-.546-.75-1.108-.86.296-.187.625-.53.671-.593.454-.5.766-.688 1.063-.688.11 0 .172.063.203.11-.156.03-.344.171-.344.39s.188.266.281.266c.204 0 .407-.14.407-.453 0-.266-.157-.532-.547-.532s-.75.266-1.188.735c-.484.515-.656.594-.796.672l.796-3.188c0-.031.016-.094.016-.125 0-.11-.125-.11-.219-.094l-.828.063c-.11.016-.187.016-.187.156 0 .125.093.125.203.125.375 0 .375.047.375.11a.7.7 0 0 1-.032.171L.657-.266c0 .032-.015.079-.015.11 0 .11.078.234.25.234.14 0 .265-.094.328-.297l.39-1.578c.313.031.891.172.891.656 0 .047 0 .079-.031.188a1 1 0 0 0-.031.25c0 .437.296.781.734.781.36 0 .562-.265.656-.406.188-.297.313-.766.313-.813m0 0"/><path id="j" d="M4.297-2.172c0-.828-.547-1.344-1.266-1.344C2-3.516.921-2.437.921-1.266c0 .875.595 1.344 1.267 1.344 1.062 0 2.109-1.094 2.109-2.25m-.594-.281c0 .265-.125 1.031-.437 1.578-.266.438-.688.734-1.078.734-.297 0-.672-.203-.672-.843 0-.36.172-1.11.422-1.547.343-.578.812-.766 1.078-.766.39 0 .687.297.687.844m0 0"/><path id="k" d="m8.375-.344-3.344-4.5 3.14-2.953c.142-.125.142-.203.142-.25 0-.25-.235-.25-.407-.25h-.718c-.204 0-.454 0-.704.235l-3.843 3.64v-3.297c0-.39-.079-.578-.578-.578h-.407c-.422 0-.562.14-.562.578v7.14c0 .438.125.579.562.579h.407c.453 0 .578-.156.578-.578v-2l1.328-1.266L6.64-.25c.203.25.375.25.609.25h.703c.266 0 .422 0 .422-.344m0 0"/><path id="l" d="M4.453-.562c0-.032-.016-.125-.094-.375-.062-.235-.078-.313-.187-.313-.063 0-.078.016-.14.094-.141.093-.454.36-.954.36-.297 0-.469-.204-.469-1V-4.61h1.063c.14 0 .578 0 .578-.438 0-.422-.437-.422-.578-.422H2.609v-1c0-.375-.093-.578-.578-.578h-.375c-.422 0-.562.14-.562.578v1H.812c-.125 0-.578 0-.578.422 0 .438.438.438.579.438h.234v3.015c0 1.219.437 1.719 1.266 1.719.109 0 .624 0 1.25-.187.203-.063.89-.266.89-.5m0 0"/><path id="m" d="M6.188-2.687c0-1.97-.954-2.985-2.907-2.985-1.984 0-2.906 1.063-2.906 2.984C.375-.733 1.406.126 3.281.126s2.907-.86 2.907-2.812m-1.625-.141c0 .937 0 2.031-1.282 2.031C2-.797 2-1.875 2-2.828c0-.922 0-1.985 1.281-1.985s1.281 1.047 1.281 1.985m0 0"/><path id="n" d="M5.969-.578v-3.313c0-1.218-.516-1.718-1.735-1.718-1.265 0-1.796.906-1.953 1.234h-.015v-.594c0-.39-.079-.578-.563-.578h-.406c-.438 0-.578.125-.578.578v4.39c0 .438.125.579.578.579h.469c.453 0 .578-.156.578-.578v-2.64c0-1.032.687-1.532 1.312-1.532.578 0 .688.281.688.89v3.282c0 .39.093.578.578.578h.484c.453 0 .563-.156.563-.578m0 0"/><path id="o" d="M5.672-.578v-3.203c0-1.89-1.828-1.89-2.422-1.89-.562 0-1.156.046-1.953.374-.25.11-.313.14-.313.281 0 .079.063.766.079.875a.17.17 0 0 0 .156.125c.062 0 .093-.03.125-.078.515-.531 1.125-.797 1.86-.797.64 0 .843.391.843 1.094v.422c-.422 0-3.563.031-3.563 1.781C.484-.75 1.156.125 2.22.125c.406 0 1.297-.11 1.86-.937v.234c0 .39.077.578.577.578h.438c.453 0 .578-.156.578-.578M4.047-1.844c0 1.11-1.14 1.11-1.172 1.11-.516 0-.828-.422-.828-.875 0-1.172 1.656-1.266 2-1.266Zm0 0"/><path id="p" d="M4.734-1.687c0-.672-.359-1.079-.578-1.282-.468-.422-.89-.5-1.39-.594-.657-.124-1.141-.218-1.141-.687 0-.484.39-.578.86-.578.796 0 1.234.297 1.546.562.11.125.14.125.188.125.125 0 .14-.109.156-.156.031-.11.14-.766.14-.828 0-.187-.624-.36-.765-.406-.469-.14-.86-.14-1.172-.14-.531 0-2.14 0-2.14 1.702 0 .594.265.938.593 1.235.422.375.875.468 1.563.593.344.063.953.172.953.688 0 .562-.469.656-.922.656a2.21 2.21 0 0 1-1.766-.828c-.062-.062-.093-.094-.171-.094-.11 0-.141.11-.157.172-.015.172-.156.86-.156.969 0 .219.89.5.89.5a4.4 4.4 0 0 0 1.36.203c.61 0 2.11-.047 2.11-1.812m0 0"/><path id="q" d="M5.969-.578v-7.14c0-.391-.094-.579-.578-.579h-.438c-.453 0-.578.156-.578.578v2.703a2.18 2.18 0 0 0-1.5-.593C.438-5.61.438-3.312.438-2.72c0 .547 0 2.844 2.375 2.844.5 0 1.015-.14 1.53-.687 0 .437.157.562.563.562h.485c.453 0 .578-.156.578-.578M4.344-1.5c0 .203 0 .313-.344.563a1.35 1.35 0 0 1-.719.203c-1.219 0-1.219-1.094-1.219-1.985 0-.906 0-2.031 1.344-2.031.344 0 .672.125.938.375Zm0 0"/><path id="r" d="M4.39-6.469a.45.45 0 0 0-.64-.062l-.766.61V-7.72c0-.39-.078-.578-.562-.578h-.453c-.422 0-.563.14-.563.578v3.063l-1.078.843a.46.46 0 0 0-.062.626c.156.187.422.234.625.062l.515-.406v2.953c0 .437.125.578.563.578h.453c.453 0 .562-.156.562-.578v-4.219l1.329-1.062a.444.444 0 0 0 .078-.61m0 0"/><path id="s" d="m6.125 1.938-.14-.438c-.016-.078-.157-.156-.235-.14-.266.062-.516.14-.766.14s-.484-.11-.468-.469C4.53.641 4.703.234 5.094 0c.453 0 .578-.156.578-.578v-3.203c0-1.89-1.828-1.89-2.422-1.89-.562 0-1.156.046-1.953.374-.25.11-.313.14-.313.281 0 .079.063.766.079.875a.17.17 0 0 0 .156.125c.062 0 .093-.03.125-.078.515-.531 1.125-.797 1.86-.797.64 0 .843.391.843 1.094v.422c-.422 0-3.563.031-3.563 1.781C.484-.75 1.156.125 2.22.125c.406 0 1.297-.11 1.86-.937v.234c0 .14 0 .265.046.36-.406.39-.797 1.03-.797 1.562 0 .672.438 1.203 1.297 1.203.438 0 .969-.172 1.39-.39.063-.032.11-.141.11-.22M4.047-1.844c0 1.11-1.14 1.11-1.172 1.11-.516 0-.828-.422-.828-.875 0-1.172 1.656-1.266 2-1.266Zm0 0"/><path id="t" d="M5.469-.594c0-.14-.047-.687-.078-.843 0-.032-.032-.157-.141-.157-.047 0-.078 0-.187.125-.204.172-.766.672-1.75.672-1.25 0-1.25-1.219-1.25-1.969 0-.968.062-1.984 1.28-1.984.782 0 1.11.203 1.532.547.14.14.172.14.219.14.125 0 .14-.109.156-.156.016-.093.14-.765.14-.828 0-.11-.077-.156-.28-.25-.579-.266-.938-.375-1.782-.375-1.781 0-2.89.828-2.89 2.922C.438-.766 1.468.125 3.28.125c.313 0 1.031 0 1.828-.406.344-.188.36-.203.36-.313m0 0"/><path id="u" d="M5.266-.437c0-.454-.36-.454-.72-.454L2.72-.875h-.547l2.922-3.687c.125-.157.14-.22.14-.407 0-.5-.375-.5-.578-.5H1.125c-.156 0-.578 0-.578.453 0 .438.39.438.703.438l1.734-.031h.454L.515-.906C.39-.75.375-.687.375-.5c0 .5.36.5.563.5h3.765c.156 0 .563 0 .563-.437m0 0"/><path id="v" d="M5.656-5.156c0-.313-.328-.313-.484-.313h-.266c-.187 0-.453 0-.625.266-.031.062-1 2.703-1.062 3.5h-.016c-.062-.578-.547-1.688-1.062-2.844-.328-.75-.422-.922-1.016-.922H.813c-.172 0-.47 0-.47.313 0 .047.032.125.063.187L2.672 0c-.11.25-.14.375-.172.5-.14.39-.344.938-1 .938-.39 0-.656-.172-.797-.25C.641 1.14.625 1.14.578 1.14s-.14.03-.14.172c0 .093.062.921.093.968.11.14.766.172.953.172 1.485 0 2.063-1.406 2.157-1.703l1.953-5.656c.062-.157.062-.188.062-.25m0 0"/><path id="w" d="M2.594 2.234c-.375-.5-1.25-1.64-.64-4.484.609-2.828 1.952-3.969 2.546-4.484h-.594c-1.25.89-2.265 2.422-2.703 4.484-.453 2.14-.031 3.625.813 4.484Zm0 0"/><path id="x" d="M5.703 0 4.516-2.922c.968-.25 1.75-.89 1.906-1.625.203-.922-.688-1.672-1.969-1.672h-2.25L.875 0h.828l.61-2.828h1.421L4.844 0Zm-.062-4.547c-.125.578-.782 1.14-1.891 1.14H2.438l.484-2.28h1.312c1.047 0 1.547.5 1.407 1.14m0 0"/><path id="y" d="m3.703 0 .125-.594H2.484c-.109 0-.218.016-.328.016h-.75L4.453-3.61l.063-.375H1.234l-.125.562h2.282L.344-.39.266 0Zm0 0"/><path id="z" d="M4.563-1.625c.125-.562-.094-1.219-.938-1.547.61-.172 1.281-.656 1.422-1.328.172-.812-.438-1.562-1.453-1.562-1.047 0-1.953.765-2.125 1.562-.14.672.312 1.156.843 1.328C1.298-2.828.845-2.156.72-1.625.516-.641 1.188.203 2.25.203c1.094 0 2.11-.86 2.313-1.828m-.188-2.86c-.11.563-.594 1.016-1.344 1.016-.703 0-1.031-.422-.906-1.015.14-.594.656-1.016 1.344-1.016.734 0 1.031.438.906 1.016m-.594 2.86c-.172.828-.797 1.234-1.39 1.234-.641 0-1.063-.421-.891-1.234.203-.953.953-1.25 1.406-1.25.516 0 1.078.328.875 1.25m0 0"/><path id="A" d="m1.656-.016.172-.75h-.781L.89 0h.234L.641 1.14h.375Zm0 0"/><path id="B" d="M4.563-1.625c.14-.703-.25-1.297-.938-1.547.703-.312 1.203-.906 1.328-1.515.172-.782-.453-1.375-1.39-1.375-.75 0-1.47.39-1.97.953l.25.515C2.407-5.375 3.11-5.5 3.439-5.5c.468 0 .859.25.734.813A1.56 1.56 0 0 1 2.766-3.5c-.188.016-.328.031-.5.031l-.125.594h.672c.874 0 1 .703.89 1.25-.156.703-.687 1.234-1.375 1.234C1.594-.39 1-.797.766-1.28c-.141.36-.157.39-.235.578.328.531.938.906 1.688.906 1.14 0 2.14-.89 2.344-1.828m0 0"/><path id="C" d="m5.063-2.172.125-.578H.577l-.125.578Zm0 0"/><path id="D" d="M4.86-3c.515-2.437-.407-3.062-1.235-3.062-.516 0-.984.171-1.484.609-.547.5-.782.906-.938 1.578-.125.625-.094 1.047.11 1.5.218.484.484.656.906.656.781 0 1.406-.437 1.719-.734C3.453-.86 2.562-.391 1.968-.391c-.25 0-.577-.046-.859-.328l-.406.5c.344.313.719.422 1.14.422C3.048.203 4.439-1.047 4.86-3m-.688-.672c-.14.735-.75 1.375-1.453 1.375-.469 0-.625-.265-.735-.484-.14-.36-.078-.719 0-1.094.094-.39.172-.766.547-1.172.14-.14.453-.453.969-.453.938 0 .781 1.297.719 1.61a.6.6 0 0 1-.047.218m0 0"/><path id="E" d="M3.328-2.25c.453-2.125.031-3.625-.812-4.484h-.578c.39.5 1.25 1.656.64 4.484C1.984.594.625 1.734.031 2.234h.594c1.234-.89 2.266-2.421 2.703-4.484m0 0"/><path id="F" d="M-1.86-5.64c-.077 0-.156 0-.156.14 0 .078.047.11.125.11 1.22.062 1.797 1.062 1.797 1.906 0 .672-.422 2.187-2.625 2.187-2.156 0-2.625-1.437-2.625-2.187s.532-1.672 1.907-1.891c.062 0 .109-.016.109-.125 0-.14-.047-.14-.203-.14h-1.875c-.125 0-.203 0-.203.109 0 .062 0 .062.109.14l.594.407a2.12 2.12 0 0 0-.703 1.578c0 1.594 1.28 2.937 2.89 2.937S.171-1.797.171-3.422C.172-4.75-.89-5.64-1.858-5.64m0 0"/><path id="G" d="M0-4.484h-.266c0 .515 0 .609-.359.609h-1.797c-.656 0-1.094.313-1.094 1.14 0 .704.454 1.063.704 1.22h-2.72l.095 1.187h.265c0-.547.047-.61.438-.61h4.109c.36 0 .36.094.36.61H0c-.031-.344-.031-.688-.031-.906 0-.235 0-.563.031-.907h-.266c0 .5 0 .61-.359.61h-1.437c-.844 0-1.235-.64-1.235-1.125s.344-.61.844-.61h1.828c.36 0 .36.094.36.61H0C-.031-3-.031-3.36-.031-3.562c0-.235 0-.579.031-.922m0 0"/><path id="H" d="M0-2.078h-.266c0 .531-.03.562-.343.562h-2.907l.094 1.157h.266c0-.516.047-.578.437-.578h2.094c.36 0 .36.093.36.609H0c-.031-.313-.031-.766-.031-.89 0-.095 0-.579.031-.86m-4.797.453a.453.453 0 0 0-.453.453.45.45 0 0 0 .453.438.437.437 0 0 0 .438-.438.45.45 0 0 0-.438-.453m0 0"/><path id="I" d="M-.953-3.516c-.094 0-.094.11-.094.125 0 .063 0 .094.078.125.172.047.797.282.797 1.079 0 .484-.375 1.203-1.562 1.203-1.141 0-1.578-.594-1.578-1.172 0-.078 0-.5.156-.781.062.234.25.265.344.265a.36.36 0 0 0 .374-.375c0-.219-.14-.375-.39-.375-.485 0-.719.531-.719 1.281 0 1.11.875 1.86 1.828 1.86C-.703-.281.078-1.11.078-2.11c0-1.125-.937-1.407-1.031-1.407m0 0"/><path id="J" d="M-1.031-3.047c-.375 0-.938.219-1.11 1.172-.015.063-.093.516-.093.547-.063.25-.235.625-.547.625-.235 0-.578-.188-.578-.938 0-.89.656-.937.875-.953.062 0 .093-.062.093-.11 0-.14-.062-.14-.203-.14h-.75c-.125 0-.203 0-.203.11 0 .046 0 .062.125.187 0 .016.078.094.078.11 0 0 0 .03-.031.078-.094.125-.172.359-.172.718 0 1.11.594 1.36.985 1.36.39 0 .624-.297.656-.313.234-.328.265-.5.36-1.047.077-.375.187-.984.718-.984.312 0 .687.203.687.938 0 .812-.625 1.046-1.046 1.14-.11.031-.141.047-.141.14 0 .126.062.126.219.126h.984c.125 0 .203 0 .203-.094 0-.062 0-.062-.156-.203-.047-.047-.14-.125-.188-.172.329-.36.344-.734.344-.937 0-1.016-.578-1.36-1.11-1.36m0 0"/><path id="K" d="M-.953-3.516a.12.12 0 0 0-.11.125c0 .094.047.11.094.125.782.282.797.97.797 1.11 0 .36-.156.734-.531.969-.36.234-.875.234-1.11.234v-2.344c0-.172 0-.219-.187-.219-.703 0-1.547.391-1.547 1.516 0 .984.813 1.766 1.797 1.766 1.031 0 1.828-.86 1.828-1.875 0-1-.844-1.407-1.031-1.407m-1.078.547v2.016c-1.11-.078-1.297-.75-1.297-1.047 0-.937 1.125-.969 1.297-.969m0 0"/><path id="L" d="M-1.719-4.422c-1 0-1.797.813-1.797 1.781 0 .313.079.766.5 1.172h-.5l.094 1.188h.266c0-.563.047-.61.375-.61H.922c.36 0 .36.11.36.61h.265c-.031-.344-.031-.688-.031-.906 0-.235 0-.563.03-.907h-.265c0 .516 0 .61-.36.61H-.39a1.37 1.37 0 0 0 .47-1.047c0-1-.782-1.89-1.798-1.89m0 .719c.907 0 1.578.578 1.578 1.219 0 .28-.125.64-.515.906-.14.094-.156.094-.297.094h-1.703a1.3 1.3 0 0 1-.61-1.094c0-.61.672-1.125 1.547-1.125m0 0"/><path id="M" d="M-.719-4.094h-.437v.25h.437c.328 0 .453.11.453.281 0 .297-.359.297-.453.297h-1.656c-.781 0-1.172.75-1.172 1.485 0 .656.25 1.25.781 1.25a.36.36 0 0 0 .375-.375.36.36 0 0 0-.375-.375.356.356 0 0 0-.359.297c-.203-.297-.203-.735-.203-.782 0-.453.312-.89.969-.89h.234c.031.453.047.984.281 1.547.313.703.766.843 1.032.843.687 0 .89-.812.89-1.359a1.23 1.23 0 0 0-.64-1.11c.296-.046.609-.25.609-.609 0-.078-.031-.75-.766-.75m-.406 1.438c.781 0 .984.64.984.969 0 .406-.28.765-.671.765-.516 0-1.063-.5-1.094-1.734Zm0 0"/><path id="N" d="M-3.016-3.062c-.28 0-.5.25-.5.609 0 .515.391.875.844 1.031v.016h-.844l.094 1.125h.266c0-.547.047-.61.437-.61h2.094c.36 0 .36.11.36.61H0c-.031-.313-.031-.75-.031-.938 0-.468 0-.484.031-1h-.266v.156c0 .579-.078.594-.375.594h-1.171c-.61 0-1.47-.25-1.485-1.015.031.046.094.14.281.14.25 0 .36-.203.36-.36 0-.187-.125-.358-.36-.358m0 0"/><path id="O" d="M-.719-4.094h-.437v.25h.437c.328 0 .453.11.453.281 0 .297-.359.297-.453.297h-1.656c-.781 0-1.172.75-1.172 1.485 0 .656.25 1.25.781 1.25a.36.36 0 0 0 .375-.375.36.36 0 0 0-.375-.375.356.356 0 0 0-.359.297c-.203-.297-.203-.735-.203-.782 0-.453.312-.89.969-.89h.234c.031.453.047.984.281 1.547.313.703.766.843 1.032.843.687 0 .89-.812.89-1.359a1.23 1.23 0 0 0-.64-1.11c.296-.046.609-.25.609-.609 0-.078-.031-.75-.766-.75m-.406 1.438c.781 0 .984.64.984.969 0 .406-.28.765-.671.765-.516 0-1.063-.5-1.094-1.734Zm-3.094.015-1.218 1.016c-.125.11-.125.219-.125.25 0 .14.14.313.312.313.14 0 .203-.063.266-.157l.937-1.25Zm0 0"/><path id="P" d="M-.437-1.625a.453.453 0 0 0-.454.453c0 .266.22.438.438.438A.44.44 0 0 0 0-1.172a.45.45 0 0 0-.437-.453m0 0"/><path id="Q" d="M-1.36-3.875c-.671 0-1.265.531-1.452 1.344-.22-.625-.75-1.11-1.391-1.11-.64 0-1.094.72-1.094 1.547 0 .86.453 1.5 1.063 1.5.297 0 .422-.187.422-.406 0-.25-.172-.406-.407-.406-.297 0-.406.265-.406.437-.437-.343-.469-.953-.469-1.094 0-.203.063-.812.89-.812.548 0 .891.234 1.016.344.25.234.266.422.297.906 0 .156.016.219.125.219.11 0 .11-.078.11-.219v-.39c0-.626.453-1.032 1.297-1.032 1 0 1.28.563 1.28.985 0 .437-.155 1.046-.577 1.328 0-.297-.188-.5-.438-.5-.265 0-.437.187-.437.453 0 .203.125.437.453.437.75 0 1.25-.812 1.25-1.734 0-1.047-.734-1.797-1.531-1.797m0 0"/><path id="R" d="M-2.625-3.875c-2.062 0-2.672.922-2.672 1.734 0 .954.734 1.797 1.781 1.797 1.016 0 1.766-.781 1.766-1.687 0-.563-.36-.906-.766-1.094h.172c1.938 0 2.266.922 2.266 1.39 0 .173-.016.579-.266.798-.031-.36-.297-.375-.375-.375a.37.37 0 0 0-.375.375c0 .14.094.375.39.375.548 0 .876-.454.876-1.188 0-1.094-1.094-2.125-2.797-2.125m-.734.766c.64 0 1.39.343 1.39 1.047 0 .374-.172.609-.468.78-.282.188-.672.188-1.079.188-.468 0-.796 0-1.125-.218-.296-.204-.453-.454-.453-.829 0-.53.532-.765.563-.796.39-.157 1.015-.172 1.172-.172m0 0"/><path id="S" d="M-.078 6.156c.078 0 .187 0 .187-.11 0-.109-.078-.109-.14-.124-.485-.047-.688-.438-.688-.75 0-.328.188-.531.782-.797.28.734 1.203 1.734 2.64 1.734 1.594 0 2.906-1.265 2.906-2.812C5.61 1.719 4.297.469 2.703.469 1.093.469-.172 1.75-.172 3.297c0 .25.047.515.11.765-.813.172-1.485.313-1.485 1.047 0 .829 1.016 1.047 1.469 1.047m2.781-.86c-1 0-1.86-.312-2.344-1.046.735-.312.844-.687.844-.953a.684.684 0 0 0-.672-.703.8.8 0 0 0-.343.078c.328-.844 1.171-1.39 2.515-1.39 1.922 0 2.656 1.124 2.656 2 0 .921-.765 2.015-2.656 2.015M.234 4a1.65 1.65 0 0 1-.156-.703c0-.422.344-.485.453-.485a.47.47 0 0 1 .453.485c0 .39-.296.578-.75.703m0 0"/><path id="T" d="M0 4.484h.266c0-.546.046-.609.437-.609h2.813l-.094-1.219h-.266c0 .547-.047.61-.437.61h-1.39C.64 3.266.14 2.859.14 2.25c0-.687.343-.719.75-.719h2.625L3.422.328h-.266c0 .61-.015.61-.719.61H1.235c-.578 0-1.312 0-1.312 1.265 0 .75.578 1.047.64 1.078v.016h-.64Zm0 0"/><path id="U" d="M0 2.078h.266c0-.531.03-.562.343-.562h2.907L3.422.359h-.266c0 .516-.047.579-.437.579H.625c-.36 0-.36-.094-.36-.61H0c.031.313.031.766.031.89 0 .095 0 .579-.031.86m4.797-.453a.453.453 0 0 0 .453-.453.45.45 0 0 0-.453-.438.437.437 0 0 0-.438.438c0 .25.204.453.438.453m0 0"/><path id="V" d="M.953 3.516a.12.12 0 0 0 .11-.125c0-.094-.047-.11-.094-.125a1.14 1.14 0 0 1-.797-1.11c0-.36.156-.734.531-.969.36-.234.875-.234 1.11-.234v2.344c0 .172 0 .219.187.219.703 0 1.547-.391 1.547-1.516 0-.984-.813-1.766-1.797-1.766-1.031 0-1.828.86-1.828 1.875 0 1 .844 1.407 1.031 1.407m1.078-.547V.953c1.11.078 1.297.75 1.297 1.047 0 .938-1.125.969-1.297.969m3.219-.031c.172 0 .313-.172.313-.313 0-.031 0-.14-.125-.25l-1.22-1.016-.171.157.937 1.25c.063.093.125.172.266.172m0 0"/><path id="W" d="M0 4.484h.266c0-.515 0-.609.359-.609h1.797c.656 0 1.094-.312 1.094-1.14a1.38 1.38 0 0 0-.766-1.25h.766L3.422.327h-.266c0 .547-.047.61-.437.61H.625c-.36 0-.36-.094-.36-.61H0c.031.344.031.688.031.906 0 .235 0 .563-.031.907h.266c0-.5 0-.61.359-.61h1.438c.843 0 1.234.64 1.234 1.125s-.344.61-.844.61H.625c-.36 0-.36-.094-.36-.61H0c.031.344.031.703.031.906 0 .235 0 .579-.031.922m0 0"/><path id="X" d="M1.703 3.984c.984 0 1.844-.828 1.844-1.875 0-1.046-.86-1.875-1.844-1.875-1 0-1.781.86-1.781 1.875 0 1.032.781 1.875 1.781 1.875m.063-.703c-.36 0-.797-.015-1.141-.25C.313 2.828.172 2.47.172 2.11c0-.421.203-.765.484-.937.328-.203.719-.219 1.11-.219.312 0 .78 0 1.125.235.28.218.437.546.437.921 0 .422-.203.766-.469.938-.343.219-.765.234-1.093.234m0 0"/><path id="Y" d="M1.031 3.047c.375 0 .938-.219 1.11-1.172.015-.062.093-.516.093-.547.063-.25.235-.625.547-.625.235 0 .578.188.578.938 0 .89-.656.937-.875.953-.062 0-.093.062-.093.11 0 .14.062.14.203.14h.75c.125 0 .203 0 .203-.11 0-.046 0-.062-.125-.187 0-.016-.078-.094-.078-.11 0 0 0-.03.031-.078.094-.125.172-.359.172-.718 0-1.11-.594-1.36-.985-1.36-.39 0-.624.297-.656.313-.234.328-.265.5-.36 1.047-.077.375-.187.984-.718.984-.312 0-.687-.203-.687-.937C.14.875.766.64 1.188.547c.109-.031.14-.047.14-.14C1.328.28 1.266.28 1.11.28H.125c-.125 0-.203 0-.203.094 0 .063 0 .063.156.203.047.047.14.125.188.172-.328.36-.344.734-.344.938 0 1.015.578 1.359 1.11 1.359m0 0"/><path id="Z" d="M.953 3.516a.12.12 0 0 0 .11-.125c0-.094-.047-.11-.094-.125a1.14 1.14 0 0 1-.797-1.11c0-.36.156-.734.531-.969.36-.234.875-.234 1.11-.234v2.344c0 .172 0 .219.187.219.703 0 1.547-.391 1.547-1.516 0-.984-.813-1.766-1.797-1.766-1.031 0-1.828.86-1.828 1.875 0 1 .844 1.407 1.031 1.407m1.078-.547V.953c1.11.078 1.297.75 1.297 1.047 0 .938-1.125.969-1.297.969m0 0"/><path id="aa" d="M1.719 4.422c1 0 1.797-.813 1.797-1.781 0-.313-.079-.766-.5-1.172h.5L3.422.28h-.266c0 .563-.047.61-.375.61H-.922c-.36 0-.36-.11-.36-.61h-.265c.031.344.031.688.031.907 0 .234 0 .562-.03.906h.265c0-.516 0-.61.36-.61H.39a1.37 1.37 0 0 0-.47 1.047c0 1 .782 1.89 1.798 1.89m0-.719C.812 3.703.14 3.125.14 2.484c0-.28.125-.64.515-.906.14-.094.156-.094.297-.094h1.703c.313.188.61.594.61 1.094 0 .61-.672 1.125-1.547 1.125m0 0"/><path id="ab" d="M.719 4.094h.437v-.25H.72c-.328 0-.453-.11-.453-.281 0-.297.359-.297.453-.297h1.656c.781 0 1.172-.75 1.172-1.485 0-.656-.25-1.25-.781-1.25a.36.36 0 0 0-.375.375c0 .219.156.375.375.375a.356.356 0 0 0 .359-.297c.203.297.203.735.203.782 0 .453-.312.89-.969.89h-.234c-.031-.453-.047-.984-.281-1.547C1.53.406 1.078.266.813.266c-.688 0-.891.812-.891 1.359 0 .578.328.938.64 1.11-.296.046-.609.25-.609.609 0 .078.031.75.766.75m.406-1.438c-.781 0-.984-.64-.984-.969 0-.406.28-.765.672-.765.515 0 1.062.5 1.093 1.734Zm0 0"/><path id="ac" d="M3.016 3.063c.28 0 .5-.25.5-.61 0-.515-.391-.875-.844-1.031v-.016h.844L3.422.281h-.266c0 .547-.047.61-.437.61H.625C.265.89.265.78.265.28H0c.031.313.031.75.031.938 0 .468 0 .484-.031 1h.266v-.156c0-.579.078-.594.375-.594h1.172c.609 0 1.468.25 1.484 1.015-.031-.046-.094-.14-.281-.14-.25 0-.36.203-.36.36 0 .187.125.358.36.358m0 0"/><path id="ad" d="M.719 4.094h.437v-.25H.72c-.328 0-.453-.11-.453-.281 0-.297.359-.297.453-.297h1.656c.781 0 1.172-.75 1.172-1.485 0-.656-.25-1.25-.781-1.25a.36.36 0 0 0-.375.375c0 .219.156.375.375.375a.356.356 0 0 0 .359-.297c.203.297.203.735.203.782 0 .453-.312.89-.969.89h-.234c-.031-.453-.047-.984-.281-1.547C1.53.406 1.078.266.813.266c-.688 0-.891.812-.891 1.359 0 .578.328.938.64 1.11-.296.046-.609.25-.609.609 0 .078.031.75.766.75m.406-1.438c-.781 0-.984-.64-.984-.969 0-.406.28-.765.672-.765.515 0 1.062.5 1.093 1.734Zm4.125.516c.172 0 .313-.172.313-.313 0-.03 0-.14-.125-.25l-1.22-1.015-.171.172.937 1.25c.063.078.125.156.266.156m0 0"/><path id="ae" d="M.438 1.625a.453.453 0 0 0 .453-.453.436.436 0 0 0-.438-.438.44.44 0 0 0-.453.438.45.45 0 0 0 .438.453m0 0"/><path id="af" d="M0 3.563h.266V3.28c0-.75.093-.781.39-.781h4.422c.219 0 .219-.016.219-.234-.313-.328-.5-.75-.5-1.5H4.53c0 .218 0 .64.203 1.109H.656c-.297 0-.39-.031-.39-.781V.812H0c.031.329.031 1.016.031 1.376s0 1.046-.031 1.374m0 0"/><path id="ag" d="M1.36 3.875c.671 0 1.265-.531 1.453-1.344.218.625.75 1.11 1.39 1.11s1.094-.72 1.094-1.547c0-.86-.453-1.5-1.063-1.5-.296 0-.421.187-.421.406 0 .25.171.406.406.406.297 0 .406-.265.406-.437.438.344.469.953.469 1.094 0 .203-.063.812-.89.812-.548 0-.891-.234-1.016-.344-.25-.234-.266-.422-.297-.906 0-.156-.016-.219-.125-.219-.11 0-.11.078-.11.219v.39c0 .626-.453 1.032-1.297 1.032-1 0-1.28-.563-1.28-.985 0-.437.155-1.046.577-1.328 0 .297.188.5.438.5.265 0 .437-.187.437-.453 0-.203-.125-.437-.453-.437-.75 0-1.25.812-1.25 1.734 0 1.047.734 1.797 1.531 1.797m0 0"/><path id="ah" d="M2.625 3.875c2.063 0 2.672-.922 2.672-1.734 0-.953-.734-1.797-1.781-1.797C2.5.344 1.75 1.125 1.75 2.03c0 .563.36.906.766 1.094h-.172c-1.938 0-2.266-.922-2.266-1.39 0-.173.016-.579.266-.798.031.36.297.375.375.375a.37.37 0 0 0 .375-.375.37.37 0 0 0-.39-.375c-.548 0-.876.454-.876 1.188 0 1.094 1.094 2.125 2.797 2.125m.734-.766c-.64 0-1.39-.343-1.39-1.046 0-.376.172-.61.468-.782.282-.187.672-.187 1.079-.187.468 0 .797 0 1.125.218.297.204.453.454.453.829 0 .53-.532.765-.563.797-.39.156-1.015.171-1.172.171m0 0"/><path id="ai" d="M13.61-7.687v-.516l-1.297.031c-.344 0-1.22 0-1.5-.031v.515c.14 0 1.187 0 1.187.172 0 0 0 .032-.047.141L9.938-2.047l-2.126-5.64h1.125v-.516c-.374.031-1.484.031-1.937.031-.375 0-1.531 0-1.828-.031v.515h1.016l.484 1.297-1.64 4.344-2.126-5.64h1.125v-.516c-.343.031-1.515.031-1.953.031-.375 0-1.515 0-1.812-.031v.515h1L4.109-.171c.079.203.11.281.375.281.266 0 .297-.078.375-.28l2.079-5.5 2.093 5.5c.063.202.094.28.36.28.234 0 .297-.046.375-.28L12.5-7.407c.094-.203.11-.282 1.11-.282m0 0"/><path id="aN" d="M9.953 0v-.516h-.312c-.657 0-.703-.062-.813-.218L5.61-5.047l2.844-2.406c.156-.14.266-.234 1.328-.234v-.516L8.5-8.172c-.36 0-1.297 0-1.594-.031v.515c.266 0 .547.016.86.141l-4.47 3.813v-3.953h1.267v-.516c-.344.031-1.625.031-2.047.031-.438 0-1.72 0-2.063-.031v.515H1.72v7.172H.453V0c.344-.031 1.625-.031 2.063-.031.422 0 1.703 0 2.047.031v-.516H3.297v-2.562L4.53-4.125l2.5 3.344c.016.031.063.094.063.14 0 .125-.578.125-.844.125V0c.39-.031 1.5-.031 1.953-.031.36 0 1.485 0 1.75.031m0 0"/><path id="bo" d="M5.766 0v-.516H4.14V-7.5c0-.344-.032-.344-.407-.344-.89.766-2.218.766-2.484.766h-.219v.516h.219c.422 0 1.063-.079 1.531-.235v6.281H1.125V0l2.313-.031Zm0 0"/><path id="bp" d="M6.031-2.562h-.5c-.031.25-.11.953-.297 1.062-.093.094-1.03.094-1.203.094h-1.86l1.72-1.422c1.328-1 2.14-1.61 2.14-2.75 0-1.422-1.281-2.266-2.86-2.266-1.343 0-2.5.766-2.5 1.907 0 .625.517.812.782.812.375 0 .813-.25.813-.797 0-.516-.375-.766-.75-.812.484-.547 1.109-.594 1.359-.594 1.11 0 1.625.89 1.625 1.766 0 .921-.625 1.78-1.125 2.296L.781-.546c-.11.109-.11.124-.11.343V0h5.017Zm0 0"/><path id="bq" d="M6.031-2.406c0-1.453-.984-2.5-2.625-2.5-.484 0-1.047.093-1.562.484v-1.781c.406.094.718.094.906.094.281 0 .969 0 1.766-.485.375-.234 1-.765 1-1.047 0-.062 0-.203-.157-.203 0 0-.03 0-.14.063-.563.187-1.14.328-1.813.328-.687 0-1.25-.14-1.812-.344-.094-.016-.125-.047-.157-.047-.14 0-.14.125-.14.328v3.47c0 .234 0 .359.234.359.125 0 .14 0 .235-.126.14-.171.578-.687 1.593-.687 1.094 0 1.094 1.125 1.094 2.063 0 .859 0 2.109-1.469 2.109-.437 0-1.187-.172-1.593-.86.625 0 .78-.468.78-.734a.72.72 0 0 0-.75-.75c-.359 0-.75.203-.75.766C.672-.86 1.61.14 3.032.14c1.844 0 3-1.063 3-2.547m0 0"/><path id="aj" d="M5.953-1.703c0-.125-.11-.125-.14-.125-.125 0-.141.047-.172.219-.203.765-.422 1.484-.907 1.484-.328 0-.359-.312-.359-.562s.031-.36.156-.875l.266-1.079.422-1.671c.093-.344.093-.36.093-.407 0-.203-.156-.328-.359-.328-.281 0-.453.266-.5.531-.203-.437-.562-.765-1.094-.765-1.406 0-2.875 1.75-2.875 3.5 0 1.125.657 1.906 1.579 1.906.25 0 .843-.047 1.562-.89.094.5.516.89 1.078.89.422 0 .703-.266.89-.656.204-.422.36-1.172.36-1.172M4.313-3.97c0 .078-.016.14-.032.203l-.593 2.344c-.063.219-.063.234-.25.438-.516.656-1.016.859-1.344.859-.594 0-.766-.656-.766-1.125 0-.61.375-2.078.656-2.625.375-.703.907-1.14 1.391-1.14.766 0 .938.968.938 1.046m0 0"/><path id="ax" d="M7.656-6.953c.094-.344.047-.656-.14-.906-.282-.391-.985-.47-1.375-.47-.891 0-1.766.22-2.657.813-.718.485-1.218 1.282-1.421 2.079-.172.718-.235 1.453.156 1.984.406.531 1.094.781 1.844.781.593 0 1.25-.172 1.828-.531l-.25 1.14c-.125.516-.328.97-.578 1.47-.22.374-.5.75-.86 1.046-.469.39-1.031.656-1.578.656-.36 0-.719-.062-.922-.328-.11-.156-.11-.375-.11-.593.016-.157.016-.329-.062-.438a.34.34 0 0 0-.281-.125.75.75 0 0 0-.469.14.84.84 0 0 0-.265.407.98.98 0 0 0 .172.89c.28.391.812.485 1.359.485.984 0 1.984-.406 2.86-1.11.452-.359.78-.812 1.03-1.328.36-.718.61-1.468.797-2.234l.391-1.578-.672.156c-.156.344-.5.828-.687.969-.47.39-1 .547-1.532.547-.5 0-.89-.219-1.156-.563-.36-.484-.312-1.187-.14-1.86a3.62 3.62 0 0 1 1.265-1.952 2.5 2.5 0 0 1 1.547-.516c.297 0 .719.11.922.406.14.188.219.407.14.672-.046.219-.125.469-.328.64-.28.22-.546.25-.828.25l-.093.204c.187.031.468.11.53.11.36 0 .704-.188 1.016-.438.297-.25.47-.563.547-.875m0 0"/><path id="aB" d="m10.344-8.156-.172-.11-.375.422c-.14.14-.36.266-.563.266-.078 0-.25-.031-.359-.047a18 18 0 0 1-1.687-.36l.078-.327-.063-.047-.672.297a10 10 0 0 0-.718-.047c-.954 0-1.813.187-2.657.859-.531.438-1.015 1-1.172 1.61-.046.202-.078.406.032.546.093.094.172.172.328.172.125 0 .265-.094.375-.172a.63.63 0 0 0 .219-.36c.03-.124.015-.296.015-.421.016-.172.016-.312.078-.469.047-.187.375-.61.656-.843.563-.438 1.126-.563 1.72-.563a4.5 4.5 0 0 1 .921.094l-.86 3.172H3.704l-.25.343h1.938l-.282 1.047c-.125.422-.25.844-.484 1.25a3 3 0 0 1-.687.875c-.407.375-.97.672-1.47.672-.312 0-.609-.078-.78-.312a1.1 1.1 0 0 1-.188-.407c-.094-.437-.14-.453-.312-.453a.73.73 0 0 0-.438.14c-.125.11-.203.204-.234.345-.063.25-.032.5.125.672.234.328.609.484 1.062.484.969 0 2.031-.39 2.844-1.094.437-.375.672-.687.906-1.094.281-.5.469-1.015.61-1.546l.14-.579h1.469l.344-.343H6.28l.766-2.97c.156.063.937.329 1.422.47.156.062.344.109.5.109.25 0 .531-.219.703-.422Zm0 0"/><path id="aD" d="M6.828-7.234c.063-.282.016-.578-.125-.75-.234-.328-.672-.407-1.125-.407-.719 0-1.406.094-2.062.625-.438.344-.766.829-.891 1.313-.11.469-.11.937.14 1.266.172.25.47.421.782.53l-.031.126a3.46 3.46 0 0 0-1.766.734C1.172-3.328.734-2.719.563-2.062.438-1.532.438-.984.734-.61c.204.265.516.437.829.562.406.14.859.188 1.328.188.89 0 1.797-.328 2.578-.953.11-.079.265-.297.39-.454l-.39-.578-.157.032c-.125.343-.312.656-.593.875-.469.375-1 .656-1.532.656-.562 0-1.14-.094-1.437-.5-.297-.39-.312-.922-.187-1.469.14-.547.453-1.062.921-1.437.344-.266.782-.407 1.157-.5.562-.125 1.109-.157 1.672-.157l.062-.312c-.406 0-.797-.032-1.172-.14-.25-.063-.5-.173-.656-.391-.219-.282-.266-.704-.172-1.125.14-.516.453-1.032.89-1.391.298-.25.688-.313 1.032-.313.281 0 .469.063.61.204a.5.5 0 0 1 .109.468c-.047.203-.157.328-.266.453-.078.094-.14.172-.187.282a.36.36 0 0 0 .03.234c.079.094.126.094.266.094s.422-.078.625-.266c.22-.234.282-.437.344-.687m0 0"/><path id="aH" d="M6 0v-4.484C6-6.281 4.203-8.22 2.172-8.937c-.031-.016-.063-.032-.11-.032a.324.324 0 0 0-.312.313c0 .14.094.25.203.297 1.656.609 2.828 2.406 2.828 3.875V0Zm0 0"/><path id="aI" d="M6 0v-8.937H4.781V0Zm0 0"/><path id="aJ" d="M9.031-8.969a.31.31 0 0 0-.203-.281C7.156-9.86 6-11.812 6-13.453v-4.469H4.781v4.469c0 1.765 1.438 3.594 3.172 4.484-1.734.906-3.172 2.735-3.172 4.485V0H6v-4.484c0-1.641 1.156-3.578 2.828-4.188a.33.33 0 0 0 .203-.297m0 0"/><path id="aK" d="M6-4.484V-8.97H4.781v4.485c0 1.468-1.172 3.28-2.828 3.89a.31.31 0 0 0-.203.282c0 .171.156.312.313.312.046 0 .078-.016.109-.031C4.203-.75 6-2.671 6-4.484m0 0"/><path id="aM" d="M7.453-.172a.245.245 0 0 0 0-.344L4.984-2.984l2.47-2.485c.093-.093.093-.25 0-.328-.079-.094-.235-.094-.329 0L4.656-3.328 2.172-5.797c-.094-.094-.25-.094-.328 0-.094.078-.094.234 0 .328l2.468 2.485L1.845-.516a.245.245 0 0 0 0 .344c.078.094.234.094.328 0l2.484-2.484L7.125-.172c.094.094.25.094.328 0m0 0"/><path id="ak" d="M7.547 0 4.28-5.016l3.125-3.28H6.281L2.094-3.892v-4.406h-1V0h1v-2.703L3.64-4.328 6.453 0Zm0 0"/><path id="al" d="m3.89-.344-.171-.703c-.422.375-.86.422-1.078.422-.532 0-.594-.562-.594-.984v-3h1.64v-.703h-1.64v-1.516h-.828v1.516h-1v.703h.969v3.203c0 .703.156 1.531.984 1.531.797 0 1.36-.281 1.719-.469m0 0"/><path id="am" d="M5.484-2.625c0-1.625-1.187-2.86-2.562-2.86-1.406 0-2.563 1.266-2.563 2.86 0 1.563 1.188 2.75 2.563 2.75 1.406 0 2.562-1.219 2.562-2.75m-.906-.125c0 1.469-.844 2.125-1.656 2.125-.86 0-1.656-.719-1.656-2.125 0-1.453.89-2.016 1.656-2.016.812 0 1.656.625 1.656 2.016m0 0"/><path id="an" d="M5.063 0v-3.594c0-.734-.157-1.828-1.594-1.828-.672 0-1.25.297-1.703.875v-.812H.922V0h.906v-2.969c0-.75.281-1.734 1.188-1.734 1.109 0 1.14.766 1.14 1.187V0Zm0 0"/><path id="ao" d="M4.797 0v-3.5c0-1.156-.828-1.984-1.938-1.984-.718 0-1.25.172-1.843.5l.078.78c.515-.374 1.062-.593 1.765-.593.547 0 1.032.453 1.032 1.313v.5c-.547.015-1.266.062-1.985.297C1.11-2.422.641-1.97.641-1.375c0 .531.312 1.5 1.328 1.5.656 0 1.5-.203 1.937-.562V0ZM3.89-1.61c0 .25 0 .532-.407.766-.312.203-.718.25-.906.25-.64 0-1.078-.343-1.078-.797 0-.812 1.656-.984 2.39-.984Zm0 0"/><path id="ap" d="M4.203-1.516c0-.609-.36-1-.406-1.046-.453-.47-.813-.532-1.531-.672-.438-.094-1.047-.203-1.047-.813 0-.734.843-.734 1-.734.625 0 1.125.14 1.656.437l.14-.765a3.9 3.9 0 0 0-1.687-.375c-.265 0-1.937 0-1.937 1.547 0 .53.297.89.468 1.062.438.36.735.422 1.438.563.39.093 1.078.234 1.078.859 0 .828-.922.828-1.094.828A3.12 3.12 0 0 1 .47-1.219l-.14.813c.046.031.859.531 1.968.531 1.547 0 1.906-.937 1.906-1.64m0 0"/><path id="aq" d="M5.063 0v-8.297h-.891v3.485a2.65 2.65 0 0 0-1.688-.61c-1.14 0-2.062 1.219-2.062 2.766S1.297.125 2.437.125c.438 0 1.11-.156 1.704-.734V0ZM4.14-1.406c-.282.515-.703.812-1.22.812-.733 0-1.593-.562-1.593-2.047 0-1.593 1.016-2.062 1.703-2.062.469 0 .86.234 1.11.625Zm0 0"/><path id="ar" d="m3.688-5.36-.485-.515-.828.719v-3.14H1.5v3.874L.328-3.375l.453.547.719-.656V0h.875v-4.234Zm0 0"/><path id="as" d="m5.219 2.234-.157-.703c-.265.11-.546.172-.812.172-.328-.031-.61-.094-.625-.453C3.609.719 4.109.313 4.656 0h.14v-3.5c0-1.156-.827-1.984-1.937-1.984-.718 0-1.25.172-1.843.5l.078.78c.515-.374 1.062-.593 1.765-.593.547 0 1.032.453 1.032 1.313v.5c-.547.015-1.266.062-1.985.297C1.11-2.422.641-1.97.641-1.375c0 .531.312 1.5 1.328 1.5.656 0 1.5-.203 1.937-.562V0c-.594.328-1.078.906-1.031 1.516 0 .515.375 1.015 1.172 1.015.406 0 .703-.062 1.172-.297M3.89-1.609c0 .25 0 .53-.407.765-.312.203-.718.25-.906.25-.64 0-1.078-.343-1.078-.797 0-.812 1.656-.984 2.39-.984Zm0 0"/><path id="at" d="M4.86-.5c0-.031-.032-.406-.048-.453l-.015-.344a2.8 2.8 0 0 1-1.828.672c-1 0-1.64-.875-1.64-2.047 0-.984.484-2.078 1.671-2.078.797 0 1.14.203 1.656.547l.14-.781c-.702-.407-1.093-.5-1.796-.5-1.656 0-2.578 1.453-2.578 2.812C.422-1.14 1.516.125 2.953.125c.578 0 1.25-.156 1.906-.625m0 0"/><path id="au" d="M4.703 0v-.734H2.984c-.14 0-.28.015-.421.015H1.547l3.11-4.125v-.468H.483v.703h2.953L.329-.484V0Zm0 0"/><path id="av" d="M5.172-5.312h-.89c-.548 1.421-1.47 3.765-1.516 4.625H2.75c-.062-.72-.687-2.282-.797-2.532L1.11-5.312H.172L2.39 0l-.422 1.094c-.266.593-.438.656-.657.656-.171 0-.546-.047-.921-.187l.078.78c.062.016.469.095.844.095.296 0 .843 0 1.359-1.313Zm0 0"/><path id="aw" d="M2.11-.016v-.953h-.97V0h.298L1.14 1.5h.468Zm0 0"/><path id="ay" d="M5.469 0 3.25-3.266l1.969-2.046h-1.11L1.813-2.906v-5.39H.938V0h.828v-1.719l.906-.953L4.5 0Zm0 0"/><path id="az" d="M8.328 0v-3.594c0-.828-.219-1.828-1.61-1.828-1.015 0-1.577.703-1.765.969-.203-.766-.86-.969-1.484-.969-.985 0-1.5.625-1.703.875v-.812H.922V0h.906v-2.969c0-.797.313-1.734 1.188-1.734 1.093 0 1.156.75 1.156 1.187V0h.906v-2.969c0-.797.313-1.734 1.188-1.734 1.093 0 1.156.75 1.156 1.187V0Zm0 0"/><path id="aA" d="M1.813 0v-5.312H.938V0Zm.078-6.797v-1.016H.859v1.016Zm0 0"/><path id="aC" d="M4.203-1.516c0-.609-.36-1-.406-1.046-.453-.47-.813-.532-1.531-.672-.438-.094-1.047-.203-1.047-.813 0-.734.843-.734 1-.734.625 0 1.125.14 1.656.437l.14-.765a3.9 3.9 0 0 0-1.687-.375c-.265 0-1.937 0-1.937 1.547 0 .53.297.89.468 1.062.438.36.735.422 1.438.563.39.093 1.078.234 1.078.859 0 .828-.922.828-1.094.828A3.12 3.12 0 0 1 .47-1.219l-.14.813c.046.031.859.531 1.968.531 1.547 0 1.906-.937 1.906-1.64m-.312-6.78h-.922l-1.547 2h.719Zm0 0"/><path id="aE" d="M7.11-2.25c0-1.047-1.032-1.89-2.266-2.094 1.39-.375 1.937-1.172 1.937-1.875 0-1.078-1.218-2.078-2.906-2.078H1.109V0h3.094C5.875 0 7.11-1.078 7.11-2.25M5.86-6.203c0 .844-1.032 1.531-2.298 1.531H2.079v-2.953h1.469c1.281 0 2.312.625 2.312 1.422m.312 3.937c0 .844-.969 1.594-2.313 1.594H2.08v-3.281h1.593c1.547 0 2.5.86 2.5 1.687m0 0"/><path id="aF" d="m5.672-4.703-.125-.719c-.234 0-1.047 0-1.828.39-.39-.327-.875-.39-1.11-.39-1.046 0-1.875.875-1.875 1.922 0 .422.125.828.391 1.188a1.64 1.64 0 0 0-.344 1.015c0 .453.156.75.297.906C.468 0 .328.516.328.844c0 .875 1.125 1.61 2.594 1.61 1.453 0 2.594-.704 2.594-1.61 0-1.688-1.938-1.688-2.422-1.688H2.078c-.172 0-.672 0-.672-.625 0-.265.047-.343.11-.437.203.14.593.343 1.078.343 1.031 0 1.875-.859 1.875-1.937a2.13 2.13 0 0 0-.36-1.156 7 7 0 0 1 .954-.063c.046 0 .312 0 .609.016M3.64-3.5c0 1.063-.672 1.281-1.032 1.281-.53 0-1.062-.36-1.062-1.265 0-1.063.672-1.282 1.047-1.282.531 0 1.047.36 1.047 1.266M4.688.844c0 .562-.829.953-1.766.953-.922 0-1.766-.375-1.766-.953 0-.047 0-.813.907-.813h1.046c.266 0 1.579 0 1.579.813m0 0"/><path id="aG" d="M4.86-6.562c0-.922-.563-1.86-2.25-1.86-.938 0-1.61.375-1.97.64l.266.735a2.5 2.5 0 0 1 1.719-.656c.64 0 1.328.156 1.328 1.125 0 .547-.25.766-.453.937C2.828-5.062 2.203-4 2.203-2.67v.608h.766v-.578c0-1.28.781-2.125 1.234-2.5.25-.203.656-.593.656-1.421M3.077 0v-.969H2.11V0Zm0 0"/><path id="aO" d="M9.016 0v-8.297h-1.36L6.281-4.609c-.61 1.672-1.078 2.922-1.203 3.468h-.016c-.03-.203-.187-.64-.343-1.109-.219-.64-.219-.672-.407-1.156L2.5-8.296H1.14V0h.923v-7.375c.171.813 2.109 5.922 2.562 7.125H5.5c.39-1.031 2.36-6.234 2.578-7.14h.016V0Zm0 0"/><path id="aP" d="M4.703 0v-.734H2.984c-.14 0-.28.015-.421.015H1.547l3.11-4.125v-.468H.483v.703h2.953L.329-.484V0ZM3.047-6.797v-1.016H2.016v1.016Zm0 0"/><path id="aQ" d="M4.86-2.687c0-.516-.048-1.25-.423-1.876-.5-.828-1.328-.921-1.671-.921C1.469-5.484.39-4.25.39-2.687.39-1.11 1.547.124 2.92.124c.563 0 1.22-.156 1.876-.64 0-.047-.047-.438-.047-.438s-.031-.281-.031-.328c-.703.593-1.407.687-1.766.687-.922 0-1.703-.828-1.734-2.093Zm-.704-.641h-2.86c.204-.813.767-1.438 1.47-1.438.359 0 1.187.157 1.39 1.438m0 0"/><path id="aR" d="M4.531-1.766v-6.53h-1v6.483c0 .688-.344 1.329-1.39 1.329a1.96 1.96 0 0 1-1.485-.657L.484-.25c.704.36 1.375.5 2 .5 1.25 0 2.047-.734 2.047-2.016m0 0"/><path id="aS" d="M5.063 0v-5.312h-.907v3.421c0 .907-.625 1.36-1.406 1.36-.844 0-.922-.313-.922-.844v-3.937H.922v3.984c0 .86.265 1.453 1.25 1.453.344 0 1.281-.062 2.015-.719V0Zm0 0"/><path id="aT" d="m6.875-.531-.078-.844c-.313.234-.672.484-1.063.61-.375.124-.78.14-1.187.14-.766 0-1.469-.422-1.938-1.031-.546-.703-.796-1.594-.796-2.485 0-.906.25-1.796.796-2.5.47-.609 1.172-1.03 1.938-1.03.36 0 .719.03 1.062.14.344.125.672.297.97.515l.171-1a5.6 5.6 0 0 0-1.078-.312 5.6 5.6 0 0 0-1.125-.094c-1.031 0-1.984.469-2.656 1.25C1.14-6.344.78-5.266.78-4.14c0 1.094.36 2.188 1.11 3.016.672.766 1.625 1.25 2.656 1.25.406 0 .812-.016 1.219-.125.406-.125.765-.328 1.109-.531m0 0"/><path id="aU" d="M5.063 0v-3.594c0-.734-.157-1.828-1.594-1.828-.828 0-1.375.469-1.656.813v-3.688H.922V0h.906v-2.969c0-.75.281-1.734 1.188-1.734 1.109 0 1.14.766 1.14 1.187V0Zm0 0"/><path id="aV" d="M3.797-4.625v-.797c-1.078 0-1.719.64-2.047 1.11V-5.36H.938V0h.875v-2.625c0-1.203.906-1.984 1.984-2m0 0"/><path id="aW" d="M7.547-7.484v-.75H.422v.75H2c.14 0 .281-.016.422-.016h1.062V0H4.5v-7.5h1.063c.14 0 .28.016.421.016Zm0 0"/><path id="aX" d="M5.484-2.625c0-1.625-1.187-2.86-2.562-2.86-1.406 0-2.563 1.266-2.563 2.86 0 1.563 1.188 2.75 2.563 2.75 1.406 0 2.562-1.219 2.562-2.75m-.906-.125c0 1.469-.844 2.125-1.656 2.125-.86 0-1.656-.719-1.656-2.125 0-1.453.89-2.016 1.656-2.016.812 0 1.656.625 1.656 2.016m-.016-5.547h-.906l-1.547 2h.72Zm0 0"/><path id="aY" d="M7.766-5.312H6.89l-.703 2.437c-.172.563-.516 1.688-.563 2.203-.047-.281-.234-1.078-.484-1.937l-.797-2.703H3.53L2.844-2.97c-.219.75-.5 1.781-.531 2.282h-.016c-.016-.235-.14-.86-.375-1.672l-.844-2.953H.172L1.766 0h.922c.453-1.5 1.156-3.781 1.218-4.61h.016c.015.485.265 1.344.344 1.626L5.109 0h1.063Zm0 0"/><path id="aZ" d="M5.563-2.672c0-1.437-.75-2.75-1.875-2.75-.485 0-1.25.156-1.876.672v-.562H.939v7.625h.906V-.531c.406.36.906.656 1.547.656 1.156 0 2.172-1.172 2.172-2.797m-.907.016c0 1.203-.812 2.062-1.703 2.062-.328 0-.562-.125-.781-.297-.297-.25-.328-.468-.328-.656v-2.469a1.47 1.47 0 0 1 1.219-.671c.874 0 1.593.89 1.593 2.03m0 0"/><path id="ba" d="M4.86-2.687c0-.516-.048-1.25-.423-1.876-.5-.828-1.328-.921-1.671-.921C1.469-5.484.39-4.25.39-2.687.39-1.141 1.5.078 2.844.124c-.531.344-.875.828-.828 1.39 0 .516.375 1.016 1.172 1.016.39 0 .703-.062 1.171-.297l-.156-.703c-.266.11-.547.172-.812.172-.328-.031-.625-.094-.625-.453-.016-.531.5-.969 1.047-1.281.328-.094.64-.25.984-.485 0-.046-.047-.437-.047-.437s-.031-.281-.031-.328c-.703.593-1.407.687-1.766.687-.922 0-1.703-.828-1.734-2.093Zm-.704-.641h-2.86c.204-.813.767-1.438 1.47-1.438.359 0 1.187.157 1.39 1.438m0 0"/><path id="bb" d="M6.89-2.781v-5.516H5.97v5.531c0 1.594-1 2.344-1.953 2.344-.938 0-1.907-.734-1.907-2.344v-5.53H1.08v5.515C1.078-1.031 2.452.25 4 .25c1.563 0 2.89-1.297 2.89-3.031m0 0"/><path id="bc" d="M1.813 0v-8.297H.938V0Zm0 0"/><path id="bd" d="M4.86-.5c0-.031-.032-.406-.048-.453l-.015-.344a2.8 2.8 0 0 1-1.828.672c-1 0-1.64-.875-1.64-2.047 0-.984.484-2.078 1.671-2.078.797 0 1.14.203 1.656.547l.14-.781c-.702-.407-1.093-.5-1.796-.5-1.656 0-2.578 1.453-2.578 2.812C.422-1.14 1.516.125 2.953.125c.578 0 1.25-.156 1.906-.625M4.5-8.297h-.922l-1.547 2h.719Zm0 0"/><path id="be" d="M7.969-4.125c0-2.531-1.719-4.422-3.657-4.422-1.984 0-3.671 1.922-3.671 4.422C.64-1.609 2.375.25 4.297.25c1.984 0 3.672-1.875 3.672-4.375m-1.032-.172C6.938-1.953 5.658-.5 4.313-.5c-1.39 0-2.64-1.5-2.64-3.797 0-2.203 1.297-3.516 2.625-3.516 1.375 0 2.64 1.344 2.64 3.516m0 0"/><path id="bf" d="M2.11 0v-.969h-.97V0Zm0 0"/><path id="bh" d="M2.11 0v-8.297H1.077V0Zm0 0"/><path id="bi" d="M2.14.703v-6.015h-.89v6.14c0 .781-.625.86-.875.86-.531 0-.86-.344-.875-.375l-.234.718c.375.235.859.406 1.406.406.75 0 1.469-.624 1.469-1.734m0-7.5v-1.016H1.11v1.016Zm0 0"/><path id="bj" d="M4.703 0v-.734H2.984c-.14 0-.28.015-.421.015H1.547l3.11-4.125v-.468H.483v.703h2.953L.329-.484V0Zm-.516-8.297h-.906l-1.562 2h.718Zm0 0"/><path id="bk" d="M5.563-2.672c0-1.469-.782-2.75-1.891-2.75-.344 0-1.11.063-1.86.672v-3.547H.939V0h.906v-.531c.547.515 1.125.656 1.547.656 1.14 0 2.172-1.172 2.172-2.797m-.907 0c0 1.563-.968 2.078-1.703 2.078-.328 0-.562-.125-.781-.297-.281-.25-.328-.453-.328-.656V-4.03c.218-.328.64-.672 1.234-.672.719 0 1.578.547 1.578 2.031m0 0"/><path id="bl" d="M7.094 0v-8.297h-.907V-.89h-.015l-.969-2-2.64-5.406h-1.47V0h.923v-7.406l.968 2L5.625 0Zm0 0"/><path id="aL" d="m5.266 0 .156-.812H3.297c-.14 0-.281.015-.422.015H1.594A77 77 0 0 1 4.25-2.922c1.047-.765 1.953-1.515 2.188-2.61.28-1.327-.375-2.546-1.954-2.546-1.296 0-2.125.844-2.687 1.953.266.484.266.5.344.656.578-1.281 1.14-1.875 2.03-1.875 1.032 0 1.516.813 1.298 1.828-.125.625-.516 1.313-1.485 2.11L.734-.75.578 0Zm0 0"/><path id="bg" d="M4.344-5.125H2.25c-.312 0-.406-.016-.687-.031-.422-.047-.438-.094-.454-.235H.844L.563-3.687h.265c.016-.11.094-.641.219-.72.062-.046.719-.046.828-.046h1.75l-.844 1.047C1.75-2.031 1.656-.766 1.656-.296c0 .093 0 .452.375.452s.375-.36.375-.453v-.328c0-1.547.313-2.25.656-2.687l1.204-1.5c.078-.094.078-.11.078-.313m0 0"/><path id="br" d="M4.563 0v-.437H3.266v-5.157c0-.187 0-.297-.266-.297-.11 0-.125 0-.203.063-.688.516-1.656.516-1.828.516H.797v.437h.172a4.2 4.2 0 0 0 1.203-.172v4.61H.89V0c.343-.031 1.422-.031 1.828-.031.422 0 1.484 0 1.844.031m0 0"/><path id="bs" d="M4.86-2.953c0-.469-.032-1.39-.485-2.094-.297-.437-.828-.844-1.719-.844-1.281 0-2.218.72-2.218 1.938 0 1.125.765 1.937 2.093 1.937.406 0 .781-.203 1.063-.687v.172c0 .578-.063 1.156-.235 1.531-.109.234-.468.703-1.171.703-.079 0-.454 0-.735-.187a.55.55 0 0 0 .422-.563c0-.375-.281-.578-.578-.578-.25 0-.594.14-.594.594 0 .61.469 1.14 1.5 1.14 1.25 0 2.656-.796 2.656-3.062m-1.266-.89c0 .406-.172 1.452-1.031 1.452-.86 0-.86-.656-.86-1.53 0-.876 0-1.61.984-1.61.563 0 .766.515.797.593.11.297.11.782.11 1.094m0 0"/><path id="bt" d="M4.86-1.61c0-.718-.532-1.327-1.548-1.546.907-.313 1.25-.938 1.25-1.485 0-.671-.671-1.25-2-1.25-1.109 0-1.828.594-1.828 1.329 0 .406.282.656.641.656.39 0 .656-.281.656-.656 0-.297-.172-.547-.531-.625.063-.063.438-.344 1.016-.344.78 0 .78.593.78.875 0 .5-.187 1.281-.968 1.328l-.422.031c-.14.016-.14.11-.14.172 0 .188.093.188.265.188h.422c1 0 1 .874 1 1.328 0 .406 0 1.312-.953 1.312-.11 0-.734-.016-1.14-.312.406-.11.5-.47.5-.672 0-.422-.298-.703-.72-.703-.374 0-.702.25-.702.703 0 .843.906 1.39 2.093 1.39 1.64 0 2.328-.906 2.328-1.718m0 0"/><path id="bu" d="M3.578-1.172c0-.469-.265-.86-.672-1.094l-.437-.25c.547-.265.89-.593.89-1.078 0-.672-.703-1.031-1.375-1.031-.765 0-1.39.5-1.39 1.156 0 .328.156.563.281.703.125.157.172.188.578.422-.39.172-1.078.547-1.078 1.281 0 .766.797 1.204 1.594 1.204.89 0 1.61-.563 1.61-1.313M3-3.594c0 .625-.734.938-.734.938s-.032 0-.079-.031l-.843-.485c-.188-.11-.375-.297-.375-.562 0-.438.5-.688 1-.688.547 0 1.031.344 1.031.828m.156 2.657c0 .53-.578.859-1.172.859-.64 0-1.187-.422-1.187-.984 0-.516.375-.922.875-1.141.39.219.406.219.969.547.172.11.515.312.515.718m0 0"/><path id="bv" d="M3.594-2.219c0-.765-.094-1.328-.406-1.812-.22-.313-.657-.594-1.204-.594C.36-4.625.36-2.719.36-2.219s0 2.36 1.625 2.36c1.61 0 1.61-1.86 1.61-2.36m-.625-.094c0 .516 0 1.032-.094 1.47-.14.64-.61.78-.89.78-.329 0-.75-.187-.891-.75C1-1.219 1-1.796 1-2.312c0-.515 0-1.046.094-1.421.156-.547.593-.703.89-.703.375 0 .735.234.86.64.11.375.125.875.125 1.485m0 0"/><path id="bw" d="M2.016 1.734v-.328h-.72V-4.89h.72v-.328H.953v6.953Zm0 0"/><path id="bx" d="M3.688-1.14v-.25h-.782V-4.5c0-.14 0-.203-.14-.203-.094 0-.125 0-.188.11L.266-1.392v.25h2.062v.563c0 .25 0 .328-.578.328h-.187V0l1.046-.031L3.672 0v-.25h-.188c-.578 0-.578-.078-.578-.328v-.563Zm-1.313-.25H.531l1.844-2.548Zm0 0"/><path id="by" d="M3.578-1.422c0-.89-.703-1.547-1.515-1.547-.563 0-.86.375-1.016.688 0-.563.047-1.078.312-1.516.235-.375.61-.625 1.063-.625.203 0 .484.047.625.234-.172.016-.328.141-.328.344a.32.32 0 0 0 .328.328c.219 0 .344-.14.344-.343 0-.407-.297-.766-.985-.766-1 0-2.031.922-2.031 2.422C.375-.406 1.219.14 2 .14c.844 0 1.578-.657 1.578-1.563m-.672 0c0 .39 0 .688-.187.969A.82.82 0 0 1 2-.078c-.36 0-.625-.203-.781-.516-.094-.203-.157-.562-.157-.968 0-.688.407-1.204.97-1.204.312 0 .53.125.702.375.172.266.172.563.172.97m0 0"/><path id="bz" d="M1.297 1.734v-6.953H.219v.328h.734v6.297H.22v.328Zm0 0"/><path id="bA" d="M7.813-1.75v-.203H.109v.203Zm0 0"/><path id="bB" d="M3.516-1.266H3.28c-.015.157-.094.563-.187.625-.047.047-.578.047-.688.047H1.125c.734-.64.984-.843 1.39-1.172.516-.406 1-.843 1-1.5 0-.843-.734-1.359-1.624-1.359-.86 0-1.453.61-1.453 1.25 0 .344.296.39.375.39.156 0 .359-.124.359-.374 0-.125-.047-.375-.406-.375.218-.485.687-.641 1.015-.641.703 0 1.063.547 1.063 1.11 0 .609-.438 1.078-.656 1.328L.516-.266C.437-.203.437-.187.437 0h2.876Zm0 0"/><path id="bC" d="M3.578-2.297c0-1.719-.765-2.328-1.578-2.328a1.55 1.55 0 0 0-1.11.422c-.234.234-.515.5-.515 1.125 0 .89.703 1.547 1.516 1.547.562 0 .859-.375 1.015-.688v.14c0 1.735-.844 2-1.265 2-.157 0-.532-.015-.72-.233a.315.315 0 0 0 .313-.329.32.32 0 0 0-.328-.328c-.203 0-.328.14-.328.344 0 .469.39.766 1.063.766 1 0 1.937-.938 1.937-2.438M2.891-3c0 .906-.516 1.266-.953 1.266-.282 0-.532-.079-.735-.407-.156-.25-.156-.546-.156-.937 0-.406 0-.672.203-.953.172-.25.39-.39.75-.39s.578.218.688.405c.187.282.203.782.203 1.016m0 0"/><path id="bD" d="M2.516 0v-.25h-.172c-.578 0-.578-.078-.578-.328v-3.61c0-.234 0-.328.578-.328h.172v-.25l-1.078.032-1.079-.032v.25h.172c.578 0 .578.094.578.329v3.609c0 .25 0 .328-.578.328H.36V0l1.079-.031Zm0 0"/><path id="bE" d="M5.547 0v-.25h-.125c-.469 0-.516-.078-.594-.266L3.125-4.812c-.031-.11-.062-.157-.187-.157-.141 0-.157.047-.204.157L1.125-.734C1.063-.562.938-.25.313-.25V0c.234-.016.484-.031.718-.031.282 0 .797.031.844.031v-.25c-.312 0-.516-.14-.516-.328 0-.063.016-.078.047-.14l.328-.86H3.72l.406 1.016c0 .03.031.078.031.109 0 .203-.375.203-.562.203V0l1.031-.031c.328 0 .86.031.922.031M3.609-1.828H1.83l.89-2.266Zm0 0"/><path id="bF" d="M4.047 0v-.25c-.469 0-.516-.047-.516-.39v-4.204l-1.047.078v.25c.47 0 .516.063.516.391v1.453a1.37 1.37 0 0 0-.969-.406c-.937 0-1.703.703-1.703 1.578S1.062.063 1.938.063c.578 0 .921-.297 1.03-.422v.422ZM2.969-.734c-.172.328-.531.609-.985.609-.39 0-.671-.234-.812-.437-.14-.204-.219-.485-.219-.922 0-.172 0-.688.281-1.016.282-.312.625-.375.829-.375.328 0 .64.156.828.406.078.11.078.11.078.25Zm0 0"/><path id="bG" d="M5.469-2.75V-3c-.188.016-.313.031-.5.031-.219 0-.485-.015-.688-.031v.25c.235 0 .36.14.36.297 0 .062 0 .078-.047.172L3.922-.547l-.75-1.906a.3.3 0 0 1-.031-.125c0-.156.172-.172.375-.172V-3c-.25.016-.5.031-.75.031-.203 0-.422-.015-.625-.031v.25c.172 0 .312 0 .406.047.094.078.156.312.156.312s-.015.063-.031.079L2.016-.641l-.703-1.812c-.032-.094-.032-.094-.032-.125 0-.172.25-.172.375-.172V-3s-.515.031-.797.031C.641-2.969.422-2.984.203-3v.25c.281 0 .438 0 .5.203l.969 2.453c.047.11.062.157.203.157.125 0 .14-.047.172-.141l.797-1.984.765 1.968c.047.094.063.157.204.157.124 0 .14-.047.187-.157l.875-2.234c.14-.344.375-.422.594-.422m0 0"/><path id="bH" d="M3.266-.844c0-.015-.016-.094-.125-.094-.094 0-.11.047-.125.11-.22.562-.75.672-1 .672-.328 0-.641-.14-.844-.406-.266-.329-.266-.75-.266-1.032h2.157c.156 0 .203 0 .203-.14 0-.625-.344-1.375-1.391-1.375a1.59 1.59 0 0 0-1.61 1.578c0 .89.782 1.594 1.704 1.594.937 0 1.297-.75 1.297-.907m-.485-.922H.906c.078-.984.703-1.14.969-1.14.86 0 .89.969.906 1.14m0 0"/><path id="bI" d="M4.11 0v-.25c-.454 0-.516 0-.516-.297v-1.562c0-.61-.297-.97-1.047-.97-.578 0-.938.313-1.14.688v-.687L.374-3v.25c.469 0 .531.047.531.39v1.813c0 .297-.078.297-.531.297V0s.5-.031.797-.031c.25 0 .734.031.797.031v-.25c-.453 0-.516 0-.516-.297v-1.265c0-.72.578-1.063 1.031-1.063.485 0 .547.375.547.734v1.594c0 .297-.062.297-.515.297V0s.5-.031.797-.031c.25 0 .734.031.796.031m0 0"/><path id="bJ" d="M2.61-.875v-.39h-.235v.374c0 .485-.219.735-.5.735-.469 0-.469-.578-.469-.703V-2.75h1.078V-3H1.406v-1.281h-.25c0 .625-.281 1.312-.953 1.328v.203h.64v1.875c0 .781.595.938.985.938.469 0 .781-.391.781-.938m0 0"/><path id="bK" d="M3.516-1.406c0-.782-.594-1.5-1.453-1.5-.313 0-.672.062-.985.328v-1.313c.36.094.563.094.672.094.922 0 1.469-.625 1.469-.734 0-.078-.047-.094-.078-.094 0 0-.032 0-.063.016-.172.062-.531.203-1.047.203-.203 0-.562-.016-1.015-.188-.079-.031-.094-.031-.094-.031-.094 0-.094.078-.094.188v2.046c0 .125 0 .204.11.204.062 0 .078 0 .14-.094.297-.375.734-.438.969-.438.422 0 .61.328.64.39.126.235.172.5.172.907 0 .203 0 .61-.218.922a.98.98 0 0 1-.813.422c-.453 0-.922-.25-1.094-.719.266.016.407-.156.407-.344 0-.296-.266-.343-.36-.343 0 0-.343 0-.343.375 0 .625.578 1.25 1.406 1.25.89 0 1.672-.657 1.672-1.547m0 0"/><clipPath id="b"><path d="M.535.266h6.883v9.636H.535Zm0 0"/></clipPath><clipPath id="a"><path d="M0 0h8v10H0z"/></clipPath><clipPath id="bm"><path d="M15.023 568.348H403v11.336H15.023Zm0 0"/></clipPath><linearGradient id="bn" x1="0" x2="388.063" y1="0" y2="0" gradientTransform="matrix(1 0 0 -1 15.024 579.685)" gradientUnits="userSpaceOnUse"><stop offset="0" stop-color="#f2f2f2"/><stop offset=".25" stop-color="#f2f2f2"/><stop offset=".313" stop-color="#f2f2f2"/><stop offset=".344" stop-color="#f2f2f2"/><stop offset=".359" stop-color="#f3f3f3"/><stop offset=".363" stop-color="#f4f4f4"/><stop offset=".367" stop-color="#f5f5f5"/><stop offset=".371" stop-color="#f6f6f6"/><stop offset=".375" stop-color="#f7f7f7"/><stop offset=".379" stop-color="#f8f8f8"/><stop offset=".383" stop-color="#f9f9f9"/><stop offset=".387" stop-color="#fafafa"/><stop offset=".391" stop-color="#fbfbfb"/><stop offset=".395" stop-color="#fcfcfc"/><stop offset=".398" stop-color="#fcfcfc"/><stop offset=".406" stop-color="#fcfcfc"/><stop offset=".438" stop-color="#fcfcfc"/><stop offset=".5" stop-color="#fcfcfc"/><stop offset=".563" stop-color="#fcfcfc"/><stop offset=".566" stop-color="#fcfcfc"/><stop offset=".57" stop-color="#fbfbfb"/><stop offset=".574" stop-color="#fafafa"/><stop offset=".578" stop-color="#f9f9f9"/><stop offset=".582" stop-color="#f8f8f8"/><stop offset=".586" stop-color="#f7f7f7"/><stop offset=".59" stop-color="#f6f6f6"/><stop offset=".594" stop-color="#f5f5f5"/><stop offset=".598" stop-color="#f4f4f4"/><stop offset=".602" stop-color="#f3f3f3"/><stop offset=".609" stop-color="#f3f3f3"/><stop offset=".625" stop-color="#f2f2f2"/><stop offset=".75" stop-color="#f2f2f2"/><stop offset="1" stop-color="#f2f2f2"/></linearGradient><g id="c" clip-path="url(#a)"><g clip-path="url(#b)"><path fill-rule="evenodd" d="m3.977 7.836 3.441 2.066V1.645c0-.762-.617-1.38-1.375-1.38H1.914C1.152.266.535.884.535 1.646v8.257Zm-2.754.851 2.754-1.652L6.73 8.687V1.646a.69.69 0 0 0-.687-.692H1.914a.69.69 0 0 0-.691.692Zm0 0"/></g></g></defs><use xlink:href="#c" transform="translate(9 27)"/><use xlink:href="#d" x="17.008" y="23.315"/><use xlink:href="#e" x="20.884" y="23.315"/><use xlink:href="#f" x="26.154" y="23.315"/><use xlink:href="#g" x="384.039" y="23.315"/><use xlink:href="#h" x="390.168" y="23.315"/><use xlink:href="#i" x="392.79" y="23.315"/><use xlink:href="#j" x="396.727" y="23.315"/><use xlink:href="#k" x="133.399" y="34.908"/><use xlink:href="#l" x="142.533" y="34.908"/><use xlink:href="#m" x="147.362" y="34.908"/><use xlink:href="#n" x="158.325" y="34.908"/><use xlink:href="#o" x="165.032" y="34.908"/><use xlink:href="#p" x="171.308" y="34.908"/><use xlink:href="#m" x="180.741" y="34.908"/><use xlink:href="#q" x="187.687" y="34.908"/><use xlink:href="#r" x="194.393" y="34.908"/><use xlink:href="#s" x="198.578" y="34.908"/><use xlink:href="#t" x="204.854" y="34.908"/><use xlink:href="#u" x="210.7" y="34.908"/><use xlink:href="#v" x="216.391" y="34.908"/><use xlink:href="#w" x="231.335" y="34.908"/><use xlink:href="#x" x="234.921" y="34.908"/><use xlink:href="#y" x="240.893" y="34.908"/><use xlink:href="#z" x="246.246" y="34.908"/><use xlink:href="#A" x="250.854" y="34.908"/><use xlink:href="#B" x="254.763" y="34.908"/><use xlink:href="#B" x="259.372" y="34.908"/><use xlink:href="#C" x="263.98" y="34.908"/><use xlink:href="#B" x="268.589" y="34.908"/><use xlink:href="#D" x="273.197" y="34.908"/><use xlink:href="#E" x="277.806" y="34.908"/><path fill="none" stroke="#000" stroke-miterlimit="10" stroke-width=".398" d="M17.008 39.293h384.094"/><use xlink:href="#F" x="399.042" y="114.378"/><use xlink:href="#G" x="399.042" y="108.265"/><use xlink:href="#H" x="399.042" y="103.563"/><use xlink:href="#I" x="399.042" y="98.39"/><use xlink:href="#H" x="399.042" y="94.628"/><use xlink:href="#J" x="399.042" y="89.456"/><use xlink:href="#K" x="399.042" y="86.116"/><use xlink:href="#L" x="399.042" y="82.355"/><use xlink:href="#M" x="399.042" y="77.652"/><use xlink:href="#N" x="399.042" y="73.42"/><use xlink:href="#K" x="399.042" y="70.121"/><use xlink:href="#N" x="399.042" y="66.359"/><use xlink:href="#O" x="399.042" y="63.059"/><use xlink:href="#L" x="399.042" y="56.006"/><use xlink:href="#P" x="399.042" y="51.303"/><use xlink:href="#Q" x="399.042" y="48.952"/><use xlink:href="#R" x="399.042" y="44.72"/><use xlink:href="#S" x="403.164" y="40.487"/><use xlink:href="#T" x="403.164" y="47.07"/><use xlink:href="#U" x="403.164" y="51.773"/><use xlink:href="#V" x="403.164" y="54.124"/><use xlink:href="#W" x="403.164" y="57.886"/><use xlink:href="#W" x="403.164" y="65.401"/><use xlink:href="#X" x="403.164" y="70.104"/><use xlink:href="#Y" x="403.164" y="74.336"/><use xlink:href="#Y" x="403.164" y="80.496"/><use xlink:href="#Z" x="403.164" y="83.836"/><use xlink:href="#aa" x="403.164" y="87.598"/><use xlink:href="#ab" x="403.164" y="92.3"/><use xlink:href="#ac" x="403.164" y="96.532"/><use xlink:href="#ab" x="403.164" y="99.832"/><use xlink:href="#ac" x="403.164" y="104.064"/><use xlink:href="#ad" x="403.164" y="107.363"/><use xlink:href="#aa" x="403.164" y="114.417"/><use xlink:href="#ae" x="403.164" y="119.119"/><use xlink:href="#af" x="403.164" y="121.47"/><use xlink:href="#ag" x="403.164" y="125.702"/><use xlink:href="#ah" x="403.164" y="129.934"/><use xlink:href="#ai" x="19.191" y="61.174"/><use xlink:href="#aj" x="39.061" y="51.089" fill="red"/><use xlink:href="#ak" x="39.061" y="61.174"/><use xlink:href="#al" x="47.119" y="61.174"/><use xlink:href="#am" x="51.351" y="61.174"/><use xlink:href="#an" x="61.106" y="61.174"/><use xlink:href="#ao" x="67.107" y="61.174"/><use xlink:href="#ap" x="72.714" y="61.174"/><use xlink:href="#am" x="81.095" y="61.174"/><use xlink:href="#aq" x="87.276" y="61.174"/><use xlink:href="#ar" x="93.277" y="61.174"/><use xlink:href="#as" x="96.708" y="61.174"/><use xlink:href="#at" x="102.315" y="61.174"/><use xlink:href="#au" x="107.515" y="61.174"/><use xlink:href="#av" x="112.596" y="61.174"/><use xlink:href="#aw" x="116.972" y="61.174"/><use xlink:href="#ax" x="39.061" y="72.733" fill="red"/><use xlink:href="#ay" x="39.061" y="82.818"/><use xlink:href="#al" x="44.74" y="82.818"/><use xlink:href="#am" x="48.972" y="82.818"/><use xlink:href="#an" x="58.727" y="82.818"/><use xlink:href="#ao" x="64.728" y="82.818"/><use xlink:href="#ap" x="70.335" y="82.818"/><use xlink:href="#am" x="78.716" y="82.818"/><use xlink:href="#aq" x="84.897" y="82.818"/><use xlink:href="#ar" x="90.898" y="82.818"/><use xlink:href="#as" x="94.329" y="82.818"/><use xlink:href="#at" x="99.936" y="82.818"/><use xlink:href="#au" x="105.136" y="82.818"/><use xlink:href="#av" x="110.217" y="82.818"/><use xlink:href="#am" x="39.061" y="104.462"/><use xlink:href="#aq" x="45.242" y="104.462"/><use xlink:href="#az" x="55.14" y="104.462"/><use xlink:href="#aA" x="64.394" y="104.462"/><use xlink:href="#aB" x="67.144" y="94.376" fill="red"/><use xlink:href="#ar" x="67.144" y="104.462"/><use xlink:href="#am" x="70.575" y="104.462"/><use xlink:href="#aC" x="76.433" y="104.462"/><use xlink:href="#at" x="80.916" y="104.462"/><use xlink:href="#aA" x="86.117" y="104.462"/><use xlink:href="#aD" x="92.764" y="94.376" fill="red"/><use xlink:href="#aE" x="92.764" y="104.462"/><use xlink:href="#am" x="100.535" y="104.462"/><use xlink:href="#aF" x="106.393" y="104.462"/><use xlink:href="#ao" x="112.251" y="104.462"/><use xlink:href="#aG" x="117.858" y="104.462"/><use xlink:href="#aH" x="129.358" y="54.933"/><use xlink:href="#aI" x="129.358" y="62.373"/><use xlink:href="#aI" x="129.358" y="68.478"/><use xlink:href="#aJ" x="129.358" y="84.908"/><use xlink:href="#aI" x="129.358" y="92.348"/><use xlink:href="#aI" x="129.358" y="98.453"/><use xlink:href="#aK" x="129.358" y="105.916"/><use xlink:href="#aL" x="142.134" y="78.93"/><use xlink:href="#aM" x="147.992" y="78.93"/><use xlink:href="#aN" x="22.551" y="126.105"/><use xlink:href="#aO" x="39.061" y="126.105"/><use xlink:href="#am" x="49.223" y="126.105"/><use xlink:href="#aP" x="55.081" y="126.105"/><use xlink:href="#aQ" x="60.162" y="126.105"/><use xlink:href="#aR" x="69.259" y="126.105"/><use xlink:href="#aQ" x="74.747" y="126.105"/><use xlink:href="#au" x="79.947" y="126.105"/><use xlink:href="#aS" x="85.028" y="126.105"/><use xlink:href="#ap" x="91.029" y="126.105"/><use xlink:href="#aj" x="99.411" y="116.02" fill="red"/><use xlink:href="#aT" x="99.411" y="126.105"/><use xlink:href="#aU" x="106.895" y="126.105"/><use xlink:href="#aV" x="112.896" y="126.105"/><use xlink:href="#av" x="116.877" y="126.105"/><use xlink:href="#ap" x="122.233" y="126.105"/><use xlink:href="#al" x="126.716" y="126.105"/><use xlink:href="#aS" x="130.948" y="126.105"/><use xlink:href="#ap" x="136.95" y="126.105"/><use xlink:href="#aw" x="141.433" y="126.105"/><use xlink:href="#aW" x="39.061" y="147.749"/><use xlink:href="#aQ" x="46.067" y="147.749"/><use xlink:href="#an" x="51.267" y="147.749"/><use xlink:href="#aw" x="57.268" y="147.749"/><use xlink:href="#ay" x="64.418" y="147.749"/><use xlink:href="#al" x="70.096" y="147.749"/><use xlink:href="#aX" x="74.328" y="147.749"/><use xlink:href="#aV" x="79.863" y="147.749"/><use xlink:href="#av" x="83.844" y="147.749"/><use xlink:href="#aS" x="93.098" y="147.749"/><use xlink:href="#az" x="99.099" y="147.749"/><use xlink:href="#ao" x="108.352" y="147.749"/><use xlink:href="#aV" x="113.636" y="147.749"/><use xlink:href="#ar" x="117.617" y="147.749"/><use xlink:href="#aw" x="121.371" y="147.749"/><use xlink:href="#aW" x="39.061" y="169.393"/><use xlink:href="#aQ" x="46.067" y="169.393"/><use xlink:href="#an" x="51.267" y="169.393"/><use xlink:href="#aw" x="57.268" y="169.393"/><use xlink:href="#ay" x="64.418" y="169.393"/><use xlink:href="#al" x="70.096" y="169.393"/><use xlink:href="#aX" x="74.328" y="169.393"/><use xlink:href="#aV" x="79.863" y="169.393"/><use xlink:href="#av" x="83.844" y="169.393"/><use xlink:href="#au" x="93.098" y="169.393"/><use xlink:href="#az" x="98.179" y="169.393"/><use xlink:href="#ao" x="107.432" y="169.393"/><use xlink:href="#aV" x="112.716" y="169.393"/><use xlink:href="#ax" x="116.698" y="159.307" fill="red"/><use xlink:href="#al" x="116.698" y="169.393"/><use xlink:href="#aY" x="120.607" y="169.393"/><use xlink:href="#av" x="128.569" y="169.393"/><use xlink:href="#at" x="133.925" y="169.393"/><use xlink:href="#aU" x="139.126" y="169.393"/><use xlink:href="#aY" x="145.127" y="169.393"/><use xlink:href="#ap" x="153.089" y="169.393"/><use xlink:href="#al" x="157.572" y="169.393"/><use xlink:href="#ao" x="161.804" y="169.393"/><use xlink:href="#ar" x="167.411" y="169.393"/><use xlink:href="#aw" x="171.165" y="169.393"/><use xlink:href="#aW" x="39.061" y="191.036"/><use xlink:href="#aQ" x="46.067" y="191.036"/><use xlink:href="#an" x="51.267" y="191.036"/><use xlink:href="#aw" x="57.268" y="191.036"/><use xlink:href="#ay" x="64.418" y="191.036"/><use xlink:href="#al" x="70.096" y="191.036"/><use xlink:href="#aX" x="74.328" y="191.036"/><use xlink:href="#aV" x="79.863" y="191.036"/><use xlink:href="#av" x="83.844" y="191.036"/><use xlink:href="#aZ" x="93.098" y="191.036"/><use xlink:href="#am" x="99.422" y="191.036"/><use xlink:href="#aZ" x="109.177" y="191.036"/><use xlink:href="#aV" x="114.856" y="191.036"/><use xlink:href="#ao" x="118.837" y="191.036"/><use xlink:href="#aY" x="124.121" y="191.036"/><use xlink:href="#aA" x="132.083" y="191.036"/><use xlink:href="#at" x="134.833" y="191.036"/><use xlink:href="#av" x="140.033" y="191.036"/><use xlink:href="#aB" x="149.288" y="180.951" fill="red"/><use xlink:href="#aE" x="149.288" y="191.036"/><use xlink:href="#am" x="157.059" y="191.036"/><use xlink:href="#aF" x="162.917" y="191.036"/><use xlink:href="#ao" x="168.775" y="191.036"/><use xlink:href="#au" x="39.061" y="212.68"/><use xlink:href="#ao" x="44.142" y="212.68"/><use xlink:href="#an" x="53.646" y="212.68"/><use xlink:href="#ao" x="59.648" y="212.68"/><use xlink:href="#az" x="65.254" y="212.68"/><use xlink:href="#aA" x="74.508" y="212.68"/><use xlink:href="#ap" x="81.155" y="212.68"/><use xlink:href="#aA" x="85.638" y="212.68"/><use xlink:href="#ba" x="88.387" y="212.68"/><use xlink:href="#aD" x="97.486" y="202.595" fill="red"/><use xlink:href="#aY" x="97.486" y="212.68"/><use xlink:href="#ap" x="105.448" y="212.68"/><use xlink:href="#al" x="109.931" y="212.68"/><use xlink:href="#ao" x="114.163" y="212.68"/><use xlink:href="#aY" x="119.447" y="212.68"/><use xlink:href="#aA" x="127.409" y="212.68"/><use xlink:href="#ao" x="130.159" y="212.68"/><use xlink:href="#aG" x="135.766" y="212.68"/><use xlink:href="#ai" x="19.191" y="234.324"/><use xlink:href="#aj" x="39.061" y="224.238" fill="red"/><use xlink:href="#ak" x="39.061" y="234.324"/><use xlink:href="#al" x="47.119" y="234.324"/><use xlink:href="#am" x="51.351" y="234.324"/><use xlink:href="#an" x="61.106" y="234.324"/><use xlink:href="#ao" x="67.107" y="234.324"/><use xlink:href="#ap" x="72.714" y="234.324"/><use xlink:href="#am" x="81.095" y="234.324"/><use xlink:href="#aq" x="87.276" y="234.324"/><use xlink:href="#ar" x="93.277" y="234.324"/><use xlink:href="#as" x="96.708" y="234.324"/><use xlink:href="#at" x="102.315" y="234.324"/><use xlink:href="#au" x="107.515" y="234.324"/><use xlink:href="#av" x="112.596" y="234.324"/><use xlink:href="#aw" x="116.972" y="234.324"/><use xlink:href="#ax" x="39.061" y="245.882" fill="red"/><use xlink:href="#ay" x="39.061" y="255.967"/><use xlink:href="#al" x="44.74" y="255.967"/><use xlink:href="#am" x="48.972" y="255.967"/><use xlink:href="#an" x="58.727" y="255.967"/><use xlink:href="#ao" x="64.728" y="255.967"/><use xlink:href="#ap" x="70.335" y="255.967"/><use xlink:href="#am" x="78.716" y="255.967"/><use xlink:href="#aq" x="84.897" y="255.967"/><use xlink:href="#ar" x="90.898" y="255.967"/><use xlink:href="#as" x="94.329" y="255.967"/><use xlink:href="#at" x="99.936" y="255.967"/><use xlink:href="#au" x="105.136" y="255.967"/><use xlink:href="#av" x="110.217" y="255.967"/><use xlink:href="#am" x="39.061" y="277.611"/><use xlink:href="#aq" x="45.242" y="277.611"/><use xlink:href="#az" x="55.14" y="277.611"/><use xlink:href="#aA" x="64.394" y="277.611"/><use xlink:href="#aB" x="67.144" y="267.525" fill="red"/><use xlink:href="#ar" x="67.144" y="277.611"/><use xlink:href="#am" x="70.575" y="277.611"/><use xlink:href="#aC" x="76.433" y="277.611"/><use xlink:href="#at" x="80.916" y="277.611"/><use xlink:href="#aA" x="86.117" y="277.611"/><use xlink:href="#aD" x="92.764" y="267.525" fill="red"/><use xlink:href="#aE" x="92.764" y="277.611"/><use xlink:href="#am" x="100.535" y="277.611"/><use xlink:href="#aF" x="106.393" y="277.611"/><use xlink:href="#ao" x="112.251" y="277.611"/><use xlink:href="#aG" x="117.858" y="277.611"/><use xlink:href="#aH" x="129.358" y="228.082"/><use xlink:href="#aI" x="129.358" y="235.522"/><use xlink:href="#aI" x="129.358" y="241.627"/><use xlink:href="#aJ" x="129.358" y="258.057"/><use xlink:href="#aI" x="129.358" y="265.497"/><use xlink:href="#aI" x="129.358" y="271.602"/><use xlink:href="#aK" x="129.358" y="279.065"/><use xlink:href="#aL" x="142.134" y="252.079"/><use xlink:href="#aM" x="147.992" y="252.079"/><use xlink:href="#aN" x="22.551" y="299.254"/><use xlink:href="#aD" x="39.061" y="289.169" fill="red"/><use xlink:href="#bb" x="39.061" y="299.254"/><use xlink:href="#al" x="47.035" y="299.254"/><use xlink:href="#aV" x="51.267" y="299.254"/><use xlink:href="#ao" x="55.248" y="299.254"/><use xlink:href="#aj" x="60.855" y="289.169" fill="red"/><use xlink:href="#aZ" x="60.855" y="299.254"/><use xlink:href="#aA" x="66.856" y="299.254"/><use xlink:href="#aQ" x="69.606" y="299.254"/><use xlink:href="#an" x="74.806" y="299.254"/><use xlink:href="#aA" x="80.808" y="299.254"/><use xlink:href="#aQ" x="83.558" y="299.254"/><use xlink:href="#aw" x="88.758" y="299.254"/><use xlink:href="#aS" x="39.061" y="320.898"/><use xlink:href="#at" x="45.062" y="320.898"/><use xlink:href="#aA" x="50.263" y="320.898"/><use xlink:href="#ap" x="53.012" y="320.898"/><use xlink:href="#ay" x="57.496" y="320.898"/><use xlink:href="#at" x="67.072" y="320.898"/><use xlink:href="#au" x="72.272" y="320.898"/><use xlink:href="#av" x="77.353" y="320.898"/><use xlink:href="#aZ" x="86.606" y="320.898"/><use xlink:href="#aV" x="92.285" y="320.898"/><use xlink:href="#au" x="96.266" y="320.898"/><use xlink:href="#aQ" x="101.347" y="320.898"/><use xlink:href="#aC" x="106.547" y="320.898"/><use xlink:href="#bc" x="111.03" y="320.898"/><use xlink:href="#ao" x="113.78" y="320.898"/><use xlink:href="#aq" x="119.387" y="320.898"/><use xlink:href="#am" x="125.388" y="320.898"/><use xlink:href="#ax" x="131.247" y="310.813" fill="red"/><use xlink:href="#aY" x="131.247" y="320.898"/><use xlink:href="#ao" x="138.886" y="320.898"/><use xlink:href="#an" x="144.493" y="320.898"/><use xlink:href="#aA" x="150.495" y="320.898"/><use xlink:href="#aQ" x="153.244" y="320.898"/><use xlink:href="#aw" x="158.445" y="320.898"/><use xlink:href="#aF" x="39.061" y="342.542"/><use xlink:href="#ar" x="44.919" y="342.542"/><use xlink:href="#aX" x="48.35" y="342.542"/><use xlink:href="#aq" x="54.531" y="342.542"/><use xlink:href="#aw" x="60.532" y="342.542"/><use xlink:href="#at" x="67.681" y="342.542"/><use xlink:href="#au" x="72.882" y="342.542"/><use xlink:href="#av" x="77.963" y="342.542"/><use xlink:href="#aB" x="87.216" y="332.456" fill="red"/><use xlink:href="#an" x="87.216" y="342.542"/><use xlink:href="#ao" x="93.217" y="342.542"/><use xlink:href="#aF" x="98.824" y="342.542"/><use xlink:href="#am" x="104.682" y="342.542"/><use xlink:href="#aC" x="110.54" y="342.542"/><use xlink:href="#bd" x="115.023" y="342.542"/><use xlink:href="#aG" x="120.224" y="342.542"/><use xlink:href="#aR" x="39.061" y="364.185"/><use xlink:href="#aQ" x="44.548" y="364.185"/><use xlink:href="#aC" x="49.749" y="364.185"/><use xlink:href="#bc" x="54.232" y="364.185"/><use xlink:href="#aA" x="56.982" y="364.185"/><use xlink:href="#aY" x="63.629" y="364.185"/><use xlink:href="#aQ" x="71.268" y="364.185"/><use xlink:href="#aY" x="80.366" y="364.185"/><use xlink:href="#ap" x="88.328" y="364.185"/><use xlink:href="#au" x="92.811" y="364.185"/><use xlink:href="#av" x="97.892" y="364.185"/><use xlink:href="#ap" x="103.247" y="364.185"/><use xlink:href="#al" x="107.731" y="364.185"/><use xlink:href="#ay" x="111.963" y="364.185"/><use xlink:href="#aA" x="117.641" y="364.185"/><use xlink:href="#az" x="120.391" y="364.185"/><use xlink:href="#al" x="133.541" y="364.185"/><use xlink:href="#av" x="137.451" y="364.185"/><use xlink:href="#az" x="142.807" y="364.185"/><use xlink:href="#au" x="155.957" y="364.185"/><use xlink:href="#aY" x="161.038" y="364.185"/><use xlink:href="#av" x="169" y="364.185"/><use xlink:href="#at" x="174.356" y="364.185"/><use xlink:href="#aA" x="179.556" y="364.185"/><use xlink:href="#ba" x="182.306" y="364.185"/><use xlink:href="#aP" x="187.506" y="364.185"/><use xlink:href="#ao" x="192.587" y="364.185"/><use xlink:href="#az" x="198.194" y="364.185"/><use xlink:href="#av" x="207.447" y="364.185"/><use xlink:href="#aw" x="211.823" y="364.185"/><use xlink:href="#al" x="39.061" y="385.829"/><use xlink:href="#am" x="43.293" y="385.829"/><use xlink:href="#aq" x="53.048" y="385.829"/><use xlink:href="#au" x="59.05" y="385.829"/><use xlink:href="#aA" x="64.131" y="385.829"/><use xlink:href="#ba" x="66.88" y="385.829"/><use xlink:href="#ay" x="72.081" y="385.829"/><use xlink:href="#aA" x="77.759" y="385.829"/><use xlink:href="#al" x="84.406" y="385.829"/><use xlink:href="#aQ" x="88.638" y="385.829"/><use xlink:href="#az" x="93.839" y="385.829"/><use xlink:href="#aS" x="103.092" y="385.829"/><use xlink:href="#aw" x="109.093" y="385.829"/><use xlink:href="#aP" x="116.243" y="385.829"/><use xlink:href="#aQ" x="121.323" y="385.829"/><use xlink:href="#be" x="130.421" y="385.829"/><use xlink:href="#an" x="139.053" y="385.829"/><use xlink:href="#an" x="148.951" y="385.829"/><use xlink:href="#ao" x="154.953" y="385.829"/><use xlink:href="#ap" x="160.56" y="385.829"/><use xlink:href="#aD" x="168.942" y="375.744" fill="red"/><use xlink:href="#ay" x="168.942" y="385.829"/><use xlink:href="#am" x="174.298" y="385.829"/><use xlink:href="#at" x="180.479" y="385.829"/><use xlink:href="#aU" x="185.679" y="385.829"/><use xlink:href="#ao" x="191.68" y="385.829"/><use xlink:href="#bf" x="197.287" y="385.829"/><use xlink:href="#ai" x="217.26" y="61.174"/><use xlink:href="#aj" x="237.13" y="51.089" fill="red"/><use xlink:href="#ak" x="237.13" y="61.174"/><use xlink:href="#al" x="245.188" y="61.174"/><use xlink:href="#am" x="249.42" y="61.174"/><use xlink:href="#an" x="259.175" y="61.174"/><use xlink:href="#ao" x="265.176" y="61.174"/><use xlink:href="#ap" x="270.783" y="61.174"/><use xlink:href="#am" x="279.164" y="61.174"/><use xlink:href="#aq" x="285.345" y="61.174"/><use xlink:href="#ar" x="291.346" y="61.174"/><use xlink:href="#as" x="294.777" y="61.174"/><use xlink:href="#at" x="300.384" y="61.174"/><use xlink:href="#au" x="305.584" y="61.174"/><use xlink:href="#av" x="310.665" y="61.174"/><use xlink:href="#aw" x="315.041" y="61.174"/><use xlink:href="#ax" x="237.13" y="72.733" fill="red"/><use xlink:href="#ay" x="237.13" y="82.818"/><use xlink:href="#al" x="242.809" y="82.818"/><use xlink:href="#am" x="247.041" y="82.818"/><use xlink:href="#an" x="256.796" y="82.818"/><use xlink:href="#ao" x="262.797" y="82.818"/><use xlink:href="#ap" x="268.404" y="82.818"/><use xlink:href="#am" x="276.785" y="82.818"/><use xlink:href="#aq" x="282.966" y="82.818"/><use xlink:href="#ar" x="288.967" y="82.818"/><use xlink:href="#as" x="292.398" y="82.818"/><use xlink:href="#at" x="298.005" y="82.818"/><use xlink:href="#au" x="303.205" y="82.818"/><use xlink:href="#av" x="308.286" y="82.818"/><use xlink:href="#am" x="237.13" y="104.462"/><use xlink:href="#aq" x="243.311" y="104.462"/><use xlink:href="#az" x="253.209" y="104.462"/><use xlink:href="#aA" x="262.463" y="104.462"/><use xlink:href="#aB" x="265.212" y="94.376" fill="red"/><use xlink:href="#ar" x="265.212" y="104.462"/><use xlink:href="#am" x="268.643" y="104.462"/><use xlink:href="#aC" x="274.501" y="104.462"/><use xlink:href="#at" x="278.984" y="104.462"/><use xlink:href="#aA" x="284.185" y="104.462"/><use xlink:href="#aD" x="290.832" y="94.376" fill="red"/><use xlink:href="#aE" x="290.832" y="104.462"/><use xlink:href="#am" x="298.603" y="104.462"/><use xlink:href="#aF" x="304.461" y="104.462"/><use xlink:href="#ao" x="310.319" y="104.462"/><use xlink:href="#aG" x="315.926" y="104.462"/><use xlink:href="#aH" x="327.427" y="54.933"/><use xlink:href="#aI" x="327.427" y="62.373"/><use xlink:href="#aI" x="327.427" y="68.478"/><use xlink:href="#aJ" x="327.427" y="84.908"/><use xlink:href="#aI" x="327.427" y="92.348"/><use xlink:href="#aI" x="327.427" y="98.453"/><use xlink:href="#aK" x="327.427" y="105.916"/><use xlink:href="#aL" x="340.203" y="78.93"/><use xlink:href="#aM" x="346.061" y="78.93"/><use xlink:href="#aN" x="220.62" y="126.105"/><use xlink:href="#aD" x="237.13" y="116.02" fill="red"/><use xlink:href="#bg" x="244.458" y="111.68" fill="red"/><use xlink:href="#bh" x="237.13" y="126.105"/><use xlink:href="#bi" x="244.207" y="126.105"/><use xlink:href="#aQ" x="247.292" y="126.105"/><use xlink:href="#ap" x="252.492" y="126.105"/><use xlink:href="#al" x="256.975" y="126.105"/><use xlink:href="#aQ" x="261.207" y="126.105"/><use xlink:href="#aC" x="266.408" y="126.105"/><use xlink:href="#az" x="270.891" y="126.105"/><use xlink:href="#av" x="280.144" y="126.105"/><use xlink:href="#aj" x="289.398" y="116.02" fill="red"/><use xlink:href="#aZ" x="289.398" y="126.105"/><use xlink:href="#aQ" x="295.722" y="126.105"/><use xlink:href="#aY" x="300.923" y="126.105"/><use xlink:href="#an" x="308.885" y="126.105"/><use xlink:href="#aA" x="314.886" y="126.105"/><use xlink:href="#aw" x="317.636" y="126.105"/><use xlink:href="#aP" x="237.13" y="147.749"/><use xlink:href="#aQ" x="242.211" y="147.749"/><use xlink:href="#ao" x="251.309" y="147.749"/><use xlink:href="#an" x="256.916" y="147.749"/><use xlink:href="#aA" x="262.917" y="147.749"/><use xlink:href="#aC" x="269.564" y="147.749"/><use xlink:href="#az" x="274.047" y="147.749"/><use xlink:href="#aA" x="283.3" y="147.749"/><use xlink:href="#aQ" x="286.05" y="147.749"/><use xlink:href="#aV" x="291.25" y="147.749"/><use xlink:href="#bd" x="295.231" y="147.749"/><use xlink:href="#aw" x="300.432" y="147.749"/><use xlink:href="#ao" x="307.581" y="147.749"/><use xlink:href="#an" x="313.188" y="147.749"/><use xlink:href="#aA" x="319.189" y="147.749"/><use xlink:href="#aP" x="325.836" y="147.749"/><use xlink:href="#av" x="330.917" y="147.749"/><use xlink:href="#at" x="336.273" y="147.749"/><use xlink:href="#aA" x="341.473" y="147.749"/><use xlink:href="#aQ" x="344.223" y="147.749"/><use xlink:href="#aw" x="349.423" y="147.749"/><use xlink:href="#ao" x="237.13" y="169.393"/><use xlink:href="#an" x="242.737" y="169.393"/><use xlink:href="#aA" x="248.738" y="169.393"/><use xlink:href="#al" x="255.385" y="169.393"/><use xlink:href="#aQ" x="259.617" y="169.393"/><use xlink:href="#aV" x="264.818" y="169.393"/><use xlink:href="#ao" x="268.799" y="169.393"/><use xlink:href="#bj" x="274.406" y="169.393"/><use xlink:href="#an" x="279.487" y="169.393"/><use xlink:href="#aA" x="285.488" y="169.393"/><use xlink:href="#aQ" x="288.238" y="169.393"/><use xlink:href="#bi" x="293.438" y="169.393"/><use xlink:href="#ap" x="296.522" y="169.393"/><use xlink:href="#au" x="301.006" y="169.393"/><use xlink:href="#am" x="306.086" y="169.393"/><use xlink:href="#aC" x="311.944" y="169.393"/><use xlink:href="#bd" x="316.428" y="169.393"/><use xlink:href="#aw" x="321.628" y="169.393"/><use xlink:href="#ao" x="328.777" y="169.393"/><use xlink:href="#an" x="334.384" y="169.393"/><use xlink:href="#aA" x="340.385" y="169.393"/><use xlink:href="#aZ" x="347.032" y="169.393"/><use xlink:href="#aV" x="352.711" y="169.393"/><use xlink:href="#au" x="356.692" y="169.393"/><use xlink:href="#av" x="361.773" y="169.393"/><use xlink:href="#ap" x="367.129" y="169.393"/><use xlink:href="#au" x="371.612" y="169.393"/><use xlink:href="#ar" x="376.693" y="169.393"/><use xlink:href="#am" x="380.124" y="169.393"/><use xlink:href="#aC" x="385.982" y="169.393"/><use xlink:href="#bd" x="390.465" y="169.393"/><use xlink:href="#aw" x="395.665" y="169.393"/><use xlink:href="#ao" x="237.13" y="191.036"/><use xlink:href="#an" x="242.737" y="191.036"/><use xlink:href="#aA" x="248.738" y="191.036"/><use xlink:href="#at" x="255.385" y="191.036"/><use xlink:href="#am" x="260.586" y="191.036"/><use xlink:href="#aY" x="270.341" y="191.036"/><use xlink:href="#av" x="278.303" y="191.036"/><use xlink:href="#ap" x="283.659" y="191.036"/><use xlink:href="#am" x="288.142" y="191.036"/><use xlink:href="#ay" x="294" y="191.036"/><use xlink:href="#aA" x="299.679" y="191.036"/><use xlink:href="#aQ" x="302.428" y="191.036"/><use xlink:href="#aw" x="307.629" y="191.036"/><use xlink:href="#ao" x="314.778" y="191.036"/><use xlink:href="#an" x="320.385" y="191.036"/><use xlink:href="#aA" x="326.386" y="191.036"/><use xlink:href="#at" x="333.033" y="191.036"/><use xlink:href="#am" x="338.233" y="191.036"/><use xlink:href="#aF" x="347.989" y="191.036"/><use xlink:href="#ar" x="353.847" y="191.036"/><use xlink:href="#ba" x="357.278" y="191.036"/><use xlink:href="#ax" x="362.48" y="180.951" fill="red"/><use xlink:href="#bk" x="362.48" y="191.036"/><use xlink:href="#am" x="368.804" y="191.036"/><use xlink:href="#ay" x="374.662" y="191.036"/><use xlink:href="#aA" x="380.341" y="191.036"/><use xlink:href="#aQ" x="383.09" y="191.036"/><use xlink:href="#aw" x="388.291" y="191.036"/><use xlink:href="#ao" x="237.13" y="212.68"/><use xlink:href="#an" x="242.737" y="212.68"/><use xlink:href="#aA" x="248.738" y="212.68"/><use xlink:href="#aP" x="255.385" y="212.68"/><use xlink:href="#ao" x="260.466" y="212.68"/><use xlink:href="#aq" x="266.073" y="212.68"/><use xlink:href="#an" x="272.074" y="212.68"/><use xlink:href="#aQ" x="278.076" y="212.68"/><use xlink:href="#aA" x="287.174" y="212.68"/><use xlink:href="#an" x="289.923" y="212.68"/><use xlink:href="#an" x="295.925" y="212.68"/><use xlink:href="#aQ" x="301.926" y="212.68"/><use xlink:href="#ap" x="311.024" y="212.68"/><use xlink:href="#al" x="315.507" y="212.68"/><use xlink:href="#aY" x="319.416" y="212.68"/><use xlink:href="#am" x="327.056" y="212.68"/><use xlink:href="#aB" x="332.915" y="202.595" fill="red"/><use xlink:href="#aV" x="332.915" y="212.68"/><use xlink:href="#au" x="336.896" y="212.68"/><use xlink:href="#aQ" x="341.977" y="212.68"/><use xlink:href="#an" x="347.177" y="212.68"/><use xlink:href="#aA" x="353.179" y="212.68"/><use xlink:href="#aQ" x="355.928" y="212.68"/><use xlink:href="#an" x="237.13" y="234.324"/><use xlink:href="#aA" x="243.131" y="234.324"/><use xlink:href="#aQ" x="245.881" y="234.324"/><use xlink:href="#au" x="254.979" y="234.324"/><use xlink:href="#aq" x="260.06" y="234.324"/><use xlink:href="#am" x="266.061" y="234.324"/><use xlink:href="#ar" x="271.919" y="234.324"/><use xlink:href="#ao" x="275.35" y="234.324"/><use xlink:href="#an" x="284.854" y="234.324"/><use xlink:href="#ao" x="290.856" y="234.324"/><use xlink:href="#ap" x="296.463" y="234.324"/><use xlink:href="#am" x="304.843" y="234.324"/><use xlink:href="#aq" x="311.024" y="234.324"/><use xlink:href="#ar" x="317.025" y="234.324"/><use xlink:href="#as" x="320.456" y="234.324"/><use xlink:href="#at" x="326.063" y="234.324"/><use xlink:href="#au" x="331.264" y="234.324"/><use xlink:href="#av" x="336.345" y="234.324"/><use xlink:href="#bd" x="341.7" y="234.324"/><use xlink:href="#am" x="350.798" y="234.324"/><use xlink:href="#aq" x="356.979" y="234.324"/><use xlink:href="#aD" x="366.879" y="224.238" fill="red"/><use xlink:href="#aE" x="366.879" y="234.324"/><use xlink:href="#am" x="374.65" y="234.324"/><use xlink:href="#aF" x="380.508" y="234.324"/><use xlink:href="#ao" x="386.366" y="234.324"/><use xlink:href="#bf" x="391.973" y="234.324"/><use xlink:href="#ai" x="217.26" y="255.967"/><use xlink:href="#bl" x="237.13" y="255.967"/><use xlink:href="#aA" x="245.331" y="255.967"/><use xlink:href="#aQ" x="248.081" y="255.967"/><use xlink:href="#au" x="257.179" y="255.967"/><use xlink:href="#aq" x="262.259" y="255.967"/><use xlink:href="#am" x="268.261" y="255.967"/><use xlink:href="#ar" x="274.119" y="255.967"/><use xlink:href="#ao" x="277.55" y="255.967"/><use xlink:href="#an" x="287.054" y="255.967"/><use xlink:href="#ao" x="293.056" y="255.967"/><use xlink:href="#ap" x="298.662" y="255.967"/><use xlink:href="#am" x="307.043" y="255.967"/><use xlink:href="#aq" x="313.224" y="255.967"/><use xlink:href="#aj" x="319.226" y="245.882" fill="red"/><use xlink:href="#ar" x="319.226" y="255.967"/><use xlink:href="#as" x="322.657" y="255.967"/><use xlink:href="#at" x="328.264" y="255.967"/><use xlink:href="#au" x="333.464" y="255.967"/><use xlink:href="#av" x="338.545" y="255.967"/><use xlink:href="#bd" x="343.901" y="255.967"/><use xlink:href="#aw" x="349.102" y="255.967"/><use xlink:href="#an" x="237.13" y="277.611"/><use xlink:href="#aA" x="243.131" y="277.611"/><use xlink:href="#aQ" x="245.881" y="277.611"/><use xlink:href="#au" x="254.979" y="277.611"/><use xlink:href="#aq" x="260.06" y="277.611"/><use xlink:href="#am" x="266.061" y="277.611"/><use xlink:href="#ar" x="271.919" y="277.611"/><use xlink:href="#ao" x="275.35" y="277.611"/><use xlink:href="#an" x="284.854" y="277.611"/><use xlink:href="#ao" x="290.856" y="277.611"/><use xlink:href="#ap" x="296.463" y="277.611"/><use xlink:href="#am" x="304.843" y="277.611"/><use xlink:href="#aq" x="311.024" y="277.611"/><use xlink:href="#ax" x="317.026" y="267.525" fill="red"/><use xlink:href="#ar" x="317.026" y="277.611"/><use xlink:href="#as" x="320.457" y="277.611"/><use xlink:href="#at" x="326.064" y="277.611"/><use xlink:href="#au" x="331.264" y="277.611"/><use xlink:href="#av" x="336.345" y="277.611"/><use xlink:href="#bd" x="341.701" y="277.611"/><use xlink:href="#am" x="237.13" y="299.254"/><use xlink:href="#aq" x="243.311" y="299.254"/><use xlink:href="#az" x="253.209" y="299.254"/><use xlink:href="#aA" x="262.463" y="299.254"/><use xlink:href="#ar" x="265.212" y="299.254"/><use xlink:href="#am" x="268.643" y="299.254"/><use xlink:href="#aC" x="274.501" y="299.254"/><use xlink:href="#at" x="278.984" y="299.254"/><use xlink:href="#aA" x="284.185" y="299.254"/><use xlink:href="#aB" x="290.832" y="289.169" fill="red"/><use xlink:href="#aE" x="290.832" y="299.254"/><use xlink:href="#am" x="298.603" y="299.254"/><use xlink:href="#aF" x="304.461" y="299.254"/><use xlink:href="#ao" x="310.319" y="299.254"/><use xlink:href="#am" x="237.13" y="320.898"/><use xlink:href="#bk" x="242.988" y="320.898"/><use xlink:href="#bi" x="248.989" y="320.898"/><use xlink:href="#ao" x="252.074" y="320.898"/><use xlink:href="#aY" x="257.358" y="320.898"/><use xlink:href="#aA" x="265.32" y="320.898"/><use xlink:href="#am" x="268.07" y="320.898"/><use xlink:href="#an" x="273.927" y="320.898"/><use xlink:href="#aQ" x="279.929" y="320.898"/><use xlink:href="#bi" x="285.129" y="320.898"/><use xlink:href="#aY" x="292.111" y="320.898"/><use xlink:href="#aT" x="303.97" y="320.898"/><use xlink:href="#aU" x="311.454" y="320.898"/><use xlink:href="#aV" x="317.456" y="320.898"/><use xlink:href="#av" x="321.437" y="320.898"/><use xlink:href="#ap" x="326.793" y="320.898"/><use xlink:href="#al" x="331.276" y="320.898"/><use xlink:href="#aS" x="335.508" y="320.898"/><use xlink:href="#ap" x="341.509" y="320.898"/><use xlink:href="#aA" x="345.992" y="320.898"/><use xlink:href="#aQ" x="348.742" y="320.898"/><use xlink:href="#aR" x="357.84" y="320.898"/><use xlink:href="#aQ" x="363.327" y="320.898"/><use xlink:href="#aD" x="368.529" y="310.813" fill="red"/><use xlink:href="#au" x="368.529" y="320.898"/><use xlink:href="#aS" x="373.61" y="320.898"/><use xlink:href="#ap" x="379.611" y="320.898"/><use xlink:href="#aA" x="384.094" y="320.898"/><use xlink:href="#aQ" x="386.844" y="320.898"/><use xlink:href="#bf" x="392.044" y="320.898"/><use xlink:href="#aN" x="220.62" y="342.542"/><use xlink:href="#aj" x="237.13" y="332.456" fill="red"/><use xlink:href="#ak" x="237.13" y="342.542"/><use xlink:href="#al" x="245.188" y="342.542"/><use xlink:href="#am" x="249.42" y="342.542"/><use xlink:href="#an" x="259.175" y="342.542"/><use xlink:href="#ao" x="265.176" y="342.542"/><use xlink:href="#ap" x="270.783" y="342.542"/><use xlink:href="#am" x="279.164" y="342.542"/><use xlink:href="#aq" x="285.345" y="342.542"/><use xlink:href="#ar" x="291.346" y="342.542"/><use xlink:href="#as" x="294.777" y="342.542"/><use xlink:href="#at" x="300.384" y="342.542"/><use xlink:href="#au" x="305.584" y="342.542"/><use xlink:href="#av" x="310.665" y="342.542"/><use xlink:href="#aw" x="315.041" y="342.542"/><use xlink:href="#ax" x="237.13" y="354.1" fill="red"/><use xlink:href="#ay" x="237.13" y="364.185"/><use xlink:href="#al" x="242.809" y="364.185"/><use xlink:href="#am" x="247.041" y="364.185"/><use xlink:href="#an" x="256.796" y="364.185"/><use xlink:href="#ao" x="262.797" y="364.185"/><use xlink:href="#ap" x="268.404" y="364.185"/><use xlink:href="#am" x="276.785" y="364.185"/><use xlink:href="#aq" x="282.966" y="364.185"/><use xlink:href="#ar" x="288.967" y="364.185"/><use xlink:href="#as" x="292.398" y="364.185"/><use xlink:href="#at" x="298.005" y="364.185"/><use xlink:href="#au" x="303.205" y="364.185"/><use xlink:href="#av" x="308.286" y="364.185"/><use xlink:href="#am" x="237.13" y="385.829"/><use xlink:href="#aq" x="243.311" y="385.829"/><use xlink:href="#az" x="253.209" y="385.829"/><use xlink:href="#aA" x="262.463" y="385.829"/><use xlink:href="#aB" x="265.212" y="375.744" fill="red"/><use xlink:href="#ar" x="265.212" y="385.829"/><use xlink:href="#am" x="268.643" y="385.829"/><use xlink:href="#aC" x="274.501" y="385.829"/><use xlink:href="#at" x="278.984" y="385.829"/><use xlink:href="#aA" x="284.185" y="385.829"/><use xlink:href="#aD" x="290.832" y="375.744" fill="red"/><use xlink:href="#aE" x="290.832" y="385.829"/><use xlink:href="#am" x="298.603" y="385.829"/><use xlink:href="#aF" x="304.461" y="385.829"/><use xlink:href="#ao" x="310.319" y="385.829"/><use xlink:href="#aG" x="315.926" y="385.829"/><use xlink:href="#aH" x="327.427" y="336.3"/><use xlink:href="#aI" x="327.427" y="343.74"/><use xlink:href="#aI" x="327.427" y="349.845"/><use xlink:href="#aJ" x="327.427" y="366.275"/><use xlink:href="#aI" x="327.427" y="373.715"/><use xlink:href="#aI" x="327.427" y="379.82"/><use xlink:href="#aK" x="327.427" y="387.284"/><use xlink:href="#aL" x="340.203" y="360.298"/><use xlink:href="#aM" x="346.061" y="360.298"/><g clip-path="url(#bm)"><path fill="url(#bn)" d="M15.023 579.684v-11.336h388.063v11.336Zm0 0"/></g><use xlink:href="#bo" x="380.91" y="577.985"/><use xlink:href="#bp" x="387.641" y="577.985"/><use xlink:href="#bq" x="394.371" y="577.985"/><path fill="#f2f2f2" stroke="#000" stroke-miterlimit="10" stroke-width=".797" d="M196.602 576.055v-3.989a2.99 2.99 0 0 1 2.988-2.988h18.93a2.99 2.99 0 0 1 2.988 2.988v3.989a2.99 2.99 0 0 1-2.988 2.988h-18.93a2.99 2.99 0 0 1-2.988-2.988Zm0 0"/><use xlink:href="#br" x="198.439" y="576.948"/><use xlink:href="#bs" x="203.747" y="576.948"/><use xlink:href="#bs" x="209.055" y="576.948"/><use xlink:href="#bt" x="214.363" y="576.948"/><use xlink:href="#bu" x="17.008" y="577.985"/><use xlink:href="#bv" x="20.976" y="577.985"/><use xlink:href="#bw" x="27.629" y="577.985"/><use xlink:href="#bx" x="29.882" y="577.985"/><use xlink:href="#by" x="33.85" y="577.985"/><use xlink:href="#bz" x="37.818" y="577.985"/><use xlink:href="#bA" x="42.756" y="577.985"/><use xlink:href="#bB" x="53.384" y="577.985"/><use xlink:href="#bC" x="57.353" y="577.985"/><use xlink:href="#bD" x="64.006" y="577.985"/><use xlink:href="#bB" x="69.571" y="577.985"/><use xlink:href="#bv" x="73.539" y="577.985"/><use xlink:href="#bB" x="77.508" y="577.985"/><use xlink:href="#by" x="81.476" y="577.985"/><use xlink:href="#bA" x="88.129" y="577.985"/><use xlink:href="#bE" x="98.757" y="577.985"/><use xlink:href="#bF" x="104.42" y="577.985"/><use xlink:href="#bG" x="108.821" y="577.985"/><use xlink:href="#bH" x="114.295" y="577.985"/><use xlink:href="#bI" x="117.838" y="577.985"/><use xlink:href="#bJ" x="122.023" y="577.985"/><use xlink:href="#bB" x="127.818" y="577.985"/><use xlink:href="#bv" x="131.786" y="577.985"/><use xlink:href="#bB" x="135.754" y="577.985"/><use xlink:href="#bK" x="139.723" y="577.985"/></svg>