<svg xmlns="http://www.w3.org/2000/svg" xmlns:xlink="http://www.w3.org/1999/xlink" width="559.371" height="793.701" viewBox="0 0 419.528 595.276"><defs><path id="d" d="M3.344 2.297v-.078L1.5-2.5l1.844-4.703v-.078c0-.11-.078-.203-.188-.203a.24.24 0 0 0-.203.14L1.11-2.562c-.015.015-.015.046-.015.062 0 .031 0 .063.015.078L2.953 2.36a.24.24 0 0 0 .203.141c.11 0 .188-.094.188-.203m0 0"/><path id="e" d="M8.14-6.734v-.188c-.28.031-.75.094-1.078.219a5.5 5.5 0 0 0-.859.422c-.422.25-.75.656-1.047 1.062-.453.625-.828 1.235-1.234 1.875-.438.703-1.11 1.813-1.313 2.063-.203.265-.453.578-.718.781a.7.7 0 0 1-.47.188c-.093 0-.171-.032-.218-.094-.031-.047-.078-.11-.062-.188l.093-.234c.016-.047.047-.125.063-.156.016-.079.016-.141-.031-.188A.32.32 0 0 0 1-1.312a.53.53 0 0 0-.328.093.84.84 0 0 0-.25.375c-.047.25-.031.5.094.688.125.172.343.25.578.25.375 0 .797-.188 1.156-.469a9.4 9.4 0 0 0 1.703-1.984h2.203l-.39 1.578a1.8 1.8 0 0 0-.079.484c0 .125.016.235.079.313.062.093.187.14.312.14.25 0 .516-.14.734-.265A5.4 5.4 0 0 0 7.86-.86l-.109-.172c-.187.14-.328.234-.484.328-.125.078-.25.14-.391.14-.078 0-.156-.015-.203-.078-.125-.171-.11-.406-.078-.64.125-.703.297-1.406.468-2.11l.72-2.89c.046-.172.093-.282.202-.36Zm-1 .375-.89 3.578H4.234c.407-.75.813-1.531 1.313-2.25.281-.407.547-.828.937-1.14.188-.141.407-.266.61-.298Zm0 0"/><path id="f" d="M2.781-2.5c0-.016 0-.047-.015-.062L.922-7.344c-.031-.078-.11-.14-.188-.14a.207.207 0 0 0-.203.203v.078L2.375-2.5.531 2.219v.078c0 .11.094.203.203.203.079 0 .157-.062.188-.14l1.844-4.782c.015-.015.015-.047.015-.078m0 0"/><path id="g" d="M6.047-.156c0-.094-.11-.11-.14-.11-.25 0-.376-.03-.5-.312L4.218-3.297 5.766-4.5c.218-.172.812-.625 1.312-.672.063-.016.156-.031.156-.156 0-.047-.03-.11-.109-.11 0 0-.234.016-.281.016h-.328c-.266 0-.563-.016-.813-.016-.047 0-.172 0-.172.141 0 .11.14.125.14.125.11 0 .173.047.173.11 0 .125-.14.25-.172.28l-.047.048c-.016.015-.031.015-.094.078L2.563-2.344l.609-2.5c.078-.265.125-.328.61-.328.171 0 .265 0 .265-.156 0-.047-.031-.11-.125-.11-.14 0-.313.016-.453.016h-.953l-.453-.016c-.047 0-.172 0-.172.141 0 .125.093.125.234.125.219 0 .438 0 .438.11 0 .046 0 .062-.032.171L1.47-.609c-.078.28-.125.343-.61.343-.171 0-.265 0-.265.157C.594-.047.64 0 .719 0c.031 0 .39-.016.453-.031h.484c.672 0 .89.031.938.031s.156 0 .156-.156c0-.11-.094-.11-.234-.11-.25 0-.438 0-.438-.125 0-.046.047-.218.078-.328l.297-1.203 1.25-.969.985 2.25c.046.094.046.11.046.141 0 .203-.187.234-.343.234-.094 0-.188.016-.188.157 0 .062.047.109.11.109.28 0 .578-.031.843-.031.672 0 .64.031.735.031.03 0 .156 0 .156-.156m0 0"/><path id="h" d="M2.828-1.14c0-.11-.11-.11-.156-.11-.125 0-.125.031-.172.172-.14.516-.406.937-.734.937-.157 0-.188-.109-.188-.25 0-.187.063-.328.188-.656l.515-1.39c.063-.172.094-.25.094-.422 0-.438-.312-.657-.656-.657-.75 0-1.078 1.11-1.078 1.22 0 .108.093.108.14.108.14 0 .14-.03.172-.171.125-.407.375-.938.75-.938.14 0 .172.11.172.25 0 .188-.047.344-.156.61L1.156-.953a1.1 1.1 0 0 0-.078.375c0 .36.266.656.672.656.75 0 1.078-1.125 1.078-1.219m.125-3.704a.354.354 0 0 0-.36-.375.55.55 0 0 0-.53.532c0 .234.171.359.359.359.265 0 .531-.234.531-.516m0 0"/><path id="i" d="M4.14-1.14c0-.11-.109-.11-.14-.11-.14 0-.156.047-.187.172-.11.453-.266.937-.61.937-.14 0-.25-.078-.25-.375 0-.125.031-.265.063-.39.03-.125.03-.172.03-.25 0-.563-.546-.75-1.108-.86.296-.187.625-.53.671-.593.454-.5.766-.688 1.063-.688.11 0 .172.063.203.11-.156.03-.344.171-.344.39s.188.266.281.266c.204 0 .407-.14.407-.453 0-.266-.157-.532-.547-.532s-.75.266-1.188.735c-.484.515-.656.594-.796.672l.796-3.188c0-.031.016-.094.016-.125 0-.11-.125-.11-.219-.094l-.828.063c-.11.016-.187.016-.187.156 0 .125.093.125.203.125.375 0 .375.047.375.11a.7.7 0 0 1-.032.171L.657-.266c0 .032-.015.079-.015.11 0 .11.078.234.25.234.14 0 .265-.094.328-.297l.39-1.578c.313.031.891.172.891.656 0 .047 0 .079-.031.188a1 1 0 0 0-.031.25c0 .437.296.781.734.781.36 0 .562-.265.656-.406.188-.297.313-.766.313-.813m0 0"/><path id="j" d="M4.297-2.172c0-.828-.547-1.344-1.266-1.344C2-3.516.921-2.437.921-1.266c0 .875.595 1.344 1.267 1.344 1.062 0 2.109-1.094 2.109-2.25m-.594-.281c0 .265-.125 1.031-.437 1.578-.266.438-.688.734-1.078.734-.297 0-.672-.203-.672-.843 0-.36.172-1.11.422-1.547.343-.578.812-.766 1.078-.766.39 0 .687.297.687.844m0 0"/><path id="k" d="M10.594-.578v-7.14c0-.391-.094-.579-.578-.579h-1c-.297 0-.594.031-.797.516L6.64-3.906c-.25.61-.703 1.703-.797 2.125h-.016c-.11-.438-.594-1.61-.844-2.25l-1.53-3.782c-.204-.484-.579-.484-.798-.484h-1c-.422 0-.562.14-.562.578v7.14c0 .438.125.579.562.579h.328c.454 0 .579-.156.579-.578V-6.75c.14.531.671 1.86.968 2.563L4.906-.781c.219.515.516.515.922.515s.688 0 .906-.515l1.532-3.75c.109-.282.765-1.907.843-2.219h.016v6.172c0 .39.078.578.563.578h.328c.453 0 .578-.156.578-.578m0 0"/><path id="l" d="M5.672-.578v-3.203c0-1.89-1.828-1.89-2.422-1.89-.562 0-1.156.046-1.953.374-.25.11-.313.14-.313.281 0 .079.063.766.079.875a.17.17 0 0 0 .156.125c.062 0 .093-.03.125-.078.515-.531 1.125-.797 1.86-.797.64 0 .843.391.843 1.094v.422c-.422 0-3.563.031-3.563 1.781C.484-.75 1.156.125 2.22.125c.406 0 1.297-.11 1.86-.937v.234c0 .39.077.578.577.578h.438c.453 0 .578-.156.578-.578M4.047-1.844c0 1.11-1.14 1.11-1.172 1.11-.516 0-.828-.422-.828-.875 0-1.172 1.656-1.266 2-1.266Zm0 0"/><path id="m" d="M6.39-4.844c0-.047-.062-.328-.093-.453-.047-.281-.047-.312-.266-.312-.36 0-.968.14-1.422.422-.562-.375-1.171-.422-1.687-.422-.5 0-2.406 0-2.406 1.968 0 .485.125 1.079.578 1.485C.78-1.72.78-1.25.78-1.187c0 .218.063.609.313.937C.922-.172.297.031.297.797c0 .375.187 1 .937 1.344.672.312 1.485.328 2.047.328.703 0 2.985 0 2.985-1.703 0-1.86-1.688-1.86-3.297-1.86H2.39c-.438 0-.594 0-.766-.156-.047-.047-.25-.219-.25-.531 0-.078.016-.11.031-.172.547.297 1.266.297 1.516.297.5 0 2.39 0 2.39-1.969 0-.687-.25-1.11-.359-1.234.203 0 .61 0 1.11.125a.36.36 0 0 0 .171.046c.094 0 .157-.062.157-.156M3.798-3.64c0 .672-.047 1.125-.875 1.125-.844 0-.875-.453-.875-1.109s.031-1.125.875-1.125c.828 0 .875.453.875 1.11M5.03.797c0 .812-1.36.812-1.75.812-.469 0-1.75 0-1.75-.843 0-.563.375-.563.64-.563h1.392c.968 0 1.468.172 1.468.594m0 0"/><path id="n" d="M5.969-.578v-3.313c0-1.218-.516-1.718-1.735-1.718-1.265 0-1.796.906-1.953 1.234h-.015v-.594c0-.39-.079-.578-.563-.578h-.406c-.438 0-.578.125-.578.578v4.39c0 .438.125.579.578.579h.469c.453 0 .578-.156.578-.578v-2.64c0-1.032.687-1.532 1.312-1.532.578 0 .688.281.688.89v3.282c0 .39.093.578.578.578h.484c.453 0 .563-.156.563-.578m0 0"/><path id="o" d="M2.313-.578v-4.328c0-.375-.079-.563-.563-.563h-.453c-.422 0-.563.125-.563.563v4.328c0 .437.125.578.563.578h.453c.453 0 .563-.156.563-.578m.093-6.672v-.219c0-.39-.094-.578-.578-.578h-.61c-.452 0-.577.156-.577.578v.219c0 .36.062.578.578.578h.61c.5 0 .577-.219.577-.578m0 0"/><path id="p" d="M6.281-7.25v-.484c0-.375-.093-.578-.578-.578H5.22c-.453 0-.563.156-.563.578v.484c0 .375.078.563.563.563h.484c.453 0 .578-.157.578-.563M6.266-.578v-4.328c0-.375-.079-.563-.578-.563H5.25c-.453 0-.578.157-.578.563v4.328c0 .39.078.578.578.578h.438c.453 0 .578-.156.578-.578M3.875-5.047c0-.422-.437-.422-.578-.422h-.719v-1.375c0-.328.031-.718.39-.718.407 0 .532.265.61.406.016.047.063.11.14.11.157 0 .157-.126.157-.313v-.61c0-.281 0-.297-.297-.375s-.453-.078-.625-.078c-1.25 0-1.922.656-1.922 1.969v.984c-.25 0-.672 0-.672.422 0 .438.407.438.672.438v4.03c0 .438.125.579.578.579h.438c.453 0 .578-.156.578-.578V-4.61h.672c.14 0 .578 0 .578-.438m0 0"/><path id="q" d="M5.469-.594c0-.14-.047-.687-.078-.843 0-.032-.032-.157-.141-.157-.047 0-.078 0-.187.125-.204.172-.766.672-1.75.672-1.25 0-1.25-1.219-1.25-1.969 0-.968.062-1.984 1.28-1.984.782 0 1.11.203 1.532.547.14.14.172.14.219.14.125 0 .14-.109.156-.156.016-.093.14-.765.14-.828 0-.11-.077-.156-.28-.25-.579-.266-.938-.375-1.782-.375-1.781 0-2.89.828-2.89 2.922C.438-.766 1.468.125 3.28.125c.313 0 1.031 0 1.828-.406.344-.188.36-.203.36-.313m0 0"/><path id="r" d="M4.453-.562c0-.032-.016-.125-.094-.375-.062-.235-.078-.313-.187-.313-.063 0-.078.016-.14.094-.141.093-.454.36-.954.36-.297 0-.469-.204-.469-1V-4.61h1.063c.14 0 .578 0 .578-.438 0-.422-.437-.422-.578-.422H2.609v-1c0-.375-.093-.578-.578-.578h-.375c-.422 0-.562.14-.562.578v1H.812c-.125 0-.578 0-.578.422 0 .438.438.438.579.438h.234v3.015c0 1.219.437 1.719 1.266 1.719.109 0 .624 0 1.25-.187.203-.063.89-.266.89-.5m0 0"/><path id="s" d="M2.594 2.234c-.375-.5-1.25-1.64-.64-4.484.609-2.828 1.952-3.969 2.546-4.484h-.594c-1.25.89-2.265 2.422-2.703 4.484-.453 2.14-.031 3.625.813 4.484Zm0 0"/><path id="t" d="m5.313 0 .125-.625h-.391l-2.188.016h-.343l.578-2.672 1.734-1.235-.25-.406-1.344.969.485-2.266h-.86l-.64 2.985-1.031.734.25.39.64-.453L1.531 0Zm0 0"/><path id="u" d="M4.344 0 3.109-2.437l1.875-1.547h-.859L1.906-2.141l.86-4.078h-.672L.766 0h.656l.266-1.281.875-.703 1 1.984Zm0 0"/><path id="v" d="m3.922 0 .11-.562H2.89l1.172-5.5h-.188c-.734.578-1.594.578-1.906.578l-.11.562c.25 0 .704 0 1.25-.203L2.125-.562H.985L.858 0Zm0 0"/><path id="w" d="m1.656-.016.172-.75h-.781L.89 0h.234L.641 1.14h.375Zm0 0"/><path id="x" d="m4.656-1.5.125-.578h-.89l.797-3.781h-.86L.703-2.08.578-1.5H3L2.688 0h.75l.328-1.5Zm-1.468-.578h-1.75l.75-.906C2.547-3.437 3.797-5 3.906-5.454Zm0 0"/><path id="y" d="M4.64-2c.11-.5.126-.953-.077-1.437-.235-.563-.516-.72-.938-.72-.344 0-1.031.11-1.719.735C2.266-4.625 3.063-5.5 4.031-5.5c.172 0 .5 0 .922.188l.11-.579a2.5 2.5 0 0 0-.922-.171c-1.297 0-2.735 1.25-3.141 3.187C.469-.422 1.422.203 2.266.203c.547 0 .984-.203 1.437-.61.531-.468.797-.89.938-1.593m-.78 0c-.079.344-.157.719-.47 1.11-.218.265-.53.5-1 .5-.953 0-.812-1.282-.78-1.579.03-.125.03-.14.062-.234.14-.688.719-1.36 1.453-1.36.344 0 .61.126.766.547.093.313.062.61-.032 1.016m0 0"/><path id="z" d="m5.063-2.172.125-.578H.577l-.125.578Zm0 0"/><path id="A" d="M4.531-1.828c.235-1.11-.375-2-1.328-2-.11 0-.547 0-1.047.36l.375-1.782h2.422l.125-.61h-3.11L1.267-2.53h.64c.438-.656.985-.703 1.157-.703.374 0 .843.28.609 1.406-.235 1.094-.953 1.437-1.5 1.437-.453 0-1.031-.218-1.235-.812L.5-.687c.094.203.547.89 1.563.89 1.124 0 2.234-.906 2.468-2.031m0 0"/><path id="B" d="M3.328-2.25c.453-2.125.031-3.625-.812-4.484h-.578c.39.5 1.25 1.656.64 4.484C1.984.594.625 1.734.031 2.234h.594c1.234-.89 2.266-2.421 2.703-4.484m0 0"/><path id="C" d="M0-7.36h-.266v.173c0 .625-.078.64-.375.64h-4.156c-.297 0-.375-.016-.375-.64v-.172h-.266v1.343c0 .22.016.235.157.297L-.75-3.875l-4.516 1.844c-.156.078-.171.078-.171.297v1.343h.265v-.171c0-.61.078-.625.375-.625h3.938c.218 0 .593 0 .593.796H0c-.031-.359-.031-.734-.031-.937s0-.578.031-.938h-.266c0 .797-.375.797-.593.797h-4.235l4.907-2.015c.093-.047.187-.079.187-.188 0-.11-.094-.14-.187-.187l-4.97-2.032H-.64c.297 0 .375.016.375.625v.172H0l-.031-1.125Zm0 0"/><path id="D" d="M-.719-4.094h-.437v.25h.437c.328 0 .453.11.453.281 0 .297-.359.297-.453.297h-1.656c-.781 0-1.172.75-1.172 1.485 0 .656.25 1.25.781 1.25a.36.36 0 0 0 .375-.375.36.36 0 0 0-.375-.375.356.356 0 0 0-.359.297c-.203-.297-.203-.735-.203-.782 0-.453.312-.89.969-.89h.234c.031.453.047.984.281 1.547.313.703.766.843 1.032.843.687 0 .89-.812.89-1.359a1.23 1.23 0 0 0-.64-1.11c.296-.046.609-.25.609-.609 0-.078-.031-.75-.766-.75m-.406 1.438c.781 0 .984.64.984.969 0 .406-.28.765-.671.765-.516 0-1.063-.5-1.094-1.734Zm0 0"/><path id="E" d="M-3.203-4.11a.43.43 0 0 0-.406.454c0 .14.046.531.375.89-.141.204-.282.516-.282.891 0 .781.547 1.36 1.172 1.36.375 0 .656-.204.813-.376a.934.934 0 0 0 1.36-.094c.108.423.421.75.78.75.579 0 1.032-.827 1.032-1.874 0-1-.407-1.875-1.047-1.875-.422 0-.766.25-.89.515-.25.469-.25.86-.25 1.64v.454c-.032.25-.235.438-.532.438-.188 0-.266-.047-.328-.094.187-.344.234-.657.234-.844 0-.781-.547-1.375-1.172-1.375-.297 0-.562.14-.765.328a1.2 1.2 0 0 1-.266-.765c.016.03.063.078.188.078.14 0 .25-.11.25-.25a.25.25 0 0 0-.266-.25m.86 1.5c.296 0 .5.032.656.157a.7.7 0 0 1 .28.578c0 .734-.765.734-.937.734-.297 0-.5-.03-.656-.156a.72.72 0 0 1-.281-.578c0-.734.765-.734.937-.734m2.952-.906c.422 0 .797.61.797 1.407S1.031-.703.61-.703c-.171 0-.64-.14-.64-.781v-.766c0-.219 0-1.266.64-1.266m0 0"/><path id="F" d="M0-4.484h-.266c0 .515 0 .609-.359.609h-1.797c-.656 0-1.094.313-1.094 1.14 0 .797.579 1.157.766 1.25h-.766l.094 1.157h.266c0-.547.047-.61.437-.61h2.094c.36 0 .36.094.36.61H0c-.031-.344-.031-.688-.031-.906 0-.235 0-.563.031-.907h-.266c0 .5 0 .61-.359.61h-1.437c-.844 0-1.235-.64-1.235-1.125s.344-.61.844-.61h1.828c.36 0 .36.094.36.61H0C-.031-3-.031-3.36-.031-3.562c0-.235 0-.579.031-.922m0 0"/><path id="G" d="M0-2.078h-.266c0 .531-.03.562-.343.562h-2.907l.094 1.157h.266c0-.516.047-.578.437-.578h2.094c.36 0 .36.093.36.609H0c-.031-.313-.031-.766-.031-.89 0-.095 0-.579.031-.86m-4.797.453a.453.453 0 0 0-.453.453.45.45 0 0 0 .453.438.437.437 0 0 0 .438-.438.45.45 0 0 0-.438-.453m0 0"/><path id="H" d="M0-4.422h-.266c0 .516 0 .61-.359.61h-2.906l.078 1.046c0 .094 0 .125.015.141v1.187h-.859c-.797 0-1.094-.75-1.094-1.234 0-.25.063-.484.22-.687 0 0 .062.328.374.328.266 0 .39-.203.39-.375 0-.11-.077-.39-.405-.39-.422 0-.797.421-.797 1.093 0 .781.39 1.812 1.297 1.812h.875v.657h.265v-.657h2.547c.36 0 .36.11.36.61H0c-.031-.313-.031-.75-.031-.89 0-.157 0-.595.031-.907h-.266c0 .515 0 .61-.359.61h-2.547v-1.376c0-.328.094-.39.438-.39h2.109c.36 0 .36.109.36.609H0c-.031-.312-.031-.75-.031-.89 0-.157 0-.594.031-.907m0 0"/><path id="I" d="M-.953-3.516c-.094 0-.094.11-.094.125 0 .063 0 .094.078.125.172.047.797.282.797 1.079 0 .484-.375 1.203-1.562 1.203-1.141 0-1.578-.594-1.578-1.172 0-.078 0-.5.156-.781.062.234.25.265.344.265a.36.36 0 0 0 .374-.375c0-.219-.14-.375-.39-.375-.485 0-.719.531-.719 1.281 0 1.11.875 1.86 1.828 1.86C-.703-.281.078-1.11.078-2.11c0-1.125-.937-1.407-1.031-1.407m0 0"/><path id="J" d="M-1-2.812h-.437v.25h.421c.547 0 .844.25.844.546 0 .532-.687.532-.812.532h-2.188v-1.188h-.265v1.188h-1.47v.25c.735 0 1.485.328 1.516 1.078h.22v-.719H-1c.938 0 1.078-.719 1.078-1.078 0-.547-.469-.86-1.078-.86m0 0"/><path id="K" d="M-1.719-4.422c-1 0-1.797.813-1.797 1.781 0 .313.079.766.5 1.172h-.5l.094 1.188h.266c0-.563.047-.61.375-.61H.922c.36 0 .36.11.36.61h.265c-.031-.344-.031-.688-.031-.906 0-.235 0-.563.03-.907h-.265c0 .516 0 .61-.36.61H-.39a1.37 1.37 0 0 0 .47-1.047c0-1-.782-1.89-1.798-1.89m0 .719c.907 0 1.578.578 1.578 1.219 0 .28-.125.64-.515.906-.14.094-.156.094-.297.094h-1.703a1.3 1.3 0 0 1-.61-1.094c0-.61.672-1.125 1.547-1.125m0 0"/><path id="L" d="M-.437-1.625a.453.453 0 0 0-.454.453c0 .266.22.438.438.438A.44.44 0 0 0 0-1.172a.45.45 0 0 0-.437-.453m0 0"/><path id="M" d="M0-3.562h-.266v.28c0 .75-.093.782-.39.782h-4.422c-.219 0-.219.016-.219.234.313.329.5.75.5 1.5h.266c0-.218 0-.64-.203-1.109h4.078c.297 0 .39.031.39.781v.282H0c-.031-.329-.031-1.016-.031-1.375 0-.36 0-1.047.031-1.376m0 0"/><path id="N" d="M-1.36-3.875c-.671 0-1.265.531-1.452 1.344-.22-.625-.75-1.11-1.391-1.11-.64 0-1.094.72-1.094 1.547 0 .86.453 1.5 1.063 1.5.297 0 .422-.187.422-.406 0-.25-.172-.406-.407-.406-.297 0-.406.265-.406.437-.437-.343-.469-.953-.469-1.094 0-.203.063-.812.89-.812.548 0 .891.234 1.016.344.25.234.266.422.297.906 0 .156.016.219.125.219.11 0 .11-.078.11-.219v-.39c0-.626.453-1.032 1.297-1.032 1 0 1.28.563 1.28.985 0 .437-.155 1.046-.577 1.328 0-.297-.188-.5-.438-.5-.265 0-.437.187-.437.453 0 .203.125.437.453.437.75 0 1.25-.812 1.25-1.734 0-1.047-.734-1.797-1.531-1.797m0 0"/><path id="O" d="M0 7.36h.266v-.173c0-.625.078-.64.375-.64h4.156c.297 0 .375.016.375.64v.172h.266V6.016c0-.22-.016-.235-.157-.297L.75 3.875l4.516-1.844c.156-.078.172-.078.172-.297V.391h-.266v.172c0 .609-.078.625-.375.625H.859c-.218 0-.593 0-.593-.797H0c.031.359.031.734.031.937s0 .578-.031.938h.266c0-.797.375-.797.593-.797h4.235L.188 3.484C.094 3.531 0 3.563 0 3.672c0 .11.094.14.188.187l4.968 2.032H.641c-.297 0-.375-.016-.375-.625v-.172H0l.031 1.125Zm0 0"/><path id="P" d="M.719 4.094h.437v-.25H.72c-.328 0-.453-.11-.453-.281 0-.297.359-.297.453-.297h1.656c.781 0 1.172-.75 1.172-1.485 0-.656-.25-1.25-.781-1.25a.36.36 0 0 0-.375.375c0 .219.156.375.375.375a.356.356 0 0 0 .359-.297c.203.297.203.735.203.782 0 .453-.312.89-.969.89h-.234c-.031-.453-.047-.984-.281-1.547C1.53.406 1.078.266.813.266c-.688 0-.891.812-.891 1.359 0 .578.328.938.64 1.11-.296.046-.609.25-.609.609 0 .078.031.75.766.75m.406-1.438c-.781 0-.984-.64-.984-.969 0-.406.28-.765.672-.765.515 0 1.062.5 1.093 1.734Zm0 0"/><path id="Q" d="M3.203 4.11a.43.43 0 0 0 .406-.454c0-.14-.046-.531-.375-.89.141-.203.282-.516.282-.891 0-.781-.547-1.36-1.172-1.36-.375 0-.656.204-.813.376a.934.934 0 0 0-1.36.094C.064.562-.25.234-.608.234c-.578 0-1.032.828-1.032 1.874 0 1 .407 1.875 1.047 1.875.422 0 .766-.25.89-.515.25-.469.25-.86.25-1.64v-.454c.032-.25.235-.437.532-.437.188 0 .266.046.328.093a1.8 1.8 0 0 0-.234.844c0 .781.547 1.375 1.172 1.375.297 0 .562-.14.765-.328.094.11.266.375.266.765-.016-.03-.062-.078-.187-.078-.141 0-.25.11-.25.25 0 .11.078.25.265.25m-.86-1.5c-.296 0-.5-.032-.655-.157a.7.7 0 0 1-.282-.578c0-.734.766-.734.938-.734.297 0 .5.03.656.156.188.14.281.36.281.578 0 .734-.765.734-.937.734m-2.952.906c-.422 0-.797-.61-.797-1.407 0-.796.375-1.406.797-1.406.172 0 .64.14.64.781v.766c0 .219 0 1.266-.64 1.266m0 0"/><path id="R" d="M0 4.484h.266c0-.515 0-.609.359-.609h1.797c.656 0 1.094-.312 1.094-1.14a1.38 1.38 0 0 0-.766-1.25h.766L3.422.327h-.266c0 .547-.047.61-.437.61H.625c-.36 0-.36-.094-.36-.61H0c.031.344.031.688.031.906 0 .235 0 .563-.031.907h.266c0-.5 0-.61.359-.61h1.438c.843 0 1.234.64 1.234 1.125s-.344.61-.844.61H.625c-.36 0-.36-.094-.36-.61H0c.031.344.031.703.031.906 0 .235 0 .579-.031.922m0 0"/><path id="S" d="M0 2.078h.266c0-.531.03-.562.343-.562h2.907L3.422.359h-.266c0 .516-.047.579-.437.579H.625c-.36 0-.36-.094-.36-.61H0c.031.313.031.766.031.89 0 .095 0 .579-.031.86m5.25.156c.172 0 .313-.171.313-.312 0-.031 0-.14-.125-.25L4.218.656l-.171.172.937 1.25c.063.078.125.156.266.156m0 0"/><path id="T" d="M0 4.422h.266c0-.516 0-.61.359-.61h2.906l-.078-1.046c0-.094 0-.125-.015-.141V1.438h.859c.797 0 1.094.75 1.094 1.234 0 .25-.063.484-.22.687 0 0-.062-.328-.374-.328a.373.373 0 0 0-.39.375c0 .11.077.39.406.39.421 0 .796-.421.796-1.093 0-.781-.39-1.812-1.296-1.812h-.875V.234h-.266v.657H.625C.265.89.265.78.265.28H0c.031.313.031.75.031.89 0 .157 0 .595-.031.907h.266c0-.515 0-.61.359-.61h2.547v1.376c0 .328-.094.39-.438.39H.625c-.36 0-.36-.109-.36-.609H0c.031.313.031.75.031.89 0 .157 0 .594-.031.907m0 0"/><path id="U" d="M.953 3.516c.094 0 .094-.11.094-.125 0-.063 0-.094-.078-.125a1.07 1.07 0 0 1-.797-1.078c0-.485.375-1.204 1.562-1.204 1.141 0 1.579.594 1.579 1.172 0 .078 0 .5-.157.781a.336.336 0 0 0-.344-.265.36.36 0 0 0-.374.375c0 .219.14.375.39.375.485 0 .719-.531.719-1.281 0-1.11-.875-1.86-1.828-1.86C.703.281-.078 1.11-.078 2.11c0 1.125.937 1.407 1.031 1.407m0 0"/><path id="V" d="M1 2.813h.438v-.25h-.422c-.547 0-.844-.25-.844-.547 0-.532.687-.532.812-.532h2.188v1.188h.265V1.484h1.47v-.25c-.735 0-1.485-.328-1.516-1.078h-.22v.719H1c-.937 0-1.078.719-1.078 1.078 0 .547.469.86 1.078.86m0 0"/><path id="W" d="M1.719 4.422c1 0 1.797-.813 1.797-1.781 0-.313-.079-.766-.5-1.172h.5L3.422.28h-.266c0 .563-.047.61-.375.61H-.922c-.36 0-.36-.11-.36-.61h-.265c.031.344.031.688.031.907 0 .234 0 .562-.03.906h.265c0-.516 0-.61.36-.61H.39a1.37 1.37 0 0 0-.47 1.047c0 1 .782 1.89 1.798 1.89m0-.719C.812 3.703.14 3.125.14 2.484c0-.28.125-.64.515-.906.14-.094.156-.094.297-.094h1.703c.313.188.61.594.61 1.094 0 .61-.672 1.125-1.547 1.125m0 0"/><path id="X" d="M.438 1.625a.453.453 0 0 0 .453-.453.436.436 0 0 0-.438-.438.44.44 0 0 0-.453.438.45.45 0 0 0 .438.453m0 0"/><path id="Y" d="M0 3.563h.266V3.28c0-.75.093-.781.39-.781h4.422c.219 0 .219-.016.219-.234-.313-.328-.5-.75-.5-1.5H4.53c0 .218 0 .64.203 1.109H.656c-.297 0-.39-.031-.39-.781V.812H0c.031.329.031 1.016.031 1.376s0 1.046-.031 1.374m0 0"/><path id="Z" d="M2.547 3.89c.844 0 1.36-.078 1.875-.343.703-.344.875-1 .875-1.438 0-1-.75-1.375-.969-1.484C3.75.344 2.953.328 2.547.328c-.531 0-1.328.016-1.969.406-.594.36-.75.954-.75 1.375 0 .391.125 1.063.906 1.47.579.296 1.297.312 1.813.312m.094-.703c-.47 0-1.188 0-1.641-.093-.828-.172-.937-.719-.937-.985 0-.265.125-.812.953-.984.453-.094 1.203-.094 1.625-.094.547 0 1.109 0 1.547.094.812.172.89.781.89.984 0 .266-.14.829-.86.985-.437.094-1.046.094-1.577.094m0 0"/><path id="aa" d="M1.344 3.875c.5 0 .828-.266.968-.406.126-.125.141-.14.563-.828.219.453.61 1 1.234 1 .766 0 1.188-.782 1.188-1.516 0-.844-.578-1.531-1.328-1.531-.297 0-.563.094-.797.297-.172.14-.188.172-.5.656C2.234.563 1.656.344 1.219.344c-.89 0-1.39.89-1.39 1.765 0 .97.671 1.766 1.515 1.766m2.765-.64c-.453 0-.843-.36-1.078-.829l.594-1c.14-.234.375-.422.64-.422.5 0 .829.547.829 1.125 0 .61-.422 1.125-.985 1.125m-3.046.187c-.61 0-.985-.656-.985-1.297 0-.719.485-1.312 1.14-1.312.595 0 1.063.437 1.313.984l-.656 1.078c-.078.125-.328.547-.812.547m0 0"/><path id="ab" d="M13.61-7.687v-.516l-1.297.031c-.344 0-1.22 0-1.5-.031v.515c.14 0 1.187 0 1.187.172 0 0 0 .032-.047.141L9.938-2.047l-2.126-5.64h1.125v-.516c-.374.031-1.484.031-1.937.031-.375 0-1.531 0-1.828-.031v.515h1.016l.484 1.297-1.64 4.344-2.126-5.64h1.125v-.516c-.343.031-1.515.031-1.953.031-.375 0-1.515 0-1.812-.031v.515h1L4.109-.171c.079.203.11.281.375.281.266 0 .297-.078.375-.28l2.079-5.5 2.093 5.5c.063.202.094.28.36.28.234 0 .297-.046.375-.28L12.5-7.407c.094-.203.11-.282 1.11-.282m0 0"/><path id="aH" d="M9.953 0v-.516h-.312c-.657 0-.703-.062-.813-.218L5.61-5.047l2.844-2.406c.156-.14.266-.234 1.328-.234v-.516L8.5-8.172c-.36 0-1.297 0-1.594-.031v.515c.266 0 .547.016.86.141l-4.47 3.813v-3.953h1.267v-.516c-.344.031-1.625.031-2.047.031-.438 0-1.72 0-2.063-.031v.515H1.72v7.172H.453V0c.344-.031 1.625-.031 2.063-.031.422 0 1.703 0 2.047.031v-.516H3.297v-2.562L4.53-4.125l2.5 3.344c.016.031.063.094.063.14 0 .125-.578.125-.844.125V0c.39-.031 1.5-.031 1.953-.031.36 0 1.485 0 1.75.031m0 0"/><path id="bb" d="M5.766 0v-.516H4.14V-7.5c0-.344-.032-.344-.407-.344-.89.766-2.218.766-2.484.766h-.219v.516h.219c.422 0 1.063-.079 1.531-.235v6.281H1.125V0l2.313-.031Zm0 0"/><path id="bc" d="M6.031-2.562h-.5c-.031.25-.11.953-.297 1.062-.093.094-1.03.094-1.203.094h-1.86l1.72-1.422c1.328-1 2.14-1.61 2.14-2.75 0-1.422-1.281-2.266-2.86-2.266-1.343 0-2.5.766-2.5 1.907 0 .625.517.812.782.812.375 0 .813-.25.813-.797 0-.516-.375-.766-.75-.812.484-.547 1.109-.594 1.359-.594 1.11 0 1.625.89 1.625 1.766 0 .921-.625 1.78-1.125 2.296L.781-.546c-.11.109-.11.124-.11.343V0h5.017Zm0 0"/><path id="bd" d="M6.14-3.937c0-.797 0-3.907-2.765-3.907-1.64 0-2.812.953-2.812 2.594 0 1.672 1.14 2.563 2.578 2.563.5 0 1.109-.188 1.484-1.032v.344c0 .844 0 3.047-1.86 3.047-.374 0-.812-.11-1.062-.297.36-.062.61-.312.61-.703a.69.69 0 0 0-.704-.703c-.312 0-.718.203-.718.734 0 .828.656 1.438 1.89 1.438 1.516 0 3.36-.985 3.36-4.078M4.61-5.11c0 .843-.344 2.03-1.344 2.03-1.188 0-1.188-.968-1.188-2.14 0-1.156 0-2.187 1.297-2.187.766 0 1.047.672 1.094.812.125.36.14 1.094.14 1.485m0 0"/><path id="ac" d="M9.766-4.687c.234-.891.28-1.829-.188-2.454-.328-.421-.797-.671-1.328-.843-.687-.22-1.437-.235-2.219-.235l.078-.297-.078-.046-.812.374c-.875.063-1.89.313-2.766 1-.437.344-.781.829-.906 1.329-.047.234-.063.453 0 .593a.29.29 0 0 0 .266.172.56.56 0 0 0 .39-.172c.125-.093.188-.25.219-.39.078-.266.047-.469.11-.735A1.35 1.35 0 0 1 3-7.109a3.32 3.32 0 0 1 2.125-.735L4.203-4.14c-.14.579-.297 1.172-.562 1.75-.141.344-.36.704-.657.954-.609.5-1.328.796-2.015.796l-.485.594h3.47c1.25 0 2.53-.484 3.624-1.36 1.094-.859 1.875-2.046 2.188-3.28m-.891.062c-.156.625-.36 1.25-.703 1.828-.266.485-.61.938-1.047 1.281a3.5 3.5 0 0 1-1.297.704c-.578.171-1.156.171-1.719.171H2.656l-.015-.125.53-.437c.517-.438.923-1 1.235-1.563a9.8 9.8 0 0 0 .844-2.28l.688-2.798c.593 0 1.14.047 1.671.219.391.125.75.297 1 .61.47.624.485 1.515.266 2.39m0 0"/><path id="au" d="M6.828-7.234c.063-.282.016-.578-.125-.75-.234-.328-.672-.407-1.125-.407-.719 0-1.406.094-2.062.625-.438.344-.766.829-.891 1.313-.11.469-.11.937.14 1.266.172.25.47.421.782.53l-.031.126a3.46 3.46 0 0 0-1.766.734C1.172-3.328.734-2.719.563-2.062.438-1.532.438-.984.734-.61c.204.265.516.437.829.562.406.14.859.188 1.328.188.89 0 1.797-.328 2.578-.953.11-.079.265-.297.39-.454l-.39-.578-.157.032c-.125.343-.312.656-.593.875-.469.375-1 .656-1.532.656-.562 0-1.14-.094-1.437-.5-.297-.39-.312-.922-.187-1.469.14-.547.453-1.062.921-1.437.344-.266.782-.407 1.157-.5.562-.125 1.109-.157 1.672-.157l.062-.312c-.406 0-.797-.032-1.172-.14-.25-.063-.5-.173-.656-.391-.219-.282-.266-.704-.172-1.125.14-.516.453-1.032.89-1.391.298-.25.688-.313 1.032-.313.281 0 .469.063.61.204a.5.5 0 0 1 .109.468c-.047.203-.157.328-.266.453-.078.094-.14.172-.187.282a.36.36 0 0 0 .03.234c.079.094.126.094.266.094s.422-.078.625-.266c.22-.234.282-.437.344-.687m0 0"/><path id="aE" d="M3.969 2.844c0-.031-.031-.078-.047-.094-1.25-.937-2.063-3.328-2.063-5.234v-1c0-1.922.813-4.313 2.063-5.235.015-.031.047-.062.047-.11 0-.046-.063-.108-.125-.108-.016 0-.047.015-.063.015-1.312 1-2.578 3.39-2.578 5.438v1c0 2.047 1.266 4.437 2.578 5.422a.12.12 0 0 0 .063.03.134.134 0 0 0 .125-.124m0 0"/><path id="aF" d="M9.766-8.062v-.235c-.344.031-.891.11-1.297.266-.36.125-.719.312-1.031.5-.5.297-.907.797-1.25 1.265-.547.75-1 1.485-1.485 2.266-.516.828-1.328 2.156-1.578 2.469s-.547.687-.86.937a.88.88 0 0 1-.562.219c-.094 0-.203-.031-.266-.11-.03-.062-.093-.124-.062-.218s.063-.188.11-.281c.015-.063.062-.157.062-.203a.22.22 0 0 0-.031-.22c-.063-.093-.172-.155-.328-.155a.58.58 0 0 0-.375.109.82.82 0 0 0-.297.437c-.079.313-.047.61.109.844a.87.87 0 0 0 .672.297c.469 0 .969-.25 1.39-.578.5-.406 1.407-1.328 2.047-2.375h2.641l-.469 1.89a2 2 0 0 0-.093.594c.015.125.03.266.093.36.078.109.235.156.39.156.298 0 .61-.14.876-.297.453-.25.86-.547 1.25-.906l-.14-.203a5 5 0 0 1-.563.39.83.83 0 0 1-.469.172c-.094 0-.187-.015-.25-.094-.156-.203-.14-.484-.094-.78.157-.829.36-1.688.563-2.516l.86-3.47c.062-.218.108-.327.25-.421Zm-1.188.437L7.5-3.328H5.063c.5-.922 1-1.828 1.578-2.703.343-.5.672-1 1.14-1.375.235-.172.485-.297.719-.344Zm0 0"/><path id="aG" d="M3.438-2.484v-1c0-2.047-1.25-4.438-2.563-5.438-.031 0-.047-.015-.078-.015-.063 0-.11.062-.11.109s.016.078.047.11c1.235.921 2.063 3.312 2.063 5.234v1c0 1.906-.828 4.297-2.063 5.234-.03.016-.046.063-.046.094 0 .062.046.125.109.125.031 0 .047-.016.078-.031 1.313-.985 2.563-3.375 2.563-5.422m0 0"/><path id="ad" d="M6.89-2.781v-5.516H5.97v5.531c0 1.594-1 2.344-1.953 2.344-.938 0-1.907-.734-1.907-2.344v-5.53H1.08v5.515C1.078-1.031 2.452.25 4 .25c1.563 0 2.89-1.297 2.89-3.031m0 0"/><path id="ae" d="M7.766-5.312H6.89l-.703 2.437c-.172.563-.516 1.688-.563 2.203-.047-.281-.234-1.078-.484-1.937l-.797-2.703H3.53L2.844-2.97c-.219.75-.5 1.781-.531 2.282h-.016c-.016-.235-.14-.86-.375-1.672l-.844-2.953H.172L1.766 0h.922c.453-1.5 1.156-3.781 1.218-4.61h.016c.015.485.265 1.344.344 1.626L5.109 0h1.063Zm0 0"/><path id="af" d="M1.813 0v-5.312H.938V0Zm.078-6.797v-1.016H.859v1.016Zm0 0"/><path id="ag" d="M4.86-2.687c0-.516-.048-1.25-.423-1.876-.5-.828-1.328-.921-1.671-.921C1.469-5.484.39-4.25.39-2.687.39-1.11 1.547.124 2.92.124c.563 0 1.22-.156 1.876-.64 0-.047-.047-.438-.047-.438s-.031-.281-.031-.328c-.703.593-1.407.687-1.766.687-.922 0-1.703-.828-1.734-2.093Zm-.704-.641h-2.86c.204-.813.767-1.438 1.47-1.438.359 0 1.187.157 1.39 1.438m0 0"/><path id="ah" d="M1.813 0v-8.297H.938V0Zm0 0"/><path id="ai" d="M5.563-2.672c0-1.469-.782-2.75-1.891-2.75-.344 0-1.11.063-1.86.672v-3.547H.939V0h.906v-.531c.547.515 1.125.656 1.547.656 1.14 0 2.172-1.172 2.172-2.797m-.907 0c0 1.563-.968 2.078-1.703 2.078-.328 0-.562-.125-.781-.297-.281-.25-.328-.453-.328-.656V-4.03c.218-.328.64-.672 1.234-.672.719 0 1.578.547 1.578 2.031m0 0"/><path id="aj" d="M4.797 0v-3.5c0-1.156-.828-1.984-1.938-1.984-.718 0-1.25.172-1.843.5l.078.78c.515-.374 1.062-.593 1.765-.593.547 0 1.032.453 1.032 1.313v.5c-.547.015-1.266.062-1.985.297C1.11-2.422.641-1.97.641-1.375c0 .531.312 1.5 1.328 1.5.656 0 1.5-.203 1.937-.562V0ZM3.89-1.61c0 .25 0 .532-.407.766-.312.203-.718.25-.906.25-.64 0-1.078-.343-1.078-.797 0-.812 1.656-.984 2.39-.984Zm0 0"/><path id="ak" d="M5.063 0v-8.297h-.891v3.485a2.65 2.65 0 0 0-1.688-.61c-1.14 0-2.062 1.219-2.062 2.766S1.297.125 2.437.125c.438 0 1.11-.156 1.704-.734V0ZM4.14-1.406c-.282.515-.703.812-1.22.812-.733 0-1.593-.562-1.593-2.047 0-1.593 1.016-2.062 1.703-2.062.469 0 .86.234 1.11.625Zm0 0"/><path id="al" d="M5.063 0v-5.312h-.907v3.421c0 .907-.625 1.36-1.406 1.36-.844 0-.922-.313-.922-.844v-3.937H.922v3.984c0 .86.265 1.453 1.25 1.453.344 0 1.281-.062 2.015-.719V0Zm0 0"/><path id="am" d="M4.203-1.516c0-.609-.36-1-.406-1.046-.453-.47-.813-.532-1.531-.672-.438-.094-1.047-.203-1.047-.813 0-.734.843-.734 1-.734.625 0 1.125.14 1.656.437l.14-.765a3.9 3.9 0 0 0-1.687-.375c-.265 0-1.937 0-1.937 1.547 0 .53.297.89.468 1.062.438.36.735.422 1.438.563.39.093 1.078.234 1.078.859 0 .828-.922.828-1.094.828A3.12 3.12 0 0 1 .47-1.219l-.14.813c.046.031.859.531 1.968.531 1.547 0 1.906-.937 1.906-1.64m0 0"/><path id="an" d="M4.703 0v-.734H2.984c-.14 0-.28.015-.421.015H1.547l3.11-4.125v-.468H.483v.703h2.953L.329-.484V0Zm0 0"/><path id="ao" d="M8.328 0v-3.594c0-.828-.219-1.828-1.61-1.828-1.015 0-1.577.703-1.765.969-.203-.766-.86-.969-1.484-.969-.985 0-1.5.625-1.703.875v-.812H.922V0h.906v-2.969c0-.797.313-1.734 1.188-1.734 1.093 0 1.156.75 1.156 1.187V0h.906v-2.969c0-.797.313-1.734 1.188-1.734 1.093 0 1.156.75 1.156 1.187V0Zm0 0"/><path id="ap" d="M5.484-2.625c0-1.625-1.187-2.86-2.562-2.86-1.406 0-2.563 1.266-2.563 2.86 0 1.563 1.188 2.75 2.563 2.75 1.406 0 2.562-1.219 2.562-2.75m-.906-.125c0 1.469-.844 2.125-1.656 2.125-.86 0-1.656-.719-1.656-2.125 0-1.453.89-2.016 1.656-2.016.812 0 1.656.625 1.656 2.016m0 0"/><path id="aq" d="M2.14.703v-6.015h-.89v6.14c0 .781-.625.86-.875.86-.531 0-.86-.344-.875-.375l-.234.718c.375.235.859.406 1.406.406.75 0 1.469-.624 1.469-1.734m0-7.5v-1.016H1.11v1.016Zm0 0"/><path id="ar" d="M6.797-5.875c0-1.266-1.172-2.422-2.797-2.422H1.094V0h1.015v-3.453H4c1.656 0 2.797-1.188 2.797-2.422m-.953-.016c0 .938-.735 1.75-2.094 1.75H2.094v-3.484H3.75c1.406 0 2.094.828 2.094 1.734m0 0"/><path id="as" d="M5.063 0v-3.594c0-.734-.157-1.828-1.594-1.828-.672 0-1.25.297-1.703.875v-.812H.922V0h.906v-2.969c0-.75.281-1.734 1.188-1.734 1.109 0 1.14.766 1.14 1.187V0Zm0 0"/><path id="at" d="m5.672-4.703-.125-.719c-.234 0-1.047 0-1.828.39-.39-.327-.875-.39-1.11-.39-1.046 0-1.875.875-1.875 1.922 0 .422.125.828.391 1.188a1.64 1.64 0 0 0-.344 1.015c0 .453.156.75.297.906C.468 0 .328.516.328.844c0 .875 1.125 1.61 2.594 1.61 1.453 0 2.594-.704 2.594-1.61 0-1.688-1.938-1.688-2.422-1.688H2.078c-.172 0-.672 0-.672-.625 0-.265.047-.343.11-.437.203.14.593.343 1.078.343 1.031 0 1.875-.859 1.875-1.937a2.13 2.13 0 0 0-.36-1.156 7 7 0 0 1 .954-.063c.046 0 .312 0 .609.016M3.64-3.5c0 1.063-.672 1.281-1.032 1.281-.53 0-1.062-.36-1.062-1.265 0-1.063.672-1.282 1.047-1.282.531 0 1.047.36 1.047 1.266M4.688.844c0 .562-.829.953-1.766.953-.922 0-1.766-.375-1.766-.953 0-.047 0-.813.907-.813h1.046c.266 0 1.579 0 1.579.813m0 0"/><path id="av" d="M4.86-.5c0-.031-.032-.406-.048-.453l-.015-.344a2.8 2.8 0 0 1-1.828.672c-1 0-1.64-.875-1.64-2.047 0-.984.484-2.078 1.671-2.078.797 0 1.14.203 1.656.547l.14-.781c-.702-.407-1.093-.5-1.796-.5-1.656 0-2.578 1.453-2.578 2.812C.422-1.14 1.516.125 2.953.125c.578 0 1.25-.156 1.906-.625m0 0"/><path id="aw" d="M2.11 0v-.969h-.97V0Zm0 0"/><path id="ax" d="M7.203 0 4.86-3.89c1.313-.376 2.016-1.282 2.016-2.172 0-1.188-1.281-2.235-2.969-2.235H1.094V0h1v-3.797h1.86L6.171 0ZM5.922-6.062c0 .75-.64 1.562-2.14 1.562H2.093v-3.125H3.78c1.438 0 2.14.766 2.14 1.563m0 0"/><path id="ay" d="M4.86-2.687c0-.516-.048-1.25-.423-1.876-.5-.828-1.328-.921-1.671-.921C1.469-5.484.39-4.25.39-2.687.39-1.141 1.5.078 2.844.124c-.531.344-.875.828-.828 1.39 0 .516.375 1.016 1.172 1.016.39 0 .703-.062 1.171-.297l-.156-.703c-.266.11-.547.172-.812.172-.328-.031-.625-.094-.625-.453-.016-.531.5-.969 1.047-1.281.328-.094.64-.25.984-.485 0-.046-.047-.437-.047-.437s-.031-.281-.031-.328c-.703.593-1.407.687-1.766.687-.922 0-1.703-.828-1.734-2.093Zm-.704-.641h-2.86c.204-.813.767-1.438 1.47-1.438.359 0 1.187.157 1.39 1.438m0 0"/><path id="az" d="M3.797-4.625v-.797c-1.078 0-1.719.64-2.047 1.11V-5.36H.938V0h.875v-2.625c0-1.203.906-1.984 1.984-2m0 0"/><path id="aA" d="M7.11-2.25c0-1.047-1.032-1.89-2.266-2.094 1.39-.375 1.937-1.172 1.937-1.875 0-1.078-1.218-2.078-2.906-2.078H1.109V0h3.094C5.875 0 7.11-1.078 7.11-2.25M5.86-6.203c0 .844-1.032 1.531-2.298 1.531H2.079v-2.953h1.469c1.281 0 2.312.625 2.312 1.422m.312 3.937c0 .844-.969 1.594-2.313 1.594H2.08v-3.281h1.593c1.547 0 2.5.86 2.5 1.687m0 0"/><path id="aB" d="M2.11-.016v-.953h-.97V0h.298L1.14 1.5h.468Zm0 0"/><path id="aC" d="M6.547 0v-.766H5.422l-3.094.032h-.375l4.531-7.078v-.485H.813v.735h2.343c.14 0 .281-.016.422-.016h1.61L.64-.484V0Zm0 0"/><path id="aD" d="M5.172-5.312h-.89c-.548 1.421-1.47 3.765-1.516 4.625H2.75c-.062-.72-.687-2.282-.797-2.532L1.11-5.312H.172L2.39 0l-.422 1.094c-.266.593-.438.656-.657.656-.171 0-.546-.047-.921-.187l.078.78c.062.016.469.095.844.095.296 0 .843 0 1.359-1.313Zm0 0"/><path id="aI" d="M7.969-4.125c0-2.531-1.719-4.422-3.657-4.422-1.984 0-3.671 1.922-3.671 4.422C.64-1.609 2.375.25 4.297.25c1.984 0 3.672-1.875 3.672-4.375m-1.032-.172C6.938-1.953 5.658-.5 4.313-.5c-1.39 0-2.64-1.5-2.64-3.797 0-2.203 1.297-3.516 2.625-3.516 1.375 0 2.64 1.344 2.64 3.516m0 0"/><path id="aJ" d="m3.89-.344-.171-.703c-.422.375-.86.422-1.078.422-.532 0-.594-.562-.594-.984v-3h1.64v-.703h-1.64v-1.516h-.828v1.516h-1v.703h.969v3.203c0 .703.156 1.531.984 1.531.797 0 1.36-.281 1.719-.469m0 0"/><path id="aK" d="m3.688-5.36-.485-.515-.828.719v-3.14H1.5v3.874L.328-3.375l.453.547.719-.656V0h.875v-4.234Zm0 0"/><path id="aL" d="M4.86-.5c0-.031-.032-.406-.048-.453l-.015-.344a2.8 2.8 0 0 1-1.828.672c-1 0-1.64-.875-1.64-2.047 0-.984.484-2.078 1.671-2.078.797 0 1.14.203 1.656.547l.14-.781c-.702-.407-1.093-.5-1.796-.5-1.656 0-2.578 1.453-2.578 2.812C.422-1.14 1.516.125 2.953.125c.578 0 1.25-.156 1.906-.625M4.5-8.297h-.922l-1.547 2h.719Zm0 0"/><path id="aM" d="m5.219 2.234-.157-.703c-.265.11-.546.172-.812.172-.328-.031-.61-.094-.625-.453C3.609.719 4.109.313 4.656 0h.14v-3.5c0-1.156-.827-1.984-1.937-1.984-.718 0-1.25.172-1.843.5l.078.78c.515-.374 1.062-.593 1.765-.593.547 0 1.032.453 1.032 1.313v.5c-.547.015-1.266.062-1.985.297C1.11-2.422.641-1.97.641-1.375c0 .531.312 1.5 1.328 1.5.656 0 1.5-.203 1.937-.562V0c-.594.328-1.078.906-1.031 1.516 0 .515.375 1.015 1.172 1.015.406 0 .703-.062 1.172-.297M3.89-1.609c0 .25 0 .53-.407.765-.312.203-.718.25-.906.25-.64 0-1.078-.343-1.078-.797 0-.812 1.656-.984 2.39-.984Zm0 0"/><path id="aN" d="M5.469 0 3.25-3.266l1.969-2.046h-1.11L1.813-2.906v-5.39H.938V0h.828v-1.719l.906-.953L4.5 0Zm0 0"/><path id="aO" d="M5.563-2.672c0-1.437-.75-2.75-1.875-2.75-.485 0-1.25.156-1.876.672v-.562H.939v7.625h.906V-.531c.406.36.906.656 1.547.656 1.156 0 2.172-1.172 2.172-2.797m-.907.016c0 1.203-.812 2.062-1.703 2.062-.328 0-.562-.125-.781-.297-.297-.25-.328-.468-.328-.656v-2.469a1.47 1.47 0 0 1 1.219-.671c.874 0 1.593.89 1.593 2.03m0 0"/><path id="aQ" d="M7-.453v-3.172H4.547v.719h1.531v2.031a4.6 4.6 0 0 1-1.531.25c-.766 0-1.469-.422-1.938-1.031-.546-.703-.796-1.594-.796-2.485 0-.906.25-1.796.796-2.5.47-.609 1.172-1.03 1.938-1.03.39 0 .797.046 1.172.187.375.14.718.375 1.015.64l.172-1c-.36-.187-.734-.36-1.14-.453a5.4 5.4 0 0 0-1.22-.125c-1.03 0-1.984.469-2.655 1.25C1.14-6.344.78-5.266.78-4.14c0 1.094.36 2.188 1.11 3.016.672.766 1.625 1.25 2.656 1.25C5.39.125 6.234-.078 7-.453m0 0"/><path id="aR" d="M4.703 0v-.734H2.984c-.14 0-.28.015-.421.015H1.547l3.11-4.125v-.468H.483v.703h2.953L.329-.484V0ZM3.047-6.797v-1.016H2.016v1.016Zm0 0"/><path id="aS" d="M10.813-8.297h-.876L8.845-4.375c-.266.938-.266.969-.485 1.766-.14.578-.328 1.265-.375 1.703H7.97c-.063-.5-.313-1.531-.516-2.25l-1.422-5.14H5.016L4-4.595c-.094.297-.812 2.89-.89 3.672h-.016c-.047-.469-.344-1.625-.39-1.828l-.517-1.906-1-3.64H.173L2.516 0H3.5l1.125-4.062c.297-1.063.75-2.704.828-3.344h.016s.078.625.64 2.672L7.406 0H8.47Zm0 0"/><path id="aT" d="M5.063 0v-3.594c0-.734-.157-1.828-1.594-1.828-.828 0-1.375.469-1.656.813v-3.688H.922V0h.906v-2.969c0-.75.281-1.734 1.188-1.734 1.109 0 1.14.766 1.14 1.187V0Zm0 0"/><path id="aU" d="M4.531-1.766v-6.53h-1v6.483c0 .688-.344 1.329-1.39 1.329a1.96 1.96 0 0 1-1.485-.657L.484-.25c.704.36 1.375.5 2 .5 1.25 0 2.047-.734 2.047-2.016m0 0"/><path id="aV" d="M4.203-1.516c0-.609-.36-1-.406-1.046-.453-.47-.813-.532-1.531-.672-.438-.094-1.047-.203-1.047-.813 0-.734.843-.734 1-.734.625 0 1.125.14 1.656.437l.14-.765a3.9 3.9 0 0 0-1.687-.375c-.265 0-1.937 0-1.937 1.547 0 .53.297.89.468 1.062.438.36.735.422 1.438.563.39.093 1.078.234 1.078.859 0 .828-.922.828-1.094.828A3.12 3.12 0 0 1 .47-1.219l-.14.813c.046.031.859.531 1.968.531 1.547 0 1.906-.937 1.906-1.64m-.312-6.78h-.922l-1.547 2h.719Zm0 0"/><path id="aW" d="M9.016 0v-8.297h-1.36L6.281-4.609c-.61 1.672-1.078 2.922-1.203 3.468h-.016c-.03-.203-.187-.64-.343-1.109-.219-.64-.219-.672-.407-1.156L2.5-8.296H1.14V0h.923v-7.375c.171.813 2.109 5.922 2.562 7.125H5.5c.39-1.031 2.36-6.234 2.578-7.14h.016V0Zm0 0"/><path id="aX" d="M2.11 0v-8.297H1.077V0Zm0 0"/><path id="aY" d="M7.406 0 4.391-8.297H3.328L.328 0h.875l.875-2.422h3.375L6.328 0ZM5.203-3.094h-2.86l1.423-4.344Zm0 0"/><path id="aP" d="M4.344-5.125H2.25c-.312 0-.406-.016-.687-.031-.422-.047-.438-.094-.454-.235H.844L.563-3.687h.265c.016-.11.094-.641.219-.72.062-.046.719-.046.828-.046h1.75l-.844 1.047C1.75-2.031 1.656-.766 1.656-.296c0 .093 0 .452.375.452s.375-.36.375-.453v-.328c0-1.547.313-2.25.656-2.687l1.204-1.5c.078-.094.078-.11.078-.313m0 0"/><path id="be" d="M4.563 0v-.437H3.266v-5.157c0-.187 0-.297-.266-.297-.11 0-.125 0-.203.063-.688.516-1.656.516-1.828.516H.797v.437h.172a4.2 4.2 0 0 0 1.203-.172v4.61H.89V0c.343-.031 1.422-.031 1.828-.031.422 0 1.484 0 1.844.031m0 0"/><path id="bf" d="M4.86-2.953c0-.469-.032-1.39-.485-2.094-.297-.437-.828-.844-1.719-.844-1.281 0-2.218.72-2.218 1.938 0 1.125.765 1.937 2.093 1.937.406 0 .781-.203 1.063-.687v.172c0 .578-.063 1.156-.235 1.531-.109.234-.468.703-1.171.703-.079 0-.454 0-.735-.187a.55.55 0 0 0 .422-.563c0-.375-.281-.578-.578-.578-.25 0-.594.14-.594.594 0 .61.469 1.14 1.5 1.14 1.25 0 2.656-.796 2.656-3.062m-1.266-.89c0 .406-.172 1.452-1.031 1.452-.86 0-.86-.656-.86-1.53 0-.876 0-1.61.984-1.61.563 0 .766.515.797.593.11.297.11.782.11 1.094m0 0"/><path id="bg" d="M4.86-1.61c0-.718-.532-1.327-1.548-1.546.907-.313 1.25-.938 1.25-1.485 0-.671-.671-1.25-2-1.25-1.109 0-1.828.594-1.828 1.329 0 .406.282.656.641.656.39 0 .656-.281.656-.656 0-.297-.172-.547-.531-.625.063-.063.438-.344 1.016-.344.78 0 .78.593.78.875 0 .5-.187 1.281-.968 1.328l-.422.031c-.14.016-.14.11-.14.172 0 .188.093.188.265.188h.422c1 0 1 .874 1 1.328 0 .406 0 1.312-.953 1.312-.11 0-.734-.016-1.14-.312.406-.11.5-.47.5-.672 0-.422-.298-.703-.72-.703-.374 0-.702.25-.702.703 0 .843.906 1.39 2.093 1.39 1.64 0 2.328-.906 2.328-1.718m0 0"/><path id="bh" d="M3.578-1.172c0-.469-.265-.86-.672-1.094l-.437-.25c.547-.265.89-.593.89-1.078 0-.672-.703-1.031-1.375-1.031-.765 0-1.39.5-1.39 1.156 0 .328.156.563.281.703.125.157.172.188.578.422-.39.172-1.078.547-1.078 1.281 0 .766.797 1.204 1.594 1.204.89 0 1.61-.563 1.61-1.313M3-3.594c0 .625-.734.938-.734.938s-.032 0-.079-.031l-.843-.485c-.188-.11-.375-.297-.375-.562 0-.438.5-.688 1-.688.547 0 1.031.344 1.031.828m.156 2.657c0 .53-.578.859-1.172.859-.64 0-1.187-.422-1.187-.984 0-.516.375-.922.875-1.141.39.219.406.219.969.547.172.11.515.312.515.718m0 0"/><path id="bi" d="M3.688-1.14v-.25h-.782V-4.5c0-.14 0-.203-.14-.203-.094 0-.125 0-.188.11L.266-1.392v.25h2.062v.563c0 .25 0 .328-.578.328h-.187V0l1.046-.031L3.672 0v-.25h-.188c-.578 0-.578-.078-.578-.328v-.563Zm-1.313-.25H.531l1.844-2.548Zm0 0"/><path id="bj" d="M2.016 1.734v-.328h-.72V-4.89h.72v-.328H.953v6.953Zm0 0"/><path id="bk" d="M3.797-4.484H1.969c-.282 0-.36-.016-.61-.032C1-4.546.984-4.594.97-4.703H.734L.484-3.22H.72c.015-.11.094-.562.203-.64.047-.032.625-.032.719-.032h1.515l-.719.922c-.906 1.188-1 2.297-1 2.703 0 .079 0 .407.329.407.343 0 .343-.313.343-.407v-.28c0-1.345.282-1.97.579-2.345l1.046-1.312c.063-.094.063-.11.063-.281m0 0"/><path id="bl" d="M1.297 1.734v-6.953H.219v.328h.734v6.297H.22v.328Zm0 0"/><path id="bm" d="M7.813-1.75v-.203H.109v.203Zm0 0"/><path id="bn" d="M3.516-1.266H3.28c-.015.157-.094.563-.187.625-.047.047-.578.047-.688.047H1.125c.734-.64.984-.843 1.39-1.172.516-.406 1-.843 1-1.5 0-.843-.734-1.359-1.624-1.359-.86 0-1.453.61-1.453 1.25 0 .344.296.39.375.39.156 0 .359-.124.359-.374 0-.125-.047-.375-.406-.375.218-.485.687-.641 1.015-.641.703 0 1.063.547 1.063 1.11 0 .609-.438 1.078-.656 1.328L.516-.266C.437-.203.437-.187.437 0h2.876Zm0 0"/><path id="bo" d="M3.578-2.297c0-1.719-.765-2.328-1.578-2.328a1.55 1.55 0 0 0-1.11.422c-.234.234-.515.5-.515 1.125 0 .89.703 1.547 1.516 1.547.562 0 .859-.375 1.015-.688v.14c0 1.735-.844 2-1.265 2-.157 0-.532-.015-.72-.233a.315.315 0 0 0 .313-.329.32.32 0 0 0-.328-.328c-.203 0-.328.14-.328.344 0 .469.39.766 1.063.766 1 0 1.937-.938 1.937-2.438M2.891-3c0 .906-.516 1.266-.953 1.266-.282 0-.532-.079-.735-.407-.156-.25-.156-.546-.156-.937 0-.406 0-.672.203-.953.172-.25.39-.39.75-.39s.578.218.688.405c.187.282.203.782.203 1.016m0 0"/><path id="bp" d="M2.516 0v-.25h-.172c-.578 0-.578-.078-.578-.328v-3.61c0-.234 0-.328.578-.328h.172v-.25l-1.078.032-1.079-.032v.25h.172c.578 0 .578.094.578.329v3.609c0 .25 0 .328-.578.328H.36V0l1.079-.031Zm0 0"/><path id="bq" d="M3.594-2.219c0-.765-.094-1.328-.406-1.812-.22-.313-.657-.594-1.204-.594C.36-4.625.36-2.719.36-2.219s0 2.36 1.625 2.36c1.61 0 1.61-1.86 1.61-2.36m-.625-.094c0 .516 0 1.032-.094 1.47-.14.64-.61.78-.89.78-.329 0-.75-.187-.891-.75C1-1.219 1-1.796 1-2.312c0-.515 0-1.046.094-1.421.156-.547.593-.703.89-.703.375 0 .735.234.86.64.11.375.125.875.125 1.485m0 0"/><path id="br" d="M3.578-1.422c0-.89-.703-1.547-1.515-1.547-.563 0-.86.375-1.016.688 0-.563.047-1.078.312-1.516.235-.375.61-.625 1.063-.625.203 0 .484.047.625.234-.172.016-.328.141-.328.344a.32.32 0 0 0 .328.328c.219 0 .344-.14.344-.343 0-.407-.297-.766-.985-.766-1 0-2.031.922-2.031 2.422C.375-.406 1.219.14 2 .14c.844 0 1.578-.657 1.578-1.563m-.672 0c0 .39 0 .688-.187.969A.82.82 0 0 1 2-.078c-.36 0-.625-.203-.781-.516-.094-.203-.157-.562-.157-.968 0-.688.407-1.204.97-1.204.312 0 .53.125.702.375.172.266.172.563.172.97m0 0"/><path id="bs" d="M5.547 0v-.25h-.125c-.469 0-.516-.078-.594-.266L3.125-4.812c-.031-.11-.062-.157-.187-.157-.141 0-.157.047-.204.157L1.125-.734C1.063-.562.938-.25.313-.25V0c.234-.016.484-.031.718-.031.282 0 .797.031.844.031v-.25c-.312 0-.516-.14-.516-.328 0-.063.016-.078.047-.14l.328-.86H3.72l.406 1.016c0 .03.031.078.031.109 0 .203-.375.203-.562.203V0l1.031-.031c.328 0 .86.031.922.031M3.609-1.828H1.83l.89-2.266Zm0 0"/><path id="bt" d="M4.047 0v-.25c-.469 0-.516-.047-.516-.39v-4.204l-1.047.078v.25c.47 0 .516.063.516.391v1.453a1.37 1.37 0 0 0-.969-.406c-.937 0-1.703.703-1.703 1.578S1.062.063 1.938.063c.578 0 .921-.297 1.03-.422v.422ZM2.969-.734c-.172.328-.531.609-.985.609-.39 0-.671-.234-.812-.437-.14-.204-.219-.485-.219-.922 0-.172 0-.688.281-1.016.282-.312.625-.375.829-.375.328 0 .64.156.828.406.078.11.078.11.078.25Zm0 0"/><path id="bu" d="M5.469-2.75V-3c-.188.016-.313.031-.5.031-.219 0-.485-.015-.688-.031v.25c.235 0 .36.14.36.297 0 .062 0 .078-.047.172L3.922-.547l-.75-1.906a.3.3 0 0 1-.031-.125c0-.156.172-.172.375-.172V-3c-.25.016-.5.031-.75.031-.203 0-.422-.015-.625-.031v.25c.172 0 .312 0 .406.047.094.078.156.312.156.312s-.015.063-.031.079L2.016-.641l-.703-1.812c-.032-.094-.032-.094-.032-.125 0-.172.25-.172.375-.172V-3s-.515.031-.797.031C.641-2.969.422-2.984.203-3v.25c.281 0 .438 0 .5.203l.969 2.453c.047.11.062.157.203.157.125 0 .14-.047.172-.141l.797-1.984.765 1.968c.047.094.063.157.204.157.124 0 .14-.047.187-.157l.875-2.234c.14-.344.375-.422.594-.422m0 0"/><path id="bv" d="M3.266-.844c0-.015-.016-.094-.125-.094-.094 0-.11.047-.125.11-.22.562-.75.672-1 .672-.328 0-.641-.14-.844-.406-.266-.329-.266-.75-.266-1.032h2.157c.156 0 .203 0 .203-.14 0-.625-.344-1.375-1.391-1.375a1.59 1.59 0 0 0-1.61 1.578c0 .89.782 1.594 1.704 1.594.937 0 1.297-.75 1.297-.907m-.485-.922H.906c.078-.984.703-1.14.969-1.14.86 0 .89.969.906 1.14m0 0"/><path id="bw" d="M4.11 0v-.25c-.454 0-.516 0-.516-.297v-1.562c0-.61-.297-.97-1.047-.97-.578 0-.938.313-1.14.688v-.687L.374-3v.25c.469 0 .531.047.531.39v1.813c0 .297-.078.297-.531.297V0s.5-.031.797-.031c.25 0 .734.031.797.031v-.25c-.453 0-.516 0-.516-.297v-1.265c0-.72.578-1.063 1.031-1.063.485 0 .547.375.547.734v1.594c0 .297-.062.297-.515.297V0s.5-.031.797-.031c.25 0 .734.031.796.031m0 0"/><path id="bx" d="M2.61-.875v-.39h-.235v.374c0 .485-.219.735-.5.735-.469 0-.469-.578-.469-.703V-2.75h1.078V-3H1.406v-1.281h-.25c0 .625-.281 1.312-.953 1.328v.203h.64v1.875c0 .781.595.938.985.938.469 0 .781-.391.781-.938m0 0"/><path id="by" d="M3.516-1.406c0-.782-.594-1.5-1.453-1.5-.313 0-.672.062-.985.328v-1.313c.36.094.563.094.672.094.922 0 1.469-.625 1.469-.734 0-.078-.047-.094-.078-.094 0 0-.032 0-.063.016-.172.062-.531.203-1.047.203-.203 0-.562-.016-1.015-.188-.079-.031-.094-.031-.094-.031-.094 0-.094.078-.094.188v2.046c0 .125 0 .204.11.204.062 0 .078 0 .14-.094.297-.375.734-.438.969-.438.422 0 .61.328.64.39.126.235.172.5.172.907 0 .203 0 .61-.218.922a.98.98 0 0 1-.813.422c-.453 0-.922-.25-1.094-.719.266.016.407-.156.407-.344 0-.296-.266-.343-.36-.343 0 0-.343 0-.343.375 0 .625.578 1.25 1.406 1.25.89 0 1.672-.657 1.672-1.547m0 0"/><clipPath id="b"><path d="M.535.266h6.883v9.636H.535Zm0 0"/></clipPath><clipPath id="a"><path d="M0 0h8v10H0z"/></clipPath><clipPath id="aZ"><path d="M15.023 568.348H403v11.336H15.023Zm0 0"/></clipPath><linearGradient id="ba" x1="0" x2="388.063" y1="0" y2="0" gradientTransform="matrix(1 0 0 -1 15.024 579.685)" gradientUnits="userSpaceOnUse"><stop offset="0" stop-color="#f2f2f2"/><stop offset=".25" stop-color="#f2f2f2"/><stop offset=".313" stop-color="#f2f2f2"/><stop offset=".344" stop-color="#f2f2f2"/><stop offset=".359" stop-color="#f3f3f3"/><stop offset=".363" stop-color="#f4f4f4"/><stop offset=".367" stop-color="#f5f5f5"/><stop offset=".371" stop-color="#f6f6f6"/><stop offset=".375" stop-color="#f7f7f7"/><stop offset=".379" stop-color="#f8f8f8"/><stop offset=".383" stop-color="#f9f9f9"/><stop offset=".387" stop-color="#fafafa"/><stop offset=".391" stop-color="#fbfbfb"/><stop offset=".395" stop-color="#fcfcfc"/><stop offset=".398" stop-color="#fcfcfc"/><stop offset=".406" stop-color="#fcfcfc"/><stop offset=".438" stop-color="#fcfcfc"/><stop offset=".5" stop-color="#fcfcfc"/><stop offset=".563" stop-color="#fcfcfc"/><stop offset=".566" stop-color="#fcfcfc"/><stop offset=".57" stop-color="#fbfbfb"/><stop offset=".574" stop-color="#fafafa"/><stop offset=".578" stop-color="#f9f9f9"/><stop offset=".582" stop-color="#f8f8f8"/><stop offset=".586" stop-color="#f7f7f7"/><stop offset=".59" stop-color="#f6f6f6"/><stop offset=".594" stop-color="#f5f5f5"/><stop offset=".598" stop-color="#f4f4f4"/><stop offset=".602" stop-color="#f3f3f3"/><stop offset=".609" stop-color="#f3f3f3"/><stop offset=".625" stop-color="#f2f2f2"/><stop offset=".75" stop-color="#f2f2f2"/><stop offset="1" stop-color="#f2f2f2"/></linearGradient><g id="c" clip-path="url(#a)"><g clip-path="url(#b)"><path fill-rule="evenodd" d="m3.977 7.836 3.441 2.066V1.645c0-.762-.617-1.38-1.375-1.38H1.914C1.152.266.535.884.535 1.646v8.257Zm-2.754.851 2.754-1.652L6.73 8.687V1.646a.69.69 0 0 0-.687-.692H1.914a.69.69 0 0 0-.691.692Zm0 0"/></g></g></defs><use xlink:href="#c" transform="translate(9 27)"/><use xlink:href="#d" x="17.008" y="23.315"/><use xlink:href="#e" x="20.884" y="23.315"/><use xlink:href="#f" x="29.422" y="23.315"/><use xlink:href="#g" x="384.039" y="23.315"/><use xlink:href="#h" x="390.168" y="23.315"/><use xlink:href="#i" x="392.79" y="23.315"/><use xlink:href="#j" x="396.727" y="23.315"/><use xlink:href="#k" x="148.592" y="34.908"/><use xlink:href="#l" x="160.284" y="34.908"/><use xlink:href="#m" x="166.56" y="34.908"/><use xlink:href="#n" x="173.136" y="34.908"/><use xlink:href="#o" x="179.842" y="34.908"/><use xlink:href="#p" x="182.903" y="34.908"/><use xlink:href="#q" x="189.908" y="34.908"/><use xlink:href="#l" x="195.754" y="34.908"/><use xlink:href="#r" x="202.031" y="34.908"/><use xlink:href="#s" x="215.828" y="34.908"/><use xlink:href="#t" x="219.414" y="34.908"/><use xlink:href="#u" x="225.206" y="34.908"/><use xlink:href="#v" x="231.052" y="34.908"/><use xlink:href="#w" x="235.661" y="34.908"/><use xlink:href="#x" x="239.57" y="34.908"/><use xlink:href="#y" x="244.178" y="34.908"/><use xlink:href="#z" x="248.787" y="34.908"/><use xlink:href="#A" x="253.396" y="34.908"/><use xlink:href="#A" x="258.004" y="34.908"/><use xlink:href="#B" x="262.613" y="34.908"/><path fill="none" stroke="#000" stroke-miterlimit="10" stroke-width=".398" d="M17.008 39.293h384.094"/><use xlink:href="#C" x="399.042" y="102.32"/><use xlink:href="#D" x="399.042" y="94.565"/><use xlink:href="#E" x="399.042" y="90.333"/><use xlink:href="#F" x="399.042" y="86.101"/><use xlink:href="#G" x="399.042" y="81.399"/><use xlink:href="#H" x="399.042" y="79.048"/><use xlink:href="#I" x="399.042" y="74.345"/><use xlink:href="#D" x="399.042" y="70.583"/><use xlink:href="#J" x="399.042" y="66.351"/><use xlink:href="#K" x="399.042" y="60.238"/><use xlink:href="#L" x="399.042" y="55.536"/><use xlink:href="#M" x="399.042" y="53.185"/><use xlink:href="#M" x="399.042" y="48.953"/><use xlink:href="#N" x="399.042" y="44.721"/><use xlink:href="#O" x="403.164" y="40.487"/><use xlink:href="#P" x="403.164" y="48.242"/><use xlink:href="#Q" x="403.164" y="52.474"/><use xlink:href="#R" x="403.164" y="56.706"/><use xlink:href="#S" x="403.164" y="61.408"/><use xlink:href="#T" x="403.164" y="63.759"/><use xlink:href="#U" x="403.164" y="68.462"/><use xlink:href="#P" x="403.164" y="72.224"/><use xlink:href="#V" x="403.164" y="76.456"/><use xlink:href="#W" x="403.164" y="82.561"/><use xlink:href="#X" x="403.164" y="87.263"/><use xlink:href="#Y" x="403.164" y="89.614"/><use xlink:href="#Z" x="403.164" y="93.846"/><use xlink:href="#aa" x="403.164" y="98.078"/><use xlink:href="#ab" x="29.537" y="61.174"/><use xlink:href="#ac" x="49.406" y="51.089" fill="red"/><use xlink:href="#ad" x="49.406" y="61.174"/><use xlink:href="#ae" x="57.38" y="61.174"/><use xlink:href="#af" x="65.342" y="61.174"/><use xlink:href="#ag" x="68.092" y="61.174"/><use xlink:href="#ah" x="73.292" y="61.174"/><use xlink:href="#ai" x="76.042" y="61.174"/><use xlink:href="#af" x="82.043" y="61.174"/><use xlink:href="#aj" x="84.793" y="61.174"/><use xlink:href="#ak" x="94.297" y="61.174"/><use xlink:href="#al" x="100.298" y="61.174"/><use xlink:href="#am" x="106.3" y="61.174"/><use xlink:href="#an" x="110.783" y="61.174"/><use xlink:href="#aj" x="115.864" y="61.174"/><use xlink:href="#ao" x="125.368" y="61.174"/><use xlink:href="#ap" x="134.621" y="61.174"/><use xlink:href="#aq" x="140.479" y="61.174"/><use xlink:href="#aj" x="143.564" y="61.174"/><use xlink:href="#ar" x="49.406" y="82.818"/><use xlink:href="#aj" x="56.531" y="82.818"/><use xlink:href="#as" x="62.138" y="82.818"/><use xlink:href="#aj" x="68.139" y="82.818"/><use xlink:href="#ao" x="77.644" y="82.818"/><use xlink:href="#ag" x="86.897" y="82.818"/><use xlink:href="#at" x="92.097" y="82.818"/><use xlink:href="#ap" x="97.955" y="82.818"/><use xlink:href="#au" x="107.711" y="72.733" fill="red"/><use xlink:href="#ao" x="107.711" y="82.818"/><use xlink:href="#ap" x="116.964" y="82.818"/><use xlink:href="#av" x="123.145" y="82.818"/><use xlink:href="#aw" x="128.345" y="82.818"/><use xlink:href="#ax" x="49.406" y="104.462"/><use xlink:href="#aj" x="56.938" y="104.462"/><use xlink:href="#ak" x="62.545" y="104.462"/><use xlink:href="#al" x="68.546" y="104.462"/><use xlink:href="#aq" x="74.547" y="104.462"/><use xlink:href="#ag" x="77.632" y="104.462"/><use xlink:href="#am" x="86.73" y="104.462"/><use xlink:href="#af" x="91.213" y="104.462"/><use xlink:href="#ay" x="93.962" y="104.462"/><use xlink:href="#ao" x="103.06" y="104.462"/><use xlink:href="#ag" x="112.313" y="104.462"/><use xlink:href="#am" x="121.411" y="104.462"/><use xlink:href="#ag" x="125.894" y="104.462"/><use xlink:href="#az" x="131.095" y="104.462"/><use xlink:href="#av" x="135.076" y="104.462"/><use xlink:href="#ag" x="140.276" y="104.462"/><use xlink:href="#ae" x="49.406" y="126.105"/><use xlink:href="#aA" x="61.265" y="126.105"/><use xlink:href="#ap" x="69.036" y="126.105"/><use xlink:href="#at" x="74.894" y="126.105"/><use xlink:href="#al" x="80.752" y="126.105"/><use xlink:href="#aB" x="86.753" y="126.105"/><use xlink:href="#aC" x="93.903" y="126.105"/><use xlink:href="#ai" x="101.052" y="126.105"/><use xlink:href="#aj" x="107.053" y="126.105"/><use xlink:href="#ae" x="112.337" y="126.105"/><use xlink:href="#av" x="119.976" y="126.105"/><use xlink:href="#aD" x="125.177" y="126.105"/><use xlink:href="#ac" x="134.431" y="116.02" fill="red"/><use xlink:href="#ao" x="134.431" y="126.105"/><use xlink:href="#aD" x="143.684" y="126.105"/><use xlink:href="#ao" x="149.04" y="126.105"/><use xlink:href="#aw" x="158.293" y="126.105"/><use xlink:href="#ac" x="49.406" y="137.664" fill="red"/><use xlink:href="#ad" x="49.406" y="147.749"/><use xlink:href="#ae" x="57.38" y="147.749"/><use xlink:href="#af" x="65.342" y="147.749"/><use xlink:href="#ag" x="68.092" y="147.749"/><use xlink:href="#ah" x="73.292" y="147.749"/><use xlink:href="#ai" x="76.042" y="147.749"/><use xlink:href="#af" x="82.043" y="147.749"/><use xlink:href="#aj" x="84.793" y="147.749"/><use xlink:href="#ak" x="94.297" y="147.749"/><use xlink:href="#al" x="100.298" y="147.749"/><use xlink:href="#am" x="106.3" y="147.749"/><use xlink:href="#an" x="110.783" y="147.749"/><use xlink:href="#aj" x="115.864" y="147.749"/><use xlink:href="#ao" x="125.368" y="147.749"/><use xlink:href="#ap" x="134.621" y="147.749"/><use xlink:href="#aq" x="140.479" y="147.749"/><use xlink:href="#aj" x="143.564" y="147.749"/><use xlink:href="#ar" x="49.406" y="169.393"/><use xlink:href="#aj" x="56.531" y="169.393"/><use xlink:href="#as" x="62.138" y="169.393"/><use xlink:href="#aj" x="68.139" y="169.393"/><use xlink:href="#ao" x="77.644" y="169.393"/><use xlink:href="#ag" x="86.897" y="169.393"/><use xlink:href="#at" x="92.097" y="169.393"/><use xlink:href="#ap" x="97.955" y="169.393"/><use xlink:href="#au" x="107.711" y="159.307" fill="red"/><use xlink:href="#ao" x="107.711" y="169.393"/><use xlink:href="#ap" x="116.964" y="169.393"/><use xlink:href="#av" x="123.145" y="169.393"/><use xlink:href="#aw" x="128.345" y="169.393"/><use xlink:href="#ax" x="49.406" y="191.036"/><use xlink:href="#aj" x="56.938" y="191.036"/><use xlink:href="#ak" x="62.545" y="191.036"/><use xlink:href="#al" x="68.546" y="191.036"/><use xlink:href="#aq" x="74.547" y="191.036"/><use xlink:href="#ag" x="77.632" y="191.036"/><use xlink:href="#am" x="86.73" y="191.036"/><use xlink:href="#af" x="91.213" y="191.036"/><use xlink:href="#ay" x="93.962" y="191.036"/><use xlink:href="#ao" x="103.06" y="191.036"/><use xlink:href="#ag" x="112.313" y="191.036"/><use xlink:href="#am" x="121.411" y="191.036"/><use xlink:href="#ag" x="125.894" y="191.036"/><use xlink:href="#az" x="131.095" y="191.036"/><use xlink:href="#av" x="135.076" y="191.036"/><use xlink:href="#ag" x="140.276" y="191.036"/><use xlink:href="#ae" x="49.406" y="212.68"/><use xlink:href="#aA" x="61.265" y="212.68"/><use xlink:href="#ap" x="69.036" y="212.68"/><use xlink:href="#at" x="74.894" y="212.68"/><use xlink:href="#al" x="80.752" y="212.68"/><use xlink:href="#aB" x="86.753" y="212.68"/><use xlink:href="#aC" x="93.903" y="212.68"/><use xlink:href="#ai" x="101.052" y="212.68"/><use xlink:href="#aj" x="107.053" y="212.68"/><use xlink:href="#ae" x="112.337" y="212.68"/><use xlink:href="#av" x="119.976" y="212.68"/><use xlink:href="#aD" x="125.177" y="212.68"/><use xlink:href="#ac" x="134.431" y="202.595" fill="red"/><use xlink:href="#ao" x="134.431" y="212.68"/><use xlink:href="#aD" x="143.684" y="212.68"/><g fill="red"><use xlink:href="#aE" x="149.041" y="202.595"/><use xlink:href="#aF" x="153.691" y="202.595"/></g><use xlink:href="#au" x="165.921" y="202.595" fill="red"/><g fill="red"><use xlink:href="#aF" x="175.246" y="202.595"/><use xlink:href="#aG" x="185.492" y="202.595"/></g><use xlink:href="#ao" x="149.041" y="212.68"/><use xlink:href="#aw" x="158.294" y="212.68"/><use xlink:href="#aH" x="32.896" y="237.312"/><use xlink:href="#aF" x="49.406" y="227.227" fill="red"/><use xlink:href="#aI" x="49.406" y="237.312"/><use xlink:href="#aJ" x="58.038" y="237.312"/><use xlink:href="#ap" x="62.27" y="237.312"/><use xlink:href="#aJ" x="72.025" y="237.312"/><use xlink:href="#ag" x="76.257" y="237.312"/><use xlink:href="#az" x="81.457" y="237.312"/><use xlink:href="#aj" x="85.438" y="237.312"/><use xlink:href="#an" x="91.045" y="237.312"/><use xlink:href="#ao" x="100.023" y="237.312"/><use xlink:href="#as" x="109.277" y="237.312"/><use xlink:href="#af" x="115.278" y="237.312"/><use xlink:href="#ag" x="118.028" y="237.312"/><use xlink:href="#ai" x="127.125" y="237.312"/><use xlink:href="#aK" x="133.127" y="237.312"/><use xlink:href="#ap" x="136.558" y="237.312"/><use xlink:href="#at" x="142.416" y="237.312"/><use xlink:href="#ap" x="148.274" y="237.312"/><use xlink:href="#am" x="154.132" y="237.312"/><use xlink:href="#aK" x="158.615" y="237.312"/><use xlink:href="#aj" x="162.046" y="237.312"/><use xlink:href="#ae" x="167.33" y="237.312"/><use xlink:href="#af" x="175.292" y="237.312"/><use xlink:href="#aL" x="178.042" y="237.312"/><use xlink:href="#au" x="187.142" y="227.227" fill="red"/><use xlink:href="#ai" x="187.142" y="237.312"/><use xlink:href="#ay" x="193.466" y="237.312"/><use xlink:href="#ak" x="198.667" y="237.312"/><use xlink:href="#aM" x="204.668" y="237.312"/><use xlink:href="#ae" x="49.406" y="258.956"/><use xlink:href="#am" x="57.368" y="258.956"/><use xlink:href="#an" x="61.851" y="258.956"/><use xlink:href="#aD" x="66.932" y="258.956"/><use xlink:href="#am" x="72.288" y="258.956"/><use xlink:href="#aJ" x="76.771" y="258.956"/><use xlink:href="#aN" x="81.003" y="258.956"/><use xlink:href="#af" x="86.682" y="258.956"/><use xlink:href="#ag" x="89.431" y="258.956"/><use xlink:href="#aO" x="98.529" y="258.956"/><use xlink:href="#ap" x="104.853" y="258.956"/><use xlink:href="#aN" x="110.711" y="258.956"/><use xlink:href="#ap" x="116.067" y="258.956"/><use xlink:href="#ah" x="121.925" y="258.956"/><use xlink:href="#ag" x="124.675" y="258.956"/><use xlink:href="#as" x="129.875" y="258.956"/><use xlink:href="#af" x="135.877" y="258.956"/><use xlink:href="#aj" x="138.626" y="258.956"/><use xlink:href="#aF" x="148.132" y="248.871" fill="red"/><use xlink:href="#an" x="148.132" y="258.956"/><use xlink:href="#af" x="153.213" y="258.956"/><use xlink:href="#ag" x="155.963" y="258.956"/><use xlink:href="#ao" x="161.163" y="258.956"/><use xlink:href="#af" x="170.416" y="258.956"/><use xlink:href="#aw" x="173.166" y="258.956"/><use xlink:href="#ab" x="29.537" y="280.6"/><use xlink:href="#aF" x="49.406" y="270.514" fill="red"/><use xlink:href="#aI" x="49.406" y="280.6"/><use xlink:href="#aJ" x="58.038" y="280.6"/><use xlink:href="#ap" x="62.27" y="280.6"/><use xlink:href="#aJ" x="72.025" y="280.6"/><use xlink:href="#ag" x="76.257" y="280.6"/><use xlink:href="#az" x="81.457" y="280.6"/><use xlink:href="#aj" x="85.438" y="280.6"/><use xlink:href="#an" x="91.045" y="280.6"/><use xlink:href="#ao" x="100.023" y="280.6"/><use xlink:href="#as" x="109.277" y="280.6"/><use xlink:href="#af" x="115.278" y="280.6"/><use xlink:href="#ag" x="118.028" y="280.6"/><use xlink:href="#ai" x="127.125" y="280.6"/><use xlink:href="#aK" x="133.127" y="280.6"/><use xlink:href="#ap" x="136.558" y="280.6"/><use xlink:href="#at" x="142.416" y="280.6"/><use xlink:href="#ap" x="148.274" y="280.6"/><use xlink:href="#am" x="154.132" y="280.6"/><use xlink:href="#aK" x="158.615" y="280.6"/><use xlink:href="#aj" x="162.046" y="280.6"/><use xlink:href="#ae" x="167.33" y="280.6"/><use xlink:href="#af" x="175.292" y="280.6"/><use xlink:href="#aL" x="178.042" y="280.6"/><use xlink:href="#au" x="187.142" y="270.514" fill="red"/><use xlink:href="#ai" x="187.142" y="280.6"/><use xlink:href="#ay" x="193.466" y="280.6"/><use xlink:href="#ak" x="198.667" y="280.6"/><use xlink:href="#aM" x="204.668" y="280.6"/><use xlink:href="#ae" x="49.406" y="302.243"/><use xlink:href="#am" x="57.368" y="302.243"/><use xlink:href="#an" x="61.851" y="302.243"/><use xlink:href="#aD" x="66.932" y="302.243"/><use xlink:href="#am" x="72.288" y="302.243"/><use xlink:href="#aJ" x="76.771" y="302.243"/><use xlink:href="#aN" x="81.003" y="302.243"/><use xlink:href="#af" x="86.682" y="302.243"/><use xlink:href="#ag" x="89.431" y="302.243"/><use xlink:href="#aO" x="98.529" y="302.243"/><use xlink:href="#ap" x="104.853" y="302.243"/><use xlink:href="#aN" x="110.711" y="302.243"/><use xlink:href="#ap" x="116.067" y="302.243"/><use xlink:href="#ah" x="121.925" y="302.243"/><use xlink:href="#ag" x="124.675" y="302.243"/><use xlink:href="#as" x="129.875" y="302.243"/><use xlink:href="#af" x="135.877" y="302.243"/><use xlink:href="#aj" x="138.626" y="302.243"/><use xlink:href="#aF" x="148.132" y="292.158" fill="red"/><use xlink:href="#an" x="148.132" y="302.243"/><use xlink:href="#af" x="153.213" y="302.243"/><use xlink:href="#ag" x="155.963" y="302.243"/><use xlink:href="#ao" x="161.163" y="302.243"/><use xlink:href="#af" x="170.416" y="302.243"/><use xlink:href="#aw" x="173.166" y="302.243"/><use xlink:href="#aH" x="32.896" y="326.876"/><use xlink:href="#aF" x="49.406" y="316.79" fill="red"/><use xlink:href="#aP" x="59.652" y="312.451" fill="red"/><use xlink:href="#aQ" x="49.406" y="326.876"/><use xlink:href="#ak" x="57.213" y="326.876"/><use xlink:href="#aD" x="63.214" y="326.876"/><use xlink:href="#aR" x="68.57" y="326.876"/><use xlink:href="#ae" x="77.548" y="326.876"/><use xlink:href="#af" x="85.51" y="326.876"/><use xlink:href="#ag" x="88.26" y="326.876"/><use xlink:href="#ah" x="93.46" y="326.876"/><use xlink:href="#aN" x="96.21" y="326.876"/><use xlink:href="#af" x="101.888" y="326.876"/><use xlink:href="#ag" x="104.638" y="326.876"/><use xlink:href="#ac" x="113.737" y="316.79" fill="red"/><use xlink:href="#az" x="113.737" y="326.876"/><use xlink:href="#an" x="117.718" y="326.876"/><use xlink:href="#ag" x="122.799" y="326.876"/><use xlink:href="#av" x="127.999" y="326.876"/><use xlink:href="#an" x="133.2" y="326.876"/><use xlink:href="#aD" x="138.281" y="326.876"/><use xlink:href="#al" x="49.406" y="348.519"/><use xlink:href="#av" x="55.407" y="348.519"/><use xlink:href="#an" x="60.608" y="348.519"/><use xlink:href="#aD" x="65.689" y="348.519"/><use xlink:href="#as" x="71.045" y="348.519"/><use xlink:href="#af" x="77.046" y="348.519"/><use xlink:href="#aK" x="79.796" y="348.519"/><use xlink:href="#ao" x="87.447" y="348.519"/><use xlink:href="#af" x="96.7" y="348.519"/><use xlink:href="#aS" x="103.347" y="348.519"/><use xlink:href="#am" x="114.011" y="348.519"/><use xlink:href="#an" x="118.494" y="348.519"/><use xlink:href="#ag" x="123.575" y="348.519"/><use xlink:href="#av" x="128.775" y="348.519"/><use xlink:href="#aT" x="133.976" y="348.519"/><use xlink:href="#ao" x="139.977" y="348.519"/><use xlink:href="#ap" x="149.23" y="348.519"/><use xlink:href="#aF" x="155.09" y="338.434" fill="red"/><use xlink:href="#at" x="155.09" y="348.519"/><use xlink:href="#aM" x="160.948" y="348.519"/><use xlink:href="#av" x="166.555" y="348.519"/><use xlink:href="#aD" x="171.755" y="348.519"/><use xlink:href="#aB" x="176.131" y="348.519"/><use xlink:href="#aU" x="49.406" y="370.163"/><use xlink:href="#ag" x="54.893" y="370.163"/><use xlink:href="#at" x="60.094" y="370.163"/><use xlink:href="#ap" x="65.952" y="370.163"/><use xlink:href="#au" x="75.707" y="360.078" fill="red"/><use xlink:href="#af" x="75.707" y="370.163"/><use xlink:href="#ao" x="78.457" y="370.163"/><use xlink:href="#af" x="87.71" y="370.163"/><use xlink:href="#ay" x="90.459" y="370.163"/><use xlink:href="#aq" x="99.557" y="370.163"/><use xlink:href="#ag" x="102.642" y="370.163"/><use xlink:href="#am" x="107.842" y="370.163"/><use xlink:href="#aJ" x="112.325" y="370.163"/><use xlink:href="#aF" x="120.456" y="360.078" fill="red"/><use xlink:href="#aV" x="120.456" y="370.163"/><use xlink:href="#ae" x="124.939" y="370.163"/><use xlink:href="#af" x="132.901" y="370.163"/><use xlink:href="#ay" x="135.651" y="370.163"/><use xlink:href="#aJ" x="140.851" y="370.163"/><use xlink:href="#ag" x="145.083" y="370.163"/><use xlink:href="#aw" x="150.284" y="370.163"/><use xlink:href="#ab" x="29.537" y="391.807"/><use xlink:href="#aF" x="49.406" y="381.721" fill="red"/><use xlink:href="#aP" x="59.652" y="377.382" fill="red"/><use xlink:href="#aQ" x="49.406" y="391.807"/><use xlink:href="#ak" x="57.213" y="391.807"/><use xlink:href="#aD" x="63.214" y="391.807"/><use xlink:href="#aR" x="68.57" y="391.807"/><use xlink:href="#ae" x="77.548" y="391.807"/><use xlink:href="#af" x="85.51" y="391.807"/><use xlink:href="#ag" x="88.26" y="391.807"/><use xlink:href="#ah" x="93.46" y="391.807"/><use xlink:href="#aN" x="96.21" y="391.807"/><use xlink:href="#af" x="101.888" y="391.807"/><use xlink:href="#ag" x="104.638" y="391.807"/><use xlink:href="#ac" x="113.737" y="381.721" fill="red"/><use xlink:href="#az" x="113.737" y="391.807"/><use xlink:href="#an" x="117.718" y="391.807"/><use xlink:href="#ag" x="122.799" y="391.807"/><use xlink:href="#av" x="127.999" y="391.807"/><use xlink:href="#an" x="133.2" y="391.807"/><use xlink:href="#aD" x="138.281" y="391.807"/><use xlink:href="#al" x="49.406" y="413.45"/><use xlink:href="#av" x="55.407" y="413.45"/><use xlink:href="#an" x="60.608" y="413.45"/><use xlink:href="#aD" x="65.689" y="413.45"/><use xlink:href="#as" x="71.045" y="413.45"/><use xlink:href="#af" x="77.046" y="413.45"/><use xlink:href="#aK" x="79.796" y="413.45"/><use xlink:href="#ao" x="87.447" y="413.45"/><use xlink:href="#af" x="96.7" y="413.45"/><use xlink:href="#aS" x="103.347" y="413.45"/><use xlink:href="#am" x="114.011" y="413.45"/><use xlink:href="#an" x="118.494" y="413.45"/><use xlink:href="#ag" x="123.575" y="413.45"/><use xlink:href="#av" x="128.775" y="413.45"/><use xlink:href="#aT" x="133.976" y="413.45"/><use xlink:href="#ao" x="139.977" y="413.45"/><use xlink:href="#ap" x="149.23" y="413.45"/><use xlink:href="#aF" x="155.09" y="403.365" fill="red"/><use xlink:href="#at" x="155.09" y="413.45"/><use xlink:href="#aM" x="160.948" y="413.45"/><use xlink:href="#av" x="166.555" y="413.45"/><use xlink:href="#aD" x="171.755" y="413.45"/><use xlink:href="#aB" x="176.131" y="413.45"/><use xlink:href="#aU" x="49.406" y="435.094"/><use xlink:href="#ag" x="54.893" y="435.094"/><use xlink:href="#at" x="60.094" y="435.094"/><use xlink:href="#ap" x="65.952" y="435.094"/><use xlink:href="#au" x="75.707" y="425.009" fill="red"/><use xlink:href="#af" x="75.707" y="435.094"/><use xlink:href="#ao" x="78.457" y="435.094"/><use xlink:href="#af" x="87.71" y="435.094"/><use xlink:href="#ay" x="90.459" y="435.094"/><use xlink:href="#aq" x="99.557" y="435.094"/><use xlink:href="#ag" x="102.642" y="435.094"/><use xlink:href="#am" x="107.842" y="435.094"/><use xlink:href="#aJ" x="112.325" y="435.094"/><use xlink:href="#aF" x="120.456" y="425.009" fill="red"/><use xlink:href="#aV" x="120.456" y="435.094"/><use xlink:href="#ae" x="124.939" y="435.094"/><use xlink:href="#af" x="132.901" y="435.094"/><use xlink:href="#ay" x="135.651" y="435.094"/><use xlink:href="#aJ" x="140.851" y="435.094"/><use xlink:href="#ag" x="145.083" y="435.094"/><use xlink:href="#aw" x="150.284" y="435.094"/><use xlink:href="#aH" x="32.896" y="459.726"/><use xlink:href="#aF" x="49.406" y="449.641" fill="red"/><use xlink:href="#aI" x="49.406" y="459.726"/><use xlink:href="#aN" x="58.038" y="459.726"/><use xlink:href="#aj" x="63.716" y="459.726"/><use xlink:href="#an" x="69.323" y="459.726"/><use xlink:href="#al" x="74.404" y="459.726"/><use xlink:href="#aq" x="80.405" y="459.726"/><use xlink:href="#ag" x="83.49" y="459.726"/><use xlink:href="#ao" x="92.587" y="459.726"/><use xlink:href="#ap" x="101.841" y="459.726"/><use xlink:href="#av" x="108.021" y="459.726"/><use xlink:href="#az" x="117.119" y="459.726"/><use xlink:href="#aj" x="121.1" y="459.726"/><use xlink:href="#ao" x="126.707" y="459.726"/><use xlink:href="#af" x="135.96" y="459.726"/><use xlink:href="#ag" x="138.71" y="459.726"/><use xlink:href="#as" x="143.91" y="459.726"/><use xlink:href="#af" x="149.912" y="459.726"/><use xlink:href="#aj" x="152.661" y="459.726"/><use xlink:href="#au" x="162.167" y="449.641" fill="red"/><use xlink:href="#am" x="162.167" y="459.726"/><use xlink:href="#ae" x="166.65" y="459.726"/><use xlink:href="#ag" x="174.289" y="459.726"/><use xlink:href="#at" x="179.49" y="459.726"/><use xlink:href="#ap" x="185.348" y="459.726"/><use xlink:href="#af" x="49.406" y="481.37"/><use xlink:href="#az" x="56.053" y="481.37"/><use xlink:href="#ap" x="60.034" y="481.37"/><use xlink:href="#an" x="65.892" y="481.37"/><use xlink:href="#aO" x="70.973" y="481.37"/><use xlink:href="#az" x="76.651" y="481.37"/><use xlink:href="#aj" x="80.632" y="481.37"/><use xlink:href="#am" x="86.239" y="481.37"/><use xlink:href="#an" x="90.722" y="481.37"/><use xlink:href="#aj" x="95.803" y="481.37"/><use xlink:href="#ae" x="105.308" y="481.37"/><use xlink:href="#aD" x="113.27" y="481.37"/><use xlink:href="#as" x="118.625" y="481.37"/><use xlink:href="#af" x="124.627" y="481.37"/><use xlink:href="#ap" x="127.377" y="481.37"/><use xlink:href="#am" x="133.234" y="481.37"/><use xlink:href="#aK" x="137.718" y="481.37"/><use xlink:href="#aD" x="141.471" y="481.37"/><use xlink:href="#av" x="146.827" y="481.37"/><use xlink:href="#aT" x="152.028" y="481.37"/><use xlink:href="#aF" x="161.928" y="471.285" fill="red"/><use xlink:href="#am" x="161.928" y="481.37"/><use xlink:href="#ag" x="166.411" y="481.37"/><use xlink:href="#az" x="171.612" y="481.37"/><use xlink:href="#av" x="175.593" y="481.37"/><use xlink:href="#ag" x="180.793" y="481.37"/><use xlink:href="#ao" x="185.993" y="481.37"/><use xlink:href="#aw" x="195.247" y="481.37"/><use xlink:href="#ab" x="29.537" y="503.014"/><use xlink:href="#aF" x="49.406" y="492.928" fill="red"/><use xlink:href="#aI" x="49.406" y="503.014"/><use xlink:href="#aN" x="58.038" y="503.014"/><use xlink:href="#aj" x="63.716" y="503.014"/><use xlink:href="#an" x="69.323" y="503.014"/><use xlink:href="#al" x="74.404" y="503.014"/><use xlink:href="#aq" x="80.405" y="503.014"/><use xlink:href="#ag" x="83.49" y="503.014"/><use xlink:href="#ao" x="92.587" y="503.014"/><use xlink:href="#ap" x="101.841" y="503.014"/><use xlink:href="#av" x="108.021" y="503.014"/><use xlink:href="#az" x="117.119" y="503.014"/><use xlink:href="#aj" x="121.1" y="503.014"/><use xlink:href="#ao" x="126.707" y="503.014"/><use xlink:href="#af" x="135.96" y="503.014"/><use xlink:href="#ag" x="138.71" y="503.014"/><use xlink:href="#as" x="143.91" y="503.014"/><use xlink:href="#af" x="149.912" y="503.014"/><use xlink:href="#aj" x="152.661" y="503.014"/><use xlink:href="#au" x="162.167" y="492.928" fill="red"/><use xlink:href="#am" x="162.167" y="503.014"/><use xlink:href="#ae" x="166.65" y="503.014"/><use xlink:href="#ag" x="174.289" y="503.014"/><use xlink:href="#at" x="179.49" y="503.014"/><use xlink:href="#ap" x="185.348" y="503.014"/><use xlink:href="#af" x="49.406" y="524.657"/><use xlink:href="#az" x="56.053" y="524.657"/><use xlink:href="#ap" x="60.034" y="524.657"/><use xlink:href="#an" x="65.892" y="524.657"/><use xlink:href="#aO" x="70.973" y="524.657"/><use xlink:href="#az" x="76.651" y="524.657"/><use xlink:href="#aj" x="80.632" y="524.657"/><use xlink:href="#am" x="86.239" y="524.657"/><use xlink:href="#an" x="90.722" y="524.657"/><use xlink:href="#aj" x="95.803" y="524.657"/><use xlink:href="#ae" x="105.308" y="524.657"/><use xlink:href="#aD" x="113.27" y="524.657"/><use xlink:href="#as" x="118.625" y="524.657"/><use xlink:href="#af" x="124.627" y="524.657"/><use xlink:href="#ap" x="127.377" y="524.657"/><use xlink:href="#am" x="133.234" y="524.657"/><use xlink:href="#aK" x="137.718" y="524.657"/><use xlink:href="#aD" x="141.471" y="524.657"/><use xlink:href="#av" x="146.827" y="524.657"/><use xlink:href="#aT" x="152.028" y="524.657"/><use xlink:href="#aF" x="161.928" y="514.572" fill="red"/><use xlink:href="#am" x="161.928" y="524.657"/><use xlink:href="#ag" x="166.411" y="524.657"/><use xlink:href="#az" x="171.612" y="524.657"/><use xlink:href="#av" x="175.593" y="524.657"/><use xlink:href="#ag" x="180.793" y="524.657"/><use xlink:href="#ao" x="185.993" y="524.657"/><use xlink:href="#aw" x="195.247" y="524.657"/><use xlink:href="#aH" x="226.163" y="61.174"/><use xlink:href="#aF" x="242.673" y="51.089" fill="red"/><use xlink:href="#aP" x="252.919" y="46.749" fill="red"/><use xlink:href="#aW" x="242.673" y="61.174"/><use xlink:href="#ap" x="252.835" y="61.174"/><use xlink:href="#aR" x="258.693" y="61.174"/><use xlink:href="#as" x="263.774" y="61.174"/><use xlink:href="#ap" x="269.775" y="61.174"/><use xlink:href="#ac" x="275.633" y="51.089" fill="red"/><use xlink:href="#ae" x="275.633" y="61.174"/><use xlink:href="#aK" x="283.595" y="61.174"/><use xlink:href="#aj" x="287.026" y="61.174"/><use xlink:href="#ak" x="292.633" y="61.174"/><use xlink:href="#av" x="298.634" y="61.174"/><use xlink:href="#ap" x="303.835" y="61.174"/><use xlink:href="#ao" x="309.693" y="61.174"/><use xlink:href="#ae" x="242.673" y="82.818"/><use xlink:href="#aD" x="250.635" y="82.818"/><use xlink:href="#ae" x="255.991" y="82.818"/><use xlink:href="#az" x="263.953" y="82.818"/><use xlink:href="#aj" x="267.934" y="82.818"/><use xlink:href="#av" x="273.541" y="82.818"/><use xlink:href="#aj" x="278.741" y="82.818"/><use xlink:href="#aF" x="288.246" y="72.733" fill="red"/><use xlink:href="#aJ" x="288.246" y="82.818"/><use xlink:href="#az" x="292.478" y="82.818"/><use xlink:href="#ap" x="296.459" y="82.818"/><use xlink:href="#as" x="302.317" y="82.818"/><use xlink:href="#aD" x="308.318" y="82.818"/><use xlink:href="#aB" x="312.694" y="82.818"/><use xlink:href="#aj" x="242.673" y="104.462"/><use xlink:href="#ae" x="252.177" y="104.462"/><use xlink:href="#aD" x="260.139" y="104.462"/><use xlink:href="#au" x="265.495" y="94.376" fill="red"/><use xlink:href="#ae" x="265.495" y="104.462"/><use xlink:href="#aD" x="273.457" y="104.462"/><use xlink:href="#aR" x="278.813" y="104.462"/><use xlink:href="#am" x="283.894" y="104.462"/><use xlink:href="#an" x="288.377" y="104.462"/><use xlink:href="#aj" x="293.458" y="104.462"/><use xlink:href="#al" x="302.962" y="104.462"/><use xlink:href="#as" x="308.963" y="104.462"/><use xlink:href="#af" x="314.965" y="104.462"/><use xlink:href="#aF" x="317.716" y="94.376" fill="red"/><use xlink:href="#aR" x="317.716" y="104.462"/><use xlink:href="#ap" x="322.797" y="104.462"/><use xlink:href="#as" x="328.655" y="104.462"/><use xlink:href="#aD" x="334.656" y="104.462"/><use xlink:href="#av" x="340.012" y="104.462"/><use xlink:href="#aT" x="345.212" y="104.462"/><use xlink:href="#aw" x="351.214" y="104.462"/><use xlink:href="#ab" x="222.804" y="129.094"/><use xlink:href="#aF" x="242.673" y="119.009" fill="red"/><use xlink:href="#aP" x="252.919" y="114.669" fill="red"/><use xlink:href="#aQ" x="242.673" y="129.094"/><use xlink:href="#aK" x="250.48" y="129.094"/><use xlink:href="#ap" x="253.911" y="129.094"/><use xlink:href="#ak" x="260.091" y="129.094"/><use xlink:href="#as" x="266.093" y="129.094"/><use xlink:href="#aD" x="272.094" y="129.094"/><use xlink:href="#av" x="277.45" y="129.094"/><use xlink:href="#aT" x="282.651" y="129.094"/><use xlink:href="#as" x="292.549" y="129.094"/><use xlink:href="#aj" x="298.551" y="129.094"/><use xlink:href="#ac" x="304.158" y="119.009" fill="red"/><use xlink:href="#am" x="304.158" y="129.094"/><use xlink:href="#aD" x="308.641" y="129.094"/><use xlink:href="#av" x="313.997" y="129.094"/><use xlink:href="#aj" x="319.197" y="129.094"/><use xlink:href="#am" x="242.673" y="150.738"/><use xlink:href="#ae" x="247.156" y="150.738"/><use xlink:href="#ap" x="254.795" y="150.738"/><use xlink:href="#af" x="260.653" y="150.738"/><use xlink:href="#ao" x="263.403" y="150.738"/><use xlink:href="#af" x="272.656" y="150.738"/><use xlink:href="#ak" x="279.303" y="150.738"/><use xlink:href="#ap" x="285.305" y="150.738"/><use xlink:href="#aF" x="291.163" y="140.652" fill="red"/><use xlink:href="#ai" x="291.163" y="150.738"/><use xlink:href="#az" x="296.842" y="150.738"/><use xlink:href="#aj" x="300.823" y="150.738"/><use xlink:href="#ao" x="306.43" y="150.738"/><use xlink:href="#af" x="315.683" y="150.738"/><use xlink:href="#aj" x="242.673" y="172.381"/><use xlink:href="#ai" x="252.177" y="172.381"/><use xlink:href="#ap" x="258.501" y="172.381"/><use xlink:href="#au" x="264.36" y="162.296" fill="red"/><use xlink:href="#at" x="264.36" y="172.381"/><use xlink:href="#aj" x="270.218" y="172.381"/><use xlink:href="#av" x="275.825" y="172.381"/><use xlink:href="#an" x="281.025" y="172.381"/><use xlink:href="#aD" x="286.106" y="172.381"/><use xlink:href="#ap" x="295.359" y="172.381"/><use xlink:href="#ak" x="301.54" y="172.381"/><use xlink:href="#aO" x="307.541" y="172.381"/><use xlink:href="#az" x="313.22" y="172.381"/><use xlink:href="#aj" x="317.201" y="172.381"/><use xlink:href="#ae" x="322.485" y="172.381"/><use xlink:href="#af" x="330.447" y="172.381"/><use xlink:href="#aj" x="333.197" y="172.381"/><use xlink:href="#aF" x="342.702" y="162.296" fill="red"/><use xlink:href="#an" x="342.702" y="172.381"/><use xlink:href="#as" x="351.68" y="172.381"/><use xlink:href="#af" x="357.682" y="172.381"/><use xlink:href="#av" x="360.431" y="172.381"/><use xlink:href="#an" x="365.632" y="172.381"/><use xlink:href="#aD" x="370.713" y="172.381"/><use xlink:href="#ao" x="376.068" y="172.381"/><use xlink:href="#aw" x="385.322" y="172.381"/><use xlink:href="#aH" x="226.163" y="197.014"/><use xlink:href="#aF" x="242.673" y="186.928" fill="red"/><use xlink:href="#ar" x="242.673" y="197.014"/><use xlink:href="#ap" x="249.798" y="197.014"/><use xlink:href="#ak" x="255.979" y="197.014"/><use xlink:href="#as" x="261.98" y="197.014"/><use xlink:href="#ap" x="267.982" y="197.014"/><use xlink:href="#am" x="273.84" y="197.014"/><use xlink:href="#af" x="278.323" y="197.014"/><use xlink:href="#am" x="284.97" y="197.014"/><use xlink:href="#ae" x="289.453" y="197.014"/><use xlink:href="#ag" x="297.092" y="197.014"/><use xlink:href="#at" x="302.293" y="197.014"/><use xlink:href="#ap" x="308.151" y="197.014"/><use xlink:href="#am" x="317.906" y="197.014"/><use xlink:href="#aK" x="322.389" y="197.014"/><use xlink:href="#al" x="326.143" y="197.014"/><use xlink:href="#at" x="332.144" y="197.014"/><use xlink:href="#ay" x="338.002" y="197.014"/><use xlink:href="#aX" x="347.1" y="197.014"/><use xlink:href="#an" x="350.28" y="197.014"/><use xlink:href="#az" x="355.361" y="197.014"/><use xlink:href="#au" x="359.344" y="186.928" fill="red"/><use xlink:href="#aj" x="359.344" y="197.014"/><use xlink:href="#ag" x="364.951" y="197.014"/><use xlink:href="#ah" x="370.151" y="197.014"/><use xlink:href="#aj" x="372.901" y="197.014"/><use xlink:href="#aB" x="378.508" y="197.014"/><use xlink:href="#aO" x="242.673" y="218.657"/><use xlink:href="#ap" x="248.997" y="218.657"/><use xlink:href="#ao" x="254.855" y="218.657"/><use xlink:href="#as" x="264.108" y="218.657"/><use xlink:href="#aD" x="270.11" y="218.657"/><use xlink:href="#as" x="279.363" y="218.657"/><use xlink:href="#aj" x="285.364" y="218.657"/><use xlink:href="#am" x="294.869" y="218.657"/><use xlink:href="#ae" x="299.352" y="218.657"/><use xlink:href="#ap" x="306.991" y="218.657"/><use xlink:href="#aq" x="312.849" y="218.657"/><use xlink:href="#ag" x="315.933" y="218.657"/><use xlink:href="#ao" x="325.031" y="218.657"/><use xlink:href="#af" x="334.284" y="218.657"/><use xlink:href="#aK" x="337.034" y="218.657"/><use xlink:href="#ap" x="340.465" y="218.657"/><use xlink:href="#aF" x="346.324" y="208.572" fill="red"/><use xlink:href="#am" x="346.324" y="218.657"/><use xlink:href="#af" x="350.807" y="218.657"/><use xlink:href="#ag" x="353.557" y="218.657"/><use xlink:href="#az" x="358.757" y="218.657"/><use xlink:href="#ak" x="362.738" y="218.657"/><use xlink:href="#an" x="368.74" y="218.657"/><use xlink:href="#af" x="373.82" y="218.657"/><use xlink:href="#ag" x="376.57" y="218.657"/><use xlink:href="#aw" x="381.771" y="218.657"/><use xlink:href="#ab" x="222.804" y="240.301"/><use xlink:href="#aF" x="242.673" y="230.216" fill="red"/><use xlink:href="#ar" x="242.673" y="240.301"/><use xlink:href="#ap" x="249.798" y="240.301"/><use xlink:href="#ak" x="255.979" y="240.301"/><use xlink:href="#as" x="261.98" y="240.301"/><use xlink:href="#ap" x="267.982" y="240.301"/><use xlink:href="#am" x="273.84" y="240.301"/><use xlink:href="#af" x="278.323" y="240.301"/><use xlink:href="#am" x="284.97" y="240.301"/><use xlink:href="#ae" x="289.453" y="240.301"/><use xlink:href="#ag" x="297.092" y="240.301"/><use xlink:href="#at" x="302.293" y="240.301"/><use xlink:href="#ap" x="308.151" y="240.301"/><use xlink:href="#am" x="317.906" y="240.301"/><use xlink:href="#aK" x="322.389" y="240.301"/><use xlink:href="#al" x="326.143" y="240.301"/><use xlink:href="#at" x="332.144" y="240.301"/><use xlink:href="#ay" x="338.002" y="240.301"/><use xlink:href="#aX" x="347.1" y="240.301"/><use xlink:href="#an" x="350.28" y="240.301"/><use xlink:href="#az" x="355.361" y="240.301"/><use xlink:href="#au" x="359.344" y="230.216" fill="red"/><use xlink:href="#aj" x="359.344" y="240.301"/><use xlink:href="#ag" x="364.951" y="240.301"/><use xlink:href="#ah" x="370.151" y="240.301"/><use xlink:href="#aj" x="372.901" y="240.301"/><use xlink:href="#aB" x="378.508" y="240.301"/><use xlink:href="#aO" x="242.673" y="261.945"/><use xlink:href="#ap" x="248.997" y="261.945"/><use xlink:href="#ao" x="254.855" y="261.945"/><use xlink:href="#as" x="264.108" y="261.945"/><use xlink:href="#aD" x="270.11" y="261.945"/><use xlink:href="#as" x="279.363" y="261.945"/><use xlink:href="#aj" x="285.364" y="261.945"/><use xlink:href="#am" x="294.869" y="261.945"/><use xlink:href="#ae" x="299.352" y="261.945"/><use xlink:href="#ap" x="306.991" y="261.945"/><use xlink:href="#aq" x="312.849" y="261.945"/><use xlink:href="#ag" x="315.933" y="261.945"/><use xlink:href="#ao" x="325.031" y="261.945"/><use xlink:href="#af" x="334.284" y="261.945"/><use xlink:href="#aK" x="337.034" y="261.945"/><use xlink:href="#ap" x="340.465" y="261.945"/><use xlink:href="#aF" x="346.324" y="251.859" fill="red"/><use xlink:href="#am" x="346.324" y="261.945"/><use xlink:href="#af" x="350.807" y="261.945"/><use xlink:href="#ag" x="353.557" y="261.945"/><use xlink:href="#az" x="358.757" y="261.945"/><use xlink:href="#ak" x="362.738" y="261.945"/><use xlink:href="#an" x="368.74" y="261.945"/><use xlink:href="#af" x="373.82" y="261.945"/><use xlink:href="#ag" x="376.57" y="261.945"/><use xlink:href="#aw" x="381.771" y="261.945"/><use xlink:href="#aH" x="226.163" y="286.577"/><use xlink:href="#aF" x="242.673" y="276.492" fill="red"/><use xlink:href="#aP" x="252.919" y="272.152" fill="red"/><use xlink:href="#aU" x="242.673" y="286.577"/><use xlink:href="#aj" x="248.16" y="286.577"/><use xlink:href="#aN" x="253.767" y="286.577"/><use xlink:href="#ap" x="263.343" y="286.577"/><use xlink:href="#ac" x="269.202" y="276.492" fill="red"/><use xlink:href="#ai" x="269.202" y="286.577"/><use xlink:href="#af" x="275.203" y="286.577"/><use xlink:href="#ag" x="277.953" y="286.577"/><use xlink:href="#av" x="283.153" y="286.577"/><use xlink:href="#aj" x="288.354" y="286.577"/><use xlink:href="#aK" x="293.961" y="286.577"/><use xlink:href="#aY" x="301.612" y="286.577"/><use xlink:href="#ai" x="309.347" y="286.577"/><use xlink:href="#az" x="315.026" y="286.577"/><use xlink:href="#aj" x="319.007" y="286.577"/><use xlink:href="#aT" x="324.613" y="286.577"/><use xlink:href="#aj" x="330.615" y="286.577"/><use xlink:href="#aF" x="336.222" y="276.492" fill="red"/><use xlink:href="#ao" x="336.222" y="286.577"/><use xlink:href="#ap" x="345.475" y="286.577"/><use xlink:href="#ae" x="351.01" y="286.577"/><use xlink:href="#af" x="358.972" y="286.577"/><use xlink:href="#af" x="242.673" y="308.221"/><use xlink:href="#au" x="249.32" y="298.135" fill="red"/><use xlink:href="#aq" x="249.32" y="308.221"/><use xlink:href="#ag" x="252.404" y="308.221"/><use xlink:href="#at" x="257.605" y="308.221"/><use xlink:href="#ap" x="263.463" y="308.221"/><use xlink:href="#aO" x="273.218" y="308.221"/><use xlink:href="#ap" x="279.542" y="308.221"/><use xlink:href="#aF" x="285.401" y="298.135" fill="red"/><use xlink:href="#aJ" x="285.401" y="308.221"/><use xlink:href="#ap" x="289.633" y="308.221"/><use xlink:href="#ao" x="295.491" y="308.221"/><use xlink:href="#am" x="304.744" y="308.221"/><use xlink:href="#aJ" x="309.227" y="308.221"/><use xlink:href="#ae" x="313.137" y="308.221"/><use xlink:href="#al" x="321.099" y="308.221"/><use xlink:href="#aw" x="327.1" y="308.221"/><use xlink:href="#ab" x="222.804" y="329.864"/><use xlink:href="#aF" x="242.673" y="319.779" fill="red"/><use xlink:href="#aP" x="252.919" y="315.439" fill="red"/><use xlink:href="#aU" x="242.673" y="329.864"/><use xlink:href="#aj" x="248.16" y="329.864"/><use xlink:href="#aN" x="253.767" y="329.864"/><use xlink:href="#ap" x="263.343" y="329.864"/><use xlink:href="#ac" x="269.202" y="319.779" fill="red"/><use xlink:href="#ai" x="269.202" y="329.864"/><use xlink:href="#af" x="275.203" y="329.864"/><use xlink:href="#ag" x="277.953" y="329.864"/><use xlink:href="#av" x="283.153" y="329.864"/><use xlink:href="#aj" x="288.354" y="329.864"/><use xlink:href="#aK" x="293.961" y="329.864"/><use xlink:href="#aY" x="301.612" y="329.864"/><use xlink:href="#ai" x="309.347" y="329.864"/><use xlink:href="#az" x="315.026" y="329.864"/><use xlink:href="#aj" x="319.007" y="329.864"/><use xlink:href="#aT" x="324.613" y="329.864"/><use xlink:href="#aj" x="330.615" y="329.864"/><use xlink:href="#aF" x="336.222" y="319.779" fill="red"/><use xlink:href="#ao" x="336.222" y="329.864"/><use xlink:href="#ap" x="345.475" y="329.864"/><use xlink:href="#ae" x="351.01" y="329.864"/><use xlink:href="#af" x="358.972" y="329.864"/><use xlink:href="#af" x="242.673" y="351.508"/><use xlink:href="#au" x="249.32" y="341.423" fill="red"/><use xlink:href="#aq" x="249.32" y="351.508"/><use xlink:href="#ag" x="252.404" y="351.508"/><use xlink:href="#at" x="257.605" y="351.508"/><use xlink:href="#ap" x="263.463" y="351.508"/><use xlink:href="#aO" x="273.218" y="351.508"/><use xlink:href="#ap" x="279.542" y="351.508"/><use xlink:href="#aF" x="285.401" y="341.423" fill="red"/><use xlink:href="#aJ" x="285.401" y="351.508"/><use xlink:href="#ap" x="289.633" y="351.508"/><use xlink:href="#ao" x="295.491" y="351.508"/><use xlink:href="#am" x="304.744" y="351.508"/><use xlink:href="#aJ" x="309.227" y="351.508"/><use xlink:href="#ae" x="313.137" y="351.508"/><use xlink:href="#al" x="321.099" y="351.508"/><use xlink:href="#aw" x="327.1" y="351.508"/><use xlink:href="#ab" x="222.804" y="376.141"/><use xlink:href="#ac" x="242.673" y="366.055" fill="red"/><use xlink:href="#ad" x="242.673" y="376.141"/><use xlink:href="#ae" x="250.647" y="376.141"/><use xlink:href="#af" x="258.609" y="376.141"/><use xlink:href="#ag" x="261.359" y="376.141"/><use xlink:href="#ah" x="266.559" y="376.141"/><use xlink:href="#ai" x="269.309" y="376.141"/><use xlink:href="#af" x="275.31" y="376.141"/><use xlink:href="#aj" x="278.06" y="376.141"/><use xlink:href="#ak" x="287.564" y="376.141"/><use xlink:href="#al" x="293.565" y="376.141"/><use xlink:href="#am" x="299.567" y="376.141"/><use xlink:href="#an" x="304.05" y="376.141"/><use xlink:href="#aj" x="309.131" y="376.141"/><use xlink:href="#ao" x="318.635" y="376.141"/><use xlink:href="#ap" x="327.888" y="376.141"/><use xlink:href="#aq" x="333.746" y="376.141"/><use xlink:href="#aj" x="336.831" y="376.141"/><use xlink:href="#ar" x="242.673" y="397.784"/><use xlink:href="#aj" x="249.798" y="397.784"/><use xlink:href="#as" x="255.405" y="397.784"/><use xlink:href="#aj" x="261.406" y="397.784"/><use xlink:href="#ao" x="270.911" y="397.784"/><use xlink:href="#ag" x="280.164" y="397.784"/><use xlink:href="#at" x="285.364" y="397.784"/><use xlink:href="#ap" x="291.222" y="397.784"/><use xlink:href="#au" x="300.978" y="387.699" fill="red"/><use xlink:href="#ao" x="300.978" y="397.784"/><use xlink:href="#ap" x="310.231" y="397.784"/><use xlink:href="#av" x="316.412" y="397.784"/><use xlink:href="#aw" x="321.612" y="397.784"/><use xlink:href="#ax" x="242.673" y="419.428"/><use xlink:href="#aj" x="250.205" y="419.428"/><use xlink:href="#ak" x="255.812" y="419.428"/><use xlink:href="#al" x="261.813" y="419.428"/><use xlink:href="#aq" x="267.814" y="419.428"/><use xlink:href="#ag" x="270.899" y="419.428"/><use xlink:href="#am" x="279.997" y="419.428"/><use xlink:href="#af" x="284.48" y="419.428"/><use xlink:href="#ay" x="287.229" y="419.428"/><use xlink:href="#ao" x="296.327" y="419.428"/><use xlink:href="#ag" x="305.58" y="419.428"/><use xlink:href="#am" x="314.678" y="419.428"/><use xlink:href="#ag" x="319.161" y="419.428"/><use xlink:href="#az" x="324.362" y="419.428"/><use xlink:href="#av" x="328.343" y="419.428"/><use xlink:href="#ag" x="333.543" y="419.428"/><use xlink:href="#ae" x="242.673" y="441.071"/><use xlink:href="#aA" x="254.532" y="441.071"/><use xlink:href="#ap" x="262.303" y="441.071"/><use xlink:href="#at" x="268.161" y="441.071"/><use xlink:href="#al" x="274.019" y="441.071"/><use xlink:href="#aB" x="280.02" y="441.071"/><use xlink:href="#aC" x="287.17" y="441.071"/><use xlink:href="#ai" x="294.319" y="441.071"/><use xlink:href="#aj" x="300.32" y="441.071"/><use xlink:href="#ae" x="305.604" y="441.071"/><use xlink:href="#av" x="313.243" y="441.071"/><use xlink:href="#aD" x="318.444" y="441.071"/><use xlink:href="#ac" x="327.698" y="430.986" fill="red"/><use xlink:href="#ao" x="327.698" y="441.071"/><use xlink:href="#aD" x="336.951" y="441.071"/><use xlink:href="#ao" x="342.307" y="441.071"/><use xlink:href="#aw" x="351.56" y="441.071"/><use xlink:href="#ac" x="242.673" y="452.63" fill="red"/><use xlink:href="#ad" x="242.673" y="462.715"/><use xlink:href="#ae" x="250.647" y="462.715"/><use xlink:href="#af" x="258.609" y="462.715"/><use xlink:href="#ag" x="261.359" y="462.715"/><use xlink:href="#ah" x="266.559" y="462.715"/><use xlink:href="#ai" x="269.309" y="462.715"/><use xlink:href="#af" x="275.31" y="462.715"/><use xlink:href="#aj" x="278.06" y="462.715"/><use xlink:href="#ak" x="287.564" y="462.715"/><use xlink:href="#al" x="293.565" y="462.715"/><use xlink:href="#am" x="299.567" y="462.715"/><use xlink:href="#an" x="304.05" y="462.715"/><use xlink:href="#aj" x="309.131" y="462.715"/><use xlink:href="#ao" x="318.635" y="462.715"/><use xlink:href="#ap" x="327.888" y="462.715"/><use xlink:href="#aq" x="333.746" y="462.715"/><use xlink:href="#aj" x="336.831" y="462.715"/><use xlink:href="#ar" x="242.673" y="484.359"/><use xlink:href="#aj" x="249.798" y="484.359"/><use xlink:href="#as" x="255.405" y="484.359"/><use xlink:href="#aj" x="261.406" y="484.359"/><use xlink:href="#ao" x="270.911" y="484.359"/><use xlink:href="#ag" x="280.164" y="484.359"/><use xlink:href="#at" x="285.364" y="484.359"/><use xlink:href="#ap" x="291.222" y="484.359"/><use xlink:href="#au" x="300.978" y="474.273" fill="red"/><use xlink:href="#ao" x="300.978" y="484.359"/><use xlink:href="#ap" x="310.231" y="484.359"/><use xlink:href="#av" x="316.412" y="484.359"/><use xlink:href="#aw" x="321.612" y="484.359"/><use xlink:href="#ax" x="242.673" y="506.002"/><use xlink:href="#aj" x="250.205" y="506.002"/><use xlink:href="#ak" x="255.812" y="506.002"/><use xlink:href="#al" x="261.813" y="506.002"/><use xlink:href="#aq" x="267.814" y="506.002"/><use xlink:href="#ag" x="270.899" y="506.002"/><use xlink:href="#am" x="279.997" y="506.002"/><use xlink:href="#af" x="284.48" y="506.002"/><use xlink:href="#ay" x="287.229" y="506.002"/><use xlink:href="#ao" x="296.327" y="506.002"/><use xlink:href="#ag" x="305.58" y="506.002"/><use xlink:href="#am" x="314.678" y="506.002"/><use xlink:href="#ag" x="319.161" y="506.002"/><use xlink:href="#az" x="324.362" y="506.002"/><use xlink:href="#av" x="328.343" y="506.002"/><use xlink:href="#ag" x="333.543" y="506.002"/><use xlink:href="#ae" x="242.673" y="527.646"/><use xlink:href="#aA" x="254.532" y="527.646"/><use xlink:href="#ap" x="262.303" y="527.646"/><use xlink:href="#at" x="268.161" y="527.646"/><use xlink:href="#al" x="274.019" y="527.646"/><use xlink:href="#aB" x="280.02" y="527.646"/><use xlink:href="#aC" x="287.17" y="527.646"/><use xlink:href="#ai" x="294.319" y="527.646"/><use xlink:href="#aj" x="300.32" y="527.646"/><use xlink:href="#ae" x="305.604" y="527.646"/><use xlink:href="#av" x="313.243" y="527.646"/><use xlink:href="#aD" x="318.444" y="527.646"/><use xlink:href="#ac" x="327.698" y="517.561" fill="red"/><use xlink:href="#ao" x="327.698" y="527.646"/><use xlink:href="#aD" x="336.951" y="527.646"/><g fill="red"><use xlink:href="#aE" x="342.307" y="517.561"/><use xlink:href="#aF" x="346.957" y="517.561"/></g><use xlink:href="#au" x="359.187" y="517.561" fill="red"/><g fill="red"><use xlink:href="#aF" x="368.512" y="517.561"/><use xlink:href="#aG" x="378.758" y="517.561"/></g><use xlink:href="#ao" x="342.307" y="527.646"/><use xlink:href="#aw" x="351.56" y="527.646"/><g clip-path="url(#aZ)"><path fill="url(#ba)" d="M15.023 579.684v-11.336h388.063v11.336Zm0 0"/></g><use xlink:href="#bb" x="380.91" y="577.985"/><use xlink:href="#bc" x="387.641" y="577.985"/><use xlink:href="#bd" x="394.371" y="577.985"/><path fill="#f2f2f2" stroke="#000" stroke-miterlimit="10" stroke-width=".797" d="M196.602 576.055v-3.989a2.99 2.99 0 0 1 2.988-2.988h18.93a2.99 2.99 0 0 1 2.988 2.988v3.989a2.99 2.99 0 0 1-2.988 2.988h-18.93a2.99 2.99 0 0 1-2.988-2.988Zm0 0"/><use xlink:href="#be" x="198.439" y="576.948"/><use xlink:href="#bf" x="203.747" y="576.948"/><use xlink:href="#bf" x="209.055" y="576.948"/><use xlink:href="#bg" x="214.363" y="576.948"/><use xlink:href="#bh" x="17.008" y="577.985"/><use xlink:href="#bi" x="20.976" y="577.985"/><use xlink:href="#bj" x="27.629" y="577.985"/><use xlink:href="#bi" x="29.882" y="577.985"/><use xlink:href="#bk" x="33.85" y="577.985"/><use xlink:href="#bl" x="37.818" y="577.985"/><use xlink:href="#bm" x="42.756" y="577.985"/><use xlink:href="#bn" x="53.384" y="577.985"/><use xlink:href="#bo" x="57.353" y="577.985"/><use xlink:href="#bp" x="64.006" y="577.985"/><use xlink:href="#bn" x="69.571" y="577.985"/><use xlink:href="#bq" x="73.539" y="577.985"/><use xlink:href="#bn" x="77.508" y="577.985"/><use xlink:href="#br" x="81.476" y="577.985"/><use xlink:href="#bm" x="88.129" y="577.985"/><use xlink:href="#bs" x="98.757" y="577.985"/><use xlink:href="#bt" x="104.42" y="577.985"/><use xlink:href="#bu" x="108.821" y="577.985"/><use xlink:href="#bv" x="114.295" y="577.985"/><use xlink:href="#bw" x="117.838" y="577.985"/><use xlink:href="#bx" x="122.023" y="577.985"/><use xlink:href="#bn" x="127.818" y="577.985"/><use xlink:href="#bq" x="131.786" y="577.985"/><use xlink:href="#bn" x="135.754" y="577.985"/><use xlink:href="#by" x="139.723" y="577.985"/></svg>