<svg xmlns="http://www.w3.org/2000/svg" xmlns:xlink="http://www.w3.org/1999/xlink" width="559.371" height="793.701" viewBox="0 0 419.528 595.276"><defs><path id="d" d="M3.344 2.297v-.078L1.5-2.5l1.844-4.703v-.078c0-.11-.078-.203-.188-.203a.24.24 0 0 0-.203.14L1.11-2.562c-.015.015-.015.046-.015.062 0 .031 0 .063.015.078L2.953 2.36a.24.24 0 0 0 .203.141c.11 0 .188-.094.188-.203m0 0"/><path id="e" d="M8.14-3.906c.188-.75.25-1.531-.156-2.063-.265-.343-.671-.547-1.109-.687-.562-.188-1.187-.203-1.844-.203l.063-.235-.063-.047-.687.313c-.719.047-1.578.266-2.297.844-.36.28-.656.687-.75 1.093-.047.204-.063.391-.016.5a.26.26 0 0 0 .235.141c.109 0 .234-.062.312-.14a.56.56 0 0 0 .203-.329c.047-.218.016-.39.078-.61a1.24 1.24 0 0 1 .391-.609 2.8 2.8 0 0 1 1.781-.609l-.765 3.094c-.125.484-.25.984-.47 1.453-.124.297-.312.594-.546.797-.516.422-1.11.672-1.687.672l-.407.484h2.89c1.048 0 2.11-.39 3.017-1.125.921-.719 1.578-1.703 1.828-2.734m-.734.047a6 6 0 0 1-.593 1.53c-.22.392-.5.767-.875 1.063-.329.266-.704.485-1.079.594-.484.14-.968.14-1.437.14H2.219L2.203-.64 2.641-1c.437-.36.78-.828 1.03-1.297a8.3 8.3 0 0 0 .704-1.906l.578-2.344c.5 0 .953.047 1.39.188.329.093.626.25.829.5.39.53.422 1.28.234 2m0 0"/><path id="f" d="M2.781-2.5c0-.016 0-.047-.015-.062L.922-7.344c-.031-.078-.11-.14-.188-.14a.207.207 0 0 0-.203.203v.078L2.375-2.5.531 2.219v.078c0 .11.094.203.203.203.079 0 .157-.062.188-.14l1.844-4.782c.015-.015.015-.047.015-.078m0 0"/><path id="g" d="M6.047-.156c0-.094-.11-.11-.14-.11-.25 0-.376-.03-.5-.312L4.218-3.297 5.766-4.5c.218-.172.812-.625 1.312-.672.063-.016.156-.031.156-.156 0-.047-.03-.11-.109-.11 0 0-.234.016-.281.016h-.328c-.266 0-.563-.016-.813-.016-.047 0-.172 0-.172.141 0 .11.14.125.14.125.11 0 .173.047.173.11 0 .125-.14.25-.172.28l-.047.048c-.016.015-.031.015-.094.078L2.563-2.344l.609-2.5c.078-.265.125-.328.61-.328.171 0 .265 0 .265-.156 0-.047-.031-.11-.125-.11-.14 0-.313.016-.453.016h-.953l-.453-.016c-.047 0-.172 0-.172.141 0 .125.093.125.234.125.219 0 .438 0 .438.11 0 .046 0 .062-.032.171L1.47-.609c-.078.28-.125.343-.61.343-.171 0-.265 0-.265.157C.594-.047.64 0 .719 0c.031 0 .39-.016.453-.031h.484c.672 0 .89.031.938.031s.156 0 .156-.156c0-.11-.094-.11-.234-.11-.25 0-.438 0-.438-.125 0-.046.047-.218.078-.328l.297-1.203 1.25-.969.985 2.25c.046.094.046.11.046.141 0 .203-.187.234-.343.234-.094 0-.188.016-.188.157 0 .062.047.109.11.109.28 0 .578-.031.843-.031.672 0 .64.031.735.031.03 0 .156 0 .156-.156m0 0"/><path id="h" d="M2.828-1.14c0-.11-.11-.11-.156-.11-.125 0-.125.031-.172.172-.14.516-.406.937-.734.937-.157 0-.188-.109-.188-.25 0-.187.063-.328.188-.656l.515-1.39c.063-.172.094-.25.094-.422 0-.438-.312-.657-.656-.657-.75 0-1.078 1.11-1.078 1.22 0 .108.093.108.14.108.14 0 .14-.03.172-.171.125-.407.375-.938.75-.938.14 0 .172.11.172.25 0 .188-.047.344-.156.61L1.156-.953a1.1 1.1 0 0 0-.078.375c0 .36.266.656.672.656.75 0 1.078-1.125 1.078-1.219m.125-3.704a.354.354 0 0 0-.36-.375.55.55 0 0 0-.53.532c0 .234.171.359.359.359.265 0 .531-.234.531-.516m0 0"/><path id="i" d="M4.14-1.14c0-.11-.109-.11-.14-.11-.14 0-.156.047-.187.172-.11.453-.266.937-.61.937-.14 0-.25-.078-.25-.375 0-.125.031-.265.063-.39.03-.125.03-.172.03-.25 0-.563-.546-.75-1.108-.86.296-.187.625-.53.671-.593.454-.5.766-.688 1.063-.688.11 0 .172.063.203.11-.156.03-.344.171-.344.39s.188.266.281.266c.204 0 .407-.14.407-.453 0-.266-.157-.532-.547-.532s-.75.266-1.188.735c-.484.515-.656.594-.796.672l.796-3.188c0-.031.016-.094.016-.125 0-.11-.125-.11-.219-.094l-.828.063c-.11.016-.187.016-.187.156 0 .125.093.125.203.125.375 0 .375.047.375.11a.7.7 0 0 1-.032.171L.657-.266c0 .032-.015.079-.015.11 0 .11.078.234.25.234.14 0 .265-.094.328-.297l.39-1.578c.313.031.891.172.891.656 0 .047 0 .079-.031.188a1 1 0 0 0-.031.25c0 .437.296.781.734.781.36 0 .562-.265.656-.406.188-.297.313-.766.313-.813m0 0"/><path id="j" d="M4.297-2.172c0-.828-.547-1.344-1.266-1.344C2-3.516.921-2.437.921-1.266c0 .875.595 1.344 1.267 1.344 1.062 0 2.109-1.094 2.109-2.25m-.594-.281c0 .265-.125 1.031-.437 1.578-.266.438-.688.734-1.078.734-.297 0-.672-.203-.672-.843 0-.36.172-1.11.422-1.547.343-.578.812-.766 1.078-.766.39 0 .687.297.687.844m0 0"/><path id="k" d="M8.39-.578v-7.14c0-.391-.078-.579-.578-.579H7.5c-.453 0-.578.156-.578.578v6.266h-.016l-3.281-6.36c-.25-.484-.61-.484-.86-.484H1.657c-.422 0-.562.14-.562.578v7.14c0 .438.125.579.562.579h.328c.454 0 .579-.156.579-.578v-6.266l3.296 6.36C6.11 0 6.47 0 6.703 0h1.11c.453 0 .578-.156.578-.578m0 0"/><path id="l" d="M2.313-.578v-4.328c0-.375-.079-.563-.563-.563h-.453c-.422 0-.563.125-.563.563v4.328c0 .437.125.578.563.578h.453c.453 0 .563-.156.563-.578m.093-6.672v-.219c0-.39-.094-.578-.578-.578h-.61c-.452 0-.577.156-.577.578v.219c0 .36.062.578.578.578h.61c.5 0 .577-.219.577-.578m0 0"/><path id="m" d="M5.719-3.11c0-1.546-.703-2.562-2.485-2.562-1.921 0-2.859 1.063-2.859 2.89 0 1.954 1.125 2.907 3 2.907.469 0 1.14-.047 1.938-.453.25-.125.343-.156.343-.313 0-.078-.031-.421-.047-.515-.046-.375-.062-.39-.171-.39-.047 0-.079 0-.204.124a2.7 2.7 0 0 1-1.796.688c-1.36 0-1.5-1.063-1.532-1.828h3.25c.266 0 .563 0 .563-.547m-1.313-.078h-2.5c.047-.734.282-1.624 1.328-1.624.954 0 1.125.687 1.172 1.625m0 0"/><path id="n" d="M5.469-.594c0-.14-.047-.687-.078-.843 0-.032-.032-.157-.141-.157-.047 0-.078 0-.187.125-.204.172-.766.672-1.75.672-1.25 0-1.25-1.219-1.25-1.969 0-.968.062-1.984 1.28-1.984.782 0 1.11.203 1.532.547.14.14.172.14.219.14.125 0 .14-.109.156-.156.016-.093.14-.765.14-.828 0-.11-.077-.156-.28-.25-.579-.266-.938-.375-1.782-.375-1.781 0-2.89.828-2.89 2.922C.438-.766 1.468.125 3.28.125c.313 0 1.031 0 1.828-.406.344-.188.36-.203.36-.313m0 0"/><path id="o" d="M5.969-.578v-3.313c0-1.218-.516-1.718-1.735-1.718-1.203 0-1.75.828-1.921 1.156V-7.72c0-.39-.094-.578-.579-.578h-.437c-.438 0-.578.14-.578.578v7.14c0 .438.125.579.578.579h.469c.453 0 .578-.156.578-.578v-2.64c0-1.032.687-1.532 1.312-1.532.578 0 .688.281.688.89v3.282c0 .39.093.578.578.578h.484c.453 0 .563-.156.563-.578m0 0"/><path id="p" d="M6.25-2.766c0-.562 0-2.843-2.25-2.843-.969 0-1.578.547-1.687.672V-7.72c0-.39-.079-.578-.563-.578h-.453c-.422 0-.563.14-.563.578v7.14C.734-.14.86 0 1.297 0h.484c.203 0 .563 0 .578-.469a1.74 1.74 0 0 0 1.344.594c2.547 0 2.547-2.281 2.547-2.89m-1.625.016c0 .89 0 2.016-1.344 2.016-.5 0-.797-.297-.922-.453v-3.141c.157-.14.516-.422 1.063-.422 1.203 0 1.203 1.11 1.203 2m0 0"/><path id="q" d="M4.39-6.469a.45.45 0 0 0-.64-.062l-.766.61V-7.72c0-.39-.078-.578-.562-.578h-.453c-.422 0-.563.14-.563.578v3.063l-1.078.843a.46.46 0 0 0-.062.626c.156.187.422.234.625.062l.515-.406v2.953c0 .437.125.578.563.578h.453c.453 0 .562-.156.562-.578v-4.219l1.329-1.062a.444.444 0 0 0 .078-.61m0 0"/><path id="r" d="M6.188-2.687c0-1.97-.954-2.985-2.907-2.985-1.984 0-2.906 1.063-2.906 2.984C.375-.733 1.406.126 3.281.126s2.907-.86 2.907-2.812m-1.625-.141c0 .937 0 2.031-1.282 2.031C2-.797 2-1.875 2-2.828c0-.922 0-1.985 1.281-1.985s1.281 1.047 1.281 1.985m0 0"/><path id="s" d="M6.39-4.844c0-.047-.062-.328-.093-.453-.047-.281-.047-.312-.266-.312-.36 0-.968.14-1.422.422-.562-.375-1.171-.422-1.687-.422-.5 0-2.406 0-2.406 1.968 0 .485.125 1.079.578 1.485C.78-1.72.78-1.25.78-1.187c0 .218.063.609.313.937C.922-.172.297.031.297.797c0 .375.187 1 .937 1.344.672.312 1.485.328 2.047.328.703 0 2.985 0 2.985-1.703 0-1.86-1.688-1.86-3.297-1.86H2.39c-.438 0-.594 0-.766-.156-.047-.047-.25-.219-.25-.531 0-.078.016-.11.031-.172.547.297 1.266.297 1.516.297.5 0 2.39 0 2.39-1.969 0-.687-.25-1.11-.359-1.234.203 0 .61 0 1.11.125a.36.36 0 0 0 .171.046c.094 0 .157-.062.157-.156M3.798-3.64c0 .672-.047 1.125-.875 1.125-.844 0-.875-.453-.875-1.109s.031-1.125.875-1.125c.828 0 .875.453.875 1.11M5.03.797c0 .812-1.36.812-1.75.812-.469 0-1.75 0-1.75-.843 0-.563.375-.563.64-.563h1.392c.968 0 1.468.172 1.468.594m0 0"/><path id="t" d="M4.734-1.687c0-.672-.359-1.079-.578-1.282-.468-.422-.89-.5-1.39-.594-.657-.124-1.141-.218-1.141-.687 0-.484.39-.578.86-.578.796 0 1.234.297 1.546.562.11.125.14.125.188.125.125 0 .14-.109.156-.156.031-.11.14-.766.14-.828 0-.187-.624-.36-.765-.406-.469-.14-.86-.14-1.172-.14-.531 0-2.14 0-2.14 1.702 0 .594.265.938.593 1.235.422.375.875.468 1.563.593.344.063.953.172.953.688 0 .562-.469.656-.922.656a2.21 2.21 0 0 1-1.766-.828c-.062-.062-.093-.094-.171-.094-.11 0-.141.11-.157.172-.015.172-.156.86-.156.969 0 .219.89.5.89.5a4.4 4.4 0 0 0 1.36.203c.61 0 2.11-.047 2.11-1.812m0 0"/><path id="u" d="M5.672-.578v-3.203c0-1.89-1.828-1.89-2.422-1.89-.562 0-1.156.046-1.953.374-.25.11-.313.14-.313.281 0 .079.063.766.079.875a.17.17 0 0 0 .156.125c.062 0 .093-.03.125-.078.515-.531 1.125-.797 1.86-.797.64 0 .843.391.843 1.094v.422c-.422 0-3.563.031-3.563 1.781C.484-.75 1.156.125 2.22.125c.406 0 1.297-.11 1.86-.937v.234c0 .39.077.578.577.578h.438c.453 0 .578-.156.578-.578M4.047-1.844c0 1.11-1.14 1.11-1.172 1.11-.516 0-.828-.422-.828-.875 0-1.172 1.656-1.266 2-1.266Zm0 0"/><path id="v" d="M8.594-5.14c-.031-.329-.25-.329-.625-.329-.563 0-.703.032-.875.657l-.969 3.468-1.016-3.593c-.062-.266-.156-.532-.703-.532-.172 0-.453 0-.61.266-.108.187-.64 2.25-1.062 3.656l-.953-3.39c-.125-.407-.25-.532-.734-.532h-.25c-.219 0-.469 0-.516.328L1.547-.547C1.703 0 2.016 0 2.313 0h.343c.563 0 .656-.172.781-.656.282-1 .704-2.5.766-3.125v-.016c.078.688.61 2.578.75 3.14.14.423.203.657.797.657h.813c.515 0 .64-.14.75-.547Zm0 0"/><path id="w" d="M5.969-.578v-3.313c0-1.218-.516-1.718-1.735-1.718-1.265 0-1.796.906-1.953 1.234h-.015v-.594c0-.39-.079-.578-.563-.578h-.406c-.438 0-.578.125-.578.578v4.39c0 .438.125.579.578.579h.469c.453 0 .578-.156.578-.578v-2.64c0-1.032.687-1.532 1.312-1.532.578 0 .688.281.688.89v3.282c0 .39.093.578.578.578h.484c.453 0 .563-.156.563-.578m0 0"/><path id="x" d="M5.656-5.156c0-.313-.328-.313-.484-.313h-.266c-.187 0-.453 0-.625.266-.031.062-1 2.703-1.062 3.5h-.016c-.062-.578-.547-1.688-1.062-2.844-.328-.75-.422-.922-1.016-.922H.813c-.172 0-.47 0-.47.313 0 .047.032.125.063.187L2.672 0c-.11.25-.14.375-.172.5-.14.39-.344.938-1 .938-.39 0-.656-.172-.797-.25C.641 1.14.625 1.14.578 1.14s-.14.03-.14.172c0 .093.062.921.093.968.11.14.766.172.953.172 1.485 0 2.063-1.406 2.157-1.703l1.953-5.656c.062-.157.062-.188.062-.25m0 0"/><path id="y" d="M5.719-3.11c0-1.546-.703-2.562-2.485-2.562-1.921 0-2.859 1.063-2.859 2.89C.375-.905 1.406.048 3.125.126c-.297.39-.453.766-.453 1.219 0 .672.422 1.203 1.281 1.203.453 0 .969-.172 1.39-.39.063-.032.11-.141.11-.22l-.14-.437c0-.078-.157-.156-.235-.14-.266.062-.516.14-.766.14s-.468-.11-.468-.469c.015-.39.203-.797.594-1.031a4 4 0 0 0 .875-.328c.25-.125.343-.156.343-.313 0-.078-.031-.421-.047-.515-.046-.375-.062-.39-.171-.39-.047 0-.079 0-.204.124a2.7 2.7 0 0 1-1.796.688c-1.36 0-1.5-1.063-1.532-1.828h3.25c.266 0 .563 0 .563-.547m-1.313-.078h-2.5c.047-.734.282-1.624 1.328-1.624.954 0 1.125.687 1.172 1.625m0 0"/><path id="z" d="M5.969-.578v-7.14c0-.391-.094-.579-.578-.579h-.438c-.453 0-.578.156-.578.578v2.703a2.18 2.18 0 0 0-1.5-.593C.438-5.61.438-3.312.438-2.72c0 .547 0 2.844 2.375 2.844.5 0 1.015-.14 1.53-.687 0 .437.157.562.563.562h.485c.453 0 .578-.156.578-.578M4.344-1.5c0 .203 0 .313-.344.563a1.35 1.35 0 0 1-.719.203c-1.219 0-1.219-1.094-1.219-1.985 0-.906 0-2.031 1.344-2.031.344 0 .672.125.938.375Zm0 0"/><path id="A" d="M5.266-.437c0-.454-.36-.454-.72-.454L2.72-.875h-.547l2.922-3.687c.125-.157.14-.22.14-.407 0-.5-.375-.5-.578-.5H1.125c-.156 0-.578 0-.578.453 0 .438.39.438.703.438l1.734-.031h.454L.515-.906C.39-.75.375-.687.375-.5c0 .5.36.5.563.5h3.765c.156 0 .563 0 .563-.437m0 0"/><path id="B" d="M8.016-2.312c0-1.688-1.657-1.954-2.094-2.032 1.094-.25 1.734-.875 1.734-1.797 0-2.156-2.547-2.156-3.047-2.156H1.656c-.422 0-.562.14-.562.578v7.14c0 .438.125.579.562.579h3.282c.89 0 3.078-.156 3.078-2.312M6.03-6.11c0 1.359-1.578 1.359-1.875 1.359h-1.39v-2.516h1.406c.469 0 1.86.032 1.86 1.157m.328 3.765C6.36-1.109 5.08-1.03 4.5-1.03H2.766v-2.86H4.28c.422 0 2.078 0 2.078 1.547m0 0"/><path id="C" d="M6.188-2.687c0-1.97-.954-2.985-2.907-2.985-1.984 0-2.906 1.063-2.906 2.984C.375-.733 1.406.126 3.281.126s2.907-.86 2.907-2.812m-1.625-.141c0 .937 0 2.031-1.282 2.031C2-.797 2-1.875 2-2.828c0-.922 0-1.985 1.281-1.985s1.281 1.047 1.281 1.985m.593-5.313c0-.156-.14-.156-.328-.156h-.984c-.235 0-.25.016-.36.14L2.47-6.75c-.11.125-.11.172-.11.172 0 .156.125.156.313.156h.453l1.89-1.531c.063-.063.141-.11.141-.188m0 0"/><path id="D" d="M2.594 2.234c-.375-.5-1.25-1.64-.64-4.484.609-2.828 1.952-3.969 2.546-4.484h-.594c-1.25.89-2.265 2.422-2.703 4.484-.453 2.14-.031 3.625.813 4.484Zm0 0"/><path id="E" d="m5.14 0 .141-.687h-.89l-2.532.03.485-2.28h3.031l.125-.579H2.453l.438-2.078h.343l2.188.032h.781l.125-.641H2.172L.859 0Zm0 0"/><path id="F" d="m4.375-5.594.14-.625c-.109-.031-.374-.11-.718-.11-.86 0-1.672.657-1.86 1.563l-.171.782h-.672l-.11.562h.672L.922 0h.719l.734-3.422h.984l.125-.562h-1.03l.233-1.032c.126-.656.735-.718.985-.718.078 0 .375 0 .703.14m0 0"/><path id="G" d="m3.922 0 .11-.562H2.89l1.172-5.5h-.188c-.734.578-1.594.578-1.906.578l-.11.562c.25 0 .704 0 1.25-.203L2.125-.562H.985L.858 0Zm0 0"/><path id="H" d="m1.656-.016.172-.75h-.781L.89 0h.234L.641 1.14h.375Zm0 0"/><path id="I" d="M4.563-1.625c.14-.703-.25-1.297-.938-1.547.703-.312 1.203-.906 1.328-1.515.172-.782-.453-1.375-1.39-1.375-.75 0-1.47.39-1.97.953l.25.515C2.407-5.375 3.11-5.5 3.439-5.5c.468 0 .859.25.734.813A1.56 1.56 0 0 1 2.766-3.5c-.188.016-.328.031-.5.031l-.125.594h.672c.874 0 1 .703.89 1.25-.156.703-.687 1.234-1.375 1.234C1.594-.39 1-.797.766-1.28c-.141.36-.157.39-.235.578.328.531.938.906 1.688.906 1.14 0 2.14-.89 2.344-1.828m0 0"/><path id="J" d="m5.063-2.172.125-.578H.577l-.125.578Zm0 0"/><path id="K" d="M3.328-2.25c.453-2.125.031-3.625-.812-4.484h-.578c.39.5 1.25 1.656.64 4.484C1.984.594.625 1.734.031 2.234h.594c1.234-.89 2.266-2.421 2.703-4.484m0 0"/><path id="L" d="M-1.453-5.516c-.656 0-1.281.61-1.39 1.61-.188-.86-.704-1.375-1.25-1.375-.72 0-1.344.797-1.344 1.875v3.031h.265v-.187c0-.61.078-.625.375-.625H-.64c.297 0 .375.015.375.625v.187H0v-3.266c0-1.093-.703-1.875-1.453-1.875M-4.093-4.5c.546 0 1.156.469 1.156 1.39v1.25H-4.86c-.266 0-.313-.015-.313-.39v-1.11c0-.78.61-1.14 1.078-1.14m2.624-.203c.64 0 1.203.531 1.203 1.344v1.109c0 .375-.046.39-.328.39h-2.125v-1.624c0-.766.625-1.22 1.25-1.22m0 0"/><path id="M" d="M-.953-3.516a.12.12 0 0 0-.11.125c0 .094.047.11.094.125.782.282.797.97.797 1.11 0 .36-.156.734-.531.969-.36.234-.875.234-1.11.234v-2.344c0-.172 0-.219-.187-.219-.703 0-1.547.391-1.547 1.516 0 .984.813 1.766 1.797 1.766 1.031 0 1.828-.86 1.828-1.875 0-1-.844-1.407-1.031-1.407m-1.078.547v2.016c-1.11-.078-1.297-.75-1.297-1.047 0-.937 1.125-.969 1.297-.969m0 0"/><path id="N" d="M0-4.484h-.266c0 .515 0 .609-.359.609h-1.797c-.656 0-1.094.313-1.094 1.14 0 .797.579 1.157.766 1.25h-.766l.094 1.157h.266c0-.547.047-.61.437-.61h2.094c.36 0 .36.094.36.61H0c-.031-.344-.031-.688-.031-.906 0-.235 0-.563.031-.907h-.266c0 .5 0 .61-.359.61h-1.437c-.844 0-1.235-.64-1.235-1.125s.344-.61.844-.61h1.828c.36 0 .36.094.36.61H0C-.031-3-.031-3.36-.031-3.562c0-.235 0-.579.031-.922m0 0"/><path id="O" d="M0-4.422h-.266c0 .547-.046.61-.437.61h-4.828l.093 1.187h.266c0-.531.047-.61.438-.61h1.687a1.4 1.4 0 0 0-.469 1.079c0 1 .782 1.875 1.797 1.875.985 0 1.797-.797 1.797-1.797 0-.469-.219-.86-.5-1.125h.5Zm-.984 1.219c.14 0 .172 0 .328.125.328.219.515.578.515.953s-.187.688-.484.875c-.312.219-.703.266-1.078.266-.469 0-.797-.079-1.063-.266a1.15 1.15 0 0 1-.53-.953c0-.375.202-.766.608-1Zm0 0"/><path id="P" d="M-1-2.812h-.437v.25h.421c.547 0 .844.25.844.546 0 .532-.687.532-.812.532h-2.188v-1.188h-.265v1.188h-1.47v.25c.735 0 1.485.328 1.516 1.078h.22v-.719H-1c.938 0 1.078-.719 1.078-1.078 0-.547-.469-.86-1.078-.86m0 0"/><path id="Q" d="M-1.703-3.984c-.984 0-1.844.828-1.844 1.875s.86 1.875 1.844 1.875c1 0 1.781-.86 1.781-1.875 0-1.032-.781-1.875-1.781-1.875m-.063.703c.36 0 .797.015 1.141.25.313.203.453.562.453.922 0 .422-.203.765-.484.937-.328.203-.719.219-1.11.219-.312 0-.78 0-1.125-.235a1.14 1.14 0 0 1-.437-.921c0-.422.203-.766.469-.938.343-.219.765-.234 1.093-.234m0 0"/><path id="R" d="M-1.031-3.047c-.375 0-.938.219-1.11 1.172-.015.063-.093.516-.093.547-.063.25-.235.625-.547.625-.235 0-.578-.188-.578-.938 0-.89.656-.937.875-.953.062 0 .093-.062.093-.11 0-.14-.062-.14-.203-.14h-.75c-.125 0-.203 0-.203.11 0 .046 0 .062.125.187 0 .016.078.094.078.11 0 0 0 .03-.031.078-.094.125-.172.359-.172.718 0 1.11.594 1.36.985 1.36.39 0 .624-.297.656-.313.234-.328.265-.5.36-1.047.077-.375.187-.984.718-.984.312 0 .687.203.687.938 0 .812-.625 1.046-1.046 1.14-.11.031-.141.047-.141.14 0 .126.062.126.219.126h.984c.125 0 .203 0 .203-.094 0-.062 0-.062-.156-.203-.047-.047-.14-.125-.188-.172.329-.36.344-.734.344-.937 0-1.016-.578-1.36-1.11-1.36m0 0"/><path id="S" d="M0-2.078h-.266c0 .531-.03.562-.343.562h-2.907l.094 1.157h.266c0-.516.047-.578.437-.578h2.094c.36 0 .36.093.36.609H0c-.031-.313-.031-.766-.031-.89 0-.095 0-.579.031-.86m-4.797.453a.453.453 0 0 0-.453.453.45.45 0 0 0 .453.438.437.437 0 0 0 .438-.438.45.45 0 0 0-.438-.453m0 0"/><path id="T" d="M-.719-4.094h-.437v.25h.437c.328 0 .453.11.453.281 0 .297-.359.297-.453.297h-1.656c-.781 0-1.172.75-1.172 1.485 0 .656.25 1.25.781 1.25a.36.36 0 0 0 .375-.375.36.36 0 0 0-.375-.375.356.356 0 0 0-.359.297c-.203-.297-.203-.735-.203-.782 0-.453.312-.89.969-.89h.234c.031.453.047.984.281 1.547.313.703.766.843 1.032.843.687 0 .89-.812.89-1.359a1.23 1.23 0 0 0-.64-1.11c.296-.046.609-.25.609-.609 0-.078-.031-.75-.766-.75m-.406 1.438c.781 0 .984.64.984.969 0 .406-.28.765-.671.765-.516 0-1.063-.5-1.094-1.734Zm0 0"/><path id="U" d="M0-2.734h-.266v.187c0 .64-.078.656-.375.656h-4.156c-.297 0-.375-.015-.375-.656v-.187h-.266l.016 1.218-.016 1.204h.266V-.5c0-.625.078-.656.375-.656H-.64c.297 0 .375.031.375.656v.188H0l-.031-1.204Zm0 0"/><path id="V" d="M-1.719-4.422c-1 0-1.797.813-1.797 1.781 0 .313.079.766.5 1.172h-.5l.094 1.188h.266c0-.563.047-.61.375-.61H.922c.36 0 .36.11.36.61h.265c-.031-.344-.031-.688-.031-.906 0-.235 0-.563.03-.907h-.265c0 .516 0 .61-.36.61H-.39a1.37 1.37 0 0 0 .47-1.047c0-1-.782-1.89-1.798-1.89m0 .719c.907 0 1.578.578 1.578 1.219 0 .28-.125.64-.515.906-.14.094-.156.094-.297.094h-1.703a1.3 1.3 0 0 1-.61-1.094c0-.61.672-1.125 1.547-1.125m0 0"/><path id="W" d="M-.437-1.625a.453.453 0 0 0-.454.453c0 .266.22.438.438.438A.44.44 0 0 0 0-1.172a.45.45 0 0 0-.437-.453m0 0"/><path id="X" d="M-1.422-3.797v.25c.156.016.547.078.703.172.063.047.063.656.063.781v1.422l-.969-1.078a9 9 0 0 1-.5-.594c-.453-.484-.89-.953-1.61-.953-.953 0-1.562.797-1.562 1.781 0 .97.719 1.594 1.438 1.594.39 0 .437-.312.437-.422 0-.172-.11-.422-.422-.422-.406 0-.406.407-.406.5-.594-.234-.781-.765-.781-1.156 0-.734.625-1.125 1.297-1.125.828 0 1.437.578 2.39 1.531l1.047 1c.078.094.094.094.297.094v-3.14Zm0 0"/><path id="Y" d="M1.453 5.516c.656 0 1.281-.61 1.39-1.61.188.86.704 1.375 1.25 1.375.72 0 1.345-.797 1.345-1.875V.375h-.266v.188c0 .609-.078.625-.375.625H.64c-.297 0-.375-.016-.375-.625V.375H0v3.266c0 1.093.703 1.875 1.453 1.875M4.093 4.5c-.546 0-1.155-.469-1.155-1.39V1.86h1.921c.266 0 .313.015.313.39v1.11c0 .78-.61 1.14-1.078 1.14m-2.624.203c-.64 0-1.203-.531-1.203-1.344V2.25c0-.375.046-.39.328-.39h2.125v1.624c0 .766-.625 1.22-1.25 1.22m0 0"/><path id="Z" d="M.953 3.516a.12.12 0 0 0 .11-.125c0-.094-.047-.11-.094-.125a1.14 1.14 0 0 1-.797-1.11c0-.36.156-.734.531-.969.36-.234.875-.234 1.11-.234v2.344c0 .172 0 .219.187.219.703 0 1.547-.391 1.547-1.516 0-.984-.813-1.766-1.797-1.766-1.031 0-1.828.86-1.828 1.875 0 1 .844 1.407 1.031 1.407m1.078-.547V.953c1.11.078 1.297.75 1.297 1.047 0 .938-1.125.969-1.297.969m0 0"/><path id="aa" d="M0 4.484h.266c0-.515 0-.609.359-.609h1.797c.656 0 1.094-.312 1.094-1.14a1.38 1.38 0 0 0-.766-1.25h.766L3.422.327h-.266c0 .547-.047.61-.437.61H.625c-.36 0-.36-.094-.36-.61H0c.031.344.031.688.031.906 0 .235 0 .563-.031.907h.266c0-.5 0-.61.359-.61h1.438c.843 0 1.234.64 1.234 1.125s-.344.61-.844.61H.625c-.36 0-.36-.094-.36-.61H0c.031.344.031.703.031.906 0 .235 0 .579-.031.922m0 0"/><path id="ab" d="M0 4.422h.266c0-.547.046-.61.437-.61h4.828l-.093-1.187h-.266c0 .531-.047.61-.438.61H3.047c.312-.282.469-.657.469-1.079 0-1-.782-1.875-1.797-1.875-.985 0-1.797.797-1.797 1.797 0 .469.219.86.5 1.125h-.5Zm.984-1.219c-.14 0-.171 0-.328-.125a1.15 1.15 0 0 1-.515-.953c0-.375.187-.687.484-.875.313-.219.703-.266 1.078-.266.469 0 .797.079 1.063.266.297.188.53.547.53.953 0 .375-.202.766-.608 1Zm0 0"/><path id="ac" d="M0 2.078h.266c0-.531.03-.562.343-.562h2.907L3.422.359h-.266c0 .516-.047.579-.437.579H.625c-.36 0-.36-.094-.36-.61H0c.031.313.031.766.031.89 0 .095 0 .579-.031.86m4.797-.453a.453.453 0 0 0 .453-.453.45.45 0 0 0-.453-.438.437.437 0 0 0-.438.438c0 .25.204.453.438.453m0 0"/><path id="ad" d="M1 2.813h.438v-.25h-.422c-.547 0-.844-.25-.844-.547 0-.532.687-.532.812-.532h2.188v1.188h.265V1.484h1.47v-.25c-.735 0-1.485-.328-1.516-1.078h-.22v.719H1c-.937 0-1.078.719-1.078 1.078 0 .547.469.86 1.078.86m0 0"/><path id="ae" d="M1.703 3.984c.984 0 1.844-.828 1.844-1.875 0-1.046-.86-1.875-1.844-1.875-1 0-1.781.86-1.781 1.875 0 1.032.781 1.875 1.781 1.875m.063-.703c-.36 0-.797-.015-1.141-.25C.313 2.828.172 2.47.172 2.11c0-.421.203-.765.484-.937.328-.203.719-.219 1.11-.219.312 0 .78 0 1.125.235.28.218.437.546.437.921 0 .422-.203.766-.469.938-.343.219-.765.234-1.093.234m0 0"/><path id="af" d="M1.031 3.047c.375 0 .938-.219 1.11-1.172.015-.062.093-.516.093-.547.063-.25.235-.625.547-.625.235 0 .578.188.578.938 0 .89-.656.937-.875.953-.062 0-.093.062-.093.11 0 .14.062.14.203.14h.75c.125 0 .203 0 .203-.11 0-.046 0-.062-.125-.187 0-.016-.078-.094-.078-.11 0 0 0-.03.031-.078.094-.125.172-.359.172-.718 0-1.11-.594-1.36-.985-1.36-.39 0-.624.297-.656.313-.234.328-.265.5-.36 1.047-.077.375-.187.984-.718.984-.312 0-.687-.203-.687-.937C.14.875.766.64 1.188.547c.109-.031.14-.047.14-.14C1.328.28 1.266.28 1.11.28H.125c-.125 0-.203 0-.203.094 0 .063 0 .063.156.203.047.047.14.125.188.172-.328.36-.344.734-.344.938 0 1.015.578 1.359 1.11 1.359m0 0"/><path id="ag" d="M.719 4.094h.437v-.25H.72c-.328 0-.453-.11-.453-.281 0-.297.359-.297.453-.297h1.656c.781 0 1.172-.75 1.172-1.485 0-.656-.25-1.25-.781-1.25a.36.36 0 0 0-.375.375c0 .219.156.375.375.375a.356.356 0 0 0 .359-.297c.203.297.203.735.203.782 0 .453-.312.89-.969.89h-.234c-.031-.453-.047-.984-.281-1.547C1.53.406 1.078.266.813.266c-.688 0-.891.812-.891 1.359 0 .578.328.938.64 1.11-.296.046-.609.25-.609.609 0 .078.031.75.766.75m.406-1.438c-.781 0-.984-.64-.984-.969 0-.406.28-.765.672-.765.515 0 1.062.5 1.093 1.734Zm0 0"/><path id="ah" d="M2.672 5.984c1.531 0 2.766-1.156 2.766-2.593V.359h-.266v.188c0 .61-.078.625-.375.625H.64c-.297 0-.375-.016-.375-.625V.359H0v3.032c0 1.437 1.188 2.593 2.672 2.593m0-.812c-.406 0-1.188 0-1.766-.5-.328-.266-.64-.781-.64-1.5v-.906c0-.375.046-.391.328-.391h4.265c.266 0 .313.016.313.39v.907c0 .625-.25 1.14-.64 1.5-.61.5-1.47.5-1.86.5m0 0"/><path id="ai" d="M1.719 4.422c1 0 1.797-.813 1.797-1.781 0-.313-.079-.766-.5-1.172h.5L3.422.28h-.266c0 .563-.047.61-.375.61H-.922c-.36 0-.36-.11-.36-.61h-.265c.031.344.031.688.031.907 0 .234 0 .562-.03.906h.265c0-.516 0-.61.36-.61H.39a1.37 1.37 0 0 0-.47 1.047c0 1 .782 1.89 1.798 1.89m0-.719C.812 3.703.14 3.125.14 2.484c0-.28.125-.64.515-.906.14-.094.156-.094.297-.094h1.703c.313.188.61.594.61 1.094 0 .61-.672 1.125-1.547 1.125m0 0"/><path id="aj" d="M.438 1.625a.453.453 0 0 0 .453-.453.436.436 0 0 0-.438-.438.44.44 0 0 0-.453.438.45.45 0 0 0 .438.453m0 0"/><path id="ak" d="M1.422 3.797v-.25c-.156-.016-.547-.078-.703-.172-.063-.047-.063-.656-.063-.781V1.172l.969 1.078c.125.125.39.453.5.594.453.484.89.953 1.61.953.953 0 1.562-.797 1.562-1.781 0-.97-.719-1.594-1.438-1.594-.39 0-.437.312-.437.422 0 .172.11.422.422.422.406 0 .406-.407.406-.5.594.234.781.765.781 1.156 0 .734-.625 1.125-1.297 1.125-.828 0-1.437-.578-2.39-1.531l-1.047-1C.219.422.203.422 0 .422v3.14Zm0 0"/><path id="al" d="M2.625 3.875c2.063 0 2.672-.922 2.672-1.734 0-.953-.734-1.797-1.781-1.797C2.5.344 1.75 1.125 1.75 2.03c0 .563.36.906.766 1.094h-.172c-1.938 0-2.266-.922-2.266-1.39 0-.173.016-.579.266-.798.031.36.297.375.375.375a.37.37 0 0 0 .375-.375.37.37 0 0 0-.39-.375c-.548 0-.876.454-.876 1.188 0 1.094 1.094 2.125 2.797 2.125m.734-.766c-.64 0-1.39-.343-1.39-1.046 0-.376.172-.61.468-.782.282-.187.672-.187 1.079-.187.468 0 .797 0 1.125.218.297.204.453.454.453.829 0 .53-.532.765-.563.797-.39.156-1.015.171-1.172.171m0 0"/><path id="am" d="M9.953 0v-.516h-.312c-.657 0-.703-.062-.813-.218L5.61-5.047l2.844-2.406c.156-.14.266-.234 1.328-.234v-.516L8.5-8.172c-.36 0-1.297 0-1.594-.031v.515c.266 0 .547.016.86.141l-4.47 3.813v-3.953h1.267v-.516c-.344.031-1.625.031-2.047.031-.438 0-1.72 0-2.063-.031v.515H1.72v7.172H.453V0c.344-.031 1.625-.031 2.063-.031.422 0 1.703 0 2.047.031v-.516H3.297v-2.562L4.53-4.125l2.5 3.344c.016.031.063.094.063.14 0 .125-.578.125-.844.125V0c.39-.031 1.5-.031 1.953-.031.36 0 1.485 0 1.75.031m0 0"/><path id="be" d="M13.61-7.687v-.516l-1.297.031c-.344 0-1.22 0-1.5-.031v.515c.14 0 1.187 0 1.187.172 0 0 0 .032-.047.141L9.938-2.047l-2.126-5.64h1.125v-.516c-.374.031-1.484.031-1.937.031-.375 0-1.531 0-1.828-.031v.515h1.016l.484 1.297-1.64 4.344-2.126-5.64h1.125v-.516c-.343.031-1.515.031-1.953.031-.375 0-1.515 0-1.812-.031v.515h1L4.109-.171c.079.203.11.281.375.281.266 0 .297-.078.375-.28l2.079-5.5 2.093 5.5c.063.202.094.28.36.28.234 0 .297-.046.375-.28L12.5-7.407c.094-.203.11-.282 1.11-.282m0 0"/><path id="bo" d="M5.766 0v-.516H4.14V-7.5c0-.344-.032-.344-.407-.344-.89.766-2.218.766-2.484.766h-.219v.516h.219c.422 0 1.063-.079 1.531-.235v6.281H1.125V0l2.313-.031Zm0 0"/><path id="bp" d="M6.328 0v-.516H5.172v-1.359h1.156v-.516H5.172v-5.125c0-.296-.016-.343-.313-.343-.203 0-.234 0-.375.172L.375-2.391v.516h3.39v1.36H2.47V0C2.813-.031 4-.031 4.422-.031c.406 0 1.594 0 1.906.031M3.875-2.39H.922l2.953-3.797Zm0 0"/><path id="bq" d="M6.14-2.469c0-1.672-1.156-2.547-2.577-2.547-.235 0-1 0-1.485 1.016v-.328c0-.734.031-1.469.375-2.11.266-.5.875-.968 1.64-.968.235 0 .657.031.954.328-.453.047-.64.39-.64.703 0 .438.312.703.702.703.313 0 .704-.203.704-.719 0-.718-.485-1.453-1.735-1.453-1.5 0-3.516.938-3.516 4.047 0 .813 0 3.938 2.829 3.938 1.578 0 2.75-.922 2.75-2.61m-1.515 0c0 1.172 0 2.14-1.25 2.14-.75 0-1.062-.655-1.11-.75-.156-.39-.156-1.343-.156-1.452 0-1.469.625-2.094 1.329-2.094 1.187 0 1.187.953 1.187 2.156m0 0"/><path id="an" d="M9.766-4.687c.234-.891.28-1.829-.188-2.454-.328-.421-.797-.671-1.328-.843-.687-.22-1.437-.235-2.219-.235l.078-.297-.078-.046-.812.374c-.875.063-1.89.313-2.766 1-.437.344-.781.829-.906 1.329-.047.234-.063.453 0 .593a.29.29 0 0 0 .266.172.56.56 0 0 0 .39-.172c.125-.093.188-.25.219-.39.078-.266.047-.469.11-.735A1.35 1.35 0 0 1 3-7.109a3.32 3.32 0 0 1 2.125-.735L4.203-4.14c-.14.579-.297 1.172-.562 1.75-.141.344-.36.704-.657.954-.609.5-1.328.796-2.015.796l-.485.594h3.47c1.25 0 2.53-.484 3.624-1.36 1.094-.859 1.875-2.046 2.188-3.28m-.891.062c-.156.625-.36 1.25-.703 1.828-.266.485-.61.938-1.047 1.281a3.5 3.5 0 0 1-1.297.704c-.578.171-1.156.171-1.719.171H2.656l-.015-.125.53-.437c.517-.438.923-1 1.235-1.563a9.8 9.8 0 0 0 .844-2.28l.688-2.798c.593 0 1.14.047 1.671.219.391.125.75.297 1 .61.47.624.485 1.515.266 2.39m0 0"/><path id="az" d="M5.14-1.281c0-.063-.077-.157-.14-.157-.062 0-.094.032-.156.125C3.89-.125 2.594-.125 2.454-.125c-.938 0-1.048-1.016-1.048-1.39 0-.141.016-.516.203-1.25h.625c.344 0 1.235-.016 1.829-.266.843-.36.89-1.063.89-1.235 0-.53-.453-1.015-1.266-1.015-1.328 0-3.14 1.156-3.14 3.25C.547-.812 1.25.125 2.422.125 4.14.125 5.14-1.141 5.14-1.281m-.577-2.985c0 1.235-1.907 1.235-2.407 1.235h-.484c.469-1.813 1.703-1.985 2.016-1.985.562 0 .874.344.874.75m0 0"/><path id="aD" d="M9.766-8.062v-.235c-.344.031-.891.11-1.297.266-.36.125-.719.312-1.031.5-.5.297-.907.797-1.25 1.265-.547.75-1 1.485-1.485 2.266-.516.828-1.328 2.156-1.578 2.469s-.547.687-.86.937a.88.88 0 0 1-.562.219c-.094 0-.203-.031-.266-.11-.03-.062-.093-.124-.062-.218s.063-.188.11-.281c.015-.063.062-.157.062-.203a.22.22 0 0 0-.031-.22c-.063-.093-.172-.155-.328-.155a.58.58 0 0 0-.375.109.82.82 0 0 0-.297.437c-.079.313-.047.61.109.844a.87.87 0 0 0 .672.297c.469 0 .969-.25 1.39-.578.5-.406 1.407-1.328 2.047-2.375h2.641l-.469 1.89a2 2 0 0 0-.093.594c.015.125.03.266.093.36.078.109.235.156.39.156.298 0 .61-.14.876-.297.453-.25.86-.547 1.25-.906l-.14-.203a5 5 0 0 1-.563.39.83.83 0 0 1-.469.172c-.094 0-.187-.015-.25-.094-.156-.203-.14-.484-.094-.78.157-.829.36-1.688.563-2.516l.86-3.47c.062-.218.108-.327.25-.421Zm-1.188.437L7.5-3.328H5.063c.5-.922 1-1.828 1.578-2.703.343-.5.672-1 1.14-1.375.235-.172.485-.297.719-.344Zm0 0"/><path id="aS" d="m10.344-8.156-.172-.11-.375.422c-.14.14-.36.266-.563.266-.078 0-.25-.031-.359-.047a18 18 0 0 1-1.687-.36l.078-.327-.063-.047-.672.297a10 10 0 0 0-.718-.047c-.954 0-1.813.187-2.657.859-.531.438-1.015 1-1.172 1.61-.046.202-.078.406.032.546.093.094.172.172.328.172.125 0 .265-.094.375-.172a.63.63 0 0 0 .219-.36c.03-.124.015-.296.015-.421.016-.172.016-.312.078-.469.047-.187.375-.61.656-.843.563-.438 1.126-.563 1.72-.563a4.5 4.5 0 0 1 .921.094l-.86 3.172H3.704l-.25.343h1.938l-.282 1.047c-.125.422-.25.844-.484 1.25a3 3 0 0 1-.687.875c-.407.375-.97.672-1.47.672-.312 0-.609-.078-.78-.312a1.1 1.1 0 0 1-.188-.407c-.094-.437-.14-.453-.312-.453a.73.73 0 0 0-.438.14c-.125.11-.203.204-.234.345-.063.25-.032.5.125.672.234.328.609.484 1.062.484.969 0 2.031-.39 2.844-1.094.437-.375.672-.687.906-1.094.281-.5.469-1.015.61-1.546l.14-.579h1.469l.344-.343H6.28l.766-2.97c.156.063.937.329 1.422.47.156.062.344.109.5.109.25 0 .531-.219.703-.422Zm0 0"/><path id="aT" d="M3.984-.328v-.313c0-.203 0-.312-.14-.312-.047 0-.313.078-.375.11v-4.188c.047-.016.328-.094.36-.11.14-.046.155-.062.155-.343v-.297c0-.219 0-.328-.14-.328-.047 0-.313.078-.375.109v-2.234c0-.22 0-.328-.14-.328-.157 0-.157.109-.157.343v2.313l-1.703.531v-2.234c0-.22 0-.313-.125-.313-.172 0-.172.11-.172.328v2.328c-.047 0-.328.094-.36.11-.14.047-.156.047-.156.343v.297c0 .22 0 .313.125.313.063 0 .328-.078.39-.094v4.172c-.046.016-.327.094-.359.11C.673.03.657.046.657.327v.313c0 .203 0 .312.125.312.063 0 .328-.078.39-.11v1.423c0 .203 0 .312.126.312.172 0 .172-.11.172-.328V.75L3.172.234v1.391c0 .234 0 .328.125.328.172 0 .172-.11.172-.344V.125c.047-.016.328-.094.36-.11.14-.046.155-.062.155-.343M3.172-.75l-1.703.516v-4.172l1.703-.516Zm0 0"/><path id="aX" d="M6.531-1.703c0-.125-.11-.125-.14-.125-.125 0-.125.031-.188.219-.172.625-.562 1.484-1.219 1.484-.203 0-.28-.125-.28-.406 0-.297.109-.578.202-.844.203-.516.735-1.937.735-2.625 0-.781-.485-1.281-1.375-1.281-.75 0-1.328.375-1.766.922l.938-3.797s0-.14-.157-.14c-.281 0-1.156.093-1.469.124-.093.016-.218.016-.218.235 0 .14.11.14.281.14.578 0 .594.094.594.203l-.031.25L.702-.469C.656-.297.656-.28.656-.203c0 .281.235.328.344.328.188 0 .39-.14.453-.297l.219-.922.266-1.062c.078-.266.14-.531.203-.813.015-.062.125-.469.125-.531.046-.11.406-.781.812-1.11.266-.187.64-.406 1.156-.406s.641.407.641.829c0 .656-.453 1.953-.734 2.687-.094.266-.157.406-.157.656 0 .563.422.969.97.969 1.124 0 1.577-1.734 1.577-1.828m0 0"/><path id="bd" d="M7.656-6.953c.094-.344.047-.656-.14-.906-.282-.391-.985-.47-1.375-.47-.891 0-1.766.22-2.657.813-.718.485-1.218 1.282-1.421 2.079-.172.718-.235 1.453.156 1.984.406.531 1.094.781 1.844.781.593 0 1.25-.172 1.828-.531l-.25 1.14c-.125.516-.328.97-.578 1.47-.22.374-.5.75-.86 1.046-.469.39-1.031.656-1.578.656-.36 0-.719-.062-.922-.328-.11-.156-.11-.375-.11-.593.016-.157.016-.329-.062-.438a.34.34 0 0 0-.281-.125.75.75 0 0 0-.469.14.84.84 0 0 0-.265.407.98.98 0 0 0 .172.89c.28.391.812.485 1.359.485.984 0 1.984-.406 2.86-1.11.452-.359.78-.812 1.03-1.328.36-.718.61-1.468.797-2.234l.391-1.578-.672.156c-.156.344-.5.828-.687.969-.47.39-1 .547-1.532.547-.5 0-.89-.219-1.156-.563-.36-.484-.312-1.187-.14-1.86a3.62 3.62 0 0 1 1.265-1.952 2.5 2.5 0 0 1 1.547-.516c.297 0 .719.11.922.406.14.188.219.407.14.672-.046.219-.125.469-.328.64-.28.22-.546.25-.828.25l-.093.204c.187.031.468.11.53.11.36 0 .704-.188 1.016-.438.297-.25.47-.563.547-.875m0 0"/><path id="ao" d="M7.094 0v-8.297h-.907V-.89h-.015l-.969-2-2.64-5.406h-1.47V0h.923v-7.406l.968 2L5.625 0Zm0 0"/><path id="ap" d="M1.813 0v-5.312H.938V0Zm.078-6.797v-1.016H.859v1.016Zm0 0"/><path id="aq" d="M4.86-2.687c0-.516-.048-1.25-.423-1.876-.5-.828-1.328-.921-1.671-.921C1.469-5.484.39-4.25.39-2.687.39-1.11 1.547.124 2.92.124c.563 0 1.22-.156 1.876-.64 0-.047-.047-.438-.047-.438s-.031-.281-.031-.328c-.703.593-1.407.687-1.766.687-.922 0-1.703-.828-1.734-2.093Zm-.704-.641h-2.86c.204-.813.767-1.438 1.47-1.438.359 0 1.187.157 1.39 1.438m0 0"/><path id="ar" d="M4.86-.5c0-.031-.032-.406-.048-.453l-.015-.344a2.8 2.8 0 0 1-1.828.672c-1 0-1.64-.875-1.64-2.047 0-.984.484-2.078 1.671-2.078.797 0 1.14.203 1.656.547l.14-.781c-.702-.407-1.093-.5-1.796-.5-1.656 0-2.578 1.453-2.578 2.812C.422-1.14 1.516.125 2.953.125c.578 0 1.25-.156 1.906-.625m0 0"/><path id="as" d="M5.063 0v-3.594c0-.734-.157-1.828-1.594-1.828-.828 0-1.375.469-1.656.813v-3.688H.922V0h.906v-2.969c0-.75.281-1.734 1.188-1.734 1.109 0 1.14.766 1.14 1.187V0Zm0 0"/><path id="at" d="M5.563-2.672c0-1.469-.782-2.75-1.891-2.75-.344 0-1.11.063-1.86.672v-3.547H.939V0h.906v-.531c.547.515 1.125.656 1.547.656 1.14 0 2.172-1.172 2.172-2.797m-.907 0c0 1.563-.968 2.078-1.703 2.078-.328 0-.562-.125-.781-.297-.281-.25-.328-.453-.328-.656V-4.03c.218-.328.64-.672 1.234-.672.719 0 1.578.547 1.578 2.031m0 0"/><path id="au" d="m3.688-5.36-.485-.515-.828.719v-3.14H1.5v3.874L.328-3.375l.453.547.719-.656V0h.875v-4.234Zm0 0"/><path id="av" d="M5.484-2.625c0-1.625-1.187-2.86-2.562-2.86-1.406 0-2.563 1.266-2.563 2.86 0 1.563 1.188 2.75 2.563 2.75 1.406 0 2.562-1.219 2.562-2.75m-.906-.125c0 1.469-.844 2.125-1.656 2.125-.86 0-1.656-.719-1.656-2.125 0-1.453.89-2.016 1.656-2.016.812 0 1.656.625 1.656 2.016m0 0"/><path id="aw" d="m5.672-4.703-.125-.719c-.234 0-1.047 0-1.828.39-.39-.327-.875-.39-1.11-.39-1.046 0-1.875.875-1.875 1.922 0 .422.125.828.391 1.188a1.64 1.64 0 0 0-.344 1.015c0 .453.156.75.297.906C.468 0 .328.516.328.844c0 .875 1.125 1.61 2.594 1.61 1.453 0 2.594-.704 2.594-1.61 0-1.688-1.938-1.688-2.422-1.688H2.078c-.172 0-.672 0-.672-.625 0-.265.047-.343.11-.437.203.14.593.343 1.078.343 1.031 0 1.875-.859 1.875-1.937a2.13 2.13 0 0 0-.36-1.156 7 7 0 0 1 .954-.063c.046 0 .312 0 .609.016M3.64-3.5c0 1.063-.672 1.281-1.032 1.281-.53 0-1.062-.36-1.062-1.265 0-1.063.672-1.282 1.047-1.282.531 0 1.047.36 1.047 1.266M4.688.844c0 .562-.829.953-1.766.953-.922 0-1.766-.375-1.766-.953 0-.047 0-.813.907-.813h1.046c.266 0 1.579 0 1.579.813m0 0"/><path id="ax" d="M4.203-1.516c0-.609-.36-1-.406-1.046-.453-.47-.813-.532-1.531-.672-.438-.094-1.047-.203-1.047-.813 0-.734.843-.734 1-.734.625 0 1.125.14 1.656.437l.14-.765a3.9 3.9 0 0 0-1.687-.375c-.265 0-1.937 0-1.937 1.547 0 .53.297.89.468 1.062.438.36.735.422 1.438.563.39.093 1.078.234 1.078.859 0 .828-.922.828-1.094.828A3.12 3.12 0 0 1 .47-1.219l-.14.813c.046.031.859.531 1.968.531 1.547 0 1.906-.937 1.906-1.64m0 0"/><path id="ay" d="M4.797 0v-3.5c0-1.156-.828-1.984-1.938-1.984-.718 0-1.25.172-1.843.5l.078.78c.515-.374 1.062-.593 1.765-.593.547 0 1.032.453 1.032 1.313v.5c-.547.015-1.266.062-1.985.297C1.11-2.422.641-1.97.641-1.375c0 .531.312 1.5 1.328 1.5.656 0 1.5-.203 1.937-.562V0ZM3.89-1.61c0 .25 0 .532-.407.766-.312.203-.718.25-.906.25-.64 0-1.078-.343-1.078-.797 0-.812 1.656-.984 2.39-.984Zm0 0"/><path id="aA" d="M7.766-5.312H6.89l-.703 2.437c-.172.563-.516 1.688-.563 2.203-.047-.281-.234-1.078-.484-1.937l-.797-2.703H3.53L2.844-2.97c-.219.75-.5 1.781-.531 2.282h-.016c-.016-.235-.14-.86-.375-1.672l-.844-2.953H.172L1.766 0h.922c.453-1.5 1.156-3.781 1.218-4.61h.016c.015.485.265 1.344.344 1.626L5.109 0h1.063Zm0 0"/><path id="aB" d="M5.063 0v-3.594c0-.734-.157-1.828-1.594-1.828-.672 0-1.25.297-1.703.875v-.812H.922V0h.906v-2.969c0-.75.281-1.734 1.188-1.734 1.109 0 1.14.766 1.14 1.187V0Zm0 0"/><path id="aC" d="M5.172-5.312h-.89c-.548 1.421-1.47 3.765-1.516 4.625H2.75c-.062-.72-.687-2.282-.797-2.532L1.11-5.312H.172L2.39 0l-.422 1.094c-.266.593-.438.656-.657.656-.171 0-.546-.047-.921-.187l.078.78c.062.016.469.095.844.095.296 0 .843 0 1.359-1.313Zm0 0"/><path id="aF" d="M4.86-2.687c0-.516-.048-1.25-.423-1.876-.5-.828-1.328-.921-1.671-.921C1.469-5.484.39-4.25.39-2.687.39-1.141 1.5.078 2.844.124c-.531.344-.875.828-.828 1.39 0 .516.375 1.016 1.172 1.016.39 0 .703-.062 1.171-.297l-.156-.703c-.266.11-.547.172-.812.172-.328-.031-.625-.094-.625-.453-.016-.531.5-.969 1.047-1.281.328-.094.64-.25.984-.485 0-.046-.047-.437-.047-.437s-.031-.281-.031-.328c-.703.593-1.407.687-1.766.687-.922 0-1.703-.828-1.734-2.093Zm-.704-.641h-2.86c.204-.813.767-1.438 1.47-1.438.359 0 1.187.157 1.39 1.438m0 0"/><path id="aG" d="M5.063 0v-8.297h-.891v3.485a2.65 2.65 0 0 0-1.688-.61c-1.14 0-2.062 1.219-2.062 2.766S1.297.125 2.437.125c.438 0 1.11-.156 1.704-.734V0ZM4.14-1.406c-.282.515-.703.812-1.22.812-.733 0-1.593-.562-1.593-2.047 0-1.593 1.016-2.062 1.703-2.062.469 0 .86.234 1.11.625Zm0 0"/><path id="aH" d="M4.703 0v-.734H2.984c-.14 0-.28.015-.421.015H1.547l3.11-4.125v-.468H.483v.703h2.953L.329-.484V0Zm0 0"/><path id="aI" d="M7.11-2.25c0-1.047-1.032-1.89-2.266-2.094 1.39-.375 1.937-1.172 1.937-1.875 0-1.078-1.218-2.078-2.906-2.078H1.109V0h3.094C5.875 0 7.11-1.078 7.11-2.25M5.86-6.203c0 .844-1.032 1.531-2.298 1.531H2.079v-2.953h1.469c1.281 0 2.312.625 2.312 1.422m.312 3.937c0 .844-.969 1.594-2.313 1.594H2.08v-3.281h1.593c1.547 0 2.5.86 2.5 1.687m0 0"/><path id="aJ" d="M5.484-2.625c0-1.625-1.187-2.86-2.562-2.86-1.406 0-2.563 1.266-2.563 2.86 0 1.563 1.188 2.75 2.563 2.75 1.406 0 2.562-1.219 2.562-2.75m-.906-.125c0 1.469-.844 2.125-1.656 2.125-.86 0-1.656-.719-1.656-2.125 0-1.453.89-2.016 1.656-2.016.812 0 1.656.625 1.656 2.016m-.016-5.547h-.906l-1.547 2h.72Zm0 0"/><path id="aK" d="M7.969-4.125c0-2.531-1.719-4.422-3.657-4.422-1.984 0-3.671 1.922-3.671 4.422C.64-1.609 2.375.25 4.297.25c1.984 0 3.672-1.875 3.672-4.375m-1.032-.172C6.938-1.953 5.658-.5 4.313-.5c-1.39 0-2.64-1.5-2.64-3.797 0-2.203 1.297-3.516 2.625-3.516 1.375 0 2.64 1.344 2.64 3.516m0 0"/><path id="aL" d="M2.14.703v-6.015h-.89v6.14c0 .781-.625.86-.875.86-.531 0-.86-.344-.875-.375l-.234.718c.375.235.859.406 1.406.406.75 0 1.469-.624 1.469-1.734m0-7.5v-1.016H1.11v1.016Zm0 0"/><path id="aM" d="M4.531-1.766v-6.53h-1v6.483c0 .688-.344 1.329-1.39 1.329a1.96 1.96 0 0 1-1.485-.657L.484-.25c.704.36 1.375.5 2 .5 1.25 0 2.047-.734 2.047-2.016m0 0"/><path id="aN" d="M5.063 0v-5.312h-.907v3.421c0 .907-.625 1.36-1.406 1.36-.844 0-.922-.313-.922-.844v-3.937H.922v3.984c0 .86.265 1.453 1.25 1.453.344 0 1.281-.062 2.015-.719V0Zm0 0"/><path id="aO" d="m6.875-.531-.078-.844c-.313.234-.672.484-1.063.61-.375.124-.78.14-1.187.14-.766 0-1.469-.422-1.938-1.031-.546-.703-.796-1.594-.796-2.485 0-.906.25-1.796.796-2.5.47-.609 1.172-1.03 1.938-1.03.36 0 .719.03 1.062.14.344.125.672.297.97.515l.171-1a5.6 5.6 0 0 0-1.078-.312 5.6 5.6 0 0 0-1.125-.094c-1.031 0-1.984.469-2.656 1.25C1.14-6.344.78-5.266.78-4.14c0 1.094.36 2.188 1.11 3.016.672.766 1.625 1.25 2.656 1.25.406 0 .812-.016 1.219-.125.406-.125.765-.328 1.109-.531m0 0"/><path id="aP" d="M3.797-4.625v-.797c-1.078 0-1.719.64-2.047 1.11V-5.36H.938V0h.875v-2.625c0-1.203.906-1.984 1.984-2m0 0"/><path id="aQ" d="m3.89-.344-.171-.703c-.422.375-.86.422-1.078.422-.532 0-.594-.562-.594-.984v-3h1.64v-.703h-1.64v-1.516h-.828v1.516h-1v.703h.969v3.203c0 .703.156 1.531.984 1.531.797 0 1.36-.281 1.719-.469m0 0"/><path id="aR" d="M2.11 0v-.969h-.97V0Zm0 0"/><path id="aU" d="M7.547 0 4.28-5.016l3.125-3.28H6.281L2.094-3.892v-4.406h-1V0h1v-2.703L3.64-4.328 6.453 0Zm0 0"/><path id="aV" d="M5.563-2.672c0-1.437-.75-2.75-1.875-2.75-.485 0-1.25.156-1.876.672v-.562H.939v7.625h.906V-.531c.406.36.906.656 1.547.656 1.156 0 2.172-1.172 2.172-2.797m-.907.016c0 1.203-.812 2.062-1.703 2.062-.328 0-.562-.125-.781-.297-.297-.25-.328-.468-.328-.656v-2.469a1.47 1.47 0 0 1 1.219-.671c.874 0 1.593.89 1.593 2.03m0 0"/><path id="aW" d="M8.328 0v-3.594c0-.828-.219-1.828-1.61-1.828-1.015 0-1.577.703-1.765.969-.203-.766-.86-.969-1.484-.969-.985 0-1.5.625-1.703.875v-.812H.922V0h.906v-2.969c0-.797.313-1.734 1.188-1.734 1.093 0 1.156.75 1.156 1.187V0h.906v-2.969c0-.797.313-1.734 1.188-1.734 1.093 0 1.156.75 1.156 1.187V0Zm0 0"/><path id="aY" d="M4.203-1.516c0-.609-.36-1-.406-1.046-.453-.47-.813-.532-1.531-.672-.438-.094-1.047-.203-1.047-.813 0-.734.843-.734 1-.734.625 0 1.125.14 1.656.437l.14-.765a3.9 3.9 0 0 0-1.687-.375c-.265 0-1.937 0-1.937 1.547 0 .53.297.89.468 1.062.438.36.735.422 1.438.563.39.093 1.078.234 1.078.859 0 .828-.922.828-1.094.828A3.12 3.12 0 0 1 .47-1.219l-.14.813c.046.031.859.531 1.968.531 1.547 0 1.906-.937 1.906-1.64m-.312-6.78h-.922l-1.547 2h.719Zm0 0"/><path id="aZ" d="M1.813 0v-8.297H.938V0Zm0 0"/><path id="ba" d="M5.469 0 3.25-3.266l1.969-2.046h-1.11L1.813-2.906v-5.39H.938V0h.828v-1.719l.906-.953L4.5 0Zm0 0"/><path id="bb" d="m5.219 2.234-.157-.703c-.265.11-.546.172-.812.172-.328-.031-.61-.094-.625-.453C3.609.719 4.109.313 4.656 0h.14v-3.5c0-1.156-.827-1.984-1.937-1.984-.718 0-1.25.172-1.843.5l.078.78c.515-.374 1.062-.593 1.765-.593.547 0 1.032.453 1.032 1.313v.5c-.547.015-1.266.062-1.985.297C1.11-2.422.641-1.97.641-1.375c0 .531.312 1.5 1.328 1.5.656 0 1.5-.203 1.937-.562V0c-.594.328-1.078.906-1.031 1.516 0 .515.375 1.015 1.172 1.015.406 0 .703-.062 1.172-.297M3.89-1.609c0 .25 0 .53-.407.765-.312.203-.718.25-.906.25-.64 0-1.078-.343-1.078-.797 0-.812 1.656-.984 2.39-.984Zm0 0"/><path id="bc" d="M2.11-.016v-.953h-.97V0h.298L1.14 1.5h.468Zm0 0"/><path id="bf" d="M2.11 0v-.969h-.97V0Zm2.03 0v-.969h-.968V0Zm2.048 0v-.969h-.97V0Zm0 0"/><path id="bg" d="M10.813-8.297h-.876L8.845-4.375c-.266.938-.266.969-.485 1.766-.14.578-.328 1.265-.375 1.703H7.97c-.063-.5-.313-1.531-.516-2.25l-1.422-5.14H5.016L4-4.595c-.094.297-.812 2.89-.89 3.672h-.016c-.047-.469-.344-1.625-.39-1.828l-.517-1.906-1-3.64H.173L2.516 0H3.5l1.125-4.062c.297-1.063.75-2.704.828-3.344h.016s.078.625.64 2.672L7.406 0H8.47Zm0 0"/><path id="bh" d="M2.344-8.297h-.969l.094 6.235h.781Zm0 8.297v-.969h-.969V0Zm0 0"/><path id="bi" d="M4.703 0v-.734H2.984c-.14 0-.28.015-.421.015H1.547l3.11-4.125v-.468H.483v.703h2.953L.329-.484V0ZM3.047-6.797v-1.016H2.016v1.016Zm0 0"/><path id="bj" d="M5.844-2.266c0-.765-.375-1.328-.625-1.625-.563-.593-1-.718-1.797-.921-.813-.204-1.11-.266-1.375-.516-.156-.172-.485-.469-.485-1 0-.734.657-1.438 1.72-1.438 1.015 0 1.546.391 1.984.766l.172-.953c-.485-.266-1.094-.594-2.157-.594-1.594 0-2.64 1.14-2.64 2.344 0 .844.515 1.39.578 1.453.593.61 1 .703 1.75.906 1.031.25 1.187.297 1.578.688.203.219.375.594.375 1.015 0 .829-.672 1.594-1.703 1.594a3.75 3.75 0 0 1-2.516-1l-.172.969A4.9 4.9 0 0 0 3.22.25C4.75.25 5.844-.937 5.844-2.266m0 0"/><path id="bk" d="M7.75-4.078c0-2.328-1.578-4.219-3.594-4.219H1.094V0h3.062c2 0 3.594-1.812 3.594-4.078m-1-.016c0 2.188-1.328 3.422-2.86 3.422H2.095v-6.953H3.89c1.593 0 2.859 1.375 2.859 3.531m0 0"/><path id="bl" d="M5.844-2.266c0-.765-.375-1.328-.625-1.625-.563-.593-1-.718-1.797-.921-.813-.204-1.11-.266-1.375-.516-.156-.172-.485-.469-.485-1 0-.734.657-1.438 1.72-1.438 1.015 0 1.546.391 1.984.766l.172-.953c-.485-.266-1.094-.594-2.157-.594-1.594 0-2.64 1.14-2.64 2.344 0 .844.515 1.39.578 1.453.593.61 1 .703 1.75.906 1.031.25 1.187.297 1.578.688.203.219.375.594.375 1.015 0 .829-.672 1.594-1.703 1.594a3.75 3.75 0 0 1-2.516-1l-.172.969A4.9 4.9 0 0 0 3.22.25C4.75.25 5.844-.937 5.844-2.266m-.328-8.093H4.203L2.11-8.906h1.063Zm0 0"/><path id="aE" d="M4.344-5.125H2.25c-.312 0-.406-.016-.687-.031-.422-.047-.438-.094-.454-.235H.844L.563-3.687h.265c.016-.11.094-.641.219-.72.062-.046.719-.046.828-.046h1.75l-.844 1.047C1.75-2.031 1.656-.766 1.656-.296c0 .093 0 .452.375.452s.375-.36.375-.453v-.328c0-1.547.313-2.25.656-2.687l1.204-1.5c.078-.094.078-.11.078-.313m0 0"/><path id="br" d="M5.547 0v-.25h-.125c-.469 0-.516-.078-.594-.266L3.125-4.812c-.031-.11-.062-.157-.187-.157-.141 0-.157.047-.204.157L1.125-.734C1.063-.562.938-.25.313-.25V0c.234-.016.484-.031.718-.031.282 0 .797.031.844.031v-.25c-.312 0-.516-.14-.516-.328 0-.063.016-.078.047-.14l.328-.86H3.72l.406 1.016c0 .03.031.078.031.109 0 .203-.375.203-.562.203V0l1.031-.031c.328 0 .86.031.922.031M3.609-1.828H1.83l.89-2.266Zm0 0"/><path id="bs" d="M4.047 0v-.25c-.469 0-.516-.047-.516-.39v-4.204l-1.047.078v.25c.47 0 .516.063.516.391v1.453a1.37 1.37 0 0 0-.969-.406c-.937 0-1.703.703-1.703 1.578S1.062.063 1.938.063c.578 0 .921-.297 1.03-.422v.422ZM2.969-.734c-.172.328-.531.609-.985.609-.39 0-.671-.234-.812-.437-.14-.204-.219-.485-.219-.922 0-.172 0-.688.281-1.016.282-.312.625-.375.829-.375.328 0 .64.156.828.406.078.11.078.11.078.25Zm0 0"/><path id="bt" d="M5.469-2.75V-3c-.188.016-.313.031-.5.031-.219 0-.485-.015-.688-.031v.25c.235 0 .36.14.36.297 0 .062 0 .078-.047.172L3.922-.547l-.75-1.906a.3.3 0 0 1-.031-.125c0-.156.172-.172.375-.172V-3c-.25.016-.5.031-.75.031-.203 0-.422-.015-.625-.031v.25c.172 0 .312 0 .406.047.094.078.156.312.156.312s-.015.063-.031.079L2.016-.641l-.703-1.812c-.032-.094-.032-.094-.032-.125 0-.172.25-.172.375-.172V-3s-.515.031-.797.031C.641-2.969.422-2.984.203-3v.25c.281 0 .438 0 .5.203l.969 2.453c.047.11.062.157.203.157.125 0 .14-.047.172-.141l.797-1.984.765 1.968c.047.094.063.157.204.157.124 0 .14-.047.187-.157l.875-2.234c.14-.344.375-.422.594-.422m0 0"/><path id="bu" d="M3.266-.844c0-.015-.016-.094-.125-.094-.094 0-.11.047-.125.11-.22.562-.75.672-1 .672-.328 0-.641-.14-.844-.406-.266-.329-.266-.75-.266-1.032h2.157c.156 0 .203 0 .203-.14 0-.625-.344-1.375-1.391-1.375a1.59 1.59 0 0 0-1.61 1.578c0 .89.782 1.594 1.704 1.594.937 0 1.297-.75 1.297-.907m-.485-.922H.906c.078-.984.703-1.14.969-1.14.86 0 .89.969.906 1.14m0 0"/><path id="bv" d="M4.11 0v-.25c-.454 0-.516 0-.516-.297v-1.562c0-.61-.297-.97-1.047-.97-.578 0-.938.313-1.14.688v-.687L.374-3v.25c.469 0 .531.047.531.39v1.813c0 .297-.078.297-.531.297V0s.5-.031.797-.031c.25 0 .734.031.797.031v-.25c-.453 0-.516 0-.516-.297v-1.265c0-.72.578-1.063 1.031-1.063.485 0 .547.375.547.734v1.594c0 .297-.062.297-.515.297V0s.5-.031.797-.031c.25 0 .734.031.796.031m0 0"/><path id="bw" d="M2.61-.875v-.39h-.235v.374c0 .485-.219.735-.5.735-.469 0-.469-.578-.469-.703V-2.75h1.078V-3H1.406v-1.281h-.25c0 .625-.281 1.312-.953 1.328v.203h.64v1.875c0 .781.595.938.985.938.469 0 .781-.391.781-.938m0 0"/><path id="bx" d="M3.516-1.266H3.28c-.015.157-.094.563-.187.625-.047.047-.578.047-.688.047H1.125c.734-.64.984-.843 1.39-1.172.516-.406 1-.843 1-1.5 0-.843-.734-1.359-1.624-1.359-.86 0-1.453.61-1.453 1.25 0 .344.296.39.375.39.156 0 .359-.124.359-.374 0-.125-.047-.375-.406-.375.218-.485.687-.641 1.015-.641.703 0 1.063.547 1.063 1.11 0 .609-.438 1.078-.656 1.328L.516-.266C.437-.203.437-.187.437 0h2.876Zm0 0"/><path id="by" d="M3.594-2.219c0-.765-.094-1.328-.406-1.812-.22-.313-.657-.594-1.204-.594C.36-4.625.36-2.719.36-2.219s0 2.36 1.625 2.36c1.61 0 1.61-1.86 1.61-2.36m-.625-.094c0 .516 0 1.032-.094 1.47-.14.64-.61.78-.89.78-.329 0-.75-.187-.891-.75C1-1.219 1-1.796 1-2.312c0-.515 0-1.046.094-1.421.156-.547.593-.703.89-.703.375 0 .735.234.86.64.11.375.125.875.125 1.485m0 0"/><path id="bz" d="M3.516-1.406c0-.782-.594-1.5-1.453-1.5-.313 0-.672.062-.985.328v-1.313c.36.094.563.094.672.094.922 0 1.469-.625 1.469-.734 0-.078-.047-.094-.078-.094 0 0-.032 0-.063.016-.172.062-.531.203-1.047.203-.203 0-.562-.016-1.015-.188-.079-.031-.094-.031-.094-.031-.094 0-.094.078-.094.188v2.046c0 .125 0 .204.11.204.062 0 .078 0 .14-.094.297-.375.734-.438.969-.438.422 0 .61.328.64.39.126.235.172.5.172.907 0 .203 0 .61-.218.922a.98.98 0 0 1-.813.422c-.453 0-.922-.25-1.094-.719.266.016.407-.156.407-.344 0-.296-.266-.343-.36-.343 0 0-.343 0-.343.375 0 .625.578 1.25 1.406 1.25.89 0 1.672-.657 1.672-1.547m0 0"/><path id="bA" d="M7.813-1.75v-.203H.109v.203Zm0 0"/><path id="bB" d="M3.578-2.297c0-1.719-.765-2.328-1.578-2.328a1.55 1.55 0 0 0-1.11.422c-.234.234-.515.5-.515 1.125 0 .89.703 1.547 1.516 1.547.562 0 .859-.375 1.015-.688v.14c0 1.735-.844 2-1.265 2-.157 0-.532-.015-.72-.233a.315.315 0 0 0 .313-.329.32.32 0 0 0-.328-.328c-.203 0-.328.14-.328.344 0 .469.39.766 1.063.766 1 0 1.937-.938 1.937-2.438M2.891-3c0 .906-.516 1.266-.953 1.266-.282 0-.532-.079-.735-.407-.156-.25-.156-.546-.156-.937 0-.406 0-.672.203-.953.172-.25.39-.39.75-.39s.578.218.688.405c.187.282.203.782.203 1.016m0 0"/><path id="bC" d="M2.516 0v-.25h-.172c-.578 0-.578-.078-.578-.328v-3.61c0-.234 0-.328.578-.328h.172v-.25l-1.078.032-1.079-.032v.25h.172c.578 0 .578.094.578.329v3.609c0 .25 0 .328-.578.328H.36V0l1.079-.031Zm0 0"/><path id="bD" d="M3.578-1.422c0-.89-.703-1.547-1.515-1.547-.563 0-.86.375-1.016.688 0-.563.047-1.078.312-1.516.235-.375.61-.625 1.063-.625.203 0 .484.047.625.234-.172.016-.328.141-.328.344a.32.32 0 0 0 .328.328c.219 0 .344-.14.344-.343 0-.407-.297-.766-.985-.766-1 0-2.031.922-2.031 2.422C.375-.406 1.219.14 2 .14c.844 0 1.578-.657 1.578-1.563m-.672 0c0 .39 0 .688-.187.969A.82.82 0 0 1 2-.078c-.36 0-.625-.203-.781-.516-.094-.203-.157-.562-.157-.968 0-.688.407-1.204.97-1.204.312 0 .53.125.702.375.172.266.172.563.172.97m0 0"/><path id="bE" d="M2.016 1.734v-.328h-.72V-4.89h.72v-.328H.953v6.953Zm0 0"/><path id="bF" d="M3.297 0v-.25H3.03c-.703 0-.703-.094-.703-.328v-3.86c0-.187 0-.187-.203-.187-.453.438-1.078.438-1.36.438v.25c.157 0 .626 0 1-.188v3.547c0 .234 0 .328-.687.328H.812V0l1.235-.031Zm0 0"/><path id="bG" d="M1.297 1.734v-6.953H.219v.328h.734v6.297H.22v.328Zm0 0"/><path id="bH" d="M4.563 0v-.437H3.266v-5.157c0-.187 0-.297-.266-.297-.11 0-.125 0-.203.063-.688.516-1.656.516-1.828.516H.797v.437h.172a4.2 4.2 0 0 0 1.203-.172v4.61H.89V0c.343-.031 1.422-.031 1.828-.031.422 0 1.484 0 1.844.031m0 0"/><path id="bI" d="M4.86-2.953c0-.469-.032-1.39-.485-2.094-.297-.437-.828-.844-1.719-.844-1.281 0-2.218.72-2.218 1.938 0 1.125.765 1.937 2.093 1.937.406 0 .781-.203 1.063-.687v.172c0 .578-.063 1.156-.235 1.531-.109.234-.468.703-1.171.703-.079 0-.454 0-.735-.187a.55.55 0 0 0 .422-.563c0-.375-.281-.578-.578-.578-.25 0-.594.14-.594.594 0 .61.469 1.14 1.5 1.14 1.25 0 2.656-.796 2.656-3.062m-1.266-.89c0 .406-.172 1.452-1.031 1.452-.86 0-.86-.656-.86-1.53 0-.876 0-1.61.984-1.61.563 0 .766.515.797.593.11.297.11.782.11 1.094m0 0"/><path id="bJ" d="M4.86-1.844c0-.484-.094-.968-.61-1.437-.469-.39-.937-.485-1.484-.485-.578 0-.922.407-1.063.688v-.156c0-1.125.219-1.485.313-1.641a1.47 1.47 0 0 1 1.218-.656c.172 0 .454.031.672.234-.36.078-.484.344-.484.563 0 .39.297.593.594.593a.57.57 0 0 0 .578-.609c0-.547-.375-1.14-1.375-1.14-1.297 0-2.781.827-2.781 3.046 0 .438.03 1.313.421 1.953.391.688 1.016 1 1.829 1 1.28 0 2.171-.734 2.171-1.953m-1.266-.015c0 .906 0 1.562-.922 1.562-.531 0-.766-.406-.828-.562-.125-.282-.125-1-.125-1.032 0-.921.39-1.515 1.015-1.515.86 0 .86.656.86 1.547m0 0"/><clipPath id="b"><path d="M.535.266h6.883v9.636H.535Zm0 0"/></clipPath><clipPath id="a"><path d="M0 0h8v10H0z"/></clipPath><clipPath id="bm"><path d="M15.023 568.348H403v11.336H15.023Zm0 0"/></clipPath><linearGradient id="bn" x1="0" x2="388.063" y1="0" y2="0" gradientTransform="matrix(1 0 0 -1 15.024 579.685)" gradientUnits="userSpaceOnUse"><stop offset="0" stop-color="#f2f2f2"/><stop offset=".25" stop-color="#f2f2f2"/><stop offset=".313" stop-color="#f2f2f2"/><stop offset=".344" stop-color="#f2f2f2"/><stop offset=".359" stop-color="#f3f3f3"/><stop offset=".363" stop-color="#f4f4f4"/><stop offset=".367" stop-color="#f5f5f5"/><stop offset=".371" stop-color="#f6f6f6"/><stop offset=".375" stop-color="#f7f7f7"/><stop offset=".379" stop-color="#f8f8f8"/><stop offset=".383" stop-color="#f9f9f9"/><stop offset=".387" stop-color="#fafafa"/><stop offset=".391" stop-color="#fbfbfb"/><stop offset=".395" stop-color="#fcfcfc"/><stop offset=".398" stop-color="#fcfcfc"/><stop offset=".406" stop-color="#fcfcfc"/><stop offset=".438" stop-color="#fcfcfc"/><stop offset=".5" stop-color="#fcfcfc"/><stop offset=".563" stop-color="#fcfcfc"/><stop offset=".566" stop-color="#fcfcfc"/><stop offset=".57" stop-color="#fbfbfb"/><stop offset=".574" stop-color="#fafafa"/><stop offset=".578" stop-color="#f9f9f9"/><stop offset=".582" stop-color="#f8f8f8"/><stop offset=".586" stop-color="#f7f7f7"/><stop offset=".59" stop-color="#f6f6f6"/><stop offset=".594" stop-color="#f5f5f5"/><stop offset=".598" stop-color="#f4f4f4"/><stop offset=".602" stop-color="#f3f3f3"/><stop offset=".609" stop-color="#f3f3f3"/><stop offset=".625" stop-color="#f2f2f2"/><stop offset=".75" stop-color="#f2f2f2"/><stop offset="1" stop-color="#f2f2f2"/></linearGradient><g id="c" clip-path="url(#a)"><g clip-path="url(#b)"><path fill-rule="evenodd" d="m3.977 7.836 3.441 2.066V1.645c0-.762-.617-1.38-1.375-1.38H1.914C1.152.266.535.884.535 1.646v8.257Zm-2.754.851 2.754-1.652L6.73 8.687V1.646a.69.69 0 0 0-.687-.692H1.914a.69.69 0 0 0-.691.692Zm0 0"/></g></g></defs><use xlink:href="#c" transform="translate(9 27)"/><use xlink:href="#d" x="17.008" y="23.315"/><use xlink:href="#e" x="20.884" y="23.315"/><use xlink:href="#f" x="29.561" y="23.315"/><use xlink:href="#g" x="384.039" y="23.315"/><use xlink:href="#h" x="390.168" y="23.315"/><use xlink:href="#i" x="392.79" y="23.315"/><use xlink:href="#j" x="396.727" y="23.315"/><use xlink:href="#k" x="91.998" y="34.908"/><use xlink:href="#l" x="101.49" y="34.908"/><use xlink:href="#m" x="104.551" y="34.908"/><use xlink:href="#n" x="110.66" y="34.908"/><use xlink:href="#o" x="116.506" y="34.908"/><use xlink:href="#p" x="127.6" y="34.908"/><use xlink:href="#q" x="134.307" y="34.908"/><use xlink:href="#r" x="138.491" y="34.908"/><use xlink:href="#s" x="145.066" y="34.908"/><use xlink:href="#r" x="151.641" y="34.908"/><use xlink:href="#t" x="158.217" y="34.908"/><use xlink:href="#q" x="163.262" y="34.908"/><use xlink:href="#u" x="167.446" y="34.908"/><use xlink:href="#v" x="173.352" y="34.908"/><use xlink:href="#l" x="182.246" y="34.908"/><use xlink:href="#r" x="185.307" y="34.908"/><use xlink:href="#w" x="191.882" y="34.908"/><use xlink:href="#x" x="198.589" y="34.908"/><use xlink:href="#p" x="208.954" y="34.908"/><use xlink:href="#y" x="216.031" y="34.908"/><use xlink:href="#z" x="222.14" y="34.908"/><use xlink:href="#A" x="228.847" y="34.908"/><use xlink:href="#l" x="234.537" y="34.908"/><use xlink:href="#m" x="237.598" y="34.908"/><use xlink:href="#B" x="248.094" y="34.908"/><use xlink:href="#C" x="256.857" y="34.908"/><use xlink:href="#s" x="263.433" y="34.908"/><use xlink:href="#D" x="278.977" y="34.908"/><use xlink:href="#E" x="282.563" y="34.908"/><use xlink:href="#F" x="288.095" y="34.908"/><use xlink:href="#G" x="292.256" y="34.908"/><use xlink:href="#H" x="296.864" y="34.908"/><use xlink:href="#I" x="300.773" y="34.908"/><use xlink:href="#J" x="305.382" y="34.908"/><use xlink:href="#G" x="309.99" y="34.908"/><use xlink:href="#I" x="314.599" y="34.908"/><use xlink:href="#K" x="319.207" y="34.908"/><path fill="none" stroke="#000" stroke-miterlimit="10" stroke-width=".398" d="M17.008 39.293h384.094"/><use xlink:href="#L" x="399.042" y="130.932"/><use xlink:href="#M" x="399.042" y="124.939"/><use xlink:href="#N" x="399.042" y="121.177"/><use xlink:href="#M" x="399.042" y="116.474"/><use xlink:href="#O" x="399.042" y="112.713"/><use xlink:href="#M" x="399.042" y="108.01"/><use xlink:href="#P" x="399.042" y="104.248"/><use xlink:href="#P" x="399.042" y="100.957"/><use xlink:href="#Q" x="399.042" y="97.665"/><use xlink:href="#R" x="399.042" y="90.612"/><use xlink:href="#S" x="399.042" y="87.272"/><use xlink:href="#T" x="399.042" y="84.921"/><use xlink:href="#U" x="399.042" y="77.868"/><use xlink:href="#O" x="399.042" y="74.815"/><use xlink:href="#O" x="399.042" y="70.113"/><use xlink:href="#S" x="399.042" y="65.411"/><use xlink:href="#Q" x="399.042" y="63.06"/><use xlink:href="#V" x="399.042" y="56.006"/><use xlink:href="#W" x="399.042" y="51.304"/><use xlink:href="#X" x="399.042" y="48.953"/><use xlink:href="#X" x="399.042" y="44.72"/><use xlink:href="#Y" x="403.164" y="40.487"/><use xlink:href="#Z" x="403.164" y="46.48"/><use xlink:href="#aa" x="403.164" y="50.242"/><use xlink:href="#ab" x="403.164" y="54.945"/><use xlink:href="#ac" x="403.164" y="59.647"/><use xlink:href="#ad" x="403.164" y="61.998"/><use xlink:href="#ae" x="403.164" y="65.29"/><use xlink:href="#af" x="403.164" y="72.335"/><use xlink:href="#Z" x="403.164" y="75.675"/><use xlink:href="#ag" x="403.164" y="79.436"/><use xlink:href="#ah" x="403.164" y="86.49"/><use xlink:href="#ac" x="403.164" y="92.954"/><use xlink:href="#ae" x="403.164" y="95.305"/><use xlink:href="#af" x="403.164" y="99.537"/><use xlink:href="#ai" x="403.164" y="105.698"/><use xlink:href="#aj" x="403.164" y="110.4"/><use xlink:href="#ak" x="403.164" y="112.751"/><use xlink:href="#al" x="403.164" y="116.983"/><use xlink:href="#am" x="25.719" y="61.174"/><use xlink:href="#an" x="42.229" y="51.089" fill="red"/><use xlink:href="#ao" x="42.229" y="61.174"/><use xlink:href="#ap" x="50.43" y="61.174"/><use xlink:href="#aq" x="53.18" y="61.174"/><use xlink:href="#ar" x="58.38" y="61.174"/><use xlink:href="#as" x="63.581" y="61.174"/><use xlink:href="#at" x="73.479" y="61.174"/><use xlink:href="#au" x="79.481" y="61.174"/><use xlink:href="#av" x="82.912" y="61.174"/><use xlink:href="#aw" x="88.77" y="61.174"/><use xlink:href="#av" x="94.628" y="61.174"/><use xlink:href="#ax" x="100.486" y="61.174"/><use xlink:href="#au" x="104.969" y="61.174"/><use xlink:href="#ay" x="108.4" y="61.174"/><use xlink:href="#az" x="114.008" y="51.089" fill="red"/><use xlink:href="#aA" x="114.008" y="61.174"/><use xlink:href="#ap" x="121.97" y="61.174"/><use xlink:href="#av" x="124.72" y="61.174"/><use xlink:href="#aB" x="130.578" y="61.174"/><use xlink:href="#aC" x="136.579" y="61.174"/><use xlink:href="#aD" x="54.184" y="72.733" fill="red"/><use xlink:href="#aE" x="64.43" y="68.393" fill="red"/><use xlink:href="#at" x="54.184" y="82.818"/><use xlink:href="#aF" x="60.508" y="82.818"/><use xlink:href="#aG" x="65.709" y="82.818"/><use xlink:href="#aH" x="71.71" y="82.818"/><use xlink:href="#ap" x="76.791" y="82.818"/><use xlink:href="#aq" x="79.541" y="82.818"/><use xlink:href="#an" x="88.639" y="72.733" fill="red"/><use xlink:href="#aI" x="88.639" y="82.818"/><use xlink:href="#aJ" x="96.41" y="82.818"/><use xlink:href="#aw" x="102.268" y="82.818"/><use xlink:href="#ap" x="42.229" y="104.462"/><use xlink:href="#az" x="48.876" y="94.376" fill="red"/><use xlink:href="#aK" x="48.876" y="104.462"/><use xlink:href="#aL" x="57.508" y="104.462"/><use xlink:href="#ar" x="60.592" y="104.462"/><use xlink:href="#ap" x="65.792" y="104.462"/><use xlink:href="#aq" x="68.542" y="104.462"/><use xlink:href="#ar" x="73.742" y="104.462"/><use xlink:href="#aD" x="54.184" y="116.02" fill="red"/><use xlink:href="#aE" x="64.43" y="111.68" fill="red"/><use xlink:href="#aM" x="54.184" y="126.105"/><use xlink:href="#aq" x="59.671" y="126.105"/><use xlink:href="#aH" x="64.872" y="126.105"/><use xlink:href="#aN" x="69.953" y="126.105"/><use xlink:href="#ax" x="75.954" y="126.105"/><use xlink:href="#ay" x="80.437" y="126.105"/><use xlink:href="#aO" x="89.941" y="126.105"/><use xlink:href="#as" x="97.425" y="126.105"/><use xlink:href="#aP" x="103.427" y="126.105"/><use xlink:href="#aC" x="107.408" y="126.105"/><use xlink:href="#an" x="112.765" y="116.02" fill="red"/><use xlink:href="#ax" x="112.765" y="126.105"/><use xlink:href="#aQ" x="117.248" y="126.105"/><use xlink:href="#aN" x="121.48" y="126.105"/><use xlink:href="#ax" x="127.482" y="126.105"/><use xlink:href="#ay" x="131.965" y="126.105"/><use xlink:href="#aR" x="137.572" y="126.105"/><use xlink:href="#am" x="25.719" y="147.749"/><g fill="red"><use xlink:href="#aS" x="42.229" y="137.664"/><use xlink:href="#aT" x="53.036" y="137.664"/></g><use xlink:href="#aU" x="42.229" y="147.749"/><use xlink:href="#aQ" x="50.287" y="147.749"/><use xlink:href="#aJ" x="54.519" y="147.749"/><use xlink:href="#aP" x="60.054" y="147.749"/><use xlink:href="#aC" x="64.035" y="147.749"/><use xlink:href="#aB" x="73.288" y="147.749"/><use xlink:href="#ay" x="79.29" y="147.749"/><use xlink:href="#ax" x="84.896" y="147.749"/><use xlink:href="#aA" x="93.277" y="147.749"/><use xlink:href="#aC" x="101.239" y="147.749"/><use xlink:href="#at" x="106.595" y="147.749"/><use xlink:href="#aP" x="112.273" y="147.749"/><use xlink:href="#ay" x="116.254" y="147.749"/><use xlink:href="#au" x="121.861" y="147.749"/><use xlink:href="#aV" x="42.229" y="169.393"/><use xlink:href="#aP" x="47.908" y="169.393"/><use xlink:href="#aH" x="51.889" y="169.393"/><use xlink:href="#aq" x="56.97" y="169.393"/><use xlink:href="#aG" x="62.17" y="169.393"/><use xlink:href="#ax" x="72.069" y="169.393"/><use xlink:href="#aQ" x="76.552" y="169.393"/><use xlink:href="#aA" x="80.461" y="169.393"/><use xlink:href="#av" x="88.1" y="169.393"/><use xlink:href="#aP" x="93.635" y="169.393"/><use xlink:href="#aH" x="97.616" y="169.393"/><use xlink:href="#aq" x="102.697" y="169.393"/><use xlink:href="#aB" x="107.898" y="169.393"/><use xlink:href="#ap" x="113.899" y="169.393"/><use xlink:href="#aq" x="116.649" y="169.393"/><use xlink:href="#aW" x="121.849" y="169.393"/><use xlink:href="#aX" x="135.001" y="159.307" fill="red"/><use xlink:href="#aY" x="135.001" y="169.393"/><use xlink:href="#aA" x="139.484" y="169.393"/><use xlink:href="#ap" x="147.446" y="169.393"/><use xlink:href="#ay" x="150.196" y="169.393"/><use xlink:href="#aQ" x="155.803" y="169.393"/><use xlink:href="#ay" x="160.035" y="169.393"/><use xlink:href="#aR" x="165.642" y="169.393"/><g fill="red"><use xlink:href="#aS" x="42.229" y="180.951"/><use xlink:href="#aT" x="53.036" y="180.951"/></g><use xlink:href="#aU" x="42.229" y="191.036"/><use xlink:href="#aQ" x="50.287" y="191.036"/><use xlink:href="#aJ" x="54.519" y="191.036"/><use xlink:href="#aP" x="60.054" y="191.036"/><use xlink:href="#aC" x="64.035" y="191.036"/><use xlink:href="#aB" x="73.288" y="191.036"/><use xlink:href="#ay" x="79.29" y="191.036"/><use xlink:href="#ax" x="84.896" y="191.036"/><use xlink:href="#aV" x="93.277" y="191.036"/><use xlink:href="#av" x="99.601" y="191.036"/><use xlink:href="#at" x="105.459" y="191.036"/><use xlink:href="#au" x="111.46" y="191.036"/><use xlink:href="#av" x="114.892" y="191.036"/><use xlink:href="#aw" x="120.749" y="191.036"/><use xlink:href="#av" x="126.607" y="191.036"/><use xlink:href="#ax" x="132.465" y="191.036"/><use xlink:href="#au" x="136.948" y="191.036"/><use xlink:href="#ay" x="140.38" y="191.036"/><use xlink:href="#aA" x="145.664" y="191.036"/><use xlink:href="#ap" x="153.626" y="191.036"/><use xlink:href="#au" x="156.375" y="191.036"/><use xlink:href="#aA" x="42.229" y="212.68"/><use xlink:href="#ax" x="50.191" y="212.68"/><use xlink:href="#aH" x="54.674" y="212.68"/><use xlink:href="#aq" x="59.755" y="212.68"/><use xlink:href="#aZ" x="64.955" y="212.68"/><use xlink:href="#ba" x="67.705" y="212.68"/><use xlink:href="#bb" x="73.384" y="212.68"/><use xlink:href="#aW" x="82.888" y="212.68"/><use xlink:href="#ap" x="92.141" y="212.68"/><use xlink:href="#aX" x="94.892" y="202.595" fill="red"/><use xlink:href="#au" x="94.892" y="212.68"/><use xlink:href="#av" x="98.323" y="212.68"/><use xlink:href="#aY" x="104.181" y="212.68"/><use xlink:href="#ar" x="108.664" y="212.68"/><use xlink:href="#ap" x="113.865" y="212.68"/><use xlink:href="#bb" x="116.614" y="212.68"/><use xlink:href="#bc" x="122.221" y="212.68"/><use xlink:href="#at" x="42.229" y="234.324"/><use xlink:href="#aC" x="47.908" y="234.324"/><use xlink:href="#aY" x="53.263" y="234.324"/><use xlink:href="#aW" x="57.747" y="234.324"/><use xlink:href="#aC" x="67" y="234.324"/><use xlink:href="#aD" x="76.253" y="224.238" fill="red"/><use xlink:href="#at" x="76.253" y="234.324"/><use xlink:href="#aC" x="81.932" y="234.324"/><use xlink:href="#aZ" x="87.287" y="234.324"/><use xlink:href="#ap" x="90.037" y="234.324"/><use xlink:href="#aY" x="96.684" y="234.324"/><use xlink:href="#aA" x="101.167" y="234.324"/><use xlink:href="#ap" x="109.129" y="234.324"/><use xlink:href="#aF" x="111.879" y="234.324"/><use xlink:href="#ar" x="117.079" y="234.324"/><use xlink:href="#ap" x="122.28" y="234.324"/><use xlink:href="#ap" x="54.184" y="255.967"/><use xlink:href="#aB" x="60.831" y="255.967"/><use xlink:href="#ap" x="66.832" y="255.967"/><use xlink:href="#aq" x="69.582" y="255.967"/><use xlink:href="#aV" x="74.782" y="255.967"/><use xlink:href="#av" x="81.107" y="255.967"/><use xlink:href="#ba" x="86.965" y="255.967"/><use xlink:href="#ay" x="92.643" y="255.967"/><use xlink:href="#bd" x="98.251" y="245.882" fill="red"/><use xlink:href="#aZ" x="98.251" y="255.967"/><use xlink:href="#ay" x="101.001" y="255.967"/><use xlink:href="#aB" x="106.608" y="255.967"/><use xlink:href="#ap" x="112.609" y="255.967"/><use xlink:href="#aA" x="42.229" y="277.611"/><use xlink:href="#aW" x="54.088" y="277.611"/><use xlink:href="#ap" x="63.342" y="277.611"/><g fill="red"><use xlink:href="#aS" x="66.092" y="267.525"/><use xlink:href="#aT" x="76.899" y="267.525"/></g><use xlink:href="#au" x="66.092" y="277.611"/><use xlink:href="#av" x="69.523" y="277.611"/><use xlink:href="#aY" x="75.381" y="277.611"/><use xlink:href="#ar" x="79.864" y="277.611"/><use xlink:href="#ap" x="85.065" y="277.611"/><use xlink:href="#aR" x="87.814" y="277.611"/><use xlink:href="#be" x="22.36" y="299.254"/><use xlink:href="#aI" x="42.229" y="299.254"/><use xlink:href="#aC" x="50" y="299.254"/><use xlink:href="#aY" x="55.356" y="299.254"/><use xlink:href="#aW" x="59.839" y="299.254"/><use xlink:href="#aC" x="69.092" y="299.254"/><use xlink:href="#aX" x="78.346" y="289.169" fill="red"/><use xlink:href="#at" x="78.346" y="299.254"/><use xlink:href="#aC" x="84.025" y="299.254"/><use xlink:href="#aZ" x="89.38" y="299.254"/><use xlink:href="#ap" x="92.13" y="299.254"/><use xlink:href="#aM" x="42.229" y="320.898"/><use xlink:href="#aq" x="47.716" y="320.898"/><use xlink:href="#aw" x="52.917" y="320.898"/><use xlink:href="#av" x="58.775" y="320.898"/><use xlink:href="#ar" x="68.53" y="320.898"/><use xlink:href="#as" x="73.73" y="320.898"/><use xlink:href="#aA" x="79.732" y="320.898"/><use xlink:href="#ay" x="87.371" y="320.898"/><use xlink:href="#au" x="92.978" y="320.898"/><use xlink:href="#aC" x="96.732" y="320.898"/><use xlink:href="#aN" x="105.985" y="320.898"/><use xlink:href="#aA" x="111.664" y="320.898"/><use xlink:href="#ap" x="119.626" y="320.898"/><use xlink:href="#aq" x="122.375" y="320.898"/><use xlink:href="#aZ" x="127.576" y="320.898"/><use xlink:href="#at" x="130.325" y="320.898"/><use xlink:href="#ap" x="136.327" y="320.898"/><use xlink:href="#aq" x="139.076" y="320.898"/><use xlink:href="#aB" x="144.277" y="320.898"/><use xlink:href="#ap" x="150.278" y="320.898"/><use xlink:href="#aq" x="153.028" y="320.898"/><use xlink:href="#aW" x="158.228" y="320.898"/><use xlink:href="#bc" x="167.482" y="320.898"/><use xlink:href="#ar" x="42.229" y="342.542"/><use xlink:href="#as" x="47.429" y="342.542"/><use xlink:href="#aA" x="53.431" y="342.542"/><use xlink:href="#ay" x="61.07" y="342.542"/><use xlink:href="#au" x="66.677" y="342.542"/><use xlink:href="#aC" x="70.431" y="342.542"/><use xlink:href="#aM" x="79.684" y="342.542"/><use xlink:href="#aq" x="85.171" y="342.542"/><use xlink:href="#aw" x="90.372" y="342.542"/><use xlink:href="#av" x="96.23" y="342.542"/><use xlink:href="#aG" x="105.985" y="342.542"/><use xlink:href="#ay" x="111.986" y="342.542"/><use xlink:href="#aP" x="117.271" y="342.542"/><use xlink:href="#aW" x="121.252" y="342.542"/><use xlink:href="#av" x="130.505" y="342.542"/><use xlink:href="#aA" x="136.04" y="342.542"/><use xlink:href="#aq" x="143.679" y="342.542"/><use xlink:href="#aL" x="148.88" y="342.542"/><use xlink:href="#aD" x="155.863" y="332.456" fill="red"/><use xlink:href="#au" x="155.863" y="342.542"/><use xlink:href="#ay" x="159.294" y="342.542"/><use xlink:href="#ax" x="164.901" y="342.542"/><use xlink:href="#ba" x="169.384" y="342.542"/><use xlink:href="#ap" x="175.063" y="342.542"/><use xlink:href="#bc" x="177.812" y="342.542"/><use xlink:href="#au" x="42.229" y="364.185"/><use xlink:href="#ay" x="45.66" y="364.185"/><use xlink:href="#ax" x="51.267" y="364.185"/><use xlink:href="#ba" x="55.75" y="364.185"/><use xlink:href="#ap" x="61.429" y="364.185"/><use xlink:href="#aL" x="68.076" y="364.185"/><use xlink:href="#aq" x="71.16" y="364.185"/><use xlink:href="#aw" x="76.361" y="364.185"/><use xlink:href="#av" x="82.218" y="364.185"/><use xlink:href="#aA" x="91.974" y="364.185"/><use xlink:href="#ap" x="99.936" y="364.185"/><use xlink:href="#aq" x="102.685" y="364.185"/><use xlink:href="#aZ" x="107.886" y="364.185"/><use xlink:href="#ba" x="110.636" y="364.185"/><use xlink:href="#ap" x="116.314" y="364.185"/><use xlink:href="#aq" x="119.064" y="364.185"/><use xlink:href="#aL" x="124.264" y="364.185"/><use xlink:href="#aW" x="131.246" y="364.185"/><use xlink:href="#ap" x="140.499" y="364.185"/><use xlink:href="#bd" x="143.25" y="354.1" fill="red"/><use xlink:href="#au" x="143.25" y="364.185"/><use xlink:href="#av" x="146.681" y="364.185"/><use xlink:href="#aY" x="152.539" y="364.185"/><use xlink:href="#ar" x="157.022" y="364.185"/><use xlink:href="#ap" x="162.223" y="364.185"/><use xlink:href="#bc" x="164.972" y="364.185"/><use xlink:href="#ba" x="42.229" y="385.829"/><use xlink:href="#aQ" x="47.908" y="385.829"/><use xlink:href="#aJ" x="52.14" y="385.829"/><use xlink:href="#aP" x="57.675" y="385.829"/><use xlink:href="#bb" x="61.656" y="385.829"/><use xlink:href="#aB" x="71.16" y="385.829"/><use xlink:href="#ay" x="77.162" y="385.829"/><use xlink:href="#ax" x="82.768" y="385.829"/><use xlink:href="#aN" x="91.149" y="385.829"/><use xlink:href="#ba" x="97.15" y="385.829"/><use xlink:href="#av" x="102.506" y="385.829"/><use xlink:href="#ar" x="108.687" y="385.829"/><use xlink:href="#as" x="113.887" y="385.829"/><use xlink:href="#ay" x="119.889" y="385.829"/><use xlink:href="#au" x="125.496" y="385.829"/><use xlink:href="#aA" x="54.184" y="407.473"/><use xlink:href="#aM" x="66.043" y="407.473"/><use xlink:href="#aq" x="71.531" y="407.473"/><use xlink:href="#aH" x="76.731" y="407.473"/><use xlink:href="#aN" x="81.812" y="407.473"/><use xlink:href="#ax" x="87.813" y="407.473"/><use xlink:href="#ap" x="92.297" y="407.473"/><use xlink:href="#aq" x="95.046" y="407.473"/><use xlink:href="#aO" x="104.144" y="407.473"/><use xlink:href="#as" x="111.628" y="407.473"/><use xlink:href="#aP" x="117.629" y="407.473"/><use xlink:href="#aC" x="121.61" y="407.473"/><g fill="red"><use xlink:href="#aS" x="126.967" y="397.387"/><use xlink:href="#aT" x="137.774" y="397.387"/></g><use xlink:href="#ax" x="126.967" y="407.473"/><use xlink:href="#aQ" x="131.45" y="407.473"/><use xlink:href="#aN" x="135.682" y="407.473"/><use xlink:href="#ax" x="141.684" y="407.473"/><use xlink:href="#ap" x="146.167" y="407.473"/><use xlink:href="#aq" x="148.916" y="407.473"/><use xlink:href="#aR" x="154.117" y="407.473"/><use xlink:href="#am" x="189.775" y="61.174"/><use xlink:href="#an" x="206.285" y="51.089" fill="red"/><use xlink:href="#ao" x="206.285" y="61.174"/><use xlink:href="#ap" x="214.486" y="61.174"/><use xlink:href="#aq" x="217.236" y="61.174"/><use xlink:href="#ar" x="222.436" y="61.174"/><use xlink:href="#as" x="227.637" y="61.174"/><use xlink:href="#at" x="237.535" y="61.174"/><use xlink:href="#au" x="243.537" y="61.174"/><use xlink:href="#av" x="246.968" y="61.174"/><use xlink:href="#aw" x="252.826" y="61.174"/><use xlink:href="#av" x="258.684" y="61.174"/><use xlink:href="#ax" x="264.542" y="61.174"/><use xlink:href="#au" x="269.025" y="61.174"/><use xlink:href="#ay" x="272.456" y="61.174"/><use xlink:href="#az" x="278.064" y="51.089" fill="red"/><use xlink:href="#aA" x="278.064" y="61.174"/><use xlink:href="#ap" x="286.026" y="61.174"/><use xlink:href="#av" x="288.776" y="61.174"/><use xlink:href="#aB" x="294.634" y="61.174"/><use xlink:href="#aC" x="300.635" y="61.174"/><use xlink:href="#bf" x="309.888" y="61.174"/><use xlink:href="#am" x="189.775" y="82.818"/><g fill="red"><use xlink:href="#aS" x="206.285" y="72.733"/><use xlink:href="#aT" x="217.092" y="72.733"/></g><use xlink:href="#bg" x="206.285" y="82.818"/><use xlink:href="#ao" x="221.169" y="82.818"/><use xlink:href="#ap" x="229.37" y="82.818"/><use xlink:href="#aW" x="232.12" y="82.818"/><use xlink:href="#aW" x="245.27" y="82.818"/><use xlink:href="#ay" x="254.523" y="82.818"/><use xlink:href="#aW" x="260.13" y="82.818"/><use xlink:href="#aC" x="269.384" y="82.818"/><use xlink:href="#av" x="206.285" y="104.462"/><use xlink:href="#aG" x="212.466" y="104.462"/><use xlink:href="#ba" x="218.467" y="104.462"/><use xlink:href="#aN" x="224.146" y="104.462"/><use xlink:href="#aX" x="230.148" y="94.376" fill="red"/><use xlink:href="#aV" x="230.148" y="104.462"/><use xlink:href="#ap" x="236.149" y="104.462"/><use xlink:href="#aq" x="238.899" y="104.462"/><use xlink:href="#aB" x="244.099" y="104.462"/><use xlink:href="#ap" x="250.101" y="104.462"/><use xlink:href="#aq" x="252.851" y="104.462"/><use xlink:href="#bc" x="258.051" y="104.462"/><g fill="red"><use xlink:href="#aS" x="206.285" y="116.02"/><use xlink:href="#aT" x="217.092" y="116.02"/></g><use xlink:href="#aV" x="206.285" y="126.105"/><use xlink:href="#aP" x="211.964" y="126.105"/><use xlink:href="#aH" x="215.945" y="126.105"/><use xlink:href="#aq" x="221.026" y="126.105"/><use xlink:href="#at" x="226.226" y="126.105"/><use xlink:href="#ay" x="232.227" y="126.105"/><use xlink:href="#ar" x="237.834" y="126.105"/><use xlink:href="#aH" x="243.035" y="126.105"/><use xlink:href="#aq" x="248.116" y="126.105"/><use xlink:href="#aB" x="253.316" y="126.105"/><use xlink:href="#ap" x="259.317" y="126.105"/><use xlink:href="#aq" x="262.067" y="126.105"/><use xlink:href="#aw" x="271.165" y="126.105"/><use xlink:href="#aP" x="277.023" y="126.105"/><use xlink:href="#aH" x="281.004" y="126.105"/><use xlink:href="#aq" x="286.085" y="126.105"/><use xlink:href="#ar" x="291.285" y="126.105"/><use xlink:href="#as" x="296.485" y="126.105"/><use xlink:href="#aJ" x="302.487" y="126.105"/><use xlink:href="#aA" x="308.022" y="126.105"/><use xlink:href="#aA" x="206.285" y="147.749"/><use xlink:href="#aq" x="213.924" y="147.749"/><use xlink:href="#aG" x="219.125" y="147.749"/><use xlink:href="#au" x="225.126" y="147.749"/><use xlink:href="#aN" x="228.88" y="147.749"/><use xlink:href="#aw" x="234.881" y="147.749"/><use xlink:href="#at" x="244.637" y="147.749"/><use xlink:href="#av" x="250.961" y="147.749"/><use xlink:href="#aw" x="256.819" y="147.749"/><use xlink:href="#ay" x="262.677" y="147.749"/><use xlink:href="#ar" x="268.284" y="147.749"/><use xlink:href="#aQ" x="273.484" y="147.749"/><use xlink:href="#aA" x="277.393" y="147.749"/><use xlink:href="#ay" x="285.033" y="147.749"/><use xlink:href="#aM" x="294.537" y="147.749"/><use xlink:href="#aq" x="300.024" y="147.749"/><use xlink:href="#aw" x="305.225" y="147.749"/><use xlink:href="#av" x="311.083" y="147.749"/><use xlink:href="#aW" x="320.838" y="147.749"/><use xlink:href="#ap" x="330.091" y="147.749"/><use xlink:href="#aX" x="332.843" y="137.664" fill="red"/><use xlink:href="#au" x="332.843" y="147.749"/><use xlink:href="#av" x="336.274" y="147.749"/><use xlink:href="#aY" x="342.132" y="147.749"/><use xlink:href="#ar" x="346.615" y="147.749"/><use xlink:href="#ap" x="351.816" y="147.749"/><use xlink:href="#bc" x="354.565" y="147.749"/><use xlink:href="#aD" x="206.285" y="159.307" fill="red"/><use xlink:href="#ay" x="206.285" y="169.393"/><use xlink:href="#at" x="211.892" y="169.393"/><use xlink:href="#aC" x="217.571" y="169.393"/><use xlink:href="#aA" x="226.824" y="169.393"/><use xlink:href="#aV" x="238.683" y="169.393"/><use xlink:href="#aq" x="245.007" y="169.393"/><use xlink:href="#au" x="250.208" y="169.393"/><use xlink:href="#aB" x="253.962" y="169.393"/><use xlink:href="#ap" x="259.963" y="169.393"/><use xlink:href="#bd" x="266.611" y="159.307" fill="red"/><use xlink:href="#ar" x="266.611" y="169.393"/><use xlink:href="#aH" x="271.811" y="169.393"/><use xlink:href="#ay" x="276.892" y="169.393"/><use xlink:href="#ax" x="282.499" y="169.393"/><use xlink:href="#aJ" x="286.982" y="169.393"/><use xlink:href="#aA" x="292.517" y="169.393"/><use xlink:href="#aO" x="206.285" y="191.036"/><use xlink:href="#as" x="213.769" y="191.036"/><use xlink:href="#aP" x="219.77" y="191.036"/><use xlink:href="#aC" x="223.751" y="191.036"/><use xlink:href="#ax" x="229.107" y="191.036"/><use xlink:href="#aQ" x="233.59" y="191.036"/><use xlink:href="#aN" x="237.822" y="191.036"/><use xlink:href="#ax" x="243.824" y="191.036"/><use xlink:href="#at" x="252.204" y="191.036"/><use xlink:href="#aC" x="257.883" y="191.036"/><use xlink:href="#au" x="263.239" y="191.036"/><use xlink:href="#aA" x="270.89" y="191.036"/><use xlink:href="#ax" x="278.852" y="191.036"/><use xlink:href="#aH" x="283.335" y="191.036"/><use xlink:href="#aC" x="288.416" y="191.036"/><use xlink:href="#ax" x="293.772" y="191.036"/><use xlink:href="#aQ" x="298.255" y="191.036"/><use xlink:href="#ba" x="302.487" y="191.036"/><use xlink:href="#ap" x="308.166" y="191.036"/><use xlink:href="#aW" x="310.915" y="191.036"/><use xlink:href="#aA" x="324.066" y="191.036"/><use xlink:href="#aq" x="331.705" y="191.036"/><g fill="red"><use xlink:href="#aS" x="340.805" y="180.951"/><use xlink:href="#aT" x="351.612" y="180.951"/></g><use xlink:href="#aA" x="340.805" y="191.036"/><use xlink:href="#ax" x="348.767" y="191.036"/><use xlink:href="#aH" x="353.25" y="191.036"/><use xlink:href="#aC" x="358.331" y="191.036"/><use xlink:href="#ax" x="363.687" y="191.036"/><use xlink:href="#aQ" x="368.17" y="191.036"/><use xlink:href="#ba" x="372.402" y="191.036"/><use xlink:href="#ap" x="378.081" y="191.036"/><use xlink:href="#ar" x="380.83" y="191.036"/><use xlink:href="#as" x="386.031" y="191.036"/><use xlink:href="#bh" x="392.032" y="191.036"/><use xlink:href="#be" x="186.416" y="212.68"/><use xlink:href="#aI" x="206.285" y="212.68"/><use xlink:href="#aC" x="214.056" y="212.68"/><use xlink:href="#aY" x="219.412" y="212.68"/><use xlink:href="#aW" x="223.895" y="212.68"/><use xlink:href="#aC" x="233.148" y="212.68"/><use xlink:href="#aX" x="242.402" y="202.595" fill="red"/><use xlink:href="#at" x="242.402" y="212.68"/><use xlink:href="#aC" x="248.081" y="212.68"/><use xlink:href="#aZ" x="253.436" y="212.68"/><use xlink:href="#ap" x="256.186" y="212.68"/><use xlink:href="#bf" x="262.833" y="212.68"/><use xlink:href="#am" x="189.775" y="240.301"/><use xlink:href="#an" x="206.285" y="230.216" fill="red"/><use xlink:href="#ao" x="206.285" y="240.301"/><use xlink:href="#ap" x="214.486" y="240.301"/><use xlink:href="#aq" x="217.236" y="240.301"/><use xlink:href="#ar" x="222.436" y="240.301"/><use xlink:href="#as" x="227.637" y="240.301"/><use xlink:href="#at" x="237.535" y="240.301"/><use xlink:href="#au" x="243.537" y="240.301"/><use xlink:href="#av" x="246.968" y="240.301"/><use xlink:href="#aw" x="252.826" y="240.301"/><use xlink:href="#av" x="258.684" y="240.301"/><use xlink:href="#ax" x="264.542" y="240.301"/><use xlink:href="#au" x="269.025" y="240.301"/><use xlink:href="#ay" x="272.456" y="240.301"/><use xlink:href="#az" x="278.064" y="230.216" fill="red"/><use xlink:href="#aA" x="278.064" y="240.301"/><use xlink:href="#ap" x="286.026" y="240.301"/><use xlink:href="#av" x="288.776" y="240.301"/><use xlink:href="#aB" x="294.634" y="240.301"/><use xlink:href="#aC" x="300.635" y="240.301"/><use xlink:href="#bf" x="309.888" y="240.301"/><use xlink:href="#am" x="189.775" y="261.945"/><g fill="red"><use xlink:href="#aS" x="206.285" y="251.859"/><use xlink:href="#aT" x="217.092" y="251.859"/></g><use xlink:href="#bg" x="206.285" y="261.945"/><use xlink:href="#ao" x="221.169" y="261.945"/><use xlink:href="#ap" x="229.37" y="261.945"/><use xlink:href="#aW" x="232.12" y="261.945"/><use xlink:href="#aQ" x="245.27" y="261.945"/><use xlink:href="#ay" x="249.502" y="261.945"/><use xlink:href="#ba" x="255.109" y="261.945"/><use xlink:href="#bi" x="260.788" y="261.945"/><use xlink:href="#aq" x="265.869" y="261.945"/><use xlink:href="#ap" x="274.967" y="261.945"/><use xlink:href="#aW" x="281.613" y="261.945"/><use xlink:href="#aC" x="290.867" y="261.945"/><use xlink:href="#bc" x="295.242" y="261.945"/><use xlink:href="#aw" x="206.285" y="283.588"/><use xlink:href="#aG" x="212.143" y="283.588"/><use xlink:href="#aC" x="218.144" y="283.588"/><use xlink:href="#aY" x="223.5" y="283.588"/><use xlink:href="#aW" x="227.983" y="283.588"/><use xlink:href="#aC" x="237.236" y="283.588"/><use xlink:href="#aN" x="246.49" y="283.588"/><use xlink:href="#ax" x="252.491" y="283.588"/><use xlink:href="#au" x="256.974" y="283.588"/><use xlink:href="#aC" x="260.728" y="283.588"/><use xlink:href="#ax" x="266.084" y="283.588"/><use xlink:href="#aH" x="270.567" y="283.588"/><use xlink:href="#aq" x="275.648" y="283.588"/><use xlink:href="#aZ" x="280.848" y="283.588"/><use xlink:href="#ap" x="283.598" y="283.588"/><use xlink:href="#bj" x="290.245" y="283.588"/><use xlink:href="#au" x="296.749" y="283.588"/><use xlink:href="#av" x="300.18" y="283.588"/><use xlink:href="#aA" x="305.715" y="283.588"/><use xlink:href="#av" x="313.354" y="283.588"/><use xlink:href="#aX" x="323.111" y="273.503" fill="red"/><use xlink:href="#aV" x="323.111" y="283.588"/><use xlink:href="#aP" x="328.79" y="283.588"/><use xlink:href="#ay" x="332.771" y="283.588"/><use xlink:href="#aA" x="338.055" y="283.588"/><use xlink:href="#aG" x="346.017" y="283.588"/><use xlink:href="#aC" x="352.018" y="283.588"/><use xlink:href="#bc" x="356.394" y="283.588"/><g fill="red"><use xlink:href="#aS" x="206.285" y="295.147"/><use xlink:href="#aT" x="217.092" y="295.147"/></g><use xlink:href="#bk" x="206.285" y="305.232"/><use xlink:href="#av" x="214.701" y="305.232"/><use xlink:href="#at" x="220.559" y="305.232"/><use xlink:href="#aP" x="226.238" y="305.232"/><use xlink:href="#bb" x="230.219" y="305.232"/><use xlink:href="#ao" x="239.723" y="305.232"/><use xlink:href="#av" x="247.924" y="305.232"/><use xlink:href="#aA" x="253.459" y="305.232"/><use xlink:href="#ap" x="261.421" y="305.232"/><use xlink:href="#aB" x="264.171" y="305.232"/><use xlink:href="#aF" x="270.173" y="305.232"/><use xlink:href="#av" x="206.285" y="326.876"/><use xlink:href="#aB" x="216.04" y="326.876"/><use xlink:href="#ay" x="222.042" y="326.876"/><use xlink:href="#ax" x="227.649" y="326.876"/><use xlink:href="#aH" x="232.132" y="326.876"/><use xlink:href="#aC" x="237.213" y="326.876"/><use xlink:href="#aW" x="242.568" y="326.876"/><use xlink:href="#aH" x="255.719" y="326.876"/><use xlink:href="#at" x="260.8" y="326.876"/><use xlink:href="#ay" x="266.801" y="326.876"/><use xlink:href="#aX" x="272.41" y="316.79" fill="red"/><use xlink:href="#aA" x="272.41" y="326.876"/><use xlink:href="#ap" x="280.372" y="326.876"/><use xlink:href="#aq" x="283.122" y="326.876"/><use xlink:href="#aB" x="288.322" y="326.876"/><use xlink:href="#ap" x="294.324" y="326.876"/><use xlink:href="#aN" x="297.073" y="326.876"/><use xlink:href="#bc" x="303.075" y="326.876"/><use xlink:href="#aH" x="206.285" y="348.519"/><use xlink:href="#av" x="211.366" y="348.519"/><use xlink:href="#ax" x="217.224" y="348.519"/><use xlink:href="#aQ" x="221.707" y="348.519"/><use xlink:href="#ay" x="225.939" y="348.519"/><use xlink:href="#aZ" x="231.546" y="348.519"/><use xlink:href="#ap" x="234.296" y="348.519"/><use xlink:href="#aY" x="237.045" y="348.519"/><use xlink:href="#aW" x="241.528" y="348.519"/><use xlink:href="#aC" x="250.782" y="348.519"/><use xlink:href="#av" x="260.035" y="348.519"/><use xlink:href="#aV" x="265.893" y="348.519"/><use xlink:href="#ap" x="271.894" y="348.519"/><use xlink:href="#aq" x="274.644" y="348.519"/><use xlink:href="#ar" x="279.844" y="348.519"/><use xlink:href="#aH" x="285.045" y="348.519"/><use xlink:href="#aF" x="290.125" y="348.519"/><use xlink:href="#aQ" x="295.326" y="348.519"/><use xlink:href="#av" x="299.558" y="348.519"/><use xlink:href="#aD" x="305.418" y="338.434" fill="red"/><use xlink:href="#aA" x="305.418" y="348.519"/><use xlink:href="#ay" x="313.057" y="348.519"/><use xlink:href="#aB" x="318.664" y="348.519"/><use xlink:href="#ap" x="324.666" y="348.519"/><use xlink:href="#aV" x="218.241" y="370.163"/><use xlink:href="#aP" x="223.92" y="370.163"/><use xlink:href="#aH" x="227.901" y="370.163"/><use xlink:href="#aq" x="232.982" y="370.163"/><use xlink:href="#aH" x="238.182" y="370.163"/><use xlink:href="#bk" x="247.16" y="370.163"/><use xlink:href="#aN" x="255.576" y="370.163"/><use xlink:href="#ar" x="261.578" y="370.163"/><use xlink:href="#as" x="266.778" y="370.163"/><use xlink:href="#ay" x="272.78" y="370.163"/><use xlink:href="#bl" x="282.284" y="370.163"/><use xlink:href="#aA" x="288.787" y="370.163"/><use xlink:href="#ap" x="296.749" y="370.163"/><use xlink:href="#aF" x="299.499" y="370.163"/><use xlink:href="#bd" x="304.7" y="360.078" fill="red"/><use xlink:href="#aQ" x="304.7" y="370.163"/><use xlink:href="#aq" x="308.932" y="370.163"/><use xlink:href="#aw" x="314.132" y="370.163"/><use xlink:href="#av" x="319.99" y="370.163"/><use xlink:href="#bc" x="325.848" y="370.163"/><use xlink:href="#ba" x="206.285" y="391.807"/><use xlink:href="#aQ" x="211.964" y="391.807"/><use xlink:href="#aJ" x="216.196" y="391.807"/><use xlink:href="#aP" x="221.731" y="391.807"/><use xlink:href="#aC" x="225.712" y="391.807"/><use xlink:href="#aN" x="234.965" y="391.807"/><use xlink:href="#ar" x="240.966" y="391.807"/><use xlink:href="#aH" x="246.167" y="391.807"/><use xlink:href="#aC" x="251.248" y="391.807"/><use xlink:href="#aB" x="256.604" y="391.807"/><use xlink:href="#ap" x="262.605" y="391.807"/><use xlink:href="#au" x="265.355" y="391.807"/><use xlink:href="#aH" x="273.006" y="391.807"/><use xlink:href="#aB" x="281.984" y="391.807"/><use xlink:href="#ay" x="287.985" y="391.807"/><use xlink:href="#ax" x="293.592" y="391.807"/><use xlink:href="#ax" x="301.973" y="391.807"/><use xlink:href="#aA" x="306.456" y="391.807"/><use xlink:href="#aJ" x="314.095" y="391.807"/><use xlink:href="#aL" x="319.953" y="391.807"/><g fill="red"><use xlink:href="#aS" x="326.937" y="381.721"/><use xlink:href="#aT" x="337.744" y="381.721"/></g><use xlink:href="#aZ" x="326.937" y="391.807"/><use xlink:href="#aN" x="329.687" y="391.807"/><use xlink:href="#aG" x="335.688" y="391.807"/><use xlink:href="#aR" x="341.689" y="391.807"/><use xlink:href="#be" x="186.416" y="413.45"/><use xlink:href="#aI" x="206.285" y="413.45"/><use xlink:href="#aC" x="214.056" y="413.45"/><use xlink:href="#aY" x="219.412" y="413.45"/><use xlink:href="#aW" x="223.895" y="413.45"/><use xlink:href="#aC" x="233.148" y="413.45"/><use xlink:href="#aX" x="242.402" y="403.365" fill="red"/><use xlink:href="#at" x="242.402" y="413.45"/><use xlink:href="#aC" x="248.081" y="413.45"/><use xlink:href="#aZ" x="253.436" y="413.45"/><use xlink:href="#ap" x="256.186" y="413.45"/><use xlink:href="#bf" x="262.833" y="413.45"/><g clip-path="url(#bm)"><path fill="url(#bn)" d="M15.023 579.684v-11.336h388.063v11.336Zm0 0"/></g><use xlink:href="#bo" x="17.008" y="577.985"/><use xlink:href="#bp" x="23.739" y="577.985"/><use xlink:href="#bq" x="30.469" y="577.985"/><use xlink:href="#br" x="266.486" y="577.985"/><use xlink:href="#bs" x="272.149" y="577.985"/><use xlink:href="#bt" x="276.549" y="577.985"/><use xlink:href="#bu" x="282.024" y="577.985"/><use xlink:href="#bv" x="285.567" y="577.985"/><use xlink:href="#bw" x="289.751" y="577.985"/><use xlink:href="#bx" x="295.547" y="577.985"/><use xlink:href="#by" x="299.515" y="577.985"/><use xlink:href="#bx" x="303.483" y="577.985"/><use xlink:href="#bz" x="307.451" y="577.985"/><use xlink:href="#bA" x="314.104" y="577.985"/><use xlink:href="#bx" x="324.733" y="577.985"/><use xlink:href="#bB" x="328.701" y="577.985"/><use xlink:href="#bC" x="335.354" y="577.985"/><use xlink:href="#bx" x="340.92" y="577.985"/><use xlink:href="#by" x="344.888" y="577.985"/><use xlink:href="#bx" x="348.856" y="577.985"/><use xlink:href="#bD" x="352.824" y="577.985"/><use xlink:href="#bA" x="359.477" y="577.985"/><use xlink:href="#bE" x="370.106" y="577.985"/><use xlink:href="#bx" x="372.358" y="577.985"/><use xlink:href="#bF" x="376.327" y="577.985"/><use xlink:href="#bx" x="380.295" y="577.985"/><use xlink:href="#bG" x="384.263" y="577.985"/><use xlink:href="#bF" x="389.201" y="577.985"/><use xlink:href="#by" x="393.169" y="577.985"/><use xlink:href="#bF" x="397.137" y="577.985"/><path fill="#f2f2f2" stroke="#000" stroke-miterlimit="10" stroke-width=".797" d="M196.602 576.055v-3.989a2.99 2.99 0 0 1 2.988-2.988h18.93a2.99 2.99 0 0 1 2.988 2.988v3.989a2.99 2.99 0 0 1-2.988 2.988h-18.93a2.99 2.99 0 0 1-2.988-2.988Zm0 0"/><use xlink:href="#bH" x="198.439" y="576.948"/><use xlink:href="#bI" x="203.747" y="576.948"/><use xlink:href="#bI" x="209.055" y="576.948"/><use xlink:href="#bJ" x="214.363" y="576.948"/></svg>