<svg xmlns="http://www.w3.org/2000/svg" xmlns:xlink="http://www.w3.org/1999/xlink" width="559.371" height="793.701" viewBox="0 0 419.528 595.276"><defs><path id="d" d="M3.344 2.297v-.078L1.5-2.5l1.844-4.703v-.078c0-.11-.078-.203-.188-.203a.24.24 0 0 0-.203.14L1.11-2.562c-.015.015-.015.046-.015.062 0 .031 0 .063.015.078L2.953 2.36a.24.24 0 0 0 .203.141c.11 0 .188-.094.188-.203m0 0"/><path id="e" d="M5.688-6.031c.062-.235.015-.485-.094-.625C5.39-6.922 5.03-7 4.656-7c-.61 0-1.172.078-1.718.516-.376.297-.641.687-.75 1.093-.094.391-.094.782.109 1.063.156.219.406.344.656.453l-.015.094c-.532.078-1.047.265-1.485.61-.469.39-.844.905-.984 1.452-.11.438-.094.89.14 1.203.172.22.422.375.704.47.328.124.718.171 1.093.171.75 0 1.5-.281 2.157-.797.093-.078.218-.25.328-.39l-.328-.47-.125.032c-.11.281-.266.531-.5.719-.391.312-.844.547-1.282.547-.469 0-.953-.078-1.203-.422-.234-.328-.25-.766-.14-1.219s.359-.89.765-1.203c.281-.219.64-.344.969-.406.469-.11.922-.141 1.375-.141l.062-.25A3.2 3.2 0 0 1 3.516-4c-.22-.062-.422-.14-.563-.328-.187-.234-.219-.594-.125-.938.11-.421.36-.859.735-1.171.25-.188.578-.25.859-.25.234 0 .39.046.5.171.078.079.125.22.094.391a1 1 0 0 1-.22.375.56.56 0 0 0-.155.234.28.28 0 0 0 .03.204c.048.062.095.078.22.078a.8.8 0 0 0 .515-.235c.188-.187.235-.36.282-.562m0 0"/><path id="f" d="M2.781-2.5c0-.016 0-.047-.015-.062L.922-7.344c-.031-.078-.11-.14-.188-.14a.207.207 0 0 0-.203.203v.078L2.375-2.5.531 2.219v.078c0 .11.094.203.203.203.079 0 .157-.062.188-.14l1.844-4.782c.015-.015.015-.047.015-.078m0 0"/><path id="g" d="M6.047-.156c0-.094-.11-.11-.14-.11-.25 0-.376-.03-.5-.312L4.218-3.297 5.766-4.5c.218-.172.812-.625 1.312-.672.063-.016.156-.031.156-.156 0-.047-.03-.11-.109-.11 0 0-.234.016-.281.016h-.328c-.266 0-.563-.016-.813-.016-.047 0-.172 0-.172.141 0 .11.14.125.14.125.11 0 .173.047.173.11 0 .125-.14.25-.172.28l-.047.048c-.016.015-.031.015-.094.078L2.563-2.344l.609-2.5c.078-.265.125-.328.61-.328.171 0 .265 0 .265-.156 0-.047-.031-.11-.125-.11-.14 0-.313.016-.453.016h-.953l-.453-.016c-.047 0-.172 0-.172.141 0 .125.093.125.234.125.219 0 .438 0 .438.11 0 .046 0 .062-.032.171L1.47-.609c-.078.28-.125.343-.61.343-.171 0-.265 0-.265.157C.594-.047.64 0 .719 0c.031 0 .39-.016.453-.031h.484c.672 0 .89.031.938.031s.156 0 .156-.156c0-.11-.094-.11-.234-.11-.25 0-.438 0-.438-.125 0-.046.047-.218.078-.328l.297-1.203 1.25-.969.985 2.25c.046.094.046.11.046.141 0 .203-.187.234-.343.234-.094 0-.188.016-.188.157 0 .062.047.109.11.109.28 0 .578-.031.843-.031.672 0 .64.031.735.031.03 0 .156 0 .156-.156m0 0"/><path id="h" d="M2.828-1.14c0-.11-.11-.11-.156-.11-.125 0-.125.031-.172.172-.14.516-.406.937-.734.937-.157 0-.188-.109-.188-.25 0-.187.063-.328.188-.656l.515-1.39c.063-.172.094-.25.094-.422 0-.438-.312-.657-.656-.657-.75 0-1.078 1.11-1.078 1.22 0 .108.093.108.14.108.14 0 .14-.03.172-.171.125-.407.375-.938.75-.938.14 0 .172.11.172.25 0 .188-.047.344-.156.61L1.156-.953a1.1 1.1 0 0 0-.078.375c0 .36.266.656.672.656.75 0 1.078-1.125 1.078-1.219m.125-3.704a.354.354 0 0 0-.36-.375.55.55 0 0 0-.53.532c0 .234.171.359.359.359.265 0 .531-.234.531-.516m0 0"/><path id="i" d="M4.14-1.14c0-.11-.109-.11-.14-.11-.14 0-.156.047-.187.172-.11.453-.266.937-.61.937-.14 0-.25-.078-.25-.375 0-.125.031-.265.063-.39.03-.125.03-.172.03-.25 0-.563-.546-.75-1.108-.86.296-.187.625-.53.671-.593.454-.5.766-.688 1.063-.688.11 0 .172.063.203.11-.156.03-.344.171-.344.39s.188.266.281.266c.204 0 .407-.14.407-.453 0-.266-.157-.532-.547-.532s-.75.266-1.188.735c-.484.515-.656.594-.796.672l.796-3.188c0-.031.016-.094.016-.125 0-.11-.125-.11-.219-.094l-.828.063c-.11.016-.187.016-.187.156 0 .125.093.125.203.125.375 0 .375.047.375.11a.7.7 0 0 1-.032.171L.657-.266c0 .032-.015.079-.015.11 0 .11.078.234.25.234.14 0 .265-.094.328-.297l.39-1.578c.313.031.891.172.891.656 0 .047 0 .079-.031.188a1 1 0 0 0-.031.25c0 .437.296.781.734.781.36 0 .562-.265.656-.406.188-.297.313-.766.313-.813m0 0"/><path id="j" d="M4.297-2.172c0-.828-.547-1.344-1.266-1.344C2-3.516.921-2.437.921-1.266c0 .875.595 1.344 1.267 1.344 1.062 0 2.109-1.094 2.109-2.25m-.594-.281c0 .265-.125 1.031-.437 1.578-.266.438-.688.734-1.078.734-.297 0-.672-.203-.672-.843 0-.36.172-1.11.422-1.547.343-.578.812-.766 1.078-.766.39 0 .687.297.687.844m0 0"/><path id="k" d="M8.75-4.094c0-2.39-.875-4.468-4-4.468-3.312 0-4.016 2.28-4.016 4.468 0 2.235.766 4.36 4 4.36 3.079 0 4.016-1.907 4.016-4.36M7-4.28C7-3.22 7-.688 4.75-.688c-2.266 0-2.266-2.5-2.266-3.593 0-1.047 0-3.344 2.25-3.344C7-7.625 7-5.359 7-4.281m0 0"/><path id="l" d="M4.453-.562c0-.032-.016-.125-.094-.375-.062-.235-.078-.313-.187-.313-.063 0-.078.016-.14.094-.141.093-.454.36-.954.36-.297 0-.469-.204-.469-1V-4.61h1.063c.14 0 .578 0 .578-.438 0-.422-.437-.422-.578-.422H2.609v-1c0-.375-.093-.578-.578-.578h-.375c-.422 0-.562.14-.562.578v1H.812c-.125 0-.578 0-.578.422 0 .438.438.438.579.438h.234v3.015c0 1.219.437 1.719 1.266 1.719.109 0 .624 0 1.25-.187.203-.063.89-.266.89-.5m0 0"/><path id="m" d="M6.188-2.687c0-1.97-.954-2.985-2.907-2.985-1.984 0-2.906 1.063-2.906 2.984C.375-.733 1.406.126 3.281.126s2.907-.86 2.907-2.812m-1.625-.141c0 .937 0 2.031-1.282 2.031C2-.797 2-1.875 2-2.828c0-.922 0-1.985 1.281-1.985s1.281 1.047 1.281 1.985m0 0"/><path id="n" d="M5.11-1.781V-7.72c0-.39-.094-.578-.579-.578h-.578c-.453 0-.578.156-.578.578v5.86c0 .25 0 .922-1.047.922-.687 0-1.078-.375-1.234-.594-.11-.125-.125-.14-.203-.14-.11 0-.141.109-.157.218C.672-1.078.547-.437.547-.391c0 .11.078.141.297.235a5 5 0 0 0 1.969.422c1.28 0 2.296-.641 2.296-2.047m0 0"/><path id="o" d="M5.672-.578v-3.203c0-1.89-1.828-1.89-2.422-1.89-.562 0-1.156.046-1.953.374-.25.11-.313.14-.313.281 0 .079.063.766.079.875a.17.17 0 0 0 .156.125c.062 0 .093-.03.125-.078.515-.531 1.125-.797 1.86-.797.64 0 .843.391.843 1.094v.422c-.422 0-3.563.031-3.563 1.781C.484-.75 1.156.125 2.22.125c.406 0 1.297-.11 1.86-.937v.234c0 .39.077.578.577.578h.438c.453 0 .578-.156.578-.578M4.047-1.844c0 1.11-1.14 1.11-1.172 1.11-.516 0-.828-.422-.828-.875 0-1.172 1.656-1.266 2-1.266Zm0 0"/><path id="p" d="M5.969-.578v-3.313c0-1.218-.516-1.718-1.735-1.718-1.265 0-1.796.906-1.953 1.234h-.015v-.594c0-.39-.079-.578-.563-.578h-.406c-.438 0-.578.125-.578.578v4.39c0 .438.125.579.578.579h.469c.453 0 .578-.156.578-.578v-2.64c0-1.032.687-1.532 1.312-1.532.578 0 .688.281.688.89v3.282c0 .39.093.578.578.578h.484c.453 0 .563-.156.563-.578m0 0"/><path id="q" d="M2.313-.578v-4.328c0-.375-.079-.563-.563-.563h-.453c-.422 0-.563.125-.563.563v4.328c0 .437.125.578.563.578h.453c.453 0 .563-.156.563-.578m.093-6.672v-.219c0-.39-.094-.578-.578-.578h-.61c-.452 0-.577.156-.577.578v.219c0 .36.062.578.578.578h.61c.5 0 .577-.219.577-.578m0 0"/><path id="r" d="M5.719-3.11c0-1.546-.703-2.562-2.485-2.562-1.921 0-2.859 1.063-2.859 2.89 0 1.954 1.125 2.907 3 2.907.469 0 1.14-.047 1.938-.453.25-.125.343-.156.343-.313 0-.078-.031-.421-.047-.515-.046-.375-.062-.39-.171-.39-.047 0-.079 0-.204.124a2.7 2.7 0 0 1-1.796.688c-1.36 0-1.5-1.063-1.532-1.828h3.25c.266 0 .563 0 .563-.547m-1.313-.078h-2.5c.047-.734.282-1.624 1.328-1.624.954 0 1.125.687 1.172 1.625m0 0"/><path id="s" d="M6.25-2.766c0-.562 0-2.843-2.25-2.843-.969 0-1.578.547-1.687.672V-7.72c0-.39-.079-.578-.563-.578h-.453c-.422 0-.563.14-.563.578v7.14C.734-.14.86 0 1.297 0h.484c.203 0 .563 0 .578-.469a1.74 1.74 0 0 0 1.344.594c2.547 0 2.547-2.281 2.547-2.89m-1.625.016c0 .89 0 2.016-1.344 2.016-.5 0-.797-.297-.922-.453v-3.141c.157-.14.516-.422 1.063-.422 1.203 0 1.203 1.11 1.203 2m0 0"/><path id="t" d="M8.594-5.14c-.031-.329-.25-.329-.625-.329-.563 0-.703.032-.875.657l-.969 3.468-1.016-3.593c-.062-.266-.156-.532-.703-.532-.172 0-.453 0-.61.266-.108.187-.64 2.25-1.062 3.656l-.953-3.39c-.125-.407-.25-.532-.734-.532h-.25c-.219 0-.469 0-.516.328L1.547-.547C1.703 0 2.016 0 2.313 0h.343c.563 0 .656-.172.781-.656.282-1 .704-2.5.766-3.125v-.016c.078.688.61 2.578.75 3.14.14.423.203.657.797.657h.813c.515 0 .64-.14.75-.547Zm0 0"/><path id="u" d="M9.64-.578v-3.313c0-1.218-.53-1.718-1.75-1.718-.843 0-1.5.39-1.937 1.187-.187-1.14-1.203-1.187-1.703-1.187-.234 0-.734 0-1.281.39-.36.282-.61.672-.688.844h-.015v-.594c0-.39-.079-.578-.563-.578h-.406c-.438 0-.578.125-.578.578v4.39c0 .438.125.579.578.579h.469c.453 0 .578-.156.578-.578v-2.64c0-1.079.734-1.532 1.312-1.532s.703.25.703.89v3.282c0 .437.141.578.579.578h.484c.453 0 .562-.156.562-.578v-2.64c0-1.079.735-1.532 1.313-1.532s.719.25.719.89v3.282c0 .437.125.578.562.578h.485c.453 0 .578-.156.578-.578m0 0"/><path id="v" d="M6.25-2.766c0-.578 0-2.843-2.156-2.843-.719 0-1.344.297-1.782.703 0-.453-.156-.563-.562-.563h-.453c-.422 0-.563.125-.563.563V1.75c0 .422.125.563.563.563h.484c.453 0 .578-.157.578-.563V-.469a1.77 1.77 0 0 0 1.36.594c2.531 0 2.531-2.281 2.531-2.89m-1.625.032c0 .468 0 2-1.344 2-.281 0-.5-.094-.64-.203-.282-.204-.282-.25-.282-.47V-4.28c.125-.125.516-.39 1.032-.39 1.218 0 1.234 1.405 1.234 1.937m0 0"/><path id="w" d="M4.25-4.719v-.562c0-.235 0-.328-.203-.328-.344 0-1.219.125-1.781 1.406v-.766c0-.39-.094-.578-.578-.578h-.391c-.422 0-.563.125-.563.578v4.39C.734-.14.86 0 1.297 0h.453c.453 0 .563-.156.563-.578V-2.75c0-1.14.953-1.594 1.703-1.656.218 0 .234 0 .234-.313m0 0"/><path id="x" d="M5.266-.437c0-.454-.36-.454-.72-.454L2.72-.875h-.547l2.922-3.687c.125-.157.14-.22.14-.407 0-.5-.375-.5-.578-.5H1.125c-.156 0-.578 0-.578.453 0 .438.39.438.703.438l1.734-.031h.454L.515-.906C.39-.75.375-.687.375-.5c0 .5.36.5.563.5h3.765c.156 0 .563 0 .563-.437m0 0"/><path id="y" d="M5.656-5.156c0-.313-.328-.313-.484-.313h-.266c-.187 0-.453 0-.625.266-.031.062-1 2.703-1.062 3.5h-.016c-.062-.578-.547-1.688-1.062-2.844-.328-.75-.422-.922-1.016-.922H.813c-.172 0-.47 0-.47.313 0 .047.032.125.063.187L2.672 0c-.11.25-.14.375-.172.5-.14.39-.344.938-1 .938-.39 0-.656-.172-.797-.25C.641 1.14.625 1.14.578 1.14s-.14.03-.14.172c0 .093.062.921.093.968.11.14.766.172.953.172 1.485 0 2.063-1.406 2.157-1.703l1.953-5.656c.062-.157.062-.188.062-.25m0 0"/><path id="z" d="M2.672.375v-5.281c0-.375-.078-.563-.563-.563h-.453c-.453 0-.562.157-.562.563V.672c0 .297 0 .781-.719.781-.219 0-.5-.047-.75-.219-.031-.015-.078-.046-.125-.046-.094 0-.11 0-.219.312-.047.125-.125.36-.125.39 0 .22.985.563 1.735.563 1.328 0 1.78-.89 1.78-2.078m0-7.625v-.219c0-.39-.078-.578-.563-.578H1.5c-.453 0-.578.156-.578.578v.219c0 .36.062.578.578.578h.61c.5 0 .562-.219.562-.578m0 0"/><path id="A" d="M5.969-.578v-7.14c0-.391-.094-.579-.578-.579h-.438c-.453 0-.578.156-.578.578v2.703a2.18 2.18 0 0 0-1.5-.593C.438-5.61.438-3.312.438-2.72c0 .547 0 2.844 2.375 2.844.5 0 1.015-.14 1.53-.687 0 .437.157.562.563.562h.485c.453 0 .578-.156.578-.578M4.344-1.5c0 .203 0 .313-.344.563a1.35 1.35 0 0 1-.719.203c-1.219 0-1.219-1.094-1.219-1.985 0-.906 0-2.031 1.344-2.031.344 0 .672.125.938.375Zm0 0"/><path id="B" d="M5.719-3.11c0-1.546-.703-2.562-2.485-2.562-1.921 0-2.859 1.063-2.859 2.89C.375-.905 1.406.048 3.125.126c-.297.39-.453.766-.453 1.219 0 .672.422 1.203 1.281 1.203.453 0 .969-.172 1.39-.39.063-.032.11-.141.11-.22l-.14-.437c0-.078-.157-.156-.235-.14-.266.062-.516.14-.766.14s-.468-.11-.468-.469c.015-.39.203-.797.594-1.031a4 4 0 0 0 .875-.328c.25-.125.343-.156.343-.313 0-.078-.031-.421-.047-.515-.046-.375-.062-.39-.171-.39-.047 0-.079 0-.204.124a2.7 2.7 0 0 1-1.796.688c-1.36 0-1.5-1.063-1.532-1.828h3.25c.266 0 .563 0 .563-.547m-1.313-.078h-2.5c.047-.734.282-1.624 1.328-1.624.954 0 1.125.687 1.172 1.625m0 0"/><path id="C" d="M2.594 2.234c-.375-.5-1.25-1.64-.64-4.484.609-2.828 1.952-3.969 2.546-4.484h-.594c-1.25.89-2.265 2.422-2.703 4.484-.453 2.14-.031 3.625.813 4.484Zm0 0"/><path id="D" d="M5.89 0 4.814-6.219h-.829L.266 0h.703L2.03-1.781h2.657L5 0ZM4.595-2.312H2.359l1.797-3.25Zm0 0"/><path id="E" d="M4.86-2c.218-1.078-.126-2.078-1-2.078-.25 0-.922.047-1.641.531l.094-.437h-.72L.376 1.734h.75l.453-2.14c.266.312.672.5 1.14.5.907 0 1.876-.89 2.141-2.094m-.75.016c-.188.859-.954 1.5-1.657 1.5-.281 0-.578-.11-.734-.563l.406-1.937c.14-.157.547-.485 1.063-.485.671 0 1.093.64.921 1.485m0 0"/><path id="F" d="m4.14 0 .141-.672H2.594c-.094 0-.203.016-.313.016h-.984L3.047-2c1.11-.766 1.781-1.25 1.969-2.125.218-1.031-.328-1.937-1.547-1.937-.953 0-1.625.546-2.094 1.437l.297.516c.453-1.047.984-1.344 1.531-1.344.813 0 1.188.61 1.016 1.344-.172.812-.844 1.343-1.64 1.937l-2 1.563L.452 0Zm0 0"/><path id="G" d="m1.656-.016.172-.75h-.781L.89 0h.234L.641 1.14h.375Zm0 0"/><path id="H" d="m3.922 0 .11-.562H2.89l1.172-5.5h-.188c-.734.578-1.594.578-1.906.578l-.11.562c.25 0 .704 0 1.25-.203L2.125-.562H.985L.858 0Zm0 0"/><path id="I" d="m5.063-2.172.125-.578H.577l-.125.578Zm0 0"/><path id="J" d="M4.64-2c.11-.5.126-.953-.077-1.437-.235-.563-.516-.72-.938-.72-.344 0-1.031.11-1.719.735C2.266-4.625 3.063-5.5 4.031-5.5c.172 0 .5 0 .922.188l.11-.579a2.5 2.5 0 0 0-.922-.171c-1.297 0-2.735 1.25-3.141 3.187C.469-.422 1.422.203 2.266.203c.547 0 .984-.203 1.437-.61.531-.468.797-.89.938-1.593m-.78 0c-.079.344-.157.719-.47 1.11-.218.265-.53.5-1 .5-.953 0-.812-1.282-.78-1.579.03-.125.03-.14.062-.234.14-.688.719-1.36 1.453-1.36.344 0 .61.126.766.547.093.313.062.61-.032 1.016m0 0"/><path id="K" d="M3.328-2.25c.453-2.125.031-3.625-.812-4.484h-.578c.39.5 1.25 1.656.64 4.484C1.984.594.625 1.734.031 2.234h.594c1.234-.89 2.266-2.421 2.703-4.484m0 0"/><path id="L" d="M11.797-3.984a5.45 5.45 0 0 0-5.453-5.453A5.45 5.45 0 0 0 .89-3.984a5.45 5.45 0 0 0 5.453 5.453 5.45 5.45 0 0 0 5.453-5.453m-.64 0A4.815 4.815 0 0 1 6.343.828 4.815 4.815 0 0 1 1.53-3.984a4.815 4.815 0 0 1 4.813-4.813 4.815 4.815 0 0 1 4.812 4.813m0 0"/><path id="M" d="M7.344 0v-.312c-.547 0-.75-.032-1.047-.47l-2.313-3.39 1.797-1.734c.078-.078.61-.578 1.422-.594v-.312c-.266.03-.578.03-.86.03-.359 0-.921 0-1.265-.03v.312c.406.016.469.234.469.328 0 .156-.11.266-.188.328L2.25-2.859v-3.172c0-.36.016-.469.781-.469h.235v-.312c-.344.03-1.078.03-1.47.03-.374 0-1.124 0-1.468-.03v.312h.235c.765 0 .796.11.796.469v5.25c0 .36-.03.469-.796.469H.328V0c.344-.031 1.094-.031 1.469-.031s1.125 0 1.469.031v-.312H3.03c-.765 0-.781-.11-.781-.47v-1.734l1.156-1.109L5.203-.953c.063.094.156.219.156.344 0 .297-.39.297-.593.297V0c.343-.031 1.047-.031 1.422-.031Zm0 0"/><path id="N" d="M-2.078-5.516v.25c1.203.204 1.812.375 1.812 1.813v1.187c0 .36-.046.375-.328.375h-2.093v-.765c0-.797.234-.906.937-.906v-.25h-2.125v.25c.688 0 .922.109.922.906v.765h-1.875c-.266 0-.328-.015-.328-.375v-1.14c0-1.313.484-1.485 1.547-1.625v-.25l-1.813.234v4.703h.266V-.53c0-.61.093-.625.39-.625H-.64c.297 0 .375.015.375.625v.187H0v-4.812Zm0 0"/><path id="O" d="M-.953-3.516c-.094 0-.094.11-.094.125 0 .063 0 .094.078.125.172.047.797.282.797 1.079 0 .484-.375 1.203-1.562 1.203-1.141 0-1.578-.594-1.578-1.172 0-.078 0-.5.156-.781.062.234.25.265.344.265a.36.36 0 0 0 .374-.375c0-.219-.14-.375-.39-.375-.485 0-.719.531-.719 1.281 0 1.11.875 1.86 1.828 1.86C-.703-.281.078-1.11.078-2.11c0-1.125-.937-1.407-1.031-1.407m0 0"/><path id="P" d="M-1.703-3.984c-.984 0-1.844.828-1.844 1.875s.86 1.875 1.844 1.875c1 0 1.781-.86 1.781-1.875 0-1.032-.781-1.875-1.781-1.875m-.063.703c.36 0 .797.015 1.141.25.313.203.453.562.453.922 0 .422-.203.765-.484.937-.328.203-.719.219-1.11.219-.312 0-.78 0-1.125-.235a1.14 1.14 0 0 1-.437-.921c0-.422.203-.766.469-.938.343-.219.765-.234 1.093-.234m0 0"/><path id="Q" d="M1.547-4.422H1.28c0 .516 0 .61-.36.61h-4.437v.218l.688.297c-.422.266-.688.64-.688 1.14 0 1 .782 1.876 1.797 1.876 1 0 1.797-.813 1.797-1.797 0-.578-.312-.938-.562-1.14H.922c.36 0 .36.109.36.609h.265c-.031-.344-.031-.688-.031-.907 0-.234 0-.562.03-.906m-2.672 1.188c.125 0 .172 0 .375.125.484.28.61.703.61.984 0 .64-.72 1.14-1.579 1.14-.906 0-1.547-.593-1.547-1.218 0-.656.641-1.031 1.079-1.031Zm0 0"/><path id="R" d="M0-4.484h-.266c0 .547-.046.609-.437.609h-2.813l.094 1.219h.266c0-.547.047-.61.437-.61h1.39c.688 0 1.188.407 1.188 1.016 0 .688-.343.719-.75.719h-2.625l.094 1.203h.266c0-.61.015-.61.719-.61h1.203c.578 0 1.312 0 1.312-1.265 0-.75-.578-1.047-.64-1.078v-.016h.64Zm0 0"/><path id="S" d="M0-2.078h-.266c0 .531-.03.562-.343.562h-2.907l.094 1.157h.266c0-.516.047-.578.437-.578h2.094c.36 0 .36.093.36.609H0c-.031-.313-.031-.766-.031-.89 0-.095 0-.579.031-.86m-4.797.453a.453.453 0 0 0-.453.453.45.45 0 0 0 .453.438.437.437 0 0 0 .438-.438.45.45 0 0 0-.438-.453m0 0"/><path id="T" d="M-.031-1.719c-.438 0-.86.172-.86.547 0 .266.22.438.438.438.25 0 .453-.172.453-.438 0-.187-.094-.297-.125-.312.25 0 .89 0 1.469.593.015.032.031.047.078.047.078 0 .125-.062.125-.11 0-.093-.625-.765-1.578-.765m0 0"/><path id="U" d="M-3.172-4.281h-.265c.03.265.03.281.03.61 0 .077 0 .452-.03.702h.265c.016-.281.188-.36.328-.36.078 0 .125.017.188.048l2.015.86-2.171.952c-.094.047-.157.047-.157.047-.203 0-.203-.297-.203-.422h-.265c.03.344.03.719.03.86 0 .172 0 .547-.03.812h.265c0-.484.047-.531.313-.656l2.765-1.188c.125-.062.172-.109.172-.218 0-.11-.062-.172-.156-.203L-2.61-3.532c-.453-.188-.547-.469-.563-.75m0 0"/><path id="V" d="M-.953-3.516a.12.12 0 0 0-.11.125c0 .094.047.11.094.125.782.282.797.97.797 1.11 0 .36-.156.734-.531.969-.36.234-.875.234-1.11.234v-2.344c0-.172 0-.219-.187-.219-.703 0-1.547.391-1.547 1.516 0 .984.813 1.766 1.797 1.766 1.031 0 1.828-.86 1.828-1.875 0-1-.844-1.407-1.031-1.407m-1.078.547v2.016c-1.11-.078-1.297-.75-1.297-1.047 0-.937 1.125-.969 1.297-.969m0 0"/><path id="W" d="M0-4.484h-.266c0 .515 0 .609-.359.609h-1.797c-.656 0-1.094.313-1.094 1.14 0 .797.579 1.157.766 1.25h-.766l.094 1.157h.266c0-.547.047-.61.437-.61h2.094c.36 0 .36.094.36.61H0c-.031-.344-.031-.688-.031-.906 0-.235 0-.563.031-.907h-.266c0 .5 0 .61-.359.61h-1.437c-.844 0-1.235-.64-1.235-1.125s.344-.61.844-.61h1.828c.36 0 .36.094.36.61H0C-.031-3-.031-3.36-.031-3.562c0-.235 0-.579.031-.922m0 0"/><path id="X" d="M-3.203-4.11a.43.43 0 0 0-.406.454c0 .14.046.531.375.89-.141.204-.282.516-.282.891 0 .781.547 1.36 1.172 1.36.375 0 .656-.204.813-.376a.934.934 0 0 0 1.36-.094c.108.423.421.75.78.75.579 0 1.032-.827 1.032-1.874 0-1-.407-1.875-1.047-1.875-.422 0-.766.25-.89.515-.25.469-.25.86-.25 1.64v.454c-.032.25-.235.438-.532.438-.188 0-.266-.047-.328-.094.187-.344.234-.657.234-.844 0-.781-.547-1.375-1.172-1.375-.297 0-.562.14-.765.328a1.2 1.2 0 0 1-.266-.765c.016.03.063.078.188.078.14 0 .25-.11.25-.25a.25.25 0 0 0-.266-.25m.86 1.5c.296 0 .5.032.656.157a.7.7 0 0 1 .28.578c0 .734-.765.734-.937.734-.297 0-.5-.03-.656-.156a.72.72 0 0 1-.281-.578c0-.734.765-.734.937-.734m2.952-.906c.422 0 .797.61.797 1.407S1.031-.703.61-.703c-.171 0-.64-.14-.64-.781v-.766c0-.219 0-1.266.64-1.266m0 0"/><path id="Y" d="M-1.719-4.422c-1 0-1.797.813-1.797 1.781 0 .313.079.766.5 1.172h-.5l.094 1.188h.266c0-.563.047-.61.375-.61H.922c.36 0 .36.11.36.61h.265c-.031-.344-.031-.688-.031-.906 0-.235 0-.563.03-.907h-.265c0 .516 0 .61-.36.61H-.39a1.37 1.37 0 0 0 .47-1.047c0-1-.782-1.89-1.798-1.89m0 .719c.907 0 1.578.578 1.578 1.219 0 .28-.125.64-.515.906-.14.094-.156.094-.297.094h-1.703a1.3 1.3 0 0 1-.61-1.094c0-.61.672-1.125 1.547-1.125m0 0"/><path id="Z" d="M-3.016-3.062c-.28 0-.5.25-.5.609 0 .515.391.875.844 1.031v.016h-.844l.094 1.125h.266c0-.547.047-.61.437-.61h2.094c.36 0 .36.11.36.61H0c-.031-.313-.031-.75-.031-.938 0-.468 0-.484.031-1h-.266v.156c0 .579-.078.594-.375.594h-1.171c-.61 0-1.47-.25-1.485-1.015.031.046.094.14.281.14.25 0 .36-.203.36-.36 0-.187-.125-.358-.36-.358m0 0"/><path id="aa" d="M-1.031-3.047c-.375 0-.938.219-1.11 1.172-.015.063-.093.516-.093.547-.063.25-.235.625-.547.625-.235 0-.578-.188-.578-.938 0-.89.656-.937.875-.953.062 0 .093-.062.093-.11 0-.14-.062-.14-.203-.14h-.75c-.125 0-.203 0-.203.11 0 .046 0 .062.125.187 0 .016.078.094.078.11 0 0 0 .03-.031.078-.094.125-.172.359-.172.718 0 1.11.594 1.36.985 1.36.39 0 .624-.297.656-.313.234-.328.265-.5.36-1.047.077-.375.187-.984.718-.984.312 0 .687.203.687.938 0 .812-.625 1.046-1.046 1.14-.11.031-.141.047-.141.14 0 .126.062.126.219.126h.984c.125 0 .203 0 .203-.094 0-.062 0-.062-.156-.203-.047-.047-.14-.125-.188-.172.329-.36.344-.734.344-.937 0-1.016-.578-1.36-1.11-1.36m0 0"/><path id="ab" d="M-1-2.812h-.437v.25h.421c.547 0 .844.25.844.546 0 .532-.687.532-.812.532h-2.188v-1.188h-.265v1.188h-1.47v.25c.735 0 1.485.328 1.516 1.078h.22v-.719H-1c.938 0 1.078-.719 1.078-1.078 0-.547-.469-.86-1.078-.86m0 0"/><path id="ac" d="M-.437-1.625a.453.453 0 0 0-.454.453c0 .266.22.438.438.438A.44.44 0 0 0 0-1.172a.45.45 0 0 0-.437-.453m0 0"/><path id="ad" d="M-1.625-3.875c-1.031 0-1.766.797-1.766 1.672 0 .578.36.922.75 1.11-.656 0-1.234-.063-1.718-.344-.407-.25-.735-.657-.735-1.157 0-.156.032-.515.297-.703.031.36.297.39.375.39.25 0 .375-.187.375-.374 0-.14-.078-.375-.39-.375-.47 0-.86.36-.86 1.078 0 1.11 1.047 2.234 2.766 2.234C-.36-.344.172-1.359.172-2.125c0-.39-.11-.797-.453-1.156-.313-.328-.64-.594-1.344-.594m0 .75c.406 0 .75 0 1.047.156.36.219.5.485.5.844a.88.88 0 0 1-.516.797c-.36.187-.89.203-1.203.203-.781 0-1.375-.422-1.375-1.047 0-.39.203-.64.485-.781.296-.172.656-.172 1.062-.172m0 0"/><path id="ae" d="M-2.547-3.89c-.844 0-1.36.078-1.875.343-.703.344-.875 1-.875 1.438 0 1 .75 1.375.969 1.484.578.281 1.375.297 1.781.297.531 0 1.328-.016 1.969-.406.594-.36.75-.953.75-1.375 0-.391-.125-1.063-.906-1.47-.578-.296-1.297-.312-1.813-.312m-.094.703c.47 0 1.188 0 1.641.093.828.172.938.719.938.985 0 .265-.125.812-.954.984-.453.094-1.203.094-1.625.094-.546 0-1.109 0-1.546-.094-.813-.172-.891-.781-.891-.984 0-.266.14-.828.86-.985.437-.094 1.046-.094 1.577-.094m0 0"/><path id="af" d="M0 5.984h.266v-.171c0-.61.078-.641.375-.641h4.156c.297 0 .375.031.375.64v.172h.266l-.016-1.171.016-1.172h-.266v.172c0 .624-.078.64-.375.64H2.969V1.891h1.828c.297 0 .375.015.375.625v.172h.266l-.016-1.172.016-1.172h-.266V.53c0 .61-.078.625-.375.625H.64c-.297 0-.375-.015-.375-.625V.344H0l.031 1.172L0 2.688h.266v-.172c0-.61.078-.625.375-.625h2.062v2.562H.641c-.297 0-.375-.016-.375-.64V3.64H0l.031 1.172Zm0 0"/><path id="ag" d="M.953 3.516a.12.12 0 0 0 .11-.125c0-.094-.047-.11-.094-.125a1.14 1.14 0 0 1-.797-1.11c0-.36.156-.734.531-.969.36-.234.875-.234 1.11-.234v2.344c0 .172 0 .219.187.219.703 0 1.547-.391 1.547-1.516 0-.984-.813-1.766-1.797-1.766-1.031 0-1.828.86-1.828 1.875 0 1 .844 1.407 1.031 1.407m1.078-.547V.953c1.11.078 1.297.75 1.297 1.047 0 .938-1.125.969-1.297.969m0 0"/><path id="ah" d="M.719 4.094h.437v-.25H.72c-.328 0-.453-.11-.453-.281 0-.297.359-.297.453-.297h1.656c.781 0 1.172-.75 1.172-1.485 0-.656-.25-1.25-.781-1.25a.36.36 0 0 0-.375.375c0 .219.156.375.375.375a.356.356 0 0 0 .359-.297c.203.297.203.735.203.782 0 .453-.312.89-.969.89h-.234c-.031-.453-.047-.984-.281-1.547C1.53.406 1.078.266.813.266c-.688 0-.891.812-.891 1.359 0 .578.328.938.64 1.11-.296.046-.609.25-.609.609 0 .078.031.75.766.75m.406-1.438c-.781 0-.984-.64-.984-.969 0-.406.28-.765.672-.765.515 0 1.062.5 1.093 1.734Zm0 0"/><path id="ai" d="M-1.547 4.422h.266c0-.516 0-.61.36-.61h4.437v-.218l-.688-.297c.422-.266.688-.64.688-1.14 0-1-.782-1.876-1.797-1.876-1 0-1.797.813-1.797 1.797 0 .578.312.938.562 1.14H-.922c-.36 0-.36-.109-.36-.609h-.265c.031.344.031.688.031.907 0 .234 0 .562-.03.906m2.672-1.188c-.125 0-.172 0-.375-.125-.484-.28-.61-.703-.61-.984 0-.64.72-1.14 1.579-1.14.906 0 1.547.593 1.547 1.218 0 .656-.641 1.031-1.078 1.031Zm0 0"/><path id="aj" d="M0 4.484h.266c0-.546.046-.609.437-.609h2.813l-.094-1.219h-.266c0 .547-.047.61-.437.61h-1.39C.64 3.266.14 2.859.14 2.25c0-.687.343-.719.75-.719h2.625L3.422.328h-.266c0 .61-.015.61-.719.61H1.235c-.578 0-1.312 0-1.312 1.265 0 .75.578 1.047.64 1.078v.016h-.64Zm0 0"/><path id="ak" d="M0 2.078h.266c0-.531.03-.562.343-.562h2.907L3.422.359h-.266c0 .516-.047.579-.437.579H.625c-.36 0-.36-.094-.36-.61H0c.031.313.031.766.031.89 0 .095 0 .579-.031.86m5.25.156c.172 0 .313-.171.313-.312 0-.031 0-.14-.125-.25L4.218.656l-.171.172.937 1.25c.063.078.125.156.266.156m0 0"/><path id="al" d="M3.172 4.281h.265c-.03-.265-.03-.281-.03-.61 0-.077 0-.452.03-.702h-.265c-.016.281-.188.36-.328.36a.4.4 0 0 1-.188-.048l-2.015-.86 2.172-.952c.093-.047.156-.047.156-.047.203 0 .203.297.203.422h.265c-.03-.344-.03-.719-.03-.86 0-.171 0-.546.03-.812h-.265c0 .484-.047.531-.313.656L.094 2.016c-.125.062-.172.109-.172.218 0 .11.062.172.156.204L2.61 3.53c.454.188.547.469.563.75m0 0"/><path id="am" d="M0 4.484h.266c0-.515 0-.609.359-.609h1.797c.656 0 1.094-.312 1.094-1.14a1.38 1.38 0 0 0-.766-1.25h.766L3.422.327h-.266c0 .547-.047.61-.437.61H.625c-.36 0-.36-.094-.36-.61H0c.031.344.031.688.031.906 0 .235 0 .563-.031.907h.266c0-.5 0-.61.359-.61h1.438c.843 0 1.234.64 1.234 1.125s-.344.61-.844.61H.625c-.36 0-.36-.094-.36-.61H0c.031.344.031.703.031.906 0 .235 0 .579-.031.922m0 0"/><path id="an" d="M3.203 4.11a.43.43 0 0 0 .406-.454c0-.14-.046-.531-.375-.89.141-.203.282-.516.282-.891 0-.781-.547-1.36-1.172-1.36-.375 0-.656.204-.813.376a.934.934 0 0 0-1.36.094C.064.562-.25.234-.608.234c-.578 0-1.032.828-1.032 1.874 0 1 .407 1.875 1.047 1.875.422 0 .766-.25.89-.515.25-.469.25-.86.25-1.64v-.454c.032-.25.235-.437.532-.437.188 0 .266.046.328.093a1.8 1.8 0 0 0-.234.844c0 .781.547 1.375 1.172 1.375.297 0 .562-.14.765-.328.094.11.266.375.266.765-.016-.03-.062-.078-.187-.078-.141 0-.25.11-.25.25 0 .11.078.25.265.25m-.86-1.5c-.296 0-.5-.032-.655-.157a.7.7 0 0 1-.282-.578c0-.734.766-.734.938-.734.297 0 .5.03.656.156.188.14.281.36.281.578 0 .734-.765.734-.937.734m-2.952.906c-.422 0-.797-.61-.797-1.407 0-.796.375-1.406.797-1.406.172 0 .64.14.64.781v.766c0 .219 0 1.266-.64 1.266m0 0"/><path id="ao" d="M1.703 3.984c.984 0 1.844-.828 1.844-1.875 0-1.046-.86-1.875-1.844-1.875-1 0-1.781.86-1.781 1.875 0 1.032.781 1.875 1.781 1.875m.063-.703c-.36 0-.797-.015-1.141-.25C.313 2.828.172 2.47.172 2.11c0-.421.203-.765.484-.937.328-.203.719-.219 1.11-.219.312 0 .78 0 1.125.235.28.218.437.546.437.921 0 .422-.203.766-.469.938-.343.219-.765.234-1.093.234m0 0"/><path id="ap" d="M1.719 4.422c1 0 1.797-.813 1.797-1.781 0-.313-.079-.766-.5-1.172h.5L3.422.28h-.266c0 .563-.047.61-.375.61H-.922c-.36 0-.36-.11-.36-.61h-.265c.031.344.031.688.031.907 0 .234 0 .562-.03.906h.265c0-.516 0-.61.36-.61H.39a1.37 1.37 0 0 0-.47 1.047c0 1 .782 1.89 1.798 1.89m0-.719C.812 3.703.14 3.125.14 2.484c0-.28.125-.64.515-.906.14-.094.156-.094.297-.094h1.703c.313.188.61.594.61 1.094 0 .61-.672 1.125-1.547 1.125m0 0"/><path id="aq" d="M3.016 3.063c.28 0 .5-.25.5-.61 0-.515-.391-.875-.844-1.031v-.016h.844L3.422.281h-.266c0 .547-.047.61-.437.61H.625C.265.89.265.78.265.28H0c.031.313.031.75.031.938 0 .468 0 .484-.031 1h.266v-.156c0-.579.078-.594.375-.594h1.172c.609 0 1.468.25 1.484 1.015-.031-.046-.094-.14-.281-.14-.25 0-.36.203-.36.36 0 .187.125.358.36.358m0 0"/><path id="ar" d="M1.031 3.047c.375 0 .938-.219 1.11-1.172.015-.062.093-.516.093-.547.063-.25.235-.625.547-.625.235 0 .578.188.578.938 0 .89-.656.937-.875.953-.062 0-.093.062-.093.11 0 .14.062.14.203.14h.75c.125 0 .203 0 .203-.11 0-.046 0-.062-.125-.187 0-.016-.078-.094-.078-.11 0 0 0-.03.031-.078.094-.125.172-.359.172-.718 0-1.11-.594-1.36-.985-1.36-.39 0-.624.297-.656.313-.234.328-.265.5-.36 1.047-.077.375-.187.984-.718.984-.312 0-.687-.203-.687-.937C.14.875.766.64 1.188.547c.109-.031.14-.047.14-.14C1.328.28 1.266.28 1.11.28H.125c-.125 0-.203 0-.203.094 0 .063 0 .063.156.203.047.047.14.125.188.172-.328.36-.344.734-.344.938 0 1.015.578 1.359 1.11 1.359m0 0"/><path id="as" d="M1 2.813h.438v-.25h-.422c-.547 0-.844-.25-.844-.547 0-.532.687-.532.812-.532h2.188v1.188h.265V1.484h1.47v-.25c-.735 0-1.485-.328-1.516-1.078h-.22v.719H1c-.937 0-1.078.719-1.078 1.078 0 .547.469.86 1.078.86m0 0"/><path id="at" d="M.438 1.625a.453.453 0 0 0 .453-.453.436.436 0 0 0-.438-.438.44.44 0 0 0-.453.438.45.45 0 0 0 .438.453m0 0"/><path id="au" d="M1.344 3.875c.5 0 .828-.266.968-.406.126-.125.141-.14.563-.828.219.453.61 1 1.234 1 .766 0 1.188-.782 1.188-1.516 0-.844-.578-1.531-1.328-1.531-.297 0-.563.094-.797.297-.172.14-.188.172-.5.656C2.234.563 1.656.344 1.219.344c-.89 0-1.39.89-1.39 1.765 0 .97.671 1.766 1.515 1.766m2.765-.64c-.453 0-.843-.36-1.078-.829l.594-1c.14-.234.375-.422.64-.422.5 0 .829.547.829 1.125 0 .61-.422 1.125-.985 1.125m-3.046.187c-.61 0-.985-.656-.985-1.297 0-.719.485-1.312 1.14-1.312.595 0 1.063.437 1.313.984l-.656 1.078c-.078.125-.328.547-.812.547m0 0"/><path id="av" d="M1.422 3.797v-.25c-.156-.016-.547-.078-.703-.172-.063-.047-.063-.656-.063-.781V1.172l.969 1.078c.125.125.39.453.5.594.453.484.89.953 1.61.953.953 0 1.562-.797 1.562-1.781 0-.97-.719-1.594-1.438-1.594-.39 0-.437.312-.437.422 0 .172.11.422.422.422.406 0 .406-.407.406-.5.594.234.781.765.781 1.156 0 .734-.625 1.125-1.297 1.125-.828 0-1.437-.578-2.39-1.531l-1.047-1C.219.422.203.422 0 .422v3.14Zm0 0"/><path id="aw" d="M9.953 0v-.516h-.312c-.657 0-.703-.062-.813-.218L5.61-5.047l2.844-2.406c.156-.14.266-.234 1.328-.234v-.516L8.5-8.172c-.36 0-1.297 0-1.594-.031v.515c.266 0 .547.016.86.141l-4.47 3.813v-3.953h1.267v-.516c-.344.031-1.625.031-2.047.031-.438 0-1.72 0-2.063-.031v.515H1.72v7.172H.453V0c.344-.031 1.625-.031 2.063-.031.422 0 1.703 0 2.047.031v-.516H3.297v-2.562L4.53-4.125l2.5 3.344c.016.031.063.094.063.14 0 .125-.578.125-.844.125V0c.39-.031 1.5-.031 1.953-.031.36 0 1.485 0 1.75.031m0 0"/><path id="bj" d="M13.61-7.687v-.516l-1.297.031c-.344 0-1.22 0-1.5-.031v.515c.14 0 1.187 0 1.187.172 0 0 0 .032-.047.141L9.938-2.047l-2.126-5.64h1.125v-.516c-.374.031-1.484.031-1.937.031-.375 0-1.531 0-1.828-.031v.515h1.016l.484 1.297-1.64 4.344-2.126-5.64h1.125v-.516c-.343.031-1.515.031-1.953.031-.375 0-1.515 0-1.812-.031v.515h1L4.109-.171c.079.203.11.281.375.281.266 0 .297-.078.375-.28l2.079-5.5 2.093 5.5c.063.202.094.28.36.28.234 0 .297-.046.375-.28L12.5-7.407c.094-.203.11-.282 1.11-.282m0 0"/><path id="bB" d="M5.766 0v-.516H4.14V-7.5c0-.344-.032-.344-.407-.344-.89.766-2.218.766-2.484.766h-.219v.516h.219c.422 0 1.063-.079 1.531-.235v6.281H1.125V0l2.313-.031Zm0 0"/><path id="bC" d="M6.031-2.406c0-1.453-.984-2.5-2.625-2.5-.484 0-1.047.093-1.562.484v-1.781c.406.094.718.094.906.094.281 0 .969 0 1.766-.485.375-.234 1-.765 1-1.047 0-.062 0-.203-.157-.203 0 0-.03 0-.14.063-.563.187-1.14.328-1.813.328-.687 0-1.25-.14-1.812-.344-.094-.016-.125-.047-.157-.047-.14 0-.14.125-.14.328v3.47c0 .234 0 .359.234.359.125 0 .14 0 .235-.126.14-.171.578-.687 1.593-.687 1.094 0 1.094 1.125 1.094 2.063 0 .859 0 2.109-1.469 2.109-.437 0-1.187-.172-1.593-.86.625 0 .78-.468.78-.734a.72.72 0 0 0-.75-.75c-.359 0-.75.203-.75.766C.672-.86 1.61.14 3.032.14c1.844 0 3-1.063 3-2.547m0 0"/><path id="bD" d="M6.14-2.203c0-1.297-1.03-1.86-1.64-2.203.61-.297 1.266-.75 1.266-1.672 0-1.234-1.094-1.766-2.391-1.766-1.594 0-2.437.907-2.437 2.078 0 .641.312 1.36 1.203 1.829C.78-3.344.563-2.516.563-1.908.563-.53 1.75.142 3.328.142c1.781 0 2.813-.953 2.813-2.344M4.923-6.078c0 .484-.219 1-.89 1.39l-1.673-.937c-.25-.14-.578-.406-.578-.812 0-.954 1.282-.97 1.547-.97 1.016 0 1.594.532 1.594 1.329m.266 4.484c0 .953-.954 1.266-1.813 1.266-1.187 0-1.86-.64-1.86-1.578 0-.875.548-1.422 1.11-1.75l1.656.937c.39.235.907.516.907 1.125m0 0"/><path id="ax" d="M6.828-7.234c.063-.282.016-.578-.125-.75-.234-.328-.672-.407-1.125-.407-.719 0-1.406.094-2.062.625-.438.344-.766.829-.891 1.313-.11.469-.11.937.14 1.266.172.25.47.421.782.53l-.031.126a3.46 3.46 0 0 0-1.766.734C1.172-3.328.734-2.719.563-2.062.438-1.532.438-.984.734-.61c.204.265.516.437.829.562.406.14.859.188 1.328.188.89 0 1.797-.328 2.578-.953.11-.079.265-.297.39-.454l-.39-.578-.157.032c-.125.343-.312.656-.593.875-.469.375-1 .656-1.532.656-.562 0-1.14-.094-1.437-.5-.297-.39-.312-.922-.187-1.469.14-.547.453-1.062.921-1.437.344-.266.782-.407 1.157-.5.562-.125 1.109-.157 1.672-.157l.062-.312c-.406 0-.797-.032-1.172-.14-.25-.063-.5-.173-.656-.391-.219-.282-.266-.704-.172-1.125.14-.516.453-1.032.89-1.391.298-.25.688-.313 1.032-.313.281 0 .469.063.61.204a.5.5 0 0 1 .109.468c-.047.203-.157.328-.266.453-.078.094-.14.172-.187.282a.36.36 0 0 0 .03.234c.079.094.126.094.266.094s.422-.078.625-.266c.22-.234.282-.437.344-.687m0 0"/><path id="aB" d="M9.766-8.062v-.235c-.344.031-.891.11-1.297.266-.36.125-.719.312-1.031.5-.5.297-.907.797-1.25 1.265-.547.75-1 1.485-1.485 2.266-.516.828-1.328 2.156-1.578 2.469s-.547.687-.86.937a.88.88 0 0 1-.562.219c-.094 0-.203-.031-.266-.11-.03-.062-.093-.124-.062-.218s.063-.188.11-.281c.015-.063.062-.157.062-.203a.22.22 0 0 0-.031-.22c-.063-.093-.172-.155-.328-.155a.58.58 0 0 0-.375.109.82.82 0 0 0-.297.437c-.079.313-.047.61.109.844a.87.87 0 0 0 .672.297c.469 0 .969-.25 1.39-.578.5-.406 1.407-1.328 2.047-2.375h2.641l-.469 1.89a2 2 0 0 0-.093.594c.015.125.03.266.093.36.078.109.235.156.39.156.298 0 .61-.14.876-.297.453-.25.86-.547 1.25-.906l-.14-.203a5 5 0 0 1-.563.39.83.83 0 0 1-.469.172c-.094 0-.187-.015-.25-.094-.156-.203-.14-.484-.094-.78.157-.829.36-1.688.563-2.516l.86-3.47c.062-.218.108-.327.25-.421Zm-1.188.437L7.5-3.328H5.063c.5-.922 1-1.828 1.578-2.703.343-.5.672-1 1.14-1.375.235-.172.485-.297.719-.344Zm0 0"/><path id="aW" d="M12.234-7.672c.047-.14.032-.578-.546-.578-.47 0-.782.188-1.22.5a5.3 5.3 0 0 0-1.14 1.219 9.4 9.4 0 0 0-.969 1.89H5.641l.797-3.093L7.094-8l.062-.203a38 38 0 0 0-1.39-.031c-.5 0-.922.062-1.438.172a3.2 3.2 0 0 0-1.219.609c-.484.36-.921.828-1.062 1.375-.047.187-.078.36-.094.562 0 .11 0 .235.078.313.047.078.125.156.25.156.156 0 .297-.11.438-.219a.49.49 0 0 0 .172-.328l.015-.484c.016-.14.016-.297.063-.453.078-.313.36-.563.61-.782.265-.203.562-.296.858-.359a5.5 5.5 0 0 1 1.235-.125l-.844 3.36c-.187.765-.422 1.546-.781 2.296-.203.47-.516.954-.938 1.297-.328.266-.75.407-1 .407-.203 0-.406-.016-.515-.172A1 1 0 0 1 1.5-.906a.75.75 0 0 0-.094-.281c-.062-.079-.218-.079-.343-.079a.57.57 0 0 0-.375.125.5.5 0 0 0-.188.297c-.062.25 0 .469.14.625.188.25.5.297.844.297.75 0 1.454-.36 2.11-.89.484-.375.89-.86 1.156-1.391.313-.625.578-1.313.781-1.985h2.672c-.172.5-.36 1.11-.453 1.47-.125.546-.25 1.077-.266 1.609 0 .359.094.703.266.968.156.172.39.235.656.235.422 0 .766-.172 1.125-.453.203-.172.406-.375.703-.672l-.187-.203a8 8 0 0 1-.656.593c-.141.141-.422.282-.563.282-.156 0-.25-.032-.328-.141-.156-.234-.172-.562-.172-.89a7.3 7.3 0 0 1 .297-1.594c.234-.985.484-1.97.89-2.922.126-.328.282-.594.5-.922.188-.266.376-.422.579-.578a.8.8 0 0 1 .5-.188c.172 0 .234.094.328.203a.3.3 0 0 0 .265.157.576.576 0 0 0 .547-.438m0 0"/><path id="bm" d="M6 0v-4.484C6-6.281 4.203-8.22 2.172-8.937c-.031-.016-.063-.032-.11-.032a.324.324 0 0 0-.312.313c0 .14.094.25.203.297 1.656.609 2.828 2.406 2.828 3.875V0Zm0 0"/><path id="bn" d="M6 0v-8.937H4.781V0Zm0 0"/><path id="bo" d="M9.031-8.969a.31.31 0 0 0-.203-.281C7.156-9.86 6-11.812 6-13.453v-4.469H4.781v4.469c0 1.765 1.438 3.594 3.172 4.484-1.734.906-3.172 2.735-3.172 4.485V0H6v-4.484c0-1.641 1.156-3.578 2.828-4.188a.33.33 0 0 0 .203-.297m0 0"/><path id="bp" d="M6-4.484V-8.97H4.781v4.485c0 1.468-1.172 3.28-2.828 3.89a.31.31 0 0 0-.203.282c0 .171.156.312.313.312.046 0 .078-.016.109-.031C4.203-.75 6-2.671 6-4.484m0 0"/><path id="br" d="M7.453-.172a.245.245 0 0 0 0-.344L4.984-2.984l2.47-2.485c.093-.093.093-.25 0-.328-.079-.094-.235-.094-.329 0L4.656-3.328 2.172-5.797c-.094-.094-.25-.094-.328 0-.094.078-.094.234 0 .328l2.468 2.485L1.845-.516a.245.245 0 0 0 0 .344c.078.094.234.094.328 0l2.484-2.484L7.125-.172c.094.094.25.094.328 0m0 0"/><path id="bs" d="M7.266-6.625c.109-.437.125-.844-.125-1.156-.328-.453-.953-.547-1.578-.547-.938 0-1.922.25-2.75.922-.547.406-.954.922-1.282 1.484A8 8 0 0 0 .688-3.75C.53-3.14.438-2.516.484-1.953c.047.5.157.953.438 1.312.39.532 1.047.813 1.797.813.812 0 1.719-.203 2.437-.781.235-.188.422-.422.578-.641l-.406-.562-.156.078c-.156.359-.36.734-.688 1-.406.312-.906.5-1.359.5-.531 0-.969-.25-1.234-.61-.282-.375-.407-.86-.438-1.344-.062-.593.031-1.234.188-1.859.172-.687.39-1.36.75-2.016.25-.468.578-.906 1.03-1.265a2.96 2.96 0 0 1 1.845-.625c.406 0 .812.11 1.03.406.22.297.204.656.11 1.063-.11.422-.312.875-.687 1.187-.297.234-.625.39-.969.39-.14 0-.328 0-.422-.124-.11-.14-.047-.36.047-.547.078-.172.156-.36.078-.5-.078-.094-.203-.125-.344-.125s-.296.016-.421.125a.8.8 0 0 0-.235.437c-.062.266-.047.516.094.688.25.328.703.406 1.156.406.531 0 1.125-.172 1.594-.562.5-.407.828-.953.969-1.516m0 0"/><path id="bt" d="M3.984-.328v-.313c0-.203 0-.312-.14-.312-.047 0-.313.078-.375.11v-4.188c.047-.016.328-.094.36-.11.14-.046.155-.062.155-.343v-.297c0-.219 0-.328-.14-.328-.047 0-.313.078-.375.109v-2.234c0-.22 0-.328-.14-.328-.157 0-.157.109-.157.343v2.313l-1.703.531v-2.234c0-.22 0-.313-.125-.313-.172 0-.172.11-.172.328v2.328c-.047 0-.328.094-.36.11-.14.047-.156.047-.156.343v.297c0 .22 0 .313.125.313.063 0 .328-.078.39-.094v4.172c-.046.016-.327.094-.359.11C.673.03.657.046.657.327v.313c0 .203 0 .312.125.312.063 0 .328-.078.39-.11v1.423c0 .203 0 .312.126.312.172 0 .172-.11.172-.328V.75L3.172.234v1.391c0 .234 0 .328.125.328.172 0 .172-.11.172-.344V.125c.047-.016.328-.094.36-.11.14-.046.155-.062.155-.343M3.172-.75l-1.703.516v-4.172l1.703-.516Zm0 0"/><path id="bw" d="M6.594-7.61c0-.546-.547-.812-1.032-.812-.406 0-1.156.203-1.515 1.39-.078.25-.11.376-.406 1.876h-.813c-.234 0-.36 0-.36.234 0 .14.095.14.329.14h.781l-.89 4.72c-.22 1.156-.422 2.25-1.032 2.25-.047 0-.36 0-.578-.22a.647.647 0 0 0 .656-.64c0-.281-.218-.422-.437-.422-.313 0-.656.266-.656.719 0 .531.515.828 1.015.828.657 0 1.125-.703 1.344-1.156.375-.766.656-2.203.672-2.281l.719-3.797h1.03c.235 0 .345 0 .345-.235 0-.14-.11-.14-.313-.14h-1c.14-.688.125-.672.25-1.36.047-.25.219-1.093.297-1.234.11-.234.313-.406.563-.406.046 0 .359 0 .578.203a.67.67 0 0 0-.641.656c0 .266.219.406.438.406.312 0 .656-.25.656-.718m0 0"/><path id="ay" d="M7.969-4.125c0-2.531-1.719-4.422-3.657-4.422-1.984 0-3.671 1.922-3.671 4.422C.64-1.609 2.375.25 4.297.25c1.984 0 3.672-1.875 3.672-4.375m-1.032-.172C6.938-1.953 5.658-.5 4.313-.5c-1.39 0-2.64-1.5-2.64-3.797 0-2.203 1.297-3.516 2.625-3.516 1.375 0 2.64 1.344 2.64 3.516m0 0"/><path id="az" d="m3.89-.344-.171-.703c-.422.375-.86.422-1.078.422-.532 0-.594-.562-.594-.984v-3h1.64v-.703h-1.64v-1.516h-.828v1.516h-1v.703h.969v3.203c0 .703.156 1.531.984 1.531.797 0 1.36-.281 1.719-.469m0 0"/><path id="aA" d="M5.484-2.625c0-1.625-1.187-2.86-2.562-2.86-1.406 0-2.563 1.266-2.563 2.86 0 1.563 1.188 2.75 2.563 2.75 1.406 0 2.562-1.219 2.562-2.75m-.906-.125c0 1.469-.844 2.125-1.656 2.125-.86 0-1.656-.719-1.656-2.125 0-1.453.89-2.016 1.656-2.016.812 0 1.656.625 1.656 2.016m0 0"/><path id="aC" d="M4.531-1.766v-6.53h-1v6.483c0 .688-.344 1.329-1.39 1.329a1.96 1.96 0 0 1-1.485-.657L.484-.25c.704.36 1.375.5 2 .5 1.25 0 2.047-.734 2.047-2.016m0 0"/><path id="aD" d="M4.797 0v-3.5c0-1.156-.828-1.984-1.938-1.984-.718 0-1.25.172-1.843.5l.078.78c.515-.374 1.062-.593 1.765-.593.547 0 1.032.453 1.032 1.313v.5c-.547.015-1.266.062-1.985.297C1.11-2.422.641-1.97.641-1.375c0 .531.312 1.5 1.328 1.5.656 0 1.5-.203 1.937-.562V0ZM3.89-1.61c0 .25 0 .532-.407.766-.312.203-.718.25-.906.25-.64 0-1.078-.343-1.078-.797 0-.812 1.656-.984 2.39-.984Zm0 0"/><path id="aE" d="M5.063 0v-3.594c0-.734-.157-1.828-1.594-1.828-.672 0-1.25.297-1.703.875v-.812H.922V0h.906v-2.969c0-.75.281-1.734 1.188-1.734 1.109 0 1.14.766 1.14 1.187V0Zm0 0"/><path id="aF" d="M1.813 0v-5.312H.938V0Zm.078-6.797v-1.016H.859v1.016Zm0 0"/><path id="aG" d="M4.86-2.687c0-.516-.048-1.25-.423-1.876-.5-.828-1.328-.921-1.671-.921C1.469-5.484.39-4.25.39-2.687.39-1.11 1.547.124 2.92.124c.563 0 1.22-.156 1.876-.64 0-.047-.047-.438-.047-.438s-.031-.281-.031-.328c-.703.593-1.407.687-1.766.687-.922 0-1.703-.828-1.734-2.093Zm-.704-.641h-2.86c.204-.813.767-1.438 1.47-1.438.359 0 1.187.157 1.39 1.438m0 0"/><path id="aH" d="M5.563-2.672c0-1.469-.782-2.75-1.891-2.75-.344 0-1.11.063-1.86.672v-3.547H.939V0h.906v-.531c.547.515 1.125.656 1.547.656 1.14 0 2.172-1.172 2.172-2.797m-.907 0c0 1.563-.968 2.078-1.703 2.078-.328 0-.562-.125-.781-.297-.281-.25-.328-.453-.328-.656V-4.03c.218-.328.64-.672 1.234-.672.719 0 1.578.547 1.578 2.031m0 0"/><path id="aI" d="M7.766-5.312H6.89l-.703 2.437c-.172.563-.516 1.688-.563 2.203-.047-.281-.234-1.078-.484-1.937l-.797-2.703H3.53L2.844-2.97c-.219.75-.5 1.781-.531 2.282h-.016c-.016-.235-.14-.86-.375-1.672l-.844-2.953H.172L1.766 0h.922c.453-1.5 1.156-3.781 1.218-4.61h.016c.015.485.265 1.344.344 1.626L5.109 0h1.063Zm0 0"/><path id="aJ" d="M8.328 0v-3.594c0-.828-.219-1.828-1.61-1.828-1.015 0-1.577.703-1.765.969-.203-.766-.86-.969-1.484-.969-.985 0-1.5.625-1.703.875v-.812H.922V0h.906v-2.969c0-.797.313-1.734 1.188-1.734 1.093 0 1.156.75 1.156 1.187V0h.906v-2.969c0-.797.313-1.734 1.188-1.734 1.093 0 1.156.75 1.156 1.187V0Zm0 0"/><path id="aK" d="M5.563-2.672c0-1.437-.75-2.75-1.875-2.75-.485 0-1.25.156-1.876.672v-.562H.939v7.625h.906V-.531c.406.36.906.656 1.547.656 1.156 0 2.172-1.172 2.172-2.797m-.907.016c0 1.203-.812 2.062-1.703 2.062-.328 0-.562-.125-.781-.297-.297-.25-.328-.468-.328-.656v-2.469a1.47 1.47 0 0 1 1.219-.671c.874 0 1.593.89 1.593 2.03m0 0"/><path id="aL" d="M3.797-4.625v-.797c-1.078 0-1.719.64-2.047 1.11V-5.36H.938V0h.875v-2.625c0-1.203.906-1.984 1.984-2m0 0"/><path id="aM" d="M4.703 0v-.734H2.984c-.14 0-.28.015-.421.015H1.547l3.11-4.125v-.468H.483v.703h2.953L.329-.484V0Zm0 0"/><path id="aN" d="M5.172-5.312h-.89c-.548 1.421-1.47 3.765-1.516 4.625H2.75c-.062-.72-.687-2.282-.797-2.532L1.11-5.312H.172L2.39 0l-.422 1.094c-.266.593-.438.656-.657.656-.171 0-.546-.047-.921-.187l.078.78c.062.016.469.095.844.095.296 0 .843 0 1.359-1.313Zm0 0"/><path id="aO" d="M2.14.703v-6.015h-.89v6.14c0 .781-.625.86-.875.86-.531 0-.86-.344-.875-.375l-.234.718c.375.235.859.406 1.406.406.75 0 1.469-.624 1.469-1.734m0-7.5v-1.016H1.11v1.016Zm0 0"/><path id="aP" d="M5.063 0v-8.297h-.891v3.485a2.65 2.65 0 0 0-1.688-.61c-1.14 0-2.062 1.219-2.062 2.766S1.297.125 2.437.125c.438 0 1.11-.156 1.704-.734V0ZM4.14-1.406c-.282.515-.703.812-1.22.812-.733 0-1.593-.562-1.593-2.047 0-1.593 1.016-2.062 1.703-2.062.469 0 .86.234 1.11.625Zm0 0"/><path id="aQ" d="M4.86-2.687c0-.516-.048-1.25-.423-1.876-.5-.828-1.328-.921-1.671-.921C1.469-5.484.39-4.25.39-2.687.39-1.141 1.5.078 2.844.124c-.531.344-.875.828-.828 1.39 0 .516.375 1.016 1.172 1.016.39 0 .703-.062 1.171-.297l-.156-.703c-.266.11-.547.172-.812.172-.328-.031-.625-.094-.625-.453-.016-.531.5-.969 1.047-1.281.328-.094.64-.25.984-.485 0-.046-.047-.437-.047-.437s-.031-.281-.031-.328c-.703.593-1.407.687-1.766.687-.922 0-1.703-.828-1.734-2.093Zm-.704-.641h-2.86c.204-.813.767-1.438 1.47-1.438.359 0 1.187.157 1.39 1.438m0 0"/><path id="aR" d="M2.11-.016v-.953h-.97V0h.298L1.14 1.5h.468Zm0 0"/><path id="aS" d="m5.219 2.234-.157-.703c-.265.11-.546.172-.812.172-.328-.031-.61-.094-.625-.453C3.609.719 4.109.313 4.656 0h.14v-3.5c0-1.156-.827-1.984-1.937-1.984-.718 0-1.25.172-1.843.5l.078.78c.515-.374 1.062-.593 1.765-.593.547 0 1.032.453 1.032 1.313v.5c-.547.015-1.266.062-1.985.297C1.11-2.422.641-1.97.641-1.375c0 .531.312 1.5 1.328 1.5.656 0 1.5-.203 1.937-.562V0c-.594.328-1.078.906-1.031 1.516 0 .515.375 1.015 1.172 1.015.406 0 .703-.062 1.172-.297M3.89-1.609c0 .25 0 .53-.407.765-.312.203-.718.25-.906.25-.64 0-1.078-.343-1.078-.797 0-.812 1.656-.984 2.39-.984Zm0 0"/><path id="aT" d="m3.688-5.36-.485-.515-.828.719v-3.14H1.5v3.874L.328-3.375l.453.547.719-.656V0h.875v-4.234Zm0 0"/><path id="aU" d="M5.469 0 3.25-3.266l1.969-2.046h-1.11L1.813-2.906v-5.39H.938V0h.828v-1.719l.906-.953L4.5 0Zm0 0"/><path id="aV" d="M5.484-2.625c0-1.625-1.187-2.86-2.562-2.86-1.406 0-2.563 1.266-2.563 2.86 0 1.563 1.188 2.75 2.563 2.75 1.406 0 2.562-1.219 2.562-2.75m-.906-.125c0 1.469-.844 2.125-1.656 2.125-.86 0-1.656-.719-1.656-2.125 0-1.453.89-2.016 1.656-2.016.812 0 1.656.625 1.656 2.016m-.016-5.547h-.906l-1.547 2h.72Zm0 0"/><path id="aX" d="M4.703 0v-.734H2.984c-.14 0-.28.015-.421.015H1.547l3.11-4.125v-.468H.483v.703h2.953L.329-.484V0ZM3.047-6.797v-1.016H2.016v1.016Zm0 0"/><path id="aY" d="M5.063 0v-5.312h-.907v3.421c0 .907-.625 1.36-1.406 1.36-.844 0-.922-.313-.922-.844v-3.937H.922v3.984c0 .86.265 1.453 1.25 1.453.344 0 1.281-.062 2.015-.719V0Zm0 0"/><path id="aZ" d="m5.672-4.703-.125-.719c-.234 0-1.047 0-1.828.39-.39-.327-.875-.39-1.11-.39-1.046 0-1.875.875-1.875 1.922 0 .422.125.828.391 1.188a1.64 1.64 0 0 0-.344 1.015c0 .453.156.75.297.906C.468 0 .328.516.328.844c0 .875 1.125 1.61 2.594 1.61 1.453 0 2.594-.704 2.594-1.61 0-1.688-1.938-1.688-2.422-1.688H2.078c-.172 0-.672 0-.672-.625 0-.265.047-.343.11-.437.203.14.593.343 1.078.343 1.031 0 1.875-.859 1.875-1.937a2.13 2.13 0 0 0-.36-1.156 7 7 0 0 1 .954-.063c.046 0 .312 0 .609.016M3.64-3.5c0 1.063-.672 1.281-1.032 1.281-.53 0-1.062-.36-1.062-1.265 0-1.063.672-1.282 1.047-1.282.531 0 1.047.36 1.047 1.266M4.688.844c0 .562-.829.953-1.766.953-.922 0-1.766-.375-1.766-.953 0-.047 0-.813.907-.813h1.046c.266 0 1.579 0 1.579.813m0 0"/><path id="ba" d="M4.86-.5c0-.031-.032-.406-.048-.453l-.015-.344a2.8 2.8 0 0 1-1.828.672c-1 0-1.64-.875-1.64-2.047 0-.984.484-2.078 1.671-2.078.797 0 1.14.203 1.656.547l.14-.781c-.702-.407-1.093-.5-1.796-.5-1.656 0-2.578 1.453-2.578 2.812C.422-1.14 1.516.125 2.953.125c.578 0 1.25-.156 1.906-.625m0 0"/><path id="bb" d="M2.11 0v-.969h-.97V0Zm0 0"/><path id="bd" d="M4.203-1.516c0-.609-.36-1-.406-1.046-.453-.47-.813-.532-1.531-.672-.438-.094-1.047-.203-1.047-.813 0-.734.843-.734 1-.734.625 0 1.125.14 1.656.437l.14-.765a3.9 3.9 0 0 0-1.687-.375c-.265 0-1.937 0-1.937 1.547 0 .53.297.89.468 1.062.438.36.735.422 1.438.563.39.093 1.078.234 1.078.859 0 .828-.922.828-1.094.828A3.12 3.12 0 0 1 .47-1.219l-.14.813c.046.031.859.531 1.968.531 1.547 0 1.906-.937 1.906-1.64m0 0"/><path id="be" d="M7.406 0 4.391-8.297H3.328L.328 0h.875l.875-2.422h3.375L6.328 0ZM5.203-3.094h-2.86l1.423-4.344Zm0 0"/><path id="bf" d="M1.813 0v-8.297H.938V0Zm0 0"/><path id="bg" d="M4.047-7.5v-.797c-.078-.015-.469-.125-.922-.125-1.125 0-1.937.875-1.937 2.031v1.079H.313v.703h.875V0h.875v-4.61h1.28v-.702H2.048v-1.422c0-.813.672-.97 1.078-.97s.781.141.922.204m0 0"/><path id="bh" d="M6.797-5.875c0-1.266-1.172-2.422-2.797-2.422H1.094V0h1.015v-3.453H4c1.656 0 2.797-1.188 2.797-2.422m-.953-.016c0 .938-.735 1.75-2.094 1.75H2.094v-3.484H3.75c1.406 0 2.094.828 2.094 1.734m0 0"/><path id="bi" d="M7.547 0 4.28-5.016l3.125-3.28H6.281L2.094-3.892v-4.406h-1V0h1v-2.703L3.64-4.328 6.453 0Zm0 0"/><path id="bk" d="M7.11-2.25c0-1.047-1.032-1.89-2.266-2.094 1.39-.375 1.937-1.172 1.937-1.875 0-1.078-1.218-2.078-2.906-2.078H1.109V0h3.094C5.875 0 7.11-1.078 7.11-2.25M5.86-6.203c0 .844-1.032 1.531-2.298 1.531H2.079v-2.953h1.469c1.281 0 2.312.625 2.312 1.422m.312 3.937c0 .844-.969 1.594-2.313 1.594H2.08v-3.281h1.593c1.547 0 2.5.86 2.5 1.687m0 0"/><path id="bl" d="M4.86-.5c0-.031-.032-.406-.048-.453l-.015-.344a2.8 2.8 0 0 1-1.828.672c-1 0-1.64-.875-1.64-2.047 0-.984.484-2.078 1.671-2.078.797 0 1.14.203 1.656.547l.14-.781c-.702-.407-1.093-.5-1.796-.5-1.656 0-2.578 1.453-2.578 2.812C.422-1.14 1.516.125 2.953.125c.578 0 1.25-.156 1.906-.625M4.5-8.297h-.922l-1.547 2h.719Zm0 0"/><path id="bu" d="M7.75-4.078c0-2.328-1.578-4.219-3.594-4.219H1.094V0h3.062c2 0 3.594-1.812 3.594-4.078m-1-.016c0 2.188-1.328 3.422-2.86 3.422H2.095v-6.953H3.89c1.593 0 2.859 1.375 2.859 3.531m0 0"/><path id="bv" d="M5.063 0v-3.594c0-.734-.157-1.828-1.594-1.828-.672 0-1.25.297-1.703.875v-.812H.922V0h.906v-2.969c0-.75.281-1.734 1.188-1.734 1.109 0 1.14.766 1.14 1.187V0ZM4.64-8.297h-.907l-1.562 2h.719Zm0 0"/><path id="bx" d="M7-.453v-3.172H4.547v.719h1.531v2.031a4.6 4.6 0 0 1-1.531.25c-.766 0-1.469-.422-1.938-1.031-.546-.703-.796-1.594-.796-2.485 0-.906.25-1.796.796-2.5.47-.609 1.172-1.03 1.938-1.03.39 0 .797.046 1.172.187.375.14.718.375 1.015.64l.172-1c-.36-.187-.734-.36-1.14-.453a5.4 5.4 0 0 0-1.22-.125c-1.03 0-1.984.469-2.655 1.25C1.14-6.344.78-5.266.78-4.14c0 1.094.36 2.188 1.11 3.016.672.766 1.625 1.25 2.656 1.25C5.39.125 6.234-.078 7-.453m0 0"/><path id="by" d="M4.203-1.516c0-.609-.36-1-.406-1.046-.453-.47-.813-.532-1.531-.672-.438-.094-1.047-.203-1.047-.813 0-.734.843-.734 1-.734.625 0 1.125.14 1.656.437l.14-.765a3.9 3.9 0 0 0-1.687-.375c-.265 0-1.937 0-1.937 1.547 0 .53.297.89.468 1.062.438.36.735.422 1.438.563.39.093 1.078.234 1.078.859 0 .828-.922.828-1.094.828A3.12 3.12 0 0 1 .47-1.219l-.14.813c.046.031.859.531 1.968.531 1.547 0 1.906-.937 1.906-1.64m-.312-6.78h-.922l-1.547 2h.719Zm0 0"/><path id="bc" d="M4.344-5.125H2.25c-.312 0-.406-.016-.687-.031-.422-.047-.438-.094-.454-.235H.844L.563-3.687h.265c.016-.11.094-.641.219-.72.062-.046.719-.046.828-.046h1.75l-.844 1.047C1.75-2.031 1.656-.766 1.656-.296c0 .093 0 .452.375.452s.375-.36.375-.453v-.328c0-1.547.313-2.25.656-2.687l1.204-1.5c.078-.094.078-.11.078-.313m0 0"/><path id="bq" d="m5.266 0 .156-.812H3.297c-.14 0-.281.015-.422.015H1.594A77 77 0 0 1 4.25-2.922c1.047-.765 1.953-1.515 2.188-2.61.28-1.327-.375-2.546-1.954-2.546-1.296 0-2.125.844-2.687 1.953.266.484.266.5.344.656.578-1.281 1.14-1.875 2.03-1.875 1.032 0 1.516.813 1.298 1.828-.125.625-.516 1.313-1.485 2.11L.734-.75.578 0Zm0 0"/><path id="bE" d="M5.547 0v-.25h-.125c-.469 0-.516-.078-.594-.266L3.125-4.812c-.031-.11-.062-.157-.187-.157-.141 0-.157.047-.204.157L1.125-.734C1.063-.562.938-.25.313-.25V0c.234-.016.484-.031.718-.031.282 0 .797.031.844.031v-.25c-.312 0-.516-.14-.516-.328 0-.063.016-.078.047-.14l.328-.86H3.72l.406 1.016c0 .03.031.078.031.109 0 .203-.375.203-.562.203V0l1.031-.031c.328 0 .86.031.922.031M3.609-1.828H1.83l.89-2.266Zm0 0"/><path id="bF" d="M4.047 0v-.25c-.469 0-.516-.047-.516-.39v-4.204l-1.047.078v.25c.47 0 .516.063.516.391v1.453a1.37 1.37 0 0 0-.969-.406c-.937 0-1.703.703-1.703 1.578S1.062.063 1.938.063c.578 0 .921-.297 1.03-.422v.422ZM2.969-.734c-.172.328-.531.609-.985.609-.39 0-.671-.234-.812-.437-.14-.204-.219-.485-.219-.922 0-.172 0-.688.281-1.016.282-.312.625-.375.829-.375.328 0 .64.156.828.406.078.11.078.11.078.25Zm0 0"/><path id="bG" d="M5.469-2.75V-3c-.188.016-.313.031-.5.031-.219 0-.485-.015-.688-.031v.25c.235 0 .36.14.36.297 0 .062 0 .078-.047.172L3.922-.547l-.75-1.906a.3.3 0 0 1-.031-.125c0-.156.172-.172.375-.172V-3c-.25.016-.5.031-.75.031-.203 0-.422-.015-.625-.031v.25c.172 0 .312 0 .406.047.094.078.156.312.156.312s-.015.063-.031.079L2.016-.641l-.703-1.812c-.032-.094-.032-.094-.032-.125 0-.172.25-.172.375-.172V-3s-.515.031-.797.031C.641-2.969.422-2.984.203-3v.25c.281 0 .438 0 .5.203l.969 2.453c.047.11.062.157.203.157.125 0 .14-.047.172-.141l.797-1.984.765 1.968c.047.094.063.157.204.157.124 0 .14-.047.187-.157l.875-2.234c.14-.344.375-.422.594-.422m0 0"/><path id="bH" d="M3.266-.844c0-.015-.016-.094-.125-.094-.094 0-.11.047-.125.11-.22.562-.75.672-1 .672-.328 0-.641-.14-.844-.406-.266-.329-.266-.75-.266-1.032h2.157c.156 0 .203 0 .203-.14 0-.625-.344-1.375-1.391-1.375a1.59 1.59 0 0 0-1.61 1.578c0 .89.782 1.594 1.704 1.594.937 0 1.297-.75 1.297-.907m-.485-.922H.906c.078-.984.703-1.14.969-1.14.86 0 .89.969.906 1.14m0 0"/><path id="bI" d="M4.11 0v-.25c-.454 0-.516 0-.516-.297v-1.562c0-.61-.297-.97-1.047-.97-.578 0-.938.313-1.14.688v-.687L.374-3v.25c.469 0 .531.047.531.39v1.813c0 .297-.078.297-.531.297V0s.5-.031.797-.031c.25 0 .734.031.797.031v-.25c-.453 0-.516 0-.516-.297v-1.265c0-.72.578-1.063 1.031-1.063.485 0 .547.375.547.734v1.594c0 .297-.062.297-.515.297V0s.5-.031.797-.031c.25 0 .734.031.796.031m0 0"/><path id="bJ" d="M2.61-.875v-.39h-.235v.374c0 .485-.219.735-.5.735-.469 0-.469-.578-.469-.703V-2.75h1.078V-3H1.406v-1.281h-.25c0 .625-.281 1.312-.953 1.328v.203h.64v1.875c0 .781.595.938.985.938.469 0 .781-.391.781-.938m0 0"/><path id="bK" d="M3.516-1.266H3.28c-.015.157-.094.563-.187.625-.047.047-.578.047-.688.047H1.125c.734-.64.984-.843 1.39-1.172.516-.406 1-.843 1-1.5 0-.843-.734-1.359-1.624-1.359-.86 0-1.453.61-1.453 1.25 0 .344.296.39.375.39.156 0 .359-.124.359-.374 0-.125-.047-.375-.406-.375.218-.485.687-.641 1.015-.641.703 0 1.063.547 1.063 1.11 0 .609-.438 1.078-.656 1.328L.516-.266C.437-.203.437-.187.437 0h2.876Zm0 0"/><path id="bL" d="M3.594-2.219c0-.765-.094-1.328-.406-1.812-.22-.313-.657-.594-1.204-.594C.36-4.625.36-2.719.36-2.219s0 2.36 1.625 2.36c1.61 0 1.61-1.86 1.61-2.36m-.625-.094c0 .516 0 1.032-.094 1.47-.14.64-.61.78-.89.78-.329 0-.75-.187-.891-.75C1-1.219 1-1.796 1-2.312c0-.515 0-1.046.094-1.421.156-.547.593-.703.89-.703.375 0 .735.234.86.64.11.375.125.875.125 1.485m0 0"/><path id="bM" d="M3.516-1.406c0-.782-.594-1.5-1.453-1.5-.313 0-.672.062-.985.328v-1.313c.36.094.563.094.672.094.922 0 1.469-.625 1.469-.734 0-.078-.047-.094-.078-.094 0 0-.032 0-.063.016-.172.062-.531.203-1.047.203-.203 0-.562-.016-1.015-.188-.079-.031-.094-.031-.094-.031-.094 0-.094.078-.094.188v2.046c0 .125 0 .204.11.204.062 0 .078 0 .14-.094.297-.375.734-.438.969-.438.422 0 .61.328.64.39.126.235.172.5.172.907 0 .203 0 .61-.218.922a.98.98 0 0 1-.813.422c-.453 0-.922-.25-1.094-.719.266.016.407-.156.407-.344 0-.296-.266-.343-.36-.343 0 0-.343 0-.343.375 0 .625.578 1.25 1.406 1.25.89 0 1.672-.657 1.672-1.547m0 0"/><path id="bN" d="M7.813-1.75v-.203H.109v.203Zm0 0"/><path id="bO" d="M3.578-2.297c0-1.719-.765-2.328-1.578-2.328a1.55 1.55 0 0 0-1.11.422c-.234.234-.515.5-.515 1.125 0 .89.703 1.547 1.516 1.547.562 0 .859-.375 1.015-.688v.14c0 1.735-.844 2-1.265 2-.157 0-.532-.015-.72-.233a.315.315 0 0 0 .313-.329.32.32 0 0 0-.328-.328c-.203 0-.328.14-.328.344 0 .469.39.766 1.063.766 1 0 1.937-.938 1.937-2.438M2.891-3c0 .906-.516 1.266-.953 1.266-.282 0-.532-.079-.735-.407-.156-.25-.156-.546-.156-.937 0-.406 0-.672.203-.953.172-.25.39-.39.75-.39s.578.218.688.405c.187.282.203.782.203 1.016m0 0"/><path id="bP" d="M2.516 0v-.25h-.172c-.578 0-.578-.078-.578-.328v-3.61c0-.234 0-.328.578-.328h.172v-.25l-1.078.032-1.079-.032v.25h.172c.578 0 .578.094.578.329v3.609c0 .25 0 .328-.578.328H.36V0l1.079-.031Zm0 0"/><path id="bQ" d="M3.578-1.422c0-.89-.703-1.547-1.515-1.547-.563 0-.86.375-1.016.688 0-.563.047-1.078.312-1.516.235-.375.61-.625 1.063-.625.203 0 .484.047.625.234-.172.016-.328.141-.328.344a.32.32 0 0 0 .328.328c.219 0 .344-.14.344-.343 0-.407-.297-.766-.985-.766-1 0-2.031.922-2.031 2.422C.375-.406 1.219.14 2 .14c.844 0 1.578-.657 1.578-1.563m-.672 0c0 .39 0 .688-.187.969A.82.82 0 0 1 2-.078c-.36 0-.625-.203-.781-.516-.094-.203-.157-.562-.157-.968 0-.688.407-1.204.97-1.204.312 0 .53.125.702.375.172.266.172.563.172.97m0 0"/><path id="bR" d="M2.016 1.734v-.328h-.72V-4.89h.72v-.328H.953v6.953Zm0 0"/><path id="bS" d="M3.688-1.14v-.25h-.782V-4.5c0-.14 0-.203-.14-.203-.094 0-.125 0-.188.11L.266-1.392v.25h2.062v.563c0 .25 0 .328-.578.328h-.187V0l1.046-.031L3.672 0v-.25h-.188c-.578 0-.578-.078-.578-.328v-.563Zm-1.313-.25H.531l1.844-2.548Zm0 0"/><path id="bT" d="M1.531-.39a.403.403 0 0 0-.406-.407.4.4 0 0 0-.406.39c0 .25.203.407.406.407a.4.4 0 0 0 .406-.39m0 0"/><path id="bU" d="M3.297 0v-.25H3.03c-.703 0-.703-.094-.703-.328v-3.86c0-.187 0-.187-.203-.187-.453.438-1.078.438-1.36.438v.25c.157 0 .626 0 1-.188v3.547c0 .234 0 .328-.687.328H.812V0l1.235-.031Zm0 0"/><path id="bV" d="M1.297 1.734v-6.953H.219v.328h.734v6.297H.22v.328Zm0 0"/><path id="bW" d="M4.563 0v-.437H3.266v-5.157c0-.187 0-.297-.266-.297-.11 0-.125 0-.203.063-.688.516-1.656.516-1.828.516H.797v.437h.172a4.2 4.2 0 0 0 1.203-.172v4.61H.89V0c.343-.031 1.422-.031 1.828-.031.422 0 1.484 0 1.844.031m0 0"/><path id="bX" d="M4.86-2.953c0-.469-.032-1.39-.485-2.094-.297-.437-.828-.844-1.719-.844-1.281 0-2.218.72-2.218 1.938 0 1.125.765 1.937 2.093 1.937.406 0 .781-.203 1.063-.687v.172c0 .578-.063 1.156-.235 1.531-.109.234-.468.703-1.171.703-.079 0-.454 0-.735-.187a.55.55 0 0 0 .422-.563c0-.375-.281-.578-.578-.578-.25 0-.594.14-.594.594 0 .61.469 1.14 1.5 1.14 1.25 0 2.656-.796 2.656-3.062m-1.266-.89c0 .406-.172 1.452-1.031 1.452-.86 0-.86-.656-.86-1.53 0-.876 0-1.61.984-1.61.563 0 .766.515.797.593.11.297.11.782.11 1.094m0 0"/><path id="bY" d="M4.766-2.016h-.453c-.016.125-.094.766-.235.829-.11.046-.781.046-.937.046H1.859c.485-.39 1.016-.812 1.47-1.125.75-.53 1.437-1.015 1.437-1.89 0-1.047-.953-1.735-2.25-1.735-1.11 0-1.985.532-1.985 1.36 0 .468.36.687.672.687a.65.65 0 0 0 .656-.672c0-.203-.078-.53-.468-.64.312-.25.718-.282.89-.282.735 0 1.203.547 1.203 1.282 0 .656-.375 1.234-.859 1.718l-2 1.985c-.094.094-.094.11-.094.281V0H4.5Zm0 0"/><clipPath id="b"><path d="M.535.266h6.883v9.636H.535Zm0 0"/></clipPath><clipPath id="a"><path d="M0 0h8v10H0z"/></clipPath><clipPath id="bz"><path d="M15.023 568.348H403v11.336H15.023Zm0 0"/></clipPath><linearGradient id="bA" x1="0" x2="388.063" y1="0" y2="0" gradientTransform="matrix(1 0 0 -1 15.024 579.685)" gradientUnits="userSpaceOnUse"><stop offset="0" stop-color="#f2f2f2"/><stop offset=".25" stop-color="#f2f2f2"/><stop offset=".313" stop-color="#f2f2f2"/><stop offset=".344" stop-color="#f2f2f2"/><stop offset=".359" stop-color="#f3f3f3"/><stop offset=".363" stop-color="#f4f4f4"/><stop offset=".367" stop-color="#f5f5f5"/><stop offset=".371" stop-color="#f6f6f6"/><stop offset=".375" stop-color="#f7f7f7"/><stop offset=".379" stop-color="#f8f8f8"/><stop offset=".383" stop-color="#f9f9f9"/><stop offset=".387" stop-color="#fafafa"/><stop offset=".391" stop-color="#fbfbfb"/><stop offset=".395" stop-color="#fcfcfc"/><stop offset=".398" stop-color="#fcfcfc"/><stop offset=".406" stop-color="#fcfcfc"/><stop offset=".438" stop-color="#fcfcfc"/><stop offset=".5" stop-color="#fcfcfc"/><stop offset=".563" stop-color="#fcfcfc"/><stop offset=".566" stop-color="#fcfcfc"/><stop offset=".57" stop-color="#fbfbfb"/><stop offset=".574" stop-color="#fafafa"/><stop offset=".578" stop-color="#f9f9f9"/><stop offset=".582" stop-color="#f8f8f8"/><stop offset=".586" stop-color="#f7f7f7"/><stop offset=".59" stop-color="#f6f6f6"/><stop offset=".594" stop-color="#f5f5f5"/><stop offset=".598" stop-color="#f4f4f4"/><stop offset=".602" stop-color="#f3f3f3"/><stop offset=".609" stop-color="#f3f3f3"/><stop offset=".625" stop-color="#f2f2f2"/><stop offset=".75" stop-color="#f2f2f2"/><stop offset="1" stop-color="#f2f2f2"/></linearGradient><g id="c" clip-path="url(#a)"><g clip-path="url(#b)"><path fill-rule="evenodd" d="m3.977 7.836 3.441 2.066V1.645c0-.762-.617-1.38-1.375-1.38H1.914C1.152.266.535.884.535 1.646v8.257Zm-2.754.851 2.754-1.652L6.73 8.687V1.646a.69.69 0 0 0-.687-.692H1.914a.69.69 0 0 0-.691.692Zm0 0"/></g></g></defs><use xlink:href="#c" transform="translate(9 27)"/><use xlink:href="#d" x="17.008" y="23.315"/><use xlink:href="#e" x="20.884" y="23.315"/><use xlink:href="#f" x="26.991" y="23.315"/><use xlink:href="#g" x="384.039" y="23.315"/><use xlink:href="#h" x="390.168" y="23.315"/><use xlink:href="#i" x="392.79" y="23.315"/><use xlink:href="#j" x="396.727" y="23.315"/><use xlink:href="#k" x="105.751" y="34.908"/><use xlink:href="#l" x="115.243" y="34.908"/><use xlink:href="#m" x="120.073" y="34.908"/><use xlink:href="#n" x="131.036" y="34.908"/><use xlink:href="#o" x="137.241" y="34.908"/><use xlink:href="#p" x="147.904" y="34.908"/><use xlink:href="#q" x="154.611" y="34.908"/><use xlink:href="#r" x="157.672" y="34.908"/><use xlink:href="#s" x="163.781" y="34.908"/><use xlink:href="#o" x="170.487" y="34.908"/><use xlink:href="#t" x="176.393" y="34.908"/><use xlink:href="#r" x="184.917" y="34.908"/><use xlink:href="#u" x="191.026" y="34.908"/><use xlink:href="#v" x="205.778" y="34.908"/><use xlink:href="#w" x="212.115" y="34.908"/><use xlink:href="#x" x="216.562" y="34.908"/><use xlink:href="#y" x="222.252" y="34.908"/><use xlink:href="#z" x="228.23" y="34.908"/><use xlink:href="#A" x="231.649" y="34.908"/><use xlink:href="#B" x="238.356" y="34.908"/><use xlink:href="#C" x="253.433" y="34.908"/><use xlink:href="#D" x="257.019" y="34.908"/><use xlink:href="#E" x="263.179" y="34.908"/><use xlink:href="#F" x="269.285" y="34.908"/><use xlink:href="#F" x="273.893" y="34.908"/><use xlink:href="#G" x="278.502" y="34.908"/><use xlink:href="#H" x="282.411" y="34.908"/><use xlink:href="#F" x="287.02" y="34.908"/><use xlink:href="#I" x="291.628" y="34.908"/><use xlink:href="#H" x="296.237" y="34.908"/><use xlink:href="#J" x="300.845" y="34.908"/><use xlink:href="#K" x="305.454" y="34.908"/><use xlink:href="#L" x="392.766" y="35.506" fill="red"/><use xlink:href="#M" x="395.235" y="34.908" fill="red"/><path fill="none" stroke="#000" stroke-miterlimit="10" stroke-width=".398" d="M17.008 39.293h384.094"/><use xlink:href="#N" x="399.042" y="151.878"/><use xlink:href="#O" x="399.042" y="146.116"/><use xlink:href="#O" x="399.042" y="142.354"/><use xlink:href="#P" x="399.042" y="138.592"/><use xlink:href="#Q" x="399.042" y="131.539"/><use xlink:href="#R" x="399.042" y="127.067"/><use xlink:href="#S" x="399.042" y="122.365"/><use xlink:href="#T" x="399.042" y="120.014"/><use xlink:href="#S" x="399.042" y="114.841"/><use xlink:href="#P" x="399.042" y="112.49"/><use xlink:href="#U" x="399.042" y="105.437"/><use xlink:href="#V" x="399.042" y="101.205"/><use xlink:href="#W" x="399.042" y="97.443"/><use xlink:href="#X" x="399.042" y="92.741"/><use xlink:href="#P" x="399.042" y="88.508"/><use xlink:href="#Y" x="399.042" y="81.455"/><use xlink:href="#Z" x="399.042" y="76.753"/><use xlink:href="#V" x="399.042" y="73.453"/><use xlink:href="#aa" x="399.042" y="69.691"/><use xlink:href="#ab" x="399.042" y="66.352"/><use xlink:href="#P" x="399.042" y="63.06"/><use xlink:href="#Y" x="399.042" y="56.007"/><use xlink:href="#ac" x="399.042" y="51.305"/><use xlink:href="#ad" x="399.042" y="48.953"/><use xlink:href="#ae" x="399.042" y="44.721"/><use xlink:href="#af" x="403.164" y="40.487"/><use xlink:href="#ag" x="403.164" y="46.831"/><use xlink:href="#ah" x="403.164" y="53.406"/><use xlink:href="#ai" x="403.164" y="57.638"/><use xlink:href="#aj" x="403.164" y="62.11"/><use xlink:href="#ak" x="403.164" y="66.812"/><use xlink:href="#ai" x="403.164" y="71.984"/><use xlink:href="#aj" x="403.164" y="76.456"/><use xlink:href="#ag" x="403.164" y="81.158"/><use xlink:href="#al" x="403.164" y="87.741"/><use xlink:href="#ag" x="403.164" y="91.981"/><use xlink:href="#am" x="403.164" y="95.743"/><use xlink:href="#an" x="403.164" y="100.445"/><use xlink:href="#ao" x="403.164" y="104.677"/><use xlink:href="#ap" x="403.164" y="111.723"/><use xlink:href="#aq" x="403.164" y="116.425"/><use xlink:href="#ag" x="403.164" y="119.725"/><use xlink:href="#ar" x="403.164" y="123.487"/><use xlink:href="#as" x="403.164" y="126.826"/><use xlink:href="#ao" x="403.164" y="130.118"/><use xlink:href="#ap" x="403.164" y="137.171"/><use xlink:href="#at" x="403.164" y="141.873"/><use xlink:href="#au" x="403.164" y="144.225"/><use xlink:href="#av" x="403.164" y="148.457"/><use xlink:href="#aw" x="126.907" y="61.174"/><use xlink:href="#ax" x="143.417" y="51.089" fill="red"/><use xlink:href="#ay" x="143.417" y="61.174"/><use xlink:href="#az" x="152.049" y="61.174"/><use xlink:href="#aA" x="156.281" y="61.174"/><use xlink:href="#aB" x="166.037" y="51.089" fill="red"/><use xlink:href="#aC" x="166.037" y="61.174"/><use xlink:href="#aD" x="171.524" y="61.174"/><use xlink:href="#aE" x="181.029" y="61.174"/><use xlink:href="#aF" x="187.03" y="61.174"/><use xlink:href="#aG" x="189.78" y="61.174"/><use xlink:href="#aH" x="194.98" y="61.174"/><use xlink:href="#aD" x="200.981" y="61.174"/><use xlink:href="#aI" x="206.266" y="61.174"/><use xlink:href="#aG" x="213.905" y="61.174"/><use xlink:href="#aJ" x="219.105" y="61.174"/><use xlink:href="#aK" x="232.256" y="61.174"/><use xlink:href="#aL" x="237.934" y="61.174"/><use xlink:href="#aM" x="241.915" y="61.174"/><use xlink:href="#aN" x="246.996" y="61.174"/><use xlink:href="#aO" x="252.352" y="61.174"/><use xlink:href="#aP" x="255.436" y="61.174"/><use xlink:href="#aQ" x="261.438" y="61.174"/><use xlink:href="#aR" x="266.638" y="61.174"/><use xlink:href="#aM" x="143.417" y="82.818"/><use xlink:href="#aG" x="148.498" y="82.818"/><use xlink:href="#aJ" x="157.596" y="82.818"/><use xlink:href="#aE" x="166.849" y="82.818"/><use xlink:href="#aS" x="172.85" y="82.818"/><use xlink:href="#ax" x="182.355" y="72.733" fill="red"/><use xlink:href="#aF" x="182.355" y="82.818"/><use xlink:href="#aP" x="185.105" y="82.818"/><use xlink:href="#aM" x="191.106" y="82.818"/><use xlink:href="#aF" x="196.187" y="82.818"/><use xlink:href="#aG" x="198.937" y="82.818"/><use xlink:href="#aJ" x="208.034" y="82.818"/><use xlink:href="#aD" x="217.288" y="82.818"/><use xlink:href="#aM" x="226.792" y="82.818"/><use xlink:href="#aD" x="231.873" y="82.818"/><use xlink:href="#aK" x="237.48" y="82.818"/><use xlink:href="#aT" x="243.481" y="82.818"/><use xlink:href="#aD" x="246.912" y="82.818"/><use xlink:href="#az" x="252.519" y="82.818"/><use xlink:href="#aD" x="256.751" y="82.818"/><use xlink:href="#aR" x="262.358" y="82.818"/><use xlink:href="#aU" x="143.417" y="104.462"/><use xlink:href="#az" x="149.096" y="104.462"/><use xlink:href="#aV" x="153.328" y="104.462"/><use xlink:href="#aL" x="158.863" y="104.462"/><use xlink:href="#aS" x="162.844" y="104.462"/><use xlink:href="#aW" x="172.349" y="94.376" fill="red"/><use xlink:href="#aP" x="172.349" y="104.462"/><use xlink:href="#aD" x="178.35" y="104.462"/><use xlink:href="#aJ" x="183.957" y="104.462"/><use xlink:href="#aU" x="197.108" y="104.462"/><use xlink:href="#aD" x="202.786" y="104.462"/><use xlink:href="#aX" x="208.393" y="104.462"/><use xlink:href="#aP" x="213.474" y="104.462"/><use xlink:href="#aG" x="219.476" y="104.462"/><use xlink:href="#aJ" x="224.676" y="104.462"/><use xlink:href="#aY" x="233.929" y="104.462"/><use xlink:href="#aI" x="143.417" y="126.105"/><use xlink:href="#aG" x="151.056" y="126.105"/><use xlink:href="#aP" x="156.257" y="126.105"/><use xlink:href="#aT" x="162.258" y="126.105"/><use xlink:href="#aY" x="166.012" y="126.105"/><use xlink:href="#aZ" x="172.013" y="126.105"/><use xlink:href="#ba" x="181.769" y="126.105"/><use xlink:href="#aM" x="186.969" y="126.105"/><use xlink:href="#aN" x="192.05" y="126.105"/><use xlink:href="#aE" x="197.406" y="126.105"/><use xlink:href="#aV" x="203.407" y="126.105"/><use xlink:href="#aI" x="208.942" y="126.105"/><use xlink:href="#aO" x="220.802" y="126.105"/><use xlink:href="#ax" x="223.888" y="116.02" fill="red"/><use xlink:href="#aG" x="223.888" y="126.105"/><use xlink:href="#aZ" x="229.088" y="126.105"/><use xlink:href="#aA" x="234.946" y="126.105"/><use xlink:href="#bb" x="240.804" y="126.105"/><use xlink:href="#ax" x="143.417" y="143.641" fill="red"/><use xlink:href="#bc" x="150.746" y="139.302" fill="red"/><use xlink:href="#aC" x="143.417" y="153.727"/><use xlink:href="#aG" x="148.904" y="153.727"/><use xlink:href="#bd" x="154.105" y="153.727"/><use xlink:href="#az" x="158.588" y="153.727"/><use xlink:href="#aG" x="162.82" y="153.727"/><use xlink:href="#aJ" x="168.02" y="153.727"/><use xlink:href="#be" x="181.171" y="153.727"/><use xlink:href="#bf" x="188.906" y="153.727"/><use xlink:href="#bg" x="191.655" y="153.727"/><use xlink:href="#aD" x="195.23" y="153.727"/><use xlink:href="#aF" x="204.734" y="153.727"/><use xlink:href="#ay" x="211.381" y="153.727"/><use xlink:href="#aB" x="220.014" y="143.641" fill="red"/><use xlink:href="#aJ" x="220.014" y="153.727"/><use xlink:href="#aG" x="229.267" y="153.727"/><use xlink:href="#aZ" x="234.468" y="153.727"/><use xlink:href="#aD" x="240.326" y="153.727"/><use xlink:href="#aR" x="245.932" y="153.727"/><use xlink:href="#aO" x="143.417" y="175.37"/><use xlink:href="#aG" x="146.501" y="175.37"/><use xlink:href="#bd" x="151.702" y="175.37"/><use xlink:href="#az" x="156.185" y="175.37"/><use xlink:href="#aG" x="160.417" y="175.37"/><use xlink:href="#aJ" x="165.617" y="175.37"/><use xlink:href="#bh" x="178.768" y="175.37"/><use xlink:href="#aF" x="186.216" y="175.37"/><use xlink:href="#aG" x="188.966" y="175.37"/><use xlink:href="#aL" x="194.166" y="175.37"/><use xlink:href="#aI" x="198.147" y="175.37"/><use xlink:href="#bd" x="206.109" y="175.37"/><use xlink:href="#aM" x="210.592" y="175.37"/><use xlink:href="#aN" x="215.673" y="175.37"/><use xlink:href="#aF" x="224.926" y="175.37"/><use xlink:href="#ay" x="231.573" y="175.37"/><use xlink:href="#ax" x="240.206" y="165.285" fill="red"/><use xlink:href="#bd" x="240.206" y="175.37"/><use xlink:href="#az" x="244.689" y="175.37"/><use xlink:href="#aD" x="248.921" y="175.37"/><use xlink:href="#az" x="254.528" y="175.37"/><use xlink:href="#aE" x="258.76" y="175.37"/><use xlink:href="#aF" x="264.762" y="175.37"/><use xlink:href="#aR" x="267.511" y="175.37"/><use xlink:href="#aO" x="143.417" y="197.014"/><use xlink:href="#aG" x="146.501" y="197.014"/><use xlink:href="#bd" x="151.702" y="197.014"/><use xlink:href="#az" x="156.185" y="197.014"/><use xlink:href="#aG" x="160.417" y="197.014"/><use xlink:href="#aJ" x="165.617" y="197.014"/><use xlink:href="#bh" x="178.768" y="197.014"/><use xlink:href="#aF" x="186.216" y="197.014"/><use xlink:href="#aG" x="188.966" y="197.014"/><use xlink:href="#aL" x="194.166" y="197.014"/><use xlink:href="#aI" x="198.147" y="197.014"/><use xlink:href="#bd" x="206.109" y="197.014"/><use xlink:href="#aM" x="210.592" y="197.014"/><use xlink:href="#aN" x="215.673" y="197.014"/><use xlink:href="#aF" x="224.926" y="197.014"/><use xlink:href="#ay" x="231.573" y="197.014"/><use xlink:href="#aW" x="240.206" y="186.928" fill="red"/><use xlink:href="#bd" x="240.206" y="197.014"/><use xlink:href="#az" x="244.689" y="197.014"/><use xlink:href="#aD" x="248.921" y="197.014"/><use xlink:href="#az" x="254.528" y="197.014"/><use xlink:href="#aE" x="258.76" y="197.014"/><use xlink:href="#aF" x="264.762" y="197.014"/><use xlink:href="#aR" x="267.511" y="197.014"/><use xlink:href="#aC" x="143.417" y="218.657"/><use xlink:href="#aD" x="148.904" y="218.657"/><use xlink:href="#aJ" x="154.511" y="218.657"/><use xlink:href="#bh" x="167.662" y="218.657"/><use xlink:href="#aA" x="174.787" y="218.657"/><use xlink:href="#ba" x="180.968" y="218.657"/><use xlink:href="#aM" x="186.168" y="218.657"/><use xlink:href="#aS" x="191.249" y="218.657"/><use xlink:href="#az" x="196.856" y="218.657"/><use xlink:href="#aG" x="201.088" y="218.657"/><use xlink:href="#aU" x="206.288" y="218.657"/><use xlink:href="#aR" x="211.967" y="218.657"/><use xlink:href="#aC" x="219.116" y="218.657"/><use xlink:href="#aD" x="224.603" y="218.657"/><use xlink:href="#aJ" x="230.21" y="218.657"/><use xlink:href="#ax" x="243.363" y="208.572" fill="red"/><use xlink:href="#bi" x="243.363" y="218.657"/><use xlink:href="#aA" x="251.098" y="218.657"/><use xlink:href="#aE" x="256.956" y="218.657"/><use xlink:href="#aF" x="262.957" y="218.657"/><use xlink:href="#aG" x="265.707" y="218.657"/><use xlink:href="#ba" x="270.907" y="218.657"/><use xlink:href="#bb" x="276.108" y="218.657"/><use xlink:href="#bj" x="123.548" y="246.279"/><use xlink:href="#ax" x="143.417" y="236.193" fill="red"/><use xlink:href="#bc" x="150.746" y="231.854" fill="red"/><use xlink:href="#bk" x="143.417" y="246.279"/><use xlink:href="#aT" x="151.188" y="246.279"/><use xlink:href="#aA" x="154.619" y="246.279"/><use xlink:href="#aZ" x="160.477" y="246.279"/><use xlink:href="#aA" x="166.335" y="246.279"/><use xlink:href="#bd" x="172.193" y="246.279"/><use xlink:href="#aT" x="176.676" y="246.279"/><use xlink:href="#aD" x="180.107" y="246.279"/><use xlink:href="#aB" x="185.715" y="236.193" fill="red"/><use xlink:href="#aI" x="185.715" y="246.279"/><use xlink:href="#aF" x="193.677" y="246.279"/><use xlink:href="#aG" x="196.427" y="246.279"/><use xlink:href="#aE" x="201.627" y="246.279"/><use xlink:href="#aF" x="207.629" y="246.279"/><use xlink:href="#aR" x="210.378" y="246.279"/><use xlink:href="#aU" x="143.417" y="267.922"/><use xlink:href="#az" x="149.096" y="267.922"/><use xlink:href="#aV" x="153.328" y="267.922"/><use xlink:href="#aL" x="158.863" y="267.922"/><use xlink:href="#aM" x="162.844" y="267.922"/><use xlink:href="#aN" x="167.925" y="267.922"/><use xlink:href="#aK" x="177.178" y="267.922"/><use xlink:href="#aT" x="183.179" y="267.922"/><use xlink:href="#aY" x="186.933" y="267.922"/><use xlink:href="#ba" x="192.935" y="267.922"/><use xlink:href="#aM" x="198.135" y="267.922"/><use xlink:href="#aS" x="203.216" y="267.922"/><use xlink:href="#bd" x="212.72" y="267.922"/><use xlink:href="#aI" x="217.203" y="267.922"/><use xlink:href="#aG" x="224.843" y="267.922"/><use xlink:href="#ax" x="233.942" y="257.837" fill="red"/><use xlink:href="#bd" x="233.942" y="267.922"/><use xlink:href="#aM" x="238.425" y="267.922"/><use xlink:href="#aD" x="243.506" y="267.922"/><use xlink:href="#az" x="249.113" y="267.922"/><use xlink:href="#aN" x="253.022" y="267.922"/><use xlink:href="#aR" x="257.398" y="267.922"/><use xlink:href="#aD" x="143.417" y="289.566"/><use xlink:href="#aH" x="149.024" y="289.566"/><use xlink:href="#aN" x="154.703" y="289.566"/><use xlink:href="#aA" x="163.956" y="289.566"/><use xlink:href="#az" x="169.814" y="289.566"/><use xlink:href="#aL" x="174.046" y="289.566"/><use xlink:href="#aM" x="178.027" y="289.566"/><use xlink:href="#aN" x="183.108" y="289.566"/><use xlink:href="#aJ" x="188.463" y="289.566"/><use xlink:href="#aD" x="197.717" y="289.566"/><use xlink:href="#bl" x="203.324" y="289.566"/><use xlink:href="#aW" x="212.423" y="279.481" fill="red"/><use xlink:href="#aK" x="212.423" y="289.566"/><use xlink:href="#aL" x="218.102" y="289.566"/><use xlink:href="#aD" x="222.083" y="289.566"/><use xlink:href="#aI" x="227.367" y="289.566"/><use xlink:href="#aA" x="235.006" y="289.566"/><use xlink:href="#aP" x="143.417" y="311.21"/><use xlink:href="#aA" x="149.418" y="311.21"/><use xlink:href="#aP" x="159.174" y="311.21"/><use xlink:href="#aL" x="165.175" y="311.21"/><use xlink:href="#aM" x="169.156" y="311.21"/><use xlink:href="#aG" x="174.237" y="311.21"/><use xlink:href="#aI" x="179.437" y="311.21"/><use xlink:href="#aD" x="187.077" y="311.21"/><use xlink:href="#ax" x="196.582" y="301.124" fill="red"/><use xlink:href="#aX" x="196.582" y="311.21"/><use xlink:href="#aN" x="201.663" y="311.21"/><use xlink:href="#ba" x="207.019" y="311.21"/><use xlink:href="#aF" x="212.219" y="311.21"/><use xlink:href="#aD" x="214.969" y="311.21"/><use xlink:href="#bb" x="220.576" y="311.21"/><use xlink:href="#bm" x="266.627" y="240.037"/><use xlink:href="#bn" x="266.627" y="248.249"/><use xlink:href="#bn" x="266.627" y="255.941"/><use xlink:href="#bn" x="266.627" y="263.632"/><use xlink:href="#bo" x="266.627" y="280.834"/><use xlink:href="#bn" x="266.627" y="289.045"/><use xlink:href="#bn" x="266.627" y="296.737"/><use xlink:href="#bn" x="266.627" y="304.429"/><use xlink:href="#bp" x="266.627" y="312.664"/><use xlink:href="#bq" x="279.404" y="274.856"/><use xlink:href="#br" x="285.262" y="274.856"/><use xlink:href="#aw" x="126.907" y="338.831"/><g fill="red"><use xlink:href="#bs" x="143.417" y="328.746"/><use xlink:href="#bt" x="151.236" y="328.746"/></g><use xlink:href="#aC" x="143.417" y="338.831"/><use xlink:href="#aD" x="148.904" y="338.831"/><use xlink:href="#aJ" x="154.511" y="338.831"/><use xlink:href="#aO" x="167.662" y="338.831"/><use xlink:href="#aG" x="170.746" y="338.831"/><use xlink:href="#bd" x="175.947" y="338.831"/><use xlink:href="#az" x="180.43" y="338.831"/><use xlink:href="#bu" x="143.417" y="360.474"/><use xlink:href="#aD" x="151.833" y="360.474"/><use xlink:href="#aI" x="157.117" y="360.474"/><use xlink:href="#aF" x="165.079" y="360.474"/><use xlink:href="#aP" x="167.829" y="360.474"/><use xlink:href="#aA" x="173.831" y="360.474"/><use xlink:href="#aI" x="179.366" y="360.474"/><use xlink:href="#aN" x="187.328" y="360.474"/><use xlink:href="#bi" x="196.581" y="360.474"/><use xlink:href="#aA" x="204.316" y="360.474"/><use xlink:href="#aL" x="209.851" y="360.474"/><use xlink:href="#aM" x="213.832" y="360.474"/><use xlink:href="#aG" x="218.913" y="360.474"/><use xlink:href="#bv" x="224.113" y="360.474"/><use xlink:href="#bw" x="234.014" y="350.389" fill="red"/><use xlink:href="#bt" x="240.948" y="350.389" fill="red"/><use xlink:href="#aF" x="234.014" y="360.474"/><use xlink:href="#bh" x="240.661" y="360.474"/><use xlink:href="#aA" x="247.786" y="360.474"/><use xlink:href="#az" x="253.644" y="360.474"/><use xlink:href="#aA" x="257.876" y="360.474"/><use xlink:href="#aJ" x="263.734" y="360.474"/><use xlink:href="#aG" x="272.987" y="360.474"/><use xlink:href="#aU" x="278.188" y="360.474"/><use xlink:href="#bb" x="283.866" y="360.474"/><use xlink:href="#aC" x="143.417" y="382.118"/><use xlink:href="#aD" x="148.904" y="382.118"/><use xlink:href="#aJ" x="154.511" y="382.118"/><g fill="red"><use xlink:href="#bs" x="167.662" y="372.033"/><use xlink:href="#bt" x="175.481" y="372.033"/></g><use xlink:href="#bx" x="167.662" y="382.118"/><use xlink:href="#aI" x="175.469" y="382.118"/><use xlink:href="#aF" x="183.431" y="382.118"/><use xlink:href="#aD" x="186.18" y="382.118"/><use xlink:href="#aM" x="191.787" y="382.118"/><use xlink:href="#aP" x="196.868" y="382.118"/><use xlink:href="#aD" x="202.869" y="382.118"/><use xlink:href="#by" x="143.417" y="403.762"/><use xlink:href="#aI" x="147.9" y="403.762"/><use xlink:href="#aF" x="155.862" y="403.762"/><use xlink:href="#aG" x="158.612" y="403.762"/><use xlink:href="#ba" x="163.812" y="403.762"/><use xlink:href="#aS" x="169.013" y="403.762"/><use xlink:href="#ba" x="174.62" y="403.762"/><use xlink:href="#aD" x="179.82" y="403.762"/><use xlink:href="#aK" x="189.324" y="403.762"/><use xlink:href="#aA" x="195.648" y="403.762"/><use xlink:href="#bw" x="201.508" y="393.676" fill="red"/><use xlink:href="#bt" x="208.442" y="393.676" fill="red"/><use xlink:href="#aL" x="201.508" y="403.762"/><use xlink:href="#aD" x="205.489" y="403.762"/><use xlink:href="#aE" x="211.096" y="403.762"/><use xlink:href="#aE" x="217.097" y="403.762"/><use xlink:href="#aD" x="223.099" y="403.762"/><use xlink:href="#ax" x="228.706" y="393.676" fill="red"/><use xlink:href="#bb" x="228.706" y="403.762"/><use xlink:href="#bj" x="123.548" y="431.383"/><use xlink:href="#ax" x="143.417" y="421.298" fill="red"/><use xlink:href="#bc" x="150.746" y="416.958" fill="red"/><use xlink:href="#bk" x="143.417" y="431.383"/><use xlink:href="#aT" x="151.188" y="431.383"/><use xlink:href="#aA" x="154.619" y="431.383"/><use xlink:href="#aZ" x="160.477" y="431.383"/><use xlink:href="#aA" x="166.335" y="431.383"/><use xlink:href="#bd" x="172.193" y="431.383"/><use xlink:href="#aT" x="176.676" y="431.383"/><use xlink:href="#aD" x="180.107" y="431.383"/><use xlink:href="#aB" x="185.715" y="421.298" fill="red"/><use xlink:href="#aI" x="185.715" y="431.383"/><use xlink:href="#aF" x="193.677" y="431.383"/><use xlink:href="#aG" x="196.427" y="431.383"/><use xlink:href="#aE" x="201.627" y="431.383"/><use xlink:href="#aF" x="207.629" y="431.383"/><use xlink:href="#aR" x="210.378" y="431.383"/><use xlink:href="#aU" x="143.417" y="453.027"/><use xlink:href="#az" x="149.096" y="453.027"/><use xlink:href="#aV" x="153.328" y="453.027"/><use xlink:href="#aL" x="158.863" y="453.027"/><use xlink:href="#aM" x="162.844" y="453.027"/><use xlink:href="#aN" x="167.925" y="453.027"/><use xlink:href="#aK" x="177.178" y="453.027"/><use xlink:href="#aT" x="183.179" y="453.027"/><use xlink:href="#aY" x="186.933" y="453.027"/><use xlink:href="#ba" x="192.935" y="453.027"/><use xlink:href="#aM" x="198.135" y="453.027"/><use xlink:href="#aS" x="203.216" y="453.027"/><use xlink:href="#bd" x="212.72" y="453.027"/><use xlink:href="#aI" x="217.203" y="453.027"/><use xlink:href="#aG" x="224.843" y="453.027"/><use xlink:href="#ax" x="233.942" y="442.941" fill="red"/><use xlink:href="#bd" x="233.942" y="453.027"/><use xlink:href="#aM" x="238.425" y="453.027"/><use xlink:href="#aD" x="243.506" y="453.027"/><use xlink:href="#az" x="249.113" y="453.027"/><use xlink:href="#aN" x="253.022" y="453.027"/><use xlink:href="#aR" x="257.398" y="453.027"/><use xlink:href="#aD" x="143.417" y="474.67"/><use xlink:href="#aH" x="149.024" y="474.67"/><use xlink:href="#aN" x="154.703" y="474.67"/><use xlink:href="#aA" x="163.956" y="474.67"/><use xlink:href="#az" x="169.814" y="474.67"/><use xlink:href="#aL" x="174.046" y="474.67"/><use xlink:href="#aM" x="178.027" y="474.67"/><use xlink:href="#aN" x="183.108" y="474.67"/><use xlink:href="#aJ" x="188.463" y="474.67"/><use xlink:href="#aD" x="197.717" y="474.67"/><use xlink:href="#bl" x="203.324" y="474.67"/><use xlink:href="#aW" x="212.423" y="464.585" fill="red"/><use xlink:href="#aK" x="212.423" y="474.67"/><use xlink:href="#aL" x="218.102" y="474.67"/><use xlink:href="#aD" x="222.083" y="474.67"/><use xlink:href="#aI" x="227.367" y="474.67"/><use xlink:href="#aA" x="235.006" y="474.67"/><use xlink:href="#aP" x="143.417" y="496.314"/><use xlink:href="#aA" x="149.418" y="496.314"/><use xlink:href="#aP" x="159.174" y="496.314"/><use xlink:href="#aL" x="165.175" y="496.314"/><use xlink:href="#aM" x="169.156" y="496.314"/><use xlink:href="#aG" x="174.237" y="496.314"/><use xlink:href="#aI" x="179.437" y="496.314"/><use xlink:href="#aD" x="187.077" y="496.314"/><use xlink:href="#ax" x="196.582" y="486.229" fill="red"/><use xlink:href="#aX" x="196.582" y="496.314"/><use xlink:href="#aN" x="201.663" y="496.314"/><use xlink:href="#ba" x="207.019" y="496.314"/><use xlink:href="#aF" x="212.219" y="496.314"/><use xlink:href="#aD" x="214.969" y="496.314"/><use xlink:href="#bb" x="220.576" y="496.314"/><use xlink:href="#bm" x="266.627" y="425.142"/><use xlink:href="#bn" x="266.627" y="433.353"/><use xlink:href="#bn" x="266.627" y="441.045"/><use xlink:href="#bn" x="266.627" y="448.737"/><use xlink:href="#bo" x="266.627" y="465.938"/><use xlink:href="#bn" x="266.627" y="474.15"/><use xlink:href="#bn" x="266.627" y="481.841"/><use xlink:href="#bn" x="266.627" y="489.533"/><use xlink:href="#bp" x="266.627" y="497.769"/><use xlink:href="#bq" x="279.404" y="459.961"/><use xlink:href="#br" x="285.262" y="459.961"/><g clip-path="url(#bz)"><path fill="url(#bA)" d="M15.023 579.684v-11.336h388.063v11.336Zm0 0"/></g><use xlink:href="#bB" x="17.008" y="577.985"/><use xlink:href="#bC" x="23.739" y="577.985"/><use xlink:href="#bD" x="30.469" y="577.985"/><use xlink:href="#bE" x="264.234" y="577.985"/><use xlink:href="#bF" x="269.897" y="577.985"/><use xlink:href="#bG" x="274.297" y="577.985"/><use xlink:href="#bH" x="279.772" y="577.985"/><use xlink:href="#bI" x="283.315" y="577.985"/><use xlink:href="#bJ" x="287.499" y="577.985"/><use xlink:href="#bK" x="293.295" y="577.985"/><use xlink:href="#bL" x="297.263" y="577.985"/><use xlink:href="#bK" x="301.231" y="577.985"/><use xlink:href="#bM" x="305.199" y="577.985"/><use xlink:href="#bN" x="311.852" y="577.985"/><use xlink:href="#bK" x="322.481" y="577.985"/><use xlink:href="#bO" x="326.449" y="577.985"/><use xlink:href="#bP" x="333.102" y="577.985"/><use xlink:href="#bK" x="338.668" y="577.985"/><use xlink:href="#bL" x="342.636" y="577.985"/><use xlink:href="#bK" x="346.604" y="577.985"/><use xlink:href="#bQ" x="350.572" y="577.985"/><use xlink:href="#bN" x="357.225" y="577.985"/><use xlink:href="#bR" x="367.854" y="577.985"/><use xlink:href="#bM" x="370.106" y="577.985"/><use xlink:href="#bS" x="374.075" y="577.985"/><use xlink:href="#bT" x="378.043" y="577.985"/><use xlink:href="#bU" x="380.295" y="577.985"/><use xlink:href="#bV" x="384.264" y="577.985"/><use xlink:href="#bU" x="389.201" y="577.985"/><use xlink:href="#bU" x="393.169" y="577.985"/><use xlink:href="#bS" x="397.138" y="577.985"/><path fill="#f2f2f2" stroke="#000" stroke-miterlimit="10" stroke-width=".797" d="M196.602 576.055v-3.989a2.99 2.99 0 0 1 2.988-2.988h18.93a2.99 2.99 0 0 1 2.988 2.988v3.989a2.99 2.99 0 0 1-2.988 2.988h-18.93a2.99 2.99 0 0 1-2.988-2.988Zm0 0"/><use xlink:href="#bW" x="198.439" y="576.948"/><use xlink:href="#bX" x="203.747" y="576.948"/><use xlink:href="#bX" x="209.055" y="576.948"/><use xlink:href="#bY" x="214.363" y="576.948"/></svg>