<svg xmlns="http://www.w3.org/2000/svg" xmlns:xlink="http://www.w3.org/1999/xlink" width="559.371" height="793.701" viewBox="0 0 419.528 595.276"><defs><path id="d" d="M3.344 2.297v-.078L1.5-2.5l1.844-4.703v-.078c0-.11-.078-.203-.188-.203a.24.24 0 0 0-.203.14L1.11-2.562c-.015.015-.015.046-.015.062 0 .031 0 .063.015.078L2.953 2.36a.24.24 0 0 0 .203.141c.11 0 .188-.094.188-.203m0 0"/><path id="e" d="M6.39-5.797c.063-.297.048-.547-.124-.75-.235-.328-.813-.406-1.141-.406-.75 0-1.469.187-2.219.687-.61.407-1.015 1.079-1.187 1.735-.14.593-.188 1.218.14 1.656.329.438.907.656 1.532.656.5 0 1.047-.156 1.53-.453l-.218.953C4.61-1.28 4.437-.906 4.22-.5a3.2 3.2 0 0 1-.703.875c-.407.328-.86.547-1.328.547-.297 0-.61-.047-.766-.281-.094-.125-.094-.297-.094-.485 0-.125.016-.281-.047-.36a.28.28 0 0 0-.234-.109c-.125 0-.281.016-.39.11A.7.7 0 0 0 .421.14a.89.89 0 0 0 .14.75c.25.328.688.406 1.141.406.828 0 1.656-.344 2.39-.938.376-.296.657-.671.86-1.093Q5.4-1.65 5.61-2.61l.329-1.313-.547.14c-.141.282-.422.688-.578.798-.391.328-.829.468-1.282.468-.406 0-.734-.203-.953-.484-.312-.406-.265-.984-.125-1.547.156-.61.5-1.187 1.047-1.625.39-.312.86-.437 1.297-.437.25 0 .594.093.766.343a.61.61 0 0 1 .125.547c-.047.203-.11.407-.282.547-.234.172-.453.203-.687.203l-.078.172c.156.031.39.094.437.094.313 0 .594-.156.86-.375.234-.203.375-.453.453-.719m0 0"/><path id="f" d="M2.781-2.5c0-.016 0-.047-.015-.062L.922-7.344c-.031-.078-.11-.14-.188-.14a.207.207 0 0 0-.203.203v.078L2.375-2.5.531 2.219v.078c0 .11.094.203.203.203.079 0 .157-.062.188-.14l1.844-4.782c.015-.015.015-.047.015-.078m0 0"/><path id="g" d="M6.047-.156c0-.094-.11-.11-.14-.11-.25 0-.376-.03-.5-.312L4.218-3.297 5.766-4.5c.218-.172.812-.625 1.312-.672.063-.016.156-.031.156-.156 0-.047-.03-.11-.109-.11 0 0-.234.016-.281.016h-.328c-.266 0-.563-.016-.813-.016-.047 0-.172 0-.172.141 0 .11.14.125.14.125.11 0 .173.047.173.11 0 .125-.14.25-.172.28l-.047.048c-.016.015-.031.015-.094.078L2.563-2.344l.609-2.5c.078-.265.125-.328.61-.328.171 0 .265 0 .265-.156 0-.047-.031-.11-.125-.11-.14 0-.313.016-.453.016h-.953l-.453-.016c-.047 0-.172 0-.172.141 0 .125.093.125.234.125.219 0 .438 0 .438.11 0 .046 0 .062-.032.171L1.47-.609c-.078.28-.125.343-.61.343-.171 0-.265 0-.265.157C.594-.047.64 0 .719 0c.031 0 .39-.016.453-.031h.484c.672 0 .89.031.938.031s.156 0 .156-.156c0-.11-.094-.11-.234-.11-.25 0-.438 0-.438-.125 0-.046.047-.218.078-.328l.297-1.203 1.25-.969.985 2.25c.046.094.046.11.046.141 0 .203-.187.234-.343.234-.094 0-.188.016-.188.157 0 .062.047.109.11.109.28 0 .578-.031.843-.031.672 0 .64.031.735.031.03 0 .156 0 .156-.156m0 0"/><path id="h" d="M2.828-1.14c0-.11-.11-.11-.156-.11-.125 0-.125.031-.172.172-.14.516-.406.937-.734.937-.157 0-.188-.109-.188-.25 0-.187.063-.328.188-.656l.515-1.39c.063-.172.094-.25.094-.422 0-.438-.312-.657-.656-.657-.75 0-1.078 1.11-1.078 1.22 0 .108.093.108.14.108.14 0 .14-.03.172-.171.125-.407.375-.938.75-.938.14 0 .172.11.172.25 0 .188-.047.344-.156.61L1.156-.953a1.1 1.1 0 0 0-.078.375c0 .36.266.656.672.656.75 0 1.078-1.125 1.078-1.219m.125-3.704a.354.354 0 0 0-.36-.375.55.55 0 0 0-.53.532c0 .234.171.359.359.359.265 0 .531-.234.531-.516m0 0"/><path id="i" d="M4.14-1.14c0-.11-.109-.11-.14-.11-.14 0-.156.047-.187.172-.11.453-.266.937-.61.937-.14 0-.25-.078-.25-.375 0-.125.031-.265.063-.39.03-.125.03-.172.03-.25 0-.563-.546-.75-1.108-.86.296-.187.625-.53.671-.593.454-.5.766-.688 1.063-.688.11 0 .172.063.203.11-.156.03-.344.171-.344.39s.188.266.281.266c.204 0 .407-.14.407-.453 0-.266-.157-.532-.547-.532s-.75.266-1.188.735c-.484.515-.656.594-.796.672l.796-3.188c0-.031.016-.094.016-.125 0-.11-.125-.11-.219-.094l-.828.063c-.11.016-.187.016-.187.156 0 .125.093.125.203.125.375 0 .375.047.375.11a.7.7 0 0 1-.032.171L.657-.266c0 .032-.015.079-.015.11 0 .11.078.234.25.234.14 0 .265-.094.328-.297l.39-1.578c.313.031.891.172.891.656 0 .047 0 .079-.031.188a1 1 0 0 0-.031.25c0 .437.296.781.734.781.36 0 .562-.265.656-.406.188-.297.313-.766.313-.813m0 0"/><path id="j" d="M4.297-2.172c0-.828-.547-1.344-1.266-1.344C2-3.516.921-2.437.921-1.266c0 .875.595 1.344 1.267 1.344 1.062 0 2.109-1.094 2.109-2.25m-.594-.281c0 .265-.125 1.031-.437 1.578-.266.438-.688.734-1.078.734-.297 0-.672-.203-.672-.843 0-.36.172-1.11.422-1.547.343-.578.812-.766 1.078-.766.39 0 .687.297.687.844m0 0"/><path id="k" d="M7.813-.36 5.765-3.827c.765-.172 1.89-.625 1.89-2.11 0-2.359-2.593-2.359-3.125-2.359H1.656c-.422 0-.562.14-.562.578v7.14c0 .438.125.579.562.579h.578c.454 0 .579-.156.579-.578v-3.14H4.14L6.094-.282C6.266 0 6.39 0 6.656 0h.703c.25 0 .454 0 .454-.36M6-5.921c0 .703-.172 1.344-1.64 1.344H2.811v-2.688H4.36C5.75-7.266 6-6.719 6-5.922m0 0"/><path id="l" d="M5.672-.578v-3.203c0-1.89-1.828-1.89-2.422-1.89-.562 0-1.156.046-1.953.374-.25.11-.313.14-.313.281 0 .079.063.766.079.875a.17.17 0 0 0 .156.125c.062 0 .093-.03.125-.078.515-.531 1.125-.797 1.86-.797.64 0 .843.391.843 1.094v.422c-.422 0-3.563.031-3.563 1.781C.484-.75 1.156.125 2.22.125c.406 0 1.297-.11 1.86-.937v.234c0 .39.077.578.577.578h.438c.453 0 .578-.156.578-.578M4.047-1.844c0 1.11-1.14 1.11-1.172 1.11-.516 0-.828-.422-.828-.875 0-1.172 1.656-1.266 2-1.266Zm0 0"/><path id="m" d="M5.969-.578v-7.14c0-.391-.094-.579-.578-.579h-.438c-.453 0-.578.156-.578.578v2.703a2.18 2.18 0 0 0-1.5-.593C.438-5.61.438-3.312.438-2.72c0 .547 0 2.844 2.375 2.844.5 0 1.015-.14 1.53-.687 0 .437.157.562.563.562h.485c.453 0 .578-.156.578-.578M4.344-1.5c0 .203 0 .313-.344.563a1.35 1.35 0 0 1-.719.203c-1.219 0-1.219-1.094-1.219-1.985 0-.906 0-2.031 1.344-2.031.344 0 .672.125.938.375Zm0 0"/><path id="n" d="M5.969-.578v-4.328c0-.375-.078-.563-.563-.563h-.484c-.453 0-.578.157-.578.563v2.843c0 .782-.407 1.47-1.266 1.47-.656 0-.734-.173-.734-.813v-3.5c0-.375-.078-.563-.578-.563h-.47c-.437 0-.577.125-.577.563V-1.5c0 1.266.687 1.625 1.937 1.625.313 0 1.172 0 1.735-1.016v.313c0 .39.078.578.562.578h.453c.453 0 .563-.156.563-.578m0 0"/><path id="o" d="M2.672.375v-5.281c0-.375-.078-.563-.563-.563h-.453c-.453 0-.562.157-.562.563V.672c0 .297 0 .781-.719.781-.219 0-.5-.047-.75-.219-.031-.015-.078-.046-.125-.046-.094 0-.11 0-.219.312-.047.125-.125.36-.125.39 0 .22.985.563 1.735.563 1.328 0 1.78-.89 1.78-2.078m0-7.625v-.219c0-.39-.078-.578-.563-.578H1.5c-.453 0-.578.156-.578.578v.219c0 .36.062.578.578.578h.61c.5 0 .562-.219.562-.578m0 0"/><path id="p" d="M5.469-.594c0-.14-.047-.687-.078-.843 0-.032-.032-.157-.141-.157-.047 0-.078 0-.187.125-.204.172-.766.672-1.75.672-1.25 0-1.25-1.219-1.25-1.969 0-.968.062-1.984 1.28-1.984.782 0 1.11.203 1.532.547.14.14.172.14.219.14.125 0 .14-.109.156-.156.016-.093.14-.765.14-.828 0-.11-.077-.156-.28-.25-.579-.266-.938-.375-1.782-.375-1.781 0-2.89.828-2.89 2.922C.438-.766 1.468.125 3.28.125c.313 0 1.031 0 1.828-.406.344-.188.36-.203.36-.313m0 0"/><path id="q" d="M2.313-.578v-4.328c0-.375-.079-.563-.563-.563h-.453c-.422 0-.563.125-.563.563v4.328c0 .437.125.578.563.578h.453c.453 0 .563-.156.563-.578m.093-6.672v-.219c0-.39-.094-.578-.578-.578h-.61c-.452 0-.577.156-.577.578v.219c0 .36.062.578.578.578h.61c.5 0 .577-.219.577-.578m0 0"/><path id="r" d="M5.719-3.11c0-1.546-.703-2.562-2.485-2.562-1.921 0-2.859 1.063-2.859 2.89 0 1.954 1.125 2.907 3 2.907.469 0 1.14-.047 1.938-.453.25-.125.343-.156.343-.313 0-.078-.031-.421-.047-.515-.046-.375-.062-.39-.171-.39-.047 0-.079 0-.204.124a2.7 2.7 0 0 1-1.796.688c-1.36 0-1.5-1.063-1.532-1.828h3.25c.266 0 .563 0 .563-.547m-1.313-.078h-2.5c.047-.734.282-1.624 1.328-1.624.954 0 1.125.687 1.172 1.625m0 0"/><path id="s" d="M4.734-1.687c0-.672-.359-1.079-.578-1.282-.468-.422-.89-.5-1.39-.594-.657-.124-1.141-.218-1.141-.687 0-.484.39-.578.86-.578.796 0 1.234.297 1.546.562.11.125.14.125.188.125.125 0 .14-.109.156-.156.031-.11.14-.766.14-.828 0-.187-.624-.36-.765-.406-.469-.14-.86-.14-1.172-.14-.531 0-2.14 0-2.14 1.702 0 .594.265.938.593 1.235.422.375.875.468 1.563.593.344.063.953.172.953.688 0 .562-.469.656-.922.656a2.21 2.21 0 0 1-1.766-.828c-.062-.062-.093-.094-.171-.094-.11 0-.141.11-.157.172-.015.172-.156.86-.156.969 0 .219.89.5.89.5a4.4 4.4 0 0 0 1.36.203c.61 0 2.11-.047 2.11-1.812m0 0"/><path id="t" d="M5.719-3.11c0-1.546-.703-2.562-2.485-2.562-1.921 0-2.859 1.063-2.859 2.89C.375-.905 1.406.048 3.125.126c-.297.39-.453.766-.453 1.219 0 .672.422 1.203 1.281 1.203.453 0 .969-.172 1.39-.39.063-.032.11-.141.11-.22l-.14-.437c0-.078-.157-.156-.235-.14-.266.062-.516.14-.766.14s-.468-.11-.468-.469c.015-.39.203-.797.594-1.031a4 4 0 0 0 .875-.328c.25-.125.343-.156.343-.313 0-.078-.031-.421-.047-.515-.046-.375-.062-.39-.171-.39-.047 0-.079 0-.204.124a2.7 2.7 0 0 1-1.796.688c-1.36 0-1.5-1.063-1.532-1.828h3.25c.266 0 .563 0 .563-.547m-1.313-.078h-2.5c.047-.734.282-1.624 1.328-1.624.954 0 1.125.687 1.172 1.625m0 0"/><path id="u" d="M6.25-2.766c0-.578 0-2.843-2.156-2.843-.719 0-1.344.297-1.782.703 0-.453-.156-.563-.562-.563h-.453c-.422 0-.563.125-.563.563V1.75c0 .422.125.563.563.563h.484c.453 0 .578-.157.578-.563V-.469a1.77 1.77 0 0 0 1.36.594c2.531 0 2.531-2.281 2.531-2.89m-1.625.032c0 .468 0 2-1.344 2-.281 0-.5-.094-.64-.203-.282-.204-.282-.25-.282-.47V-4.28c.125-.125.516-.39 1.032-.39 1.218 0 1.234 1.405 1.234 1.937m0 0"/><path id="v" d="M4.25-4.719v-.562c0-.235 0-.328-.203-.328-.344 0-1.219.125-1.781 1.406v-.766c0-.39-.094-.578-.578-.578h-.391c-.422 0-.563.125-.563.578v4.39C.734-.14.86 0 1.297 0h.453c.453 0 .563-.156.563-.578V-2.75c0-1.14.953-1.594 1.703-1.656.218 0 .234 0 .234-.313m0 0"/><path id="w" d="M8.594-5.14c-.031-.329-.25-.329-.625-.329-.563 0-.703.032-.875.657l-.969 3.468-1.016-3.593c-.062-.266-.156-.532-.703-.532-.172 0-.453 0-.61.266-.108.187-.64 2.25-1.062 3.656l-.953-3.39c-.125-.407-.25-.532-.734-.532h-.25c-.219 0-.469 0-.516.328L1.547-.547C1.703 0 2.016 0 2.313 0h.343c.563 0 .656-.172.781-.656.282-1 .704-2.5.766-3.125v-.016c.078.688.61 2.578.75 3.14.14.423.203.657.797.657h.813c.515 0 .64-.14.75-.547Zm0 0"/><path id="x" d="M2.313-.578v-7.14c0-.391-.079-.579-.563-.579h-.453c-.422 0-.563.14-.563.578v7.14C.734-.14.86 0 1.297 0h.453c.453 0 .563-.156.563-.578m0 0"/><path id="y" d="M7.656-5.719c0-1.797-1.172-2.578-3-2.578h-3c-.422 0-.562.14-.562.578v7.14c0 .438.125.579.562.579h.61c.453 0 .578-.156.578-.578v-2.625h1.812c1.875 0 3-.797 3-2.516M6-5.719c0 .813-.125 1.578-1.734 1.578H2.813v-3.125H4.28C5.844-7.266 6-6.546 6-5.719m0 0"/><path id="z" d="M5.969-.578v-3.313c0-1.218-.516-1.718-1.735-1.718-1.265 0-1.796.906-1.953 1.234h-.015v-.594c0-.39-.079-.578-.563-.578h-.406c-.438 0-.578.125-.578.578v4.39c0 .438.125.579.578.579h.469c.453 0 .578-.156.578-.578v-2.64c0-1.032.687-1.532 1.312-1.532.578 0 .688.281.688.89v3.282c0 .39.093.578.578.578h.484c.453 0 .563-.156.563-.578m0 0"/><path id="A" d="M2.594 2.234c-.375-.5-1.25-1.64-.64-4.484.609-2.828 1.952-3.969 2.546-4.484h-.594c-1.25.89-2.265 2.422-2.703 4.484-.453 2.14-.031 3.625.813 4.484Zm0 0"/><path id="B" d="M6.313-4.406c.203-.953-.516-1.813-1.797-1.813H2.203L.875 0h.86l.546-2.562h1.453c1.266 0 2.36-.86 2.579-1.844m-.782 0c-.156.718-.843 1.297-1.89 1.297H2.375l.547-2.578h1.265c1.032 0 1.485.562 1.344 1.28m0 0"/><path id="C" d="M3.563-1.156a.97.97 0 0 0-.25-.89c-.25-.267-.5-.329-1.032-.423-.312-.062-.75-.156-.656-.578.11-.515.75-.515.89-.515.657 0 .985.203 1.22.343l.25-.625c-.5-.25-.907-.297-1.282-.297-.203 0-1.515 0-1.765 1.188a.9.9 0 0 0 .187.797c.281.297.5.344 1.078.469.281.046.781.14.672.609C2.75-.5 2.031-.5 1.906-.5c-.531 0-1-.187-1.328-.453l-.25.656c.469.281 1 .39 1.453.39.594 0 1.563-.187 1.782-1.25m0 0"/><path id="D" d="M4.563-1.625c.14-.703-.25-1.297-.938-1.547.703-.312 1.203-.906 1.328-1.515.172-.782-.453-1.375-1.39-1.375-.75 0-1.47.39-1.97.953l.25.515C2.407-5.375 3.11-5.5 3.439-5.5c.468 0 .859.25.734.813A1.56 1.56 0 0 1 2.766-3.5c-.188.016-.328.031-.5.031l-.125.594h.672c.874 0 1 .703.89 1.25-.156.703-.687 1.234-1.375 1.234C1.594-.39 1-.797.766-1.28c-.141.36-.157.39-.235.578.328.531.938.906 1.688.906 1.14 0 2.14-.89 2.344-1.828m0 0"/><path id="E" d="M3.328-2.25c.453-2.125.031-3.625-.812-4.484h-.578c.39.5 1.25 1.656.64 4.484C1.984.594.625 1.734.031 2.234h.594c1.234-.89 2.266-2.421 2.703-4.484m0 0"/><path id="F" d="M-2.078-5.516v.25c1.203.204 1.812.375 1.812 1.813v1.187c0 .36-.046.375-.328.375h-2.093v-.765c0-.797.234-.906.937-.906v-.25h-2.125v.25c.688 0 .922.109.922.906v.765h-1.875c-.266 0-.328-.015-.328-.375v-1.14c0-1.313.484-1.485 1.547-1.625v-.25l-1.813.234v4.703h.266V-.53c0-.61.093-.625.39-.625H-.64c.297 0 .375.015.375.625v.187H0v-4.812Zm0 0"/><path id="G" d="M-1.031-3.047c-.375 0-.938.219-1.11 1.172-.015.063-.093.516-.093.547-.063.25-.235.625-.547.625-.235 0-.578-.188-.578-.938 0-.89.656-.937.875-.953.062 0 .093-.062.093-.11 0-.14-.062-.14-.203-.14h-.75c-.125 0-.203 0-.203.11 0 .046 0 .062.125.187 0 .016.078.094.078.11 0 0 0 .03-.031.078-.094.125-.172.359-.172.718 0 1.11.594 1.36.985 1.36.39 0 .624-.297.656-.313.234-.328.265-.5.36-1.047.077-.375.187-.984.718-.984.312 0 .687.203.687.938 0 .812-.625 1.046-1.046 1.14-.11.031-.141.047-.141.14 0 .126.062.126.219.126h.984c.125 0 .203 0 .203-.094 0-.062 0-.062-.156-.203-.047-.047-.14-.125-.188-.172.329-.36.344-.734.344-.937 0-1.016-.578-1.36-1.11-1.36m0 0"/><path id="H" d="M0-4.484h-.266c0 .547-.046.609-.437.609h-2.813l.094 1.219h.266c0-.547.047-.61.437-.61h1.39c.688 0 1.188.407 1.188 1.016 0 .688-.343.719-.75.719h-2.625l.094 1.203h.266c0-.61.015-.61.719-.61h1.203c.578 0 1.312 0 1.312-1.265 0-.75-.578-1.047-.64-1.078v-.016h.64Zm0 0"/><path id="I" d="M0-2.125h-.266c0 .5 0 .61-.359.61h-4.906l.093 1.187h.266c0-.547.047-.61.438-.61h4.109c.36 0 .36.094.36.61H0c-.031-.313-.031-.766-.031-.906 0-.157 0-.578.031-.891m0 0"/><path id="J" d="M-1-2.812h-.437v.25h.421c.547 0 .844.25.844.546 0 .532-.687.532-.812.532h-2.188v-1.188h-.265v1.188h-1.47v.25c.735 0 1.485.328 1.516 1.078h.22v-.719H-1c.938 0 1.078-.719 1.078-1.078 0-.547-.469-.86-1.078-.86m0 0"/><path id="K" d="M-.719-4.094h-.437v.25h.437c.328 0 .453.11.453.281 0 .297-.359.297-.453.297h-1.656c-.781 0-1.172.75-1.172 1.485 0 .656.25 1.25.781 1.25a.36.36 0 0 0 .375-.375.36.36 0 0 0-.375-.375.356.356 0 0 0-.359.297c-.203-.297-.203-.735-.203-.782 0-.453.312-.89.969-.89h.234c.031.453.047.984.281 1.547.313.703.766.843 1.032.843.687 0 .89-.812.89-1.359a1.23 1.23 0 0 0-.64-1.11c.296-.046.609-.25.609-.609 0-.078-.031-.75-.766-.75m-.406 1.438c.781 0 .984.64.984.969 0 .406-.28.765-.671.765-.516 0-1.063-.5-1.094-1.734Zm0 0"/><path id="L" d="M-.953-3.516a.12.12 0 0 0-.11.125c0 .094.047.11.094.125.782.282.797.97.797 1.11 0 .36-.156.734-.531.969-.36.234-.875.234-1.11.234v-2.344c0-.172 0-.219-.187-.219-.703 0-1.547.391-1.547 1.516 0 .984.813 1.766 1.797 1.766 1.031 0 1.828-.86 1.828-1.875 0-1-.844-1.407-1.031-1.407m-1.078.547v2.016c-1.11-.078-1.297-.75-1.297-1.047 0-.937 1.125-.969 1.297-.969m0 0"/><path id="M" d="M-.031-1.719c-.438 0-.86.172-.86.547 0 .266.22.438.438.438.25 0 .453-.172.453-.438 0-.187-.094-.297-.125-.312.25 0 .89 0 1.469.593.015.032.031.047.078.047.078 0 .125-.062.125-.11 0-.093-.625-.765-1.578-.765m0 0"/><path id="N" d="M-3.203-4.11a.43.43 0 0 0-.406.454c0 .14.046.531.375.89-.141.204-.282.516-.282.891 0 .781.547 1.36 1.172 1.36.375 0 .656-.204.813-.376a.934.934 0 0 0 1.36-.094c.108.423.421.75.78.75.579 0 1.032-.827 1.032-1.874 0-1-.407-1.875-1.047-1.875-.422 0-.766.25-.89.515-.25.469-.25.86-.25 1.64v.454c-.032.25-.235.438-.532.438-.188 0-.266-.047-.328-.094.187-.344.234-.657.234-.844 0-.781-.547-1.375-1.172-1.375-.297 0-.562.14-.765.328a1.2 1.2 0 0 1-.266-.765c.016.03.063.078.188.078.14 0 .25-.11.25-.25a.25.25 0 0 0-.266-.25m.86 1.5c.296 0 .5.032.656.157a.7.7 0 0 1 .28.578c0 .734-.765.734-.937.734-.297 0-.5-.03-.656-.156a.72.72 0 0 1-.281-.578c0-.734.765-.734.937-.734m2.952-.906c.422 0 .797.61.797 1.407S1.031-.703.61-.703c-.171 0-.64-.14-.64-.781v-.766c0-.219 0-1.266.64-1.266m0 0"/><path id="O" d="M0-2.078h-.266c0 .531-.03.562-.343.562h-2.907l.094 1.157h.266c0-.516.047-.578.437-.578h2.094c.36 0 .36.093.36.609H0c-.031-.313-.031-.766-.031-.89 0-.095 0-.579.031-.86m-4.797.453a.453.453 0 0 0-.453.453.45.45 0 0 0 .453.438.437.437 0 0 0 .438-.438.45.45 0 0 0-.438-.453m0 0"/><path id="P" d="M0-4.484h-.266c0 .515 0 .609-.359.609h-1.797c-.656 0-1.094.313-1.094 1.14 0 .797.579 1.157.766 1.25h-.766l.094 1.157h.266c0-.547.047-.61.437-.61h2.094c.36 0 .36.094.36.61H0c-.031-.344-.031-.688-.031-.906 0-.235 0-.563.031-.907h-.266c0 .5 0 .61-.359.61h-1.437c-.844 0-1.235-.64-1.235-1.125s.344-.61.844-.61h1.828c.36 0 .36.094.36.61H0C-.031-3-.031-3.36-.031-3.562c0-.235 0-.579.031-.922m0 0"/><path id="Q" d="M-1.469-4.219a1.62 1.62 0 0 0-1.593 1.266l-.266 1.094c-.11.515-.516.89-1 .89-.547 0-1.047-.468-1.047-1.156 0-1.375 1.297-1.562 1.594-1.61.094-.015.14-.015.14-.124 0-.125-.046-.125-.203-.125h-1.562c-.125 0-.203 0-.203.109 0 .063.015.078.109.125l.453.281c-.437.406-.562.906-.562 1.344 0 .953.718 1.656 1.53 1.656.61 0 .938-.343 1.095-.5.28-.281.343-.547.547-1.406.156-.687.187-.797.468-1.062.078-.079.344-.282.735-.282.562 0 1.14.422 1.14 1.172 0 .875-.422 1.781-1.531 1.828-.125.016-.187.016-.187.125 0 .125.062.125.218.125h1.547c.14 0 .219 0 .219-.11C.172-.64.156-.64.078-.702.031-.734-.047-.766-.375-.984c.438-.5.547-1.094.547-1.578 0-.985-.797-1.657-1.64-1.657m0 0"/><path id="R" d="M-1.703-3.984c-.984 0-1.844.828-1.844 1.875s.86 1.875 1.844 1.875c1 0 1.781-.86 1.781-1.875 0-1.032-.781-1.875-1.781-1.875m-.063.703c.36 0 .797.015 1.141.25.313.203.453.562.453.922 0 .422-.203.765-.484.937-.328.203-.719.219-1.11.219-.312 0-.78 0-1.125-.235a1.14 1.14 0 0 1-.437-.921c0-.422.203-.766.469-.938.343-.219.765-.234 1.093-.234m0 0"/><path id="S" d="M-3.016-3.062c-.28 0-.5.25-.5.609 0 .515.391.875.844 1.031v.016h-.844l.094 1.125h.266c0-.547.047-.61.437-.61h2.094c.36 0 .36.11.36.61H0c-.031-.313-.031-.75-.031-.938 0-.468 0-.484.031-1h-.266v.156c0 .579-.078.594-.375.594h-1.171c-.61 0-1.47-.25-1.485-1.015.031.046.094.14.281.14.25 0 .36-.203.36-.36 0-.187-.125-.358-.36-.358m0 0"/><path id="T" d="M-1.719-4.422c-1 0-1.797.813-1.797 1.781 0 .313.079.766.5 1.172h-.5l.094 1.188h.266c0-.563.047-.61.375-.61H.922c.36 0 .36.11.36.61h.265c-.031-.344-.031-.688-.031-.906 0-.235 0-.563.03-.907h-.265c0 .516 0 .61-.36.61H-.39a1.37 1.37 0 0 0 .47-1.047c0-1-.782-1.89-1.798-1.89m0 .719c.907 0 1.578.578 1.578 1.219 0 .28-.125.64-.515.906-.14.094-.156.094-.297.094h-1.703a1.3 1.3 0 0 1-.61-1.094c0-.61.672-1.125 1.547-1.125m0 0"/><path id="U" d="M-.437-1.625a.453.453 0 0 0-.454.453c0 .266.22.438.438.438A.44.44 0 0 0 0-1.172a.45.45 0 0 0-.437-.453m0 0"/><path id="V" d="M-1.625-3.875c-1.031 0-1.766.797-1.766 1.672 0 .578.36.922.75 1.11-.656 0-1.234-.063-1.718-.344-.407-.25-.735-.657-.735-1.157 0-.156.032-.515.297-.703.031.36.297.39.375.39.25 0 .375-.187.375-.374 0-.14-.078-.375-.39-.375-.47 0-.86.36-.86 1.078 0 1.11 1.047 2.234 2.766 2.234C-.36-.344.172-1.359.172-2.125c0-.39-.11-.797-.453-1.156-.313-.328-.64-.594-1.344-.594m0 .75c.406 0 .75 0 1.047.156.36.219.5.485.5.844a.88.88 0 0 1-.516.797c-.36.187-.89.203-1.203.203-.781 0-1.375-.422-1.375-1.047 0-.39.203-.64.485-.781.296-.172.656-.172 1.062-.172m0 0"/><path id="W" d="M-1.36-3.875c-.671 0-1.265.531-1.452 1.344-.22-.625-.75-1.11-1.391-1.11-.64 0-1.094.72-1.094 1.547 0 .86.453 1.5 1.063 1.5.297 0 .422-.187.422-.406 0-.25-.172-.406-.407-.406-.297 0-.406.265-.406.437-.437-.343-.469-.953-.469-1.094 0-.203.063-.812.89-.812.548 0 .891.234 1.016.344.25.234.266.422.297.906 0 .156.016.219.125.219.11 0 .11-.078.11-.219v-.39c0-.626.453-1.032 1.297-1.032 1 0 1.28.563 1.28.985 0 .437-.155 1.046-.577 1.328 0-.297-.188-.5-.438-.5-.265 0-.437.187-.437.453 0 .203.125.437.453.437.75 0 1.25-.812 1.25-1.734 0-1.047-.734-1.797-1.531-1.797m0 0"/><path id="X" d="M2.078 5.516v-.25C.875 5.063.266 4.89.266 3.453V2.266c0-.36.046-.375.328-.375h2.094v.765c0 .797-.235.906-.938.906v.25h2.125v-.25c-.687 0-.922-.109-.922-.906v-.765h1.875c.266 0 .328.015.328.375v1.14c0 1.313-.484 1.485-1.547 1.625v.25l1.813-.234V.344h-.266V.53c0 .61-.093.625-.39.625H.64c-.297 0-.375-.015-.375-.625V.344H0v4.812Zm0 0"/><path id="Y" d="M0 4.328h.266c0-.484.03-.562.28-.781L1.86 2.453c.282.219.563.453.813.688.281.265.484.547.5 1.047h.265c-.03-.313-.03-.329-.03-.688 0-.031 0-.5.03-.75h-.265c-.016.156-.11.188-.219.188a.5.5 0 0 1-.312-.141l-.578-.5.75-.625c.109-.11.171-.11.171-.11.063 0 .172.063.188.25h.265c-.03-.312-.03-.765-.03-.843 0-.14 0-.547.03-.797h-.265c0 .547-.016.547-.5.969l-.985.812-.859-.719C.61 1.031.281.734.266.141H0c.031.297.031.343.031.687 0 0 0 .5-.031.75h.266c.015-.11.062-.187.218-.187.141 0 .25.093.282.109l.718.625-.78.656c-.188.156-.204.156-.25.156-.079 0-.188-.046-.188-.25H0c.031.344.031.704.031.86 0 .14 0 .547-.031.781m0 0"/><path id="Z" d="M0 4.484h.266c0-.546.046-.609.437-.609h2.813l-.094-1.219h-.266c0 .547-.047.61-.437.61h-1.39C.64 3.266.14 2.859.14 2.25c0-.687.343-.719.75-.719h2.625L3.422.328h-.266c0 .61-.015.61-.719.61H1.235c-.578 0-1.312 0-1.312 1.265 0 .75.578 1.047.64 1.078v.016h-.64Zm0 0"/><path id="aa" d="M0 2.125h.266c0-.5 0-.61.359-.61h4.906L5.438.329h-.266c0 .547-.047.61-.438.61H.625c-.36 0-.36-.094-.36-.61H0c.031.313.031.766.031.906 0 .157 0 .579-.031.891m0 0"/><path id="ab" d="M1 2.813h.438v-.25h-.422c-.547 0-.844-.25-.844-.547 0-.532.687-.532.812-.532h2.188v1.188h.265V1.484h1.47v-.25c-.735 0-1.485-.328-1.516-1.078h-.22v.719H1c-.937 0-1.078.719-1.078 1.078 0 .547.469.86 1.078.86m0 0"/><path id="ac" d="M.719 4.094h.437v-.25H.72c-.328 0-.453-.11-.453-.281 0-.297.359-.297.453-.297h1.656c.781 0 1.172-.75 1.172-1.485 0-.656-.25-1.25-.781-1.25a.36.36 0 0 0-.375.375c0 .219.156.375.375.375a.356.356 0 0 0 .359-.297c.203.297.203.735.203.782 0 .453-.312.89-.969.89h-.234c-.031-.453-.047-.984-.281-1.547C1.53.406 1.078.266.813.266c-.688 0-.891.812-.891 1.359 0 .578.328.938.64 1.11-.296.046-.609.25-.609.609 0 .078.031.75.766.75m.406-1.438c-.781 0-.984-.64-.984-.969 0-.406.28-.765.672-.765.515 0 1.062.5 1.093 1.734Zm0 0"/><path id="ad" d="M0 4.422h.266c0-.547.046-.61.437-.61h4.828l-.093-1.187h-.266c0 .531-.047.61-.438.61H3.047c.312-.282.469-.657.469-1.079 0-1-.782-1.875-1.797-1.875-.985 0-1.797.797-1.797 1.797 0 .469.219.86.5 1.125h-.5Zm.984-1.219c-.14 0-.171 0-.328-.125a1.15 1.15 0 0 1-.515-.953c0-.375.187-.687.484-.875.313-.219.703-.266 1.078-.266.469 0 .797.079 1.063.266.297.188.53.547.53.953 0 .375-.202.766-.608 1Zm0 0"/><path id="ae" d="M.031 1.719c.438 0 .86-.172.86-.547A.436.436 0 0 0 .453.734C.203.734 0 .906 0 1.172c0 .187.094.297.125.312-.25 0-.89 0-1.469-.593-.015-.032-.031-.047-.078-.047-.078 0-.125.062-.125.11 0 .093.625.765 1.578.765m0 0"/><path id="af" d="M-.36 1.813h3.876L3.422.563h-.266c0 .593-.047.671-.437.671H-.375c-.219 0-1.031-.046-1.031-.593 0-.11.031-.297.078-.391.016.047.11.219.344.219A.36.36 0 0 0-.61.094C-.61-.11-.75-.281-1-.281c-.406 0-.625.437-.625.937 0 .64.516 1.156 1.266 1.156m5.157 0a.44.44 0 0 0 .453-.438.44.44 0 0 0-.453-.437.427.427 0 0 0-.438.437c0 .25.204.438.438.438m0 0"/><path id="ag" d="M1.031 3.047c.375 0 .938-.219 1.11-1.172.015-.062.093-.516.093-.547.063-.25.235-.625.547-.625.235 0 .578.188.578.938 0 .89-.656.937-.875.953-.062 0-.093.062-.093.11 0 .14.062.14.203.14h.75c.125 0 .203 0 .203-.11 0-.046 0-.062-.125-.187 0-.016-.078-.094-.078-.11 0 0 0-.03.031-.078.094-.125.172-.359.172-.718 0-1.11-.594-1.36-.985-1.36-.39 0-.624.297-.656.313-.234.328-.265.5-.36 1.047-.077.375-.187.984-.718.984-.312 0-.687-.203-.687-.937C.14.875.766.64 1.188.547c.109-.031.14-.047.14-.14C1.328.28 1.266.28 1.11.28H.125c-.125 0-.203 0-.203.094 0 .063 0 .063.156.203.047.047.14.125.188.172-.328.36-.344.734-.344.938 0 1.015.578 1.359 1.11 1.359m0 0"/><path id="ah" d="M1.703 3.984c.984 0 1.844-.828 1.844-1.875 0-1.046-.86-1.875-1.844-1.875-1 0-1.781.86-1.781 1.875 0 1.032.781 1.875 1.781 1.875m.063-.703c-.36 0-.797-.015-1.141-.25C.313 2.828.172 2.47.172 2.11c0-.421.203-.765.484-.937.328-.203.719-.219 1.11-.219.312 0 .78 0 1.125.235.28.218.437.546.437.921 0 .422-.203.766-.469.938-.343.219-.765.234-1.093.234m0 0"/><path id="ai" d="M.953 3.516a.12.12 0 0 0 .11-.125c0-.094-.047-.11-.094-.125a1.14 1.14 0 0 1-.797-1.11c0-.36.156-.734.531-.969.36-.234.875-.234 1.11-.234v2.344c0 .172 0 .219.187.219.703 0 1.547-.391 1.547-1.516 0-.984-.813-1.766-1.797-1.766-1.031 0-1.828.86-1.828 1.875 0 1 .844 1.407 1.031 1.407m1.078-.547V.953c1.11.078 1.297.75 1.297 1.047 0 .938-1.125.969-1.297.969m0 0"/><path id="aj" d="M0 4.484h.266c0-.515 0-.609.359-.609h1.797c.656 0 1.094-.312 1.094-1.14a1.38 1.38 0 0 0-.766-1.25h.766L3.422.327h-.266c0 .547-.047.61-.437.61H.625c-.36 0-.36-.094-.36-.61H0c.031.344.031.688.031.906 0 .235 0 .563-.031.907h.266c0-.5 0-.61.359-.61h1.438c.843 0 1.234.64 1.234 1.125s-.344.61-.844.61H.625c-.36 0-.36-.094-.36-.61H0c.031.344.031.703.031.906 0 .235 0 .579-.031.922m0 0"/><path id="ak" d="M1.469 4.219a1.62 1.62 0 0 0 1.594-1.266l.265-1.094c.11-.515.516-.89 1-.89.547 0 1.047.469 1.047 1.156 0 1.375-1.297 1.563-1.594 1.61-.094.015-.14.015-.14.124 0 .125.046.125.203.125h1.562c.125 0 .203 0 .203-.109 0-.062-.015-.078-.109-.125l-.453-.281c.437-.406.562-.906.562-1.344 0-.953-.718-1.656-1.53-1.656-.61 0-.938.344-1.095.5-.28.281-.343.547-.546 1.406-.157.688-.188.797-.47 1.063a1.08 1.08 0 0 1-.734.28c-.562 0-1.14-.421-1.14-1.171 0-.875.422-1.781 1.531-1.828.125-.016.188-.016.188-.125 0-.125-.063-.125-.22-.125H.048c-.14 0-.219 0-.219.11 0 .062.016.062.094.124.047.031.125.063.453.281-.437.5-.547 1.094-.547 1.579 0 .984.797 1.656 1.64 1.656m0 0"/><path id="al" d="M0 4.484h.266c0-.515 0-.609.359-.609h1.797c.656 0 1.094-.312 1.094-1.14a1.38 1.38 0 0 0-.766-1.25h.766L3.422.327h-.266c0 .547-.047.61-.437.61H.625c-.36 0-.36-.094-.36-.61H0c.031.344.031.688.031.906 0 .235 0 .563-.031.907h.266c0-.5 0-.61.359-.61h1.438c.843 0 1.234.64 1.234 1.125s-.344.61-.844.61H.625c-.36 0-.36-.094-.36-.61H0c.031.344.031.703.031.906 0 .235 0 .579-.031.922m5.047-.718.156-.157c-.36-.328-.36-.578-.36-.671 0-.188.079-.344.173-.532.109-.219.187-.36.187-.547 0-.312-.172-.468-.64-.906l-.157.156c.36.329.36.579.36.672 0 .172-.079.344-.188.532-.094.218-.172.359-.172.546 0 .313.172.47.64.907m0 0"/><path id="am" d="M3.016 3.063c.28 0 .5-.25.5-.61 0-.515-.391-.875-.844-1.031v-.016h.844L3.422.281h-.266c0 .547-.047.61-.437.61H.625C.265.89.265.78.265.28H0c.031.313.031.75.031.938 0 .468 0 .484-.031 1h.266v-.156c0-.579.078-.594.375-.594h1.172c.609 0 1.468.25 1.484 1.015-.031-.046-.094-.14-.281-.14-.25 0-.36.203-.36.36 0 .187.125.358.36.358m0 0"/><path id="an" d="M1.719 4.422c1 0 1.797-.813 1.797-1.781 0-.313-.079-.766-.5-1.172h.5L3.422.28h-.266c0 .563-.047.61-.375.61H-.922c-.36 0-.36-.11-.36-.61h-.265c.031.344.031.688.031.907 0 .234 0 .562-.03.906h.265c0-.516 0-.61.36-.61H.39a1.37 1.37 0 0 0-.47 1.047c0 1 .782 1.89 1.798 1.89m0-.719C.812 3.703.14 3.125.14 2.484c0-.28.125-.64.515-.906.14-.094.156-.094.297-.094h1.703c.313.188.61.594.61 1.094 0 .61-.672 1.125-1.547 1.125m0 0"/><path id="ao" d="M.438 1.625a.453.453 0 0 0 .453-.453.436.436 0 0 0-.438-.438.44.44 0 0 0-.453.438.45.45 0 0 0 .438.453m0 0"/><path id="ap" d="M5.125 4.11V2.077c0-.203.016-.437.031-.64.032-.422.11-.422.235-.454v-.25L3.703.47v.25c.125.015.672.11.735.219.046.078.046.687.046.796v1.688l-1.109-.813C2.172 1.703.906 1.5.281 1.5c-.078 0-.453 0-.453.375s.36.375.453.375h.39c1.142 0 2.079.203 2.61.594L4.86 4.03c.079.078.094.078.266.078m0 0"/><path id="aq" d="M1.594 3.797c.922 0 1.75-.672 1.75-1.61 0-.39-.125-.765-.406-1.078h1.546c-.03.11-.125.422-.125.766 0 1 .704 1.594.829 1.594.093 0 .109-.047.109-.094 0 0 0-.031-.031-.094a3 3 0 0 1-.22-1.11c0-.468.11-.858.22-1.108.03-.079.03-.11.03-.11C5.297.86 5.22.86 5.063.86H2.735c-.14 0-.234 0-.234.125 0 .063.031.079.094.125.11.094.515.391.515 1.079 0 .437-.359.656-.515.734-.281.125-.656.14-.953.14s-.735 0-1.078-.218a1.08 1.08 0 0 1-.485-.906c0-.516.313-1.016.844-1.204C.906.75.906.813.906.813c0 .218.14.406.39.406a.39.39 0 0 0 .407-.39c0-.157-.078-.407-.422-.407-.718 0-1.453.625-1.453 1.531 0 1 .781 1.844 1.766 1.844m0 0"/><path id="ar" d="M13.61-7.687v-.516l-1.297.031c-.344 0-1.22 0-1.5-.031v.515c.14 0 1.187 0 1.187.172 0 0 0 .032-.047.141L9.938-2.047l-2.126-5.64h1.125v-.516c-.374.031-1.484.031-1.937.031-.375 0-1.531 0-1.828-.031v.515h1.016l.484 1.297-1.64 4.344-2.126-5.64h1.125v-.516c-.343.031-1.515.031-1.953.031-.375 0-1.515 0-1.812-.031v.515h1L4.109-.171c.079.203.11.281.375.281.266 0 .297-.078.375-.28l2.079-5.5 2.093 5.5c.063.202.094.28.36.28.234 0 .297-.046.375-.28L12.5-7.407c.094-.203.11-.282 1.11-.282m0 0"/><path id="aY" d="M9.953 0v-.516h-.312c-.657 0-.703-.062-.813-.218L5.61-5.047l2.844-2.406c.156-.14.266-.234 1.328-.234v-.516L8.5-8.172c-.36 0-1.297 0-1.594-.031v.515c.266 0 .547.016.86.141l-4.47 3.813v-3.953h1.267v-.516c-.344.031-1.625.031-2.047.031-.438 0-1.72 0-2.063-.031v.515H1.72v7.172H.453V0c.344-.031 1.625-.031 2.063-.031.422 0 1.703 0 2.047.031v-.516H3.297v-2.562L4.53-4.125l2.5 3.344c.016.031.063.094.063.14 0 .125-.578.125-.844.125V0c.39-.031 1.5-.031 1.953-.031.36 0 1.485 0 1.75.031m0 0"/><path id="bu" d="M5.766 0v-.516H4.14V-7.5c0-.344-.032-.344-.407-.344-.89.766-2.218.766-2.484.766h-.219v.516h.219c.422 0 1.063-.079 1.531-.235v6.281H1.125V0l2.313-.031Zm0 0"/><path id="bv" d="M6.516-7.703H4c-.094 0-1.875-.047-2.016-.078-.296-.047-.328-.172-.343-.297h-.5L.734-5.125h.516c0-.125.094-.953.297-1.094.11-.062 1.11-.062 1.297-.062h2.172C3.625-4.61 3.469-4.406 3.094-3.703 2.39-2.313 2.28-1.25 2.28-.656c0 .797.61.797.703.797a.75.75 0 0 0 .547-.235c.156-.187.156-.343.156-.86 0-1.827.172-3.171.922-4.062l1.797-2.14c.11-.125.11-.14.11-.547m0 0"/><path id="bw" d="M6.14-2.469c0-1.672-1.156-2.547-2.577-2.547-.235 0-1 0-1.485 1.016v-.328c0-.734.031-1.469.375-2.11.266-.5.875-.968 1.64-.968.235 0 .657.031.954.328-.453.047-.64.39-.64.703 0 .438.312.703.702.703.313 0 .704-.203.704-.719 0-.718-.485-1.453-1.735-1.453-1.5 0-3.516.938-3.516 4.047 0 .813 0 3.938 2.829 3.938 1.578 0 2.75-.922 2.75-2.61m-1.515 0c0 1.172 0 2.14-1.25 2.14-.75 0-1.062-.655-1.11-.75-.156-.39-.156-1.343-.156-1.452 0-1.469.625-2.094 1.329-2.094 1.187 0 1.187.953 1.187 2.156m0 0"/><path id="as" d="M7.656-6.953c.094-.344.047-.656-.14-.906-.282-.391-.985-.47-1.375-.47-.891 0-1.766.22-2.657.813-.718.485-1.218 1.282-1.421 2.079-.172.718-.235 1.453.156 1.984.406.531 1.094.781 1.844.781.593 0 1.25-.172 1.828-.531l-.25 1.14c-.125.516-.328.97-.578 1.47-.22.374-.5.75-.86 1.046-.469.39-1.031.656-1.578.656-.36 0-.719-.062-.922-.328-.11-.156-.11-.375-.11-.593.016-.157.016-.329-.062-.438a.34.34 0 0 0-.281-.125.75.75 0 0 0-.469.14.84.84 0 0 0-.265.407.98.98 0 0 0 .172.89c.28.391.812.485 1.359.485.984 0 1.984-.406 2.86-1.11.452-.359.78-.812 1.03-1.328.36-.718.61-1.468.797-2.234l.391-1.578-.672.156c-.156.344-.5.828-.687.969-.47.39-1 .547-1.532.547-.5 0-.89-.219-1.156-.563-.36-.484-.312-1.187-.14-1.86a3.62 3.62 0 0 1 1.265-1.952 2.5 2.5 0 0 1 1.547-.516c.297 0 .719.11.922.406.14.188.219.407.14.672-.046.219-.125.469-.328.64-.28.22-.546.25-.828.25l-.093.204c.187.031.468.11.53.11.36 0 .704-.188 1.016-.438.297-.25.47-.563.547-.875m0 0"/><path id="aH" d="M5.14-1.281c0-.063-.077-.157-.14-.157-.062 0-.094.032-.156.125C3.89-.125 2.594-.125 2.454-.125c-.938 0-1.048-1.016-1.048-1.39 0-.141.016-.516.203-1.25h.625c.344 0 1.235-.016 1.829-.266.843-.36.89-1.063.89-1.235 0-.53-.453-1.015-1.266-1.015-1.328 0-3.14 1.156-3.14 3.25C.547-.812 1.25.125 2.422.125 4.14.125 5.14-1.141 5.14-1.281m-.577-2.985c0 1.235-1.907 1.235-2.407 1.235h-.484c.469-1.813 1.703-1.985 2.016-1.985.562 0 .874.344.874.75m0 0"/><path id="aL" d="M7.266-6.625c.109-.437.125-.844-.125-1.156-.328-.453-.953-.547-1.578-.547-.938 0-1.922.25-2.75.922-.547.406-.954.922-1.282 1.484A8 8 0 0 0 .688-3.75C.53-3.14.438-2.516.484-1.953c.047.5.157.953.438 1.312.39.532 1.047.813 1.797.813.812 0 1.719-.203 2.437-.781.235-.188.422-.422.578-.641l-.406-.562-.156.078c-.156.359-.36.734-.688 1-.406.312-.906.5-1.359.5-.531 0-.969-.25-1.234-.61-.282-.375-.407-.86-.438-1.344-.062-.593.031-1.234.188-1.859.172-.687.39-1.36.75-2.016.25-.468.578-.906 1.03-1.265a2.96 2.96 0 0 1 1.845-.625c.406 0 .812.11 1.03.406.22.297.204.656.11 1.063-.11.422-.312.875-.687 1.187-.297.234-.625.39-.969.39-.14 0-.328 0-.422-.124-.11-.14-.047-.36.047-.547.078-.172.156-.36.078-.5-.078-.094-.203-.125-.344-.125s-.296.016-.421.125a.8.8 0 0 0-.235.437c-.062.266-.047.516.094.688.25.328.703.406 1.156.406.531 0 1.125-.172 1.594-.562.5-.407.828-.953.969-1.516m0 0"/><path id="aZ" d="M5.953-1.703c0-.125-.11-.125-.14-.125-.125 0-.141.047-.172.219-.203.765-.422 1.484-.907 1.484-.328 0-.359-.312-.359-.562s.031-.36.156-.875l.266-1.079.422-1.671c.093-.344.093-.36.093-.407 0-.203-.156-.328-.359-.328-.281 0-.453.266-.5.531-.203-.437-.562-.765-1.094-.765-1.406 0-2.875 1.75-2.875 3.5 0 1.125.657 1.906 1.579 1.906.25 0 .843-.047 1.562-.89.094.5.516.89 1.078.89.422 0 .703-.266.89-.656.204-.422.36-1.172.36-1.172M4.313-3.97c0 .078-.016.14-.032.203l-.593 2.344c-.063.219-.063.234-.25.438-.516.656-1.016.859-1.344.859-.594 0-.766-.656-.766-1.125 0-.61.375-2.078.656-2.625.375-.703.907-1.14 1.391-1.14.766 0 .938.968.938 1.046m0 0"/><path id="bc" d="M12.234-7.672c.047-.14.032-.578-.546-.578-.47 0-.782.188-1.22.5a5.3 5.3 0 0 0-1.14 1.219 9.4 9.4 0 0 0-.969 1.89H5.641l.797-3.093L7.094-8l.062-.203a38 38 0 0 0-1.39-.031c-.5 0-.922.062-1.438.172a3.2 3.2 0 0 0-1.219.609c-.484.36-.921.828-1.062 1.375-.047.187-.078.36-.094.562 0 .11 0 .235.078.313.047.078.125.156.25.156.156 0 .297-.11.438-.219a.49.49 0 0 0 .172-.328l.015-.484c.016-.14.016-.297.063-.453.078-.313.36-.563.61-.782.265-.203.562-.296.858-.359a5.5 5.5 0 0 1 1.235-.125l-.844 3.36c-.187.765-.422 1.546-.781 2.296-.203.47-.516.954-.938 1.297-.328.266-.75.407-1 .407-.203 0-.406-.016-.515-.172A1 1 0 0 1 1.5-.906a.75.75 0 0 0-.094-.281c-.062-.079-.218-.079-.343-.079a.57.57 0 0 0-.375.125.5.5 0 0 0-.188.297c-.062.25 0 .469.14.625.188.25.5.297.844.297.75 0 1.454-.36 2.11-.89.484-.375.89-.86 1.156-1.391.313-.625.578-1.313.781-1.985h2.672c-.172.5-.36 1.11-.453 1.47-.125.546-.25 1.077-.266 1.609 0 .359.094.703.266.968.156.172.39.235.656.235.422 0 .766-.172 1.125-.453.203-.172.406-.375.703-.672l-.187-.203a8 8 0 0 1-.656.593c-.141.141-.422.282-.563.282-.156 0-.25-.032-.328-.141-.156-.234-.172-.562-.172-.89a7.3 7.3 0 0 1 .297-1.594c.234-.985.484-1.97.89-2.922.126-.328.282-.594.5-.922.188-.266.376-.422.579-.578a.8.8 0 0 1 .5-.188c.172 0 .234.094.328.203a.3.3 0 0 0 .265.157.576.576 0 0 0 .547-.438m0 0"/><path id="bi" d="M9.766-4.687c.234-.891.28-1.829-.188-2.454-.328-.421-.797-.671-1.328-.843-.687-.22-1.437-.235-2.219-.235l.078-.297-.078-.046-.812.374c-.875.063-1.89.313-2.766 1-.437.344-.781.829-.906 1.329-.047.234-.063.453 0 .593a.29.29 0 0 0 .266.172.56.56 0 0 0 .39-.172c.125-.093.188-.25.219-.39.078-.266.047-.469.11-.735A1.35 1.35 0 0 1 3-7.109a3.32 3.32 0 0 1 2.125-.735L4.203-4.14c-.14.579-.297 1.172-.562 1.75-.141.344-.36.704-.657.954-.609.5-1.328.796-2.015.796l-.485.594h3.47c1.25 0 2.53-.484 3.624-1.36 1.094-.859 1.875-2.046 2.188-3.28m-.891.062c-.156.625-.36 1.25-.703 1.828-.266.485-.61.938-1.047 1.281a3.5 3.5 0 0 1-1.297.704c-.578.171-1.156.171-1.719.171H2.656l-.015-.125.53-.437c.517-.438.923-1 1.235-1.563a9.8 9.8 0 0 0 .844-2.28l.688-2.798c.593 0 1.14.047 1.671.219.391.125.75.297 1 .61.47.624.485 1.515.266 2.39m0 0"/><path id="bm" d="M8.578-4.234c0-.079-.062-.141-.156-.141-.063 0-.14.063-.14.14-.032 1.126-.5 1.657-1.329 1.923a1 1 0 0 1-.375.062c-.64 0-1.219-.5-1.75-.969-.64-.578-1.406-1.125-2.203-1.125-.172 0-.36.032-.516.078C1.08-3.937.72-3.125.672-1.75c0 .094.062.14.14.14s.141-.046.141-.14c.031-1.125.5-1.64 1.344-1.922a1 1 0 0 1 .375-.062c.625 0 1.219.5 1.734.968.657.594 1.422 1.141 2.203 1.141.188 0 .36-.031.532-.078 1.015-.344 1.375-1.14 1.437-2.531m0 0"/><path id="at" d="M7.203 0 4.86-3.89c1.313-.376 2.016-1.282 2.016-2.172 0-1.188-1.281-2.235-2.969-2.235H1.094V0h1v-3.797h1.86L6.171 0ZM5.922-6.062c0 .75-.64 1.562-2.14 1.562H2.093v-3.125H3.78c1.438 0 2.14.766 2.14 1.563m0 0"/><path id="au" d="M4.797 0v-3.5c0-1.156-.828-1.984-1.938-1.984-.718 0-1.25.172-1.843.5l.078.78c.515-.374 1.062-.593 1.765-.593.547 0 1.032.453 1.032 1.313v.5c-.547.015-1.266.062-1.985.297C1.11-2.422.641-1.97.641-1.375c0 .531.312 1.5 1.328 1.5.656 0 1.5-.203 1.937-.562V0ZM3.89-1.61c0 .25 0 .532-.407.766-.312.203-.718.25-.906.25-.64 0-1.078-.343-1.078-.797 0-.812 1.656-.984 2.39-.984Zm0 0"/><path id="av" d="M5.063 0v-8.297h-.891v3.485a2.65 2.65 0 0 0-1.688-.61c-1.14 0-2.062 1.219-2.062 2.766S1.297.125 2.437.125c.438 0 1.11-.156 1.704-.734V0ZM4.14-1.406c-.282.515-.703.812-1.22.812-.733 0-1.593-.562-1.593-2.047 0-1.593 1.016-2.062 1.703-2.062.469 0 .86.234 1.11.625Zm0 0"/><path id="aw" d="M5.063 0v-5.312h-.907v3.421c0 .907-.625 1.36-1.406 1.36-.844 0-.922-.313-.922-.844v-3.937H.922v3.984c0 .86.265 1.453 1.25 1.453.344 0 1.281-.062 2.015-.719V0Zm0 0"/><path id="ax" d="M2.14.703v-6.015h-.89v6.14c0 .781-.625.86-.875.86-.531 0-.86-.344-.875-.375l-.234.718c.375.235.859.406 1.406.406.75 0 1.469-.624 1.469-1.734m0-7.5v-1.016H1.11v1.016Zm0 0"/><path id="ay" d="M4.86-.5c0-.031-.032-.406-.048-.453l-.015-.344a2.8 2.8 0 0 1-1.828.672c-1 0-1.64-.875-1.64-2.047 0-.984.484-2.078 1.671-2.078.797 0 1.14.203 1.656.547l.14-.781c-.702-.407-1.093-.5-1.796-.5-1.656 0-2.578 1.453-2.578 2.812C.422-1.14 1.516.125 2.953.125c.578 0 1.25-.156 1.906-.625m0 0"/><path id="az" d="M1.813 0v-5.312H.938V0Zm.078-6.797v-1.016H.859v1.016Zm0 0"/><path id="aA" d="M4.86-2.687c0-.516-.048-1.25-.423-1.876-.5-.828-1.328-.921-1.671-.921C1.469-5.484.39-4.25.39-2.687.39-1.11 1.547.124 2.92.124c.563 0 1.22-.156 1.876-.64 0-.047-.047-.438-.047-.438s-.031-.281-.031-.328c-.703.593-1.407.687-1.766.687-.922 0-1.703-.828-1.734-2.093Zm-.704-.641h-2.86c.204-.813.767-1.438 1.47-1.438.359 0 1.187.157 1.39 1.438m0 0"/><path id="aB" d="M4.203-1.516c0-.609-.36-1-.406-1.046-.453-.47-.813-.532-1.531-.672-.438-.094-1.047-.203-1.047-.813 0-.734.843-.734 1-.734.625 0 1.125.14 1.656.437l.14-.765a3.9 3.9 0 0 0-1.687-.375c-.265 0-1.937 0-1.937 1.547 0 .53.297.89.468 1.062.438.36.735.422 1.438.563.39.093 1.078.234 1.078.859 0 .828-.922.828-1.094.828A3.12 3.12 0 0 1 .47-1.219l-.14.813c.046.031.859.531 1.968.531 1.547 0 1.906-.937 1.906-1.64m0 0"/><path id="aC" d="M4.86-2.687c0-.516-.048-1.25-.423-1.876-.5-.828-1.328-.921-1.671-.921C1.469-5.484.39-4.25.39-2.687.39-1.141 1.5.078 2.844.124c-.531.344-.875.828-.828 1.39 0 .516.375 1.016 1.172 1.016.39 0 .703-.062 1.171-.297l-.156-.703c-.266.11-.547.172-.812.172-.328-.031-.625-.094-.625-.453-.016-.531.5-.969 1.047-1.281.328-.094.64-.25.984-.485 0-.046-.047-.437-.047-.437s-.031-.281-.031-.328c-.703.593-1.407.687-1.766.687-.922 0-1.703-.828-1.734-2.093Zm-.704-.641h-2.86c.204-.813.767-1.438 1.47-1.438.359 0 1.187.157 1.39 1.438m0 0"/><path id="aD" d="M5.563-2.672c0-1.437-.75-2.75-1.875-2.75-.485 0-1.25.156-1.876.672v-.562H.939v7.625h.906V-.531c.406.36.906.656 1.547.656 1.156 0 2.172-1.172 2.172-2.797m-.907.016c0 1.203-.812 2.062-1.703 2.062-.328 0-.562-.125-.781-.297-.297-.25-.328-.468-.328-.656v-2.469a1.47 1.47 0 0 1 1.219-.671c.874 0 1.593.89 1.593 2.03m0 0"/><path id="aE" d="M3.797-4.625v-.797c-1.078 0-1.719.64-2.047 1.11V-5.36H.938V0h.875v-2.625c0-1.203.906-1.984 1.984-2m0 0"/><path id="aF" d="M7.766-5.312H6.89l-.703 2.437c-.172.563-.516 1.688-.563 2.203-.047-.281-.234-1.078-.484-1.937l-.797-2.703H3.53L2.844-2.97c-.219.75-.5 1.781-.531 2.282h-.016c-.016-.235-.14-.86-.375-1.672l-.844-2.953H.172L1.766 0h.922c.453-1.5 1.156-3.781 1.218-4.61h.016c.015.485.265 1.344.344 1.626L5.109 0h1.063Zm0 0"/><path id="aG" d="M1.813 0v-8.297H.938V0Zm0 0"/><path id="aI" d="M6.797-5.875c0-1.266-1.172-2.422-2.797-2.422H1.094V0h1.015v-3.453H4c1.656 0 2.797-1.188 2.797-2.422m-.953-.016c0 .938-.735 1.75-2.094 1.75H2.094v-3.484H3.75c1.406 0 2.094.828 2.094 1.734m0 0"/><path id="aJ" d="M5.063 0v-3.594c0-.734-.157-1.828-1.594-1.828-.672 0-1.25.297-1.703.875v-.812H.922V0h.906v-2.969c0-.75.281-1.734 1.188-1.734 1.109 0 1.14.766 1.14 1.187V0Zm0 0"/><path id="aK" d="M2.11-.016v-.953h-.97V0h.298L1.14 1.5h.468Zm0 0"/><path id="aM" d="M4.203-1.516c0-.609-.36-1-.406-1.046-.453-.47-.813-.532-1.531-.672-.438-.094-1.047-.203-1.047-.813 0-.734.843-.734 1-.734.625 0 1.125.14 1.656.437l.14-.765a3.9 3.9 0 0 0-1.687-.375c-.265 0-1.937 0-1.937 1.547 0 .53.297.89.468 1.062.438.36.735.422 1.438.563.39.093 1.078.234 1.078.859 0 .828-.922.828-1.094.828A3.12 3.12 0 0 1 .47-1.219l-.14.813c.046.031.859.531 1.968.531 1.547 0 1.906-.937 1.906-1.64m-.312-6.78h-.922l-1.547 2h.719Zm0 0"/><path id="aN" d="m3.89-.344-.171-.703c-.422.375-.86.422-1.078.422-.532 0-.594-.562-.594-.984v-3h1.64v-.703h-1.64v-1.516h-.828v1.516h-1v.703h.969v3.203c0 .703.156 1.531.984 1.531.797 0 1.36-.281 1.719-.469m0 0"/><path id="aO" d="M5.172-5.312h-.89c-.548 1.421-1.47 3.765-1.516 4.625H2.75c-.062-.72-.687-2.282-.797-2.532L1.11-5.312H.172L2.39 0l-.422 1.094c-.266.593-.438.656-.657.656-.171 0-.546-.047-.921-.187l.078.78c.062.016.469.095.844.095.296 0 .843 0 1.359-1.313Zm0 0"/><path id="aP" d="M8.328 0v-3.594c0-.828-.219-1.828-1.61-1.828-1.015 0-1.577.703-1.765.969-.203-.766-.86-.969-1.484-.969-.985 0-1.5.625-1.703.875v-.812H.922V0h.906v-2.969c0-.797.313-1.734 1.188-1.734 1.093 0 1.156.75 1.156 1.187V0h.906v-2.969c0-.797.313-1.734 1.188-1.734 1.093 0 1.156.75 1.156 1.187V0Zm0 0"/><path id="aQ" d="M4.703 0v-.734H2.984c-.14 0-.28.015-.421.015H1.547l3.11-4.125v-.468H.483v.703h2.953L.329-.484V0Zm0 0"/><path id="aR" d="M5.484-2.625c0-1.625-1.187-2.86-2.562-2.86-1.406 0-2.563 1.266-2.563 2.86 0 1.563 1.188 2.75 2.563 2.75 1.406 0 2.562-1.219 2.562-2.75m-.906-.125c0 1.469-.844 2.125-1.656 2.125-.86 0-1.656-.719-1.656-2.125 0-1.453.89-2.016 1.656-2.016.812 0 1.656.625 1.656 2.016m0 0"/><path id="aS" d="M5.563-2.672c0-1.469-.782-2.75-1.891-2.75-.344 0-1.11.063-1.86.672v-3.547H.939V0h.906v-.531c.547.515 1.125.656 1.547.656 1.14 0 2.172-1.172 2.172-2.797m-.907 0c0 1.563-.968 2.078-1.703 2.078-.328 0-.562-.125-.781-.297-.281-.25-.328-.453-.328-.656V-4.03c.218-.328.64-.672 1.234-.672.719 0 1.578.547 1.578 2.031m0 0"/><path id="aT" d="M2.11 0v-.969h-.97V0Zm0 0"/><path id="aU" d="M6.89-2.781v-5.516H5.97v5.531c0 1.594-1 2.344-1.953 2.344-.938 0-1.907-.734-1.907-2.344v-5.53H1.08v5.515C1.078-1.031 2.452.25 4 .25c1.563 0 2.89-1.297 2.89-3.031m0 0"/><path id="aV" d="M5.063 0v-3.594c0-.734-.157-1.828-1.594-1.828-.828 0-1.375.469-1.656.813v-3.688H.922V0h.906v-2.969c0-.75.281-1.734 1.188-1.734 1.109 0 1.14.766 1.14 1.187V0Zm0 0"/><path id="aW" d="M5.344-7.344v-.968h-.969v.968ZM5.312 0v-5.312h-.89V0ZM3.438-4.61v-.702h-1.39v-1.454c0-.718.375-.937.703-.937.266 0 .531.094.688.219v-.813c-.235-.094-.313-.125-.688-.125-.89 0-1.562.86-1.562 2.016v1.093H.313v.704h.875V0h.875v-4.61Zm0 0"/><path id="aX" d="M4.531-1.766v-6.53h-1v6.483c0 .688-.344 1.329-1.39 1.329a1.96 1.96 0 0 1-1.485-.657L.484-.25c.704.36 1.375.5 2 .5 1.25 0 2.047-.734 2.047-2.016m0 0"/><path id="ba" d="M5.844-2.266c0-.765-.375-1.328-.625-1.625-.563-.593-1-.718-1.797-.921-.813-.204-1.11-.266-1.375-.516-.156-.172-.485-.469-.485-1 0-.734.657-1.438 1.72-1.438 1.015 0 1.546.391 1.984.766l.172-.953c-.485-.266-1.094-.594-2.157-.594-1.594 0-2.64 1.14-2.64 2.344 0 .844.515 1.39.578 1.453.593.61 1 .703 1.75.906 1.031.25 1.187.297 1.578.688.203.219.375.594.375 1.015 0 .829-.672 1.594-1.703 1.594a3.75 3.75 0 0 1-2.516-1l-.172.969A4.9 4.9 0 0 0 3.22.25C4.75.25 5.844-.937 5.844-2.266m-.328-8.093H4.203L2.11-8.906h1.063Zm0 0"/><path id="bb" d="M5.063 0v-3.594c0-.734-.157-1.828-1.594-1.828-.672 0-1.25.297-1.703.875v-.812H.922V0h.906v-2.969c0-.75.281-1.734 1.188-1.734 1.109 0 1.14.766 1.14 1.187V0ZM4.64-8.297h-.907l-1.562 2h.719Zm0 0"/><path id="be" d="m5.219 2.234-.157-.703c-.265.11-.546.172-.812.172-.328-.031-.61-.094-.625-.453C3.609.719 4.109.313 4.656 0h.14v-3.5c0-1.156-.827-1.984-1.937-1.984-.718 0-1.25.172-1.843.5l.078.78c.515-.374 1.062-.593 1.765-.593.547 0 1.032.453 1.032 1.313v.5c-.547.015-1.266.062-1.985.297C1.11-2.422.641-1.97.641-1.375c0 .531.312 1.5 1.328 1.5.656 0 1.5-.203 1.937-.562V0c-.594.328-1.078.906-1.031 1.516 0 .515.375 1.015 1.172 1.015.406 0 .703-.062 1.172-.297M3.89-1.609c0 .25 0 .53-.407.765-.312.203-.718.25-.906.25-.64 0-1.078-.343-1.078-.797 0-.812 1.656-.984 2.39-.984Zm0 0"/><path id="bf" d="m5.672-4.703-.125-.719c-.234 0-1.047 0-1.828.39-.39-.327-.875-.39-1.11-.39-1.046 0-1.875.875-1.875 1.922 0 .422.125.828.391 1.188a1.64 1.64 0 0 0-.344 1.015c0 .453.156.75.297.906C.468 0 .328.516.328.844c0 .875 1.125 1.61 2.594 1.61 1.453 0 2.594-.704 2.594-1.61 0-1.688-1.938-1.688-2.422-1.688H2.078c-.172 0-.672 0-.672-.625 0-.265.047-.343.11-.437.203.14.593.343 1.078.343 1.031 0 1.875-.859 1.875-1.937a2.13 2.13 0 0 0-.36-1.156 7 7 0 0 1 .954-.063c.046 0 .312 0 .609.016M3.64-3.5c0 1.063-.672 1.281-1.032 1.281-.53 0-1.062-.36-1.062-1.265 0-1.063.672-1.282 1.047-1.282.531 0 1.047.36 1.047 1.266M4.688.844c0 .562-.829.953-1.766.953-.922 0-1.766-.375-1.766-.953 0-.047 0-.813.907-.813h1.046c.266 0 1.579 0 1.579.813m0 0"/><path id="bg" d="M5.469 0 3.25-3.266l1.969-2.046h-1.11L1.813-2.906v-5.39H.938V0h.828v-1.719l.906-.953L4.5 0Zm0 0"/><path id="bh" d="m3.688-5.36-.485-.515-.828.719v-3.14H1.5v3.874L.328-3.375l.453.547.719-.656V0h.875v-4.234Zm0 0"/><path id="bj" d="M4.703 0v-.734H2.984c-.14 0-.28.015-.421.015H1.547l3.11-4.125v-.468H.483v.703h2.953L.329-.484V0ZM3.047-6.797v-1.016H2.016v1.016Zm0 0"/><path id="bk" d="M10.813-8.297h-.876L8.845-4.375c-.266.938-.266.969-.485 1.766-.14.578-.328 1.265-.375 1.703H7.97c-.063-.5-.313-1.531-.516-2.25l-1.422-5.14H5.016L4-4.595c-.094.297-.812 2.89-.89 3.672h-.016c-.047-.469-.344-1.625-.39-1.828l-.517-1.906-1-3.64H.173L2.516 0H3.5l1.125-4.062c.297-1.063.75-2.704.828-3.344h.016s.078.625.64 2.672L7.406 0H8.47Zm0 0"/><path id="bl" d="M4.86-.5c0-.031-.032-.406-.048-.453l-.015-.344a2.8 2.8 0 0 1-1.828.672c-1 0-1.64-.875-1.64-2.047 0-.984.484-2.078 1.671-2.078.797 0 1.14.203 1.656.547l.14-.781c-.702-.407-1.093-.5-1.796-.5-1.656 0-2.578 1.453-2.578 2.812C.422-1.14 1.516.125 2.953.125c.578 0 1.25-.156 1.906-.625M4.5-8.297h-.922l-1.547 2h.719Zm0 0"/><path id="bn" d="M2.11 0v-.969h-.97V0Zm2.03 0v-.969h-.968V0Zm2.048 0v-.969h-.97V0Zm0 0"/><path id="bo" d="M5.844-2.266c0-.765-.375-1.328-.625-1.625-.563-.593-1-.718-1.797-.921-.813-.204-1.11-.266-1.375-.516-.156-.172-.485-.469-.485-1 0-.734.657-1.438 1.72-1.438 1.015 0 1.546.391 1.984.766l.172-.953c-.485-.266-1.094-.594-2.157-.594-1.594 0-2.64 1.14-2.64 2.344 0 .844.515 1.39.578 1.453.593.61 1 .703 1.75.906 1.031.25 1.187.297 1.578.688.203.219.375.594.375 1.015 0 .829-.672 1.594-1.703 1.594a3.75 3.75 0 0 1-2.516-1l-.172.969A4.9 4.9 0 0 0 3.22.25C4.75.25 5.844-.937 5.844-2.266m0 0"/><path id="bp" d="M11.688-2.922v-.719H0v.72Zm0 0"/><path id="bq" d="M5.484-2.625c0-1.625-1.187-2.86-2.562-2.86-1.406 0-2.563 1.266-2.563 2.86 0 1.563 1.188 2.75 2.563 2.75 1.406 0 2.562-1.219 2.562-2.75m-.906-.125c0 1.469-.844 2.125-1.656 2.125-.86 0-1.656-.719-1.656-2.125 0-1.453.89-2.016 1.656-2.016.812 0 1.656.625 1.656 2.016m-.016-5.547h-.906l-1.547 2h.72Zm0 0"/><path id="br" d="M7.406 0 4.391-8.297H3.328L.328 0h.875l.875-2.422h3.375L6.328 0ZM5.203-3.094h-2.86l1.423-4.344Zm0 0"/><path id="bd" d="M4.344-5.125H2.25c-.312 0-.406-.016-.687-.031-.422-.047-.438-.094-.454-.235H.844L.563-3.687h.265c.016-.11.094-.641.219-.72.062-.046.719-.046.828-.046h1.75l-.844 1.047C1.75-2.031 1.656-.766 1.656-.296c0 .093 0 .452.375.452s.375-.36.375-.453v-.328c0-1.547.313-2.25.656-2.687l1.204-1.5c.078-.094.078-.11.078-.313m0 0"/><path id="bx" d="M5.547 0v-.25h-.125c-.469 0-.516-.078-.594-.266L3.125-4.812c-.031-.11-.062-.157-.187-.157-.141 0-.157.047-.204.157L1.125-.734C1.063-.562.938-.25.313-.25V0c.234-.016.484-.031.718-.031.282 0 .797.031.844.031v-.25c-.312 0-.516-.14-.516-.328 0-.063.016-.078.047-.14l.328-.86H3.72l.406 1.016c0 .03.031.078.031.109 0 .203-.375.203-.562.203V0l1.031-.031c.328 0 .86.031.922.031M3.609-1.828H1.83l.89-2.266Zm0 0"/><path id="by" d="M4.047 0v-.25c-.469 0-.516-.047-.516-.39v-4.204l-1.047.078v.25c.47 0 .516.063.516.391v1.453a1.37 1.37 0 0 0-.969-.406c-.937 0-1.703.703-1.703 1.578S1.062.063 1.938.063c.578 0 .921-.297 1.03-.422v.422ZM2.969-.734c-.172.328-.531.609-.985.609-.39 0-.671-.234-.812-.437-.14-.204-.219-.485-.219-.922 0-.172 0-.688.281-1.016.282-.312.625-.375.829-.375.328 0 .64.156.828.406.078.11.078.11.078.25Zm0 0"/><path id="bz" d="M5.469-2.75V-3c-.188.016-.313.031-.5.031-.219 0-.485-.015-.688-.031v.25c.235 0 .36.14.36.297 0 .062 0 .078-.047.172L3.922-.547l-.75-1.906a.3.3 0 0 1-.031-.125c0-.156.172-.172.375-.172V-3c-.25.016-.5.031-.75.031-.203 0-.422-.015-.625-.031v.25c.172 0 .312 0 .406.047.094.078.156.312.156.312s-.015.063-.031.079L2.016-.641l-.703-1.812c-.032-.094-.032-.094-.032-.125 0-.172.25-.172.375-.172V-3s-.515.031-.797.031C.641-2.969.422-2.984.203-3v.25c.281 0 .438 0 .5.203l.969 2.453c.047.11.062.157.203.157.125 0 .14-.047.172-.141l.797-1.984.765 1.968c.047.094.063.157.204.157.124 0 .14-.047.187-.157l.875-2.234c.14-.344.375-.422.594-.422m0 0"/><path id="bA" d="M3.266-.844c0-.015-.016-.094-.125-.094-.094 0-.11.047-.125.11-.22.562-.75.672-1 .672-.328 0-.641-.14-.844-.406-.266-.329-.266-.75-.266-1.032h2.157c.156 0 .203 0 .203-.14 0-.625-.344-1.375-1.391-1.375a1.59 1.59 0 0 0-1.61 1.578c0 .89.782 1.594 1.704 1.594.937 0 1.297-.75 1.297-.907m-.485-.922H.906c.078-.984.703-1.14.969-1.14.86 0 .89.969.906 1.14m0 0"/><path id="bB" d="M4.11 0v-.25c-.454 0-.516 0-.516-.297v-1.562c0-.61-.297-.97-1.047-.97-.578 0-.938.313-1.14.688v-.687L.374-3v.25c.469 0 .531.047.531.39v1.813c0 .297-.078.297-.531.297V0s.5-.031.797-.031c.25 0 .734.031.797.031v-.25c-.453 0-.516 0-.516-.297v-1.265c0-.72.578-1.063 1.031-1.063.485 0 .547.375.547.734v1.594c0 .297-.062.297-.515.297V0s.5-.031.797-.031c.25 0 .734.031.796.031m0 0"/><path id="bC" d="M2.61-.875v-.39h-.235v.374c0 .485-.219.735-.5.735-.469 0-.469-.578-.469-.703V-2.75h1.078V-3H1.406v-1.281h-.25c0 .625-.281 1.312-.953 1.328v.203h.64v1.875c0 .781.595.938.985.938.469 0 .781-.391.781-.938m0 0"/><path id="bD" d="M3.516-1.266H3.28c-.015.157-.094.563-.187.625-.047.047-.578.047-.688.047H1.125c.734-.64.984-.843 1.39-1.172.516-.406 1-.843 1-1.5 0-.843-.734-1.359-1.624-1.359-.86 0-1.453.61-1.453 1.25 0 .344.296.39.375.39.156 0 .359-.124.359-.374 0-.125-.047-.375-.406-.375.218-.485.687-.641 1.015-.641.703 0 1.063.547 1.063 1.11 0 .609-.438 1.078-.656 1.328L.516-.266C.437-.203.437-.187.437 0h2.876Zm0 0"/><path id="bE" d="M3.594-2.219c0-.765-.094-1.328-.406-1.812-.22-.313-.657-.594-1.204-.594C.36-4.625.36-2.719.36-2.219s0 2.36 1.625 2.36c1.61 0 1.61-1.86 1.61-2.36m-.625-.094c0 .516 0 1.032-.094 1.47-.14.64-.61.78-.89.78-.329 0-.75-.187-.891-.75C1-1.219 1-1.796 1-2.312c0-.515 0-1.046.094-1.421.156-.547.593-.703.89-.703.375 0 .735.234.86.64.11.375.125.875.125 1.485m0 0"/><path id="bF" d="M3.516-1.406c0-.782-.594-1.5-1.453-1.5-.313 0-.672.062-.985.328v-1.313c.36.094.563.094.672.094.922 0 1.469-.625 1.469-.734 0-.078-.047-.094-.078-.094 0 0-.032 0-.063.016-.172.062-.531.203-1.047.203-.203 0-.562-.016-1.015-.188-.079-.031-.094-.031-.094-.031-.094 0-.094.078-.094.188v2.046c0 .125 0 .204.11.204.062 0 .078 0 .14-.094.297-.375.734-.438.969-.438.422 0 .61.328.64.39.126.235.172.5.172.907 0 .203 0 .61-.218.922a.98.98 0 0 1-.813.422c-.453 0-.922-.25-1.094-.719.266.016.407-.156.407-.344 0-.296-.266-.343-.36-.343 0 0-.343 0-.343.375 0 .625.578 1.25 1.406 1.25.89 0 1.672-.657 1.672-1.547m0 0"/><path id="bG" d="M7.813-1.75v-.203H.109v.203Zm0 0"/><path id="bH" d="M3.578-2.297c0-1.719-.765-2.328-1.578-2.328a1.55 1.55 0 0 0-1.11.422c-.234.234-.515.5-.515 1.125 0 .89.703 1.547 1.516 1.547.562 0 .859-.375 1.015-.688v.14c0 1.735-.844 2-1.265 2-.157 0-.532-.015-.72-.233a.315.315 0 0 0 .313-.329.32.32 0 0 0-.328-.328c-.203 0-.328.14-.328.344 0 .469.39.766 1.063.766 1 0 1.937-.938 1.937-2.438M2.891-3c0 .906-.516 1.266-.953 1.266-.282 0-.532-.079-.735-.407-.156-.25-.156-.546-.156-.937 0-.406 0-.672.203-.953.172-.25.39-.39.75-.39s.578.218.688.405c.187.282.203.782.203 1.016m0 0"/><path id="bI" d="M2.516 0v-.25h-.172c-.578 0-.578-.078-.578-.328v-3.61c0-.234 0-.328.578-.328h.172v-.25l-1.078.032-1.079-.032v.25h.172c.578 0 .578.094.578.329v3.609c0 .25 0 .328-.578.328H.36V0l1.079-.031Zm0 0"/><path id="bJ" d="M3.578-1.422c0-.89-.703-1.547-1.515-1.547-.563 0-.86.375-1.016.688 0-.563.047-1.078.312-1.516.235-.375.61-.625 1.063-.625.203 0 .484.047.625.234-.172.016-.328.141-.328.344a.32.32 0 0 0 .328.328c.219 0 .344-.14.344-.343 0-.407-.297-.766-.985-.766-1 0-2.031.922-2.031 2.422C.375-.406 1.219.14 2 .14c.844 0 1.578-.657 1.578-1.563m-.672 0c0 .39 0 .688-.187.969A.82.82 0 0 1 2-.078c-.36 0-.625-.203-.781-.516-.094-.203-.157-.562-.157-.968 0-.688.407-1.204.97-1.204.312 0 .53.125.702.375.172.266.172.563.172.97m0 0"/><path id="bK" d="M2.016 1.734v-.328h-.72V-4.89h.72v-.328H.953v6.953Zm0 0"/><path id="bL" d="M3.297 0v-.25H3.03c-.703 0-.703-.094-.703-.328v-3.86c0-.187 0-.187-.203-.187-.453.438-1.078.438-1.36.438v.25c.157 0 .626 0 1-.188v3.547c0 .234 0 .328-.687.328H.812V0l1.235-.031Zm0 0"/><path id="bM" d="M1.297 1.734v-6.953H.219v.328h.734v6.297H.22v.328Zm0 0"/><path id="bN" d="M3.578-1.203c0-.547-.437-1.094-1.203-1.25.719-.266.984-.781.984-1.219 0-.547-.625-.953-1.406-.953-.766 0-1.36.375-1.36.938 0 .234.157.359.36.359.219 0 .36-.156.36-.344 0-.203-.141-.36-.36-.375.25-.297.719-.375.985-.375.312 0 .75.156.75.75 0 .297-.094.625-.282.828-.219.266-.422.281-.765.313-.172.015-.188.015-.22.015 0 0-.077.016-.077.094 0 .094.062.094.187.094h.375c.547 0 .938.375.938 1.125 0 .86-.516 1.125-.906 1.125-.282 0-.907-.078-1.188-.5.328 0 .406-.235.406-.39 0-.22-.172-.376-.39-.376a.38.38 0 0 0-.391.407C.375-.281 1.094.14 1.938.14c.968 0 1.64-.657 1.64-1.344m0 0"/><path id="bO" d="M4.563 0v-.437H3.266v-5.157c0-.187 0-.297-.266-.297-.11 0-.125 0-.203.063-.688.516-1.656.516-1.828.516H.797v.437h.172a4.2 4.2 0 0 0 1.203-.172v4.61H.89V0c.343-.031 1.422-.031 1.828-.031.422 0 1.484 0 1.844.031m0 0"/><path id="bP" d="M4.86-2.953c0-.469-.032-1.39-.485-2.094-.297-.437-.828-.844-1.719-.844-1.281 0-2.218.72-2.218 1.938 0 1.125.765 1.937 2.093 1.937.406 0 .781-.203 1.063-.687v.172c0 .578-.063 1.156-.235 1.531-.109.234-.468.703-1.171.703-.079 0-.454 0-.735-.187a.55.55 0 0 0 .422-.563c0-.375-.281-.578-.578-.578-.25 0-.594.14-.594.594 0 .61.469 1.14 1.5 1.14 1.25 0 2.656-.796 2.656-3.062m-1.266-.89c0 .406-.172 1.452-1.031 1.452-.86 0-.86-.656-.86-1.53 0-.876 0-1.61.984-1.61.563 0 .766.515.797.593.11.297.11.782.11 1.094m0 0"/><path id="bQ" d="M4.86-1.844c0-.484-.094-.968-.61-1.437-.469-.39-.937-.485-1.484-.485-.578 0-.922.407-1.063.688v-.156c0-1.125.219-1.485.313-1.641a1.47 1.47 0 0 1 1.218-.656c.172 0 .454.031.672.234-.36.078-.484.344-.484.563 0 .39.297.593.594.593a.57.57 0 0 0 .578-.609c0-.547-.375-1.14-1.375-1.14-1.297 0-2.781.827-2.781 3.046 0 .438.03 1.313.421 1.953.391.688 1.016 1 1.829 1 1.28 0 2.171-.734 2.171-1.953m-1.266-.015c0 .906 0 1.562-.922 1.562-.531 0-.766-.406-.828-.562-.125-.282-.125-1-.125-1.032 0-.921.39-1.515 1.015-1.515.86 0 .86.656.86 1.547m0 0"/><clipPath id="b"><path d="M.535.266h6.883v9.636H.535Zm0 0"/></clipPath><clipPath id="a"><path d="M0 0h8v10H0z"/></clipPath><clipPath id="bs"><path d="M15.023 568.348H403v11.336H15.023Zm0 0"/></clipPath><linearGradient id="bt" x1="0" x2="388.063" y1="0" y2="0" gradientTransform="matrix(1 0 0 -1 15.024 579.685)" gradientUnits="userSpaceOnUse"><stop offset="0" stop-color="#f2f2f2"/><stop offset=".25" stop-color="#f2f2f2"/><stop offset=".313" stop-color="#f2f2f2"/><stop offset=".344" stop-color="#f2f2f2"/><stop offset=".359" stop-color="#f3f3f3"/><stop offset=".363" stop-color="#f4f4f4"/><stop offset=".367" stop-color="#f5f5f5"/><stop offset=".371" stop-color="#f6f6f6"/><stop offset=".375" stop-color="#f7f7f7"/><stop offset=".379" stop-color="#f8f8f8"/><stop offset=".383" stop-color="#f9f9f9"/><stop offset=".387" stop-color="#fafafa"/><stop offset=".391" stop-color="#fbfbfb"/><stop offset=".395" stop-color="#fcfcfc"/><stop offset=".398" stop-color="#fcfcfc"/><stop offset=".406" stop-color="#fcfcfc"/><stop offset=".438" stop-color="#fcfcfc"/><stop offset=".5" stop-color="#fcfcfc"/><stop offset=".563" stop-color="#fcfcfc"/><stop offset=".566" stop-color="#fcfcfc"/><stop offset=".57" stop-color="#fbfbfb"/><stop offset=".574" stop-color="#fafafa"/><stop offset=".578" stop-color="#f9f9f9"/><stop offset=".582" stop-color="#f8f8f8"/><stop offset=".586" stop-color="#f7f7f7"/><stop offset=".59" stop-color="#f6f6f6"/><stop offset=".594" stop-color="#f5f5f5"/><stop offset=".598" stop-color="#f4f4f4"/><stop offset=".602" stop-color="#f3f3f3"/><stop offset=".609" stop-color="#f3f3f3"/><stop offset=".625" stop-color="#f2f2f2"/><stop offset=".75" stop-color="#f2f2f2"/><stop offset="1" stop-color="#f2f2f2"/></linearGradient><g id="c" clip-path="url(#a)"><g clip-path="url(#b)"><path fill-rule="evenodd" d="m3.977 7.836 3.441 2.066V1.645c0-.762-.617-1.38-1.375-1.38H1.914C1.152.266.535.884.535 1.646v8.257Zm-2.754.851 2.754-1.652L6.73 8.687V1.646a.69.69 0 0 0-.687-.692H1.914a.69.69 0 0 0-.691.692Zm0 0"/></g></g></defs><use xlink:href="#c" transform="translate(9 27)"/><use xlink:href="#d" x="17.008" y="23.315"/><use xlink:href="#e" x="20.884" y="23.315"/><use xlink:href="#f" x="27.708" y="23.315"/><use xlink:href="#g" x="384.039" y="23.315"/><use xlink:href="#h" x="390.168" y="23.315"/><use xlink:href="#i" x="392.79" y="23.315"/><use xlink:href="#j" x="396.727" y="23.315"/><use xlink:href="#k" x="99.586" y="34.908"/><use xlink:href="#l" x="107.99" y="34.908"/><use xlink:href="#m" x="114.267" y="34.908"/><use xlink:href="#n" x="120.973" y="34.908"/><use xlink:href="#o" x="127.68" y="34.908"/><use xlink:href="#p" x="131.099" y="34.908"/><use xlink:href="#q" x="136.945" y="34.908"/><use xlink:href="#r" x="140.006" y="34.908"/><use xlink:href="#s" x="150.502" y="34.908"/><use xlink:href="#q" x="155.547" y="34.908"/><use xlink:href="#t" x="158.608" y="34.908"/><use xlink:href="#s" x="169.104" y="34.908"/><use xlink:href="#u" x="174.149" y="34.908"/><use xlink:href="#v" x="180.485" y="34.908"/><use xlink:href="#l" x="184.933" y="34.908"/><use xlink:href="#w" x="190.839" y="34.908"/><use xlink:href="#q" x="199.733" y="34.908"/><use xlink:href="#r" x="202.794" y="34.908"/><use xlink:href="#m" x="208.903" y="34.908"/><use xlink:href="#x" x="215.609" y="34.908"/><use xlink:href="#q" x="218.67" y="34.908"/><use xlink:href="#w" x="221.73" y="34.908"/><use xlink:href="#q" x="230.625" y="34.908"/><use xlink:href="#w" x="238.073" y="34.908"/><use xlink:href="#y" x="251.355" y="34.908"/><use xlink:href="#l" x="259.389" y="34.908"/><use xlink:href="#z" x="265.665" y="34.908"/><use xlink:href="#n" x="272.372" y="34.908"/><use xlink:href="#A" x="288.048" y="34.908"/><use xlink:href="#B" x="291.634" y="34.908"/><use xlink:href="#C" x="297.525" y="34.908"/><use xlink:href="#D" x="302.403" y="34.908"/><use xlink:href="#D" x="307.011" y="34.908"/><use xlink:href="#E" x="311.62" y="34.908"/><path fill="none" stroke="#000" stroke-miterlimit="10" stroke-width=".398" d="M17.008 39.293h384.094"/><use xlink:href="#F" x="399.042" y="161.091"/><use xlink:href="#G" x="399.042" y="155.329"/><use xlink:href="#H" x="399.042" y="151.989"/><use xlink:href="#I" x="399.042" y="147.287"/><use xlink:href="#J" x="399.042" y="144.936"/><use xlink:href="#K" x="399.042" y="141.644"/><use xlink:href="#J" x="399.042" y="137.412"/><use xlink:href="#L" x="399.042" y="134.121"/><use xlink:href="#M" x="399.042" y="130.359"/><use xlink:href="#N" x="399.042" y="125.186"/><use xlink:href="#O" x="399.042" y="120.954"/><use xlink:href="#H" x="399.042" y="118.603"/><use xlink:href="#G" x="399.042" y="113.901"/><use xlink:href="#J" x="399.042" y="110.561"/><use xlink:href="#O" x="399.042" y="107.27"/><use xlink:href="#M" x="399.042" y="104.918"/><use xlink:href="#P" x="399.042" y="99.746"/><use xlink:href="#L" x="399.042" y="95.044"/><use xlink:href="#I" x="399.042" y="91.282"/><use xlink:href="#Q" x="399.042" y="86.109"/><use xlink:href="#O" x="399.042" y="81.407"/><use xlink:href="#N" x="399.042" y="79.056"/><use xlink:href="#P" x="399.042" y="74.824"/><use xlink:href="#R" x="399.042" y="70.121"/><use xlink:href="#S" x="399.042" y="65.889"/><use xlink:href="#L" x="399.042" y="62.59"/><use xlink:href="#T" x="399.042" y="56.007"/><use xlink:href="#U" x="399.042" y="51.304"/><use xlink:href="#V" x="399.042" y="48.953"/><use xlink:href="#W" x="399.042" y="44.721"/><use xlink:href="#X" x="403.164" y="40.487"/><use xlink:href="#Y" x="403.164" y="46.249"/><use xlink:href="#Z" x="403.164" y="50.72"/><use xlink:href="#aa" x="403.164" y="55.423"/><use xlink:href="#ab" x="403.164" y="57.774"/><use xlink:href="#ac" x="403.164" y="61.066"/><use xlink:href="#ad" x="403.164" y="65.298"/><use xlink:href="#ae" x="403.164" y="70"/><use xlink:href="#af" x="403.164" y="75.165"/><use xlink:href="#Z" x="403.164" y="77.755"/><use xlink:href="#ag" x="403.164" y="82.457"/><use xlink:href="#ab" x="403.164" y="85.797"/><use xlink:href="#ah" x="403.164" y="89.088"/><use xlink:href="#ag" x="403.164" y="93.32"/><use xlink:href="#ae" x="403.164" y="96.66"/><use xlink:href="#ai" x="403.164" y="101.832"/><use xlink:href="#aj" x="403.164" y="105.594"/><use xlink:href="#ai" x="403.164" y="113.118"/><use xlink:href="#aa" x="403.164" y="116.879"/><use xlink:href="#ak" x="403.164" y="122.052"/><use xlink:href="#ai" x="403.164" y="126.754"/><use xlink:href="#al" x="403.164" y="130.516"/><use xlink:href="#ah" x="403.164" y="135.226"/><use xlink:href="#am" x="403.164" y="139.458"/><use xlink:href="#an" x="403.164" y="145.579"/><use xlink:href="#ao" x="403.164" y="150.282"/><use xlink:href="#ap" x="403.164" y="152.633"/><use xlink:href="#aq" x="403.164" y="156.865"/><use xlink:href="#ar" x="87.232" y="61.174"/><use xlink:href="#as" x="107.102" y="51.089" fill="red"/><use xlink:href="#at" x="107.102" y="61.174"/><use xlink:href="#au" x="114.634" y="61.174"/><use xlink:href="#av" x="120.241" y="61.174"/><use xlink:href="#aw" x="126.242" y="61.174"/><use xlink:href="#ax" x="132.243" y="61.174"/><use xlink:href="#ay" x="135.328" y="61.174"/><use xlink:href="#az" x="140.528" y="61.174"/><use xlink:href="#aA" x="143.278" y="61.174"/><use xlink:href="#aB" x="152.376" y="61.174"/><use xlink:href="#az" x="156.859" y="61.174"/><use xlink:href="#aC" x="159.608" y="61.174"/><use xlink:href="#aB" x="168.706" y="61.174"/><use xlink:href="#aD" x="173.189" y="61.174"/><use xlink:href="#aE" x="178.868" y="61.174"/><use xlink:href="#au" x="182.849" y="61.174"/><use xlink:href="#aF" x="188.133" y="61.174"/><use xlink:href="#az" x="196.095" y="61.174"/><use xlink:href="#aA" x="198.845" y="61.174"/><use xlink:href="#av" x="204.045" y="61.174"/><use xlink:href="#aG" x="210.047" y="61.174"/><use xlink:href="#az" x="212.796" y="61.174"/><use xlink:href="#aF" x="215.546" y="61.174"/><use xlink:href="#az" x="223.508" y="61.174"/><use xlink:href="#aH" x="230.156" y="51.089" fill="red"/><use xlink:href="#aF" x="230.156" y="61.174"/><use xlink:href="#aI" x="242.015" y="61.174"/><use xlink:href="#au" x="249.141" y="61.174"/><use xlink:href="#aJ" x="254.747" y="61.174"/><use xlink:href="#aw" x="260.749" y="61.174"/><use xlink:href="#aK" x="266.75" y="61.174"/><use xlink:href="#aL" x="107.102" y="72.733" fill="red"/><use xlink:href="#aM" x="107.102" y="82.818"/><use xlink:href="#aF" x="111.585" y="82.818"/><use xlink:href="#az" x="119.547" y="82.818"/><use xlink:href="#aC" x="122.297" y="82.818"/><use xlink:href="#aN" x="127.497" y="82.818"/><use xlink:href="#aO" x="131.407" y="82.818"/><use xlink:href="#aP" x="136.762" y="82.818"/><use xlink:href="#aD" x="149.913" y="82.818"/><use xlink:href="#aE" x="155.591" y="82.818"/><use xlink:href="#aQ" x="159.572" y="82.818"/><use xlink:href="#aO" x="164.653" y="82.818"/><use xlink:href="#aB" x="170.009" y="82.818"/><use xlink:href="#aN" x="174.492" y="82.818"/><use xlink:href="#aR" x="178.724" y="82.818"/><use xlink:href="#az" x="184.582" y="82.818"/><use xlink:href="#aw" x="191.229" y="82.818"/><use xlink:href="#aF" x="196.908" y="82.818"/><use xlink:href="#az" x="204.87" y="82.818"/><use xlink:href="#aA" x="207.62" y="82.818"/><use xlink:href="#aG" x="212.82" y="82.818"/><use xlink:href="#as" x="215.571" y="72.733" fill="red"/><use xlink:href="#aS" x="215.571" y="82.818"/><use xlink:href="#az" x="221.572" y="82.818"/><use xlink:href="#aA" x="224.322" y="82.818"/><use xlink:href="#aJ" x="229.522" y="82.818"/><use xlink:href="#az" x="235.524" y="82.818"/><use xlink:href="#aA" x="238.274" y="82.818"/><use xlink:href="#aT" x="243.474" y="82.818"/><use xlink:href="#aU" x="107.102" y="104.462"/><use xlink:href="#aF" x="115.076" y="104.462"/><use xlink:href="#az" x="123.038" y="104.462"/><use xlink:href="#aA" x="125.788" y="104.462"/><use xlink:href="#aG" x="130.988" y="104.462"/><use xlink:href="#aS" x="133.738" y="104.462"/><use xlink:href="#az" x="139.739" y="104.462"/><use xlink:href="#au" x="142.489" y="104.462"/><use xlink:href="#ax" x="148.096" y="104.462"/><use xlink:href="#ay" x="151.18" y="104.462"/><use xlink:href="#az" x="156.381" y="104.462"/><use xlink:href="#aA" x="159.13" y="104.462"/><use xlink:href="#aI" x="168.228" y="104.462"/><use xlink:href="#au" x="175.353" y="104.462"/><use xlink:href="#aJ" x="180.96" y="104.462"/><use xlink:href="#au" x="186.961" y="104.462"/><use xlink:href="#aJ" x="196.466" y="104.462"/><use xlink:href="#au" x="202.467" y="104.462"/><use xlink:href="#aH" x="211.972" y="94.376" fill="red"/><use xlink:href="#ay" x="211.972" y="104.462"/><use xlink:href="#aO" x="217.172" y="104.462"/><use xlink:href="#aN" x="222.528" y="104.462"/><use xlink:href="#aE" x="226.76" y="104.462"/><use xlink:href="#aQ" x="230.741" y="104.462"/><use xlink:href="#aA" x="235.822" y="104.462"/><use xlink:href="#aK" x="241.023" y="104.462"/><use xlink:href="#aD" x="107.102" y="126.105"/><use xlink:href="#aE" x="112.781" y="126.105"/><use xlink:href="#aQ" x="116.762" y="126.105"/><use xlink:href="#aO" x="121.843" y="126.105"/><use xlink:href="#aL" x="131.096" y="116.02" fill="red"/><use xlink:href="#aV" x="131.096" y="126.105"/><use xlink:href="#au" x="137.097" y="126.105"/><use xlink:href="#aE" x="142.382" y="126.105"/><use xlink:href="#aW" x="146.363" y="126.105"/><use xlink:href="#aA" x="152.615" y="126.105"/><use xlink:href="#av" x="161.713" y="126.105"/><use xlink:href="#aQ" x="167.714" y="126.105"/><use xlink:href="#az" x="172.795" y="126.105"/><use xlink:href="#aA" x="175.545" y="126.105"/><use xlink:href="#aB" x="180.745" y="126.105"/><use xlink:href="#az" x="185.228" y="126.105"/><use xlink:href="#aC" x="187.978" y="126.105"/><use xlink:href="#ay" x="193.178" y="126.105"/><use xlink:href="#az" x="198.379" y="126.105"/><use xlink:href="#aR" x="201.128" y="126.105"/><use xlink:href="#aB" x="206.986" y="126.105"/><use xlink:href="#aN" x="211.469" y="126.105"/><use xlink:href="#aE" x="215.702" y="126.105"/><use xlink:href="#aw" x="219.683" y="126.105"/><use xlink:href="#aJ" x="225.684" y="126.105"/><use xlink:href="#aJ" x="231.685" y="126.105"/><use xlink:href="#aA" x="237.687" y="126.105"/><use xlink:href="#ax" x="242.887" y="126.105"/><use xlink:href="#aX" x="249.869" y="126.105"/><use xlink:href="#aA" x="255.356" y="126.105"/><use xlink:href="#aP" x="260.557" y="126.105"/><use xlink:href="#aw" x="269.81" y="126.105"/><use xlink:href="#aM" x="279.709" y="126.105"/><use xlink:href="#aD" x="284.192" y="126.105"/><use xlink:href="#az" x="290.193" y="126.105"/><use xlink:href="#aA" x="292.943" y="126.105"/><use xlink:href="#as" x="298.145" y="116.02" fill="red"/><use xlink:href="#aF" x="298.145" y="126.105"/><use xlink:href="#au" x="305.784" y="126.105"/><use xlink:href="#ax" x="311.391" y="126.105"/><use xlink:href="#ay" x="314.476" y="126.105"/><use xlink:href="#az" x="319.676" y="126.105"/><use xlink:href="#aA" x="322.426" y="126.105"/><use xlink:href="#aT" x="327.626" y="126.105"/><use xlink:href="#aY" x="90.592" y="153.727"/><use xlink:href="#aZ" x="107.102" y="143.641" fill="red"/><use xlink:href="#ba" x="107.102" y="153.727"/><use xlink:href="#aD" x="113.606" y="153.727"/><use xlink:href="#az" x="119.607" y="153.727"/><use xlink:href="#aA" x="122.357" y="153.727"/><use xlink:href="#aF" x="127.557" y="153.727"/><use xlink:href="#au" x="135.196" y="153.727"/><use xlink:href="#ax" x="140.803" y="153.727"/><use xlink:href="#ay" x="143.888" y="153.727"/><use xlink:href="#az" x="149.088" y="153.727"/><use xlink:href="#aA" x="151.838" y="153.727"/><use xlink:href="#aI" x="160.935" y="153.727"/><use xlink:href="#au" x="168.061" y="153.727"/><use xlink:href="#aJ" x="173.667" y="153.727"/><use xlink:href="#aw" x="179.669" y="153.727"/><use xlink:href="#aD" x="189.568" y="153.727"/><use xlink:href="#az" x="195.569" y="153.727"/><use xlink:href="#aA" x="198.319" y="153.727"/><use xlink:href="#aM" x="203.519" y="153.727"/><use xlink:href="#bb" x="208.002" y="153.727"/><use xlink:href="#bc" x="217.902" y="143.641" fill="red"/><use xlink:href="#bd" x="230.634" y="139.302" fill="red"/><use xlink:href="#aJ" x="217.902" y="153.727"/><use xlink:href="#aR" x="223.903" y="153.727"/><use xlink:href="#aF" x="229.439" y="153.727"/><use xlink:href="#be" x="237.078" y="153.727"/><use xlink:href="#aK" x="242.685" y="153.727"/><use xlink:href="#aZ" x="107.102" y="165.285" fill="red"/><use xlink:href="#aQ" x="107.102" y="175.37"/><use xlink:href="#au" x="112.183" y="175.37"/><use xlink:href="#bf" x="117.79" y="175.37"/><use xlink:href="#aE" x="123.648" y="175.37"/><use xlink:href="#au" x="127.629" y="175.37"/><use xlink:href="#ax" x="133.236" y="175.37"/><use xlink:href="#ay" x="136.32" y="175.37"/><use xlink:href="#az" x="141.52" y="175.37"/><use xlink:href="#aA" x="144.27" y="175.37"/><use xlink:href="#aJ" x="153.368" y="175.37"/><use xlink:href="#au" x="159.369" y="175.37"/><use xlink:href="#ay" x="168.874" y="175.37"/><use xlink:href="#aO" x="174.074" y="175.37"/><use xlink:href="#aN" x="179.43" y="175.37"/><use xlink:href="#aE" x="183.662" y="175.37"/><use xlink:href="#aQ" x="187.643" y="175.37"/><use xlink:href="#aA" x="192.724" y="175.37"/><use xlink:href="#aJ" x="201.822" y="175.37"/><use xlink:href="#au" x="207.823" y="175.37"/><use xlink:href="#ax" x="213.43" y="175.37"/><use xlink:href="#aD" x="216.514" y="175.37"/><use xlink:href="#az" x="222.516" y="175.37"/><use xlink:href="#aC" x="225.265" y="175.37"/><use xlink:href="#bg" x="230.466" y="175.37"/><use xlink:href="#aJ" x="236.144" y="175.37"/><use xlink:href="#az" x="242.146" y="175.37"/><use xlink:href="#aA" x="244.895" y="175.37"/><use xlink:href="#ax" x="250.096" y="175.37"/><use xlink:href="#az" x="257.077" y="175.37"/><use xlink:href="#aF" x="263.724" y="175.37"/><use xlink:href="#aO" x="271.686" y="175.37"/><use xlink:href="#bg" x="277.042" y="175.37"/><use xlink:href="#aE" x="282.721" y="175.37"/><use xlink:href="#aQ" x="286.702" y="175.37"/><use xlink:href="#aO" x="291.783" y="175.37"/><use xlink:href="#bc" x="297.141" y="165.285" fill="red"/><use xlink:href="#bd" x="309.873" y="160.945" fill="red"/><use xlink:href="#bg" x="297.141" y="175.37"/><use xlink:href="#aw" x="302.82" y="175.37"/><use xlink:href="#ax" x="308.821" y="175.37"/><use xlink:href="#ay" x="311.905" y="175.37"/><use xlink:href="#az" x="317.106" y="175.37"/><use xlink:href="#aA" x="319.856" y="175.37"/><use xlink:href="#aK" x="325.056" y="175.37"/><use xlink:href="#aL" x="107.102" y="186.928" fill="red"/><use xlink:href="#au" x="107.102" y="197.014"/><use xlink:href="#aG" x="112.709" y="197.014"/><use xlink:href="#aS" x="115.459" y="197.014"/><use xlink:href="#aR" x="121.783" y="197.014"/><use xlink:href="#aF" x="127.318" y="197.014"/><use xlink:href="#az" x="135.28" y="197.014"/><use xlink:href="#aA" x="138.03" y="197.014"/><use xlink:href="#aP" x="143.23" y="197.014"/><use xlink:href="#aD" x="156.381" y="197.014"/><use xlink:href="#aE" x="162.059" y="197.014"/><use xlink:href="#au" x="166.04" y="197.014"/><use xlink:href="#aF" x="171.324" y="197.014"/><use xlink:href="#aA" x="178.963" y="197.014"/><use xlink:href="#ax" x="188.061" y="197.014"/><use xlink:href="#aA" x="191.146" y="197.014"/><use xlink:href="#aB" x="196.346" y="197.014"/><use xlink:href="#aN" x="200.829" y="197.014"/><use xlink:href="#aB" x="208.959" y="197.014"/><use xlink:href="#bh" x="213.442" y="197.014"/><use xlink:href="#aR" x="216.873" y="197.014"/><use xlink:href="#aF" x="222.408" y="197.014"/><use xlink:href="#aR" x="230.047" y="197.014"/><use xlink:href="#aI" x="239.802" y="197.014"/><use xlink:href="#au" x="246.928" y="197.014"/><use xlink:href="#aJ" x="252.535" y="197.014"/><use xlink:href="#au" x="258.536" y="197.014"/><use xlink:href="#aK" x="264.143" y="197.014"/><use xlink:href="#bi" x="107.102" y="208.572" fill="red"/><use xlink:href="#aD" x="107.102" y="218.657"/><use xlink:href="#aE" x="112.781" y="218.657"/><use xlink:href="#au" x="116.762" y="218.657"/><use xlink:href="#aF" x="122.046" y="218.657"/><use xlink:href="#av" x="130.008" y="218.657"/><use xlink:href="#be" x="136.009" y="218.657"/><use xlink:href="#bg" x="145.513" y="218.657"/><use xlink:href="#au" x="151.192" y="218.657"/><use xlink:href="#bj" x="156.799" y="218.657"/><use xlink:href="#av" x="161.88" y="218.657"/><use xlink:href="#aA" x="167.881" y="218.657"/><use xlink:href="#aX" x="176.979" y="218.657"/><use xlink:href="#aA" x="182.466" y="218.657"/><use xlink:href="#bf" x="187.667" y="218.657"/><use xlink:href="#aR" x="193.525" y="218.657"/><use xlink:href="#bc" x="203.281" y="208.572" fill="red"/><use xlink:href="#bd" x="216.013" y="204.232" fill="red"/><use xlink:href="#av" x="203.281" y="218.657"/><use xlink:href="#aQ" x="209.282" y="218.657"/><use xlink:href="#az" x="214.363" y="218.657"/><use xlink:href="#aA" x="217.113" y="218.657"/><use xlink:href="#bh" x="222.313" y="218.657"/><use xlink:href="#aR" x="225.744" y="218.657"/><use xlink:href="#aT" x="231.602" y="218.657"/><use xlink:href="#aL" x="107.102" y="230.216" fill="red"/><use xlink:href="#bk" x="107.102" y="240.301"/><use xlink:href="#aJ" x="121.986" y="240.301"/><use xlink:href="#az" x="127.987" y="240.301"/><use xlink:href="#aP" x="130.737" y="240.301"/><use xlink:href="#aB" x="143.888" y="240.301"/><use xlink:href="#be" x="148.371" y="240.301"/><use xlink:href="#aB" x="157.875" y="240.301"/><use xlink:href="#aD" x="162.358" y="240.301"/><use xlink:href="#aE" x="168.037" y="240.301"/><use xlink:href="#au" x="172.018" y="240.301"/><use xlink:href="#aF" x="177.302" y="240.301"/><use xlink:href="#az" x="185.264" y="240.301"/><use xlink:href="#aA" x="188.013" y="240.301"/><use xlink:href="#av" x="193.214" y="240.301"/><use xlink:href="#aG" x="199.215" y="240.301"/><use xlink:href="#az" x="201.965" y="240.301"/><use xlink:href="#aF" x="204.715" y="240.301"/><use xlink:href="#aR" x="212.354" y="240.301"/><use xlink:href="#aM" x="218.212" y="240.301"/><use xlink:href="#bl" x="222.695" y="240.301"/><use xlink:href="#az" x="231.793" y="240.301"/><use xlink:href="#aD" x="238.44" y="240.301"/><use xlink:href="#aE" x="244.118" y="240.301"/><use xlink:href="#au" x="248.099" y="240.301"/><use xlink:href="#aF" x="253.383" y="240.301"/><use xlink:href="#aR" x="261.023" y="240.301"/><use xlink:href="#aK" x="266.881" y="240.301"/><use xlink:href="#aX" x="107.102" y="261.945"/><use xlink:href="#aA" x="112.589" y="261.945"/><use xlink:href="#bf" x="117.79" y="261.945"/><use xlink:href="#aR" x="123.648" y="261.945"/><use xlink:href="#aP" x="133.403" y="261.945"/><use xlink:href="#az" x="142.656" y="261.945"/><use xlink:href="#bi" x="145.406" y="251.859" fill="red"/><use xlink:href="#bh" x="145.406" y="261.945"/><use xlink:href="#aR" x="148.837" y="261.945"/><use xlink:href="#aM" x="154.695" y="261.945"/><use xlink:href="#ay" x="159.178" y="261.945"/><use xlink:href="#az" x="164.379" y="261.945"/><use xlink:href="#aD" x="171.026" y="261.945"/><use xlink:href="#aA" x="177.35" y="261.945"/><use xlink:href="#bh" x="182.55" y="261.945"/><use xlink:href="#aJ" x="186.304" y="261.945"/><use xlink:href="#au" x="192.305" y="261.945"/><use xlink:href="#ax" x="201.81" y="261.945"/><use xlink:href="#aA" x="204.894" y="261.945"/><use xlink:href="#aB" x="210.095" y="261.945"/><use xlink:href="#aN" x="214.578" y="261.945"/><use xlink:href="#bc" x="222.708" y="251.859" fill="red"/><use xlink:href="#bd" x="235.44" y="247.52" fill="red"/><use xlink:href="#aQ" x="222.708" y="261.945"/><use xlink:href="#az" x="227.789" y="261.945"/><use xlink:href="#aA" x="230.539" y="261.945"/><use xlink:href="#bm" x="235.739" y="253.452" fill="red"/><use xlink:href="#aP" x="235.739" y="261.945"/><use xlink:href="#az" x="244.992" y="261.945"/><use xlink:href="#aL" x="247.742" y="251.859" fill="red"/><use xlink:href="#au" x="247.742" y="261.945"/><use xlink:href="#aT" x="253.349" y="261.945"/><use xlink:href="#bc" x="256.601" y="251.859" fill="red"/><use xlink:href="#bd" x="269.333" y="247.52" fill="red"/><use xlink:href="#ar" x="87.232" y="289.566"/><use xlink:href="#at" x="107.102" y="289.566"/><use xlink:href="#au" x="114.634" y="289.566"/><use xlink:href="#as" x="120.24" y="279.481" fill="red"/><use xlink:href="#av" x="120.24" y="289.566"/><use xlink:href="#aw" x="126.241" y="289.566"/><use xlink:href="#ax" x="132.243" y="289.566"/><use xlink:href="#ay" x="135.327" y="289.566"/><use xlink:href="#az" x="140.528" y="289.566"/><use xlink:href="#aA" x="143.277" y="289.566"/><use xlink:href="#aB" x="152.375" y="289.566"/><use xlink:href="#az" x="156.858" y="289.566"/><use xlink:href="#aC" x="159.608" y="289.566"/><use xlink:href="#bn" x="168.706" y="289.566"/><use xlink:href="#aY" x="90.592" y="317.187"/><use xlink:href="#aZ" x="107.102" y="307.102" fill="red"/><use xlink:href="#bo" x="107.102" y="317.187"/><use xlink:href="#bh" x="113.606" y="317.187"/><use xlink:href="#aR" x="117.037" y="317.187"/><use xlink:href="#aF" x="122.572" y="317.187"/><use xlink:href="#aR" x="130.211" y="317.187"/><use xlink:href="#aI" x="139.966" y="317.187"/><use xlink:href="#au" x="147.091" y="317.187"/><use xlink:href="#aJ" x="152.698" y="317.187"/><use xlink:href="#au" x="158.7" y="317.187"/><use xlink:href="#aw" x="168.204" y="317.187"/><use xlink:href="#ay" x="174.205" y="317.187"/><use xlink:href="#aQ" x="179.406" y="317.187"/><use xlink:href="#aO" x="184.487" y="317.187"/><use xlink:href="#aJ" x="189.843" y="317.187"/><use xlink:href="#az" x="195.844" y="317.187"/><use xlink:href="#bh" x="198.594" y="317.187"/><use xlink:href="#aR" x="202.025" y="317.187"/><use xlink:href="#bc" x="211.781" y="307.102" fill="red"/><use xlink:href="#bd" x="224.513" y="302.762" fill="red"/><use xlink:href="#aJ" x="211.781" y="317.187"/><use xlink:href="#az" x="217.782" y="317.187"/><use xlink:href="#aA" x="220.532" y="317.187"/><use xlink:href="#aS" x="225.732" y="317.187"/><use xlink:href="#aR" x="232.057" y="317.187"/><use xlink:href="#aZ" x="107.102" y="328.746" fill="red"/><use xlink:href="#az" x="107.102" y="338.831"/><use xlink:href="#aN" x="113.749" y="338.831"/><use xlink:href="#ay" x="117.981" y="338.831"/><use xlink:href="#aV" x="123.181" y="338.831"/><use xlink:href="#aJ" x="129.183" y="338.831"/><use xlink:href="#az" x="135.184" y="338.831"/><use xlink:href="#aA" x="137.934" y="338.831"/><use xlink:href="#aJ" x="143.134" y="338.831"/><use xlink:href="#az" x="149.136" y="338.831"/><use xlink:href="#aA" x="151.885" y="338.831"/><use xlink:href="#aX" x="160.983" y="338.831"/><use xlink:href="#aA" x="166.471" y="338.831"/><use xlink:href="#bf" x="171.671" y="338.831"/><use xlink:href="#aR" x="177.529" y="338.831"/><use xlink:href="#aw" x="187.284" y="338.831"/><use xlink:href="#aB" x="193.286" y="338.831"/><use xlink:href="#aN" x="197.769" y="338.831"/><use xlink:href="#bp" x="205.898" y="338.831"/><use xlink:href="#aX" x="221.499" y="338.831"/><use xlink:href="#aA" x="226.987" y="338.831"/><use xlink:href="#bf" x="232.187" y="338.831"/><use xlink:href="#aR" x="238.045" y="338.831"/><use xlink:href="#aQ" x="247.8" y="338.831"/><use xlink:href="#au" x="252.881" y="338.831"/><use xlink:href="#aB" x="258.488" y="338.831"/><use xlink:href="#bc" x="262.973" y="328.746" fill="red"/><use xlink:href="#bd" x="275.705" y="324.406" fill="red"/><use xlink:href="#aN" x="262.973" y="338.831"/><use xlink:href="#aC" x="267.205" y="338.831"/><use xlink:href="#aD" x="272.405" y="338.831"/><use xlink:href="#aO" x="278.084" y="338.831"/><use xlink:href="#aT" x="282.46" y="338.831"/><use xlink:href="#aL" x="107.102" y="350.389" fill="red"/><use xlink:href="#aI" x="107.102" y="360.474"/><use xlink:href="#au" x="114.227" y="360.474"/><use xlink:href="#aJ" x="119.834" y="360.474"/><use xlink:href="#aw" x="129.733" y="360.474"/><use xlink:href="#av" x="135.734" y="360.474"/><use xlink:href="#au" x="141.736" y="360.474"/><use xlink:href="#aE" x="147.02" y="360.474"/><use xlink:href="#aA" x="151.001" y="360.474"/><use xlink:href="#aP" x="156.201" y="360.474"/><use xlink:href="#aJ" x="165.454" y="360.474"/><use xlink:href="#az" x="171.456" y="360.474"/><use xlink:href="#au" x="174.205" y="360.474"/><use xlink:href="#aQ" x="183.71" y="360.474"/><use xlink:href="#au" x="188.791" y="360.474"/><use xlink:href="#aP" x="194.397" y="360.474"/><use xlink:href="#az" x="203.651" y="360.474"/><use xlink:href="#au" x="206.4" y="360.474"/><use xlink:href="#aE" x="211.684" y="360.474"/><use xlink:href="#aO" x="215.665" y="360.474"/><use xlink:href="#aJ" x="224.919" y="360.474"/><use xlink:href="#au" x="230.92" y="360.474"/><use xlink:href="#aE" x="236.204" y="360.474"/><use xlink:href="#aR" x="240.185" y="360.474"/><use xlink:href="#av" x="246.366" y="360.474"/><use xlink:href="#bq" x="252.367" y="360.474"/><use xlink:href="#aF" x="257.902" y="360.474"/><use xlink:href="#aK" x="265.864" y="360.474"/><use xlink:href="#bi" x="107.102" y="372.033" fill="red"/><use xlink:href="#aF" x="107.102" y="382.118"/><use xlink:href="#aJ" x="115.064" y="382.118"/><use xlink:href="#az" x="121.065" y="382.118"/><use xlink:href="#aF" x="123.815" y="382.118"/><use xlink:href="#aA" x="131.454" y="382.118"/><use xlink:href="#ay" x="136.655" y="382.118"/><use xlink:href="#aQ" x="141.855" y="382.118"/><use xlink:href="#aR" x="150.833" y="382.118"/><use xlink:href="#aS" x="156.691" y="382.118"/><use xlink:href="#aE" x="162.37" y="382.118"/><use xlink:href="#au" x="166.351" y="382.118"/><use xlink:href="#ay" x="171.958" y="382.118"/><use xlink:href="#au" x="177.158" y="382.118"/><use xlink:href="#aQ" x="186.663" y="382.118"/><use xlink:href="#au" x="191.743" y="382.118"/><use xlink:href="#aP" x="197.35" y="382.118"/><use xlink:href="#aO" x="206.603" y="382.118"/><use xlink:href="#aB" x="211.959" y="382.118"/><use xlink:href="#bh" x="216.442" y="382.118"/><use xlink:href="#aO" x="220.196" y="382.118"/><use xlink:href="#bc" x="229.451" y="372.033" fill="red"/><use xlink:href="#bd" x="242.183" y="367.693" fill="red"/><use xlink:href="#aG" x="229.451" y="382.118"/><use xlink:href="#aw" x="232.201" y="382.118"/><use xlink:href="#av" x="238.202" y="382.118"/><use xlink:href="#bq" x="244.203" y="382.118"/><use xlink:href="#aF" x="249.739" y="382.118"/><use xlink:href="#aT" x="257.701" y="382.118"/><use xlink:href="#br" x="107.102" y="403.762"/><use xlink:href="#aG" x="114.837" y="403.762"/><use xlink:href="#aA" x="117.587" y="403.762"/><use xlink:href="#aL" x="126.684" y="393.676" fill="red"/><use xlink:href="#aQ" x="126.684" y="403.762"/><use xlink:href="#au" x="131.765" y="403.762"/><use xlink:href="#aP" x="137.372" y="403.762"/><use xlink:href="#az" x="146.625" y="403.762"/><use xlink:href="#au" x="149.375" y="403.762"/><use xlink:href="#aE" x="154.659" y="403.762"/><use xlink:href="#aI" x="162.537" y="403.762"/><use xlink:href="#au" x="169.662" y="403.762"/><use xlink:href="#aJ" x="175.269" y="403.762"/><use xlink:href="#au" x="181.271" y="403.762"/><use xlink:href="#aK" x="186.877" y="403.762"/><use xlink:href="#bi" x="107.102" y="415.32" fill="red"/><use xlink:href="#aQ" x="107.102" y="425.405"/><use xlink:href="#au" x="112.183" y="425.405"/><use xlink:href="#aP" x="117.79" y="425.405"/><use xlink:href="#az" x="127.043" y="425.405"/><use xlink:href="#au" x="129.793" y="425.405"/><use xlink:href="#aE" x="135.077" y="425.405"/><use xlink:href="#aI" x="142.955" y="425.405"/><use xlink:href="#au" x="150.08" y="425.405"/><use xlink:href="#aJ" x="155.687" y="425.405"/><use xlink:href="#au" x="161.689" y="425.405"/><use xlink:href="#aN" x="171.193" y="425.405"/><use xlink:href="#aE" x="175.425" y="425.405"/><use xlink:href="#aF" x="179.406" y="425.405"/><use xlink:href="#au" x="187.045" y="425.405"/><use xlink:href="#aJ" x="196.549" y="425.405"/><use xlink:href="#au" x="202.551" y="425.405"/><use xlink:href="#bc" x="212.056" y="415.32" fill="red"/><use xlink:href="#bd" x="224.788" y="410.98" fill="red"/><use xlink:href="#aF" x="212.056" y="425.405"/><use xlink:href="#az" x="220.018" y="425.405"/><use xlink:href="#aA" x="222.768" y="425.405"/><use xlink:href="#bm" x="227.968" y="416.912" fill="red"/><use xlink:href="#bg" x="227.968" y="425.405"/><use xlink:href="#az" x="233.647" y="425.405"/><use xlink:href="#aL" x="236.397" y="415.32" fill="red"/><use xlink:href="#aT" x="236.397" y="425.405"/><use xlink:href="#bc" x="243.546" y="415.32" fill="red"/><use xlink:href="#bd" x="256.278" y="410.98" fill="red"/><use xlink:href="#ar" x="87.232" y="453.027"/><use xlink:href="#at" x="107.102" y="453.027"/><use xlink:href="#au" x="114.634" y="453.027"/><use xlink:href="#as" x="120.24" y="442.941" fill="red"/><use xlink:href="#av" x="120.24" y="453.027"/><use xlink:href="#aw" x="126.241" y="453.027"/><use xlink:href="#ax" x="132.243" y="453.027"/><use xlink:href="#ay" x="135.327" y="453.027"/><use xlink:href="#az" x="140.528" y="453.027"/><use xlink:href="#aA" x="143.277" y="453.027"/><use xlink:href="#aB" x="152.375" y="453.027"/><use xlink:href="#az" x="156.858" y="453.027"/><use xlink:href="#aC" x="159.608" y="453.027"/><use xlink:href="#aB" x="168.706" y="453.027"/><use xlink:href="#aD" x="173.189" y="453.027"/><use xlink:href="#aE" x="178.867" y="453.027"/><use xlink:href="#au" x="182.848" y="453.027"/><use xlink:href="#aF" x="188.132" y="453.027"/><use xlink:href="#az" x="196.094" y="453.027"/><use xlink:href="#aA" x="198.844" y="453.027"/><use xlink:href="#av" x="204.045" y="453.027"/><use xlink:href="#aG" x="210.046" y="453.027"/><use xlink:href="#az" x="212.796" y="453.027"/><use xlink:href="#aF" x="215.545" y="453.027"/><use xlink:href="#az" x="223.507" y="453.027"/><use xlink:href="#aH" x="230.156" y="442.941" fill="red"/><use xlink:href="#aF" x="230.156" y="453.027"/><use xlink:href="#aI" x="242.015" y="453.027"/><use xlink:href="#au" x="249.141" y="453.027"/><use xlink:href="#aJ" x="254.747" y="453.027"/><use xlink:href="#aw" x="260.749" y="453.027"/><use xlink:href="#aK" x="266.75" y="453.027"/><use xlink:href="#aL" x="107.102" y="464.585" fill="red"/><use xlink:href="#aM" x="107.102" y="474.67"/><use xlink:href="#aF" x="111.585" y="474.67"/><use xlink:href="#az" x="119.547" y="474.67"/><use xlink:href="#aC" x="122.297" y="474.67"/><use xlink:href="#aN" x="127.497" y="474.67"/><use xlink:href="#aO" x="131.407" y="474.67"/><use xlink:href="#aP" x="136.762" y="474.67"/><use xlink:href="#aD" x="149.913" y="474.67"/><use xlink:href="#aE" x="155.591" y="474.67"/><use xlink:href="#aQ" x="159.572" y="474.67"/><use xlink:href="#aO" x="164.653" y="474.67"/><use xlink:href="#aB" x="170.009" y="474.67"/><use xlink:href="#aN" x="174.492" y="474.67"/><use xlink:href="#aR" x="178.724" y="474.67"/><use xlink:href="#az" x="184.582" y="474.67"/><use xlink:href="#aw" x="191.229" y="474.67"/><use xlink:href="#aF" x="196.908" y="474.67"/><use xlink:href="#az" x="204.87" y="474.67"/><use xlink:href="#aA" x="207.62" y="474.67"/><use xlink:href="#aG" x="212.82" y="474.67"/><use xlink:href="#as" x="215.571" y="464.585" fill="red"/><use xlink:href="#aS" x="215.571" y="474.67"/><use xlink:href="#az" x="221.572" y="474.67"/><use xlink:href="#aA" x="224.322" y="474.67"/><use xlink:href="#aJ" x="229.522" y="474.67"/><use xlink:href="#az" x="235.524" y="474.67"/><use xlink:href="#aA" x="238.274" y="474.67"/><use xlink:href="#aT" x="243.474" y="474.67"/><use xlink:href="#aU" x="107.102" y="496.314"/><use xlink:href="#aF" x="115.076" y="496.314"/><use xlink:href="#az" x="123.038" y="496.314"/><use xlink:href="#aA" x="125.788" y="496.314"/><use xlink:href="#aG" x="130.988" y="496.314"/><use xlink:href="#aS" x="133.738" y="496.314"/><use xlink:href="#az" x="139.739" y="496.314"/><use xlink:href="#au" x="142.489" y="496.314"/><use xlink:href="#ax" x="148.096" y="496.314"/><use xlink:href="#ay" x="151.18" y="496.314"/><use xlink:href="#az" x="156.381" y="496.314"/><use xlink:href="#aA" x="159.13" y="496.314"/><use xlink:href="#aI" x="168.228" y="496.314"/><use xlink:href="#au" x="175.353" y="496.314"/><use xlink:href="#aJ" x="180.96" y="496.314"/><use xlink:href="#au" x="186.961" y="496.314"/><use xlink:href="#aJ" x="196.466" y="496.314"/><use xlink:href="#au" x="202.467" y="496.314"/><use xlink:href="#aH" x="211.972" y="486.229" fill="red"/><use xlink:href="#ay" x="211.972" y="496.314"/><use xlink:href="#aO" x="217.172" y="496.314"/><use xlink:href="#aN" x="222.528" y="496.314"/><use xlink:href="#aE" x="226.76" y="496.314"/><use xlink:href="#aQ" x="230.741" y="496.314"/><use xlink:href="#aA" x="235.822" y="496.314"/><use xlink:href="#aK" x="241.023" y="496.314"/><use xlink:href="#aI" x="107.102" y="517.958"/><use xlink:href="#aE" x="114.55" y="517.958"/><use xlink:href="#aQ" x="118.531" y="517.958"/><use xlink:href="#aO" x="123.612" y="517.958"/><use xlink:href="#aL" x="132.865" y="507.872" fill="red"/><use xlink:href="#aV" x="132.865" y="517.958"/><use xlink:href="#au" x="138.866" y="517.958"/><use xlink:href="#aE" x="144.151" y="517.958"/><use xlink:href="#aW" x="148.132" y="517.958"/><use xlink:href="#aA" x="154.384" y="517.958"/><use xlink:href="#av" x="163.482" y="517.958"/><use xlink:href="#aQ" x="169.483" y="517.958"/><use xlink:href="#az" x="174.564" y="517.958"/><use xlink:href="#aA" x="177.314" y="517.958"/><use xlink:href="#aB" x="182.514" y="517.958"/><use xlink:href="#az" x="186.997" y="517.958"/><use xlink:href="#aC" x="189.747" y="517.958"/><use xlink:href="#ay" x="194.947" y="517.958"/><use xlink:href="#az" x="200.148" y="517.958"/><use xlink:href="#aR" x="202.897" y="517.958"/><use xlink:href="#aB" x="208.755" y="517.958"/><use xlink:href="#aN" x="213.238" y="517.958"/><use xlink:href="#aE" x="217.471" y="517.958"/><use xlink:href="#aw" x="221.452" y="517.958"/><use xlink:href="#aJ" x="227.453" y="517.958"/><use xlink:href="#aJ" x="233.454" y="517.958"/><use xlink:href="#aA" x="239.456" y="517.958"/><use xlink:href="#ax" x="244.656" y="517.958"/><use xlink:href="#aX" x="251.638" y="517.958"/><use xlink:href="#aA" x="257.125" y="517.958"/><use xlink:href="#aP" x="262.326" y="517.958"/><use xlink:href="#aw" x="271.579" y="517.958"/><use xlink:href="#aM" x="281.478" y="517.958"/><use xlink:href="#aD" x="285.961" y="517.958"/><use xlink:href="#az" x="291.962" y="517.958"/><use xlink:href="#aA" x="294.712" y="517.958"/><use xlink:href="#as" x="299.915" y="507.872" fill="red"/><use xlink:href="#aF" x="299.915" y="517.958"/><use xlink:href="#au" x="307.554" y="517.958"/><use xlink:href="#ax" x="313.161" y="517.958"/><use xlink:href="#ay" x="316.246" y="517.958"/><use xlink:href="#az" x="321.446" y="517.958"/><use xlink:href="#aA" x="324.196" y="517.958"/><g clip-path="url(#bs)"><path fill="url(#bt)" d="M15.023 579.684v-11.336h388.063v11.336Zm0 0"/></g><use xlink:href="#bu" x="17.008" y="577.985"/><use xlink:href="#bv" x="23.739" y="577.985"/><use xlink:href="#bw" x="30.469" y="577.985"/><use xlink:href="#bx" x="266.486" y="577.985"/><use xlink:href="#by" x="272.149" y="577.985"/><use xlink:href="#bz" x="276.549" y="577.985"/><use xlink:href="#bA" x="282.024" y="577.985"/><use xlink:href="#bB" x="285.567" y="577.985"/><use xlink:href="#bC" x="289.751" y="577.985"/><use xlink:href="#bD" x="295.547" y="577.985"/><use xlink:href="#bE" x="299.515" y="577.985"/><use xlink:href="#bD" x="303.483" y="577.985"/><use xlink:href="#bF" x="307.451" y="577.985"/><use xlink:href="#bG" x="314.104" y="577.985"/><use xlink:href="#bD" x="324.733" y="577.985"/><use xlink:href="#bH" x="328.701" y="577.985"/><use xlink:href="#bI" x="335.354" y="577.985"/><use xlink:href="#bD" x="340.92" y="577.985"/><use xlink:href="#bE" x="344.888" y="577.985"/><use xlink:href="#bD" x="348.856" y="577.985"/><use xlink:href="#bJ" x="352.824" y="577.985"/><use xlink:href="#bG" x="359.477" y="577.985"/><use xlink:href="#bK" x="370.106" y="577.985"/><use xlink:href="#bL" x="372.358" y="577.985"/><use xlink:href="#bD" x="376.327" y="577.985"/><use xlink:href="#bH" x="380.295" y="577.985"/><use xlink:href="#bM" x="384.263" y="577.985"/><use xlink:href="#bL" x="389.201" y="577.985"/><use xlink:href="#bN" x="393.169" y="577.985"/><use xlink:href="#bD" x="397.137" y="577.985"/><path fill="#f2f2f2" stroke="#000" stroke-miterlimit="10" stroke-width=".797" d="M196.602 576.055v-3.989a2.99 2.99 0 0 1 2.988-2.988h18.93a2.99 2.99 0 0 1 2.988 2.988v3.989a2.99 2.99 0 0 1-2.988 2.988h-18.93a2.99 2.99 0 0 1-2.988-2.988Zm0 0"/><use xlink:href="#bO" x="198.439" y="576.948"/><use xlink:href="#bP" x="203.747" y="576.948"/><use xlink:href="#bP" x="209.055" y="576.948"/><use xlink:href="#bQ" x="214.363" y="576.948"/></svg>