<svg xmlns="http://www.w3.org/2000/svg" xmlns:xlink="http://www.w3.org/1999/xlink" width="559.371" height="793.701" viewBox="0 0 419.528 595.276"><defs><path id="d" d="M3.344 2.297v-.078L1.5-2.5l1.844-4.703v-.078c0-.11-.078-.203-.188-.203a.24.24 0 0 0-.203.14L1.11-2.562c-.015.015-.015.046-.015.062 0 .031 0 .063.015.078L2.953 2.36a.24.24 0 0 0 .203.141c.11 0 .188-.094.188-.203m0 0"/><path id="e" d="M4.281-1.062c0-.063-.047-.141-.11-.141-.062 0-.077.031-.14.11-.781.984-1.875.984-1.984.984-.781 0-.875-.844-.875-1.157 0-.125.016-.421.156-1.03h.531c.297 0 1.032-.032 1.532-.235.703-.297.75-.89.75-1.031 0-.438-.375-.844-1.063-.844-1.11 0-2.625.968-2.625 2.718C.453-.671 1.047.11 2.031.11c1.422 0 2.25-1.062 2.25-1.171m-.468-2.5c0 1.046-1.594 1.046-2.016 1.046H1.39c.39-1.515 1.422-1.671 1.687-1.671.453 0 .735.296.735.625m0 0"/><path id="f" d="M2.781-2.5c0-.016 0-.047-.015-.062L.922-7.344c-.031-.078-.11-.14-.188-.14a.207.207 0 0 0-.203.203v.078L2.375-2.5.531 2.219v.078c0 .11.094.203.203.203.079 0 .157-.062.188-.14l1.844-4.782c.015-.015.015-.047.015-.078m0 0"/><path id="g" d="M6.047-.156c0-.094-.11-.11-.14-.11-.25 0-.376-.03-.5-.312L4.218-3.297 5.766-4.5c.218-.172.812-.625 1.312-.672.063-.016.156-.031.156-.156 0-.047-.03-.11-.109-.11 0 0-.234.016-.281.016h-.328c-.266 0-.563-.016-.813-.016-.047 0-.172 0-.172.141 0 .11.14.125.14.125.11 0 .173.047.173.11 0 .125-.14.25-.172.28l-.047.048c-.016.015-.031.015-.094.078L2.563-2.344l.609-2.5c.078-.265.125-.328.61-.328.171 0 .265 0 .265-.156 0-.047-.031-.11-.125-.11-.14 0-.313.016-.453.016h-.953l-.453-.016c-.047 0-.172 0-.172.141 0 .125.093.125.234.125.219 0 .438 0 .438.11 0 .046 0 .062-.032.171L1.47-.609c-.078.28-.125.343-.61.343-.171 0-.265 0-.265.157C.594-.047.64 0 .719 0c.031 0 .39-.016.453-.031h.484c.672 0 .89.031.938.031s.156 0 .156-.156c0-.11-.094-.11-.234-.11-.25 0-.438 0-.438-.125 0-.046.047-.218.078-.328l.297-1.203 1.25-.969.985 2.25c.046.094.046.11.046.141 0 .203-.187.234-.343.234-.094 0-.188.016-.188.157 0 .062.047.109.11.109.28 0 .578-.031.843-.031.672 0 .64.031.735.031.03 0 .156 0 .156-.156m0 0"/><path id="h" d="M2.828-1.14c0-.11-.11-.11-.156-.11-.125 0-.125.031-.172.172-.14.516-.406.937-.734.937-.157 0-.188-.109-.188-.25 0-.187.063-.328.188-.656l.515-1.39c.063-.172.094-.25.094-.422 0-.438-.312-.657-.656-.657-.75 0-1.078 1.11-1.078 1.22 0 .108.093.108.14.108.14 0 .14-.03.172-.171.125-.407.375-.938.75-.938.14 0 .172.11.172.25 0 .188-.047.344-.156.61L1.156-.953a1.1 1.1 0 0 0-.078.375c0 .36.266.656.672.656.75 0 1.078-1.125 1.078-1.219m.125-3.704a.354.354 0 0 0-.36-.375.55.55 0 0 0-.53.532c0 .234.171.359.359.359.265 0 .531-.234.531-.516m0 0"/><path id="i" d="M4.14-1.14c0-.11-.109-.11-.14-.11-.14 0-.156.047-.187.172-.11.453-.266.937-.61.937-.14 0-.25-.078-.25-.375 0-.125.031-.265.063-.39.03-.125.03-.172.03-.25 0-.563-.546-.75-1.108-.86.296-.187.625-.53.671-.593.454-.5.766-.688 1.063-.688.11 0 .172.063.203.11-.156.03-.344.171-.344.39s.188.266.281.266c.204 0 .407-.14.407-.453 0-.266-.157-.532-.547-.532s-.75.266-1.188.735c-.484.515-.656.594-.796.672l.796-3.188c0-.031.016-.094.016-.125 0-.11-.125-.11-.219-.094l-.828.063c-.11.016-.187.016-.187.156 0 .125.093.125.203.125.375 0 .375.047.375.11a.7.7 0 0 1-.032.171L.657-.266c0 .032-.015.079-.015.11 0 .11.078.234.25.234.14 0 .265-.094.328-.297l.39-1.578c.313.031.891.172.891.656 0 .047 0 .079-.031.188a1 1 0 0 0-.031.25c0 .437.296.781.734.781.36 0 .562-.265.656-.406.188-.297.313-.766.313-.813m0 0"/><path id="j" d="M4.297-2.172c0-.828-.547-1.344-1.266-1.344C2-3.516.921-2.437.921-1.266c0 .875.595 1.344 1.267 1.344 1.062 0 2.109-1.094 2.109-2.25m-.594-.281c0 .265-.125 1.031-.437 1.578-.266.438-.688.734-1.078.734-.297 0-.672-.203-.672-.843 0-.36.172-1.11.422-1.547.343-.578.812-.766 1.078-.766.39 0 .687.297.687.844m0 0"/><path id="k" d="M8.031-2.734V-7.72c0-.39-.078-.578-.578-.578h-.469c-.453 0-.578.156-.578.578v5c0 1.172-.343 1.953-1.797 1.953-1.39 0-1.765-.703-1.765-1.937V-7.72c0-.39-.078-.578-.578-.578h-.61c-.422 0-.562.14-.562.578v4.969c0 2.516 1.984 3.016 3.5 3.016 1.36 0 3.437-.407 3.437-3m0 0"/><path id="l" d="M4.25-4.719v-.562c0-.235 0-.328-.203-.328-.344 0-1.219.125-1.781 1.406v-.766c0-.39-.094-.578-.578-.578h-.391c-.422 0-.563.125-.563.578v4.39C.734-.14.86 0 1.297 0h.453c.453 0 .563-.156.563-.578V-2.75c0-1.14.953-1.594 1.703-1.656.218 0 .234 0 .234-.313m0 0"/><path id="m" d="M2.313-.578v-4.328c0-.375-.079-.563-.563-.563h-.453c-.422 0-.563.125-.563.563v4.328c0 .437.125.578.563.578h.453c.453 0 .563-.156.563-.578M3.53-8.141c0-.156-.14-.156-.328-.156H2.22c-.235 0-.25.016-.36.14L.844-6.75c-.11.125-.11.172-.11.172 0 .156.125.156.313.156H1.5l1.89-1.531c.063-.063.141-.11.141-.188m0 0"/><path id="n" d="M2.61-.328v-.922c0-.297-.016-.312-.329-.312H1.36c-.312 0-.312.015-.312.312v.922c0 .312 0 .328.406.328-.078.188-.14.375-.203.578-.078.172-.203.531-.203.531 0 .157.125.157.312.157H1.5c.25 0 .25-.016.375-.203L2.5.078c.11-.172.11-.203.11-.406m0 0"/><path id="o" d="M5.969-.578v-4.328c0-.375-.078-.563-.563-.563h-.484c-.453 0-.578.157-.578.563v2.843c0 .782-.407 1.47-1.266 1.47-.656 0-.734-.173-.734-.813v-3.5c0-.375-.078-.563-.578-.563h-.47c-.437 0-.577.125-.577.563V-1.5c0 1.266.687 1.625 1.937 1.625.313 0 1.172 0 1.735-1.016v.313c0 .39.078.578.562.578h.453c.453 0 .563-.156.563-.578m0 0"/><path id="p" d="M5.672-.578v-3.203c0-1.89-1.828-1.89-2.422-1.89-.562 0-1.156.046-1.953.374-.25.11-.313.14-.313.281 0 .079.063.766.079.875a.17.17 0 0 0 .156.125c.062 0 .093-.03.125-.078.515-.531 1.125-.797 1.86-.797.64 0 .843.391.843 1.094v.422c-.422 0-3.563.031-3.563 1.781C.484-.75 1.156.125 2.22.125c.406 0 1.297-.11 1.86-.937v.234c0 .39.077.578.577.578h.438c.453 0 .578-.156.578-.578M4.047-1.844c0 1.11-1.14 1.11-1.172 1.11-.516 0-.828-.422-.828-.875 0-1.172 1.656-1.266 2-1.266Zm.969-6.297c0-.156-.141-.156-.328-.156h-.985c-.234 0-.25.016-.36.14L2.314-6.75c-.094.125-.094.172-.094.172 0 .156.125.156.312.156h.438l1.906-1.531c.063-.063.14-.11.14-.188m0 0"/><path id="az" d="M5.469-.594c0-.14-.047-.687-.078-.843 0-.032-.032-.157-.141-.157-.047 0-.078 0-.187.125-.204.172-.766.672-1.75.672-1.25 0-1.25-1.219-1.25-1.969 0-.968.062-1.984 1.28-1.984.782 0 1.11.203 1.532.547.14.14.172.14.219.14.125 0 .14-.109.156-.156.016-.093.14-.765.14-.828 0-.11-.077-.156-.28-.25-.579-.266-.938-.375-1.782-.375-1.781 0-2.89.828-2.89 2.922C.438-.766 1.468.125 3.28.125c.313 0 1.031 0 1.828-.406.344-.188.36-.203.36-.313m0 0"/><path id="aA" d="M2.313-.578v-4.328c0-.375-.079-.563-.563-.563h-.453c-.422 0-.563.125-.563.563v4.328c0 .437.125.578.563.578h.453c.453 0 .563-.156.563-.578m.093-6.672v-.219c0-.39-.094-.578-.578-.578h-.61c-.452 0-.577.156-.577.578v.219c0 .36.062.578.578.578h.61c.5 0 .577-.219.577-.578m0 0"/><path id="aC" d="M2.313-.578v-7.14c0-.391-.079-.579-.563-.579h-.453c-.422 0-.563.14-.563.578v7.14C.734-.14.86 0 1.297 0h.453c.453 0 .563-.156.563-.578m0 0"/><path id="aD" d="M5.719-3.11c0-1.546-.703-2.562-2.485-2.562-1.921 0-2.859 1.063-2.859 2.89 0 1.954 1.125 2.907 3 2.907.469 0 1.14-.047 1.938-.453.25-.125.343-.156.343-.313 0-.078-.031-.421-.047-.515-.046-.375-.062-.39-.171-.39-.047 0-.079 0-.204.124a2.7 2.7 0 0 1-1.796.688c-1.36 0-1.5-1.063-1.532-1.828h3.25c.266 0 .563 0 .563-.547m-1.313-.078h-2.5c.047-.734.282-1.624 1.328-1.624.954 0 1.125.687 1.172 1.625m0 0"/><path id="aE" d="M5.969-.578v-3.313c0-1.218-.516-1.718-1.735-1.718-1.265 0-1.796.906-1.953 1.234h-.015v-.594c0-.39-.079-.578-.563-.578h-.406c-.438 0-.578.125-.578.578v4.39c0 .438.125.579.578.579h.469c.453 0 .578-.156.578-.578v-2.64c0-1.032.687-1.532 1.312-1.532.578 0 .688.281.688.89v3.282c0 .39.093.578.578.578h.484c.453 0 .563-.156.563-.578m-.75-7.563c0-.156-.125-.156-.313-.156h-.984c-.235 0-.25.016-.36.14L2.532-6.75c-.11.125-.11.172-.11.172 0 .156.14.156.328.156h.438l1.906-1.531c.062-.063.125-.11.125-.188m0 0"/><path id="aG" d="M6.188-2.687c0-1.97-.954-2.985-2.907-2.985-1.984 0-2.906 1.063-2.906 2.984C.375-.733 1.406.126 3.281.126s2.907-.86 2.907-2.812m-1.625-.141c0 .937 0 2.031-1.282 2.031C2-.797 2-1.875 2-2.828c0-.922 0-1.985 1.281-1.985s1.281 1.047 1.281 1.985m0 0"/><path id="q" d="M6.016 0 4.219-3.766l3-2.453h-.89L2.312-2.922l.703-3.297h-.813L.875 0h.813l.437-2.047 1.469-1.187L5.125 0Zm0 0"/><path id="r" d="M4.75-1.969C5-3.14 4.313-4.14 3.172-4.14c-1.11 0-2.234.97-2.484 2.172C.438-.797 1.188.094 2.28.094 3.391.094 4.5-.812 4.75-1.97m-.719-.093C3.797-1.016 3.063-.516 2.406-.516c-.687 0-1.172-.53-.953-1.546.219-1.047.984-1.485 1.594-1.485.64 0 1.203.453.984 1.485m0 0"/><path id="s" d="m1.453 0 1.328-6.219h-.719L.734 0Zm0 0"/><path id="t" d="M4.25-1.969c.063-.281.188-.953-.047-1.5-.25-.562-.797-.672-1.14-.672-1.047 0-2.079.97-2.313 2.11C.5-.844 1.172.094 2.297.094c-.453.265-.781.625-.844 1.047-.078.39.125.765.719.765.297 0 .531-.062.937-.234l-.015-.531c-.219.093-.438.14-.625.14-.25-.031-.453-.078-.406-.343.078-.407.546-.72 1-.954.25-.078.515-.171.796-.328l.079-.61c-.657.391-1.204.47-1.516.47-.75 0-1.172-.657-1.016-1.485ZM3.828-2.5H1.563c.265-.562.812-1.047 1.375-1.047.328 0 .906.14.89 1.047m0 0"/><path id="u" d="m4.016 0 1.328-6.219h-.719l-.578 2.625c-.406-.422-.969-.484-1.25-.484-.906 0-1.813.937-2.047 2.094C.5-.828 1 .094 1.875.094c.266 0 .844-.063 1.484-.563L3.266 0ZM3.53-1.266c-.031.172-.031.188-.156.313-.312.328-.656.469-.984.469-.578 0-1.141-.422-.907-1.5C1.734-3.125 2.578-3.5 3.141-3.5c.406 0 .64.234.765.469Zm0 0"/><path id="v" d="m3.781 0 .547-2.594c.188-.89-.312-1.547-1.203-1.547-.594 0-1.047.157-1.531.407l-.078.625C2.03-3.437 2.5-3.562 3-3.562s.719.39.594.984l-.094.375C1.953-2.172.86-1.766.703-1.047.625-.625.75.093 1.531.093c.172 0 .953-.015 1.61-.437L3.062 0Zm-.469-1.25c-.046.188-.093.406-.453.594-.265.14-.562.172-.75.172-.453 0-.78-.22-.703-.578.125-.625 1.89-.657 2-.657Zm0 0"/><path id="x" d="M11.797-3.984a5.45 5.45 0 0 0-5.453-5.453A5.45 5.45 0 0 0 .89-3.984a5.45 5.45 0 0 0 5.453 5.453 5.45 5.45 0 0 0 5.453-5.453m-.64 0A4.815 4.815 0 0 1 6.343.828 4.815 4.815 0 0 1 1.53-3.984a4.815 4.815 0 0 1 4.813-4.813 4.815 4.815 0 0 1 4.812 4.813m0 0"/><path id="y" d="M7.344 0v-.312c-.547 0-.75-.032-1.047-.47l-2.313-3.39 1.797-1.734c.078-.078.61-.578 1.422-.594v-.312c-.266.03-.578.03-.86.03-.359 0-.921 0-1.265-.03v.312c.406.016.469.234.469.328 0 .156-.11.266-.188.328L2.25-2.859v-3.172c0-.36.016-.469.781-.469h.235v-.312c-.344.03-1.078.03-1.47.03-.374 0-1.124 0-1.468-.03v.312h.235c.765 0 .796.11.796.469v5.25c0 .36-.03.469-.796.469H.328V0c.344-.031 1.094-.031 1.469-.031s1.125 0 1.469.031v-.312H3.03c-.765 0-.781-.11-.781-.47v-1.734l1.156-1.109L5.203-.953c.063.094.156.219.156.344 0 .297-.39.297-.593.297V0c.343-.031 1.047-.031 1.422-.031Zm0 0"/><path id="z" d="M-5.172-5.984h-.266c.016.359.016.718.016.937s0 .578-.016.938h.266c0-.813.375-.813.578-.813h2.75c1.094 0 1.75.813 1.75 1.625 0 .438-.25 1.406-1.703 1.406h-3c-.297 0-.375-.015-.375-.625v-.171h-.266l.016 1.171-.016 1.172h.266V-.53c0-.61.078-.625.375-.625h2.969c1.14 0 2-.985 2-2.125 0-1.063-.89-1.89-1.984-1.89h-2.782c-.203 0-.578 0-.578-.813m0 0"/><path id="A" d="M-3.016-3.062c-.28 0-.5.25-.5.609 0 .515.391.875.844 1.031v.016h-.844l.094 1.125h.266c0-.547.047-.61.437-.61h2.094c.36 0 .36.11.36.61H0c-.031-.313-.031-.75-.031-.938 0-.468 0-.484.031-1h-.266v.156c0 .579-.078.594-.375.594h-1.171c-.61 0-1.47-.25-1.485-1.015.031.046.094.14.281.14.25 0 .36-.203.36-.36 0-.187-.125-.358-.36-.358m0 0"/><path id="B" d="M0-2.078h-.266c0 .531-.03.562-.343.562h-2.907l.094 1.157h.266c0-.516.047-.578.437-.578h2.094c.36 0 .36.093.36.609H0c-.031-.313-.031-.766-.031-.89 0-.095 0-.579.031-.86m-4.219.375L-5.437-.672c-.125.094-.125.203-.125.235 0 .156.14.312.312.312.14 0 .203-.062.266-.156l.937-1.25Zm0 0"/><path id="C" d="M-.031-1.719c-.438 0-.86.172-.86.547 0 .266.22.438.438.438.25 0 .453-.172.453-.438 0-.187-.094-.297-.125-.312.25 0 .89 0 1.469.593.015.032.031.047.078.047.078 0 .125-.062.125-.11 0-.093-.625-.765-1.578-.765m0 0"/><path id="D" d="M0-4.484h-.266c0 .547-.046.609-.437.609h-2.813l.094 1.219h.266c0-.547.047-.61.437-.61h1.39c.688 0 1.188.407 1.188 1.016 0 .688-.343.719-.75.719h-2.625l.094 1.203h.266c0-.61.015-.61.719-.61h1.203c.578 0 1.312 0 1.312-1.265 0-.75-.578-1.047-.64-1.078v-.016h.64Zm0 0"/><path id="E" d="M-.719-4.094h-.437v.25h.437c.328 0 .453.11.453.281 0 .297-.359.297-.453.297h-1.656c-.781 0-1.172.75-1.172 1.485 0 .656.25 1.25.781 1.25a.36.36 0 0 0 .375-.375.36.36 0 0 0-.375-.375.356.356 0 0 0-.359.297c-.203-.297-.203-.735-.203-.782 0-.453.312-.89.969-.89h.234c.031.453.047.984.281 1.547.313.703.766.843 1.032.843.687 0 .89-.812.89-1.359a1.23 1.23 0 0 0-.64-1.11c.296-.046.609-.25.609-.609 0-.078-.031-.75-.766-.75m-.406 1.438c.781 0 .984.64.984.969 0 .406-.28.765-.671.765-.516 0-1.063-.5-1.094-1.734Zm-3.094.015-1.218 1.016c-.125.11-.125.219-.125.25 0 .14.14.313.312.313.14 0 .203-.063.266-.157l.937-1.25Zm0 0"/><path id="F" d="M-1.719-4.422c-1 0-1.797.813-1.797 1.781 0 .313.079.766.5 1.172h-.5l.094 1.188h.266c0-.563.047-.61.375-.61H.922c.36 0 .36.11.36.61h.265c-.031-.344-.031-.688-.031-.906 0-.235 0-.563.03-.907h-.265c0 .516 0 .61-.36.61H-.39a1.37 1.37 0 0 0 .47-1.047c0-1-.782-1.89-1.798-1.89m0 .719c.907 0 1.578.578 1.578 1.219 0 .28-.125.64-.515.906-.14.094-.156.094-.297.094h-1.703a1.3 1.3 0 0 1-.61-1.094c0-.61.672-1.125 1.547-1.125m0 0"/><path id="G" d="M-.437-1.625a.453.453 0 0 0-.454.453c0 .266.22.438.438.438A.44.44 0 0 0 0-1.172a.45.45 0 0 0-.437-.453m0 0"/><path id="H" d="M0-3.562h-.266v.28c0 .75-.093.782-.39.782h-4.422c-.219 0-.219.016-.219.234.313.329.5.75.5 1.5h.266c0-.218 0-.64-.203-1.109h4.078c.297 0 .39.031.39.781v.282H0c-.031-.329-.031-1.016-.031-1.375 0-.36 0-1.047.031-1.376m0 0"/><path id="I" d="M-5.125-4.11v2.032c0 .203-.016.437-.031.64-.032.422-.11.422-.235.454v.25l1.688.265v-.25c-.125-.015-.672-.11-.735-.219-.046-.078-.046-.687-.046-.796v-1.688l1.109.813C-2.172-1.703-.906-1.5-.281-1.5c.078 0 .453 0 .453-.375s-.36-.375-.453-.375h-.39c-1.141 0-2.079-.203-2.61-.594L-4.86-4.03c-.079-.078-.094-.078-.266-.078m0 0"/><path id="J" d="M-1.422-3.797v.25c.156.016.547.078.703.172.063.047.063.656.063.781v1.422l-.969-1.078a9 9 0 0 1-.5-.594c-.453-.484-.89-.953-1.61-.953-.953 0-1.562.797-1.562 1.781 0 .97.719 1.594 1.438 1.594.39 0 .437-.312.437-.422 0-.172-.11-.422-.422-.422-.406 0-.406.407-.406.5-.594-.234-.781-.765-.781-1.156 0-.734.625-1.125 1.297-1.125.828 0 1.437.578 2.39 1.531l1.047 1c.078.094.094.094.297.094v-3.14Zm0 0"/><path id="K" d="M1.828-2.672h-.047l-3.765 1.469-3.782-1.469h-.046c-.094 0-.157.063-.157.156 0 .063.032.125.094.157l3.828 1.468c.016.016.031.016.063.016.015 0 .03 0 .046-.016l3.829-1.468a.17.17 0 0 0 .093-.157c0-.093-.062-.156-.156-.156m0 0"/><path id="L" d="M-.828-3.937c-.047 0-.125.062-.125.124 0 .047.015.063.078.126.734.624.734 1.562.734 1.703 0 .484-.328.797-.968.797-.11 0-.266 0-.703-.094v-.5c0-.235-.016-.86-.172-1.281-.203-.594-.594-.704-.828-.704-.438 0-.704.438-.704.985 0 .953.735 2.25 2.094 2.25.813 0 1.5-.5 1.5-1.438 0-1.343-.781-1.968-.906-1.968m-1.985.515c.766 0 .766 1.344.766 1.688v.39c-1.156-.328-1.25-1.218-1.25-1.437 0-.344.188-.64.485-.64m0 0"/><path id="M" d="M-1.984-2.219h-.063L-5.875-.734a.17.17 0 0 0-.094.156c0 .078.063.156.157.156.015 0 .03 0 .046-.016l3.782-1.453L1.78-.437c.016.015.032.015.047.015a.157.157 0 0 0 .156-.156.17.17 0 0 0-.093-.156L-1.937-2.22zm0 0"/><path id="N" d="M5.172 5.984h.266c-.016-.359-.016-.718-.016-.937s0-.578.016-.938h-.266c0 .813-.375.813-.578.813h-2.75c-1.094 0-1.75-.813-1.75-1.625 0-.438.25-1.406 1.703-1.406h3c.297 0 .375.015.375.625v.172h.266l-.016-1.172.016-1.172h-.266V.53c0 .61-.078.625-.375.625H1.828c-1.14 0-2 .985-2 2.125 0 1.063.89 1.89 1.985 1.89h2.78c.204 0 .579 0 .579.813m0 0"/><path id="O" d="M3.016 3.063c.28 0 .5-.25.5-.61 0-.515-.391-.875-.844-1.031v-.016h.844L3.422.281h-.266c0 .547-.047.61-.437.61H.625C.265.89.265.78.265.28H0c.031.313.031.75.031.938 0 .468 0 .484-.031 1h.266v-.156c0-.579.078-.594.375-.594h1.172c.609 0 1.468.25 1.484 1.015-.031-.046-.094-.14-.281-.14-.25 0-.36.203-.36.36 0 .187.125.358.36.358m0 0"/><path id="P" d="M0 2.078h.266c0-.531.03-.562.343-.562h2.907L3.422.359h-.266c0 .516-.047.579-.437.579H.625c-.36 0-.36-.094-.36-.61H0c.031.313.031.766.031.89 0 .095 0 .579-.031.86m5.25.156c.172 0 .313-.171.313-.312 0-.031 0-.14-.125-.25L4.218.656l-.171.172.937 1.25c.063.078.125.156.266.156m0 0"/><path id="Q" d="M.031 1.719c.438 0 .86-.172.86-.547A.436.436 0 0 0 .453.734C.203.734 0 .906 0 1.172c0 .187.094.297.125.312-.25 0-.89 0-1.469-.593-.015-.032-.031-.047-.078-.047-.078 0-.125.062-.125.11 0 .093.625.765 1.578.765m0 0"/><path id="R" d="M0 4.484h.266c0-.546.046-.609.437-.609h2.813l-.094-1.219h-.266c0 .547-.047.61-.437.61h-1.39C.64 3.266.14 2.859.14 2.25c0-.687.343-.719.75-.719h2.625L3.422.328h-.266c0 .61-.015.61-.719.61H1.235c-.578 0-1.312 0-1.312 1.265 0 .75.578 1.047.64 1.078v.016h-.64Zm0 0"/><path id="S" d="M.719 4.094h.437v-.25H.72c-.328 0-.453-.11-.453-.281 0-.297.359-.297.453-.297h1.656c.781 0 1.172-.75 1.172-1.485 0-.656-.25-1.25-.781-1.25a.36.36 0 0 0-.375.375c0 .219.156.375.375.375a.356.356 0 0 0 .359-.297c.203.297.203.735.203.782 0 .453-.312.89-.969.89h-.234c-.031-.453-.047-.984-.281-1.547C1.53.406 1.078.266.813.266c-.688 0-.891.812-.891 1.359 0 .578.328.938.64 1.11-.296.046-.609.25-.609.609 0 .078.031.75.766.75m.406-1.438c-.781 0-.984-.64-.984-.969 0-.406.28-.765.672-.765.515 0 1.062.5 1.093 1.734Zm4.125.516c.172 0 .313-.172.313-.313 0-.03 0-.14-.125-.25l-1.22-1.015-.171.172.937 1.25c.063.078.125.156.266.156m0 0"/><path id="T" d="M1.719 4.422c1 0 1.797-.813 1.797-1.781 0-.313-.079-.766-.5-1.172h.5L3.422.28h-.266c0 .563-.047.61-.375.61H-.922c-.36 0-.36-.11-.36-.61h-.265c.031.344.031.688.031.907 0 .234 0 .562-.03.906h.265c0-.516 0-.61.36-.61H.39a1.37 1.37 0 0 0-.47 1.047c0 1 .782 1.89 1.798 1.89m0-.719C.812 3.703.14 3.125.14 2.484c0-.28.125-.64.515-.906.14-.094.156-.094.297-.094h1.703c.313.188.61.594.61 1.094 0 .61-.672 1.125-1.547 1.125m0 0"/><path id="U" d="M.438 1.625a.453.453 0 0 0 .453-.453.436.436 0 0 0-.438-.438.44.44 0 0 0-.453.438.45.45 0 0 0 .438.453m0 0"/><path id="V" d="M0 3.563h.266V3.28c0-.75.093-.781.39-.781h4.422c.219 0 .219-.016.219-.234-.313-.328-.5-.75-.5-1.5H4.53c0 .218 0 .64.203 1.109H.656c-.297 0-.39-.031-.39-.781V.812H0c.031.329.031 1.016.031 1.376s0 1.046-.031 1.374m0 0"/><path id="W" d="M1.625 3.875c1.031 0 1.766-.797 1.766-1.672 0-.578-.36-.922-.75-1.11.656 0 1.234.063 1.718.345.407.25.735.656.735 1.156 0 .156-.032.515-.297.703-.031-.36-.297-.39-.375-.39-.25 0-.375.187-.375.374 0 .14.078.375.39.375.47 0 .86-.36.86-1.078C5.297 1.468 4.25.344 2.53.344.36.344-.172 1.359-.172 2.125c0 .39.11.797.453 1.156.313.328.64.594 1.344.594m0-.75c-.406 0-.75 0-1.047-.156-.36-.219-.5-.485-.5-.844a.88.88 0 0 1 .516-.797c.36-.187.89-.203 1.203-.203.781 0 1.375.422 1.375 1.047 0 .39-.203.64-.485.781-.296.172-.656.172-1.062.172m0 0"/><path id="X" d="M1.313 3.984h.25v-.843h3.593c.157 0 .219 0 .219-.172 0-.094 0-.11-.11-.188L1.564.234h-.25v2.25H.64c-.297 0-.375-.015-.375-.64v-.172H0l.031 1.14L0 3.954h.266v-.172c0-.625.078-.64.375-.64h.672Zm.25-1.437V.516l2.953 2.03Zm0 0"/><path id="Y" d="M-1.828 2.672h.047l3.765-1.469 3.782 1.469h.046c.094 0 .157-.063.157-.156a.17.17 0 0 0-.094-.157L2.047.891C2.03.875 2.016.875 1.984.875c-.015 0-.03 0-.046.016l-3.829 1.468a.17.17 0 0 0-.093.157c0 .093.062.156.156.156m0 0"/><path id="Z" d="M1.14 4.547c.11 0 .11-.094.11-.125 0-.11-.031-.125-.25-.172C.61 4.156.14 4 .14 3.672c0-.219.173-.266.391-.266.14 0 .422.063.625.11l.719.187c.297.078.344.078.61.156.203.047.578.141.624.141.172 0 .25-.14.25-.266a.39.39 0 0 0-.312-.375.93.93 0 0 0 .469-.812C3.516 1.516 2.39.484 1.25.484.469.484-.078 1-.078 1.688c0 .437.25.812.562 1.14-.484.14-.562.61-.562.813 0 .28.172.484.422.625.312.187.765.28.797.28M2.595 3.25c-.031 0-.078-.016-.11-.016L1 2.86c-.234-.062-.39-.234-.531-.406C.39 2.375.14 2.063.14 1.72c0-.297.203-.594.78-.594.423 0 1.298.234 1.61.422.64.36.766.766.766 1 0 .547-.61.703-.703.703m0 0"/><path id="aa" d="M1.984 2.219h.063L5.875.734a.17.17 0 0 0 .094-.156.157.157 0 0 0-.157-.156c-.015 0-.03 0-.046.016L1.984 1.89-1.78.438c-.016-.016-.032-.016-.047-.016a.157.157 0 0 0-.156.156c0 .063.03.125.093.156L1.938 2.22zm0 0"/><path id="ab" d="M.828 3.938c.047 0 .125-.063.125-.126 0-.046-.015-.062-.078-.124C.141 3.062.141 2.125.141 1.984c0-.578.39-.828.89-.828.235 0 1.094.11 1.64.532.392.296.626.718.626 1.109 0 .11-.016.5-.25.687-.047-.28-.266-.406-.438-.406-.218 0-.296.172-.296.313 0 .172.124.453.515.453.531 0 .688-.61.688-1.047C3.516 1.609 2.422.5 1.313.5.625.5-.079.969-.079 1.969c0 1.344.781 1.969.906 1.969m0 0"/><path id="ac" d="M2.938 1.531a.42.42 0 0 0 .421-.422.42.42 0 0 0-.421-.421.42.42 0 0 0-.422.421.42.42 0 0 0 .422.422m-1.891 0a.42.42 0 0 0 .422-.422.42.42 0 0 0-.422-.421.42.42 0 0 0-.422.421.42.42 0 0 0 .422.422m0 0"/><path id="ad" d="M4 3.203q.094 0 .094-.094c0-.234-.032-.5-.032-.734 0-.25.032-.516.032-.75 0-.047 0-.14-.14-.14-.079 0-.079.077-.079.187 0 .203 0 .36-.094.36-.047 0-.094-.016-.14-.016L.453 1.219C.266 1.172.22 1.125.22.719c0-.125 0-.188-.14-.188 0 0-.079 0-.079.078 0 .25.031.516.031.75 0 .25-.031.516-.031.75 0 .032 0 .125.125.125.094 0 .094-.062.094-.171 0 0 0-.126.015-.22 0-.14.016-.14.078-.14.032 0 .047 0 .126.016l3.187.797c.188.046.25.062.25.5 0 .125 0 .187.125.187m0 0"/><path id="ae" d="M9.953 0v-.516h-.312c-.657 0-.703-.062-.813-.218L5.61-5.047l2.844-2.406c.156-.14.266-.234 1.328-.234v-.516L8.5-8.172c-.36 0-1.297 0-1.594-.031v.515c.266 0 .547.016.86.141l-4.47 3.813v-3.953h1.267v-.516c-.344.031-1.625.031-2.047.031-.438 0-1.72 0-2.063-.031v.515H1.72v7.172H.453V0c.344-.031 1.625-.031 2.063-.031.422 0 1.703 0 2.047.031v-.516H3.297v-2.562L4.53-4.125l2.5 3.344c.016.031.063.094.063.14 0 .125-.578.125-.844.125V0c.39-.031 1.5-.031 1.953-.031.36 0 1.485 0 1.75.031m0 0"/><path id="af" d="M2.875-.281c0-.766-.36-1.438-1.016-1.438-.53 0-.859.39-.859.86 0 .422.297.859.86.859.359 0 .562-.172.609-.234 0 .343-.063 1.328-1.047 2.172-.078.078-.11.093-.11.156 0 .11.141.219.22.219.155 0 1.343-1 1.343-2.594m0 0"/><path id="ag" d="M13.61-7.687v-.516l-1.297.031c-.344 0-1.22 0-1.5-.031v.515c.14 0 1.187 0 1.187.172 0 0 0 .032-.047.141L9.938-2.047l-2.126-5.64h1.125v-.516c-.374.031-1.484.031-1.937.031-.375 0-1.531 0-1.828-.031v.515h1.016l.484 1.297-1.64 4.344-2.126-5.64h1.125v-.516c-.343.031-1.515.031-1.953.031-.375 0-1.515 0-1.812-.031v.515h1L4.109-.171c.079.203.11.281.375.281.266 0 .297-.078.375-.28l2.079-5.5 2.093 5.5c.063.202.094.28.36.28.234 0 .297-.046.375-.28L12.5-7.407c.094-.203.11-.282 1.11-.282m0 0"/><path id="bf" d="M6.031-2.562h-.5c-.031.25-.11.953-.297 1.062-.093.094-1.03.094-1.203.094h-1.86l1.72-1.422c1.328-1 2.14-1.61 2.14-2.75 0-1.422-1.281-2.266-2.86-2.266-1.343 0-2.5.766-2.5 1.907 0 .625.517.812.782.812.375 0 .813-.25.813-.797 0-.516-.375-.766-.75-.812.484-.547 1.109-.594 1.359-.594 1.11 0 1.625.89 1.625 1.766 0 .921-.625 1.78-1.125 2.296L.781-.546c-.11.109-.11.124-.11.343V0h5.017Zm0 0"/><path id="bg" d="M6.188-3.812c0-1.141 0-4.032-2.829-4.032C.531-7.844.531-4.969.531-3.812c0 1.14 0 3.953 2.813 3.953 2.828 0 2.844-2.766 2.844-3.953M4.75-3.953c0 2.812-.187 2.984-.547 3.344a1.24 1.24 0 0 1-.844.359c-.39 0-.671-.156-.906-.406-.297-.297-.5-.485-.5-3.297 0-.844 0-1.61.11-2.234.156-1.172 1.015-1.266 1.28-1.266.391 0 1.126.187 1.298 1.187.109.61.109 1.579.109 2.313m0 0"/><path id="bh" d="M6.14-2.14c0-.579-.296-1.72-2.14-2.047 1.047-.313 1.766-1.063 1.766-2 0-.907-.86-1.657-2.516-1.657-1.344 0-2.312.703-2.312 1.672 0 .61.468.797.765.797.36 0 .766-.234.766-.781 0-.282-.11-.688-.672-.766.5-.484 1.312-.484 1.375-.484 1.078 0 1.078.812 1.078 1.172s-.047.922-.437 1.406c-.313.406-.626.422-1.079.453-.14.016-.375.031-.421.047-.079.031-.079.125-.079.172 0 .203.079.203.313.203h.578c1.328 0 1.328 1.234 1.328 1.812 0 .532 0 1.813-1.281 1.813-.25 0-1.047-.047-1.625-.453.516-.11.703-.469.703-.828 0-.5-.344-.844-.844-.844s-.843.344-.843.844C.563-.5 1.75.14 3.234.14c1.97 0 2.907-1.078 2.907-2.282m0 0"/><path id="ah" d="M6.89-2.781v-5.516H5.97v5.531c0 1.594-1 2.344-1.953 2.344-.938 0-1.907-.734-1.907-2.344v-5.53H1.08v5.515C1.078-1.031 2.452.25 4 .25c1.563 0 2.89-1.297 2.89-3.031m0 0"/><path id="aj" d="M3.797-4.625v-.797c-1.078 0-1.719.64-2.047 1.11V-5.36H.938V0h.875v-2.625c0-1.203.906-1.984 1.984-2m0 0"/><path id="ak" d="M1.813 0v-5.312H.938V0ZM3.39-8.297h-.907l-1.546 2h.718Zm0 0"/><path id="al" d="M2.11-.016v-.953h-.97V0h.298L1.14 1.5h.468Zm0 0"/><path id="am" d="M5.063 0v-5.312h-.907v3.421c0 .907-.625 1.36-1.406 1.36-.844 0-.922-.313-.922-.844v-3.937H.922v3.984c0 .86.265 1.453 1.25 1.453.344 0 1.281-.062 2.015-.719V0Zm0 0"/><path id="ap" d="M4.797 0v-3.5c0-1.156-.828-1.984-1.938-1.984-.718 0-1.25.172-1.843.5l.078.78c.515-.374 1.062-.593 1.765-.593.547 0 1.032.453 1.032 1.313v.5c-.547.015-1.266.062-1.985.297C1.11-2.422.641-1.97.641-1.375c0 .531.312 1.5 1.328 1.5.656 0 1.5-.203 1.937-.562V0ZM3.89-1.61c0 .25 0 .532-.407.766-.312.203-.718.25-.906.25-.64 0-1.078-.343-1.078-.797 0-.812 1.656-.984 2.39-.984Zm.562-6.687h-.922l-1.547 2h.72Zm0 0"/><path id="aq" d="M5.563-2.672c0-1.437-.75-2.75-1.875-2.75-.485 0-1.25.156-1.876.672v-.562H.939v7.625h.906V-.531c.406.36.906.656 1.547.656 1.156 0 2.172-1.172 2.172-2.797m-.907.016c0 1.203-.812 2.062-1.703 2.062-.328 0-.562-.125-.781-.297-.297-.25-.328-.468-.328-.656v-2.469a1.47 1.47 0 0 1 1.219-.671c.874 0 1.593.89 1.593 2.03m0 0"/><path id="ar" d="M4.797 0v-3.5c0-1.156-.828-1.984-1.938-1.984-.718 0-1.25.172-1.843.5l.078.78c.515-.374 1.062-.593 1.765-.593.547 0 1.032.453 1.032 1.313v.5c-.547.015-1.266.062-1.985.297C1.11-2.422.641-1.97.641-1.375c0 .531.312 1.5 1.328 1.5.656 0 1.5-.203 1.937-.562V0ZM3.89-1.61c0 .25 0 .532-.407.766-.312.203-.718.25-.906.25-.64 0-1.078-.343-1.078-.797 0-.812 1.656-.984 2.39-.984Zm0 0"/><path id="as" d="M8.328 0v-3.594c0-.828-.219-1.828-1.61-1.828-1.015 0-1.577.703-1.765.969-.203-.766-.86-.969-1.484-.969-.985 0-1.5.625-1.703.875v-.812H.922V0h.906v-2.969c0-.797.313-1.734 1.188-1.734 1.093 0 1.156.75 1.156 1.187V0h.906v-2.969c0-.797.313-1.734 1.188-1.734 1.093 0 1.156.75 1.156 1.187V0Zm0 0"/><path id="at" d="M1.813 0v-8.297H.938V0Zm0 0"/><path id="au" d="M2.11 0v-.969h-.97V0Zm0 0"/><path id="av" d="M7.75-4.078c0-2.328-1.578-4.219-3.594-4.219H1.094V0h3.062c2 0 3.594-1.812 3.594-4.078m-1-.016c0 2.188-1.328 3.422-2.86 3.422H2.095v-6.953H3.89c1.593 0 2.859 1.375 2.859 3.531m0 0"/><path id="aw" d="M4.703 0v-.734H2.984c-.14 0-.28.015-.421.015H1.547l3.11-4.125v-.468H.483v.703h2.953L.329-.484V0Zm0 0"/><path id="ax" d="M1.813 0v-5.312H.938V0Zm.078-6.797v-1.016H.859v1.016Zm0 0"/><path id="ay" d="M4.86-2.687c0-.516-.048-1.25-.423-1.876-.5-.828-1.328-.921-1.671-.921C1.469-5.484.39-4.25.39-2.687.39-1.11 1.547.124 2.92.124c.563 0 1.22-.156 1.876-.64 0-.047-.047-.438-.047-.438s-.031-.281-.031-.328c-.703.593-1.407.687-1.766.687-.922 0-1.703-.828-1.734-2.093Zm-.704-.641h-2.86c.204-.813.767-1.438 1.47-1.438.359 0 1.187.157 1.39 1.438m0 0"/><path id="aB" d="M5.063 0v-3.594c0-.734-.157-1.828-1.594-1.828-.672 0-1.25.297-1.703.875v-.812H.922V0h.906v-2.969c0-.75.281-1.734 1.188-1.734 1.109 0 1.14.766 1.14 1.187V0Zm0 0"/><path id="aF" d="M5.469 0 3.25-3.266l1.969-2.046h-1.11L1.813-2.906v-5.39H.938V0h.828v-1.719l.906-.953L4.5 0Zm0 0"/><path id="aH" d="M5.063 0v-8.297h-.891v3.485a2.65 2.65 0 0 0-1.688-.61c-1.14 0-2.062 1.219-2.062 2.766S1.297.125 2.437.125c.438 0 1.11-.156 1.704-.734V0ZM4.14-1.406c-.282.515-.703.812-1.22.812-.733 0-1.593-.562-1.593-2.047 0-1.593 1.016-2.062 1.703-2.062.469 0 .86.234 1.11.625Zm0 0"/><path id="aI" d="M4.203-1.516c0-.609-.36-1-.406-1.046-.453-.47-.813-.532-1.531-.672-.438-.094-1.047-.203-1.047-.813 0-.734.843-.734 1-.734.625 0 1.125.14 1.656.437l.14-.765a3.9 3.9 0 0 0-1.687-.375c-.265 0-1.937 0-1.937 1.547 0 .53.297.89.468 1.062.438.36.735.422 1.438.563.39.093 1.078.234 1.078.859 0 .828-.922.828-1.094.828A3.12 3.12 0 0 1 .47-1.219l-.14.813c.046.031.859.531 1.968.531 1.547 0 1.906-.937 1.906-1.64m0 0"/><path id="aJ" d="M4.86-2.687c0-.516-.048-1.25-.423-1.876-.5-.828-1.328-.921-1.671-.921C1.469-5.484.39-4.25.39-2.687.39-1.141 1.5.078 2.844.124c-.531.344-.875.828-.828 1.39 0 .516.375 1.016 1.172 1.016.39 0 .703-.062 1.171-.297l-.156-.703c-.266.11-.547.172-.812.172-.328-.031-.625-.094-.625-.453-.016-.531.5-.969 1.047-1.281.328-.094.64-.25.984-.485 0-.046-.047-.437-.047-.437s-.031-.281-.031-.328c-.703.593-1.407.687-1.766.687-.922 0-1.703-.828-1.734-2.093Zm-.704-.641h-2.86c.204-.813.767-1.438 1.47-1.438.359 0 1.187.157 1.39 1.438m0 0"/><path id="aK" d="M5.063 0v-3.594c0-.734-.157-1.828-1.594-1.828-.672 0-1.25.297-1.703.875v-.812H.922V0h.906v-2.969c0-.75.281-1.734 1.188-1.734 1.109 0 1.14.766 1.14 1.187V0ZM4.64-8.297h-.907l-1.562 2h.719Zm0 0"/><path id="aL" d="M4.531-1.766v-6.53h-1v6.483c0 .688-.344 1.329-1.39 1.329a1.96 1.96 0 0 1-1.485-.657L.484-.25c.704.36 1.375.5 2 .5 1.25 0 2.047-.734 2.047-2.016m0 0"/><path id="aM" d="M7.766-5.312H6.89l-.703 2.437c-.172.563-.516 1.688-.563 2.203-.047-.281-.234-1.078-.484-1.937l-.797-2.703H3.53L2.844-2.97c-.219.75-.5 1.781-.531 2.282h-.016c-.016-.235-.14-.86-.375-1.672l-.844-2.953H.172L1.766 0h.922c.453-1.5 1.156-3.781 1.218-4.61h.016c.015.485.265 1.344.344 1.626L5.109 0h1.063Zm0 0"/><path id="aN" d="m5.219 2.234-.157-.703c-.265.11-.546.172-.812.172-.328-.031-.61-.094-.625-.453C3.609.719 4.109.313 4.656 0h.14v-3.5c0-1.156-.827-1.984-1.937-1.984-.718 0-1.25.172-1.843.5l.078.78c.515-.374 1.062-.593 1.765-.593.547 0 1.032.453 1.032 1.313v.5c-.547.015-1.266.062-1.985.297C1.11-2.422.641-1.97.641-1.375c0 .531.312 1.5 1.328 1.5.656 0 1.5-.203 1.937-.562V0c-.594.328-1.078.906-1.031 1.516 0 .515.375 1.015 1.172 1.015.406 0 .703-.062 1.172-.297M3.89-1.609c0 .25 0 .53-.407.765-.312.203-.718.25-.906.25-.64 0-1.078-.343-1.078-.797 0-.812 1.656-.984 2.39-.984Zm0 0"/><path id="aO" d="M7-.453v-3.172H4.547v.719h1.531v2.031a4.6 4.6 0 0 1-1.531.25c-.766 0-1.469-.422-1.938-1.031-.546-.703-.796-1.594-.796-2.485 0-.906.25-1.796.796-2.5.47-.609 1.172-1.03 1.938-1.03.39 0 .797.046 1.172.187.375.14.718.375 1.015.64l.172-1c-.36-.187-.734-.36-1.14-.453a5.4 5.4 0 0 0-1.22-.125c-1.03 0-1.984.469-2.655 1.25C1.14-6.344.78-5.266.78-4.14c0 1.094.36 2.188 1.11 3.016.672.766 1.625 1.25 2.656 1.25C5.39.125 6.234-.078 7-.453m0 0"/><path id="aP" d="M5.484-2.625c0-1.625-1.187-2.86-2.562-2.86-1.406 0-2.563 1.266-2.563 2.86 0 1.563 1.188 2.75 2.563 2.75 1.406 0 2.562-1.219 2.562-2.75m-.906-.125c0 1.469-.844 2.125-1.656 2.125-.86 0-1.656-.719-1.656-2.125 0-1.453.89-2.016 1.656-2.016.812 0 1.656.625 1.656 2.016m0 0"/><path id="aQ" d="M4.86-6.562c0-.922-.563-1.86-2.25-1.86-.938 0-1.61.375-1.97.64l.266.735a2.5 2.5 0 0 1 1.719-.656c.64 0 1.328.156 1.328 1.125 0 .547-.25.766-.453.937C2.828-5.062 2.203-4 2.203-2.67v.608h.766v-.578c0-1.28.781-2.125 1.234-2.5.25-.203.656-.593.656-1.421M3.077 0v-.969H2.11V0Zm0 0"/><path id="aR" d="M6.469 0v-.812H4.906c-.156 0-.297.015-.437.015h-2.36v-3.14h3.86v-.72h-3.86V-7.53h1.625c.141 0 .282.015.422.015h2.157v-.75H1.077V0Zm0 0"/><path id="aS" d="M6.797-5.875c0-1.266-1.172-2.422-2.797-2.422H1.094V0h1.015v-3.453H4c1.656 0 2.797-1.188 2.797-2.422m-.953-.016c0 .938-.735 1.75-2.094 1.75H2.094v-3.484H3.75c1.406 0 2.094.828 2.094 1.734m0 0"/><path id="aT" d="M5.172-5.312h-.89c-.548 1.421-1.47 3.765-1.516 4.625H2.75c-.062-.72-.687-2.282-.797-2.532L1.11-5.312H.172L2.39 0l-.422 1.094c-.266.593-.438.656-.657.656-.171 0-.546-.047-.921-.187l.078.78c.062.016.469.095.844.095.296 0 .843 0 1.359-1.313Zm0 0"/><path id="aU" d="M2.14.703v-6.015h-.89v6.14c0 .781-.625.86-.875.86-.531 0-.86-.344-.875-.375l-.234.718c.375.235.859.406 1.406.406.75 0 1.469-.624 1.469-1.734m0-7.5v-1.016H1.11v1.016Zm0 0"/><path id="aV" d="M4.703 0v-.734H2.984c-.14 0-.28.015-.421.015H1.547l3.11-4.125v-.468H.483v.703h2.953L.329-.484V0Zm-.516-8.297h-.906l-1.562 2h.718Zm0 0"/><path id="aW" d="M4.86-.5c0-.031-.032-.406-.048-.453l-.015-.344a2.8 2.8 0 0 1-1.828.672c-1 0-1.64-.875-1.64-2.047 0-.984.484-2.078 1.671-2.078.797 0 1.14.203 1.656.547l.14-.781c-.702-.407-1.093-.5-1.796-.5-1.656 0-2.578 1.453-2.578 2.812C.422-1.14 1.516.125 2.953.125c.578 0 1.25-.156 1.906-.625m0 0"/><path id="aX" d="m3.89-.344-.171-.703c-.422.375-.86.422-1.078.422-.532 0-.594-.562-.594-.984v-3h1.64v-.703h-1.64v-1.516h-.828v1.516h-1v.703h.969v3.203c0 .703.156 1.531.984 1.531.797 0 1.36-.281 1.719-.469m0 0"/><path id="aY" d="M2.11 0v-.969h-.97V0Zm2.03 0v-.969h-.968V0Zm2.048 0v-.969h-.97V0Zm0 0"/><path id="aZ" d="M9.016 0v-8.297h-1.36L6.281-4.609c-.61 1.672-1.078 2.922-1.203 3.468h-.016c-.03-.203-.187-.64-.343-1.109-.219-.64-.219-.672-.407-1.156L2.5-8.296H1.14V0h.923v-7.375c.171.813 2.109 5.922 2.562 7.125H5.5c.39-1.031 2.36-6.234 2.578-7.14h.016V0Zm0 0"/><path id="ba" d="M7.11-2.25c0-1.047-1.032-1.89-2.266-2.094 1.39-.375 1.937-1.172 1.937-1.875 0-1.078-1.218-2.078-2.906-2.078H1.109V0h3.094C5.875 0 7.11-1.078 7.11-2.25M5.86-6.203c0 .844-1.032 1.531-2.298 1.531H2.079v-2.953h1.469c1.281 0 2.312.625 2.312 1.422m.312 3.937c0 .844-.969 1.594-2.313 1.594H2.08v-3.281h1.593c1.547 0 2.5.86 2.5 1.687m0 0"/><path id="bb" d="m5.672-4.703-.125-.719c-.234 0-1.047 0-1.828.39-.39-.327-.875-.39-1.11-.39-1.046 0-1.875.875-1.875 1.922 0 .422.125.828.391 1.188a1.64 1.64 0 0 0-.344 1.015c0 .453.156.75.297.906C.468 0 .328.516.328.844c0 .875 1.125 1.61 2.594 1.61 1.453 0 2.594-.704 2.594-1.61 0-1.688-1.938-1.688-2.422-1.688H2.078c-.172 0-.672 0-.672-.625 0-.265.047-.343.11-.437.203.14.593.343 1.078.343 1.031 0 1.875-.859 1.875-1.937a2.13 2.13 0 0 0-.36-1.156 7 7 0 0 1 .954-.063c.046 0 .312 0 .609.016M3.64-3.5c0 1.063-.672 1.281-1.032 1.281-.53 0-1.062-.36-1.062-1.265 0-1.063.672-1.282 1.047-1.282.531 0 1.047.36 1.047 1.266M4.688.844c0 .562-.829.953-1.766.953-.922 0-1.766-.375-1.766-.953 0-.047 0-.813.907-.813h1.046c.266 0 1.579 0 1.579.813m0 0"/><path id="bc" d="M4.203-1.516c0-.609-.36-1-.406-1.046-.453-.47-.813-.532-1.531-.672-.438-.094-1.047-.203-1.047-.813 0-.734.843-.734 1-.734.625 0 1.125.14 1.656.437l.14-.765a3.9 3.9 0 0 0-1.687-.375c-.265 0-1.937 0-1.937 1.547 0 .53.297.89.468 1.062.438.36.735.422 1.438.563.39.093 1.078.234 1.078.859 0 .828-.922.828-1.094.828A3.12 3.12 0 0 1 .47-1.219l-.14.813c.046.031.859.531 1.968.531 1.547 0 1.906-.937 1.906-1.64m-.312-6.78h-.922l-1.547 2h.719Zm0 0"/><path id="ai" d="M5.14-1.281c0-.063-.077-.157-.14-.157-.062 0-.094.032-.156.125C3.89-.125 2.594-.125 2.454-.125c-.938 0-1.048-1.016-1.048-1.39 0-.141.016-.516.203-1.25h.625c.344 0 1.235-.016 1.829-.266.843-.36.89-1.063.89-1.235 0-.53-.453-1.015-1.266-1.015-1.328 0-3.14 1.156-3.14 3.25C.547-.812 1.25.125 2.422.125 4.14.125 5.14-1.141 5.14-1.281m-.577-2.985c0 1.235-1.907 1.235-2.407 1.235h-.484c.469-1.813 1.703-1.985 2.016-1.985.562 0 .874.344.874.75m0 0"/><path id="an" d="M12.234-7.672c.047-.14.032-.578-.546-.578-.47 0-.782.188-1.22.5a5.3 5.3 0 0 0-1.14 1.219 9.4 9.4 0 0 0-.969 1.89H5.641l.797-3.093L7.094-8l.062-.203a38 38 0 0 0-1.39-.031c-.5 0-.922.062-1.438.172a3.2 3.2 0 0 0-1.219.609c-.484.36-.921.828-1.062 1.375-.047.187-.078.36-.094.562 0 .11 0 .235.078.313.047.078.125.156.25.156.156 0 .297-.11.438-.219a.49.49 0 0 0 .172-.328l.015-.484c.016-.14.016-.297.063-.453.078-.313.36-.563.61-.782.265-.203.562-.296.858-.359a5.5 5.5 0 0 1 1.235-.125l-.844 3.36c-.187.765-.422 1.546-.781 2.296-.203.47-.516.954-.938 1.297-.328.266-.75.407-1 .407-.203 0-.406-.016-.515-.172A1 1 0 0 1 1.5-.906a.75.75 0 0 0-.094-.281c-.062-.079-.218-.079-.343-.079a.57.57 0 0 0-.375.125.5.5 0 0 0-.188.297c-.062.25 0 .469.14.625.188.25.5.297.844.297.75 0 1.454-.36 2.11-.89.484-.375.89-.86 1.156-1.391.313-.625.578-1.313.781-1.985h2.672c-.172.5-.36 1.11-.453 1.47-.125.546-.25 1.077-.266 1.609 0 .359.094.703.266.968.156.172.39.235.656.235.422 0 .766-.172 1.125-.453.203-.172.406-.375.703-.672l-.187-.203a8 8 0 0 1-.656.593c-.141.141-.422.282-.563.282-.156 0-.25-.032-.328-.141-.156-.234-.172-.562-.172-.89a7.3 7.3 0 0 1 .297-1.594c.234-.985.484-1.97.89-2.922.126-.328.282-.594.5-.922.188-.266.376-.422.579-.578a.8.8 0 0 1 .5-.188c.172 0 .234.094.328.203a.3.3 0 0 0 .265.157.576.576 0 0 0 .547-.438m0 0"/><path id="ao" d="M4.344-5.125H2.25c-.312 0-.406-.016-.687-.031-.422-.047-.438-.094-.454-.235H.844L.563-3.687h.265c.016-.11.094-.641.219-.72.062-.046.719-.046.828-.046h1.75l-.844 1.047C1.75-2.031 1.656-.766 1.656-.296c0 .093 0 .452.375.452s.375-.36.375-.453v-.328c0-1.547.313-2.25.656-2.687l1.204-1.5c.078-.094.078-.11.078-.313m0 0"/><path id="bi" d="M4.563 0v-.437H3.266v-5.157c0-.187 0-.297-.266-.297-.11 0-.125 0-.203.063-.688.516-1.656.516-1.828.516H.797v.437h.172a4.2 4.2 0 0 0 1.203-.172v4.61H.89V0c.343-.031 1.422-.031 1.828-.031.422 0 1.484 0 1.844.031m0 0"/><path id="bj" d="M4.86-2.953c0-.469-.032-1.39-.485-2.094-.297-.437-.828-.844-1.719-.844-1.281 0-2.218.72-2.218 1.938 0 1.125.765 1.937 2.093 1.937.406 0 .781-.203 1.063-.687v.172c0 .578-.063 1.156-.235 1.531-.109.234-.468.703-1.171.703-.079 0-.454 0-.735-.187a.55.55 0 0 0 .422-.563c0-.375-.281-.578-.578-.578-.25 0-.594.14-.594.594 0 .61.469 1.14 1.5 1.14 1.25 0 2.656-.796 2.656-3.062m-1.266-.89c0 .406-.172 1.452-1.031 1.452-.86 0-.86-.656-.86-1.53 0-.876 0-1.61.984-1.61.563 0 .766.515.797.593.11.297.11.782.11 1.094m0 0"/><path id="bk" d="M4.766-2.016h-.453c-.016.125-.094.766-.235.829-.11.046-.781.046-.937.046H1.859c.485-.39 1.016-.812 1.47-1.125.75-.53 1.437-1.015 1.437-1.89 0-1.047-.953-1.735-2.25-1.735-1.11 0-1.985.532-1.985 1.36 0 .468.36.687.672.687a.65.65 0 0 0 .656-.672c0-.203-.078-.53-.468-.64.312-.25.718-.282.89-.282.735 0 1.203.547 1.203 1.282 0 .656-.375 1.234-.859 1.718l-2 1.985c-.094.094-.094.11-.094.281V0H4.5Zm0 0"/><path id="bl" d="M3.297 0v-.25H3.03c-.703 0-.703-.094-.703-.328v-3.86c0-.187 0-.187-.203-.187-.453.438-1.078.438-1.36.438v.25c.157 0 .626 0 1-.188v3.547c0 .234 0 .328-.687.328H.812V0l1.235-.031Zm0 0"/><path id="bm" d="M3.516-1.406c0-.782-.594-1.5-1.453-1.5-.313 0-.672.062-.985.328v-1.313c.36.094.563.094.672.094.922 0 1.469-.625 1.469-.734 0-.078-.047-.094-.078-.094 0 0-.032 0-.063.016-.172.062-.531.203-1.047.203-.203 0-.562-.016-1.015-.188-.079-.031-.094-.031-.094-.031-.094 0-.094.078-.094.188v2.046c0 .125 0 .204.11.204.062 0 .078 0 .14-.094.297-.375.734-.438.969-.438.422 0 .61.328.64.39.126.235.172.5.172.907 0 .203 0 .61-.218.922a.98.98 0 0 1-.813.422c-.453 0-.922-.25-1.094-.719.266.016.407-.156.407-.344 0-.296-.266-.343-.36-.343 0 0-.343 0-.343.375 0 .625.578 1.25 1.406 1.25.89 0 1.672-.657 1.672-1.547m0 0"/><path id="bn" d="M3.578-2.297c0-1.719-.765-2.328-1.578-2.328a1.55 1.55 0 0 0-1.11.422c-.234.234-.515.5-.515 1.125 0 .89.703 1.547 1.516 1.547.562 0 .859-.375 1.015-.688v.14c0 1.735-.844 2-1.265 2-.157 0-.532-.015-.72-.233a.315.315 0 0 0 .313-.329.32.32 0 0 0-.328-.328c-.203 0-.328.14-.328.344 0 .469.39.766 1.063.766 1 0 1.937-.938 1.937-2.438M2.891-3c0 .906-.516 1.266-.953 1.266-.282 0-.532-.079-.735-.407-.156-.25-.156-.546-.156-.937 0-.406 0-.672.203-.953.172-.25.39-.39.75-.39s.578.218.688.405c.187.282.203.782.203 1.016m0 0"/><path id="bo" d="M2.016 1.734v-.328h-.72V-4.89h.72v-.328H.953v6.953Zm0 0"/><path id="bp" d="M3.797-4.484H1.969c-.282 0-.36-.016-.61-.032C1-4.546.984-4.594.97-4.703H.734L.484-3.22H.72c.015-.11.094-.562.203-.64.047-.032.625-.032.719-.032h1.515l-.719.922c-.906 1.188-1 2.297-1 2.703 0 .079 0 .407.329.407.343 0 .343-.313.343-.407v-.28c0-1.345.282-1.97.579-2.345l1.046-1.312c.063-.094.063-.11.063-.281m0 0"/><path id="bq" d="M3.578-1.203c0-.547-.437-1.094-1.203-1.25.719-.266.984-.781.984-1.219 0-.547-.625-.953-1.406-.953-.766 0-1.36.375-1.36.938 0 .234.157.359.36.359.219 0 .36-.156.36-.344 0-.203-.141-.36-.36-.375.25-.297.719-.375.985-.375.312 0 .75.156.75.75 0 .297-.094.625-.282.828-.219.266-.422.281-.765.313-.172.015-.188.015-.22.015 0 0-.077.016-.077.094 0 .094.062.094.187.094h.375c.547 0 .938.375.938 1.125 0 .86-.516 1.125-.906 1.125-.282 0-.907-.078-1.188-.5.328 0 .406-.235.406-.39 0-.22-.172-.376-.39-.376a.38.38 0 0 0-.391.407C.375-.281 1.094.14 1.938.14c.968 0 1.64-.657 1.64-1.344m0 0"/><path id="br" d="M1.531-.39a.403.403 0 0 0-.406-.407.4.4 0 0 0-.406.39c0 .25.203.407.406.407a.4.4 0 0 0 .406-.39m0 0"/><path id="bs" d="M1.297 1.734v-6.953H.219v.328h.734v6.297H.22v.328Zm0 0"/><path id="bt" d="M7.813-1.75v-.203H.109v.203Zm0 0"/><path id="bu" d="M3.516-1.266H3.28c-.015.157-.094.563-.187.625-.047.047-.578.047-.688.047H1.125c.734-.64.984-.843 1.39-1.172.516-.406 1-.843 1-1.5 0-.843-.734-1.359-1.624-1.359-.86 0-1.453.61-1.453 1.25 0 .344.296.39.375.39.156 0 .359-.124.359-.374 0-.125-.047-.375-.406-.375.218-.485.687-.641 1.015-.641.703 0 1.063.547 1.063 1.11 0 .609-.438 1.078-.656 1.328L.516-.266C.437-.203.437-.187.437 0h2.876Zm0 0"/><path id="bv" d="M2.516 0v-.25h-.172c-.578 0-.578-.078-.578-.328v-3.61c0-.234 0-.328.578-.328h.172v-.25l-1.078.032-1.079-.032v.25h.172c.578 0 .578.094.578.329v3.609c0 .25 0 .328-.578.328H.36V0l1.079-.031Zm0 0"/><path id="bw" d="M3.594-2.219c0-.765-.094-1.328-.406-1.812-.22-.313-.657-.594-1.204-.594C.36-4.625.36-2.719.36-2.219s0 2.36 1.625 2.36c1.61 0 1.61-1.86 1.61-2.36m-.625-.094c0 .516 0 1.032-.094 1.47-.14.64-.61.78-.89.78-.329 0-.75-.187-.891-.75C1-1.219 1-1.796 1-2.312c0-.515 0-1.046.094-1.421.156-.547.593-.703.89-.703.375 0 .735.234.86.64.11.375.125.875.125 1.485m0 0"/><path id="bx" d="M3.578-1.422c0-.89-.703-1.547-1.515-1.547-.563 0-.86.375-1.016.688 0-.563.047-1.078.312-1.516.235-.375.61-.625 1.063-.625.203 0 .484.047.625.234-.172.016-.328.141-.328.344a.32.32 0 0 0 .328.328c.219 0 .344-.14.344-.343 0-.407-.297-.766-.985-.766-1 0-2.031.922-2.031 2.422C.375-.406 1.219.14 2 .14c.844 0 1.578-.657 1.578-1.563m-.672 0c0 .39 0 .688-.187.969A.82.82 0 0 1 2-.078c-.36 0-.625-.203-.781-.516-.094-.203-.157-.562-.157-.968 0-.688.407-1.204.97-1.204.312 0 .53.125.702.375.172.266.172.563.172.97m0 0"/><path id="by" d="M5.547 0v-.25h-.125c-.469 0-.516-.078-.594-.266L3.125-4.812c-.031-.11-.062-.157-.187-.157-.141 0-.157.047-.204.157L1.125-.734C1.063-.562.938-.25.313-.25V0c.234-.016.484-.031.718-.031.282 0 .797.031.844.031v-.25c-.312 0-.516-.14-.516-.328 0-.063.016-.078.047-.14l.328-.86H3.72l.406 1.016c0 .03.031.078.031.109 0 .203-.375.203-.562.203V0l1.031-.031c.328 0 .86.031.922.031M3.609-1.828H1.83l.89-2.266Zm0 0"/><path id="bz" d="M4.047 0v-.25c-.469 0-.516-.047-.516-.39v-4.204l-1.047.078v.25c.47 0 .516.063.516.391v1.453a1.37 1.37 0 0 0-.969-.406c-.937 0-1.703.703-1.703 1.578S1.062.063 1.938.063c.578 0 .921-.297 1.03-.422v.422ZM2.969-.734c-.172.328-.531.609-.985.609-.39 0-.671-.234-.812-.437-.14-.204-.219-.485-.219-.922 0-.172 0-.688.281-1.016.282-.312.625-.375.829-.375.328 0 .64.156.828.406.078.11.078.11.078.25Zm0 0"/><path id="bA" d="M5.469-2.75V-3c-.188.016-.313.031-.5.031-.219 0-.485-.015-.688-.031v.25c.235 0 .36.14.36.297 0 .062 0 .078-.047.172L3.922-.547l-.75-1.906a.3.3 0 0 1-.031-.125c0-.156.172-.172.375-.172V-3c-.25.016-.5.031-.75.031-.203 0-.422-.015-.625-.031v.25c.172 0 .312 0 .406.047.094.078.156.312.156.312s-.015.063-.031.079L2.016-.641l-.703-1.812c-.032-.094-.032-.094-.032-.125 0-.172.25-.172.375-.172V-3s-.515.031-.797.031C.641-2.969.422-2.984.203-3v.25c.281 0 .438 0 .5.203l.969 2.453c.047.11.062.157.203.157.125 0 .14-.047.172-.141l.797-1.984.765 1.968c.047.094.063.157.204.157.124 0 .14-.047.187-.157l.875-2.234c.14-.344.375-.422.594-.422m0 0"/><path id="bB" d="M3.266-.844c0-.015-.016-.094-.125-.094-.094 0-.11.047-.125.11-.22.562-.75.672-1 .672-.328 0-.641-.14-.844-.406-.266-.329-.266-.75-.266-1.032h2.157c.156 0 .203 0 .203-.14 0-.625-.344-1.375-1.391-1.375a1.59 1.59 0 0 0-1.61 1.578c0 .89.782 1.594 1.704 1.594.937 0 1.297-.75 1.297-.907m-.485-.922H.906c.078-.984.703-1.14.969-1.14.86 0 .89.969.906 1.14m0 0"/><path id="bC" d="M4.11 0v-.25c-.454 0-.516 0-.516-.297v-1.562c0-.61-.297-.97-1.047-.97-.578 0-.938.313-1.14.688v-.687L.374-3v.25c.469 0 .531.047.531.39v1.813c0 .297-.078.297-.531.297V0s.5-.031.797-.031c.25 0 .734.031.797.031v-.25c-.453 0-.516 0-.516-.297v-1.265c0-.72.578-1.063 1.031-1.063.485 0 .547.375.547.734v1.594c0 .297-.062.297-.515.297V0s.5-.031.797-.031c.25 0 .734.031.796.031m0 0"/><path id="bD" d="M2.61-.875v-.39h-.235v.374c0 .485-.219.735-.5.735-.469 0-.469-.578-.469-.703V-2.75h1.078V-3H1.406v-1.281h-.25c0 .625-.281 1.312-.953 1.328v.203h.64v1.875c0 .781.595.938.985.938.469 0 .781-.391.781-.938m0 0"/><clipPath id="b"><path d="M.535.266h6.883v9.636H.535Zm0 0"/></clipPath><clipPath id="a"><path d="M0 0h8v10H0z"/></clipPath><clipPath id="w"><path d="M375.207 26.766h13.945v9.636h-13.945Zm0 0"/></clipPath><clipPath id="bd"><path d="M15.023 568.348H403v11.336H15.023Zm0 0"/></clipPath><linearGradient id="be" x1="0" x2="388.063" y1="0" y2="0" gradientTransform="matrix(1 0 0 -1 15.024 579.685)" gradientUnits="userSpaceOnUse"><stop offset="0" stop-color="#f2f2f2"/><stop offset=".25" stop-color="#f2f2f2"/><stop offset=".313" stop-color="#f2f2f2"/><stop offset=".344" stop-color="#f2f2f2"/><stop offset=".359" stop-color="#f3f3f3"/><stop offset=".363" stop-color="#f4f4f4"/><stop offset=".367" stop-color="#f5f5f5"/><stop offset=".371" stop-color="#f6f6f6"/><stop offset=".375" stop-color="#f7f7f7"/><stop offset=".379" stop-color="#f8f8f8"/><stop offset=".383" stop-color="#f9f9f9"/><stop offset=".387" stop-color="#fafafa"/><stop offset=".391" stop-color="#fbfbfb"/><stop offset=".395" stop-color="#fcfcfc"/><stop offset=".398" stop-color="#fcfcfc"/><stop offset=".406" stop-color="#fcfcfc"/><stop offset=".438" stop-color="#fcfcfc"/><stop offset=".5" stop-color="#fcfcfc"/><stop offset=".563" stop-color="#fcfcfc"/><stop offset=".566" stop-color="#fcfcfc"/><stop offset=".57" stop-color="#fbfbfb"/><stop offset=".574" stop-color="#fafafa"/><stop offset=".578" stop-color="#f9f9f9"/><stop offset=".582" stop-color="#f8f8f8"/><stop offset=".586" stop-color="#f7f7f7"/><stop offset=".59" stop-color="#f6f6f6"/><stop offset=".594" stop-color="#f5f5f5"/><stop offset=".598" stop-color="#f4f4f4"/><stop offset=".602" stop-color="#f3f3f3"/><stop offset=".609" stop-color="#f3f3f3"/><stop offset=".625" stop-color="#f2f2f2"/><stop offset=".75" stop-color="#f2f2f2"/><stop offset="1" stop-color="#f2f2f2"/></linearGradient><g id="c" clip-path="url(#a)"><g clip-path="url(#b)"><path fill-rule="evenodd" d="m3.977 7.836 3.441 2.066V1.645c0-.762-.617-1.38-1.375-1.38H1.914C1.152.266.535.884.535 1.646v8.257Zm-2.754.851 2.754-1.652L6.73 8.687V1.646a.69.69 0 0 0-.687-.692H1.914a.69.69 0 0 0-.691.692Zm0 0"/></g></g></defs><use xlink:href="#c" transform="translate(9 27)"/><use xlink:href="#d" x="17.008" y="23.315"/><use xlink:href="#e" x="20.884" y="23.315"/><use xlink:href="#f" x="25.526" y="23.315"/><use xlink:href="#g" x="384.039" y="23.315"/><use xlink:href="#h" x="390.168" y="23.315"/><use xlink:href="#i" x="392.79" y="23.315"/><use xlink:href="#j" x="396.727" y="23.315"/><use xlink:href="#k" x="146.471" y="34.908"/><use xlink:href="#l" x="155.605" y="34.908"/><use xlink:href="#m" x="160.052" y="34.908"/><use xlink:href="#n" x="163.112" y="34.908"/><use xlink:href="#o" x="171.158" y="34.908"/><use xlink:href="#l" x="177.865" y="34.908"/><use xlink:href="#m" x="182.312" y="34.908"/><use xlink:href="#n" x="185.373" y="34.908"/><use xlink:href="#o" x="193.418" y="34.908"/><use xlink:href="#l" x="200.125" y="34.908"/><use xlink:href="#m" x="204.572" y="34.908"/><use xlink:href="#n" x="207.633" y="34.908"/><use xlink:href="#o" x="215.678" y="34.908"/><use xlink:href="#l" x="222.385" y="34.908"/><use xlink:href="#p" x="226.832" y="34.908"/><use xlink:href="#q" x="242.077" y="34.908"/><use xlink:href="#r" x="248.228" y="34.908"/><use xlink:href="#s" x="252.836" y="34.908"/><use xlink:href="#t" x="255.033" y="34.908"/><use xlink:href="#u" x="259.13" y="34.908"/><use xlink:href="#v" x="263.891" y="34.908"/><g clip-path="url(#w)"><path d="M384.477 28.977c-.25.289-.457.57-.97.777-.124.05-.19.105-.152.273.52 2.235.5 2.657.688 3.118.031.07-.027.085-.07.113a1.6 1.6 0 0 1-.54.176c-.081.011-.105.027-.105.109v2.273c0 .153.11.207.227.23.086.02.156.067.238.087.078.023.098.105.086.183-.024.133-.098.063-.887.082-.11.004-.14-.054-.144-.14-.02-.488-.086-.973-.11-1.461-.023-.383-.113-.766-.16-1.152-.02-.172-.144-.075-.285-.106-.121-.027-.156.063-.164.14-.027.446-.137.88-.149 1.329-.007.414-.062.824-.097 1.238-.008.082-.055.121-.149.121-.785-.023-.863.047-.882-.086-.028-.191.156-.203.218-.23.332-.137.332-.14.332-.496v-1.996c0-.274-.136-.055-.636-.329-.075-.042-.098-.078-.07-.171.238-.875.464-1.754.699-2.63.035-.128.011-.202-.118-.261-1.226-.55-1.46-.895-1.754-1.05-.09.136-.12.292-.187.433-.484.972-.793.965-.793 1.238q.006 2.337 0 4.68c0 .226.172.32.305.441.066.063.168.102.14.211-.031.125-.144.106-.238.106-.121-.004-.246.015-.363-.012-.188-.043-.422-.36-.426-.563-.008-.52-.14-1.027-.172-1.547a6 6 0 0 0-.117-.89c-.113.105-.106.234-.133.347-.621 2.446-.527 2.274-.777 2.57-.102.122-.18.09-.59.095-.059 0-.121.003-.133-.07-.05-.313.246.011.484-.79.114-.379.168-.765.22-1.156.195-1.465.237-1.809.222-3.223 0-.11-.027-.183-.106-.254-.64-.59-1.363-1.39-1.636-2.218a.23.23 0 0 1 .03-.227c.06-.082.11-.129.204-.004 1.203 1.66 1.445 1.758 1.695 1.746.043-.004.114.032.118-.054.003-.067.02-.13-.067-.172-.27-.14-.469-.36-.527-.664-.117-.602.105-1.106.832-1.137.164-.008.32-.012.484.058.301.125.485.329.516.645.047.488-.059.832-.528 1.117-.078.047-.097.098-.09.18.016.105.098.055.15.058a.44.44 0 0 0 .26-.042c.481-.258.774-.668.985-1.153.035-.082-.031-.101-.062-.137-.176-.171-.356-.335-.418-.585-.082-.32.097-.45.285-.27.668.648.48.633 1.87 1.316.177.09.08.028.849.051.078.004.12-.027.136-.094.016-.066.028-.136-.05-.18-.54-.316-.739-.859-.567-1.468.09-.332.277-.555.59-.664 1.105-.39 1.652.941 1.238 1.71-.074.138-.199.24-.32.333-.078.058-.059.117-.055.176.008.078.082.043.125.047.48.039.86-.141 1.203-.473.457-.442 1.043-1.145 1.079-.606.015.262-.153.422-.336.555-.125.094-.16.145-.09.309.25.574.61 1.058 1.078 1.468.125.11.258.204.433.192.047-.004.118.027.118-.059-.004-.054.03-.12-.055-.16-.316-.137-.441-.414-.52-.723-.097-.378.23-.894.575-1.02a.81.81 0 0 1 1 .423q.337.666-.204 1.21c-.074.079-.19.13-.18.274.009.063.02.086.09.09.184.012.325-.066.458-.184 1.14-.992.984-1.695 1.367-1.812.066-.02.148-.082.2.004.093.148-.048.336-.09.363-.188.125-.22.332-.298.512-.242.562-.48 1.133-.964 1.531-.243.2-.23.402-.16.637.167.57.23 1.168.43 1.73.03.094-.009.164-.118.18-.145.02-.29.055-.434.062-.086.008-.097.043-.097.118-.004.593.16 1.59.132 1.882-.03.375.465.317.375.59a.124.124 0 0 1-.14.098c-.13-.012-.262.023-.39-.027-.395-.149-.27-.493-.458-1.914-.023-.204-.023-.41-.039-.614 0-.035.016-.086-.047-.09-.062-.003-.05.047-.054.086-.036.41-.051.825-.11 1.235-.078.59.016 1.289-.562 1.293-.067 0-.137-.004-.203 0-.082.004-.133-.04-.153-.11-.031-.12.04-.18.149-.234.343-.172.203-.508.332-2.113.011-.149-.028-.203-.192-.2-.183.004-.37-.035-.554-.066-.118-.02-.094-.117-.07-.191.167-.5.241-1.024.366-1.532.032-.12.192-.632.047-.714-.425-.247-.644-.665-.875-1.075-.183-.324-.3-.675-.468-1.05m0 0"/></g><use xlink:href="#x" x="392.766" y="35.506" fill="red"/><use xlink:href="#y" x="395.235" y="34.908" fill="red"/><path fill="none" stroke="#000" stroke-miterlimit="10" stroke-width=".398" d="M17.008 39.293h384.094"/><use xlink:href="#z" x="399.042" y="123.679"/><use xlink:href="#A" x="399.042" y="117.335"/><use xlink:href="#B" x="399.042" y="114.035"/><use xlink:href="#C" x="399.042" y="111.684"/><use xlink:href="#D" x="399.042" y="106.52"/><use xlink:href="#A" x="399.042" y="101.817"/><use xlink:href="#B" x="399.042" y="98.518"/><use xlink:href="#C" x="399.042" y="96.167"/><use xlink:href="#D" x="399.042" y="90.994"/><use xlink:href="#A" x="399.042" y="86.292"/><use xlink:href="#E" x="399.042" y="82.992"/><use xlink:href="#F" x="399.042" y="75.939"/><use xlink:href="#G" x="399.042" y="71.236"/><use xlink:href="#H" x="399.042" y="68.885"/><use xlink:href="#I" x="399.042" y="64.653"/><use xlink:href="#J" x="399.042" y="60.421"/><use xlink:href="#C" x="399.042" y="56.189"/><use xlink:href="#K" x="399.042" y="51.008"/><use xlink:href="#L" x="399.042" y="47.908"/><use xlink:href="#M" x="399.042" y="43.588"/><use xlink:href="#N" x="403.164" y="40.487"/><use xlink:href="#O" x="403.164" y="46.831"/><use xlink:href="#P" x="403.164" y="50.131"/><use xlink:href="#Q" x="403.164" y="52.482"/><use xlink:href="#R" x="403.164" y="57.646"/><use xlink:href="#O" x="403.164" y="62.349"/><use xlink:href="#P" x="403.164" y="65.648"/><use xlink:href="#Q" x="403.164" y="67.999"/><use xlink:href="#R" x="403.164" y="73.172"/><use xlink:href="#O" x="403.164" y="77.874"/><use xlink:href="#P" x="403.164" y="81.174"/><use xlink:href="#Q" x="403.164" y="83.525"/><use xlink:href="#R" x="403.164" y="88.698"/><use xlink:href="#O" x="403.164" y="93.4"/><use xlink:href="#S" x="403.164" y="96.699"/><use xlink:href="#T" x="403.164" y="103.753"/><use xlink:href="#U" x="403.164" y="108.455"/><use xlink:href="#V" x="403.164" y="110.806"/><use xlink:href="#W" x="403.164" y="115.038"/><use xlink:href="#X" x="403.164" y="119.27"/><use xlink:href="#Q" x="403.164" y="123.503"/><use xlink:href="#Y" x="403.164" y="128.684"/><use xlink:href="#Z" x="403.164" y="131.784"/><use xlink:href="#aa" x="403.164" y="136.726"/><use xlink:href="#Q" x="403.164" y="139.826"/><use xlink:href="#ab" x="403.164" y="144.999"/><use xlink:href="#ac" x="403.164" y="149.956"/><use xlink:href="#Z" x="403.164" y="154.826"/><use xlink:href="#ad" x="401.195" y="159.771"/><use xlink:href="#ad" x="401.195" y="162.491"/><use xlink:href="#ad" x="401.195" y="165.211"/><use xlink:href="#ae" x="118.871" y="61.174"/><use xlink:href="#af" x="128.447" y="61.174"/><use xlink:href="#ag" x="128.841" y="61.174"/><use xlink:href="#ah" x="148.712" y="61.174"/><use xlink:href="#ai" x="156.686" y="51.089" fill="red"/><use xlink:href="#aj" x="156.686" y="61.174"/><use xlink:href="#ak" x="160.667" y="61.174"/><use xlink:href="#al" x="163.417" y="61.174"/><use xlink:href="#am" x="170.566" y="61.174"/><use xlink:href="#aj" x="176.567" y="61.174"/><use xlink:href="#ak" x="180.548" y="61.174"/><use xlink:href="#al" x="183.298" y="61.174"/><use xlink:href="#am" x="190.447" y="61.174"/><use xlink:href="#aj" x="196.448" y="61.174"/><use xlink:href="#ak" x="200.429" y="61.174"/><use xlink:href="#al" x="203.179" y="61.174"/><use xlink:href="#am" x="210.328" y="61.174"/><use xlink:href="#an" x="216.33" y="51.089" fill="red"/><use xlink:href="#ao" x="229.062" y="46.749" fill="red"/><use xlink:href="#aj" x="216.33" y="61.174"/><use xlink:href="#ap" x="220.311" y="61.174"/><use xlink:href="#al" x="225.918" y="61.174"/><use xlink:href="#am" x="148.712" y="82.818"/><use xlink:href="#aj" x="154.713" y="82.818"/><use xlink:href="#ak" x="158.694" y="82.818"/><use xlink:href="#al" x="161.444" y="82.818"/><use xlink:href="#am" x="168.593" y="82.818"/><use xlink:href="#aj" x="174.595" y="82.818"/><use xlink:href="#ak" x="178.576" y="82.818"/><use xlink:href="#al" x="181.325" y="82.818"/><use xlink:href="#am" x="188.474" y="82.818"/><use xlink:href="#aj" x="194.476" y="82.818"/><use xlink:href="#ak" x="198.457" y="82.818"/><use xlink:href="#al" x="201.206" y="82.818"/><use xlink:href="#am" x="208.356" y="82.818"/><use xlink:href="#ai" x="214.357" y="72.733" fill="red"/><use xlink:href="#aj" x="214.357" y="82.818"/><use xlink:href="#ap" x="218.338" y="82.818"/><use xlink:href="#al" x="223.945" y="82.818"/><use xlink:href="#ag" x="128.842" y="104.462"/><use xlink:href="#am" x="148.712" y="104.462"/><use xlink:href="#aj" x="154.713" y="104.462"/><use xlink:href="#ak" x="158.694" y="104.462"/><use xlink:href="#al" x="161.444" y="104.462"/><use xlink:href="#am" x="168.593" y="104.462"/><use xlink:href="#aj" x="174.595" y="104.462"/><use xlink:href="#ak" x="178.576" y="104.462"/><use xlink:href="#al" x="181.325" y="104.462"/><use xlink:href="#am" x="188.474" y="104.462"/><use xlink:href="#aj" x="194.476" y="104.462"/><use xlink:href="#ak" x="198.457" y="104.462"/><use xlink:href="#al" x="201.206" y="104.462"/><use xlink:href="#am" x="208.356" y="104.462"/><use xlink:href="#an" x="214.357" y="94.376" fill="red"/><use xlink:href="#ao" x="227.09" y="90.037" fill="red"/><use xlink:href="#aj" x="214.357" y="104.462"/><use xlink:href="#ap" x="218.338" y="104.462"/><use xlink:href="#al" x="223.945" y="104.462"/><use xlink:href="#aq" x="148.712" y="126.105"/><use xlink:href="#ar" x="154.713" y="126.105"/><use xlink:href="#as" x="160.32" y="126.105"/><use xlink:href="#aq" x="173.471" y="126.105"/><use xlink:href="#ar" x="179.472" y="126.105"/><use xlink:href="#as" x="185.079" y="126.105"/><use xlink:href="#al" x="194.332" y="126.105"/><use xlink:href="#aq" x="201.481" y="126.105"/><use xlink:href="#ar" x="207.483" y="126.105"/><use xlink:href="#as" x="213.09" y="126.105"/><use xlink:href="#aq" x="226.24" y="126.105"/><use xlink:href="#ar" x="232.242" y="126.105"/><use xlink:href="#as" x="237.849" y="126.105"/><use xlink:href="#al" x="247.102" y="126.105"/><use xlink:href="#aq" x="160.667" y="147.749"/><use xlink:href="#ar" x="166.668" y="147.749"/><use xlink:href="#as" x="172.275" y="147.749"/><use xlink:href="#aq" x="185.426" y="147.749"/><use xlink:href="#ar" x="191.427" y="147.749"/><use xlink:href="#aj" x="196.711" y="147.749"/><use xlink:href="#ar" x="200.692" y="147.749"/><use xlink:href="#aq" x="206.299" y="147.749"/><use xlink:href="#ar" x="212.301" y="147.749"/><use xlink:href="#as" x="217.908" y="147.749"/><use xlink:href="#ai" x="231.059" y="137.664" fill="red"/><use xlink:href="#aq" x="231.059" y="147.749"/><use xlink:href="#ar" x="237.06" y="147.749"/><use xlink:href="#as" x="242.667" y="147.749"/><use xlink:href="#al" x="251.92" y="147.749"/><use xlink:href="#aq" x="148.712" y="169.393"/><use xlink:href="#ar" x="154.713" y="169.393"/><use xlink:href="#as" x="160.32" y="169.393"/><use xlink:href="#aq" x="173.471" y="169.393"/><use xlink:href="#ar" x="179.472" y="169.393"/><use xlink:href="#as" x="185.079" y="169.393"/><use xlink:href="#al" x="194.332" y="169.393"/><use xlink:href="#aq" x="201.481" y="169.393"/><use xlink:href="#ar" x="207.483" y="169.393"/><use xlink:href="#as" x="213.09" y="169.393"/><use xlink:href="#aq" x="226.24" y="169.393"/><use xlink:href="#ar" x="232.242" y="169.393"/><use xlink:href="#as" x="237.849" y="169.393"/><use xlink:href="#al" x="247.102" y="169.393"/><use xlink:href="#aq" x="160.667" y="191.036"/><use xlink:href="#ar" x="166.668" y="191.036"/><use xlink:href="#as" x="172.275" y="191.036"/><use xlink:href="#aq" x="185.426" y="191.036"/><use xlink:href="#ar" x="191.427" y="191.036"/><use xlink:href="#aj" x="196.711" y="191.036"/><use xlink:href="#ar" x="200.692" y="191.036"/><use xlink:href="#aq" x="206.299" y="191.036"/><use xlink:href="#ar" x="212.301" y="191.036"/><use xlink:href="#as" x="217.908" y="191.036"/><use xlink:href="#an" x="231.059" y="180.951" fill="red"/><use xlink:href="#ao" x="243.791" y="176.611" fill="red"/><use xlink:href="#aq" x="231.059" y="191.036"/><use xlink:href="#ar" x="237.06" y="191.036"/><use xlink:href="#as" x="242.667" y="191.036"/><use xlink:href="#al" x="251.92" y="191.036"/><use xlink:href="#at" x="148.712" y="212.68"/><use xlink:href="#ar" x="151.462" y="212.68"/><use xlink:href="#aj" x="160.966" y="212.68"/><use xlink:href="#ar" x="164.947" y="212.68"/><use xlink:href="#at" x="170.554" y="212.68"/><use xlink:href="#ar" x="173.303" y="212.68"/><use xlink:href="#at" x="182.808" y="212.68"/><use xlink:href="#ar" x="185.557" y="212.68"/><use xlink:href="#at" x="195.062" y="212.68"/><use xlink:href="#ar" x="197.811" y="212.68"/><use xlink:href="#at" x="203.418" y="212.68"/><use xlink:href="#ar" x="206.168" y="212.68"/><use xlink:href="#ai" x="215.672" y="202.595" fill="red"/><use xlink:href="#at" x="215.672" y="212.68"/><use xlink:href="#ar" x="218.422" y="212.68"/><use xlink:href="#au" x="224.029" y="212.68"/><use xlink:href="#ae" x="118.871" y="240.301"/><use xlink:href="#af" x="128.447" y="240.301"/><use xlink:href="#ag" x="128.841" y="240.301"/><use xlink:href="#av" x="148.712" y="240.301"/><use xlink:href="#aw" x="157.128" y="240.301"/><use xlink:href="#ax" x="162.209" y="240.301"/><use xlink:href="#ay" x="164.959" y="240.301"/><use xlink:href="#az" x="170.159" y="240.301"/><use xlink:href="#aA" x="176.005" y="240.301"/><use xlink:href="#aB" x="179.066" y="240.301"/><use xlink:href="#ar" x="185.067" y="240.301"/><use xlink:href="#as" x="194.571" y="240.301"/><use xlink:href="#ar" x="203.825" y="240.301"/><use xlink:href="#aC" x="209.431" y="240.301"/><use xlink:href="#aD" x="212.492" y="240.301"/><use xlink:href="#aE" x="218.601" y="240.301"/><use xlink:href="#aF" x="225.308" y="240.301"/><use xlink:href="#ar" x="230.986" y="240.301"/><use xlink:href="#aB" x="240.491" y="240.301"/><use xlink:href="#ar" x="246.492" y="240.301"/><use xlink:href="#l" x="252.099" y="240.301"/><use xlink:href="#aG" x="256.546" y="240.301"/><use xlink:href="#aH" x="263.121" y="240.301"/><use xlink:href="#aw" x="269.123" y="240.301"/><use xlink:href="#ax" x="274.204" y="240.301"/><use xlink:href="#an" x="280.852" y="230.216" fill="red"/><use xlink:href="#ao" x="293.584" y="225.876" fill="red"/><use xlink:href="#aI" x="280.852" y="240.301"/><use xlink:href="#ax" x="285.335" y="240.301"/><use xlink:href="#aJ" x="288.085" y="240.301"/><use xlink:href="#al" x="293.285" y="240.301"/><use xlink:href="#av" x="148.712" y="261.945"/><use xlink:href="#aw" x="157.128" y="261.945"/><use xlink:href="#ax" x="162.209" y="261.945"/><use xlink:href="#ay" x="164.959" y="261.945"/><use xlink:href="#az" x="170.159" y="261.945"/><use xlink:href="#aA" x="176.005" y="261.945"/><use xlink:href="#aB" x="179.066" y="261.945"/><use xlink:href="#ar" x="185.067" y="261.945"/><use xlink:href="#as" x="194.571" y="261.945"/><use xlink:href="#ar" x="203.825" y="261.945"/><use xlink:href="#at" x="209.431" y="261.945"/><use xlink:href="#am" x="212.181" y="261.945"/><use xlink:href="#ai" x="218.183" y="251.859" fill="red"/><use xlink:href="#aI" x="218.183" y="261.945"/><use xlink:href="#ax" x="222.666" y="261.945"/><use xlink:href="#ay" x="225.416" y="261.945"/><use xlink:href="#aK" x="230.616" y="261.945"/><use xlink:href="#aF" x="236.618" y="261.945"/><use xlink:href="#ar" x="242.296" y="261.945"/><use xlink:href="#au" x="247.903" y="261.945"/><use xlink:href="#ae" x="132.201" y="283.588"/><use xlink:href="#aL" x="148.712" y="283.588"/><use xlink:href="#ar" x="154.199" y="283.588"/><use xlink:href="#aF" x="159.806" y="283.588"/><use xlink:href="#aB" x="169.382" y="283.588"/><use xlink:href="#ar" x="175.384" y="283.588"/><use xlink:href="#aw" x="180.991" y="283.588"/><use xlink:href="#aM" x="186.071" y="283.588"/><use xlink:href="#aN" x="193.711" y="283.588"/><use xlink:href="#aO" x="203.215" y="283.588"/><use xlink:href="#aP" x="211.021" y="283.588"/><use xlink:href="#aQ" x="216.879" y="283.588"/><use xlink:href="#aR" x="226.3" y="283.588"/><use xlink:href="#as" x="233.27" y="283.588"/><use xlink:href="#as" x="242.523" y="283.588"/><use xlink:href="#ar" x="251.776" y="283.588"/><use xlink:href="#aB" x="257.383" y="283.588"/><use xlink:href="#am" x="263.384" y="283.588"/><use xlink:href="#an" x="269.387" y="273.503" fill="red"/><use xlink:href="#ao" x="282.119" y="269.163" fill="red"/><use xlink:href="#ay" x="269.387" y="283.588"/><use xlink:href="#at" x="274.587" y="283.588"/><use xlink:href="#au" x="277.337" y="283.588"/><use xlink:href="#ag" x="128.842" y="305.232"/><use xlink:href="#aL" x="148.712" y="305.232"/><use xlink:href="#ar" x="154.199" y="305.232"/><use xlink:href="#aF" x="159.806" y="305.232"/><use xlink:href="#aB" x="169.382" y="305.232"/><use xlink:href="#ar" x="175.384" y="305.232"/><use xlink:href="#aw" x="180.991" y="305.232"/><use xlink:href="#aM" x="186.071" y="305.232"/><use xlink:href="#aN" x="193.711" y="305.232"/><use xlink:href="#aO" x="203.215" y="305.232"/><use xlink:href="#aP" x="211.021" y="305.232"/><use xlink:href="#aQ" x="216.879" y="305.232"/><use xlink:href="#aR" x="226.3" y="305.232"/><use xlink:href="#as" x="233.27" y="305.232"/><use xlink:href="#as" x="242.523" y="305.232"/><use xlink:href="#ar" x="251.776" y="305.232"/><use xlink:href="#aB" x="257.383" y="305.232"/><use xlink:href="#am" x="263.384" y="305.232"/><use xlink:href="#ai" x="269.387" y="295.147" fill="red"/><use xlink:href="#ay" x="269.387" y="305.232"/><use xlink:href="#at" x="274.587" y="305.232"/><use xlink:href="#au" x="277.337" y="305.232"/><use xlink:href="#aL" x="148.712" y="326.876"/><use xlink:href="#ar" x="154.199" y="326.876"/><use xlink:href="#aF" x="159.806" y="326.876"/><use xlink:href="#aB" x="169.382" y="326.876"/><use xlink:href="#ar" x="175.384" y="326.876"/><use xlink:href="#aw" x="180.991" y="326.876"/><use xlink:href="#aM" x="186.071" y="326.876"/><use xlink:href="#aN" x="193.711" y="326.876"/><use xlink:href="#aO" x="203.215" y="326.876"/><use xlink:href="#aP" x="211.021" y="326.876"/><use xlink:href="#aQ" x="216.879" y="326.876"/><use xlink:href="#aR" x="226.3" y="326.876"/><use xlink:href="#as" x="233.27" y="326.876"/><use xlink:href="#as" x="242.523" y="326.876"/><use xlink:href="#ar" x="251.776" y="326.876"/><use xlink:href="#aB" x="257.383" y="326.876"/><use xlink:href="#am" x="263.384" y="326.876"/><use xlink:href="#an" x="269.387" y="316.79" fill="red"/><use xlink:href="#ao" x="282.119" y="312.451" fill="red"/><use xlink:href="#ay" x="269.387" y="326.876"/><use xlink:href="#at" x="274.587" y="326.876"/><use xlink:href="#au" x="277.337" y="326.876"/><use xlink:href="#aS" x="148.712" y="348.519"/><use xlink:href="#aj" x="156.16" y="348.519"/><use xlink:href="#aw" x="160.141" y="348.519"/><use xlink:href="#aT" x="165.222" y="348.519"/><use xlink:href="#aU" x="170.578" y="348.519"/><use xlink:href="#aH" x="173.662" y="348.519"/><use xlink:href="#aV" x="179.663" y="348.519"/><use xlink:href="#av" x="188.642" y="348.519"/><use xlink:href="#aw" x="197.058" y="348.519"/><use xlink:href="#ax" x="202.139" y="348.519"/><use xlink:href="#ay" x="204.889" y="348.519"/><use xlink:href="#aW" x="210.089" y="348.519"/><use xlink:href="#ax" x="215.289" y="348.519"/><use xlink:href="#aN" x="218.039" y="348.519"/><use xlink:href="#aX" x="223.646" y="348.519"/><use xlink:href="#ay" x="227.878" y="348.519"/><use xlink:href="#aW" x="233.078" y="348.519"/><use xlink:href="#aw" x="238.279" y="348.519"/><use xlink:href="#aF" x="243.36" y="348.519"/><use xlink:href="#aP" x="248.716" y="348.519"/><use xlink:href="#al" x="254.574" y="348.519"/><use xlink:href="#ai" x="261.724" y="338.434" fill="red"/><use xlink:href="#aq" x="261.724" y="348.519"/><use xlink:href="#aj" x="267.403" y="348.519"/><use xlink:href="#aw" x="271.384" y="348.519"/><use xlink:href="#aT" x="276.465" y="348.519"/><use xlink:href="#aU" x="281.82" y="348.519"/><use xlink:href="#aH" x="284.905" y="348.519"/><use xlink:href="#aV" x="290.906" y="348.519"/><use xlink:href="#au" x="295.987" y="348.519"/><use xlink:href="#ag" x="128.842" y="376.141"/><use xlink:href="#ah" x="148.712" y="376.141"/><use xlink:href="#ai" x="156.686" y="366.055" fill="red"/><use xlink:href="#aj" x="156.686" y="376.141"/><use xlink:href="#ak" x="160.667" y="376.141"/><use xlink:href="#al" x="163.417" y="376.141"/><use xlink:href="#am" x="170.566" y="376.141"/><use xlink:href="#aj" x="176.567" y="376.141"/><use xlink:href="#ak" x="180.548" y="376.141"/><use xlink:href="#al" x="183.298" y="376.141"/><use xlink:href="#am" x="190.447" y="376.141"/><use xlink:href="#aj" x="196.448" y="376.141"/><use xlink:href="#ak" x="200.429" y="376.141"/><use xlink:href="#al" x="203.179" y="376.141"/><use xlink:href="#am" x="210.328" y="376.141"/><use xlink:href="#an" x="216.33" y="366.055" fill="red"/><use xlink:href="#ao" x="229.062" y="361.716" fill="red"/><use xlink:href="#aj" x="216.33" y="376.141"/><use xlink:href="#ap" x="220.311" y="376.141"/><use xlink:href="#al" x="225.918" y="376.141"/><use xlink:href="#aY" x="233.067" y="376.141"/><use xlink:href="#ae" x="118.871" y="403.762"/><use xlink:href="#af" x="128.447" y="403.762"/><use xlink:href="#ag" x="128.841" y="403.762"/><use xlink:href="#aZ" x="148.712" y="403.762"/><use xlink:href="#ar" x="158.874" y="403.762"/><use xlink:href="#aX" x="164.481" y="403.762"/><use xlink:href="#aF" x="168.713" y="403.762"/><use xlink:href="#ar" x="174.391" y="403.762"/><use xlink:href="#aZ" x="183.896" y="403.762"/><use xlink:href="#ar" x="194.057" y="403.762"/><use xlink:href="#aj" x="199.341" y="403.762"/><use xlink:href="#aT" x="203.322" y="403.762"/><use xlink:href="#aU" x="208.678" y="403.762"/><use xlink:href="#ar" x="211.763" y="403.762"/><use xlink:href="#aU" x="221.267" y="403.762"/><use xlink:href="#ay" x="224.351" y="403.762"/><use xlink:href="#aI" x="229.552" y="403.762"/><use xlink:href="#aX" x="234.035" y="403.762"/><use xlink:href="#aM" x="242.164" y="403.762"/><use xlink:href="#ba" x="254.024" y="403.762"/><use xlink:href="#ay" x="261.794" y="403.762"/><use xlink:href="#aX" x="266.995" y="403.762"/><use xlink:href="#an" x="271.228" y="393.676" fill="red"/><use xlink:href="#ao" x="283.96" y="389.337" fill="red"/><use xlink:href="#at" x="271.228" y="403.762"/><use xlink:href="#ay" x="273.978" y="403.762"/><use xlink:href="#aU" x="279.178" y="403.762"/><use xlink:href="#ay" x="282.262" y="403.762"/><use xlink:href="#as" x="287.463" y="403.762"/><use xlink:href="#aM" x="148.712" y="425.405"/><use xlink:href="#aj" x="156.674" y="425.405"/><use xlink:href="#ar" x="160.655" y="425.405"/><use xlink:href="#aw" x="166.262" y="425.405"/><use xlink:href="#aw" x="175.24" y="425.405"/><use xlink:href="#aL" x="184.218" y="425.405"/><use xlink:href="#ay" x="189.706" y="425.405"/><use xlink:href="#bb" x="194.906" y="425.405"/><use xlink:href="#aP" x="200.764" y="425.405"/><use xlink:href="#aP" x="210.519" y="425.405"/><use xlink:href="#aU" x="216.377" y="425.405"/><use xlink:href="#aW" x="219.462" y="425.405"/><use xlink:href="#ay" x="224.662" y="425.405"/><use xlink:href="#as" x="229.863" y="425.405"/><use xlink:href="#ai" x="243.014" y="415.32" fill="red"/><use xlink:href="#aW" x="243.014" y="425.405"/><use xlink:href="#ax" x="248.214" y="425.405"/><use xlink:href="#ay" x="250.964" y="425.405"/><use xlink:href="#bc" x="256.164" y="425.405"/><use xlink:href="#at" x="260.648" y="425.405"/><use xlink:href="#aN" x="263.397" y="425.405"/><use xlink:href="#au" x="269.004" y="425.405"/><use xlink:href="#ae" x="132.201" y="447.049"/><use xlink:href="#aL" x="148.712" y="447.049"/><use xlink:href="#ar" x="154.199" y="447.049"/><use xlink:href="#aF" x="159.806" y="447.049"/><use xlink:href="#aB" x="169.382" y="447.049"/><use xlink:href="#ar" x="175.384" y="447.049"/><use xlink:href="#aw" x="180.991" y="447.049"/><use xlink:href="#aM" x="186.071" y="447.049"/><use xlink:href="#aN" x="193.711" y="447.049"/><use xlink:href="#aO" x="203.215" y="447.049"/><use xlink:href="#aP" x="211.021" y="447.049"/><use xlink:href="#aQ" x="216.879" y="447.049"/><use xlink:href="#aR" x="226.3" y="447.049"/><use xlink:href="#as" x="233.27" y="447.049"/><use xlink:href="#as" x="242.523" y="447.049"/><use xlink:href="#ar" x="251.776" y="447.049"/><use xlink:href="#aB" x="257.383" y="447.049"/><use xlink:href="#am" x="263.384" y="447.049"/><use xlink:href="#an" x="269.387" y="436.964" fill="red"/><use xlink:href="#ao" x="282.119" y="432.624" fill="red"/><use xlink:href="#ay" x="269.387" y="447.049"/><use xlink:href="#at" x="274.587" y="447.049"/><use xlink:href="#au" x="277.337" y="447.049"/><use xlink:href="#ag" x="128.842" y="468.693"/><use xlink:href="#aL" x="148.712" y="468.693"/><use xlink:href="#ar" x="154.199" y="468.693"/><use xlink:href="#aF" x="159.806" y="468.693"/><use xlink:href="#aB" x="169.382" y="468.693"/><use xlink:href="#ar" x="175.384" y="468.693"/><use xlink:href="#aw" x="180.991" y="468.693"/><use xlink:href="#aM" x="186.071" y="468.693"/><use xlink:href="#aN" x="193.711" y="468.693"/><use xlink:href="#aO" x="203.215" y="468.693"/><use xlink:href="#aP" x="211.021" y="468.693"/><use xlink:href="#aQ" x="216.879" y="468.693"/><use xlink:href="#aY" x="226.3" y="468.693"/><use xlink:href="#ag" x="128.842" y="496.314"/><use xlink:href="#ah" x="148.712" y="496.314"/><use xlink:href="#ai" x="156.686" y="486.229" fill="red"/><use xlink:href="#aj" x="156.686" y="496.314"/><use xlink:href="#ak" x="160.667" y="496.314"/><use xlink:href="#al" x="163.417" y="496.314"/><use xlink:href="#am" x="170.566" y="496.314"/><use xlink:href="#aj" x="176.567" y="496.314"/><use xlink:href="#ak" x="180.548" y="496.314"/><use xlink:href="#al" x="183.298" y="496.314"/><use xlink:href="#am" x="190.447" y="496.314"/><use xlink:href="#aj" x="196.448" y="496.314"/><use xlink:href="#ak" x="200.429" y="496.314"/><use xlink:href="#al" x="203.179" y="496.314"/><use xlink:href="#am" x="210.328" y="496.314"/><use xlink:href="#an" x="216.33" y="486.229" fill="red"/><use xlink:href="#ao" x="229.062" y="481.889" fill="red"/><use xlink:href="#aj" x="216.33" y="496.314"/><use xlink:href="#ap" x="220.311" y="496.314"/><use xlink:href="#al" x="225.918" y="496.314"/><use xlink:href="#aY" x="233.067" y="496.314"/><g clip-path="url(#bd)"><path fill="url(#be)" d="M15.023 579.684v-11.336h388.063v11.336Zm0 0"/></g><use xlink:href="#bf" x="380.91" y="577.985"/><use xlink:href="#bg" x="387.641" y="577.985"/><use xlink:href="#bh" x="394.371" y="577.985"/><path fill="#f2f2f2" stroke="#000" stroke-miterlimit="10" stroke-width=".797" d="M196.602 576.055v-3.989a2.99 2.99 0 0 1 2.988-2.988h18.93a2.99 2.99 0 0 1 2.988 2.988v3.989a2.99 2.99 0 0 1-2.988 2.988h-18.93a2.99 2.99 0 0 1-2.988-2.988Zm0 0"/><use xlink:href="#bi" x="198.439" y="576.948"/><use xlink:href="#bj" x="203.747" y="576.948"/><use xlink:href="#bj" x="209.055" y="576.948"/><use xlink:href="#bk" x="214.363" y="576.948"/><use xlink:href="#bl" x="17.008" y="577.985"/><use xlink:href="#bm" x="20.976" y="577.985"/><use xlink:href="#bn" x="24.944" y="577.985"/><use xlink:href="#bo" x="31.598" y="577.985"/><use xlink:href="#bp" x="33.85" y="577.985"/><use xlink:href="#bq" x="37.818" y="577.985"/><use xlink:href="#br" x="41.787" y="577.985"/><use xlink:href="#bl" x="44.039" y="577.985"/><use xlink:href="#bs" x="48.007" y="577.985"/><use xlink:href="#bt" x="52.945" y="577.985"/><use xlink:href="#bu" x="63.573" y="577.985"/><use xlink:href="#bn" x="67.542" y="577.985"/><use xlink:href="#bv" x="74.195" y="577.985"/><use xlink:href="#bu" x="79.76" y="577.985"/><use xlink:href="#bw" x="83.728" y="577.985"/><use xlink:href="#bu" x="87.697" y="577.985"/><use xlink:href="#bx" x="91.665" y="577.985"/><use xlink:href="#bt" x="98.318" y="577.985"/><use xlink:href="#by" x="108.946" y="577.985"/><use xlink:href="#bz" x="114.609" y="577.985"/><use xlink:href="#bA" x="119.01" y="577.985"/><use xlink:href="#bB" x="124.484" y="577.985"/><use xlink:href="#bC" x="128.027" y="577.985"/><use xlink:href="#bD" x="132.212" y="577.985"/><use xlink:href="#bu" x="138.007" y="577.985"/><use xlink:href="#bw" x="141.975" y="577.985"/><use xlink:href="#bu" x="145.943" y="577.985"/><use xlink:href="#bm" x="149.912" y="577.985"/></svg>