<svg xmlns="http://www.w3.org/2000/svg" xmlns:xlink="http://www.w3.org/1999/xlink" width="559.371" height="793.701" viewBox="0 0 419.528 595.276"><defs><path id="d" d="M3.344 2.297v-.078L1.5-2.5l1.844-4.703v-.078c0-.11-.078-.203-.188-.203a.24.24 0 0 0-.203.14L1.11-2.562c-.015.015-.015.046-.015.062 0 .031 0 .063.015.078L2.953 2.36a.24.24 0 0 0 .203.141c.11 0 .188-.094.188-.203m0 0"/><path id="e" d="M4.969-1.422c0-.11-.094-.11-.125-.11-.094 0-.11.048-.14.188-.173.64-.345 1.235-.75 1.235-.282 0-.298-.266-.298-.453 0-.22.016-.313.125-.75L4-2.203l.36-1.39c.062-.282.062-.298.062-.344 0-.172-.11-.266-.281-.266-.25 0-.391.219-.422.437-.188-.375-.469-.64-.922-.64-1.156 0-2.39 1.468-2.39 2.922C.406-.547.952.109 1.718.109c.203 0 .703-.046 1.297-.75a.91.91 0 0 0 .906.75c.36 0 .578-.234.75-.546.156-.36.297-.985.297-.985m-1.375-1.89a.6.6 0 0 1-.031.171l-.485 1.954c-.062.187-.062.203-.203.375-.437.546-.844.703-1.125.703-.5 0-.64-.547-.64-.938 0-.5.312-1.719.546-2.187.313-.578.75-.953 1.157-.953.64 0 .78.812.78.875m0 0"/><path id="f" d="M2.781-2.5c0-.016 0-.047-.015-.062L.922-7.344c-.031-.078-.11-.14-.188-.14a.207.207 0 0 0-.203.203v.078L2.375-2.5.531 2.219v.078c0 .11.094.203.203.203.079 0 .157-.062.188-.14l1.844-4.782c.015-.015.015-.047.015-.078m0 0"/><path id="g" d="M6.047-.156c0-.094-.11-.11-.14-.11-.25 0-.376-.03-.5-.312L4.218-3.297 5.766-4.5c.218-.172.812-.625 1.312-.672.063-.016.156-.031.156-.156 0-.047-.03-.11-.109-.11 0 0-.234.016-.281.016h-.328c-.266 0-.563-.016-.813-.016-.047 0-.172 0-.172.141 0 .11.14.125.14.125.11 0 .173.047.173.11 0 .125-.14.25-.172.28l-.047.048c-.016.015-.031.015-.094.078L2.563-2.344l.609-2.5c.078-.265.125-.328.61-.328.171 0 .265 0 .265-.156 0-.047-.031-.11-.125-.11-.14 0-.313.016-.453.016h-.953l-.453-.016c-.047 0-.172 0-.172.141 0 .125.093.125.234.125.219 0 .438 0 .438.11 0 .046 0 .062-.032.171L1.47-.609c-.078.28-.125.343-.61.343-.171 0-.265 0-.265.157C.594-.047.64 0 .719 0c.031 0 .39-.016.453-.031h.484c.672 0 .89.031.938.031s.156 0 .156-.156c0-.11-.094-.11-.234-.11-.25 0-.438 0-.438-.125 0-.046.047-.218.078-.328l.297-1.203 1.25-.969.985 2.25c.046.094.046.11.046.141 0 .203-.187.234-.343.234-.094 0-.188.016-.188.157 0 .062.047.109.11.109.28 0 .578-.031.843-.031.672 0 .64.031.735.031.03 0 .156 0 .156-.156m0 0"/><path id="h" d="M2.828-1.14c0-.11-.11-.11-.156-.11-.125 0-.125.031-.172.172-.14.516-.406.937-.734.937-.157 0-.188-.109-.188-.25 0-.187.063-.328.188-.656l.515-1.39c.063-.172.094-.25.094-.422 0-.438-.312-.657-.656-.657-.75 0-1.078 1.11-1.078 1.22 0 .108.093.108.14.108.14 0 .14-.03.172-.171.125-.407.375-.938.75-.938.14 0 .172.11.172.25 0 .188-.047.344-.156.61L1.156-.953a1.1 1.1 0 0 0-.078.375c0 .36.266.656.672.656.75 0 1.078-1.125 1.078-1.219m.125-3.704a.354.354 0 0 0-.36-.375.55.55 0 0 0-.53.532c0 .234.171.359.359.359.265 0 .531-.234.531-.516m0 0"/><path id="i" d="M4.14-1.14c0-.11-.109-.11-.14-.11-.14 0-.156.047-.187.172-.11.453-.266.937-.61.937-.14 0-.25-.078-.25-.375 0-.125.031-.265.063-.39.03-.125.03-.172.03-.25 0-.563-.546-.75-1.108-.86.296-.187.625-.53.671-.593.454-.5.766-.688 1.063-.688.11 0 .172.063.203.11-.156.03-.344.171-.344.39s.188.266.281.266c.204 0 .407-.14.407-.453 0-.266-.157-.532-.547-.532s-.75.266-1.188.735c-.484.515-.656.594-.796.672l.796-3.188c0-.031.016-.094.016-.125 0-.11-.125-.11-.219-.094l-.828.063c-.11.016-.187.016-.187.156 0 .125.093.125.203.125.375 0 .375.047.375.11a.7.7 0 0 1-.032.171L.657-.266c0 .032-.015.079-.015.11 0 .11.078.234.25.234.14 0 .265-.094.328-.297l.39-1.578c.313.031.891.172.891.656 0 .047 0 .079-.031.188a1 1 0 0 0-.031.25c0 .437.296.781.734.781.36 0 .562-.265.656-.406.188-.297.313-.766.313-.813m0 0"/><path id="j" d="M4.297-2.172c0-.828-.547-1.344-1.266-1.344C2-3.516.921-2.437.921-1.266c0 .875.595 1.344 1.267 1.344 1.062 0 2.109-1.094 2.109-2.25m-.594-.281c0 .265-.125 1.031-.437 1.578-.266.438-.688.734-1.078.734-.297 0-.672-.203-.672-.843 0-.36.172-1.11.422-1.547.343-.578.812-.766 1.078-.766.39 0 .687.297.687.844m0 0"/><path id="k" d="M7.36-.578v-.11c0-.562-.266-.562-.673-.562l-3.812.047L7.172-7.25c.125-.156.125-.187.125-.453 0-.313-.016-.594-.578-.594H1.484c-.5 0-.578.203-.578.594 0 .578.25.578.735.578l3.109-.031h.422L.844-1.094c-.11.157-.11.188-.11.422v.094c0 .437.125.578.563.578h5.5c.453 0 .562-.156.562-.578m0 0"/><path id="l" d="M9.64-.578v-3.313c0-1.218-.53-1.718-1.75-1.718-.843 0-1.5.39-1.937 1.187-.187-1.14-1.203-1.187-1.703-1.187-.234 0-.734 0-1.281.39-.36.282-.61.672-.688.844h-.015v-.594c0-.39-.079-.578-.563-.578h-.406c-.438 0-.578.125-.578.578v4.39c0 .438.125.579.578.579h.469c.453 0 .578-.156.578-.578v-2.64c0-1.079.734-1.532 1.312-1.532s.703.25.703.89v3.282c0 .437.141.578.579.578h.484c.453 0 .562-.156.562-.578v-2.64c0-1.079.735-1.532 1.313-1.532s.719.25.719.89v3.282c0 .437.125.578.562.578h.485c.453 0 .578-.156.578-.578m0 0"/><path id="m" d="M5.672-.578v-3.203c0-1.89-1.828-1.89-2.422-1.89-.562 0-1.156.046-1.953.374-.25.11-.313.14-.313.281 0 .079.063.766.079.875a.17.17 0 0 0 .156.125c.062 0 .093-.03.125-.078.515-.531 1.125-.797 1.86-.797.64 0 .843.391.843 1.094v.422c-.422 0-3.563.031-3.563 1.781C.484-.75 1.156.125 2.22.125c.406 0 1.297-.11 1.86-.937v.234c0 .39.077.578.577.578h.438c.453 0 .578-.156.578-.578M4.047-1.844c0 1.11-1.14 1.11-1.172 1.11-.516 0-.828-.422-.828-.875 0-1.172 1.656-1.266 2-1.266Zm0 0"/><path id="n" d="M4.25-4.719v-.562c0-.235 0-.328-.203-.328-.344 0-1.219.125-1.781 1.406v-.766c0-.39-.094-.578-.578-.578h-.391c-.422 0-.563.125-.563.578v4.39C.734-.14.86 0 1.297 0h.453c.453 0 .563-.156.563-.578V-2.75c0-1.14.953-1.594 1.703-1.656.218 0 .234 0 .234-.313m0 0"/><path id="o" d="M4.453-.562c0-.032-.016-.125-.094-.375-.062-.235-.078-.313-.187-.313-.063 0-.078.016-.14.094-.141.093-.454.36-.954.36-.297 0-.469-.204-.469-1V-4.61h1.063c.14 0 .578 0 .578-.438 0-.422-.437-.422-.578-.422H2.609v-1c0-.375-.093-.578-.578-.578h-.375c-.422 0-.562.14-.562.578v1H.812c-.125 0-.578 0-.578.422 0 .438.438.438.579.438h.234v3.015c0 1.219.437 1.719 1.266 1.719.109 0 .624 0 1.25-.187.203-.063.89-.266.89-.5m0 0"/><path id="p" d="M8.594-5.14c-.031-.329-.25-.329-.625-.329-.563 0-.703.032-.875.657l-.969 3.468-1.016-3.593c-.062-.266-.156-.532-.703-.532-.172 0-.453 0-.61.266-.108.187-.64 2.25-1.062 3.656l-.953-3.39c-.125-.407-.25-.532-.734-.532h-.25c-.219 0-.469 0-.516.328L1.547-.547C1.703 0 2.016 0 2.313 0h.343c.563 0 .656-.172.781-.656.282-1 .704-2.5.766-3.125v-.016c.078.688.61 2.578.75 3.14.14.423.203.657.797.657h.813c.515 0 .64-.14.75-.547Zm0 0"/><path id="q" d="M5.656-5.156c0-.313-.328-.313-.484-.313h-.266c-.187 0-.453 0-.625.266-.031.062-1 2.703-1.062 3.5h-.016c-.062-.578-.547-1.688-1.062-2.844-.328-.75-.422-.922-1.016-.922H.813c-.172 0-.47 0-.47.313 0 .047.032.125.063.187L2.672 0c-.11.25-.14.375-.172.5-.14.39-.344.938-1 .938-.39 0-.656-.172-.797-.25C.641 1.14.625 1.14.578 1.14s-.14.03-.14.172c0 .093.062.921.093.968.11.14.766.172.953.172 1.485 0 2.063-1.406 2.157-1.703l1.953-5.656c.062-.157.062-.188.062-.25m0 0"/><path id="r" d="M5.469-.594c0-.14-.047-.687-.078-.843 0-.032-.032-.157-.141-.157-.047 0-.078 0-.187.125-.204.172-.766.672-1.75.672-1.25 0-1.25-1.219-1.25-1.969 0-.968.062-1.984 1.28-1.984.782 0 1.11.203 1.532.547.14.14.172.14.219.14.125 0 .14-.109.156-.156.016-.093.14-.765.14-.828 0-.11-.077-.156-.28-.25-.579-.266-.938-.375-1.782-.375-1.781 0-2.89.828-2.89 2.922C.438-.766 1.468.125 3.28.125c.313 0 1.031 0 1.828-.406.344-.188.36-.203.36-.313m0 0"/><path id="s" d="M5.969-.578v-3.313c0-1.218-.516-1.718-1.735-1.718-1.203 0-1.75.828-1.921 1.156V-7.72c0-.39-.094-.578-.579-.578h-.437c-.438 0-.578.14-.578.578v7.14c0 .438.125.579.578.579h.469c.453 0 .578-.156.578-.578v-2.64c0-1.032.687-1.532 1.312-1.532.578 0 .688.281.688.89v3.282c0 .39.093.578.578.578h.484c.453 0 .563-.156.563-.578m0 0"/><path id="t" d="M4.734-1.687c0-.672-.359-1.079-.578-1.282-.468-.422-.89-.5-1.39-.594-.657-.124-1.141-.218-1.141-.687 0-.484.39-.578.86-.578.796 0 1.234.297 1.546.562.11.125.14.125.188.125.125 0 .14-.109.156-.156.031-.11.14-.766.14-.828 0-.187-.624-.36-.765-.406-.469-.14-.86-.14-1.172-.14-.531 0-2.14 0-2.14 1.702 0 .594.265.938.593 1.235.422.375.875.468 1.563.593.344.063.953.172.953.688 0 .562-.469.656-.922.656a2.21 2.21 0 0 1-1.766-.828c-.062-.062-.093-.094-.171-.094-.11 0-.141.11-.157.172-.015.172-.156.86-.156.969 0 .219.89.5.89.5a4.4 4.4 0 0 0 1.36.203c.61 0 2.11-.047 2.11-1.812m0 0"/><path id="u" d="M4.39-6.469a.45.45 0 0 0-.64-.062l-.766.61V-7.72c0-.39-.078-.578-.562-.578h-.453c-.422 0-.563.14-.563.578v3.063l-1.078.843a.46.46 0 0 0-.062.626c.156.187.422.234.625.062l.515-.406v2.953c0 .437.125.578.563.578h.453c.453 0 .562-.156.562-.578v-4.219l1.329-1.062a.444.444 0 0 0 .078-.61m0 0"/><path id="v" d="M7.656-5.719c0-1.797-1.172-2.578-3-2.578h-3c-.422 0-.562.14-.562.578v7.14c0 .438.125.579.562.579h.61c.453 0 .578-.156.578-.578v-2.625h1.812c1.875 0 3-.797 3-2.516M6-5.719c0 .813-.125 1.578-1.734 1.578H2.813v-3.125H4.28C5.844-7.266 6-6.546 6-5.719m0 0"/><path id="w" d="M5.969-.578v-3.313c0-1.218-.516-1.718-1.735-1.718-1.265 0-1.796.906-1.953 1.234h-.015v-.594c0-.39-.079-.578-.563-.578h-.406c-.438 0-.578.125-.578.578v4.39c0 .438.125.579.578.579h.469c.453 0 .578-.156.578-.578v-2.64c0-1.032.687-1.532 1.312-1.532.578 0 .688.281.688.89v3.282c0 .39.093.578.578.578h.484c.453 0 .563-.156.563-.578m0 0"/><path id="x" d="M2.594 2.234c-.375-.5-1.25-1.64-.64-4.484.609-2.828 1.952-3.969 2.546-4.484h-.594c-1.25.89-2.265 2.422-2.703 4.484-.453 2.14-.031 3.625.813 4.484Zm0 0"/><path id="y" d="m3.922 0 .11-.562H2.89l1.172-5.5h-.188c-.734.578-1.594.578-1.906.578l-.11.562c.25 0 .704 0 1.25-.203L2.125-.562H.985L.858 0Zm0 0"/><path id="z" d="M6.016 0 4.219-3.766l3-2.453h-.89L2.312-2.922l.703-3.297h-.813L.875 0h.813l.437-2.047 1.469-1.187L5.125 0Zm0 0"/><path id="A" d="M4.75-1.969C5-3.14 4.313-4.14 3.172-4.14c-1.11 0-2.234.97-2.484 2.172C.438-.797 1.188.094 2.28.094 3.391.094 4.5-.812 4.75-1.97m-.719-.093C3.797-1.016 3.063-.516 2.406-.516c-.687 0-1.172-.53-.953-1.546.219-1.047.984-1.485 1.594-1.485.64 0 1.203.453.984 1.485m0 0"/><path id="B" d="m3.734-3.437.157-.641c-.657 0-1.313.328-1.797.86l.172-.813h-.657L.75 0h.719l.39-1.906a1.98 1.98 0 0 1 1.875-1.531m0 0"/><path id="C" d="M4.531-1.828c.235-1.11-.375-2-1.328-2-.11 0-.547 0-1.047.36l.375-1.782h2.422l.125-.61h-3.11L1.267-2.53h.64c.438-.656.985-.703 1.157-.703.374 0 .843.28.609 1.406-.235 1.094-.953 1.437-1.5 1.437-.453 0-1.031-.218-1.235-.812L.5-.687c.094.203.547.89 1.563.89 1.124 0 2.234-.906 2.468-2.031m0 0"/><path id="D" d="m1.656-.016.172-.75h-.781L.89 0h.234L.641 1.14h.375Zm0 0"/><path id="E" d="m4.656-1.5.125-.578h-.89l.797-3.781h-.86L.703-2.08.578-1.5H3L2.688 0h.75l.328-1.5Zm-1.468-.578h-1.75l.75-.906C2.547-3.437 3.797-5 3.906-5.454Zm0 0"/><path id="F" d="m5.063-2.172.125-.578H.577l-.125.578Zm0 0"/><path id="G" d="M4.563-1.625c.125-.562-.094-1.219-.938-1.547.61-.172 1.281-.656 1.422-1.328.172-.812-.438-1.562-1.453-1.562-1.047 0-1.953.765-2.125 1.562-.14.672.312 1.156.843 1.328C1.298-2.828.845-2.156.72-1.625.516-.641 1.188.203 2.25.203c1.094 0 2.11-.86 2.313-1.828m-.188-2.86c-.11.563-.594 1.016-1.344 1.016-.703 0-1.031-.422-.906-1.015.14-.594.656-1.016 1.344-1.016.734 0 1.031.438.906 1.016m-.594 2.86c-.172.828-.797 1.234-1.39 1.234-.641 0-1.063-.421-.891-1.234.203-.953.953-1.25 1.406-1.25.516 0 1.078.328.875 1.25m0 0"/><path id="H" d="M3.328-2.25c.453-2.125.031-3.625-.812-4.484h-.578c.39.5 1.25 1.656.64 4.484C1.984.594.625 1.734.031 2.234h.594c1.234-.89 2.266-2.421 2.703-4.484m0 0"/><path id="I" d="M-.719-6.203c-.047 0-.156 0-.156.125s.094.125.14.125c.5.047.673.312.673.547 0 .422-.36.468-1.375.61-.454.062-1 .14-1.266 1.015-.172-.625-.625-1.375-1.313-1.375-.78 0-1.421 1-1.421 2.187v2.61h.265v-.188c0-.61.078-.625.375-.625H-.64c.297 0 .375.016.375.625v.188H0l-.031-1.157L0-2.687h-.266v.171c0 .625-.078.641-.375.641h-1.968v-1.016c0-.578.297-.843.359-.906.25-.234.406-.234.938-.234.5 0 .843 0 1.14-.328.297-.344.344-.782.344-1.016 0-.672-.656-.828-.89-.828m-3.297 1.875c.891 0 1.172.625 1.172 1.469v.984h-2.015c-.203 0-.282-.016-.313-.203v-.485c0-.718 0-1.765 1.156-1.765m0 0"/><path id="J" d="M0-2.078h-.266c0 .531-.03.562-.343.562h-2.907l.094 1.157h.266c0-.516.047-.578.437-.578h2.094c.36 0 .36.093.36.609H0c-.031-.313-.031-.766-.031-.89 0-.095 0-.579.031-.86m-4.797.453a.453.453 0 0 0-.453.453.45.45 0 0 0 .453.438.437.437 0 0 0 .438-.438.45.45 0 0 0-.438-.453m0 0"/><path id="K" d="M-1.031-3.047c-.375 0-.938.219-1.11 1.172-.015.063-.093.516-.093.547-.063.25-.235.625-.547.625-.235 0-.578-.188-.578-.938 0-.89.656-.937.875-.953.062 0 .093-.062.093-.11 0-.14-.062-.14-.203-.14h-.75c-.125 0-.203 0-.203.11 0 .046 0 .062.125.187 0 .016.078.094.078.11 0 0 0 .03-.031.078-.094.125-.172.359-.172.718 0 1.11.594 1.36.985 1.36.39 0 .624-.297.656-.313.234-.328.265-.5.36-1.047.077-.375.187-.984.718-.984.312 0 .687.203.687.938 0 .812-.625 1.046-1.046 1.14-.11.031-.141.047-.141.14 0 .126.062.126.219.126h.984c.125 0 .203 0 .203-.094 0-.062 0-.062-.156-.203-.047-.047-.14-.125-.188-.172.329-.36.344-.734.344-.937 0-1.016-.578-1.36-1.11-1.36m0 0"/><path id="L" d="M0-4.484h-.266c0 .547-.046.609-.437.609h-2.813l.094 1.219h.266c0-.547.047-.61.437-.61h1.39c.688 0 1.188.407 1.188 1.016 0 .688-.343.719-.75.719h-2.625l.094 1.203h.266c0-.61.015-.61.719-.61h1.203c.578 0 1.312 0 1.312-1.265 0-.75-.578-1.047-.64-1.078v-.016h.64Zm0 0"/><path id="M" d="M-.953-3.516c-.094 0-.094.11-.094.125 0 .063 0 .094.078.125.172.047.797.282.797 1.079 0 .484-.375 1.203-1.562 1.203-1.141 0-1.578-.594-1.578-1.172 0-.078 0-.5.156-.781.062.234.25.265.344.265a.36.36 0 0 0 .374-.375c0-.219-.14-.375-.39-.375-.485 0-.719.531-.719 1.281 0 1.11.875 1.86 1.828 1.86C-.703-.281.078-1.11.078-2.11c0-1.125-.937-1.407-1.031-1.407m0 0"/><path id="N" d="M-1-2.812h-.437v.25h.421c.547 0 .844.25.844.546 0 .532-.687.532-.812.532h-2.188v-1.188h-.265v1.188h-1.47v.25c.735 0 1.485.328 1.516 1.078h.22v-.719H-1c.938 0 1.078-.719 1.078-1.078 0-.547-.469-.86-1.078-.86m0 0"/><path id="O" d="M-1.703-3.984c-.984 0-1.844.828-1.844 1.875s.86 1.875 1.844 1.875c1 0 1.781-.86 1.781-1.875 0-1.032-.781-1.875-1.781-1.875m-.063.703c.36 0 .797.015 1.141.25.313.203.453.562.453.922 0 .422-.203.765-.484.937-.328.203-.719.219-1.11.219-.312 0-.78 0-1.125-.235a1.14 1.14 0 0 1-.437-.921c0-.422.203-.766.469-.938.343-.219.765-.234 1.093-.234m-2.453.64-1.218 1.016c-.125.11-.125.219-.125.25 0 .14.14.313.312.313.14 0 .203-.063.266-.157l.937-1.25Zm0 0"/><path id="P" d="M-1.719-4.422c-1 0-1.797.813-1.797 1.781 0 .313.079.766.5 1.172h-.5l.094 1.188h.266c0-.563.047-.61.375-.61H.922c.36 0 .36.11.36.61h.265c-.031-.344-.031-.688-.031-.906 0-.235 0-.563.03-.907h-.265c0 .516 0 .61-.36.61H-.39a1.37 1.37 0 0 0 .47-1.047c0-1-.782-1.89-1.798-1.89m0 .719c.907 0 1.578.578 1.578 1.219 0 .28-.125.64-.515.906-.14.094-.156.094-.297.094h-1.703a1.3 1.3 0 0 1-.61-1.094c0-.61.672-1.125 1.547-1.125m0 0"/><path id="Q" d="M-.437-1.625a.453.453 0 0 0-.454.453c0 .266.22.438.438.438A.44.44 0 0 0 0-1.172a.45.45 0 0 0-.437-.453m0 0"/><path id="R" d="M0-3.562h-.266v.28c0 .75-.093.782-.39.782h-4.422c-.219 0-.219.016-.219.234.313.329.5.75.5 1.5h.266c0-.218 0-.64-.203-1.109h4.078c.297 0 .39.031.39.781v.282H0c-.031-.329-.031-1.016-.031-1.375 0-.36 0-1.047.031-1.376m0 0"/><path id="S" d="M-1.312-3.984h-.25v.843h-3.594c-.157 0-.219 0-.219.172 0 .094 0 .11.11.188l3.702 2.547h.25v-2.25h.672c.297 0 .375.015.375.64v.172H0l-.031-1.14L0-3.953h-.266v.172c0 .625-.078.64-.375.64h-.671Zm-.25 1.437v2.031l-2.954-2.03Zm0 0"/><path id="T" d="M-1.625-3.875c-1.031 0-1.766.797-1.766 1.672 0 .578.36.922.75 1.11-.656 0-1.234-.063-1.718-.344-.407-.25-.735-.657-.735-1.157 0-.156.032-.515.297-.703.031.36.297.39.375.39.25 0 .375-.187.375-.374 0-.14-.078-.375-.39-.375-.47 0-.86.36-.86 1.078 0 1.11 1.047 2.234 2.766 2.234C-.36-.344.172-1.359.172-2.125c0-.39-.11-.797-.453-1.156-.313-.328-.64-.594-1.344-.594m0 .75c.406 0 .75 0 1.047.156.36.219.5.485.5.844a.88.88 0 0 1-.516.797c-.36.187-.89.203-1.203.203-.781 0-1.375-.422-1.375-1.047 0-.39.203-.64.485-.781.296-.172.656-.172 1.062-.172m0 0"/><path id="U" d="M.719 6.203c.047 0 .156 0 .156-.125s-.094-.125-.14-.125c-.5-.047-.672-.312-.672-.547 0-.422.359-.468 1.375-.61.453-.062 1-.14 1.265-1.015.172.625.625 1.375 1.313 1.375.78 0 1.422-1 1.422-2.187V.359h-.266v.188c0 .61-.078.625-.375.625H.64c-.297 0-.375-.016-.375-.625V.359H0l.031 1.157L0 2.688h.266v-.172c0-.625.078-.641.375-.641h1.968v1.016c0 .578-.296.843-.359.906-.25.234-.406.234-.937.234-.5 0-.844 0-1.141.328-.297.344-.344.782-.344 1.016 0 .672.656.828.89.828m3.297-1.875c-.891 0-1.172-.625-1.172-1.469v-.984h2.015c.204 0 .282.016.313.203v.485c0 .718 0 1.765-1.156 1.765m0 0"/><path id="V" d="M.953 3.516a.12.12 0 0 0 .11-.125c0-.094-.047-.11-.094-.125a1.14 1.14 0 0 1-.797-1.11c0-.36.156-.734.531-.969.36-.234.875-.234 1.11-.234v2.344c0 .172 0 .219.187.219.703 0 1.547-.391 1.547-1.516 0-.984-.813-1.766-1.797-1.766-1.031 0-1.828.86-1.828 1.875 0 1 .844 1.407 1.031 1.407m1.078-.547V.953c1.11.078 1.297.75 1.297 1.047 0 .938-1.125.969-1.297.969m0 0"/><path id="W" d="M1.031 3.047c.375 0 .938-.219 1.11-1.172.015-.062.093-.516.093-.547.063-.25.235-.625.547-.625.235 0 .578.188.578.938 0 .89-.656.937-.875.953-.062 0-.093.062-.093.11 0 .14.062.14.203.14h.75c.125 0 .203 0 .203-.11 0-.046 0-.062-.125-.187 0-.016-.078-.094-.078-.11 0 0 0-.03.031-.078.094-.125.172-.359.172-.718 0-1.11-.594-1.36-.985-1.36-.39 0-.624.297-.656.313-.234.328-.265.5-.36 1.047-.077.375-.187.984-.718.984-.312 0-.687-.203-.687-.937C.14.875.766.64 1.188.547c.109-.031.14-.047.14-.14C1.328.28 1.266.28 1.11.28H.125c-.125 0-.203 0-.203.094 0 .063 0 .063.156.203.047.047.14.125.188.172-.328.36-.344.734-.344.938 0 1.015.578 1.359 1.11 1.359m0 0"/><path id="X" d="M0 4.484h.266c0-.546.046-.609.437-.609h2.813l-.094-1.219h-.266c0 .547-.047.61-.437.61h-1.39C.64 3.266.14 2.859.14 2.25c0-.687.343-.719.75-.719h2.625L3.422.328h-.266c0 .61-.015.61-.719.61H1.235c-.578 0-1.312 0-1.312 1.265 0 .75.578 1.047.64 1.078v.016h-.64Zm0 0"/><path id="Y" d="M.953 3.516c.094 0 .094-.11.094-.125 0-.063 0-.094-.078-.125a1.07 1.07 0 0 1-.797-1.078c0-.485.375-1.204 1.562-1.204 1.141 0 1.579.594 1.579 1.172 0 .078 0 .5-.157.781a.336.336 0 0 0-.344-.265.36.36 0 0 0-.374.375c0 .219.14.375.39.375.485 0 .719-.531.719-1.281 0-1.11-.875-1.86-1.828-1.86C.703.281-.078 1.11-.078 2.11c0 1.125.937 1.407 1.031 1.407m0 0"/><path id="Z" d="M0 2.078h.266c0-.531.03-.562.343-.562h2.907L3.422.359h-.266c0 .516-.047.579-.437.579H.625c-.36 0-.36-.094-.36-.61H0c.031.313.031.766.031.89 0 .095 0 .579-.031.86m4.797-.453a.453.453 0 0 0 .453-.453.45.45 0 0 0-.453-.438.437.437 0 0 0-.438.438c0 .25.204.453.438.453m0 0"/><path id="aa" d="M1 2.813h.438v-.25h-.422c-.547 0-.844-.25-.844-.547 0-.532.687-.532.812-.532h2.188v1.188h.265V1.484h1.47v-.25c-.735 0-1.485-.328-1.516-1.078h-.22v.719H1c-.937 0-1.078.719-1.078 1.078 0 .547.469.86 1.078.86m0 0"/><path id="ab" d="M1.703 3.984c.984 0 1.844-.828 1.844-1.875 0-1.046-.86-1.875-1.844-1.875-1 0-1.781.86-1.781 1.875 0 1.032.781 1.875 1.781 1.875m.063-.703c-.36 0-.797-.015-1.141-.25C.313 2.828.172 2.47.172 2.11c0-.421.203-.765.484-.937.328-.203.719-.219 1.11-.219.312 0 .78 0 1.125.235.28.218.437.546.437.921 0 .422-.203.766-.469.938-.343.219-.765.234-1.093.234m3.484-.11c.172 0 .313-.171.313-.312 0-.03 0-.14-.125-.25l-1.22-1.015-.171.172.937 1.25c.063.078.125.156.266.156m0 0"/><path id="ac" d="M1.719 4.422c1 0 1.797-.813 1.797-1.781 0-.313-.079-.766-.5-1.172h.5L3.422.28h-.266c0 .563-.047.61-.375.61H-.922c-.36 0-.36-.11-.36-.61h-.265c.031.344.031.688.031.907 0 .234 0 .562-.03.906h.265c0-.516 0-.61.36-.61H.39a1.37 1.37 0 0 0-.47 1.047c0 1 .782 1.89 1.798 1.89m0-.719C.812 3.703.14 3.125.14 2.484c0-.28.125-.64.515-.906.14-.094.156-.094.297-.094h1.703c.313.188.61.594.61 1.094 0 .61-.672 1.125-1.547 1.125m0 0"/><path id="ad" d="M.438 1.625a.453.453 0 0 0 .453-.453.436.436 0 0 0-.438-.438.44.44 0 0 0-.453.438.45.45 0 0 0 .438.453m0 0"/><path id="ae" d="M0 3.563h.266V3.28c0-.75.093-.781.39-.781h4.422c.219 0 .219-.016.219-.234-.313-.328-.5-.75-.5-1.5H4.53c0 .218 0 .64.203 1.109H.656c-.297 0-.39-.031-.39-.781V.812H0c.031.329.031 1.016.031 1.376s0 1.046-.031 1.374m0 0"/><path id="af" d="M1.313 3.984h.25v-.843h3.593c.157 0 .219 0 .219-.172 0-.094 0-.11-.11-.188L1.564.234h-.25v2.25H.64c-.297 0-.375-.015-.375-.64v-.172H0l.031 1.14L0 3.954h.266v-.172c0-.625.078-.64.375-.64h.672Zm.25-1.437V.516l2.953 2.03Zm0 0"/><path id="ag" d="M1.422 3.797v-.25c-.156-.016-.547-.078-.703-.172-.063-.047-.063-.656-.063-.781V1.172l.969 1.078c.125.125.39.453.5.594.453.484.89.953 1.61.953.953 0 1.562-.797 1.562-1.781 0-.97-.719-1.594-1.438-1.594-.39 0-.437.312-.437.422 0 .172.11.422.422.422.406 0 .406-.407.406-.5.594.234.781.765.781 1.156 0 .734-.625 1.125-1.297 1.125-.828 0-1.437-.578-2.39-1.531l-1.047-1C.219.422.203.422 0 .422v3.14Zm0 0"/><path id="ah" d="M13.61-7.687v-.516l-1.297.031c-.344 0-1.22 0-1.5-.031v.515c.14 0 1.187 0 1.187.172 0 0 0 .032-.047.141L9.938-2.047l-2.126-5.64h1.125v-.516c-.374.031-1.484.031-1.937.031-.375 0-1.531 0-1.828-.031v.515h1.016l.484 1.297-1.64 4.344-2.126-5.64h1.125v-.516c-.343.031-1.515.031-1.953.031-.375 0-1.515 0-1.812-.031v.515h1L4.109-.171c.079.203.11.281.375.281.266 0 .297-.078.375-.28l2.079-5.5 2.093 5.5c.063.202.094.28.36.28.234 0 .297-.046.375-.28L12.5-7.407c.094-.203.11-.282 1.11-.282m0 0"/><path id="aH" d="M9.953 0v-.516h-.312c-.657 0-.703-.062-.813-.218L5.61-5.047l2.844-2.406c.156-.14.266-.234 1.328-.234v-.516L8.5-8.172c-.36 0-1.297 0-1.594-.031v.515c.266 0 .547.016.86.141l-4.47 3.813v-3.953h1.267v-.516c-.344.031-1.625.031-2.047.031-.438 0-1.72 0-2.063-.031v.515H1.72v7.172H.453V0c.344-.031 1.625-.031 2.063-.031.422 0 1.703 0 2.047.031v-.516H3.297v-2.562L4.53-4.125l2.5 3.344c.016.031.063.094.063.14 0 .125-.578.125-.844.125V0c.39-.031 1.5-.031 1.953-.031.36 0 1.485 0 1.75.031m0 0"/><path id="bh" d="M6.031-2.562h-.5c-.031.25-.11.953-.297 1.062-.093.094-1.03.094-1.203.094h-1.86l1.72-1.422c1.328-1 2.14-1.61 2.14-2.75 0-1.422-1.281-2.266-2.86-2.266-1.343 0-2.5.766-2.5 1.907 0 .625.517.812.782.812.375 0 .813-.25.813-.797 0-.516-.375-.766-.75-.812.484-.547 1.109-.594 1.359-.594 1.11 0 1.625.89 1.625 1.766 0 .921-.625 1.78-1.125 2.296L.781-.546c-.11.109-.11.124-.11.343V0h5.017Zm0 0"/><path id="bi" d="M6.14-2.469c0-1.672-1.156-2.547-2.577-2.547-.235 0-1 0-1.485 1.016v-.328c0-.734.031-1.469.375-2.11.266-.5.875-.968 1.64-.968.235 0 .657.031.954.328-.453.047-.64.39-.64.703 0 .438.312.703.702.703.313 0 .704-.203.704-.719 0-.718-.485-1.453-1.735-1.453-1.5 0-3.516.938-3.516 4.047 0 .813 0 3.938 2.829 3.938 1.578 0 2.75-.922 2.75-2.61m-1.515 0c0 1.172 0 2.14-1.25 2.14-.75 0-1.062-.655-1.11-.75-.156-.39-.156-1.343-.156-1.452 0-1.469.625-2.094 1.329-2.094 1.187 0 1.187.953 1.187 2.156m0 0"/><path id="ai" d="M5.953-1.703c0-.125-.11-.125-.14-.125-.125 0-.141.047-.172.219-.203.765-.422 1.484-.907 1.484-.328 0-.359-.312-.359-.562s.031-.36.156-.875l.266-1.079.422-1.671c.093-.344.093-.36.093-.407 0-.203-.156-.328-.359-.328-.281 0-.453.266-.5.531-.203-.437-.562-.765-1.094-.765-1.406 0-2.875 1.75-2.875 3.5 0 1.125.657 1.906 1.579 1.906.25 0 .843-.047 1.562-.89.094.5.516.89 1.078.89.422 0 .703-.266.89-.656.204-.422.36-1.172.36-1.172M4.313-3.97c0 .078-.016.14-.032.203l-.593 2.344c-.063.219-.063.234-.25.438-.516.656-1.016.859-1.344.859-.594 0-.766-.656-.766-1.125 0-.61.375-2.078.656-2.625.375-.703.907-1.14 1.391-1.14.766 0 .938.968.938 1.046m0 0"/><path id="ay" d="M7.656-6.953c.094-.344.047-.656-.14-.906-.282-.391-.985-.47-1.375-.47-.891 0-1.766.22-2.657.813-.718.485-1.218 1.282-1.421 2.079-.172.718-.235 1.453.156 1.984.406.531 1.094.781 1.844.781.593 0 1.25-.172 1.828-.531l-.25 1.14c-.125.516-.328.97-.578 1.47-.22.374-.5.75-.86 1.046-.469.39-1.031.656-1.578.656-.36 0-.719-.062-.922-.328-.11-.156-.11-.375-.11-.593.016-.157.016-.329-.062-.438a.34.34 0 0 0-.281-.125.75.75 0 0 0-.469.14.84.84 0 0 0-.265.407.98.98 0 0 0 .172.89c.28.391.812.485 1.359.485.984 0 1.984-.406 2.86-1.11.452-.359.78-.812 1.03-1.328.36-.718.61-1.468.797-2.234l.391-1.578-.672.156c-.156.344-.5.828-.687.969-.47.39-1 .547-1.532.547-.5 0-.89-.219-1.156-.563-.36-.484-.312-1.187-.14-1.86a3.62 3.62 0 0 1 1.265-1.952 2.5 2.5 0 0 1 1.547-.516c.297 0 .719.11.922.406.14.188.219.407.14.672-.046.219-.125.469-.328.64-.28.22-.546.25-.828.25l-.093.204c.187.031.468.11.53.11.36 0 .704-.188 1.016-.438.297-.25.47-.563.547-.875m0 0"/><path id="az" d="m10.344-8.156-.172-.11-.375.422c-.14.14-.36.266-.563.266-.078 0-.25-.031-.359-.047a18 18 0 0 1-1.687-.36l.078-.327-.063-.047-.672.297a10 10 0 0 0-.718-.047c-.954 0-1.813.187-2.657.859-.531.438-1.015 1-1.172 1.61-.046.202-.078.406.032.546.093.094.172.172.328.172.125 0 .265-.094.375-.172a.63.63 0 0 0 .219-.36c.03-.124.015-.296.015-.421.016-.172.016-.312.078-.469.047-.187.375-.61.656-.843.563-.438 1.126-.563 1.72-.563a4.5 4.5 0 0 1 .921.094l-.86 3.172H3.704l-.25.343h1.938l-.282 1.047c-.125.422-.25.844-.484 1.25a3 3 0 0 1-.687.875c-.407.375-.97.672-1.47.672-.312 0-.609-.078-.78-.312a1.1 1.1 0 0 1-.188-.407c-.094-.437-.14-.453-.312-.453a.73.73 0 0 0-.438.14c-.125.11-.203.204-.234.345-.063.25-.032.5.125.672.234.328.609.484 1.062.484.969 0 2.031-.39 2.844-1.094.437-.375.672-.687.906-1.094.281-.5.469-1.015.61-1.546l.14-.579h1.469l.344-.343H6.28l.766-2.97c.156.063.937.329 1.422.47.156.062.344.109.5.109.25 0 .531-.219.703-.422Zm0 0"/><path id="aD" d="M6.828-7.234c.063-.282.016-.578-.125-.75-.234-.328-.672-.407-1.125-.407-.719 0-1.406.094-2.062.625-.438.344-.766.829-.891 1.313-.11.469-.11.937.14 1.266.172.25.47.421.782.53l-.031.126a3.46 3.46 0 0 0-1.766.734C1.172-3.328.734-2.719.563-2.062.438-1.532.438-.984.734-.61c.204.265.516.437.829.562.406.14.859.188 1.328.188.89 0 1.797-.328 2.578-.953.11-.079.265-.297.39-.454l-.39-.578-.157.032c-.125.343-.312.656-.593.875-.469.375-1 .656-1.532.656-.562 0-1.14-.094-1.437-.5-.297-.39-.312-.922-.187-1.469.14-.547.453-1.062.921-1.437.344-.266.782-.407 1.157-.5.562-.125 1.109-.157 1.672-.157l.062-.312c-.406 0-.797-.032-1.172-.14-.25-.063-.5-.173-.656-.391-.219-.282-.266-.704-.172-1.125.14-.516.453-1.032.89-1.391.298-.25.688-.313 1.032-.313.281 0 .469.063.61.204a.5.5 0 0 1 .109.468c-.047.203-.157.328-.266.453-.078.094-.14.172-.187.282a.36.36 0 0 0 .03.234c.079.094.126.094.266.094s.422-.078.625-.266c.22-.234.282-.437.344-.687m0 0"/><path id="aj" d="M6.547 0v-.766H5.422l-3.094.032h-.375l4.531-7.078v-.485H.813v.735h2.343c.14 0 .281-.016.422-.016h1.61L.64-.484V0Zm0 0"/><path id="ak" d="M8.328 0v-3.594c0-.828-.219-1.828-1.61-1.828-1.015 0-1.577.703-1.765.969-.203-.766-.86-.969-1.484-.969-.985 0-1.5.625-1.703.875v-.812H.922V0h.906v-2.969c0-.797.313-1.734 1.188-1.734 1.093 0 1.156.75 1.156 1.187V0h.906v-2.969c0-.797.313-1.734 1.188-1.734 1.093 0 1.156.75 1.156 1.187V0Zm0 0"/><path id="al" d="M4.797 0v-3.5c0-1.156-.828-1.984-1.938-1.984-.718 0-1.25.172-1.843.5l.078.78c.515-.374 1.062-.593 1.765-.593.547 0 1.032.453 1.032 1.313v.5c-.547.015-1.266.062-1.985.297C1.11-2.422.641-1.97.641-1.375c0 .531.312 1.5 1.328 1.5.656 0 1.5-.203 1.937-.562V0ZM3.89-1.61c0 .25 0 .532-.407.766-.312.203-.718.25-.906.25-.64 0-1.078-.343-1.078-.797 0-.812 1.656-.984 2.39-.984Zm0 0"/><path id="am" d="M3.797-4.625v-.797c-1.078 0-1.719.64-2.047 1.11V-5.36H.938V0h.875v-2.625c0-1.203.906-1.984 1.984-2m0 0"/><path id="an" d="m3.89-.344-.171-.703c-.422.375-.86.422-1.078.422-.532 0-.594-.562-.594-.984v-3h1.64v-.703h-1.64v-1.516h-.828v1.516h-1v.703h.969v3.203c0 .703.156 1.531.984 1.531.797 0 1.36-.281 1.719-.469m0 0"/><path id="ao" d="M7.766-5.312H6.89l-.703 2.437c-.172.563-.516 1.688-.563 2.203-.047-.281-.234-1.078-.484-1.937l-.797-2.703H3.53L2.844-2.97c-.219.75-.5 1.781-.531 2.282h-.016c-.016-.235-.14-.86-.375-1.672l-.844-2.953H.172L1.766 0h.922c.453-1.5 1.156-3.781 1.218-4.61h.016c.015.485.265 1.344.344 1.626L5.109 0h1.063Zm0 0"/><path id="ap" d="M5.172-5.312h-.89c-.548 1.421-1.47 3.765-1.516 4.625H2.75c-.062-.72-.687-2.282-.797-2.532L1.11-5.312H.172L2.39 0l-.422 1.094c-.266.593-.438.656-.657.656-.171 0-.546-.047-.921-.187l.078.78c.062.016.469.095.844.095.296 0 .843 0 1.359-1.313Zm0 0"/><path id="aq" d="M4.86-.5c0-.031-.032-.406-.048-.453l-.015-.344a2.8 2.8 0 0 1-1.828.672c-1 0-1.64-.875-1.64-2.047 0-.984.484-2.078 1.671-2.078.797 0 1.14.203 1.656.547l.14-.781c-.702-.407-1.093-.5-1.796-.5-1.656 0-2.578 1.453-2.578 2.812C.422-1.14 1.516.125 2.953.125c.578 0 1.25-.156 1.906-.625m0 0"/><path id="ar" d="M5.063 0v-3.594c0-.734-.157-1.828-1.594-1.828-.828 0-1.375.469-1.656.813v-3.688H.922V0h.906v-2.969c0-.75.281-1.734 1.188-1.734 1.109 0 1.14.766 1.14 1.187V0Zm0 0"/><path id="as" d="M4.203-1.516c0-.609-.36-1-.406-1.046-.453-.47-.813-.532-1.531-.672-.438-.094-1.047-.203-1.047-.813 0-.734.843-.734 1-.734.625 0 1.125.14 1.656.437l.14-.765a3.9 3.9 0 0 0-1.687-.375c-.265 0-1.937 0-1.937 1.547 0 .53.297.89.468 1.062.438.36.735.422 1.438.563.39.093 1.078.234 1.078.859 0 .828-.922.828-1.094.828A3.12 3.12 0 0 1 .47-1.219l-.14.813c.046.031.859.531 1.968.531 1.547 0 1.906-.937 1.906-1.64m0 0"/><path id="at" d="m3.688-5.36-.485-.515-.828.719v-3.14H1.5v3.874L.328-3.375l.453.547.719-.656V0h.875v-4.234Zm0 0"/><path id="au" d="M6.797-5.875c0-1.266-1.172-2.422-2.797-2.422H1.094V0h1.015v-3.453H4c1.656 0 2.797-1.188 2.797-2.422m-.953-.016c0 .938-.735 1.75-2.094 1.75H2.094v-3.484H3.75c1.406 0 2.094.828 2.094 1.734m0 0"/><path id="av" d="M5.063 0v-3.594c0-.734-.157-1.828-1.594-1.828-.672 0-1.25.297-1.703.875v-.812H.922V0h.906v-2.969c0-.75.281-1.734 1.188-1.734 1.109 0 1.14.766 1.14 1.187V0Zm0 0"/><path id="aw" d="M2.11-.016v-.953h-.97V0h.298L1.14 1.5h.468Zm0 0"/><path id="ax" d="M4.703 0v-.734H2.984c-.14 0-.28.015-.421.015H1.547l3.11-4.125v-.468H.483v.703h2.953L.329-.484V0Zm0 0"/><path id="aA" d="M1.813 0v-8.297H.938V0Zm0 0"/><path id="aB" d="M4.86-2.687c0-.516-.048-1.25-.423-1.876-.5-.828-1.328-.921-1.671-.921C1.469-5.484.39-4.25.39-2.687.39-1.11 1.547.124 2.92.124c.563 0 1.22-.156 1.876-.64 0-.047-.047-.438-.047-.438s-.031-.281-.031-.328c-.703.593-1.407.687-1.766.687-.922 0-1.703-.828-1.734-2.093Zm-.704-.641h-2.86c.204-.813.767-1.438 1.47-1.438.359 0 1.187.157 1.39 1.438m0 0"/><path id="aC" d="M5.063 0v-5.312h-.907v3.421c0 .907-.625 1.36-1.406 1.36-.844 0-.922-.313-.922-.844v-3.937H.922v3.984c0 .86.265 1.453 1.25 1.453.344 0 1.281-.062 2.015-.719V0Zm0 0"/><path id="aE" d="M2.14.703v-6.015h-.89v6.14c0 .781-.625.86-.875.86-.531 0-.86-.344-.875-.375l-.234.718c.375.235.859.406 1.406.406.75 0 1.469-.624 1.469-1.734m0-7.5v-1.016H1.11v1.016Zm0 0"/><path id="aF" d="M2.344-8.297h-.969l.094 6.235h.781Zm0 8.297v-.969h-.969V0Zm0 0"/><path id="aG" d="M7.406 0 4.391-8.297H3.328L.328 0h.875l.875-2.422h3.375L6.328 0ZM5.203-3.094h-2.86l1.423-4.344Zm0 0"/><path id="aI" d="M7.969-4.125c0-2.531-1.719-4.422-3.657-4.422-1.984 0-3.671 1.922-3.671 4.422C.64-1.609 2.375.25 4.297.25c1.984 0 3.672-1.875 3.672-4.375m-1.032-.172C6.938-1.953 5.658-.5 4.313-.5c-1.39 0-2.64-1.5-2.64-3.797 0-2.203 1.297-3.516 2.625-3.516 1.375 0 2.64 1.344 2.64 3.516m0 0"/><path id="aJ" d="M4.203-1.516c0-.609-.36-1-.406-1.046-.453-.47-.813-.532-1.531-.672-.438-.094-1.047-.203-1.047-.813 0-.734.843-.734 1-.734.625 0 1.125.14 1.656.437l.14-.765a3.9 3.9 0 0 0-1.687-.375c-.265 0-1.937 0-1.937 1.547 0 .53.297.89.468 1.062.438.36.735.422 1.438.563.39.093 1.078.234 1.078.859 0 .828-.922.828-1.094.828A3.12 3.12 0 0 1 .47-1.219l-.14.813c.046.031.859.531 1.968.531 1.547 0 1.906-.937 1.906-1.64m-.312-6.78h-.922l-1.547 2h.719Zm0 0"/><path id="aK" d="M1.813 0v-5.312H.938V0Zm.078-6.797v-1.016H.859v1.016Zm0 0"/><path id="aL" d="m5.672-4.703-.125-.719c-.234 0-1.047 0-1.828.39-.39-.327-.875-.39-1.11-.39-1.046 0-1.875.875-1.875 1.922 0 .422.125.828.391 1.188a1.64 1.64 0 0 0-.344 1.015c0 .453.156.75.297.906C.468 0 .328.516.328.844c0 .875 1.125 1.61 2.594 1.61 1.453 0 2.594-.704 2.594-1.61 0-1.688-1.938-1.688-2.422-1.688H2.078c-.172 0-.672 0-.672-.625 0-.265.047-.343.11-.437.203.14.593.343 1.078.343 1.031 0 1.875-.859 1.875-1.937a2.13 2.13 0 0 0-.36-1.156 7 7 0 0 1 .954-.063c.046 0 .312 0 .609.016M3.64-3.5c0 1.063-.672 1.281-1.032 1.281-.53 0-1.062-.36-1.062-1.265 0-1.063.672-1.282 1.047-1.282.531 0 1.047.36 1.047 1.266M4.688.844c0 .562-.829.953-1.766.953-.922 0-1.766-.375-1.766-.953 0-.047 0-.813.907-.813h1.046c.266 0 1.579 0 1.579.813m0 0"/><path id="aM" d="M5.063 0v-8.297h-.891v3.485a2.65 2.65 0 0 0-1.688-.61c-1.14 0-2.062 1.219-2.062 2.766S1.297.125 2.437.125c.438 0 1.11-.156 1.704-.734V0ZM4.14-1.406c-.282.515-.703.812-1.22.812-.733 0-1.593-.562-1.593-2.047 0-1.593 1.016-2.062 1.703-2.062.469 0 .86.234 1.11.625Zm0 0"/><path id="aN" d="M4.86-6.562c0-.922-.563-1.86-2.25-1.86-.938 0-1.61.375-1.97.64l.266.735a2.5 2.5 0 0 1 1.719-.656c.64 0 1.328.156 1.328 1.125 0 .547-.25.766-.453.937C2.828-5.062 2.203-4 2.203-2.67v.608h.766v-.578c0-1.28.781-2.125 1.234-2.5.25-.203.656-.593.656-1.421M3.077 0v-.969H2.11V0Zm0 0"/><path id="aO" d="M7-.453v-3.172H4.547v.719h1.531v2.031a4.6 4.6 0 0 1-1.531.25c-.766 0-1.469-.422-1.938-1.031-.546-.703-.796-1.594-.796-2.485 0-.906.25-1.796.796-2.5.47-.609 1.172-1.03 1.938-1.03.39 0 .797.046 1.172.187.375.14.718.375 1.015.64l.172-1c-.36-.187-.734-.36-1.14-.453a5.4 5.4 0 0 0-1.22-.125c-1.03 0-1.984.469-2.655 1.25C1.14-6.344.78-5.266.78-4.14c0 1.094.36 2.188 1.11 3.016.672.766 1.625 1.25 2.656 1.25C5.39.125 6.234-.078 7-.453m0 0"/><path id="aP" d="M5.484-2.625c0-1.625-1.187-2.86-2.562-2.86-1.406 0-2.563 1.266-2.563 2.86 0 1.563 1.188 2.75 2.563 2.75 1.406 0 2.562-1.219 2.562-2.75m-.906-.125c0 1.469-.844 2.125-1.656 2.125-.86 0-1.656-.719-1.656-2.125 0-1.453.89-2.016 1.656-2.016.812 0 1.656.625 1.656 2.016m0 0"/><path id="aQ" d="M4.86-.5c0-.031-.032-.406-.048-.453l-.015-.344a2.8 2.8 0 0 1-1.828.672c-1 0-1.64-.875-1.64-2.047 0-.984.484-2.078 1.671-2.078.797 0 1.14.203 1.656.547l.14-.781c-.702-.407-1.093-.5-1.796-.5-1.656 0-2.578 1.453-2.578 2.812C.422-1.14 1.516.125 2.953.125c.578 0 1.25-.156 1.906-.625M4.5-8.297h-.922l-1.547 2h.719Zm0 0"/><path id="aR" d="M4.86-2.687c0-.516-.048-1.25-.423-1.876-.5-.828-1.328-.921-1.671-.921C1.469-5.484.39-4.25.39-2.687.39-1.141 1.5.078 2.844.124c-.531.344-.875.828-.828 1.39 0 .516.375 1.016 1.172 1.016.39 0 .703-.062 1.171-.297l-.156-.703c-.266.11-.547.172-.812.172-.328-.031-.625-.094-.625-.453-.016-.531.5-.969 1.047-1.281.328-.094.64-.25.984-.485 0-.046-.047-.437-.047-.437s-.031-.281-.031-.328c-.703.593-1.407.687-1.766.687-.922 0-1.703-.828-1.734-2.093Zm-.704-.641h-2.86c.204-.813.767-1.438 1.47-1.438.359 0 1.187.157 1.39 1.438m0 0"/><path id="aS" d="M2.11 0v-.969h-.97V0Zm2.03 0v-.969h-.968V0Zm2.048 0v-.969h-.97V0Zm0 0"/><path id="aT" d="M7.203 0 4.86-3.89c1.313-.376 2.016-1.282 2.016-2.172 0-1.188-1.281-2.235-2.969-2.235H1.094V0h1v-3.797h1.86L6.171 0ZM5.922-6.062c0 .75-.64 1.562-2.14 1.562H2.093v-3.125H3.78c1.438 0 2.14.766 2.14 1.563m0 0"/><path id="aU" d="M5.563-2.672c0-1.469-.782-2.75-1.891-2.75-.344 0-1.11.063-1.86.672v-3.547H.939V0h.906v-.531c.547.515 1.125.656 1.547.656 1.14 0 2.172-1.172 2.172-2.797m-.907 0c0 1.563-.968 2.078-1.703 2.078-.328 0-.562-.125-.781-.297-.281-.25-.328-.453-.328-.656V-4.03c.218-.328.64-.672 1.234-.672.719 0 1.578.547 1.578 2.031m0 0"/><path id="aV" d="M4.703 0v-.734H2.984c-.14 0-.28.015-.421.015H1.547l3.11-4.125v-.468H.483v.703h2.953L.329-.484V0ZM3.047-6.797v-1.016H2.016v1.016Zm0 0"/><path id="aW" d="M2.11 0v-.969h-.97V0Zm0 0"/><path id="aX" d="M7.75-4.078c0-2.328-1.578-4.219-3.594-4.219H1.094V0h3.062c2 0 3.594-1.812 3.594-4.078m-1-.016c0 2.188-1.328 3.422-2.86 3.422H2.095v-6.953H3.89c1.593 0 2.859 1.375 2.859 3.531m0 0"/><path id="aY" d="M5.469 0 3.25-3.266l1.969-2.046h-1.11L1.813-2.906v-5.39H.938V0h.828v-1.719l.906-.953L4.5 0Zm0 0"/><path id="aZ" d="m5.219 2.234-.157-.703c-.265.11-.546.172-.812.172-.328-.031-.61-.094-.625-.453C3.609.719 4.109.313 4.656 0h.14v-3.5c0-1.156-.827-1.984-1.937-1.984-.718 0-1.25.172-1.843.5l.078.78c.515-.374 1.062-.593 1.765-.593.547 0 1.032.453 1.032 1.313v.5c-.547.015-1.266.062-1.985.297C1.11-2.422.641-1.97.641-1.375c0 .531.312 1.5 1.328 1.5.656 0 1.5-.203 1.937-.562V0c-.594.328-1.078.906-1.031 1.516 0 .515.375 1.015 1.172 1.015.406 0 .703-.062 1.172-.297M3.89-1.609c0 .25 0 .53-.407.765-.312.203-.718.25-.906.25-.64 0-1.078-.343-1.078-.797 0-.812 1.656-.984 2.39-.984Zm0 0"/><path id="ba" d="M5.484-2.625c0-1.625-1.187-2.86-2.562-2.86-1.406 0-2.563 1.266-2.563 2.86 0 1.563 1.188 2.75 2.563 2.75 1.406 0 2.562-1.219 2.562-2.75m-.906-.125c0 1.469-.844 2.125-1.656 2.125-.86 0-1.656-.719-1.656-2.125 0-1.453.89-2.016 1.656-2.016.812 0 1.656.625 1.656 2.016m-.016-5.547h-.906l-1.547 2h.72Zm0 0"/><path id="bb" d="M5.563-2.672c0-1.437-.75-2.75-1.875-2.75-.485 0-1.25.156-1.876.672v-.562H.939v7.625h.906V-.531c.406.36.906.656 1.547.656 1.156 0 2.172-1.172 2.172-2.797m-.907.016c0 1.203-.812 2.062-1.703 2.062-.328 0-.562-.125-.781-.297-.297-.25-.328-.468-.328-.656v-2.469a1.47 1.47 0 0 1 1.219-.671c.874 0 1.593.89 1.593 2.03m0 0"/><path id="bc" d="M7.547 0 4.28-5.016l3.125-3.28H6.281L2.094-3.892v-4.406h-1V0h1v-2.703L3.64-4.328 6.453 0Zm0 0"/><path id="bd" d="M4.531-1.766v-6.53h-1v6.483c0 .688-.344 1.329-1.39 1.329a1.96 1.96 0 0 1-1.485-.657L.484-.25c.704.36 1.375.5 2 .5 1.25 0 2.047-.734 2.047-2.016m0 0"/><path id="be" d="M7.094 0v-8.297h-.907V-.89h-.015l-.969-2-2.64-5.406h-1.47V0h.923v-7.406l.968 2L5.625 0Zm0 0"/><path id="bj" d="M5.547 0v-.25h-.125c-.469 0-.516-.078-.594-.266L3.125-4.812c-.031-.11-.062-.157-.187-.157-.141 0-.157.047-.204.157L1.125-.734C1.063-.562.938-.25.313-.25V0c.234-.016.484-.031.718-.031.282 0 .797.031.844.031v-.25c-.312 0-.516-.14-.516-.328 0-.063.016-.078.047-.14l.328-.86H3.72l.406 1.016c0 .03.031.078.031.109 0 .203-.375.203-.562.203V0l1.031-.031c.328 0 .86.031.922.031M3.609-1.828H1.83l.89-2.266Zm0 0"/><path id="bk" d="M4.047 0v-.25c-.469 0-.516-.047-.516-.39v-4.204l-1.047.078v.25c.47 0 .516.063.516.391v1.453a1.37 1.37 0 0 0-.969-.406c-.937 0-1.703.703-1.703 1.578S1.062.063 1.938.063c.578 0 .921-.297 1.03-.422v.422ZM2.969-.734c-.172.328-.531.609-.985.609-.39 0-.671-.234-.812-.437-.14-.204-.219-.485-.219-.922 0-.172 0-.688.281-1.016.282-.312.625-.375.829-.375.328 0 .64.156.828.406.078.11.078.11.078.25Zm0 0"/><path id="bl" d="M5.469-2.75V-3c-.188.016-.313.031-.5.031-.219 0-.485-.015-.688-.031v.25c.235 0 .36.14.36.297 0 .062 0 .078-.047.172L3.922-.547l-.75-1.906a.3.3 0 0 1-.031-.125c0-.156.172-.172.375-.172V-3c-.25.016-.5.031-.75.031-.203 0-.422-.015-.625-.031v.25c.172 0 .312 0 .406.047.094.078.156.312.156.312s-.015.063-.031.079L2.016-.641l-.703-1.812c-.032-.094-.032-.094-.032-.125 0-.172.25-.172.375-.172V-3s-.515.031-.797.031C.641-2.969.422-2.984.203-3v.25c.281 0 .438 0 .5.203l.969 2.453c.047.11.062.157.203.157.125 0 .14-.047.172-.141l.797-1.984.765 1.968c.047.094.063.157.204.157.124 0 .14-.047.187-.157l.875-2.234c.14-.344.375-.422.594-.422m0 0"/><path id="bm" d="M3.266-.844c0-.015-.016-.094-.125-.094-.094 0-.11.047-.125.11-.22.562-.75.672-1 .672-.328 0-.641-.14-.844-.406-.266-.329-.266-.75-.266-1.032h2.157c.156 0 .203 0 .203-.14 0-.625-.344-1.375-1.391-1.375a1.59 1.59 0 0 0-1.61 1.578c0 .89.782 1.594 1.704 1.594.937 0 1.297-.75 1.297-.907m-.485-.922H.906c.078-.984.703-1.14.969-1.14.86 0 .89.969.906 1.14m0 0"/><path id="bn" d="M4.11 0v-.25c-.454 0-.516 0-.516-.297v-1.562c0-.61-.297-.97-1.047-.97-.578 0-.938.313-1.14.688v-.687L.374-3v.25c.469 0 .531.047.531.39v1.813c0 .297-.078.297-.531.297V0s.5-.031.797-.031c.25 0 .734.031.797.031v-.25c-.453 0-.516 0-.516-.297v-1.265c0-.72.578-1.063 1.031-1.063.485 0 .547.375.547.734v1.594c0 .297-.062.297-.515.297V0s.5-.031.797-.031c.25 0 .734.031.796.031m0 0"/><path id="bo" d="M2.61-.875v-.39h-.235v.374c0 .485-.219.735-.5.735-.469 0-.469-.578-.469-.703V-2.75h1.078V-3H1.406v-1.281h-.25c0 .625-.281 1.312-.953 1.328v.203h.64v1.875c0 .781.595.938.985.938.469 0 .781-.391.781-.938m0 0"/><path id="bp" d="M3.516-1.266H3.28c-.015.157-.094.563-.187.625-.047.047-.578.047-.688.047H1.125c.734-.64.984-.843 1.39-1.172.516-.406 1-.843 1-1.5 0-.843-.734-1.359-1.624-1.359-.86 0-1.453.61-1.453 1.25 0 .344.296.39.375.39.156 0 .359-.124.359-.374 0-.125-.047-.375-.406-.375.218-.485.687-.641 1.015-.641.703 0 1.063.547 1.063 1.11 0 .609-.438 1.078-.656 1.328L.516-.266C.437-.203.437-.187.437 0h2.876Zm0 0"/><path id="bq" d="M3.594-2.219c0-.765-.094-1.328-.406-1.812-.22-.313-.657-.594-1.204-.594C.36-4.625.36-2.719.36-2.219s0 2.36 1.625 2.36c1.61 0 1.61-1.86 1.61-2.36m-.625-.094c0 .516 0 1.032-.094 1.47-.14.64-.61.78-.89.78-.329 0-.75-.187-.891-.75C1-1.219 1-1.796 1-2.312c0-.515 0-1.046.094-1.421.156-.547.593-.703.89-.703.375 0 .735.234.86.64.11.375.125.875.125 1.485m0 0"/><path id="br" d="M3.516-1.406c0-.782-.594-1.5-1.453-1.5-.313 0-.672.062-.985.328v-1.313c.36.094.563.094.672.094.922 0 1.469-.625 1.469-.734 0-.078-.047-.094-.078-.094 0 0-.032 0-.063.016-.172.062-.531.203-1.047.203-.203 0-.562-.016-1.015-.188-.079-.031-.094-.031-.094-.031-.094 0-.094.078-.094.188v2.046c0 .125 0 .204.11.204.062 0 .078 0 .14-.094.297-.375.734-.438.969-.438.422 0 .61.328.64.39.126.235.172.5.172.907 0 .203 0 .61-.218.922a.98.98 0 0 1-.813.422c-.453 0-.922-.25-1.094-.719.266.016.407-.156.407-.344 0-.296-.266-.343-.36-.343 0 0-.343 0-.343.375 0 .625.578 1.25 1.406 1.25.89 0 1.672-.657 1.672-1.547m0 0"/><path id="bs" d="M7.813-1.75v-.203H.109v.203Zm0 0"/><path id="bt" d="M3.578-2.297c0-1.719-.765-2.328-1.578-2.328a1.55 1.55 0 0 0-1.11.422c-.234.234-.515.5-.515 1.125 0 .89.703 1.547 1.516 1.547.562 0 .859-.375 1.015-.688v.14c0 1.735-.844 2-1.265 2-.157 0-.532-.015-.72-.233a.315.315 0 0 0 .313-.329.32.32 0 0 0-.328-.328c-.203 0-.328.14-.328.344 0 .469.39.766 1.063.766 1 0 1.937-.938 1.937-2.438M2.891-3c0 .906-.516 1.266-.953 1.266-.282 0-.532-.079-.735-.407-.156-.25-.156-.546-.156-.937 0-.406 0-.672.203-.953.172-.25.39-.39.75-.39s.578.218.688.405c.187.282.203.782.203 1.016m0 0"/><path id="bu" d="M2.516 0v-.25h-.172c-.578 0-.578-.078-.578-.328v-3.61c0-.234 0-.328.578-.328h.172v-.25l-1.078.032-1.079-.032v.25h.172c.578 0 .578.094.578.329v3.609c0 .25 0 .328-.578.328H.36V0l1.079-.031Zm0 0"/><path id="bv" d="M3.578-1.422c0-.89-.703-1.547-1.515-1.547-.563 0-.86.375-1.016.688 0-.563.047-1.078.312-1.516.235-.375.61-.625 1.063-.625.203 0 .484.047.625.234-.172.016-.328.141-.328.344a.32.32 0 0 0 .328.328c.219 0 .344-.14.344-.343 0-.407-.297-.766-.985-.766-1 0-2.031.922-2.031 2.422C.375-.406 1.219.14 2 .14c.844 0 1.578-.657 1.578-1.563m-.672 0c0 .39 0 .688-.187.969A.82.82 0 0 1 2-.078c-.36 0-.625-.203-.781-.516-.094-.203-.157-.562-.157-.968 0-.688.407-1.204.97-1.204.312 0 .53.125.702.375.172.266.172.563.172.97m0 0"/><path id="bw" d="M2.016 1.734v-.328h-.72V-4.89h.72v-.328H.953v6.953Zm0 0"/><path id="bx" d="M3.578-1.203c0-.547-.437-1.094-1.203-1.25.719-.266.984-.781.984-1.219 0-.547-.625-.953-1.406-.953-.766 0-1.36.375-1.36.938 0 .234.157.359.36.359.219 0 .36-.156.36-.344 0-.203-.141-.36-.36-.375.25-.297.719-.375.985-.375.312 0 .75.156.75.75 0 .297-.094.625-.282.828-.219.266-.422.281-.765.313-.172.015-.188.015-.22.015 0 0-.077.016-.077.094 0 .094.062.094.187.094h.375c.547 0 .938.375.938 1.125 0 .86-.516 1.125-.906 1.125-.282 0-.907-.078-1.188-.5.328 0 .406-.235.406-.39 0-.22-.172-.376-.39-.376a.38.38 0 0 0-.391.407C.375-.281 1.094.14 1.938.14c.968 0 1.64-.657 1.64-1.344m0 0"/><path id="by" d="M3.297 0v-.25H3.03c-.703 0-.703-.094-.703-.328v-3.86c0-.187 0-.187-.203-.187-.453.438-1.078.438-1.36.438v.25c.157 0 .626 0 1-.188v3.547c0 .234 0 .328-.687.328H.812V0l1.235-.031Zm0 0"/><path id="bz" d="M1.297 1.734v-6.953H.219v.328h.734v6.297H.22v.328Zm0 0"/><path id="bA" d="M3.578-1.172c0-.469-.265-.86-.672-1.094l-.437-.25c.547-.265.89-.593.89-1.078 0-.672-.703-1.031-1.375-1.031-.765 0-1.39.5-1.39 1.156 0 .328.156.563.281.703.125.157.172.188.578.422-.39.172-1.078.547-1.078 1.281 0 .766.797 1.204 1.594 1.204.89 0 1.61-.563 1.61-1.313M3-3.594c0 .625-.734.938-.734.938s-.032 0-.079-.031l-.843-.485c-.188-.11-.375-.297-.375-.562 0-.438.5-.688 1-.688.547 0 1.031.344 1.031.828m.156 2.657c0 .53-.578.859-1.172.859-.64 0-1.187-.422-1.187-.984 0-.516.375-.922.875-1.141.39.219.406.219.969.547.172.11.515.312.515.718m0 0"/><path id="bB" d="M4.563 0v-.437H3.266v-5.157c0-.187 0-.297-.266-.297-.11 0-.125 0-.203.063-.688.516-1.656.516-1.828.516H.797v.437h.172a4.2 4.2 0 0 0 1.203-.172v4.61H.89V0c.343-.031 1.422-.031 1.828-.031.422 0 1.484 0 1.844.031m0 0"/><path id="bC" d="M4.86-2.953c0-.469-.032-1.39-.485-2.094-.297-.437-.828-.844-1.719-.844-1.281 0-2.218.72-2.218 1.938 0 1.125.765 1.937 2.093 1.937.406 0 .781-.203 1.063-.687v.172c0 .578-.063 1.156-.235 1.531-.109.234-.468.703-1.171.703-.079 0-.454 0-.735-.187a.55.55 0 0 0 .422-.563c0-.375-.281-.578-.578-.578-.25 0-.594.14-.594.594 0 .61.469 1.14 1.5 1.14 1.25 0 2.656-.796 2.656-3.062m-1.266-.89c0 .406-.172 1.452-1.031 1.452-.86 0-.86-.656-.86-1.53 0-.876 0-1.61.984-1.61.563 0 .766.515.797.593.11.297.11.782.11 1.094m0 0"/><path id="bD" d="M4.86-1.61c0-.718-.532-1.327-1.548-1.546.907-.313 1.25-.938 1.25-1.485 0-.671-.671-1.25-2-1.25-1.109 0-1.828.594-1.828 1.329 0 .406.282.656.641.656.39 0 .656-.281.656-.656 0-.297-.172-.547-.531-.625.063-.063.438-.344 1.016-.344.78 0 .78.593.78.875 0 .5-.187 1.281-.968 1.328l-.422.031c-.14.016-.14.11-.14.172 0 .188.093.188.265.188h.422c1 0 1 .874 1 1.328 0 .406 0 1.312-.953 1.312-.11 0-.734-.016-1.14-.312.406-.11.5-.47.5-.672 0-.422-.298-.703-.72-.703-.374 0-.702.25-.702.703 0 .843.906 1.39 2.093 1.39 1.64 0 2.328-.906 2.328-1.718m0 0"/><clipPath id="b"><path d="M.535.266h6.883v9.636H.535Zm0 0"/></clipPath><clipPath id="a"><path d="M0 0h8v10H0z"/></clipPath><clipPath id="bf"><path d="M15.023 568.348H403v11.336H15.023Zm0 0"/></clipPath><linearGradient id="bg" x1="0" x2="388.063" y1="0" y2="0" gradientTransform="matrix(1 0 0 -1 15.024 579.685)" gradientUnits="userSpaceOnUse"><stop offset="0" stop-color="#f2f2f2"/><stop offset=".25" stop-color="#f2f2f2"/><stop offset=".313" stop-color="#f2f2f2"/><stop offset=".344" stop-color="#f2f2f2"/><stop offset=".359" stop-color="#f3f3f3"/><stop offset=".363" stop-color="#f4f4f4"/><stop offset=".367" stop-color="#f5f5f5"/><stop offset=".371" stop-color="#f6f6f6"/><stop offset=".375" stop-color="#f7f7f7"/><stop offset=".379" stop-color="#f8f8f8"/><stop offset=".383" stop-color="#f9f9f9"/><stop offset=".387" stop-color="#fafafa"/><stop offset=".391" stop-color="#fbfbfb"/><stop offset=".395" stop-color="#fcfcfc"/><stop offset=".398" stop-color="#fcfcfc"/><stop offset=".406" stop-color="#fcfcfc"/><stop offset=".438" stop-color="#fcfcfc"/><stop offset=".5" stop-color="#fcfcfc"/><stop offset=".563" stop-color="#fcfcfc"/><stop offset=".566" stop-color="#fcfcfc"/><stop offset=".57" stop-color="#fbfbfb"/><stop offset=".574" stop-color="#fafafa"/><stop offset=".578" stop-color="#f9f9f9"/><stop offset=".582" stop-color="#f8f8f8"/><stop offset=".586" stop-color="#f7f7f7"/><stop offset=".59" stop-color="#f6f6f6"/><stop offset=".594" stop-color="#f5f5f5"/><stop offset=".598" stop-color="#f4f4f4"/><stop offset=".602" stop-color="#f3f3f3"/><stop offset=".609" stop-color="#f3f3f3"/><stop offset=".625" stop-color="#f2f2f2"/><stop offset=".75" stop-color="#f2f2f2"/><stop offset="1" stop-color="#f2f2f2"/></linearGradient><g id="c" clip-path="url(#a)"><g clip-path="url(#b)"><path fill-rule="evenodd" d="m3.977 7.836 3.441 2.066V1.645c0-.762-.617-1.38-1.375-1.38H1.914C1.152.266.535.884.535 1.646v8.257Zm-2.754.851 2.754-1.652L6.73 8.687V1.646a.69.69 0 0 0-.687-.692H1.914a.69.69 0 0 0-.691.692Zm0 0"/></g></g></defs><use xlink:href="#c" transform="translate(9 27)"/><use xlink:href="#d" x="17.008" y="23.315"/><use xlink:href="#e" x="20.884" y="23.315"/><use xlink:href="#f" x="26.154" y="23.315"/><use xlink:href="#g" x="384.039" y="23.315"/><use xlink:href="#h" x="390.168" y="23.315"/><use xlink:href="#i" x="392.79" y="23.315"/><use xlink:href="#j" x="396.727" y="23.315"/><use xlink:href="#k" x="112.948" y="34.908"/><use xlink:href="#l" x="120.982" y="34.908"/><use xlink:href="#m" x="131.347" y="34.908"/><use xlink:href="#n" x="137.253" y="34.908"/><use xlink:href="#o" x="141.7" y="34.908"/><use xlink:href="#p" x="146.159" y="34.908"/><use xlink:href="#q" x="155.054" y="34.908"/><use xlink:href="#r" x="161.031" y="34.908"/><use xlink:href="#s" x="166.877" y="34.908"/><use xlink:href="#p" x="173.584" y="34.908"/><use xlink:href="#t" x="182.478" y="34.908"/><use xlink:href="#o" x="187.523" y="34.908"/><use xlink:href="#m" x="192.353" y="34.908"/><use xlink:href="#u" x="198.63" y="34.908"/><use xlink:href="#v" x="207.572" y="34.908"/><use xlink:href="#m" x="215.606" y="34.908"/><use xlink:href="#w" x="221.882" y="34.908"/><use xlink:href="#x" x="237.556" y="34.908"/><use xlink:href="#y" x="241.142" y="34.908"/><use xlink:href="#z" x="247.096" y="34.908"/><use xlink:href="#A" x="253.246" y="34.908"/><use xlink:href="#B" x="257.595" y="34.908"/><use xlink:href="#y" x="262.087" y="34.908"/><use xlink:href="#C" x="266.696" y="34.908"/><use xlink:href="#D" x="271.304" y="34.908"/><use xlink:href="#C" x="275.213" y="34.908"/><use xlink:href="#E" x="279.822" y="34.908"/><use xlink:href="#F" x="284.43" y="34.908"/><use xlink:href="#C" x="289.039" y="34.908"/><use xlink:href="#G" x="293.647" y="34.908"/><use xlink:href="#H" x="298.256" y="34.908"/><path fill="none" stroke="#000" stroke-miterlimit="10" stroke-width=".398" d="M17.008 39.293h384.094"/><use xlink:href="#I" x="399.042" y="96.661"/><use xlink:href="#J" x="399.042" y="90.428"/><use xlink:href="#K" x="399.042" y="88.077"/><use xlink:href="#L" x="399.042" y="84.738"/><use xlink:href="#K" x="399.042" y="80.036"/><use xlink:href="#M" x="399.042" y="76.696"/><use xlink:href="#J" x="399.042" y="72.934"/><use xlink:href="#N" x="399.042" y="70.583"/><use xlink:href="#O" x="399.042" y="67.292"/><use xlink:href="#P" x="399.042" y="60.238"/><use xlink:href="#Q" x="399.042" y="55.536"/><use xlink:href="#R" x="399.042" y="53.185"/><use xlink:href="#S" x="399.042" y="48.953"/><use xlink:href="#T" x="399.042" y="44.721"/><use xlink:href="#U" x="403.164" y="40.487"/><use xlink:href="#V" x="403.164" y="46.72"/><use xlink:href="#W" x="403.164" y="50.481"/><use xlink:href="#X" x="403.164" y="53.821"/><use xlink:href="#Y" x="403.164" y="58.523"/><use xlink:href="#Z" x="403.164" y="62.285"/><use xlink:href="#aa" x="403.164" y="64.636"/><use xlink:href="#ab" x="403.164" y="67.928"/><use xlink:href="#ac" x="403.164" y="74.973"/><use xlink:href="#ad" x="403.164" y="79.676"/><use xlink:href="#ae" x="403.164" y="82.027"/><use xlink:href="#af" x="403.164" y="86.259"/><use xlink:href="#ag" x="403.164" y="90.491"/><use xlink:href="#ah" x="27.058" y="61.174"/><use xlink:href="#ai" x="46.927" y="51.089" fill="red"/><use xlink:href="#aj" x="46.927" y="61.174"/><use xlink:href="#ak" x="54.076" y="61.174"/><use xlink:href="#al" x="63.329" y="61.174"/><use xlink:href="#am" x="68.613" y="61.174"/><use xlink:href="#an" x="72.594" y="61.174"/><use xlink:href="#ao" x="76.504" y="61.174"/><use xlink:href="#ap" x="84.466" y="61.174"/><use xlink:href="#aq" x="89.822" y="61.174"/><use xlink:href="#ar" x="95.022" y="61.174"/><use xlink:href="#ao" x="101.023" y="61.174"/><use xlink:href="#as" x="108.985" y="61.174"/><use xlink:href="#an" x="113.469" y="61.174"/><use xlink:href="#al" x="117.701" y="61.174"/><use xlink:href="#at" x="123.307" y="61.174"/><use xlink:href="#au" x="130.959" y="61.174"/><use xlink:href="#al" x="138.084" y="61.174"/><use xlink:href="#av" x="143.691" y="61.174"/><use xlink:href="#aw" x="149.692" y="61.174"/><use xlink:href="#ax" x="46.927" y="82.818"/><use xlink:href="#ak" x="52.008" y="82.818"/><use xlink:href="#al" x="61.261" y="82.818"/><use xlink:href="#am" x="66.545" y="82.818"/><use xlink:href="#an" x="70.526" y="82.818"/><use xlink:href="#ao" x="74.435" y="82.818"/><use xlink:href="#ap" x="82.397" y="82.818"/><use xlink:href="#aq" x="87.753" y="82.818"/><use xlink:href="#ar" x="92.954" y="82.818"/><use xlink:href="#ao" x="98.955" y="82.818"/><use xlink:href="#as" x="106.917" y="82.818"/><use xlink:href="#an" x="111.4" y="82.818"/><use xlink:href="#al" x="115.632" y="82.818"/><use xlink:href="#at" x="121.239" y="82.818"/><use xlink:href="#ay" x="128.892" y="72.733" fill="red"/><use xlink:href="#au" x="128.892" y="82.818"/><use xlink:href="#al" x="136.017" y="82.818"/><use xlink:href="#av" x="141.624" y="82.818"/><use xlink:href="#aw" x="147.625" y="82.818"/><use xlink:href="#ax" x="46.927" y="104.462"/><use xlink:href="#ak" x="52.008" y="104.462"/><use xlink:href="#al" x="61.261" y="104.462"/><use xlink:href="#am" x="66.545" y="104.462"/><use xlink:href="#an" x="70.526" y="104.462"/><use xlink:href="#ao" x="74.435" y="104.462"/><use xlink:href="#ap" x="82.397" y="104.462"/><use xlink:href="#aq" x="87.753" y="104.462"/><use xlink:href="#ar" x="92.954" y="104.462"/><use xlink:href="#ao" x="98.955" y="104.462"/><use xlink:href="#as" x="106.917" y="104.462"/><use xlink:href="#an" x="111.4" y="104.462"/><use xlink:href="#al" x="115.632" y="104.462"/><use xlink:href="#at" x="121.239" y="104.462"/><use xlink:href="#az" x="128.892" y="94.376" fill="red"/><use xlink:href="#au" x="128.892" y="104.462"/><use xlink:href="#al" x="136.017" y="104.462"/><use xlink:href="#av" x="141.624" y="104.462"/><use xlink:href="#aw" x="147.625" y="104.462"/><use xlink:href="#al" x="46.927" y="126.105"/><use xlink:href="#aA" x="52.534" y="126.105"/><use xlink:href="#aA" x="55.284" y="126.105"/><use xlink:href="#aB" x="58.033" y="126.105"/><use xlink:href="#aA" x="63.234" y="126.105"/><use xlink:href="#aC" x="65.983" y="126.105"/><use xlink:href="#aD" x="71.985" y="116.02" fill="red"/><use xlink:href="#aE" x="71.985" y="126.105"/><use xlink:href="#al" x="75.069" y="126.105"/><use xlink:href="#aF" x="80.676" y="126.105"/><use xlink:href="#aG" x="46.927" y="153.727"/><use xlink:href="#aA" x="54.662" y="153.727"/><use xlink:href="#aA" x="57.412" y="153.727"/><use xlink:href="#aB" x="60.161" y="153.727"/><use xlink:href="#aA" x="65.362" y="153.727"/><use xlink:href="#aC" x="68.111" y="153.727"/><use xlink:href="#ai" x="74.113" y="143.641" fill="red"/><use xlink:href="#aE" x="74.113" y="153.727"/><use xlink:href="#al" x="77.197" y="153.727"/><use xlink:href="#aw" x="82.804" y="153.727"/><use xlink:href="#al" x="46.927" y="175.37"/><use xlink:href="#aA" x="52.534" y="175.37"/><use xlink:href="#aA" x="55.284" y="175.37"/><use xlink:href="#aB" x="58.033" y="175.37"/><use xlink:href="#aA" x="63.234" y="175.37"/><use xlink:href="#aC" x="65.983" y="175.37"/><use xlink:href="#ay" x="71.985" y="165.285" fill="red"/><use xlink:href="#aE" x="71.985" y="175.37"/><use xlink:href="#al" x="75.069" y="175.37"/><use xlink:href="#aw" x="80.676" y="175.37"/><use xlink:href="#al" x="46.927" y="197.014"/><use xlink:href="#aA" x="52.534" y="197.014"/><use xlink:href="#aA" x="55.284" y="197.014"/><use xlink:href="#aB" x="58.033" y="197.014"/><use xlink:href="#aA" x="63.234" y="197.014"/><use xlink:href="#aC" x="65.983" y="197.014"/><use xlink:href="#az" x="71.985" y="186.928" fill="red"/><use xlink:href="#aE" x="71.985" y="197.014"/><use xlink:href="#al" x="75.069" y="197.014"/><use xlink:href="#aw" x="80.676" y="197.014"/><use xlink:href="#ax" x="46.927" y="218.657"/><use xlink:href="#ak" x="52.008" y="218.657"/><use xlink:href="#al" x="61.261" y="218.657"/><use xlink:href="#am" x="66.545" y="218.657"/><use xlink:href="#an" x="70.526" y="218.657"/><use xlink:href="#ao" x="74.435" y="218.657"/><use xlink:href="#ap" x="82.397" y="218.657"/><use xlink:href="#aq" x="87.753" y="218.657"/><use xlink:href="#ar" x="92.954" y="218.657"/><use xlink:href="#ao" x="98.955" y="218.657"/><use xlink:href="#as" x="106.917" y="218.657"/><use xlink:href="#an" x="111.4" y="218.657"/><use xlink:href="#al" x="115.632" y="218.657"/><use xlink:href="#at" x="121.239" y="218.657"/><use xlink:href="#aD" x="128.892" y="208.572" fill="red"/><use xlink:href="#au" x="128.892" y="218.657"/><use xlink:href="#al" x="136.017" y="218.657"/><use xlink:href="#av" x="141.624" y="218.657"/><use xlink:href="#aF" x="147.625" y="218.657"/><use xlink:href="#aH" x="30.417" y="246.279"/><use xlink:href="#aI" x="46.927" y="246.279"/><use xlink:href="#ai" x="59.456" y="236.193" fill="red"/><use xlink:href="#aJ" x="59.456" y="246.279"/><use xlink:href="#ak" x="63.939" y="246.279"/><use xlink:href="#aK" x="73.192" y="246.279"/><use xlink:href="#aB" x="75.942" y="246.279"/><use xlink:href="#am" x="81.142" y="246.279"/><use xlink:href="#aq" x="85.123" y="246.279"/><use xlink:href="#aK" x="90.324" y="246.279"/><use xlink:href="#aw" x="93.073" y="246.279"/><use xlink:href="#aL" x="46.927" y="267.922"/><use xlink:href="#aM" x="52.785" y="267.922"/><use xlink:href="#ax" x="58.786" y="267.922"/><use xlink:href="#aK" x="63.867" y="267.922"/><use xlink:href="#aB" x="66.617" y="267.922"/><use xlink:href="#aE" x="75.715" y="267.922"/><use xlink:href="#aB" x="78.799" y="267.922"/><use xlink:href="#as" x="83.999" y="267.922"/><use xlink:href="#an" x="88.483" y="267.922"/><use xlink:href="#aB" x="92.715" y="267.922"/><use xlink:href="#aJ" x="97.915" y="267.922"/><use xlink:href="#ay" x="106.297" y="257.837" fill="red"/><use xlink:href="#aJ" x="106.297" y="267.922"/><use xlink:href="#ak" x="110.78" y="267.922"/><use xlink:href="#aK" x="120.033" y="267.922"/><use xlink:href="#aB" x="122.783" y="267.922"/><use xlink:href="#am" x="127.983" y="267.922"/><use xlink:href="#aq" x="131.964" y="267.922"/><use xlink:href="#aK" x="137.165" y="267.922"/><use xlink:href="#aN" x="139.914" y="267.922"/><use xlink:href="#aO" x="46.927" y="289.566"/><use xlink:href="#aM" x="54.734" y="289.566"/><use xlink:href="#ax" x="60.735" y="289.566"/><use xlink:href="#aK" x="65.816" y="289.566"/><use xlink:href="#aB" x="68.566" y="289.566"/><use xlink:href="#aE" x="77.663" y="289.566"/><use xlink:href="#aB" x="80.748" y="289.566"/><use xlink:href="#as" x="85.948" y="289.566"/><use xlink:href="#an" x="90.431" y="289.566"/><use xlink:href="#ak" x="98.561" y="289.566"/><use xlink:href="#aP" x="107.814" y="289.566"/><use xlink:href="#aE" x="113.672" y="289.566"/><use xlink:href="#al" x="116.756" y="289.566"/><use xlink:href="#az" x="126.262" y="279.481" fill="red"/><use xlink:href="#aJ" x="126.262" y="289.566"/><use xlink:href="#ak" x="130.745" y="289.566"/><use xlink:href="#aK" x="139.998" y="289.566"/><use xlink:href="#aB" x="142.748" y="289.566"/><use xlink:href="#am" x="147.948" y="289.566"/><use xlink:href="#aQ" x="151.929" y="289.566"/><use xlink:href="#aN" x="157.13" y="289.566"/><use xlink:href="#aO" x="46.927" y="311.21"/><use xlink:href="#aM" x="54.734" y="311.21"/><use xlink:href="#ax" x="60.735" y="311.21"/><use xlink:href="#aK" x="65.816" y="311.21"/><use xlink:href="#aB" x="68.566" y="311.21"/><use xlink:href="#aE" x="77.663" y="311.21"/><use xlink:href="#aB" x="80.748" y="311.21"/><use xlink:href="#as" x="85.948" y="311.21"/><use xlink:href="#an" x="90.431" y="311.21"/><use xlink:href="#aE" x="98.561" y="311.21"/><use xlink:href="#aB" x="101.645" y="311.21"/><use xlink:href="#aE" x="106.845" y="311.21"/><use xlink:href="#ax" x="113.827" y="311.21"/><use xlink:href="#ao" x="118.908" y="311.21"/><use xlink:href="#ap" x="126.87" y="311.21"/><use xlink:href="#aD" x="132.228" y="301.124" fill="red"/><use xlink:href="#aq" x="132.228" y="311.21"/><use xlink:href="#aK" x="137.428" y="311.21"/><use xlink:href="#aR" x="140.178" y="311.21"/><use xlink:href="#as" x="145.379" y="311.21"/><use xlink:href="#an" x="149.862" y="311.21"/><use xlink:href="#ao" x="153.771" y="311.21"/><use xlink:href="#aP" x="161.41" y="311.21"/><use xlink:href="#aN" x="167.268" y="311.21"/><use xlink:href="#ah" x="27.058" y="338.831"/><use xlink:href="#aj" x="46.927" y="338.831"/><use xlink:href="#ak" x="54.076" y="338.831"/><use xlink:href="#al" x="63.329" y="338.831"/><use xlink:href="#am" x="68.613" y="338.831"/><use xlink:href="#an" x="72.594" y="338.831"/><use xlink:href="#ao" x="76.504" y="338.831"/><use xlink:href="#ap" x="84.466" y="338.831"/><use xlink:href="#aq" x="89.822" y="338.831"/><use xlink:href="#ar" x="95.022" y="338.831"/><use xlink:href="#ao" x="101.023" y="338.831"/><use xlink:href="#as" x="108.985" y="338.831"/><use xlink:href="#an" x="113.469" y="338.831"/><use xlink:href="#al" x="117.701" y="338.831"/><use xlink:href="#at" x="123.307" y="338.831"/><use xlink:href="#ai" x="130.96" y="328.746" fill="red"/><use xlink:href="#au" x="130.96" y="338.831"/><use xlink:href="#al" x="138.085" y="338.831"/><use xlink:href="#av" x="143.692" y="338.831"/><use xlink:href="#aw" x="149.693" y="338.831"/><use xlink:href="#aS" x="156.843" y="338.831"/><use xlink:href="#aH" x="30.417" y="366.452"/><use xlink:href="#aT" x="46.927" y="366.452"/><use xlink:href="#al" x="54.459" y="366.452"/><use xlink:href="#ai" x="60.066" y="356.367" fill="red"/><use xlink:href="#aM" x="60.066" y="366.452"/><use xlink:href="#aC" x="66.067" y="366.452"/><use xlink:href="#aE" x="72.069" y="366.452"/><use xlink:href="#ak" x="75.153" y="366.452"/><use xlink:href="#ap" x="84.406" y="366.452"/><use xlink:href="#as" x="93.66" y="366.452"/><use xlink:href="#aK" x="98.143" y="366.452"/><use xlink:href="#aR" x="100.892" y="366.452"/><use xlink:href="#aw" x="106.093" y="366.452"/><use xlink:href="#am" x="46.927" y="388.096"/><use xlink:href="#al" x="50.908" y="388.096"/><use xlink:href="#aM" x="56.515" y="388.096"/><use xlink:href="#aC" x="62.516" y="388.096"/><use xlink:href="#aE" x="68.518" y="388.096"/><use xlink:href="#ak" x="71.602" y="388.096"/><use xlink:href="#ap" x="80.855" y="388.096"/><use xlink:href="#as" x="90.108" y="388.096"/><use xlink:href="#aK" x="94.592" y="388.096"/><use xlink:href="#aR" x="97.341" y="388.096"/><use xlink:href="#aw" x="102.542" y="388.096"/><use xlink:href="#ay" x="109.692" y="378.01" fill="red"/><use xlink:href="#aU" x="109.692" y="388.096"/><use xlink:href="#am" x="115.371" y="388.096"/><use xlink:href="#al" x="119.352" y="388.096"/><use xlink:href="#aq" x="124.959" y="388.096"/><use xlink:href="#aK" x="130.159" y="388.096"/><use xlink:href="#al" x="132.909" y="388.096"/><use xlink:href="#aw" x="138.515" y="388.096"/><use xlink:href="#aE" x="46.927" y="409.739"/><use xlink:href="#aB" x="50.011" y="409.739"/><use xlink:href="#aJ" x="55.212" y="409.739"/><use xlink:href="#aA" x="59.695" y="409.739"/><use xlink:href="#aK" x="62.445" y="409.739"/><use xlink:href="#aM" x="69.092" y="409.739"/><use xlink:href="#ax" x="75.093" y="409.739"/><use xlink:href="#aK" x="80.174" y="409.739"/><use xlink:href="#as" x="82.924" y="409.739"/><use xlink:href="#aK" x="87.407" y="409.739"/><use xlink:href="#al" x="90.156" y="409.739"/><use xlink:href="#aE" x="95.763" y="409.739"/><use xlink:href="#as" x="102.745" y="409.739"/><use xlink:href="#aK" x="107.228" y="409.739"/><use xlink:href="#aR" x="109.978" y="409.739"/><use xlink:href="#ak" x="119.075" y="409.739"/><use xlink:href="#aK" x="128.329" y="409.739"/><use xlink:href="#at" x="131.078" y="409.739"/><use xlink:href="#aC" x="134.832" y="409.739"/><use xlink:href="#az" x="140.835" y="399.654" fill="red"/><use xlink:href="#aE" x="140.835" y="409.739"/><use xlink:href="#aB" x="143.919" y="409.739"/><use xlink:href="#ak" x="149.12" y="409.739"/><use xlink:href="#ap" x="158.373" y="409.739"/><use xlink:href="#aw" x="162.749" y="409.739"/><use xlink:href="#an" x="46.927" y="431.383"/><use xlink:href="#aP" x="51.159" y="431.383"/><use xlink:href="#aM" x="60.914" y="431.383"/><use xlink:href="#aA" x="66.916" y="431.383"/><use xlink:href="#al" x="69.665" y="431.383"/><use xlink:href="#an" x="75.272" y="431.383"/><use xlink:href="#aB" x="79.504" y="431.383"/><use xlink:href="#aL" x="84.705" y="431.383"/><use xlink:href="#aP" x="90.563" y="431.383"/><use xlink:href="#aw" x="96.421" y="431.383"/><use xlink:href="#aV" x="103.57" y="431.383"/><use xlink:href="#aB" x="108.651" y="431.383"/><use xlink:href="#aI" x="117.748" y="431.383"/><use xlink:href="#av" x="126.38" y="431.383"/><use xlink:href="#ax" x="136.279" y="431.383"/><use xlink:href="#ak" x="141.359" y="431.383"/><use xlink:href="#al" x="150.613" y="431.383"/><use xlink:href="#am" x="155.897" y="431.383"/><use xlink:href="#aD" x="159.88" y="421.298" fill="red"/><use xlink:href="#an" x="159.88" y="431.383"/><use xlink:href="#ao" x="163.789" y="431.383"/><use xlink:href="#ap" x="171.751" y="431.383"/><use xlink:href="#aq" x="177.107" y="431.383"/><use xlink:href="#ar" x="182.308" y="431.383"/><use xlink:href="#ao" x="188.309" y="431.383"/><use xlink:href="#as" x="196.271" y="431.383"/><use xlink:href="#an" x="200.754" y="431.383"/><use xlink:href="#al" x="204.986" y="431.383"/><use xlink:href="#at" x="210.593" y="431.383"/><use xlink:href="#aW" x="214.347" y="431.383"/><use xlink:href="#ah" x="27.058" y="459.004"/><use xlink:href="#aj" x="46.927" y="459.004"/><use xlink:href="#ak" x="54.076" y="459.004"/><use xlink:href="#al" x="63.329" y="459.004"/><use xlink:href="#am" x="68.613" y="459.004"/><use xlink:href="#an" x="72.594" y="459.004"/><use xlink:href="#ao" x="76.504" y="459.004"/><use xlink:href="#ap" x="84.466" y="459.004"/><use xlink:href="#aq" x="89.822" y="459.004"/><use xlink:href="#ar" x="95.022" y="459.004"/><use xlink:href="#ao" x="101.023" y="459.004"/><use xlink:href="#as" x="108.985" y="459.004"/><use xlink:href="#an" x="113.469" y="459.004"/><use xlink:href="#al" x="117.701" y="459.004"/><use xlink:href="#at" x="123.307" y="459.004"/><use xlink:href="#ai" x="130.96" y="448.919" fill="red"/><use xlink:href="#au" x="130.96" y="459.004"/><use xlink:href="#al" x="138.085" y="459.004"/><use xlink:href="#av" x="143.692" y="459.004"/><use xlink:href="#aw" x="149.693" y="459.004"/><use xlink:href="#aS" x="156.843" y="459.004"/><use xlink:href="#aH" x="231.009" y="61.174"/><use xlink:href="#ai" x="247.519" y="51.089" fill="red"/><use xlink:href="#aX" x="247.519" y="61.174"/><use xlink:href="#ax" x="255.935" y="61.174"/><use xlink:href="#aK" x="261.016" y="61.174"/><use xlink:href="#aR" x="263.766" y="61.174"/><use xlink:href="#aY" x="268.966" y="61.174"/><use xlink:href="#aK" x="274.645" y="61.174"/><use xlink:href="#aw" x="277.395" y="61.174"/><use xlink:href="#aM" x="247.519" y="82.818"/><use xlink:href="#ax" x="253.52" y="82.818"/><use xlink:href="#aK" x="258.601" y="82.818"/><use xlink:href="#aR" x="261.351" y="82.818"/><use xlink:href="#aY" x="266.551" y="82.818"/><use xlink:href="#aK" x="272.23" y="82.818"/><use xlink:href="#av" x="278.877" y="82.818"/><use xlink:href="#aK" x="284.878" y="82.818"/><use xlink:href="#aB" x="287.628" y="82.818"/><use xlink:href="#aq" x="292.828" y="82.818"/><use xlink:href="#ar" x="298.029" y="82.818"/><use xlink:href="#aU" x="307.928" y="82.818"/><use xlink:href="#aR" x="314.252" y="82.818"/><use xlink:href="#aM" x="319.452" y="82.818"/><use xlink:href="#aZ" x="325.454" y="82.818"/><use xlink:href="#ay" x="334.959" y="72.733" fill="red"/><use xlink:href="#aI" x="334.959" y="82.818"/><use xlink:href="#aE" x="343.591" y="82.818"/><use xlink:href="#aq" x="346.675" y="82.818"/><use xlink:href="#aC" x="351.875" y="82.818"/><use xlink:href="#aw" x="357.877" y="82.818"/><use xlink:href="#aY" x="247.519" y="104.462"/><use xlink:href="#an" x="253.198" y="104.462"/><use xlink:href="#ba" x="257.43" y="104.462"/><use xlink:href="#am" x="262.965" y="104.462"/><use xlink:href="#ap" x="266.946" y="104.462"/><use xlink:href="#av" x="276.199" y="104.462"/><use xlink:href="#al" x="282.2" y="104.462"/><use xlink:href="#as" x="287.807" y="104.462"/><use xlink:href="#bb" x="296.188" y="104.462"/><use xlink:href="#am" x="301.866" y="104.462"/><use xlink:href="#aP" x="305.847" y="104.462"/><use xlink:href="#ao" x="311.383" y="104.462"/><use xlink:href="#al" x="319.022" y="104.462"/><use xlink:href="#aM" x="324.629" y="104.462"/><use xlink:href="#ax" x="330.63" y="104.462"/><use xlink:href="#aK" x="335.711" y="104.462"/><use xlink:href="#aM" x="342.358" y="104.462"/><use xlink:href="#aP" x="348.359" y="104.462"/><use xlink:href="#as" x="358.115" y="104.462"/><use xlink:href="#ao" x="362.598" y="104.462"/><use xlink:href="#aB" x="370.237" y="104.462"/><use xlink:href="#aL" x="375.437" y="104.462"/><use xlink:href="#aP" x="381.295" y="104.462"/><use xlink:href="#bc" x="259.474" y="126.105"/><use xlink:href="#am" x="267.532" y="126.105"/><use xlink:href="#ba" x="271.513" y="126.105"/><use xlink:href="#az" x="277.371" y="116.02" fill="red"/><use xlink:href="#aA" x="277.371" y="126.105"/><use xlink:href="#aB" x="280.121" y="126.105"/><use xlink:href="#as" x="285.321" y="126.105"/><use xlink:href="#an" x="289.804" y="126.105"/><use xlink:href="#ao" x="293.713" y="126.105"/><use xlink:href="#al" x="301.353" y="126.105"/><use xlink:href="#aw" x="306.96" y="126.105"/><use xlink:href="#aL" x="247.519" y="147.749"/><use xlink:href="#aM" x="253.377" y="147.749"/><use xlink:href="#ax" x="259.378" y="147.749"/><use xlink:href="#aK" x="264.459" y="147.749"/><use xlink:href="#aB" x="267.209" y="147.749"/><use xlink:href="#as" x="276.307" y="147.749"/><use xlink:href="#aK" x="280.79" y="147.749"/><use xlink:href="#aR" x="283.539" y="147.749"/><use xlink:href="#ak" x="292.637" y="147.749"/><use xlink:href="#aK" x="301.89" y="147.749"/><use xlink:href="#at" x="304.64" y="147.749"/><use xlink:href="#aP" x="308.071" y="147.749"/><use xlink:href="#aJ" x="313.929" y="147.749"/><use xlink:href="#aq" x="318.412" y="147.749"/><use xlink:href="#aK" x="323.613" y="147.749"/><use xlink:href="#aZ" x="326.362" y="147.749"/><use xlink:href="#aD" x="335.868" y="137.664" fill="red"/><use xlink:href="#aV" x="335.868" y="147.749"/><use xlink:href="#ap" x="340.949" y="147.749"/><use xlink:href="#aE" x="346.305" y="147.749"/><use xlink:href="#aB" x="349.389" y="147.749"/><use xlink:href="#aF" x="354.59" y="147.749"/><use xlink:href="#ah" x="227.649" y="175.37"/><use xlink:href="#aj" x="247.519" y="175.37"/><use xlink:href="#ak" x="254.668" y="175.37"/><use xlink:href="#al" x="263.921" y="175.37"/><use xlink:href="#am" x="269.205" y="175.37"/><use xlink:href="#an" x="273.186" y="175.37"/><use xlink:href="#ao" x="277.096" y="175.37"/><use xlink:href="#ap" x="285.058" y="175.37"/><use xlink:href="#aq" x="290.414" y="175.37"/><use xlink:href="#ar" x="295.614" y="175.37"/><use xlink:href="#ao" x="301.615" y="175.37"/><use xlink:href="#as" x="309.577" y="175.37"/><use xlink:href="#an" x="314.061" y="175.37"/><use xlink:href="#al" x="318.293" y="175.37"/><use xlink:href="#at" x="323.899" y="175.37"/><use xlink:href="#ai" x="331.552" y="165.285" fill="red"/><use xlink:href="#au" x="331.552" y="175.37"/><use xlink:href="#al" x="338.677" y="175.37"/><use xlink:href="#av" x="344.284" y="175.37"/><use xlink:href="#aw" x="350.285" y="175.37"/><use xlink:href="#aS" x="357.435" y="175.37"/><use xlink:href="#aH" x="231.009" y="202.991"/><use xlink:href="#bd" x="247.519" y="202.991"/><use xlink:href="#aB" x="253.006" y="202.991"/><use xlink:href="#aJ" x="258.207" y="202.991"/><use xlink:href="#aA" x="262.69" y="202.991"/><use xlink:href="#aK" x="265.44" y="202.991"/><use xlink:href="#ax" x="272.087" y="202.991"/><use xlink:href="#be" x="281.065" y="202.991"/><use xlink:href="#aK" x="289.266" y="202.991"/><use xlink:href="#ak" x="292.016" y="202.991"/><use xlink:href="#aC" x="305.166" y="202.991"/><use xlink:href="#ak" x="311.167" y="202.991"/><use xlink:href="#aK" x="320.421" y="202.991"/><use xlink:href="#aB" x="323.17" y="202.991"/><use xlink:href="#ai" x="328.372" y="192.906" fill="red"/><use xlink:href="#am" x="328.372" y="202.991"/><use xlink:href="#al" x="332.353" y="202.991"/><use xlink:href="#ak" x="337.96" y="202.991"/><use xlink:href="#ap" x="347.213" y="202.991"/><use xlink:href="#aw" x="351.589" y="202.991"/><use xlink:href="#ax" x="247.519" y="224.635"/><use xlink:href="#be" x="256.497" y="224.635"/><use xlink:href="#aK" x="264.698" y="224.635"/><use xlink:href="#ak" x="267.448" y="224.635"/><use xlink:href="#an" x="280.599" y="224.635"/><use xlink:href="#al" x="284.831" y="224.635"/><use xlink:href="#aY" x="290.437" y="224.635"/><use xlink:href="#aV" x="296.116" y="224.635"/><use xlink:href="#aB" x="301.197" y="224.635"/><use xlink:href="#aV" x="310.295" y="224.635"/><use xlink:href="#ap" x="315.376" y="224.635"/><use xlink:href="#ay" x="320.732" y="214.55" fill="red"/><use xlink:href="#aE" x="320.732" y="224.635"/><use xlink:href="#aB" x="323.816" y="224.635"/><use xlink:href="#ak" x="329.017" y="224.635"/><use xlink:href="#ap" x="338.27" y="224.635"/><use xlink:href="#aw" x="342.646" y="224.635"/><use xlink:href="#ax" x="247.519" y="246.279"/><use xlink:href="#be" x="256.497" y="246.279"/><use xlink:href="#aK" x="264.698" y="246.279"/><use xlink:href="#ak" x="267.448" y="246.279"/><use xlink:href="#am" x="280.599" y="246.279"/><use xlink:href="#al" x="284.58" y="246.279"/><use xlink:href="#ax" x="290.186" y="246.279"/><use xlink:href="#aB" x="295.267" y="246.279"/><use xlink:href="#ak" x="300.468" y="246.279"/><use xlink:href="#aJ" x="313.618" y="246.279"/><use xlink:href="#bb" x="318.101" y="246.279"/><use xlink:href="#aK" x="324.103" y="246.279"/><use xlink:href="#aB" x="326.852" y="246.279"/><use xlink:href="#az" x="332.054" y="236.193" fill="red"/><use xlink:href="#ao" x="332.054" y="246.279"/><use xlink:href="#al" x="339.693" y="246.279"/><use xlink:href="#ak" x="345.3" y="246.279"/><use xlink:href="#ap" x="354.553" y="246.279"/><use xlink:href="#aw" x="358.929" y="246.279"/><use xlink:href="#al" x="247.519" y="267.922"/><use xlink:href="#aA" x="253.126" y="267.922"/><use xlink:href="#aA" x="255.876" y="267.922"/><use xlink:href="#aB" x="258.625" y="267.922"/><use xlink:href="#aA" x="263.826" y="267.922"/><use xlink:href="#aC" x="266.575" y="267.922"/><use xlink:href="#aD" x="272.577" y="257.837" fill="red"/><use xlink:href="#aE" x="272.577" y="267.922"/><use xlink:href="#al" x="275.661" y="267.922"/><use xlink:href="#aF" x="281.268" y="267.922"/><use xlink:href="#ah" x="227.649" y="295.544"/><use xlink:href="#aG" x="247.519" y="295.544"/><use xlink:href="#aA" x="255.254" y="295.544"/><use xlink:href="#aA" x="258.004" y="295.544"/><use xlink:href="#aB" x="260.753" y="295.544"/><use xlink:href="#aA" x="265.954" y="295.544"/><use xlink:href="#aC" x="268.703" y="295.544"/><use xlink:href="#ai" x="274.705" y="285.458" fill="red"/><use xlink:href="#aE" x="274.705" y="295.544"/><use xlink:href="#al" x="277.789" y="295.544"/><use xlink:href="#aw" x="283.396" y="295.544"/><use xlink:href="#al" x="247.519" y="317.187"/><use xlink:href="#aA" x="253.126" y="317.187"/><use xlink:href="#aA" x="255.876" y="317.187"/><use xlink:href="#aB" x="258.625" y="317.187"/><use xlink:href="#aA" x="263.826" y="317.187"/><use xlink:href="#aC" x="266.575" y="317.187"/><use xlink:href="#ay" x="272.577" y="307.102" fill="red"/><use xlink:href="#aE" x="272.577" y="317.187"/><use xlink:href="#al" x="275.661" y="317.187"/><use xlink:href="#aw" x="281.268" y="317.187"/><use xlink:href="#al" x="247.519" y="338.831"/><use xlink:href="#aA" x="253.126" y="338.831"/><use xlink:href="#aA" x="255.876" y="338.831"/><use xlink:href="#aB" x="258.625" y="338.831"/><use xlink:href="#aA" x="263.826" y="338.831"/><use xlink:href="#aC" x="266.575" y="338.831"/><use xlink:href="#az" x="272.577" y="328.746" fill="red"/><use xlink:href="#aE" x="272.577" y="338.831"/><use xlink:href="#al" x="275.661" y="338.831"/><use xlink:href="#aw" x="281.268" y="338.831"/><use xlink:href="#ax" x="247.519" y="360.474"/><use xlink:href="#ak" x="252.6" y="360.474"/><use xlink:href="#al" x="261.853" y="360.474"/><use xlink:href="#am" x="267.137" y="360.474"/><use xlink:href="#an" x="271.118" y="360.474"/><use xlink:href="#ao" x="275.027" y="360.474"/><use xlink:href="#ap" x="282.989" y="360.474"/><use xlink:href="#aq" x="288.345" y="360.474"/><use xlink:href="#ar" x="293.546" y="360.474"/><use xlink:href="#ao" x="299.547" y="360.474"/><use xlink:href="#as" x="307.509" y="360.474"/><use xlink:href="#an" x="311.992" y="360.474"/><use xlink:href="#al" x="316.224" y="360.474"/><use xlink:href="#at" x="321.831" y="360.474"/><use xlink:href="#aD" x="329.484" y="350.389" fill="red"/><use xlink:href="#au" x="329.484" y="360.474"/><use xlink:href="#al" x="336.609" y="360.474"/><use xlink:href="#av" x="342.216" y="360.474"/><use xlink:href="#aF" x="348.217" y="360.474"/><use xlink:href="#aj" x="247.519" y="388.096"/><use xlink:href="#ak" x="254.668" y="388.096"/><use xlink:href="#al" x="263.921" y="388.096"/><use xlink:href="#am" x="269.205" y="388.096"/><use xlink:href="#an" x="273.186" y="388.096"/><use xlink:href="#ao" x="277.096" y="388.096"/><use xlink:href="#ap" x="285.058" y="388.096"/><use xlink:href="#aq" x="290.414" y="388.096"/><use xlink:href="#ar" x="295.614" y="388.096"/><use xlink:href="#ao" x="301.615" y="388.096"/><use xlink:href="#as" x="309.577" y="388.096"/><use xlink:href="#an" x="314.061" y="388.096"/><use xlink:href="#al" x="318.293" y="388.096"/><use xlink:href="#at" x="323.899" y="388.096"/><use xlink:href="#ai" x="331.552" y="378.01" fill="red"/><use xlink:href="#au" x="331.552" y="388.096"/><use xlink:href="#al" x="338.677" y="388.096"/><use xlink:href="#av" x="344.284" y="388.096"/><use xlink:href="#aw" x="350.285" y="388.096"/><use xlink:href="#ax" x="247.519" y="409.739"/><use xlink:href="#ak" x="252.6" y="409.739"/><use xlink:href="#al" x="261.853" y="409.739"/><use xlink:href="#am" x="267.137" y="409.739"/><use xlink:href="#an" x="271.118" y="409.739"/><use xlink:href="#ao" x="275.027" y="409.739"/><use xlink:href="#ap" x="282.989" y="409.739"/><use xlink:href="#aq" x="288.345" y="409.739"/><use xlink:href="#ar" x="293.546" y="409.739"/><use xlink:href="#ao" x="299.547" y="409.739"/><use xlink:href="#as" x="307.509" y="409.739"/><use xlink:href="#an" x="311.992" y="409.739"/><use xlink:href="#al" x="316.224" y="409.739"/><use xlink:href="#at" x="321.831" y="409.739"/><use xlink:href="#ay" x="329.484" y="399.654" fill="red"/><use xlink:href="#au" x="329.484" y="409.739"/><use xlink:href="#al" x="336.609" y="409.739"/><use xlink:href="#av" x="342.216" y="409.739"/><use xlink:href="#aw" x="348.217" y="409.739"/><use xlink:href="#ax" x="247.519" y="431.383"/><use xlink:href="#ak" x="252.6" y="431.383"/><use xlink:href="#al" x="261.853" y="431.383"/><use xlink:href="#am" x="267.137" y="431.383"/><use xlink:href="#an" x="271.118" y="431.383"/><use xlink:href="#ao" x="275.027" y="431.383"/><use xlink:href="#ap" x="282.989" y="431.383"/><use xlink:href="#aq" x="288.345" y="431.383"/><use xlink:href="#ar" x="293.546" y="431.383"/><use xlink:href="#ao" x="299.547" y="431.383"/><use xlink:href="#as" x="307.509" y="431.383"/><use xlink:href="#an" x="311.992" y="431.383"/><use xlink:href="#al" x="316.224" y="431.383"/><use xlink:href="#at" x="321.831" y="431.383"/><use xlink:href="#az" x="329.484" y="421.298" fill="red"/><use xlink:href="#au" x="329.484" y="431.383"/><use xlink:href="#al" x="336.609" y="431.383"/><use xlink:href="#av" x="342.216" y="431.383"/><use xlink:href="#aw" x="348.217" y="431.383"/><use xlink:href="#al" x="247.519" y="453.027"/><use xlink:href="#aA" x="253.126" y="453.027"/><use xlink:href="#aA" x="255.876" y="453.027"/><use xlink:href="#aB" x="258.625" y="453.027"/><use xlink:href="#aA" x="263.826" y="453.027"/><use xlink:href="#aC" x="266.575" y="453.027"/><use xlink:href="#aD" x="272.577" y="442.941" fill="red"/><use xlink:href="#aE" x="272.577" y="453.027"/><use xlink:href="#al" x="275.661" y="453.027"/><use xlink:href="#aF" x="281.268" y="453.027"/><g clip-path="url(#bf)"><path fill="url(#bg)" d="M15.023 579.684v-11.336h388.063v11.336Zm0 0"/></g><use xlink:href="#bh" x="17.008" y="577.985"/><use xlink:href="#bh" x="23.739" y="577.985"/><use xlink:href="#bi" x="30.469" y="577.985"/><use xlink:href="#bj" x="270.454" y="577.985"/><use xlink:href="#bk" x="276.117" y="577.985"/><use xlink:href="#bl" x="280.517" y="577.985"/><use xlink:href="#bm" x="285.999" y="577.985"/><use xlink:href="#bn" x="289.542" y="577.985"/><use xlink:href="#bo" x="293.726" y="577.985"/><use xlink:href="#bp" x="299.515" y="577.985"/><use xlink:href="#bq" x="303.483" y="577.985"/><use xlink:href="#bp" x="307.451" y="577.985"/><use xlink:href="#br" x="311.419" y="577.985"/><use xlink:href="#bs" x="318.072" y="577.985"/><use xlink:href="#bp" x="328.701" y="577.985"/><use xlink:href="#bt" x="332.669" y="577.985"/><use xlink:href="#bu" x="339.322" y="577.985"/><use xlink:href="#bp" x="344.888" y="577.985"/><use xlink:href="#bq" x="348.856" y="577.985"/><use xlink:href="#bp" x="352.824" y="577.985"/><use xlink:href="#bv" x="356.792" y="577.985"/><use xlink:href="#bs" x="363.445" y="577.985"/><use xlink:href="#bw" x="374.074" y="577.985"/><use xlink:href="#bx" x="376.326" y="577.985"/><use xlink:href="#by" x="380.295" y="577.985"/><use xlink:href="#bz" x="384.263" y="577.985"/><use xlink:href="#by" x="389.2" y="577.985"/><use xlink:href="#bA" x="393.169" y="577.985"/><use xlink:href="#bp" x="397.137" y="577.985"/><path fill="#f2f2f2" stroke="#000" stroke-miterlimit="10" stroke-width=".797" d="M196.602 576.055v-3.989a2.99 2.99 0 0 1 2.988-2.988h18.93a2.99 2.99 0 0 1 2.988 2.988v3.989a2.99 2.99 0 0 1-2.988 2.988h-18.93a2.99 2.99 0 0 1-2.988-2.988Zm0 0"/><use xlink:href="#bB" x="198.439" y="576.948"/><use xlink:href="#bC" x="203.747" y="576.948"/><use xlink:href="#bC" x="209.055" y="576.948"/><use xlink:href="#bD" x="214.363" y="576.948"/></svg>