<svg xmlns="http://www.w3.org/2000/svg" xmlns:xlink="http://www.w3.org/1999/xlink" width="559.371" height="793.701" viewBox="0 0 419.528 595.276"><defs><path id="f" d="M3.344 2.297v-.078L1.5-2.5l1.844-4.703v-.078c0-.11-.078-.203-.188-.203a.24.24 0 0 0-.203.14L1.11-2.562c-.015.015-.015.046-.015.062 0 .031 0 .063.015.078L2.953 2.36a.24.24 0 0 0 .203.141c.11 0 .188-.094.188-.203m0 0"/><path id="g" d="M4.969-1.422c0-.11-.094-.11-.125-.11-.094 0-.11.048-.14.188-.173.64-.345 1.235-.75 1.235-.282 0-.298-.266-.298-.453 0-.22.016-.313.125-.75L4-2.203l.36-1.39c.062-.282.062-.298.062-.344 0-.172-.11-.266-.281-.266-.25 0-.391.219-.422.437-.188-.375-.469-.64-.922-.64-1.156 0-2.39 1.468-2.39 2.922C.406-.547.952.109 1.718.109c.203 0 .703-.046 1.297-.75a.91.91 0 0 0 .906.75c.36 0 .578-.234.75-.546.156-.36.297-.985.297-.985m-1.375-1.89a.6.6 0 0 1-.031.171l-.485 1.954c-.062.187-.062.203-.203.375-.437.546-.844.703-1.125.703-.5 0-.64-.547-.64-.938 0-.5.312-1.719.546-2.187.313-.578.75-.953 1.157-.953.64 0 .78.812.78.875m0 0"/><path id="h" d="M2.781-2.5c0-.016 0-.047-.015-.062L.922-7.344c-.031-.078-.11-.14-.188-.14a.207.207 0 0 0-.203.203v.078L2.375-2.5.531 2.219v.078c0 .11.094.203.203.203.079 0 .157-.062.188-.14l1.844-4.782c.015-.015.015-.047.015-.078m0 0"/><path id="i" d="M6.047-.156c0-.094-.11-.11-.14-.11-.25 0-.376-.03-.5-.312L4.218-3.297 5.766-4.5c.218-.172.812-.625 1.312-.672.063-.016.156-.031.156-.156 0-.047-.03-.11-.109-.11 0 0-.234.016-.281.016h-.328c-.266 0-.563-.016-.813-.016-.047 0-.172 0-.172.141 0 .11.14.125.14.125.11 0 .173.047.173.11 0 .125-.14.25-.172.28l-.047.048c-.016.015-.031.015-.094.078L2.563-2.344l.609-2.5c.078-.265.125-.328.61-.328.171 0 .265 0 .265-.156 0-.047-.031-.11-.125-.11-.14 0-.313.016-.453.016h-.953l-.453-.016c-.047 0-.172 0-.172.141 0 .125.093.125.234.125.219 0 .438 0 .438.11 0 .046 0 .062-.032.171L1.47-.609c-.078.28-.125.343-.61.343-.171 0-.265 0-.265.157C.594-.047.64 0 .719 0c.031 0 .39-.016.453-.031h.484c.672 0 .89.031.938.031s.156 0 .156-.156c0-.11-.094-.11-.234-.11-.25 0-.438 0-.438-.125 0-.046.047-.218.078-.328l.297-1.203 1.25-.969.985 2.25c.046.094.046.11.046.141 0 .203-.187.234-.343.234-.094 0-.188.016-.188.157 0 .062.047.109.11.109.28 0 .578-.031.843-.031.672 0 .64.031.735.031.03 0 .156 0 .156-.156m0 0"/><path id="j" d="M2.828-1.14c0-.11-.11-.11-.156-.11-.125 0-.125.031-.172.172-.14.516-.406.937-.734.937-.157 0-.188-.109-.188-.25 0-.187.063-.328.188-.656l.515-1.39c.063-.172.094-.25.094-.422 0-.438-.312-.657-.656-.657-.75 0-1.078 1.11-1.078 1.22 0 .108.093.108.14.108.14 0 .14-.03.172-.171.125-.407.375-.938.75-.938.14 0 .172.11.172.25 0 .188-.047.344-.156.61L1.156-.953a1.1 1.1 0 0 0-.078.375c0 .36.266.656.672.656.75 0 1.078-1.125 1.078-1.219m.125-3.704a.354.354 0 0 0-.36-.375.55.55 0 0 0-.53.532c0 .234.171.359.359.359.265 0 .531-.234.531-.516m0 0"/><path id="k" d="M4.14-1.14c0-.11-.109-.11-.14-.11-.14 0-.156.047-.187.172-.11.453-.266.937-.61.937-.14 0-.25-.078-.25-.375 0-.125.031-.265.063-.39.03-.125.03-.172.03-.25 0-.563-.546-.75-1.108-.86.296-.187.625-.53.671-.593.454-.5.766-.688 1.063-.688.11 0 .172.063.203.11-.156.03-.344.171-.344.39s.188.266.281.266c.204 0 .407-.14.407-.453 0-.266-.157-.532-.547-.532s-.75.266-1.188.735c-.484.515-.656.594-.796.672l.796-3.188c0-.031.016-.094.016-.125 0-.11-.125-.11-.219-.094l-.828.063c-.11.016-.187.016-.187.156 0 .125.093.125.203.125.375 0 .375.047.375.11a.7.7 0 0 1-.032.171L.657-.266c0 .032-.015.079-.015.11 0 .11.078.234.25.234.14 0 .265-.094.328-.297l.39-1.578c.313.031.891.172.891.656 0 .047 0 .079-.031.188a1 1 0 0 0-.031.25c0 .437.296.781.734.781.36 0 .562-.265.656-.406.188-.297.313-.766.313-.813m0 0"/><path id="l" d="M4.297-2.172c0-.828-.547-1.344-1.266-1.344C2-3.516.921-2.437.921-1.266c0 .875.595 1.344 1.267 1.344 1.062 0 2.109-1.094 2.109-2.25m-.594-.281c0 .265-.125 1.031-.437 1.578-.266.438-.688.734-1.078.734-.297 0-.672-.203-.672-.843 0-.36.172-1.11.422-1.547.343-.578.812-.766 1.078-.766.39 0 .687.297.687.844m0 0"/><path id="m" d="M8.75-4.094c0-.937-.156-2.093-.828-2.953-.89-1.11-2.328-1.25-3.11-1.25H1.656c-.422 0-.562.14-.562.578v7.14c0 .438.125.579.562.579h3.157C7.733 0 8.75-1.75 8.75-4.094m-1.719 0c0 1.36-.14 3.063-2.687 3.063H2.812v-6.235h1.532c2.578 0 2.687 1.844 2.687 3.172m0 0"/><path id="n" d="M5.719-3.11c0-1.546-.703-2.562-2.485-2.562-1.921 0-2.859 1.063-2.859 2.89 0 1.954 1.125 2.907 3 2.907.469 0 1.14-.047 1.938-.453.25-.125.343-.156.343-.313 0-.078-.031-.421-.047-.515-.046-.375-.062-.39-.171-.39-.047 0-.079 0-.204.124a2.7 2.7 0 0 1-1.796.688c-1.36 0-1.5-1.063-1.532-1.828h3.25c.266 0 .563 0 .563-.547m-1.313-.078h-2.5c.047-.734.282-1.624 1.328-1.624.954 0 1.125.687 1.172 1.625m.516-4.953c0-.156-.125-.156-.313-.156h-.984c-.25 0-.25.016-.36.14L2.236-6.75c-.11.125-.11.172-.11.172 0 .156.14.156.328.156h.438l1.906-1.531c.062-.063.125-.11.125-.188m0 0"/><path id="o" d="M6.25-2.766c0-.562 0-2.843-2.25-2.843-.969 0-1.578.547-1.687.672V-7.72c0-.39-.079-.578-.563-.578h-.453c-.422 0-.563.14-.563.578v7.14C.734-.14.86 0 1.297 0h.484c.203 0 .563 0 .578-.469a1.74 1.74 0 0 0 1.344.594c2.547 0 2.547-2.281 2.547-2.89m-1.625.016c0 .89 0 2.016-1.344 2.016-.5 0-.797-.297-.922-.453v-3.141c.157-.14.516-.422 1.063-.422 1.203 0 1.203 1.11 1.203 2m0 0"/><path id="p" d="M6.188-2.687c0-1.97-.954-2.985-2.907-2.985-1.984 0-2.906 1.063-2.906 2.984C.375-.733 1.406.126 3.281.126s2.907-.86 2.907-2.812m-1.625-.141c0 .937 0 2.031-1.282 2.031C2-.797 2-1.875 2-2.828c0-.922 0-1.985 1.281-1.985s1.281 1.047 1.281 1.985m0 0"/><path id="q" d="M4.25-4.719v-.562c0-.235 0-.328-.203-.328-.344 0-1.219.125-1.781 1.406v-.766c0-.39-.094-.578-.578-.578h-.391c-.422 0-.563.125-.563.578v4.39C.734-.14.86 0 1.297 0h.453c.453 0 .563-.156.563-.578V-2.75c0-1.14.953-1.594 1.703-1.656.218 0 .234 0 .234-.313m0 0"/><path id="r" d="M5.672-.578v-3.203c0-1.89-1.828-1.89-2.422-1.89-.562 0-1.156.046-1.953.374-.25.11-.313.14-.313.281 0 .079.063.766.079.875a.17.17 0 0 0 .156.125c.062 0 .093-.03.125-.078.515-.531 1.125-.797 1.86-.797.64 0 .843.391.843 1.094v.422c-.422 0-3.563.031-3.563 1.781C.484-.75 1.156.125 2.22.125c.406 0 1.297-.11 1.86-.937v.234c0 .39.077.578.577.578h.438c.453 0 .578-.156.578-.578M4.047-1.844c0 1.11-1.14 1.11-1.172 1.11-.516 0-.828-.422-.828-.875 0-1.172 1.656-1.266 2-1.266Zm0 0"/><path id="s" d="M2.594 2.234c-.375-.5-1.25-1.64-.64-4.484.609-2.828 1.952-3.969 2.546-4.484h-.594c-1.25.89-2.265 2.422-2.703 4.484-.453 2.14-.031 3.625.813 4.484Zm0 0"/><path id="t" d="M4.969-1.719c.218-1-.485-1.672-1.125-1.828l-.86-.219c-.421-.109-.812-.468-.703-.984S3-5.781 3.812-5.781c.641 0 1.063.187 1.438.578l.313-.781c-.407-.22-.797-.438-1.61-.438-1.265 0-2.265.89-2.453 1.781-.047.235-.078.594.125 1 .313.532.86.672 1.203.766l.719.188c.39.124.75.515.625 1.078-.125.593-.75 1.14-1.547 1.14a2.58 2.58 0 0 1-1.812-.734L.5-.422a3.42 3.42 0 0 0 1.984.625C3.72.203 4.75-.719 4.97-1.719m0 0"/><path id="u" d="m4.016 0 1.328-6.219h-.719l-.578 2.625c-.406-.422-.969-.484-1.25-.484-.906 0-1.813.937-2.047 2.094C.5-.828 1 .094 1.875.094c.266 0 .844-.063 1.484-.563L3.266 0ZM3.53-1.266c-.031.172-.031.188-.156.313-.312.328-.656.469-.984.469-.578 0-1.141-.422-.907-1.5C1.734-3.125 2.578-3.5 3.141-3.5c.406 0 .64.234.765.469Zm0 0"/><path id="v" d="m3.703 0 .125-.594H2.484c-.109 0-.218.016-.328.016h-.75L4.453-3.61l.063-.375H1.234l-.125.562h2.282L.344-.39.266 0Zm0 0"/><path id="w" d="M4.531-1.828c.235-1.11-.375-2-1.328-2-.11 0-.547 0-1.047.36l.375-1.782h2.422l.125-.61h-3.11L1.267-2.53h.64c.438-.656.985-.703 1.157-.703.374 0 .843.28.609 1.406-.235 1.094-.953 1.437-1.5 1.437-.453 0-1.031-.218-1.235-.812L.5-.687c.094.203.547.89 1.563.89 1.124 0 2.234-.906 2.468-2.031m0 0"/><path id="x" d="M3.328-2.25c.453-2.125.031-3.625-.812-4.484h-.578c.39.5 1.25 1.656.64 4.484C1.984.594.625 1.734.031 2.234h.594c1.234-.89 2.266-2.421 2.703-4.484m0 0"/><path id="z" d="M-2.672-5.984c-1.531 0-2.765 1.156-2.765 2.593v3.032h.265v-.188c0-.61.078-.625.375-.625H-.64c.297 0 .375.016.375.625v.188H0v-3.032c0-1.437-1.187-2.593-2.672-2.593m0 .812c.406 0 1.188 0 1.766.5.328.266.64.781.64 1.5v.906c0 .375-.046.391-.328.391h-4.265c-.266 0-.313-.016-.313-.39v-.907c0-.625.25-1.14.64-1.5.61-.5 1.47-.5 1.86-.5m0 0"/><path id="A" d="M-.953-3.516a.12.12 0 0 0-.11.125c0 .094.047.11.094.125.782.282.797.97.797 1.11 0 .36-.156.734-.531.969-.36.234-.875.234-1.11.234v-2.344c0-.172 0-.219-.187-.219-.703 0-1.547.391-1.547 1.516 0 .984.813 1.766 1.797 1.766 1.031 0 1.828-.86 1.828-1.875 0-1-.844-1.407-1.031-1.407m-1.078.547v2.016c-1.11-.078-1.297-.75-1.297-1.047 0-.937 1.125-.969 1.297-.969m0 0"/><path id="B" d="M-1.719-4.422c-1 0-1.797.828-1.797 1.797 0 .64.344 1.016.485 1.156h-2.5l.093 1.188h.266c0-.547.047-.61.438-.61H0v-.234l-.5-.297a1.32 1.32 0 0 0 .578-1.11c0-1-.781-1.89-1.797-1.89m-.015.719c.187 0 .75 0 1.125.281.359.297.468.672.468.922 0 .39-.203.703-.515.922-.156.094-.156.094-.313.094h-1.547c-.156 0-.171 0-.312-.125a1.26 1.26 0 0 1-.469-.97c0-.405.25-.718.485-.874.218-.14.5-.25 1.078-.25m0 0"/><path id="C" d="M-1.703-3.984c-.984 0-1.844.828-1.844 1.875s.86 1.875 1.844 1.875c1 0 1.781-.86 1.781-1.875 0-1.032-.781-1.875-1.781-1.875m-.063.703c.36 0 .797.015 1.141.25.313.203.453.562.453.922 0 .422-.203.765-.484.937-.328.203-.719.219-1.11.219-.312 0-.78 0-1.125-.235a1.14 1.14 0 0 1-.437-.921c0-.422.203-.766.469-.938.343-.219.765-.234 1.093-.234m0 0"/><path id="D" d="M-3.016-3.062c-.28 0-.5.25-.5.609 0 .515.391.875.844 1.031v.016h-.844l.094 1.125h.266c0-.547.047-.61.437-.61h2.094c.36 0 .36.11.36.61H0c-.031-.313-.031-.75-.031-.938 0-.468 0-.484.031-1h-.266v.156c0 .579-.078.594-.375.594h-1.171c-.61 0-1.47-.25-1.485-1.015.031.046.094.14.281.14.25 0 .36-.203.36-.36 0-.187-.125-.358-.36-.358m0 0"/><path id="E" d="M-.719-4.094h-.437v.25h.437c.328 0 .453.11.453.281 0 .297-.359.297-.453.297h-1.656c-.781 0-1.172.75-1.172 1.485 0 .656.25 1.25.781 1.25a.36.36 0 0 0 .375-.375.36.36 0 0 0-.375-.375.356.356 0 0 0-.359.297c-.203-.297-.203-.735-.203-.782 0-.453.312-.89.969-.89h.234c.031.453.047.984.281 1.547.313.703.766.843 1.032.843.687 0 .89-.812.89-1.359a1.23 1.23 0 0 0-.64-1.11c.296-.046.609-.25.609-.609 0-.078-.031-.75-.766-.75m-.406 1.438c.781 0 .984.64.984.969 0 .406-.28.765-.671.765-.516 0-1.063-.5-1.094-1.734Zm0 0"/><path id="F" d="M-1.719-4.422c-1 0-1.797.813-1.797 1.781 0 .313.079.766.5 1.172h-.5l.094 1.188h.266c0-.563.047-.61.375-.61H.922c.36 0 .36.11.36.61h.265c-.031-.344-.031-.688-.031-.906 0-.235 0-.563.03-.907h-.265c0 .516 0 .61-.36.61H-.39a1.37 1.37 0 0 0 .47-1.047c0-1-.782-1.89-1.798-1.89m0 .719c.907 0 1.578.578 1.578 1.219 0 .28-.125.64-.515.906-.14.094-.156.094-.297.094h-1.703a1.3 1.3 0 0 1-.61-1.094c0-.61.672-1.125 1.547-1.125m0 0"/><path id="G" d="M-.437-1.625a.453.453 0 0 0-.454.453c0 .266.22.438.438.438A.44.44 0 0 0 0-1.172a.45.45 0 0 0-.437-.453m0 0"/><path id="H" d="M0-3.562h-.266v.28c0 .75-.093.782-.39.782h-4.422c-.219 0-.219.016-.219.234.313.329.5.75.5 1.5h.266c0-.218 0-.64-.203-1.109h4.078c.297 0 .39.031.39.781v.282H0c-.031-.329-.031-1.016-.031-1.375 0-.36 0-1.047.031-1.376m0 0"/><path id="I" d="M-1.344-3.875c-.5 0-.828.266-.968.406-.126.125-.141.14-.563.828-.219-.453-.61-1-1.234-1-.766 0-1.188.782-1.188 1.516 0 .844.578 1.531 1.328 1.531.297 0 .563-.094.797-.297.172-.14.188-.171.5-.656.438.984 1.016 1.203 1.453 1.203.89 0 1.39-.89 1.39-1.765 0-.97-.671-1.766-1.515-1.766m-2.765.64c.453 0 .843.36 1.078.829l-.594 1c-.14.234-.375.422-.64.422-.5 0-.829-.547-.829-1.125 0-.61.422-1.125.985-1.125m3.047-.187c.609 0 .984.656.984 1.297 0 .719-.484 1.313-1.14 1.313-.594 0-1.063-.438-1.313-.985l.656-1.078c.078-.125.328-.547.813-.547m0 0"/><path id="J" d="M2.672 5.984c1.531 0 2.766-1.156 2.766-2.593V.359h-.266v.188c0 .61-.078.625-.375.625H.64c-.297 0-.375-.016-.375-.625V.359H0v3.032c0 1.437 1.188 2.593 2.672 2.593m0-.812c-.406 0-1.188 0-1.766-.5-.328-.266-.64-.781-.64-1.5v-.906c0-.375.046-.391.328-.391h4.265c.266 0 .313.016.313.39v.907c0 .625-.25 1.14-.64 1.5-.61.5-1.47.5-1.86.5m0 0"/><path id="K" d="M.953 3.516a.12.12 0 0 0 .11-.125c0-.094-.047-.11-.094-.125a1.14 1.14 0 0 1-.797-1.11c0-.36.156-.734.531-.969.36-.234.875-.234 1.11-.234v2.344c0 .172 0 .219.187.219.703 0 1.547-.391 1.547-1.516 0-.984-.813-1.766-1.797-1.766-1.031 0-1.828.86-1.828 1.875 0 1 .844 1.407 1.031 1.407m1.078-.547V.953c1.11.078 1.297.75 1.297 1.047 0 .938-1.125.969-1.297.969m3.219-.031c.172 0 .313-.172.313-.313 0-.031 0-.14-.125-.25l-1.22-1.016-.171.157.937 1.25c.063.093.125.172.266.172m0 0"/><path id="L" d="M1.719 4.422c1 0 1.797-.828 1.797-1.797 0-.64-.344-1.016-.485-1.156h2.5L5.438.28h-.266c0 .547-.047.61-.438.61H0v.234l.5.297a1.32 1.32 0 0 0-.578 1.11c0 1 .781 1.89 1.797 1.89m.015-.719c-.187 0-.75 0-1.125-.281C.25 3.125.141 2.75.141 2.5c0-.39.203-.703.515-.922.156-.094.156-.094.313-.094h1.547c.156 0 .172 0 .312.125.297.235.469.61.469.97 0 .405-.25.718-.485.874-.218.14-.5.25-1.078.25m0 0"/><path id="M" d="M1.703 3.984c.984 0 1.844-.828 1.844-1.875 0-1.046-.86-1.875-1.844-1.875-1 0-1.781.86-1.781 1.875 0 1.032.781 1.875 1.781 1.875m.063-.703c-.36 0-.797-.015-1.141-.25C.313 2.828.172 2.47.172 2.11c0-.421.203-.765.484-.937.328-.203.719-.219 1.11-.219.312 0 .78 0 1.125.235.28.218.437.546.437.921 0 .422-.203.766-.469.938-.343.219-.765.234-1.093.234m0 0"/><path id="N" d="M3.016 3.063c.28 0 .5-.25.5-.61 0-.515-.391-.875-.844-1.031v-.016h.844L3.422.281h-.266c0 .547-.047.61-.437.61H.625C.265.89.265.78.265.28H0c.031.313.031.75.031.938 0 .468 0 .484-.031 1h.266v-.156c0-.579.078-.594.375-.594h1.172c.609 0 1.468.25 1.484 1.015-.031-.046-.094-.14-.281-.14-.25 0-.36.203-.36.36 0 .187.125.358.36.358m0 0"/><path id="O" d="M.719 4.094h.437v-.25H.72c-.328 0-.453-.11-.453-.281 0-.297.359-.297.453-.297h1.656c.781 0 1.172-.75 1.172-1.485 0-.656-.25-1.25-.781-1.25a.36.36 0 0 0-.375.375c0 .219.156.375.375.375a.356.356 0 0 0 .359-.297c.203.297.203.735.203.782 0 .453-.312.89-.969.89h-.234c-.031-.453-.047-.984-.281-1.547C1.53.406 1.078.266.813.266c-.688 0-.891.812-.891 1.359 0 .578.328.938.64 1.11-.296.046-.609.25-.609.609 0 .078.031.75.766.75m.406-1.438c-.781 0-.984-.64-.984-.969 0-.406.28-.765.672-.765.515 0 1.062.5 1.093 1.734Zm0 0"/><path id="P" d="M1.719 4.422c1 0 1.797-.813 1.797-1.781 0-.313-.079-.766-.5-1.172h.5L3.422.28h-.266c0 .563-.047.61-.375.61H-.922c-.36 0-.36-.11-.36-.61h-.265c.031.344.031.688.031.907 0 .234 0 .562-.03.906h.265c0-.516 0-.61.36-.61H.39a1.37 1.37 0 0 0-.47 1.047c0 1 .782 1.89 1.798 1.89m0-.719C.812 3.703.14 3.125.14 2.484c0-.28.125-.64.515-.906.14-.094.156-.094.297-.094h1.703c.313.188.61.594.61 1.094 0 .61-.672 1.125-1.547 1.125m0 0"/><path id="Q" d="M.438 1.625a.453.453 0 0 0 .453-.453.436.436 0 0 0-.438-.438.44.44 0 0 0-.453.438.45.45 0 0 0 .438.453m0 0"/><path id="R" d="M1.422 3.797v-.25c-.156-.016-.547-.078-.703-.172-.063-.047-.063-.656-.063-.781V1.172l.969 1.078c.125.125.39.453.5.594.453.484.89.953 1.61.953.953 0 1.562-.797 1.562-1.781 0-.97-.719-1.594-1.438-1.594-.39 0-.437.312-.437.422 0 .172.11.422.422.422.406 0 .406-.407.406-.5.594.234.781.765.781 1.156 0 .734-.625 1.125-1.297 1.125-.828 0-1.437-.578-2.39-1.531l-1.047-1C.219.422.203.422 0 .422v3.14Zm0 0"/><path id="S" d="M1.36 3.875c.671 0 1.265-.531 1.453-1.344.218.625.75 1.11 1.39 1.11s1.094-.72 1.094-1.547c0-.86-.453-1.5-1.063-1.5-.296 0-.421.187-.421.406 0 .25.171.406.406.406.297 0 .406-.265.406-.437.438.344.469.953.469 1.094 0 .203-.063.812-.89.812-.548 0-.891-.234-1.016-.344-.25-.234-.266-.422-.297-.906 0-.156-.016-.219-.125-.219-.11 0-.11.078-.11.219v.39c0 .626-.453 1.032-1.297 1.032-1 0-1.28-.563-1.28-.985 0-.437.155-1.046.577-1.328 0 .297.188.5.438.5.265 0 .437-.187.437-.453 0-.203-.125-.437-.453-.437-.75 0-1.25.812-1.25 1.734 0 1.047.734 1.797 1.531 1.797m0 0"/><path id="T" d="M9.953 0v-.516h-.312c-.657 0-.703-.062-.813-.218L5.61-5.047l2.844-2.406c.156-.14.266-.234 1.328-.234v-.516L8.5-8.172c-.36 0-1.297 0-1.594-.031v.515c.266 0 .547.016.86.141l-4.47 3.813v-3.953h1.267v-.516c-.344.031-1.625.031-2.047.031-.438 0-1.72 0-2.063-.031v.515H1.72v7.172H.453V0c.344-.031 1.625-.031 2.063-.031.422 0 1.703 0 2.047.031v-.516H3.297v-2.562L4.53-4.125l2.5 3.344c.016.031.063.094.063.14 0 .125-.578.125-.844.125V0c.39-.031 1.5-.031 1.953-.031.36 0 1.485 0 1.75.031m0 0"/><path id="au" d="M13.61-7.687v-.516l-1.297.031c-.344 0-1.22 0-1.5-.031v.515c.14 0 1.187 0 1.187.172 0 0 0 .032-.047.141L9.938-2.047l-2.126-5.64h1.125v-.516c-.374.031-1.484.031-1.937.031-.375 0-1.531 0-1.828-.031v.515h1.016l.484 1.297-1.64 4.344-2.126-5.64h1.125v-.516c-.343.031-1.515.031-1.953.031-.375 0-1.515 0-1.812-.031v.515h1L4.109-.171c.079.203.11.281.375.281.266 0 .297-.078.375-.28l2.079-5.5 2.093 5.5c.063.202.094.28.36.28.234 0 .297-.046.375-.28L12.5-7.407c.094-.203.11-.282 1.11-.282m0 0"/><path id="aY" d="M2.875-.281c0-.766-.36-1.438-1.016-1.438-.53 0-.859.39-.859.86 0 .422.297.859.86.859.359 0 .562-.172.609-.234 0 .343-.063 1.328-1.047 2.172-.078.078-.11.093-.11.156 0 .11.141.219.22.219.155 0 1.343-1 1.343-2.594m0 0"/><path id="bc" d="M6.031-2.562h-.5c-.031.25-.11.953-.297 1.062-.093.094-1.03.094-1.203.094h-1.86l1.72-1.422c1.328-1 2.14-1.61 2.14-2.75 0-1.422-1.281-2.266-2.86-2.266-1.343 0-2.5.766-2.5 1.907 0 .625.517.812.782.812.375 0 .813-.25.813-.797 0-.516-.375-.766-.75-.812.484-.547 1.109-.594 1.359-.594 1.11 0 1.625.89 1.625 1.766 0 .921-.625 1.78-1.125 2.296L.781-.546c-.11.109-.11.124-.11.343V0h5.017Zm0 0"/><path id="bd" d="M6.14-2.14c0-.579-.296-1.72-2.14-2.047 1.047-.313 1.766-1.063 1.766-2 0-.907-.86-1.657-2.516-1.657-1.344 0-2.312.703-2.312 1.672 0 .61.468.797.765.797.36 0 .766-.234.766-.781 0-.282-.11-.688-.672-.766.5-.484 1.312-.484 1.375-.484 1.078 0 1.078.812 1.078 1.172s-.047.922-.437 1.406c-.313.406-.626.422-1.079.453-.14.016-.375.031-.421.047-.079.031-.079.125-.079.172 0 .203.079.203.313.203h.578c1.328 0 1.328 1.234 1.328 1.812 0 .532 0 1.813-1.281 1.813-.25 0-1.047-.047-1.625-.453.516-.11.703-.469.703-.828 0-.5-.344-.844-.844-.844s-.843.344-.843.844C.563-.5 1.75.14 3.234.14c1.97 0 2.907-1.078 2.907-2.282m0 0"/><path id="U" d="M9.766-4.687c.234-.891.28-1.829-.188-2.454-.328-.421-.797-.671-1.328-.843-.687-.22-1.437-.235-2.219-.235l.078-.297-.078-.046-.812.374c-.875.063-1.89.313-2.766 1-.437.344-.781.829-.906 1.329-.047.234-.063.453 0 .593a.29.29 0 0 0 .266.172.56.56 0 0 0 .39-.172c.125-.093.188-.25.219-.39.078-.266.047-.469.11-.735A1.35 1.35 0 0 1 3-7.109a3.32 3.32 0 0 1 2.125-.735L4.203-4.14c-.14.579-.297 1.172-.562 1.75-.141.344-.36.704-.657.954-.609.5-1.328.796-2.015.796l-.485.594h3.47c1.25 0 2.53-.484 3.624-1.36 1.094-.859 1.875-2.046 2.188-3.28m-.891.062c-.156.625-.36 1.25-.703 1.828-.266.485-.61.938-1.047 1.281a3.5 3.5 0 0 1-1.297.704c-.578.171-1.156.171-1.719.171H2.656l-.015-.125.53-.437c.517-.438.923-1 1.235-1.563a9.8 9.8 0 0 0 .844-2.28l.688-2.798c.593 0 1.14.047 1.671.219.391.125.75.297 1 .61.47.624.485 1.515.266 2.39m0 0"/><path id="av" d="M5.14-1.281c0-.063-.077-.157-.14-.157-.062 0-.094.032-.156.125C3.89-.125 2.594-.125 2.454-.125c-.938 0-1.048-1.016-1.048-1.39 0-.141.016-.516.203-1.25h.625c.344 0 1.235-.016 1.829-.266.843-.36.89-1.063.89-1.235 0-.53-.453-1.015-1.266-1.015-1.328 0-3.14 1.156-3.14 3.25C.547-.812 1.25.125 2.422.125 4.14.125 5.14-1.141 5.14-1.281m-.577-2.985c0 1.235-1.907 1.235-2.407 1.235h-.484c.469-1.813 1.703-1.985 2.016-1.985.562 0 .874.344.874.75m0 0"/><path id="aA" d="m10.344-8.156-.172-.11-.375.422c-.14.14-.36.266-.563.266-.078 0-.25-.031-.359-.047a18 18 0 0 1-1.687-.36l.078-.327-.063-.047-.672.297a10 10 0 0 0-.718-.047c-.954 0-1.813.187-2.657.859-.531.438-1.015 1-1.172 1.61-.046.202-.078.406.032.546.093.094.172.172.328.172.125 0 .265-.094.375-.172a.63.63 0 0 0 .219-.36c.03-.124.015-.296.015-.421.016-.172.016-.312.078-.469.047-.187.375-.61.656-.843.563-.438 1.126-.563 1.72-.563a4.5 4.5 0 0 1 .921.094l-.86 3.172H3.704l-.25.343h1.938l-.282 1.047c-.125.422-.25.844-.484 1.25a3 3 0 0 1-.687.875c-.407.375-.97.672-1.47.672-.312 0-.609-.078-.78-.312a1.1 1.1 0 0 1-.188-.407c-.094-.437-.14-.453-.312-.453a.73.73 0 0 0-.438.14c-.125.11-.203.204-.234.345-.063.25-.032.5.125.672.234.328.609.484 1.062.484.969 0 2.031-.39 2.844-1.094.437-.375.672-.687.906-1.094.281-.5.469-1.015.61-1.546l.14-.579h1.469l.344-.343H6.28l.766-2.97c.156.063.937.329 1.422.47.156.062.344.109.5.109.25 0 .531-.219.703-.422Zm0 0"/><path id="aB" d="M6.828-7.234c.063-.282.016-.578-.125-.75-.234-.328-.672-.407-1.125-.407-.719 0-1.406.094-2.062.625-.438.344-.766.829-.891 1.313-.11.469-.11.937.14 1.266.172.25.47.421.782.53l-.031.126a3.46 3.46 0 0 0-1.766.734C1.172-3.328.734-2.719.563-2.062.438-1.532.438-.984.734-.61c.204.265.516.437.829.562.406.14.859.188 1.328.188.89 0 1.797-.328 2.578-.953.11-.079.265-.297.39-.454l-.39-.578-.157.032c-.125.343-.312.656-.593.875-.469.375-1 .656-1.532.656-.562 0-1.14-.094-1.437-.5-.297-.39-.312-.922-.187-1.469.14-.547.453-1.062.921-1.437.344-.266.782-.407 1.157-.5.562-.125 1.109-.157 1.672-.157l.062-.312c-.406 0-.797-.032-1.172-.14-.25-.063-.5-.173-.656-.391-.219-.282-.266-.704-.172-1.125.14-.516.453-1.032.89-1.391.298-.25.688-.313 1.032-.313.281 0 .469.063.61.204a.5.5 0 0 1 .109.468c-.047.203-.157.328-.266.453-.078.094-.14.172-.187.282a.36.36 0 0 0 .03.234c.079.094.126.094.266.094s.422-.078.625-.266c.22-.234.282-.437.344-.687m0 0"/><path id="aI" d="M5.953-1.703c0-.125-.11-.125-.14-.125-.125 0-.141.047-.172.219-.203.765-.422 1.484-.907 1.484-.328 0-.359-.312-.359-.562s.031-.36.156-.875l.266-1.079.422-1.671c.093-.344.093-.36.093-.407 0-.203-.156-.328-.359-.328-.281 0-.453.266-.5.531-.203-.437-.562-.765-1.094-.765-1.406 0-2.875 1.75-2.875 3.5 0 1.125.657 1.906 1.579 1.906.25 0 .843-.047 1.562-.89.094.5.516.89 1.078.89.422 0 .703-.266.89-.656.204-.422.36-1.172.36-1.172M4.313-3.97c0 .078-.016.14-.032.203l-.593 2.344c-.063.219-.063.234-.25.438-.516.656-1.016.859-1.344.859-.594 0-.766-.656-.766-1.125 0-.61.375-2.078.656-2.625.375-.703.907-1.14 1.391-1.14.766 0 .938.968.938 1.046m0 0"/><path id="V" d="M4.344-5.125H2.25c-.312 0-.406-.016-.687-.031-.422-.047-.438-.094-.454-.235H.844L.563-3.687h.265c.016-.11.094-.641.219-.72.062-.046.719-.046.828-.046h1.75l-.844 1.047C1.75-2.031 1.656-.766 1.656-.296c0 .093 0 .452.375.452s.375-.36.375-.453v-.328c0-1.547.313-2.25.656-2.687l1.204-1.5c.078-.094.078-.11.078-.313m0 0"/><path id="W" d="M7.547 0 4.28-5.016l3.125-3.28H6.281L2.094-3.892v-4.406h-1V0h1v-2.703L3.64-4.328 6.453 0Zm0 0"/><path id="X" d="M1.813 0v-5.312H.938V0Zm.078-6.797v-1.016H.859v1.016Zm0 0"/><path id="Y" d="M4.86-2.687c0-.516-.048-1.25-.423-1.876-.5-.828-1.328-.921-1.671-.921C1.469-5.484.39-4.25.39-2.687.39-1.11 1.547.124 2.92.124c.563 0 1.22-.156 1.876-.64 0-.047-.047-.438-.047-.438s-.031-.281-.031-.328c-.703.593-1.407.687-1.766.687-.922 0-1.703-.828-1.734-2.093Zm-.704-.641h-2.86c.204-.813.767-1.438 1.47-1.438.359 0 1.187.157 1.39 1.438m0 0"/><path id="Z" d="M5.063 0v-8.297h-.891v3.485a2.65 2.65 0 0 0-1.688-.61c-1.14 0-2.062 1.219-2.062 2.766S1.297.125 2.437.125c.438 0 1.11-.156 1.704-.734V0ZM4.14-1.406c-.282.515-.703.812-1.22.812-.733 0-1.593-.562-1.593-2.047 0-1.593 1.016-2.062 1.703-2.062.469 0 .86.234 1.11.625Zm0 0"/><path id="aa" d="M5.172-5.312h-.89c-.548 1.421-1.47 3.765-1.516 4.625H2.75c-.062-.72-.687-2.282-.797-2.532L1.11-5.312H.172L2.39 0l-.422 1.094c-.266.593-.438.656-.657.656-.171 0-.546-.047-.921-.187l.078.78c.062.016.469.095.844.095.296 0 .843 0 1.359-1.313Zm0 0"/><path id="ab" d="M2.11 0v-8.297H1.077V0Zm0 0"/><path id="ac" d="M4.703 0v-.734H2.984c-.14 0-.28.015-.421.015H1.547l3.11-4.125v-.468H.483v.703h2.953L.329-.484V0Zm0 0"/><path id="ad" d="M3.797-4.625v-.797c-1.078 0-1.719.64-2.047 1.11V-5.36H.938V0h.875v-2.625c0-1.203.906-1.984 1.984-2m0 0"/><path id="ae" d="M4.797 0v-3.5c0-1.156-.828-1.984-1.938-1.984-.718 0-1.25.172-1.843.5l.078.78c.515-.374 1.062-.593 1.765-.593.547 0 1.032.453 1.032 1.313v.5c-.547.015-1.266.062-1.985.297C1.11-2.422.641-1.97.641-1.375c0 .531.312 1.5 1.328 1.5.656 0 1.5-.203 1.937-.562V0ZM3.89-1.61c0 .25 0 .532-.407.766-.312.203-.718.25-.906.25-.64 0-1.078-.343-1.078-.797 0-.812 1.656-.984 2.39-.984Zm0 0"/><path id="af" d="M1.813 0v-8.297H.938V0Zm0 0"/><path id="ag" d="M7.766-5.312H6.89l-.703 2.437c-.172.563-.516 1.688-.563 2.203-.047-.281-.234-1.078-.484-1.937l-.797-2.703H3.53L2.844-2.97c-.219.75-.5 1.781-.531 2.282h-.016c-.016-.235-.14-.86-.375-1.672l-.844-2.953H.172L1.766 0h.922c.453-1.5 1.156-3.781 1.218-4.61h.016c.015.485.265 1.344.344 1.626L5.109 0h1.063Zm0 0"/><path id="ah" d="M5.484-2.625c0-1.625-1.187-2.86-2.562-2.86-1.406 0-2.563 1.266-2.563 2.86 0 1.563 1.188 2.75 2.563 2.75 1.406 0 2.562-1.219 2.562-2.75m-.906-.125c0 1.469-.844 2.125-1.656 2.125-.86 0-1.656-.719-1.656-2.125 0-1.453.89-2.016 1.656-2.016.812 0 1.656.625 1.656 2.016m0 0"/><path id="ai" d="m3.688-5.36-.485-.515-.828.719v-3.14H1.5v3.874L.328-3.375l.453.547.719-.656V0h.875v-4.234Zm0 0"/><path id="aj" d="M5.063 0v-5.312h-.907v3.421c0 .907-.625 1.36-1.406 1.36-.844 0-.922-.313-.922-.844v-3.937H.922v3.984c0 .86.265 1.453 1.25 1.453.344 0 1.281-.062 2.015-.719V0Zm0 0"/><path id="ak" d="M2.14.703v-6.015h-.89v6.14c0 .781-.625.86-.875.86-.531 0-.86-.344-.875-.375l-.234.718c.375.235.859.406 1.406.406.75 0 1.469-.624 1.469-1.734m0-7.5v-1.016H1.11v1.016Zm0 0"/><path id="al" d="m5.672-4.703-.125-.719c-.234 0-1.047 0-1.828.39-.39-.327-.875-.39-1.11-.39-1.046 0-1.875.875-1.875 1.922 0 .422.125.828.391 1.188a1.64 1.64 0 0 0-.344 1.015c0 .453.156.75.297.906C.468 0 .328.516.328.844c0 .875 1.125 1.61 2.594 1.61 1.453 0 2.594-.704 2.594-1.61 0-1.688-1.938-1.688-2.422-1.688H2.078c-.172 0-.672 0-.672-.625 0-.265.047-.343.11-.437.203.14.593.343 1.078.343 1.031 0 1.875-.859 1.875-1.937a2.13 2.13 0 0 0-.36-1.156 7 7 0 0 1 .954-.063c.046 0 .312 0 .609.016M3.64-3.5c0 1.063-.672 1.281-1.032 1.281-.53 0-1.062-.36-1.062-1.265 0-1.063.672-1.282 1.047-1.282.531 0 1.047.36 1.047 1.266M4.688.844c0 .562-.829.953-1.766.953-.922 0-1.766-.375-1.766-.953 0-.047 0-.813.907-.813h1.046c.266 0 1.579 0 1.579.813m0 0"/><path id="am" d="M8.328 0v-3.594c0-.828-.219-1.828-1.61-1.828-1.015 0-1.577.703-1.765.969-.203-.766-.86-.969-1.484-.969-.985 0-1.5.625-1.703.875v-.812H.922V0h.906v-2.969c0-.797.313-1.734 1.188-1.734 1.093 0 1.156.75 1.156 1.187V0h.906v-2.969c0-.797.313-1.734 1.188-1.734 1.093 0 1.156.75 1.156 1.187V0Zm0 0"/><path id="an" d="M5.063 0v-3.594c0-.734-.157-1.828-1.594-1.828-.672 0-1.25.297-1.703.875v-.812H.922V0h.906v-2.969c0-.75.281-1.734 1.188-1.734 1.109 0 1.14.766 1.14 1.187V0Zm0 0"/><path id="ao" d="M2.11-.016v-.953h-.97V0h.298L1.14 1.5h.468Zm0 0"/><path id="ap" d="M5.563-2.672c0-1.469-.782-2.75-1.891-2.75-.344 0-1.11.063-1.86.672v-3.547H.939V0h.906v-.531c.547.515 1.125.656 1.547.656 1.14 0 2.172-1.172 2.172-2.797m-.907 0c0 1.563-.968 2.078-1.703 2.078-.328 0-.562-.125-.781-.297-.281-.25-.328-.453-.328-.656V-4.03c.218-.328.64-.672 1.234-.672.719 0 1.578.547 1.578 2.031m0 0"/><path id="aq" d="M4.203-1.516c0-.609-.36-1-.406-1.046-.453-.47-.813-.532-1.531-.672-.438-.094-1.047-.203-1.047-.813 0-.734.843-.734 1-.734.625 0 1.125.14 1.656.437l.14-.765a3.9 3.9 0 0 0-1.687-.375c-.265 0-1.937 0-1.937 1.547 0 .53.297.89.468 1.062.438.36.735.422 1.438.563.39.093 1.078.234 1.078.859 0 .828-.922.828-1.094.828A3.12 3.12 0 0 1 .47-1.219l-.14.813c.046.031.859.531 1.968.531 1.547 0 1.906-.937 1.906-1.64m0 0"/><path id="ar" d="M4.86-2.687c0-.516-.048-1.25-.423-1.876-.5-.828-1.328-.921-1.671-.921C1.469-5.484.39-4.25.39-2.687.39-1.141 1.5.078 2.844.124c-.531.344-.875.828-.828 1.39 0 .516.375 1.016 1.172 1.016.39 0 .703-.062 1.171-.297l-.156-.703c-.266.11-.547.172-.812.172-.328-.031-.625-.094-.625-.453-.016-.531.5-.969 1.047-1.281.328-.094.64-.25.984-.485 0-.046-.047-.437-.047-.437s-.031-.281-.031-.328c-.703.593-1.407.687-1.766.687-.922 0-1.703-.828-1.734-2.093Zm-.704-.641h-2.86c.204-.813.767-1.438 1.47-1.438.359 0 1.187.157 1.39 1.438m0 0"/><path id="as" d="M5.469 0 3.25-3.266l1.969-2.046h-1.11L1.813-2.906v-5.39H.938V0h.828v-1.719l.906-.953L4.5 0Zm0 0"/><path id="at" d="M2.11-4.344v-.968h-.97v.968ZM2.11 0v-.969h-.97V0Zm0 0"/><path id="aw" d="M7.11-2.25c0-1.047-1.032-1.89-2.266-2.094 1.39-.375 1.937-1.172 1.937-1.875 0-1.078-1.218-2.078-2.906-2.078H1.109V0h3.094C5.875 0 7.11-1.078 7.11-2.25M5.86-6.203c0 .844-1.032 1.531-2.298 1.531H2.079v-2.953h1.469c1.281 0 2.312.625 2.312 1.422m.312 3.937c0 .844-.969 1.594-2.313 1.594H2.08v-3.281h1.593c1.547 0 2.5.86 2.5 1.687m0 0"/><path id="ax" d="M4.86-.5c0-.031-.032-.406-.048-.453l-.015-.344a2.8 2.8 0 0 1-1.828.672c-1 0-1.64-.875-1.64-2.047 0-.984.484-2.078 1.671-2.078.797 0 1.14.203 1.656.547l.14-.781c-.702-.407-1.093-.5-1.796-.5-1.656 0-2.578 1.453-2.578 2.812C.422-1.14 1.516.125 2.953.125c.578 0 1.25-.156 1.906-.625m0 0"/><path id="ay" d="M4.531-1.766v-6.53h-1v6.483c0 .688-.344 1.329-1.39 1.329a1.96 1.96 0 0 1-1.485-.657L.484-.25c.704.36 1.375.5 2 .5 1.25 0 2.047-.734 2.047-2.016m0 0"/><path id="az" d="M5.063 0v-3.594c0-.734-.157-1.828-1.594-1.828-.828 0-1.375.469-1.656.813v-3.688H.922V0h.906v-2.969c0-.75.281-1.734 1.188-1.734 1.109 0 1.14.766 1.14 1.187V0Zm0 0"/><path id="aC" d="M6.797-5.875c0-1.266-1.172-2.422-2.797-2.422H1.094V0h1.015v-3.453H4c1.656 0 2.797-1.188 2.797-2.422m-.953-.016c0 .938-.735 1.75-2.094 1.75H2.094v-3.484H3.75c1.406 0 2.094.828 2.094 1.734m0 0"/><path id="aD" d="M4.203-1.516c0-.609-.36-1-.406-1.046-.453-.47-.813-.532-1.531-.672-.438-.094-1.047-.203-1.047-.813 0-.734.843-.734 1-.734.625 0 1.125.14 1.656.437l.14-.765a3.9 3.9 0 0 0-1.687-.375c-.265 0-1.937 0-1.937 1.547 0 .53.297.89.468 1.062.438.36.735.422 1.438.563.39.093 1.078.234 1.078.859 0 .828-.922.828-1.094.828A3.12 3.12 0 0 1 .47-1.219l-.14.813c.046.031.859.531 1.968.531 1.547 0 1.906-.937 1.906-1.64m-.312-6.78h-.922l-1.547 2h.719Zm0 0"/><path id="aE" d="M5.563-2.672c0-1.437-.75-2.75-1.875-2.75-.485 0-1.25.156-1.876.672v-.562H.939v7.625h.906V-.531c.406.36.906.656 1.547.656 1.156 0 2.172-1.172 2.172-2.797m-.907.016c0 1.203-.812 2.062-1.703 2.062-.328 0-.562-.125-.781-.297-.297-.25-.328-.468-.328-.656v-2.469a1.47 1.47 0 0 1 1.219-.671c.874 0 1.593.89 1.593 2.03m0 0"/><path id="aF" d="M4.86-.5c0-.031-.032-.406-.048-.453l-.015-.344a2.8 2.8 0 0 1-1.828.672c-1 0-1.64-.875-1.64-2.047 0-.984.484-2.078 1.671-2.078.797 0 1.14.203 1.656.547l.14-.781c-.702-.407-1.093-.5-1.796-.5-1.656 0-2.578 1.453-2.578 2.812C.422-1.14 1.516.125 2.953.125c.578 0 1.25-.156 1.906-.625M4.5-8.297h-.922l-1.547 2h.719Zm0 0"/><path id="aG" d="M2.11 0v-.969h-.97V0Zm0 0"/><path id="aH" d="M4.703 0v-.734H2.984c-.14 0-.28.015-.421.015H1.547l3.11-4.125v-.468H.483v.703h2.953L.329-.484V0Zm-.516-8.297h-.906l-1.562 2h.718Zm0 0"/><path id="aJ" d="M7.75-4.078c0-2.328-1.578-4.219-3.594-4.219H1.094V0h3.062c2 0 3.594-1.812 3.594-4.078m-1-.016c0 2.188-1.328 3.422-2.86 3.422H2.095v-6.953H3.89c1.593 0 2.859 1.375 2.859 3.531m0 0"/><path id="aK" d="M4.86-2.687c0-.516-.048-1.25-.423-1.876-.5-.828-1.328-.921-1.671-.921C1.469-5.484.39-4.25.39-2.687.39-1.11 1.547.124 2.92.124c.563 0 1.22-.156 1.876-.64 0-.047-.047-.438-.047-.438s-.031-.281-.031-.328c-.703.593-1.407.687-1.766.687-.922 0-1.703-.828-1.734-2.093Zm-.704-.641h-2.86c.204-.813.767-1.438 1.47-1.438.359 0 1.187.157 1.39 1.438m.094-4.969h-.922l-1.547 2H2.5Zm0 0"/><path id="aL" d="M5.063 0v-3.594c0-.734-.157-1.828-1.594-1.828-.672 0-1.25.297-1.703.875v-.812H.922V0h.906v-2.969c0-.75.281-1.734 1.188-1.734 1.109 0 1.14.766 1.14 1.187V0ZM4.64-8.297h-.907l-1.562 2h.719Zm0 0"/><path id="aM" d="M2.344-8.297h-.969l.094 6.235h.781Zm0 8.297v-.969h-.969V0Zm0 0"/><path id="aN" d="m3.89-.344-.171-.703c-.422.375-.86.422-1.078.422-.532 0-.594-.562-.594-.984v-3h1.64v-.703h-1.64v-1.516h-.828v1.516h-1v.703h.969v3.203c0 .703.156 1.531.984 1.531.797 0 1.36-.281 1.719-.469m0 0"/><path id="aO" d="M6.547 0v-.766H5.422l-3.094.032h-.375l4.531-7.078v-.485H.813v.735h2.343c.14 0 .281-.016.422-.016h1.61L.64-.484V0Zm0 0"/><path id="aP" d="M5.844-2.266c0-.765-.375-1.328-.625-1.625-.563-.593-1-.718-1.797-.921-.813-.204-1.11-.266-1.375-.516-.156-.172-.485-.469-.485-1 0-.734.657-1.438 1.72-1.438 1.015 0 1.546.391 1.984.766l.172-.953c-.485-.266-1.094-.594-2.157-.594-1.594 0-2.64 1.14-2.64 2.344 0 .844.515 1.39.578 1.453.593.61 1 .703 1.75.906 1.031.25 1.187.297 1.578.688.203.219.375.594.375 1.015 0 .829-.672 1.594-1.703 1.594a3.75 3.75 0 0 1-2.516-1l-.172.969A4.9 4.9 0 0 0 3.22.25C4.75.25 5.844-.937 5.844-2.266m0 0"/><path id="aQ" d="M7.406 0 4.391-8.297H3.328L.328 0h.875l.875-2.422h3.375L6.328 0ZM5.203-3.094h-2.86l1.423-4.344Zm0 0"/><path id="aR" d="M5.484-2.625c0-1.625-1.187-2.86-2.562-2.86-1.406 0-2.563 1.266-2.563 2.86 0 1.563 1.188 2.75 2.563 2.75 1.406 0 2.562-1.219 2.562-2.75m-.906-.125c0 1.469-.844 2.125-1.656 2.125-.86 0-1.656-.719-1.656-2.125 0-1.453.89-2.016 1.656-2.016.812 0 1.656.625 1.656 2.016m-.016-5.547h-.906l-1.547 2h.72Zm0 0"/><path id="aS" d="M4.703 0v-.734H2.984c-.14 0-.28.015-.421.015H1.547l3.11-4.125v-.468H.483v.703h2.953L.329-.484V0ZM3.047-6.797v-1.016H2.016v1.016Zm0 0"/><path id="aT" d="M7-.453v-3.172H4.547v.719h1.531v2.031a4.6 4.6 0 0 1-1.531.25c-.766 0-1.469-.422-1.938-1.031-.546-.703-.796-1.594-.796-2.485 0-.906.25-1.796.796-2.5.47-.609 1.172-1.03 1.938-1.03.39 0 .797.046 1.172.187.375.14.718.375 1.015.64l.172-1c-.36-.187-.734-.36-1.14-.453a5.4 5.4 0 0 0-1.22-.125c-1.03 0-1.984.469-2.655 1.25C1.14-6.344.78-5.266.78-4.14c0 1.094.36 2.188 1.11 3.016.672.766 1.625 1.25 2.656 1.25C5.39.125 6.234-.078 7-.453m0 0"/><path id="aU" d="M2.11 0v-.969h-.97V0Zm2.03 0v-.969h-.968V0Zm2.048 0v-.969h-.97V0Zm0 0"/><path id="aV" d="M6.469 0v-.812H4.906c-.156 0-.297.015-.437.015h-2.36v-3.14h3.86v-.72h-3.86V-7.53h1.625c.141 0 .282.015.422.015h2.157v-.75H1.077V0Zm0 0"/><path id="aW" d="M7.547-7.484v-.75H.422v.75H2c.14 0 .281-.016.422-.016h1.062V0H4.5v-7.5h1.063c.14 0 .28.016.421.016Zm0 0"/><path id="aX" d="m5.219 2.234-.157-.703c-.265.11-.546.172-.812.172-.328-.031-.61-.094-.625-.453C3.609.719 4.109.313 4.656 0h.14v-3.5c0-1.156-.827-1.984-1.937-1.984-.718 0-1.25.172-1.843.5l.078.78c.515-.374 1.062-.593 1.765-.593.547 0 1.032.453 1.032 1.313v.5c-.547.015-1.266.062-1.985.297C1.11-2.422.641-1.97.641-1.375c0 .531.312 1.5 1.328 1.5.656 0 1.5-.203 1.937-.562V0c-.594.328-1.078.906-1.031 1.516 0 .515.375 1.015 1.172 1.015.406 0 .703-.062 1.172-.297M3.89-1.609c0 .25 0 .53-.407.765-.312.203-.718.25-.906.25-.64 0-1.078-.343-1.078-.797 0-.812 1.656-.984 2.39-.984Zm0 0"/><path id="aZ" d="M7.094 0v-8.297h-.907V-.89h-.015l-.969-2-2.64-5.406h-1.47V0h.923v-7.406l.968 2L5.625 0Zm0 0"/><path id="be" d="M4.563 0v-.437H3.266v-5.157c0-.187 0-.297-.266-.297-.11 0-.125 0-.203.063-.688.516-1.656.516-1.828.516H.797v.437h.172a4.2 4.2 0 0 0 1.203-.172v4.61H.89V0c.343-.031 1.422-.031 1.828-.031.422 0 1.484 0 1.844.031m0 0"/><path id="bf" d="M4.86-2.953c0-.469-.032-1.39-.485-2.094-.297-.437-.828-.844-1.719-.844-1.281 0-2.218.72-2.218 1.938 0 1.125.765 1.937 2.093 1.937.406 0 .781-.203 1.063-.687v.172c0 .578-.063 1.156-.235 1.531-.109.234-.468.703-1.171.703-.079 0-.454 0-.735-.187a.55.55 0 0 0 .422-.563c0-.375-.281-.578-.578-.578-.25 0-.594.14-.594.594 0 .61.469 1.14 1.5 1.14 1.25 0 2.656-.796 2.656-3.062m-1.266-.89c0 .406-.172 1.452-1.031 1.452-.86 0-.86-.656-.86-1.53 0-.876 0-1.61.984-1.61.563 0 .766.515.797.593.11.297.11.782.11 1.094m0 0"/><path id="bg" d="M4.766-2.016h-.453c-.016.125-.094.766-.235.829-.11.046-.781.046-.937.046H1.859c.485-.39 1.016-.812 1.47-1.125.75-.53 1.437-1.015 1.437-1.89 0-1.047-.953-1.735-2.25-1.735-1.11 0-1.985.532-1.985 1.36 0 .468.36.687.672.687a.65.65 0 0 0 .656-.672c0-.203-.078-.53-.468-.64.312-.25.718-.282.89-.282.735 0 1.203.547 1.203 1.282 0 .656-.375 1.234-.859 1.718l-2 1.985c-.094.094-.094.11-.094.281V0H4.5Zm0 0"/><path id="bh" d="M3.297 0v-.25H3.03c-.703 0-.703-.094-.703-.328v-3.86c0-.187 0-.187-.203-.187-.453.438-1.078.438-1.36.438v.25c.157 0 .626 0 1-.188v3.547c0 .234 0 .328-.687.328H.812V0l1.235-.031Zm0 0"/><path id="bi" d="M3.578-1.172c0-.469-.265-.86-.672-1.094l-.437-.25c.547-.265.89-.593.89-1.078 0-.672-.703-1.031-1.375-1.031-.765 0-1.39.5-1.39 1.156 0 .328.156.563.281.703.125.157.172.188.578.422-.39.172-1.078.547-1.078 1.281 0 .766.797 1.204 1.594 1.204.89 0 1.61-.563 1.61-1.313M3-3.594c0 .625-.734.938-.734.938s-.032 0-.079-.031l-.843-.485c-.188-.11-.375-.297-.375-.562 0-.438.5-.688 1-.688.547 0 1.031.344 1.031.828m.156 2.657c0 .53-.578.859-1.172.859-.64 0-1.187-.422-1.187-.984 0-.516.375-.922.875-1.141.39.219.406.219.969.547.172.11.515.312.515.718m0 0"/><path id="bj" d="M3.578-2.297c0-1.719-.765-2.328-1.578-2.328a1.55 1.55 0 0 0-1.11.422c-.234.234-.515.5-.515 1.125 0 .89.703 1.547 1.516 1.547.562 0 .859-.375 1.015-.688v.14c0 1.735-.844 2-1.265 2-.157 0-.532-.015-.72-.233a.315.315 0 0 0 .313-.329.32.32 0 0 0-.328-.328c-.203 0-.328.14-.328.344 0 .469.39.766 1.063.766 1 0 1.937-.938 1.937-2.438M2.891-3c0 .906-.516 1.266-.953 1.266-.282 0-.532-.079-.735-.407-.156-.25-.156-.546-.156-.937 0-.406 0-.672.203-.953.172-.25.39-.39.75-.39s.578.218.688.405c.187.282.203.782.203 1.016m0 0"/><path id="bk" d="M2.016 1.734v-.328h-.72V-4.89h.72v-.328H.953v6.953Zm0 0"/><path id="bl" d="M3.516-1.266H3.28c-.015.157-.094.563-.187.625-.047.047-.578.047-.688.047H1.125c.734-.64.984-.843 1.39-1.172.516-.406 1-.843 1-1.5 0-.843-.734-1.359-1.624-1.359-.86 0-1.453.61-1.453 1.25 0 .344.296.39.375.39.156 0 .359-.124.359-.374 0-.125-.047-.375-.406-.375.218-.485.687-.641 1.015-.641.703 0 1.063.547 1.063 1.11 0 .609-.438 1.078-.656 1.328L.516-.266C.437-.203.437-.187.437 0h2.876Zm0 0"/><path id="bm" d="M3.594-2.219c0-.765-.094-1.328-.406-1.812-.22-.313-.657-.594-1.204-.594C.36-4.625.36-2.719.36-2.219s0 2.36 1.625 2.36c1.61 0 1.61-1.86 1.61-2.36m-.625-.094c0 .516 0 1.032-.094 1.47-.14.64-.61.78-.89.78-.329 0-.75-.187-.891-.75C1-1.219 1-1.796 1-2.312c0-.515 0-1.046.094-1.421.156-.547.593-.703.89-.703.375 0 .735.234.86.64.11.375.125.875.125 1.485m0 0"/><path id="bn" d="M3.516-1.406c0-.782-.594-1.5-1.453-1.5-.313 0-.672.062-.985.328v-1.313c.36.094.563.094.672.094.922 0 1.469-.625 1.469-.734 0-.078-.047-.094-.078-.094 0 0-.032 0-.063.016-.172.062-.531.203-1.047.203-.203 0-.562-.016-1.015-.188-.079-.031-.094-.031-.094-.031-.094 0-.094.078-.094.188v2.046c0 .125 0 .204.11.204.062 0 .078 0 .14-.094.297-.375.734-.438.969-.438.422 0 .61.328.64.39.126.235.172.5.172.907 0 .203 0 .61-.218.922a.98.98 0 0 1-.813.422c-.453 0-.922-.25-1.094-.719.266.016.407-.156.407-.344 0-.296-.266-.343-.36-.343 0 0-.343 0-.343.375 0 .625.578 1.25 1.406 1.25.89 0 1.672-.657 1.672-1.547m0 0"/><path id="bo" d="M1.297 1.734v-6.953H.219v.328h.734v6.297H.22v.328Zm0 0"/><path id="bp" d="M7.813-1.75v-.203H.109v.203Zm0 0"/><path id="bq" d="M2.516 0v-.25h-.172c-.578 0-.578-.078-.578-.328v-3.61c0-.234 0-.328.578-.328h.172v-.25l-1.078.032-1.079-.032v.25h.172c.578 0 .578.094.578.329v3.609c0 .25 0 .328-.578.328H.36V0l1.079-.031Zm0 0"/><path id="br" d="M3.578-1.422c0-.89-.703-1.547-1.515-1.547-.563 0-.86.375-1.016.688 0-.563.047-1.078.312-1.516.235-.375.61-.625 1.063-.625.203 0 .484.047.625.234-.172.016-.328.141-.328.344a.32.32 0 0 0 .328.328c.219 0 .344-.14.344-.343 0-.407-.297-.766-.985-.766-1 0-2.031.922-2.031 2.422C.375-.406 1.219.14 2 .14c.844 0 1.578-.657 1.578-1.563m-.672 0c0 .39 0 .688-.187.969A.82.82 0 0 1 2-.078c-.36 0-.625-.203-.781-.516-.094-.203-.157-.562-.157-.968 0-.688.407-1.204.97-1.204.312 0 .53.125.702.375.172.266.172.563.172.97m0 0"/><path id="bs" d="M5.547 0v-.25h-.125c-.469 0-.516-.078-.594-.266L3.125-4.812c-.031-.11-.062-.157-.187-.157-.141 0-.157.047-.204.157L1.125-.734C1.063-.562.938-.25.313-.25V0c.234-.016.484-.031.718-.031.282 0 .797.031.844.031v-.25c-.312 0-.516-.14-.516-.328 0-.063.016-.078.047-.14l.328-.86H3.72l.406 1.016c0 .03.031.078.031.109 0 .203-.375.203-.562.203V0l1.031-.031c.328 0 .86.031.922.031M3.609-1.828H1.83l.89-2.266Zm0 0"/><path id="bt" d="M4.047 0v-.25c-.469 0-.516-.047-.516-.39v-4.204l-1.047.078v.25c.47 0 .516.063.516.391v1.453a1.37 1.37 0 0 0-.969-.406c-.937 0-1.703.703-1.703 1.578S1.062.063 1.938.063c.578 0 .921-.297 1.03-.422v.422ZM2.969-.734c-.172.328-.531.609-.985.609-.39 0-.671-.234-.812-.437-.14-.204-.219-.485-.219-.922 0-.172 0-.688.281-1.016.282-.312.625-.375.829-.375.328 0 .64.156.828.406.078.11.078.11.078.25Zm0 0"/><path id="bu" d="M5.469-2.75V-3c-.188.016-.313.031-.5.031-.219 0-.485-.015-.688-.031v.25c.235 0 .36.14.36.297 0 .062 0 .078-.047.172L3.922-.547l-.75-1.906a.3.3 0 0 1-.031-.125c0-.156.172-.172.375-.172V-3c-.25.016-.5.031-.75.031-.203 0-.422-.015-.625-.031v.25c.172 0 .312 0 .406.047.094.078.156.312.156.312s-.015.063-.031.079L2.016-.641l-.703-1.812c-.032-.094-.032-.094-.032-.125 0-.172.25-.172.375-.172V-3s-.515.031-.797.031C.641-2.969.422-2.984.203-3v.25c.281 0 .438 0 .5.203l.969 2.453c.047.11.062.157.203.157.125 0 .14-.047.172-.141l.797-1.984.765 1.968c.047.094.063.157.204.157.124 0 .14-.047.187-.157l.875-2.234c.14-.344.375-.422.594-.422m0 0"/><path id="bv" d="M3.266-.844c0-.015-.016-.094-.125-.094-.094 0-.11.047-.125.11-.22.562-.75.672-1 .672-.328 0-.641-.14-.844-.406-.266-.329-.266-.75-.266-1.032h2.157c.156 0 .203 0 .203-.14 0-.625-.344-1.375-1.391-1.375a1.59 1.59 0 0 0-1.61 1.578c0 .89.782 1.594 1.704 1.594.937 0 1.297-.75 1.297-.907m-.485-.922H.906c.078-.984.703-1.14.969-1.14.86 0 .89.969.906 1.14m0 0"/><path id="bw" d="M4.11 0v-.25c-.454 0-.516 0-.516-.297v-1.562c0-.61-.297-.97-1.047-.97-.578 0-.938.313-1.14.688v-.687L.374-3v.25c.469 0 .531.047.531.39v1.813c0 .297-.078.297-.531.297V0s.5-.031.797-.031c.25 0 .734.031.797.031v-.25c-.453 0-.516 0-.516-.297v-1.265c0-.72.578-1.063 1.031-1.063.485 0 .547.375.547.734v1.594c0 .297-.062.297-.515.297V0s.5-.031.797-.031c.25 0 .734.031.796.031m0 0"/><path id="bx" d="M2.61-.875v-.39h-.235v.374c0 .485-.219.735-.5.735-.469 0-.469-.578-.469-.703V-2.75h1.078V-3H1.406v-1.281h-.25c0 .625-.281 1.312-.953 1.328v.203h.64v1.875c0 .781.595.938.985.938.469 0 .781-.391.781-.938m0 0"/><clipPath id="b"><path d="M.535.266h6.883v9.636H.535Zm0 0"/></clipPath><clipPath id="a"><path d="M0 0h8v10H0z"/></clipPath><clipPath id="d"><path d="M.262 1h20.847v9.402H.262Zm0 0"/></clipPath><clipPath id="c"><path d="M0 0h22v11H0z"/></clipPath><clipPath id="ba"><path d="M15.023 568.348H403v11.336H15.023Zm0 0"/></clipPath><g id="e" clip-path="url(#a)"><g clip-path="url(#b)"><path fill-rule="evenodd" d="m3.977 7.836 3.441 2.066V1.645c0-.762-.617-1.38-1.375-1.38H1.914C1.152.266.535.884.535 1.646v8.257Zm-2.754.851 2.754-1.652L6.73 8.687V1.646a.69.69 0 0 0-.687-.692H1.914a.69.69 0 0 0-.691.692Zm0 0"/></g></g><g id="y" clip-path="url(#c)"><g clip-path="url(#d)"><path d="m20 6.488-.2-.23q.767-.574.766-1.594 0-.732-1.078-.773-1.201-.046-1.203-1.024 0-.504.34-1.137h.195q.076.495.66.543l.66.043q.969.076.97 1.34V4.2Q21.107 5.918 20 6.49m-4.059 3.644-.117-.153q.188-.321.188-.761 0-.427-.059-1.281a21 21 0 0 1-.058-1.29c0-1.164.285-2.082.847-2.75h-4.265q-1.09 0-1.09-.914c0-.472.144-.867.441-1.187h.195c.075.336.305.508.68.508h3.535c.301 0 .535.05.692.152q.241.152.242.707v.356q0 .27-.27.703-.26.428-.261 1.332.002.52.168 1.562c.109.696.168 1.219.168 1.567q-.002 1.287-1.036 1.449m-4.382.004-.102-.157q.188-.197.188-.53-.001-.225-.02-.68a15 15 0 0 1-.023-.68c0-1.008.363-1.516 1.085-1.516q.147 0 .247.059v.195c-.23.152-.348.465-.348.95 0 .16.012.394.031.71q.029.47.028.703-.002.88-1.086.946m-2.086-.051-.16-.05v-5q0-.523-.165-.77c-.105-.168-.402-.293-.882-.368q-1.102-.18-1.102-1.101 0-.667.418-1.067h.195q.062.45.602.543l.61.094q.51.08.738.395.239.31.238 1.234v5.195q0 .644-.492.895m-4.657.047-.113-.153q.188-.321.188-.761 0-.427-.059-1.281a21 21 0 0 1-.059-1.29q0-1.747.848-2.75H1.355c-.726 0-1.093-.304-1.093-.914q0-.707.441-1.187h.195c.079.336.305.508.684.508h3.531q.456 0 .696.152t.238.707v.356q.002.27-.266.703-.263.428-.261 1.332-.002.52.168 1.562.164 1.045.164 1.567.001 1.287-1.036 1.449m-4.378.004L.336 9.98q.187-.197.187-.53 0-.225-.023-.68-.019-.458-.02-.68c0-1.008.364-1.516 1.086-1.516q.147 0 .246.059v.195c-.23.152-.347.465-.347.95 0 .16.008.394.027.71q.03.47.031.703-.001.88-1.085.946"/></g></g><linearGradient id="bb" x1="0" x2="388.063" y1="0" y2="0" gradientTransform="matrix(1 0 0 -1 15.024 579.685)" gradientUnits="userSpaceOnUse"><stop offset="0" stop-color="#a6e5ff"/><stop offset=".25" stop-color="#a6e5ff"/><stop offset=".313" stop-color="#a6e5ff"/><stop offset=".344" stop-color="#a6e5ff"/><stop offset=".352" stop-color="#a6e5ff"/><stop offset=".355" stop-color="#9fe4ff"/><stop offset=".359" stop-color="#99e2ff"/><stop offset=".363" stop-color="#89ddff"/><stop offset=".367" stop-color="#78d7ff"/><stop offset=".371" stop-color="#68d2ff"/><stop offset=".375" stop-color="#58cdff"/><stop offset=".379" stop-color="#47c8ff"/><stop offset=".383" stop-color="#37c3ff"/><stop offset=".387" stop-color="#26beff"/><stop offset=".391" stop-color="#16b9ff"/><stop offset=".395" stop-color="#0bb6ff"/><stop offset=".398" stop-color="#00b2ff"/><stop offset=".406" stop-color="#00b2ff"/><stop offset=".438" stop-color="#00b2ff"/><stop offset=".5" stop-color="#00b2ff"/><stop offset=".563" stop-color="#00b2ff"/><stop offset=".566" stop-color="#0cb6ff"/><stop offset=".57" stop-color="#18baff"/><stop offset=".574" stop-color="#29bfff"/><stop offset=".578" stop-color="#39c4ff"/><stop offset=".582" stop-color="#49c9ff"/><stop offset=".586" stop-color="#5aceff"/><stop offset=".59" stop-color="#6ad3ff"/><stop offset=".594" stop-color="#7ad8ff"/><stop offset=".598" stop-color="#8bddff"/><stop offset=".602" stop-color="#9be2ff"/><stop offset=".605" stop-color="#a0e4ff"/><stop offset=".609" stop-color="#a6e5ff"/><stop offset=".625" stop-color="#a6e5ff"/><stop offset=".75" stop-color="#a6e5ff"/><stop offset="1" stop-color="#a6e5ff"/></linearGradient></defs><use xlink:href="#e" transform="translate(9 27)"/><use xlink:href="#f" x="17.008" y="23.315"/><use xlink:href="#g" x="20.884" y="23.315"/><use xlink:href="#h" x="26.154" y="23.315"/><use xlink:href="#i" x="384.039" y="23.315"/><use xlink:href="#j" x="390.168" y="23.315"/><use xlink:href="#k" x="392.79" y="23.315"/><use xlink:href="#l" x="396.727" y="23.315"/><use xlink:href="#m" x="169.602" y="34.908"/><use xlink:href="#n" x="179.094" y="34.908"/><use xlink:href="#o" x="185.203" y="34.908"/><use xlink:href="#p" x="192.281" y="34.908"/><use xlink:href="#q" x="198.485" y="34.908"/><use xlink:href="#r" x="202.933" y="34.908"/><use xlink:href="#s" x="218.176" y="34.908"/><use xlink:href="#t" x="221.762" y="34.908"/><use xlink:href="#u" x="226.882" y="34.908"/><use xlink:href="#v" x="231.643" y="34.908"/><use xlink:href="#w" x="236.996" y="34.908"/><use xlink:href="#x" x="241.604" y="34.908"/><use xlink:href="#y" transform="translate(378 26)"/><path fill="none" stroke="#000" stroke-miterlimit="10" stroke-width=".398" d="M17.008 39.293h384.094"/><use xlink:href="#z" x="399.042" y="89.99"/><use xlink:href="#A" x="399.042" y="83.526"/><use xlink:href="#B" x="399.042" y="79.764"/><use xlink:href="#C" x="399.042" y="74.823"/><use xlink:href="#D" x="399.042" y="70.591"/><use xlink:href="#E" x="399.042" y="67.291"/><use xlink:href="#F" x="399.042" y="60.238"/><use xlink:href="#G" x="399.042" y="55.536"/><use xlink:href="#H" x="399.042" y="53.185"/><use xlink:href="#I" x="399.042" y="48.952"/><use xlink:href="#I" x="399.042" y="44.72"/><use xlink:href="#J" x="403.164" y="40.487"/><use xlink:href="#K" x="403.164" y="46.951"/><use xlink:href="#L" x="403.164" y="50.713"/><use xlink:href="#M" x="403.164" y="55.646"/><use xlink:href="#N" x="403.164" y="59.878"/><use xlink:href="#O" x="403.164" y="63.178"/><use xlink:href="#P" x="403.164" y="70.231"/><use xlink:href="#Q" x="403.164" y="74.933"/><use xlink:href="#R" x="403.164" y="77.285"/><use xlink:href="#R" x="403.164" y="81.517"/><use xlink:href="#S" x="403.164" y="85.749"/><use xlink:href="#T" x="72.712" y="60.644"/><use xlink:href="#U" x="89.223" y="50.558" fill="red"/><use xlink:href="#V" x="99.636" y="46.219" fill="red"/><use xlink:href="#W" x="89.223" y="60.644"/><use xlink:href="#X" x="97.281" y="60.644"/><use xlink:href="#Y" x="100.03" y="60.644"/><use xlink:href="#Z" x="105.231" y="60.644"/><use xlink:href="#aa" x="111.232" y="60.644"/><use xlink:href="#ab" x="120.485" y="60.644"/><use xlink:href="#ac" x="123.665" y="60.644"/><use xlink:href="#ad" x="128.746" y="60.644"/><use xlink:href="#ae" x="132.727" y="60.644"/><use xlink:href="#Y" x="138.334" y="60.644"/><use xlink:href="#af" x="143.535" y="60.644"/><use xlink:href="#ac" x="150.182" y="60.644"/><use xlink:href="#ag" x="155.262" y="60.644"/><use xlink:href="#ah" x="162.902" y="60.644"/><use xlink:href="#ai" x="168.76" y="60.644"/><use xlink:href="#aj" x="172.513" y="60.644"/><use xlink:href="#ak" x="178.515" y="60.644"/><use xlink:href="#Y" x="181.599" y="60.644"/><use xlink:href="#ac" x="190.697" y="60.644"/><use xlink:href="#al" x="195.778" y="60.644"/><use xlink:href="#ad" x="201.636" y="60.644"/><use xlink:href="#ah" x="205.617" y="60.644"/><use xlink:href="#am" x="211.475" y="60.644"/><use xlink:href="#ae" x="220.728" y="60.644"/><use xlink:href="#Z" x="226.335" y="60.644"/><use xlink:href="#ac" x="232.336" y="60.644"/><use xlink:href="#Y" x="237.417" y="60.644"/><use xlink:href="#an" x="242.618" y="60.644"/><use xlink:href="#X" x="248.619" y="60.644"/><use xlink:href="#Y" x="251.369" y="60.644"/><use xlink:href="#ao" x="256.569" y="60.644"/><use xlink:href="#ae" x="89.223" y="81.756"/><use xlink:href="#af" x="98.727" y="81.756"/><use xlink:href="#aj" x="101.477" y="81.756"/><use xlink:href="#Z" x="107.478" y="81.756"/><use xlink:href="#Z" x="117.377" y="81.756"/><use xlink:href="#ah" x="123.378" y="81.756"/><use xlink:href="#ap" x="129.236" y="81.756"/><use xlink:href="#ad" x="134.915" y="81.756"/><use xlink:href="#ah" x="138.896" y="81.756"/><use xlink:href="#ag" x="144.431" y="81.756"/><use xlink:href="#ah" x="152.07" y="81.756"/><use xlink:href="#af" x="157.928" y="81.756"/><use xlink:href="#an" x="160.678" y="81.756"/><use xlink:href="#X" x="166.679" y="81.756"/><use xlink:href="#Y" x="169.429" y="81.756"/><use xlink:href="#ac" x="178.527" y="81.756"/><use xlink:href="#al" x="183.608" y="81.756"/><use xlink:href="#ai" x="189.466" y="81.756"/><use xlink:href="#ae" x="192.897" y="81.756"/><use xlink:href="#aq" x="198.504" y="81.756"/><use xlink:href="#ac" x="202.987" y="81.756"/><use xlink:href="#ae" x="208.068" y="81.756"/><use xlink:href="#aq" x="217.572" y="81.756"/><use xlink:href="#X" x="222.055" y="81.756"/><use xlink:href="#ar" x="224.805" y="81.756"/><use xlink:href="#Z" x="233.902" y="81.756"/><use xlink:href="#ah" x="239.904" y="81.756"/><use xlink:href="#ag" x="249.659" y="81.756"/><use xlink:href="#ae" x="257.298" y="81.756"/><use xlink:href="#af" x="262.905" y="81.756"/><use xlink:href="#as" x="265.655" y="81.756"/><use xlink:href="#X" x="271.334" y="81.756"/><use xlink:href="#at" x="274.083" y="81.756"/><use xlink:href="#au" x="69.353" y="102.869"/><use xlink:href="#av" x="89.223" y="92.784" fill="red"/><use xlink:href="#aw" x="89.223" y="102.869"/><use xlink:href="#ai" x="96.994" y="102.869"/><use xlink:href="#ah" x="100.425" y="102.869"/><use xlink:href="#al" x="106.283" y="102.869"/><use xlink:href="#ah" x="112.141" y="102.869"/><use xlink:href="#aq" x="117.999" y="102.869"/><use xlink:href="#ai" x="122.482" y="102.869"/><use xlink:href="#ae" x="125.913" y="102.869"/><use xlink:href="#ag" x="131.197" y="102.869"/><use xlink:href="#ax" x="138.836" y="102.869"/><use xlink:href="#X" x="144.037" y="102.869"/><use xlink:href="#Y" x="146.786" y="102.869"/><use xlink:href="#ay" x="155.884" y="102.869"/><use xlink:href="#ae" x="161.371" y="102.869"/><use xlink:href="#az" x="166.978" y="102.869"/><use xlink:href="#aA" x="172.981" y="92.784" fill="red"/><use xlink:href="#ag" x="172.981" y="102.869"/><use xlink:href="#Y" x="180.62" y="102.869"/><use xlink:href="#ao" x="185.821" y="102.869"/><use xlink:href="#ap" x="192.97" y="102.869"/><use xlink:href="#ai" x="198.971" y="102.869"/><use xlink:href="#ah" x="202.402" y="102.869"/><use xlink:href="#al" x="208.26" y="102.869"/><use xlink:href="#ah" x="214.118" y="102.869"/><use xlink:href="#aq" x="219.976" y="102.869"/><use xlink:href="#ai" x="224.459" y="102.869"/><use xlink:href="#ae" x="227.89" y="102.869"/><use xlink:href="#ag" x="233.174" y="102.869"/><use xlink:href="#ax" x="240.814" y="102.869"/><use xlink:href="#X" x="246.014" y="102.869"/><use xlink:href="#Y" x="248.764" y="102.869"/><use xlink:href="#ay" x="257.861" y="102.869"/><use xlink:href="#ae" x="263.349" y="102.869"/><use xlink:href="#az" x="268.956" y="102.869"/><use xlink:href="#aB" x="274.958" y="92.784" fill="red"/><use xlink:href="#ag" x="274.958" y="102.869"/><use xlink:href="#Y" x="282.597" y="102.869"/><use xlink:href="#ao" x="287.798" y="102.869"/><use xlink:href="#av" x="89.223" y="113.897" fill="red"/><use xlink:href="#ap" x="89.223" y="123.982"/><use xlink:href="#ai" x="95.224" y="123.982"/><use xlink:href="#ah" x="98.655" y="123.982"/><use xlink:href="#al" x="104.513" y="123.982"/><use xlink:href="#ah" x="110.371" y="123.982"/><use xlink:href="#aq" x="116.229" y="123.982"/><use xlink:href="#ai" x="120.712" y="123.982"/><use xlink:href="#ae" x="124.144" y="123.982"/><use xlink:href="#ag" x="129.428" y="123.982"/><use xlink:href="#ax" x="137.067" y="123.982"/><use xlink:href="#X" x="142.267" y="123.982"/><use xlink:href="#Y" x="145.017" y="123.982"/><use xlink:href="#ay" x="154.115" y="123.982"/><use xlink:href="#ae" x="159.602" y="123.982"/><use xlink:href="#az" x="165.209" y="123.982"/><use xlink:href="#aA" x="171.211" y="113.897" fill="red"/><use xlink:href="#ag" x="171.211" y="123.982"/><use xlink:href="#Y" x="178.85" y="123.982"/><use xlink:href="#ao" x="184.051" y="123.982"/><use xlink:href="#am" x="191.2" y="123.982"/><use xlink:href="#Y" x="200.453" y="123.982"/><use xlink:href="#am" x="205.653" y="123.982"/><use xlink:href="#aj" x="214.907" y="123.982"/><use xlink:href="#aC" x="224.805" y="123.982"/><use xlink:href="#ae" x="231.93" y="123.982"/><use xlink:href="#an" x="237.537" y="123.982"/><use xlink:href="#aj" x="243.539" y="123.982"/><use xlink:href="#aD" x="253.438" y="123.982"/><use xlink:href="#aE" x="257.921" y="123.982"/><use xlink:href="#X" x="263.922" y="123.982"/><use xlink:href="#Y" x="266.672" y="123.982"/><use xlink:href="#ag" x="271.872" y="123.982"/><use xlink:href="#ae" x="279.511" y="123.982"/><use xlink:href="#aF" x="285.118" y="123.982"/><use xlink:href="#aB" x="294.218" y="113.897" fill="red"/><use xlink:href="#ax" x="294.218" y="123.982"/><use xlink:href="#az" x="299.418" y="123.982"/><use xlink:href="#ax" x="305.42" y="123.982"/><use xlink:href="#ar" x="310.62" y="123.982"/><use xlink:href="#aG" x="315.821" y="123.982"/><use xlink:href="#aC" x="89.223" y="145.095"/><use xlink:href="#ad" x="96.671" y="145.095"/><use xlink:href="#ac" x="100.652" y="145.095"/><use xlink:href="#Y" x="105.733" y="145.095"/><use xlink:href="#ap" x="110.933" y="145.095"/><use xlink:href="#aj" x="116.935" y="145.095"/><use xlink:href="#Z" x="122.936" y="145.095"/><use xlink:href="#aH" x="128.938" y="145.095"/><use xlink:href="#aI" x="137.916" y="135.009" fill="red"/><use xlink:href="#aq" x="137.916" y="145.095"/><use xlink:href="#X" x="142.399" y="145.095"/><use xlink:href="#ar" x="145.149" y="145.095"/><use xlink:href="#ao" x="150.349" y="145.095"/><use xlink:href="#aJ" x="157.498" y="145.095"/><use xlink:href="#aK" x="165.915" y="145.095"/><use xlink:href="#ap" x="171.115" y="145.095"/><use xlink:href="#ah" x="177.439" y="145.095"/><use xlink:href="#ad" x="182.974" y="145.095"/><use xlink:href="#ah" x="186.955" y="145.095"/><use xlink:href="#ao" x="192.813" y="145.095"/><use xlink:href="#aE" x="199.962" y="145.095"/><use xlink:href="#ad" x="205.641" y="145.095"/><use xlink:href="#ac" x="209.622" y="145.095"/><use xlink:href="#Y" x="214.703" y="145.095"/><use xlink:href="#ap" x="219.903" y="145.095"/><use xlink:href="#aj" x="225.905" y="145.095"/><use xlink:href="#Z" x="231.906" y="145.095"/><use xlink:href="#aH" x="237.908" y="145.095"/><use xlink:href="#aA" x="246.887" y="135.009" fill="red"/><use xlink:href="#aq" x="246.887" y="145.095"/><use xlink:href="#X" x="251.37" y="145.095"/><use xlink:href="#ar" x="254.12" y="145.095"/><use xlink:href="#ao" x="259.32" y="145.095"/><use xlink:href="#aJ" x="266.469" y="145.095"/><use xlink:href="#aK" x="274.886" y="145.095"/><use xlink:href="#ap" x="280.086" y="145.095"/><use xlink:href="#ah" x="286.41" y="145.095"/><use xlink:href="#ad" x="291.945" y="145.095"/><use xlink:href="#ah" x="295.926" y="145.095"/><use xlink:href="#ao" x="301.784" y="145.095"/><use xlink:href="#ac" x="308.933" y="145.095"/><use xlink:href="#ae" x="314.014" y="145.095"/><use xlink:href="#aD" x="319.621" y="145.095"/><use xlink:href="#aE" x="324.104" y="145.095"/><use xlink:href="#X" x="330.106" y="145.095"/><use xlink:href="#Y" x="332.855" y="145.095"/><use xlink:href="#ag" x="338.056" y="145.095"/><use xlink:href="#ae" x="345.695" y="145.095"/><use xlink:href="#ak" x="351.302" y="145.095"/><use xlink:href="#aB" x="358.286" y="135.009" fill="red"/><use xlink:href="#aE" x="358.286" y="145.095"/><use xlink:href="#X" x="364.287" y="145.095"/><use xlink:href="#Y" x="367.037" y="145.095"/><use xlink:href="#aD" x="372.237" y="145.095"/><use xlink:href="#aL" x="376.721" y="145.095"/><use xlink:href="#aM" x="382.722" y="145.095"/><use xlink:href="#aC" x="89.223" y="166.208"/><use xlink:href="#ad" x="96.671" y="166.208"/><use xlink:href="#ac" x="100.652" y="166.208"/><use xlink:href="#Y" x="105.733" y="166.208"/><use xlink:href="#ap" x="110.933" y="166.208"/><use xlink:href="#aj" x="116.935" y="166.208"/><use xlink:href="#Z" x="122.936" y="166.208"/><use xlink:href="#aH" x="128.938" y="166.208"/><use xlink:href="#aI" x="137.916" y="156.122" fill="red"/><use xlink:href="#aq" x="137.916" y="166.208"/><use xlink:href="#X" x="142.399" y="166.208"/><use xlink:href="#ar" x="145.149" y="166.208"/><use xlink:href="#ao" x="150.349" y="166.208"/><use xlink:href="#aJ" x="157.498" y="166.208"/><use xlink:href="#aK" x="165.915" y="166.208"/><use xlink:href="#ap" x="171.115" y="166.208"/><use xlink:href="#ah" x="177.439" y="166.208"/><use xlink:href="#ad" x="182.974" y="166.208"/><use xlink:href="#ah" x="186.955" y="166.208"/><use xlink:href="#ao" x="192.813" y="166.208"/><use xlink:href="#aE" x="199.962" y="166.208"/><use xlink:href="#ad" x="205.641" y="166.208"/><use xlink:href="#ac" x="209.622" y="166.208"/><use xlink:href="#Y" x="214.703" y="166.208"/><use xlink:href="#ap" x="219.903" y="166.208"/><use xlink:href="#aj" x="225.905" y="166.208"/><use xlink:href="#Z" x="231.906" y="166.208"/><use xlink:href="#aH" x="237.908" y="166.208"/><use xlink:href="#aA" x="246.887" y="156.122" fill="red"/><use xlink:href="#aq" x="246.887" y="166.208"/><use xlink:href="#X" x="251.37" y="166.208"/><use xlink:href="#ar" x="254.12" y="166.208"/><use xlink:href="#ao" x="259.32" y="166.208"/><use xlink:href="#aJ" x="266.469" y="166.208"/><use xlink:href="#aK" x="274.886" y="166.208"/><use xlink:href="#ap" x="280.086" y="166.208"/><use xlink:href="#ah" x="286.41" y="166.208"/><use xlink:href="#ad" x="291.945" y="166.208"/><use xlink:href="#ah" x="295.926" y="166.208"/><use xlink:href="#ao" x="301.784" y="166.208"/><use xlink:href="#aE" x="308.933" y="166.208"/><use xlink:href="#ah" x="315.258" y="166.208"/><use xlink:href="#ag" x="320.793" y="166.208"/><use xlink:href="#aq" x="328.755" y="166.208"/><use xlink:href="#aN" x="333.238" y="166.208"/><use xlink:href="#ae" x="337.47" y="166.208"/><use xlink:href="#aL" x="343.077" y="166.208"/><use xlink:href="#ao" x="349.078" y="166.208"/><use xlink:href="#aw" x="356.227" y="166.208"/><use xlink:href="#ae" x="363.998" y="166.208"/><use xlink:href="#aB" x="369.607" y="156.122" fill="red"/><use xlink:href="#ad" x="369.607" y="166.208"/><use xlink:href="#ae" x="373.588" y="166.208"/><use xlink:href="#as" x="379.195" y="166.208"/><use xlink:href="#aj" x="384.874" y="166.208"/><use xlink:href="#aM" x="390.875" y="166.208"/><use xlink:href="#T" x="72.712" y="187.32"/><use xlink:href="#U" x="89.223" y="177.235" fill="red"/><use xlink:href="#V" x="99.636" y="172.895" fill="red"/><use xlink:href="#aO" x="89.223" y="187.32"/><use xlink:href="#ae" x="96.372" y="187.32"/><use xlink:href="#Z" x="105.876" y="187.32"/><use xlink:href="#an" x="111.878" y="187.32"/><use xlink:href="#X" x="117.879" y="187.32"/><use xlink:href="#aP" x="124.526" y="187.32"/><use xlink:href="#ac" x="131.03" y="187.32"/><use xlink:href="#ae" x="136.111" y="187.32"/><use xlink:href="#am" x="141.717" y="187.32"/><use xlink:href="#al" x="150.971" y="187.32"/><use xlink:href="#ae" x="156.829" y="187.32"/><use xlink:href="#ad" x="162.113" y="187.32"/><use xlink:href="#ae" x="166.094" y="187.32"/><use xlink:href="#ao" x="171.701" y="187.32"/><use xlink:href="#aq" x="178.85" y="187.32"/><use xlink:href="#aa" x="183.333" y="187.32"/><use xlink:href="#an" x="188.689" y="187.32"/><use xlink:href="#ae" x="194.69" y="187.32"/><use xlink:href="#aQ" x="204.194" y="187.32"/><use xlink:href="#an" x="211.929" y="187.32"/><use xlink:href="#ae" x="217.931" y="187.32"/><use xlink:href="#aN" x="223.537" y="187.32"/><use xlink:href="#ae" x="227.77" y="187.32"/><use xlink:href="#ao" x="233.376" y="187.32"/><use xlink:href="#ac" x="240.525" y="187.32"/><use xlink:href="#ae" x="245.606" y="187.32"/><use xlink:href="#Z" x="255.111" y="187.32"/><use xlink:href="#an" x="261.112" y="187.32"/><use xlink:href="#X" x="267.113" y="187.32"/><use xlink:href="#ay" x="273.76" y="187.32"/><use xlink:href="#ae" x="279.248" y="187.32"/><use xlink:href="#Y" x="284.855" y="187.32"/><use xlink:href="#af" x="290.055" y="187.32"/><use xlink:href="#X" x="292.805" y="187.32"/><use xlink:href="#ao" x="295.554" y="187.32"/><use xlink:href="#ac" x="89.223" y="208.433"/><use xlink:href="#an" x="94.304" y="208.433"/><use xlink:href="#X" x="100.305" y="208.433"/><use xlink:href="#as" x="103.055" y="208.433"/><use xlink:href="#ai" x="108.734" y="208.433"/><use xlink:href="#aa" x="112.487" y="208.433"/><use xlink:href="#al" x="121.741" y="208.433"/><use xlink:href="#ad" x="127.599" y="208.433"/><use xlink:href="#ah" x="131.58" y="208.433"/><use xlink:href="#am" x="137.438" y="208.433"/><use xlink:href="#ae" x="146.691" y="208.433"/><use xlink:href="#Z" x="152.298" y="208.433"/><use xlink:href="#aa" x="158.299" y="208.433"/><use xlink:href="#aE" x="167.552" y="208.433"/><use xlink:href="#ah" x="173.876" y="208.433"/><use xlink:href="#Z" x="180.057" y="208.433"/><use xlink:href="#ad" x="186.059" y="208.433"/><use xlink:href="#aR" x="190.04" y="208.433"/><use xlink:href="#aS" x="195.898" y="208.433"/><use xlink:href="#an" x="200.978" y="208.433"/><use xlink:href="#aa" x="206.98" y="208.433"/><use xlink:href="#ax" x="212.336" y="208.433"/><use xlink:href="#az" x="217.536" y="208.433"/><use xlink:href="#ao" x="223.537" y="208.433"/><use xlink:href="#an" x="89.223" y="229.546"/><use xlink:href="#X" x="95.224" y="229.546"/><use xlink:href="#Y" x="97.974" y="229.546"/><use xlink:href="#am" x="107.072" y="229.546"/><use xlink:href="#ah" x="116.325" y="229.546"/><use xlink:href="#aS" x="122.183" y="229.546"/><use xlink:href="#an" x="127.264" y="229.546"/><use xlink:href="#ae" x="133.265" y="229.546"/><use xlink:href="#ak" x="142.769" y="229.546"/><use xlink:href="#aj" x="145.854" y="229.546"/><use xlink:href="#aS" x="151.855" y="229.546"/><use xlink:href="#ap" x="160.833" y="229.546"/><use xlink:href="#aa" x="166.512" y="229.546"/><use xlink:href="#ai" x="171.868" y="229.546"/><use xlink:href="#ah" x="175.299" y="229.546"/><use xlink:href="#ax" x="185.054" y="229.546"/><use xlink:href="#az" x="190.255" y="229.546"/><use xlink:href="#ah" x="196.256" y="229.546"/><use xlink:href="#Z" x="202.437" y="229.546"/><use xlink:href="#ac" x="208.438" y="229.546"/><use xlink:href="#X" x="213.519" y="229.546"/><use xlink:href="#aF" x="216.269" y="229.546"/><use xlink:href="#aE" x="225.366" y="229.546"/><use xlink:href="#ah" x="231.691" y="229.546"/><use xlink:href="#Z" x="241.446" y="229.546"/><use xlink:href="#ad" x="247.447" y="229.546"/><use xlink:href="#ah" x="251.428" y="229.546"/><use xlink:href="#al" x="257.286" y="229.546"/><use xlink:href="#ae" x="263.144" y="229.546"/><use xlink:href="#ax" x="268.751" y="229.546"/><use xlink:href="#az" x="273.952" y="229.546"/><use xlink:href="#ao" x="279.953" y="229.546"/><use xlink:href="#ap" x="89.223" y="250.659"/><use xlink:href="#ah" x="95.547" y="250.659"/><use xlink:href="#ag" x="101.082" y="250.659"/><use xlink:href="#X" x="109.044" y="250.659"/><use xlink:href="#Y" x="111.794" y="250.659"/><use xlink:href="#am" x="116.994" y="250.659"/><use xlink:href="#ab" x="130.145" y="250.659"/><use xlink:href="#ac" x="133.325" y="250.659"/><use xlink:href="#ad" x="138.406" y="250.659"/><use xlink:href="#ae" x="142.387" y="250.659"/><use xlink:href="#Y" x="147.994" y="250.659"/><use xlink:href="#af" x="153.194" y="250.659"/><use xlink:href="#aE" x="159.841" y="250.659"/><use xlink:href="#ah" x="166.165" y="250.659"/><use xlink:href="#aq" x="172.023" y="250.659"/><use xlink:href="#ac" x="176.506" y="250.659"/><use xlink:href="#aj" x="181.587" y="250.659"/><use xlink:href="#as" x="187.589" y="250.659"/><use xlink:href="#ae" x="193.267" y="250.659"/><use xlink:href="#ai" x="198.874" y="250.659"/><use xlink:href="#aq" x="206.526" y="250.659"/><use xlink:href="#ah" x="211.009" y="250.659"/><use xlink:href="#ap" x="216.867" y="250.659"/><use xlink:href="#X" x="222.868" y="250.659"/><use xlink:href="#Y" x="225.618" y="250.659"/><use xlink:href="#ah" x="234.715" y="250.659"/><use xlink:href="#ap" x="240.573" y="250.659"/><use xlink:href="#ax" x="246.897" y="250.659"/><use xlink:href="#aa" x="252.098" y="250.659"/><use xlink:href="#ax" x="257.454" y="250.659"/><use xlink:href="#az" x="262.654" y="250.659"/><use xlink:href="#ap" x="272.553" y="250.659"/><use xlink:href="#ah" x="278.877" y="250.659"/><use xlink:href="#al" x="284.735" y="250.659"/><use xlink:href="#aR" x="290.593" y="250.659"/><use xlink:href="#ag" x="296.128" y="250.659"/><use xlink:href="#aG" x="304.09" y="250.659"/><use xlink:href="#aT" x="89.223" y="271.772"/><use xlink:href="#Z" x="97.03" y="271.772"/><use xlink:href="#aa" x="103.031" y="271.772"/><use xlink:href="#ag" x="112.284" y="271.772"/><use xlink:href="#ah" x="119.923" y="271.772"/><use xlink:href="#ak" x="125.781" y="271.772"/><use xlink:href="#an" x="128.866" y="271.772"/><use xlink:href="#ae" x="134.867" y="271.772"/><use xlink:href="#ap" x="144.371" y="271.772"/><use xlink:href="#aa" x="150.05" y="271.772"/><use xlink:href="#ai" x="155.406" y="271.772"/><use xlink:href="#ae" x="158.837" y="271.772"/><use xlink:href="#ak" x="168.341" y="271.772"/><use xlink:href="#aj" x="171.426" y="271.772"/><use xlink:href="#aS" x="177.427" y="271.772"/><use xlink:href="#aj" x="186.405" y="271.772"/><use xlink:href="#ap" x="196.304" y="271.772"/><use xlink:href="#ad" x="201.983" y="271.772"/><use xlink:href="#ae" x="205.964" y="271.772"/><use xlink:href="#am" x="211.57" y="271.772"/><use xlink:href="#ao" x="220.824" y="271.772"/><use xlink:href="#an" x="89.223" y="292.884"/><use xlink:href="#X" x="95.224" y="292.884"/><use xlink:href="#Y" x="97.974" y="292.884"/><use xlink:href="#ac" x="107.072" y="292.884"/><use xlink:href="#an" x="112.153" y="292.884"/><use xlink:href="#ae" x="118.154" y="292.884"/><use xlink:href="#af" x="123.761" y="292.884"/><use xlink:href="#ae" x="126.511" y="292.884"/><use xlink:href="#ac" x="132.118" y="292.884"/><use xlink:href="#ai" x="137.198" y="292.884"/><use xlink:href="#aq" x="144.85" y="292.884"/><use xlink:href="#X" x="149.333" y="292.884"/><use xlink:href="#ar" x="152.082" y="292.884"/><use xlink:href="#ag" x="161.18" y="292.884"/><use xlink:href="#aa" x="169.142" y="292.884"/><use xlink:href="#ap" x="174.498" y="292.884"/><use xlink:href="#ae" x="180.499" y="292.884"/><use xlink:href="#ag" x="185.784" y="292.884"/><use xlink:href="#X" x="193.746" y="292.884"/><use xlink:href="#ax" x="196.495" y="292.884"/><use xlink:href="#X" x="201.696" y="292.884"/><use xlink:href="#Y" x="204.445" y="292.884"/><use xlink:href="#af" x="209.646" y="292.884"/><use xlink:href="#ag" x="216.293" y="292.884"/><use xlink:href="#ab" x="228.152" y="292.884"/><use xlink:href="#ac" x="231.332" y="292.884"/><use xlink:href="#ad" x="236.413" y="292.884"/><use xlink:href="#ae" x="240.394" y="292.884"/><use xlink:href="#Y" x="246.001" y="292.884"/><use xlink:href="#af" x="251.201" y="292.884"/><use xlink:href="#aj" x="253.951" y="292.884"/><use xlink:href="#ao" x="259.952" y="292.884"/><use xlink:href="#ae" x="89.223" y="313.997"/><use xlink:href="#an" x="94.83" y="313.997"/><use xlink:href="#X" x="100.831" y="313.997"/><use xlink:href="#ak" x="107.478" y="313.997"/><use xlink:href="#Y" x="110.563" y="313.997"/><use xlink:href="#Z" x="115.763" y="313.997"/><use xlink:href="#an" x="121.765" y="313.997"/><use xlink:href="#ae" x="127.766" y="313.997"/><use xlink:href="#ag" x="137.27" y="313.997"/><use xlink:href="#ai" x="145.232" y="313.997"/><use xlink:href="#aR" x="148.663" y="313.997"/><use xlink:href="#ax" x="154.844" y="313.997"/><use xlink:href="#ac" x="160.044" y="313.997"/><use xlink:href="#an" x="165.125" y="313.997"/><use xlink:href="#X" x="171.127" y="313.997"/><use xlink:href="#ae" x="173.876" y="313.997"/><use xlink:href="#ag" x="183.381" y="313.997"/><use xlink:href="#aD" x="191.343" y="313.997"/><use xlink:href="#ad" x="195.826" y="313.997"/><use xlink:href="#aR" x="199.807" y="313.997"/><use xlink:href="#Z" x="205.988" y="313.997"/><use xlink:href="#Z" x="215.886" y="313.997"/><use xlink:href="#ac" x="221.888" y="313.997"/><use xlink:href="#X" x="226.968" y="313.997"/><use xlink:href="#Y" x="229.718" y="313.997"/><use xlink:href="#aq" x="234.919" y="313.997"/><use xlink:href="#X" x="239.402" y="313.997"/><use xlink:href="#ar" x="242.151" y="313.997"/><use xlink:href="#ax" x="247.352" y="313.997"/><use xlink:href="#X" x="252.552" y="313.997"/><use xlink:href="#aj" x="255.302" y="313.997"/><use xlink:href="#aN" x="265.201" y="313.997"/><use xlink:href="#aa" x="269.11" y="313.997"/><use xlink:href="#aq" x="274.466" y="313.997"/><use xlink:href="#X" x="278.949" y="313.997"/><use xlink:href="#ar" x="281.698" y="313.997"/><use xlink:href="#ax" x="286.899" y="313.997"/><use xlink:href="#aa" x="292.099" y="313.997"/><use xlink:href="#aG" x="296.475" y="313.997"/><use xlink:href="#au" x="69.353" y="335.11"/><use xlink:href="#av" x="89.223" y="325.025" fill="red"/><use xlink:href="#aw" x="89.223" y="335.11"/><use xlink:href="#ai" x="96.994" y="335.11"/><use xlink:href="#ah" x="100.425" y="335.11"/><use xlink:href="#al" x="106.283" y="335.11"/><use xlink:href="#ah" x="112.141" y="335.11"/><use xlink:href="#aq" x="117.999" y="335.11"/><use xlink:href="#ai" x="122.482" y="335.11"/><use xlink:href="#ae" x="125.913" y="335.11"/><use xlink:href="#ag" x="131.197" y="335.11"/><use xlink:href="#ax" x="138.836" y="335.11"/><use xlink:href="#X" x="144.037" y="335.11"/><use xlink:href="#Y" x="146.786" y="335.11"/><use xlink:href="#ay" x="155.884" y="335.11"/><use xlink:href="#ae" x="161.371" y="335.11"/><use xlink:href="#az" x="166.978" y="335.11"/><use xlink:href="#aA" x="172.981" y="325.025" fill="red"/><use xlink:href="#ag" x="172.981" y="335.11"/><use xlink:href="#Y" x="180.62" y="335.11"/><use xlink:href="#aU" x="189.718" y="335.11"/><use xlink:href="#T" x="72.712" y="356.223"/><use xlink:href="#U" x="89.223" y="346.138" fill="red"/><use xlink:href="#V" x="99.636" y="341.798" fill="red"/><use xlink:href="#W" x="89.223" y="356.223"/><use xlink:href="#X" x="97.281" y="356.223"/><use xlink:href="#Y" x="100.03" y="356.223"/><use xlink:href="#Z" x="105.231" y="356.223"/><use xlink:href="#aa" x="111.232" y="356.223"/><use xlink:href="#aD" x="116.588" y="356.223"/><use xlink:href="#ag" x="124.968" y="356.223"/><use xlink:href="#aa" x="132.93" y="356.223"/><use xlink:href="#ax" x="138.286" y="356.223"/><use xlink:href="#az" x="143.487" y="356.223"/><use xlink:href="#ah" x="149.488" y="356.223"/><use xlink:href="#Z" x="155.669" y="356.223"/><use xlink:href="#ac" x="161.67" y="356.223"/><use xlink:href="#X" x="166.751" y="356.223"/><use xlink:href="#ai" x="169.501" y="356.223"/><use xlink:href="#ac" x="177.152" y="356.223"/><use xlink:href="#aP" x="186.13" y="356.223"/><use xlink:href="#Y" x="192.634" y="356.223"/><use xlink:href="#X" x="197.834" y="356.223"/><use xlink:href="#ad" x="200.584" y="356.223"/><use xlink:href="#aj" x="204.565" y="356.223"/><use xlink:href="#ao" x="210.566" y="356.223"/><use xlink:href="#ay" x="217.715" y="356.223"/><use xlink:href="#ae" x="223.203" y="356.223"/><use xlink:href="#az" x="228.81" y="356.223"/><use xlink:href="#ag" x="234.811" y="356.223"/><use xlink:href="#Y" x="242.45" y="356.223"/><use xlink:href="#ao" x="247.651" y="356.223"/><use xlink:href="#am" x="254.8" y="356.223"/><use xlink:href="#aR" x="264.053" y="356.223"/><use xlink:href="#ak" x="269.911" y="356.223"/><use xlink:href="#aw" x="276.893" y="356.223"/><use xlink:href="#ah" x="284.663" y="356.223"/><use xlink:href="#aS" x="290.521" y="356.223"/><use xlink:href="#Y" x="295.602" y="356.223"/><use xlink:href="#ao" x="300.803" y="356.223"/><use xlink:href="#al" x="89.223" y="377.336"/><use xlink:href="#Z" x="95.081" y="377.336"/><use xlink:href="#aa" x="101.082" y="377.336"/><use xlink:href="#as" x="110.336" y="377.336"/><use xlink:href="#ad" x="116.014" y="377.336"/><use xlink:href="#ah" x="119.995" y="377.336"/><use xlink:href="#ax" x="126.176" y="377.336"/><use xlink:href="#ac" x="131.376" y="377.336"/><use xlink:href="#aa" x="136.457" y="377.336"/><use xlink:href="#ai" x="141.813" y="377.336"/><use xlink:href="#Y" x="145.244" y="377.336"/><use xlink:href="#aD" x="150.445" y="377.336"/><use xlink:href="#aE" x="158.825" y="377.336"/><use xlink:href="#ad" x="164.504" y="377.336"/><use xlink:href="#ac" x="168.485" y="377.336"/><use xlink:href="#Y" x="173.566" y="377.336"/><use xlink:href="#ac" x="178.766" y="377.336"/><use xlink:href="#aE" x="187.744" y="377.336"/><use xlink:href="#ah" x="194.068" y="377.336"/><use xlink:href="#af" x="199.926" y="377.336"/><use xlink:href="#ae" x="202.676" y="377.336"/><use xlink:href="#aV" x="212.18" y="377.336"/><use xlink:href="#Z" x="219.15" y="377.336"/><use xlink:href="#ah" x="225.151" y="377.336"/><use xlink:href="#am" x="231.009" y="377.336"/><use xlink:href="#aj" x="240.262" y="377.336"/><use xlink:href="#ao" x="246.264" y="377.336"/><use xlink:href="#ac" x="89.223" y="398.449"/><use xlink:href="#X" x="94.304" y="398.449"/><use xlink:href="#Y" x="97.054" y="398.449"/><use xlink:href="#am" x="102.254" y="398.449"/><use xlink:href="#X" x="111.507" y="398.449"/><use xlink:href="#ae" x="114.257" y="398.449"/><use xlink:href="#ac" x="123.761" y="398.449"/><use xlink:href="#ae" x="128.842" y="398.449"/><use xlink:href="#Z" x="134.449" y="398.449"/><use xlink:href="#ad" x="140.45" y="398.449"/><use xlink:href="#aS" x="144.431" y="398.449"/><use xlink:href="#ae" x="149.512" y="398.449"/><use xlink:href="#ai" x="155.119" y="398.449"/><use xlink:href="#ae" x="158.55" y="398.449"/><use xlink:href="#ao" x="164.157" y="398.449"/><use xlink:href="#an" x="171.306" y="398.449"/><use xlink:href="#X" x="177.307" y="398.449"/><use xlink:href="#Y" x="180.057" y="398.449"/><use xlink:href="#ap" x="185.258" y="398.449"/><use xlink:href="#ah" x="191.582" y="398.449"/><use xlink:href="#aq" x="201.337" y="398.449"/><use xlink:href="#X" x="205.82" y="398.449"/><use xlink:href="#ar" x="208.57" y="398.449"/><use xlink:href="#aE" x="217.667" y="398.449"/><use xlink:href="#ah" x="223.992" y="398.449"/><use xlink:href="#ad" x="229.527" y="398.449"/><use xlink:href="#aj" x="233.508" y="398.449"/><use xlink:href="#aq" x="239.509" y="398.449"/><use xlink:href="#ac" x="243.992" y="398.449"/><use xlink:href="#aa" x="249.073" y="398.449"/><use xlink:href="#ai" x="254.429" y="398.449"/><use xlink:href="#ah" x="257.86" y="398.449"/><use xlink:href="#ao" x="263.718" y="398.449"/><use xlink:href="#ah" x="89.223" y="419.561"/><use xlink:href="#ap" x="95.081" y="419.561"/><use xlink:href="#Y" x="101.405" y="419.561"/><use xlink:href="#ad" x="106.606" y="419.561"/><use xlink:href="#ag" x="110.587" y="419.561"/><use xlink:href="#ae" x="118.226" y="419.561"/><use xlink:href="#ai" x="123.833" y="419.561"/><use xlink:href="#aa" x="127.587" y="419.561"/><use xlink:href="#aq" x="136.84" y="419.561"/><use xlink:href="#X" x="141.323" y="419.561"/><use xlink:href="#ar" x="144.073" y="419.561"/><use xlink:href="#ax" x="153.17" y="419.561"/><use xlink:href="#az" x="158.371" y="419.561"/><use xlink:href="#am" x="164.372" y="419.561"/><use xlink:href="#aj" x="173.625" y="419.561"/><use xlink:href="#ad" x="179.627" y="419.561"/><use xlink:href="#aa" x="183.608" y="419.561"/><use xlink:href="#ao" x="187.983" y="419.561"/><use xlink:href="#al" x="195.132" y="419.561"/><use xlink:href="#aR" x="200.989" y="419.561"/><use xlink:href="#ad" x="206.525" y="419.561"/><use xlink:href="#aa" x="210.506" y="419.561"/><use xlink:href="#aq" x="219.759" y="419.561"/><use xlink:href="#as" x="224.242" y="419.561"/><use xlink:href="#ae" x="229.921" y="419.561"/><use xlink:href="#as" x="235.527" y="419.561"/><use xlink:href="#ae" x="241.206" y="419.561"/><use xlink:href="#ai" x="246.813" y="419.561"/><use xlink:href="#aa" x="250.567" y="419.561"/><use xlink:href="#aE" x="259.82" y="419.561"/><use xlink:href="#ad" x="265.499" y="419.561"/><use xlink:href="#ac" x="269.48" y="419.561"/><use xlink:href="#Y" x="274.561" y="419.561"/><use xlink:href="#Z" x="279.761" y="419.561"/><use xlink:href="#aW" x="289.66" y="419.561"/><use xlink:href="#ah" x="296.665" y="419.561"/><use xlink:href="#ap" x="302.523" y="419.561"/><use xlink:href="#aX" x="308.525" y="419.561"/><use xlink:href="#ao" x="314.132" y="419.561"/><use xlink:href="#aE" x="89.223" y="440.674"/><use xlink:href="#ad" x="94.902" y="440.674"/><use xlink:href="#ac" x="98.883" y="440.674"/><use xlink:href="#Y" x="103.964" y="440.674"/><use xlink:href="#Z" x="109.164" y="440.674"/><use xlink:href="#aW" x="119.063" y="440.674"/><use xlink:href="#ah" x="126.068" y="440.674"/><use xlink:href="#ap" x="131.926" y="440.674"/><use xlink:href="#aX" x="137.928" y="440.674"/><use xlink:href="#ao" x="143.535" y="440.674"/><use xlink:href="#aw" x="150.684" y="440.674"/><use xlink:href="#ah" x="158.454" y="440.674"/><use xlink:href="#aS" x="164.312" y="440.674"/><use xlink:href="#Y" x="169.393" y="440.674"/><use xlink:href="#ab" x="178.491" y="440.674"/><use xlink:href="#ac" x="181.671" y="440.674"/><use xlink:href="#ad" x="186.752" y="440.674"/><use xlink:href="#ae" x="190.733" y="440.674"/><use xlink:href="#Y" x="196.34" y="440.674"/><use xlink:href="#af" x="201.54" y="440.674"/><use xlink:href="#ae" x="204.29" y="440.674"/><use xlink:href="#aG" x="209.897" y="440.674"/><use xlink:href="#T" x="59.382" y="461.787"/><use xlink:href="#aY" x="68.958" y="461.787"/><use xlink:href="#au" x="69.352" y="461.787"/><use xlink:href="#aT" x="89.223" y="461.787"/><use xlink:href="#ag" x="97.03" y="461.787"/><use xlink:href="#X" x="104.992" y="461.787"/><use xlink:href="#ae" x="107.741" y="461.787"/><use xlink:href="#ac" x="113.348" y="461.787"/><use xlink:href="#Z" x="118.429" y="461.787"/><use xlink:href="#aa" x="124.43" y="461.787"/><use xlink:href="#ag" x="133.684" y="461.787"/><use xlink:href="#ae" x="141.323" y="461.787"/><use xlink:href="#af" x="146.93" y="461.787"/><use xlink:href="#ax" x="149.679" y="461.787"/><use xlink:href="#ac" x="154.88" y="461.787"/><use xlink:href="#aa" x="159.961" y="461.787"/><use xlink:href="#ai" x="165.317" y="461.787"/><use xlink:href="#aa" x="169.07" y="461.787"/><use xlink:href="#an" x="178.324" y="461.787"/><use xlink:href="#ae" x="184.325" y="461.787"/><use xlink:href="#ag" x="193.829" y="461.787"/><use xlink:href="#aa" x="201.791" y="461.787"/><use xlink:href="#aq" x="207.147" y="461.787"/><use xlink:href="#ah" x="211.63" y="461.787"/><use xlink:href="#as" x="217.488" y="461.787"/><use xlink:href="#ah" x="222.844" y="461.787"/><use xlink:href="#aD" x="228.702" y="461.787"/><use xlink:href="#ax" x="233.185" y="461.787"/><use xlink:href="#X" x="238.386" y="461.787"/><use xlink:href="#ae" x="241.135" y="461.787"/><use xlink:href="#ax" x="246.742" y="461.787"/><use xlink:href="#az" x="251.943" y="461.787"/><use xlink:href="#an" x="261.841" y="461.787"/><use xlink:href="#X" x="267.843" y="461.787"/><use xlink:href="#Y" x="270.592" y="461.787"/><use xlink:href="#ap" x="275.793" y="461.787"/><use xlink:href="#X" x="281.794" y="461.787"/><use xlink:href="#ah" x="284.544" y="461.787"/><use xlink:href="#aq" x="290.402" y="461.787"/><use xlink:href="#aG" x="294.885" y="461.787"/><use xlink:href="#T" x="59.382" y="482.9"/><use xlink:href="#aY" x="68.958" y="482.9"/><use xlink:href="#au" x="69.352" y="482.9"/><use xlink:href="#aZ" x="89.223" y="482.9"/><use xlink:href="#ae" x="97.424" y="482.9"/><use xlink:href="#ag" x="106.928" y="482.9"/><use xlink:href="#aa" x="114.89" y="482.9"/><use xlink:href="#aq" x="120.246" y="482.9"/><use xlink:href="#ah" x="124.729" y="482.9"/><use xlink:href="#as" x="130.587" y="482.9"/><use xlink:href="#ah" x="135.943" y="482.9"/><use xlink:href="#aD" x="141.801" y="482.9"/><use xlink:href="#ax" x="146.284" y="482.9"/><use xlink:href="#X" x="151.485" y="482.9"/><use xlink:href="#ae" x="154.234" y="482.9"/><use xlink:href="#ax" x="159.841" y="482.9"/><use xlink:href="#az" x="165.042" y="482.9"/><use xlink:href="#an" x="174.94" y="482.9"/><use xlink:href="#X" x="180.942" y="482.9"/><use xlink:href="#Y" x="183.691" y="482.9"/><use xlink:href="#ap" x="188.892" y="482.9"/><use xlink:href="#X" x="194.893" y="482.9"/><use xlink:href="#ah" x="197.643" y="482.9"/><use xlink:href="#aq" x="203.501" y="482.9"/><use xlink:href="#ag" x="211.881" y="482.9"/><use xlink:href="#ae" x="219.521" y="482.9"/><use xlink:href="#af" x="225.127" y="482.9"/><use xlink:href="#ax" x="227.877" y="482.9"/><use xlink:href="#ac" x="233.078" y="482.9"/><use xlink:href="#aa" x="238.158" y="482.9"/><use xlink:href="#ai" x="243.514" y="482.9"/><use xlink:href="#aa" x="247.268" y="482.9"/><use xlink:href="#aE" x="256.521" y="482.9"/><use xlink:href="#ad" x="262.2" y="482.9"/><use xlink:href="#ac" x="266.181" y="482.9"/><use xlink:href="#Y" x="271.262" y="482.9"/><use xlink:href="#ax" x="276.462" y="482.9"/><use xlink:href="#X" x="281.663" y="482.9"/><use xlink:href="#ag" x="284.412" y="482.9"/><use xlink:href="#aP" x="296.272" y="482.9"/><use xlink:href="#X" x="302.775" y="482.9"/><use xlink:href="#aq" x="305.525" y="482.9"/><use xlink:href="#Y" x="310.008" y="482.9"/><use xlink:href="#ad" x="315.208" y="482.9"/><use xlink:href="#ac" x="319.189" y="482.9"/><use xlink:href="#Y" x="324.27" y="482.9"/><use xlink:href="#aG" x="329.471" y="482.9"/><use xlink:href="#T" x="72.712" y="504.013"/><use xlink:href="#aC" x="89.223" y="504.013"/><use xlink:href="#ah" x="96.348" y="504.013"/><use xlink:href="#aN" x="102.206" y="504.013"/><use xlink:href="#ah" x="106.438" y="504.013"/><use xlink:href="#as" x="112.296" y="504.013"/><use xlink:href="#W" x="121.872" y="504.013"/><use xlink:href="#X" x="129.93" y="504.013"/><use xlink:href="#aq" x="132.679" y="504.013"/><use xlink:href="#ac" x="137.163" y="504.013"/><use xlink:href="#ah" x="142.243" y="504.013"/><use xlink:href="#an" x="148.101" y="504.013"/><use xlink:href="#ao" x="154.103" y="504.013"/><use xlink:href="#aD" x="161.251" y="504.013"/><use xlink:href="#ag" x="165.734" y="504.013"/><use xlink:href="#X" x="173.696" y="504.013"/><use xlink:href="#ar" x="176.446" y="504.013"/><use xlink:href="#aN" x="181.646" y="504.013"/><use xlink:href="#aa" x="185.555" y="504.013"/><use xlink:href="#aE" x="194.809" y="504.013"/><use xlink:href="#ah" x="201.133" y="504.013"/><use xlink:href="#aN" x="206.991" y="504.013"/><use xlink:href="#ah" x="211.223" y="504.013"/><use xlink:href="#as" x="217.081" y="504.013"/><use xlink:href="#W" x="226.657" y="504.013"/><use xlink:href="#X" x="234.714" y="504.013"/><use xlink:href="#aq" x="237.464" y="504.013"/><use xlink:href="#ac" x="241.947" y="504.013"/><use xlink:href="#ah" x="247.028" y="504.013"/><use xlink:href="#an" x="252.886" y="504.013"/><use xlink:href="#X" x="262.785" y="504.013"/><use xlink:href="#ax" x="265.534" y="504.013"/><use xlink:href="#az" x="270.735" y="504.013"/><use xlink:href="#aE" x="280.634" y="504.013"/><use xlink:href="#ah" x="286.958" y="504.013"/><use xlink:href="#ad" x="292.493" y="504.013"/><use xlink:href="#ag" x="296.474" y="504.013"/><use xlink:href="#ae" x="304.113" y="504.013"/><use xlink:href="#ai" x="309.72" y="504.013"/><use xlink:href="#aG" x="313.474" y="504.013"/><use xlink:href="#au" x="69.353" y="525.125"/><use xlink:href="#av" x="89.223" y="515.04" fill="red"/><use xlink:href="#aw" x="89.223" y="525.125"/><use xlink:href="#ai" x="96.994" y="525.125"/><use xlink:href="#ah" x="100.425" y="525.125"/><use xlink:href="#al" x="106.283" y="525.125"/><use xlink:href="#ah" x="112.141" y="525.125"/><use xlink:href="#aq" x="117.999" y="525.125"/><use xlink:href="#ai" x="122.482" y="525.125"/><use xlink:href="#ae" x="125.913" y="525.125"/><use xlink:href="#ag" x="131.197" y="525.125"/><use xlink:href="#ax" x="138.836" y="525.125"/><use xlink:href="#X" x="144.037" y="525.125"/><use xlink:href="#Y" x="146.786" y="525.125"/><use xlink:href="#ay" x="155.884" y="525.125"/><use xlink:href="#ae" x="161.371" y="525.125"/><use xlink:href="#az" x="166.978" y="525.125"/><use xlink:href="#aA" x="172.981" y="515.04" fill="red"/><use xlink:href="#ag" x="172.981" y="525.125"/><use xlink:href="#Y" x="180.62" y="525.125"/><use xlink:href="#aU" x="189.718" y="525.125"/><g clip-path="url(#ba)"><path fill="url(#bb)" d="M15.023 579.684v-11.336h388.063v11.336Zm0 0"/></g><use xlink:href="#bc" x="380.91" y="577.985"/><use xlink:href="#bd" x="387.641" y="577.985"/><use xlink:href="#bd" x="394.371" y="577.985"/><path fill="#f2f2f2" stroke="#000" stroke-miterlimit="10" stroke-width=".797" d="M196.602 576.055v-3.989a2.99 2.99 0 0 1 2.988-2.988h18.93a2.99 2.99 0 0 1 2.988 2.988v3.989a2.99 2.99 0 0 1-2.988 2.988h-18.93a2.99 2.99 0 0 1-2.988-2.988Zm0 0"/><use xlink:href="#be" x="198.439" y="576.948"/><use xlink:href="#bf" x="203.747" y="576.948"/><use xlink:href="#bf" x="209.055" y="576.948"/><use xlink:href="#bg" x="214.363" y="576.948"/><use xlink:href="#bh" x="17.008" y="577.985"/><use xlink:href="#bi" x="20.976" y="577.985"/><use xlink:href="#bj" x="24.944" y="577.985"/><use xlink:href="#bk" x="31.598" y="577.985"/><use xlink:href="#bl" x="33.85" y="577.985"/><use xlink:href="#bm" x="37.818" y="577.985"/><use xlink:href="#bn" x="41.787" y="577.985"/><use xlink:href="#bo" x="45.755" y="577.985"/><use xlink:href="#bp" x="50.692" y="577.985"/><use xlink:href="#bl" x="61.321" y="577.985"/><use xlink:href="#bj" x="65.289" y="577.985"/><use xlink:href="#bq" x="71.942" y="577.985"/><use xlink:href="#bl" x="77.508" y="577.985"/><use xlink:href="#bm" x="81.476" y="577.985"/><use xlink:href="#bl" x="85.444" y="577.985"/><use xlink:href="#br" x="89.412" y="577.985"/><use xlink:href="#bp" x="96.065" y="577.985"/><use xlink:href="#bs" x="106.694" y="577.985"/><use xlink:href="#bt" x="112.357" y="577.985"/><use xlink:href="#bu" x="116.757" y="577.985"/><use xlink:href="#bv" x="122.232" y="577.985"/><use xlink:href="#bw" x="125.774" y="577.985"/><use xlink:href="#bx" x="129.959" y="577.985"/><use xlink:href="#bl" x="135.754" y="577.985"/><use xlink:href="#bm" x="139.723" y="577.985"/><use xlink:href="#bl" x="143.691" y="577.985"/><use xlink:href="#bn" x="147.659" y="577.985"/></svg>