<svg xmlns="http://www.w3.org/2000/svg" xmlns:xlink="http://www.w3.org/1999/xlink" width="559.371" height="793.701" viewBox="0 0 419.528 595.276"><defs><path id="d" d="M3.344 2.297v-.078L1.5-2.5l1.844-4.703v-.078c0-.11-.078-.203-.188-.203a.24.24 0 0 0-.203.14L1.11-2.562c-.015.015-.015.046-.015.062 0 .031 0 .063.015.078L2.953 2.36a.24.24 0 0 0 .203.141c.11 0 .188-.094.188-.203m0 0"/><path id="e" d="M5.14-6.812s0-.11-.124-.11c-.157 0-1.094.094-1.266.11-.078.015-.14.062-.14.187s.093.125.234.125c.484 0 .5.063.5.172l-.032.203-.593 2.36c-.188-.376-.469-.641-.922-.641-1.156 0-2.39 1.468-2.39 2.922C.406-.547.952.109 1.718.109c.203 0 .703-.046 1.297-.75a.91.91 0 0 0 .906.75c.36 0 .578-.234.75-.546.156-.36.297-.985.297-.985 0-.11-.094-.11-.125-.11-.094 0-.11.048-.14.188-.173.64-.345 1.235-.75 1.235-.282 0-.298-.266-.298-.453 0-.25.016-.313.047-.485Zm-1.546 3.5a.6.6 0 0 1-.031.171l-.485 1.954c-.062.187-.062.203-.203.375-.437.546-.844.703-1.125.703-.5 0-.64-.547-.64-.938 0-.5.312-1.719.546-2.187.313-.578.75-.953 1.157-.953.64 0 .78.812.78.875m0 0"/><path id="f" d="M2.781-2.5c0-.016 0-.047-.015-.062L.922-7.344c-.031-.078-.11-.14-.188-.14a.207.207 0 0 0-.203.203v.078L2.375-2.5.531 2.219v.078c0 .11.094.203.203.203.079 0 .157-.062.188-.14l1.844-4.782c.015-.015.015-.047.015-.078m0 0"/><path id="h" d="M3.313-.281v-.25c0-.172 0-.266-.11-.266a1.2 1.2 0 0 0-.312.094v-3.5c.046 0 .28-.078.297-.078.124-.047.124-.063.124-.297v-.25c0-.172 0-.266-.109-.266A1.2 1.2 0 0 0 2.891-5v-1.875c0-.172 0-.266-.11-.266-.14 0-.14.094-.14.282v1.937l-1.422.438v-1.86c0-.187 0-.265-.11-.265-.125 0-.125.093-.125.28v1.938c-.046 0-.28.079-.312.079-.11.046-.125.062-.125.296v.25c0 .172 0 .266.11.266.046 0 .265-.062.327-.094v3.5c-.046 0-.28.078-.312.078C.562.031.547.047.547.281v.25c0 .172 0 .266.11.266.046 0 .265-.063.327-.094v1.188c0 .172 0 .265.11.265.125 0 .125-.094.125-.281V.625L2.64.188v1.171c0 .188 0 .266.109.266.14 0 .14-.094.14-.281V.094c.047 0 .282-.078.297-.078.126-.047.126-.063.126-.297M2.64-.625l-1.422.438v-3.485l1.422-.437Zm0 0"/><path id="i" d="M1.906-3.672A.524.524 0 1 0 .86-3.687a.524.524 0 0 0 1.047.015m0 2.36a.524.524 0 1 0-1.047.016.524.524 0 0 0 1.047-.016m0 0"/><path id="g" d="M2.031-.016c0-.625-.25-1.046-.64-1.046-.36 0-.532.28-.532.53 0 .266.172.532.532.532.14 0 .28-.062.39-.156.016.781-.25 1.39-.687 1.86-.063.062-.078.077-.078.109 0 .078.046.109.093.109.125 0 .922-.781.922-1.938m0 0"/><path id="j" d="M3.75-4.672c0-.062-.047-.094-.125-.094-.266 0-.578.016-.86.016-.28 0-.593-.016-.874-.016-.047 0-.157 0-.157.157 0 .093.094.093.22.093.234 0 .421 0 .421.11 0 .062-.016.11-.031.156L1.422-.531c-.063.219-.11.281-.578.281-.156 0-.235 0-.235.156 0 0 .016.094.11.094.281 0 .594-.031.86-.031.296 0 .609.031.89.031.031 0 .14 0 .14-.156 0-.094-.078-.094-.203-.094 0 0-.14 0-.265-.016-.157-.015-.157-.03-.157-.109 0-.016 0-.031.032-.14l.922-3.72c.062-.218.078-.28.578-.28.14 0 .234 0 .234-.157m0 0"/><path id="k" d="M6.047-.156c0-.094-.11-.11-.14-.11-.25 0-.376-.03-.5-.312L4.218-3.297 5.766-4.5c.218-.172.812-.625 1.312-.672.063-.016.156-.031.156-.156 0-.047-.03-.11-.109-.11 0 0-.234.016-.281.016h-.328c-.266 0-.563-.016-.813-.016-.047 0-.172 0-.172.141 0 .11.14.125.14.125.11 0 .173.047.173.11 0 .125-.14.25-.172.28l-.047.048c-.016.015-.031.015-.094.078L2.563-2.344l.609-2.5c.078-.265.125-.328.61-.328.171 0 .265 0 .265-.156 0-.047-.031-.11-.125-.11-.14 0-.313.016-.453.016h-.953l-.453-.016c-.047 0-.172 0-.172.141 0 .125.093.125.234.125.219 0 .438 0 .438.11 0 .046 0 .062-.032.171L1.47-.609c-.078.28-.125.343-.61.343-.171 0-.265 0-.265.157C.594-.047.64 0 .719 0c.031 0 .39-.016.453-.031h.484c.672 0 .89.031.938.031s.156 0 .156-.156c0-.11-.094-.11-.234-.11-.25 0-.438 0-.438-.125 0-.046.047-.218.078-.328l.297-1.203 1.25-.969.985 2.25c.046.094.046.11.046.141 0 .203-.187.234-.343.234-.094 0-.188.016-.188.157 0 .062.047.109.11.109.28 0 .578-.031.843-.031.672 0 .64.031.735.031.03 0 .156 0 .156-.156m0 0"/><path id="l" d="M2.828-1.14c0-.11-.11-.11-.156-.11-.125 0-.125.031-.172.172-.14.516-.406.937-.734.937-.157 0-.188-.109-.188-.25 0-.187.063-.328.188-.656l.515-1.39c.063-.172.094-.25.094-.422 0-.438-.312-.657-.656-.657-.75 0-1.078 1.11-1.078 1.22 0 .108.093.108.14.108.14 0 .14-.03.172-.171.125-.407.375-.938.75-.938.14 0 .172.11.172.25 0 .188-.047.344-.156.61L1.156-.953a1.1 1.1 0 0 0-.078.375c0 .36.266.656.672.656.75 0 1.078-1.125 1.078-1.219m.125-3.704a.354.354 0 0 0-.36-.375.55.55 0 0 0-.53.532c0 .234.171.359.359.359.265 0 .531-.234.531-.516m0 0"/><path id="m" d="M4.14-1.14c0-.11-.109-.11-.14-.11-.14 0-.156.047-.187.172-.11.453-.266.937-.61.937-.14 0-.25-.078-.25-.375 0-.125.031-.265.063-.39.03-.125.03-.172.03-.25 0-.563-.546-.75-1.108-.86.296-.187.625-.53.671-.593.454-.5.766-.688 1.063-.688.11 0 .172.063.203.11-.156.03-.344.171-.344.39s.188.266.281.266c.204 0 .407-.14.407-.453 0-.266-.157-.532-.547-.532s-.75.266-1.188.735c-.484.515-.656.594-.796.672l.796-3.188c0-.031.016-.094.016-.125 0-.11-.125-.11-.219-.094l-.828.063c-.11.016-.187.016-.187.156 0 .125.093.125.203.125.375 0 .375.047.375.11a.7.7 0 0 1-.032.171L.657-.266c0 .032-.015.079-.015.11 0 .11.078.234.25.234.14 0 .265-.094.328-.297l.39-1.578c.313.031.891.172.891.656 0 .047 0 .079-.031.188a1 1 0 0 0-.031.25c0 .437.296.781.734.781.36 0 .562-.265.656-.406.188-.297.313-.766.313-.813m0 0"/><path id="n" d="M4.297-2.172c0-.828-.547-1.344-1.266-1.344C2-3.516.921-2.437.921-1.266c0 .875.595 1.344 1.267 1.344 1.062 0 2.109-1.094 2.109-2.25m-.594-.281c0 .265-.125 1.031-.437 1.578-.266.438-.688.734-1.078.734-.297 0-.672-.203-.672-.843 0-.36.172-1.11.422-1.547.343-.578.812-.766 1.078-.766.39 0 .687.297.687.844m0 0"/><path id="o" d="M8.75-4.094c0-2.39-.875-4.468-4-4.468-3.312 0-4.016 2.28-4.016 4.468 0 2.235.766 4.36 4 4.36 3.079 0 4.016-1.907 4.016-4.36M7-4.28C7-3.22 7-.688 4.75-.688c-2.266 0-2.266-2.5-2.266-3.593 0-1.047 0-3.344 2.25-3.344C7-7.625 7-5.359 7-4.281m0 0"/><path id="p" d="M4.453-.562c0-.032-.016-.125-.094-.375-.062-.235-.078-.313-.187-.313-.063 0-.078.016-.14.094-.141.093-.454.36-.954.36-.297 0-.469-.204-.469-1V-4.61h1.063c.14 0 .578 0 .578-.438 0-.422-.437-.422-.578-.422H2.609v-1c0-.375-.093-.578-.578-.578h-.375c-.422 0-.562.14-.562.578v1H.812c-.125 0-.578 0-.578.422 0 .438.438.438.579.438h.234v3.015c0 1.219.437 1.719 1.266 1.719.109 0 .624 0 1.25-.187.203-.063.89-.266.89-.5m0 0"/><path id="q" d="M6.188-2.687c0-1.97-.954-2.985-2.907-2.985-1.984 0-2.906 1.063-2.906 2.984C.375-.733 1.406.126 3.281.126s2.907-.86 2.907-2.812m-1.625-.141c0 .937 0 2.031-1.282 2.031C2-.797 2-1.875 2-2.828c0-.922 0-1.985 1.281-1.985s1.281 1.047 1.281 1.985m0 0"/><path id="r" d="M5.266-.437c0-.454-.36-.454-.72-.454L2.72-.875h-.547l2.922-3.687c.125-.157.14-.22.14-.407 0-.5-.375-.5-.578-.5H1.125c-.156 0-.578 0-.578.453 0 .438.39.438.703.438l1.734-.031h.454L.515-.906C.39-.75.375-.687.375-.5c0 .5.36.5.563.5h3.765c.156 0 .563 0 .563-.437m0 0"/><path id="s" d="M8.594-5.14c-.031-.329-.25-.329-.625-.329-.563 0-.703.032-.875.657l-.969 3.468-1.016-3.593c-.062-.266-.156-.532-.703-.532-.172 0-.453 0-.61.266-.108.187-.64 2.25-1.062 3.656l-.953-3.39c-.125-.407-.25-.532-.734-.532h-.25c-.219 0-.469 0-.516.328L1.547-.547C1.703 0 2.016 0 2.313 0h.343c.563 0 .656-.172.781-.656.282-1 .704-2.5.766-3.125v-.016c.078.688.61 2.578.75 3.14.14.423.203.657.797.657h.813c.515 0 .64-.14.75-.547Zm0 0"/><path id="t" d="M2.313-.578v-4.328c0-.375-.079-.563-.563-.563h-.453c-.422 0-.563.125-.563.563v4.328c0 .437.125.578.563.578h.453c.453 0 .563-.156.563-.578m.093-6.672v-.219c0-.39-.094-.578-.578-.578h-.61c-.452 0-.577.156-.577.578v.219c0 .36.062.578.578.578h.61c.5 0 .577-.219.577-.578m0 0"/><path id="u" d="M5.719-3.11c0-1.546-.703-2.562-2.485-2.562-1.921 0-2.859 1.063-2.859 2.89 0 1.954 1.125 2.907 3 2.907.469 0 1.14-.047 1.938-.453.25-.125.343-.156.343-.313 0-.078-.031-.421-.047-.515-.046-.375-.062-.39-.171-.39-.047 0-.079 0-.204.124a2.7 2.7 0 0 1-1.796.688c-1.36 0-1.5-1.063-1.532-1.828h3.25c.266 0 .563 0 .563-.547m-1.313-.078h-2.5c.047-.734.282-1.624 1.328-1.624.954 0 1.125.687 1.172 1.625m0 0"/><path id="v" d="M4.25-4.719v-.562c0-.235 0-.328-.203-.328-.344 0-1.219.125-1.781 1.406v-.766c0-.39-.094-.578-.578-.578h-.391c-.422 0-.563.125-.563.578v4.39C.734-.14.86 0 1.297 0h.453c.453 0 .563-.156.563-.578V-2.75c0-1.14.953-1.594 1.703-1.656.218 0 .234 0 .234-.313m0 0"/><path id="w" d="M5.469-.594c0-.14-.047-.687-.078-.843 0-.032-.032-.157-.141-.157-.047 0-.078 0-.187.125-.204.172-.766.672-1.75.672-1.25 0-1.25-1.219-1.25-1.969 0-.968.062-1.984 1.28-1.984.782 0 1.11.203 1.532.547.14.14.172.14.219.14.125 0 .14-.109.156-.156.016-.093.14-.765.14-.828 0-.11-.077-.156-.28-.25-.579-.266-.938-.375-1.782-.375-1.781 0-2.89.828-2.89 2.922C.438-.766 1.468.125 3.28.125c.313 0 1.031 0 1.828-.406.344-.188.36-.203.36-.313m0 0"/><path id="x" d="M5.672-.578v-3.203c0-1.89-1.828-1.89-2.422-1.89-.562 0-1.156.046-1.953.374-.25.11-.313.14-.313.281 0 .079.063.766.079.875a.17.17 0 0 0 .156.125c.062 0 .093-.03.125-.078.515-.531 1.125-.797 1.86-.797.64 0 .843.391.843 1.094v.422c-.422 0-3.563.031-3.563 1.781C.484-.75 1.156.125 2.22.125c.406 0 1.297-.11 1.86-.937v.234c0 .39.077.578.577.578h.438c.453 0 .578-.156.578-.578M4.047-1.844c0 1.11-1.14 1.11-1.172 1.11-.516 0-.828-.422-.828-.875 0-1.172 1.656-1.266 2-1.266Zm0 0"/><path id="y" d="M5.969-.578v-7.14c0-.391-.094-.579-.578-.579h-.438c-.453 0-.578.156-.578.578v2.703a2.18 2.18 0 0 0-1.5-.593C.438-5.61.438-3.312.438-2.72c0 .547 0 2.844 2.375 2.844.5 0 1.015-.14 1.53-.687 0 .437.157.562.563.562h.485c.453 0 .578-.156.578-.578M4.344-1.5c0 .203 0 .313-.344.563a1.35 1.35 0 0 1-.719.203c-1.219 0-1.219-1.094-1.219-1.985 0-.906 0-2.031 1.344-2.031.344 0 .672.125.938.375Zm0 0"/><path id="z" d="M4.39-6.469a.45.45 0 0 0-.64-.062l-.766.61V-7.72c0-.39-.078-.578-.562-.578h-.453c-.422 0-.563.14-.563.578v3.063l-1.078.843a.46.46 0 0 0-.062.626c.156.187.422.234.625.062l.515-.406v2.953c0 .437.125.578.563.578h.453c.453 0 .562-.156.562-.578v-4.219l1.329-1.062a.444.444 0 0 0 .078-.61m0 0"/><path id="A" d="M9.64-.578v-3.313c0-1.218-.53-1.718-1.75-1.718-.843 0-1.5.39-1.937 1.187-.187-1.14-1.203-1.187-1.703-1.187-.234 0-.734 0-1.281.39-.36.282-.61.672-.688.844h-.015v-.594c0-.39-.079-.578-.563-.578h-.406c-.438 0-.578.125-.578.578v4.39c0 .438.125.579.578.579h.469c.453 0 .578-.156.578-.578v-2.64c0-1.079.734-1.532 1.312-1.532s.703.25.703.89v3.282c0 .437.141.578.579.578h.484c.453 0 .562-.156.562-.578v-2.64c0-1.079.735-1.532 1.313-1.532s.719.25.719.89v3.282c0 .437.125.578.562.578h.485c.453 0 .578-.156.578-.578m0 0"/><path id="B" d="M5.969-.578v-3.313c0-1.218-.516-1.718-1.735-1.718-1.265 0-1.796.906-1.953 1.234h-.015v-.594c0-.39-.079-.578-.563-.578h-.406c-.438 0-.578.125-.578.578v4.39c0 .438.125.579.578.579h.469c.453 0 .578-.156.578-.578v-2.64c0-1.032.687-1.532 1.312-1.532.578 0 .688.281.688.89v3.282c0 .39.093.578.578.578h.484c.453 0 .563-.156.563-.578m0 0"/><path id="C" d="M4.734-1.687c0-.672-.359-1.079-.578-1.282-.468-.422-.89-.5-1.39-.594-.657-.124-1.141-.218-1.141-.687 0-.484.39-.578.86-.578.796 0 1.234.297 1.546.562.11.125.14.125.188.125.125 0 .14-.109.156-.156.031-.11.14-.766.14-.828 0-.187-.624-.36-.765-.406-.469-.14-.86-.14-1.172-.14-.531 0-2.14 0-2.14 1.702 0 .594.265.938.593 1.235.422.375.875.468 1.563.593.344.063.953.172.953.688 0 .562-.469.656-.922.656a2.21 2.21 0 0 1-1.766-.828c-.062-.062-.093-.094-.171-.094-.11 0-.141.11-.157.172-.015.172-.156.86-.156.969 0 .219.89.5.89.5a4.4 4.4 0 0 0 1.36.203c.61 0 2.11-.047 2.11-1.812m0 0"/><path id="D" d="M5.656-5.156c0-.313-.328-.313-.484-.313h-.266c-.187 0-.453 0-.625.266-.031.062-1 2.703-1.062 3.5h-.016c-.062-.578-.547-1.688-1.062-2.844-.328-.75-.422-.922-1.016-.922H.813c-.172 0-.47 0-.47.313 0 .047.032.125.063.187L2.672 0c-.11.25-.14.375-.172.5-.14.39-.344.938-1 .938-.39 0-.656-.172-.797-.25C.641 1.14.625 1.14.578 1.14s-.14.03-.14.172c0 .093.062.921.093.968.11.14.766.172.953.172 1.485 0 2.063-1.406 2.157-1.703l1.953-5.656c.062-.157.062-.188.062-.25m0 0"/><path id="E" d="M2.672.375v-5.281c0-.375-.078-.563-.563-.563h-.453c-.453 0-.562.157-.562.563V.672c0 .297 0 .781-.719.781-.219 0-.5-.047-.75-.219-.031-.015-.078-.046-.125-.046-.094 0-.11 0-.219.312-.047.125-.125.36-.125.39 0 .22.985.563 1.735.563 1.328 0 1.78-.89 1.78-2.078m0-7.625v-.219c0-.39-.078-.578-.563-.578H1.5c-.453 0-.578.156-.578.578v.219c0 .36.062.578.578.578h.61c.5 0 .562-.219.562-.578m0 0"/><path id="F" d="M7.656-5.719c0-1.797-1.172-2.578-3-2.578h-3c-.422 0-.562.14-.562.578v7.14c0 .438.125.579.562.579h.61c.453 0 .578-.156.578-.578v-2.625h1.812c1.875 0 3-.797 3-2.516M6-5.719c0 .813-.125 1.578-1.734 1.578H2.813v-3.125H4.28C5.844-7.266 6-6.546 6-5.719m0 0"/><path id="G" d="M2.594 2.234c-.375-.5-1.25-1.64-.64-4.484.609-2.828 1.952-3.969 2.546-4.484h-.594c-1.25.89-2.265 2.422-2.703 4.484-.453 2.14-.031 3.625.813 4.484Zm0 0"/><path id="H" d="M6.031 0 4.125-3.281 6.969-6.22h-.922L3.844-3.906 2.594-6.22h-1L3.297-3.28.125 0h.922l2.547-2.719L5.016 0Zm0 0"/><path id="I" d="m1.719 0 1.328-6.219h-.875L.859 0Zm0 0"/><path id="J" d="M6.938-3.078c.406-1.906-.625-3.344-2.172-3.344-1.563 0-3.203 1.438-3.594 3.344-.406 1.86.64 3.281 2.187 3.281s3.188-1.422 3.579-3.281m-.829-.14C5.75-1.532 4.563-.439 3.484-.439c-1.062 0-1.796-1.093-1.437-2.78.36-1.641 1.562-2.594 2.594-2.594 1.015 0 1.812.953 1.468 2.593m0 0"/><path id="K" d="m4.016 0 1.328-6.219h-.719l-.578 2.625c-.406-.422-.969-.484-1.25-.484-.906 0-1.813.937-2.047 2.094C.5-.828 1 .094 1.875.094c.266 0 .844-.063 1.484-.563L3.266 0ZM3.53-1.266c-.031.172-.031.188-.156.313-.312.328-.656.469-.984.469-.578 0-1.141-.422-.907-1.5C1.734-3.125 2.578-3.5 3.141-3.5c.406 0 .64.234.765.469Zm0 0"/><path id="L" d="m3.781 0 .547-2.594c.188-.89-.312-1.547-1.203-1.547-.594 0-1.047.157-1.531.407l-.078.625C2.03-3.437 2.5-3.562 3-3.562s.719.39.594.984l-.094.375C1.953-2.172.86-1.766.703-1.047.625-.625.75.093 1.531.093c.172 0 .953-.015 1.61-.437L3.062 0Zm-.469-1.25c-.046.188-.093.406-.453.594-.265.14-.562.172-.75.172-.453 0-.78-.22-.703-.578.125-.625 1.89-.657 2-.657Zm0 0"/><path id="M" d="M4.969-1.719c.218-1-.485-1.672-1.125-1.828l-.86-.219c-.421-.109-.812-.468-.703-.984S3-5.781 3.812-5.781c.641 0 1.063.187 1.438.578l.313-.781c-.407-.22-.797-.438-1.61-.438-1.265 0-2.265.89-2.453 1.781-.047.235-.078.594.125 1 .313.532.86.672 1.203.766l.719.188c.39.124.75.515.625 1.078-.125.593-.75 1.14-1.547 1.14a2.58 2.58 0 0 1-1.812-.734L.5-.422a3.42 3.42 0 0 0 1.984.625C3.72.203 4.75-.719 4.97-1.719m0 0"/><path id="N" d="m1.453 0 1.328-6.219h-.719L.734 0Zm0 0"/><path id="O" d="M4.75-1.969C5-3.14 4.313-4.14 3.172-4.14c-1.11 0-2.234.97-2.484 2.172C.438-.797 1.188.094 2.28.094 3.391.094 4.5-.812 4.75-1.97m-.719-.093C3.797-1.016 3.063-.516 2.406-.516c-.687 0-1.172-.53-.953-1.546.219-1.047.984-1.485 1.594-1.485.64 0 1.203.453.984 1.485m0 0"/><path id="P" d="m6.578 0 .563-2.656c.156-.672.14-1.422-.953-1.422-.75 0-1.266.453-1.547.734-.016-.187-.094-.734-1.016-.734-.703 0-1.219.406-1.484.672l.14-.625h-.687L.719 0h.75l.468-2.187c.125-.594.516-1.313 1.188-1.313.906 0 .766.64.719.906L3.28 0h.75L4.5-2.187C4.625-2.781 5-3.5 5.688-3.5c.89 0 .765.64.703.906L5.844 0Zm0 0"/><path id="Q" d="m4.031 0 .563-2.656c.14-.672.125-1.422-.969-1.422-.703 0-1.219.406-1.484.672l.14-.625h-.687L.719 0h.75l.468-2.187c.125-.594.516-1.313 1.188-1.313.906 0 .766.64.719.906L3.28 0Zm0 0"/><path id="R" d="M3.328-2.25c.453-2.125.031-3.625-.812-4.484h-.578c.39.5 1.25 1.656.64 4.484C1.984.594.625 1.734.031 2.234h.594c1.234-.89 2.266-2.421 2.703-4.484m0 0"/><path id="S" d="M-2.078-5.516v.25c1.203.204 1.812.375 1.812 1.813v1.187c0 .36-.046.375-.328.375h-2.093v-.765c0-.797.234-.906.937-.906v-.25h-2.125v.25c.688 0 .922.109.922.906v.765h-1.875c-.266 0-.328-.015-.328-.375v-1.14c0-1.313.484-1.485 1.547-1.625v-.25l-1.813.234v4.703h.266V-.53c0-.61.093-.625.39-.625H-.64c.297 0 .375.015.375.625v.187H0v-4.812Zm0 0"/><path id="T" d="M-.953-3.516c-.094 0-.094.11-.094.125 0 .063 0 .094.078.125.172.047.797.282.797 1.079 0 .484-.375 1.203-1.562 1.203-1.141 0-1.578-.594-1.578-1.172 0-.078 0-.5.156-.781.062.234.25.265.344.265a.36.36 0 0 0 .374-.375c0-.219-.14-.375-.39-.375-.485 0-.719.531-.719 1.281 0 1.11.875 1.86 1.828 1.86C-.703-.281.078-1.11.078-2.11c0-1.125-.937-1.407-1.031-1.407m0 0"/><path id="U" d="M-1.703-3.984c-.984 0-1.844.828-1.844 1.875s.86 1.875 1.844 1.875c1 0 1.781-.86 1.781-1.875 0-1.032-.781-1.875-1.781-1.875m-.063.703c.36 0 .797.015 1.141.25.313.203.453.562.453.922 0 .422-.203.765-.484.937-.328.203-.719.219-1.11.219-.312 0-.78 0-1.125-.235a1.14 1.14 0 0 1-.437-.921c0-.422.203-.766.469-.938.343-.219.765-.234 1.093-.234m0 0"/><path id="V" d="M0-2.125h-.266c0 .5 0 .61-.359.61h-4.906l.093 1.187h.266c0-.547.047-.61.438-.61h4.109c.36 0 .36.094.36.61H0c-.031-.313-.031-.766-.031-.906 0-.157 0-.578.031-.891m0 0"/><path id="W" d="M-1.031-3.047c-.375 0-.938.219-1.11 1.172-.015.063-.093.516-.093.547-.063.25-.235.625-.547.625-.235 0-.578-.188-.578-.938 0-.89.656-.937.875-.953.062 0 .093-.062.093-.11 0-.14-.062-.14-.203-.14h-.75c-.125 0-.203 0-.203.11 0 .046 0 .062.125.187 0 .016.078.094.078.11 0 0 0 .03-.031.078-.094.125-.172.359-.172.718 0 1.11.594 1.36.985 1.36.39 0 .624-.297.656-.313.234-.328.265-.5.36-1.047.077-.375.187-.984.718-.984.312 0 .687.203.687.938 0 .812-.625 1.046-1.046 1.14-.11.031-.141.047-.141.14 0 .126.062.126.219.126h.984c.125 0 .203 0 .203-.094 0-.062 0-.062-.156-.203-.047-.047-.14-.125-.188-.172.329-.36.344-.734.344-.937 0-1.016-.578-1.36-1.11-1.36m0 0"/><path id="X" d="M-1.719-4.422c-1 0-1.797.813-1.797 1.781 0 .313.079.766.5 1.172h-.5l.094 1.188h.266c0-.563.047-.61.375-.61H.922c.36 0 .36.11.36.61h.265c-.031-.344-.031-.688-.031-.906 0-.235 0-.563.03-.907h-.265c0 .516 0 .61-.36.61H-.39a1.37 1.37 0 0 0 .47-1.047c0-1-.782-1.89-1.798-1.89m0 .719c.907 0 1.578.578 1.578 1.219 0 .28-.125.64-.515.906-.14.094-.156.094-.297.094h-1.703a1.3 1.3 0 0 1-.61-1.094c0-.61.672-1.125 1.547-1.125m0 0"/><path id="Y" d="M-.953-3.516a.12.12 0 0 0-.11.125c0 .094.047.11.094.125.782.282.797.97.797 1.11 0 .36-.156.734-.531.969-.36.234-.875.234-1.11.234v-2.344c0-.172 0-.219-.187-.219-.703 0-1.547.391-1.547 1.516 0 .984.813 1.766 1.797 1.766 1.031 0 1.828-.86 1.828-1.875 0-1-.844-1.407-1.031-1.407m-1.078.547v2.016c-1.11-.078-1.297-.75-1.297-1.047 0-.937 1.125-.969 1.297-.969m0 0"/><path id="Z" d="M0-4.484h-.266c0 .515 0 .609-.359.609h-1.797c-.656 0-1.094.313-1.094 1.14 0 .704.454 1.063.704 1.22h-2.72l.095 1.187h.265c0-.547.047-.61.438-.61h4.109c.36 0 .36.094.36.61H0c-.031-.344-.031-.688-.031-.906 0-.235 0-.563.031-.907h-.266c0 .5 0 .61-.359.61h-1.437c-.844 0-1.235-.64-1.235-1.125s.344-.61.844-.61h1.828c.36 0 .36.094.36.61H0C-.031-3-.031-3.36-.031-3.562c0-.235 0-.579.031-.922m0 0"/><path id="aa" d="M0-2.078h-.266c0 .531-.03.562-.343.562h-2.907l.094 1.157h.266c0-.516.047-.578.437-.578h2.094c.36 0 .36.093.36.609H0c-.031-.313-.031-.766-.031-.89 0-.095 0-.579.031-.86m-4.797.453a.453.453 0 0 0-.453.453.45.45 0 0 0 .453.438.437.437 0 0 0 .438-.438.45.45 0 0 0-.438-.453m0 0"/><path id="ab" d="M0-4.484h-.266c0 .515 0 .609-.359.609h-1.797c-.656 0-1.094.313-1.094 1.14 0 .797.579 1.157.766 1.25h-.766l.094 1.157h.266c0-.547.047-.61.437-.61h2.094c.36 0 .36.094.36.61H0c-.031-.344-.031-.688-.031-.906 0-.235 0-.563.031-.907h-.266c0 .5 0 .61-.359.61h-1.437c-.844 0-1.235-.64-1.235-1.125s.344-.61.844-.61h1.828c.36 0 .36.094.36.61H0C-.031-3-.031-3.36-.031-3.562c0-.235 0-.579.031-.922m0 0"/><path id="ac" d="M-1-2.812h-.437v.25h.421c.547 0 .844.25.844.546 0 .532-.687.532-.812.532h-2.188v-1.188h-.265v1.188h-1.47v.25c.735 0 1.485.328 1.516 1.078h.22v-.719H-1c.938 0 1.078-.719 1.078-1.078 0-.547-.469-.86-1.078-.86m0 0"/><path id="ad" d="M-3.016-3.062c-.28 0-.5.25-.5.609 0 .515.391.875.844 1.031v.016h-.844l.094 1.125h.266c0-.547.047-.61.437-.61h2.094c.36 0 .36.11.36.61H0c-.031-.313-.031-.75-.031-.938 0-.468 0-.484.031-1h-.266v.156c0 .579-.078.594-.375.594h-1.171c-.61 0-1.47-.25-1.485-1.015.031.046.094.14.281.14.25 0 .36-.203.36-.36 0-.187-.125-.358-.36-.358m0 0"/><path id="ae" d="M-.437-1.625a.453.453 0 0 0-.454.453c0 .266.22.438.438.438A.44.44 0 0 0 0-1.172a.45.45 0 0 0-.437-.453m0 0"/><path id="af" d="M0-3.562h-.266v.28c0 .75-.093.782-.39.782h-4.422c-.219 0-.219.016-.219.234.313.329.5.75.5 1.5h.266c0-.218 0-.64-.203-1.109h4.078c.297 0 .39.031.39.781v.282H0c-.031-.329-.031-1.016-.031-1.375 0-.36 0-1.047.031-1.376m0 0"/><path id="ag" d="M-1.344-3.875c-.5 0-.828.266-.968.406-.126.125-.141.14-.563.828-.219-.453-.61-1-1.234-1-.766 0-1.188.782-1.188 1.516 0 .844.578 1.531 1.328 1.531.297 0 .563-.094.797-.297.172-.14.188-.171.5-.656.438.984 1.016 1.203 1.453 1.203.89 0 1.39-.89 1.39-1.765 0-.97-.671-1.766-1.515-1.766m-2.765.64c.453 0 .843.36 1.078.829l-.594 1c-.14.234-.375.422-.64.422-.5 0-.829-.547-.829-1.125 0-.61.422-1.125.985-1.125m3.047-.187c.609 0 .984.656.984 1.297 0 .719-.484 1.313-1.14 1.313-.594 0-1.063-.438-1.313-.985l.656-1.078c.078-.125.328-.547.813-.547m0 0"/><path id="ah" d="M-2.625-3.875c-2.062 0-2.672.922-2.672 1.734 0 .954.734 1.797 1.781 1.797 1.016 0 1.766-.781 1.766-1.687 0-.563-.36-.906-.766-1.094h.172c1.938 0 2.266.922 2.266 1.39 0 .173-.016.579-.266.798-.031-.36-.297-.375-.375-.375a.37.37 0 0 0-.375.375c0 .14.094.375.39.375.548 0 .876-.454.876-1.188 0-1.094-1.094-2.125-2.797-2.125m-.734.766c.64 0 1.39.343 1.39 1.047 0 .374-.172.609-.468.78-.282.188-.672.188-1.079.188-.468 0-.796 0-1.125-.218-.296-.204-.453-.454-.453-.829 0-.53.532-.765.563-.796.39-.157 1.015-.172 1.172-.172m0 0"/><path id="ai" d="M-.031-1.719c-.438 0-.86.172-.86.547 0 .266.22.438.438.438.25 0 .453-.172.453-.438 0-.187-.094-.297-.125-.312.25 0 .89 0 1.469.593.015.032.031.047.078.047.078 0 .125-.062.125-.11 0-.093-.625-.765-1.578-.765m0 0"/><path id="aj" d="M1.828-2.672h-.047l-3.765 1.469-3.782-1.469h-.046c-.094 0-.157.063-.157.156 0 .063.032.125.094.157l3.828 1.468c.016.016.031.016.063.016.015 0 .03 0 .046-.016l3.829-1.468a.17.17 0 0 0 .093-.157c0-.093-.062-.156-.156-.156m0 0"/><path id="ak" d="M-5.422-4.578a.12.12 0 0 0-.11.125c0 .156.063.812.079 1.016.016.062.016.171.187.171.11 0 .11-.109.11-.203 0-.375.062-.375.125-.375.047 0 .093.016.172.031l1.812.454a.93.93 0 0 0-.469.812c0 1.031 1.125 2.063 2.266 2.063C-.469-.484.078-1 .078-1.687c0-.438-.25-.813-.562-1.141.484-.14.562-.61.562-.813 0-.28-.172-.484-.422-.625a2.6 2.6 0 0 0-.797-.28c-.109 0-.109.093-.109.124 0 .11.031.125.25.172.39.094.86.25.86.578 0 .219-.172.266-.391.266-.156 0-.219-.016-.328-.031l-4.438-1.11c-.016-.016-.125-.031-.125-.031m2.828 1.328c.031 0 .078.016.11.016L-1-2.86c.234.062.39.234.531.406.078.078.328.39.328.734 0 .297-.203.594-.78.594-.423 0-1.298-.234-1.61-.422-.64-.36-.766-.766-.766-1 0-.547.61-.703.703-.703m0 0"/><path id="al" d="M-1.984-2.219h-.063L-5.875-.734a.17.17 0 0 0-.094.156c0 .078.063.156.157.156.015 0 .03 0 .046-.016l3.782-1.453L1.78-.437c.016.015.032.015.047.015a.157.157 0 0 0 .156-.156.17.17 0 0 0-.093-.156L-1.937-2.22zm0 0"/><path id="am" d="M-.219-2.656h-.203c-.14 0-.219 0-.219.094 0 .03.063.218.079.25H-3.36c0-.032-.063-.22-.063-.235-.031-.094-.047-.11-.234-.11h-.203c-.141 0-.22 0-.22.095 0 .03.063.218.079.25h-1.484c-.157 0-.22 0-.22.093 0 .11.063.11.22.11h1.547l.359 1.125h-1.485c-.156 0-.218 0-.218.093 0 .11.062.11.218.11h1.547c.016.031.063.219.079.234.03.094.03.11.218.11h.203c.141 0 .22 0 .22-.094 0-.031-.063-.203-.079-.25h2.797c0 .031.062.219.062.234.047.094.047.11.235.11h.203c.14 0 .219 0 .219-.094 0-.031-.063-.203-.079-.25H1.5c.156 0 .219 0 .219-.094 0-.11-.063-.11-.219-.11h-1L.156-2.108h.922c.156 0 .219 0 .219-.094 0-.11-.063-.11-.219-.11h-1c0-.03-.062-.218-.062-.234-.047-.094-.047-.11-.235-.11M-.5-2.11l.344 1.125h-2.781l-.344-1.125Zm0 0"/><path id="an" d="M-2.937-1.531a.42.42 0 0 0-.422.422.42.42 0 0 0 .422.422.42.42 0 0 0 .421-.422.42.42 0 0 0-.421-.422m1.89 0a.42.42 0 0 0-.422.422.42.42 0 0 0 .422.422.42.42 0 0 0 .422-.422.42.42 0 0 0-.422-.422m0 0"/><path id="ao" d="M-4-3.203q-.093 0-.094.094c0 .234.032.5.032.734 0 .25-.032.516-.032.75 0 .047 0 .14.14.14.079 0 .079-.077.079-.187 0-.203 0-.36.094-.36.047 0 .094.016.14.016l3.188.797c.187.047.234.094.234.5 0 .125 0 .188.14.188 0 0 .079 0 .079-.078 0-.25-.031-.516-.031-.75 0-.25.031-.516.031-.75 0-.032 0-.125-.125-.125-.094 0-.094.062-.094.172 0 0 0 .124-.015.218 0 .14-.016.14-.078.14-.032 0-.047 0-.125-.015l-3.188-.797c-.187-.046-.25-.062-.25-.5 0-.125 0-.187-.125-.187m0 0"/><path id="ap" d="M0 5.984h.266v-.171c0-.61.078-.641.375-.641h4.156c.297 0 .375.031.375.64v.172h.266l-.016-1.171.016-1.172h-.266v.172c0 .624-.078.64-.375.64H2.969V1.891h1.828c.297 0 .375.015.375.625v.172h.266l-.016-1.172.016-1.172h-.266V.53c0 .61-.078.625-.375.625H.64c-.297 0-.375-.015-.375-.625V.344H0l.031 1.172L0 2.688h.266v-.172c0-.61.078-.625.375-.625h2.062v2.562H.641c-.297 0-.375-.016-.375-.64V3.64H0l.031 1.172Zm0 0"/><path id="aq" d="M.953 3.516a.12.12 0 0 0 .11-.125c0-.094-.047-.11-.094-.125a1.14 1.14 0 0 1-.797-1.11c0-.36.156-.734.531-.969.36-.234.875-.234 1.11-.234v2.344c0 .172 0 .219.187.219.703 0 1.547-.391 1.547-1.516 0-.984-.813-1.766-1.797-1.766-1.031 0-1.828.86-1.828 1.875 0 1 .844 1.407 1.031 1.407m1.078-.547V.953c1.11.078 1.297.75 1.297 1.047 0 .938-1.125.969-1.297.969m0 0"/><path id="ar" d="M.719 4.094h.437v-.25H.72c-.328 0-.453-.11-.453-.281 0-.297.359-.297.453-.297h1.656c.781 0 1.172-.75 1.172-1.485 0-.656-.25-1.25-.781-1.25a.36.36 0 0 0-.375.375c0 .219.156.375.375.375a.356.356 0 0 0 .359-.297c.203.297.203.735.203.782 0 .453-.312.89-.969.89h-.234c-.031-.453-.047-.984-.281-1.547C1.53.406 1.078.266.813.266c-.688 0-.891.812-.891 1.359 0 .578.328.938.64 1.11-.296.046-.609.25-.609.609 0 .078.031.75.766.75m.406-1.438c-.781 0-.984-.64-.984-.969 0-.406.28-.765.672-.765.515 0 1.062.5 1.093 1.734Zm0 0"/><path id="as" d="M-1.547 4.422h.266c0-.516 0-.61.36-.61h4.437v-.218l-.688-.297c.422-.266.688-.64.688-1.14 0-1-.782-1.876-1.797-1.876-1 0-1.797.813-1.797 1.797 0 .578.312.938.562 1.14H-.922c-.36 0-.36-.109-.36-.609h-.265c.031.344.031.688.031.907 0 .234 0 .562-.03.906m2.672-1.188c-.125 0-.172 0-.375-.125-.484-.28-.61-.703-.61-.984 0-.64.72-1.14 1.579-1.14.906 0 1.547.593 1.547 1.218 0 .656-.641 1.031-1.078 1.031Zm0 0"/><path id="at" d="M0 4.484h.266c0-.546.046-.609.437-.609h2.813l-.094-1.219h-.266c0 .547-.047.61-.437.61h-1.39C.64 3.266.14 2.859.14 2.25c0-.687.343-.719.75-.719h2.625L3.422.328h-.266c0 .61-.015.61-.719.61H1.235c-.578 0-1.312 0-1.312 1.265 0 .75.578 1.047.64 1.078v.016h-.64Zm0 0"/><path id="au" d="M0 2.078h.266c0-.531.03-.562.343-.562h2.907L3.422.359h-.266c0 .516-.047.579-.437.579H.625c-.36 0-.36-.094-.36-.61H0c.031.313.031.766.031.89 0 .095 0 .579-.031.86m5.25.156c.172 0 .313-.171.313-.312 0-.031 0-.14-.125-.25L4.218.656l-.171.172.937 1.25c.063.078.125.156.266.156m0 0"/><path id="av" d="M0 4.484h.266c0-.515 0-.609.359-.609h1.797c.656 0 1.094-.312 1.094-1.14a1.38 1.38 0 0 0-.766-1.25h.766L3.422.327h-.266c0 .547-.047.61-.437.61H.625c-.36 0-.36-.094-.36-.61H0c.031.344.031.688.031.906 0 .235 0 .563-.031.907h.266c0-.5 0-.61.359-.61h1.438c.843 0 1.234.64 1.234 1.125s-.344.61-.844.61H.625c-.36 0-.36-.094-.36-.61H0c.031.344.031.703.031.906 0 .235 0 .579-.031.922m0 0"/><path id="aw" d="M1.031 3.047c.375 0 .938-.219 1.11-1.172.015-.062.093-.516.093-.547.063-.25.235-.625.547-.625.235 0 .578.188.578.938 0 .89-.656.937-.875.953-.062 0-.093.062-.093.11 0 .14.062.14.203.14h.75c.125 0 .203 0 .203-.11 0-.046 0-.062-.125-.187 0-.016-.078-.094-.078-.11 0 0 0-.03.031-.078.094-.125.172-.359.172-.718 0-1.11-.594-1.36-.985-1.36-.39 0-.624.297-.656.313-.234.328-.265.5-.36 1.047-.077.375-.187.984-.718.984-.312 0-.687-.203-.687-.937C.14.875.766.64 1.188.547c.109-.031.14-.047.14-.14C1.328.28 1.266.28 1.11.28H.125c-.125 0-.203 0-.203.094 0 .063 0 .063.156.203.047.047.14.125.188.172-.328.36-.344.734-.344.938 0 1.015.578 1.359 1.11 1.359m0 0"/><path id="ax" d="M1 2.813h.438v-.25h-.422c-.547 0-.844-.25-.844-.547 0-.532.687-.532.812-.532h2.188v1.188h.265V1.484h1.47v-.25c-.735 0-1.485-.328-1.516-1.078h-.22v.719H1c-.937 0-1.078.719-1.078 1.078 0 .547.469.86 1.078.86m0 0"/><path id="ay" d="M3.016 3.063c.28 0 .5-.25.5-.61 0-.515-.391-.875-.844-1.031v-.016h.844L3.422.281h-.266c0 .547-.047.61-.437.61H.625C.265.89.265.78.265.28H0c.031.313.031.75.031.938 0 .468 0 .484-.031 1h.266v-.156c0-.579.078-.594.375-.594h1.172c.609 0 1.468.25 1.484 1.015-.031-.046-.094-.14-.281-.14-.25 0-.36.203-.36.36 0 .187.125.358.36.358m0 0"/><path id="az" d="M1.703 3.984c.984 0 1.844-.828 1.844-1.875 0-1.046-.86-1.875-1.844-1.875-1 0-1.781.86-1.781 1.875 0 1.032.781 1.875 1.781 1.875m.063-.703c-.36 0-.797-.015-1.141-.25C.313 2.828.172 2.47.172 2.11c0-.421.203-.765.484-.937.328-.203.719-.219 1.11-.219.312 0 .78 0 1.125.235.28.218.437.546.437.921 0 .422-.203.766-.469.938-.343.219-.765.234-1.093.234m0 0"/><path id="aA" d="M1.719 4.422c1 0 1.797-.813 1.797-1.781 0-.313-.079-.766-.5-1.172h.5L3.422.28h-.266c0 .563-.047.61-.375.61H-.922c-.36 0-.36-.11-.36-.61h-.265c.031.344.031.688.031.907 0 .234 0 .562-.03.906h.265c0-.516 0-.61.36-.61H.39a1.37 1.37 0 0 0-.47 1.047c0 1 .782 1.89 1.798 1.89m0-.719C.812 3.703.14 3.125.14 2.484c0-.28.125-.64.515-.906.14-.094.156-.094.297-.094h1.703c.313.188.61.594.61 1.094 0 .61-.672 1.125-1.547 1.125m0 0"/><path id="aB" d="M-.36 1.813h3.876L3.422.563h-.266c0 .593-.047.671-.437.671H-.375c-.219 0-1.031-.046-1.031-.593 0-.11.031-.297.078-.391.016.047.11.219.344.219A.36.36 0 0 0-.61.094C-.61-.11-.75-.281-1-.281c-.406 0-.625.437-.625.937 0 .64.516 1.156 1.266 1.156m5.157 0a.44.44 0 0 0 .453-.438.44.44 0 0 0-.453-.437.427.427 0 0 0-.438.437c0 .25.204.438.438.438m0 0"/><path id="aC" d="M0 2.125h.266c0-.5 0-.61.359-.61h4.906L5.438.329h-.266c0 .547-.047.61-.438.61H.625c-.36 0-.36-.094-.36-.61H0c.031.313.031.766.031.906 0 .157 0 .579-.031.891m0 0"/><path id="aD" d="M1.469 4.219a1.62 1.62 0 0 0 1.594-1.266l.265-1.094c.11-.515.516-.89 1-.89.547 0 1.047.469 1.047 1.156 0 1.375-1.297 1.563-1.594 1.61-.094.015-.14.015-.14.124 0 .125.046.125.203.125h1.562c.125 0 .203 0 .203-.109 0-.062-.015-.078-.109-.125l-.453-.281c.437-.406.562-.906.562-1.344 0-.953-.718-1.656-1.53-1.656-.61 0-.938.344-1.095.5-.28.281-.343.547-.546 1.406-.157.688-.188.797-.47 1.063a1.08 1.08 0 0 1-.734.28c-.562 0-1.14-.421-1.14-1.171 0-.875.422-1.781 1.531-1.828.125-.016.188-.016.188-.125 0-.125-.063-.125-.22-.125H.048c-.14 0-.219 0-.219.11 0 .062.016.062.094.124.047.031.125.063.453.281-.437.5-.547 1.094-.547 1.579 0 .984.797 1.656 1.64 1.656m0 0"/><path id="aE" d="M0 4.484h.266c0-.515 0-.609.359-.609h1.797c.656 0 1.094-.312 1.094-1.14a1.38 1.38 0 0 0-.766-1.25h.766L3.422.327h-.266c0 .547-.047.61-.437.61H.625c-.36 0-.36-.094-.36-.61H0c.031.344.031.688.031.906 0 .235 0 .563-.031.907h.266c0-.5 0-.61.359-.61h1.438c.843 0 1.234.64 1.234 1.125s-.344.61-.844.61H.625c-.36 0-.36-.094-.36-.61H0c.031.344.031.703.031.906 0 .235 0 .579-.031.922m5.047-.718.156-.157c-.36-.328-.36-.578-.36-.671 0-.188.079-.344.173-.532.109-.219.187-.36.187-.547 0-.312-.172-.468-.64-.906l-.157.156c.36.329.36.579.36.672 0 .172-.079.344-.188.532-.094.218-.172.359-.172.546 0 .313.172.47.64.907m0 0"/><path id="aF" d="M.438 1.625a.453.453 0 0 0 .453-.453.436.436 0 0 0-.438-.438.44.44 0 0 0-.453.438.45.45 0 0 0 .438.453m0 0"/><path id="aG" d="M1.422 3.797v-.25c-.156-.016-.547-.078-.703-.172-.063-.047-.063-.656-.063-.781V1.172l.969 1.078c.125.125.39.453.5.594.453.484.89.953 1.61.953.953 0 1.562-.797 1.562-1.781 0-.97-.719-1.594-1.438-1.594-.39 0-.437.312-.437.422 0 .172.11.422.422.422.406 0 .406-.407.406-.5.594.234.781.765.781 1.156 0 .734-.625 1.125-1.297 1.125-.828 0-1.437-.578-2.39-1.531l-1.047-1C.219.422.203.422 0 .422v3.14Zm0 0"/><path id="aH" d="M1.625 3.875c1.031 0 1.766-.797 1.766-1.672 0-.578-.36-.922-.75-1.11.656 0 1.234.063 1.718.345.407.25.735.656.735 1.156 0 .156-.032.515-.297.703-.031-.36-.297-.39-.375-.39-.25 0-.375.187-.375.374 0 .14.078.375.39.375.47 0 .86-.36.86-1.078C5.297 1.468 4.25.344 2.53.344.36.344-.172 1.359-.172 2.125c0 .39.11.797.453 1.156.313.328.64.594 1.344.594m0-.75c-.406 0-.75 0-1.047-.156-.36-.219-.5-.485-.5-.844a.88.88 0 0 1 .516-.797c.36-.187.89-.203 1.203-.203.781 0 1.375.422 1.375 1.047 0 .39-.203.64-.485.781-.296.172-.656.172-1.062.172m0 0"/><path id="aI" d="M.031 1.719c.438 0 .86-.172.86-.547A.436.436 0 0 0 .453.734C.203.734 0 .906 0 1.172c0 .187.094.297.125.312-.25 0-.89 0-1.469-.593-.015-.032-.031-.047-.078-.047-.078 0-.125.062-.125.11 0 .093.625.765 1.578.765m0 0"/><path id="aJ" d="M-1.828 2.672h.047l3.765-1.469 3.782 1.469h.046c.094 0 .157-.063.157-.156a.17.17 0 0 0-.094-.157L2.047.891C2.03.875 2.016.875 1.984.875c-.015 0-.03 0-.046.016l-3.829 1.468a.17.17 0 0 0-.093.157c0 .093.062.156.156.156m0 0"/><path id="aK" d="M5.422 4.578a.12.12 0 0 0 .11-.125c0-.156-.063-.812-.079-1.016-.016-.062-.016-.171-.187-.171-.11 0-.11.109-.11.203 0 .375-.062.375-.125.375-.047 0-.093-.016-.172-.031l-1.812-.454a.93.93 0 0 0 .469-.812C3.516 1.516 2.39.484 1.25.484.469.484-.078 1-.078 1.688c0 .437.25.812.562 1.14-.484.14-.562.61-.562.813 0 .28.172.484.422.625.312.187.765.28.797.28.109 0 .109-.093.109-.124 0-.11-.031-.125-.25-.172C.61 4.156.14 4 .14 3.672c0-.219.173-.266.391-.266.156 0 .219.016.328.031l4.438 1.11a.5.5 0 0 0 .125.031M2.594 3.25c-.031 0-.078-.016-.11-.016L1 2.86c-.234-.062-.39-.234-.531-.406C.39 2.375.14 2.063.14 1.72c0-.297.203-.594.78-.594.423 0 1.298.234 1.61.422.64.36.766.766.766 1 0 .547-.61.703-.703.703m0 0"/><path id="aL" d="M1.984 2.219h.063L5.875.734a.17.17 0 0 0 .094-.156.157.157 0 0 0-.157-.156c-.015 0-.03 0-.046.016L1.984 1.89-1.78.438c-.016-.016-.032-.016-.047-.016a.157.157 0 0 0-.156.156c0 .063.03.125.093.156L1.938 2.22zm0 0"/><path id="aM" d="M9.953 0v-.516h-.312c-.657 0-.703-.062-.813-.218L5.61-5.047l2.844-2.406c.156-.14.266-.234 1.328-.234v-.516L8.5-8.172c-.36 0-1.297 0-1.594-.031v.515c.266 0 .547.016.86.141l-4.47 3.813v-3.953h1.267v-.516c-.344.031-1.625.031-2.047.031-.438 0-1.72 0-2.063-.031v.515H1.72v7.172H.453V0c.344-.031 1.625-.031 2.063-.031.422 0 1.703 0 2.047.031v-.516H3.297v-2.562L4.53-4.125l2.5 3.344c.016.031.063.094.063.14 0 .125-.578.125-.844.125V0c.39-.031 1.5-.031 1.953-.031.36 0 1.485 0 1.75.031m0 0"/><path id="bx" d="M13.61-7.687v-.516l-1.297.031c-.344 0-1.22 0-1.5-.031v.515c.14 0 1.187 0 1.187.172 0 0 0 .032-.047.141L9.938-2.047l-2.126-5.64h1.125v-.516c-.374.031-1.484.031-1.937.031-.375 0-1.531 0-1.828-.031v.515h1.016l.484 1.297-1.64 4.344-2.126-5.64h1.125v-.516c-.343.031-1.515.031-1.953.031-.375 0-1.515 0-1.812-.031v.515h1L4.109-.171c.079.203.11.281.375.281.266 0 .297-.078.375-.28l2.079-5.5 2.093 5.5c.063.202.094.28.36.28.234 0 .297-.046.375-.28L12.5-7.407c.094-.203.11-.282 1.11-.282m0 0"/><path id="bQ" d="M6.031-2.562h-.5c-.031.25-.11.953-.297 1.062-.093.094-1.03.094-1.203.094h-1.86l1.72-1.422c1.328-1 2.14-1.61 2.14-2.75 0-1.422-1.281-2.266-2.86-2.266-1.343 0-2.5.766-2.5 1.907 0 .625.517.812.782.812.375 0 .813-.25.813-.797 0-.516-.375-.766-.75-.812.484-.547 1.109-.594 1.359-.594 1.11 0 1.625.89 1.625 1.766 0 .921-.625 1.78-1.125 2.296L.781-.546c-.11.109-.11.124-.11.343V0h5.017Zm0 0"/><path id="bR" d="M6.328 0v-.516H5.172v-1.359h1.156v-.516H5.172v-5.125c0-.296-.016-.343-.313-.343-.203 0-.234 0-.375.172L.375-2.391v.516h3.39v1.36H2.47V0C2.813-.031 4-.031 4.422-.031c.406 0 1.594 0 1.906.031M3.875-2.39H.922l2.953-3.797Zm0 0"/><path id="aN" d="M6.172-8.156s0-.14-.156-.14c-.188 0-1.313.108-1.516.14-.094 0-.172.062-.172.219 0 .14.11.14.281.14.579 0 .61.094.61.203l-.047.25-.719 2.828c-.203-.437-.562-.765-1.094-.765-1.406 0-2.875 1.75-2.875 3.5 0 1.125.657 1.906 1.579 1.906.25 0 .843-.047 1.562-.89.094.5.516.89 1.078.89.422 0 .703-.266.89-.656.204-.422.36-1.172.36-1.172 0-.125-.11-.125-.14-.125-.125 0-.141.047-.172.219-.203.765-.422 1.484-.907 1.484-.328 0-.359-.312-.359-.562 0-.282.031-.36.078-.563ZM4.312-3.97c0 .078-.015.14-.03.203l-.594 2.344c-.063.219-.063.234-.25.438-.516.656-1.016.859-1.344.859-.594 0-.766-.656-.766-1.125 0-.61.375-2.078.656-2.625.375-.703.907-1.14 1.391-1.14.766 0 .938.968.938 1.046m0 0"/><path id="bh" d="M5.953-1.703c0-.125-.11-.125-.14-.125-.125 0-.141.047-.172.219-.203.765-.422 1.484-.907 1.484-.328 0-.359-.312-.359-.562s.031-.36.156-.875l.266-1.079.422-1.671c.093-.344.093-.36.093-.407 0-.203-.156-.328-.359-.328-.281 0-.453.266-.5.531-.203-.437-.562-.765-1.094-.765-1.406 0-2.875 1.75-2.875 3.5 0 1.125.657 1.906 1.579 1.906.25 0 .843-.047 1.562-.89.094.5.516.89 1.078.89.422 0 .703-.266.89-.656.204-.422.36-1.172.36-1.172M4.313-3.97c0 .078-.016.14-.032.203l-.593 2.344c-.063.219-.063.234-.25.438-.516.656-1.016.859-1.344.859-.594 0-.766-.656-.766-1.125 0-.61.375-2.078.656-2.625.375-.703.907-1.14 1.391-1.14.766 0 .938.968.938 1.046m0 0"/><path id="bq" d="M5.672-4.719c0-.203-.156-.328-.36-.328-.109 0-.437.094-.484.516-.219-.438-.625-.75-1.11-.75C2.36-5.281.876-3.61.876-1.891.875-.703 1.609 0 2.469 0c.703 0 1.265-.562 1.375-.687h.015L3.47.89C3.422 1 3.016 2.188 1.75 2.188c-.234 0-.625-.016-.969-.126.36-.109.5-.406.5-.609s-.14-.422-.453-.422a.674.674 0 0 0-.656.688c0 .5.453.734 1.594.734 1.5 0 2.359-.937 2.53-1.656L5.626-4.5c.016-.078.047-.14.047-.219M4.688-4c0 .063-.032.14-.032.188l-.578 2.28c-.078.313-.344.61-.61.845-.25.203-.624.421-.968.421-.594 0-.781-.625-.781-1.093 0-.578.343-1.985.672-2.594.328-.594.843-1.063 1.343-1.063.782 0 .954.97.954 1.016m0 0"/><path id="bt" d="M9.766-8.062v-.235c-.344.031-.891.11-1.297.266-.36.125-.719.312-1.031.5-.5.297-.907.797-1.25 1.265-.547.75-1 1.485-1.485 2.266-.516.828-1.328 2.156-1.578 2.469s-.547.687-.86.937a.88.88 0 0 1-.562.219c-.094 0-.203-.031-.266-.11-.03-.062-.093-.124-.062-.218s.063-.188.11-.281c.015-.063.062-.157.062-.203a.22.22 0 0 0-.031-.22c-.063-.093-.172-.155-.328-.155a.58.58 0 0 0-.375.109.82.82 0 0 0-.297.437c-.079.313-.047.61.109.844a.87.87 0 0 0 .672.297c.469 0 .969-.25 1.39-.578.5-.406 1.407-1.328 2.047-2.375h2.641l-.469 1.89a2 2 0 0 0-.093.594c.015.125.03.266.093.36.078.109.235.156.39.156.298 0 .61-.14.876-.297.453-.25.86-.547 1.25-.906l-.14-.203a5 5 0 0 1-.563.39.83.83 0 0 1-.469.172c-.094 0-.187-.015-.25-.094-.156-.203-.14-.484-.094-.78.157-.829.36-1.688.563-2.516l.86-3.47c.062-.218.108-.327.25-.421Zm-1.188.437L7.5-3.328H5.063c.5-.922 1-1.828 1.578-2.703.343-.5.672-1 1.14-1.375.235-.172.485-.297.719-.344Zm0 0"/><path id="bC" d="M6 0v-4.484C6-6.281 4.203-8.22 2.172-8.937c-.031-.016-.063-.032-.11-.032a.324.324 0 0 0-.312.313c0 .14.094.25.203.297 1.656.609 2.828 2.406 2.828 3.875V0Zm0 0"/><path id="bD" d="M6 0v-8.937H4.781V0Zm0 0"/><path id="bE" d="M9.031-8.969a.31.31 0 0 0-.203-.281C7.156-9.86 6-11.812 6-13.453v-4.469H4.781v4.469c0 1.765 1.438 3.594 3.172 4.484-1.734.906-3.172 2.735-3.172 4.485V0H6v-4.484c0-1.641 1.156-3.578 2.828-4.188a.33.33 0 0 0 .203-.297m0 0"/><path id="bF" d="M6-4.484V-8.97H4.781v4.485c0 1.468-1.172 3.28-2.828 3.89a.31.31 0 0 0-.203.282c0 .171.156.312.313.312.046 0 .078-.016.109-.031C4.203-.75 6-2.671 6-4.484m0 0"/><path id="bH" d="M7.453-.172a.245.245 0 0 0 0-.344L4.984-2.984l2.47-2.485c.093-.093.093-.25 0-.328-.079-.094-.235-.094-.329 0L4.656-3.328 2.172-5.797c-.094-.094-.25-.094-.328 0-.094.078-.094.234 0 .328l2.468 2.485L1.845-.516a.245.245 0 0 0 0 .344c.078.094.234.094.328 0l2.484-2.484L7.125-.172c.094.094.25.094.328 0m0 0"/><path id="aO" d="M7.969-4.125c0-2.531-1.719-4.422-3.657-4.422-1.984 0-3.671 1.922-3.671 4.422C.64-1.609 2.375.25 4.297.25c1.984 0 3.672-1.875 3.672-4.375m-1.032-.172C6.938-1.953 5.658-.5 4.313-.5c-1.39 0-2.64-1.5-2.64-3.797 0-2.203 1.297-3.516 2.625-3.516 1.375 0 2.64 1.344 2.64 3.516m0 0"/><path id="aP" d="m3.89-.344-.171-.703c-.422.375-.86.422-1.078.422-.532 0-.594-.562-.594-.984v-3h1.64v-.703h-1.64v-1.516h-.828v1.516h-1v.703h.969v3.203c0 .703.156 1.531.984 1.531.797 0 1.36-.281 1.719-.469m0 0"/><path id="aQ" d="M5.484-2.625c0-1.625-1.187-2.86-2.562-2.86-1.406 0-2.563 1.266-2.563 2.86 0 1.563 1.188 2.75 2.563 2.75 1.406 0 2.562-1.219 2.562-2.75m-.906-.125c0 1.469-.844 2.125-1.656 2.125-.86 0-1.656-.719-1.656-2.125 0-1.453.89-2.016 1.656-2.016.812 0 1.656.625 1.656 2.016m0 0"/><path id="aR" d="M4.703 0v-.734H2.984c-.14 0-.28.015-.421.015H1.547l3.11-4.125v-.468H.483v.703h2.953L.329-.484V0Zm0 0"/><path id="aS" d="M7.766-5.312H6.89l-.703 2.437c-.172.563-.516 1.688-.563 2.203-.047-.281-.234-1.078-.484-1.937l-.797-2.703H3.53L2.844-2.97c-.219.75-.5 1.781-.531 2.282h-.016c-.016-.235-.14-.86-.375-1.672l-.844-2.953H.172L1.766 0h.922c.453-1.5 1.156-3.781 1.218-4.61h.016c.015.485.265 1.344.344 1.626L5.109 0h1.063Zm0 0"/><path id="aT" d="M1.813 0v-5.312H.938V0Zm.078-6.797v-1.016H.859v1.016Zm0 0"/><path id="aU" d="M4.86-2.687c0-.516-.048-1.25-.423-1.876-.5-.828-1.328-.921-1.671-.921C1.469-5.484.39-4.25.39-2.687.39-1.11 1.547.124 2.92.124c.563 0 1.22-.156 1.876-.64 0-.047-.047-.438-.047-.438s-.031-.281-.031-.328c-.703.593-1.407.687-1.766.687-.922 0-1.703-.828-1.734-2.093Zm-.704-.641h-2.86c.204-.813.767-1.438 1.47-1.438.359 0 1.187.157 1.39 1.438m0 0"/><path id="aV" d="M3.797-4.625v-.797c-1.078 0-1.719.64-2.047 1.11V-5.36H.938V0h.875v-2.625c0-1.203.906-1.984 1.984-2m0 0"/><path id="aW" d="M4.86-.5c0-.031-.032-.406-.048-.453l-.015-.344a2.8 2.8 0 0 1-1.828.672c-1 0-1.64-.875-1.64-2.047 0-.984.484-2.078 1.671-2.078.797 0 1.14.203 1.656.547l.14-.781c-.702-.407-1.093-.5-1.796-.5-1.656 0-2.578 1.453-2.578 2.812C.422-1.14 1.516.125 2.953.125c.578 0 1.25-.156 1.906-.625m0 0"/><path id="aX" d="M4.797 0v-3.5c0-1.156-.828-1.984-1.938-1.984-.718 0-1.25.172-1.843.5l.078.78c.515-.374 1.062-.593 1.765-.593.547 0 1.032.453 1.032 1.313v.5c-.547.015-1.266.062-1.985.297C1.11-2.422.641-1.97.641-1.375c0 .531.312 1.5 1.328 1.5.656 0 1.5-.203 1.937-.562V0ZM3.89-1.61c0 .25 0 .532-.407.766-.312.203-.718.25-.906.25-.64 0-1.078-.343-1.078-.797 0-.812 1.656-.984 2.39-.984Zm0 0"/><path id="aY" d="M5.063 0v-8.297h-.891v3.485a2.65 2.65 0 0 0-1.688-.61c-1.14 0-2.062 1.219-2.062 2.766S1.297.125 2.437.125c.438 0 1.11-.156 1.704-.734V0ZM4.14-1.406c-.282.515-.703.812-1.22.812-.733 0-1.593-.562-1.593-2.047 0-1.593 1.016-2.062 1.703-2.062.469 0 .86.234 1.11.625Zm0 0"/><path id="aZ" d="m3.688-5.36-.485-.515-.828.719v-3.14H1.5v3.874L.328-3.375l.453.547.719-.656V0h.875v-4.234Zm0 0"/><path id="ba" d="M8.328 0v-3.594c0-.828-.219-1.828-1.61-1.828-1.015 0-1.577.703-1.765.969-.203-.766-.86-.969-1.484-.969-.985 0-1.5.625-1.703.875v-.812H.922V0h.906v-2.969c0-.797.313-1.734 1.188-1.734 1.093 0 1.156.75 1.156 1.187V0h.906v-2.969c0-.797.313-1.734 1.188-1.734 1.093 0 1.156.75 1.156 1.187V0Zm0 0"/><path id="bb" d="M5.063 0v-3.594c0-.734-.157-1.828-1.594-1.828-.672 0-1.25.297-1.703.875v-.812H.922V0h.906v-2.969c0-.75.281-1.734 1.188-1.734 1.109 0 1.14.766 1.14 1.187V0Zm0 0"/><path id="bc" d="M4.203-1.516c0-.609-.36-1-.406-1.046-.453-.47-.813-.532-1.531-.672-.438-.094-1.047-.203-1.047-.813 0-.734.843-.734 1-.734.625 0 1.125.14 1.656.437l.14-.765a3.9 3.9 0 0 0-1.687-.375c-.265 0-1.937 0-1.937 1.547 0 .53.297.89.468 1.062.438.36.735.422 1.438.563.39.093 1.078.234 1.078.859 0 .828-.922.828-1.094.828A3.12 3.12 0 0 1 .47-1.219l-.14.813c.046.031.859.531 1.968.531 1.547 0 1.906-.937 1.906-1.64m0 0"/><path id="bd" d="M5.172-5.312h-.89c-.548 1.421-1.47 3.765-1.516 4.625H2.75c-.062-.72-.687-2.282-.797-2.532L1.11-5.312H.172L2.39 0l-.422 1.094c-.266.593-.438.656-.657.656-.171 0-.546-.047-.921-.187l.078.78c.062.016.469.095.844.095.296 0 .843 0 1.359-1.313Zm0 0"/><path id="be" d="M2.14.703v-6.015h-.89v6.14c0 .781-.625.86-.875.86-.531 0-.86-.344-.875-.375l-.234.718c.375.235.859.406 1.406.406.75 0 1.469-.624 1.469-1.734m0-7.5v-1.016H1.11v1.016Zm0 0"/><path id="bf" d="M6.797-5.875c0-1.266-1.172-2.422-2.797-2.422H1.094V0h1.015v-3.453H4c1.656 0 2.797-1.188 2.797-2.422m-.953-.016c0 .938-.735 1.75-2.094 1.75H2.094v-3.484H3.75c1.406 0 2.094.828 2.094 1.734m0 0"/><path id="bg" d="M2.344-8.297h-.969l.094 6.235h.781Zm0 8.297v-.969h-.969V0Zm0 0"/><path id="bi" d="M5.484-2.625c0-1.625-1.187-2.86-2.562-2.86-1.406 0-2.563 1.266-2.563 2.86 0 1.563 1.188 2.75 2.563 2.75 1.406 0 2.562-1.219 2.562-2.75m-.906-.125c0 1.469-.844 2.125-1.656 2.125-.86 0-1.656-.719-1.656-2.125 0-1.453.89-2.016 1.656-2.016.812 0 1.656.625 1.656 2.016m-.016-5.547h-.906l-1.547 2h.72Zm0 0"/><path id="bj" d="M2.11-.016v-.953h-.97V0h.298L1.14 1.5h.468Zm0 0"/><path id="bk" d="M5.563-2.672c0-1.437-.75-2.75-1.875-2.75-.485 0-1.25.156-1.876.672v-.562H.939v7.625h.906V-.531c.406.36.906.656 1.547.656 1.156 0 2.172-1.172 2.172-2.797m-.907.016c0 1.203-.812 2.062-1.703 2.062-.328 0-.562-.125-.781-.297-.297-.25-.328-.468-.328-.656v-2.469a1.47 1.47 0 0 1 1.219-.671c.874 0 1.593.89 1.593 2.03m0 0"/><path id="bl" d="m5.672-4.703-.125-.719c-.234 0-1.047 0-1.828.39-.39-.327-.875-.39-1.11-.39-1.046 0-1.875.875-1.875 1.922 0 .422.125.828.391 1.188a1.64 1.64 0 0 0-.344 1.015c0 .453.156.75.297.906C.468 0 .328.516.328.844c0 .875 1.125 1.61 2.594 1.61 1.453 0 2.594-.704 2.594-1.61 0-1.688-1.938-1.688-2.422-1.688H2.078c-.172 0-.672 0-.672-.625 0-.265.047-.343.11-.437.203.14.593.343 1.078.343 1.031 0 1.875-.859 1.875-1.937a2.13 2.13 0 0 0-.36-1.156 7 7 0 0 1 .954-.063c.046 0 .312 0 .609.016M3.64-3.5c0 1.063-.672 1.281-1.032 1.281-.53 0-1.062-.36-1.062-1.265 0-1.063.672-1.282 1.047-1.282.531 0 1.047.36 1.047 1.266M4.688.844c0 .562-.829.953-1.766.953-.922 0-1.766-.375-1.766-.953 0-.047 0-.813.907-.813h1.046c.266 0 1.579 0 1.579.813m0 0"/><path id="bm" d="M1.813 0v-8.297H.938V0Zm0 0"/><path id="bn" d="m5.219 2.234-.157-.703c-.265.11-.546.172-.812.172-.328-.031-.61-.094-.625-.453C3.609.719 4.109.313 4.656 0h.14v-3.5c0-1.156-.827-1.984-1.937-1.984-.718 0-1.25.172-1.843.5l.078.78c.515-.374 1.062-.593 1.765-.593.547 0 1.032.453 1.032 1.313v.5c-.547.015-1.266.062-1.985.297C1.11-2.422.641-1.97.641-1.375c0 .531.312 1.5 1.328 1.5.656 0 1.5-.203 1.937-.562V0c-.594.328-1.078.906-1.031 1.516 0 .515.375 1.015 1.172 1.015.406 0 .703-.062 1.172-.297M3.89-1.609c0 .25 0 .53-.407.765-.312.203-.718.25-.906.25-.64 0-1.078-.343-1.078-.797 0-.812 1.656-.984 2.39-.984Zm0 0"/><path id="bo" d="M4.86-2.687c0-.516-.048-1.25-.423-1.876-.5-.828-1.328-.921-1.671-.921C1.469-5.484.39-4.25.39-2.687.39-1.141 1.5.078 2.844.124c-.531.344-.875.828-.828 1.39 0 .516.375 1.016 1.172 1.016.39 0 .703-.062 1.171-.297l-.156-.703c-.266.11-.547.172-.812.172-.328-.031-.625-.094-.625-.453-.016-.531.5-.969 1.047-1.281.328-.094.64-.25.984-.485 0-.046-.047-.437-.047-.437s-.031-.281-.031-.328c-.703.593-1.407.687-1.766.687-.922 0-1.703-.828-1.734-2.093Zm-.704-.641h-2.86c.204-.813.767-1.438 1.47-1.438.359 0 1.187.157 1.39 1.438m0 0"/><path id="bp" d="M7.094 0v-8.297h-.907V-.89h-.015l-.969-2-2.64-5.406h-1.47V0h.923v-7.406l.968 2L5.625 0Zm0 0"/><path id="br" d="M5.063 0v-5.312h-.907v3.421c0 .907-.625 1.36-1.406 1.36-.844 0-.922-.313-.922-.844v-3.937H.922v3.984c0 .86.265 1.453 1.25 1.453.344 0 1.281-.062 2.015-.719V0Zm0 0"/><path id="bs" d="M5.469 0 3.25-3.266l1.969-2.046h-1.11L1.813-2.906v-5.39H.938V0h.828v-1.719l.906-.953L4.5 0Zm0 0"/><path id="bv" d="M5.563-2.672c0-1.469-.782-2.75-1.891-2.75-.344 0-1.11.063-1.86.672v-3.547H.939V0h.906v-.531c.547.515 1.125.656 1.547.656 1.14 0 2.172-1.172 2.172-2.797m-.907 0c0 1.563-.968 2.078-1.703 2.078-.328 0-.562-.125-.781-.297-.281-.25-.328-.453-.328-.656V-4.03c.218-.328.64-.672 1.234-.672.719 0 1.578.547 1.578 2.031m0 0"/><path id="bw" d="M2.11 0v-.969h-.97V0Zm0 0"/><path id="by" d="M7.406 0 4.391-8.297H3.328L.328 0h.875l.875-2.422h3.375L6.328 0ZM5.203-3.094h-2.86l1.423-4.344Zm0 0"/><path id="bz" d="M7.75-4.078c0-2.328-1.578-4.219-3.594-4.219H1.094V0h3.062c2 0 3.594-1.812 3.594-4.078m-1-.016c0 2.188-1.328 3.422-2.86 3.422H2.095v-6.953H3.89c1.593 0 2.859 1.375 2.859 3.531m0 0"/><path id="bA" d="M5.063 0v-3.594c0-.734-.157-1.828-1.594-1.828-.828 0-1.375.469-1.656.813v-3.688H.922V0h.906v-2.969c0-.75.281-1.734 1.188-1.734 1.109 0 1.14.766 1.14 1.187V0Zm0 0"/><path id="bB" d="M4.531-1.766v-6.53h-1v6.483c0 .688-.344 1.329-1.39 1.329a1.96 1.96 0 0 1-1.485-.657L.484-.25c.704.36 1.375.5 2 .5 1.25 0 2.047-.734 2.047-2.016m0 0"/><path id="bI" d="M2.11 0v-8.297H1.077V0Zm0 0"/><path id="bJ" d="M5.063 0v-3.594c0-.734-.157-1.828-1.594-1.828-.672 0-1.25.297-1.703.875v-.812H.922V0h.906v-2.969c0-.75.281-1.734 1.188-1.734 1.109 0 1.14.766 1.14 1.187V0ZM4.64-8.297h-.907l-1.562 2h.719Zm0 0"/><path id="bK" d="M7.547 0 4.28-5.016l3.125-3.28H6.281L2.094-3.892v-4.406h-1V0h1v-2.703L3.64-4.328 6.453 0Zm0 0"/><path id="bL" d="M5.844-2.266c0-.765-.375-1.328-.625-1.625-.563-.593-1-.718-1.797-.921-.813-.204-1.11-.266-1.375-.516-.156-.172-.485-.469-.485-1 0-.734.657-1.438 1.72-1.438 1.015 0 1.546.391 1.984.766l.172-.953c-.485-.266-1.094-.594-2.157-.594-1.594 0-2.64 1.14-2.64 2.344 0 .844.515 1.39.578 1.453.593.61 1 .703 1.75.906 1.031.25 1.187.297 1.578.688.203.219.375.594.375 1.015 0 .829-.672 1.594-1.703 1.594a3.75 3.75 0 0 1-2.516-1l-.172.969A4.9 4.9 0 0 0 3.22.25C4.75.25 5.844-.937 5.844-2.266m-.328-8.093H4.203L2.11-8.906h1.063Zm0 0"/><path id="bM" d="M4.203-1.516c0-.609-.36-1-.406-1.046-.453-.47-.813-.532-1.531-.672-.438-.094-1.047-.203-1.047-.813 0-.734.843-.734 1-.734.625 0 1.125.14 1.656.437l.14-.765a3.9 3.9 0 0 0-1.687-.375c-.265 0-1.937 0-1.937 1.547 0 .53.297.89.468 1.062.438.36.735.422 1.438.563.39.093 1.078.234 1.078.859 0 .828-.922.828-1.094.828A3.12 3.12 0 0 1 .47-1.219l-.14.813c.046.031.859.531 1.968.531 1.547 0 1.906-.937 1.906-1.64m-.312-6.78h-.922l-1.547 2h.719Zm0 0"/><path id="bN" d="M4.86-.5c0-.031-.032-.406-.048-.453l-.015-.344a2.8 2.8 0 0 1-1.828.672c-1 0-1.64-.875-1.64-2.047 0-.984.484-2.078 1.671-2.078.797 0 1.14.203 1.656.547l.14-.781c-.702-.407-1.093-.5-1.796-.5-1.656 0-2.578 1.453-2.578 2.812C.422-1.14 1.516.125 2.953.125c.578 0 1.25-.156 1.906-.625M4.5-8.297h-.922l-1.547 2h.719Zm0 0"/><path id="bu" d="M4.344-5.125H2.25c-.312 0-.406-.016-.687-.031-.422-.047-.438-.094-.454-.235H.844L.563-3.687h.265c.016-.11.094-.641.219-.72.062-.046.719-.046.828-.046h1.75l-.844 1.047C1.75-2.031 1.656-.766 1.656-.296c0 .093 0 .452.375.452s.375-.36.375-.453v-.328c0-1.547.313-2.25.656-2.687l1.204-1.5c.078-.094.078-.11.078-.313m0 0"/><path id="bG" d="m5.266 0 .156-.812H3.297c-.14 0-.281.015-.422.015H1.594A77 77 0 0 1 4.25-2.922c1.047-.765 1.953-1.515 2.188-2.61.28-1.327-.375-2.546-1.954-2.546-1.296 0-2.125.844-2.687 1.953.266.484.266.5.344.656.578-1.281 1.14-1.875 2.03-1.875 1.032 0 1.516.813 1.298 1.828-.125.625-.516 1.313-1.485 2.11L.734-.75.578 0Zm0 0"/><path id="bS" d="M5.547 0v-.25h-.125c-.469 0-.516-.078-.594-.266L3.125-4.812c-.031-.11-.062-.157-.187-.157-.141 0-.157.047-.204.157L1.125-.734C1.063-.562.938-.25.313-.25V0c.234-.016.484-.031.718-.031.282 0 .797.031.844.031v-.25c-.312 0-.516-.14-.516-.328 0-.063.016-.078.047-.14l.328-.86H3.72l.406 1.016c0 .03.031.078.031.109 0 .203-.375.203-.562.203V0l1.031-.031c.328 0 .86.031.922.031M3.609-1.828H1.83l.89-2.266Zm0 0"/><path id="bT" d="M4.047 0v-.25c-.469 0-.516-.047-.516-.39v-4.204l-1.047.078v.25c.47 0 .516.063.516.391v1.453a1.37 1.37 0 0 0-.969-.406c-.937 0-1.703.703-1.703 1.578S1.062.063 1.938.063c.578 0 .921-.297 1.03-.422v.422ZM2.969-.734c-.172.328-.531.609-.985.609-.39 0-.671-.234-.812-.437-.14-.204-.219-.485-.219-.922 0-.172 0-.688.281-1.016.282-.312.625-.375.829-.375.328 0 .64.156.828.406.078.11.078.11.078.25Zm0 0"/><path id="bU" d="M5.469-2.75V-3c-.188.016-.313.031-.5.031-.219 0-.485-.015-.688-.031v.25c.235 0 .36.14.36.297 0 .062 0 .078-.047.172L3.922-.547l-.75-1.906a.3.3 0 0 1-.031-.125c0-.156.172-.172.375-.172V-3c-.25.016-.5.031-.75.031-.203 0-.422-.015-.625-.031v.25c.172 0 .312 0 .406.047.094.078.156.312.156.312s-.015.063-.031.079L2.016-.641l-.703-1.812c-.032-.094-.032-.094-.032-.125 0-.172.25-.172.375-.172V-3s-.515.031-.797.031C.641-2.969.422-2.984.203-3v.25c.281 0 .438 0 .5.203l.969 2.453c.047.11.062.157.203.157.125 0 .14-.047.172-.141l.797-1.984.765 1.968c.047.094.063.157.204.157.124 0 .14-.047.187-.157l.875-2.234c.14-.344.375-.422.594-.422m0 0"/><path id="bV" d="M3.266-.844c0-.015-.016-.094-.125-.094-.094 0-.11.047-.125.11-.22.562-.75.672-1 .672-.328 0-.641-.14-.844-.406-.266-.329-.266-.75-.266-1.032h2.157c.156 0 .203 0 .203-.14 0-.625-.344-1.375-1.391-1.375a1.59 1.59 0 0 0-1.61 1.578c0 .89.782 1.594 1.704 1.594.937 0 1.297-.75 1.297-.907m-.485-.922H.906c.078-.984.703-1.14.969-1.14.86 0 .89.969.906 1.14m0 0"/><path id="bW" d="M4.11 0v-.25c-.454 0-.516 0-.516-.297v-1.562c0-.61-.297-.97-1.047-.97-.578 0-.938.313-1.14.688v-.687L.374-3v.25c.469 0 .531.047.531.39v1.813c0 .297-.078.297-.531.297V0s.5-.031.797-.031c.25 0 .734.031.797.031v-.25c-.453 0-.516 0-.516-.297v-1.265c0-.72.578-1.063 1.031-1.063.485 0 .547.375.547.734v1.594c0 .297-.062.297-.515.297V0s.5-.031.797-.031c.25 0 .734.031.796.031m0 0"/><path id="bX" d="M2.61-.875v-.39h-.235v.374c0 .485-.219.735-.5.735-.469 0-.469-.578-.469-.703V-2.75h1.078V-3H1.406v-1.281h-.25c0 .625-.281 1.312-.953 1.328v.203h.64v1.875c0 .781.595.938.985.938.469 0 .781-.391.781-.938m0 0"/><path id="bY" d="M3.516-1.266H3.28c-.015.157-.094.563-.187.625-.047.047-.578.047-.688.047H1.125c.734-.64.984-.843 1.39-1.172.516-.406 1-.843 1-1.5 0-.843-.734-1.359-1.624-1.359-.86 0-1.453.61-1.453 1.25 0 .344.296.39.375.39.156 0 .359-.124.359-.374 0-.125-.047-.375-.406-.375.218-.485.687-.641 1.015-.641.703 0 1.063.547 1.063 1.11 0 .609-.438 1.078-.656 1.328L.516-.266C.437-.203.437-.187.437 0h2.876Zm0 0"/><path id="bZ" d="M3.594-2.219c0-.765-.094-1.328-.406-1.812-.22-.313-.657-.594-1.204-.594C.36-4.625.36-2.719.36-2.219s0 2.36 1.625 2.36c1.61 0 1.61-1.86 1.61-2.36m-.625-.094c0 .516 0 1.032-.094 1.47-.14.64-.61.78-.89.78-.329 0-.75-.187-.891-.75C1-1.219 1-1.796 1-2.312c0-.515 0-1.046.094-1.421.156-.547.593-.703.89-.703.375 0 .735.234.86.64.11.375.125.875.125 1.485m0 0"/><path id="ca" d="M3.516-1.406c0-.782-.594-1.5-1.453-1.5-.313 0-.672.062-.985.328v-1.313c.36.094.563.094.672.094.922 0 1.469-.625 1.469-.734 0-.078-.047-.094-.078-.094 0 0-.032 0-.063.016-.172.062-.531.203-1.047.203-.203 0-.562-.016-1.015-.188-.079-.031-.094-.031-.094-.031-.094 0-.094.078-.094.188v2.046c0 .125 0 .204.11.204.062 0 .078 0 .14-.094.297-.375.734-.438.969-.438.422 0 .61.328.64.39.126.235.172.5.172.907 0 .203 0 .61-.218.922a.98.98 0 0 1-.813.422c-.453 0-.922-.25-1.094-.719.266.016.407-.156.407-.344 0-.296-.266-.343-.36-.343 0 0-.343 0-.343.375 0 .625.578 1.25 1.406 1.25.89 0 1.672-.657 1.672-1.547m0 0"/><path id="cb" d="M7.813-1.75v-.203H.109v.203Zm0 0"/><path id="cc" d="M3.578-2.297c0-1.719-.765-2.328-1.578-2.328a1.55 1.55 0 0 0-1.11.422c-.234.234-.515.5-.515 1.125 0 .89.703 1.547 1.516 1.547.562 0 .859-.375 1.015-.688v.14c0 1.735-.844 2-1.265 2-.157 0-.532-.015-.72-.233a.315.315 0 0 0 .313-.329.32.32 0 0 0-.328-.328c-.203 0-.328.14-.328.344 0 .469.39.766 1.063.766 1 0 1.937-.938 1.937-2.438M2.891-3c0 .906-.516 1.266-.953 1.266-.282 0-.532-.079-.735-.407-.156-.25-.156-.546-.156-.937 0-.406 0-.672.203-.953.172-.25.39-.39.75-.39s.578.218.688.405c.187.282.203.782.203 1.016m0 0"/><path id="cd" d="M2.516 0v-.25h-.172c-.578 0-.578-.078-.578-.328v-3.61c0-.234 0-.328.578-.328h.172v-.25l-1.078.032-1.079-.032v.25h.172c.578 0 .578.094.578.329v3.609c0 .25 0 .328-.578.328H.36V0l1.079-.031Zm0 0"/><path id="ce" d="M3.578-1.422c0-.89-.703-1.547-1.515-1.547-.563 0-.86.375-1.016.688 0-.563.047-1.078.312-1.516.235-.375.61-.625 1.063-.625.203 0 .484.047.625.234-.172.016-.328.141-.328.344a.32.32 0 0 0 .328.328c.219 0 .344-.14.344-.343 0-.407-.297-.766-.985-.766-1 0-2.031.922-2.031 2.422C.375-.406 1.219.14 2 .14c.844 0 1.578-.657 1.578-1.563m-.672 0c0 .39 0 .688-.187.969A.82.82 0 0 1 2-.078c-.36 0-.625-.203-.781-.516-.094-.203-.157-.562-.157-.968 0-.688.407-1.204.97-1.204.312 0 .53.125.702.375.172.266.172.563.172.97m0 0"/><path id="cf" d="M2.016 1.734v-.328h-.72V-4.89h.72v-.328H.953v6.953Zm0 0"/><path id="cg" d="M3.297 0v-.25H3.03c-.703 0-.703-.094-.703-.328v-3.86c0-.187 0-.187-.203-.187-.453.438-1.078.438-1.36.438v.25c.157 0 .626 0 1-.188v3.547c0 .234 0 .328-.687.328H.812V0l1.235-.031Zm0 0"/><path id="ch" d="M1.531-.39a.403.403 0 0 0-.406-.407.4.4 0 0 0-.406.39c0 .25.203.407.406.407a.4.4 0 0 0 .406-.39m0 0"/><path id="ci" d="M1.297 1.734v-6.953H.219v.328h.734v6.297H.22v.328Zm0 0"/><path id="cj" d="M3.578-1.172c0-.469-.265-.86-.672-1.094l-.437-.25c.547-.265.89-.593.89-1.078 0-.672-.703-1.031-1.375-1.031-.765 0-1.39.5-1.39 1.156 0 .328.156.563.281.703.125.157.172.188.578.422-.39.172-1.078.547-1.078 1.281 0 .766.797 1.204 1.594 1.204.89 0 1.61-.563 1.61-1.313M3-3.594c0 .625-.734.938-.734.938s-.032 0-.079-.031l-.843-.485c-.188-.11-.375-.297-.375-.562 0-.438.5-.688 1-.688.547 0 1.031.344 1.031.828m.156 2.657c0 .53-.578.859-1.172.859-.64 0-1.187-.422-1.187-.984 0-.516.375-.922.875-1.141.39.219.406.219.969.547.172.11.515.312.515.718m0 0"/><path id="ck" d="M4.563 0v-.437H3.266v-5.157c0-.187 0-.297-.266-.297-.11 0-.125 0-.203.063-.688.516-1.656.516-1.828.516H.797v.437h.172a4.2 4.2 0 0 0 1.203-.172v4.61H.89V0c.343-.031 1.422-.031 1.828-.031.422 0 1.484 0 1.844.031m0 0"/><path id="cl" d="M4.86-2.953c0-.469-.032-1.39-.485-2.094-.297-.437-.828-.844-1.719-.844-1.281 0-2.218.72-2.218 1.938 0 1.125.765 1.937 2.093 1.937.406 0 .781-.203 1.063-.687v.172c0 .578-.063 1.156-.235 1.531-.109.234-.468.703-1.171.703-.079 0-.454 0-.735-.187a.55.55 0 0 0 .422-.563c0-.375-.281-.578-.578-.578-.25 0-.594.14-.594.594 0 .61.469 1.14 1.5 1.14 1.25 0 2.656-.796 2.656-3.062m-1.266-.89c0 .406-.172 1.452-1.031 1.452-.86 0-.86-.656-.86-1.53 0-.876 0-1.61.984-1.61.563 0 .766.515.797.593.11.297.11.782.11 1.094m0 0"/><path id="cm" d="M4.766-2.016h-.453c-.016.125-.094.766-.235.829-.11.046-.781.046-.937.046H1.859c.485-.39 1.016-.812 1.47-1.125.75-.53 1.437-1.015 1.437-1.89 0-1.047-.953-1.735-2.25-1.735-1.11 0-1.985.532-1.985 1.36 0 .468.36.687.672.687a.65.65 0 0 0 .656-.672c0-.203-.078-.53-.468-.64.312-.25.718-.282.89-.282.735 0 1.203.547 1.203 1.282 0 .656-.375 1.234-.859 1.718l-2 1.985c-.094.094-.094.11-.094.281V0H4.5Zm0 0"/><clipPath id="b"><path d="M.535.266h6.883v9.636H.535Zm0 0"/></clipPath><clipPath id="a"><path d="M0 0h8v10H0z"/></clipPath><clipPath id="bO"><path d="M15.023 568.348H403v11.336H15.023Zm0 0"/></clipPath><linearGradient id="bP" x1="0" x2="388.063" y1="0" y2="0" gradientTransform="matrix(1 0 0 -1 15.024 579.685)" gradientUnits="userSpaceOnUse"><stop offset="0" stop-color="#a6e5ff"/><stop offset=".25" stop-color="#a6e5ff"/><stop offset=".313" stop-color="#a6e5ff"/><stop offset=".344" stop-color="#a6e5ff"/><stop offset=".352" stop-color="#a6e5ff"/><stop offset=".355" stop-color="#9fe4ff"/><stop offset=".359" stop-color="#99e2ff"/><stop offset=".363" stop-color="#89ddff"/><stop offset=".367" stop-color="#78d7ff"/><stop offset=".371" stop-color="#68d2ff"/><stop offset=".375" stop-color="#58cdff"/><stop offset=".379" stop-color="#47c8ff"/><stop offset=".383" stop-color="#37c3ff"/><stop offset=".387" stop-color="#26beff"/><stop offset=".391" stop-color="#16b9ff"/><stop offset=".395" stop-color="#0bb6ff"/><stop offset=".398" stop-color="#00b2ff"/><stop offset=".406" stop-color="#00b2ff"/><stop offset=".438" stop-color="#00b2ff"/><stop offset=".5" stop-color="#00b2ff"/><stop offset=".563" stop-color="#00b2ff"/><stop offset=".566" stop-color="#0cb6ff"/><stop offset=".57" stop-color="#18baff"/><stop offset=".574" stop-color="#29bfff"/><stop offset=".578" stop-color="#39c4ff"/><stop offset=".582" stop-color="#49c9ff"/><stop offset=".586" stop-color="#5aceff"/><stop offset=".59" stop-color="#6ad3ff"/><stop offset=".594" stop-color="#7ad8ff"/><stop offset=".598" stop-color="#8bddff"/><stop offset=".602" stop-color="#9be2ff"/><stop offset=".605" stop-color="#a0e4ff"/><stop offset=".609" stop-color="#a6e5ff"/><stop offset=".625" stop-color="#a6e5ff"/><stop offset=".75" stop-color="#a6e5ff"/><stop offset="1" stop-color="#a6e5ff"/></linearGradient><g id="c" clip-path="url(#a)"><g clip-path="url(#b)"><path fill-rule="evenodd" d="m3.977 7.836 3.441 2.066V1.645c0-.762-.617-1.38-1.375-1.38H1.914C1.152.266.535.884.535 1.646v8.257Zm-2.754.851 2.754-1.652L6.73 8.687V1.646a.69.69 0 0 0-.687-.692H1.914a.69.69 0 0 0-.691.692Zm0 0"/></g></g></defs><use xlink:href="#c" transform="translate(9 27)"/><use xlink:href="#d" x="17.008" y="23.315"/><use xlink:href="#e" x="20.884" y="23.315"/><use xlink:href="#f" x="26.303" y="23.315"/><use xlink:href="#g" x="30.179" y="23.315"/><use xlink:href="#e" x="36.266" y="23.315"/><use xlink:href="#h" x="41.686" y="23.315"/><use xlink:href="#i" x="46.657" y="23.315"/><use xlink:href="#e" x="52.745" y="23.315"/><use xlink:href="#j" x="57.929" y="25.775"/><use xlink:href="#k" x="384.039" y="23.315"/><use xlink:href="#l" x="390.168" y="23.315"/><use xlink:href="#m" x="392.79" y="23.315"/><use xlink:href="#n" x="396.727" y="23.315"/><use xlink:href="#o" x="67.478" y="34.908"/><use xlink:href="#p" x="76.97" y="34.908"/><use xlink:href="#q" x="81.8" y="34.908"/><use xlink:href="#r" x="92.763" y="34.908"/><use xlink:href="#s" x="98.453" y="34.908"/><use xlink:href="#t" x="107.348" y="34.908"/><use xlink:href="#u" x="110.408" y="34.908"/><use xlink:href="#v" x="116.517" y="34.908"/><use xlink:href="#w" x="120.965" y="34.908"/><use xlink:href="#t" x="126.811" y="34.908"/><use xlink:href="#x" x="129.871" y="34.908"/><use xlink:href="#y" x="136.148" y="34.908"/><use xlink:href="#z" x="142.854" y="34.908"/><use xlink:href="#u" x="147.038" y="34.908"/><use xlink:href="#A" x="153.147" y="34.908"/><use xlink:href="#B" x="167.9" y="34.908"/><use xlink:href="#x" x="174.607" y="34.908"/><use xlink:href="#C" x="180.883" y="34.908"/><use xlink:href="#r" x="185.928" y="34.908"/><use xlink:href="#D" x="191.619" y="34.908"/><use xlink:href="#A" x="197.596" y="34.908"/><use xlink:href="#E" x="212.349" y="34.908"/><use xlink:href="#u" x="215.768" y="34.908"/><use xlink:href="#C" x="221.877" y="34.908"/><use xlink:href="#p" x="226.922" y="34.908"/><use xlink:href="#F" x="236.139" y="34.908"/><use xlink:href="#x" x="244.173" y="34.908"/><use xlink:href="#B" x="250.449" y="34.908"/><use xlink:href="#G" x="266.125" y="34.908"/><use xlink:href="#H" x="269.711" y="34.908"/><use xlink:href="#I" x="275.871" y="34.908"/><use xlink:href="#I" x="278.704" y="34.908"/><use xlink:href="#I" x="281.538" y="34.908"/><use xlink:href="#J" x="287.186" y="34.908"/><use xlink:href="#K" x="293.991" y="34.908"/><use xlink:href="#L" x="298.752" y="34.908"/><use xlink:href="#M" x="306.257" y="34.908"/><use xlink:href="#L" x="311.376" y="34.908"/><use xlink:href="#N" x="315.806" y="34.908"/><use xlink:href="#O" x="318.002" y="34.908"/><use xlink:href="#P" x="322.611" y="34.908"/><use xlink:href="#O" x="329.927" y="34.908"/><use xlink:href="#Q" x="334.536" y="34.908"/><use xlink:href="#L" x="339.297" y="34.908"/><use xlink:href="#R" x="343.726" y="34.908"/><path fill="none" stroke="#000" stroke-miterlimit="10" stroke-width=".398" d="M17.008 39.293h384.094"/><use xlink:href="#S" x="399.042" y="192.792"/><use xlink:href="#T" x="399.042" y="187.03"/><use xlink:href="#T" x="399.042" y="183.268"/><use xlink:href="#U" x="399.042" y="179.506"/><use xlink:href="#V" x="399.042" y="172.453"/><use xlink:href="#U" x="399.042" y="170.101"/><use xlink:href="#W" x="399.042" y="163.048"/><use xlink:href="#X" x="399.042" y="159.709"/><use xlink:href="#Y" x="399.042" y="154.767"/><use xlink:href="#T" x="399.042" y="151.005"/><use xlink:href="#T" x="399.042" y="147.243"/><use xlink:href="#Z" x="399.042" y="143.721"/><use xlink:href="#aa" x="399.042" y="139.018"/><use xlink:href="#U" x="399.042" y="136.667"/><use xlink:href="#ab" x="399.042" y="129.614"/><use xlink:href="#U" x="399.042" y="124.911"/><use xlink:href="#W" x="399.042" y="120.679"/><use xlink:href="#ac" x="399.042" y="117.34"/><use xlink:href="#ad" x="399.042" y="114.048"/><use xlink:href="#U" x="399.042" y="110.749"/><use xlink:href="#X" x="399.042" y="103.695"/><use xlink:href="#ae" x="399.042" y="98.993"/><use xlink:href="#af" x="399.042" y="96.642"/><use xlink:href="#ag" x="399.042" y="92.41"/><use xlink:href="#ah" x="399.042" y="88.178"/><use xlink:href="#ai" x="399.042" y="83.946"/><use xlink:href="#aj" x="399.042" y="78.771"/><use xlink:href="#ak" x="399.042" y="75.671"/><use xlink:href="#al" x="399.042" y="70.929"/><use xlink:href="#ai" x="399.042" y="67.828"/><use xlink:href="#ak" x="399.042" y="62.656"/><use xlink:href="#am" x="399.042" y="57.85"/><use xlink:href="#an" x="399.042" y="53.873"/><use xlink:href="#ak" x="399.042" y="49.003"/><use xlink:href="#ao" x="401.011" y="44.257"/><use xlink:href="#ap" x="403.164" y="40.487"/><use xlink:href="#aq" x="403.164" y="46.831"/><use xlink:href="#ar" x="403.164" y="53.406"/><use xlink:href="#as" x="403.164" y="57.638"/><use xlink:href="#at" x="403.164" y="62.11"/><use xlink:href="#au" x="403.164" y="66.812"/><use xlink:href="#as" x="403.164" y="71.984"/><use xlink:href="#at" x="403.164" y="76.456"/><use xlink:href="#aq" x="403.164" y="81.158"/><use xlink:href="#av" x="403.164" y="87.741"/><use xlink:href="#at" x="403.164" y="92.212"/><use xlink:href="#aq" x="403.164" y="96.915"/><use xlink:href="#aw" x="403.164" y="100.676"/><use xlink:href="#ax" x="403.164" y="104.016"/><use xlink:href="#ay" x="403.164" y="107.308"/><use xlink:href="#az" x="403.164" y="110.607"/><use xlink:href="#aq" x="403.164" y="117.653"/><use xlink:href="#aw" x="403.164" y="121.414"/><use xlink:href="#aA" x="403.164" y="124.754"/><use xlink:href="#aq" x="403.164" y="129.695"/><use xlink:href="#aB" x="403.164" y="133.457"/><use xlink:href="#az" x="403.164" y="136.055"/><use xlink:href="#aq" x="403.164" y="143.109"/><use xlink:href="#aw" x="403.164" y="146.871"/><use xlink:href="#aq" x="403.164" y="153.031"/><use xlink:href="#aC" x="403.164" y="156.793"/><use xlink:href="#aD" x="403.164" y="161.966"/><use xlink:href="#aq" x="403.164" y="166.668"/><use xlink:href="#aE" x="403.164" y="170.43"/><use xlink:href="#az" x="403.164" y="175.132"/><use xlink:href="#ay" x="403.164" y="179.364"/><use xlink:href="#aA" x="403.164" y="185.485"/><use xlink:href="#aF" x="403.164" y="190.188"/><use xlink:href="#aG" x="403.164" y="192.539"/><use xlink:href="#aG" x="403.164" y="196.771"/><use xlink:href="#aH" x="403.164" y="201.003"/><use xlink:href="#aI" x="403.164" y="205.235"/><use xlink:href="#aJ" x="403.164" y="210.409"/><use xlink:href="#aK" x="403.164" y="213.509"/><use xlink:href="#aL" x="403.164" y="218.251"/><use xlink:href="#aM" x="95.941" y="61.174"/><use xlink:href="#aN" x="112.452" y="51.089" fill="red"/><use xlink:href="#aO" x="112.452" y="61.174"/><use xlink:href="#aP" x="121.084" y="61.174"/><use xlink:href="#aQ" x="125.316" y="61.174"/><use xlink:href="#aR" x="135.071" y="61.174"/><use xlink:href="#aS" x="140.152" y="61.174"/><use xlink:href="#aT" x="148.114" y="61.174"/><use xlink:href="#aU" x="150.863" y="61.174"/><use xlink:href="#aV" x="156.064" y="61.174"/><use xlink:href="#aW" x="160.045" y="61.174"/><use xlink:href="#aT" x="165.245" y="61.174"/><use xlink:href="#aX" x="167.995" y="61.174"/><use xlink:href="#aY" x="173.602" y="61.174"/><use xlink:href="#aZ" x="179.603" y="61.174"/><use xlink:href="#aU" x="183.034" y="61.174"/><use xlink:href="#ba" x="188.235" y="61.174"/><use xlink:href="#bb" x="201.385" y="61.174"/><use xlink:href="#aX" x="207.387" y="61.174"/><use xlink:href="#bc" x="212.994" y="61.174"/><use xlink:href="#aR" x="217.477" y="61.174"/><use xlink:href="#bd" x="222.558" y="61.174"/><use xlink:href="#ba" x="227.913" y="61.174"/><use xlink:href="#be" x="241.064" y="61.174"/><use xlink:href="#aU" x="244.148" y="61.174"/><use xlink:href="#bc" x="249.349" y="61.174"/><use xlink:href="#aP" x="253.832" y="61.174"/><use xlink:href="#bf" x="261.961" y="61.174"/><use xlink:href="#aX" x="269.086" y="61.174"/><use xlink:href="#bb" x="274.693" y="61.174"/><use xlink:href="#bg" x="280.695" y="61.174"/><use xlink:href="#bh" x="112.452" y="72.733" fill="red"/><use xlink:href="#aO" x="112.452" y="82.818"/><use xlink:href="#aP" x="121.084" y="82.818"/><use xlink:href="#aS" x="124.993" y="82.818"/><use xlink:href="#bi" x="132.632" y="82.818"/><use xlink:href="#aV" x="138.167" y="82.818"/><use xlink:href="#aR" x="142.148" y="82.818"/><use xlink:href="#aW" x="147.229" y="82.818"/><use xlink:href="#aT" x="152.429" y="82.818"/><use xlink:href="#aU" x="155.179" y="82.818"/><use xlink:href="#aQ" x="164.277" y="82.818"/><use xlink:href="#aW" x="170.458" y="82.818"/><use xlink:href="#aR" x="175.658" y="82.818"/><use xlink:href="#bd" x="180.739" y="82.818"/><use xlink:href="#bj" x="185.115" y="82.818"/><use xlink:href="#bk" x="192.264" y="82.818"/><use xlink:href="#aV" x="197.942" y="82.818"/><use xlink:href="#aR" x="201.923" y="82.818"/><use xlink:href="#aU" x="207.004" y="82.818"/><use xlink:href="#bl" x="212.205" y="82.818"/><use xlink:href="#bm" x="218.062" y="82.818"/><use xlink:href="#bn" x="220.812" y="82.818"/><use xlink:href="#aY" x="226.419" y="82.818"/><use xlink:href="#aX" x="232.42" y="82.818"/><use xlink:href="#be" x="238.027" y="82.818"/><use xlink:href="#aW" x="241.112" y="82.818"/><use xlink:href="#aT" x="246.312" y="82.818"/><use xlink:href="#aU" x="249.062" y="82.818"/><use xlink:href="#bc" x="258.16" y="82.818"/><use xlink:href="#aT" x="262.643" y="82.818"/><use xlink:href="#bo" x="265.392" y="82.818"/><use xlink:href="#aS" x="274.49" y="82.818"/><use xlink:href="#bp" x="286.349" y="82.818"/><use xlink:href="#aT" x="294.551" y="82.818"/><use xlink:href="#ba" x="297.3" y="82.818"/><use xlink:href="#bq" x="112.452" y="94.376" fill="red"/><use xlink:href="#aT" x="112.452" y="104.462"/><use xlink:href="#br" x="119.099" y="104.462"/><use xlink:href="#aW" x="125.1" y="104.462"/><use xlink:href="#aR" x="130.301" y="104.462"/><use xlink:href="#aW" x="135.382" y="104.462"/><use xlink:href="#aT" x="140.582" y="104.462"/><use xlink:href="#aU" x="143.332" y="104.462"/><use xlink:href="#bc" x="152.43" y="104.462"/><use xlink:href="#aT" x="156.913" y="104.462"/><use xlink:href="#bo" x="159.662" y="104.462"/><use xlink:href="#bj" x="164.863" y="104.462"/><use xlink:href="#be" x="172.012" y="104.462"/><use xlink:href="#aX" x="175.096" y="104.462"/><use xlink:href="#bs" x="180.703" y="104.462"/><use xlink:href="#aT" x="186.382" y="104.462"/><use xlink:href="#aU" x="189.131" y="104.462"/><use xlink:href="#be" x="198.229" y="104.462"/><use xlink:href="#aU" x="201.313" y="104.462"/><use xlink:href="#bc" x="206.514" y="104.462"/><use xlink:href="#aP" x="210.997" y="104.462"/><use xlink:href="#aS" x="219.126" y="104.462"/><use xlink:href="#aX" x="226.766" y="104.462"/><use xlink:href="#bc" x="232.373" y="104.462"/><use xlink:href="#aR" x="236.856" y="104.462"/><use xlink:href="#aU" x="241.937" y="104.462"/><use xlink:href="#aQ" x="251.034" y="104.462"/><use xlink:href="#bt" x="256.894" y="94.376" fill="red"/><use xlink:href="#bu" x="267.139" y="90.037" fill="red"/><use xlink:href="#bv" x="256.894" y="104.462"/><use xlink:href="#bm" x="262.895" y="104.462"/><use xlink:href="#aT" x="265.645" y="104.462"/><use xlink:href="#aW" x="268.395" y="104.462"/><use xlink:href="#aR" x="273.595" y="104.462"/><use xlink:href="#aU" x="278.676" y="104.462"/><use xlink:href="#bw" x="283.876" y="104.462"/><use xlink:href="#bx" x="92.582" y="129.094"/><use xlink:href="#by" x="112.452" y="129.094"/><use xlink:href="#bm" x="120.187" y="129.094"/><use xlink:href="#bm" x="122.937" y="129.094"/><use xlink:href="#aU" x="125.686" y="129.094"/><use xlink:href="#aN" x="130.886" y="119.009" fill="red"/><use xlink:href="#bm" x="130.886" y="129.094"/><use xlink:href="#br" x="133.636" y="129.094"/><use xlink:href="#be" x="139.637" y="129.094"/><use xlink:href="#aX" x="142.721" y="129.094"/><use xlink:href="#bj" x="148.328" y="129.094"/><use xlink:href="#aX" x="155.477" y="129.094"/><use xlink:href="#bm" x="161.084" y="129.094"/><use xlink:href="#bm" x="163.834" y="129.094"/><use xlink:href="#aU" x="166.584" y="129.094"/><use xlink:href="#bm" x="171.784" y="129.094"/><use xlink:href="#br" x="174.534" y="129.094"/><use xlink:href="#be" x="180.535" y="129.094"/><use xlink:href="#aX" x="183.62" y="129.094"/><use xlink:href="#bj" x="189.226" y="129.094"/><use xlink:href="#aX" x="196.376" y="129.094"/><use xlink:href="#bm" x="201.982" y="129.094"/><use xlink:href="#bm" x="204.732" y="129.094"/><use xlink:href="#aU" x="207.482" y="129.094"/><use xlink:href="#bm" x="212.682" y="129.094"/><use xlink:href="#br" x="215.432" y="129.094"/><use xlink:href="#be" x="221.433" y="129.094"/><use xlink:href="#aX" x="224.518" y="129.094"/><use xlink:href="#bw" x="230.124" y="129.094"/><use xlink:href="#aM" x="95.941" y="150.738"/><use xlink:href="#bq" x="112.452" y="140.652" fill="red"/><use xlink:href="#by" x="112.452" y="150.738"/><use xlink:href="#bm" x="120.187" y="150.738"/><use xlink:href="#bm" x="122.937" y="150.738"/><use xlink:href="#aU" x="125.686" y="150.738"/><use xlink:href="#bm" x="130.887" y="150.738"/><use xlink:href="#br" x="133.636" y="150.738"/><use xlink:href="#be" x="139.638" y="150.738"/><use xlink:href="#aX" x="142.722" y="150.738"/><use xlink:href="#bj" x="148.329" y="150.738"/><use xlink:href="#aX" x="155.478" y="150.738"/><use xlink:href="#bm" x="161.085" y="150.738"/><use xlink:href="#bm" x="163.835" y="150.738"/><use xlink:href="#aU" x="166.584" y="150.738"/><use xlink:href="#bm" x="171.785" y="150.738"/><use xlink:href="#br" x="174.534" y="150.738"/><use xlink:href="#be" x="180.536" y="150.738"/><use xlink:href="#aX" x="183.62" y="150.738"/><use xlink:href="#bj" x="189.227" y="150.738"/><use xlink:href="#aX" x="196.376" y="150.738"/><use xlink:href="#bm" x="201.983" y="150.738"/><use xlink:href="#bm" x="204.733" y="150.738"/><use xlink:href="#aU" x="207.482" y="150.738"/><use xlink:href="#bm" x="212.683" y="150.738"/><use xlink:href="#br" x="215.432" y="150.738"/><use xlink:href="#be" x="221.434" y="150.738"/><use xlink:href="#aX" x="224.518" y="150.738"/><use xlink:href="#bw" x="230.125" y="150.738"/><use xlink:href="#bx" x="92.582" y="172.381"/><use xlink:href="#bt" x="112.452" y="162.296" fill="red"/><use xlink:href="#bu" x="122.697" y="157.956" fill="red"/><use xlink:href="#bz" x="112.452" y="172.381"/><use xlink:href="#aX" x="120.868" y="172.381"/><use xlink:href="#be" x="126.475" y="172.381"/><use xlink:href="#aW" x="129.56" y="172.381"/><use xlink:href="#aT" x="134.76" y="172.381"/><use xlink:href="#aU" x="137.51" y="172.381"/><use xlink:href="#aW" x="146.607" y="172.381"/><use xlink:href="#bA" x="151.808" y="172.381"/><use xlink:href="#aS" x="157.809" y="172.381"/><use xlink:href="#aX" x="165.449" y="172.381"/><use xlink:href="#aZ" x="171.055" y="172.381"/><use xlink:href="#bo" x="174.486" y="172.381"/><use xlink:href="#bB" x="183.584" y="172.381"/><use xlink:href="#aU" x="189.072" y="172.381"/><use xlink:href="#bl" x="194.272" y="172.381"/><use xlink:href="#aQ" x="200.13" y="172.381"/><use xlink:href="#bz" x="209.885" y="172.381"/><use xlink:href="#br" x="218.302" y="172.381"/><use xlink:href="#aW" x="224.303" y="172.381"/><use xlink:href="#bA" x="229.503" y="172.381"/><use xlink:href="#aQ" x="235.505" y="172.381"/><use xlink:href="#aS" x="241.04" y="172.381"/><use xlink:href="#aT" x="249.002" y="172.381"/><use xlink:href="#bw" x="251.752" y="172.381"/><use xlink:href="#bz" x="112.452" y="194.025"/><use xlink:href="#aX" x="120.868" y="194.025"/><use xlink:href="#be" x="126.475" y="194.025"/><use xlink:href="#aW" x="129.56" y="194.025"/><use xlink:href="#aT" x="134.76" y="194.025"/><use xlink:href="#aU" x="137.51" y="194.025"/><use xlink:href="#aW" x="146.607" y="194.025"/><use xlink:href="#bA" x="151.808" y="194.025"/><use xlink:href="#aS" x="157.809" y="194.025"/><use xlink:href="#aX" x="165.449" y="194.025"/><use xlink:href="#aZ" x="171.055" y="194.025"/><use xlink:href="#bo" x="174.486" y="194.025"/><use xlink:href="#bB" x="183.584" y="194.025"/><use xlink:href="#aU" x="189.072" y="194.025"/><use xlink:href="#bl" x="194.272" y="194.025"/><use xlink:href="#aQ" x="200.13" y="194.025"/><use xlink:href="#bz" x="209.885" y="194.025"/><use xlink:href="#br" x="218.302" y="194.025"/><use xlink:href="#aW" x="224.303" y="194.025"/><use xlink:href="#bA" x="229.503" y="194.025"/><use xlink:href="#aQ" x="235.505" y="194.025"/><use xlink:href="#aS" x="241.04" y="194.025"/><use xlink:href="#aT" x="249.002" y="194.025"/><use xlink:href="#bw" x="251.752" y="194.025"/><use xlink:href="#bC" x="260.983" y="122.853"/><use xlink:href="#bD" x="260.983" y="131.064"/><use xlink:href="#bD" x="260.983" y="138.756"/><use xlink:href="#bD" x="260.983" y="146.448"/><use xlink:href="#bE" x="260.983" y="163.649"/><use xlink:href="#bD" x="260.983" y="171.861"/><use xlink:href="#bD" x="260.983" y="179.553"/><use xlink:href="#bD" x="260.983" y="187.244"/><use xlink:href="#bF" x="260.983" y="195.48"/><use xlink:href="#bG" x="273.759" y="157.672"/><use xlink:href="#bH" x="279.617" y="157.672"/><use xlink:href="#aM" x="95.941" y="221.646"/><use xlink:href="#aN" x="112.452" y="211.561" fill="red"/><use xlink:href="#bI" x="112.452" y="221.646"/><use xlink:href="#br" x="119.529" y="221.646"/><use xlink:href="#bc" x="125.531" y="221.646"/><use xlink:href="#br" x="130.014" y="221.646"/><use xlink:href="#bJ" x="136.015" y="221.646"/><use xlink:href="#aW" x="142.017" y="221.646"/><use xlink:href="#aT" x="147.217" y="221.646"/><use xlink:href="#aU" x="149.967" y="221.646"/><use xlink:href="#bv" x="159.065" y="221.646"/><use xlink:href="#aV" x="164.743" y="221.646"/><use xlink:href="#br" x="168.724" y="221.646"/><use xlink:href="#aY" x="174.726" y="221.646"/><use xlink:href="#aR" x="184.624" y="221.646"/><use xlink:href="#aS" x="193.603" y="221.646"/><use xlink:href="#aX" x="201.242" y="221.646"/><use xlink:href="#bc" x="206.849" y="221.646"/><use xlink:href="#aR" x="211.332" y="221.646"/><use xlink:href="#bd" x="216.413" y="221.646"/><use xlink:href="#aW" x="221.769" y="221.646"/><use xlink:href="#bA" x="226.969" y="221.646"/><use xlink:href="#aP" x="236.868" y="221.646"/><use xlink:href="#aS" x="240.777" y="221.646"/><use xlink:href="#aX" x="248.416" y="221.646"/><use xlink:href="#aV" x="253.7" y="221.646"/><use xlink:href="#aR" x="257.681" y="221.646"/><use xlink:href="#bd" x="262.762" y="221.646"/><use xlink:href="#bw" x="267.138" y="221.646"/><use xlink:href="#bh" x="112.452" y="233.205" fill="red"/><use xlink:href="#bK" x="112.452" y="243.29"/><use xlink:href="#aQ" x="120.187" y="243.29"/><use xlink:href="#aW" x="126.368" y="243.29"/><use xlink:href="#bA" x="131.568" y="243.29"/><use xlink:href="#aX" x="137.569" y="243.29"/><use xlink:href="#be" x="143.176" y="243.29"/><use xlink:href="#aW" x="146.261" y="243.29"/><use xlink:href="#aT" x="151.461" y="243.29"/><use xlink:href="#aU" x="154.211" y="243.29"/><use xlink:href="#bB" x="163.309" y="243.29"/><use xlink:href="#aU" x="168.796" y="243.29"/><use xlink:href="#bl" x="173.996" y="243.29"/><use xlink:href="#aQ" x="179.854" y="243.29"/><use xlink:href="#bL" x="189.61" y="243.29"/><use xlink:href="#aS" x="196.113" y="243.29"/><use xlink:href="#aT" x="204.075" y="243.29"/><use xlink:href="#bo" x="206.825" y="243.29"/><use xlink:href="#aP" x="212.025" y="243.29"/><use xlink:href="#aQ" x="216.257" y="243.29"/><use xlink:href="#bM" x="222.115" y="243.29"/><use xlink:href="#bN" x="226.598" y="243.29"/><use xlink:href="#aT" x="235.696" y="243.29"/><use xlink:href="#aQ" x="242.343" y="243.29"/><use xlink:href="#bv" x="248.201" y="243.29"/><use xlink:href="#bm" x="254.202" y="243.29"/><use xlink:href="#aU" x="256.952" y="243.29"/><use xlink:href="#aW" x="262.152" y="243.29"/><use xlink:href="#aR" x="267.353" y="243.29"/><use xlink:href="#aW" x="272.434" y="243.29"/><use xlink:href="#aT" x="277.634" y="243.29"/><use xlink:href="#aU" x="280.384" y="243.29"/><use xlink:href="#bc" x="289.482" y="243.29"/><use xlink:href="#aT" x="293.965" y="243.29"/><use xlink:href="#bo" x="296.714" y="243.29"/><use xlink:href="#aS" x="305.812" y="243.29"/><use xlink:href="#bp" x="317.672" y="243.29"/><use xlink:href="#aT" x="325.873" y="243.29"/><use xlink:href="#bn" x="328.622" y="243.29"/><use xlink:href="#bj" x="334.229" y="243.29"/><use xlink:href="#bq" x="112.452" y="254.848" fill="red"/><use xlink:href="#aX" x="112.452" y="264.934"/><use xlink:href="#bv" x="121.956" y="264.934"/><use xlink:href="#bo" x="128.28" y="264.934"/><use xlink:href="#aY" x="133.481" y="264.934"/><use xlink:href="#aR" x="139.482" y="264.934"/><use xlink:href="#aT" x="144.563" y="264.934"/><use xlink:href="#aU" x="147.313" y="264.934"/><use xlink:href="#aW" x="152.513" y="264.934"/><use xlink:href="#aT" x="157.714" y="264.934"/><use xlink:href="#aU" x="160.463" y="264.934"/><use xlink:href="#aR" x="169.561" y="264.934"/><use xlink:href="#aX" x="174.642" y="264.934"/><use xlink:href="#aS" x="179.926" y="264.934"/><use xlink:href="#bc" x="187.888" y="264.934"/><use xlink:href="#aR" x="192.371" y="264.934"/><use xlink:href="#aU" x="197.452" y="264.934"/><use xlink:href="#bk" x="206.55" y="264.934"/><use xlink:href="#aV" x="212.228" y="264.934"/><use xlink:href="#aR" x="216.209" y="264.934"/><use xlink:href="#aU" x="221.29" y="264.934"/><use xlink:href="#aY" x="226.491" y="264.934"/><use xlink:href="#bp" x="236.39" y="264.934"/><use xlink:href="#aT" x="244.591" y="264.934"/><use xlink:href="#ba" x="247.34" y="264.934"/><use xlink:href="#bb" x="260.491" y="264.934"/><use xlink:href="#aT" x="266.492" y="264.934"/><use xlink:href="#aU" x="269.242" y="264.934"/><use xlink:href="#bk" x="274.442" y="264.934"/><use xlink:href="#aQ" x="280.766" y="264.934"/><use xlink:href="#bs" x="286.624" y="264.934"/><use xlink:href="#aX" x="292.303" y="264.934"/><use xlink:href="#bt" x="297.912" y="254.848" fill="red"/><use xlink:href="#bu" x="308.158" y="250.509" fill="red"/><use xlink:href="#bm" x="297.912" y="264.934"/><use xlink:href="#aX" x="300.662" y="264.934"/><use xlink:href="#bb" x="306.269" y="264.934"/><use xlink:href="#aT" x="312.27" y="264.934"/><use xlink:href="#bw" x="315.02" y="264.934"/><use xlink:href="#bx" x="92.582" y="289.566"/><use xlink:href="#by" x="112.452" y="289.566"/><use xlink:href="#bm" x="120.187" y="289.566"/><use xlink:href="#bm" x="122.937" y="289.566"/><use xlink:href="#aU" x="125.686" y="289.566"/><use xlink:href="#aN" x="130.886" y="279.481" fill="red"/><use xlink:href="#bm" x="130.886" y="289.566"/><use xlink:href="#br" x="133.636" y="289.566"/><use xlink:href="#be" x="139.637" y="289.566"/><use xlink:href="#aX" x="142.721" y="289.566"/><use xlink:href="#bj" x="148.328" y="289.566"/><use xlink:href="#aX" x="155.477" y="289.566"/><use xlink:href="#bm" x="161.084" y="289.566"/><use xlink:href="#bm" x="163.834" y="289.566"/><use xlink:href="#aU" x="166.584" y="289.566"/><use xlink:href="#bm" x="171.784" y="289.566"/><use xlink:href="#br" x="174.534" y="289.566"/><use xlink:href="#be" x="180.535" y="289.566"/><use xlink:href="#aX" x="183.62" y="289.566"/><use xlink:href="#bj" x="189.226" y="289.566"/><use xlink:href="#aX" x="196.376" y="289.566"/><use xlink:href="#bm" x="201.982" y="289.566"/><use xlink:href="#bm" x="204.732" y="289.566"/><use xlink:href="#aU" x="207.482" y="289.566"/><use xlink:href="#bm" x="212.682" y="289.566"/><use xlink:href="#br" x="215.432" y="289.566"/><use xlink:href="#be" x="221.433" y="289.566"/><use xlink:href="#aX" x="224.518" y="289.566"/><use xlink:href="#bw" x="230.124" y="289.566"/><use xlink:href="#aM" x="95.941" y="311.21"/><use xlink:href="#bq" x="112.452" y="301.124" fill="red"/><use xlink:href="#by" x="112.452" y="311.21"/><use xlink:href="#bm" x="120.187" y="311.21"/><use xlink:href="#bm" x="122.937" y="311.21"/><use xlink:href="#aU" x="125.686" y="311.21"/><use xlink:href="#bm" x="130.887" y="311.21"/><use xlink:href="#br" x="133.636" y="311.21"/><use xlink:href="#be" x="139.638" y="311.21"/><use xlink:href="#aX" x="142.722" y="311.21"/><use xlink:href="#bj" x="148.329" y="311.21"/><use xlink:href="#aX" x="155.478" y="311.21"/><use xlink:href="#bm" x="161.085" y="311.21"/><use xlink:href="#bm" x="163.835" y="311.21"/><use xlink:href="#aU" x="166.584" y="311.21"/><use xlink:href="#bm" x="171.785" y="311.21"/><use xlink:href="#br" x="174.534" y="311.21"/><use xlink:href="#be" x="180.536" y="311.21"/><use xlink:href="#aX" x="183.62" y="311.21"/><use xlink:href="#bj" x="189.227" y="311.21"/><use xlink:href="#aX" x="196.376" y="311.21"/><use xlink:href="#bm" x="201.983" y="311.21"/><use xlink:href="#bm" x="204.733" y="311.21"/><use xlink:href="#aU" x="207.482" y="311.21"/><use xlink:href="#bm" x="212.683" y="311.21"/><use xlink:href="#br" x="215.432" y="311.21"/><use xlink:href="#be" x="221.434" y="311.21"/><use xlink:href="#aX" x="224.518" y="311.21"/><use xlink:href="#bw" x="230.125" y="311.21"/><use xlink:href="#bx" x="92.582" y="332.853"/><use xlink:href="#bt" x="112.452" y="322.768" fill="red"/><use xlink:href="#bu" x="122.697" y="318.428" fill="red"/><use xlink:href="#bz" x="112.452" y="332.853"/><use xlink:href="#aX" x="120.868" y="332.853"/><use xlink:href="#be" x="126.475" y="332.853"/><use xlink:href="#aW" x="129.56" y="332.853"/><use xlink:href="#aT" x="134.76" y="332.853"/><use xlink:href="#aU" x="137.51" y="332.853"/><use xlink:href="#aW" x="146.607" y="332.853"/><use xlink:href="#bA" x="151.808" y="332.853"/><use xlink:href="#aS" x="157.809" y="332.853"/><use xlink:href="#aX" x="165.449" y="332.853"/><use xlink:href="#aZ" x="171.055" y="332.853"/><use xlink:href="#bo" x="174.486" y="332.853"/><use xlink:href="#bB" x="183.584" y="332.853"/><use xlink:href="#aU" x="189.072" y="332.853"/><use xlink:href="#bl" x="194.272" y="332.853"/><use xlink:href="#aQ" x="200.13" y="332.853"/><use xlink:href="#bz" x="209.885" y="332.853"/><use xlink:href="#br" x="218.302" y="332.853"/><use xlink:href="#aW" x="224.303" y="332.853"/><use xlink:href="#bA" x="229.503" y="332.853"/><use xlink:href="#aQ" x="235.505" y="332.853"/><use xlink:href="#aS" x="241.04" y="332.853"/><use xlink:href="#aT" x="249.002" y="332.853"/><use xlink:href="#bw" x="251.752" y="332.853"/><use xlink:href="#bz" x="112.452" y="354.497"/><use xlink:href="#aX" x="120.868" y="354.497"/><use xlink:href="#be" x="126.475" y="354.497"/><use xlink:href="#aW" x="129.56" y="354.497"/><use xlink:href="#aT" x="134.76" y="354.497"/><use xlink:href="#aU" x="137.51" y="354.497"/><use xlink:href="#aW" x="146.607" y="354.497"/><use xlink:href="#bA" x="151.808" y="354.497"/><use xlink:href="#aS" x="157.809" y="354.497"/><use xlink:href="#aX" x="165.449" y="354.497"/><use xlink:href="#aZ" x="171.055" y="354.497"/><use xlink:href="#bo" x="174.486" y="354.497"/><use xlink:href="#bB" x="183.584" y="354.497"/><use xlink:href="#aU" x="189.072" y="354.497"/><use xlink:href="#bl" x="194.272" y="354.497"/><use xlink:href="#aQ" x="200.13" y="354.497"/><use xlink:href="#bz" x="209.885" y="354.497"/><use xlink:href="#br" x="218.302" y="354.497"/><use xlink:href="#aW" x="224.303" y="354.497"/><use xlink:href="#bA" x="229.503" y="354.497"/><use xlink:href="#aQ" x="235.505" y="354.497"/><use xlink:href="#aS" x="241.04" y="354.497"/><use xlink:href="#aT" x="249.002" y="354.497"/><use xlink:href="#bw" x="251.752" y="354.497"/><use xlink:href="#bC" x="260.983" y="283.325"/><use xlink:href="#bD" x="260.983" y="291.536"/><use xlink:href="#bD" x="260.983" y="299.228"/><use xlink:href="#bD" x="260.983" y="306.92"/><use xlink:href="#bE" x="260.983" y="324.121"/><use xlink:href="#bD" x="260.983" y="332.333"/><use xlink:href="#bD" x="260.983" y="340.024"/><use xlink:href="#bD" x="260.983" y="347.716"/><use xlink:href="#bF" x="260.983" y="355.951"/><use xlink:href="#bG" x="273.759" y="318.144"/><use xlink:href="#bH" x="279.617" y="318.144"/><use xlink:href="#bz" x="112.452" y="376.141"/><use xlink:href="#aX" x="120.868" y="376.141"/><use xlink:href="#be" x="126.475" y="376.141"/><use xlink:href="#aW" x="129.56" y="376.141"/><use xlink:href="#aT" x="134.76" y="376.141"/><use xlink:href="#aU" x="137.51" y="376.141"/><use xlink:href="#aW" x="146.607" y="376.141"/><use xlink:href="#bA" x="151.808" y="376.141"/><use xlink:href="#aS" x="157.809" y="376.141"/><use xlink:href="#aX" x="165.449" y="376.141"/><use xlink:href="#aZ" x="171.055" y="376.141"/><use xlink:href="#bo" x="174.486" y="376.141"/><use xlink:href="#bB" x="183.584" y="376.141"/><use xlink:href="#aU" x="189.072" y="376.141"/><use xlink:href="#bl" x="194.272" y="376.141"/><use xlink:href="#aQ" x="200.13" y="376.141"/><use xlink:href="#bz" x="209.885" y="376.141"/><use xlink:href="#br" x="218.302" y="376.141"/><use xlink:href="#aN" x="224.304" y="366.055" fill="red"/><use xlink:href="#aW" x="224.304" y="376.141"/><use xlink:href="#bA" x="229.504" y="376.141"/><use xlink:href="#aQ" x="235.506" y="376.141"/><use xlink:href="#aS" x="241.041" y="376.141"/><use xlink:href="#aT" x="249.003" y="376.141"/><use xlink:href="#bg" x="251.753" y="376.141"/><g clip-path="url(#bO)"><path fill="url(#bP)" d="M15.023 579.684v-11.336h388.063v11.336Zm0 0"/></g><use xlink:href="#bQ" x="17.008" y="577.985"/><use xlink:href="#bR" x="23.739" y="577.985"/><use xlink:href="#bQ" x="30.469" y="577.985"/><use xlink:href="#bS" x="260.266" y="577.985"/><use xlink:href="#bT" x="265.929" y="577.985"/><use xlink:href="#bU" x="270.329" y="577.985"/><use xlink:href="#bV" x="275.804" y="577.985"/><use xlink:href="#bW" x="279.347" y="577.985"/><use xlink:href="#bX" x="283.531" y="577.985"/><use xlink:href="#bY" x="289.32" y="577.985"/><use xlink:href="#bZ" x="293.288" y="577.985"/><use xlink:href="#bY" x="297.256" y="577.985"/><use xlink:href="#ca" x="301.224" y="577.985"/><use xlink:href="#cb" x="307.877" y="577.985"/><use xlink:href="#bY" x="318.506" y="577.985"/><use xlink:href="#cc" x="322.474" y="577.985"/><use xlink:href="#cd" x="329.127" y="577.985"/><use xlink:href="#bY" x="334.693" y="577.985"/><use xlink:href="#bZ" x="338.661" y="577.985"/><use xlink:href="#bY" x="342.629" y="577.985"/><use xlink:href="#ce" x="346.597" y="577.985"/><use xlink:href="#cb" x="353.25" y="577.985"/><use xlink:href="#cf" x="363.879" y="577.985"/><use xlink:href="#bY" x="366.131" y="577.985"/><use xlink:href="#cg" x="370.1" y="577.985"/><use xlink:href="#bZ" x="374.068" y="577.985"/><use xlink:href="#ch" x="378.036" y="577.985"/><use xlink:href="#bY" x="380.289" y="577.985"/><use xlink:href="#ci" x="384.257" y="577.985"/><use xlink:href="#cg" x="389.194" y="577.985"/><use xlink:href="#cc" x="393.163" y="577.985"/><use xlink:href="#cj" x="397.131" y="577.985"/><path fill="#f2f2f2" stroke="#000" stroke-miterlimit="10" stroke-width=".797" d="M196.602 576.055v-3.989a2.99 2.99 0 0 1 2.988-2.988h18.93a2.99 2.99 0 0 1 2.988 2.988v3.989a2.99 2.99 0 0 1-2.988 2.988h-18.93a2.99 2.99 0 0 1-2.988-2.988Zm0 0"/><use xlink:href="#ck" x="198.439" y="576.948"/><use xlink:href="#cl" x="203.747" y="576.948"/><use xlink:href="#cl" x="209.055" y="576.948"/><use xlink:href="#cm" x="214.363" y="576.948"/></svg>