<svg xmlns="http://www.w3.org/2000/svg" xmlns:xlink="http://www.w3.org/1999/xlink" width="559.371" height="793.701" viewBox="0 0 419.528 595.276"><defs><path id="d" d="M3.344 2.297v-.078L1.5-2.5l1.844-4.703v-.078c0-.11-.078-.203-.188-.203a.24.24 0 0 0-.203.14L1.11-2.562c-.015.015-.015.046-.015.062 0 .031 0 .063.015.078L2.953 2.36a.24.24 0 0 0 .203.141c.11 0 .188-.094.188-.203m0 0"/><path id="e" d="M6.39-5.797c.063-.297.048-.547-.124-.75-.235-.328-.813-.406-1.141-.406-.75 0-1.469.187-2.219.687-.61.407-1.015 1.079-1.187 1.735-.14.593-.188 1.218.14 1.656.329.438.907.656 1.532.656.5 0 1.047-.156 1.53-.453l-.218.953C4.61-1.28 4.437-.906 4.22-.5a3.2 3.2 0 0 1-.703.875c-.407.328-.86.547-1.328.547-.297 0-.61-.047-.766-.281-.094-.125-.094-.297-.094-.485 0-.125.016-.281-.047-.36a.28.28 0 0 0-.234-.109c-.125 0-.281.016-.39.11A.7.7 0 0 0 .421.14a.89.89 0 0 0 .14.75c.25.328.688.406 1.141.406.828 0 1.656-.344 2.39-.938.376-.296.657-.671.86-1.093Q5.4-1.65 5.61-2.61l.329-1.313-.547.14c-.141.282-.422.688-.578.798-.391.328-.829.468-1.282.468-.406 0-.734-.203-.953-.484-.312-.406-.265-.984-.125-1.547.156-.61.5-1.187 1.047-1.625.39-.312.86-.437 1.297-.437.25 0 .594.093.766.343a.61.61 0 0 1 .125.547c-.047.203-.11.407-.282.547-.234.172-.453.203-.687.203l-.078.172c.156.031.39.094.437.094.313 0 .594-.156.86-.375.234-.203.375-.453.453-.719m0 0"/><path id="f" d="M2.781-2.5c0-.016 0-.047-.015-.062L.922-7.344c-.031-.078-.11-.14-.188-.14a.207.207 0 0 0-.203.203v.078L2.375-2.5.531 2.219v.078c0 .11.094.203.203.203.079 0 .157-.062.188-.14l1.844-4.782c.015-.015.015-.047.015-.078m0 0"/><path id="g" d="M6.156-4.234c0-.657-.578-1.203-1.531-1.203H2.141c-.141 0-.235 0-.235.14 0 .125.094.125.235.125.203 0 .437 0 .437.11 0 .046-.031.125-.031.171L1.484-.625c-.078.313-.14.36-.656.36-.125 0-.219 0-.219.156C.61-.047.656 0 .72 0c.047 0 .39-.016.453-.031h.484c.672 0 .907.031.938.031.047 0 .156 0 .156-.156 0-.11-.094-.11-.219-.11-.25 0-.437 0-.437-.125 0 0 0-.062.031-.171l.469-1.922h1.344c1.109 0 2.218-.86 2.218-1.75m-.718-.188c0 .234-.125.906-.422 1.219-.407.437-.97.484-1.25.484H2.64l.53-2.187c.079-.266.142-.266.376-.266h.828c.578 0 1.063.172 1.063.75m0 0"/><path id="h" d="M4.5-1.14c0-.11-.11-.11-.156-.11-.125 0-.125.031-.172.234-.156.61-.328.875-.531.875-.235 0-.235-.25-.235-.359 0-.047 0-.125.031-.219L4-2.969c0-.047.031-.125.031-.172 0-.125-.11-.218-.25-.218-.11 0-.281.062-.328.297-.156-.282-.39-.454-.734-.454-.938 0-1.89 1.188-1.89 2.329 0 .75.452 1.265 1.046 1.265.469 0 .86-.344 1.031-.547.063.297.328.547.719.547.281 0 .469-.172.61-.422.171-.312.265-.797.265-.797m-1.547.077c-.062.282-.594.922-1.062.922-.375 0-.485-.406-.485-.734 0-.375.235-1.312.422-1.672.328-.578.672-.75.89-.75.516 0 .595.688.595.766l-.016.11Zm0 0"/><path id="i" d="M4.297-2.172c0-.828-.547-1.344-1.266-1.344C2-3.516.921-2.437.921-1.266c0 .875.595 1.344 1.267 1.344 1.062 0 2.109-1.094 2.109-2.25m-.594-.281c0 .265-.125 1.031-.437 1.578-.266.438-.688.734-1.078.734-.297 0-.672-.203-.672-.843 0-.36.172-1.11.422-1.547.343-.578.812-.766 1.078-.766.39 0 .687.297.687.844m0 0"/><path id="j" d="M2.39-1.14c0-.11-.109-.11-.156-.11-.125 0-.125.031-.156.172-.125.406-.25.937-.547.937-.218 0-.218-.25-.218-.359 0-.047 0-.125.03-.219l1.141-4.578c0-.031.016-.094.016-.125 0-.11-.125-.11-.219-.094l-.828.063c-.11.016-.187.016-.187.156 0 .125.093.125.203.125.375 0 .375.047.375.11a.7.7 0 0 1-.032.171L.829-.937c-.047.156-.047.203-.047.28 0 .485.375.735.735.735.172 0 .422-.047.625-.437.14-.282.25-.75.25-.782m0 0"/><path id="k" d="M6.172-.766c0-.109-.125-.109-.156-.109-.125 0-.125.031-.172.156-.094.344-.328.657-.625.657-.25 0-.282-.172-.282-.438 0-.11.016-.312.047-.547.016-.14.079-.625.079-.734 0-.39-.204-.735-.688-.922 1.031-.266 1.688-.922 1.688-1.547 0-.656-.704-1.187-1.75-1.187H2.14c-.141 0-.235 0-.235.14 0 .125.094.125.235.125.203 0 .437 0 .437.11 0 .046 0 .062-.031.171L1.469-.609c-.063.28-.11.343-.594.343-.187 0-.266 0-.266.157C.61-.047.656 0 .72 0c.156 0 .312-.016.453-.031h.953c.094.015.344.031.453.031.047 0 .156 0 .156-.156 0-.11-.093-.11-.234-.11-.25 0-.437 0-.437-.125 0 0 0-.062.03-.171L2.61-2.61h.954c.624 0 .859.343.859.703 0 .11-.063.343-.094.5-.062.234-.14.547-.14.718 0 .657.578.86 1.015.86.688 0 .969-.813.969-.938M5.328-4.39c0 .329-.14.907-.562 1.22-.453.327-1.047.327-1.188.327h-.906l.5-2.062c.078-.266.14-.266.375-.266h.625c.703 0 1.156.219 1.156.781m0 0"/><path id="l" d="M2.828-1.14c0-.11-.11-.11-.156-.11-.125 0-.125.031-.172.172-.14.516-.406.937-.734.937-.157 0-.188-.109-.188-.25 0-.187.063-.328.188-.656l.515-1.39c.063-.172.094-.25.094-.422 0-.438-.312-.657-.656-.657-.75 0-1.078 1.11-1.078 1.22 0 .108.093.108.14.108.14 0 .14-.03.172-.171.125-.407.375-.938.75-.938.14 0 .172.11.172.25 0 .188-.047.344-.156.61L1.156-.953a1.1 1.1 0 0 0-.078.375c0 .36.266.656.672.656.75 0 1.078-1.125 1.078-1.219m.125-3.704a.354.354 0 0 0-.36-.375.55.55 0 0 0-.53.532c0 .234.171.359.359.359.265 0 .531-.234.531-.516m0 0"/><path id="m" d="M3.047-1.14c0-.11-.11-.11-.14-.11-.126 0-.141.031-.173.14-.359.813-.718.97-.968.97-.203 0-.235-.172-.235-.36 0-.047 0-.125.016-.219l.61-2.453h.734c.125 0 .218 0 .218-.156 0-.11-.093-.11-.218-.11h-.672l.297-1.14c.03-.125.03-.14.03-.172 0-.187-.171-.234-.233-.234-.25 0-.329.25-.344.312l-.297 1.234H.953c-.14 0-.25 0-.25.157 0 .11.11.11.235.11h.671L1.047-.938C1-.781 1-.734 1-.657c0 .47.36.735.75.735.828 0 1.297-1.11 1.297-1.219m0 0"/><path id="n" d="M8.75-4.094c0-.937-.156-2.093-.828-2.953-.89-1.11-2.328-1.25-3.11-1.25H1.656c-.422 0-.562.14-.562.578v7.14c0 .438.125.579.562.579h3.157C7.733 0 8.75-1.75 8.75-4.094m-1.719 0c0 1.36-.14 3.063-2.687 3.063H2.812v-6.235h1.532c2.578 0 2.687 1.844 2.687 3.172m0 0"/><path id="o" d="M5.672-.578v-3.203c0-1.89-1.828-1.89-2.422-1.89-.562 0-1.156.046-1.953.374-.25.11-.313.14-.313.281 0 .079.063.766.079.875a.17.17 0 0 0 .156.125c.062 0 .093-.03.125-.078.515-.531 1.125-.797 1.86-.797.64 0 .843.391.843 1.094v.422c-.422 0-3.563.031-3.563 1.781C.484-.75 1.156.125 2.22.125c.406 0 1.297-.11 1.86-.937v.234c0 .39.077.578.577.578h.438c.453 0 .578-.156.578-.578M4.047-1.844c0 1.11-1.14 1.11-1.172 1.11-.516 0-.828-.422-.828-.875 0-1.172 1.656-1.266 2-1.266Zm0 0"/><path id="p" d="M2.672.375v-5.281c0-.375-.078-.563-.563-.563h-.453c-.453 0-.562.157-.562.563V.672c0 .297 0 .781-.719.781-.219 0-.5-.047-.75-.219-.031-.015-.078-.046-.125-.046-.094 0-.11 0-.219.312-.047.125-.125.36-.125.39 0 .22.985.563 1.735.563 1.328 0 1.78-.89 1.78-2.078m0-7.625v-.219c0-.39-.078-.578-.563-.578H1.5c-.453 0-.578.156-.578.578v.219c0 .36.062.578.578.578h.61c.5 0 .562-.219.562-.578m0 0"/><path id="q" d="M5.469-.594c0-.14-.047-.687-.078-.843 0-.032-.032-.157-.141-.157-.047 0-.078 0-.187.125-.204.172-.766.672-1.75.672-1.25 0-1.25-1.219-1.25-1.969 0-.968.062-1.984 1.28-1.984.782 0 1.11.203 1.532.547.14.14.172.14.219.14.125 0 .14-.109.156-.156.016-.093.14-.765.14-.828 0-.11-.077-.156-.28-.25-.579-.266-.938-.375-1.782-.375-1.781 0-2.89.828-2.89 2.922C.438-.766 1.468.125 3.28.125c.313 0 1.031 0 1.828-.406.344-.188.36-.203.36-.313m0 0"/><path id="r" d="M5.969-.578v-3.313c0-1.218-.516-1.718-1.735-1.718-1.203 0-1.75.828-1.921 1.156V-7.72c0-.39-.094-.578-.579-.578h-.437c-.438 0-.578.14-.578.578v7.14c0 .438.125.579.578.579h.469c.453 0 .578-.156.578-.578v-2.64c0-1.032.687-1.532 1.312-1.532.578 0 .688.281.688.89v3.282c0 .39.093.578.578.578h.484c.453 0 .563-.156.563-.578m0 0"/><path id="s" d="M8.594-5.14c-.031-.329-.25-.329-.625-.329-.563 0-.703.032-.875.657l-.969 3.468-1.016-3.593c-.062-.266-.156-.532-.703-.532-.172 0-.453 0-.61.266-.108.187-.64 2.25-1.062 3.656l-.953-3.39c-.125-.407-.25-.532-.734-.532h-.25c-.219 0-.469 0-.516.328L1.547-.547C1.703 0 2.016 0 2.313 0h.343c.563 0 .656-.172.781-.656.282-1 .704-2.5.766-3.125v-.016c.078.688.61 2.578.75 3.14.14.423.203.657.797.657h.813c.515 0 .64-.14.75-.547Zm0 0"/><path id="t" d="M4.39-6.469a.45.45 0 0 0-.64-.062l-.766.61V-7.72c0-.39-.078-.578-.562-.578h-.453c-.422 0-.563.14-.563.578v3.063l-1.078.843a.46.46 0 0 0-.062.626c.156.187.422.234.625.062l.515-.406v2.953c0 .437.125.578.563.578h.453c.453 0 .562-.156.562-.578v-4.219l1.329-1.062a.444.444 0 0 0 .078-.61m0 0"/><path id="u" d="M5.719-3.11c0-1.546-.703-2.562-2.485-2.562-1.921 0-2.859 1.063-2.859 2.89C.375-.905 1.406.048 3.125.126c-.297.39-.453.766-.453 1.219 0 .672.422 1.203 1.281 1.203.453 0 .969-.172 1.39-.39.063-.032.11-.141.11-.22l-.14-.437c0-.078-.157-.156-.235-.14-.266.062-.516.14-.766.14s-.468-.11-.468-.469c.015-.39.203-.797.594-1.031a4 4 0 0 0 .875-.328c.25-.125.343-.156.343-.313 0-.078-.031-.421-.047-.515-.046-.375-.062-.39-.171-.39-.047 0-.079 0-.204.124a2.7 2.7 0 0 1-1.796.688c-1.36 0-1.5-1.063-1.532-1.828h3.25c.266 0 .563 0 .563-.547m-1.313-.078h-2.5c.047-.734.282-1.624 1.328-1.624.954 0 1.125.687 1.172 1.625m0 0"/><path id="v" d="M7.656-5.719c0-1.797-1.172-2.578-3-2.578h-3c-.422 0-.562.14-.562.578v7.14c0 .438.125.579.562.579h.61c.453 0 .578-.156.578-.578v-2.625h1.812c1.875 0 3-.797 3-2.516M6-5.719c0 .813-.125 1.578-1.734 1.578H2.813v-3.125H4.28C5.844-7.266 6-6.546 6-5.719m0 0"/><path id="w" d="M5.969-.578v-3.313c0-1.218-.516-1.718-1.735-1.718-1.265 0-1.796.906-1.953 1.234h-.015v-.594c0-.39-.079-.578-.563-.578h-.406c-.438 0-.578.125-.578.578v4.39c0 .438.125.579.578.579h.469c.453 0 .578-.156.578-.578v-2.64c0-1.032.687-1.532 1.312-1.532.578 0 .688.281.688.89v3.282c0 .39.093.578.578.578h.484c.453 0 .563-.156.563-.578m0 0"/><path id="x" d="M5.969-.578v-4.328c0-.375-.078-.563-.563-.563h-.484c-.453 0-.578.157-.578.563v2.843c0 .782-.407 1.47-1.266 1.47-.656 0-.734-.173-.734-.813v-3.5c0-.375-.078-.563-.578-.563h-.47c-.437 0-.577.125-.577.563V-1.5c0 1.266.687 1.625 1.937 1.625.313 0 1.172 0 1.735-1.016v.313c0 .39.078.578.562.578h.453c.453 0 .563-.156.563-.578m0 0"/><path id="y" d="M2.594 2.234c-.375-.5-1.25-1.64-.64-4.484.609-2.828 1.952-3.969 2.546-4.484h-.594c-1.25.89-2.265 2.422-2.703 4.484-.453 2.14-.031 3.625.813 4.484Zm0 0"/><path id="z" d="M6.313-4.406c.203-.953-.516-1.813-1.797-1.813H2.203L.875 0h.86l.546-2.562h1.453c1.266 0 2.36-.86 2.579-1.844m-.782 0c-.156.718-.843 1.297-1.89 1.297H2.375l.547-2.578h1.265c1.032 0 1.485.562 1.344 1.28m0 0"/><path id="A" d="M3.563-1.156a.97.97 0 0 0-.25-.89c-.25-.267-.5-.329-1.032-.423-.312-.062-.75-.156-.656-.578.11-.515.75-.515.89-.515.657 0 .985.203 1.22.343l.25-.625c-.5-.25-.907-.297-1.282-.297-.203 0-1.515 0-1.765 1.188a.9.9 0 0 0 .187.797c.281.297.5.344 1.078.469.281.046.781.14.672.609C2.75-.5 2.031-.5 1.906-.5c-.531 0-1-.187-1.328-.453l-.25.656c.469.281 1 .39 1.453.39.594 0 1.563-.187 1.782-1.25m0 0"/><path id="B" d="m3.922 0 .11-.562H2.89l1.172-5.5h-.188c-.734.578-1.594.578-1.906.578l-.11.562c.25 0 .704 0 1.25-.203L2.125-.562H.985L.858 0Zm0 0"/><path id="C" d="m4.656-1.5.125-.578h-.89l.797-3.781h-.86L.703-2.08.578-1.5H3L2.688 0h.75l.328-1.5Zm-1.468-.578h-1.75l.75-.906C2.547-3.437 3.797-5 3.906-5.454Zm0 0"/><path id="D" d="M4.64-2c.11-.5.126-.953-.077-1.437-.235-.563-.516-.72-.938-.72-.344 0-1.031.11-1.719.735C2.266-4.625 3.063-5.5 4.031-5.5c.172 0 .5 0 .922.188l.11-.579a2.5 2.5 0 0 0-.922-.171c-1.297 0-2.735 1.25-3.141 3.187C.469-.422 1.422.203 2.266.203c.547 0 .984-.203 1.437-.61.531-.468.797-.89.938-1.593m-.78 0c-.079.344-.157.719-.47 1.11-.218.265-.53.5-1 .5-.953 0-.812-1.282-.78-1.579.03-.125.03-.14.062-.234.14-.688.719-1.36 1.453-1.36.344 0 .61.126.766.547.093.313.062.61-.032 1.016m0 0"/><path id="E" d="M3.328-2.25c.453-2.125.031-3.625-.812-4.484h-.578c.39.5 1.25 1.656.64 4.484C1.984.594.625 1.734.031 2.234h.594c1.234-.89 2.266-2.421 2.703-4.484m0 0"/><path id="F" d="M-2.672-5.984c-1.531 0-2.765 1.156-2.765 2.593v3.032h.265v-.188c0-.61.078-.625.375-.625H-.64c.297 0 .375.016.375.625v.188H0v-3.032c0-1.437-1.187-2.593-2.672-2.593m0 .812c.406 0 1.188 0 1.766.5.328.266.64.781.64 1.5v.906c0 .375-.046.391-.328.391h-4.265c-.266 0-.313-.016-.313-.39v-.907c0-.625.25-1.14.64-1.5.61-.5 1.47-.5 1.86-.5m0 0"/><path id="G" d="M-.719-4.094h-.437v.25h.437c.328 0 .453.11.453.281 0 .297-.359.297-.453.297h-1.656c-.781 0-1.172.75-1.172 1.485 0 .656.25 1.25.781 1.25a.36.36 0 0 0 .375-.375.36.36 0 0 0-.375-.375.356.356 0 0 0-.359.297c-.203-.297-.203-.735-.203-.782 0-.453.312-.89.969-.89h.234c.031.453.047.984.281 1.547.313.703.766.843 1.032.843.687 0 .89-.812.89-1.359a1.23 1.23 0 0 0-.64-1.11c.296-.046.609-.25.609-.609 0-.078-.031-.75-.766-.75m-.406 1.438c.781 0 .984.64.984.969 0 .406-.28.765-.671.765-.516 0-1.063-.5-1.094-1.734Zm-3.094.015-1.218 1.016c-.125.11-.125.219-.125.25 0 .14.14.313.312.313.14 0 .203-.063.266-.157l.937-1.25Zm0 0"/><path id="H" d="M0-2.125h-.266c0 .5 0 .61-.359.61h-4.906l.093 1.187h.266c0-.547.047-.61.438-.61h4.109c.36 0 .36.094.36.61H0c-.031-.313-.031-.766-.031-.906 0-.157 0-.578.031-.891m0 0"/><path id="I" d="M-1.703-3.984c-.984 0-1.844.828-1.844 1.875s.86 1.875 1.844 1.875c1 0 1.781-.86 1.781-1.875 0-1.032-.781-1.875-1.781-1.875m-.063.703c.36 0 .797.015 1.141.25.313.203.453.562.453.922 0 .422-.203.765-.484.937-.328.203-.719.219-1.11.219-.312 0-.78 0-1.125-.235a1.14 1.14 0 0 1-.437-.921c0-.422.203-.766.469-.938.343-.219.765-.234 1.093-.234m0 0"/><path id="J" d="M0-4.422h-.266c0 .547-.046.61-.437.61h-4.828l.093 1.187h.266c0-.531.047-.61.438-.61h1.687a1.4 1.4 0 0 0-.469 1.079c0 1 .782 1.875 1.797 1.875.985 0 1.797-.797 1.797-1.797 0-.469-.219-.86-.5-1.125h.5Zm-.984 1.219c.14 0 .172 0 .328.125.328.219.515.578.515.953s-.187.688-.484.875c-.312.219-.703.266-1.078.266-.469 0-.797-.079-1.063-.266a1.15 1.15 0 0 1-.53-.953c0-.375.202-.766.608-1Zm0 0"/><path id="K" d="M-.953-3.516a.12.12 0 0 0-.11.125c0 .094.047.11.094.125.782.282.797.97.797 1.11 0 .36-.156.734-.531.969-.36.234-.875.234-1.11.234v-2.344c0-.172 0-.219-.187-.219-.703 0-1.547.391-1.547 1.516 0 .984.813 1.766 1.797 1.766 1.031 0 1.828-.86 1.828-1.875 0-1-.844-1.407-1.031-1.407m-1.078.547v2.016c-1.11-.078-1.297-.75-1.297-1.047 0-.937 1.125-.969 1.297-.969m0 0"/><path id="L" d="M-.719-4.094h-.437v.25h.437c.328 0 .453.11.453.281 0 .297-.359.297-.453.297h-1.656c-.781 0-1.172.75-1.172 1.485 0 .656.25 1.25.781 1.25a.36.36 0 0 0 .375-.375.36.36 0 0 0-.375-.375.356.356 0 0 0-.359.297c-.203-.297-.203-.735-.203-.782 0-.453.312-.89.969-.89h.234c.031.453.047.984.281 1.547.313.703.766.843 1.032.843.687 0 .89-.812.89-1.359a1.23 1.23 0 0 0-.64-1.11c.296-.046.609-.25.609-.609 0-.078-.031-.75-.766-.75m-.406 1.438c.781 0 .984.64.984.969 0 .406-.28.765-.671.765-.516 0-1.063-.5-1.094-1.734Zm0 0"/><path id="M" d="M-1.469-4.219a1.62 1.62 0 0 0-1.593 1.266l-.266 1.094c-.11.515-.516.89-1 .89-.547 0-1.047-.468-1.047-1.156 0-1.375 1.297-1.562 1.594-1.61.094-.015.14-.015.14-.124 0-.125-.046-.125-.203-.125h-1.562c-.125 0-.203 0-.203.109 0 .063.015.078.109.125l.453.281c-.437.406-.562.906-.562 1.344 0 .953.718 1.656 1.53 1.656.61 0 .938-.343 1.095-.5.28-.281.343-.547.547-1.406.156-.687.187-.797.468-1.062.078-.079.344-.282.735-.282.562 0 1.14.422 1.14 1.172 0 .875-.422 1.781-1.531 1.828-.125.016-.187.016-.187.125 0 .125.062.125.218.125h1.547c.14 0 .219 0 .219-.11C.172-.64.156-.64.078-.702.031-.734-.047-.766-.375-.984c.438-.5.547-1.094.547-1.578 0-.985-.797-1.657-1.64-1.657m0 0"/><path id="N" d="M0-2.078h-.266c0 .531-.03.562-.343.562h-2.907l.094 1.157h.266c0-.516.047-.578.437-.578h2.094c.36 0 .36.093.36.609H0c-.031-.313-.031-.766-.031-.89 0-.095 0-.579.031-.86m-4.797.453a.453.453 0 0 0-.453.453.45.45 0 0 0 .453.438.437.437 0 0 0 .438-.438.45.45 0 0 0-.438-.453m0 0"/><path id="O" d="M-3.203-4.11a.43.43 0 0 0-.406.454c0 .14.046.531.375.89-.141.204-.282.516-.282.891 0 .781.547 1.36 1.172 1.36.375 0 .656-.204.813-.376a.934.934 0 0 0 1.36-.094c.108.423.421.75.78.75.579 0 1.032-.827 1.032-1.874 0-1-.407-1.875-1.047-1.875-.422 0-.766.25-.89.515-.25.469-.25.86-.25 1.64v.454c-.032.25-.235.438-.532.438-.188 0-.266-.047-.328-.094.187-.344.234-.657.234-.844 0-.781-.547-1.375-1.172-1.375-.297 0-.562.14-.765.328a1.2 1.2 0 0 1-.266-.765c.016.03.063.078.188.078.14 0 .25-.11.25-.25a.25.25 0 0 0-.266-.25m.86 1.5c.296 0 .5.032.656.157a.7.7 0 0 1 .28.578c0 .734-.765.734-.937.734-.297 0-.5-.03-.656-.156a.72.72 0 0 1-.281-.578c0-.734.765-.734.937-.734m2.952-.906c.422 0 .797.61.797 1.407S1.031-.703.61-.703c-.171 0-.64-.14-.64-.781v-.766c0-.219 0-1.266.64-1.266m0 0"/><path id="P" d="M0-4.484h-.266c0 .515 0 .609-.359.609h-1.797c-.656 0-1.094.313-1.094 1.14 0 .797.579 1.157.766 1.25h-.766l.094 1.157h.266c0-.547.047-.61.437-.61h2.094c.36 0 .36.094.36.61H0c-.031-.344-.031-.688-.031-.906 0-.235 0-.563.031-.907h-.266c0 .5 0 .61-.359.61h-1.437c-.844 0-1.235-.64-1.235-1.125s.344-.61.844-.61h1.828c.36 0 .36.094.36.61H0C-.031-3-.031-3.36-.031-3.562c0-.235 0-.579.031-.922m0 0"/><path id="Q" d="M-3.016-3.062c-.28 0-.5.25-.5.609 0 .515.391.875.844 1.031v.016h-.844l.094 1.125h.266c0-.547.047-.61.437-.61h2.094c.36 0 .36.11.36.61H0c-.031-.313-.031-.75-.031-.938 0-.468 0-.484.031-1h-.266v.156c0 .579-.078.594-.375.594h-1.171c-.61 0-1.47-.25-1.485-1.015.031.046.094.14.281.14.25 0 .36-.203.36-.36 0-.187-.125-.358-.36-.358m0 0"/><path id="R" d="M1.984-2.156h-.359v.797h-7.234v-.797h-.36v1.172h7.953Zm0 0"/><path id="S" d="M0-6.828h-.266c0 .516 0 .61-.359.61h-1.797c-.64 0-1.094.28-1.094 1.14 0 .734.5 1.11.735 1.234-.578.14-.735.594-.735 1.11 0 .78.547 1.14.766 1.25h-.766l.094 1.156h.266c0-.547.047-.61.437-.61h2.094c.36 0 .36.094.36.61H0c-.031-.344-.031-.688-.031-.906 0-.235 0-.563.031-.907h-.266c0 .5 0 .61-.359.61h-1.437c-.844 0-1.235-.64-1.235-1.14 0-.517.406-.61.844-.61h1.828c.36 0 .36.11.36.61H0c-.031-.345-.031-.688-.031-.907 0-.235 0-.563.031-.906h-.266c0 .515 0 .609-.359.609h-1.437c-.844 0-1.235-.64-1.235-1.14 0-.516.406-.61.844-.61h1.828c.36 0 .36.11.36.61H0c-.031-.344-.031-.688-.031-.907 0-.234 0-.562.031-.906m0 0"/><path id="T" d="M-1-2.812h-.437v.25h.421c.547 0 .844.25.844.546 0 .532-.687.532-.812.532h-2.188v-1.188h-.265v1.188h-1.47v.25c.735 0 1.485.328 1.516 1.078h.22v-.719H-1c.938 0 1.078-.719 1.078-1.078 0-.547-.469-.86-1.078-.86m0 0"/><path id="U" d="M-1.422-3.797v.25c.156.016.547.078.703.172.063.047.063.656.063.781v1.422l-.969-1.078a9 9 0 0 1-.5-.594c-.453-.484-.89-.953-1.61-.953-.953 0-1.562.797-1.562 1.781 0 .97.719 1.594 1.438 1.594.39 0 .437-.312.437-.422 0-.172-.11-.422-.422-.422-.406 0-.406.407-.406.5-.594-.234-.781-.765-.781-1.156 0-.734.625-1.125 1.297-1.125.828 0 1.437.578 2.39 1.531l1.047 1c.078.094.094.094.297.094v-3.14Zm0 0"/><path id="V" d="M-2.547-3.89c-.844 0-1.36.078-1.875.343-.703.344-.875 1-.875 1.438 0 1 .75 1.375.969 1.484.578.281 1.375.297 1.781.297.531 0 1.328-.016 1.969-.406.594-.36.75-.953.75-1.375 0-.391-.125-1.063-.906-1.47-.578-.296-1.297-.312-1.813-.312m-.094.703c.47 0 1.188 0 1.641.093.828.172.938.719.938.985 0 .265-.125.812-.954.984-.453.094-1.203.094-1.625.094-.546 0-1.109 0-1.546-.094-.813-.172-.891-.781-.891-.984 0-.266.14-.828.86-.985.437-.094 1.046-.094 1.577-.094m0 0"/><path id="W" d="M1.984-1.36h-7.953v1.173h.36v-.797h7.234v.797h.36Zm0 0"/><path id="X" d="M13.61-7.687v-.516l-1.297.031c-.344 0-1.22 0-1.5-.031v.515c.14 0 1.187 0 1.187.172 0 0 0 .032-.047.141L9.938-2.047l-2.126-5.64h1.125v-.516c-.374.031-1.484.031-1.937.031-.375 0-1.531 0-1.828-.031v.515h1.016l.484 1.297-1.64 4.344-2.126-5.64h1.125v-.516c-.343.031-1.515.031-1.953.031-.375 0-1.515 0-1.812-.031v.515h1L4.109-.171c.079.203.11.281.375.281.266 0 .297-.078.375-.28l2.079-5.5 2.093 5.5c.063.202.094.28.36.28.234 0 .297-.046.375-.28L12.5-7.407c.094-.203.11-.282 1.11-.282m0 0"/><path id="an" d="M9.953 0v-.516h-.312c-.657 0-.703-.062-.813-.218L5.61-5.047l2.844-2.406c.156-.14.266-.234 1.328-.234v-.516L8.5-8.172c-.36 0-1.297 0-1.594-.031v.515c.266 0 .547.016.86.141l-4.47 3.813v-3.953h1.267v-.516c-.344.031-1.625.031-2.047.031-.438 0-1.72 0-2.063-.031v.515H1.72v7.172H.453V0c.344-.031 1.625-.031 2.063-.031.422 0 1.703 0 2.047.031v-.516H3.297v-2.562L4.53-4.125l2.5 3.344c.016.031.063.094.063.14 0 .125-.578.125-.844.125V0c.39-.031 1.5-.031 1.953-.031.36 0 1.485 0 1.75.031m0 0"/><path id="ba" d="M6.031-2.562h-.5c-.031.25-.11.953-.297 1.062-.093.094-1.03.094-1.203.094h-1.86l1.72-1.422c1.328-1 2.14-1.61 2.14-2.75 0-1.422-1.281-2.266-2.86-2.266-1.343 0-2.5.766-2.5 1.907 0 .625.517.812.782.812.375 0 .813-.25.813-.797 0-.516-.375-.766-.75-.812.484-.547 1.109-.594 1.359-.594 1.11 0 1.625.89 1.625 1.766 0 .921-.625 1.78-1.125 2.296L.781-.546c-.11.109-.11.124-.11.343V0h5.017Zm0 0"/><path id="bb" d="M6.14-2.469c0-1.672-1.156-2.547-2.577-2.547-.235 0-1 0-1.485 1.016v-.328c0-.734.031-1.469.375-2.11.266-.5.875-.968 1.64-.968.235 0 .657.031.954.328-.453.047-.64.39-.64.703 0 .438.312.703.702.703.313 0 .704-.203.704-.719 0-.718-.485-1.453-1.735-1.453-1.5 0-3.516.938-3.516 4.047 0 .813 0 3.938 2.829 3.938 1.578 0 2.75-.922 2.75-2.61m-1.515 0c0 1.172 0 2.14-1.25 2.14-.75 0-1.062-.655-1.11-.75-.156-.39-.156-1.343-.156-1.452 0-1.469.625-2.094 1.329-2.094 1.187 0 1.187.953 1.187 2.156m0 0"/><path id="bc" d="M5.766 0v-.516H4.14V-7.5c0-.344-.032-.344-.407-.344-.89.766-2.218.766-2.484.766h-.219v.516h.219c.422 0 1.063-.079 1.531-.235v6.281H1.125V0l2.313-.031Zm0 0"/><path id="Y" d="M7.656-6.953c.094-.344.047-.656-.14-.906-.282-.391-.985-.47-1.375-.47-.891 0-1.766.22-2.657.813-.718.485-1.218 1.282-1.421 2.079-.172.718-.235 1.453.156 1.984.406.531 1.094.781 1.844.781.593 0 1.25-.172 1.828-.531l-.25 1.14c-.125.516-.328.97-.578 1.47-.22.374-.5.75-.86 1.046-.469.39-1.031.656-1.578.656-.36 0-.719-.062-.922-.328-.11-.156-.11-.375-.11-.593.016-.157.016-.329-.062-.438a.34.34 0 0 0-.281-.125.75.75 0 0 0-.469.14.84.84 0 0 0-.265.407.98.98 0 0 0 .172.89c.28.391.812.485 1.359.485.984 0 1.984-.406 2.86-1.11.452-.359.78-.812 1.03-1.328.36-.718.61-1.468.797-2.234l.391-1.578-.672.156c-.156.344-.5.828-.687.969-.47.39-1 .547-1.532.547-.5 0-.89-.219-1.156-.563-.36-.484-.312-1.187-.14-1.86a3.62 3.62 0 0 1 1.265-1.952 2.5 2.5 0 0 1 1.547-.516c.297 0 .719.11.922.406.14.188.219.407.14.672-.046.219-.125.469-.328.64-.28.22-.546.25-.828.25l-.093.204c.187.031.468.11.53.11.36 0 .704-.188 1.016-.438.297-.25.47-.563.547-.875m0 0"/><path id="ad" d="M9.766-4.687c.234-.891.28-1.829-.188-2.454-.328-.421-.797-.671-1.328-.843-.687-.22-1.437-.235-2.219-.235l.078-.297-.078-.046-.812.374c-.875.063-1.89.313-2.766 1-.437.344-.781.829-.906 1.329-.047.234-.063.453 0 .593a.29.29 0 0 0 .266.172.56.56 0 0 0 .39-.172c.125-.093.188-.25.219-.39.078-.266.047-.469.11-.735A1.35 1.35 0 0 1 3-7.109a3.32 3.32 0 0 1 2.125-.735L4.203-4.14c-.14.579-.297 1.172-.562 1.75-.141.344-.36.704-.657.954-.609.5-1.328.796-2.015.796l-.485.594h3.47c1.25 0 2.53-.484 3.624-1.36 1.094-.859 1.875-2.046 2.188-3.28m-.891.062c-.156.625-.36 1.25-.703 1.828-.266.485-.61.938-1.047 1.281a3.5 3.5 0 0 1-1.297.704c-.578.171-1.156.171-1.719.171H2.656l-.015-.125.53-.437c.517-.438.923-1 1.235-1.563a9.8 9.8 0 0 0 .844-2.28l.688-2.798c.593 0 1.14.047 1.671.219.391.125.75.297 1 .61.47.624.485 1.515.266 2.39m0 0"/><path id="ah" d="M5.14-1.281c0-.063-.077-.157-.14-.157-.062 0-.094.032-.156.125C3.89-.125 2.594-.125 2.454-.125c-.938 0-1.048-1.016-1.048-1.39 0-.141.016-.516.203-1.25h.625c.344 0 1.235-.016 1.829-.266.843-.36.89-1.063.89-1.235 0-.53-.453-1.015-1.266-1.015-1.328 0-3.14 1.156-3.14 3.25C.547-.812 1.25.125 2.422.125 4.14.125 5.14-1.141 5.14-1.281m-.577-2.985c0 1.235-1.907 1.235-2.407 1.235h-.484c.469-1.813 1.703-1.985 2.016-1.985.562 0 .874.344.874.75m0 0"/><path id="ai" d="M6.531-1.703c0-.125-.11-.125-.14-.125-.125 0-.125.031-.188.219-.172.625-.562 1.484-1.219 1.484-.203 0-.28-.125-.28-.406 0-.297.109-.578.202-.844.203-.516.735-1.937.735-2.625 0-.781-.485-1.281-1.375-1.281-.75 0-1.328.375-1.766.922l.938-3.797s0-.14-.157-.14c-.281 0-1.156.093-1.469.124-.093.016-.218.016-.218.235 0 .14.11.14.281.14.578 0 .594.094.594.203l-.031.25L.702-.469C.656-.297.656-.28.656-.203c0 .281.235.328.344.328.188 0 .39-.14.453-.297l.219-.922.266-1.062c.078-.266.14-.531.203-.813.015-.062.125-.469.125-.531.046-.11.406-.781.812-1.11.266-.187.64-.406 1.156-.406s.641.407.641.829c0 .656-.453 1.953-.734 2.687-.094.266-.157.406-.157.656 0 .563.422.969.97.969 1.124 0 1.577-1.734 1.577-1.828m0 0"/><path id="ak" d="M7.266-6.625c.109-.437.125-.844-.125-1.156-.328-.453-.953-.547-1.578-.547-.938 0-1.922.25-2.75.922-.547.406-.954.922-1.282 1.484A8 8 0 0 0 .688-3.75C.53-3.14.438-2.516.484-1.953c.047.5.157.953.438 1.312.39.532 1.047.813 1.797.813.812 0 1.719-.203 2.437-.781.235-.188.422-.422.578-.641l-.406-.562-.156.078c-.156.359-.36.734-.688 1-.406.312-.906.5-1.359.5-.531 0-.969-.25-1.234-.61-.282-.375-.407-.86-.438-1.344-.062-.593.031-1.234.188-1.859.172-.687.39-1.36.75-2.016.25-.468.578-.906 1.03-1.265a2.96 2.96 0 0 1 1.845-.625c.406 0 .812.11 1.03.406.22.297.204.656.11 1.063-.11.422-.312.875-.687 1.187-.297.234-.625.39-.969.39-.14 0-.328 0-.422-.124-.11-.14-.047-.36.047-.547.078-.172.156-.36.078-.5-.078-.094-.203-.125-.344-.125s-.296.016-.421.125a.8.8 0 0 0-.235.437c-.062.266-.047.516.094.688.25.328.703.406 1.156.406.531 0 1.125-.172 1.594-.562.5-.407.828-.953.969-1.516m0 0"/><path id="al" d="M12.234-7.672c.047-.14.032-.578-.546-.578-.47 0-.782.188-1.22.5a5.3 5.3 0 0 0-1.14 1.219 9.4 9.4 0 0 0-.969 1.89H5.641l.797-3.093L7.094-8l.062-.203a38 38 0 0 0-1.39-.031c-.5 0-.922.062-1.438.172a3.2 3.2 0 0 0-1.219.609c-.484.36-.921.828-1.062 1.375-.047.187-.078.36-.094.562 0 .11 0 .235.078.313.047.078.125.156.25.156.156 0 .297-.11.438-.219a.49.49 0 0 0 .172-.328l.015-.484c.016-.14.016-.297.063-.453.078-.313.36-.563.61-.782.265-.203.562-.296.858-.359a5.5 5.5 0 0 1 1.235-.125l-.844 3.36c-.187.765-.422 1.546-.781 2.296-.203.47-.516.954-.938 1.297-.328.266-.75.407-1 .407-.203 0-.406-.016-.515-.172A1 1 0 0 1 1.5-.906a.75.75 0 0 0-.094-.281c-.062-.079-.218-.079-.343-.079a.57.57 0 0 0-.375.125.5.5 0 0 0-.188.297c-.062.25 0 .469.14.625.188.25.5.297.844.297.75 0 1.454-.36 2.11-.89.484-.375.89-.86 1.156-1.391.313-.625.578-1.313.781-1.985h2.672c-.172.5-.36 1.11-.453 1.47-.125.546-.25 1.077-.266 1.609 0 .359.094.703.266.968.156.172.39.235.656.235.422 0 .766-.172 1.125-.453.203-.172.406-.375.703-.672l-.187-.203a8 8 0 0 1-.656.593c-.141.141-.422.282-.563.282-.156 0-.25-.032-.328-.141-.156-.234-.172-.562-.172-.89a7.3 7.3 0 0 1 .297-1.594c.234-.985.484-1.97.89-2.922.126-.328.282-.594.5-.922.188-.266.376-.422.579-.578a.8.8 0 0 1 .5-.188c.172 0 .234.094.328.203a.3.3 0 0 0 .265.157.576.576 0 0 0 .547-.438m0 0"/><path id="Z" d="M7.406 0 4.391-8.297H3.328L.328 0h.875l.875-2.422h3.375L6.328 0ZM5.203-3.094h-2.86l1.423-4.344Zm0 0"/><path id="aa" d="M1.813 0v-8.297H.938V0Zm0 0"/><path id="ab" d="M4.86-2.687c0-.516-.048-1.25-.423-1.876-.5-.828-1.328-.921-1.671-.921C1.469-5.484.39-4.25.39-2.687.39-1.11 1.547.124 2.92.124c.563 0 1.22-.156 1.876-.64 0-.047-.047-.438-.047-.438s-.031-.281-.031-.328c-.703.593-1.407.687-1.766.687-.922 0-1.703-.828-1.734-2.093Zm-.704-.641h-2.86c.204-.813.767-1.438 1.47-1.438.359 0 1.187.157 1.39 1.438m0 0"/><path id="ac" d="M5.063 0v-5.312h-.907v3.421c0 .907-.625 1.36-1.406 1.36-.844 0-.922-.313-.922-.844v-3.937H.922v3.984c0 .86.265 1.453 1.25 1.453.344 0 1.281-.062 2.015-.719V0Zm0 0"/><path id="ae" d="M2.14.703v-6.015h-.89v6.14c0 .781-.625.86-.875.86-.531 0-.86-.344-.875-.375l-.234.718c.375.235.859.406 1.406.406.75 0 1.469-.624 1.469-1.734m0-7.5v-1.016H1.11v1.016Zm0 0"/><path id="af" d="M4.797 0v-3.5c0-1.156-.828-1.984-1.938-1.984-.718 0-1.25.172-1.843.5l.078.78c.515-.374 1.062-.593 1.765-.593.547 0 1.032.453 1.032 1.313v.5c-.547.015-1.266.062-1.985.297C1.11-2.422.641-1.97.641-1.375c0 .531.312 1.5 1.328 1.5.656 0 1.5-.203 1.937-.562V0ZM3.89-1.61c0 .25 0 .532-.407.766-.312.203-.718.25-.906.25-.64 0-1.078-.343-1.078-.797 0-.812 1.656-.984 2.39-.984Zm0 0"/><path id="ag" d="M2.11-.016v-.953h-.97V0h.298L1.14 1.5h.468Zm0 0"/><path id="aj" d="M2.11 0v-.969h-.97V0Zm0 0"/><path id="ao" d="M7.75-4.078c0-2.328-1.578-4.219-3.594-4.219H1.094V0h3.062c2 0 3.594-1.812 3.594-4.078m-1-.016c0 2.188-1.328 3.422-2.86 3.422H2.095v-6.953H3.89c1.593 0 2.859 1.375 2.859 3.531m0 0"/><path id="ap" d="M4.86-.5c0-.031-.032-.406-.048-.453l-.015-.344a2.8 2.8 0 0 1-1.828.672c-1 0-1.64-.875-1.64-2.047 0-.984.484-2.078 1.671-2.078.797 0 1.14.203 1.656.547l.14-.781c-.702-.407-1.093-.5-1.796-.5-1.656 0-2.578 1.453-2.578 2.812C.422-1.14 1.516.125 2.953.125c.578 0 1.25-.156 1.906-.625m0 0"/><path id="aq" d="M5.063 0v-3.594c0-.734-.157-1.828-1.594-1.828-.828 0-1.375.469-1.656.813v-3.688H.922V0h.906v-2.969c0-.75.281-1.734 1.188-1.734 1.109 0 1.14.766 1.14 1.187V0Zm0 0"/><path id="ar" d="M7.766-5.312H6.89l-.703 2.437c-.172.563-.516 1.688-.563 2.203-.047-.281-.234-1.078-.484-1.937l-.797-2.703H3.53L2.844-2.97c-.219.75-.5 1.781-.531 2.282h-.016c-.016-.235-.14-.86-.375-1.672l-.844-2.953H.172L1.766 0h.922c.453-1.5 1.156-3.781 1.218-4.61h.016c.015.485.265 1.344.344 1.626L5.109 0h1.063Zm0 0"/><path id="as" d="m3.688-5.36-.485-.515-.828.719v-3.14H1.5v3.874L.328-3.375l.453.547.719-.656V0h.875v-4.234Zm0 0"/><path id="at" d="M4.86-2.687c0-.516-.048-1.25-.423-1.876-.5-.828-1.328-.921-1.671-.921C1.469-5.484.39-4.25.39-2.687.39-1.141 1.5.078 2.844.124c-.531.344-.875.828-.828 1.39 0 .516.375 1.016 1.172 1.016.39 0 .703-.062 1.171-.297l-.156-.703c-.266.11-.547.172-.812.172-.328-.031-.625-.094-.625-.453-.016-.531.5-.969 1.047-1.281.328-.094.64-.25.984-.485 0-.046-.047-.437-.047-.437s-.031-.281-.031-.328c-.703.593-1.407.687-1.766.687-.922 0-1.703-.828-1.734-2.093Zm-.704-.641h-2.86c.204-.813.767-1.438 1.47-1.438.359 0 1.187.157 1.39 1.438m0 0"/><path id="au" d="M6.797-5.875c0-1.266-1.172-2.422-2.797-2.422H1.094V0h1.015v-3.453H4c1.656 0 2.797-1.188 2.797-2.422m-.953-.016c0 .938-.735 1.75-2.094 1.75H2.094v-3.484H3.75c1.406 0 2.094.828 2.094 1.734m0 0"/><path id="av" d="M5.063 0v-3.594c0-.734-.157-1.828-1.594-1.828-.672 0-1.25.297-1.703.875v-.812H.922V0h.906v-2.969c0-.75.281-1.734 1.188-1.734 1.109 0 1.14.766 1.14 1.187V0Zm0 0"/><path id="aw" d="M5.063 0v-8.297h-.891v3.485a2.65 2.65 0 0 0-1.688-.61c-1.14 0-2.062 1.219-2.062 2.766S1.297.125 2.437.125c.438 0 1.11-.156 1.704-.734V0ZM4.14-1.406c-.282.515-.703.812-1.22.812-.733 0-1.593-.562-1.593-2.047 0-1.593 1.016-2.062 1.703-2.062.469 0 .86.234 1.11.625Zm0 0"/><path id="ax" d="M4.203-1.516c0-.609-.36-1-.406-1.046-.453-.47-.813-.532-1.531-.672-.438-.094-1.047-.203-1.047-.813 0-.734.843-.734 1-.734.625 0 1.125.14 1.656.437l.14-.765a3.9 3.9 0 0 0-1.687-.375c-.265 0-1.937 0-1.937 1.547 0 .53.297.89.468 1.062.438.36.735.422 1.438.563.39.093 1.078.234 1.078.859 0 .828-.922.828-1.094.828A3.12 3.12 0 0 1 .47-1.219l-.14.813c.046.031.859.531 1.968.531 1.547 0 1.906-.937 1.906-1.64m0 0"/><path id="ay" d="M4.703 0v-.734H2.984c-.14 0-.28.015-.421.015H1.547l3.11-4.125v-.468H.483v.703h2.953L.329-.484V0Zm0 0"/><path id="az" d="M5.484-2.625c0-1.625-1.187-2.86-2.562-2.86-1.406 0-2.563 1.266-2.563 2.86 0 1.563 1.188 2.75 2.563 2.75 1.406 0 2.562-1.219 2.562-2.75m-.906-.125c0 1.469-.844 2.125-1.656 2.125-.86 0-1.656-.719-1.656-2.125 0-1.453.89-2.016 1.656-2.016.812 0 1.656.625 1.656 2.016m0 0"/><path id="aA" d="M8.328 0v-3.594c0-.828-.219-1.828-1.61-1.828-1.015 0-1.577.703-1.765.969-.203-.766-.86-.969-1.484-.969-.985 0-1.5.625-1.703.875v-.812H.922V0h.906v-2.969c0-.797.313-1.734 1.188-1.734 1.093 0 1.156.75 1.156 1.187V0h.906v-2.969c0-.797.313-1.734 1.188-1.734 1.093 0 1.156.75 1.156 1.187V0Zm0 0"/><path id="aB" d="m3.89-.344-.171-.703c-.422.375-.86.422-1.078.422-.532 0-.594-.562-.594-.984v-3h1.64v-.703h-1.64v-1.516h-.828v1.516h-1v.703h.969v3.203c0 .703.156 1.531.984 1.531.797 0 1.36-.281 1.719-.469m0 0"/><path id="aC" d="M5.172-5.312h-.89c-.548 1.421-1.47 3.765-1.516 4.625H2.75c-.062-.72-.687-2.282-.797-2.532L1.11-5.312H.172L2.39 0l-.422 1.094c-.266.593-.438.656-.657.656-.171 0-.546-.047-.921-.187l.078.78c.062.016.469.095.844.095.296 0 .843 0 1.359-1.313Zm0 0"/><path id="aD" d="M3.797-4.625v-.797c-1.078 0-1.719.64-2.047 1.11V-5.36H.938V0h.875v-2.625c0-1.203.906-1.984 1.984-2m0 0"/><path id="aE" d="M4.531-1.766v-6.53h-1v6.483c0 .688-.344 1.329-1.39 1.329a1.96 1.96 0 0 1-1.485-.657L.484-.25c.704.36 1.375.5 2 .5 1.25 0 2.047-.734 2.047-2.016m0 0"/><path id="aF" d="m5.672-4.703-.125-.719c-.234 0-1.047 0-1.828.39-.39-.327-.875-.39-1.11-.39-1.046 0-1.875.875-1.875 1.922 0 .422.125.828.391 1.188a1.64 1.64 0 0 0-.344 1.015c0 .453.156.75.297.906C.468 0 .328.516.328.844c0 .875 1.125 1.61 2.594 1.61 1.453 0 2.594-.704 2.594-1.61 0-1.688-1.938-1.688-2.422-1.688H2.078c-.172 0-.672 0-.672-.625 0-.265.047-.343.11-.437.203.14.593.343 1.078.343 1.031 0 1.875-.859 1.875-1.937a2.13 2.13 0 0 0-.36-1.156 7 7 0 0 1 .954-.063c.046 0 .312 0 .609.016M3.64-3.5c0 1.063-.672 1.281-1.032 1.281-.53 0-1.062-.36-1.062-1.265 0-1.063.672-1.282 1.047-1.282.531 0 1.047.36 1.047 1.266M4.688.844c0 .562-.829.953-1.766.953-.922 0-1.766-.375-1.766-.953 0-.047 0-.813.907-.813h1.046c.266 0 1.579 0 1.579.813m0 0"/><path id="aG" d="M4.203-1.516c0-.609-.36-1-.406-1.046-.453-.47-.813-.532-1.531-.672-.438-.094-1.047-.203-1.047-.813 0-.734.843-.734 1-.734.625 0 1.125.14 1.656.437l.14-.765a3.9 3.9 0 0 0-1.687-.375c-.265 0-1.937 0-1.937 1.547 0 .53.297.89.468 1.062.438.36.735.422 1.438.563.39.093 1.078.234 1.078.859 0 .828-.922.828-1.094.828A3.12 3.12 0 0 1 .47-1.219l-.14.813c.046.031.859.531 1.968.531 1.547 0 1.906-.937 1.906-1.64m-.312-6.78h-.922l-1.547 2h.719Zm0 0"/><path id="aH" d="M1.813 0v-5.312H.938V0Zm.078-6.797v-1.016H.859v1.016Zm0 0"/><path id="aI" d="M2.11-4.344v-.968h-.97v.968Zm0 4.328v-.953h-.97V0h.298L1.14 1.5h.468Zm0 0"/><path id="aJ" d="M5.563-2.672c0-1.437-.75-2.75-1.875-2.75-.485 0-1.25.156-1.876.672v-.562H.939v7.625h.906V-.531c.406.36.906.656 1.547.656 1.156 0 2.172-1.172 2.172-2.797m-.907.016c0 1.203-.812 2.062-1.703 2.062-.328 0-.562-.125-.781-.297-.297-.25-.328-.468-.328-.656v-2.469a1.47 1.47 0 0 1 1.219-.671c.874 0 1.593.89 1.593 2.03m0 0"/><path id="aK" d="M4.703 0v-.734H2.984c-.14 0-.28.015-.421.015H1.547l3.11-4.125v-.468H.483v.703h2.953L.329-.484V0ZM3.047-6.797v-1.016H2.016v1.016Zm0 0"/><path id="aL" d="M4.86-.5c0-.031-.032-.406-.048-.453l-.015-.344a2.8 2.8 0 0 1-1.828.672c-1 0-1.64-.875-1.64-2.047 0-.984.484-2.078 1.671-2.078.797 0 1.14.203 1.656.547l.14-.781c-.702-.407-1.093-.5-1.796-.5-1.656 0-2.578 1.453-2.578 2.812C.422-1.14 1.516.125 2.953.125c.578 0 1.25-.156 1.906-.625M4.5-8.297h-.922l-1.547 2h.719Zm0 0"/><path id="aM" d="M5.563-2.672c0-1.469-.782-2.75-1.891-2.75-.344 0-1.11.063-1.86.672v-3.547H.939V0h.906v-.531c.547.515 1.125.656 1.547.656 1.14 0 2.172-1.172 2.172-2.797m-.907 0c0 1.563-.968 2.078-1.703 2.078-.328 0-.562-.125-.781-.297-.281-.25-.328-.453-.328-.656V-4.03c.218-.328.64-.672 1.234-.672.719 0 1.578.547 1.578 2.031m0 0"/><path id="aN" d="M7.11-2.25c0-1.047-1.032-1.89-2.266-2.094 1.39-.375 1.937-1.172 1.937-1.875 0-1.078-1.218-2.078-2.906-2.078H1.109V0h3.094C5.875 0 7.11-1.078 7.11-2.25M5.86-6.203c0 .844-1.032 1.531-2.298 1.531H2.079v-2.953h1.469c1.281 0 2.312.625 2.312 1.422m.312 3.937c0 .844-.969 1.594-2.313 1.594H2.08v-3.281h1.593c1.547 0 2.5.86 2.5 1.687m0 0"/><path id="aO" d="M5.469 0 3.25-3.266l1.969-2.046h-1.11L1.813-2.906v-5.39H.938V0h.828v-1.719l.906-.953L4.5 0Zm0 0"/><path id="aP" d="M7.094 0v-8.297h-.907V-.89h-.015l-.969-2-2.64-5.406h-1.47V0h.923v-7.406l.968 2L5.625 0Zm0 0"/><path id="aQ" d="M4.047-7.5v-.797c-.078-.015-.469-.125-.922-.125-1.125 0-1.937.875-1.937 2.031v1.079H.313v.703h.875V0h.875v-4.61h1.28v-.702H2.048v-1.422c0-.813.672-.97 1.078-.97s.781.141.922.204m0 0"/><path id="aR" d="M5.484-2.625c0-1.625-1.187-2.86-2.562-2.86-1.406 0-2.563 1.266-2.563 2.86 0 1.563 1.188 2.75 2.563 2.75 1.406 0 2.562-1.219 2.562-2.75m-.906-.125c0 1.469-.844 2.125-1.656 2.125-.86 0-1.656-.719-1.656-2.125 0-1.453.89-2.016 1.656-2.016.812 0 1.656.625 1.656 2.016m-.016-5.547h-.906l-1.547 2h.72Zm0 0"/><path id="aS" d="M2.11-4.344v-.968h-.97v.968ZM2.11 0v-.969h-.97V0Zm0 0"/><path id="aT" d="m5.219 2.234-.157-.703c-.265.11-.546.172-.812.172-.328-.031-.61-.094-.625-.453C3.609.719 4.109.313 4.656 0h.14v-3.5c0-1.156-.827-1.984-1.937-1.984-.718 0-1.25.172-1.843.5l.078.78c.515-.374 1.062-.593 1.765-.593.547 0 1.032.453 1.032 1.313v.5c-.547.015-1.266.062-1.985.297C1.11-2.422.641-1.97.641-1.375c0 .531.312 1.5 1.328 1.5.656 0 1.5-.203 1.937-.562V0c-.594.328-1.078.906-1.031 1.516 0 .515.375 1.015 1.172 1.015.406 0 .703-.062 1.172-.297M3.89-1.609c0 .25 0 .53-.407.765-.312.203-.718.25-.906.25-.64 0-1.078-.343-1.078-.797 0-.812 1.656-.984 2.39-.984Zm0 0"/><path id="aU" d="M7.547-7.484v-.75H.422v.75H2c.14 0 .281-.016.422-.016h1.062V0H4.5v-7.5h1.063c.14 0 .28.016.421.016Zm0 0"/><path id="aV" d="M5.063 0v-3.594c0-.734-.157-1.828-1.594-1.828-.672 0-1.25.297-1.703.875v-.812H.922V0h.906v-2.969c0-.75.281-1.734 1.188-1.734 1.109 0 1.14.766 1.14 1.187V0ZM4.64-8.297h-.907l-1.562 2h.719Zm0 0"/><path id="aW" d="M5.844-2.266c0-.765-.375-1.328-.625-1.625-.563-.593-1-.718-1.797-.921-.813-.204-1.11-.266-1.375-.516-.156-.172-.485-.469-.485-1 0-.734.657-1.438 1.72-1.438 1.015 0 1.546.391 1.984.766l.172-.953c-.485-.266-1.094-.594-2.157-.594-1.594 0-2.64 1.14-2.64 2.344 0 .844.515 1.39.578 1.453.593.61 1 .703 1.75.906 1.031.25 1.187.297 1.578.688.203.219.375.594.375 1.015 0 .829-.672 1.594-1.703 1.594a3.75 3.75 0 0 1-2.516-1l-.172.969A4.9 4.9 0 0 0 3.22.25C4.75.25 5.844-.937 5.844-2.266m0 0"/><path id="aX" d="M7.547 0 4.28-5.016l3.125-3.28H6.281L2.094-3.892v-4.406h-1V0h1v-2.703L3.64-4.328 6.453 0Zm0 0"/><path id="am" d="M4.344-5.125H2.25c-.312 0-.406-.016-.687-.031-.422-.047-.438-.094-.454-.235H.844L.563-3.687h.265c.016-.11.094-.641.219-.72.062-.046.719-.046.828-.046h1.75l-.844 1.047C1.75-2.031 1.656-.766 1.656-.296c0 .093 0 .452.375.452s.375-.36.375-.453v-.328c0-1.547.313-2.25.656-2.687l1.204-1.5c.078-.094.078-.11.078-.313m0 0"/><path id="bd" d="M4.563 0v-.437H3.266v-5.157c0-.187 0-.297-.266-.297-.11 0-.125 0-.203.063-.688.516-1.656.516-1.828.516H.797v.437h.172a4.2 4.2 0 0 0 1.203-.172v4.61H.89V0c.343-.031 1.422-.031 1.828-.031.422 0 1.484 0 1.844.031m0 0"/><path id="be" d="M4.86-2.953c0-.469-.032-1.39-.485-2.094-.297-.437-.828-.844-1.719-.844-1.281 0-2.218.72-2.218 1.938 0 1.125.765 1.937 2.093 1.937.406 0 .781-.203 1.063-.687v.172c0 .578-.063 1.156-.235 1.531-.109.234-.468.703-1.171.703-.079 0-.454 0-.735-.187a.55.55 0 0 0 .422-.563c0-.375-.281-.578-.578-.578-.25 0-.594.14-.594.594 0 .61.469 1.14 1.5 1.14 1.25 0 2.656-.796 2.656-3.062m-1.266-.89c0 .406-.172 1.452-1.031 1.452-.86 0-.86-.656-.86-1.53 0-.876 0-1.61.984-1.61.563 0 .766.515.797.593.11.297.11.782.11 1.094m0 0"/><path id="bf" d="M4.766-2.016h-.453c-.016.125-.094.766-.235.829-.11.046-.781.046-.937.046H1.859c.485-.39 1.016-.812 1.47-1.125.75-.53 1.437-1.015 1.437-1.89 0-1.047-.953-1.735-2.25-1.735-1.11 0-1.985.532-1.985 1.36 0 .468.36.687.672.687a.65.65 0 0 0 .656-.672c0-.203-.078-.53-.468-.64.312-.25.718-.282.89-.282.735 0 1.203.547 1.203 1.282 0 .656-.375 1.234-.859 1.718l-2 1.985c-.094.094-.094.11-.094.281V0H4.5Zm0 0"/><path id="bg" d="M2.016 1.734v-.328h-.72V-4.89h.72v-.328H.953v6.953Zm0 0"/><path id="bh" d="M3.578-1.172c0-.469-.265-.86-.672-1.094l-.437-.25c.547-.265.89-.593.89-1.078 0-.672-.703-1.031-1.375-1.031-.765 0-1.39.5-1.39 1.156 0 .328.156.563.281.703.125.157.172.188.578.422-.39.172-1.078.547-1.078 1.281 0 .766.797 1.204 1.594 1.204.89 0 1.61-.563 1.61-1.313M3-3.594c0 .625-.734.938-.734.938s-.032 0-.079-.031l-.843-.485c-.188-.11-.375-.297-.375-.562 0-.438.5-.688 1-.688.547 0 1.031.344 1.031.828m.156 2.657c0 .53-.578.859-1.172.859-.64 0-1.187-.422-1.187-.984 0-.516.375-.922.875-1.141.39.219.406.219.969.547.172.11.515.312.515.718m0 0"/><path id="bi" d="M1.531-.39a.403.403 0 0 0-.406-.407.4.4 0 0 0-.406.39c0 .25.203.407.406.407a.4.4 0 0 0 .406-.39m0 0"/><path id="bj" d="M3.516-1.266H3.28c-.015.157-.094.563-.187.625-.047.047-.578.047-.688.047H1.125c.734-.64.984-.843 1.39-1.172.516-.406 1-.843 1-1.5 0-.843-.734-1.359-1.624-1.359-.86 0-1.453.61-1.453 1.25 0 .344.296.39.375.39.156 0 .359-.124.359-.374 0-.125-.047-.375-.406-.375.218-.485.687-.641 1.015-.641.703 0 1.063.547 1.063 1.11 0 .609-.438 1.078-.656 1.328L.516-.266C.437-.203.437-.187.437 0h2.876Zm0 0"/><path id="bk" d="M1.297 1.734v-6.953H.219v.328h.734v6.297H.22v.328Zm0 0"/><path id="bl" d="M7.813-1.75v-.203H.109v.203Zm0 0"/><path id="bm" d="M3.578-2.297c0-1.719-.765-2.328-1.578-2.328a1.55 1.55 0 0 0-1.11.422c-.234.234-.515.5-.515 1.125 0 .89.703 1.547 1.516 1.547.562 0 .859-.375 1.015-.688v.14c0 1.735-.844 2-1.265 2-.157 0-.532-.015-.72-.233a.315.315 0 0 0 .313-.329.32.32 0 0 0-.328-.328c-.203 0-.328.14-.328.344 0 .469.39.766 1.063.766 1 0 1.937-.938 1.937-2.438M2.891-3c0 .906-.516 1.266-.953 1.266-.282 0-.532-.079-.735-.407-.156-.25-.156-.546-.156-.937 0-.406 0-.672.203-.953.172-.25.39-.39.75-.39s.578.218.688.405c.187.282.203.782.203 1.016m0 0"/><path id="bn" d="M2.516 0v-.25h-.172c-.578 0-.578-.078-.578-.328v-3.61c0-.234 0-.328.578-.328h.172v-.25l-1.078.032-1.079-.032v.25h.172c.578 0 .578.094.578.329v3.609c0 .25 0 .328-.578.328H.36V0l1.079-.031Zm0 0"/><path id="bo" d="M3.594-2.219c0-.765-.094-1.328-.406-1.812-.22-.313-.657-.594-1.204-.594C.36-4.625.36-2.719.36-2.219s0 2.36 1.625 2.36c1.61 0 1.61-1.86 1.61-2.36m-.625-.094c0 .516 0 1.032-.094 1.47-.14.64-.61.78-.89.78-.329 0-.75-.187-.891-.75C1-1.219 1-1.796 1-2.312c0-.515 0-1.046.094-1.421.156-.547.593-.703.89-.703.375 0 .735.234.86.64.11.375.125.875.125 1.485m0 0"/><path id="bp" d="M3.578-1.422c0-.89-.703-1.547-1.515-1.547-.563 0-.86.375-1.016.688 0-.563.047-1.078.312-1.516.235-.375.61-.625 1.063-.625.203 0 .484.047.625.234-.172.016-.328.141-.328.344a.32.32 0 0 0 .328.328c.219 0 .344-.14.344-.343 0-.407-.297-.766-.985-.766-1 0-2.031.922-2.031 2.422C.375-.406 1.219.14 2 .14c.844 0 1.578-.657 1.578-1.563m-.672 0c0 .39 0 .688-.187.969A.82.82 0 0 1 2-.078c-.36 0-.625-.203-.781-.516-.094-.203-.157-.562-.157-.968 0-.688.407-1.204.97-1.204.312 0 .53.125.702.375.172.266.172.563.172.97m0 0"/><path id="bq" d="M5.547 0v-.25h-.125c-.469 0-.516-.078-.594-.266L3.125-4.812c-.031-.11-.062-.157-.187-.157-.141 0-.157.047-.204.157L1.125-.734C1.063-.562.938-.25.313-.25V0c.234-.016.484-.031.718-.031.282 0 .797.031.844.031v-.25c-.312 0-.516-.14-.516-.328 0-.063.016-.078.047-.14l.328-.86H3.72l.406 1.016c0 .03.031.078.031.109 0 .203-.375.203-.562.203V0l1.031-.031c.328 0 .86.031.922.031M3.609-1.828H1.83l.89-2.266Zm0 0"/><path id="br" d="M4.047 0v-.25c-.469 0-.516-.047-.516-.39v-4.204l-1.047.078v.25c.47 0 .516.063.516.391v1.453a1.37 1.37 0 0 0-.969-.406c-.937 0-1.703.703-1.703 1.578S1.062.063 1.938.063c.578 0 .921-.297 1.03-.422v.422ZM2.969-.734c-.172.328-.531.609-.985.609-.39 0-.671-.234-.812-.437-.14-.204-.219-.485-.219-.922 0-.172 0-.688.281-1.016.282-.312.625-.375.829-.375.328 0 .64.156.828.406.078.11.078.11.078.25Zm0 0"/><path id="bs" d="M5.469-2.75V-3c-.188.016-.313.031-.5.031-.219 0-.485-.015-.688-.031v.25c.235 0 .36.14.36.297 0 .062 0 .078-.047.172L3.922-.547l-.75-1.906a.3.3 0 0 1-.031-.125c0-.156.172-.172.375-.172V-3c-.25.016-.5.031-.75.031-.203 0-.422-.015-.625-.031v.25c.172 0 .312 0 .406.047.094.078.156.312.156.312s-.015.063-.031.079L2.016-.641l-.703-1.812c-.032-.094-.032-.094-.032-.125 0-.172.25-.172.375-.172V-3s-.515.031-.797.031C.641-2.969.422-2.984.203-3v.25c.281 0 .438 0 .5.203l.969 2.453c.047.11.062.157.203.157.125 0 .14-.047.172-.141l.797-1.984.765 1.968c.047.094.063.157.204.157.124 0 .14-.047.187-.157l.875-2.234c.14-.344.375-.422.594-.422m0 0"/><path id="bt" d="M3.266-.844c0-.015-.016-.094-.125-.094-.094 0-.11.047-.125.11-.22.562-.75.672-1 .672-.328 0-.641-.14-.844-.406-.266-.329-.266-.75-.266-1.032h2.157c.156 0 .203 0 .203-.14 0-.625-.344-1.375-1.391-1.375a1.59 1.59 0 0 0-1.61 1.578c0 .89.782 1.594 1.704 1.594.937 0 1.297-.75 1.297-.907m-.485-.922H.906c.078-.984.703-1.14.969-1.14.86 0 .89.969.906 1.14m0 0"/><path id="bu" d="M4.11 0v-.25c-.454 0-.516 0-.516-.297v-1.562c0-.61-.297-.97-1.047-.97-.578 0-.938.313-1.14.688v-.687L.374-3v.25c.469 0 .531.047.531.39v1.813c0 .297-.078.297-.531.297V0s.5-.031.797-.031c.25 0 .734.031.797.031v-.25c-.453 0-.516 0-.516-.297v-1.265c0-.72.578-1.063 1.031-1.063.485 0 .547.375.547.734v1.594c0 .297-.062.297-.515.297V0s.5-.031.797-.031c.25 0 .734.031.796.031m0 0"/><path id="bv" d="M2.61-.875v-.39h-.235v.374c0 .485-.219.735-.5.735-.469 0-.469-.578-.469-.703V-2.75h1.078V-3H1.406v-1.281h-.25c0 .625-.281 1.312-.953 1.328v.203h.64v1.875c0 .781.595.938.985.938.469 0 .781-.391.781-.938m0 0"/><path id="bw" d="M3.516-1.406c0-.782-.594-1.5-1.453-1.5-.313 0-.672.062-.985.328v-1.313c.36.094.563.094.672.094.922 0 1.469-.625 1.469-.734 0-.078-.047-.094-.078-.094 0 0-.032 0-.063.016-.172.062-.531.203-1.047.203-.203 0-.562-.016-1.015-.188-.079-.031-.094-.031-.094-.031-.094 0-.094.078-.094.188v2.046c0 .125 0 .204.11.204.062 0 .078 0 .14-.094.297-.375.734-.438.969-.438.422 0 .61.328.64.39.126.235.172.5.172.907 0 .203 0 .61-.218.922a.98.98 0 0 1-.813.422c-.453 0-.922-.25-1.094-.719.266.016.407-.156.407-.344 0-.296-.266-.343-.36-.343 0 0-.343 0-.343.375 0 .625.578 1.25 1.406 1.25.89 0 1.672-.657 1.672-1.547m0 0"/><clipPath id="b"><path d="M.535.266h6.883v9.636H.535Zm0 0"/></clipPath><clipPath id="a"><path d="M0 0h8v10H0z"/></clipPath><clipPath id="aY"><path d="M15.023 568.348H403v11.336H15.023Zm0 0"/></clipPath><linearGradient id="aZ" x1="0" x2="388.063" y1="0" y2="0" gradientTransform="matrix(1 0 0 -1 15.024 579.685)" gradientUnits="userSpaceOnUse"><stop offset="0" stop-color="#fcf2a8"/><stop offset=".25" stop-color="#fcf2a8"/><stop offset=".313" stop-color="#fcf2a8"/><stop offset=".344" stop-color="#fcf2a8"/><stop offset=".352" stop-color="#fcf2a8"/><stop offset=".355" stop-color="#fcf2a5"/><stop offset=".359" stop-color="#fcf1a2"/><stop offset=".363" stop-color="#fcf09a"/><stop offset=".367" stop-color="#fcee92"/><stop offset=".371" stop-color="#fced8a"/><stop offset=".375" stop-color="#fceb82"/><stop offset=".379" stop-color="#fcea7a"/><stop offset=".383" stop-color="#fce872"/><stop offset=".387" stop-color="#fce66a"/><stop offset=".391" stop-color="#fce562"/><stop offset=".395" stop-color="#fce45c"/><stop offset=".398" stop-color="#fce357"/><stop offset=".406" stop-color="#fce357"/><stop offset=".438" stop-color="#fce357"/><stop offset=".5" stop-color="#fce357"/><stop offset=".563" stop-color="#fce357"/><stop offset=".566" stop-color="#fce45d"/><stop offset=".57" stop-color="#fce563"/><stop offset=".574" stop-color="#fce76b"/><stop offset=".578" stop-color="#fce873"/><stop offset=".582" stop-color="#fcea7b"/><stop offset=".586" stop-color="#fceb83"/><stop offset=".59" stop-color="#fced8b"/><stop offset=".594" stop-color="#fcee93"/><stop offset=".598" stop-color="#fcf09b"/><stop offset=".602" stop-color="#fcf1a3"/><stop offset=".605" stop-color="#fcf2a6"/><stop offset=".609" stop-color="#fcf2a8"/><stop offset=".625" stop-color="#fcf2a8"/><stop offset=".75" stop-color="#fcf2a8"/><stop offset="1" stop-color="#fcf2a8"/></linearGradient><g id="c" clip-path="url(#a)"><g clip-path="url(#b)"><path fill-rule="evenodd" d="m3.977 7.836 3.441 2.066V1.645c0-.762-.617-1.38-1.375-1.38H1.914C1.152.266.535.884.535 1.646v8.257Zm-2.754.851 2.754-1.652L6.73 8.687V1.646a.69.69 0 0 0-.687-.692H1.914a.69.69 0 0 0-.691.692Zm0 0"/></g></g></defs><use xlink:href="#c" transform="translate(9 27)"/><use xlink:href="#d" x="17.008" y="23.315"/><use xlink:href="#e" x="20.884" y="23.315"/><use xlink:href="#f" x="27.708" y="23.315"/><use xlink:href="#g" x="361.077" y="23.315"/><use xlink:href="#h" x="366.871" y="23.315"/><use xlink:href="#i" x="371.247" y="23.315"/><use xlink:href="#j" x="375.622" y="23.315"/><use xlink:href="#i" x="377.806" y="23.315"/><use xlink:href="#k" x="385.242" y="23.315"/><use xlink:href="#l" x="391.259" y="23.315"/><use xlink:href="#m" x="393.881" y="23.315"/><use xlink:href="#h" x="396.727" y="23.315"/><use xlink:href="#n" x="140.362" y="34.908"/><use xlink:href="#o" x="149.854" y="34.908"/><use xlink:href="#p" x="156.131" y="34.908"/><use xlink:href="#q" x="163.937" y="34.908"/><use xlink:href="#r" x="169.783" y="34.908"/><use xlink:href="#s" x="176.49" y="34.908"/><use xlink:href="#o" x="185.014" y="34.908"/><use xlink:href="#t" x="191.29" y="34.908"/><use xlink:href="#u" x="195.475" y="34.908"/><use xlink:href="#v" x="205.971" y="34.908"/><use xlink:href="#o" x="214.005" y="34.908"/><use xlink:href="#w" x="220.281" y="34.908"/><use xlink:href="#x" x="226.988" y="34.908"/><use xlink:href="#y" x="242.663" y="34.908"/><use xlink:href="#z" x="246.249" y="34.908"/><use xlink:href="#A" x="252.14" y="34.908"/><use xlink:href="#B" x="257.018" y="34.908"/><use xlink:href="#C" x="261.626" y="34.908"/><use xlink:href="#D" x="266.235" y="34.908"/><use xlink:href="#E" x="270.843" y="34.908"/><path fill="none" stroke="#000" stroke-miterlimit="10" stroke-width=".398" d="M17.008 39.293h384.094"/><use xlink:href="#F" x="399.042" y="170.4"/><use xlink:href="#G" x="399.042" y="163.936"/><use xlink:href="#H" x="399.042" y="156.883"/><use xlink:href="#I" x="399.042" y="154.532"/><use xlink:href="#J" x="399.042" y="150.061"/><use xlink:href="#K" x="399.042" y="145.358"/><use xlink:href="#L" x="399.042" y="138.775"/><use xlink:href="#H" x="399.042" y="134.543"/><use xlink:href="#M" x="399.042" y="129.37"/><use xlink:href="#N" x="399.042" y="124.668"/><use xlink:href="#O" x="399.042" y="122.317"/><use xlink:href="#P" x="399.042" y="118.085"/><use xlink:href="#I" x="399.042" y="113.383"/><use xlink:href="#Q" x="399.042" y="109.151"/><use xlink:href="#K" x="399.042" y="105.851"/><use xlink:href="#R" x="399.042" y="99.268"/><use xlink:href="#K" x="399.042" y="96.917"/><use xlink:href="#H" x="399.042" y="93.155"/><use xlink:href="#N" x="399.042" y="90.804"/><use xlink:href="#S" x="399.042" y="88.452"/><use xlink:href="#N" x="399.042" y="81.399"/><use xlink:href="#P" x="399.042" y="79.048"/><use xlink:href="#L" x="399.042" y="74.346"/><use xlink:href="#T" x="399.042" y="70.113"/><use xlink:href="#L" x="399.042" y="66.822"/><use xlink:href="#U" x="399.042" y="59.768"/><use xlink:href="#V" x="399.042" y="55.536"/><use xlink:href="#U" x="399.042" y="51.304"/><use xlink:href="#V" x="399.042" y="47.072"/><use xlink:href="#W" x="399.042" y="42.84"/><use xlink:href="#X" x="91.416" y="61.174"/><use xlink:href="#Y" x="111.286" y="51.089" fill="red"/><use xlink:href="#Z" x="111.286" y="61.174"/><use xlink:href="#aa" x="119.021" y="61.174"/><use xlink:href="#aa" x="121.771" y="61.174"/><use xlink:href="#ab" x="124.52" y="61.174"/><use xlink:href="#aa" x="129.721" y="61.174"/><use xlink:href="#ac" x="132.47" y="61.174"/><use xlink:href="#ad" x="138.472" y="51.089" fill="red"/><use xlink:href="#ae" x="138.472" y="61.174"/><use xlink:href="#af" x="141.556" y="61.174"/><use xlink:href="#ag" x="147.163" y="61.174"/><use xlink:href="#ah" x="154.313" y="51.089" fill="red"/><use xlink:href="#af" x="154.313" y="61.174"/><use xlink:href="#aa" x="159.92" y="61.174"/><use xlink:href="#aa" x="162.67" y="61.174"/><use xlink:href="#ab" x="165.419" y="61.174"/><use xlink:href="#aa" x="170.62" y="61.174"/><use xlink:href="#ac" x="173.369" y="61.174"/><use xlink:href="#ai" x="179.371" y="51.089" fill="red"/><use xlink:href="#ae" x="179.371" y="61.174"/><use xlink:href="#af" x="182.455" y="61.174"/><use xlink:href="#ad" x="188.062" y="51.089" fill="red"/><use xlink:href="#aj" x="188.062" y="61.174"/><use xlink:href="#Y" x="199.109" y="51.089" fill="red"/><use xlink:href="#Z" x="199.109" y="61.174"/><use xlink:href="#aa" x="206.844" y="61.174"/><use xlink:href="#aa" x="209.594" y="61.174"/><use xlink:href="#ab" x="212.343" y="61.174"/><use xlink:href="#aa" x="217.544" y="61.174"/><use xlink:href="#ac" x="220.293" y="61.174"/><use xlink:href="#ad" x="226.295" y="51.089" fill="red"/><use xlink:href="#ae" x="226.295" y="61.174"/><use xlink:href="#af" x="229.379" y="61.174"/><use xlink:href="#ag" x="234.986" y="61.174"/><use xlink:href="#ak" x="242.135" y="51.089" fill="red"/><use xlink:href="#af" x="242.135" y="61.174"/><use xlink:href="#aa" x="247.742" y="61.174"/><use xlink:href="#aa" x="250.492" y="61.174"/><use xlink:href="#ab" x="253.241" y="61.174"/><use xlink:href="#aa" x="258.442" y="61.174"/><use xlink:href="#ac" x="261.191" y="61.174"/><use xlink:href="#al" x="267.193" y="51.089" fill="red"/><use xlink:href="#am" x="279.926" y="46.749" fill="red"/><use xlink:href="#ae" x="267.193" y="61.174"/><use xlink:href="#af" x="270.277" y="61.174"/><use xlink:href="#aj" x="275.884" y="61.174"/><use xlink:href="#an" x="94.776" y="88.796"/><use xlink:href="#Y" x="111.286" y="78.71" fill="red"/><use xlink:href="#ao" x="111.286" y="88.796"/><use xlink:href="#af" x="119.702" y="88.796"/><use xlink:href="#ae" x="125.309" y="88.796"/><use xlink:href="#ap" x="132.291" y="88.796"/><use xlink:href="#aq" x="137.491" y="88.796"/><use xlink:href="#ar" x="143.493" y="88.796"/><use xlink:href="#af" x="151.132" y="88.796"/><use xlink:href="#as" x="156.739" y="88.796"/><use xlink:href="#at" x="160.17" y="88.796"/><use xlink:href="#au" x="169.268" y="88.796"/><use xlink:href="#af" x="176.393" y="88.796"/><use xlink:href="#av" x="182" y="88.796"/><use xlink:href="#ac" x="188.001" y="88.796"/><use xlink:href="#ag" x="194.003" y="88.796"/><use xlink:href="#aw" x="201.152" y="88.796"/><use xlink:href="#ac" x="207.153" y="88.796"/><use xlink:href="#ax" x="213.155" y="88.796"/><use xlink:href="#ay" x="217.638" y="88.796"/><use xlink:href="#az" x="222.719" y="88.796"/><use xlink:href="#ad" x="232.475" y="78.71" fill="red"/><use xlink:href="#aA" x="232.475" y="88.796"/><use xlink:href="#az" x="241.728" y="88.796"/><use xlink:href="#ae" x="247.586" y="88.796"/><use xlink:href="#af" x="250.671" y="88.796"/><use xlink:href="#ah" x="111.286" y="100.354" fill="red"/><use xlink:href="#aB" x="111.286" y="110.439"/><use xlink:href="#aC" x="115.195" y="110.439"/><use xlink:href="#ag" x="119.571" y="110.439"/><use xlink:href="#ax" x="126.72" y="110.439"/><use xlink:href="#ab" x="131.203" y="110.439"/><use xlink:href="#aD" x="136.403" y="110.439"/><use xlink:href="#ap" x="140.384" y="110.439"/><use xlink:href="#ab" x="145.585" y="110.439"/><use xlink:href="#aA" x="154.683" y="110.439"/><use xlink:href="#az" x="163.936" y="110.439"/><use xlink:href="#ae" x="169.794" y="110.439"/><use xlink:href="#ab" x="172.878" y="110.439"/><use xlink:href="#ag" x="178.079" y="110.439"/><use xlink:href="#aE" x="185.228" y="110.439"/><use xlink:href="#ab" x="190.715" y="110.439"/><use xlink:href="#aF" x="195.915" y="110.439"/><use xlink:href="#az" x="201.773" y="110.439"/><use xlink:href="#aG" x="211.529" y="110.439"/><use xlink:href="#ar" x="216.012" y="110.439"/><use xlink:href="#aH" x="223.974" y="110.439"/><use xlink:href="#at" x="226.723" y="110.439"/><use xlink:href="#aB" x="231.924" y="110.439"/><use xlink:href="#ab" x="236.156" y="110.439"/><use xlink:href="#aA" x="241.356" y="110.439"/><use xlink:href="#ac" x="250.61" y="110.439"/><use xlink:href="#aH" x="260.508" y="110.439"/><use xlink:href="#ai" x="263.26" y="100.354" fill="red"/><use xlink:href="#aA" x="263.26" y="110.439"/><use xlink:href="#aH" x="272.513" y="110.439"/><use xlink:href="#ab" x="275.263" y="110.439"/><use xlink:href="#av" x="280.463" y="110.439"/><use xlink:href="#aH" x="286.465" y="110.439"/><use xlink:href="#ac" x="289.214" y="110.439"/><use xlink:href="#aI" x="295.216" y="110.439"/><use xlink:href="#ad" x="298.468" y="100.354" fill="red"/><use xlink:href="#Y" x="111.286" y="121.998" fill="red"/><use xlink:href="#aJ" x="111.286" y="132.083"/><use xlink:href="#aD" x="116.965" y="132.083"/><use xlink:href="#ay" x="120.946" y="132.083"/><use xlink:href="#ab" x="126.027" y="132.083"/><use xlink:href="#ay" x="131.227" y="132.083"/><use xlink:href="#ap" x="140.205" y="132.083"/><use xlink:href="#af" x="145.406" y="132.083"/><use xlink:href="#as" x="151.012" y="132.083"/><use xlink:href="#ab" x="154.444" y="132.083"/><use xlink:href="#aK" x="163.541" y="132.083"/><use xlink:href="#aC" x="168.622" y="132.083"/><use xlink:href="#ap" x="173.978" y="132.083"/><use xlink:href="#aH" x="179.178" y="132.083"/><use xlink:href="#ab" x="181.928" y="132.083"/><use xlink:href="#ap" x="191.026" y="132.083"/><use xlink:href="#aq" x="196.226" y="132.083"/><use xlink:href="#ar" x="202.228" y="132.083"/><use xlink:href="#af" x="209.867" y="132.083"/><use xlink:href="#aa" x="215.474" y="132.083"/><use xlink:href="#aH" x="218.223" y="132.083"/><use xlink:href="#aL" x="220.973" y="132.083"/><use xlink:href="#aM" x="230.071" y="132.083"/><use xlink:href="#at" x="236.395" y="132.083"/><use xlink:href="#aw" x="241.596" y="132.083"/><use xlink:href="#at" x="247.597" y="132.083"/><use xlink:href="#ad" x="256.697" y="121.998" fill="red"/><use xlink:href="#au" x="256.697" y="132.083"/><use xlink:href="#af" x="263.822" y="132.083"/><use xlink:href="#av" x="269.429" y="132.083"/><use xlink:href="#af" x="275.43" y="132.083"/><use xlink:href="#ag" x="281.037" y="132.083"/><use xlink:href="#ak" x="111.286" y="143.641" fill="red"/><use xlink:href="#aG" x="111.286" y="153.727"/><use xlink:href="#aJ" x="115.769" y="153.727"/><use xlink:href="#aH" x="121.771" y="153.727"/><use xlink:href="#ab" x="124.52" y="153.727"/><use xlink:href="#ar" x="129.721" y="153.727"/><use xlink:href="#af" x="137.36" y="153.727"/><use xlink:href="#aL" x="142.967" y="153.727"/><use xlink:href="#aM" x="152.065" y="153.727"/><use xlink:href="#at" x="158.389" y="153.727"/><use xlink:href="#aw" x="163.589" y="153.727"/><use xlink:href="#at" x="169.591" y="153.727"/><use xlink:href="#aA" x="178.688" y="153.727"/><use xlink:href="#ab" x="187.941" y="153.727"/><use xlink:href="#aA" x="193.142" y="153.727"/><use xlink:href="#ac" x="202.395" y="153.727"/><use xlink:href="#aN" x="212.294" y="153.727"/><use xlink:href="#az" x="220.065" y="153.727"/><use xlink:href="#aF" x="225.923" y="153.727"/><use xlink:href="#ac" x="231.78" y="153.727"/><use xlink:href="#ag" x="237.782" y="153.727"/><use xlink:href="#ae" x="244.931" y="153.727"/><use xlink:href="#af" x="248.015" y="153.727"/><use xlink:href="#aO" x="253.622" y="153.727"/><use xlink:href="#aw" x="263.198" y="153.727"/><use xlink:href="#as" x="269.2" y="153.727"/><use xlink:href="#ac" x="272.953" y="153.727"/><use xlink:href="#aF" x="278.955" y="153.727"/><use xlink:href="#az" x="284.813" y="153.727"/><use xlink:href="#aM" x="294.568" y="153.727"/><use xlink:href="#at" x="300.892" y="153.727"/><use xlink:href="#aw" x="306.093" y="153.727"/><use xlink:href="#at" x="312.094" y="153.727"/><use xlink:href="#al" x="321.195" y="143.641" fill="red"/><use xlink:href="#am" x="333.927" y="139.302" fill="red"/><use xlink:href="#aK" x="321.195" y="153.727"/><use xlink:href="#aC" x="326.276" y="153.727"/><use xlink:href="#as" x="331.632" y="153.727"/><use xlink:href="#aj" x="335.386" y="153.727"/><use xlink:href="#X" x="91.416" y="178.359"/><use xlink:href="#Y" x="111.286" y="168.274" fill="red"/><use xlink:href="#Z" x="111.286" y="178.359"/><use xlink:href="#aa" x="119.021" y="178.359"/><use xlink:href="#aa" x="121.771" y="178.359"/><use xlink:href="#ab" x="124.52" y="178.359"/><use xlink:href="#aa" x="129.721" y="178.359"/><use xlink:href="#ac" x="132.47" y="178.359"/><use xlink:href="#ad" x="138.472" y="168.274" fill="red"/><use xlink:href="#ae" x="138.472" y="178.359"/><use xlink:href="#af" x="141.556" y="178.359"/><use xlink:href="#ag" x="147.163" y="178.359"/><use xlink:href="#ah" x="154.313" y="168.274" fill="red"/><use xlink:href="#af" x="154.313" y="178.359"/><use xlink:href="#aa" x="159.92" y="178.359"/><use xlink:href="#aa" x="162.67" y="178.359"/><use xlink:href="#ab" x="165.419" y="178.359"/><use xlink:href="#aa" x="170.62" y="178.359"/><use xlink:href="#ac" x="173.369" y="178.359"/><use xlink:href="#ai" x="179.371" y="168.274" fill="red"/><use xlink:href="#ae" x="179.371" y="178.359"/><use xlink:href="#af" x="182.455" y="178.359"/><use xlink:href="#ad" x="188.062" y="168.274" fill="red"/><use xlink:href="#aj" x="188.062" y="178.359"/><use xlink:href="#Y" x="199.109" y="168.274" fill="red"/><use xlink:href="#Z" x="199.109" y="178.359"/><use xlink:href="#aa" x="206.844" y="178.359"/><use xlink:href="#aa" x="209.594" y="178.359"/><use xlink:href="#ab" x="212.343" y="178.359"/><use xlink:href="#aa" x="217.544" y="178.359"/><use xlink:href="#ac" x="220.293" y="178.359"/><use xlink:href="#ad" x="226.295" y="168.274" fill="red"/><use xlink:href="#ae" x="226.295" y="178.359"/><use xlink:href="#af" x="229.379" y="178.359"/><use xlink:href="#ag" x="234.986" y="178.359"/><use xlink:href="#ak" x="242.135" y="168.274" fill="red"/><use xlink:href="#af" x="242.135" y="178.359"/><use xlink:href="#aa" x="247.742" y="178.359"/><use xlink:href="#aa" x="250.492" y="178.359"/><use xlink:href="#ab" x="253.241" y="178.359"/><use xlink:href="#aa" x="258.442" y="178.359"/><use xlink:href="#ac" x="261.191" y="178.359"/><use xlink:href="#al" x="267.193" y="168.274" fill="red"/><use xlink:href="#am" x="279.926" y="163.934" fill="red"/><use xlink:href="#ae" x="267.193" y="178.359"/><use xlink:href="#af" x="270.277" y="178.359"/><use xlink:href="#aj" x="275.884" y="178.359"/><use xlink:href="#an" x="94.776" y="205.98"/><use xlink:href="#Y" x="111.286" y="195.895" fill="red"/><use xlink:href="#aP" x="111.286" y="205.98"/><use xlink:href="#aH" x="119.487" y="205.98"/><use xlink:href="#ab" x="122.237" y="205.98"/><use xlink:href="#aJ" x="131.335" y="205.98"/><use xlink:href="#az" x="137.659" y="205.98"/><use xlink:href="#aO" x="143.517" y="205.98"/><use xlink:href="#as" x="149.195" y="205.98"/><use xlink:href="#af" x="152.626" y="205.98"/><use xlink:href="#aw" x="158.233" y="205.98"/><use xlink:href="#af" x="164.235" y="205.98"/><use xlink:href="#aA" x="169.842" y="205.98"/><use xlink:href="#ac" x="182.992" y="205.98"/><use xlink:href="#aQ" x="188.994" y="205.98"/><use xlink:href="#av" x="192.568" y="205.98"/><use xlink:href="#az" x="198.569" y="205.98"/><use xlink:href="#aG" x="204.427" y="205.98"/><use xlink:href="#ap" x="208.911" y="205.98"/><use xlink:href="#aH" x="214.111" y="205.98"/><use xlink:href="#ad" x="220.759" y="195.895" fill="red"/><use xlink:href="#ar" x="220.759" y="205.98"/><use xlink:href="#aA" x="232.618" y="205.98"/><use xlink:href="#az" x="241.872" y="205.98"/><use xlink:href="#aK" x="247.729" y="205.98"/><use xlink:href="#av" x="252.81" y="205.98"/><use xlink:href="#aC" x="258.812" y="205.98"/><use xlink:href="#ap" x="264.168" y="205.98"/><use xlink:href="#aq" x="269.368" y="205.98"/><use xlink:href="#ag" x="275.369" y="205.98"/><use xlink:href="#ah" x="111.286" y="217.538" fill="red"/><use xlink:href="#ar" x="111.286" y="227.624"/><use xlink:href="#ap" x="123.145" y="227.624"/><use xlink:href="#ay" x="128.346" y="227.624"/><use xlink:href="#as" x="133.427" y="227.624"/><use xlink:href="#az" x="136.858" y="227.624"/><use xlink:href="#ar" x="142.393" y="227.624"/><use xlink:href="#aH" x="150.355" y="227.624"/><use xlink:href="#ab" x="153.105" y="227.624"/><use xlink:href="#aO" x="158.305" y="227.624"/><use xlink:href="#ac" x="163.984" y="227.624"/><use xlink:href="#ag" x="169.985" y="227.624"/><use xlink:href="#ar" x="177.134" y="227.624"/><use xlink:href="#aO" x="188.994" y="227.624"/><use xlink:href="#aB" x="194.672" y="227.624"/><use xlink:href="#aR" x="198.904" y="227.624"/><use xlink:href="#aD" x="204.439" y="227.624"/><use xlink:href="#aC" x="208.42" y="227.624"/><use xlink:href="#aA" x="213.776" y="227.624"/><use xlink:href="#av" x="226.927" y="227.624"/><use xlink:href="#aH" x="232.928" y="227.624"/><use xlink:href="#ab" x="235.678" y="227.624"/><use xlink:href="#aA" x="244.776" y="227.624"/><use xlink:href="#af" x="254.029" y="227.624"/><use xlink:href="#ay" x="263.533" y="227.624"/><use xlink:href="#aM" x="268.614" y="227.624"/><use xlink:href="#af" x="274.615" y="227.624"/><use xlink:href="#ai" x="280.224" y="217.538" fill="red"/><use xlink:href="#ar" x="280.224" y="227.624"/><use xlink:href="#aH" x="288.186" y="227.624"/><use xlink:href="#ab" x="290.936" y="227.624"/><use xlink:href="#av" x="296.136" y="227.624"/><use xlink:href="#aH" x="302.138" y="227.624"/><use xlink:href="#af" x="304.887" y="227.624"/><use xlink:href="#aS" x="310.494" y="227.624"/><use xlink:href="#ad" x="313.747" y="217.538" fill="red"/><use xlink:href="#aw" x="111.286" y="249.267"/><use xlink:href="#az" x="117.287" y="249.267"/><use xlink:href="#Y" x="127.043" y="239.182" fill="red"/><use xlink:href="#aJ" x="127.043" y="249.267"/><use xlink:href="#aD" x="132.722" y="249.267"/><use xlink:href="#az" x="136.703" y="249.267"/><use xlink:href="#ap" x="142.883" y="249.267"/><use xlink:href="#aq" x="148.084" y="249.267"/><use xlink:href="#ac" x="154.085" y="249.267"/><use xlink:href="#ar" x="163.984" y="249.267"/><use xlink:href="#aD" x="171.946" y="249.267"/><use xlink:href="#af" x="175.927" y="249.267"/><use xlink:href="#ap" x="181.534" y="249.267"/><use xlink:href="#af" x="186.734" y="249.267"/><use xlink:href="#ag" x="192.341" y="249.267"/><use xlink:href="#aO" x="199.49" y="249.267"/><use xlink:href="#aH" x="205.169" y="249.267"/><use xlink:href="#ab" x="207.919" y="249.267"/><use xlink:href="#aw" x="213.119" y="249.267"/><use xlink:href="#aC" x="219.12" y="249.267"/><use xlink:href="#ac" x="228.374" y="249.267"/><use xlink:href="#ad" x="234.376" y="239.182" fill="red"/><use xlink:href="#aA" x="234.376" y="249.267"/><use xlink:href="#aH" x="243.629" y="249.267"/><use xlink:href="#ab" x="246.379" y="249.267"/><use xlink:href="#aD" x="251.579" y="249.267"/><use xlink:href="#af" x="255.56" y="249.267"/><use xlink:href="#ag" x="261.167" y="249.267"/><use xlink:href="#aD" x="111.286" y="270.911"/><use xlink:href="#az" x="115.267" y="270.911"/><use xlink:href="#ay" x="121.125" y="270.911"/><use xlink:href="#ar" x="126.206" y="270.911"/><use xlink:href="#aH" x="134.168" y="270.911"/><use xlink:href="#ab" x="136.918" y="270.911"/><use xlink:href="#ak" x="142.118" y="260.826" fill="red"/><use xlink:href="#ar" x="142.118" y="270.911"/><use xlink:href="#af" x="149.757" y="270.911"/><use xlink:href="#ae" x="155.364" y="270.911"/><use xlink:href="#aT" x="158.449" y="270.911"/><use xlink:href="#ax" x="167.953" y="270.911"/><use xlink:href="#aH" x="172.436" y="270.911"/><use xlink:href="#at" x="175.186" y="270.911"/><use xlink:href="#ar" x="184.283" y="270.911"/><use xlink:href="#aB" x="196.143" y="270.911"/><use xlink:href="#aC" x="200.052" y="270.911"/><use xlink:href="#aA" x="205.408" y="270.911"/><use xlink:href="#aw" x="218.558" y="270.911"/><use xlink:href="#av" x="224.56" y="270.911"/><use xlink:href="#aH" x="230.561" y="270.911"/><use xlink:href="#ac" x="233.311" y="270.911"/><use xlink:href="#ar" x="243.21" y="270.911"/><use xlink:href="#ax" x="251.172" y="270.911"/><use xlink:href="#ay" x="255.655" y="270.911"/><use xlink:href="#aC" x="260.736" y="270.911"/><use xlink:href="#ax" x="266.091" y="270.911"/><use xlink:href="#aB" x="270.575" y="270.911"/><use xlink:href="#aO" x="274.807" y="270.911"/><use xlink:href="#aH" x="280.485" y="270.911"/><use xlink:href="#ab" x="283.235" y="270.911"/><use xlink:href="#ae" x="292.333" y="270.911"/><use xlink:href="#ab" x="295.417" y="270.911"/><use xlink:href="#aF" x="300.617" y="270.911"/><use xlink:href="#az" x="306.475" y="270.911"/><use xlink:href="#ay" x="316.231" y="270.911"/><use xlink:href="#af" x="321.311" y="270.911"/><use xlink:href="#al" x="326.921" y="260.826" fill="red"/><use xlink:href="#am" x="339.654" y="256.486" fill="red"/><use xlink:href="#aA" x="326.921" y="270.911"/><use xlink:href="#aH" x="336.174" y="270.911"/><use xlink:href="#af" x="338.924" y="270.911"/><use xlink:href="#aD" x="344.208" y="270.911"/><use xlink:href="#aC" x="348.189" y="270.911"/><use xlink:href="#aj" x="352.564" y="270.911"/><use xlink:href="#X" x="91.416" y="295.544"/><use xlink:href="#Y" x="111.286" y="285.458" fill="red"/><use xlink:href="#Z" x="111.286" y="295.544"/><use xlink:href="#aa" x="119.021" y="295.544"/><use xlink:href="#aa" x="121.771" y="295.544"/><use xlink:href="#ab" x="124.52" y="295.544"/><use xlink:href="#aa" x="129.721" y="295.544"/><use xlink:href="#ac" x="132.47" y="295.544"/><use xlink:href="#ad" x="138.472" y="285.458" fill="red"/><use xlink:href="#ae" x="138.472" y="295.544"/><use xlink:href="#af" x="141.556" y="295.544"/><use xlink:href="#ag" x="147.163" y="295.544"/><use xlink:href="#ah" x="154.313" y="285.458" fill="red"/><use xlink:href="#af" x="154.313" y="295.544"/><use xlink:href="#aa" x="159.92" y="295.544"/><use xlink:href="#aa" x="162.67" y="295.544"/><use xlink:href="#ab" x="165.419" y="295.544"/><use xlink:href="#aa" x="170.62" y="295.544"/><use xlink:href="#ac" x="173.369" y="295.544"/><use xlink:href="#ai" x="179.371" y="285.458" fill="red"/><use xlink:href="#ae" x="179.371" y="295.544"/><use xlink:href="#af" x="182.455" y="295.544"/><use xlink:href="#ad" x="188.062" y="285.458" fill="red"/><use xlink:href="#aj" x="188.062" y="295.544"/><use xlink:href="#Y" x="199.109" y="285.458" fill="red"/><use xlink:href="#Z" x="199.109" y="295.544"/><use xlink:href="#aa" x="206.844" y="295.544"/><use xlink:href="#aa" x="209.594" y="295.544"/><use xlink:href="#ab" x="212.343" y="295.544"/><use xlink:href="#aa" x="217.544" y="295.544"/><use xlink:href="#ac" x="220.293" y="295.544"/><use xlink:href="#ad" x="226.295" y="285.458" fill="red"/><use xlink:href="#ae" x="226.295" y="295.544"/><use xlink:href="#af" x="229.379" y="295.544"/><use xlink:href="#ag" x="234.986" y="295.544"/><use xlink:href="#ak" x="242.135" y="285.458" fill="red"/><use xlink:href="#af" x="242.135" y="295.544"/><use xlink:href="#aa" x="247.742" y="295.544"/><use xlink:href="#aa" x="250.492" y="295.544"/><use xlink:href="#ab" x="253.241" y="295.544"/><use xlink:href="#aa" x="258.442" y="295.544"/><use xlink:href="#ac" x="261.191" y="295.544"/><use xlink:href="#al" x="267.193" y="285.458" fill="red"/><use xlink:href="#am" x="279.926" y="281.119" fill="red"/><use xlink:href="#ae" x="267.193" y="295.544"/><use xlink:href="#af" x="270.277" y="295.544"/><use xlink:href="#aj" x="275.884" y="295.544"/><use xlink:href="#an" x="94.776" y="323.165"/><use xlink:href="#Y" x="111.286" y="313.079" fill="red"/><use xlink:href="#Z" x="111.286" y="323.165"/><use xlink:href="#aa" x="119.021" y="323.165"/><use xlink:href="#ab" x="121.771" y="323.165"/><use xlink:href="#ar" x="130.868" y="323.165"/><use xlink:href="#aU" x="142.728" y="323.165"/><use xlink:href="#az" x="149.733" y="323.165"/><use xlink:href="#aM" x="155.591" y="323.165"/><use xlink:href="#aH" x="161.593" y="323.165"/><use xlink:href="#ab" x="164.342" y="323.165"/><use xlink:href="#ag" x="169.543" y="323.165"/><use xlink:href="#au" x="176.692" y="323.165"/><use xlink:href="#af" x="183.817" y="323.165"/><use xlink:href="#av" x="189.424" y="323.165"/><use xlink:href="#aH" x="195.425" y="323.165"/><use xlink:href="#ab" x="198.175" y="323.165"/><use xlink:href="#ag" x="203.375" y="323.165"/><use xlink:href="#aO" x="210.524" y="323.165"/><use xlink:href="#aB" x="216.203" y="323.165"/><use xlink:href="#aR" x="220.435" y="323.165"/><use xlink:href="#aD" x="225.97" y="323.165"/><use xlink:href="#aC" x="229.951" y="323.165"/><use xlink:href="#az" x="239.204" y="323.165"/><use xlink:href="#aB" x="245.062" y="323.165"/><use xlink:href="#ar" x="248.972" y="323.165"/><use xlink:href="#aH" x="256.934" y="323.165"/><use xlink:href="#ab" x="259.683" y="323.165"/><use xlink:href="#aD" x="264.884" y="323.165"/><use xlink:href="#af" x="268.865" y="323.165"/><use xlink:href="#ax" x="274.472" y="323.165"/><use xlink:href="#ay" x="278.955" y="323.165"/><use xlink:href="#az" x="287.933" y="323.165"/><use xlink:href="#ap" x="294.114" y="323.165"/><use xlink:href="#ay" x="299.314" y="323.165"/><use xlink:href="#aC" x="304.395" y="323.165"/><use xlink:href="#ad" x="313.651" y="313.079" fill="red"/><use xlink:href="#aG" x="313.651" y="323.165"/><use xlink:href="#aa" x="318.134" y="323.165"/><use xlink:href="#ab" x="320.884" y="323.165"/><use xlink:href="#aJ" x="326.084" y="323.165"/><use xlink:href="#aC" x="331.763" y="323.165"/><use xlink:href="#aA" x="337.119" y="323.165"/><use xlink:href="#ag" x="346.372" y="323.165"/><use xlink:href="#ah" x="111.286" y="334.723" fill="red"/><use xlink:href="#aO" x="111.286" y="344.808"/><use xlink:href="#aB" x="116.965" y="344.808"/><use xlink:href="#aR" x="121.197" y="344.808"/><use xlink:href="#aD" x="126.732" y="344.808"/><use xlink:href="#aC" x="130.713" y="344.808"/><use xlink:href="#aG" x="139.966" y="344.808"/><use xlink:href="#ar" x="144.449" y="344.808"/><use xlink:href="#aH" x="152.411" y="344.808"/><use xlink:href="#af" x="155.161" y="344.808"/><use xlink:href="#aw" x="160.768" y="344.808"/><use xlink:href="#ap" x="166.769" y="344.808"/><use xlink:href="#ay" x="171.97" y="344.808"/><use xlink:href="#aC" x="177.05" y="344.808"/><use xlink:href="#ax" x="182.406" y="344.808"/><use xlink:href="#ay" x="186.889" y="344.808"/><use xlink:href="#ax" x="195.868" y="344.808"/><use xlink:href="#aJ" x="200.351" y="344.808"/><use xlink:href="#aD" x="206.029" y="344.808"/><use xlink:href="#af" x="210.01" y="344.808"/><use xlink:href="#ar" x="215.294" y="344.808"/><use xlink:href="#aH" x="223.257" y="344.808"/><use xlink:href="#ab" x="226.006" y="344.808"/><use xlink:href="#aw" x="231.207" y="344.808"/><use xlink:href="#aa" x="237.208" y="344.808"/><use xlink:href="#aH" x="239.958" y="344.808"/><use xlink:href="#ar" x="242.707" y="344.808"/><use xlink:href="#az" x="250.347" y="344.808"/><use xlink:href="#aG" x="256.204" y="344.808"/><use xlink:href="#aL" x="260.688" y="344.808"/><use xlink:href="#ac" x="269.785" y="344.808"/><use xlink:href="#ap" x="275.787" y="344.808"/><use xlink:href="#aH" x="280.987" y="344.808"/><use xlink:href="#aG" x="283.737" y="344.808"/><use xlink:href="#ai" x="288.222" y="334.723" fill="red"/><use xlink:href="#av" x="288.222" y="344.808"/><use xlink:href="#aH" x="294.223" y="344.808"/><use xlink:href="#az" x="296.973" y="344.808"/><use xlink:href="#av" x="302.831" y="344.808"/><use xlink:href="#aC" x="308.832" y="344.808"/><use xlink:href="#aA" x="314.188" y="344.808"/><use xlink:href="#ag" x="323.441" y="344.808"/><use xlink:href="#ad" x="326.694" y="334.723" fill="red"/><use xlink:href="#Y" x="111.286" y="356.367" fill="red"/><use xlink:href="#ar" x="111.286" y="366.452"/><use xlink:href="#aU" x="123.145" y="366.452"/><use xlink:href="#az" x="130.151" y="366.452"/><use xlink:href="#aM" x="136.009" y="366.452"/><use xlink:href="#aH" x="142.01" y="366.452"/><use xlink:href="#ab" x="144.76" y="366.452"/><use xlink:href="#ag" x="149.96" y="366.452"/><use xlink:href="#aO" x="157.11" y="366.452"/><use xlink:href="#aB" x="162.788" y="366.452"/><use xlink:href="#aR" x="167.02" y="366.452"/><use xlink:href="#aD" x="172.555" y="366.452"/><use xlink:href="#aC" x="176.536" y="366.452"/><use xlink:href="#aw" x="185.79" y="366.452"/><use xlink:href="#af" x="191.791" y="366.452"/><use xlink:href="#ae" x="197.398" y="366.452"/><use xlink:href="#ab" x="200.482" y="366.452"/><use xlink:href="#ax" x="205.683" y="366.452"/><use xlink:href="#ay" x="210.166" y="366.452"/><use xlink:href="#ap" x="219.144" y="366.452"/><use xlink:href="#aq" x="224.344" y="366.452"/><use xlink:href="#aa" x="230.346" y="366.452"/><use xlink:href="#ab" x="233.095" y="366.452"/><use xlink:href="#aM" x="238.296" y="366.452"/><use xlink:href="#ay" x="248.195" y="366.452"/><use xlink:href="#aF" x="253.276" y="366.452"/><use xlink:href="#as" x="259.133" y="366.452"/><use xlink:href="#az" x="262.565" y="366.452"/><use xlink:href="#aw" x="268.745" y="366.452"/><use xlink:href="#ad" x="274.749" y="356.367" fill="red"/><use xlink:href="#av" x="274.749" y="366.452"/><use xlink:href="#aH" x="280.75" y="366.452"/><use xlink:href="#af" x="283.5" y="366.452"/><use xlink:href="#as" x="289.107" y="366.452"/><use xlink:href="#aC" x="292.861" y="366.452"/><use xlink:href="#aA" x="298.217" y="366.452"/><use xlink:href="#aH" x="111.286" y="388.096"/><use xlink:href="#ak" x="117.933" y="378.01" fill="red"/><use xlink:href="#ae" x="117.933" y="388.096"/><use xlink:href="#ab" x="121.017" y="388.096"/><use xlink:href="#aV" x="126.218" y="388.096"/><use xlink:href="#ap" x="132.219" y="388.096"/><use xlink:href="#aR" x="137.42" y="388.096"/><use xlink:href="#ar" x="142.955" y="388.096"/><use xlink:href="#ar" x="154.814" y="388.096"/><use xlink:href="#aC" x="162.776" y="388.096"/><use xlink:href="#aJ" x="168.132" y="388.096"/><use xlink:href="#ac" x="174.133" y="388.096"/><use xlink:href="#ax" x="180.135" y="388.096"/><use xlink:href="#ay" x="184.618" y="388.096"/><use xlink:href="#ap" x="189.699" y="388.096"/><use xlink:href="#ay" x="194.899" y="388.096"/><use xlink:href="#af" x="199.98" y="388.096"/><use xlink:href="#ax" x="205.587" y="388.096"/><use xlink:href="#ay" x="210.07" y="388.096"/><use xlink:href="#av" x="219.048" y="388.096"/><use xlink:href="#af" x="225.05" y="388.096"/><use xlink:href="#al" x="234.556" y="378.01" fill="red"/><use xlink:href="#am" x="247.288" y="373.671" fill="red"/><use xlink:href="#ar" x="234.556" y="388.096"/><use xlink:href="#az" x="242.195" y="388.096"/><use xlink:href="#aa" x="248.053" y="388.096"/><use xlink:href="#av" x="250.803" y="388.096"/><use xlink:href="#az" x="256.804" y="388.096"/><use xlink:href="#aG" x="262.662" y="388.096"/><use xlink:href="#aL" x="267.145" y="388.096"/><use xlink:href="#aj" x="272.346" y="388.096"/><use xlink:href="#X" x="91.416" y="412.728"/><use xlink:href="#Y" x="111.286" y="402.643" fill="red"/><use xlink:href="#Z" x="111.286" y="412.728"/><use xlink:href="#aa" x="119.021" y="412.728"/><use xlink:href="#aa" x="121.771" y="412.728"/><use xlink:href="#ab" x="124.52" y="412.728"/><use xlink:href="#aa" x="129.721" y="412.728"/><use xlink:href="#ac" x="132.47" y="412.728"/><use xlink:href="#ad" x="138.472" y="402.643" fill="red"/><use xlink:href="#ae" x="138.472" y="412.728"/><use xlink:href="#af" x="141.556" y="412.728"/><use xlink:href="#ag" x="147.163" y="412.728"/><use xlink:href="#ah" x="154.313" y="402.643" fill="red"/><use xlink:href="#af" x="154.313" y="412.728"/><use xlink:href="#aa" x="159.92" y="412.728"/><use xlink:href="#aa" x="162.67" y="412.728"/><use xlink:href="#ab" x="165.419" y="412.728"/><use xlink:href="#aa" x="170.62" y="412.728"/><use xlink:href="#ac" x="173.369" y="412.728"/><use xlink:href="#ai" x="179.371" y="402.643" fill="red"/><use xlink:href="#ae" x="179.371" y="412.728"/><use xlink:href="#af" x="182.455" y="412.728"/><use xlink:href="#ad" x="188.062" y="402.643" fill="red"/><use xlink:href="#aj" x="188.062" y="412.728"/><use xlink:href="#Y" x="199.109" y="402.643" fill="red"/><use xlink:href="#Z" x="199.109" y="412.728"/><use xlink:href="#aa" x="206.844" y="412.728"/><use xlink:href="#aa" x="209.594" y="412.728"/><use xlink:href="#ab" x="212.343" y="412.728"/><use xlink:href="#aa" x="217.544" y="412.728"/><use xlink:href="#ac" x="220.293" y="412.728"/><use xlink:href="#ad" x="226.295" y="402.643" fill="red"/><use xlink:href="#ae" x="226.295" y="412.728"/><use xlink:href="#af" x="229.379" y="412.728"/><use xlink:href="#ag" x="234.986" y="412.728"/><use xlink:href="#ak" x="242.135" y="402.643" fill="red"/><use xlink:href="#af" x="242.135" y="412.728"/><use xlink:href="#aa" x="247.742" y="412.728"/><use xlink:href="#aa" x="250.492" y="412.728"/><use xlink:href="#ab" x="253.241" y="412.728"/><use xlink:href="#aa" x="258.442" y="412.728"/><use xlink:href="#ac" x="261.191" y="412.728"/><use xlink:href="#al" x="267.193" y="402.643" fill="red"/><use xlink:href="#am" x="279.926" y="398.303" fill="red"/><use xlink:href="#ae" x="267.193" y="412.728"/><use xlink:href="#af" x="270.277" y="412.728"/><use xlink:href="#aj" x="275.884" y="412.728"/><use xlink:href="#an" x="94.776" y="440.349"/><use xlink:href="#Y" x="111.286" y="430.264" fill="red"/><use xlink:href="#aW" x="111.286" y="440.349"/><use xlink:href="#ay" x="117.79" y="440.349"/><use xlink:href="#ap" x="122.87" y="440.349"/><use xlink:href="#ay" x="128.071" y="440.349"/><use xlink:href="#at" x="133.152" y="440.349"/><use xlink:href="#aG" x="138.352" y="440.349"/><use xlink:href="#aa" x="142.835" y="440.349"/><use xlink:href="#aH" x="145.585" y="440.349"/><use xlink:href="#ar" x="148.335" y="440.349"/><use xlink:href="#aC" x="156.297" y="440.349"/><use xlink:href="#ag" x="160.672" y="440.349"/><use xlink:href="#aO" x="167.821" y="440.349"/><use xlink:href="#aB" x="173.5" y="440.349"/><use xlink:href="#az" x="177.732" y="440.349"/><use xlink:href="#ay" x="187.487" y="440.349"/><use xlink:href="#af" x="192.568" y="440.349"/><use xlink:href="#ar" x="197.852" y="440.349"/><use xlink:href="#aH" x="205.814" y="440.349"/><use xlink:href="#ab" x="208.564" y="440.349"/><use xlink:href="#aD" x="213.764" y="440.349"/><use xlink:href="#ay" x="217.745" y="440.349"/><use xlink:href="#aC" x="222.826" y="440.349"/><use xlink:href="#as" x="228.182" y="440.349"/><use xlink:href="#ad" x="235.835" y="430.264" fill="red"/><use xlink:href="#au" x="235.835" y="440.349"/><use xlink:href="#af" x="242.96" y="440.349"/><use xlink:href="#av" x="248.567" y="440.349"/><use xlink:href="#ac" x="254.568" y="440.349"/><use xlink:href="#ag" x="260.57" y="440.349"/><use xlink:href="#ah" x="111.286" y="451.908" fill="red"/><use xlink:href="#ar" x="111.286" y="461.993"/><use xlink:href="#aN" x="123.145" y="461.993"/><use xlink:href="#az" x="130.916" y="461.993"/><use xlink:href="#aF" x="136.774" y="461.993"/><use xlink:href="#ac" x="142.632" y="461.993"/><use xlink:href="#Z" x="152.531" y="461.993"/><use xlink:href="#aM" x="160.266" y="461.993"/><use xlink:href="#aD" x="165.944" y="461.993"/><use xlink:href="#af" x="169.925" y="461.993"/><use xlink:href="#aq" x="175.532" y="461.993"/><use xlink:href="#af" x="181.534" y="461.993"/><use xlink:href="#aA" x="187.14" y="461.993"/><use xlink:href="#af" x="196.394" y="461.993"/><use xlink:href="#ay" x="205.898" y="461.993"/><use xlink:href="#as" x="210.979" y="461.993"/><use xlink:href="#az" x="214.41" y="461.993"/><use xlink:href="#aK" x="220.268" y="461.993"/><use xlink:href="#aC" x="225.349" y="461.993"/><use xlink:href="#as" x="230.705" y="461.993"/><use xlink:href="#ai" x="238.357" y="451.908" fill="red"/><use xlink:href="#ac" x="238.357" y="461.993"/><use xlink:href="#aQ" x="244.358" y="461.993"/><use xlink:href="#av" x="247.933" y="461.993"/><use xlink:href="#az" x="253.934" y="461.993"/><use xlink:href="#aG" x="259.792" y="461.993"/><use xlink:href="#aL" x="264.275" y="461.993"/><use xlink:href="#aj" x="269.476" y="461.993"/><use xlink:href="#ad" x="272.729" y="451.908" fill="red"/><use xlink:href="#aX" x="111.286" y="483.637"/><use xlink:href="#aD" x="119.344" y="483.637"/><use xlink:href="#aR" x="123.325" y="483.637"/><use xlink:href="#Y" x="129.183" y="473.551" fill="red"/><use xlink:href="#aa" x="129.183" y="483.637"/><use xlink:href="#ac" x="131.933" y="483.637"/><use xlink:href="#ae" x="137.934" y="483.637"/><use xlink:href="#ab" x="141.018" y="483.637"/><use xlink:href="#au" x="150.116" y="483.637"/><use xlink:href="#af" x="157.241" y="483.637"/><use xlink:href="#av" x="162.848" y="483.637"/><use xlink:href="#av" x="172.747" y="483.637"/><use xlink:href="#af" x="178.748" y="483.637"/><use xlink:href="#ad" x="188.253" y="473.551" fill="red"/><use xlink:href="#ay" x="188.253" y="483.637"/><use xlink:href="#af" x="193.334" y="483.637"/><use xlink:href="#ar" x="198.618" y="483.637"/><use xlink:href="#ax" x="206.58" y="483.637"/><use xlink:href="#ay" x="211.063" y="483.637"/><use xlink:href="#ab" x="216.144" y="483.637"/><use xlink:href="#ag" x="221.344" y="483.637"/><use xlink:href="#ak" x="111.286" y="495.195" fill="red"/><use xlink:href="#aN" x="111.286" y="505.28"/><use xlink:href="#aR" x="119.057" y="505.28"/><use xlink:href="#aF" x="124.915" y="505.28"/><use xlink:href="#aW" x="134.67" y="505.28"/><use xlink:href="#aC" x="141.174" y="505.28"/><use xlink:href="#ae" x="146.529" y="505.28"/><use xlink:href="#az" x="149.614" y="505.28"/><use xlink:href="#av" x="155.472" y="505.28"/><use xlink:href="#ac" x="161.473" y="505.28"/><use xlink:href="#av" x="171.372" y="505.28"/><use xlink:href="#af" x="177.373" y="505.28"/><use xlink:href="#ad" x="186.878" y="495.195" fill="red"/><use xlink:href="#ar" x="186.878" y="505.28"/><use xlink:href="#aH" x="194.84" y="505.28"/><use xlink:href="#ab" x="197.59" y="505.28"/><use xlink:href="#aO" x="202.79" y="505.28"/><use xlink:href="#aH" x="208.469" y="505.28"/><use xlink:href="#aj" x="211.218" y="505.28"/><use xlink:href="#X" x="91.416" y="529.913"/><use xlink:href="#Y" x="111.286" y="519.827" fill="red"/><use xlink:href="#Z" x="111.286" y="529.913"/><use xlink:href="#aa" x="119.021" y="529.913"/><use xlink:href="#aa" x="121.771" y="529.913"/><use xlink:href="#ab" x="124.52" y="529.913"/><use xlink:href="#aa" x="129.721" y="529.913"/><use xlink:href="#ac" x="132.47" y="529.913"/><use xlink:href="#ad" x="138.472" y="519.827" fill="red"/><use xlink:href="#ae" x="138.472" y="529.913"/><use xlink:href="#af" x="141.556" y="529.913"/><use xlink:href="#ag" x="147.163" y="529.913"/><use xlink:href="#ah" x="154.313" y="519.827" fill="red"/><use xlink:href="#af" x="154.313" y="529.913"/><use xlink:href="#aa" x="159.92" y="529.913"/><use xlink:href="#aa" x="162.67" y="529.913"/><use xlink:href="#ab" x="165.419" y="529.913"/><use xlink:href="#aa" x="170.62" y="529.913"/><use xlink:href="#ac" x="173.369" y="529.913"/><use xlink:href="#ai" x="179.371" y="519.827" fill="red"/><use xlink:href="#ae" x="179.371" y="529.913"/><use xlink:href="#af" x="182.455" y="529.913"/><use xlink:href="#ad" x="188.062" y="519.827" fill="red"/><use xlink:href="#aj" x="188.062" y="529.913"/><use xlink:href="#Y" x="199.109" y="519.827" fill="red"/><use xlink:href="#Z" x="199.109" y="529.913"/><use xlink:href="#aa" x="206.844" y="529.913"/><use xlink:href="#aa" x="209.594" y="529.913"/><use xlink:href="#ab" x="212.343" y="529.913"/><use xlink:href="#aa" x="217.544" y="529.913"/><use xlink:href="#ac" x="220.293" y="529.913"/><use xlink:href="#ad" x="226.295" y="519.827" fill="red"/><use xlink:href="#ae" x="226.295" y="529.913"/><use xlink:href="#af" x="229.379" y="529.913"/><use xlink:href="#ag" x="234.986" y="529.913"/><use xlink:href="#ak" x="242.135" y="519.827" fill="red"/><use xlink:href="#af" x="242.135" y="529.913"/><use xlink:href="#aa" x="247.742" y="529.913"/><use xlink:href="#aa" x="250.492" y="529.913"/><use xlink:href="#ab" x="253.241" y="529.913"/><use xlink:href="#aa" x="258.442" y="529.913"/><use xlink:href="#ac" x="261.191" y="529.913"/><use xlink:href="#al" x="267.193" y="519.827" fill="red"/><use xlink:href="#am" x="279.926" y="515.488" fill="red"/><use xlink:href="#ae" x="267.193" y="529.913"/><use xlink:href="#af" x="270.277" y="529.913"/><use xlink:href="#aj" x="275.884" y="529.913"/><g clip-path="url(#aY)"><path fill="url(#aZ)" d="M15.023 579.684v-11.336h388.063v11.336Zm0 0"/></g><use xlink:href="#ba" x="380.91" y="577.985"/><use xlink:href="#bb" x="387.641" y="577.985"/><use xlink:href="#bc" x="394.371" y="577.985"/><path fill="#f2f2f2" stroke="#000" stroke-miterlimit="10" stroke-width=".797" d="M196.602 576.055v-3.989a2.99 2.99 0 0 1 2.988-2.988h18.93a2.99 2.99 0 0 1 2.988 2.988v3.989a2.99 2.99 0 0 1-2.988 2.988h-18.93a2.99 2.99 0 0 1-2.988-2.988Zm0 0"/><use xlink:href="#bd" x="198.439" y="576.948"/><use xlink:href="#be" x="203.747" y="576.948"/><use xlink:href="#be" x="209.055" y="576.948"/><use xlink:href="#bf" x="214.363" y="576.948"/><use xlink:href="#bg" x="17.008" y="577.985"/><use xlink:href="#bh" x="19.261" y="577.985"/><use xlink:href="#bh" x="23.229" y="577.985"/><use xlink:href="#bi" x="27.197" y="577.985"/><use xlink:href="#bj" x="29.45" y="577.985"/><use xlink:href="#bk" x="33.418" y="577.985"/><use xlink:href="#bl" x="38.355" y="577.985"/><use xlink:href="#bj" x="48.984" y="577.985"/><use xlink:href="#bm" x="52.952" y="577.985"/><use xlink:href="#bn" x="59.605" y="577.985"/><use xlink:href="#bj" x="65.17" y="577.985"/><use xlink:href="#bo" x="69.139" y="577.985"/><use xlink:href="#bj" x="73.107" y="577.985"/><use xlink:href="#bp" x="77.075" y="577.985"/><use xlink:href="#bl" x="83.728" y="577.985"/><use xlink:href="#bq" x="94.357" y="577.985"/><use xlink:href="#br" x="100.02" y="577.985"/><use xlink:href="#bs" x="104.42" y="577.985"/><use xlink:href="#bt" x="109.895" y="577.985"/><use xlink:href="#bu" x="113.437" y="577.985"/><use xlink:href="#bv" x="117.622" y="577.985"/><use xlink:href="#bj" x="123.417" y="577.985"/><use xlink:href="#bo" x="127.386" y="577.985"/><use xlink:href="#bj" x="131.354" y="577.985"/><use xlink:href="#bw" x="135.322" y="577.985"/></svg>