<svg xmlns="http://www.w3.org/2000/svg" xmlns:xlink="http://www.w3.org/1999/xlink" width="559.371" height="793.701" viewBox="0 0 419.528 595.276"><defs><path id="d" d="M3.344 2.297v-.078L1.5-2.5l1.844-4.703v-.078c0-.11-.078-.203-.188-.203a.24.24 0 0 0-.203.14L1.11-2.562c-.015.015-.015.046-.015.062 0 .031 0 .063.015.078L2.953 2.36a.24.24 0 0 0 .203.141c.11 0 .188-.094.188-.203m0 0"/><path id="e" d="M4.281-1.062c0-.063-.047-.141-.11-.141-.062 0-.077.031-.14.11-.781.984-1.875.984-1.984.984-.781 0-.875-.844-.875-1.157 0-.125.016-.421.156-1.03h.531c.297 0 1.032-.032 1.532-.235.703-.297.75-.89.75-1.031 0-.438-.375-.844-1.063-.844-1.11 0-2.625.968-2.625 2.718C.453-.671 1.047.11 2.031.11c1.422 0 2.25-1.062 2.25-1.171m-.468-2.5c0 1.046-1.594 1.046-2.016 1.046H1.39c.39-1.515 1.422-1.671 1.687-1.671.453 0 .735.296.735.625m0 0"/><path id="f" d="M2.781-2.5c0-.016 0-.047-.015-.062L.922-7.344c-.031-.078-.11-.14-.188-.14a.207.207 0 0 0-.203.203v.078L2.375-2.5.531 2.219v.078c0 .11.094.203.203.203.079 0 .157-.062.188-.14l1.844-4.782c.015-.015.015-.047.015-.078m0 0"/><path id="g" d="M5.89-.156c0-.11-.093-.11-.218-.11-.39 0-.406-.062-.422-.265L4.766-5.47c-.016-.187-.032-.218-.172-.218-.11 0-.172.015-.266.171L1.594-.937C1.25-.36.937-.281.687-.266.595-.25.517-.25.517-.109c0 .078.062.109.109.109.063 0 .11-.031.656-.031.5 0 .688.031.735.031.03 0 .156 0 .156-.156 0-.094-.094-.11-.14-.11-.173-.015-.298-.078-.298-.25 0-.125.188-.437.313-.656.219-.36.219-.375.406-.672H4.47l.11 1.235c.015.156.015.343-.47.343-.125 0-.218 0-.218.157 0 .03.015.109.125.109.28 0 .593-.031.89-.031.688 0 .75.031.828.031.047 0 .157 0 .157-.156M4.439-2.11H2.609l1.579-2.625Zm0 0"/><path id="h" d="M5.016-1.14c0-.11-.11-.11-.157-.11-.125 0-.14.031-.171.172-.141.516-.407.937-.75.937-.157 0-.172-.109-.172-.25 0-.187.062-.359.109-.515.172-.422.484-1.281.484-1.75 0-.688-.468-.86-.906-.86-.672 0-1.047.454-1.203.641a.72.72 0 0 0-.734-.64c-.266 0-.453.156-.61.437-.156.265-.265.75-.265.781 0 .11.093.11.14.11.14 0 .14-.032.188-.22.125-.468.265-.89.531-.89.234 0 .234.281.234.36 0 .109-.015.234-.046.343L1.094-.266c-.016.079-.016.094-.016.125 0 .125.094.22.234.22.25 0 .313-.188.375-.5l.172-.673c.047-.172.047-.187.125-.531l.141-.516c.031-.125.281-.593.531-.828.25-.203.5-.328.781-.328.313 0 .407.235.407.531 0 .47-.344 1.375-.485 1.766-.062.14-.109.281-.109.422 0 .36.266.656.672.656.75 0 1.094-1.11 1.094-1.219m0 0"/><path id="i" d="M4.578-1.14c0-.11-.11-.11-.14-.11-.141 0-.141.031-.188.234-.156.61-.328.875-.531.875-.235 0-.235-.25-.235-.359 0-.047 0-.125.032-.219l1.14-4.578c0-.031.016-.094.016-.125 0-.11-.125-.11-.203-.094l-.828.063c-.125.016-.203.016-.203.156 0 .125.093.125.203.125.39 0 .39.047.39.11 0 .046-.031.125-.031.171l-.469 1.829c-.156-.282-.39-.454-.719-.454-.953 0-1.906 1.188-1.906 2.329 0 .75.453 1.265 1.047 1.265.469 0 .86-.344 1.031-.547.063.297.329.547.72.547.28 0 .468-.172.608-.422.172-.312.266-.797.266-.797m-1.547.077C2.97-.78 2.453-.14 1.97-.14c-.36 0-.485-.406-.485-.734 0-.375.235-1.312.422-1.672.328-.578.672-.75.907-.75.5 0 .578.688.578.766l-.016.11Zm0 0"/><path id="j" d="M4.11-2.969c0-.453-.579-.547-.844-.547-.47 0-.797.25-1.032.547-.062-.297-.328-.547-.718-.547-.266 0-.453.157-.61.438-.156.265-.265.75-.265.781 0 .11.093.11.14.11.14 0 .14-.032.188-.22.125-.468.265-.89.531-.89.234 0 .234.281.234.36 0 .109-.015.234-.046.343L1.094-.266c-.016.079-.016.094-.016.125 0 .125.094.22.234.22.22 0 .313-.188.344-.313l.485-1.953c.015-.11.39-1.11 1.109-1.11.078 0 .297.016.453.14-.265.095-.281.298-.281.36 0 .219.187.266.281.266.156 0 .406-.11.406-.438m0 0"/><path id="k" d="M4-.797c0-.062-.11-.172-.156-.172-.047 0-.063.016-.125.094a2.02 2.02 0 0 1-1.5.734c-.547 0-.688-.546-.688-.906 0-.187.063-.531.125-.766h.453c.313 0 1.797 0 1.797-1.015 0-.39-.344-.688-.89-.688-.86 0-2.063.75-2.063 2.157 0 .734.406 1.437 1.25 1.437C3.36.078 4-.687 4-.797m-.437-2.031c0 .781-1.235.781-1.516.781h-.328c.25-.984.953-1.25 1.297-1.25.28 0 .547.156.547.469m0 0"/><path id="l" d="M4.5-1.14c0-.11-.11-.11-.156-.11-.125 0-.125.031-.172.234-.156.61-.328.875-.531.875-.235 0-.235-.25-.235-.359 0-.047 0-.125.031-.219L4-2.969c0-.047.031-.125.031-.172 0-.125-.11-.218-.25-.218-.11 0-.281.062-.328.297-.156-.282-.39-.454-.734-.454-.938 0-1.89 1.188-1.89 2.329 0 .75.452 1.265 1.046 1.265.469 0 .86-.344 1.031-.547.063.297.328.547.719.547.281 0 .469-.172.61-.422.171-.312.265-.797.265-.797m-1.547.077c-.062.282-.594.922-1.062.922-.375 0-.485-.406-.485-.734 0-.375.235-1.312.422-1.672.328-.578.672-.75.89-.75.516 0 .595.688.595.766l-.016.11Zm0 0"/><path id="m" d="M4.547-1.844c0-.343-.11-.656-.313-.875-.218-.234-.359-.265-1.078-.453-.031-.015-.406-.11-.469-.125-.343-.11-.53-.39-.53-.75 0-.64.671-1.328 1.39-1.328.812 0 1.047.547 1.047 1.172 0 .266-.047.422-.047.469 0 .093.094.093.156.093.125 0 .125-.015.172-.156l.406-1.61c0-.015.016-.077.016-.109 0-.03-.031-.093-.11-.093-.062 0-.062 0-.14.093l-.36.454c-.312-.47-.78-.547-1.125-.547-1.015 0-1.921.937-1.921 1.843 0 .907.718 1.11 1.015 1.172l.75.203c.39.11.625.36.625.829 0 .718-.687 1.468-1.437 1.468-.672 0-1.281-.297-1.281-1.11 0-.124.03-.312.062-.421v-.094c0-.093-.094-.093-.14-.093-.11 0-.141.015-.173.156L.673-.078C.64.032.64.047.64.062c0 .094.062.11.109.11C.813.172.828.14.89.078l.36-.453c.328.422.828.547 1.328.547 1.047 0 1.969-1.031 1.969-2.016m0 0"/><path id="n" d="M2.39-1.14c0-.11-.109-.11-.156-.11-.125 0-.125.031-.156.172-.125.406-.25.937-.547.937-.218 0-.218-.25-.218-.359 0-.047 0-.125.03-.219l1.141-4.578c0-.031.016-.094.016-.125 0-.11-.125-.11-.219-.094l-.828.063c-.11.016-.187.016-.187.156 0 .125.093.125.203.125.375 0 .375.047.375.11a.7.7 0 0 1-.032.171L.829-.937c-.047.156-.047.203-.047.28 0 .485.375.735.735.735.172 0 .422-.047.625-.437.14-.282.25-.75.25-.782m0 0"/><path id="o" d="M4.297-2.172c0-.828-.547-1.344-1.266-1.344C2-3.516.921-2.437.921-1.266c0 .875.595 1.344 1.267 1.344 1.062 0 2.109-1.094 2.109-2.25m-.594-.281c0 .265-.125 1.031-.437 1.578-.266.438-.688.734-1.078.734-.297 0-.672-.203-.672-.843 0-.36.172-1.11.422-1.547.343-.578.812-.766 1.078-.766.39 0 .687.297.687.844m0 0"/><path id="p" d="M2.828-1.14c0-.11-.11-.11-.156-.11-.125 0-.125.031-.172.172-.14.516-.406.937-.734.937-.157 0-.188-.109-.188-.25 0-.187.063-.328.188-.656l.515-1.39c.063-.172.094-.25.094-.422 0-.438-.312-.657-.656-.657-.75 0-1.078 1.11-1.078 1.22 0 .108.093.108.14.108.14 0 .14-.03.172-.171.125-.407.375-.938.75-.938.14 0 .172.11.172.25 0 .188-.047.344-.156.61L1.156-.953a1.1 1.1 0 0 0-.078.375c0 .36.266.656.672.656.75 0 1.078-1.125 1.078-1.219m.125-3.704a.354.354 0 0 0-.36-.375.55.55 0 0 0-.53.532c0 .234.171.359.359.359.265 0 .531-.234.531-.516m0 0"/><path id="q" d="m8.375-.344-3.344-4.5 3.14-2.953c.142-.125.142-.203.142-.25 0-.25-.235-.25-.407-.25h-.718c-.204 0-.454 0-.704.235l-3.843 3.64v-3.297c0-.39-.079-.578-.578-.578h-.407c-.422 0-.562.14-.562.578v7.14c0 .438.125.579.562.579h.407c.453 0 .578-.156.578-.578v-2l1.328-1.266L6.64-.25c.203.25.375.25.609.25h.703c.266 0 .422 0 .422-.344m0 0"/><path id="r" d="M5.672-.578v-3.203c0-1.89-1.828-1.89-2.422-1.89-.562 0-1.156.046-1.953.374-.25.11-.313.14-.313.281 0 .079.063.766.079.875a.17.17 0 0 0 .156.125c.062 0 .093-.03.125-.078.515-.531 1.125-.797 1.86-.797.64 0 .843.391.843 1.094v.422c-.422 0-3.563.031-3.563 1.781C.484-.75 1.156.125 2.22.125c.406 0 1.297-.11 1.86-.937v.234c0 .39.077.578.577.578h.438c.453 0 .578-.156.578-.578M4.047-1.844c0 1.11-1.14 1.11-1.172 1.11-.516 0-.828-.422-.828-.875 0-1.172 1.656-1.266 2-1.266Zm0 0"/><path id="s" d="M5.969-.578v-3.313c0-1.218-.516-1.718-1.735-1.718-1.265 0-1.796.906-1.953 1.234h-.015v-.594c0-.39-.079-.578-.563-.578h-.406c-.438 0-.578.125-.578.578v4.39c0 .438.125.579.578.579h.469c.453 0 .578-.156.578-.578v-2.64c0-1.032.687-1.532 1.312-1.532.578 0 .688.281.688.89v3.282c0 .39.093.578.578.578h.484c.453 0 .563-.156.563-.578m0 0"/><path id="t" d="M4.453-.562c0-.032-.016-.125-.094-.375-.062-.235-.078-.313-.187-.313-.063 0-.078.016-.14.094-.141.093-.454.36-.954.36-.297 0-.469-.204-.469-1V-4.61h1.063c.14 0 .578 0 .578-.438 0-.422-.437-.422-.578-.422H2.609v-1c0-.375-.093-.578-.578-.578h-.375c-.422 0-.562.14-.562.578v1H.812c-.125 0-.578 0-.578.422 0 .438.438.438.579.438h.234v3.015c0 1.219.437 1.719 1.266 1.719.109 0 .624 0 1.25-.187.203-.063.89-.266.89-.5m0 0"/><path id="u" d="M5.656-5.156c0-.313-.328-.313-.484-.313h-.266c-.187 0-.453 0-.625.266-.031.062-1 2.703-1.062 3.5h-.016c-.062-.578-.547-1.688-1.062-2.844-.328-.75-.422-.922-1.016-.922H.813c-.172 0-.47 0-.47.313 0 .047.032.125.063.187L2.672 0c-.11.25-.14.375-.172.5-.14.39-.344.938-1 .938-.39 0-.656-.172-.797-.25C.641 1.14.625 1.14.578 1.14s-.14.03-.14.172c0 .093.062.921.093.968.11.14.766.172.953.172 1.485 0 2.063-1.406 2.157-1.703l1.953-5.656c.062-.157.062-.188.062-.25m0 0"/><path id="v" d="M5.938-.266s0-.109-.11-.265L3.734-3.25l1.844-1.703c.14-.14.188-.172.188-.266 0-.25-.25-.25-.407-.25h-.703c-.203 0-.437 0-.718.25l-1.72 1.594v-4.094c0-.39-.077-.578-.562-.578h-.25c-.437 0-.578.14-.578.578v7.14c0 .438.125.579.578.579h.203c.454 0 .579-.156.579-.578v-1.235l.562-.515L4.297-.297c.203.266.297.297.64.297h.579c.156 0 .422 0 .422-.266m0 0"/><path id="w" d="M6.563-2.39c0-1.344-1-2.344-2.188-2.626l-1.14-.25c-.266-.062-1.016-.343-1.016-1.015 0-1.016 1.015-1.047 1.422-1.047.672 0 1.265.156 1.859.734.188.172.203.188.25.188.078 0 .125-.032.172-.219l.172-1.031c.031-.094.031-.125.031-.157 0-.093-.016-.109-.312-.265-.86-.422-1.563-.485-2.172-.485-1.063 0-2.907.25-2.907 2.485 0 .86.438 1.406.672 1.64.61.625 1.157.75 2.094.954.672.156.938.218 1.203.453.11.125.36.375.36.828 0 1.125-1.016 1.156-1.422 1.156-1 0-1.875-.406-2.47-.937-.14-.141-.171-.141-.218-.141-.062 0-.125.031-.172.219L.61-.875C.58-.781.58-.75.58-.719c0 .25 1.25.688 1.312.703a5.9 5.9 0 0 0 1.75.282c1.797 0 2.922-.797 2.922-2.657m0 0"/><path id="x" d="M9.64-.578v-3.313c0-1.218-.53-1.718-1.75-1.718-.843 0-1.5.39-1.937 1.187-.187-1.14-1.203-1.187-1.703-1.187-.234 0-.734 0-1.281.39-.36.282-.61.672-.688.844h-.015v-.594c0-.39-.079-.578-.563-.578h-.406c-.438 0-.578.125-.578.578v4.39c0 .438.125.579.578.579h.469c.453 0 .578-.156.578-.578v-2.64c0-1.079.734-1.532 1.312-1.532s.703.25.703.89v3.282c0 .437.141.578.579.578h.484c.453 0 .562-.156.562-.578v-2.64c0-1.079.735-1.532 1.313-1.532s.719.25.719.89v3.282c0 .437.125.578.562.578h.485c.453 0 .578-.156.578-.578m0 0"/><path id="y" d="M5.719-3.11c0-1.546-.703-2.562-2.485-2.562-1.921 0-2.859 1.063-2.859 2.89 0 1.954 1.125 2.907 3 2.907.469 0 1.14-.047 1.938-.453.25-.125.343-.156.343-.313 0-.078-.031-.421-.047-.515-.046-.375-.062-.39-.171-.39-.047 0-.079 0-.204.124a2.7 2.7 0 0 1-1.796.688c-1.36 0-1.5-1.063-1.532-1.828h3.25c.266 0 .563 0 .563-.547m-1.313-.078h-2.5c.047-.734.282-1.624 1.328-1.624.954 0 1.125.687 1.172 1.625m0 0"/><path id="z" d="M6.188-2.687c0-1.97-.954-2.985-2.907-2.985-1.984 0-2.906 1.063-2.906 2.984C.375-.733 1.406.126 3.281.126s2.907-.86 2.907-2.812m-1.625-.141c0 .937 0 2.031-1.282 2.031C2-.797 2-1.875 2-2.828c0-.922 0-1.985 1.281-1.985s1.281 1.047 1.281 1.985m0 0"/><path id="A" d="m5.625 0 1.328-6.219H6.22L5.047-.703l-1.39-4.64c-.048-.141-.11-.344-.141-.423l-.125-.453H2.203L.875 0h.734l1.188-5.531 1.375 4.64c.047.141.11.36.14.422L4.454 0Zm0 0"/><path id="B" d="m4.031 0 .844-3.984h-.75l-.547 2.593c-.156.72-.765.954-1.312.954-.641 0-.657-.204-.578-.579l.625-2.968h-.75l-.625 3C.766-.22 1.016.094 1.656.094c.516 0 1.235-.14 1.75-.531L3.312 0Zm0 0"/><path id="C" d="m4.031 0 .563-2.656c.14-.672.125-1.422-.969-1.422-.703 0-1.219.406-1.484.672l.14-.625h-.687L.719 0h.75l.468-2.187c.125-.594.516-1.313 1.188-1.313.906 0 .766.64.719.906L3.28 0Zm0 0"/><path id="D" d="m3.906-.328.078-.64c-.5.296-1 .452-1.546.452-.766 0-1.126-.625-.954-1.484.157-.687.672-1.531 1.641-1.531.563 0 .828.11 1.203.422l.25-.625c-.437-.297-.687-.407-1.344-.407C1.97-4.14.97-3.062.75-1.984.516-.875 1.14.094 2.313.094c.624 0 1.124-.188 1.593-.422m0 0"/><path id="E" d="m4.016 0 1.328-6.219h-.719l-.578 2.625c-.406-.422-.969-.484-1.25-.484-.906 0-1.813.937-2.047 2.094C.5-.828 1 .094 1.875.094c.266 0 .844-.063 1.484-.563L3.266 0ZM3.53-1.266c-.031.172-.031.188-.156.313-.312.328-.656.469-.984.469-.578 0-1.141-.422-.907-1.5C1.734-3.125 2.578-3.5 3.141-3.5c.406 0 .64.234.765.469Zm0 0"/><path id="F" d="m1.453 0 .844-3.984h-.719L.734 0ZM2.61-5.047l.188-.86h-.875l-.172.86Zm0 0"/><path id="G" d="m6.578 0 .563-2.656c.156-.672.14-1.422-.953-1.422-.75 0-1.266.453-1.547.734-.016-.187-.094-.734-1.016-.734-.703 0-1.219.406-1.484.672l.14-.625h-.687L.719 0h.75l.468-2.187c.125-.594.516-1.313 1.188-1.313.906 0 .766.64.719.906L3.28 0h.75L4.5-2.187C4.625-2.781 5-3.5 5.688-3.5c.89 0 .765.64.703.906L5.844 0Zm0 0"/><path id="H" d="m3.125-.234-.047-.563c-.265.172-.61.281-.875.281-.36 0-.406-.312-.297-.78l.438-2.126H3.64l.125-.562H2.469l.234-1.141h-.656l-.25 1.14h-.781l-.125.563h.765l-.484 2.297c-.11.531-.14 1.219.516 1.219.39 0 .875-.078 1.437-.328m0 0"/><path id="I" d="M3.563-1.156a.97.97 0 0 0-.25-.89c-.25-.267-.5-.329-1.032-.423-.312-.062-.75-.156-.656-.578.11-.515.75-.515.89-.515.657 0 .985.203 1.22.343l.25-.625c-.5-.25-.907-.297-1.282-.297-.203 0-1.515 0-1.765 1.188a.9.9 0 0 0 .187.797c.281.297.5.344 1.078.469.281.046.781.14.672.609C2.75-.5 2.031-.5 1.906-.5c-.531 0-1-.187-1.328-.453l-.25.656c.469.281 1 .39 1.453.39.594 0 1.563-.187 1.782-1.25m0 0"/><path id="J" d="M2.594 2.234c-.375-.5-1.25-1.64-.64-4.484.609-2.828 1.952-3.969 2.546-4.484h-.594c-1.25.89-2.265 2.422-2.703 4.484-.453 2.14-.031 3.625.813 4.484Zm0 0"/><path id="K" d="m5.313 0 .125-.625h-.391l-2.188.016h-.343l.578-2.672 1.734-1.235-.25-.406-1.344.969.485-2.266h-.86l-.64 2.985-1.031.734.25.39.64-.453L1.531 0Zm0 0"/><path id="L" d="M4.344 0 3.109-2.437l1.875-1.547h-.859L1.906-2.141l.86-4.078h-.672L.766 0h.656l.266-1.281.875-.703 1 1.984Zm0 0"/><path id="M" d="m4.14 0 .141-.672H2.594c-.094 0-.203.016-.313.016h-.984L3.047-2c1.11-.766 1.781-1.25 1.969-2.125.218-1.031-.328-1.937-1.547-1.937-.953 0-1.625.546-2.094 1.437l.297.516c.453-1.047.984-1.344 1.531-1.344.813 0 1.188.61 1.016 1.344-.172.812-.844 1.343-1.64 1.937l-2 1.563L.452 0Zm0 0"/><path id="N" d="m1.656-.016.172-.75h-.781L.89 0h.234L.641 1.14h.375Zm0 0"/><path id="O" d="M4.86-3c.515-2.437-.407-3.062-1.235-3.062-.516 0-.984.171-1.484.609-.547.5-.782.906-.938 1.578-.125.625-.094 1.047.11 1.5.218.484.484.656.906.656.781 0 1.406-.437 1.719-.734C3.453-.86 2.562-.391 1.968-.391c-.25 0-.577-.046-.859-.328l-.406.5c.344.313.719.422 1.14.422C3.048.203 4.439-1.047 4.86-3m-.688-.672c-.14.735-.75 1.375-1.453 1.375-.469 0-.625-.265-.735-.484-.14-.36-.078-.719 0-1.094.094-.39.172-.766.547-1.172.14-.14.453-.453.969-.453.938 0 .781 1.297.719 1.61a.6.6 0 0 1-.047.218m0 0"/><path id="P" d="m5.063-2.172.125-.578H.577l-.125.578Zm0 0"/><path id="Q" d="M4.563-1.625c.14-.703-.25-1.297-.938-1.547.703-.312 1.203-.906 1.328-1.515.172-.782-.453-1.375-1.39-1.375-.75 0-1.47.39-1.97.953l.25.515C2.407-5.375 3.11-5.5 3.439-5.5c.468 0 .859.25.734.813A1.56 1.56 0 0 1 2.766-3.5c-.188.016-.328.031-.5.031l-.125.594h.672c.874 0 1 .703.89 1.25-.156.703-.687 1.234-1.375 1.234C1.594-.39 1-.797.766-1.28c-.141.36-.157.39-.235.578.328.531.938.906 1.688.906 1.14 0 2.14-.89 2.344-1.828m0 0"/><path id="R" d="M3.328-2.25c.453-2.125.031-3.625-.812-4.484h-.578c.39.5 1.25 1.656.64 4.484C1.984.594.625 1.734.031 2.234h.594c1.234-.89 2.266-2.421 2.703-4.484m0 0"/><path id="S" d="M-1.86-5.64c-.077 0-.156 0-.156.14 0 .078.047.11.125.11 1.22.062 1.797 1.062 1.797 1.906 0 .672-.422 2.187-2.625 2.187-2.156 0-2.625-1.437-2.625-2.187s.532-1.672 1.907-1.891c.062 0 .109-.016.109-.125 0-.14-.047-.14-.203-.14h-1.875c-.125 0-.203 0-.203.109 0 .062 0 .062.109.14l.594.407a2.12 2.12 0 0 0-.703 1.578c0 1.594 1.28 2.937 2.89 2.937S.171-1.797.171-3.422C.172-4.75-.89-5.64-1.858-5.64m0 0"/><path id="T" d="M-.719-4.094h-.437v.25h.437c.328 0 .453.11.453.281 0 .297-.359.297-.453.297h-1.656c-.781 0-1.172.75-1.172 1.485 0 .656.25 1.25.781 1.25a.36.36 0 0 0 .375-.375.36.36 0 0 0-.375-.375.356.356 0 0 0-.359.297c-.203-.297-.203-.735-.203-.782 0-.453.312-.89.969-.89h.234c.031.453.047.984.281 1.547.313.703.766.843 1.032.843.687 0 .89-.812.89-1.359a1.23 1.23 0 0 0-.64-1.11c.296-.046.609-.25.609-.609 0-.078-.031-.75-.766-.75m-.406 1.438c.781 0 .984.64.984.969 0 .406-.28.765-.671.765-.516 0-1.063-.5-1.094-1.734Zm0 0"/><path id="U" d="M0-4.484h-.266c0 .515 0 .609-.359.609h-1.797c-.656 0-1.094.313-1.094 1.14 0 .797.579 1.157.766 1.25h-.766l.094 1.157h.266c0-.547.047-.61.437-.61h2.094c.36 0 .36.094.36.61H0c-.031-.344-.031-.688-.031-.906 0-.235 0-.563.031-.907h-.266c0 .5 0 .61-.359.61h-1.437c-.844 0-1.235-.64-1.235-1.125s.344-.61.844-.61h1.828c.36 0 .36.094.36.61H0C-.031-3-.031-3.36-.031-3.562c0-.235 0-.579.031-.922m0 0"/><path id="V" d="M-1-2.812h-.437v.25h.421c.547 0 .844.25.844.546 0 .532-.687.532-.812.532h-2.188v-1.188h-.265v1.188h-1.47v.25c.735 0 1.485.328 1.516 1.078h.22v-.719H-1c.938 0 1.078-.719 1.078-1.078 0-.547-.469-.86-1.078-.86m0 0"/><path id="W" d="M0-2.078h-.266c0 .531-.03.562-.343.562h-2.907l.094 1.157h.266c0-.516.047-.578.437-.578h2.094c.36 0 .36.093.36.609H0c-.031-.313-.031-.766-.031-.89 0-.095 0-.579.031-.86m-4.797.453a.453.453 0 0 0-.453.453.45.45 0 0 0 .453.438.437.437 0 0 0 .438-.438.45.45 0 0 0-.438-.453m0 0"/><path id="X" d="M-.953-3.516c-.094 0-.094.11-.094.125 0 .063 0 .094.078.125.172.047.797.282.797 1.079 0 .484-.375 1.203-1.562 1.203-1.141 0-1.578-.594-1.578-1.172 0-.078 0-.5.156-.781.062.234.25.265.344.265a.36.36 0 0 0 .374-.375c0-.219-.14-.375-.39-.375-.485 0-.719.531-.719 1.281 0 1.11.875 1.86 1.828 1.86C-.703-.281.078-1.11.078-2.11c0-1.125-.937-1.407-1.031-1.407m0 0"/><path id="Y" d="M-1.703-3.984c-.984 0-1.844.828-1.844 1.875s.86 1.875 1.844 1.875c1 0 1.781-.86 1.781-1.875 0-1.032-.781-1.875-1.781-1.875m-.063.703c.36 0 .797.015 1.141.25.313.203.453.562.453.922 0 .422-.203.765-.484.937-.328.203-.719.219-1.11.219-.312 0-.78 0-1.125-.235a1.14 1.14 0 0 1-.437-.921c0-.422.203-.766.469-.938.343-.219.765-.234 1.093-.234m0 0"/><path id="Z" d="M0-4.422h-.266c0 .547-.046.61-.437.61h-4.828l.093 1.187h.266c0-.531.047-.61.438-.61h1.687a1.4 1.4 0 0 0-.469 1.079c0 1 .782 1.875 1.797 1.875.985 0 1.797-.797 1.797-1.797 0-.469-.219-.86-.5-1.125h.5Zm-.984 1.219c.14 0 .172 0 .328.125.328.219.515.578.515.953s-.187.688-.484.875c-.312.219-.703.266-1.078.266-.469 0-.797-.079-1.063-.266a1.15 1.15 0 0 1-.53-.953c0-.375.202-.766.608-1Zm0 0"/><path id="aa" d="M-1.469-4.219a1.62 1.62 0 0 0-1.593 1.266l-.266 1.094c-.11.515-.516.89-1 .89-.547 0-1.047-.468-1.047-1.156 0-1.375 1.297-1.562 1.594-1.61.094-.015.14-.015.14-.124 0-.125-.046-.125-.203-.125h-1.562c-.125 0-.203 0-.203.109 0 .063.015.078.109.125l.453.281c-.437.406-.562.906-.562 1.344 0 .953.718 1.656 1.53 1.656.61 0 .938-.343 1.095-.5.28-.281.343-.547.547-1.406.156-.687.187-.797.468-1.062.078-.079.344-.282.735-.282.562 0 1.14.422 1.14 1.172 0 .875-.422 1.781-1.531 1.828-.125.016-.187.016-.187.125 0 .125.062.125.218.125h1.547c.14 0 .219 0 .219-.11C.172-.64.156-.64.078-.702.031-.734-.047-.766-.375-.984c.438-.5.547-1.094.547-1.578 0-.985-.797-1.657-1.64-1.657m0 0"/><path id="ab" d="M0-6.828h-.266c0 .516 0 .61-.359.61h-1.797c-.64 0-1.094.28-1.094 1.14 0 .734.5 1.11.735 1.234-.578.14-.735.594-.735 1.11 0 .78.547 1.14.766 1.25h-.766l.094 1.156h.266c0-.547.047-.61.437-.61h2.094c.36 0 .36.094.36.61H0c-.031-.344-.031-.688-.031-.906 0-.235 0-.563.031-.907h-.266c0 .5 0 .61-.359.61h-1.437c-.844 0-1.235-.64-1.235-1.14 0-.517.406-.61.844-.61h1.828c.36 0 .36.11.36.61H0c-.031-.345-.031-.688-.031-.907 0-.235 0-.563.031-.906h-.266c0 .515 0 .609-.359.609h-1.437c-.844 0-1.235-.64-1.235-1.14 0-.516.406-.61.844-.61h1.828c.36 0 .36.11.36.61H0c-.031-.344-.031-.688-.031-.907 0-.234 0-.562.031-.906m0 0"/><path id="ac" d="M-.953-3.516a.12.12 0 0 0-.11.125c0 .094.047.11.094.125.782.282.797.97.797 1.11 0 .36-.156.734-.531.969-.36.234-.875.234-1.11.234v-2.344c0-.172 0-.219-.187-.219-.703 0-1.547.391-1.547 1.516 0 .984.813 1.766 1.797 1.766 1.031 0 1.828-.86 1.828-1.875 0-1-.844-1.407-1.031-1.407m-1.078.547v2.016c-1.11-.078-1.297-.75-1.297-1.047 0-.937 1.125-.969 1.297-.969m0 0"/><path id="ad" d="M1.984-2.156h-.359v.797h-7.234v-.797h-.36v1.172h7.953Zm0 0"/><path id="ae" d="M0-2.125h-.266c0 .5 0 .61-.359.61h-4.906l.093 1.187h.266c0-.547.047-.61.438-.61h4.109c.36 0 .36.094.36.61H0c-.031-.313-.031-.766-.031-.906 0-.157 0-.578.031-.891m0 0"/><path id="af" d="M0-3.562h-.266v.28c0 .75-.093.782-.39.782h-4.422c-.219 0-.219.016-.219.234.313.329.5.75.5 1.5h.266c0-.218 0-.64-.203-1.109h4.078c.297 0 .39.031.39.781v.282H0c-.031-.329-.031-1.016-.031-1.375 0-.36 0-1.047.031-1.376m0 0"/><path id="ag" d="M-2.625-3.875c-2.062 0-2.672.922-2.672 1.734 0 .954.734 1.797 1.781 1.797 1.016 0 1.766-.781 1.766-1.687 0-.563-.36-.906-.766-1.094h.172c1.938 0 2.266.922 2.266 1.39 0 .173-.016.579-.266.798-.031-.36-.297-.375-.375-.375a.37.37 0 0 0-.375.375c0 .14.094.375.39.375.548 0 .876-.454.876-1.188 0-1.094-1.094-2.125-2.797-2.125m-.734.766c.64 0 1.39.343 1.39 1.047 0 .374-.172.609-.468.78-.282.188-.672.188-1.079.188-.468 0-.796 0-1.125-.218-.296-.204-.453-.454-.453-.829 0-.53.532-.765.563-.796.39-.157 1.015-.172 1.172-.172m0 0"/><path id="ah" d="M-1.422-3.797v.25c.156.016.547.078.703.172.063.047.063.656.063.781v1.422l-.969-1.078a9 9 0 0 1-.5-.594c-.453-.484-.89-.953-1.61-.953-.953 0-1.562.797-1.562 1.781 0 .97.719 1.594 1.438 1.594.39 0 .437-.312.437-.422 0-.172-.11-.422-.422-.422-.406 0-.406.407-.406.5-.594-.234-.781-.765-.781-1.156 0-.734.625-1.125 1.297-1.125.828 0 1.437.578 2.39 1.531l1.047 1c.078.094.094.094.297.094v-3.14Zm0 0"/><path id="ai" d="M1.984-1.36h-7.953v1.173h.36v-.797h7.234v.797h.36Zm0 0"/><path id="aj" d="M1.86 5.64c.077 0 .156 0 .156-.14 0-.078-.047-.11-.125-.11C.67 5.329.094 4.329.094 3.485c0-.671.422-2.187 2.625-2.187 2.156 0 2.625 1.437 2.625 2.187s-.532 1.672-1.907 1.891c-.062 0-.109.016-.109.125 0 .14.047.14.203.14h1.875c.125 0 .203 0 .203-.109 0-.062 0-.062-.109-.14l-.594-.407c.313-.28.703-.812.703-1.578C5.61 1.812 4.33.47 2.72.47s-2.89 1.328-2.89 2.953C-.172 4.75.89 5.64 1.858 5.64m0 0"/><path id="ak" d="M.719 4.094h.437v-.25H.72c-.328 0-.453-.11-.453-.281 0-.297.359-.297.453-.297h1.656c.781 0 1.172-.75 1.172-1.485 0-.656-.25-1.25-.781-1.25a.36.36 0 0 0-.375.375c0 .219.156.375.375.375a.356.356 0 0 0 .359-.297c.203.297.203.735.203.782 0 .453-.312.89-.969.89h-.234c-.031-.453-.047-.984-.281-1.547C1.53.406 1.078.266.813.266c-.688 0-.891.812-.891 1.359 0 .578.328.938.64 1.11-.296.046-.609.25-.609.609 0 .078.031.75.766.75m.406-1.438c-.781 0-.984-.64-.984-.969 0-.406.28-.765.672-.765.515 0 1.062.5 1.093 1.734Zm4.125.516c.172 0 .313-.172.313-.313 0-.03 0-.14-.125-.25l-1.22-1.015-.171.172.937 1.25c.063.078.125.156.266.156m0 0"/><path id="al" d="M0 4.484h.266c0-.515 0-.609.359-.609h1.797c.656 0 1.094-.312 1.094-1.14a1.38 1.38 0 0 0-.766-1.25h.766L3.422.327h-.266c0 .547-.047.61-.437.61H.625c-.36 0-.36-.094-.36-.61H0c.031.344.031.688.031.906 0 .235 0 .563-.031.907h.266c0-.5 0-.61.359-.61h1.438c.843 0 1.234.64 1.234 1.125s-.344.61-.844.61H.625c-.36 0-.36-.094-.36-.61H0c.031.344.031.703.031.906 0 .235 0 .579-.031.922m0 0"/><path id="am" d="M1 2.813h.438v-.25h-.422c-.547 0-.844-.25-.844-.547 0-.532.687-.532.812-.532h2.188v1.188h.265V1.484h1.47v-.25c-.735 0-1.485-.328-1.516-1.078h-.22v.719H1c-.937 0-1.078.719-1.078 1.078 0 .547.469.86 1.078.86m0 0"/><path id="an" d="M0 2.078h.266c0-.531.03-.562.343-.562h2.907L3.422.359h-.266c0 .516-.047.579-.437.579H.625c-.36 0-.36-.094-.36-.61H0c.031.313.031.766.031.89 0 .095 0 .579-.031.86m4.797-.453a.453.453 0 0 0 .453-.453.45.45 0 0 0-.453-.438.437.437 0 0 0-.438.438c0 .25.204.453.438.453m0 0"/><path id="ao" d="M.953 3.516c.094 0 .094-.11.094-.125 0-.063 0-.094-.078-.125a1.07 1.07 0 0 1-.797-1.078c0-.485.375-1.204 1.562-1.204 1.141 0 1.579.594 1.579 1.172 0 .078 0 .5-.157.781a.336.336 0 0 0-.344-.265.36.36 0 0 0-.374.375c0 .219.14.375.39.375.485 0 .719-.531.719-1.281 0-1.11-.875-1.86-1.828-1.86C.703.281-.078 1.11-.078 2.11c0 1.125.937 1.407 1.031 1.407m0 0"/><path id="ap" d="M1.703 3.984c.984 0 1.844-.828 1.844-1.875 0-1.046-.86-1.875-1.844-1.875-1 0-1.781.86-1.781 1.875 0 1.032.781 1.875 1.781 1.875m.063-.703c-.36 0-.797-.015-1.141-.25C.313 2.828.172 2.47.172 2.11c0-.421.203-.765.484-.937.328-.203.719-.219 1.11-.219.312 0 .78 0 1.125.235.28.218.437.546.437.921 0 .422-.203.766-.469.938-.343.219-.765.234-1.093.234m0 0"/><path id="aq" d="M0 4.422h.266c0-.547.046-.61.437-.61h4.828l-.093-1.187h-.266c0 .531-.047.61-.438.61H3.047c.312-.282.469-.657.469-1.079 0-1-.782-1.875-1.797-1.875-.985 0-1.797.797-1.797 1.797 0 .469.219.86.5 1.125h-.5Zm.984-1.219c-.14 0-.171 0-.328-.125a1.15 1.15 0 0 1-.515-.953c0-.375.187-.687.484-.875.313-.219.703-.266 1.078-.266.469 0 .797.079 1.063.266.297.188.53.547.53.953 0 .375-.202.766-.608 1Zm0 0"/><path id="ar" d="M.953 3.516a.12.12 0 0 0 .11-.125c0-.094-.047-.11-.094-.125a1.14 1.14 0 0 1-.797-1.11c0-.36.156-.734.531-.969.36-.234.875-.234 1.11-.234v2.344c0 .172 0 .219.187.219.703 0 1.547-.391 1.547-1.516 0-.984-.813-1.766-1.797-1.766-1.031 0-1.828.86-1.828 1.875 0 1 .844 1.407 1.031 1.407m1.078-.547V.953c1.11.078 1.297.75 1.297 1.047 0 .938-1.125.969-1.297.969m0 0"/><path id="as" d="M1.469 4.219a1.62 1.62 0 0 0 1.594-1.266l.265-1.094c.11-.515.516-.89 1-.89.547 0 1.047.469 1.047 1.156 0 1.375-1.297 1.563-1.594 1.61-.094.015-.14.015-.14.124 0 .125.046.125.203.125h1.562c.125 0 .203 0 .203-.109 0-.062-.015-.078-.109-.125l-.453-.281c.437-.406.562-.906.562-1.344 0-.953-.718-1.656-1.53-1.656-.61 0-.938.344-1.095.5-.28.281-.343.547-.546 1.406-.157.688-.188.797-.47 1.063a1.08 1.08 0 0 1-.734.28c-.562 0-1.14-.421-1.14-1.171 0-.875.422-1.781 1.531-1.828.125-.016.188-.016.188-.125 0-.125-.063-.125-.22-.125H.048c-.14 0-.219 0-.219.11 0 .062.016.062.094.124.047.031.125.063.453.281-.437.5-.547 1.094-.547 1.579 0 .984.797 1.656 1.64 1.656m0 0"/><path id="at" d="M0 6.828h.266c0-.516 0-.61.359-.61h1.797c.64 0 1.094-.28 1.094-1.14 0-.734-.5-1.11-.735-1.234.578-.14.735-.594.735-1.11a1.37 1.37 0 0 0-.766-1.25h.766L3.422.328h-.266c0 .547-.047.61-.437.61H.625c-.36 0-.36-.094-.36-.61H0c.031.344.031.688.031.906 0 .235 0 .563-.031.907h.266c0-.5 0-.61.359-.61h1.438c.843 0 1.234.64 1.234 1.14 0 .517-.406.61-.844.61H.625c-.36 0-.36-.11-.36-.61H0c.031.345.031.688.031.907 0 .235 0 .563-.031.906h.266c0-.515 0-.609.359-.609h1.438c.843 0 1.234.64 1.234 1.14 0 .516-.406.61-.844.61H.625c-.36 0-.36-.11-.36-.61H0c.031.344.031.688.031.907 0 .234 0 .562-.031.906m0 0"/><path id="au" d="M1.703 3.984c.984 0 1.844-.828 1.844-1.875 0-1.046-.86-1.875-1.844-1.875-1 0-1.781.86-1.781 1.875 0 1.032.781 1.875 1.781 1.875m.063-.703c-.36 0-.797-.015-1.141-.25C.313 2.828.172 2.47.172 2.11c0-.421.203-.765.484-.937.328-.203.719-.219 1.11-.219.312 0 .78 0 1.125.235.28.218.437.546.437.921 0 .422-.203.766-.469.938-.343.219-.765.234-1.093.234m3.484-.11c.172 0 .313-.171.313-.312 0-.03 0-.14-.125-.25l-1.22-1.015-.171.172.937 1.25c.063.078.125.156.266.156m0 0"/><path id="av" d="M-1.984 2.156h.359V1.36h7.234v.797h.36V.984h-7.953Zm0 0"/><path id="aw" d="M0 4.422h.266c0-.516 0-.61.359-.61h2.906l-.078-1.046c0-.094 0-.125-.015-.141V1.438h.859c.797 0 1.094.75 1.094 1.234 0 .25-.063.484-.22.687 0 0-.062-.328-.374-.328a.373.373 0 0 0-.39.375c0 .11.077.39.406.39.421 0 .796-.421.796-1.093 0-.781-.39-1.812-1.296-1.812h-.875V.234h-.266v.657H.625C.265.89.265.78.265.28H0c.031.313.031.75.031.89 0 .157 0 .595-.031.907h.266c0-.515 0-.61.359-.61h2.547v1.376c0 .328-.094.39-.438.39H.625c-.36 0-.36-.109-.36-.609H0c.031.313.031.75.031.89 0 .157 0 .594-.031.907m0 0"/><path id="ax" d="M.719 4.094h.437v-.25H.72c-.328 0-.453-.11-.453-.281 0-.297.359-.297.453-.297h1.656c.781 0 1.172-.75 1.172-1.485 0-.656-.25-1.25-.781-1.25a.36.36 0 0 0-.375.375c0 .219.156.375.375.375a.356.356 0 0 0 .359-.297c.203.297.203.735.203.782 0 .453-.312.89-.969.89h-.234c-.031-.453-.047-.984-.281-1.547C1.53.406 1.078.266.813.266c-.688 0-.891.812-.891 1.359 0 .578.328.938.64 1.11-.296.046-.609.25-.609.609 0 .078.031.75.766.75m.406-1.438c-.781 0-.984-.64-.984-.969 0-.406.28-.765.672-.765.515 0 1.062.5 1.093 1.734Zm0 0"/><path id="ay" d="M0 2.125h.266c0-.5 0-.61.359-.61h4.906L5.438.329h-.266c0 .547-.047.61-.438.61H.625c-.36 0-.36-.094-.36-.61H0c.031.313.031.766.031.906 0 .157 0 .579-.031.891m0 0"/><path id="az" d="M-1.984 1.36h7.953V.187h-.36v.796h-7.234V.188h-.36Zm0 0"/><path id="aA" d="M9.953 0v-.516h-.312c-.657 0-.703-.062-.813-.218L5.61-5.047l2.844-2.406c.156-.14.266-.234 1.328-.234v-.516L8.5-8.172c-.36 0-1.297 0-1.594-.031v.515c.266 0 .547.016.86.141l-4.47 3.813v-3.953h1.267v-.516c-.344.031-1.625.031-2.047.031-.438 0-1.72 0-2.063-.031v.515H1.72v7.172H.453V0c.344-.031 1.625-.031 2.063-.031.422 0 1.703 0 2.047.031v-.516H3.297v-2.562L4.53-4.125l2.5 3.344c.016.031.063.094.063.14 0 .125-.578.125-.844.125V0c.39-.031 1.5-.031 1.953-.031.36 0 1.485 0 1.75.031m0 0"/><path id="bo" d="M13.61-7.687v-.516l-1.297.031c-.344 0-1.22 0-1.5-.031v.515c.14 0 1.187 0 1.187.172 0 0 0 .032-.047.141L9.938-2.047l-2.126-5.64h1.125v-.516c-.374.031-1.484.031-1.937.031-.375 0-1.531 0-1.828-.031v.515h1.016l.484 1.297-1.64 4.344-2.126-5.64h1.125v-.516c-.343.031-1.515.031-1.953.031-.375 0-1.515 0-1.812-.031v.515h1L4.109-.171c.079.203.11.281.375.281.266 0 .297-.078.375-.28l2.079-5.5 2.093 5.5c.063.202.094.28.36.28.234 0 .297-.046.375-.28L12.5-7.407c.094-.203.11-.282 1.11-.282m0 0"/><path id="ca" d="M6.031-2.562h-.5c-.031.25-.11.953-.297 1.062-.093.094-1.03.094-1.203.094h-1.86l1.72-1.422c1.328-1 2.14-1.61 2.14-2.75 0-1.422-1.281-2.266-2.86-2.266-1.343 0-2.5.766-2.5 1.907 0 .625.517.812.782.812.375 0 .813-.25.813-.797 0-.516-.375-.766-.75-.812.484-.547 1.109-.594 1.359-.594 1.11 0 1.625.89 1.625 1.766 0 .921-.625 1.78-1.125 2.296L.781-.546c-.11.109-.11.124-.11.343V0h5.017Zm0 0"/><path id="cb" d="M6.516-7.703H4c-.094 0-1.875-.047-2.016-.078-.296-.047-.328-.172-.343-.297h-.5L.734-5.125h.516c0-.125.094-.953.297-1.094.11-.062 1.11-.062 1.297-.062h2.172C3.625-4.61 3.469-4.406 3.094-3.703 2.39-2.313 2.28-1.25 2.28-.656c0 .797.61.797.703.797a.75.75 0 0 0 .547-.235c.156-.187.156-.343.156-.86 0-1.827.172-3.171.922-4.062l1.797-2.14c.11-.125.11-.14.11-.547m0 0"/><path id="cc" d="M6.188-3.812c0-1.141 0-4.032-2.829-4.032C.531-7.844.531-4.969.531-3.812c0 1.14 0 3.953 2.813 3.953 2.828 0 2.844-2.766 2.844-3.953M4.75-3.953c0 2.812-.187 2.984-.547 3.344a1.24 1.24 0 0 1-.844.359c-.39 0-.671-.156-.906-.406-.297-.297-.5-.485-.5-3.297 0-.844 0-1.61.11-2.234.156-1.172 1.015-1.266 1.28-1.266.391 0 1.126.187 1.298 1.187.109.61.109 1.579.109 2.313m0 0"/><path id="aB" d="M5.14-1.281c0-.063-.077-.157-.14-.157-.062 0-.094.032-.156.125C3.89-.125 2.594-.125 2.454-.125c-.938 0-1.048-1.016-1.048-1.39 0-.141.016-.516.203-1.25h.625c.344 0 1.235-.016 1.829-.266.843-.36.89-1.063.89-1.235 0-.53-.453-1.015-1.266-1.015-1.328 0-3.14 1.156-3.14 3.25C.547-.812 1.25.125 2.422.125 4.14.125 5.14-1.141 5.14-1.281m-.577-2.985c0 1.235-1.907 1.235-2.407 1.235h-.484c.469-1.813 1.703-1.985 2.016-1.985.562 0 .874.344.874.75m0 0"/><path id="aJ" d="M9.766-4.687c.234-.891.28-1.829-.188-2.454-.328-.421-.797-.671-1.328-.843-.687-.22-1.437-.235-2.219-.235l.078-.297-.078-.046-.812.374c-.875.063-1.89.313-2.766 1-.437.344-.781.829-.906 1.329-.047.234-.063.453 0 .593a.29.29 0 0 0 .266.172.56.56 0 0 0 .39-.172c.125-.093.188-.25.219-.39.078-.266.047-.469.11-.735A1.35 1.35 0 0 1 3-7.109a3.32 3.32 0 0 1 2.125-.735L4.203-4.14c-.14.579-.297 1.172-.562 1.75-.141.344-.36.704-.657.954-.609.5-1.328.796-2.015.796l-.485.594h3.47c1.25 0 2.53-.484 3.624-1.36 1.094-.859 1.875-2.046 2.188-3.28m-.891.062c-.156.625-.36 1.25-.703 1.828-.266.485-.61.938-1.047 1.281a3.5 3.5 0 0 1-1.297.704c-.578.171-1.156.171-1.719.171H2.656l-.015-.125.53-.437c.517-.438.923-1 1.235-1.563a9.8 9.8 0 0 0 .844-2.28l.688-2.798c.593 0 1.14.047 1.671.219.391.125.75.297 1 .61.47.624.485 1.515.266 2.39m0 0"/><path id="aU" d="M7.266-6.625c.109-.437.125-.844-.125-1.156-.328-.453-.953-.547-1.578-.547-.938 0-1.922.25-2.75.922-.547.406-.954.922-1.282 1.484A8 8 0 0 0 .688-3.75C.53-3.14.438-2.516.484-1.953c.047.5.157.953.438 1.312.39.532 1.047.813 1.797.813.812 0 1.719-.203 2.437-.781.235-.188.422-.422.578-.641l-.406-.562-.156.078c-.156.359-.36.734-.688 1-.406.312-.906.5-1.359.5-.531 0-.969-.25-1.234-.61-.282-.375-.407-.86-.438-1.344-.062-.593.031-1.234.188-1.859.172-.687.39-1.36.75-2.016.25-.468.578-.906 1.03-1.265a2.96 2.96 0 0 1 1.845-.625c.406 0 .812.11 1.03.406.22.297.204.656.11 1.063-.11.422-.312.875-.687 1.187-.297.234-.625.39-.969.39-.14 0-.328 0-.422-.124-.11-.14-.047-.36.047-.547.078-.172.156-.36.078-.5-.078-.094-.203-.125-.344-.125s-.296.016-.421.125a.8.8 0 0 0-.235.437c-.062.266-.047.516.094.688.25.328.703.406 1.156.406.531 0 1.125-.172 1.594-.562.5-.407.828-.953.969-1.516m0 0"/><path id="ba" d="M12.234-7.672c.047-.14.032-.578-.546-.578-.47 0-.782.188-1.22.5a5.3 5.3 0 0 0-1.14 1.219 9.4 9.4 0 0 0-.969 1.89H5.641l.797-3.093L7.094-8l.062-.203a38 38 0 0 0-1.39-.031c-.5 0-.922.062-1.438.172a3.2 3.2 0 0 0-1.219.609c-.484.36-.921.828-1.062 1.375-.047.187-.078.36-.094.562 0 .11 0 .235.078.313.047.078.125.156.25.156.156 0 .297-.11.438-.219a.49.49 0 0 0 .172-.328l.015-.484c.016-.14.016-.297.063-.453.078-.313.36-.563.61-.782.265-.203.562-.296.858-.359a5.5 5.5 0 0 1 1.235-.125l-.844 3.36c-.187.765-.422 1.546-.781 2.296-.203.47-.516.954-.938 1.297-.328.266-.75.407-1 .407-.203 0-.406-.016-.515-.172A1 1 0 0 1 1.5-.906a.75.75 0 0 0-.094-.281c-.062-.079-.218-.079-.343-.079a.57.57 0 0 0-.375.125.5.5 0 0 0-.188.297c-.062.25 0 .469.14.625.188.25.5.297.844.297.75 0 1.454-.36 2.11-.89.484-.375.89-.86 1.156-1.391.313-.625.578-1.313.781-1.985h2.672c-.172.5-.36 1.11-.453 1.47-.125.546-.25 1.077-.266 1.609 0 .359.094.703.266.968.156.172.39.235.656.235.422 0 .766-.172 1.125-.453.203-.172.406-.375.703-.672l-.187-.203a8 8 0 0 1-.656.593c-.141.141-.422.282-.563.282-.156 0-.25-.032-.328-.141-.156-.234-.172-.562-.172-.89a7.3 7.3 0 0 1 .297-1.594c.234-.985.484-1.97.89-2.922.126-.328.282-.594.5-.922.188-.266.376-.422.579-.578a.8.8 0 0 1 .5-.188c.172 0 .234.094.328.203a.3.3 0 0 0 .265.157.576.576 0 0 0 .547-.438m0 0"/><path id="bg" d="M5.953-1.703c0-.125-.11-.125-.14-.125-.125 0-.141.047-.172.219-.203.765-.422 1.484-.907 1.484-.328 0-.359-.312-.359-.562s.031-.36.156-.875l.266-1.079.422-1.671c.093-.344.093-.36.093-.407 0-.203-.156-.328-.359-.328-.281 0-.453.266-.5.531-.203-.437-.562-.765-1.094-.765-1.406 0-2.875 1.75-2.875 3.5 0 1.125.657 1.906 1.579 1.906.25 0 .843-.047 1.562-.89.094.5.516.89 1.078.89.422 0 .703-.266.89-.656.204-.422.36-1.172.36-1.172M4.313-3.97c0 .078-.016.14-.032.203l-.593 2.344c-.063.219-.063.234-.25.438-.516.656-1.016.859-1.344.859-.594 0-.766-.656-.766-1.125 0-.61.375-2.078.656-2.625.375-.703.907-1.14 1.391-1.14.766 0 .938.968.938 1.046m0 0"/><path id="bp" d="M7.656-6.953c.094-.344.047-.656-.14-.906-.282-.391-.985-.47-1.375-.47-.891 0-1.766.22-2.657.813-.718.485-1.218 1.282-1.421 2.079-.172.718-.235 1.453.156 1.984.406.531 1.094.781 1.844.781.593 0 1.25-.172 1.828-.531l-.25 1.14c-.125.516-.328.97-.578 1.47-.22.374-.5.75-.86 1.046-.469.39-1.031.656-1.578.656-.36 0-.719-.062-.922-.328-.11-.156-.11-.375-.11-.593.016-.157.016-.329-.062-.438a.34.34 0 0 0-.281-.125.75.75 0 0 0-.469.14.84.84 0 0 0-.265.407.98.98 0 0 0 .172.89c.28.391.812.485 1.359.485.984 0 1.984-.406 2.86-1.11.452-.359.78-.812 1.03-1.328.36-.718.61-1.468.797-2.234l.391-1.578-.672.156c-.156.344-.5.828-.687.969-.47.39-1 .547-1.532.547-.5 0-.89-.219-1.156-.563-.36-.484-.312-1.187-.14-1.86a3.62 3.62 0 0 1 1.265-1.952 2.5 2.5 0 0 1 1.547-.516c.297 0 .719.11.922.406.14.188.219.407.14.672-.046.219-.125.469-.328.64-.28.22-.546.25-.828.25l-.093.204c.187.031.468.11.53.11.36 0 .704-.188 1.016-.438.297-.25.47-.563.547-.875m0 0"/><path id="aC" d="M7.969-4.125c0-2.531-1.719-4.422-3.657-4.422-1.984 0-3.671 1.922-3.671 4.422C.64-1.609 2.375.25 4.297.25c1.984 0 3.672-1.875 3.672-4.375m-1.032-.172C6.938-1.953 5.658-.5 4.313-.5c-1.39 0-2.64-1.5-2.64-3.797 0-2.203 1.297-3.516 2.625-3.516 1.375 0 2.64 1.344 2.64 3.516m0 0"/><path id="aD" d="M6.797-5.875c0-1.266-1.172-2.422-2.797-2.422H1.094V0h1.015v-3.453H4c1.656 0 2.797-1.188 2.797-2.422m-.953-.016c0 .938-.735 1.75-2.094 1.75H2.094v-3.484H3.75c1.406 0 2.094.828 2.094 1.734m0 0"/><path id="aE" d="M4.797 0v-3.5c0-1.156-.828-1.984-1.938-1.984-.718 0-1.25.172-1.843.5l.078.78c.515-.374 1.062-.593 1.765-.593.547 0 1.032.453 1.032 1.313v.5c-.547.015-1.266.062-1.985.297C1.11-2.422.641-1.97.641-1.375c0 .531.312 1.5 1.328 1.5.656 0 1.5-.203 1.937-.562V0ZM3.89-1.61c0 .25 0 .532-.407.766-.312.203-.718.25-.906.25-.64 0-1.078-.343-1.078-.797 0-.812 1.656-.984 2.39-.984Zm0 0"/><path id="aF" d="M5.063 0v-3.594c0-.734-.157-1.828-1.594-1.828-.672 0-1.25.297-1.703.875v-.812H.922V0h.906v-2.969c0-.75.281-1.734 1.188-1.734 1.109 0 1.14.766 1.14 1.187V0Zm0 0"/><path id="aG" d="M1.813 0v-5.312H.938V0Zm.078-6.797v-1.016H.859v1.016Zm0 0"/><path id="aH" d="M4.86-2.687c0-.516-.048-1.25-.423-1.876-.5-.828-1.328-.921-1.671-.921C1.469-5.484.39-4.25.39-2.687.39-1.11 1.547.124 2.92.124c.563 0 1.22-.156 1.876-.64 0-.047-.047-.438-.047-.438s-.031-.281-.031-.328c-.703.593-1.407.687-1.766.687-.922 0-1.703-.828-1.734-2.093Zm-.704-.641h-2.86c.204-.813.767-1.438 1.47-1.438.359 0 1.187.157 1.39 1.438m0 0"/><path id="aI" d="M2.11-.016v-.953h-.97V0h.298L1.14 1.5h.468Zm0 0"/><path id="aK" d="M5.563-2.672c0-1.437-.75-2.75-1.875-2.75-.485 0-1.25.156-1.876.672v-.562H.939v7.625h.906V-.531c.406.36.906.656 1.547.656 1.156 0 2.172-1.172 2.172-2.797m-.907.016c0 1.203-.812 2.062-1.703 2.062-.328 0-.562-.125-.781-.297-.297-.25-.328-.468-.328-.656v-2.469a1.47 1.47 0 0 1 1.219-.671c.874 0 1.593.89 1.593 2.03m0 0"/><path id="aL" d="M5.484-2.625c0-1.625-1.187-2.86-2.562-2.86-1.406 0-2.563 1.266-2.563 2.86 0 1.563 1.188 2.75 2.563 2.75 1.406 0 2.562-1.219 2.562-2.75m-.906-.125c0 1.469-.844 2.125-1.656 2.125-.86 0-1.656-.719-1.656-2.125 0-1.453.89-2.016 1.656-2.016.812 0 1.656.625 1.656 2.016m0 0"/><path id="aM" d="M4.703 0v-.734H2.984c-.14 0-.28.015-.421.015H1.547l3.11-4.125v-.468H.483v.703h2.953L.329-.484V0Zm0 0"/><path id="aN" d="M7.766-5.312H6.89l-.703 2.437c-.172.563-.516 1.688-.563 2.203-.047-.281-.234-1.078-.484-1.937l-.797-2.703H3.53L2.844-2.97c-.219.75-.5 1.781-.531 2.282h-.016c-.016-.235-.14-.86-.375-1.672l-.844-2.953H.172L1.766 0h.922c.453-1.5 1.156-3.781 1.218-4.61h.016c.015.485.265 1.344.344 1.626L5.109 0h1.063Zm0 0"/><path id="aO" d="M5.484-2.625c0-1.625-1.187-2.86-2.562-2.86-1.406 0-2.563 1.266-2.563 2.86 0 1.563 1.188 2.75 2.563 2.75 1.406 0 2.562-1.219 2.562-2.75m-.906-.125c0 1.469-.844 2.125-1.656 2.125-.86 0-1.656-.719-1.656-2.125 0-1.453.89-2.016 1.656-2.016.812 0 1.656.625 1.656 2.016m-.016-5.547h-.906l-1.547 2h.72Zm0 0"/><path id="aP" d="M1.813 0v-8.297H.938V0Zm0 0"/><path id="aQ" d="M5.563-2.672c0-1.469-.782-2.75-1.891-2.75-.344 0-1.11.063-1.86.672v-3.547H.939V0h.906v-.531c.547.515 1.125.656 1.547.656 1.14 0 2.172-1.172 2.172-2.797m-.907 0c0 1.563-.968 2.078-1.703 2.078-.328 0-.562-.125-.781-.297-.281-.25-.328-.453-.328-.656V-4.03c.218-.328.64-.672 1.234-.672.719 0 1.578.547 1.578 2.031m0 0"/><path id="aR" d="M5.172-5.312h-.89c-.548 1.421-1.47 3.765-1.516 4.625H2.75c-.062-.72-.687-2.282-.797-2.532L1.11-5.312H.172L2.39 0l-.422 1.094c-.266.593-.438.656-.657.656-.171 0-.546-.047-.921-.187l.078.78c.062.016.469.095.844.095.296 0 .843 0 1.359-1.313Zm0 0"/><path id="aS" d="M7.547-7.484v-.75H.422v.75H2c.14 0 .281-.016.422-.016h1.062V0H4.5v-7.5h1.063c.14 0 .28.016.421.016Zm0 0"/><path id="aT" d="M2.14.703v-6.015h-.89v6.14c0 .781-.625.86-.875.86-.531 0-.86-.344-.875-.375l-.234.718c.375.235.859.406 1.406.406.75 0 1.469-.624 1.469-1.734m0-7.5v-1.016H1.11v1.016Zm0 0"/><path id="aV" d="M4.203-1.516c0-.609-.36-1-.406-1.046-.453-.47-.813-.532-1.531-.672-.438-.094-1.047-.203-1.047-.813 0-.734.843-.734 1-.734.625 0 1.125.14 1.656.437l.14-.765a3.9 3.9 0 0 0-1.687-.375c-.265 0-1.937 0-1.937 1.547 0 .53.297.89.468 1.062.438.36.735.422 1.438.563.39.093 1.078.234 1.078.859 0 .828-.922.828-1.094.828A3.12 3.12 0 0 1 .47-1.219l-.14.813c.046.031.859.531 1.968.531 1.547 0 1.906-.937 1.906-1.64m0 0"/><path id="aW" d="m3.688-5.36-.485-.515-.828.719v-3.14H1.5v3.874L.328-3.375l.453.547.719-.656V0h.875v-4.234Zm0 0"/><path id="aX" d="M5.063 0v-5.312h-.907v3.421c0 .907-.625 1.36-1.406 1.36-.844 0-.922-.313-.922-.844v-3.937H.922v3.984c0 .86.265 1.453 1.25 1.453.344 0 1.281-.062 2.015-.719V0Zm0 0"/><path id="aY" d="m5.672-4.703-.125-.719c-.234 0-1.047 0-1.828.39-.39-.327-.875-.39-1.11-.39-1.046 0-1.875.875-1.875 1.922 0 .422.125.828.391 1.188a1.64 1.64 0 0 0-.344 1.015c0 .453.156.75.297.906C.468 0 .328.516.328.844c0 .875 1.125 1.61 2.594 1.61 1.453 0 2.594-.704 2.594-1.61 0-1.688-1.938-1.688-2.422-1.688H2.078c-.172 0-.672 0-.672-.625 0-.265.047-.343.11-.437.203.14.593.343 1.078.343 1.031 0 1.875-.859 1.875-1.937a2.13 2.13 0 0 0-.36-1.156 7 7 0 0 1 .954-.063c.046 0 .312 0 .609.016M3.64-3.5c0 1.063-.672 1.281-1.032 1.281-.53 0-1.062-.36-1.062-1.265 0-1.063.672-1.282 1.047-1.282.531 0 1.047.36 1.047 1.266M4.688.844c0 .562-.829.953-1.766.953-.922 0-1.766-.375-1.766-.953 0-.047 0-.813.907-.813h1.046c.266 0 1.579 0 1.579.813m0 0"/><path id="aZ" d="M5.063 0v-8.297h-.891v3.485a2.65 2.65 0 0 0-1.688-.61c-1.14 0-2.062 1.219-2.062 2.766S1.297.125 2.437.125c.438 0 1.11-.156 1.704-.734V0ZM4.14-1.406c-.282.515-.703.812-1.22.812-.733 0-1.593-.562-1.593-2.047 0-1.593 1.016-2.062 1.703-2.062.469 0 .86.234 1.11.625Zm0 0"/><path id="bc" d="M5.469 0 3.25-3.266l1.969-2.046h-1.11L1.813-2.906v-5.39H.938V0h.828v-1.719l.906-.953L4.5 0Zm0 0"/><path id="be" d="M8.328 0v-3.594c0-.828-.219-1.828-1.61-1.828-1.015 0-1.577.703-1.765.969-.203-.766-.86-.969-1.484-.969-.985 0-1.5.625-1.703.875v-.812H.922V0h.906v-2.969c0-.797.313-1.734 1.188-1.734 1.093 0 1.156.75 1.156 1.187V0h.906v-2.969c0-.797.313-1.734 1.188-1.734 1.093 0 1.156.75 1.156 1.187V0Zm0 0"/><path id="bf" d="M4.86-.5c0-.031-.032-.406-.048-.453l-.015-.344a2.8 2.8 0 0 1-1.828.672c-1 0-1.64-.875-1.64-2.047 0-.984.484-2.078 1.671-2.078.797 0 1.14.203 1.656.547l.14-.781c-.702-.407-1.093-.5-1.796-.5-1.656 0-2.578 1.453-2.578 2.812C.422-1.14 1.516.125 2.953.125c.578 0 1.25-.156 1.906-.625m0 0"/><path id="bh" d="M4.203-1.516c0-.609-.36-1-.406-1.046-.453-.47-.813-.532-1.531-.672-.438-.094-1.047-.203-1.047-.813 0-.734.843-.734 1-.734.625 0 1.125.14 1.656.437l.14-.765a3.9 3.9 0 0 0-1.687-.375c-.265 0-1.937 0-1.937 1.547 0 .53.297.89.468 1.062.438.36.735.422 1.438.563.39.093 1.078.234 1.078.859 0 .828-.922.828-1.094.828A3.12 3.12 0 0 1 .47-1.219l-.14.813c.046.031.859.531 1.968.531 1.547 0 1.906-.937 1.906-1.64m-.312-6.78h-.922l-1.547 2h.719Zm0 0"/><path id="bi" d="m3.89-.344-.171-.703c-.422.375-.86.422-1.078.422-.532 0-.594-.562-.594-.984v-3h1.64v-.703h-1.64v-1.516h-.828v1.516h-1v.703h.969v3.203c0 .703.156 1.531.984 1.531.797 0 1.36-.281 1.719-.469m0 0"/><path id="bj" d="M5.063 0v-3.594c0-.734-.157-1.828-1.594-1.828-.828 0-1.375.469-1.656.813v-3.688H.922V0h.906v-2.969c0-.75.281-1.734 1.188-1.734 1.109 0 1.14.766 1.14 1.187V0Zm0 0"/><path id="bk" d="M4.86-2.687c0-.516-.048-1.25-.423-1.876-.5-.828-1.328-.921-1.671-.921C1.469-5.484.39-4.25.39-2.687.39-1.141 1.5.078 2.844.124c-.531.344-.875.828-.828 1.39 0 .516.375 1.016 1.172 1.016.39 0 .703-.062 1.171-.297l-.156-.703c-.266.11-.547.172-.812.172-.328-.031-.625-.094-.625-.453-.016-.531.5-.969 1.047-1.281.328-.094.64-.25.984-.485 0-.046-.047-.437-.047-.437s-.031-.281-.031-.328c-.703.593-1.407.687-1.766.687-.922 0-1.703-.828-1.734-2.093Zm-.704-.641h-2.86c.204-.813.767-1.438 1.47-1.438.359 0 1.187.157 1.39 1.438m0 0"/><path id="bl" d="M2.11 0v-8.297H1.077V0Zm0 0"/><path id="bm" d="M3.797-4.625v-.797c-1.078 0-1.719.64-2.047 1.11V-5.36H.938V0h.875v-2.625c0-1.203.906-1.984 1.984-2m0 0"/><path id="bn" d="M2.11 0v-.969h-.97V0Zm0 0"/><path id="bq" d="M7.406 0 4.391-8.297H3.328L.328 0h.875l.875-2.422h3.375L6.328 0ZM5.203-3.094h-2.86l1.423-4.344Zm0 0"/><path id="br" d="M5.844-2.266c0-.765-.375-1.328-.625-1.625-.563-.593-1-.718-1.797-.921-.813-.204-1.11-.266-1.375-.516-.156-.172-.485-.469-.485-1 0-.734.657-1.438 1.72-1.438 1.015 0 1.546.391 1.984.766l.172-.953c-.485-.266-1.094-.594-2.157-.594-1.594 0-2.64 1.14-2.64 2.344 0 .844.515 1.39.578 1.453.593.61 1 .703 1.75.906 1.031.25 1.187.297 1.578.688.203.219.375.594.375 1.015 0 .829-.672 1.594-1.703 1.594a3.75 3.75 0 0 1-2.516-1l-.172.969A4.9 4.9 0 0 0 3.22.25C4.75.25 5.844-.937 5.844-2.266m-.328-8.093H4.203L2.11-8.906h1.063Zm0 0"/><path id="bb" d="M4.344-5.125H2.25c-.312 0-.406-.016-.687-.031-.422-.047-.438-.094-.454-.235H.844L.563-3.687h.265c.016-.11.094-.641.219-.72.062-.046.719-.046.828-.046h1.75l-.844 1.047C1.75-2.031 1.656-.766 1.656-.296c0 .093 0 .452.375.452s.375-.36.375-.453v-.328c0-1.547.313-2.25.656-2.687l1.204-1.5c.078-.094.078-.11.078-.313m0 0"/><path id="bd" d="M3.453-1.14c.063-.141.016-.282-.11-.344l-1.155-.5L3.343-2.5c.125-.062.172-.203.11-.344a.25.25 0 0 0-.345-.062l-1.015.75.125-1.266a.237.237 0 0 0-.235-.265c-.14 0-.234.14-.218.265l.125 1.266-1.016-.75a.25.25 0 0 0-.344.062c-.062.14-.015.281.11.344l1.156.516-1.156.5c-.125.062-.172.203-.11.343a.25.25 0 0 0 .344.063l1.016-.75-.125 1.266a.22.22 0 0 0 .218.25c.157 0 .25-.125.235-.25l-.125-1.266 1.015.75a.25.25 0 0 0 .344-.063m0 0"/><path id="bs" d="M2.594-.86c.047-.093.015-.218-.094-.25l-.86-.39.86-.375a.176.176 0 0 0 .094-.25c-.063-.094-.172-.125-.266-.062l-.765.562.109-.937a.173.173 0 0 0-.172-.204.173.173 0 0 0-.172.204l.094.937-.766-.562c-.078-.063-.203-.032-.25.062-.062.094-.015.203.078.25l.875.375-.875.39c-.093.032-.14.157-.078.25.047.094.172.11.25.047l.766-.562-.094.953c-.016.094.063.188.172.188.11 0 .188-.094.172-.188l-.11-.953.766.563c.094.062.203.046.266-.047m0 0"/><path id="bt" d="M5.281-3.953c0-.781-.843-1.485-1.984-1.485H.359v.266h.188c.61 0 .625.078.625.375V-.64c0 .297-.016.375-.625.375H.359V0l1.172-.031L2.703 0v-.266h-.172c-.61 0-.625-.078-.625-.375v-1.843H3.36c.97 0 1.922-.625 1.922-1.47m-.828 0c0 .344 0 1.234-1.36 1.234H1.876v-2.14c0-.266.016-.313.39-.313h.829c1.36 0 1.36.86 1.36 1.219m0 0"/><path id="bu" d="M2.078 0v-.266c-.531 0-.562-.03-.562-.343v-2.907l-1.157.094v.266c.516 0 .579.047.579.437v2.094c0 .36-.094.36-.61.36V0c.313-.031.766-.031.89-.031.095 0 .579 0 .86.031m-.453-4.797a.453.453 0 0 0-.453-.453.45.45 0 0 0-.438.453c0 .234.188.438.438.438a.45.45 0 0 0 .453-.438m0 0"/><path id="bv" d="M3.516-.953a.12.12 0 0 0-.125-.11c-.094 0-.11.047-.125.094a1.14 1.14 0 0 1-1.11.797c-.36 0-.734-.156-.969-.531-.234-.36-.234-.875-.234-1.11h2.344c.172 0 .219 0 .219-.187 0-.703-.391-1.547-1.516-1.547-.984 0-1.766.813-1.766 1.797 0 1.031.86 1.828 1.875 1.828 1 0 1.407-.844 1.407-1.031m-.547-1.078H.953c.078-1.11.75-1.297 1.047-1.297.938 0 .969 1.125.969 1.297m0 0"/><path id="bw" d="M3.047-1.031c0-.375-.219-.938-1.172-1.11a10 10 0 0 0-.547-.093c-.25-.063-.625-.235-.625-.547 0-.235.188-.578.938-.578.89 0 .937.656.953.875 0 .062.062.093.11.093.14 0 .14-.062.14-.203v-.75c0-.125 0-.203-.11-.203-.046 0-.062 0-.187.125-.016 0-.094.078-.11.078 0 0-.03 0-.078-.031-.125-.094-.359-.172-.718-.172-1.11 0-1.36.594-1.36.985 0 .39.297.624.313.656.328.234.5.265 1.047.36.375.077.984.187.984.718 0 .312-.203.687-.937.687C.875-.14.64-.766.547-1.187c-.031-.11-.047-.141-.14-.141-.126 0-.126.062-.126.219v.984c0 .125 0 .203.094.203.063 0 .063 0 .203-.156.047-.047.125-.14.172-.188.36.329.734.344.938.344 1.015 0 1.359-.578 1.359-1.11M2.719-5.25c0-.172-.156-.312-.297-.312-.047 0-.156 0-.25.125L1.14-4.22l.172.172 1.25-.937c.093-.063.156-.125.156-.266m0 0"/><path id="bx" d="M4.484 0v-.266c-.515 0-.609 0-.609-.359v-1.797c0-.656-.312-1.094-1.14-1.094a1.38 1.38 0 0 0-1.25.766v-.766l-1.157.094v.266c.547 0 .61.047.61.437v2.094c0 .36-.094.36-.61.36V0c.344-.031.688-.031.906-.031.235 0 .563 0 .907.031v-.266c-.5 0-.61 0-.61-.359v-1.437c0-.844.64-1.235 1.125-1.235s.61.344.61.844v1.828c0 .36-.094.36-.61.36V0c.344-.031.703-.031.906-.031.235 0 .579 0 .922.031M3.406-5.25a.324.324 0 0 0-.312-.312c-.031 0-.14 0-.235.125L1.83-4.22 2-4.047l1.25-.937c.094-.063.156-.125.156-.266m0 0"/><path id="by" d="M4.484 0v-.266c-.515 0-.609 0-.609-.359v-1.797c0-.656-.312-1.094-1.14-1.094a1.38 1.38 0 0 0-1.25.766v-.766l-1.157.094v.266c.547 0 .61.047.61.437v2.094c0 .36-.094.36-.61.36V0c.344-.031.688-.031.906-.031.235 0 .563 0 .907.031v-.266c-.5 0-.61 0-.61-.359v-1.437c0-.844.64-1.235 1.125-1.235s.61.344.61.844v1.828c0 .36-.094.36-.61.36V0c.344-.031.703-.031.906-.031.235 0 .579 0 .922.031m0 0"/><path id="bz" d="M3.984-1.703c0-.984-.828-1.844-1.875-1.844-1.046 0-1.875.86-1.875 1.844 0 1 .86 1.781 1.875 1.781 1.032 0 1.875-.781 1.875-1.781m-.703-.063c0 .36-.015.797-.25 1.141-.203.313-.562.453-.922.453-.421 0-.765-.203-.937-.484-.203-.328-.219-.719-.219-1.11 0-.312 0-.78.235-1.125.218-.28.546-.437.921-.437.422 0 .766.203.938.469.219.343.234.765.234 1.093m0 0"/><path id="bA" d="M4.313 0v-.266c-.329 0-.47-.03-.766-.406l-1.14-1.5.671-.531c.531-.422.86-.453 1.063-.469v-.265c-.203.03-.313.03-.641.03-.39 0-.5-.015-.844-.03v.265c.156.016.188.11.188.156 0 .172-.172.313-.235.36l-1.14.922v-3.797L.28-5.438v.266c.547 0 .61.047.61.438v4.109c0 .36-.11.36-.61.36V0c.313-.031.735-.031.875-.031.157 0 .578 0 .89.031v-.266c-.515 0-.608 0-.608-.359v-.766l.53-.437c.032 0 .235.281.36.437.125.157.25.329.375.485s.281.36.281.484c0 .14-.14.156-.25.156V0c.344-.031.704-.031.844-.031.297 0 .469 0 .735.031m0 0"/><path id="bB" d="M4.094-.719v-.437h-.25v.437c0 .328-.11.453-.281.453-.297 0-.297-.359-.297-.453v-1.656c0-.781-.75-1.172-1.485-1.172-.656 0-1.25.25-1.25.781a.36.36 0 0 0 .375.375.36.36 0 0 0 .375-.375.356.356 0 0 0-.297-.359c.297-.203.735-.203.782-.203.453 0 .89.312.89.969v.234c-.453.031-.984.047-1.547.281-.703.313-.843.766-.843 1.032 0 .687.812.89 1.359.89a1.23 1.23 0 0 0 1.11-.64c.046.296.25.609.609.609.078 0 .75-.031.75-.766m-1.438-.406c0 .781-.64.984-.969.984-.406 0-.765-.28-.765-.671 0-.516.5-1.063 1.734-1.094Zm0 0"/><path id="bC" d="M2.813-1v-.437h-.25v.421c0 .547-.25.844-.547.844-.532 0-.532-.687-.532-.812v-2.188h1.188v-.265H1.484v-1.47h-.25c0 .735-.328 1.485-1.078 1.516v.22h.719V-1c0 .938.719 1.078 1.078 1.078.547 0 .86-.469.86-1.078m0 0"/><path id="bD" d="M3.516-.953c0-.094-.11-.094-.125-.094-.063 0-.094 0-.125.078a1.07 1.07 0 0 1-1.078.797C1.703-.172.984-.547.984-1.734c0-1.141.594-1.578 1.172-1.578.078 0 .5 0 .781.156a.336.336 0 0 0-.265.344c0 .218.156.374.375.374s.375-.14.375-.39c0-.485-.531-.719-1.281-.719-1.11 0-1.86.875-1.86 1.828C.281-.703 1.11.078 2.11.078c1.125 0 1.407-.937 1.407-1.031m0 0"/><path id="bE" d="M4.484 0v-.266c-.515 0-.609 0-.609-.359v-1.797c0-.656-.312-1.094-1.14-1.094-.704 0-1.063.454-1.22.704v-2.72l-1.187.095v.265c.547 0 .61.047.61.438v4.109c0 .36-.094.36-.61.36V0c.344-.031.688-.031.906-.031.235 0 .563 0 .907.031v-.266c-.5 0-.61 0-.61-.359v-1.437c0-.844.64-1.235 1.125-1.235s.61.344.61.844v1.828c0 .36-.094.36-.61.36V0c.344-.031.703-.031.906-.031.235 0 .579 0 .922.031m0 0"/><path id="bF" d="M4.484 0v-.266c-.546 0-.609-.046-.609-.437v-2.813l-1.219.094v.266c.547 0 .61.047.61.437v1.39C3.266-.64 2.859-.14 2.25-.14c-.687 0-.719-.343-.719-.75v-2.625l-1.203.094v.266c.61 0 .61.015.61.719v1.203c0 .578 0 1.312 1.265 1.312.75 0 1.047-.578 1.078-.64h.016v.64Zm0 0"/><path id="bG" d="M6.828 0v-.266c-.516 0-.61 0-.61-.359v-1.797c0-.64-.28-1.094-1.14-1.094-.734 0-1.11.5-1.234.735-.14-.578-.594-.735-1.11-.735a1.37 1.37 0 0 0-1.25.766v-.766l-1.156.094v.266c.547 0 .61.047.61.437v2.094c0 .36-.094.36-.61.36V0c.344-.031.688-.031.906-.031.235 0 .563 0 .907.031v-.266c-.5 0-.61 0-.61-.359v-1.437c0-.844.64-1.235 1.14-1.235.517 0 .61.406.61.844v1.828c0 .36-.11.36-.61.36V0c.345-.031.688-.031.907-.031.235 0 .563 0 .906.031v-.266c-.515 0-.609 0-.609-.359v-1.437c0-.844.64-1.235 1.14-1.235.516 0 .61.406.61.844v1.828c0 .36-.11.36-.61.36V0c.344-.031.688-.031.907-.031.234 0 .562 0 .906.031m0 0"/><path id="bH" d="M2.125 0v-.266c-.5 0-.61 0-.61-.359v-4.906l-1.187.093v.266c.547 0 .61.047.61.438v4.109c0 .36-.094.36-.61.36V0c.313-.031.766-.031.906-.031.157 0 .579 0 .891.031m0 0"/><path id="bI" d="M3.406-1.531h-.25C3.078-.61 2.922-.25 1.937-.25H1l2.313-2.906c.046-.078.062-.094.062-.156 0-.126-.094-.126-.219-.126H.453l-.11 1.329h.25c.048-.828.235-1.11 1.126-1.11h.906L.313-.297C.25-.219.233-.203.233-.14.234 0 .328 0 .47 0h2.797Zm0 0"/><path id="bJ" d="M4.422-1.719c0-1-.813-1.797-1.781-1.797-.313 0-.766.079-1.172.5v-.5L.28-3.422v.266c.563 0 .61.047.61.375V.922c0 .36-.11.36-.61.36v.265c.344-.031.688-.031.907-.031.234 0 .562 0 .906.03v-.265c-.516 0-.61 0-.61-.36V-.39a1.37 1.37 0 0 0 1.047.47c1 0 1.89-.782 1.89-1.798m-.719 0c0 .907-.578 1.578-1.219 1.578-.28 0-.64-.125-.906-.515-.094-.14-.094-.156-.094-.297v-1.703c.188-.313.594-.61 1.094-.61.61 0 1.125.672 1.125 1.547m0 0"/><path id="bK" d="M5.938-3.172v-.265c-.266.03-.282.03-.625.03-.25 0-.47 0-.72-.03v.265c.345.016.438.219.438.36 0 .109-.031.156-.047.203l-.75 1.984-.828-2.172c-.031-.11-.031-.125-.031-.156 0-.203.25-.219.438-.219v-.265c-.313.03-.735.03-.813.03-.172 0-.5 0-.734-.03v.265c.484 0 .5.047.656.469L2.187-.734l-.796-2.078c0-.032-.032-.11-.032-.141 0-.219.297-.219.438-.219v-.265c-.344.03-.703.03-.844.03-.14 0-.562 0-.781-.03v.265c.39 0 .469.031.562.25L1.797-.109c.047.125.078.187.203.187.14 0 .172-.094.203-.187l.844-2.235.844 2.235c.046.093.078.187.218.187.125 0 .157-.078.188-.172l.969-2.531c.062-.187.203-.531.672-.547m0 0"/><path id="bL" d="M6.047 0v-.266h-.14c-.5 0-.579-.062-.673-.328L3.375-5.516c-.047-.109-.062-.171-.203-.171-.14 0-.172.062-.203.171L1.188-.828c-.079.219-.25.562-.907.562V0c.266-.031.688-.031.828-.031.25 0 .5 0 .875.031v-.266c-.343 0-.546-.171-.546-.39 0-.063 0-.078.03-.172l.376-1h2.172l.453 1.187C4.5-.547 4.5-.5 4.5-.5c0 .234-.406.234-.64.234V0L5-.031c.438 0 .594 0 1.047.031m-2.14-2.094h-1.97l1-2.593Zm0 0"/><path id="bM" d="M3-5.031c0-.344-.328-.578-.75-.578-.594 0-1.312.437-1.312 1.28v.891H.28v.266h.657v2.547c0 .36-.094.36-.61.36V0c.313-.031.75-.031.953-.031.469 0 .485 0 1 .031v-.266h-.156c-.594 0-.61-.078-.61-.375v-2.53h.97v-.267H1.5v-.89c0-.703.39-1.063.734-1.063.125 0 .204.032.235.047-.14.063-.188.203-.188.313 0 .203.156.36.36.36.218 0 .359-.157.359-.36m0 0"/><path id="bN" d="M3.063-3.016c0-.28-.25-.5-.61-.5-.515 0-.875.391-1.031.844h-.016v-.844l-1.125.094v.266c.547 0 .61.047.61.437v2.094c0 .36-.11.36-.61.36V0c.313-.031.75-.031.938-.031.468 0 .484 0 1 .031v-.266h-.156c-.579 0-.594-.078-.594-.375v-1.171c0-.61.25-1.47 1.015-1.485-.046.031-.14.094-.14.281 0 .25.203.36.36.36.187 0 .358-.125.358-.36m0 0"/><path id="bO" d="M4.422 0v-.266c-.547 0-.61-.046-.61-.437v-4.828l-1.187.093v.266c.531 0 .61.047.61.438v1.687a1.4 1.4 0 0 0-1.079-.469c-1 0-1.875.782-1.875 1.797 0 .985.797 1.797 1.797 1.797.469 0 .86-.219 1.125-.5v.5ZM3.203-.984c0 .14 0 .172-.125.328a1.15 1.15 0 0 1-.953.515c-.375 0-.687-.187-.875-.484-.219-.312-.266-.703-.266-1.078 0-.469.079-.797.266-1.063.188-.296.547-.53.953-.53.375 0 .766.202 1 .608Zm0 0"/><path id="bP" d="M5.64-1.86c0-.077 0-.156-.14-.156-.078 0-.11.047-.11.125C5.329-.67 4.329-.094 3.485-.094c-.671 0-2.187-.422-2.187-2.625 0-2.156 1.437-2.625 2.187-2.625s1.672.532 1.891 1.907c0 .062.016.109.125.109.14 0 .14-.047.14-.203v-1.875c0-.125 0-.203-.109-.203-.062 0-.062 0-.14.109l-.407.594a2.12 2.12 0 0 0-1.578-.703C1.812-5.61.47-4.33.47-2.72S1.797.171 3.422.171C4.75.172 5.64-.89 5.64-1.858m0 0"/><path id="bQ" d="M3.047-1.031c0-.375-.219-.938-1.172-1.11a10 10 0 0 0-.547-.093c-.25-.063-.625-.235-.625-.547 0-.235.188-.578.938-.578.89 0 .937.656.953.875 0 .062.062.093.11.093.14 0 .14-.062.14-.203v-.75c0-.125 0-.203-.11-.203-.046 0-.062 0-.187.125-.016 0-.094.078-.11.078 0 0-.03 0-.078-.031-.125-.094-.359-.172-.718-.172-1.11 0-1.36.594-1.36.985 0 .39.297.624.313.656.328.234.5.265 1.047.36.375.077.984.187.984.718 0 .312-.203.687-.937.687C.875-.14.64-.766.547-1.187c-.031-.11-.047-.141-.14-.141-.126 0-.126.062-.126.219v.984c0 .125 0 .203.094.203.063 0 .063 0 .203-.156.047-.047.125-.14.172-.188.36.329.734.344.938.344 1.015 0 1.359-.578 1.359-1.11m0 0"/><path id="bR" d="M4.11-3.203a.43.43 0 0 0-.454-.406c-.14 0-.531.046-.89.375a1.6 1.6 0 0 0-.891-.282c-.781 0-1.36.547-1.36 1.172 0 .375.204.656.376.813a.934.934 0 0 0 .094 1.36c-.422.108-.75.421-.75.78 0 .579.828 1.032 1.874 1.032 1 0 1.875-.407 1.875-1.047 0-.422-.25-.766-.515-.89-.469-.25-.86-.25-1.64-.25h-.454c-.25-.032-.437-.235-.437-.532 0-.188.046-.266.093-.328.344.187.657.234.844.234.781 0 1.375-.547 1.375-1.172 0-.297-.14-.562-.328-.765.11-.094.375-.266.765-.266-.03.016-.078.063-.078.188 0 .14.11.25.25.25a.25.25 0 0 0 .25-.266m-1.5.86c0 .296-.032.5-.157.656a.7.7 0 0 1-.578.28c-.734 0-.734-.765-.734-.937 0-.297.03-.5.156-.656a.72.72 0 0 1 .578-.281c.734 0 .734.765.734.937M3.515.608c0 .422-.61.797-1.407.797-.796 0-1.406-.375-1.406-.797 0-.171.14-.64.781-.64h.766c.219 0 1.266 0 1.266.64m0 0"/><path id="bS" d="M4.219-1.469a1.62 1.62 0 0 0-1.266-1.593L1.86-3.328c-.515-.11-.89-.516-.89-1 0-.547.469-1.047 1.156-1.047 1.375 0 1.563 1.297 1.61 1.594.015.094.015.14.124.14.125 0 .125-.046.125-.203v-1.562c0-.125 0-.203-.109-.203-.062 0-.078.015-.125.109l-.281.453c-.406-.437-.906-.562-1.344-.562-.953 0-1.656.718-1.656 1.53 0 .61.344.938.5 1.095.281.28.547.343 1.406.547.688.156.797.187 1.063.468a1.133 1.133 0 0 1-.89 1.875C1.67-.094.765-.516.717-1.625.704-1.75.704-1.812.595-1.812c-.125 0-.125.062-.125.218v1.547c0 .14 0 .219.11.219C.64.172.64.156.702.078.734.031.766-.047.984-.375c.5.438 1.094.547 1.579.547.984 0 1.656-.797 1.656-1.64m0 0"/><path id="bT" d="M3.89-5.172v-.266c-.406.016-.624.016-1.078.016-.343 0-.953 0-1.28-.016v.266h.265c.75 0 .781.094.781.375v3.61c0 .734-.437 1.125-.86 1.125-.343 0-.702-.157-.89-.407.219 0 .469-.14.469-.437a.426.426 0 0 0-.438-.438c-.171 0-.437.11-.437.453C.422-.297 1 .172 1.75.172c.734 0 1.531-.484 1.531-1.36v-3.64c0-.344.094-.344.61-.344m0 0"/><path id="bU" d="M1.625-.437a.453.453 0 0 0-.453-.454.436.436 0 0 0-.438.438.44.44 0 0 0 .438.453.45.45 0 0 0 .453-.437m0 0"/><path id="bV" d="M2.813 1.89c0-.03 0-.03-.11-.14C1.61.719 1.343-.75 1.343-1.984c0-2.297.938-3.375 1.345-3.75.124-.094.124-.11.124-.141 0-.047-.03-.094-.109-.094-.125 0-.531.407-.594.469C1.047-4.375.83-2.953.83-1.984c0 1.78.734 3.218 1.827 3.968.063 0 .156 0 .156-.093m0 0"/><path id="bW" d="M4.281-3.172v-.265c-.265.03-.281.03-.625.03-.031 0-.453 0-.687-.03v.265c.234.016.344.14.344.328 0 .047 0 .11-.047.203L2.422-.719l-.938-2.093c-.046-.11-.046-.126-.046-.157 0-.187.25-.203.421-.203v-.265c-.359.03-.703.03-.875.03-.171 0-.546 0-.812-.03v.265c.422 0 .531.016.672.313L2.094 0C1.734.844 1.5 1.406.938 1.406c-.204 0-.329-.093-.329-.093A.35.35 0 0 0 .86.969.336.336 0 0 0 .516.625c-.172 0-.344.11-.344.36 0 .343.344.64.766.64.718 0 1.093-.86 1.125-.937L3.53-2.625c.203-.453.5-.531.75-.547m0 0"/><path id="bX" d="M2.469-1.984c0-.766-.14-1.672-.625-2.61C1.454-5.328.719-5.969.578-5.969c-.078 0-.094.047-.094.094 0 .031 0 .047.094.14 1.11 1.063 1.36 2.516 1.36 3.75C1.938.298 1 1.376.593 1.75c-.11.094-.11.11-.11.14 0 .048.016.094.094.094.125 0 .531-.406.594-.468C2.234.39 2.469-1.031 2.469-1.984m0 0"/><path id="cd" d="M5.547 0v-.25h-.125c-.469 0-.516-.078-.594-.266L3.125-4.812c-.031-.11-.062-.157-.187-.157-.141 0-.157.047-.204.157L1.125-.734C1.063-.562.938-.25.313-.25V0c.234-.016.484-.031.718-.031.282 0 .797.031.844.031v-.25c-.312 0-.516-.14-.516-.328 0-.063.016-.078.047-.14l.328-.86H3.72l.406 1.016c0 .03.031.078.031.109 0 .203-.375.203-.562.203V0l1.031-.031c.328 0 .86.031.922.031M3.609-1.828H1.83l.89-2.266Zm0 0"/><path id="ce" d="M4.047 0v-.25c-.469 0-.516-.047-.516-.39v-4.204l-1.047.078v.25c.47 0 .516.063.516.391v1.453a1.37 1.37 0 0 0-.969-.406c-.937 0-1.703.703-1.703 1.578S1.062.063 1.938.063c.578 0 .921-.297 1.03-.422v.422ZM2.969-.734c-.172.328-.531.609-.985.609-.39 0-.671-.234-.812-.437-.14-.204-.219-.485-.219-.922 0-.172 0-.688.281-1.016.282-.312.625-.375.829-.375.328 0 .64.156.828.406.078.11.078.11.078.25Zm0 0"/><path id="cf" d="M5.469-2.75V-3c-.188.016-.313.031-.5.031-.219 0-.485-.015-.688-.031v.25c.235 0 .36.14.36.297 0 .062 0 .078-.047.172L3.922-.547l-.75-1.906a.3.3 0 0 1-.031-.125c0-.156.172-.172.375-.172V-3c-.25.016-.5.031-.75.031-.203 0-.422-.015-.625-.031v.25c.172 0 .312 0 .406.047.094.078.156.312.156.312s-.015.063-.031.079L2.016-.641l-.703-1.812c-.032-.094-.032-.094-.032-.125 0-.172.25-.172.375-.172V-3s-.515.031-.797.031C.641-2.969.422-2.984.203-3v.25c.281 0 .438 0 .5.203l.969 2.453c.047.11.062.157.203.157.125 0 .14-.047.172-.141l.797-1.984.765 1.968c.047.094.063.157.204.157.124 0 .14-.047.187-.157l.875-2.234c.14-.344.375-.422.594-.422m0 0"/><path id="cg" d="M3.266-.844c0-.015-.016-.094-.125-.094-.094 0-.11.047-.125.11-.22.562-.75.672-1 .672-.328 0-.641-.14-.844-.406-.266-.329-.266-.75-.266-1.032h2.157c.156 0 .203 0 .203-.14 0-.625-.344-1.375-1.391-1.375a1.59 1.59 0 0 0-1.61 1.578c0 .89.782 1.594 1.704 1.594.937 0 1.297-.75 1.297-.907m-.485-.922H.906c.078-.984.703-1.14.969-1.14.86 0 .89.969.906 1.14m0 0"/><path id="ch" d="M4.11 0v-.25c-.454 0-.516 0-.516-.297v-1.562c0-.61-.297-.97-1.047-.97-.578 0-.938.313-1.14.688v-.687L.374-3v.25c.469 0 .531.047.531.39v1.813c0 .297-.078.297-.531.297V0s.5-.031.797-.031c.25 0 .734.031.797.031v-.25c-.453 0-.516 0-.516-.297v-1.265c0-.72.578-1.063 1.031-1.063.485 0 .547.375.547.734v1.594c0 .297-.062.297-.515.297V0s.5-.031.797-.031c.25 0 .734.031.796.031m0 0"/><path id="ci" d="M2.61-.875v-.39h-.235v.374c0 .485-.219.735-.5.735-.469 0-.469-.578-.469-.703V-2.75h1.078V-3H1.406v-1.281h-.25c0 .625-.281 1.312-.953 1.328v.203h.64v1.875c0 .781.595.938.985.938.469 0 .781-.391.781-.938m0 0"/><path id="cj" d="M3.516-1.266H3.28c-.015.157-.094.563-.187.625-.047.047-.578.047-.688.047H1.125c.734-.64.984-.843 1.39-1.172.516-.406 1-.843 1-1.5 0-.843-.734-1.359-1.624-1.359-.86 0-1.453.61-1.453 1.25 0 .344.296.39.375.39.156 0 .359-.124.359-.374 0-.125-.047-.375-.406-.375.218-.485.687-.641 1.015-.641.703 0 1.063.547 1.063 1.11 0 .609-.438 1.078-.656 1.328L.516-.266C.437-.203.437-.187.437 0h2.876Zm0 0"/><path id="ck" d="M3.594-2.219c0-.765-.094-1.328-.406-1.812-.22-.313-.657-.594-1.204-.594C.36-4.625.36-2.719.36-2.219s0 2.36 1.625 2.36c1.61 0 1.61-1.86 1.61-2.36m-.625-.094c0 .516 0 1.032-.094 1.47-.14.64-.61.78-.89.78-.329 0-.75-.187-.891-.75C1-1.219 1-1.796 1-2.312c0-.515 0-1.046.094-1.421.156-.547.593-.703.89-.703.375 0 .735.234.86.64.11.375.125.875.125 1.485m0 0"/><path id="cl" d="M3.516-1.406c0-.782-.594-1.5-1.453-1.5-.313 0-.672.062-.985.328v-1.313c.36.094.563.094.672.094.922 0 1.469-.625 1.469-.734 0-.078-.047-.094-.078-.094 0 0-.032 0-.063.016-.172.062-.531.203-1.047.203-.203 0-.562-.016-1.015-.188-.079-.031-.094-.031-.094-.031-.094 0-.094.078-.094.188v2.046c0 .125 0 .204.11.204.062 0 .078 0 .14-.094.297-.375.734-.438.969-.438.422 0 .61.328.64.39.126.235.172.5.172.907 0 .203 0 .61-.218.922a.98.98 0 0 1-.813.422c-.453 0-.922-.25-1.094-.719.266.016.407-.156.407-.344 0-.296-.266-.343-.36-.343 0 0-.343 0-.343.375 0 .625.578 1.25 1.406 1.25.89 0 1.672-.657 1.672-1.547m0 0"/><path id="cm" d="M7.813-1.75v-.203H.109v.203Zm0 0"/><path id="cn" d="M3.578-2.297c0-1.719-.765-2.328-1.578-2.328a1.55 1.55 0 0 0-1.11.422c-.234.234-.515.5-.515 1.125 0 .89.703 1.547 1.516 1.547.562 0 .859-.375 1.015-.688v.14c0 1.735-.844 2-1.265 2-.157 0-.532-.015-.72-.233a.315.315 0 0 0 .313-.329.32.32 0 0 0-.328-.328c-.203 0-.328.14-.328.344 0 .469.39.766 1.063.766 1 0 1.937-.938 1.937-2.438M2.891-3c0 .906-.516 1.266-.953 1.266-.282 0-.532-.079-.735-.407-.156-.25-.156-.546-.156-.937 0-.406 0-.672.203-.953.172-.25.39-.39.75-.39s.578.218.688.405c.187.282.203.782.203 1.016m0 0"/><path id="co" d="M2.516 0v-.25h-.172c-.578 0-.578-.078-.578-.328v-3.61c0-.234 0-.328.578-.328h.172v-.25l-1.078.032-1.079-.032v.25h.172c.578 0 .578.094.578.329v3.609c0 .25 0 .328-.578.328H.36V0l1.079-.031Zm0 0"/><path id="cp" d="M3.578-1.422c0-.89-.703-1.547-1.515-1.547-.563 0-.86.375-1.016.688 0-.563.047-1.078.312-1.516.235-.375.61-.625 1.063-.625.203 0 .484.047.625.234-.172.016-.328.141-.328.344a.32.32 0 0 0 .328.328c.219 0 .344-.14.344-.343 0-.407-.297-.766-.985-.766-1 0-2.031.922-2.031 2.422C.375-.406 1.219.14 2 .14c.844 0 1.578-.657 1.578-1.563m-.672 0c0 .39 0 .688-.187.969A.82.82 0 0 1 2-.078c-.36 0-.625-.203-.781-.516-.094-.203-.157-.562-.157-.968 0-.688.407-1.204.97-1.204.312 0 .53.125.702.375.172.266.172.563.172.97m0 0"/><path id="cq" d="M2.016 1.734v-.328h-.72V-4.89h.72v-.328H.953v6.953Zm0 0"/><path id="cr" d="M3.297 0v-.25H3.03c-.703 0-.703-.094-.703-.328v-3.86c0-.187 0-.187-.203-.187-.453.438-1.078.438-1.36.438v.25c.157 0 .626 0 1-.188v3.547c0 .234 0 .328-.687.328H.812V0l1.235-.031Zm0 0"/><path id="cs" d="M1.531-.39a.403.403 0 0 0-.406-.407.4.4 0 0 0-.406.39c0 .25.203.407.406.407a.4.4 0 0 0 .406-.39m0 0"/><path id="ct" d="M1.297 1.734v-6.953H.219v.328h.734v6.297H.22v.328Zm0 0"/><path id="cu" d="M4.563 0v-.437H3.266v-5.157c0-.187 0-.297-.266-.297-.11 0-.125 0-.203.063-.688.516-1.656.516-1.828.516H.797v.437h.172a4.2 4.2 0 0 0 1.203-.172v4.61H.89V0c.343-.031 1.422-.031 1.828-.031.422 0 1.484 0 1.844.031m0 0"/><path id="cv" d="M4.86-2.953c0-.469-.032-1.39-.485-2.094-.297-.437-.828-.844-1.719-.844-1.281 0-2.218.72-2.218 1.938 0 1.125.765 1.937 2.093 1.937.406 0 .781-.203 1.063-.687v.172c0 .578-.063 1.156-.235 1.531-.109.234-.468.703-1.171.703-.079 0-.454 0-.735-.187a.55.55 0 0 0 .422-.563c0-.375-.281-.578-.578-.578-.25 0-.594.14-.594.594 0 .61.469 1.14 1.5 1.14 1.25 0 2.656-.796 2.656-3.062m-1.266-.89c0 .406-.172 1.452-1.031 1.452-.86 0-.86-.656-.86-1.53 0-.876 0-1.61.984-1.61.563 0 .766.515.797.593.11.297.11.782.11 1.094m0 0"/><path id="cw" d="M4.86-1.672c0-.953-.735-1.375-1.204-1.64.64-.313.906-.75.906-1.25 0-.86-.75-1.329-1.89-1.329-1.297 0-1.938.72-1.938 1.594 0 .484.266 1 .86 1.344-.485.25-1.156.61-1.156 1.515 0 1.11 1 1.547 2.203 1.547 1.453 0 2.218-.765 2.218-1.78m-1-2.89c0 .468-.282.796-.657 1l-1.375-.75c-.047-.016-.39-.204-.39-.516 0-.594.703-.703 1.187-.703.797 0 1.234.39 1.234.968m.187 3.375c0 .843-1.047.89-1.39.89-.798 0-1.407-.36-1.407-1.156 0-.406.172-.875.797-1.25l1.203.656c.484.266.797.438.797.86m0 0"/><path id="cx" d="M4.86-1.844c0-.484-.094-.968-.61-1.437-.469-.39-.937-.485-1.484-.485-.578 0-.922.407-1.063.688v-.156c0-1.125.219-1.485.313-1.641a1.47 1.47 0 0 1 1.218-.656c.172 0 .454.031.672.234-.36.078-.484.344-.484.563 0 .39.297.593.594.593a.57.57 0 0 0 .578-.609c0-.547-.375-1.14-1.375-1.14-1.297 0-2.781.827-2.781 3.046 0 .438.03 1.313.421 1.953.391.688 1.016 1 1.829 1 1.28 0 2.171-.734 2.171-1.953m-1.266-.015c0 .906 0 1.562-.922 1.562-.531 0-.766-.406-.828-.562-.125-.282-.125-1-.125-1.032 0-.921.39-1.515 1.015-1.515.86 0 .86.656.86 1.547m0 0"/><clipPath id="b"><path d="M.535.266h6.883v9.636H.535Zm0 0"/></clipPath><clipPath id="a"><path d="M0 0h8v10H0z"/></clipPath><clipPath id="bY"><path d="M15.023 568.348H403v11.336H15.023Zm0 0"/></clipPath><linearGradient id="bZ" x1="0" x2="388.063" y1="0" y2="0" gradientTransform="matrix(1 0 0 -1 15.024 579.685)" gradientUnits="userSpaceOnUse"><stop offset="0" stop-color="#fcf2a8"/><stop offset=".25" stop-color="#fcf2a8"/><stop offset=".313" stop-color="#fcf2a8"/><stop offset=".344" stop-color="#fcf2a8"/><stop offset=".352" stop-color="#fcf2a8"/><stop offset=".355" stop-color="#fcf2a5"/><stop offset=".359" stop-color="#fcf1a2"/><stop offset=".363" stop-color="#fcf09a"/><stop offset=".367" stop-color="#fcee92"/><stop offset=".371" stop-color="#fced8a"/><stop offset=".375" stop-color="#fceb82"/><stop offset=".379" stop-color="#fcea7a"/><stop offset=".383" stop-color="#fce872"/><stop offset=".387" stop-color="#fce66a"/><stop offset=".391" stop-color="#fce562"/><stop offset=".395" stop-color="#fce45c"/><stop offset=".398" stop-color="#fce357"/><stop offset=".406" stop-color="#fce357"/><stop offset=".438" stop-color="#fce357"/><stop offset=".5" stop-color="#fce357"/><stop offset=".563" stop-color="#fce357"/><stop offset=".566" stop-color="#fce45d"/><stop offset=".57" stop-color="#fce563"/><stop offset=".574" stop-color="#fce76b"/><stop offset=".578" stop-color="#fce873"/><stop offset=".582" stop-color="#fcea7b"/><stop offset=".586" stop-color="#fceb83"/><stop offset=".59" stop-color="#fced8b"/><stop offset=".594" stop-color="#fcee93"/><stop offset=".598" stop-color="#fcf09b"/><stop offset=".602" stop-color="#fcf1a3"/><stop offset=".605" stop-color="#fcf2a6"/><stop offset=".609" stop-color="#fcf2a8"/><stop offset=".625" stop-color="#fcf2a8"/><stop offset=".75" stop-color="#fcf2a8"/><stop offset="1" stop-color="#fcf2a8"/></linearGradient><g id="c" clip-path="url(#a)"><g clip-path="url(#b)"><path fill-rule="evenodd" d="m3.977 7.836 3.441 2.066V1.645c0-.762-.617-1.38-1.375-1.38H1.914C1.152.266.535.884.535 1.646v8.257Zm-2.754.851 2.754-1.652L6.73 8.687V1.646a.69.69 0 0 0-.687-.692H1.914a.69.69 0 0 0-.691.692Zm0 0"/></g></g></defs><use xlink:href="#c" transform="translate(9 27)"/><use xlink:href="#d" x="17.008" y="23.315"/><use xlink:href="#e" x="20.884" y="23.315"/><use xlink:href="#f" x="25.526" y="23.315"/><use xlink:href="#g" x="346.332" y="23.315"/><use xlink:href="#h" x="352.246" y="23.315"/><use xlink:href="#i" x="357.052" y="23.315"/><use xlink:href="#j" x="361.427" y="23.315"/><use xlink:href="#k" x="364.599" y="23.315"/><use xlink:href="#l" x="368.098" y="23.315"/><use xlink:href="#m" x="375.534" y="23.315"/><use xlink:href="#k" x="380.34" y="23.315"/><use xlink:href="#n" x="384.277" y="23.315"/><use xlink:href="#n" x="387.114" y="23.315"/><use xlink:href="#o" x="389.298" y="23.315"/><use xlink:href="#h" x="393.674" y="23.315"/><use xlink:href="#p" x="398.48" y="23.315"/><use xlink:href="#q" x="100.907" y="34.908"/><use xlink:href="#r" x="110.041" y="34.908"/><use xlink:href="#s" x="116.317" y="34.908"/><use xlink:href="#t" x="123.024" y="34.908"/><use xlink:href="#u" x="127.483" y="34.908"/><use xlink:href="#v" x="133.46" y="34.908"/><use xlink:href="#w" x="144.196" y="34.908"/><use xlink:href="#u" x="151.501" y="34.908"/><use xlink:href="#x" x="157.478" y="34.908"/><use xlink:href="#y" x="167.843" y="34.908"/><use xlink:href="#z" x="173.952" y="34.908"/><use xlink:href="#s" x="180.527" y="34.908"/><use xlink:href="#r" x="187.234" y="34.908"/><use xlink:href="#A" x="202.478" y="34.908"/><use xlink:href="#B" x="208.996" y="34.908"/><use xlink:href="#C" x="213.757" y="34.908"/><use xlink:href="#D" x="218.518" y="34.908"/><use xlink:href="#E" x="225.691" y="34.908"/><use xlink:href="#F" x="230.452" y="34.908"/><use xlink:href="#G" x="232.649" y="34.908"/><use xlink:href="#F" x="239.965" y="34.908"/><use xlink:href="#H" x="242.162" y="34.908"/><use xlink:href="#H" x="245.488" y="34.908"/><use xlink:href="#F" x="248.814" y="34.908"/><use xlink:href="#I" x="251.011" y="34.908"/><use xlink:href="#J" x="263.51" y="34.908"/><use xlink:href="#K" x="267.096" y="34.908"/><use xlink:href="#L" x="272.888" y="34.908"/><use xlink:href="#M" x="278.734" y="34.908"/><use xlink:href="#N" x="283.342" y="34.908"/><use xlink:href="#M" x="287.252" y="34.908"/><use xlink:href="#O" x="291.86" y="34.908"/><use xlink:href="#P" x="296.469" y="34.908"/><use xlink:href="#Q" x="301.077" y="34.908"/><use xlink:href="#M" x="305.686" y="34.908"/><use xlink:href="#R" x="310.294" y="34.908"/><path fill="none" stroke="#000" stroke-miterlimit="10" stroke-width=".398" d="M17.008 39.293h384.094"/><use xlink:href="#S" x="399.042" y="173.796"/><use xlink:href="#T" x="399.042" y="167.683"/><use xlink:href="#U" x="399.042" y="163.451"/><use xlink:href="#V" x="399.042" y="158.98"/><use xlink:href="#W" x="399.042" y="155.688"/><use xlink:href="#X" x="399.042" y="153.337"/><use xlink:href="#Y" x="399.042" y="149.575"/><use xlink:href="#Z" x="399.042" y="142.53"/><use xlink:href="#W" x="399.042" y="137.827"/><use xlink:href="#aa" x="399.042" y="132.655"/><use xlink:href="#W" x="399.042" y="127.953"/><use xlink:href="#ab" x="399.042" y="125.601"/><use xlink:href="#ac" x="399.042" y="118.548"/><use xlink:href="#Y" x="399.042" y="114.786"/><use xlink:href="#U" x="399.042" y="110.554"/><use xlink:href="#ac" x="399.042" y="105.852"/><use xlink:href="#ad" x="399.042" y="99.268"/><use xlink:href="#ac" x="399.042" y="96.917"/><use xlink:href="#ae" x="399.042" y="93.155"/><use xlink:href="#W" x="399.042" y="90.804"/><use xlink:href="#ab" x="399.042" y="88.453"/><use xlink:href="#W" x="399.042" y="81.4"/><use xlink:href="#U" x="399.042" y="79.049"/><use xlink:href="#T" x="399.042" y="74.346"/><use xlink:href="#V" x="399.042" y="70.114"/><use xlink:href="#T" x="399.042" y="66.823"/><use xlink:href="#af" x="399.042" y="59.769"/><use xlink:href="#ag" x="399.042" y="55.537"/><use xlink:href="#ag" x="399.042" y="51.305"/><use xlink:href="#ah" x="399.042" y="47.073"/><use xlink:href="#ai" x="399.042" y="42.841"/><use xlink:href="#aj" x="403.164" y="40.487"/><use xlink:href="#ak" x="403.164" y="46.6"/><use xlink:href="#al" x="403.164" y="50.832"/><use xlink:href="#am" x="403.164" y="55.295"/><use xlink:href="#an" x="403.164" y="58.587"/><use xlink:href="#ao" x="403.164" y="60.938"/><use xlink:href="#ap" x="403.164" y="64.7"/><use xlink:href="#aq" x="403.164" y="71.745"/><use xlink:href="#ar" x="403.164" y="76.448"/><use xlink:href="#as" x="403.164" y="83.031"/><use xlink:href="#an" x="403.164" y="87.733"/><use xlink:href="#at" x="403.164" y="90.084"/><use xlink:href="#ar" x="403.164" y="97.138"/><use xlink:href="#au" x="403.164" y="100.9"/><use xlink:href="#al" x="403.164" y="105.132"/><use xlink:href="#av" x="403.164" y="112.655"/><use xlink:href="#al" x="403.164" y="115.007"/><use xlink:href="#ap" x="403.164" y="119.709"/><use xlink:href="#ap" x="403.164" y="126.762"/><use xlink:href="#aw" x="403.164" y="130.994"/><use xlink:href="#ao" x="403.164" y="135.697"/><use xlink:href="#an" x="403.164" y="139.458"/><use xlink:href="#ax" x="403.164" y="141.81"/><use xlink:href="#ay" x="403.164" y="146.042"/><use xlink:href="#az" x="403.164" y="148.393"/><use xlink:href="#aA" x="105.099" y="61.174"/><use xlink:href="#aB" x="121.609" y="51.089" fill="red"/><use xlink:href="#aC" x="121.609" y="61.174"/><use xlink:href="#aD" x="134.138" y="61.174"/><use xlink:href="#aE" x="141.263" y="61.174"/><use xlink:href="#aF" x="146.87" y="61.174"/><use xlink:href="#aG" x="152.871" y="61.174"/><use xlink:href="#aH" x="155.621" y="61.174"/><use xlink:href="#aI" x="160.821" y="61.174"/><use xlink:href="#aJ" x="167.971" y="51.089" fill="red"/><use xlink:href="#aK" x="167.971" y="61.174"/><use xlink:href="#aL" x="174.295" y="61.174"/><use xlink:href="#aM" x="180.153" y="61.174"/><use xlink:href="#aN" x="185.234" y="61.174"/><use xlink:href="#aO" x="192.873" y="61.174"/><use xlink:href="#aP" x="198.731" y="61.174"/><use xlink:href="#aI" x="201.481" y="61.174"/><use xlink:href="#aQ" x="208.63" y="61.174"/><use xlink:href="#aR" x="214.309" y="61.174"/><use xlink:href="#aS" x="223.562" y="61.174"/><use xlink:href="#aN" x="230.567" y="61.174"/><use xlink:href="#aO" x="238.207" y="61.174"/><use xlink:href="#aT" x="244.065" y="61.174"/><use xlink:href="#aU" x="251.048" y="51.089" fill="red"/><use xlink:href="#aV" x="251.048" y="61.174"/><use xlink:href="#aW" x="255.531" y="61.174"/><use xlink:href="#aX" x="259.285" y="61.174"/><use xlink:href="#aY" x="265.286" y="61.174"/><use xlink:href="#aE" x="271.144" y="61.174"/><use xlink:href="#aL" x="280.649" y="61.174"/><use xlink:href="#aZ" x="286.829" y="61.174"/><use xlink:href="#aV" x="292.831" y="61.174"/><use xlink:href="#aM" x="297.314" y="61.174"/><use xlink:href="#aH" x="302.395" y="61.174"/><use xlink:href="#aZ" x="307.595" y="61.174"/><use xlink:href="#aW" x="313.597" y="61.174"/><use xlink:href="#aN" x="321.248" y="61.174"/><use xlink:href="#aK" x="333.107" y="61.174"/><use xlink:href="#aL" x="339.431" y="61.174"/><use xlink:href="#ba" x="345.29" y="51.089" fill="red"/><use xlink:href="#bb" x="358.023" y="46.749" fill="red"/><use xlink:href="#bc" x="345.29" y="61.174"/><use xlink:href="#aL" x="350.646" y="61.174"/><use xlink:href="#aT" x="356.504" y="61.174"/><use xlink:href="#aX" x="359.588" y="61.174"/><use xlink:href="#aI" x="365.59" y="61.174"/><use xlink:href="#bd" x="368.842" y="56.835"/><use xlink:href="#aB" x="121.609" y="72.733" fill="red"/><use xlink:href="#aQ" x="121.609" y="82.818"/><use xlink:href="#aL" x="127.933" y="82.818"/><use xlink:href="#aN" x="133.468" y="82.818"/><use xlink:href="#aG" x="141.43" y="82.818"/><use xlink:href="#aH" x="144.18" y="82.818"/><use xlink:href="#be" x="149.38" y="82.818"/><use xlink:href="#be" x="162.531" y="82.818"/><use xlink:href="#aL" x="171.784" y="82.818"/><use xlink:href="#aT" x="177.642" y="82.818"/><use xlink:href="#aH" x="180.726" y="82.818"/><use xlink:href="#aJ" x="189.825" y="72.733" fill="red"/><use xlink:href="#aL" x="189.825" y="82.818"/><use xlink:href="#bf" x="196.006" y="82.818"/><use xlink:href="#aM" x="201.206" y="82.818"/><use xlink:href="#aR" x="206.287" y="82.818"/><use xlink:href="#aM" x="215.54" y="82.818"/><use xlink:href="#aL" x="220.621" y="82.818"/><use xlink:href="#aQ" x="226.479" y="82.818"/><use xlink:href="#aE" x="232.48" y="82.818"/><use xlink:href="#aU" x="238.088" y="72.733" fill="red"/><use xlink:href="#bf" x="238.088" y="82.818"/><use xlink:href="#aM" x="243.288" y="82.818"/><use xlink:href="#aR" x="248.369" y="82.818"/><use xlink:href="#aW" x="253.725" y="82.818"/><use xlink:href="#aR" x="257.479" y="82.818"/><use xlink:href="#aS" x="266.732" y="82.818"/><use xlink:href="#aN" x="273.738" y="82.818"/><use xlink:href="#aH" x="281.377" y="82.818"/><use xlink:href="#aM" x="290.475" y="82.818"/><use xlink:href="#aQ" x="295.556" y="82.818"/><use xlink:href="#aE" x="301.557" y="82.818"/><use xlink:href="#ba" x="307.165" y="72.733" fill="red"/><use xlink:href="#bb" x="319.898" y="68.393" fill="red"/><use xlink:href="#aN" x="307.165" y="82.818"/><use xlink:href="#aG" x="315.127" y="82.818"/><use xlink:href="#aH" x="317.877" y="82.818"/><use xlink:href="#aF" x="323.077" y="82.818"/><use xlink:href="#aG" x="329.079" y="82.818"/><use xlink:href="#aH" x="331.828" y="82.818"/><use xlink:href="#aI" x="337.029" y="82.818"/><use xlink:href="#bg" x="121.609" y="94.376" fill="red"/><use xlink:href="#bh" x="121.609" y="104.462"/><use xlink:href="#aN" x="126.092" y="104.462"/><use xlink:href="#aG" x="134.054" y="104.462"/><use xlink:href="#aE" x="136.804" y="104.462"/><use xlink:href="#bi" x="142.411" y="104.462"/><use xlink:href="#aW" x="146.643" y="104.462"/><use xlink:href="#aL" x="150.074" y="104.462"/><use xlink:href="#aZ" x="159.829" y="104.462"/><use xlink:href="#aP" x="165.831" y="104.462"/><use xlink:href="#aE" x="168.58" y="104.462"/><use xlink:href="#aB" x="178.085" y="94.376" fill="red"/><use xlink:href="#aK" x="178.085" y="104.462"/><use xlink:href="#aL" x="184.409" y="104.462"/><use xlink:href="#aY" x="190.267" y="104.462"/><use xlink:href="#aE" x="196.125" y="104.462"/><use xlink:href="#aF" x="201.732" y="104.462"/><use xlink:href="#aI" x="207.733" y="104.462"/><use xlink:href="#aU" x="214.883" y="94.376" fill="red"/><use xlink:href="#bf" x="214.883" y="104.462"/><use xlink:href="#bj" x="220.083" y="104.462"/><use xlink:href="#aN" x="226.085" y="104.462"/><use xlink:href="#aE" x="233.724" y="104.462"/><use xlink:href="#aW" x="239.331" y="104.462"/><use xlink:href="#bk" x="242.762" y="104.462"/><use xlink:href="#bl" x="251.86" y="104.462"/><use xlink:href="#aM" x="255.04" y="104.462"/><use xlink:href="#bm" x="260.121" y="104.462"/><use xlink:href="#aE" x="264.102" y="104.462"/><use xlink:href="#aJ" x="269.71" y="94.376" fill="red"/><use xlink:href="#bb" x="280.123" y="90.037" fill="red"/><use xlink:href="#aH" x="269.71" y="104.462"/><use xlink:href="#aP" x="274.91" y="104.462"/><use xlink:href="#aE" x="277.66" y="104.462"/><use xlink:href="#bn" x="283.267" y="104.462"/><use xlink:href="#bo" x="101.74" y="129.094"/><use xlink:href="#bp" x="121.609" y="119.009" fill="red"/><use xlink:href="#bq" x="121.609" y="129.094"/><use xlink:href="#aP" x="129.344" y="129.094"/><use xlink:href="#aP" x="132.094" y="129.094"/><use xlink:href="#aH" x="134.843" y="129.094"/><use xlink:href="#aP" x="140.044" y="129.094"/><use xlink:href="#aX" x="142.793" y="129.094"/><use xlink:href="#aU" x="148.795" y="119.009" fill="red"/><use xlink:href="#aT" x="148.795" y="129.094"/><use xlink:href="#aE" x="151.879" y="129.094"/><use xlink:href="#aI" x="157.486" y="129.094"/><use xlink:href="#aE" x="164.635" y="129.094"/><use xlink:href="#aP" x="170.242" y="129.094"/><use xlink:href="#aP" x="172.992" y="129.094"/><use xlink:href="#aH" x="175.742" y="129.094"/><use xlink:href="#aP" x="180.942" y="129.094"/><use xlink:href="#aX" x="183.692" y="129.094"/><use xlink:href="#aJ" x="189.694" y="119.009" fill="red"/><use xlink:href="#bb" x="200.107" y="114.669" fill="red"/><use xlink:href="#aT" x="189.694" y="129.094"/><use xlink:href="#aE" x="192.778" y="129.094"/><use xlink:href="#aI" x="198.385" y="129.094"/><use xlink:href="#bp" x="121.609" y="140.652" fill="red"/><use xlink:href="#aE" x="121.609" y="150.738"/><use xlink:href="#aP" x="127.216" y="150.738"/><use xlink:href="#aP" x="129.966" y="150.738"/><use xlink:href="#aH" x="132.715" y="150.738"/><use xlink:href="#aP" x="137.916" y="150.738"/><use xlink:href="#aX" x="140.665" y="150.738"/><use xlink:href="#aU" x="146.667" y="140.652" fill="red"/><use xlink:href="#aT" x="146.667" y="150.738"/><use xlink:href="#aE" x="149.751" y="150.738"/><use xlink:href="#aI" x="155.358" y="150.738"/><use xlink:href="#aE" x="162.507" y="150.738"/><use xlink:href="#aP" x="168.114" y="150.738"/><use xlink:href="#aP" x="170.864" y="150.738"/><use xlink:href="#aH" x="173.614" y="150.738"/><use xlink:href="#aP" x="178.814" y="150.738"/><use xlink:href="#aX" x="181.564" y="150.738"/><use xlink:href="#aJ" x="187.566" y="140.652" fill="red"/><use xlink:href="#bb" x="197.979" y="136.313" fill="red"/><use xlink:href="#aT" x="187.566" y="150.738"/><use xlink:href="#aE" x="190.65" y="150.738"/><use xlink:href="#bn" x="196.257" y="150.738"/><use xlink:href="#aA" x="105.099" y="178.359"/><use xlink:href="#bg" x="121.609" y="168.274" fill="red"/><use xlink:href="#br" x="121.609" y="178.359"/><use xlink:href="#aN" x="128.113" y="178.359"/><use xlink:href="#aG" x="136.075" y="178.359"/><use xlink:href="#aE" x="138.824" y="178.359"/><use xlink:href="#bi" x="144.431" y="178.359"/><use xlink:href="#aW" x="148.663" y="178.359"/><use xlink:href="#aL" x="152.094" y="178.359"/><use xlink:href="#aZ" x="161.85" y="178.359"/><use xlink:href="#aP" x="167.851" y="178.359"/><use xlink:href="#aE" x="170.601" y="178.359"/><use xlink:href="#aB" x="180.106" y="168.274" fill="red"/><use xlink:href="#aK" x="180.106" y="178.359"/><use xlink:href="#aL" x="186.43" y="178.359"/><use xlink:href="#aY" x="192.288" y="178.359"/><use xlink:href="#aE" x="198.146" y="178.359"/><use xlink:href="#aF" x="203.753" y="178.359"/><use xlink:href="#aI" x="209.754" y="178.359"/><use xlink:href="#aU" x="216.904" y="168.274" fill="red"/><use xlink:href="#bf" x="216.904" y="178.359"/><use xlink:href="#bj" x="222.104" y="178.359"/><use xlink:href="#aN" x="228.106" y="178.359"/><use xlink:href="#aE" x="235.745" y="178.359"/><use xlink:href="#aW" x="241.352" y="178.359"/><use xlink:href="#bk" x="244.783" y="178.359"/><use xlink:href="#bl" x="253.881" y="178.359"/><use xlink:href="#aM" x="257.061" y="178.359"/><use xlink:href="#bm" x="262.142" y="178.359"/><use xlink:href="#aE" x="266.123" y="178.359"/><use xlink:href="#aJ" x="271.73" y="168.274" fill="red"/><use xlink:href="#bb" x="282.143" y="163.934" fill="red"/><use xlink:href="#aH" x="271.73" y="178.359"/><use xlink:href="#aP" x="276.93" y="178.359"/><use xlink:href="#aE" x="279.68" y="178.359"/><use xlink:href="#bn" x="285.287" y="178.359"/><use xlink:href="#bo" x="101.74" y="202.991"/><use xlink:href="#bp" x="121.609" y="192.906" fill="red"/><use xlink:href="#bq" x="121.609" y="202.991"/><use xlink:href="#aP" x="129.344" y="202.991"/><use xlink:href="#aP" x="132.094" y="202.991"/><use xlink:href="#aH" x="134.843" y="202.991"/><use xlink:href="#aP" x="140.044" y="202.991"/><use xlink:href="#aX" x="142.793" y="202.991"/><use xlink:href="#aU" x="148.795" y="192.906" fill="red"/><use xlink:href="#aT" x="148.795" y="202.991"/><use xlink:href="#aE" x="151.879" y="202.991"/><use xlink:href="#aI" x="157.486" y="202.991"/><use xlink:href="#aE" x="164.635" y="202.991"/><use xlink:href="#aP" x="170.242" y="202.991"/><use xlink:href="#aP" x="172.992" y="202.991"/><use xlink:href="#aH" x="175.742" y="202.991"/><use xlink:href="#aP" x="180.942" y="202.991"/><use xlink:href="#aX" x="183.692" y="202.991"/><use xlink:href="#aJ" x="189.694" y="192.906" fill="red"/><use xlink:href="#bb" x="200.107" y="188.566" fill="red"/><use xlink:href="#aT" x="189.694" y="202.991"/><use xlink:href="#aE" x="192.778" y="202.991"/><use xlink:href="#aI" x="198.385" y="202.991"/><use xlink:href="#bp" x="121.609" y="214.55" fill="red"/><use xlink:href="#aE" x="121.609" y="224.635"/><use xlink:href="#aP" x="127.216" y="224.635"/><use xlink:href="#aP" x="129.966" y="224.635"/><use xlink:href="#aH" x="132.715" y="224.635"/><use xlink:href="#aP" x="137.916" y="224.635"/><use xlink:href="#aX" x="140.665" y="224.635"/><use xlink:href="#aU" x="146.667" y="214.55" fill="red"/><use xlink:href="#aT" x="146.667" y="224.635"/><use xlink:href="#aE" x="149.751" y="224.635"/><use xlink:href="#aI" x="155.358" y="224.635"/><use xlink:href="#aE" x="162.507" y="224.635"/><use xlink:href="#aP" x="168.114" y="224.635"/><use xlink:href="#aP" x="170.864" y="224.635"/><use xlink:href="#aH" x="173.614" y="224.635"/><use xlink:href="#aP" x="178.814" y="224.635"/><use xlink:href="#aX" x="181.564" y="224.635"/><use xlink:href="#aJ" x="187.566" y="214.55" fill="red"/><use xlink:href="#bb" x="197.979" y="210.21" fill="red"/><use xlink:href="#aT" x="187.566" y="224.635"/><use xlink:href="#aE" x="190.65" y="224.635"/><use xlink:href="#bn" x="196.257" y="224.635"/><path fill="none" stroke="#000" stroke-miterlimit="10" stroke-width=".398" d="M17.008 554.586h153.637"/><use xlink:href="#bs" x="27.919" y="561.109"/><g fill="red"><use xlink:href="#bt" x="31.354" y="564.002"/><use xlink:href="#bu" x="37.116" y="564.002"/><use xlink:href="#bv" x="39.467" y="564.002"/><use xlink:href="#bw" x="43.229" y="564.002"/><use xlink:href="#bx" x="46.569" y="564.002"/></g><g fill="red"><use xlink:href="#by" x="54.092" y="564.002"/><use xlink:href="#bv" x="58.795" y="564.002"/><use xlink:href="#bz" x="62.557" y="564.002"/><use xlink:href="#bA" x="66.789" y="564.002"/><use xlink:href="#bB" x="71.26" y="564.002"/><use xlink:href="#bC" x="75.492" y="564.002"/><use xlink:href="#bv" x="78.783" y="564.002"/><use xlink:href="#bD" x="82.545" y="564.002"/></g><use xlink:href="#bE" x="86.068" y="564.002" fill="red"/><g fill="red"><use xlink:href="#bF" x="90.531" y="564.002"/><use xlink:href="#bG" x="95.234" y="564.002"/><use xlink:href="#bv" x="102.287" y="564.002"/><use xlink:href="#by" x="106.049" y="564.002"/><use xlink:href="#bB" x="110.751" y="564.002"/><use xlink:href="#bH" x="114.983" y="564.002"/><use xlink:href="#by" x="117.334" y="564.002"/><use xlink:href="#bB" x="122.037" y="564.002"/></g><g fill="red"><use xlink:href="#bI" x="129.09" y="564.002"/><use xlink:href="#bv" x="132.852" y="564.002"/></g><g fill="red"><use xlink:href="#bw" x="139.435" y="564.002"/><use xlink:href="#bJ" x="142.775" y="564.002"/><use xlink:href="#bu" x="147.477" y="564.002"/><use xlink:href="#bv" x="149.828" y="564.002"/><use xlink:href="#bK" x="153.59" y="564.002"/><use xlink:href="#by" x="159.703" y="564.002"/><use xlink:href="#bu" x="164.405" y="564.002"/><use xlink:href="#bA" x="166.756" y="564.002"/><use xlink:href="#bB" x="171.228" y="564.002"/></g><g fill="red"><use xlink:href="#bL" x="178.281" y="564.002"/><use xlink:href="#bH" x="184.625" y="564.002"/><use xlink:href="#bM" x="186.976" y="564.002"/><use xlink:href="#bN" x="189.567" y="564.002"/><use xlink:href="#bv" x="192.866" y="564.002"/><use xlink:href="#bO" x="196.628" y="564.002"/><use xlink:href="#bB" x="201.33" y="564.002"/></g><g fill="red"><use xlink:href="#bP" x="208.384" y="564.002"/><use xlink:href="#bE" x="214.497" y="564.002"/><use xlink:href="#bz" x="219.199" y="564.002"/><use xlink:href="#bH" x="223.431" y="564.002"/><use xlink:href="#bv" x="225.782" y="564.002"/><use xlink:href="#bK" x="229.544" y="564.002"/><use xlink:href="#bu" x="235.657" y="564.002"/><use xlink:href="#bx" x="238.008" y="564.002"/><use xlink:href="#bQ" x="242.71" y="564.002"/><use xlink:href="#bA" x="246.05" y="564.002"/><use xlink:href="#bu" x="250.521" y="564.002"/><use xlink:href="#bv" x="252.872" y="564.002"/><use xlink:href="#bR" x="256.634" y="564.002"/><use xlink:href="#bz" x="260.866" y="564.002"/></g><g fill="red"><use xlink:href="#bS" x="267.92" y="564.002"/><use xlink:href="#bT" x="272.622" y="564.002"/><use xlink:href="#bU" x="276.973" y="564.002"/></g><g fill="red"><use xlink:href="#bV" x="282.146" y="564.002"/><use xlink:href="#bJ" x="285.438" y="564.002"/><use xlink:href="#bN" x="290.14" y="564.002"/><use xlink:href="#bI" x="293.439" y="564.002"/><use xlink:href="#bW" x="297.201" y="564.002"/><use xlink:href="#bJ" x="301.672" y="564.002"/><use xlink:href="#bU" x="306.375" y="564.002"/></g><g fill="red"><use xlink:href="#bN" x="311.547" y="564.002"/><use xlink:href="#bv" x="314.847" y="564.002"/><use xlink:href="#bO" x="318.609" y="564.002"/><use xlink:href="#bU" x="323.311" y="564.002"/><use xlink:href="#bX" x="325.662" y="564.002"/></g><g clip-path="url(#bY)"><path fill="url(#bZ)" d="M15.023 579.684v-11.336h388.063v11.336Zm0 0"/></g><use xlink:href="#ca" x="17.008" y="577.985"/><use xlink:href="#cb" x="23.739" y="577.985"/><use xlink:href="#cc" x="30.469" y="577.985"/><use xlink:href="#cd" x="274.855" y="577.985"/><use xlink:href="#ce" x="280.518" y="577.985"/><use xlink:href="#cf" x="284.918" y="577.985"/><use xlink:href="#cg" x="290.393" y="577.985"/><use xlink:href="#ch" x="293.936" y="577.985"/><use xlink:href="#ci" x="298.12" y="577.985"/><use xlink:href="#cj" x="303.916" y="577.985"/><use xlink:href="#ck" x="307.884" y="577.985"/><use xlink:href="#cj" x="311.852" y="577.985"/><use xlink:href="#cl" x="315.82" y="577.985"/><use xlink:href="#cm" x="322.473" y="577.985"/><use xlink:href="#cj" x="333.102" y="577.985"/><use xlink:href="#cn" x="337.07" y="577.985"/><use xlink:href="#co" x="343.723" y="577.985"/><use xlink:href="#cj" x="349.289" y="577.985"/><use xlink:href="#ck" x="353.257" y="577.985"/><use xlink:href="#cj" x="357.225" y="577.985"/><use xlink:href="#cp" x="361.193" y="577.985"/><use xlink:href="#cm" x="367.846" y="577.985"/><use xlink:href="#cq" x="378.475" y="577.985"/><use xlink:href="#cl" x="380.727" y="577.985"/><use xlink:href="#cr" x="384.696" y="577.985"/><use xlink:href="#ck" x="388.664" y="577.985"/><use xlink:href="#cs" x="392.632" y="577.985"/><use xlink:href="#cr" x="394.885" y="577.985"/><use xlink:href="#ct" x="398.853" y="577.985"/><path fill="#f2f2f2" stroke="#000" stroke-miterlimit="10" stroke-width=".797" d="M196.602 576.055v-3.989a2.99 2.99 0 0 1 2.988-2.988h18.93a2.99 2.99 0 0 1 2.988 2.988v3.989a2.99 2.99 0 0 1-2.988 2.988h-18.93a2.99 2.99 0 0 1-2.988-2.988Zm0 0"/><use xlink:href="#cu" x="198.439" y="576.948"/><use xlink:href="#cv" x="203.747" y="576.948"/><use xlink:href="#cw" x="209.055" y="576.948"/><use xlink:href="#cx" x="214.363" y="576.948"/></svg>