<svg xmlns="http://www.w3.org/2000/svg" xmlns:xlink="http://www.w3.org/1999/xlink" width="559.371" height="793.701" viewBox="0 0 419.528 595.276"><defs><path id="d" d="M3.344 2.297v-.078L1.5-2.5l1.844-4.703v-.078c0-.11-.078-.203-.188-.203a.24.24 0 0 0-.203.14L1.11-2.562c-.015.015-.015.046-.015.062 0 .031 0 .063.015.078L2.953 2.36a.24.24 0 0 0 .203.141c.11 0 .188-.094.188-.203m0 0"/><path id="e" d="M5.438-1.422c0-.11-.079-.11-.11-.11-.11 0-.11.032-.156.188-.14.532-.469 1.235-1.016 1.235-.172 0-.234-.094-.234-.328 0-.25.078-.485.172-.704.156-.437.61-1.625.61-2.203 0-.64-.391-1.062-1.141-1.062-.626 0-1.11.312-1.485.765l.781-3.171s0-.11-.125-.11c-.234 0-.953.078-1.218.11-.079 0-.188.015-.188.187 0 .125.094.125.234.125.485 0 .5.063.5.172l-.03.203L.593-.391C.547-.25.547-.234.547-.17c0 .234.203.28.297.28a.41.41 0 0 0 .36-.265l.187-.75.218-.89c.063-.235.125-.454.172-.673.016-.062.11-.39.11-.453.03-.094.343-.64.687-.922.219-.156.516-.344.953-.344.422 0 .531.344.531.704 0 .53-.375 1.625-.609 2.234-.078.219-.14.344-.14.547 0 .469.359.812.828.812.937 0 1.297-1.453 1.297-1.53m0 0"/><path id="f" d="M2.781-2.5c0-.016 0-.047-.015-.062L.922-7.344c-.031-.078-.11-.14-.188-.14a.207.207 0 0 0-.203.203v.078L2.375-2.5.531 2.219v.078c0 .11.094.203.203.203.079 0 .157-.062.188-.14l1.844-4.782c.015-.015.015-.047.015-.078m0 0"/><path id="g" d="M3.047-1.14c0-.11-.11-.11-.14-.11-.126 0-.141.031-.173.14-.359.813-.718.97-.968.97-.203 0-.235-.172-.235-.36 0-.047 0-.125.016-.219l.61-2.453h.734c.125 0 .218 0 .218-.156 0-.11-.093-.11-.218-.11h-.672l.297-1.14c.03-.125.03-.14.03-.172 0-.187-.171-.234-.233-.234-.25 0-.329.25-.344.312l-.297 1.234H.953c-.14 0-.25 0-.25.157 0 .11.11.11.235.11h.671L1.047-.938C1-.781 1-.734 1-.657c0 .47.36.735.75.735.828 0 1.297-1.11 1.297-1.219m0 0"/><path id="h" d="M4.11-2.969c0-.453-.579-.547-.844-.547-.47 0-.797.25-1.032.547-.062-.297-.328-.547-.718-.547-.266 0-.453.157-.61.438-.156.265-.265.75-.265.781 0 .11.093.11.14.11.14 0 .14-.032.188-.22.125-.468.265-.89.531-.89.234 0 .234.281.234.36 0 .109-.015.234-.046.343L1.094-.266c-.016.079-.016.094-.016.125 0 .125.094.22.234.22.22 0 .313-.188.344-.313l.485-1.953c.015-.11.39-1.11 1.109-1.11.078 0 .297.016.453.14-.265.095-.281.298-.281.36 0 .219.187.266.281.266.156 0 .406-.11.406-.438m0 0"/><path id="i" d="M4.5-1.14c0-.11-.11-.11-.156-.11-.125 0-.125.031-.172.234-.156.61-.328.875-.531.875-.235 0-.235-.25-.235-.359 0-.047 0-.125.031-.219L4-2.969c0-.047.031-.125.031-.172 0-.125-.11-.218-.25-.218-.11 0-.281.062-.328.297-.156-.282-.39-.454-.734-.454-.938 0-1.89 1.188-1.89 2.329 0 .75.452 1.265 1.046 1.265.469 0 .86-.344 1.031-.547.063.297.328.547.719.547.281 0 .469-.172.61-.422.171-.312.265-.797.265-.797m-1.547.077c-.062.282-.594.922-1.062.922-.375 0-.485-.406-.485-.734 0-.375.235-1.312.422-1.672.328-.578.672-.75.89-.75.516 0 .595.688.595.766l-.016.11Zm0 0"/><path id="j" d="M4.578-1.14c0-.11-.11-.11-.14-.11-.141 0-.141.031-.188.234-.156.61-.328.875-.531.875-.235 0-.235-.25-.235-.359 0-.047 0-.125.032-.219l1.14-4.578c0-.031.016-.094.016-.125 0-.11-.125-.11-.203-.094l-.828.063c-.125.016-.203.016-.203.156 0 .125.093.125.203.125.39 0 .39.047.39.11 0 .046-.031.125-.031.171l-.469 1.829c-.156-.282-.39-.454-.719-.454-.953 0-1.906 1.188-1.906 2.329 0 .75.453 1.265 1.047 1.265.469 0 .86-.344 1.031-.547.063.297.329.547.72.547.28 0 .468-.172.608-.422.172-.312.266-.797.266-.797m-1.547.077C2.97-.78 2.453-.14 1.97-.14c-.36 0-.485-.406-.485-.734 0-.375.235-1.312.422-1.672.328-.578.672-.75.907-.75.5 0 .578.688.578.766l-.016.11Zm0 0"/><path id="k" d="m3.516.078.78-3.125c.032-.11.032-.125.032-.156 0-.156-.11-.235-.234-.235-.25 0-.313.25-.328.329L3.219-.922c-.047.156-.375.781-.906.781-.47 0-.47-.484-.47-.625 0-.453.204-1 .454-1.687.062-.156.094-.235.094-.406 0-.438-.328-.657-.657-.657-.765 0-1.093 1.11-1.093 1.22 0 .108.093.108.14.108.14 0 .14-.03.172-.171.14-.5.406-.938.766-.938.14 0 .172.11.172.25 0 .188-.063.36-.141.531-.219.625-.437 1.204-.437 1.641 0 .719.515.953.968.953.344 0 .625-.172.75-.297A2.75 2.75 0 0 1 2.562.906c-.218.25-.515.5-.859.5-.219 0-.406-.093-.5-.297.219-.046.36-.218.36-.406 0-.14-.11-.25-.282-.25-.14 0-.406.078-.406.485s.344.687.813.687c.89 0 1.656-.844 1.828-1.547m0 0"/><path id="l" d="M4-.797c0-.062-.11-.172-.156-.172-.047 0-.063.016-.125.094a2.02 2.02 0 0 1-1.5.734c-.422 0-.703-.312-.703-.843 0-.391.187-1.11.375-1.485.375-.656.859-.828 1.14-.828.094 0 .438.016.578.297-.343.063-.343.36-.343.39 0 .126.093.266.28.266.204 0 .407-.172.407-.484 0-.406-.375-.688-.922-.688-1.047 0-2.11 1.079-2.11 2.25 0 .813.517 1.344 1.282 1.344C3.36.078 4-.687 4-.797m0 0"/><path id="m" d="M1.922.422 2.64-2.5c.046-.156.046-.219.046-.281 0-.438-.328-.735-.75-.735C1.11-3.516.642-2.39.642-2.28c0 .094.109.094.14.094.125 0 .14-.032.172-.126.328-.78.719-.984.969-.984.14 0 .234.063.234.36 0 .109-.015.171-.015.218L1.359.406c-.062.266-.343 1-.875 1a.63.63 0 0 1-.296-.062C.39 1.234.406 1 .406 1 .406.844.296.734.125.734a.417.417 0 0 0-.406.422c0 .297.328.469.765.469.672 0 1.282-.578 1.438-1.203m1.031-5.266a.354.354 0 0 0-.36-.375.55.55 0 0 0-.53.532c0 .234.171.359.359.359.265 0 .531-.234.531-.516m0 0"/><path id="n" d="M5.016-1.14c0-.11-.11-.11-.157-.11-.125 0-.14.031-.171.172-.141.516-.407.937-.75.937-.157 0-.172-.109-.172-.25 0-.187.062-.359.109-.515.172-.422.484-1.281.484-1.75 0-.688-.468-.86-.906-.86-.672 0-1.047.454-1.203.641a.72.72 0 0 0-.734-.64c-.266 0-.453.156-.61.437-.156.265-.265.75-.265.781 0 .11.093.11.14.11.14 0 .14-.032.188-.22.125-.468.265-.89.531-.89.234 0 .234.281.234.36 0 .109-.015.234-.046.343L1.094-.266c-.016.079-.016.094-.016.125 0 .125.094.22.234.22.25 0 .313-.188.375-.5l.172-.673c.047-.172.047-.187.125-.531l.141-.516c.031-.125.281-.593.531-.828.25-.203.5-.328.781-.328.313 0 .407.235.407.531 0 .47-.344 1.375-.485 1.766-.062.14-.109.281-.109.422 0 .36.266.656.672.656.75 0 1.094-1.11 1.094-1.219m0 0"/><path id="o" d="M6.563-2.39c0-1.344-1-2.344-2.188-2.626l-1.14-.25c-.266-.062-1.016-.343-1.016-1.015 0-1.016 1.015-1.047 1.422-1.047.672 0 1.265.156 1.859.734.188.172.203.188.25.188.078 0 .125-.032.172-.219l.172-1.031c.031-.094.031-.125.031-.157 0-.093-.016-.109-.312-.265-.86-.422-1.563-.485-2.172-.485-1.063 0-2.907.25-2.907 2.485 0 .86.438 1.406.672 1.64.61.625 1.157.75 2.094.954.672.156.938.218 1.203.453.11.125.36.375.36.828 0 1.125-1.016 1.156-1.422 1.156-1 0-1.875-.406-2.47-.937-.14-.141-.171-.141-.218-.141-.062 0-.125.031-.172.219L.61-.875C.58-.781.58-.75.58-.719c0 .25 1.25.688 1.312.703a5.9 5.9 0 0 0 1.75.282c1.797 0 2.922-.797 2.922-2.657m-.532-7.907c.172-.094.11-.281-.11-.281H4L2.484-9.281c-.171.156-.015.25.141.25h.813Zm0 0"/><path id="p" d="M8.594-5.14c-.031-.329-.25-.329-.625-.329-.563 0-.703.032-.875.657l-.969 3.468-1.016-3.593c-.062-.266-.156-.532-.703-.532-.172 0-.453 0-.61.266-.108.187-.64 2.25-1.062 3.656l-.953-3.39c-.125-.407-.25-.532-.734-.532h-.25c-.219 0-.469 0-.516.328L1.547-.547C1.703 0 2.016 0 2.313 0h.343c.563 0 .656-.172.781-.656.282-1 .704-2.5.766-3.125v-.016c.078.688.61 2.578.75 3.14.14.423.203.657.797.657h.813c.515 0 .64-.14.75-.547Zm0 0"/><path id="q" d="M2.313-.578v-4.328c0-.375-.079-.563-.563-.563h-.453c-.422 0-.563.125-.563.563v4.328c0 .437.125.578.563.578h.453c.453 0 .563-.156.563-.578m.093-6.672v-.219c0-.39-.094-.578-.578-.578h-.61c-.452 0-.577.156-.577.578v.219c0 .36.062.578.578.578h.61c.5 0 .577-.219.577-.578m0 0"/><path id="r" d="M5.719-3.11c0-1.546-.703-2.562-2.485-2.562-1.921 0-2.859 1.063-2.859 2.89 0 1.954 1.125 2.907 3 2.907.469 0 1.14-.047 1.938-.453.25-.125.343-.156.343-.313 0-.078-.031-.421-.047-.515-.046-.375-.062-.39-.171-.39-.047 0-.079 0-.204.124a2.7 2.7 0 0 1-1.796.688c-1.36 0-1.5-1.063-1.532-1.828h3.25c.266 0 .563 0 .563-.547m-1.313-.078h-2.5c.047-.734.282-1.624 1.328-1.624.954 0 1.125.687 1.172 1.625m0 0"/><path id="s" d="M5.469-.594c0-.14-.047-.687-.078-.843 0-.032-.032-.157-.141-.157-.047 0-.078 0-.187.125-.204.172-.766.672-1.75.672-1.25 0-1.25-1.219-1.25-1.969 0-.968.062-1.984 1.28-1.984.782 0 1.11.203 1.532.547.14.14.172.14.219.14.125 0 .14-.109.156-.156.016-.093.14-.765.14-.828 0-.11-.077-.156-.28-.25-.579-.266-.938-.375-1.782-.375-1.781 0-2.89.828-2.89 2.922C.438-.766 1.468.125 3.28.125c.313 0 1.031 0 1.828-.406.344-.188.36-.203.36-.313m-.39-7.547c0-.156-.126-.156-.329-.156h-.969c-.25 0-.25.016-.36.14L2.392-6.75c-.11.125-.11.172-.11.172 0 .156.14.156.328.156h.438l1.906-1.531c.063-.063.125-.11.125-.188m0 0"/><path id="t" d="M6.39-4.844c0-.047-.062-.328-.093-.453-.047-.281-.047-.312-.266-.312-.36 0-.968.14-1.422.422-.562-.375-1.171-.422-1.687-.422-.5 0-2.406 0-2.406 1.968 0 .485.125 1.079.578 1.485C.78-1.72.78-1.25.78-1.187c0 .218.063.609.313.937C.922-.172.297.031.297.797c0 .375.187 1 .937 1.344.672.312 1.485.328 2.047.328.703 0 2.985 0 2.985-1.703 0-1.86-1.688-1.86-3.297-1.86H2.39c-.438 0-.594 0-.766-.156-.047-.047-.25-.219-.25-.531 0-.078.016-.11.031-.172.547.297 1.266.297 1.516.297.5 0 2.39 0 2.39-1.969 0-.687-.25-1.11-.359-1.234.203 0 .61 0 1.11.125a.36.36 0 0 0 .171.046c.094 0 .157-.062.157-.156M3.798-3.64c0 .672-.047 1.125-.875 1.125-.844 0-.875-.453-.875-1.109s.031-1.125.875-1.125c.828 0 .875.453.875 1.11M5.03.797c0 .812-1.36.812-1.75.812-.469 0-1.75 0-1.75-.843 0-.563.375-.563.64-.563h1.392c.968 0 1.468.172 1.468.594m0 0"/><path id="u" d="M5.672-.578v-3.203c0-1.89-1.828-1.89-2.422-1.89-.562 0-1.156.046-1.953.374-.25.11-.313.14-.313.281 0 .079.063.766.079.875a.17.17 0 0 0 .156.125c.062 0 .093-.03.125-.078.515-.531 1.125-.797 1.86-.797.64 0 .843.391.843 1.094v.422c-.422 0-3.563.031-3.563 1.781C.484-.75 1.156.125 2.22.125c.406 0 1.297-.11 1.86-.937v.234c0 .39.077.578.577.578h.438c.453 0 .578-.156.578-.578M4.047-1.844c0 1.11-1.14 1.11-1.172 1.11-.516 0-.828-.422-.828-.875 0-1.172 1.656-1.266 2-1.266Zm0 0"/><path id="v" d="M5.266-.437c0-.454-.36-.454-.72-.454L2.72-.875h-.547l2.922-3.687c.125-.157.14-.22.14-.407 0-.5-.375-.5-.578-.5H1.125c-.156 0-.578 0-.578.453 0 .438.39.438.703.438l1.734-.031h.454L.515-.906C.39-.75.375-.687.375-.5c0 .5.36.5.563.5h3.765c.156 0 .563 0 .563-.437m0 0"/><path id="w" d="M5.969-.578v-7.14c0-.391-.094-.579-.578-.579h-.438c-.453 0-.578.156-.578.578v2.703a2.18 2.18 0 0 0-1.5-.593C.438-5.61.438-3.312.438-2.72c0 .547 0 2.844 2.375 2.844.5 0 1.015-.14 1.53-.687 0 .437.157.562.563.562h.485c.453 0 .578-.156.578-.578M4.344-1.5c0 .203 0 .313-.344.563a1.35 1.35 0 0 1-.719.203c-1.219 0-1.219-1.094-1.219-1.985 0-.906 0-2.031 1.344-2.031.344 0 .672.125.938.375Zm0 0"/><path id="x" d="M5.469-.594c0-.14-.047-.687-.078-.843 0-.032-.032-.157-.141-.157-.047 0-.078 0-.187.125-.204.172-.766.672-1.75.672-1.25 0-1.25-1.219-1.25-1.969 0-.968.062-1.984 1.28-1.984.782 0 1.11.203 1.532.547.14.14.172.14.219.14.125 0 .14-.109.156-.156.016-.093.14-.765.14-.828 0-.11-.077-.156-.28-.25-.579-.266-.938-.375-1.782-.375-1.781 0-2.89.828-2.89 2.922C.438-.766 1.468.125 3.28.125c.313 0 1.031 0 1.828-.406.344-.188.36-.203.36-.313m0 0"/><path id="y" d="M5.938-.266s0-.109-.11-.265L3.734-3.25l1.844-1.703c.14-.14.188-.172.188-.266 0-.25-.25-.25-.407-.25h-.703c-.203 0-.437 0-.718.25l-1.72 1.594v-4.094c0-.39-.077-.578-.562-.578h-.25c-.437 0-.578.14-.578.578v7.14c0 .438.125.579.578.579h.203c.454 0 .579-.156.579-.578v-1.235l.562-.515L4.297-.297c.203.266.297.297.64.297h.579c.156 0 .422 0 .422-.266m0 0"/><path id="z" d="M6.188-2.687c0-1.97-.954-2.985-2.907-2.985-1.984 0-2.906 1.063-2.906 2.984C.375-.733 1.406.126 3.281.126s2.907-.86 2.907-2.812m-1.625-.141c0 .937 0 2.031-1.282 2.031C2-.797 2-1.875 2-2.828c0-.922 0-1.985 1.281-1.985s1.281 1.047 1.281 1.985m0 0"/><path id="A" d="M9.64-.578v-3.313c0-1.218-.53-1.718-1.75-1.718-.843 0-1.5.39-1.937 1.187-.187-1.14-1.203-1.187-1.703-1.187-.234 0-.734 0-1.281.39-.36.282-.61.672-.688.844h-.015v-.594c0-.39-.079-.578-.563-.578h-.406c-.438 0-.578.125-.578.578v4.39c0 .438.125.579.578.579h.469c.453 0 .578-.156.578-.578v-2.64c0-1.079.734-1.532 1.312-1.532s.703.25.703.89v3.282c0 .437.141.578.579.578h.484c.453 0 .562-.156.562-.578v-2.64c0-1.079.735-1.532 1.313-1.532s.719.25.719.89v3.282c0 .437.125.578.562.578h.485c.453 0 .578-.156.578-.578m0 0"/><path id="B" d="M4.39-6.469a.45.45 0 0 0-.64-.062l-.766.61V-7.72c0-.39-.078-.578-.562-.578h-.453c-.422 0-.563.14-.563.578v3.063l-1.078.843a.46.46 0 0 0-.062.626c.156.187.422.234.625.062l.515-.406v2.953c0 .437.125.578.563.578h.453c.453 0 .562-.156.562-.578v-4.219l1.329-1.062a.444.444 0 0 0 .078-.61m0 0"/><path id="C" d="M2.61-.328v-.922c0-.297-.016-.312-.329-.312H1.36c-.312 0-.312.015-.312.312v.922c0 .312 0 .328.406.328-.078.188-.14.375-.203.578-.078.172-.203.531-.203.531 0 .157.125.157.312.157H1.5c.25 0 .25-.016.375-.203L2.5.078c.11-.172.11-.203.11-.406m0 0"/><path id="D" d="M4.734-1.687c0-.672-.359-1.079-.578-1.282-.468-.422-.89-.5-1.39-.594-.657-.124-1.141-.218-1.141-.687 0-.484.39-.578.86-.578.796 0 1.234.297 1.546.562.11.125.14.125.188.125.125 0 .14-.109.156-.156.031-.11.14-.766.14-.828 0-.187-.624-.36-.765-.406-.469-.14-.86-.14-1.172-.14-.531 0-2.14 0-2.14 1.702 0 .594.265.938.593 1.235.422.375.875.468 1.563.593.344.063.953.172.953.688 0 .562-.469.656-.922.656a2.21 2.21 0 0 1-1.766-.828c-.062-.062-.093-.094-.171-.094-.11 0-.141.11-.157.172-.015.172-.156.86-.156.969 0 .219.89.5.89.5a4.4 4.4 0 0 0 1.36.203c.61 0 2.11-.047 2.11-1.812m-.343-6.454c0-.156-.141-.156-.328-.156h-.985c-.234 0-.25.016-.36.14L1.704-6.75c-.11.125-.11.172-.11.172 0 .156.126.156.313.156h.453L4.25-7.953c.063-.063.14-.11.14-.188m0 0"/><path id="E" d="M2.594 2.234c-.375-.5-1.25-1.64-.64-4.484.609-2.828 1.952-3.969 2.546-4.484h-.594c-1.25.89-2.265 2.422-2.703 4.484-.453 2.14-.031 3.625.813 4.484Zm0 0"/><path id="F" d="m7.125 0 1.328-6.219H7.375L5.531-3.156c-.36.594-1.125 1.844-1.312 2.281h-.016c0-.375-.187-1.453-.281-1.89L3.39-5.829l-.079-.39H2.25L.922 0h.734l1.172-5.531c.016.468.25 1.797.297 2.047l.453 2.53.14.75h.673l1.906-3.155c.203-.328 1.062-1.75 1.266-2.172L6.39 0Zm0 0"/><path id="G" d="m3.125-.234-.047-.563c-.265.172-.61.281-.875.281-.36 0-.406-.312-.297-.78l.438-2.126H3.64l.125-.562H2.469l.234-1.141h-.656l-.25 1.14h-.781l-.125.563h.765l-.484 2.297c-.11.531-.14 1.219.516 1.219.39 0 .875-.078 1.437-.328m0 0"/><path id="H" d="m4.14 0 .141-.672H2.594c-.094 0-.203.016-.313.016h-.984L3.047-2c1.11-.766 1.781-1.25 1.969-2.125.218-1.031-.328-1.937-1.547-1.937-.953 0-1.625.546-2.094 1.437l.297.516c.453-1.047.984-1.344 1.531-1.344.813 0 1.188.61 1.016 1.344-.172.812-.844 1.343-1.64 1.937l-2 1.563L.452 0Zm0 0"/><path id="I" d="m1.656-.016.172-.75h-.781L.89 0h.234L.641 1.14h.375Zm0 0"/><path id="J" d="m3.922 0 .11-.562H2.89l1.172-5.5h-.188c-.734.578-1.594.578-1.906.578l-.11.562c.25 0 .704 0 1.25-.203L2.125-.562H.985L.858 0Zm0 0"/><path id="K" d="m5.063-2.172.125-.578H.577l-.125.578Zm0 0"/><path id="L" d="M3.328-2.25c.453-2.125.031-3.625-.812-4.484h-.578c.39.5 1.25 1.656.64 4.484C1.984.594.625 1.734.031 2.234h.594c1.234-.89 2.266-2.421 2.703-4.484m0 0"/><path id="N" d="M6.531-1.703c0-.125-.11-.125-.14-.125-.125 0-.125.031-.188.219-.172.625-.562 1.484-1.219 1.484-.203 0-.28-.125-.28-.406 0-.297.109-.578.202-.844.203-.516.735-1.937.735-2.625 0-.781-.485-1.281-1.375-1.281-.75 0-1.328.375-1.766.922l.938-3.797s0-.14-.157-.14c-.281 0-1.156.093-1.469.124-.093.016-.218.016-.218.235 0 .14.11.14.281.14.578 0 .594.094.594.203l-.031.25L.702-.469C.656-.297.656-.28.656-.203c0 .281.235.328.344.328.188 0 .39-.14.453-.297l.219-.922.266-1.062c.078-.266.14-.531.203-.813.015-.062.125-.469.125-.531.046-.11.406-.781.812-1.11.266-.187.64-.406 1.156-.406s.641.407.641.829c0 .656-.453 1.953-.734 2.687-.094.266-.157.406-.157.656 0 .563.422.969.97.969 1.124 0 1.577-1.734 1.577-1.828m0 0"/><path id="W" d="M9.766-8.062v-.235c-.344.031-.891.11-1.297.266-.36.125-.719.312-1.031.5-.5.297-.907.797-1.25 1.265-.547.75-1 1.485-1.485 2.266-.516.828-1.328 2.156-1.578 2.469s-.547.687-.86.937a.88.88 0 0 1-.562.219c-.094 0-.203-.031-.266-.11-.03-.062-.093-.124-.062-.218s.063-.188.11-.281c.015-.063.062-.157.062-.203a.22.22 0 0 0-.031-.22c-.063-.093-.172-.155-.328-.155a.58.58 0 0 0-.375.109.82.82 0 0 0-.297.437c-.079.313-.047.61.109.844a.87.87 0 0 0 .672.297c.469 0 .969-.25 1.39-.578.5-.406 1.407-1.328 2.047-2.375h2.641l-.469 1.89a2 2 0 0 0-.093.594c.015.125.03.266.093.36.078.109.235.156.39.156.298 0 .61-.14.876-.297.453-.25.86-.547 1.25-.906l-.14-.203a5 5 0 0 1-.563.39.83.83 0 0 1-.469.172c-.094 0-.187-.015-.25-.094-.156-.203-.14-.484-.094-.78.157-.829.36-1.688.563-2.516l.86-3.47c.062-.218.108-.327.25-.421Zm-1.188.437L7.5-3.328H5.063c.5-.922 1-1.828 1.578-2.703.343-.5.672-1 1.14-1.375.235-.172.485-.297.719-.344Zm0 0"/><path id="ac" d="M9.766-4.687c.234-.891.28-1.829-.188-2.454-.328-.421-.797-.671-1.328-.843-.687-.22-1.437-.235-2.219-.235l.078-.297-.078-.046-.812.374c-.875.063-1.89.313-2.766 1-.437.344-.781.829-.906 1.329-.047.234-.063.453 0 .593a.29.29 0 0 0 .266.172.56.56 0 0 0 .39-.172c.125-.093.188-.25.219-.39.078-.266.047-.469.11-.735A1.35 1.35 0 0 1 3-7.109a3.32 3.32 0 0 1 2.125-.735L4.203-4.14c-.14.579-.297 1.172-.562 1.75-.141.344-.36.704-.657.954-.609.5-1.328.796-2.015.796l-.485.594h3.47c1.25 0 2.53-.484 3.624-1.36 1.094-.859 1.875-2.046 2.188-3.28m-.891.062c-.156.625-.36 1.25-.703 1.828-.266.485-.61.938-1.047 1.281a3.5 3.5 0 0 1-1.297.704c-.578.171-1.156.171-1.719.171H2.656l-.015-.125.53-.437c.517-.438.923-1 1.235-1.563a9.8 9.8 0 0 0 .844-2.28l.688-2.798c.593 0 1.14.047 1.671.219.391.125.75.297 1 .61.47.624.485 1.515.266 2.39m0 0"/><path id="at" d="M7.656-6.953c.094-.344.047-.656-.14-.906-.282-.391-.985-.47-1.375-.47-.891 0-1.766.22-2.657.813-.718.485-1.218 1.282-1.421 2.079-.172.718-.235 1.453.156 1.984.406.531 1.094.781 1.844.781.593 0 1.25-.172 1.828-.531l-.25 1.14c-.125.516-.328.97-.578 1.47-.22.374-.5.75-.86 1.046-.469.39-1.031.656-1.578.656-.36 0-.719-.062-.922-.328-.11-.156-.11-.375-.11-.593.016-.157.016-.329-.062-.438a.34.34 0 0 0-.281-.125.75.75 0 0 0-.469.14.84.84 0 0 0-.265.407.98.98 0 0 0 .172.89c.28.391.812.485 1.359.485.984 0 1.984-.406 2.86-1.11.452-.359.78-.812 1.03-1.328.36-.718.61-1.468.797-2.234l.391-1.578-.672.156c-.156.344-.5.828-.687.969-.47.39-1 .547-1.532.547-.5 0-.89-.219-1.156-.563-.36-.484-.312-1.187-.14-1.86a3.62 3.62 0 0 1 1.265-1.952 2.5 2.5 0 0 1 1.547-.516c.297 0 .719.11.922.406.14.188.219.407.14.672-.046.219-.125.469-.328.64-.28.22-.546.25-.828.25l-.093.204c.187.031.468.11.53.11.36 0 .704-.188 1.016-.438.297-.25.47-.563.547-.875m0 0"/><path id="O" d="M6.547 0v-.766H5.422l-3.094.032h-.375l4.531-7.078v-.485H.813v.735h2.343c.14 0 .281-.016.422-.016h1.61L.64-.484V0Zm0 0"/><path id="P" d="M4.797 0v-3.5c0-1.156-.828-1.984-1.938-1.984-.718 0-1.25.172-1.843.5l.078.78c.515-.374 1.062-.593 1.765-.593.547 0 1.032.453 1.032 1.313v.5c-.547.015-1.266.062-1.985.297C1.11-2.422.641-1.97.641-1.375c0 .531.312 1.5 1.328 1.5.656 0 1.5-.203 1.937-.562V0ZM3.89-1.61c0 .25 0 .532-.407.766-.312.203-.718.25-.906.25-.64 0-1.078-.343-1.078-.797 0-.812 1.656-.984 2.39-.984Zm0 0"/><path id="Q" d="M5.563-2.672c0-1.437-.75-2.75-1.875-2.75-.485 0-1.25.156-1.876.672v-.562H.939v7.625h.906V-.531c.406.36.906.656 1.547.656 1.156 0 2.172-1.172 2.172-2.797m-.907.016c0 1.203-.812 2.062-1.703 2.062-.328 0-.562-.125-.781-.297-.297-.25-.328-.468-.328-.656v-2.469a1.47 1.47 0 0 1 1.219-.671c.874 0 1.593.89 1.593 2.03m0 0"/><path id="R" d="M3.797-4.625v-.797c-1.078 0-1.719.64-2.047 1.11V-5.36H.938V0h.875v-2.625c0-1.203.906-1.984 1.984-2m0 0"/><path id="S" d="M5.484-2.625c0-1.625-1.187-2.86-2.562-2.86-1.406 0-2.563 1.266-2.563 2.86 0 1.563 1.188 2.75 2.563 2.75 1.406 0 2.562-1.219 2.562-2.75m-.906-.125c0 1.469-.844 2.125-1.656 2.125-.86 0-1.656-.719-1.656-2.125 0-1.453.89-2.016 1.656-2.016.812 0 1.656.625 1.656 2.016m0 0"/><path id="T" d="M7.766-5.312H6.89l-.703 2.437c-.172.563-.516 1.688-.563 2.203-.047-.281-.234-1.078-.484-1.937l-.797-2.703H3.53L2.844-2.97c-.219.75-.5 1.781-.531 2.282h-.016c-.016-.235-.14-.86-.375-1.672l-.844-2.953H.172L1.766 0h.922c.453-1.5 1.156-3.781 1.218-4.61h.016c.015.485.265 1.344.344 1.626L5.109 0h1.063Zm0 0"/><path id="U" d="M5.063 0v-8.297h-.891v3.485a2.65 2.65 0 0 0-1.688-.61c-1.14 0-2.062 1.219-2.062 2.766S1.297.125 2.437.125c.438 0 1.11-.156 1.704-.734V0ZM4.14-1.406c-.282.515-.703.812-1.22.812-.733 0-1.593-.562-1.593-2.047 0-1.593 1.016-2.062 1.703-2.062.469 0 .86.234 1.11.625Zm0 0"/><path id="V" d="M4.703 0v-.734H2.984c-.14 0-.28.015-.421.015H1.547l3.11-4.125v-.468H.483v.703h2.953L.329-.484V0Zm-.516-8.297h-.906l-1.562 2h.718Zm0 0"/><path id="X" d="M8.328 0v-3.594c0-.828-.219-1.828-1.61-1.828-1.015 0-1.577.703-1.765.969-.203-.766-.86-.969-1.484-.969-.985 0-1.5.625-1.703.875v-.812H.922V0h.906v-2.969c0-.797.313-1.734 1.188-1.734 1.093 0 1.156.75 1.156 1.187V0h.906v-2.969c0-.797.313-1.734 1.188-1.734 1.093 0 1.156.75 1.156 1.187V0Zm0 0"/><path id="Y" d="M5.063 0v-3.594c0-.734-.157-1.828-1.594-1.828-.672 0-1.25.297-1.703.875v-.812H.922V0h.906v-2.969c0-.75.281-1.734 1.188-1.734 1.109 0 1.14.766 1.14 1.187V0Zm0 0"/><path id="Z" d="M1.813 0v-5.312H.938V0Zm.078-6.797v-1.016H.859v1.016Zm0 0"/><path id="aa" d="M4.86-2.687c0-.516-.048-1.25-.423-1.876-.5-.828-1.328-.921-1.671-.921C1.469-5.484.39-4.25.39-2.687.39-1.11 1.547.124 2.92.124c.563 0 1.22-.156 1.876-.64 0-.047-.047-.438-.047-.438s-.031-.281-.031-.328c-.703.593-1.407.687-1.766.687-.922 0-1.703-.828-1.734-2.093Zm-.704-.641h-2.86c.204-.813.767-1.438 1.47-1.438.359 0 1.187.157 1.39 1.438m0 0"/><path id="ab" d="M2.11-.016v-.953h-.97V0h.298L1.14 1.5h.468Zm0 0"/><path id="ad" d="M4.203-1.516c0-.609-.36-1-.406-1.046-.453-.47-.813-.532-1.531-.672-.438-.094-1.047-.203-1.047-.813 0-.734.843-.734 1-.734.625 0 1.125.14 1.656.437l.14-.765a3.9 3.9 0 0 0-1.687-.375c-.265 0-1.937 0-1.937 1.547 0 .53.297.89.468 1.062.438.36.735.422 1.438.563.39.093 1.078.234 1.078.859 0 .828-.922.828-1.094.828A3.12 3.12 0 0 1 .47-1.219l-.14.813c.046.031.859.531 1.968.531 1.547 0 1.906-.937 1.906-1.64m0 0"/><path id="ae" d="m3.89-.344-.171-.703c-.422.375-.86.422-1.078.422-.532 0-.594-.562-.594-.984v-3h1.64v-.703h-1.64v-1.516h-.828v1.516h-1v.703h.969v3.203c0 .703.156 1.531.984 1.531.797 0 1.36-.281 1.719-.469m0 0"/><path id="af" d="M7.11-2.25c0-1.047-1.032-1.89-2.266-2.094 1.39-.375 1.937-1.172 1.937-1.875 0-1.078-1.218-2.078-2.906-2.078H1.109V0h3.094C5.875 0 7.11-1.078 7.11-2.25M5.86-6.203c0 .844-1.032 1.531-2.298 1.531H2.079v-2.953h1.469c1.281 0 2.312.625 2.312 1.422m.312 3.937c0 .844-.969 1.594-2.313 1.594H2.08v-3.281h1.593c1.547 0 2.5.86 2.5 1.687m0 0"/><path id="ag" d="M1.813 0v-8.297H.938V0Zm0 0"/><path id="ah" d="M2.14.703v-6.015h-.89v6.14c0 .781-.625.86-.875.86-.531 0-.86-.344-.875-.375l-.234.718c.375.235.859.406 1.406.406.75 0 1.469-.624 1.469-1.734m0-7.5v-1.016H1.11v1.016Zm0 0"/><path id="aj" d="M4.703 0v-.734H2.984c-.14 0-.28.015-.421.015H1.547l3.11-4.125v-.468H.483v.703h2.953L.329-.484V0Zm0 0"/><path id="ak" d="m5.672-4.703-.125-.719c-.234 0-1.047 0-1.828.39-.39-.327-.875-.39-1.11-.39-1.046 0-1.875.875-1.875 1.922 0 .422.125.828.391 1.188a1.64 1.64 0 0 0-.344 1.015c0 .453.156.75.297.906C.468 0 .328.516.328.844c0 .875 1.125 1.61 2.594 1.61 1.453 0 2.594-.704 2.594-1.61 0-1.688-1.938-1.688-2.422-1.688H2.078c-.172 0-.672 0-.672-.625 0-.265.047-.343.11-.437.203.14.593.343 1.078.343 1.031 0 1.875-.859 1.875-1.937a2.13 2.13 0 0 0-.36-1.156 7 7 0 0 1 .954-.063c.046 0 .312 0 .609.016M3.64-3.5c0 1.063-.672 1.281-1.032 1.281-.53 0-1.062-.36-1.062-1.265 0-1.063.672-1.282 1.047-1.282.531 0 1.047.36 1.047 1.266M4.688.844c0 .562-.829.953-1.766.953-.922 0-1.766-.375-1.766-.953 0-.047 0-.813.907-.813h1.046c.266 0 1.579 0 1.579.813m0 0"/><path id="al" d="M5.484-2.625c0-1.625-1.187-2.86-2.562-2.86-1.406 0-2.563 1.266-2.563 2.86 0 1.563 1.188 2.75 2.563 2.75 1.406 0 2.562-1.219 2.562-2.75m-.906-.125c0 1.469-.844 2.125-1.656 2.125-.86 0-1.656-.719-1.656-2.125 0-1.453.89-2.016 1.656-2.016.812 0 1.656.625 1.656 2.016m-.016-5.547h-.906l-1.547 2h.72Zm0 0"/><path id="am" d="m3.688-5.36-.485-.515-.828.719v-3.14H1.5v3.874L.328-3.375l.453.547.719-.656V0h.875v-4.234Zm0 0"/><path id="an" d="M4.86-2.687c0-.516-.048-1.25-.423-1.876-.5-.828-1.328-.921-1.671-.921C1.469-5.484.39-4.25.39-2.687.39-1.141 1.5.078 2.844.124c-.531.344-.875.828-.828 1.39 0 .516.375 1.016 1.172 1.016.39 0 .703-.062 1.171-.297l-.156-.703c-.266.11-.547.172-.812.172-.328-.031-.625-.094-.625-.453-.016-.531.5-.969 1.047-1.281.328-.094.64-.25.984-.485 0-.046-.047-.437-.047-.437s-.031-.281-.031-.328c-.703.593-1.407.687-1.766.687-.922 0-1.703-.828-1.734-2.093Zm-.704-.641h-2.86c.204-.813.767-1.438 1.47-1.438.359 0 1.187.157 1.39 1.438m0 0"/><path id="ao" d="M4.86-.5c0-.031-.032-.406-.048-.453l-.015-.344a2.8 2.8 0 0 1-1.828.672c-1 0-1.64-.875-1.64-2.047 0-.984.484-2.078 1.671-2.078.797 0 1.14.203 1.656.547l.14-.781c-.702-.407-1.093-.5-1.796-.5-1.656 0-2.578 1.453-2.578 2.812C.422-1.14 1.516.125 2.953.125c.578 0 1.25-.156 1.906-.625M4.5-8.297h-.922l-1.547 2h.719Zm0 0"/><path id="ap" d="M2.11 0v-.969h-.97V0Zm0 0"/><path id="aq" d="M5.844-2.266c0-.765-.375-1.328-.625-1.625-.563-.593-1-.718-1.797-.921-.813-.204-1.11-.266-1.375-.516-.156-.172-.485-.469-.485-1 0-.734.657-1.438 1.72-1.438 1.015 0 1.546.391 1.984.766l.172-.953c-.485-.266-1.094-.594-2.157-.594-1.594 0-2.64 1.14-2.64 2.344 0 .844.515 1.39.578 1.453.593.61 1 .703 1.75.906 1.031.25 1.187.297 1.578.688.203.219.375.594.375 1.015 0 .829-.672 1.594-1.703 1.594a3.75 3.75 0 0 1-2.516-1l-.172.969A4.9 4.9 0 0 0 3.22.25C4.75.25 5.844-.937 5.844-2.266m-.328-8.093H4.203L2.11-8.906h1.063Zm0 0"/><path id="ar" d="M4.86-.5c0-.031-.032-.406-.048-.453l-.015-.344a2.8 2.8 0 0 1-1.828.672c-1 0-1.64-.875-1.64-2.047 0-.984.484-2.078 1.671-2.078.797 0 1.14.203 1.656.547l.14-.781c-.702-.407-1.093-.5-1.796-.5-1.656 0-2.578 1.453-2.578 2.812C.422-1.14 1.516.125 2.953.125c.578 0 1.25-.156 1.906-.625m0 0"/><path id="as" d="M5.469 0 3.25-3.266l1.969-2.046h-1.11L1.813-2.906v-5.39H.938V0h.828v-1.719l.906-.953L4.5 0Zm0 0"/><path id="au" d="M4.203-1.516c0-.609-.36-1-.406-1.046-.453-.47-.813-.532-1.531-.672-.438-.094-1.047-.203-1.047-.813 0-.734.843-.734 1-.734.625 0 1.125.14 1.656.437l.14-.765a3.9 3.9 0 0 0-1.687-.375c-.265 0-1.937 0-1.937 1.547 0 .53.297.89.468 1.062.438.36.735.422 1.438.563.39.093 1.078.234 1.078.859 0 .828-.922.828-1.094.828A3.12 3.12 0 0 1 .47-1.219l-.14.813c.046.031.859.531 1.968.531 1.547 0 1.906-.937 1.906-1.64m-.312-6.78h-.922l-1.547 2h.719Zm0 0"/><path id="av" d="M4.531-1.766v-6.53h-1v6.483c0 .688-.344 1.329-1.39 1.329a1.96 1.96 0 0 1-1.485-.657L.484-.25c.704.36 1.375.5 2 .5 1.25 0 2.047-.734 2.047-2.016m0 0"/><path id="aw" d="M5.063 0v-5.312h-.907v3.421c0 .907-.625 1.36-1.406 1.36-.844 0-.922-.313-.922-.844v-3.937H.922v3.984c0 .86.265 1.453 1.25 1.453.344 0 1.281-.062 2.015-.719V0Zm0 0"/><path id="ax" d="M7.094 0v-8.297h-.907V-.89h-.015l-.969-2-2.64-5.406h-1.47V0h.923v-7.406l.968 2L5.625 0Zm0 0"/><path id="ay" d="m5.219 2.234-.157-.703c-.265.11-.546.172-.812.172-.328-.031-.61-.094-.625-.453C3.609.719 4.109.313 4.656 0h.14v-3.5c0-1.156-.827-1.984-1.937-1.984-.718 0-1.25.172-1.843.5l.078.78c.515-.374 1.062-.593 1.765-.593.547 0 1.032.453 1.032 1.313v.5c-.547.015-1.266.062-1.985.297C1.11-2.422.641-1.97.641-1.375c0 .531.312 1.5 1.328 1.5.656 0 1.5-.203 1.937-.562V0c-.594.328-1.078.906-1.031 1.516 0 .515.375 1.015 1.172 1.015.406 0 .703-.062 1.172-.297M3.89-1.609c0 .25 0 .53-.407.765-.312.203-.718.25-.906.25-.64 0-1.078-.343-1.078-.797 0-.812 1.656-.984 2.39-.984Zm0 0"/><path id="az" d="M5.563-2.672c0-1.469-.782-2.75-1.891-2.75-.344 0-1.11.063-1.86.672v-3.547H.939V0h.906v-.531c.547.515 1.125.656 1.547.656 1.14 0 2.172-1.172 2.172-2.797m-.907 0c0 1.563-.968 2.078-1.703 2.078-.328 0-.562-.125-.781-.297-.281-.25-.328-.453-.328-.656V-4.03c.218-.328.64-.672 1.234-.672.719 0 1.578.547 1.578 2.031m0 0"/><path id="aA" d="M5.172-5.312h-.89c-.548 1.421-1.47 3.765-1.516 4.625H2.75c-.062-.72-.687-2.282-.797-2.532L1.11-5.312H.172L2.39 0l-.422 1.094c-.266.593-.438.656-.657.656-.171 0-.546-.047-.921-.187l.078.78c.062.016.469.095.844.095.296 0 .843 0 1.359-1.313Zm0 0"/><path id="aB" d="m6.875-.531-.078-.844c-.313.234-.672.484-1.063.61-.375.124-.78.14-1.187.14-.766 0-1.469-.422-1.938-1.031-.546-.703-.796-1.594-.796-2.485 0-.906.25-1.796.796-2.5.47-.609 1.172-1.03 1.938-1.03.36 0 .719.03 1.062.14.344.125.672.297.97.515l.171-1a5.6 5.6 0 0 0-1.078-.312 5.6 5.6 0 0 0-1.125-.094c-1.031 0-1.984.469-2.656 1.25C1.14-6.344.78-5.266.78-4.14c0 1.094.36 2.188 1.11 3.016.672.766 1.625 1.25 2.656 1.25.406 0 .812-.016 1.219-.125.406-.125.765-.328 1.109-.531m0 0"/><path id="aC" d="M4.047-7.5v-.797c-.078-.015-.469-.125-.922-.125-1.125 0-1.937.875-1.937 2.031v1.079H.313v.703h.875V0h.875v-4.61h1.28v-.702H2.048v-1.422c0-.813.672-.97 1.078-.97s.781.141.922.204m0 0"/><path id="aD" d="M9.016 0v-8.297h-1.36L6.281-4.609c-.61 1.672-1.078 2.922-1.203 3.468h-.016c-.03-.203-.187-.64-.343-1.109-.219-.64-.219-.672-.407-1.156L2.5-8.296H1.14V0h.923v-7.375c.171.813 2.109 5.922 2.562 7.125H5.5c.39-1.031 2.36-6.234 2.578-7.14h.016V0Zm0 0"/><path id="aE" d="M7.547-7.484v-.75H.422v.75H2c.14 0 .281-.016.422-.016h1.062V0H4.5v-7.5h1.063c.14 0 .28.016.421.016Zm0 0"/><path id="aF" d="M5.063 0v-3.594c0-.734-.157-1.828-1.594-1.828-.828 0-1.375.469-1.656.813v-3.688H.922V0h.906v-2.969c0-.75.281-1.734 1.188-1.734 1.109 0 1.14.766 1.14 1.187V0Zm0 0"/><path id="ai" d="M3.453-1.14c.063-.141.016-.282-.11-.344l-1.155-.5L3.343-2.5c.125-.062.172-.203.11-.344a.25.25 0 0 0-.345-.062l-1.015.75.125-1.266a.237.237 0 0 0-.235-.265c-.14 0-.234.14-.218.265l.125 1.266-1.016-.75a.25.25 0 0 0-.344.062c-.062.14-.015.281.11.344l1.156.516-1.156.5c-.125.062-.172.203-.11.343a.25.25 0 0 0 .344.063l1.016-.75-.125 1.266a.22.22 0 0 0 .218.25c.157 0 .25-.125.235-.25l-.125-1.266 1.015.75a.25.25 0 0 0 .344-.063m0 0"/><path id="aG" d="M2.594-.86c.047-.093.015-.218-.094-.25l-.86-.39.86-.375a.176.176 0 0 0 .094-.25c-.063-.094-.172-.125-.266-.062l-.765.562.109-.937a.173.173 0 0 0-.172-.204.173.173 0 0 0-.172.204l.094.937-.766-.562c-.078-.063-.203-.032-.25.062-.062.094-.015.203.078.25l.875.375-.875.39c-.093.032-.14.157-.078.25.047.094.172.11.25.047l.766-.562-.094.953c-.016.094.063.188.172.188.11 0 .188-.094.172-.188l-.11-.953.766.563c.094.062.203.046.266-.047m0 0"/><path id="aH" d="M5.281-3.953c0-.781-.843-1.485-1.984-1.485H.359v.266h.188c.61 0 .625.078.625.375V-.64c0 .297-.016.375-.625.375H.359V0l1.172-.031L2.703 0v-.266h-.172c-.61 0-.625-.078-.625-.375v-1.843H3.36c.97 0 1.922-.625 1.922-1.47m-.828 0c0 .344 0 1.234-1.36 1.234H1.876v-2.14c0-.266.016-.313.39-.313h.829c1.36 0 1.36.86 1.36 1.219m0 0"/><path id="aI" d="M3.984-1.703c0-.984-.828-1.844-1.875-1.844-1.046 0-1.875.86-1.875 1.844 0 1 .86 1.781 1.875 1.781 1.032 0 1.875-.781 1.875-1.781m-.703-.063c0 .36-.015.797-.25 1.141-.203.313-.562.453-.922.453-.421 0-.765-.203-.937-.484-.203-.328-.219-.719-.219-1.11 0-.312 0-.78.235-1.125.218-.28.546-.437.921-.437.422 0 .766.203.938.469.219.343.234.765.234 1.093m0 0"/><path id="aJ" d="M2.125 0v-.266c-.5 0-.61 0-.61-.359v-4.906l-1.187.093v.266c.547 0 .61.047.61.438v4.109c0 .36-.094.36-.61.36V0c.313-.031.766-.031.906-.031.157 0 .579 0 .891.031m0 0"/><path id="aK" d="M3.047-1.031c0-.375-.219-.938-1.172-1.11a10 10 0 0 0-.547-.093c-.25-.063-.625-.235-.625-.547 0-.235.188-.578.938-.578.89 0 .937.656.953.875 0 .062.062.093.11.093.14 0 .14-.062.14-.203v-.75c0-.125 0-.203-.11-.203-.046 0-.062 0-.187.125-.016 0-.094.078-.11.078 0 0-.03 0-.078-.031-.125-.094-.359-.172-.718-.172-1.11 0-1.36.594-1.36.985 0 .39.297.624.313.656.328.234.5.265 1.047.36.375.077.984.187.984.718 0 .312-.203.687-.937.687C.875-.14.64-.766.547-1.187c-.031-.11-.047-.141-.14-.141-.126 0-.126.062-.126.219v.984c0 .125 0 .203.094.203.063 0 .063 0 .203-.156.047-.047.125-.14.172-.188.36.329.734.344.938.344 1.015 0 1.359-.578 1.359-1.11m0 0"/><path id="aL" d="M4.313 0v-.266c-.329 0-.47-.03-.766-.406l-1.14-1.5.671-.531c.531-.422.86-.453 1.063-.469v-.265c-.203.03-.313.03-.641.03-.39 0-.5-.015-.844-.03v.265c.156.016.188.11.188.156 0 .172-.172.313-.235.36l-1.14.922v-3.797L.28-5.438v.266c.547 0 .61.047.61.438v4.109c0 .36-.11.36-.61.36V0c.313-.031.735-.031.875-.031.157 0 .578 0 .89.031v-.266c-.515 0-.608 0-.608-.359v-.766l.53-.437c.032 0 .235.281.36.437.125.157.25.329.375.485s.281.36.281.484c0 .14-.14.156-.25.156V0c.344-.031.704-.031.844-.031.297 0 .469 0 .735.031m0 0"/><path id="aM" d="M4.094-.719v-.437h-.25v.437c0 .328-.11.453-.281.453-.297 0-.297-.359-.297-.453v-1.656c0-.781-.75-1.172-1.485-1.172-.656 0-1.25.25-1.25.781a.36.36 0 0 0 .375.375.36.36 0 0 0 .375-.375.356.356 0 0 0-.297-.359c.297-.203.735-.203.782-.203.453 0 .89.312.89.969v.234c-.453.031-.984.047-1.547.281-.703.313-.843.766-.843 1.032 0 .687.812.89 1.359.89a1.23 1.23 0 0 0 1.11-.64c.046.296.25.609.609.609.078 0 .75-.031.75-.766m-1.438-.406c0 .781-.64.984-.969.984-.406 0-.765-.28-.765-.671 0-.516.5-1.063 1.734-1.094Zm0 0"/><path id="aN" d="M4.422-1.719c0-1-.813-1.797-1.781-1.797-.313 0-.766.079-1.172.5v-.5L.28-3.422v.266c.563 0 .61.047.61.375V.922c0 .36-.11.36-.61.36v.265c.344-.031.688-.031.907-.031.234 0 .562 0 .906.03v-.265c-.516 0-.61 0-.61-.36V-.39a1.37 1.37 0 0 0 1.047.47c1 0 1.89-.782 1.89-1.798m-.719 0c0 .907-.578 1.578-1.219 1.578-.28 0-.64-.125-.906-.515-.094-.14-.094-.156-.094-.297v-1.703c.188-.313.594-.61 1.094-.61.61 0 1.125.672 1.125 1.547m0 0"/><path id="aO" d="M2.813-1v-.437h-.25v.421c0 .547-.25.844-.547.844-.532 0-.532-.687-.532-.812v-2.188h1.188v-.265H1.484v-1.47h-.25c0 .735-.328 1.485-1.078 1.516v.22h.719V-1c0 .938.719 1.078 1.078 1.078.547 0 .86-.469.86-1.078m0 0"/><path id="aP" d="M3.063-3.016c0-.28-.25-.5-.61-.5-.515 0-.875.391-1.031.844h-.016v-.844l-1.125.094v.266c.547 0 .61.047.61.437v2.094c0 .36-.11.36-.61.36V0c.313-.031.75-.031.938-.031.468 0 .484 0 1 .031v-.266h-.156c-.579 0-.594-.078-.594-.375v-1.171c0-.61.25-1.47 1.015-1.485-.046.031-.14.094-.14.281 0 .25.203.36.36.36.187 0 .358-.125.358-.36m0 0"/><path id="aQ" d="m2.422-3.406-.156-.203-.516.375v-2.297l-1.187.093v.266c.53 0 .593.047.593.438v1.937l-.672.5.157.219.515-.39v1.843c0 .36-.093.36-.593.36V0c.312-.031.75-.031.89-.031.156 0 .594 0 .89.031v-.266c-.5 0-.593 0-.593-.359v-2.281Zm0 0"/><path id="aR" d="M1.719-.031c0-.438-.172-.86-.547-.86a.436.436 0 0 0-.438.438c0 .25.172.453.438.453.187 0 .297-.094.312-.125 0 .25 0 .89-.593 1.469-.032.015-.047.031-.047.078 0 .078.062.125.11.125.093 0 .765-.625.765-1.578m0 0"/><path id="aS" d="M3.406-1.531h-.25C3.078-.61 2.922-.25 1.937-.25H1l2.313-2.906c.046-.078.062-.094.062-.156 0-.126-.094-.126-.219-.126H.453l-.11 1.329h.25c.048-.828.235-1.11 1.126-1.11h.906L.313-.297C.25-.219.233-.203.233-.14.234 0 .328 0 .47 0h2.797Zm0 0"/><path id="aT" d="M5.938-3.172v-.265c-.266.03-.282.03-.625.03-.25 0-.47 0-.72-.03v.265c.345.016.438.219.438.36 0 .109-.031.156-.047.203l-.75 1.984-.828-2.172c-.031-.11-.031-.125-.031-.156 0-.203.25-.219.438-.219v-.265c-.313.03-.735.03-.813.03-.172 0-.5 0-.734-.03v.265c.484 0 .5.047.656.469L2.187-.734l-.796-2.078c0-.032-.032-.11-.032-.141 0-.219.297-.219.438-.219v-.265c-.344.03-.703.03-.844.03-.14 0-.562 0-.781-.03v.265c.39 0 .469.031.562.25L1.797-.109c.047.125.078.187.203.187.14 0 .172-.094.203-.187l.844-2.235.844 2.235c.046.093.078.187.218.187.125 0 .157-.078.188-.172l.969-2.531c.062-.187.203-.531.672-.547m0 0"/><path id="aU" d="M4.281-3.172v-.265c-.265.03-.281.03-.625.03-.031 0-.453 0-.687-.03v.265c.234.016.344.14.344.328 0 .047 0 .11-.047.203L2.422-.719l-.938-2.093c-.046-.11-.046-.126-.046-.157 0-.187.25-.203.421-.203v-.265c-.359.03-.703.03-.875.03-.171 0-.546 0-.812-.03v.265c.422 0 .531.016.672.313L2.094 0C1.734.844 1.5 1.406.938 1.406c-.204 0-.329-.093-.329-.093A.35.35 0 0 0 .86.969.336.336 0 0 0 .516.625c-.172 0-.344.11-.344.36 0 .343.344.64.766.64.718 0 1.093-.86 1.125-.937L3.53-2.625c.203-.453.5-.531.75-.547m0 0"/><path id="aV" d="M6.11 0v-.266h-.141c-.485 0-.594-.062-.75-.28L3.406-3.063l1.172-1.594c.375-.516.984-.516 1.172-.516v-.266c-.281.016-.703.016-.89.016-.423 0-.5 0-.985-.016v.266c.344.016.438.219.438.328a.34.34 0 0 1-.079.219L3.25-3.281 2.125-4.828c-.031-.031-.062-.078-.062-.11 0-.093.156-.234.468-.234v-.266l-1.14.016c-.485 0-.578 0-1.047-.016v.266h.14c.47 0 .594.063.75.266l1.594 2.203L1.391-.766c-.375.5-1 .5-1.172.5V0c.281-.031.734-.031.906-.031.39 0 .5 0 .984.031v-.266c-.375-.015-.437-.265-.437-.343 0-.016 0-.094.094-.235l1.218-1.64L4.313-.625c.078.078.078.094.078.125 0 .11-.157.234-.47.234V0l1.142-.031c.39 0 .625 0 1.046.031m0 0"/><path id="aW" d="M6.156-5.172v-.266c-.234.016-.64.016-.781.016-.156 0-.516 0-.875-.016v.266c.344 0 .531.172.531.375 0 .078 0 .094-.047.188L3.406-.75 1.75-4.812c-.031-.079-.047-.11-.047-.141 0-.219.422-.219.61-.219v-.266l-1.11.016c-.375 0-.625 0-1.031-.016v.266c.484 0 .656 0 .781.297l2 4.86c.063.156.125.187.203.187.156 0 .172-.063.219-.188L5.281-4.64c.219-.53.719-.53.875-.53m0 0"/><path id="aX" d="M2.734 0v-.266h-.187c-.64 0-.656-.078-.656-.375v-4.156c0-.297.015-.375.656-.375h.187v-.266l-1.218.016-1.203-.016v.266H.5c.625 0 .656.078.656.375V-.64c0 .297-.031.375-.656.375H.313V0l1.203-.031Zm0 0"/><path id="aY" d="M2.078 0v-.266c-.531 0-.562-.03-.562-.343v-2.907l-1.157.094v.266c.516 0 .579.047.579.437v2.094c0 .36-.094.36-.61.36V0c.313-.031.766-.031.89-.031.095 0 .579 0 .86.031m-.453-4.797a.453.453 0 0 0-.453-.453.45.45 0 0 0-.438.453c0 .234.188.438.438.438a.45.45 0 0 0 .453-.438m0 0"/><path id="aZ" d="M3.516-.953a.12.12 0 0 0-.125-.11c-.094 0-.11.047-.125.094a1.14 1.14 0 0 1-1.11.797c-.36 0-.734-.156-.969-.531-.234-.36-.234-.875-.234-1.11h2.344c.172 0 .219 0 .219-.187 0-.703-.391-1.547-1.516-1.547-.984 0-1.766.813-1.766 1.797 0 1.031.86 1.828 1.875 1.828 1 0 1.407-.844 1.407-1.031m-.547-1.078H.953c.078-1.11.75-1.297 1.047-1.297.938 0 .969 1.125.969 1.297m0 0"/><path id="ba" d="M4.484 0v-.266c-.546 0-.609-.046-.609-.437v-2.813l-1.219.094v.266c.547 0 .61.047.61.437v1.39C3.266-.64 2.859-.14 2.25-.14c-.687 0-.719-.343-.719-.75v-2.625l-1.203.094v.266c.61 0 .61.015.61.719v1.203c0 .578 0 1.312 1.265 1.312.75 0 1.047-.578 1.078-.64h.016v.64Zm0 0"/><path id="bb" d="M1.625-.437a.453.453 0 0 0-.453-.454.436.436 0 0 0-.438.438.44.44 0 0 0 .438.453.45.45 0 0 0 .453-.437m0 0"/><path id="bc" d="M3.516-.953c0-.094-.11-.094-.125-.094-.063 0-.094 0-.125.078a1.07 1.07 0 0 1-1.078.797C1.703-.172.984-.547.984-1.734c0-1.141.594-1.578 1.172-1.578.078 0 .5 0 .781.156a.336.336 0 0 0-.265.344c0 .218.156.374.375.374s.375-.14.375-.39c0-.485-.531-.719-1.281-.719-1.11 0-1.86.875-1.86 1.828C.281-.703 1.11.078 2.11.078c1.125 0 1.407-.937 1.407-1.031m0 0"/><path id="bd" d="M4.484 0v-.266c-.515 0-.609 0-.609-.359v-1.797c0-.656-.312-1.094-1.14-1.094-.704 0-1.063.454-1.22.704v-2.72l-1.187.095v.265c.547 0 .61.047.61.438v4.109c0 .36-.094.36-.61.36V0c.344-.031.688-.031.906-.031.235 0 .563 0 .907.031v-.266c-.5 0-.61 0-.61-.359v-1.437c0-.844.64-1.235 1.125-1.235s.61.344.61.844v1.828c0 .36-.094.36-.61.36V0c.344-.031.703-.031.906-.031.235 0 .579 0 .922.031m0 0"/><path id="be" d="M4.484 0v-.266c-.515 0-.609 0-.609-.359v-1.797c0-.656-.312-1.094-1.14-1.094a1.38 1.38 0 0 0-1.25.766v-.766l-1.157.094v.266c.547 0 .61.047.61.437v2.094c0 .36-.094.36-.61.36V0c.344-.031.688-.031.906-.031.235 0 .563 0 .907.031v-.266c-.5 0-.61 0-.61-.359v-1.437c0-.844.64-1.235 1.125-1.235s.61.344.61.844v1.828c0 .36-.094.36-.61.36V0c.344-.031.703-.031.906-.031.235 0 .579 0 .922.031m0 0"/><path id="bf" d="M3.047-1.031c0-.375-.219-.938-1.172-1.11a10 10 0 0 0-.547-.093c-.25-.063-.625-.235-.625-.547 0-.235.188-.578.938-.578.89 0 .937.656.953.875 0 .062.062.093.11.093.14 0 .14-.062.14-.203v-.75c0-.125 0-.203-.11-.203-.046 0-.062 0-.187.125-.016 0-.094.078-.11.078 0 0-.03 0-.078-.031-.125-.094-.359-.172-.718-.172-1.11 0-1.36.594-1.36.985 0 .39.297.624.313.656.328.234.5.265 1.047.36.375.077.984.187.984.718 0 .312-.203.687-.937.687C.875-.14.64-.766.547-1.187c-.031-.11-.047-.141-.14-.141-.126 0-.126.062-.126.219v.984c0 .125 0 .203.094.203.063 0 .063 0 .203-.156.047-.047.125-.14.172-.188.36.329.734.344.938.344 1.015 0 1.359-.578 1.359-1.11M2.719-5.25c0-.172-.156-.312-.297-.312-.047 0-.156 0-.25.125L1.14-4.22l.172.172 1.25-.937c.093-.063.156-.125.156-.266m0 0"/><path id="bg" d="M4.422 0v-.266c-.547 0-.61-.046-.61-.437v-4.828l-1.187.093v.266c.531 0 .61.047.61.438v1.687a1.4 1.4 0 0 0-1.079-.469c-1 0-1.875.782-1.875 1.797 0 .985.797 1.797 1.797 1.797.469 0 .86-.219 1.125-.5v.5ZM3.203-.984c0 .14 0 .172-.125.328a1.15 1.15 0 0 1-.953.515c-.375 0-.687-.187-.875-.484-.219-.312-.266-.703-.266-1.078 0-.469.079-.797.266-1.063.188-.296.547-.53.953-.53.375 0 .766.202 1 .608Zm0 0"/><path id="bh" d="M5.516-1.453c0-.656-.61-1.281-1.61-1.39.86-.188 1.375-.704 1.375-1.25 0-.72-.797-1.344-1.875-1.344H.375v.265h.188c.609 0 .625.078.625.375V-.64c0 .297-.016.375-.625.375H.375V0h3.266c1.093 0 1.875-.703 1.875-1.453M4.5-4.093c0 .546-.469 1.156-1.39 1.156H1.86V-4.86c0-.266.015-.313.39-.313h1.11c.78 0 1.14.61 1.14 1.078m.203 2.624c0 .64-.531 1.203-1.344 1.203H2.25c-.375 0-.39-.046-.39-.328v-2.125h1.624c.766 0 1.22.625 1.22 1.25m0 0"/><path id="bi" d="M3.406-1.531h-.25C3.078-.61 2.922-.25 1.937-.25H1l2.313-2.906c.046-.078.062-.094.062-.156 0-.126-.094-.126-.219-.126H.453l-.11 1.329h.25c.048-.828.235-1.11 1.126-1.11h.906L.313-.297C.25-.219.233-.203.233-.14.234 0 .328 0 .47 0h2.797ZM2.328-4.797a.44.44 0 0 0-.437-.453.44.44 0 0 0-.438.453.437.437 0 1 0 .875 0m0 0"/><path id="bj" d="M4.11-3.203a.43.43 0 0 0-.454-.406c-.14 0-.531.046-.89.375a1.6 1.6 0 0 0-.891-.282c-.781 0-1.36.547-1.36 1.172 0 .375.204.656.376.813a.934.934 0 0 0 .094 1.36c-.422.108-.75.421-.75.78 0 .579.828 1.032 1.874 1.032 1 0 1.875-.407 1.875-1.047 0-.422-.25-.766-.515-.89-.469-.25-.86-.25-1.64-.25h-.454c-.25-.032-.437-.235-.437-.532 0-.188.046-.266.093-.328.344.187.657.234.844.234.781 0 1.375-.547 1.375-1.172 0-.297-.14-.562-.328-.765.11-.094.375-.266.765-.266-.03.016-.078.063-.078.188 0 .14.11.25.25.25a.25.25 0 0 0 .25-.266m-1.5.86c0 .296-.032.5-.157.656a.7.7 0 0 1-.578.28c-.734 0-.734-.765-.734-.937 0-.297.03-.5.156-.656a.72.72 0 0 1 .578-.281c.734 0 .734.765.734.937M3.515.608c0 .422-.61.797-1.407.797-.796 0-1.406-.375-1.406-.797 0-.171.14-.64.781-.64h.766c.219 0 1.266 0 1.266.64m0 0"/><path id="bk" d="M5.984-5.172v-.266c-.359.016-.734.016-.937.016s-.578 0-.938-.016v.266c.797 0 .797.375.797.578v3.407L1.938-5.328c-.094-.11-.094-.11-.25-.11H.343v.266h.234c.14 0 .203 0 .36.016.203.015.218.031.218.172V-.86c0 .218 0 .593-.812.593V0c.36-.031.734-.031.953-.031.203 0 .578 0 .937.031v-.266c-.812 0-.812-.375-.812-.593v-4.063L4.875-.125c.078.094.094.125.172.125.125 0 .125-.078.125-.219v-4.375c0-.203 0-.578.812-.578m0 0"/><path id="bl" d="M2.344-1.453v-.516H.094v.516Zm0 0"/><path id="bm" d="M3.516-.953c0-.094-.11-.094-.125-.094-.063 0-.094 0-.125.078a1.07 1.07 0 0 1-1.078.797C1.703-.172.984-.547.984-1.734c0-1.141.594-1.578 1.172-1.578.078 0 .5 0 .781.156a.336.336 0 0 0-.265.344c0 .218.156.374.375.374s.375-.14.375-.39c0-.485-.531-.719-1.281-.719-1.11 0-1.86.875-1.86 1.828C.281-.703 1.11.078 2.11.078c1.125 0 1.407-.937 1.407-1.031M3.125-5.25c0-.172-.172-.312-.312-.312-.032 0-.141 0-.25.125L1.547-4.22l.172.172 1.25-.937c.078-.063.156-.125.156-.266m0 0"/><path id="bn" d="M3.516-.953a.12.12 0 0 0-.125-.11c-.094 0-.11.047-.125.094a1.14 1.14 0 0 1-1.11.797c-.36 0-.734-.156-.969-.531-.234-.36-.234-.875-.234-1.11h2.344c.172 0 .219 0 .219-.187 0-.703-.391-1.547-1.516-1.547-.984 0-1.766.813-1.766 1.797 0 1.031.86 1.828 1.875 1.828-.265.235-.468.547-.484.875 0 .328.344.75.875.75.39 0 .844-.297.938-.75.03-.156-.172-.234-.22-.094-.093.282-.327.438-.562.422C1.891 1.25 1.891.438 2.594 0c.656-.219.922-.812.922-.953m-.547-1.078H.953c.078-1.11.75-1.297 1.047-1.297.938 0 .969 1.125.969 1.297m0 0"/><path id="bo" d="M6.828 0v-.266c-.516 0-.61 0-.61-.359v-1.797c0-.64-.28-1.094-1.14-1.094-.734 0-1.11.5-1.234.735-.14-.578-.594-.735-1.11-.735a1.37 1.37 0 0 0-1.25.766v-.766l-1.156.094v.266c.547 0 .61.047.61.437v2.094c0 .36-.094.36-.61.36V0c.344-.031.688-.031.906-.031.235 0 .563 0 .907.031v-.266c-.5 0-.61 0-.61-.359v-1.437c0-.844.64-1.235 1.14-1.235.517 0 .61.406.61.844v1.828c0 .36-.11.36-.61.36V0c.345-.031.688-.031.907-.031.235 0 .563 0 .906.031v-.266c-.515 0-.609 0-.609-.359v-1.437c0-.844.64-1.235 1.14-1.235.516 0 .61.406.61.844v1.828c0 .36-.11.36-.61.36V0c.344-.031.688-.031.907-.031.234 0 .562 0 .906.031m0 0"/><path id="bp" d="M6.047 0v-.266h-.14c-.5 0-.579-.062-.673-.328L3.375-5.516c-.047-.109-.062-.171-.203-.171-.14 0-.172.062-.203.171L1.188-.828c-.079.219-.25.562-.907.562V0c.266-.031.688-.031.828-.031.25 0 .5 0 .875.031v-.266c-.343 0-.546-.171-.546-.39 0-.063 0-.078.03-.172l.376-1h2.172l.453 1.187C4.5-.547 4.5-.5 4.5-.5c0 .234-.406.234-.64.234V0L5-.031c.438 0 .594 0 1.047.031m-2.14-2.094h-1.97l1-2.593Zm0 0"/><path id="bs" d="M6.14-2.14c0-.579-.296-1.72-2.14-2.047 1.047-.313 1.766-1.063 1.766-2 0-.907-.86-1.657-2.516-1.657-1.344 0-2.312.703-2.312 1.672 0 .61.468.797.765.797.36 0 .766-.234.766-.781 0-.282-.11-.688-.672-.766.5-.484 1.312-.484 1.375-.484 1.078 0 1.078.812 1.078 1.172s-.047.922-.437 1.406c-.313.406-.626.422-1.079.453-.14.016-.375.031-.421.047-.079.031-.079.125-.079.172 0 .203.079.203.313.203h.578c1.328 0 1.328 1.234 1.328 1.812 0 .532 0 1.813-1.281 1.813-.25 0-1.047-.047-1.625-.453.516-.11.703-.469.703-.828 0-.5-.344-.844-.844-.844s-.843.344-.843.844C.563-.5 1.75.14 3.234.14c1.97 0 2.907-1.078 2.907-2.282m0 0"/><path id="bt" d="M5.766 0v-.516H4.14V-7.5c0-.344-.032-.344-.407-.344-.89.766-2.218.766-2.484.766h-.219v.516h.219c.422 0 1.063-.079 1.531-.235v6.281H1.125V0l2.313-.031Zm0 0"/><path id="bu" d="M6.14-2.469c0-1.672-1.156-2.547-2.577-2.547-.235 0-1 0-1.485 1.016v-.328c0-.734.031-1.469.375-2.11.266-.5.875-.968 1.64-.968.235 0 .657.031.954.328-.453.047-.64.39-.64.703 0 .438.312.703.702.703.313 0 .704-.203.704-.719 0-.718-.485-1.453-1.735-1.453-1.5 0-3.516.938-3.516 4.047 0 .813 0 3.938 2.829 3.938 1.578 0 2.75-.922 2.75-2.61m-1.515 0c0 1.172 0 2.14-1.25 2.14-.75 0-1.062-.655-1.11-.75-.156-.39-.156-1.343-.156-1.452 0-1.469.625-2.094 1.329-2.094 1.187 0 1.187.953 1.187 2.156m0 0"/><path id="bv" d="M5.547 0v-.25h-.125c-.469 0-.516-.078-.594-.266L3.125-4.812c-.031-.11-.062-.157-.187-.157-.141 0-.157.047-.204.157L1.125-.734C1.063-.562.938-.25.313-.25V0c.234-.016.484-.031.718-.031.282 0 .797.031.844.031v-.25c-.312 0-.516-.14-.516-.328 0-.063.016-.078.047-.14l.328-.86H3.72l.406 1.016c0 .03.031.078.031.109 0 .203-.375.203-.562.203V0l1.031-.031c.328 0 .86.031.922.031M3.609-1.828H1.83l.89-2.266Zm0 0"/><path id="bw" d="M4.047 0v-.25c-.469 0-.516-.047-.516-.39v-4.204l-1.047.078v.25c.47 0 .516.063.516.391v1.453a1.37 1.37 0 0 0-.969-.406c-.937 0-1.703.703-1.703 1.578S1.062.063 1.938.063c.578 0 .921-.297 1.03-.422v.422ZM2.969-.734c-.172.328-.531.609-.985.609-.39 0-.671-.234-.812-.437-.14-.204-.219-.485-.219-.922 0-.172 0-.688.281-1.016.282-.312.625-.375.829-.375.328 0 .64.156.828.406.078.11.078.11.078.25Zm0 0"/><path id="bx" d="M5.469-2.75V-3c-.188.016-.313.031-.5.031-.219 0-.485-.015-.688-.031v.25c.235 0 .36.14.36.297 0 .062 0 .078-.047.172L3.922-.547l-.75-1.906a.3.3 0 0 1-.031-.125c0-.156.172-.172.375-.172V-3c-.25.016-.5.031-.75.031-.203 0-.422-.015-.625-.031v.25c.172 0 .312 0 .406.047.094.078.156.312.156.312s-.015.063-.031.079L2.016-.641l-.703-1.812c-.032-.094-.032-.094-.032-.125 0-.172.25-.172.375-.172V-3s-.515.031-.797.031C.641-2.969.422-2.984.203-3v.25c.281 0 .438 0 .5.203l.969 2.453c.047.11.062.157.203.157.125 0 .14-.047.172-.141l.797-1.984.765 1.968c.047.094.063.157.204.157.124 0 .14-.047.187-.157l.875-2.234c.14-.344.375-.422.594-.422m0 0"/><path id="by" d="M3.266-.844c0-.015-.016-.094-.125-.094-.094 0-.11.047-.125.11-.22.562-.75.672-1 .672-.328 0-.641-.14-.844-.406-.266-.329-.266-.75-.266-1.032h2.157c.156 0 .203 0 .203-.14 0-.625-.344-1.375-1.391-1.375a1.59 1.59 0 0 0-1.61 1.578c0 .89.782 1.594 1.704 1.594.937 0 1.297-.75 1.297-.907m-.485-.922H.906c.078-.984.703-1.14.969-1.14.86 0 .89.969.906 1.14m0 0"/><path id="bz" d="M4.11 0v-.25c-.454 0-.516 0-.516-.297v-1.562c0-.61-.297-.97-1.047-.97-.578 0-.938.313-1.14.688v-.687L.374-3v.25c.469 0 .531.047.531.39v1.813c0 .297-.078.297-.531.297V0s.5-.031.797-.031c.25 0 .734.031.797.031v-.25c-.453 0-.516 0-.516-.297v-1.265c0-.72.578-1.063 1.031-1.063.485 0 .547.375.547.734v1.594c0 .297-.062.297-.515.297V0s.5-.031.797-.031c.25 0 .734.031.796.031m0 0"/><path id="bA" d="M2.61-.875v-.39h-.235v.374c0 .485-.219.735-.5.735-.469 0-.469-.578-.469-.703V-2.75h1.078V-3H1.406v-1.281h-.25c0 .625-.281 1.312-.953 1.328v.203h.64v1.875c0 .781.595.938.985.938.469 0 .781-.391.781-.938m0 0"/><path id="bB" d="M3.516-1.266H3.28c-.015.157-.094.563-.187.625-.047.047-.578.047-.688.047H1.125c.734-.64.984-.843 1.39-1.172.516-.406 1-.843 1-1.5 0-.843-.734-1.359-1.624-1.359-.86 0-1.453.61-1.453 1.25 0 .344.296.39.375.39.156 0 .359-.124.359-.374 0-.125-.047-.375-.406-.375.218-.485.687-.641 1.015-.641.703 0 1.063.547 1.063 1.11 0 .609-.438 1.078-.656 1.328L.516-.266C.437-.203.437-.187.437 0h2.876Zm0 0"/><path id="bC" d="M3.594-2.219c0-.765-.094-1.328-.406-1.812-.22-.313-.657-.594-1.204-.594C.36-4.625.36-2.719.36-2.219s0 2.36 1.625 2.36c1.61 0 1.61-1.86 1.61-2.36m-.625-.094c0 .516 0 1.032-.094 1.47-.14.64-.61.78-.89.78-.329 0-.75-.187-.891-.75C1-1.219 1-1.796 1-2.312c0-.515 0-1.046.094-1.421.156-.547.593-.703.89-.703.375 0 .735.234.86.64.11.375.125.875.125 1.485m0 0"/><path id="bD" d="M3.516-1.406c0-.782-.594-1.5-1.453-1.5-.313 0-.672.062-.985.328v-1.313c.36.094.563.094.672.094.922 0 1.469-.625 1.469-.734 0-.078-.047-.094-.078-.094 0 0-.032 0-.063.016-.172.062-.531.203-1.047.203-.203 0-.562-.016-1.015-.188-.079-.031-.094-.031-.094-.031-.094 0-.094.078-.094.188v2.046c0 .125 0 .204.11.204.062 0 .078 0 .14-.094.297-.375.734-.438.969-.438.422 0 .61.328.64.39.126.235.172.5.172.907 0 .203 0 .61-.218.922a.98.98 0 0 1-.813.422c-.453 0-.922-.25-1.094-.719.266.016.407-.156.407-.344 0-.296-.266-.343-.36-.343 0 0-.343 0-.343.375 0 .625.578 1.25 1.406 1.25.89 0 1.672-.657 1.672-1.547m0 0"/><path id="bE" d="M7.813-1.75v-.203H.109v.203Zm0 0"/><path id="bF" d="M3.578-2.297c0-1.719-.765-2.328-1.578-2.328a1.55 1.55 0 0 0-1.11.422c-.234.234-.515.5-.515 1.125 0 .89.703 1.547 1.516 1.547.562 0 .859-.375 1.015-.688v.14c0 1.735-.844 2-1.265 2-.157 0-.532-.015-.72-.233a.315.315 0 0 0 .313-.329.32.32 0 0 0-.328-.328c-.203 0-.328.14-.328.344 0 .469.39.766 1.063.766 1 0 1.937-.938 1.937-2.438M2.891-3c0 .906-.516 1.266-.953 1.266-.282 0-.532-.079-.735-.407-.156-.25-.156-.546-.156-.937 0-.406 0-.672.203-.953.172-.25.39-.39.75-.39s.578.218.688.405c.187.282.203.782.203 1.016m0 0"/><path id="bG" d="M2.516 0v-.25h-.172c-.578 0-.578-.078-.578-.328v-3.61c0-.234 0-.328.578-.328h.172v-.25l-1.078.032-1.079-.032v.25h.172c.578 0 .578.094.578.329v3.609c0 .25 0 .328-.578.328H.36V0l1.079-.031Zm0 0"/><path id="bH" d="M3.578-1.422c0-.89-.703-1.547-1.515-1.547-.563 0-.86.375-1.016.688 0-.563.047-1.078.312-1.516.235-.375.61-.625 1.063-.625.203 0 .484.047.625.234-.172.016-.328.141-.328.344a.32.32 0 0 0 .328.328c.219 0 .344-.14.344-.343 0-.407-.297-.766-.985-.766-1 0-2.031.922-2.031 2.422C.375-.406 1.219.14 2 .14c.844 0 1.578-.657 1.578-1.563m-.672 0c0 .39 0 .688-.187.969A.82.82 0 0 1 2-.078c-.36 0-.625-.203-.781-.516-.094-.203-.157-.562-.157-.968 0-.688.407-1.204.97-1.204.312 0 .53.125.702.375.172.266.172.563.172.97m0 0"/><path id="bI" d="M2.016 1.734v-.328h-.72V-4.89h.72v-.328H.953v6.953Zm0 0"/><path id="bJ" d="M3.797-4.484H1.969c-.282 0-.36-.016-.61-.032C1-4.546.984-4.594.97-4.703H.734L.484-3.22H.72c.015-.11.094-.562.203-.64.047-.032.625-.032.719-.032h1.515l-.719.922c-.906 1.188-1 2.297-1 2.703 0 .079 0 .407.329.407.343 0 .343-.313.343-.407v-.28c0-1.345.282-1.97.579-2.345l1.046-1.312c.063-.094.063-.11.063-.281m0 0"/><path id="bK" d="M3.578-1.203c0-.547-.437-1.094-1.203-1.25.719-.266.984-.781.984-1.219 0-.547-.625-.953-1.406-.953-.766 0-1.36.375-1.36.938 0 .234.157.359.36.359.219 0 .36-.156.36-.344 0-.203-.141-.36-.36-.375.25-.297.719-.375.985-.375.312 0 .75.156.75.75 0 .297-.094.625-.282.828-.219.266-.422.281-.765.313-.172.015-.188.015-.22.015 0 0-.077.016-.077.094 0 .094.062.094.187.094h.375c.547 0 .938.375.938 1.125 0 .86-.516 1.125-.906 1.125-.282 0-.907-.078-1.188-.5.328 0 .406-.235.406-.39 0-.22-.172-.376-.39-.376a.38.38 0 0 0-.391.407C.375-.281 1.094.14 1.938.14c.968 0 1.64-.657 1.64-1.344m0 0"/><path id="bL" d="M1.297 1.734v-6.953H.219v.328h.734v6.297H.22v.328Zm0 0"/><path id="bM" d="M4.563 0v-.437H3.266v-5.157c0-.187 0-.297-.266-.297-.11 0-.125 0-.203.063-.688.516-1.656.516-1.828.516H.797v.437h.172a4.2 4.2 0 0 0 1.203-.172v4.61H.89V0c.343-.031 1.422-.031 1.828-.031.422 0 1.484 0 1.844.031m0 0"/><path id="bN" d="M5.156-5.516v-.265H3.11c-.187 0-1.437-.047-1.546-.078-.172-.047-.188-.11-.204-.203H.906L.594-3.766h.453c.094-.75.25-.812.25-.812.125-.047.812-.047.984-.047h1.5c-.922 1.047-.922 1.063-1.11 1.344-.733 1.11-.89 2.14-.89 2.75 0 .625.485.64.578.64.235 0 .407-.14.454-.187.124-.188.124-.234.124-.75 0-1.156.11-2.234.688-2.89l1.438-1.626c.078-.093.093-.14.093-.172m0 0"/><path id="bO" d="M4.766-1.797c0-1.031-.72-1.875-2.078-1.875-.422 0-.797.063-1.188.297v-1.14c.313.062.453.062.64.062.25 0 .829 0 1.5-.453.204-.125.72-.563.72-.797 0-.031 0-.188-.141-.188 0 0-.047 0-.14.047a4.07 4.07 0 0 1-2.813 0c-.125-.047-.157-.047-.157-.047-.125 0-.125.125-.125.266v2.64c0 .157 0 .282.204.282.125 0 .14 0 .234-.125.375-.422.86-.485 1.219-.485.828 0 .828.782.828 1.485 0 .64 0 1.531-1.125 1.531-.485 0-.922-.234-1.14-.516.374-.046.577-.296.577-.624 0-.438-.343-.625-.625-.625s-.625.171-.625.64C.531-.64 1.25.11 2.391.11c1.53 0 2.375-.859 2.375-1.906m0 0"/><path id="bP" d="M5 0v-.437h-.89v-.954H5v-.437h-.89v-3.766c0-.265-.032-.312-.298-.312-.218 0-.234.015-.328.14L.297-1.828v.437h2.656v.954H1.922V0C2.25-.031 3.14-.031 3.5-.031c.375 0 1.172 0 1.5.031M3.063-1.828H.813l2.25-2.797Zm0 0"/><clipPath id="b"><path d="M.535.266h6.883v9.636H.535Zm0 0"/></clipPath><clipPath id="a"><path d="M0 0h8v10H0z"/></clipPath><clipPath id="M"><path d="M385.168 26.766h13.95v9.636h-13.95Zm0 0"/></clipPath><clipPath id="bq"><path d="M15.023 568.348H403v11.336H15.023Zm0 0"/></clipPath><linearGradient id="br" x1="0" x2="388.063" y1="0" y2="0" gradientTransform="matrix(1 0 0 -1 15.024 579.685)" gradientUnits="userSpaceOnUse"><stop offset="0" stop-color="#9f9"/><stop offset=".25" stop-color="#9f9"/><stop offset=".313" stop-color="#9f9"/><stop offset=".344" stop-color="#9f9"/><stop offset=".352" stop-color="#9f9"/><stop offset=".355" stop-color="#9df896"/><stop offset=".359" stop-color="#a1f193"/><stop offset=".363" stop-color="#abe08c"/><stop offset=".367" stop-color="#b5ce84"/><stop offset=".371" stop-color="#bfbc7c"/><stop offset=".375" stop-color="#c9ab75"/><stop offset=".379" stop-color="#d3996d"/><stop offset=".383" stop-color="#d86"/><stop offset=".387" stop-color="#e7765e"/><stop offset=".391" stop-color="#f16457"/><stop offset=".395" stop-color="#f85852"/><stop offset=".398" stop-color="#ff4c4c"/><stop offset=".406" stop-color="#ff4c4c"/><stop offset=".438" stop-color="#ff4c4c"/><stop offset=".5" stop-color="#ff4c4c"/><stop offset=".563" stop-color="#ff4c4c"/><stop offset=".566" stop-color="#f85a52"/><stop offset=".57" stop-color="#f06758"/><stop offset=".574" stop-color="#e6785f"/><stop offset=".578" stop-color="#dc8a67"/><stop offset=".582" stop-color="#d29b6e"/><stop offset=".586" stop-color="#c8ad76"/><stop offset=".59" stop-color="#bebf7d"/><stop offset=".594" stop-color="#b4d085"/><stop offset=".598" stop-color="#aae28d"/><stop offset=".602" stop-color="#a0f494"/><stop offset=".605" stop-color="#9cf997"/><stop offset=".609" stop-color="#9f9"/><stop offset=".625" stop-color="#9f9"/><stop offset=".75" stop-color="#9f9"/><stop offset="1" stop-color="#9f9"/></linearGradient><g id="c" clip-path="url(#a)"><g clip-path="url(#b)"><path fill-rule="evenodd" d="m3.977 7.836 3.441 2.066V1.645c0-.762-.617-1.38-1.375-1.38H1.914C1.152.266.535.884.535 1.646v8.257Zm-2.754.851 2.754-1.652L6.73 8.687V1.646a.69.69 0 0 0-.687-.692H1.914a.69.69 0 0 0-.691.692Zm0 0"/></g></g></defs><use xlink:href="#c" transform="translate(9 27)"/><use xlink:href="#d" x="17.008" y="23.315"/><use xlink:href="#e" x="20.884" y="23.315"/><use xlink:href="#f" x="26.622" y="23.315"/><use xlink:href="#g" x="362.288" y="23.315"/><use xlink:href="#h" x="365.133" y="23.315"/><use xlink:href="#i" x="368.305" y="23.315"/><use xlink:href="#j" x="372.681" y="23.315"/><use xlink:href="#k" x="377.056" y="23.315"/><use xlink:href="#l" x="381.209" y="23.315"/><use xlink:href="#k" x="385.146" y="23.315"/><use xlink:href="#m" x="389.298" y="23.315"/><use xlink:href="#n" x="391.92" y="23.315"/><use xlink:href="#i" x="396.726" y="23.315"/><use xlink:href="#o" x="96.045" y="34.908"/><use xlink:href="#p" x="103.35" y="34.908"/><use xlink:href="#q" x="112.244" y="34.908"/><use xlink:href="#r" x="115.305" y="34.908"/><use xlink:href="#s" x="121.414" y="34.908"/><use xlink:href="#t" x="131.647" y="34.908"/><use xlink:href="#p" x="138.222" y="34.908"/><use xlink:href="#q" x="147.117" y="34.908"/><use xlink:href="#u" x="150.177" y="34.908"/><use xlink:href="#v" x="156.454" y="34.908"/><use xlink:href="#w" x="162.144" y="34.908"/><use xlink:href="#r" x="168.851" y="34.908"/><use xlink:href="#x" x="174.96" y="34.908"/><use xlink:href="#v" x="180.806" y="34.908"/><use xlink:href="#y" x="186.497" y="34.908"/><use xlink:href="#z" x="192.474" y="34.908"/><use xlink:href="#A" x="203.437" y="34.908"/><use xlink:href="#u" x="213.802" y="34.908"/><use xlink:href="#B" x="220.078" y="34.908"/><use xlink:href="#u" x="224.262" y="34.908"/><use xlink:href="#C" x="230.539" y="34.908"/><use xlink:href="#D" x="238.584" y="34.908"/><use xlink:href="#p" x="243.629" y="34.908"/><use xlink:href="#q" x="252.524" y="34.908"/><use xlink:href="#r" x="255.584" y="34.908"/><use xlink:href="#s" x="261.693" y="34.908"/><use xlink:href="#E" x="276.508" y="34.908"/><use xlink:href="#F" x="280.094" y="34.908"/><use xlink:href="#G" x="288.146" y="34.908"/><use xlink:href="#H" x="292.817" y="34.908"/><use xlink:href="#I" x="297.426" y="34.908"/><use xlink:href="#J" x="301.335" y="34.908"/><use xlink:href="#K" x="305.943" y="34.908"/><use xlink:href="#H" x="310.552" y="34.908"/><use xlink:href="#L" x="315.16" y="34.908"/><g clip-path="url(#M)"><path d="M394.441 28.977c-.253.289-.46.57-.968.777-.13.05-.192.105-.153.273.516 2.235.496 2.657.688 3.118.027.07-.031.085-.07.113a1.6 1.6 0 0 1-.543.176c-.079.011-.106.027-.106.109q.005 1.137.004 2.273c0 .153.105.207.223.23.086.02.156.067.238.087.078.023.101.105.086.183-.02.133-.098.063-.883.082-.113.004-.14-.054-.144-.14-.02-.488-.086-.973-.114-1.461-.02-.383-.11-.766-.156-1.152-.023-.172-.148-.075-.285-.106-.121-.027-.16.063-.164.14-.028.446-.137.88-.149 1.329-.011.414-.062.824-.101 1.238-.008.082-.051.121-.149.121-.78-.023-.86.047-.879-.086-.03-.191.153-.203.215-.23.332-.137.332-.14.332-.496q-.001-1.001.004-1.996c0-.274-.14-.055-.637-.329-.074-.042-.097-.078-.074-.171.239-.875.469-1.754.703-2.63.036-.128.012-.202-.12-.261-1.223-.55-1.462-.895-1.75-1.05-.094.136-.122.292-.192.433-.48.972-.79.965-.79 1.238 0 1.559.005 3.117 0 4.68-.003.226.173.32.305.441.067.063.165.102.137.211-.031.125-.14.106-.238.106-.121-.004-.246.015-.36-.012-.187-.043-.421-.36-.425-.563-.012-.52-.14-1.027-.172-1.547a7 7 0 0 0-.117-.89c-.117.105-.106.234-.137.347-.617 2.446-.523 2.274-.777 2.57-.098.122-.176.09-.586.095-.059 0-.125.003-.137-.07-.05-.313.25.011.484-.79a7 7 0 0 0 .223-1.156c.191-1.465.234-1.809.223-3.223-.004-.11-.032-.183-.11-.254-.636-.59-1.36-1.39-1.636-2.218a.24.24 0 0 1 .03-.227c.063-.082.114-.129.204-.004 1.203 1.66 1.445 1.758 1.695 1.746.047-.004.117.032.121-.054 0-.067.02-.13-.066-.172-.273-.14-.469-.36-.527-.664-.118-.602.101-1.106.832-1.137.16-.008.32-.012.484.058.3.125.48.329.512.645.05.488-.059.832-.528 1.117-.074.047-.097.098-.086.18.012.105.094.055.145.058.09.008.18.004.266-.042.476-.258.77-.668.98-1.153.035-.082-.027-.101-.062-.137-.172-.171-.356-.335-.418-.585-.079-.32.101-.45.285-.27.672.648.484.633 1.87 1.316.18.09.083.028.852.051.079.004.122-.027.137-.094.012-.066.024-.136-.05-.18-.544-.316-.739-.859-.57-1.468.093-.332.28-.555.589-.664 1.11-.39 1.656.941 1.238 1.71-.074.138-.199.24-.316.333-.078.058-.063.117-.055.176.008.078.082.043.125.047.477.039.856-.141 1.2-.473.456-.442 1.046-1.145 1.077-.606.02.262-.152.422-.332.555-.125.094-.164.145-.09.309.25.574.606 1.058 1.075 1.468.125.11.262.204.437.192.043-.004.117.027.114-.059 0-.054.03-.12-.055-.16-.317-.137-.438-.414-.516-.723-.097-.378.23-.894.574-1.02a.81.81 0 0 1 1 .423q.333.666-.203 1.21c-.074.079-.195.13-.18.274.005.063.016.086.087.09.183.012.328-.066.457-.184 1.144-.992.984-1.695 1.37-1.812.067-.02.15-.082.2.004.094.148-.05.336-.094.363-.183.125-.219.332-.297.512-.242.562-.48 1.133-.965 1.531-.238.2-.23.402-.16.637.168.57.235 1.168.43 1.73.035.094-.004.164-.113.18-.145.02-.29.055-.434.062-.09.008-.101.043-.101.118 0 .593.16 1.59.136 1.882-.035.375.461.317.375.59-.02.063-.07.106-.144.098-.13-.012-.258.023-.387-.027-.398-.149-.273-.493-.457-1.914-.027-.204-.027-.41-.04-.614-.003-.035.017-.086-.046-.09-.066-.003-.05.047-.055.086-.035.41-.054.825-.109 1.235-.082.59.012 1.289-.562 1.293-.07 0-.137-.004-.208 0-.082.004-.132-.04-.152-.11-.031-.12.04-.18.152-.234.34-.172.2-.508.329-2.113.011-.149-.024-.203-.192-.2-.183.004-.367-.035-.55-.066-.122-.02-.098-.117-.075-.191.168-.5.246-1.024.371-1.532.028-.12.192-.632.047-.714-.43-.247-.644-.665-.875-1.075-.183-.324-.305-.675-.469-1.05m0 0"/></g><path fill="none" stroke="#000" stroke-miterlimit="10" stroke-width=".398" d="M17.008 39.293h384.094"/><use xlink:href="#N" x="114.257" y="51.089" fill="red"/><use xlink:href="#O" x="114.257" y="61.174"/><use xlink:href="#P" x="121.406" y="61.174"/><use xlink:href="#Q" x="127.013" y="61.174"/><use xlink:href="#R" x="132.692" y="61.174"/><use xlink:href="#S" x="136.673" y="61.174"/><use xlink:href="#T" x="142.208" y="61.174"/><use xlink:href="#P" x="149.847" y="61.174"/><use xlink:href="#U" x="155.454" y="61.174"/><use xlink:href="#V" x="161.455" y="61.174"/><use xlink:href="#W" x="170.434" y="51.089" fill="red"/><use xlink:href="#X" x="170.434" y="61.174"/><use xlink:href="#Y" x="179.687" y="61.174"/><use xlink:href="#Z" x="185.689" y="61.174"/><use xlink:href="#aa" x="188.438" y="61.174"/><use xlink:href="#ab" x="193.639" y="61.174"/><use xlink:href="#ac" x="200.788" y="51.089" fill="red"/><use xlink:href="#Q" x="200.788" y="61.174"/><use xlink:href="#R" x="206.467" y="61.174"/><use xlink:href="#S" x="210.448" y="61.174"/><use xlink:href="#ad" x="216.306" y="61.174"/><use xlink:href="#ae" x="220.789" y="61.174"/><use xlink:href="#S" x="225.021" y="61.174"/><use xlink:href="#U" x="234.776" y="61.174"/><use xlink:href="#S" x="240.777" y="61.174"/><use xlink:href="#N" x="250.534" y="51.089" fill="red"/><use xlink:href="#af" x="250.534" y="61.174"/><use xlink:href="#aa" x="258.305" y="61.174"/><use xlink:href="#ae" x="263.505" y="61.174"/><use xlink:href="#ag" x="267.737" y="61.174"/><use xlink:href="#aa" x="270.487" y="61.174"/><use xlink:href="#ah" x="275.687" y="61.174"/><use xlink:href="#aa" x="278.772" y="61.174"/><use xlink:href="#X" x="283.972" y="61.174"/><use xlink:href="#ab" x="293.225" y="61.174"/><use xlink:href="#ai" x="296.477" y="56.835"/><use xlink:href="#aj" x="114.257" y="82.818"/><use xlink:href="#P" x="119.338" y="82.818"/><use xlink:href="#Q" x="124.945" y="82.818"/><use xlink:href="#R" x="130.623" y="82.818"/><use xlink:href="#S" x="134.604" y="82.818"/><use xlink:href="#T" x="140.14" y="82.818"/><use xlink:href="#P" x="147.779" y="82.818"/><use xlink:href="#U" x="153.386" y="82.818"/><use xlink:href="#V" x="159.387" y="82.818"/><use xlink:href="#W" x="168.366" y="72.733" fill="red"/><use xlink:href="#X" x="168.366" y="82.818"/><use xlink:href="#Y" x="177.619" y="82.818"/><use xlink:href="#Z" x="183.621" y="82.818"/><use xlink:href="#aa" x="186.37" y="82.818"/><use xlink:href="#ab" x="191.571" y="82.818"/><use xlink:href="#ac" x="198.72" y="72.733" fill="red"/><use xlink:href="#ak" x="198.72" y="82.818"/><use xlink:href="#U" x="204.578" y="82.818"/><use xlink:href="#aj" x="210.579" y="82.818"/><use xlink:href="#Z" x="215.66" y="82.818"/><use xlink:href="#aa" x="218.41" y="82.818"/><use xlink:href="#af" x="227.508" y="82.818"/><use xlink:href="#al" x="235.278" y="82.818"/><use xlink:href="#ak" x="241.136" y="82.818"/><use xlink:href="#Y" x="250.892" y="82.818"/><use xlink:href="#P" x="256.893" y="82.818"/><use xlink:href="#N" x="262.501" y="72.733" fill="red"/><use xlink:href="#R" x="262.501" y="82.818"/><use xlink:href="#S" x="266.482" y="82.818"/><use xlink:href="#U" x="272.663" y="82.818"/><use xlink:href="#aj" x="278.664" y="82.818"/><use xlink:href="#Z" x="283.745" y="82.818"/><use xlink:href="#am" x="286.495" y="82.818"/><use xlink:href="#ad" x="294.146" y="82.818"/><use xlink:href="#Z" x="298.629" y="82.818"/><use xlink:href="#an" x="301.379" y="82.818"/><use xlink:href="#ab" x="306.579" y="82.818"/><use xlink:href="#O" x="114.257" y="104.462"/><use xlink:href="#P" x="121.406" y="104.462"/><use xlink:href="#Q" x="127.013" y="104.462"/><use xlink:href="#R" x="132.692" y="104.462"/><use xlink:href="#S" x="136.673" y="104.462"/><use xlink:href="#T" x="142.208" y="104.462"/><use xlink:href="#P" x="149.847" y="104.462"/><use xlink:href="#U" x="155.454" y="104.462"/><use xlink:href="#V" x="161.455" y="104.462"/><use xlink:href="#W" x="170.434" y="94.376" fill="red"/><use xlink:href="#X" x="170.434" y="104.462"/><use xlink:href="#Y" x="179.687" y="104.462"/><use xlink:href="#Z" x="185.689" y="104.462"/><use xlink:href="#aa" x="188.438" y="104.462"/><use xlink:href="#ab" x="193.639" y="104.462"/><use xlink:href="#ac" x="200.788" y="94.376" fill="red"/><use xlink:href="#Y" x="200.788" y="104.462"/><use xlink:href="#Z" x="206.789" y="104.462"/><use xlink:href="#aa" x="209.539" y="104.462"/><use xlink:href="#X" x="218.637" y="104.462"/><use xlink:href="#S" x="227.89" y="104.462"/><use xlink:href="#ak" x="233.748" y="104.462"/><use xlink:href="#an" x="239.606" y="104.462"/><use xlink:href="#N" x="248.705" y="94.376" fill="red"/><use xlink:href="#ad" x="248.705" y="104.462"/><use xlink:href="#Q" x="253.188" y="104.462"/><use xlink:href="#al" x="259.512" y="104.462"/><use xlink:href="#V" x="265.37" y="104.462"/><use xlink:href="#Y" x="270.451" y="104.462"/><use xlink:href="#Z" x="276.453" y="104.462"/><use xlink:href="#ao" x="279.202" y="104.462"/><use xlink:href="#ad" x="288.3" y="104.462"/><use xlink:href="#Z" x="292.783" y="104.462"/><use xlink:href="#an" x="295.533" y="104.462"/><use xlink:href="#ab" x="300.733" y="104.462"/><use xlink:href="#Y" x="114.257" y="126.105"/><use xlink:href="#Z" x="120.258" y="126.105"/><use xlink:href="#aa" x="123.008" y="126.105"/><use xlink:href="#X" x="132.106" y="126.105"/><use xlink:href="#S" x="141.359" y="126.105"/><use xlink:href="#ak" x="147.217" y="126.105"/><use xlink:href="#an" x="153.075" y="126.105"/><use xlink:href="#W" x="162.173" y="116.02" fill="red"/><use xlink:href="#ad" x="162.173" y="126.105"/><use xlink:href="#Q" x="166.656" y="126.105"/><use xlink:href="#al" x="172.98" y="126.105"/><use xlink:href="#V" x="178.838" y="126.105"/><use xlink:href="#Y" x="183.919" y="126.105"/><use xlink:href="#Z" x="189.921" y="126.105"/><use xlink:href="#ao" x="192.67" y="126.105"/><use xlink:href="#ad" x="201.768" y="126.105"/><use xlink:href="#Z" x="206.251" y="126.105"/><use xlink:href="#an" x="209.001" y="126.105"/><use xlink:href="#ap" x="214.201" y="126.105"/><use xlink:href="#ac" x="126.212" y="140.652" fill="red"/><use xlink:href="#aq" x="126.212" y="150.738"/><use xlink:href="#T" x="132.716" y="150.738"/><use xlink:href="#Z" x="140.678" y="150.738"/><use xlink:href="#aa" x="143.427" y="150.738"/><use xlink:href="#ao" x="148.628" y="150.738"/><use xlink:href="#ab" x="153.828" y="150.738"/><use xlink:href="#ak" x="160.977" y="150.738"/><use xlink:href="#T" x="166.835" y="150.738"/><use xlink:href="#Z" x="174.797" y="150.738"/><use xlink:href="#P" x="177.547" y="150.738"/><use xlink:href="#aj" x="183.154" y="150.738"/><use xlink:href="#U" x="188.235" y="150.738"/><use xlink:href="#aa" x="194.236" y="150.738"/><use xlink:href="#ar" x="199.436" y="150.738"/><use xlink:href="#aj" x="204.637" y="150.738"/><use xlink:href="#as" x="209.718" y="150.738"/><use xlink:href="#S" x="215.074" y="150.738"/><use xlink:href="#ab" x="220.931" y="150.738"/><use xlink:href="#X" x="228.081" y="150.738"/><use xlink:href="#P" x="237.334" y="150.738"/><use xlink:href="#at" x="242.942" y="140.652" fill="red"/><use xlink:href="#am" x="242.942" y="150.738"/><use xlink:href="#P" x="246.373" y="150.738"/><use xlink:href="#W" x="255.878" y="140.652" fill="red"/><use xlink:href="#au" x="255.878" y="150.738"/><use xlink:href="#T" x="260.361" y="150.738"/><use xlink:href="#Z" x="268.323" y="150.738"/><use xlink:href="#aa" x="271.073" y="150.738"/><use xlink:href="#ao" x="276.273" y="150.738"/><use xlink:href="#ab" x="281.474" y="150.738"/><use xlink:href="#at" x="126.212" y="162.296" fill="red"/><use xlink:href="#U" x="126.212" y="172.381"/><use xlink:href="#S" x="132.213" y="172.381"/><use xlink:href="#av" x="141.969" y="172.381"/><use xlink:href="#aa" x="147.456" y="172.381"/><use xlink:href="#aj" x="152.656" y="172.381"/><use xlink:href="#aw" x="157.737" y="172.381"/><use xlink:href="#ad" x="163.739" y="172.381"/><use xlink:href="#P" x="168.222" y="172.381"/><use xlink:href="#Q" x="177.726" y="172.381"/><use xlink:href="#R" x="183.405" y="172.381"/><use xlink:href="#S" x="187.386" y="172.381"/><use xlink:href="#W" x="193.245" y="162.296" fill="red"/><use xlink:href="#T" x="193.245" y="172.381"/><use xlink:href="#P" x="200.884" y="172.381"/><use xlink:href="#U" x="206.491" y="172.381"/><use xlink:href="#V" x="212.493" y="172.381"/><use xlink:href="#ac" x="221.471" y="162.296" fill="red"/><use xlink:href="#X" x="221.471" y="172.381"/><use xlink:href="#Y" x="230.724" y="172.381"/><use xlink:href="#Z" x="236.726" y="172.381"/><use xlink:href="#aa" x="239.475" y="172.381"/><use xlink:href="#ap" x="244.676" y="172.381"/><use xlink:href="#N" x="114.257" y="189.917" fill="red"/><use xlink:href="#ax" x="114.257" y="200.003"/><use xlink:href="#P" x="122.458" y="200.003"/><use xlink:href="#R" x="127.742" y="200.003"/><use xlink:href="#S" x="131.723" y="200.003"/><use xlink:href="#U" x="137.904" y="200.003"/><use xlink:href="#aj" x="143.905" y="200.003"/><use xlink:href="#Z" x="148.986" y="200.003"/><use xlink:href="#am" x="151.736" y="200.003"/><use xlink:href="#W" x="159.388" y="189.917" fill="red"/><use xlink:href="#ad" x="159.388" y="200.003"/><use xlink:href="#Z" x="163.871" y="200.003"/><use xlink:href="#an" x="166.621" y="200.003"/><use xlink:href="#ab" x="171.821" y="200.003"/><use xlink:href="#ac" x="178.97" y="189.917" fill="red"/><use xlink:href="#af" x="178.97" y="200.003"/><use xlink:href="#al" x="186.741" y="200.003"/><use xlink:href="#ak" x="192.599" y="200.003"/><use xlink:href="#aj" x="202.354" y="200.003"/><use xlink:href="#ad" x="207.435" y="200.003"/><use xlink:href="#ae" x="211.918" y="200.003"/><use xlink:href="#ay" x="216.15" y="200.003"/><use xlink:href="#Q" x="221.757" y="200.003"/><use xlink:href="#Z" x="227.758" y="200.003"/><use xlink:href="#am" x="230.508" y="200.003"/><use xlink:href="#N" x="238.16" y="189.917" fill="red"/><use xlink:href="#Y" x="238.16" y="200.003"/><use xlink:href="#P" x="244.161" y="200.003"/><use xlink:href="#O" x="253.666" y="200.003"/><use xlink:href="#Z" x="260.815" y="200.003"/><use xlink:href="#aa" x="263.564" y="200.003"/><use xlink:href="#X" x="268.765" y="200.003"/><use xlink:href="#Z" x="278.018" y="200.003"/><use xlink:href="#an" x="280.768" y="200.003"/><use xlink:href="#ab" x="285.968" y="200.003"/><use xlink:href="#Y" x="114.257" y="221.646"/><use xlink:href="#P" x="120.258" y="221.646"/><use xlink:href="#R" x="125.543" y="221.646"/><use xlink:href="#S" x="129.524" y="221.646"/><use xlink:href="#U" x="135.704" y="221.646"/><use xlink:href="#aj" x="141.706" y="221.646"/><use xlink:href="#Z" x="146.787" y="221.646"/><use xlink:href="#am" x="149.536" y="221.646"/><use xlink:href="#W" x="157.188" y="211.561" fill="red"/><use xlink:href="#ad" x="157.188" y="221.646"/><use xlink:href="#Z" x="161.671" y="221.646"/><use xlink:href="#an" x="164.421" y="221.646"/><use xlink:href="#ab" x="169.621" y="221.646"/><use xlink:href="#ac" x="176.77" y="211.561" fill="red"/><use xlink:href="#az" x="176.77" y="221.646"/><use xlink:href="#aA" x="182.449" y="221.646"/><use xlink:href="#aw" x="191.702" y="221.646"/><use xlink:href="#R" x="197.703" y="221.646"/><use xlink:href="#P" x="201.684" y="221.646"/><use xlink:href="#N" x="207.292" y="211.561" fill="red"/><use xlink:href="#ae" x="207.292" y="221.646"/><use xlink:href="#S" x="211.524" y="221.646"/><use xlink:href="#T" x="217.059" y="221.646"/><use xlink:href="#P" x="224.698" y="221.646"/><use xlink:href="#ao" x="230.305" y="221.646"/><use xlink:href="#X" x="239.403" y="221.646"/><use xlink:href="#Y" x="248.656" y="221.646"/><use xlink:href="#Z" x="254.658" y="221.646"/><use xlink:href="#aa" x="257.407" y="221.646"/><use xlink:href="#ab" x="262.608" y="221.646"/><use xlink:href="#ax" x="114.257" y="243.29"/><use xlink:href="#P" x="122.458" y="243.29"/><use xlink:href="#R" x="127.742" y="243.29"/><use xlink:href="#S" x="131.723" y="243.29"/><use xlink:href="#U" x="137.904" y="243.29"/><use xlink:href="#aj" x="143.905" y="243.29"/><use xlink:href="#Z" x="148.986" y="243.29"/><use xlink:href="#am" x="151.736" y="243.29"/><use xlink:href="#W" x="159.388" y="233.205" fill="red"/><use xlink:href="#ad" x="159.388" y="243.29"/><use xlink:href="#Z" x="163.871" y="243.29"/><use xlink:href="#an" x="166.621" y="243.29"/><use xlink:href="#ac" x="175.718" y="233.205" fill="red"/><use xlink:href="#Z" x="175.718" y="243.29"/><use xlink:href="#Y" x="182.365" y="243.29"/><use xlink:href="#Z" x="188.366" y="243.29"/><use xlink:href="#aa" x="191.116" y="243.29"/><use xlink:href="#aj" x="200.214" y="243.29"/><use xlink:href="#S" x="205.295" y="243.29"/><use xlink:href="#N" x="211.153" y="233.205" fill="red"/><use xlink:href="#ad" x="211.153" y="243.29"/><use xlink:href="#ae" x="215.636" y="243.29"/><use xlink:href="#P" x="219.868" y="243.29"/><use xlink:href="#T" x="225.152" y="243.29"/><use xlink:href="#Z" x="233.114" y="243.29"/><use xlink:href="#am" x="235.864" y="243.29"/><use xlink:href="#X" x="243.515" y="243.29"/><use xlink:href="#Y" x="252.768" y="243.29"/><use xlink:href="#Z" x="258.77" y="243.29"/><use xlink:href="#aa" x="261.519" y="243.29"/><use xlink:href="#ab" x="266.72" y="243.29"/><use xlink:href="#Z" x="114.257" y="264.934"/><use xlink:href="#Y" x="120.904" y="264.934"/><use xlink:href="#Z" x="126.905" y="264.934"/><use xlink:href="#aa" x="129.655" y="264.934"/><use xlink:href="#aj" x="138.753" y="264.934"/><use xlink:href="#S" x="143.834" y="264.934"/><use xlink:href="#W" x="149.692" y="254.848" fill="red"/><use xlink:href="#ad" x="149.692" y="264.934"/><use xlink:href="#ae" x="154.175" y="264.934"/><use xlink:href="#P" x="158.407" y="264.934"/><use xlink:href="#T" x="163.691" y="264.934"/><use xlink:href="#Z" x="171.653" y="264.934"/><use xlink:href="#am" x="174.403" y="264.934"/><use xlink:href="#X" x="182.054" y="264.934"/><use xlink:href="#Y" x="191.307" y="264.934"/><use xlink:href="#Z" x="197.309" y="264.934"/><use xlink:href="#aa" x="200.058" y="264.934"/><use xlink:href="#ap" x="205.259" y="264.934"/><use xlink:href="#ac" x="126.212" y="279.481" fill="red"/><use xlink:href="#aq" x="126.212" y="289.566"/><use xlink:href="#T" x="132.716" y="289.566"/><use xlink:href="#Z" x="140.678" y="289.566"/><use xlink:href="#aa" x="143.427" y="289.566"/><use xlink:href="#ao" x="148.628" y="289.566"/><use xlink:href="#ab" x="153.828" y="289.566"/><use xlink:href="#ak" x="160.977" y="289.566"/><use xlink:href="#T" x="166.835" y="289.566"/><use xlink:href="#Z" x="174.797" y="289.566"/><use xlink:href="#P" x="177.547" y="289.566"/><use xlink:href="#aj" x="183.154" y="289.566"/><use xlink:href="#U" x="188.235" y="289.566"/><use xlink:href="#aa" x="194.236" y="289.566"/><use xlink:href="#ar" x="199.436" y="289.566"/><use xlink:href="#aj" x="204.637" y="289.566"/><use xlink:href="#as" x="209.718" y="289.566"/><use xlink:href="#S" x="215.074" y="289.566"/><use xlink:href="#ab" x="220.931" y="289.566"/><use xlink:href="#X" x="228.081" y="289.566"/><use xlink:href="#P" x="237.334" y="289.566"/><use xlink:href="#at" x="242.942" y="279.481" fill="red"/><use xlink:href="#am" x="242.942" y="289.566"/><use xlink:href="#P" x="246.373" y="289.566"/><use xlink:href="#W" x="255.878" y="279.481" fill="red"/><use xlink:href="#au" x="255.878" y="289.566"/><use xlink:href="#T" x="260.361" y="289.566"/><use xlink:href="#Z" x="268.323" y="289.566"/><use xlink:href="#aa" x="271.073" y="289.566"/><use xlink:href="#ao" x="276.273" y="289.566"/><use xlink:href="#ab" x="281.474" y="289.566"/><use xlink:href="#at" x="126.212" y="301.124" fill="red"/><use xlink:href="#U" x="126.212" y="311.21"/><use xlink:href="#S" x="132.213" y="311.21"/><use xlink:href="#av" x="141.969" y="311.21"/><use xlink:href="#aa" x="147.456" y="311.21"/><use xlink:href="#aj" x="152.656" y="311.21"/><use xlink:href="#aw" x="157.737" y="311.21"/><use xlink:href="#ad" x="163.739" y="311.21"/><use xlink:href="#P" x="168.222" y="311.21"/><use xlink:href="#Q" x="177.726" y="311.21"/><use xlink:href="#R" x="183.405" y="311.21"/><use xlink:href="#S" x="187.386" y="311.21"/><use xlink:href="#W" x="193.245" y="301.124" fill="red"/><use xlink:href="#T" x="193.245" y="311.21"/><use xlink:href="#P" x="200.884" y="311.21"/><use xlink:href="#U" x="206.491" y="311.21"/><use xlink:href="#V" x="212.493" y="311.21"/><use xlink:href="#ac" x="221.471" y="301.124" fill="red"/><use xlink:href="#X" x="221.471" y="311.21"/><use xlink:href="#Y" x="230.724" y="311.21"/><use xlink:href="#Z" x="236.726" y="311.21"/><use xlink:href="#aa" x="239.475" y="311.21"/><use xlink:href="#ap" x="244.676" y="311.21"/><use xlink:href="#N" x="114.257" y="328.746" fill="red"/><use xlink:href="#aB" x="114.257" y="338.831"/><use xlink:href="#aj" x="121.741" y="338.831"/><use xlink:href="#aa" x="126.822" y="338.831"/><use xlink:href="#as" x="132.022" y="338.831"/><use xlink:href="#P" x="137.701" y="338.831"/><use xlink:href="#ah" x="143.308" y="338.831"/><use xlink:href="#ay" x="146.392" y="338.831"/><use xlink:href="#W" x="155.897" y="328.746" fill="red"/><use xlink:href="#ae" x="155.897" y="338.831"/><use xlink:href="#P" x="160.129" y="338.831"/><use xlink:href="#X" x="165.736" y="338.831"/><use xlink:href="#ac" x="178.886" y="328.746" fill="red"/><use xlink:href="#av" x="178.886" y="338.831"/><use xlink:href="#al" x="184.373" y="338.831"/><use xlink:href="#aj" x="190.231" y="338.831"/><use xlink:href="#aa" x="195.312" y="338.831"/><use xlink:href="#aC" x="200.513" y="338.831"/><use xlink:href="#Z" x="207.984" y="338.831"/><use xlink:href="#N" x="214.632" y="328.746" fill="red"/><use xlink:href="#aD" x="214.632" y="338.831"/><use xlink:href="#P" x="224.794" y="338.831"/><use xlink:href="#R" x="230.078" y="338.831"/><use xlink:href="#aA" x="234.059" y="338.831"/><use xlink:href="#ah" x="239.415" y="338.831"/><use xlink:href="#P" x="242.499" y="338.831"/><use xlink:href="#ap" x="248.106" y="338.831"/><use xlink:href="#aq" x="114.257" y="360.474"/><use xlink:href="#Q" x="120.761" y="360.474"/><use xlink:href="#Z" x="126.762" y="360.474"/><use xlink:href="#aa" x="129.512" y="360.474"/><use xlink:href="#T" x="134.712" y="360.474"/><use xlink:href="#P" x="142.351" y="360.474"/><use xlink:href="#ah" x="147.958" y="360.474"/><use xlink:href="#ay" x="151.043" y="360.474"/><use xlink:href="#W" x="160.547" y="350.389" fill="red"/><use xlink:href="#Y" x="160.547" y="360.474"/><use xlink:href="#P" x="166.548" y="360.474"/><use xlink:href="#X" x="172.155" y="360.474"/><use xlink:href="#ab" x="181.408" y="360.474"/><use xlink:href="#ac" x="188.558" y="350.389" fill="red"/><use xlink:href="#au" x="188.558" y="360.474"/><use xlink:href="#Q" x="193.041" y="360.474"/><use xlink:href="#Z" x="199.043" y="360.474"/><use xlink:href="#aa" x="201.792" y="360.474"/><use xlink:href="#T" x="206.993" y="360.474"/><use xlink:href="#P" x="214.632" y="360.474"/><use xlink:href="#ah" x="220.239" y="360.474"/><use xlink:href="#ay" x="223.323" y="360.474"/><use xlink:href="#N" x="232.828" y="350.389" fill="red"/><use xlink:href="#ak" x="232.828" y="360.474"/><use xlink:href="#ag" x="238.686" y="360.474"/><use xlink:href="#S" x="241.436" y="360.474"/><use xlink:href="#R" x="246.971" y="360.474"/><use xlink:href="#Z" x="250.952" y="360.474"/><use xlink:href="#P" x="253.701" y="360.474"/><use xlink:href="#ap" x="259.308" y="360.474"/><use xlink:href="#aE" x="114.257" y="382.118"/><use xlink:href="#S" x="121.263" y="382.118"/><use xlink:href="#ak" x="131.018" y="382.118"/><use xlink:href="#ag" x="136.876" y="382.118"/><use xlink:href="#S" x="139.626" y="382.118"/><use xlink:href="#R" x="145.161" y="382.118"/><use xlink:href="#Z" x="149.142" y="382.118"/><use xlink:href="#W" x="151.892" y="372.033" fill="red"/><use xlink:href="#P" x="151.892" y="382.118"/><use xlink:href="#ab" x="157.499" y="382.118"/><use xlink:href="#ac" x="164.648" y="372.033" fill="red"/><use xlink:href="#au" x="164.648" y="382.118"/><use xlink:href="#T" x="169.131" y="382.118"/><use xlink:href="#Z" x="177.093" y="382.118"/><use xlink:href="#an" x="179.843" y="382.118"/><use xlink:href="#ae" x="185.043" y="382.118"/><use xlink:href="#P" x="189.275" y="382.118"/><use xlink:href="#aF" x="198.78" y="382.118"/><use xlink:href="#Z" x="204.781" y="382.118"/><use xlink:href="#N" x="207.531" y="372.033" fill="red"/><use xlink:href="#ad" x="207.531" y="382.118"/><use xlink:href="#ae" x="212.014" y="382.118"/><use xlink:href="#S" x="216.246" y="382.118"/><use xlink:href="#R" x="221.781" y="382.118"/><use xlink:href="#Z" x="225.762" y="382.118"/><use xlink:href="#P" x="228.512" y="382.118"/><use xlink:href="#ab" x="234.119" y="382.118"/><use xlink:href="#au" x="114.257" y="403.762"/><use xlink:href="#T" x="118.74" y="403.762"/><use xlink:href="#Z" x="126.702" y="403.762"/><use xlink:href="#an" x="129.452" y="403.762"/><use xlink:href="#ae" x="134.652" y="403.762"/><use xlink:href="#P" x="138.884" y="403.762"/><use xlink:href="#aF" x="148.389" y="403.762"/><use xlink:href="#Z" x="154.39" y="403.762"/><use xlink:href="#W" x="157.14" y="393.676" fill="red"/><use xlink:href="#ad" x="157.14" y="403.762"/><use xlink:href="#ae" x="161.623" y="403.762"/><use xlink:href="#S" x="165.855" y="403.762"/><use xlink:href="#R" x="171.39" y="403.762"/><use xlink:href="#Z" x="175.371" y="403.762"/><use xlink:href="#P" x="178.121" y="403.762"/><use xlink:href="#ap" x="183.728" y="403.762"/><use xlink:href="#ac" x="126.212" y="418.309" fill="red"/><use xlink:href="#aq" x="126.212" y="428.394"/><use xlink:href="#T" x="132.716" y="428.394"/><use xlink:href="#Z" x="140.678" y="428.394"/><use xlink:href="#aa" x="143.427" y="428.394"/><use xlink:href="#ao" x="148.628" y="428.394"/><use xlink:href="#ab" x="153.828" y="428.394"/><use xlink:href="#ak" x="160.977" y="428.394"/><use xlink:href="#T" x="166.835" y="428.394"/><use xlink:href="#Z" x="174.797" y="428.394"/><use xlink:href="#P" x="177.547" y="428.394"/><use xlink:href="#aj" x="183.154" y="428.394"/><use xlink:href="#U" x="188.235" y="428.394"/><use xlink:href="#aa" x="194.236" y="428.394"/><use xlink:href="#ar" x="199.436" y="428.394"/><use xlink:href="#aj" x="204.637" y="428.394"/><use xlink:href="#as" x="209.718" y="428.394"/><use xlink:href="#S" x="215.074" y="428.394"/><use xlink:href="#ab" x="220.931" y="428.394"/><use xlink:href="#X" x="228.081" y="428.394"/><use xlink:href="#P" x="237.334" y="428.394"/><use xlink:href="#at" x="242.942" y="418.309" fill="red"/><use xlink:href="#am" x="242.942" y="428.394"/><use xlink:href="#P" x="246.373" y="428.394"/><use xlink:href="#W" x="255.878" y="418.309" fill="red"/><use xlink:href="#au" x="255.878" y="428.394"/><use xlink:href="#T" x="260.361" y="428.394"/><use xlink:href="#Z" x="268.323" y="428.394"/><use xlink:href="#aa" x="271.073" y="428.394"/><use xlink:href="#ao" x="276.273" y="428.394"/><use xlink:href="#ab" x="281.474" y="428.394"/><use xlink:href="#at" x="126.212" y="439.953" fill="red"/><use xlink:href="#U" x="126.212" y="450.038"/><use xlink:href="#S" x="132.213" y="450.038"/><use xlink:href="#av" x="141.969" y="450.038"/><use xlink:href="#aa" x="147.456" y="450.038"/><use xlink:href="#aj" x="152.656" y="450.038"/><use xlink:href="#aw" x="157.737" y="450.038"/><use xlink:href="#ad" x="163.739" y="450.038"/><use xlink:href="#P" x="168.222" y="450.038"/><use xlink:href="#Q" x="177.726" y="450.038"/><use xlink:href="#R" x="183.405" y="450.038"/><use xlink:href="#S" x="187.386" y="450.038"/><use xlink:href="#W" x="193.245" y="439.953" fill="red"/><use xlink:href="#T" x="193.245" y="450.038"/><use xlink:href="#P" x="200.884" y="450.038"/><use xlink:href="#U" x="206.491" y="450.038"/><use xlink:href="#V" x="212.493" y="450.038"/><use xlink:href="#ac" x="221.471" y="439.953" fill="red"/><use xlink:href="#X" x="221.471" y="450.038"/><use xlink:href="#Y" x="230.724" y="450.038"/><use xlink:href="#Z" x="236.726" y="450.038"/><use xlink:href="#aa" x="239.475" y="450.038"/><use xlink:href="#ap" x="244.676" y="450.038"/><use xlink:href="#O" x="114.257" y="469.166"/><use xlink:href="#P" x="121.406" y="469.166"/><use xlink:href="#Q" x="127.013" y="469.166"/><use xlink:href="#R" x="132.692" y="469.166"/><use xlink:href="#S" x="136.673" y="469.166"/><use xlink:href="#T" x="142.208" y="469.166"/><use xlink:href="#P" x="149.847" y="469.166"/><use xlink:href="#U" x="155.454" y="469.166"/><use xlink:href="#V" x="161.455" y="469.166"/><use xlink:href="#X" x="170.434" y="469.166"/><use xlink:href="#Y" x="179.687" y="469.166"/><use xlink:href="#Z" x="185.688" y="469.166"/><use xlink:href="#aa" x="188.438" y="469.166"/><use xlink:href="#ab" x="193.638" y="469.166"/><use xlink:href="#Q" x="200.787" y="469.166"/><use xlink:href="#R" x="206.466" y="469.166"/><use xlink:href="#S" x="210.447" y="469.166"/><use xlink:href="#ad" x="216.305" y="469.166"/><use xlink:href="#ae" x="220.788" y="469.166"/><use xlink:href="#S" x="225.02" y="469.166"/><use xlink:href="#U" x="234.775" y="469.166"/><use xlink:href="#S" x="240.777" y="469.166"/><use xlink:href="#af" x="250.532" y="469.166"/><use xlink:href="#aa" x="258.303" y="469.166"/><use xlink:href="#ae" x="263.503" y="469.166"/><use xlink:href="#ag" x="267.735" y="469.166"/><use xlink:href="#aa" x="270.485" y="469.166"/><use xlink:href="#ah" x="275.685" y="469.166"/><use xlink:href="#aa" x="278.77" y="469.166"/><use xlink:href="#X" x="283.97" y="469.166"/><use xlink:href="#ab" x="293.223" y="469.166"/><use xlink:href="#aj" x="114.257" y="482.317"/><use xlink:href="#P" x="119.338" y="482.317"/><use xlink:href="#Q" x="124.945" y="482.317"/><use xlink:href="#R" x="130.623" y="482.317"/><use xlink:href="#S" x="134.604" y="482.317"/><use xlink:href="#T" x="140.14" y="482.317"/><use xlink:href="#P" x="147.779" y="482.317"/><use xlink:href="#U" x="153.386" y="482.317"/><use xlink:href="#V" x="159.387" y="482.317"/><use xlink:href="#X" x="168.365" y="482.317"/><use xlink:href="#Y" x="177.618" y="482.317"/><use xlink:href="#Z" x="183.62" y="482.317"/><use xlink:href="#aa" x="186.37" y="482.317"/><use xlink:href="#ab" x="191.57" y="482.317"/><use xlink:href="#ak" x="198.719" y="482.317"/><use xlink:href="#U" x="204.577" y="482.317"/><use xlink:href="#aj" x="210.578" y="482.317"/><use xlink:href="#Z" x="215.659" y="482.317"/><use xlink:href="#aa" x="218.409" y="482.317"/><use xlink:href="#af" x="227.507" y="482.317"/><use xlink:href="#al" x="235.277" y="482.317"/><use xlink:href="#ak" x="241.135" y="482.317"/><use xlink:href="#Y" x="250.891" y="482.317"/><use xlink:href="#P" x="256.892" y="482.317"/><use xlink:href="#R" x="262.176" y="482.317"/><use xlink:href="#S" x="266.157" y="482.317"/><use xlink:href="#U" x="272.338" y="482.317"/><use xlink:href="#aj" x="278.339" y="482.317"/><use xlink:href="#Z" x="283.42" y="482.317"/><use xlink:href="#am" x="286.17" y="482.317"/><use xlink:href="#ad" x="293.821" y="482.317"/><use xlink:href="#Z" x="298.304" y="482.317"/><use xlink:href="#an" x="301.054" y="482.317"/><use xlink:href="#ab" x="306.254" y="482.317"/><use xlink:href="#O" x="114.257" y="495.467"/><use xlink:href="#P" x="121.406" y="495.467"/><use xlink:href="#Q" x="127.013" y="495.467"/><use xlink:href="#R" x="132.692" y="495.467"/><use xlink:href="#S" x="136.673" y="495.467"/><use xlink:href="#T" x="142.208" y="495.467"/><use xlink:href="#P" x="149.847" y="495.467"/><use xlink:href="#U" x="155.454" y="495.467"/><use xlink:href="#V" x="161.455" y="495.467"/><use xlink:href="#X" x="170.434" y="495.467"/><use xlink:href="#Y" x="179.687" y="495.467"/><use xlink:href="#Z" x="185.688" y="495.467"/><use xlink:href="#aa" x="188.438" y="495.467"/><use xlink:href="#ab" x="193.638" y="495.467"/><use xlink:href="#Y" x="200.787" y="495.467"/><use xlink:href="#Z" x="206.789" y="495.467"/><use xlink:href="#aa" x="209.538" y="495.467"/><use xlink:href="#X" x="218.636" y="495.467"/><use xlink:href="#S" x="227.889" y="495.467"/><use xlink:href="#ak" x="233.747" y="495.467"/><use xlink:href="#an" x="239.605" y="495.467"/><use xlink:href="#ad" x="248.703" y="495.467"/><use xlink:href="#Q" x="253.186" y="495.467"/><use xlink:href="#al" x="259.51" y="495.467"/><use xlink:href="#V" x="265.368" y="495.467"/><use xlink:href="#Y" x="270.449" y="495.467"/><use xlink:href="#Z" x="276.451" y="495.467"/><use xlink:href="#ao" x="279.2" y="495.467"/><use xlink:href="#ad" x="288.298" y="495.467"/><use xlink:href="#Z" x="292.781" y="495.467"/><use xlink:href="#an" x="295.531" y="495.467"/><use xlink:href="#ab" x="300.731" y="495.467"/><use xlink:href="#Y" x="114.257" y="508.618"/><use xlink:href="#Z" x="120.258" y="508.618"/><use xlink:href="#aa" x="123.008" y="508.618"/><use xlink:href="#X" x="132.106" y="508.618"/><use xlink:href="#S" x="141.359" y="508.618"/><use xlink:href="#ak" x="147.217" y="508.618"/><use xlink:href="#an" x="153.075" y="508.618"/><use xlink:href="#ad" x="162.173" y="508.618"/><use xlink:href="#Q" x="166.656" y="508.618"/><use xlink:href="#al" x="172.98" y="508.618"/><use xlink:href="#V" x="178.838" y="508.618"/><use xlink:href="#Y" x="183.919" y="508.618"/><use xlink:href="#Z" x="189.92" y="508.618"/><use xlink:href="#ao" x="192.67" y="508.618"/><use xlink:href="#ad" x="201.768" y="508.618"/><use xlink:href="#Z" x="206.251" y="508.618"/><use xlink:href="#an" x="209" y="508.618"/><use xlink:href="#ap" x="214.201" y="508.618"/><path fill="none" stroke="#000" stroke-miterlimit="10" stroke-width=".398" d="M17.008 545.152h153.637"/><use xlink:href="#aG" x="27.919" y="551.676"/><use xlink:href="#aH" x="31.354" y="554.569" fill="red"/><g fill="red"><use xlink:href="#aI" x="36.877" y="554.569"/><use xlink:href="#aJ" x="41.109" y="554.569"/><use xlink:href="#aK" x="43.46" y="554.569"/><use xlink:href="#aL" x="46.8" y="554.569"/><use xlink:href="#aM" x="51.271" y="554.569"/></g><g fill="red"><use xlink:href="#aN" x="58.444" y="554.569"/><use xlink:href="#aM" x="63.146" y="554.569"/><use xlink:href="#aK" x="67.378" y="554.569"/><use xlink:href="#aO" x="70.718" y="554.569"/><use xlink:href="#aI" x="74.009" y="554.569"/><use xlink:href="#aP" x="78.242" y="554.569"/><use xlink:href="#aM" x="81.541" y="554.569"/><use xlink:href="#aQ" x="85.773" y="554.569"/><use xlink:href="#aL" x="88.618" y="554.569"/><use xlink:href="#aM" x="93.09" y="554.569"/><use xlink:href="#aR" x="97.322" y="554.569"/></g><use xlink:href="#aS" x="102.622" y="554.569" fill="red"/><use xlink:href="#aN" x="109.325" y="554.569" fill="red"/><g fill="red"><use xlink:href="#aI" x="114.266" y="554.569"/><use xlink:href="#aQ" x="118.498" y="554.569"/><use xlink:href="#aI" x="121.343" y="554.569"/></g><g fill="red"><use xlink:href="#aT" x="125.344" y="554.569"/><use xlink:href="#aU" x="131.457" y="554.569"/></g><g fill="red"><use xlink:href="#aV" x="138.869" y="554.569"/><use xlink:href="#aW" x="145.213" y="554.569"/><use xlink:href="#aX" x="151.558" y="554.569"/></g><use xlink:href="#aX" x="154.849" y="554.569" fill="red"/><use xlink:href="#aX" x="158.141" y="554.569" fill="red"/><g fill="red"><use xlink:href="#aT" x="164.134" y="554.569"/><use xlink:href="#aY" x="170.247" y="554.569"/><use xlink:href="#aZ" x="172.598" y="554.569"/><use xlink:href="#aL" x="176.36" y="554.569"/><use xlink:href="#ba" x="180.831" y="554.569"/><use xlink:href="#bb" x="185.534" y="554.569"/></g><use xlink:href="#aH" x="190.834" y="554.569" fill="red"/><use xlink:href="#aI" x="196.365" y="554.569" fill="red"/><g fill="red"><use xlink:href="#aT" x="200.358" y="554.569"/><use xlink:href="#aK" x="206.471" y="554.569"/><use xlink:href="#aS" x="209.81" y="554.569"/><use xlink:href="#aZ" x="213.572" y="554.569"/><use xlink:href="#bc" x="217.334" y="554.569"/></g><g fill="red"><use xlink:href="#bd" x="220.857" y="554.569"/><use xlink:href="#be" x="225.559" y="554.569"/><use xlink:href="#aY" x="230.261" y="554.569"/><use xlink:href="#aZ" x="232.612" y="554.569"/></g><g fill="red"><use xlink:href="#bf" x="239.307" y="554.569"/><use xlink:href="#aN" x="242.647" y="554.569"/><use xlink:href="#aY" x="247.349" y="554.569"/><use xlink:href="#aZ" x="249.7" y="554.569"/><use xlink:href="#aT" x="253.462" y="554.569"/></g><g fill="red"><use xlink:href="#aM" x="259.344" y="554.569"/><use xlink:href="#be" x="263.576" y="554.569"/><use xlink:href="#aM" x="268.278" y="554.569"/></g><g fill="red"><use xlink:href="#aN" x="275.451" y="554.569"/><use xlink:href="#aP" x="280.153" y="554.569"/><use xlink:href="#aS" x="283.453" y="554.569"/><use xlink:href="#aZ" x="287.215" y="554.569"/><use xlink:href="#aS" x="290.977" y="554.569"/></g><g fill="red"><use xlink:href="#bg" x="297.68" y="554.569"/><use xlink:href="#aS" x="302.382" y="554.569"/><use xlink:href="#aY" x="306.144" y="554.569"/><use xlink:href="#aZ" x="308.495" y="554.569"/><use xlink:href="#bc" x="312.257" y="554.569"/><use xlink:href="#aY" x="316.018" y="554.569"/></g><use xlink:href="#aT" x="321.318" y="554.569" fill="red"/><g fill="red"><use xlink:href="#aI" x="330.372" y="554.569"/><use xlink:href="#aL" x="334.605" y="554.569"/><use xlink:href="#aP" x="339.076" y="554.569"/><use xlink:href="#aZ" x="342.375" y="554.569"/><use xlink:href="#aK" x="346.137" y="554.569"/><use xlink:href="#aY" x="349.477" y="554.569"/><use xlink:href="#aZ" x="351.828" y="554.569"/></g><g fill="red"><use xlink:href="#bh" x="358.538" y="554.569"/><use xlink:href="#aI" x="364.532" y="554.569"/><use xlink:href="#bi" x="368.764" y="554.569"/><use xlink:href="#aZ" x="372.526" y="554.569"/><use xlink:href="#bj" x="376.288" y="554.569"/><use xlink:href="#aI" x="380.52" y="554.569"/></g><g fill="red"><use xlink:href="#bk" x="387.693" y="554.569"/><use xlink:href="#aM" x="394.037" y="554.569"/><use xlink:href="#bl" x="398.269" y="554.569"/></g><g fill="red"><use xlink:href="#aP" x="17.008" y="564.033"/><use xlink:href="#aI" x="20.308" y="564.033"/></g><g fill="red"><use xlink:href="#bg" x="24.779" y="564.033"/><use xlink:href="#aS" x="29.481" y="564.033"/><use xlink:href="#aZ" x="33.243" y="564.033"/><use xlink:href="#be" x="37.005" y="564.033"/><use xlink:href="#aY" x="41.707" y="564.033"/><use xlink:href="#aM" x="44.058" y="564.033"/><use xlink:href="#bb" x="48.29" y="564.033"/></g><use xlink:href="#aH" x="53.463" y="564.033" fill="red"/><g fill="red"><use xlink:href="#aI" x="58.986" y="564.033"/><use xlink:href="#aN" x="63.218" y="564.033"/><use xlink:href="#ba" x="67.92" y="564.033"/><use xlink:href="#aJ" x="72.623" y="564.033"/><use xlink:href="#aM" x="74.974" y="564.033"/><use xlink:href="#aP" x="79.206" y="564.033"/><use xlink:href="#be" x="82.505" y="564.033"/><use xlink:href="#aI" x="87.208" y="564.033"/><use xlink:href="#bf" x="91.44" y="564.033"/><use xlink:href="#bm" x="94.779" y="564.033"/></g><g fill="red"><use xlink:href="#aS" x="101.362" y="564.033"/><use xlink:href="#aM" x="105.124" y="564.033"/></g><g fill="red"><use xlink:href="#aT" x="109.117" y="564.033"/><use xlink:href="#bg" x="115.23" y="564.033"/><use xlink:href="#aS" x="119.933" y="564.033"/><use xlink:href="#aY" x="123.694" y="564.033"/><use xlink:href="#bn" x="126.046" y="564.033"/><use xlink:href="#bc" x="129.807" y="564.033"/><use xlink:href="#aS" x="133.569" y="564.033"/><use xlink:href="#aM" x="137.331" y="564.033"/></g><g fill="red"><use xlink:href="#aS" x="144.385" y="564.033"/><use xlink:href="#aZ" x="148.146" y="564.033"/><use xlink:href="#aK" x="151.908" y="564.033"/><use xlink:href="#aN" x="155.248" y="564.033"/></g><g fill="red"><use xlink:href="#aI" x="160.189" y="564.033"/><use xlink:href="#aQ" x="164.421" y="564.033"/><use xlink:href="#aI" x="167.266" y="564.033"/></g><g fill="red"><use xlink:href="#aT" x="171.259" y="564.033"/><use xlink:href="#aY" x="177.372" y="564.033"/></g><g fill="red"><use xlink:href="#bg" x="182.545" y="564.033"/><use xlink:href="#aS" x="187.247" y="564.033"/><use xlink:href="#aY" x="191.009" y="564.033"/><use xlink:href="#aZ" x="193.36" y="564.033"/><use xlink:href="#bc" x="197.122" y="564.033"/><use xlink:href="#aY" x="200.884" y="564.033"/><use xlink:href="#bn" x="203.235" y="564.033"/><use xlink:href="#bc" x="206.997" y="564.033"/><use xlink:href="#aZ" x="210.759" y="564.033"/><use xlink:href="#bo" x="214.521" y="564.033"/></g><use xlink:href="#ba" x="221.335" y="564.033" fill="red"/><g fill="red"><use xlink:href="#bp" x="228.859" y="564.033"/><use xlink:href="#aP" x="235.203" y="564.033"/><use xlink:href="#aL" x="238.502" y="564.033"/><use xlink:href="#aM" x="242.973" y="564.033"/></g><g fill="red"><use xlink:href="#bk" x="250.027" y="564.033"/><use xlink:href="#aI" x="256.371" y="564.033"/></g><g fill="red"><use xlink:href="#aZ" x="260.842" y="564.033"/><use xlink:href="#bj" x="264.604" y="564.033"/><use xlink:href="#aI" x="268.836" y="564.033"/><use xlink:href="#bb" x="273.068" y="564.033"/></g><g clip-path="url(#bq)"><path fill="url(#br)" d="M15.023 579.684v-11.336h388.063v11.336Zm0 0"/></g><use xlink:href="#bs" x="17.008" y="577.985"/><use xlink:href="#bt" x="23.739" y="577.985"/><use xlink:href="#bu" x="30.469" y="577.985"/><use xlink:href="#bv" x="281.076" y="577.985"/><use xlink:href="#bw" x="286.739" y="577.985"/><use xlink:href="#bx" x="291.139" y="577.985"/><use xlink:href="#by" x="296.614" y="577.985"/><use xlink:href="#bz" x="300.157" y="577.985"/><use xlink:href="#bA" x="304.341" y="577.985"/><use xlink:href="#bB" x="310.13" y="577.985"/><use xlink:href="#bC" x="314.098" y="577.985"/><use xlink:href="#bB" x="318.066" y="577.985"/><use xlink:href="#bD" x="322.034" y="577.985"/><use xlink:href="#bE" x="328.687" y="577.985"/><use xlink:href="#bB" x="339.316" y="577.985"/><use xlink:href="#bF" x="343.284" y="577.985"/><use xlink:href="#bG" x="349.937" y="577.985"/><use xlink:href="#bB" x="355.503" y="577.985"/><use xlink:href="#bC" x="359.471" y="577.985"/><use xlink:href="#bB" x="363.439" y="577.985"/><use xlink:href="#bH" x="367.407" y="577.985"/><use xlink:href="#bE" x="374.06" y="577.985"/><use xlink:href="#bI" x="384.689" y="577.985"/><use xlink:href="#bJ" x="386.941" y="577.985"/><use xlink:href="#bB" x="390.91" y="577.985"/><use xlink:href="#bK" x="394.878" y="577.985"/><use xlink:href="#bL" x="398.846" y="577.985"/><path fill="#f2f2f2" stroke="#000" stroke-miterlimit="10" stroke-width=".797" d="M196.602 575.965v-3.988a2.99 2.99 0 0 1 2.988-2.989h18.93a2.99 2.99 0 0 1 2.988 2.989v3.988a2.99 2.99 0 0 1-2.988 2.988h-18.93a2.99 2.99 0 0 1-2.988-2.988Zm0 0"/><use xlink:href="#bM" x="198.439" y="576.948"/><use xlink:href="#bN" x="203.747" y="576.948"/><use xlink:href="#bO" x="209.055" y="576.948"/><use xlink:href="#bP" x="214.363" y="576.948"/></svg>