<svg xmlns="http://www.w3.org/2000/svg" xmlns:xlink="http://www.w3.org/1999/xlink" width="559.371" height="793.701" viewBox="0 0 419.528 595.276"><defs><path id="d" d="m1.672 0 .156-.766h-.766L.892 0Zm1.594 0 .156-.766h-.766L2.5 0Zm1.593 0 .157-.766H4.25L4.094 0Zm0 0"/><path id="e" d="M4.344 0 3.109-2.437l1.875-1.547h-.859L1.906-2.141l.86-4.078h-.672L.766 0h.656l.266-1.281.875-.703 1 1.984Zm0 0"/><path id="f" d="M4.75-1.969C5-3.14 4.313-4.14 3.172-4.14c-1.11 0-2.234.97-2.484 2.172C.438-.797 1.188.094 2.28.094 3.391.094 4.5-.812 4.75-1.97m-.719-.093C3.797-1.016 3.063-.516 2.406-.516c-.687 0-1.172-.53-.953-1.546.219-1.047.984-1.485 1.594-1.485.64 0 1.203.453.984 1.485m0 0"/><path id="g" d="m4.031 0 .563-2.656c.14-.672.125-1.422-.969-1.422-.703 0-1.219.406-1.484.672l.14-.625h-.687L.719 0h.75l.468-2.187c.125-.594.516-1.313 1.188-1.313.906 0 .766.64.719.906L3.28 0Zm0 0"/><path id="h" d="m3.125-.234-.047-.563c-.265.172-.61.281-.875.281-.36 0-.406-.312-.297-.78l.438-2.126H3.64l.125-.562H2.469l.234-1.141h-.656l-.25 1.14h-.781l-.125.563h.765l-.484 2.297c-.11.531-.14 1.219.516 1.219.39 0 .875-.078 1.437-.328m0 0"/><path id="i" d="M4.953-3.984H4.25C3.234-2.344 2.469-1.156 2.313-.531c.046-.406-.141-1.328-.188-1.594-.172-.922-.266-1.219-.406-1.86h-.75L1.922 0l-.5.797c-.344.5-.516.5-.64.5-.141 0-.454-.031-.688-.156l-.078.625c.015.015.328.078.64.078.235 0 .625 0 1.313-1.078Zm0 0"/><path id="j" d="m4.031 0 .844-3.984h-.75l-.547 2.593c-.156.72-.765.954-1.312.954-.641 0-.657-.204-.578-.579l.625-2.968h-.75l-.625 3C.766-.22 1.016.094 1.656.094c.516 0 1.235-.14 1.75-.531L3.312 0Zm0 0"/><path id="k" d="m3.781 0 .547-2.594c.188-.89-.312-1.547-1.203-1.547-.594 0-1.047.157-1.531.407l-.078.625C2.03-3.437 2.5-3.562 3-3.562s.719.39.594.984l-.094.375C1.953-2.172.86-1.766.703-1.047.625-.625.75.093 1.531.093c.172 0 .953-.015 1.61-.437L3.062 0Zm-.469-1.25c-.046.188-.093.406-.453.594-.265.14-.562.172-.75.172-.453 0-.78-.22-.703-.578.125-.625 1.89-.657 2-.657Zm0 0"/><path id="l" d="m3.906-.328.078-.64c-.5.296-1 .452-1.546.452-.766 0-1.126-.625-.954-1.484.157-.687.672-1.531 1.641-1.531.563 0 .828.11 1.203.422l.25-.625c-.437-.297-.687-.407-1.344-.407C1.97-4.14.97-3.062.75-1.984.516-.875 1.14.094 2.313.094c.624 0 1.124-.188 1.593-.422m0 0"/><path id="m" d="m1.594.531.968-4.515h-.718L.875.609c-.125.594-.672.625-.828.625a.8.8 0 0 1-.61-.28l-.328.577c.391.25.813.313 1.047.313.61 0 1.266-.485 1.438-1.313m1.203-5.578.172-.86h-.86l-.187.86Zm0 0"/><path id="n" d="m2.344-3.203.156-.781h-.766l-.171.78ZM1.656 0l.172-.766h-.781L.89 0Zm0 0"/><path id="o" d="M6.938-3.078c.406-1.906-.625-3.344-2.172-3.344-1.563 0-3.203 1.438-3.594 3.344-.406 1.86.64 3.281 2.187 3.281s3.188-1.422 3.579-3.281m-.829-.14C5.75-1.532 4.563-.439 3.484-.439c-1.062 0-1.796-1.093-1.437-2.78.36-1.641 1.562-2.594 2.594-2.594 1.015 0 1.812.953 1.468 2.593m0 0"/><path id="p" d="m3.734-3.437.157-.641c-.657 0-1.313.328-1.797.86l.172-.813h-.657L.75 0h.719l.39-1.906a1.98 1.98 0 0 1 1.875-1.531m0 0"/><path id="q" d="M4.25-1.969c.063-.281.188-.953-.047-1.5-.25-.562-.797-.672-1.14-.672-1.047 0-2.079.97-2.313 2.11C.5-.844 1.172.094 2.297.094c-.453.265-.781.625-.844 1.047-.078.39.125.765.719.765.297 0 .531-.062.937-.234l-.015-.531c-.219.093-.438.14-.625.14-.25-.031-.453-.078-.406-.343.078-.407.546-.72 1-.954.25-.078.515-.171.796-.328l.079-.61c-.657.391-1.204.47-1.516.47-.75 0-1.172-.657-1.016-1.485ZM3.828-2.5H1.563c.265-.562.812-1.047 1.375-1.047.328 0 .906.14.89 1.047m0 0"/><path id="r" d="m4.016 0 1.328-6.219h-.719l-.578 2.625c-.406-.422-.969-.484-1.25-.484-.906 0-1.813.937-2.047 2.094C.5-.828 1 .094 1.875.094c.266 0 .844-.063 1.484-.563L3.266 0ZM3.53-1.266c-.031.172-.031.188-.156.313-.312.328-.656.469-.984.469-.578 0-1.141-.422-.907-1.5C1.734-3.125 2.578-3.5 3.141-3.5c.406 0 .64.234.765.469Zm0 0"/><path id="s" d="m3.703 0 .125-.594H2.484c-.109 0-.218.016-.328.016h-.75L4.453-3.61l.063-.375H1.234l-.125.562h2.282L.344-.39.266 0Zm0 0"/><path id="t" d="m1.453 0 .844-3.984h-.719L.734 0ZM2.61-5.047l.188-.86h-.875l-.172.86Zm0 0"/><path id="u" d="M4.25-1.969c.063-.281.188-.953-.047-1.5-.25-.562-.797-.672-1.14-.672-1.047 0-2.079.97-2.313 2.11C.5-.844 1.172.094 2.297.094c.422 0 .969-.11 1.562-.438l.079-.61c-.657.391-1.204.47-1.516.47-.75 0-1.172-.657-1.016-1.485ZM3.828-2.5H1.563c.265-.562.812-1.047 1.375-1.047.328 0 .906.14.89 1.047m0 0"/><path id="v" d="M6.313-4.406c.203-.953-.516-1.813-1.797-1.813H2.203L.875 0h.86l.546-2.562h1.453c1.266 0 2.36-.86 2.579-1.844m-.782 0c-.156.718-.843 1.297-1.89 1.297H2.375l.547-2.578h1.265c1.032 0 1.485.562 1.344 1.28m0 0"/><path id="w" d="M3.563-1.156a.97.97 0 0 0-.25-.89c-.25-.267-.5-.329-1.032-.423-.312-.062-.75-.156-.656-.578.11-.515.75-.515.89-.515.657 0 .985.203 1.22.343l.25-.625c-.5-.25-.907-.297-1.282-.297-.203 0-1.515 0-1.765 1.188a.9.9 0 0 0 .187.797c.281.297.5.344 1.078.469.281.046.781.14.672.609C2.75-.5 2.031-.5 1.906-.5c-.531 0-1-.187-1.328-.453l-.25.656c.469.281 1 .39 1.453.39.594 0 1.563-.187 1.782-1.25m0 0"/><path id="x" d="m4.031 0 .563-2.656c.14-.672.125-1.422-.969-1.422-.5 0-1.047.234-1.453.64l.594-2.78h-.72L.72 0h.75l.468-2.187c.125-.594.516-1.313 1.188-1.313.906 0 .766.64.719.906L3.28 0Zm0 0"/><path id="y" d="m1.453 0 1.328-6.219h-.719L.734 0Zm0 0"/><path id="z" d="M9.953 0v-.516h-.312c-.657 0-.703-.062-.813-.218L5.61-5.047l2.844-2.406c.156-.14.266-.234 1.328-.234v-.516L8.5-8.172c-.36 0-1.297 0-1.594-.031v.515c.266 0 .547.016.86.141l-4.47 3.813v-3.953h1.267v-.516c-.344.031-1.625.031-2.047.031-.438 0-1.72 0-2.063-.031v.515H1.72v7.172H.453V0c.344-.031 1.625-.031 2.063-.031.422 0 1.703 0 2.047.031v-.516H3.297v-2.562L4.53-4.125l2.5 3.344c.016.031.063.094.063.14 0 .125-.578.125-.844.125V0c.39-.031 1.5-.031 1.953-.031.36 0 1.485 0 1.75.031m0 0"/><path id="ao" d="M13.61-7.687v-.516l-1.297.031c-.344 0-1.22 0-1.5-.031v.515c.14 0 1.187 0 1.187.172 0 0 0 .032-.047.141L9.938-2.047l-2.126-5.64h1.125v-.516c-.374.031-1.484.031-1.937.031-.375 0-1.531 0-1.828-.031v.515h1.016l.484 1.297-1.64 4.344-2.126-5.64h1.125v-.516c-.343.031-1.515.031-1.953.031-.375 0-1.515 0-1.812-.031v.515h1L4.109-.171c.079.203.11.281.375.281.266 0 .297-.078.375-.28l2.079-5.5 2.093 5.5c.063.202.094.28.36.28.234 0 .297-.046.375-.28L12.5-7.407c.094-.203.11-.282 1.11-.282m0 0"/><path id="aI" d="M6.14-2.14c0-.579-.296-1.72-2.14-2.047 1.047-.313 1.766-1.063 1.766-2 0-.907-.86-1.657-2.516-1.657-1.344 0-2.312.703-2.312 1.672 0 .61.468.797.765.797.36 0 .766-.234.766-.781 0-.282-.11-.688-.672-.766.5-.484 1.312-.484 1.375-.484 1.078 0 1.078.812 1.078 1.172s-.047.922-.437 1.406c-.313.406-.626.422-1.079.453-.14.016-.375.031-.421.047-.079.031-.079.125-.079.172 0 .203.079.203.313.203h.578c1.328 0 1.328 1.234 1.328 1.812 0 .532 0 1.813-1.281 1.813-.25 0-1.047-.047-1.625-.453.516-.11.703-.469.703-.828 0-.5-.344-.844-.844-.844s-.843.344-.843.844C.563-.5 1.75.14 3.234.14c1.97 0 2.907-1.078 2.907-2.282m0 0"/><path id="A" d="M5.953-1.703c0-.125-.11-.125-.14-.125-.125 0-.141.047-.172.219-.203.765-.422 1.484-.907 1.484-.328 0-.359-.312-.359-.562s.031-.36.156-.875l.266-1.079.422-1.671c.093-.344.093-.36.093-.407 0-.203-.156-.328-.359-.328-.281 0-.453.266-.5.531-.203-.437-.562-.765-1.094-.765-1.406 0-2.875 1.75-2.875 3.5 0 1.125.657 1.906 1.579 1.906.25 0 .843-.047 1.562-.89.094.5.516.89 1.078.89.422 0 .703-.266.89-.656.204-.422.36-1.172.36-1.172M4.313-3.97c0 .078-.016.14-.032.203l-.593 2.344c-.063.219-.063.234-.25.438-.516.656-1.016.859-1.344.859-.594 0-.766-.656-.766-1.125 0-.61.375-2.078.656-2.625.375-.703.907-1.14 1.391-1.14.766 0 .938.968.938 1.046m0 0"/><path id="Q" d="M7.656-6.953c.094-.344.047-.656-.14-.906-.282-.391-.985-.47-1.375-.47-.891 0-1.766.22-2.657.813-.718.485-1.218 1.282-1.421 2.079-.172.718-.235 1.453.156 1.984.406.531 1.094.781 1.844.781.593 0 1.25-.172 1.828-.531l-.25 1.14c-.125.516-.328.97-.578 1.47-.22.374-.5.75-.86 1.046-.469.39-1.031.656-1.578.656-.36 0-.719-.062-.922-.328-.11-.156-.11-.375-.11-.593.016-.157.016-.329-.062-.438a.34.34 0 0 0-.281-.125.75.75 0 0 0-.469.14.84.84 0 0 0-.265.407.98.98 0 0 0 .172.89c.28.391.812.485 1.359.485.984 0 1.984-.406 2.86-1.11.452-.359.78-.812 1.03-1.328.36-.718.61-1.468.797-2.234l.391-1.578-.672.156c-.156.344-.5.828-.687.969-.47.39-1 .547-1.532.547-.5 0-.89-.219-1.156-.563-.36-.484-.312-1.187-.14-1.86a3.62 3.62 0 0 1 1.265-1.952 2.5 2.5 0 0 1 1.547-.516c.297 0 .719.11.922.406.14.188.219.407.14.672-.046.219-.125.469-.328.64-.28.22-.546.25-.828.25l-.093.204c.187.031.468.11.53.11.36 0 .704-.188 1.016-.438.297-.25.47-.563.547-.875m0 0"/><path id="Y" d="M7.266-6.625c.109-.437.125-.844-.125-1.156-.328-.453-.953-.547-1.578-.547-.938 0-1.922.25-2.75.922-.547.406-.954.922-1.282 1.484A8 8 0 0 0 .688-3.75C.53-3.14.438-2.516.484-1.953c.047.5.157.953.438 1.312.39.532 1.047.813 1.797.813.812 0 1.719-.203 2.437-.781.235-.188.422-.422.578-.641l-.406-.562-.156.078c-.156.359-.36.734-.688 1-.406.312-.906.5-1.359.5-.531 0-.969-.25-1.234-.61-.282-.375-.407-.86-.438-1.344-.062-.593.031-1.234.188-1.859.172-.687.39-1.36.75-2.016.25-.468.578-.906 1.03-1.265a2.96 2.96 0 0 1 1.845-.625c.406 0 .812.11 1.03.406.22.297.204.656.11 1.063-.11.422-.312.875-.687 1.187-.297.234-.625.39-.969.39-.14 0-.328 0-.422-.124-.11-.14-.047-.36.047-.547.078-.172.156-.36.078-.5-.078-.094-.203-.125-.344-.125s-.296.016-.421.125a.8.8 0 0 0-.235.437c-.062.266-.047.516.094.688.25.328.703.406 1.156.406.531 0 1.125-.172 1.594-.562.5-.407.828-.953.969-1.516m0 0"/><path id="ai" d="m10.344-8.156-.172-.11-.375.422c-.14.14-.36.266-.563.266-.078 0-.25-.031-.359-.047a18 18 0 0 1-1.687-.36l.078-.327-.063-.047-.672.297a10 10 0 0 0-.718-.047c-.954 0-1.813.187-2.657.859-.531.438-1.015 1-1.172 1.61-.046.202-.078.406.032.546.093.094.172.172.328.172.125 0 .265-.094.375-.172a.63.63 0 0 0 .219-.36c.03-.124.015-.296.015-.421.016-.172.016-.312.078-.469.047-.187.375-.61.656-.843.563-.438 1.126-.563 1.72-.563a4.5 4.5 0 0 1 .921.094l-.86 3.172H3.704l-.25.343h1.938l-.282 1.047c-.125.422-.25.844-.484 1.25a3 3 0 0 1-.687.875c-.407.375-.97.672-1.47.672-.312 0-.609-.078-.78-.312a1.1 1.1 0 0 1-.188-.407c-.094-.437-.14-.453-.312-.453a.73.73 0 0 0-.438.14c-.125.11-.203.204-.234.345-.063.25-.032.5.125.672.234.328.609.484 1.062.484.969 0 2.031-.39 2.844-1.094.437-.375.672-.687.906-1.094.281-.5.469-1.015.61-1.546l.14-.579h1.469l.344-.343H6.28l.766-2.97c.156.063.937.329 1.422.47.156.062.344.109.5.109.25 0 .531-.219.703-.422Zm0 0"/><path id="am" d="M6.828-7.234c.063-.282.016-.578-.125-.75-.234-.328-.672-.407-1.125-.407-.719 0-1.406.094-2.062.625-.438.344-.766.829-.891 1.313-.11.469-.11.937.14 1.266.172.25.47.421.782.53l-.031.126a3.46 3.46 0 0 0-1.766.734C1.172-3.328.734-2.719.563-2.062.438-1.532.438-.984.734-.61c.204.265.516.437.829.562.406.14.859.188 1.328.188.89 0 1.797-.328 2.578-.953.11-.079.265-.297.39-.454l-.39-.578-.157.032c-.125.343-.312.656-.593.875-.469.375-1 .656-1.532.656-.562 0-1.14-.094-1.437-.5-.297-.39-.312-.922-.187-1.469.14-.547.453-1.062.921-1.437.344-.266.782-.407 1.157-.5.562-.125 1.109-.157 1.672-.157l.062-.312c-.406 0-.797-.032-1.172-.14-.25-.063-.5-.173-.656-.391-.219-.282-.266-.704-.172-1.125.14-.516.453-1.032.89-1.391.298-.25.688-.313 1.032-.313.281 0 .469.063.61.204a.5.5 0 0 1 .109.468c-.047.203-.157.328-.266.453-.078.094-.14.172-.187.282a.36.36 0 0 0 .03.234c.079.094.126.094.266.094s.422-.078.625-.266c.22-.234.282-.437.344-.687m0 0"/><path id="aq" d="M9.031-2.984c0-.141-.094-.25-.203-.297C7.156-3.891 6-5.828 6-7.47v-8.968c0-1.797-1.797-3.735-3.828-4.454-.031-.015-.063-.03-.11-.03a.324.324 0 0 0-.312.312c0 .14.094.25.203.297 1.656.609 2.828 2.406 2.828 3.875v8.968c0 1.75 1.438 3.578 3.172 4.485C6.22-2.094 4.781-.266 4.781 1.5v8.953c0 1.469-1.172 3.281-2.828 3.89a.31.31 0 0 0-.203.282c0 .172.156.313.313.313.046 0 .078-.016.109-.016C4.203 14.187 6 12.266 6 10.453V1.5C6-.14 7.156-2.094 8.828-2.703a.31.31 0 0 0 .203-.281m0 0"/><path id="as" d="M7.453-.172a.245.245 0 0 0 0-.344L4.984-2.984l2.47-2.485c.093-.093.093-.25 0-.328-.079-.094-.235-.094-.329 0L4.656-3.328 2.172-5.797c-.094-.094-.25-.094-.328 0-.094.078-.094.234 0 .328l2.468 2.485L1.845-.516a.245.245 0 0 0 0 .344c.078.094.234.094.328 0l2.484-2.484L7.125-.172c.094.094.25.094.328 0m0 0"/><path id="aF" d="M6.266-2.984c0-.094-.079-.188-.172-.188-1.11-.172-1.907-1.125-1.907-1.984v-4.328c0-1.016-1.296-1.938-2.78-2.172H1.39c-.11 0-.203.078-.203.187 0 .094.062.188.156.203 1.125.157 1.937 1.016 1.937 1.782v4.328c0 .937.86 1.781 1.985 2.172C4.14-2.594 3.28-1.75 3.28-.812V3.5c0 .766-.812 1.625-1.937 1.797a.186.186 0 0 0-.157.187c0 .11.094.188.204.188h.015c1.485-.219 2.782-1.14 2.782-2.172V-.812c0-.875.796-1.813 1.906-1.985.093-.015.172-.094.172-.187m0 0"/><path id="B" d="M7.969-4.125c0-2.531-1.719-4.422-3.657-4.422-1.984 0-3.671 1.922-3.671 4.422C.64-1.609 2.375.25 4.297.25c1.984 0 3.672-1.875 3.672-4.375m-1.032-.172C6.938-1.953 5.658-.5 4.313-.5c-1.39 0-2.64-1.5-2.64-3.797 0-2.203 1.297-3.516 2.625-3.516 1.375 0 2.64 1.344 2.64 3.516m0 0"/><path id="C" d="M2.14.703v-6.015h-.89v6.14c0 .781-.625.86-.875.86-.531 0-.86-.344-.875-.375l-.234.718c.375.235.859.406 1.406.406.75 0 1.469-.624 1.469-1.734m0-7.5v-1.016H1.11v1.016Zm0 0"/><path id="D" d="M4.797 0v-3.5c0-1.156-.828-1.984-1.938-1.984-.718 0-1.25.172-1.843.5l.078.78c.515-.374 1.062-.593 1.765-.593.547 0 1.032.453 1.032 1.313v.5c-.547.015-1.266.062-1.985.297C1.11-2.422.641-1.97.641-1.375c0 .531.312 1.5 1.328 1.5.656 0 1.5-.203 1.937-.562V0ZM3.89-1.61c0 .25 0 .532-.407.766-.312.203-.718.25-.906.25-.64 0-1.078-.343-1.078-.797 0-.812 1.656-.984 2.39-.984Zm0 0"/><path id="E" d="M5.469 0 3.25-3.266l1.969-2.046h-1.11L1.813-2.906v-5.39H.938V0h.828v-1.719l.906-.953L4.5 0Zm0 0"/><path id="F" d="M5.563-2.672c0-1.437-.75-2.75-1.875-2.75-.485 0-1.25.156-1.876.672v-.562H.939v7.625h.906V-.531c.406.36.906.656 1.547.656 1.156 0 2.172-1.172 2.172-2.797m-.907.016c0 1.203-.812 2.062-1.703 2.062-.328 0-.562-.125-.781-.297-.297-.25-.328-.468-.328-.656v-2.469a1.47 1.47 0 0 1 1.219-.671c.874 0 1.593.89 1.593 2.03m0 0"/><path id="G" d="M3.797-4.625v-.797c-1.078 0-1.719.64-2.047 1.11V-5.36H.938V0h.875v-2.625c0-1.203.906-1.984 1.984-2m0 0"/><path id="H" d="M4.703 0v-.734H2.984c-.14 0-.28.015-.421.015H1.547l3.11-4.125v-.468H.483v.703h2.953L.329-.484V0Zm0 0"/><path id="I" d="M4.86-2.687c0-.516-.048-1.25-.423-1.876-.5-.828-1.328-.921-1.671-.921C1.469-5.484.39-4.25.39-2.687.39-1.11 1.547.124 2.92.124c.563 0 1.22-.156 1.876-.64 0-.047-.047-.438-.047-.438s-.031-.281-.031-.328c-.703.593-1.407.687-1.766.687-.922 0-1.703-.828-1.734-2.093Zm-.704-.641h-2.86c.204-.813.767-1.438 1.47-1.438.359 0 1.187.157 1.39 1.438m0 0"/><path id="J" d="M5.063 0v-8.297h-.891v3.485a2.65 2.65 0 0 0-1.688-.61c-1.14 0-2.062 1.219-2.062 2.766S1.297.125 2.437.125c.438 0 1.11-.156 1.704-.734V0ZM4.14-1.406c-.282.515-.703.812-1.22.812-.733 0-1.593-.562-1.593-2.047 0-1.593 1.016-2.062 1.703-2.062.469 0 .86.234 1.11.625Zm0 0"/><path id="K" d="M1.813 0v-5.312H.938V0Zm.078-6.797v-1.016H.859v1.016Zm0 0"/><path id="L" d="M7.766-5.312H6.89l-.703 2.437c-.172.563-.516 1.688-.563 2.203-.047-.281-.234-1.078-.484-1.937l-.797-2.703H3.53L2.844-2.97c-.219.75-.5 1.781-.531 2.282h-.016c-.016-.235-.14-.86-.375-1.672l-.844-2.953H.172L1.766 0h.922c.453-1.5 1.156-3.781 1.218-4.61h.016c.015.485.265 1.344.344 1.626L5.109 0h1.063Zm0 0"/><path id="M" d="M5.063 0v-3.594c0-.734-.157-1.828-1.594-1.828-.672 0-1.25.297-1.703.875v-.812H.922V0h.906v-2.969c0-.75.281-1.734 1.188-1.734 1.109 0 1.14.766 1.14 1.187V0Zm0 0"/><path id="N" d="M5.172-5.312h-.89c-.548 1.421-1.47 3.765-1.516 4.625H2.75c-.062-.72-.687-2.282-.797-2.532L1.11-5.312H.172L2.39 0l-.422 1.094c-.266.593-.438.656-.657.656-.171 0-.546-.047-.921-.187l.078.78c.062.016.469.095.844.095.296 0 .843 0 1.359-1.313Zm0 0"/><path id="O" d="M5.484-2.625c0-1.625-1.187-2.86-2.562-2.86-1.406 0-2.563 1.266-2.563 2.86 0 1.563 1.188 2.75 2.563 2.75 1.406 0 2.562-1.219 2.562-2.75m-.906-.125c0 1.469-.844 2.125-1.656 2.125-.86 0-1.656-.719-1.656-2.125 0-1.453.89-2.016 1.656-2.016.812 0 1.656.625 1.656 2.016m0 0"/><path id="P" d="M5.063 0v-5.312h-.907v3.421c0 .907-.625 1.36-1.406 1.36-.844 0-.922-.313-.922-.844v-3.937H.922v3.984c0 .86.265 1.453 1.25 1.453.344 0 1.281-.062 2.015-.719V0Zm0 0"/><path id="R" d="M8.328 0v-3.594c0-.828-.219-1.828-1.61-1.828-1.015 0-1.577.703-1.765.969-.203-.766-.86-.969-1.484-.969-.985 0-1.5.625-1.703.875v-.812H.922V0h.906v-2.969c0-.797.313-1.734 1.188-1.734 1.093 0 1.156.75 1.156 1.187V0h.906v-2.969c0-.797.313-1.734 1.188-1.734 1.093 0 1.156.75 1.156 1.187V0Zm0 0"/><path id="S" d="m3.688-5.36-.485-.515-.828.719v-3.14H1.5v3.874L.328-3.375l.453.547.719-.656V0h.875v-4.234Zm0 0"/><path id="T" d="M4.203-1.516c0-.609-.36-1-.406-1.046-.453-.47-.813-.532-1.531-.672-.438-.094-1.047-.203-1.047-.813 0-.734.843-.734 1-.734.625 0 1.125.14 1.656.437l.14-.765a3.9 3.9 0 0 0-1.687-.375c-.265 0-1.937 0-1.937 1.547 0 .53.297.89.468 1.062.438.36.735.422 1.438.563.39.093 1.078.234 1.078.859 0 .828-.922.828-1.094.828A3.12 3.12 0 0 1 .47-1.219l-.14.813c.046.031.859.531 1.968.531 1.547 0 1.906-.937 1.906-1.64m-.312-6.78h-.922l-1.547 2h.719Zm0 0"/><path id="U" d="M4.86-.5c0-.031-.032-.406-.048-.453l-.015-.344a2.8 2.8 0 0 1-1.828.672c-1 0-1.64-.875-1.64-2.047 0-.984.484-2.078 1.671-2.078.797 0 1.14.203 1.656.547l.14-.781c-.702-.407-1.093-.5-1.796-.5-1.656 0-2.578 1.453-2.578 2.812C.422-1.14 1.516.125 2.953.125c.578 0 1.25-.156 1.906-.625M4.5-8.297h-.922l-1.547 2h.719Zm0 0"/><path id="V" d="M7.547-7.484v-.75H.422v.75H2c.14 0 .281-.016.422-.016h1.062V0H4.5v-7.5h1.063c.14 0 .28.016.421.016Zm0 0"/><path id="W" d="M4.203-1.516c0-.609-.36-1-.406-1.046-.453-.47-.813-.532-1.531-.672-.438-.094-1.047-.203-1.047-.813 0-.734.843-.734 1-.734.625 0 1.125.14 1.656.437l.14-.765a3.9 3.9 0 0 0-1.687-.375c-.265 0-1.937 0-1.937 1.547 0 .53.297.89.468 1.062.438.36.735.422 1.438.563.39.093 1.078.234 1.078.859 0 .828-.922.828-1.094.828A3.12 3.12 0 0 1 .47-1.219l-.14.813c.046.031.859.531 1.968.531 1.547 0 1.906-.937 1.906-1.64m0 0"/><path id="X" d="M2.11-.016v-.953h-.97V0h.298L1.14 1.5h.468Zm0 0"/><path id="Z" d="M4.86-2.687c0-.516-.048-1.25-.423-1.876-.5-.828-1.328-.921-1.671-.921C1.469-5.484.39-4.25.39-2.687.39-1.141 1.5.078 2.844.124c-.531.344-.875.828-.828 1.39 0 .516.375 1.016 1.172 1.016.39 0 .703-.062 1.171-.297l-.156-.703c-.266.11-.547.172-.812.172-.328-.031-.625-.094-.625-.453-.016-.531.5-.969 1.047-1.281.328-.094.64-.25.984-.485 0-.046-.047-.437-.047-.437s-.031-.281-.031-.328c-.703.593-1.407.687-1.766.687-.922 0-1.703-.828-1.734-2.093Zm-.704-.641h-2.86c.204-.813.767-1.438 1.47-1.438.359 0 1.187.157 1.39 1.438m0 0"/><path id="aa" d="m3.89-.344-.171-.703c-.422.375-.86.422-1.078.422-.532 0-.594-.562-.594-.984v-3h1.64v-.703h-1.64v-1.516h-.828v1.516h-1v.703h.969v3.203c0 .703.156 1.531.984 1.531.797 0 1.36-.281 1.719-.469m0 0"/><path id="ab" d="M4.86-.5c0-.031-.032-.406-.048-.453l-.015-.344a2.8 2.8 0 0 1-1.828.672c-1 0-1.64-.875-1.64-2.047 0-.984.484-2.078 1.671-2.078.797 0 1.14.203 1.656.547l.14-.781c-.702-.407-1.093-.5-1.796-.5-1.656 0-2.578 1.453-2.578 2.812C.422-1.14 1.516.125 2.953.125c.578 0 1.25-.156 1.906-.625m0 0"/><path id="ac" d="M2.11-4.344v-.968h-.97v.968ZM2.11 0v-.969h-.97V0Zm0 0"/><path id="ad" d="M5.563-2.672c0-1.469-.782-2.75-1.891-2.75-.344 0-1.11.063-1.86.672v-3.547H.939V0h.906v-.531c.547.515 1.125.656 1.547.656 1.14 0 2.172-1.172 2.172-2.797m-.907 0c0 1.563-.968 2.078-1.703 2.078-.328 0-.562-.125-.781-.297-.281-.25-.328-.453-.328-.656V-4.03c.218-.328.64-.672 1.234-.672.719 0 1.578.547 1.578 2.031m0 0"/><path id="ae" d="M1.813 0v-8.297H.938V0Zm0 0"/><path id="af" d="M5.844-2.266c0-.765-.375-1.328-.625-1.625-.563-.593-1-.718-1.797-.921-.813-.204-1.11-.266-1.375-.516-.156-.172-.485-.469-.485-1 0-.734.657-1.438 1.72-1.438 1.015 0 1.546.391 1.984.766l.172-.953c-.485-.266-1.094-.594-2.157-.594-1.594 0-2.64 1.14-2.64 2.344 0 .844.515 1.39.578 1.453.593.61 1 .703 1.75.906 1.031.25 1.187.297 1.578.688.203.219.375.594.375 1.015 0 .829-.672 1.594-1.703 1.594a3.75 3.75 0 0 1-2.516-1l-.172.969A4.9 4.9 0 0 0 3.22.25C4.75.25 5.844-.937 5.844-2.266m0 0"/><path id="ag" d="M2.344-8.297h-.969l.094 6.235h.781Zm0 8.297v-.969h-.969V0Zm0 0"/><path id="ah" d="M7.11-2.25c0-1.047-1.032-1.89-2.266-2.094 1.39-.375 1.937-1.172 1.937-1.875 0-1.078-1.218-2.078-2.906-2.078H1.109V0h3.094C5.875 0 7.11-1.078 7.11-2.25M5.86-6.203c0 .844-1.032 1.531-2.298 1.531H2.079v-2.953h1.469c1.281 0 2.312.625 2.312 1.422m.312 3.937c0 .844-.969 1.594-2.313 1.594H2.08v-3.281h1.593c1.547 0 2.5.86 2.5 1.687m0 0"/><path id="aj" d="m5.672-4.703-.125-.719c-.234 0-1.047 0-1.828.39-.39-.327-.875-.39-1.11-.39-1.046 0-1.875.875-1.875 1.922 0 .422.125.828.391 1.188a1.64 1.64 0 0 0-.344 1.015c0 .453.156.75.297.906C.468 0 .328.516.328.844c0 .875 1.125 1.61 2.594 1.61 1.453 0 2.594-.704 2.594-1.61 0-1.688-1.938-1.688-2.422-1.688H2.078c-.172 0-.672 0-.672-.625 0-.265.047-.343.11-.437.203.14.593.343 1.078.343 1.031 0 1.875-.859 1.875-1.937a2.13 2.13 0 0 0-.36-1.156 7 7 0 0 1 .954-.063c.046 0 .312 0 .609.016M3.64-3.5c0 1.063-.672 1.281-1.032 1.281-.53 0-1.062-.36-1.062-1.265 0-1.063.672-1.282 1.047-1.282.531 0 1.047.36 1.047 1.266M4.688.844c0 .562-.829.953-1.766.953-.922 0-1.766-.375-1.766-.953 0-.047 0-.813.907-.813h1.046c.266 0 1.579 0 1.579.813m0 0"/><path id="ak" d="M5.063 0v-3.594c0-.734-.157-1.828-1.594-1.828-.828 0-1.375.469-1.656.813v-3.688H.922V0h.906v-2.969c0-.75.281-1.734 1.188-1.734 1.109 0 1.14.766 1.14 1.187V0Zm0 0"/><path id="al" d="M7.406 0 4.391-8.297H3.328L.328 0h.875l.875-2.422h3.375L6.328 0ZM5.203-3.094h-2.86l1.423-4.344Zm0 0"/><path id="an" d="m6.875-.531-.078-.844c-.313.234-.672.484-1.063.61-.375.124-.78.14-1.187.14-.766 0-1.469-.422-1.938-1.031-.546-.703-.796-1.594-.796-2.485 0-.906.25-1.796.796-2.5.47-.609 1.172-1.03 1.938-1.03.36 0 .719.03 1.062.14.344.125.672.297.97.515l.171-1a5.6 5.6 0 0 0-1.078-.312 5.6 5.6 0 0 0-1.125-.094c-1.031 0-1.984.469-2.656 1.25C1.14-6.344.78-5.266.78-4.14c0 1.094.36 2.188 1.11 3.016.672.766 1.625 1.25 2.656 1.25.406 0 .812-.016 1.219-.125.406-.125.765-.328 1.109-.531m0 0"/><path id="ap" d="m5.219 2.234-.157-.703c-.265.11-.546.172-.812.172-.328-.031-.61-.094-.625-.453C3.609.719 4.109.313 4.656 0h.14v-3.5c0-1.156-.827-1.984-1.937-1.984-.718 0-1.25.172-1.843.5l.078.78c.515-.374 1.062-.593 1.765-.593.547 0 1.032.453 1.032 1.313v.5c-.547.015-1.266.062-1.985.297C1.11-2.422.641-1.97.641-1.375c0 .531.312 1.5 1.328 1.5.656 0 1.5-.203 1.937-.562V0c-.594.328-1.078.906-1.031 1.516 0 .515.375 1.015 1.172 1.015.406 0 .703-.062 1.172-.297M3.89-1.609c0 .25 0 .53-.407.765-.312.203-.718.25-.906.25-.64 0-1.078-.343-1.078-.797 0-.812 1.656-.984 2.39-.984Zm0 0"/><path id="at" d="M5.484-2.625c0-1.625-1.187-2.86-2.562-2.86-1.406 0-2.563 1.266-2.563 2.86 0 1.563 1.188 2.75 2.563 2.75 1.406 0 2.562-1.219 2.562-2.75m-.906-.125c0 1.469-.844 2.125-1.656 2.125-.86 0-1.656-.719-1.656-2.125 0-1.453.89-2.016 1.656-2.016.812 0 1.656.625 1.656 2.016m-.016-5.547h-.906l-1.547 2h.72Zm0 0"/><path id="au" d="M6.469 0v-.812H4.906c-.156 0-.297.015-.437.015h-2.36v-3.14h3.86v-.72h-3.86V-7.53h1.625c.141 0 .282.015.422.015h2.157v-.75H1.077V0Zm0 0"/><path id="av" d="M2.11 0v-8.297H1.077V0Zm0 0"/><path id="aw" d="M4.703 0v-.734H2.984c-.14 0-.28.015-.421.015H1.547l3.11-4.125v-.468H.483v.703h2.953L.329-.484V0ZM3.047-6.797v-1.016H2.016v1.016Zm0 0"/><path id="ax" d="M10.813-8.297h-.876L8.845-4.375c-.266.938-.266.969-.485 1.766-.14.578-.328 1.265-.375 1.703H7.97c-.063-.5-.313-1.531-.516-2.25l-1.422-5.14H5.016L4-4.595c-.094.297-.812 2.89-.89 3.672h-.016c-.047-.469-.344-1.625-.39-1.828l-.517-1.906-1-3.64H.173L2.516 0H3.5l1.125-4.062c.297-1.063.75-2.704.828-3.344h.016s.078.625.64 2.672L7.406 0H8.47Zm0 0"/><path id="ay" d="M5.844-2.266c0-.765-.375-1.328-.625-1.625-.563-.593-1-.718-1.797-.921-.813-.204-1.11-.266-1.375-.516-.156-.172-.485-.469-.485-1 0-.734.657-1.438 1.72-1.438 1.015 0 1.546.391 1.984.766l.172-.953c-.485-.266-1.094-.594-2.157-.594-1.594 0-2.64 1.14-2.64 2.344 0 .844.515 1.39.578 1.453.593.61 1 .703 1.75.906 1.031.25 1.187.297 1.578.688.203.219.375.594.375 1.015 0 .829-.672 1.594-1.703 1.594a3.75 3.75 0 0 1-2.516-1l-.172.969A4.9 4.9 0 0 0 3.22.25C4.75.25 5.844-.937 5.844-2.266m-.328-8.093H4.203L2.11-8.906h1.063Zm0 0"/><path id="az" d="M5.344-7.344v-.968h-.969v.968ZM5.312 0v-5.312h-.89V0ZM3.438-4.61v-.702h-1.39v-1.454c0-.718.375-.937.703-.937.266 0 .531.094.688.219v-.813c-.235-.094-.313-.125-.688-.125-.89 0-1.562.86-1.562 2.016v1.093H.313v.704h.875V0h.875v-4.61Zm0 0"/><path id="aA" d="M7.547 0 4.28-5.016l3.125-3.28H6.281L2.094-3.892v-4.406h-1V0h1v-2.703L3.64-4.328 6.453 0Zm0 0"/><path id="aB" d="M2.11 0v-.969h-.97V0Zm0 0"/><path id="aC" d="M6.797-5.875c0-1.266-1.172-2.422-2.797-2.422H1.094V0h1.015v-3.453H4c1.656 0 2.797-1.188 2.797-2.422m-.953-.016c0 .938-.735 1.75-2.094 1.75H2.094v-3.484H3.75c1.406 0 2.094.828 2.094 1.734m0 0"/><path id="aD" d="M7.094 0v-8.297h-.907V-.89h-.015l-.969-2-2.64-5.406h-1.47V0h.923v-7.406l.968 2L5.625 0Zm0 0"/><path id="aE" d="M5.063 0v-3.594c0-.734-.157-1.828-1.594-1.828-.672 0-1.25.297-1.703.875v-.812H.922V0h.906v-2.969c0-.75.281-1.734 1.188-1.734 1.109 0 1.14.766 1.14 1.187V0ZM4.64-8.297h-.907l-1.562 2h.719Zm0 0"/><path id="ar" d="m5.266 0 .156-.812H3.297c-.14 0-.281.015-.422.015H1.594A77 77 0 0 1 4.25-2.922c1.047-.765 1.953-1.515 2.188-2.61.28-1.327-.375-2.546-1.954-2.546-1.296 0-2.125.844-2.687 1.953.266.484.266.5.344.656.578-1.281 1.14-1.875 2.03-1.875 1.032 0 1.516.813 1.298 1.828-.125.625-.516 1.313-1.485 2.11L.734-.75.578 0Zm0 0"/><path id="aJ" d="M4.563 0v-.437H3.266v-5.157c0-.187 0-.297-.266-.297-.11 0-.125 0-.203.063-.688.516-1.656.516-1.828.516H.797v.437h.172a4.2 4.2 0 0 0 1.203-.172v4.61H.89V0c.343-.031 1.422-.031 1.828-.031.422 0 1.484 0 1.844.031m0 0"/><path id="aK" d="M4.86-2.953c0-.469-.032-1.39-.485-2.094-.297-.437-.828-.844-1.719-.844-1.281 0-2.218.72-2.218 1.938 0 1.125.765 1.937 2.093 1.937.406 0 .781-.203 1.063-.687v.172c0 .578-.063 1.156-.235 1.531-.109.234-.468.703-1.171.703-.079 0-.454 0-.735-.187a.55.55 0 0 0 .422-.563c0-.375-.281-.578-.578-.578-.25 0-.594.14-.594.594 0 .61.469 1.14 1.5 1.14 1.25 0 2.656-.796 2.656-3.062m-1.266-.89c0 .406-.172 1.452-1.031 1.452-.86 0-.86-.656-.86-1.53 0-.876 0-1.61.984-1.61.563 0 .766.515.797.593.11.297.11.782.11 1.094m0 0"/><path id="aL" d="M4.766-2.016h-.453c-.016.125-.094.766-.235.829-.11.046-.781.046-.937.046H1.859c.485-.39 1.016-.812 1.47-1.125.75-.53 1.437-1.015 1.437-1.89 0-1.047-.953-1.735-2.25-1.735-1.11 0-1.985.532-1.985 1.36 0 .468.36.687.672.687a.65.65 0 0 0 .656-.672c0-.203-.078-.53-.468-.64.312-.25.718-.282.89-.282.735 0 1.203.547 1.203 1.282 0 .656-.375 1.234-.859 1.718l-2 1.985c-.094.094-.094.11-.094.281V0H4.5Zm0 0"/><path id="aM" d="M3.516-1.266H3.28c-.015.157-.094.563-.187.625-.047.047-.578.047-.688.047H1.125c.734-.64.984-.843 1.39-1.172.516-.406 1-.843 1-1.5 0-.843-.734-1.359-1.624-1.359-.86 0-1.453.61-1.453 1.25 0 .344.296.39.375.39.156 0 .359-.124.359-.374 0-.125-.047-.375-.406-.375.218-.485.687-.641 1.015-.641.703 0 1.063.547 1.063 1.11 0 .609-.438 1.078-.656 1.328L.516-.266C.437-.203.437-.187.437 0h2.876Zm0 0"/><path id="aN" d="M3.688-1.14v-.25h-.782V-4.5c0-.14 0-.203-.14-.203-.094 0-.125 0-.188.11L.266-1.392v.25h2.062v.563c0 .25 0 .328-.578.328h-.187V0l1.046-.031L3.672 0v-.25h-.188c-.578 0-.578-.078-.578-.328v-.563Zm-1.313-.25H.531l1.844-2.548Zm0 0"/><path id="aO" d="M3.797-4.484H1.969c-.282 0-.36-.016-.61-.032C1-4.546.984-4.594.97-4.703H.734L.484-3.22H.72c.015-.11.094-.562.203-.64.047-.032.625-.032.719-.032h1.515l-.719.922c-.906 1.188-1 2.297-1 2.703 0 .079 0 .407.329.407.343 0 .343-.313.343-.407v-.28c0-1.345.282-1.97.579-2.345l1.046-1.312c.063-.094.063-.11.063-.281m0 0"/><path id="aP" d="M2.016 1.734v-.328h-.72V-4.89h.72v-.328H.953v6.953Zm0 0"/><path id="aQ" d="M3.297 0v-.25H3.03c-.703 0-.703-.094-.703-.328v-3.86c0-.187 0-.187-.203-.187-.453.438-1.078.438-1.36.438v.25c.157 0 .626 0 1-.188v3.547c0 .234 0 .328-.687.328H.812V0l1.235-.031Zm0 0"/><path id="aR" d="M3.578-1.203c0-.547-.437-1.094-1.203-1.25.719-.266.984-.781.984-1.219 0-.547-.625-.953-1.406-.953-.766 0-1.36.375-1.36.938 0 .234.157.359.36.359.219 0 .36-.156.36-.344 0-.203-.141-.36-.36-.375.25-.297.719-.375.985-.375.312 0 .75.156.75.75 0 .297-.094.625-.282.828-.219.266-.422.281-.765.313-.172.015-.188.015-.22.015 0 0-.077.016-.077.094 0 .094.062.094.187.094h.375c.547 0 .938.375.938 1.125 0 .86-.516 1.125-.906 1.125-.282 0-.907-.078-1.188-.5.328 0 .406-.235.406-.39 0-.22-.172-.376-.39-.376a.38.38 0 0 0-.391.407C.375-.281 1.094.14 1.938.14c.968 0 1.64-.657 1.64-1.344m0 0"/><path id="aS" d="M1.297 1.734v-6.953H.219v.328h.734v6.297H.22v.328Zm0 0"/><path id="aT" d="M7.813-1.75v-.203H.109v.203Zm0 0"/><path id="aU" d="M3.578-2.297c0-1.719-.765-2.328-1.578-2.328a1.55 1.55 0 0 0-1.11.422c-.234.234-.515.5-.515 1.125 0 .89.703 1.547 1.516 1.547.562 0 .859-.375 1.015-.688v.14c0 1.735-.844 2-1.265 2-.157 0-.532-.015-.72-.233a.315.315 0 0 0 .313-.329.32.32 0 0 0-.328-.328c-.203 0-.328.14-.328.344 0 .469.39.766 1.063.766 1 0 1.937-.938 1.937-2.438M2.891-3c0 .906-.516 1.266-.953 1.266-.282 0-.532-.079-.735-.407-.156-.25-.156-.546-.156-.937 0-.406 0-.672.203-.953.172-.25.39-.39.75-.39s.578.218.688.405c.187.282.203.782.203 1.016m0 0"/><path id="aV" d="M2.516 0v-.25h-.172c-.578 0-.578-.078-.578-.328v-3.61c0-.234 0-.328.578-.328h.172v-.25l-1.078.032-1.079-.032v.25h.172c.578 0 .578.094.578.329v3.609c0 .25 0 .328-.578.328H.36V0l1.079-.031Zm0 0"/><path id="aW" d="M3.594-2.219c0-.765-.094-1.328-.406-1.812-.22-.313-.657-.594-1.204-.594C.36-4.625.36-2.719.36-2.219s0 2.36 1.625 2.36c1.61 0 1.61-1.86 1.61-2.36m-.625-.094c0 .516 0 1.032-.094 1.47-.14.64-.61.78-.89.78-.329 0-.75-.187-.891-.75C1-1.219 1-1.796 1-2.312c0-.515 0-1.046.094-1.421.156-.547.593-.703.89-.703.375 0 .735.234.86.64.11.375.125.875.125 1.485m0 0"/><path id="aX" d="M3.578-1.422c0-.89-.703-1.547-1.515-1.547-.563 0-.86.375-1.016.688 0-.563.047-1.078.312-1.516.235-.375.61-.625 1.063-.625.203 0 .484.047.625.234-.172.016-.328.141-.328.344a.32.32 0 0 0 .328.328c.219 0 .344-.14.344-.343 0-.407-.297-.766-.985-.766-1 0-2.031.922-2.031 2.422C.375-.406 1.219.14 2 .14c.844 0 1.578-.657 1.578-1.563m-.672 0c0 .39 0 .688-.187.969A.82.82 0 0 1 2-.078c-.36 0-.625-.203-.781-.516-.094-.203-.157-.562-.157-.968 0-.688.407-1.204.97-1.204.312 0 .53.125.702.375.172.266.172.563.172.97m0 0"/><path id="aY" d="M5.547 0v-.25h-.125c-.469 0-.516-.078-.594-.266L3.125-4.812c-.031-.11-.062-.157-.187-.157-.141 0-.157.047-.204.157L1.125-.734C1.063-.562.938-.25.313-.25V0c.234-.016.484-.031.718-.031.282 0 .797.031.844.031v-.25c-.312 0-.516-.14-.516-.328 0-.063.016-.078.047-.14l.328-.86H3.72l.406 1.016c0 .03.031.078.031.109 0 .203-.375.203-.562.203V0l1.031-.031c.328 0 .86.031.922.031M3.609-1.828H1.83l.89-2.266Zm0 0"/><path id="aZ" d="M4.047 0v-.25c-.469 0-.516-.047-.516-.39v-4.204l-1.047.078v.25c.47 0 .516.063.516.391v1.453a1.37 1.37 0 0 0-.969-.406c-.937 0-1.703.703-1.703 1.578S1.062.063 1.938.063c.578 0 .921-.297 1.03-.422v.422ZM2.969-.734c-.172.328-.531.609-.985.609-.39 0-.671-.234-.812-.437-.14-.204-.219-.485-.219-.922 0-.172 0-.688.281-1.016.282-.312.625-.375.829-.375.328 0 .64.156.828.406.078.11.078.11.078.25Zm0 0"/><path id="ba" d="M5.469-2.75V-3c-.188.016-.313.031-.5.031-.219 0-.485-.015-.688-.031v.25c.235 0 .36.14.36.297 0 .062 0 .078-.047.172L3.922-.547l-.75-1.906a.3.3 0 0 1-.031-.125c0-.156.172-.172.375-.172V-3c-.25.016-.5.031-.75.031-.203 0-.422-.015-.625-.031v.25c.172 0 .312 0 .406.047.094.078.156.312.156.312s-.015.063-.031.079L2.016-.641l-.703-1.812c-.032-.094-.032-.094-.032-.125 0-.172.25-.172.375-.172V-3s-.515.031-.797.031C.641-2.969.422-2.984.203-3v.25c.281 0 .438 0 .5.203l.969 2.453c.047.11.062.157.203.157.125 0 .14-.047.172-.141l.797-1.984.765 1.968c.047.094.063.157.204.157.124 0 .14-.047.187-.157l.875-2.234c.14-.344.375-.422.594-.422m0 0"/><path id="bb" d="M3.266-.844c0-.015-.016-.094-.125-.094-.094 0-.11.047-.125.11-.22.562-.75.672-1 .672-.328 0-.641-.14-.844-.406-.266-.329-.266-.75-.266-1.032h2.157c.156 0 .203 0 .203-.14 0-.625-.344-1.375-1.391-1.375a1.59 1.59 0 0 0-1.61 1.578c0 .89.782 1.594 1.704 1.594.937 0 1.297-.75 1.297-.907m-.485-.922H.906c.078-.984.703-1.14.969-1.14.86 0 .89.969.906 1.14m0 0"/><path id="bc" d="M4.11 0v-.25c-.454 0-.516 0-.516-.297v-1.562c0-.61-.297-.97-1.047-.97-.578 0-.938.313-1.14.688v-.687L.374-3v.25c.469 0 .531.047.531.39v1.813c0 .297-.078.297-.531.297V0s.5-.031.797-.031c.25 0 .734.031.797.031v-.25c-.453 0-.516 0-.516-.297v-1.265c0-.72.578-1.063 1.031-1.063.485 0 .547.375.547.734v1.594c0 .297-.062.297-.515.297V0s.5-.031.797-.031c.25 0 .734.031.796.031m0 0"/><path id="bd" d="M2.61-.875v-.39h-.235v.374c0 .485-.219.735-.5.735-.469 0-.469-.578-.469-.703V-2.75h1.078V-3H1.406v-1.281h-.25c0 .625-.281 1.312-.953 1.328v.203h.64v1.875c0 .781.595.938.985.938.469 0 .781-.391.781-.938m0 0"/><path id="be" d="M3.516-1.406c0-.782-.594-1.5-1.453-1.5-.313 0-.672.062-.985.328v-1.313c.36.094.563.094.672.094.922 0 1.469-.625 1.469-.734 0-.078-.047-.094-.078-.094 0 0-.032 0-.063.016-.172.062-.531.203-1.047.203-.203 0-.562-.016-1.015-.188-.079-.031-.094-.031-.094-.031-.094 0-.094.078-.094.188v2.046c0 .125 0 .204.11.204.062 0 .078 0 .14-.094.297-.375.734-.438.969-.438.422 0 .61.328.64.39.126.235.172.5.172.907 0 .203 0 .61-.218.922a.98.98 0 0 1-.813.422c-.453 0-.922-.25-1.094-.719.266.016.407-.156.407-.344 0-.296-.266-.343-.36-.343 0 0-.343 0-.343.375 0 .625.578 1.25 1.406 1.25.89 0 1.672-.657 1.672-1.547m0 0"/><clipPath id="b"><path d="M.535.266h6.883v9.636H.535Zm0 0"/></clipPath><clipPath id="a"><path d="M0 0h8v10H0z"/></clipPath><clipPath id="aG"><path d="M15.023 568.348H403v11.336H15.023Zm0 0"/></clipPath><linearGradient id="aH" x1="0" x2="388.063" y1="0" y2="0" gradientTransform="matrix(1 0 0 -1 15.024 579.685)" gradientUnits="userSpaceOnUse"><stop offset="0" stop-color="#ffc299"/><stop offset=".25" stop-color="#ffc299"/><stop offset=".313" stop-color="#ffc299"/><stop offset=".344" stop-color="#ffc299"/><stop offset=".352" stop-color="#ffc299"/><stop offset=".355" stop-color="#ffbe93"/><stop offset=".359" stop-color="#ffbb8d"/><stop offset=".363" stop-color="#ffb27e"/><stop offset=".367" stop-color="#ffa96f"/><stop offset=".371" stop-color="#ffa060"/><stop offset=".375" stop-color="#ff9651"/><stop offset=".379" stop-color="#ff8d42"/><stop offset=".383" stop-color="#ff8433"/><stop offset=".387" stop-color="#ff7b24"/><stop offset=".391" stop-color="#ff7214"/><stop offset=".395" stop-color="#ff6c0a"/><stop offset=".398" stop-color="#f60"/><stop offset=".406" stop-color="#f60"/><stop offset=".438" stop-color="#f60"/><stop offset=".5" stop-color="#f60"/><stop offset=".563" stop-color="#f60"/><stop offset=".566" stop-color="#ff6d0b"/><stop offset=".57" stop-color="#ff7316"/><stop offset=".574" stop-color="#ff7d26"/><stop offset=".578" stop-color="#ff8635"/><stop offset=".582" stop-color="#ff8f44"/><stop offset=".586" stop-color="#ff9853"/><stop offset=".59" stop-color="#ffa162"/><stop offset=".594" stop-color="#ffaa71"/><stop offset=".598" stop-color="#ffb380"/><stop offset=".602" stop-color="#ffbc8f"/><stop offset=".605" stop-color="#ffbf94"/><stop offset=".609" stop-color="#ffc299"/><stop offset=".625" stop-color="#ffc299"/><stop offset=".75" stop-color="#ffc299"/><stop offset="1" stop-color="#ffc299"/></linearGradient><g id="c" clip-path="url(#a)"><g clip-path="url(#b)"><path fill-rule="evenodd" d="m3.977 7.836 3.441 2.066V1.645c0-.762-.617-1.38-1.375-1.38H1.914C1.152.266.535.884.535 1.646v8.257Zm-2.754.851 2.754-1.652L6.73 8.687V1.646a.69.69 0 0 0-.687-.692H1.914a.69.69 0 0 0-.691.692Zm0 0"/></g></g></defs><use xlink:href="#c" transform="translate(9 27)"/><use xlink:href="#d" x="34.941" y="34.908"/><use xlink:href="#e" x="43.773" y="34.908"/><use xlink:href="#f" x="48.013" y="34.908"/><use xlink:href="#g" x="52.622" y="34.908"/><use xlink:href="#h" x="57.383" y="34.908"/><use xlink:href="#i" x="60.449" y="34.908"/><use xlink:href="#g" x="64.699" y="34.908"/><use xlink:href="#j" x="69.46" y="34.908"/><use xlink:href="#k" x="74.221" y="34.908"/><use xlink:href="#l" x="78.65" y="34.908"/><use xlink:href="#m" x="82.748" y="34.908"/><use xlink:href="#k" x="85.204" y="34.908"/><use xlink:href="#n" x="89.634" y="34.908"/><use xlink:href="#o" x="95.273" y="34.908"/><use xlink:href="#p" x="102.078" y="34.908"/><use xlink:href="#q" x="105.225" y="34.908"/><use xlink:href="#r" x="109.323" y="34.908"/><use xlink:href="#s" x="114.084" y="34.908"/><use xlink:href="#t" x="118.092" y="34.908"/><use xlink:href="#u" x="120.288" y="34.908"/><use xlink:href="#v" x="127.461" y="34.908"/><use xlink:href="#k" x="133.092" y="34.908"/><use xlink:href="#w" x="137.521" y="34.908"/><use xlink:href="#l" x="141.054" y="34.908"/><use xlink:href="#x" x="145.151" y="34.908"/><use xlink:href="#k" x="149.912" y="34.908"/><use xlink:href="#y" x="154.341" y="34.908"/><use xlink:href="#g" x="156.538" y="34.908"/><use xlink:href="#u" x="161.299" y="34.908"/><path fill="none" stroke="#000" stroke-miterlimit="10" stroke-width=".398" d="M17.008 39.293h384.094"/><use xlink:href="#z" x="29.56" y="59.1"/><use xlink:href="#A" x="46.07" y="49.015" fill="red"/><use xlink:href="#B" x="46.07" y="59.1"/><use xlink:href="#C" x="58.599" y="59.1"/><use xlink:href="#D" x="61.683" y="59.1"/><use xlink:href="#E" x="67.29" y="59.1"/><use xlink:href="#F" x="76.866" y="59.1"/><use xlink:href="#G" x="82.545" y="59.1"/><use xlink:href="#H" x="86.526" y="59.1"/><use xlink:href="#I" x="91.607" y="59.1"/><use xlink:href="#J" x="96.807" y="59.1"/><use xlink:href="#H" x="102.808" y="59.1"/><use xlink:href="#K" x="107.889" y="59.1"/><use xlink:href="#L" x="110.639" y="59.1"/><use xlink:href="#M" x="118.601" y="59.1"/><use xlink:href="#D" x="124.602" y="59.1"/><use xlink:href="#L" x="134.107" y="59.1"/><use xlink:href="#N" x="142.069" y="59.1"/><use xlink:href="#G" x="147.425" y="59.1"/><use xlink:href="#O" x="151.406" y="59.1"/><use xlink:href="#H" x="157.263" y="59.1"/><use xlink:href="#P" x="162.344" y="59.1"/><use xlink:href="#Q" x="168.348" y="49.015" fill="red"/><use xlink:href="#R" x="168.348" y="59.1"/><use xlink:href="#K" x="177.601" y="59.1"/><use xlink:href="#D" x="180.351" y="59.1"/><use xlink:href="#S" x="185.958" y="59.1"/><use xlink:href="#O" x="189.389" y="59.1"/><use xlink:href="#T" x="195.247" y="59.1"/><use xlink:href="#U" x="199.73" y="59.1"/><use xlink:href="#V" x="208.828" y="59.1"/><use xlink:href="#L" x="215.833" y="59.1"/><use xlink:href="#I" x="223.473" y="59.1"/><use xlink:href="#C" x="228.673" y="59.1"/><use xlink:href="#J" x="235.655" y="59.1"/><use xlink:href="#D" x="241.656" y="59.1"/><use xlink:href="#G" x="246.94" y="59.1"/><use xlink:href="#R" x="250.921" y="59.1"/><use xlink:href="#O" x="260.174" y="59.1"/><use xlink:href="#L" x="265.71" y="59.1"/><use xlink:href="#I" x="273.349" y="59.1"/><use xlink:href="#C" x="278.549" y="59.1"/><use xlink:href="#A" x="285.532" y="49.015" fill="red"/><use xlink:href="#S" x="285.532" y="59.1"/><use xlink:href="#D" x="288.963" y="59.1"/><use xlink:href="#W" x="294.57" y="59.1"/><use xlink:href="#E" x="299.053" y="59.1"/><use xlink:href="#K" x="304.732" y="59.1"/><use xlink:href="#X" x="307.481" y="59.1"/><use xlink:href="#C" x="46.07" y="78.235"/><use xlink:href="#D" x="49.154" y="78.235"/><use xlink:href="#E" x="54.761" y="78.235"/><use xlink:href="#M" x="64.337" y="78.235"/><use xlink:href="#K" x="70.339" y="78.235"/><use xlink:href="#I" x="73.088" y="78.235"/><use xlink:href="#F" x="78.289" y="78.235"/><use xlink:href="#O" x="84.613" y="78.235"/><use xlink:href="#Y" x="90.472" y="68.15" fill="red"/><use xlink:href="#C" x="90.472" y="78.235"/><use xlink:href="#Z" x="93.556" y="78.235"/><use xlink:href="#aa" x="98.757" y="78.235"/><use xlink:href="#D" x="102.989" y="78.235"/><use xlink:href="#ab" x="112.493" y="78.235"/><use xlink:href="#H" x="117.694" y="78.235"/><use xlink:href="#P" x="122.774" y="78.235"/><use xlink:href="#S" x="128.776" y="78.235"/><use xlink:href="#O" x="132.207" y="78.235"/><use xlink:href="#T" x="138.065" y="78.235"/><use xlink:href="#U" x="142.548" y="78.235"/><use xlink:href="#V" x="151.646" y="78.235"/><use xlink:href="#L" x="158.651" y="78.235"/><use xlink:href="#I" x="166.291" y="78.235"/><use xlink:href="#C" x="171.491" y="78.235"/><use xlink:href="#R" x="178.473" y="78.235"/><use xlink:href="#K" x="187.726" y="78.235"/><use xlink:href="#A" x="190.477" y="68.15" fill="red"/><use xlink:href="#S" x="190.477" y="78.235"/><use xlink:href="#O" x="193.908" y="78.235"/><use xlink:href="#T" x="199.766" y="78.235"/><use xlink:href="#ab" x="204.249" y="78.235"/><use xlink:href="#K" x="209.45" y="78.235"/><use xlink:href="#ac" x="212.199" y="78.235"/><use xlink:href="#ad" x="46.07" y="97.371"/><use xlink:href="#N" x="51.749" y="97.371"/><use xlink:href="#L" x="61.002" y="97.371"/><use xlink:href="#N" x="68.964" y="97.371"/><use xlink:href="#H" x="74.32" y="97.371"/><use xlink:href="#L" x="79.401" y="97.371"/><use xlink:href="#O" x="87.04" y="97.371"/><use xlink:href="#ae" x="92.898" y="97.371"/><use xlink:href="#K" x="95.647" y="97.371"/><use xlink:href="#U" x="98.397" y="97.371"/><use xlink:href="#M" x="107.495" y="97.371"/><use xlink:href="#K" x="113.496" y="97.371"/><use xlink:href="#I" x="116.246" y="97.371"/><use xlink:href="#L" x="121.446" y="97.371"/><use xlink:href="#O" x="129.086" y="97.371"/><use xlink:href="#ae" x="134.943" y="97.371"/><use xlink:href="#Q" x="137.695" y="87.286" fill="red"/><use xlink:href="#M" x="137.695" y="97.371"/><use xlink:href="#K" x="143.696" y="97.371"/><use xlink:href="#E" x="146.446" y="97.371"/><use xlink:href="#D" x="152.125" y="97.371"/><use xlink:href="#X" x="157.732" y="97.371"/><use xlink:href="#F" x="164.881" y="97.371"/><use xlink:href="#O" x="171.205" y="97.371"/><use xlink:href="#T" x="177.063" y="97.371"/><use xlink:href="#L" x="181.546" y="97.371"/><use xlink:href="#K" x="189.508" y="97.371"/><use xlink:href="#Z" x="192.258" y="97.371"/><use xlink:href="#ab" x="197.458" y="97.371"/><use xlink:href="#K" x="202.658" y="97.371"/><use xlink:href="#S" x="205.408" y="97.371"/><use xlink:href="#I" x="208.839" y="97.371"/><use xlink:href="#T" x="214.04" y="97.371"/><use xlink:href="#A" x="222.421" y="87.286" fill="red"/><use xlink:href="#af" x="222.421" y="97.371"/><use xlink:href="#N" x="228.925" y="97.371"/><use xlink:href="#M" x="234.28" y="97.371"/><use xlink:href="#D" x="240.282" y="97.371"/><use xlink:href="#ag" x="245.889" y="97.371"/><use xlink:href="#ah" x="46.07" y="116.506"/><use xlink:href="#I" x="53.841" y="116.506"/><use xlink:href="#H" x="59.041" y="116.506"/><use xlink:href="#ai" x="68.02" y="106.421" fill="red"/><use xlink:href="#aj" x="68.02" y="116.506"/><use xlink:href="#G" x="73.878" y="116.506"/><use xlink:href="#H" x="77.859" y="116.506"/><use xlink:href="#I" x="82.94" y="116.506"/><use xlink:href="#ab" x="88.14" y="116.506"/><use xlink:href="#ak" x="93.341" y="116.506"/><use xlink:href="#P" x="99.342" y="116.506"/><use xlink:href="#al" x="109.241" y="116.506"/><use xlink:href="#am" x="116.977" y="106.421" fill="red"/><use xlink:href="#J" x="116.977" y="116.506"/><use xlink:href="#D" x="122.978" y="116.506"/><use xlink:href="#R" x="128.585" y="116.506"/><use xlink:href="#D" x="137.838" y="116.506"/><use xlink:href="#ai" x="147.343" y="106.421" fill="red"/><use xlink:href="#an" x="147.343" y="116.506"/><use xlink:href="#ak" x="154.827" y="116.506"/><use xlink:href="#G" x="160.828" y="116.506"/><use xlink:href="#N" x="164.809" y="116.506"/><use xlink:href="#W" x="170.165" y="116.506"/><use xlink:href="#aa" x="174.648" y="116.506"/><use xlink:href="#P" x="178.88" y="116.506"/><use xlink:href="#W" x="184.882" y="116.506"/><use xlink:href="#ad" x="193.262" y="116.506"/><use xlink:href="#N" x="198.941" y="116.506"/><use xlink:href="#M" x="208.194" y="116.506"/><use xlink:href="#D" x="214.195" y="116.506"/><use xlink:href="#W" x="219.802" y="116.506"/><use xlink:href="#M" x="228.183" y="116.506"/><use xlink:href="#K" x="234.184" y="116.506"/><use xlink:href="#I" x="236.934" y="116.506"/><use xlink:href="#O" x="246.032" y="116.506"/><use xlink:href="#J" x="252.212" y="116.506"/><use xlink:href="#am" x="258.215" y="106.421" fill="red"/><use xlink:href="#E" x="258.215" y="116.506"/><use xlink:href="#P" x="263.894" y="116.506"/><use xlink:href="#F" x="269.895" y="116.506"/><use xlink:href="#K" x="275.896" y="116.506"/><use xlink:href="#S" x="278.646" y="116.506"/><use xlink:href="#ag" x="282.4" y="116.506"/><use xlink:href="#ao" x="26.201" y="135.642"/><use xlink:href="#A" x="46.07" y="125.556" fill="red"/><use xlink:href="#af" x="46.07" y="135.642"/><use xlink:href="#H" x="52.574" y="135.642"/><use xlink:href="#ab" x="57.654" y="135.642"/><use xlink:href="#H" x="62.855" y="135.642"/><use xlink:href="#Z" x="67.936" y="135.642"/><use xlink:href="#T" x="73.136" y="135.642"/><use xlink:href="#ae" x="77.619" y="135.642"/><use xlink:href="#K" x="80.369" y="135.642"/><use xlink:href="#L" x="83.119" y="135.642"/><use xlink:href="#D" x="90.758" y="135.642"/><use xlink:href="#L" x="100.262" y="135.642"/><use xlink:href="#K" x="108.224" y="135.642"/><use xlink:href="#M" x="110.974" y="135.642"/><use xlink:href="#D" x="116.975" y="135.642"/><use xlink:href="#X" x="122.582" y="135.642"/><use xlink:href="#W" x="129.731" y="135.642"/><use xlink:href="#E" x="134.214" y="135.642"/><use xlink:href="#O" x="139.57" y="135.642"/><use xlink:href="#G" x="145.105" y="135.642"/><use xlink:href="#O" x="149.086" y="135.642"/><use xlink:href="#C" x="158.842" y="135.642"/><use xlink:href="#ap" x="161.926" y="135.642"/><use xlink:href="#H" x="171.43" y="135.642"/><use xlink:href="#aj" x="176.511" y="135.642"/><use xlink:href="#S" x="182.369" y="135.642"/><use xlink:href="#D" x="185.8" y="135.642"/><use xlink:href="#J" x="191.407" y="135.642"/><use xlink:href="#H" x="197.408" y="135.642"/><use xlink:href="#K" x="202.489" y="135.642"/><use xlink:href="#S" x="205.239" y="135.642"/><use xlink:href="#aa" x="212.89" y="135.642"/><use xlink:href="#D" x="217.122" y="135.642"/><use xlink:href="#E" x="222.729" y="135.642"/><use xlink:href="#L" x="232.305" y="135.642"/><use xlink:href="#K" x="240.267" y="135.642"/><use xlink:href="#I" x="243.017" y="135.642"/><use xlink:href="#ae" x="248.217" y="135.642"/><use xlink:href="#E" x="250.967" y="135.642"/><use xlink:href="#K" x="256.645" y="135.642"/><use xlink:href="#B" x="263.292" y="135.642"/><use xlink:href="#J" x="271.924" y="135.642"/><use xlink:href="#E" x="277.925" y="135.642"/><use xlink:href="#P" x="283.604" y="135.642"/><use xlink:href="#Q" x="289.609" y="125.556" fill="red"/><use xlink:href="#F" x="289.609" y="135.642"/><use xlink:href="#K" x="295.61" y="135.642"/><use xlink:href="#ab" x="298.36" y="135.642"/><use xlink:href="#K" x="303.56" y="135.642"/><use xlink:href="#I" x="306.31" y="135.642"/><use xlink:href="#ae" x="311.511" y="135.642"/><use xlink:href="#X" x="314.26" y="135.642"/><use xlink:href="#W" x="46.07" y="154.777"/><use xlink:href="#H" x="50.553" y="154.777"/><use xlink:href="#ab" x="55.634" y="154.777"/><use xlink:href="#H" x="60.834" y="154.777"/><use xlink:href="#Z" x="65.915" y="154.777"/><use xlink:href="#T" x="71.116" y="154.777"/><use xlink:href="#ae" x="75.599" y="154.777"/><use xlink:href="#K" x="78.349" y="154.777"/><use xlink:href="#L" x="81.098" y="154.777"/><use xlink:href="#D" x="88.737" y="154.777"/><use xlink:href="#A" x="98.243" y="144.692" fill="red"/><use xlink:href="#L" x="98.243" y="154.777"/><use xlink:href="#K" x="106.205" y="154.777"/><use xlink:href="#M" x="108.955" y="154.777"/><use xlink:href="#D" x="114.956" y="154.777"/><use xlink:href="#ag" x="120.563" y="154.777"/><use xlink:href="#aq" x="323.49" y="142.142"/><use xlink:href="#ar" x="336.266" y="142.142"/><use xlink:href="#as" x="342.124" y="142.142"/><use xlink:href="#z" x="29.56" y="173.912"/><use xlink:href="#A" x="46.07" y="163.827" fill="red"/><use xlink:href="#B" x="46.07" y="173.912"/><use xlink:href="#M" x="58.599" y="173.912"/><use xlink:href="#O" x="64.6" y="173.912"/><use xlink:href="#ab" x="70.781" y="173.912"/><use xlink:href="#N" x="75.981" y="173.912"/><use xlink:href="#X" x="80.357" y="173.912"/><use xlink:href="#H" x="87.506" y="173.912"/><use xlink:href="#D" x="92.587" y="173.912"/><use xlink:href="#K" x="98.194" y="173.912"/><use xlink:href="#W" x="100.943" y="173.912"/><use xlink:href="#aa" x="105.427" y="173.912"/><use xlink:href="#I" x="109.659" y="173.912"/><use xlink:href="#ad" x="118.756" y="173.912"/><use xlink:href="#S" x="124.758" y="173.912"/><use xlink:href="#O" x="128.189" y="173.912"/><use xlink:href="#aj" x="134.047" y="173.912"/><use xlink:href="#O" x="139.905" y="173.912"/><use xlink:href="#W" x="145.763" y="173.912"/><use xlink:href="#S" x="150.246" y="173.912"/><use xlink:href="#D" x="153.677" y="173.912"/><use xlink:href="#Q" x="159.286" y="163.827" fill="red"/><use xlink:href="#L" x="159.286" y="173.912"/><use xlink:href="#K" x="167.248" y="173.912"/><use xlink:href="#O" x="169.998" y="173.912"/><use xlink:href="#M" x="175.856" y="173.912"/><use xlink:href="#D" x="181.857" y="173.912"/><use xlink:href="#X" x="187.464" y="173.912"/><use xlink:href="#E" x="46.07" y="193.048"/><use xlink:href="#aa" x="51.749" y="193.048"/><use xlink:href="#at" x="55.981" y="193.048"/><use xlink:href="#G" x="61.516" y="193.048"/><use xlink:href="#D" x="65.497" y="193.048"/><use xlink:href="#T" x="71.104" y="193.048"/><use xlink:href="#F" x="79.484" y="193.048"/><use xlink:href="#O" x="85.808" y="193.048"/><use xlink:href="#H" x="91.666" y="193.048"/><use xlink:href="#M" x="96.747" y="193.048"/><use xlink:href="#D" x="102.749" y="193.048"/><use xlink:href="#S" x="108.356" y="193.048"/><use xlink:href="#D" x="111.787" y="193.048"/><use xlink:href="#aj" x="121.291" y="193.048"/><use xlink:href="#O" x="127.149" y="193.048"/><use xlink:href="#J" x="133.33" y="193.048"/><use xlink:href="#H" x="139.331" y="193.048"/><use xlink:href="#K" x="144.412" y="193.048"/><use xlink:href="#M" x="147.162" y="193.048"/><use xlink:href="#Z" x="153.163" y="193.048"/><use xlink:href="#H" x="162.261" y="193.048"/><use xlink:href="#R" x="167.342" y="193.048"/><use xlink:href="#D" x="176.595" y="193.048"/><use xlink:href="#G" x="181.879" y="193.048"/><use xlink:href="#aa" x="185.86" y="193.048"/><use xlink:href="#L" x="189.769" y="193.048"/><use xlink:href="#N" x="197.731" y="193.048"/><use xlink:href="#ab" x="203.087" y="193.048"/><use xlink:href="#ak" x="208.287" y="193.048"/><use xlink:href="#L" x="214.289" y="193.048"/><use xlink:href="#W" x="222.251" y="193.048"/><use xlink:href="#aa" x="226.734" y="193.048"/><use xlink:href="#D" x="230.966" y="193.048"/><use xlink:href="#M" x="236.573" y="193.048"/><use xlink:href="#K" x="242.574" y="193.048"/><use xlink:href="#D" x="245.324" y="193.048"/><use xlink:href="#an" x="254.828" y="193.048"/><use xlink:href="#ak" x="262.312" y="193.048"/><use xlink:href="#G" x="268.313" y="193.048"/><use xlink:href="#N" x="272.294" y="193.048"/><use xlink:href="#A" x="277.654" y="182.962" fill="red"/><use xlink:href="#W" x="277.654" y="193.048"/><use xlink:href="#aa" x="282.137" y="193.048"/><use xlink:href="#P" x="286.369" y="193.048"/><use xlink:href="#W" x="292.371" y="193.048"/><use xlink:href="#D" x="296.854" y="193.048"/><use xlink:href="#ag" x="302.461" y="193.048"/><use xlink:href="#B" x="46.07" y="212.183"/><use xlink:href="#M" x="58.599" y="212.183"/><use xlink:href="#O" x="64.6" y="212.183"/><use xlink:href="#ab" x="70.781" y="212.183"/><use xlink:href="#N" x="75.981" y="212.183"/><use xlink:href="#X" x="80.357" y="212.183"/><use xlink:href="#H" x="87.506" y="212.183"/><use xlink:href="#D" x="92.587" y="212.183"/><use xlink:href="#K" x="98.194" y="212.183"/><use xlink:href="#W" x="100.943" y="212.183"/><use xlink:href="#aa" x="105.427" y="212.183"/><use xlink:href="#I" x="109.659" y="212.183"/><use xlink:href="#ad" x="118.756" y="212.183"/><use xlink:href="#S" x="124.758" y="212.183"/><use xlink:href="#O" x="128.189" y="212.183"/><use xlink:href="#aj" x="134.047" y="212.183"/><use xlink:href="#O" x="139.905" y="212.183"/><use xlink:href="#W" x="145.763" y="212.183"/><use xlink:href="#S" x="150.246" y="212.183"/><use xlink:href="#D" x="153.677" y="212.183"/><use xlink:href="#Q" x="159.286" y="202.098" fill="red"/><use xlink:href="#L" x="159.286" y="212.183"/><use xlink:href="#K" x="167.248" y="212.183"/><use xlink:href="#O" x="169.998" y="212.183"/><use xlink:href="#M" x="175.856" y="212.183"/><use xlink:href="#D" x="181.857" y="212.183"/><use xlink:href="#X" x="187.464" y="212.183"/><use xlink:href="#E" x="46.07" y="231.319"/><use xlink:href="#aa" x="51.749" y="231.319"/><use xlink:href="#at" x="55.981" y="231.319"/><use xlink:href="#G" x="61.516" y="231.319"/><use xlink:href="#D" x="65.497" y="231.319"/><use xlink:href="#T" x="71.104" y="231.319"/><use xlink:href="#O" x="79.484" y="231.319"/><use xlink:href="#aj" x="85.342" y="231.319"/><use xlink:href="#G" x="91.2" y="231.319"/><use xlink:href="#D" x="95.181" y="231.319"/><use xlink:href="#ad" x="100.788" y="231.319"/><use xlink:href="#K" x="106.789" y="231.319"/><use xlink:href="#S" x="109.539" y="231.319"/><use xlink:href="#D" x="112.97" y="231.319"/><use xlink:href="#au" x="122.474" y="231.319"/><use xlink:href="#aj" x="129.444" y="231.319"/><use xlink:href="#K" x="135.302" y="231.319"/><use xlink:href="#F" x="138.052" y="231.319"/><use xlink:href="#ab" x="144.376" y="231.319"/><use xlink:href="#C" x="149.576" y="231.319"/><use xlink:href="#D" x="152.661" y="231.319"/><use xlink:href="#M" x="158.268" y="231.319"/><use xlink:href="#X" x="164.269" y="231.319"/><use xlink:href="#ad" x="171.418" y="231.319"/><use xlink:href="#N" x="177.097" y="231.319"/><use xlink:href="#L" x="186.35" y="231.319"/><use xlink:href="#H" x="194.312" y="231.319"/><use xlink:href="#ad" x="199.393" y="231.319"/><use xlink:href="#O" x="205.717" y="231.319"/><use xlink:href="#aj" x="211.575" y="231.319"/><use xlink:href="#D" x="217.433" y="231.319"/><use xlink:href="#ab" x="223.04" y="231.319"/><use xlink:href="#K" x="228.24" y="231.319"/><use xlink:href="#U" x="230.99" y="231.319"/><use xlink:href="#av" x="240.088" y="231.319"/><use xlink:href="#H" x="243.268" y="231.319"/><use xlink:href="#G" x="248.349" y="231.319"/><use xlink:href="#D" x="252.33" y="231.319"/><use xlink:href="#A" x="257.94" y="221.233" fill="red"/><use xlink:href="#I" x="257.94" y="231.319"/><use xlink:href="#ae" x="263.14" y="231.319"/><use xlink:href="#D" x="265.89" y="231.319"/><use xlink:href="#ag" x="271.497" y="231.319"/><use xlink:href="#B" x="46.07" y="250.454"/><use xlink:href="#M" x="58.599" y="250.454"/><use xlink:href="#O" x="64.6" y="250.454"/><use xlink:href="#ab" x="70.781" y="250.454"/><use xlink:href="#N" x="75.981" y="250.454"/><use xlink:href="#X" x="80.357" y="250.454"/><use xlink:href="#E" x="87.506" y="250.454"/><use xlink:href="#aa" x="93.185" y="250.454"/><use xlink:href="#at" x="97.417" y="250.454"/><use xlink:href="#G" x="102.952" y="250.454"/><use xlink:href="#D" x="106.933" y="250.454"/><use xlink:href="#H" x="116.437" y="250.454"/><use xlink:href="#S" x="121.518" y="250.454"/><use xlink:href="#O" x="124.949" y="250.454"/><use xlink:href="#H" x="134.704" y="250.454"/><use xlink:href="#L" x="139.785" y="250.454"/><use xlink:href="#N" x="147.747" y="250.454"/><use xlink:href="#Q" x="153.105" y="240.369" fill="red"/><use xlink:href="#ab" x="153.105" y="250.454"/><use xlink:href="#K" x="158.305" y="250.454"/><use xlink:href="#Z" x="161.055" y="250.454"/><use xlink:href="#aw" x="166.256" y="250.454"/><use xlink:href="#D" x="171.336" y="250.454"/><use xlink:href="#W" x="176.943" y="250.454"/><use xlink:href="#H" x="181.426" y="250.454"/><use xlink:href="#X" x="186.507" y="250.454"/><use xlink:href="#O" x="193.656" y="250.454"/><use xlink:href="#ad" x="199.514" y="250.454"/><use xlink:href="#R" x="205.516" y="250.454"/><use xlink:href="#N" x="214.769" y="250.454"/><use xlink:href="#L" x="220.125" y="250.454"/><use xlink:href="#D" x="227.764" y="250.454"/><use xlink:href="#W" x="233.371" y="250.454"/><use xlink:href="#H" x="237.854" y="250.454"/><use xlink:href="#A" x="246.834" y="240.369" fill="red"/><use xlink:href="#L" x="246.834" y="250.454"/><use xlink:href="#K" x="254.796" y="250.454"/><use xlink:href="#M" x="257.546" y="250.454"/><use xlink:href="#N" x="263.547" y="250.454"/><use xlink:href="#ag" x="268.903" y="250.454"/><use xlink:href="#B" x="46.07" y="269.589"/><use xlink:href="#M" x="58.599" y="269.589"/><use xlink:href="#O" x="64.6" y="269.589"/><use xlink:href="#ab" x="70.781" y="269.589"/><use xlink:href="#N" x="75.981" y="269.589"/><use xlink:href="#X" x="80.357" y="269.589"/><use xlink:href="#M" x="87.506" y="269.589"/><use xlink:href="#D" x="93.507" y="269.589"/><use xlink:href="#F" x="99.114" y="269.589"/><use xlink:href="#G" x="104.793" y="269.589"/><use xlink:href="#D" x="108.774" y="269.589"/><use xlink:href="#L" x="114.058" y="269.589"/><use xlink:href="#J" x="122.02" y="269.589"/><use xlink:href="#Z" x="128.022" y="269.589"/><use xlink:href="#ab" x="137.119" y="269.589"/><use xlink:href="#ak" x="142.32" y="269.589"/><use xlink:href="#L" x="148.321" y="269.589"/><use xlink:href="#D" x="155.96" y="269.589"/><use xlink:href="#Q" x="161.569" y="259.504" fill="red"/><use xlink:href="#ae" x="161.569" y="269.589"/><use xlink:href="#I" x="164.319" y="269.589"/><use xlink:href="#ad" x="169.519" y="269.589"/><use xlink:href="#M" x="175.52" y="269.589"/><use xlink:href="#D" x="181.522" y="269.589"/><use xlink:href="#X" x="187.129" y="269.589"/><use xlink:href="#E" x="194.278" y="269.589"/><use xlink:href="#aa" x="199.957" y="269.589"/><use xlink:href="#at" x="204.189" y="269.589"/><use xlink:href="#G" x="209.724" y="269.589"/><use xlink:href="#D" x="213.705" y="269.589"/><use xlink:href="#ai" x="223.21" y="259.504" fill="red"/><use xlink:href="#S" x="223.21" y="269.589"/><use xlink:href="#ap" x="226.641" y="269.589"/><use xlink:href="#ab" x="232.248" y="269.589"/><use xlink:href="#H" x="237.448" y="269.589"/><use xlink:href="#N" x="242.529" y="269.589"/><use xlink:href="#W" x="247.885" y="269.589"/><use xlink:href="#H" x="252.368" y="269.589"/><use xlink:href="#ab" x="261.346" y="269.589"/><use xlink:href="#H" x="266.547" y="269.589"/><use xlink:href="#S" x="271.628" y="269.589"/><use xlink:href="#O" x="275.059" y="269.589"/><use xlink:href="#L" x="280.594" y="269.589"/><use xlink:href="#K" x="288.556" y="269.589"/><use xlink:href="#I" x="291.306" y="269.589"/><use xlink:href="#E" x="296.506" y="269.589"/><use xlink:href="#D" x="302.185" y="269.589"/><use xlink:href="#H" x="311.689" y="269.589"/><use xlink:href="#C" x="320.667" y="269.589"/><use xlink:href="#I" x="323.752" y="269.589"/><use xlink:href="#aj" x="328.952" y="269.589"/><use xlink:href="#O" x="334.81" y="269.589"/><use xlink:href="#am" x="344.567" y="259.504" fill="red"/><use xlink:href="#ah" x="344.567" y="269.589"/><use xlink:href="#O" x="352.338" y="269.589"/><use xlink:href="#aj" x="358.196" y="269.589"/><use xlink:href="#K" x="364.054" y="269.589"/><use xlink:href="#I" x="366.803" y="269.589"/><use xlink:href="#R" x="372.004" y="269.589"/><use xlink:href="#ag" x="381.257" y="269.589"/><use xlink:href="#ao" x="26.201" y="288.725"/><use xlink:href="#A" x="46.07" y="278.639" fill="red"/><use xlink:href="#V" x="46.07" y="288.725"/><use xlink:href="#O" x="53.076" y="288.725"/><use xlink:href="#C" x="62.831" y="288.725"/><use xlink:href="#I" x="65.915" y="288.725"/><use xlink:href="#W" x="71.116" y="288.725"/><use xlink:href="#aa" x="75.599" y="288.725"/><use xlink:href="#aa" x="83.728" y="288.725"/><use xlink:href="#D" x="87.96" y="288.725"/><use xlink:href="#M" x="97.465" y="288.725"/><use xlink:href="#O" x="103.466" y="288.725"/><use xlink:href="#ab" x="109.647" y="288.725"/><use xlink:href="#X" x="114.847" y="288.725"/><use xlink:href="#L" x="121.996" y="288.725"/><use xlink:href="#E" x="133.856" y="288.725"/><use xlink:href="#aa" x="139.534" y="288.725"/><use xlink:href="#at" x="143.766" y="288.725"/><use xlink:href="#G" x="149.301" y="288.725"/><use xlink:href="#I" x="153.282" y="288.725"/><use xlink:href="#C" x="158.483" y="288.725"/><use xlink:href="#an" x="165.465" y="288.725"/><use xlink:href="#ak" x="172.948" y="288.725"/><use xlink:href="#G" x="178.95" y="288.725"/><use xlink:href="#N" x="182.931" y="288.725"/><use xlink:href="#W" x="188.287" y="288.725"/><use xlink:href="#aa" x="192.77" y="288.725"/><use xlink:href="#P" x="197.002" y="288.725"/><use xlink:href="#W" x="203.003" y="288.725"/><use xlink:href="#W" x="211.384" y="288.725"/><use xlink:href="#E" x="215.867" y="288.725"/><use xlink:href="#G" x="221.546" y="288.725"/><use xlink:href="#P" x="225.527" y="288.725"/><use xlink:href="#W" x="231.528" y="288.725"/><use xlink:href="#H" x="236.011" y="288.725"/><use xlink:href="#N" x="241.092" y="288.725"/><use xlink:href="#S" x="246.448" y="288.725"/><use xlink:href="#L" x="254.099" y="288.725"/><use xlink:href="#K" x="262.061" y="288.725"/><use xlink:href="#Z" x="264.811" y="288.725"/><use xlink:href="#H" x="270.011" y="288.725"/><use xlink:href="#N" x="275.092" y="288.725"/><use xlink:href="#Q" x="284.349" y="278.639" fill="red"/><use xlink:href="#T" x="284.349" y="288.725"/><use xlink:href="#R" x="288.832" y="288.725"/><use xlink:href="#K" x="298.085" y="288.725"/><use xlink:href="#I" x="300.835" y="288.725"/><use xlink:href="#G" x="306.035" y="288.725"/><use xlink:href="#ab" x="310.016" y="288.725"/><use xlink:href="#K" x="315.217" y="288.725"/><use xlink:href="#K" x="46.07" y="307.86"/><use xlink:href="#H" x="52.717" y="307.86"/><use xlink:href="#O" x="61.695" y="307.86"/><use xlink:href="#aa" x="67.553" y="307.86"/><use xlink:href="#ab" x="71.785" y="307.86"/><use xlink:href="#ak" x="76.986" y="307.86"/><use xlink:href="#ai" x="82.988" y="297.775" fill="red"/><use xlink:href="#S" x="82.988" y="307.86"/><use xlink:href="#D" x="86.419" y="307.86"/><use xlink:href="#M" x="92.026" y="307.86"/><use xlink:href="#K" x="98.027" y="307.86"/><use xlink:href="#F" x="104.674" y="307.86"/><use xlink:href="#O" x="110.999" y="307.86"/><use xlink:href="#L" x="116.534" y="307.86"/><use xlink:href="#G" x="124.496" y="307.86"/><use xlink:href="#D" x="128.477" y="307.86"/><use xlink:href="#ab" x="134.084" y="307.86"/><use xlink:href="#D" x="139.284" y="307.86"/><use xlink:href="#H" x="148.788" y="307.86"/><use xlink:href="#L" x="153.869" y="307.86"/><use xlink:href="#N" x="161.831" y="307.86"/><use xlink:href="#am" x="167.188" y="297.775" fill="red"/><use xlink:href="#ab" x="167.188" y="307.86"/><use xlink:href="#K" x="172.388" y="307.86"/><use xlink:href="#Z" x="175.138" y="307.86"/><use xlink:href="#W" x="180.339" y="307.86"/><use xlink:href="#E" x="184.822" y="307.86"/><use xlink:href="#K" x="190.5" y="307.86"/><use xlink:href="#ag" x="193.25" y="307.86"/><use xlink:href="#aq" x="323.944" y="295.225"/><use xlink:href="#ar" x="336.721" y="295.225"/><use xlink:href="#as" x="342.579" y="295.225"/><use xlink:href="#z" x="29.56" y="326.995"/><use xlink:href="#A" x="46.07" y="316.91" fill="red"/><use xlink:href="#ax" x="46.07" y="326.995"/><use xlink:href="#aa" x="60.954" y="326.995"/><use xlink:href="#Z" x="65.186" y="326.995"/><use xlink:href="#M" x="74.284" y="326.995"/><use xlink:href="#O" x="80.285" y="326.995"/><use xlink:href="#ab" x="86.466" y="326.995"/><use xlink:href="#F" x="95.564" y="326.995"/><use xlink:href="#I" x="101.888" y="326.995"/><use xlink:href="#S" x="107.088" y="326.995"/><use xlink:href="#M" x="110.842" y="326.995"/><use xlink:href="#ap" x="116.844" y="326.995"/><use xlink:href="#S" x="126.348" y="326.995"/><use xlink:href="#D" x="129.779" y="326.995"/><use xlink:href="#W" x="135.386" y="326.995"/><use xlink:href="#E" x="139.869" y="326.995"/><use xlink:href="#K" x="145.548" y="326.995"/><use xlink:href="#F" x="152.195" y="326.995"/><use xlink:href="#G" x="157.873" y="326.995"/><use xlink:href="#H" x="161.854" y="326.995"/><use xlink:href="#N" x="166.935" y="326.995"/><use xlink:href="#C" x="172.291" y="326.995"/><use xlink:href="#R" x="175.375" y="326.995"/><use xlink:href="#K" x="184.628" y="326.995"/><use xlink:href="#C" x="187.378" y="326.995"/><use xlink:href="#X" x="190.462" y="326.995"/><use xlink:href="#B" x="197.612" y="326.995"/><use xlink:href="#C" x="206.243" y="326.995"/><use xlink:href="#ab" x="209.327" y="326.995"/><use xlink:href="#H" x="214.528" y="326.995"/><use xlink:href="#I" x="219.609" y="326.995"/><use xlink:href="#Q" x="228.71" y="316.91" fill="red"/><use xlink:href="#ay" x="228.71" y="326.995"/><use xlink:href="#L" x="235.214" y="326.995"/><use xlink:href="#K" x="243.176" y="326.995"/><use xlink:href="#Z" x="245.925" y="326.995"/><use xlink:href="#aa" x="251.126" y="326.995"/><use xlink:href="#N" x="255.035" y="326.995"/><use xlink:href="#X" x="259.41" y="326.995"/><use xlink:href="#O" x="266.56" y="326.995"/><use xlink:href="#az" x="272.418" y="326.995"/><use xlink:href="#D" x="278.67" y="326.995"/><use xlink:href="#G" x="283.954" y="326.995"/><use xlink:href="#Z" x="287.935" y="326.995"/><use xlink:href="#F" x="297.033" y="326.995"/><use xlink:href="#O" x="303.357" y="326.995"/><use xlink:href="#A" x="309.216" y="316.91" fill="red"/><use xlink:href="#ab" x="309.216" y="326.995"/><use xlink:href="#ak" x="314.416" y="326.995"/><use xlink:href="#L" x="320.418" y="326.995"/><use xlink:href="#D" x="328.057" y="326.995"/><use xlink:href="#ae" x="333.664" y="326.995"/><use xlink:href="#M" x="336.414" y="326.995"/><use xlink:href="#ap" x="342.415" y="326.995"/><use xlink:href="#X" x="348.022" y="326.995"/><use xlink:href="#E" x="46.07" y="346.131"/><use xlink:href="#aa" x="51.749" y="346.131"/><use xlink:href="#at" x="55.981" y="346.131"/><use xlink:href="#G" x="61.516" y="346.131"/><use xlink:href="#ap" x="65.497" y="346.131"/><use xlink:href="#Y" x="75.002" y="336.045" fill="red"/><use xlink:href="#aA" x="75.002" y="346.131"/><use xlink:href="#O" x="82.737" y="346.131"/><use xlink:href="#T" x="88.595" y="346.131"/><use xlink:href="#ab" x="93.078" y="346.131"/><use xlink:href="#K" x="98.278" y="346.131"/><use xlink:href="#at" x="101.028" y="346.131"/><use xlink:href="#S" x="106.886" y="346.131"/><use xlink:href="#V" x="114.537" y="346.131"/><use xlink:href="#O" x="121.543" y="346.131"/><use xlink:href="#ad" x="127.401" y="346.131"/><use xlink:href="#K" x="133.402" y="346.131"/><use xlink:href="#I" x="136.152" y="346.131"/><use xlink:href="#W" x="145.25" y="346.131"/><use xlink:href="#E" x="149.733" y="346.131"/><use xlink:href="#S" x="155.411" y="346.131"/><use xlink:href="#D" x="158.842" y="346.131"/><use xlink:href="#J" x="164.449" y="346.131"/><use xlink:href="#D" x="170.451" y="346.131"/><use xlink:href="#G" x="179.955" y="346.131"/><use xlink:href="#Z" x="183.936" y="346.131"/><use xlink:href="#E" x="189.136" y="346.131"/><use xlink:href="#D" x="194.815" y="346.131"/><use xlink:href="#R" x="200.422" y="346.131"/><use xlink:href="#K" x="209.675" y="346.131"/><use xlink:href="#V" x="216.322" y="346.131"/><use xlink:href="#L" x="223.328" y="346.131"/><use xlink:href="#O" x="230.967" y="346.131"/><use xlink:href="#K" x="236.825" y="346.131"/><use xlink:href="#ab" x="239.574" y="346.131"/><use xlink:href="#ak" x="244.775" y="346.131"/><use xlink:href="#A" x="254.676" y="336.045" fill="red"/><use xlink:href="#W" x="254.676" y="346.131"/><use xlink:href="#S" x="259.159" y="346.131"/><use xlink:href="#P" x="262.913" y="346.131"/><use xlink:href="#aj" x="268.914" y="346.131"/><use xlink:href="#X" x="274.772" y="346.131"/><use xlink:href="#L" x="46.07" y="365.266"/><use xlink:href="#P" x="57.929" y="365.266"/><use xlink:href="#G" x="63.931" y="365.266"/><use xlink:href="#O" x="67.912" y="365.266"/><use xlink:href="#ab" x="74.093" y="365.266"/><use xlink:href="#H" x="79.293" y="365.266"/><use xlink:href="#N" x="84.374" y="365.266"/><use xlink:href="#W" x="89.73" y="365.266"/><use xlink:href="#aa" x="94.213" y="365.266"/><use xlink:href="#I" x="98.445" y="365.266"/><use xlink:href="#C" x="103.645" y="365.266"/><use xlink:href="#ae" x="110.627" y="365.266"/><use xlink:href="#K" x="113.377" y="365.266"/><use xlink:href="#Q" x="116.128" y="355.181" fill="red"/><use xlink:href="#aa" x="116.128" y="365.266"/><use xlink:href="#P" x="120.36" y="365.266"/><use xlink:href="#G" x="126.361" y="365.266"/><use xlink:href="#aj" x="130.342" y="365.266"/><use xlink:href="#K" x="136.2" y="365.266"/><use xlink:href="#K" x="138.95" y="365.266"/><use xlink:href="#F" x="145.597" y="365.266"/><use xlink:href="#D" x="151.598" y="365.266"/><use xlink:href="#W" x="157.205" y="365.266"/><use xlink:href="#ab" x="161.689" y="365.266"/><use xlink:href="#ak" x="166.889" y="365.266"/><use xlink:href="#D" x="172.89" y="365.266"/><use xlink:href="#ae" x="178.497" y="365.266"/><use xlink:href="#M" x="181.247" y="365.266"/><use xlink:href="#I" x="187.248" y="365.266"/><use xlink:href="#C" x="192.449" y="365.266"/><use xlink:href="#T" x="199.43" y="365.266"/><use xlink:href="#L" x="203.914" y="365.266"/><use xlink:href="#K" x="211.876" y="365.266"/><use xlink:href="#I" x="214.625" y="365.266"/><use xlink:href="#ab" x="219.826" y="365.266"/><use xlink:href="#N" x="225.026" y="365.266"/><use xlink:href="#X" x="229.402" y="365.266"/><use xlink:href="#H" x="236.551" y="365.266"/><use xlink:href="#M" x="241.632" y="365.266"/><use xlink:href="#D" x="247.633" y="365.266"/><use xlink:href="#E" x="253.24" y="365.266"/><use xlink:href="#P" x="258.918" y="365.266"/><use xlink:href="#M" x="268.817" y="365.266"/><use xlink:href="#O" x="274.819" y="365.266"/><use xlink:href="#L" x="280.354" y="365.266"/><use xlink:href="#I" x="287.993" y="365.266"/><use xlink:href="#aj" x="293.193" y="365.266"/><use xlink:href="#O" x="299.051" y="365.266"/><use xlink:href="#A" x="308.809" y="355.181" fill="red"/><use xlink:href="#T" x="308.809" y="365.266"/><use xlink:href="#L" x="313.292" y="365.266"/><use xlink:href="#K" x="321.254" y="365.266"/><use xlink:href="#D" x="324.004" y="365.266"/><use xlink:href="#aa" x="329.611" y="365.266"/><use xlink:href="#S" x="333.843" y="365.266"/><use xlink:href="#D" x="337.274" y="365.266"/><use xlink:href="#aB" x="342.881" y="365.266"/><use xlink:href="#ai" x="46.07" y="374.316" fill="red"/><use xlink:href="#aC" x="46.07" y="384.402"/><use xlink:href="#G" x="53.518" y="384.402"/><use xlink:href="#O" x="57.499" y="384.402"/><use xlink:href="#W" x="63.357" y="384.402"/><use xlink:href="#K" x="67.84" y="384.402"/><use xlink:href="#R" x="70.59" y="384.402"/><use xlink:href="#N" x="79.843" y="384.402"/><use xlink:href="#an" x="89.096" y="384.402"/><use xlink:href="#K" x="96.58" y="384.402"/><use xlink:href="#Z" x="99.33" y="384.402"/><use xlink:href="#X" x="104.53" y="384.402"/><use xlink:href="#O" x="111.679" y="384.402"/><use xlink:href="#am" x="121.436" y="374.316" fill="red"/><use xlink:href="#aC" x="121.436" y="384.402"/><use xlink:href="#D" x="128.561" y="384.402"/><use xlink:href="#M" x="134.168" y="384.402"/><use xlink:href="#K" x="140.169" y="384.402"/><use xlink:href="#I" x="142.919" y="384.402"/><use xlink:href="#X" x="148.12" y="384.402"/><use xlink:href="#A" x="46.07" y="393.452" fill="red"/><use xlink:href="#D" x="46.07" y="403.537"/><use xlink:href="#ad" x="51.677" y="403.537"/><use xlink:href="#N" x="57.356" y="403.537"/><use xlink:href="#aa" x="66.609" y="403.537"/><use xlink:href="#D" x="70.841" y="403.537"/><use xlink:href="#T" x="80.345" y="403.537"/><use xlink:href="#L" x="84.828" y="403.537"/><use xlink:href="#K" x="92.79" y="403.537"/><use xlink:href="#I" x="95.54" y="403.537"/><use xlink:href="#ab" x="100.74" y="403.537"/><use xlink:href="#D" x="105.941" y="403.537"/><use xlink:href="#O" x="115.445" y="403.537"/><use xlink:href="#az" x="121.303" y="403.537"/><use xlink:href="#D" x="127.555" y="403.537"/><use xlink:href="#G" x="132.839" y="403.537"/><use xlink:href="#O" x="136.82" y="403.537"/><use xlink:href="#L" x="142.356" y="403.537"/><use xlink:href="#D" x="149.995" y="403.537"/><use xlink:href="#M" x="155.602" y="403.537"/><use xlink:href="#D" x="161.603" y="403.537"/><use xlink:href="#M" x="171.107" y="403.537"/><use xlink:href="#D" x="177.109" y="403.537"/><use xlink:href="#ab" x="186.613" y="403.537"/><use xlink:href="#H" x="191.813" y="403.537"/><use xlink:href="#I" x="196.894" y="403.537"/><use xlink:href="#T" x="202.095" y="403.537"/><use xlink:href="#U" x="206.578" y="403.537"/><use xlink:href="#V" x="215.676" y="403.537"/><use xlink:href="#L" x="222.681" y="403.537"/><use xlink:href="#O" x="230.32" y="403.537"/><use xlink:href="#C" x="236.178" y="403.537"/><use xlink:href="#I" x="239.263" y="403.537"/><use xlink:href="#aj" x="244.463" y="403.537"/><use xlink:href="#O" x="250.321" y="403.537"/><use xlink:href="#K" x="260.076" y="403.537"/><use xlink:href="#Q" x="262.83" y="393.452" fill="red"/><use xlink:href="#R" x="262.83" y="403.537"/><use xlink:href="#K" x="272.083" y="403.537"/><use xlink:href="#I" x="274.833" y="403.537"/><use xlink:href="#M" x="280.033" y="403.537"/><use xlink:href="#K" x="286.035" y="403.537"/><use xlink:href="#D" x="288.784" y="403.537"/><use xlink:href="#G" x="298.289" y="403.537"/><use xlink:href="#O" x="302.27" y="403.537"/><use xlink:href="#H" x="308.128" y="403.537"/><use xlink:href="#ad" x="313.208" y="403.537"/><use xlink:href="#S" x="319.21" y="403.537"/><use xlink:href="#N" x="322.964" y="403.537"/><use xlink:href="#W" x="328.32" y="403.537"/><use xlink:href="#S" x="332.803" y="403.537"/><use xlink:href="#D" x="336.234" y="403.537"/><use xlink:href="#A" x="345.739" y="393.452" fill="red"/><use xlink:href="#T" x="345.739" y="403.537"/><use xlink:href="#L" x="350.222" y="403.537"/><use xlink:href="#K" x="358.184" y="403.537"/><use xlink:href="#D" x="360.934" y="403.537"/><use xlink:href="#aa" x="366.541" y="403.537"/><use xlink:href="#S" x="370.773" y="403.537"/><use xlink:href="#I" x="374.204" y="403.537"/><use xlink:href="#R" x="379.404" y="403.537"/><use xlink:href="#aB" x="388.657" y="403.537"/><use xlink:href="#aD" x="46.07" y="422.672"/><use xlink:href="#K" x="54.271" y="422.672"/><use xlink:href="#I" x="57.021" y="422.672"/><use xlink:href="#ab" x="62.221" y="422.672"/><use xlink:href="#ak" x="67.422" y="422.672"/><use xlink:href="#W" x="77.32" y="422.672"/><use xlink:href="#K" x="81.804" y="422.672"/><use xlink:href="#Z" x="84.553" y="422.672"/><use xlink:href="#L" x="93.651" y="422.672"/><use xlink:href="#H" x="101.613" y="422.672"/><use xlink:href="#M" x="106.694" y="422.672"/><use xlink:href="#K" x="112.695" y="422.672"/><use xlink:href="#I" x="115.445" y="422.672"/><use xlink:href="#W" x="120.645" y="422.672"/><use xlink:href="#K" x="125.128" y="422.672"/><use xlink:href="#I" x="127.878" y="422.672"/><use xlink:href="#J" x="136.976" y="422.672"/><use xlink:href="#O" x="142.977" y="422.672"/><use xlink:href="#an" x="152.732" y="422.672"/><use xlink:href="#K" x="160.216" y="422.672"/><use xlink:href="#I" x="162.966" y="422.672"/><use xlink:href="#ad" x="168.166" y="422.672"/><use xlink:href="#K" x="174.168" y="422.672"/><use xlink:href="#I" x="176.917" y="422.672"/><use xlink:href="#C" x="186.015" y="422.672"/><use xlink:href="#D" x="189.1" y="422.672"/><use xlink:href="#E" x="194.706" y="422.672"/><use xlink:href="#O" x="200.062" y="422.672"/><use xlink:href="#L" x="209.818" y="422.672"/><use xlink:href="#O" x="217.457" y="422.672"/><use xlink:href="#aE" x="223.315" y="422.672"/><use xlink:href="#F" x="233.214" y="422.672"/><use xlink:href="#G" x="238.892" y="422.672"/><use xlink:href="#H" x="242.873" y="422.672"/><use xlink:href="#N" x="247.954" y="422.672"/><use xlink:href="#Q" x="253.313" y="412.587" fill="red"/><use xlink:href="#C" x="253.313" y="422.672"/><use xlink:href="#I" x="256.397" y="422.672"/><use xlink:href="#R" x="261.598" y="422.672"/><use xlink:href="#M" x="270.851" y="422.672"/><use xlink:href="#D" x="276.852" y="422.672"/><use xlink:href="#X" x="282.459" y="422.672"/><use xlink:href="#M" x="46.07" y="441.808"/><use xlink:href="#K" x="52.071" y="441.808"/><use xlink:href="#I" x="54.821" y="441.808"/><use xlink:href="#ab" x="60.021" y="441.808"/><use xlink:href="#ak" x="65.222" y="441.808"/><use xlink:href="#D" x="71.223" y="441.808"/><use xlink:href="#C" x="76.83" y="441.808"/><use xlink:href="#W" x="83.812" y="441.808"/><use xlink:href="#K" x="88.295" y="441.808"/><use xlink:href="#Z" x="91.045" y="441.808"/><use xlink:href="#H" x="100.142" y="441.808"/><use xlink:href="#S" x="105.223" y="441.808"/><use xlink:href="#ap" x="108.654" y="441.808"/><use xlink:href="#ab" x="114.261" y="441.808"/><use xlink:href="#H" x="119.462" y="441.808"/><use xlink:href="#N" x="124.543" y="441.808"/><use xlink:href="#H" x="133.796" y="441.808"/><use xlink:href="#aj" x="142.774" y="441.808"/><use xlink:href="#L" x="148.632" y="441.808"/><use xlink:href="#K" x="156.594" y="441.808"/><use xlink:href="#D" x="159.344" y="441.808"/><use xlink:href="#H" x="164.951" y="441.808"/><use xlink:href="#J" x="170.031" y="441.808"/><use xlink:href="#D" x="176.033" y="441.808"/><use xlink:href="#R" x="181.64" y="441.808"/><use xlink:href="#K" x="190.893" y="441.808"/><use xlink:href="#A" x="197.542" y="431.722" fill="red"/><use xlink:href="#M" x="197.542" y="441.808"/><use xlink:href="#K" x="203.543" y="441.808"/><use xlink:href="#I" x="206.293" y="441.808"/><use xlink:href="#ad" x="211.493" y="441.808"/><use xlink:href="#D" x="217.495" y="441.808"/><use xlink:href="#aB" x="223.102" y="441.808"/><use xlink:href="#aD" x="46.07" y="460.943"/><use xlink:href="#K" x="54.271" y="460.943"/><use xlink:href="#I" x="57.021" y="460.943"/><use xlink:href="#ab" x="62.221" y="460.943"/><use xlink:href="#ak" x="67.422" y="460.943"/><use xlink:href="#C" x="77.32" y="460.943"/><use xlink:href="#ap" x="80.405" y="460.943"/><use xlink:href="#H" x="89.909" y="460.943"/><use xlink:href="#M" x="94.99" y="460.943"/><use xlink:href="#D" x="100.991" y="460.943"/><use xlink:href="#C" x="106.598" y="460.943"/><use xlink:href="#J" x="109.683" y="460.943"/><use xlink:href="#H" x="115.684" y="460.943"/><use xlink:href="#K" x="120.765" y="460.943"/><use xlink:href="#I" x="123.515" y="460.943"/><use xlink:href="#H" x="132.612" y="460.943"/><use xlink:href="#D" x="137.693" y="460.943"/><use xlink:href="#F" x="143.3" y="460.943"/><use xlink:href="#D" x="149.301" y="460.943"/><use xlink:href="#ae" x="154.908" y="460.943"/><use xlink:href="#O" x="157.658" y="460.943"/><use xlink:href="#M" x="163.516" y="460.943"/><use xlink:href="#ap" x="169.517" y="460.943"/><use xlink:href="#aj" x="179.022" y="460.943"/><use xlink:href="#L" x="184.879" y="460.943"/><use xlink:href="#K" x="192.841" y="460.943"/><use xlink:href="#D" x="195.591" y="460.943"/><use xlink:href="#H" x="201.198" y="460.943"/><use xlink:href="#J" x="206.279" y="460.943"/><use xlink:href="#D" x="212.28" y="460.943"/><use xlink:href="#F" x="221.785" y="460.943"/><use xlink:href="#O" x="228.109" y="460.943"/><use xlink:href="#Q" x="233.97" y="450.858" fill="red"/><use xlink:href="#G" x="233.97" y="460.943"/><use xlink:href="#D" x="237.951" y="460.943"/><use xlink:href="#M" x="243.558" y="460.943"/><use xlink:href="#M" x="249.559" y="460.943"/><use xlink:href="#D" x="255.561" y="460.943"/><use xlink:href="#X" x="261.168" y="460.943"/><use xlink:href="#aa" x="46.07" y="480.078"/><use xlink:href="#D" x="50.302" y="480.078"/><use xlink:href="#ai" x="59.807" y="469.993" fill="red"/><use xlink:href="#aj" x="59.807" y="480.078"/><use xlink:href="#L" x="65.665" y="480.078"/><use xlink:href="#K" x="73.627" y="480.078"/><use xlink:href="#D" x="76.377" y="480.078"/><use xlink:href="#H" x="81.984" y="480.078"/><use xlink:href="#J" x="87.064" y="480.078"/><use xlink:href="#D" x="93.066" y="480.078"/><use xlink:href="#X" x="98.673" y="480.078"/><use xlink:href="#E" x="105.822" y="480.078"/><use xlink:href="#aa" x="111.5" y="480.078"/><use xlink:href="#at" x="115.733" y="480.078"/><use xlink:href="#G" x="121.268" y="480.078"/><use xlink:href="#D" x="125.249" y="480.078"/><use xlink:href="#M" x="134.753" y="480.078"/><use xlink:href="#K" x="140.754" y="480.078"/><use xlink:href="#I" x="143.504" y="480.078"/><use xlink:href="#H" x="152.602" y="480.078"/><use xlink:href="#M" x="157.683" y="480.078"/><use xlink:href="#D" x="163.684" y="480.078"/><use xlink:href="#H" x="173.188" y="480.078"/><use xlink:href="#D" x="178.269" y="480.078"/><use xlink:href="#am" x="183.878" y="469.993" fill="red"/><use xlink:href="#ab" x="183.878" y="480.078"/><use xlink:href="#ak" x="189.078" y="480.078"/><use xlink:href="#O" x="195.08" y="480.078"/><use xlink:href="#J" x="201.261" y="480.078"/><use xlink:href="#P" x="207.262" y="480.078"/><use xlink:href="#aB" x="213.263" y="480.078"/><use xlink:href="#A" x="46.07" y="489.128" fill="red"/><use xlink:href="#an" x="46.07" y="499.214"/><use xlink:href="#ak" x="53.554" y="499.214"/><use xlink:href="#G" x="59.555" y="499.214"/><use xlink:href="#N" x="63.536" y="499.214"/><use xlink:href="#W" x="68.892" y="499.214"/><use xlink:href="#aa" x="73.375" y="499.214"/><use xlink:href="#P" x="77.607" y="499.214"/><use xlink:href="#W" x="83.609" y="499.214"/><use xlink:href="#X" x="88.092" y="499.214"/><use xlink:href="#V" x="95.241" y="499.214"/><use xlink:href="#L" x="102.247" y="499.214"/><use xlink:href="#at" x="109.886" y="499.214"/><use xlink:href="#C" x="115.744" y="499.214"/><use xlink:href="#af" x="122.725" y="499.214"/><use xlink:href="#N" x="129.229" y="499.214"/><use xlink:href="#M" x="134.585" y="499.214"/><use xlink:href="#X" x="140.586" y="499.214"/><use xlink:href="#F" x="147.735" y="499.214"/><use xlink:href="#O" x="154.059" y="499.214"/><use xlink:href="#L" x="159.595" y="499.214"/><use xlink:href="#W" x="167.557" y="499.214"/><use xlink:href="#aa" x="172.04" y="499.214"/><use xlink:href="#D" x="176.272" y="499.214"/><use xlink:href="#S" x="181.879" y="499.214"/><use xlink:href="#N" x="185.633" y="499.214"/><use xlink:href="#Q" x="194.888" y="489.128" fill="red"/><use xlink:href="#H" x="194.888" y="499.214"/><use xlink:href="#R" x="203.866" y="499.214"/><use xlink:href="#D" x="213.119" y="499.214"/><use xlink:href="#G" x="218.403" y="499.214"/><use xlink:href="#aa" x="222.385" y="499.214"/><use xlink:href="#L" x="226.294" y="499.214"/><use xlink:href="#N" x="234.256" y="499.214"/><use xlink:href="#ab" x="239.612" y="499.214"/><use xlink:href="#ak" x="244.812" y="499.214"/><use xlink:href="#X" x="250.813" y="499.214"/><use xlink:href="#C" x="46.07" y="518.349"/><use xlink:href="#D" x="49.154" y="518.349"/><use xlink:href="#ai" x="54.762" y="508.264" fill="red"/><use xlink:href="#T" x="54.762" y="518.349"/><use xlink:href="#M" x="59.245" y="518.349"/><use xlink:href="#K" x="65.247" y="518.349"/><use xlink:href="#I" x="67.996" y="518.349"/><use xlink:href="#C" x="73.197" y="518.349"/><use xlink:href="#I" x="76.281" y="518.349"/><use xlink:href="#W" x="85.379" y="518.349"/><use xlink:href="#L" x="89.862" y="518.349"/><use xlink:href="#O" x="97.501" y="518.349"/><use xlink:href="#K" x="103.359" y="518.349"/><use xlink:href="#R" x="106.109" y="518.349"/><use xlink:href="#F" x="119.259" y="518.349"/><use xlink:href="#O" x="125.583" y="518.349"/><use xlink:href="#aj" x="131.441" y="518.349"/><use xlink:href="#O" x="137.299" y="518.349"/><use xlink:href="#J" x="143.48" y="518.349"/><use xlink:href="#M" x="149.482" y="518.349"/><use xlink:href="#N" x="155.483" y="518.349"/><use xlink:href="#R" x="160.839" y="518.349"/><use xlink:href="#am" x="173.991" y="508.264" fill="red"/><use xlink:href="#T" x="173.991" y="518.349"/><use xlink:href="#L" x="178.474" y="518.349"/><use xlink:href="#K" x="186.436" y="518.349"/><use xlink:href="#D" x="189.186" y="518.349"/><use xlink:href="#aa" x="194.793" y="518.349"/><use xlink:href="#S" x="199.025" y="518.349"/><use xlink:href="#I" x="202.456" y="518.349"/><use xlink:href="#R" x="207.656" y="518.349"/><use xlink:href="#ag" x="216.909" y="518.349"/><use xlink:href="#ao" x="26.201" y="537.485"/><use xlink:href="#al" x="46.07" y="537.485"/><use xlink:href="#A" x="53.805" y="527.399" fill="red"/><use xlink:href="#R" x="53.805" y="537.485"/><use xlink:href="#I" x="63.058" y="537.485"/><use xlink:href="#M" x="68.259" y="537.485"/><use xlink:href="#X" x="74.26" y="537.485"/><use xlink:href="#D" x="81.409" y="537.485"/><use xlink:href="#Q" x="87.017" y="527.399" fill="red"/><use xlink:href="#R" x="87.017" y="537.485"/><use xlink:href="#I" x="96.27" y="537.485"/><use xlink:href="#M" x="101.471" y="537.485"/><use xlink:href="#X" x="107.472" y="537.485"/><use xlink:href="#D" x="114.621" y="537.485"/><use xlink:href="#A" x="120.228" y="527.399" fill="red"/><use xlink:href="#R" x="120.228" y="537.485"/><use xlink:href="#I" x="129.481" y="537.485"/><use xlink:href="#M" x="134.682" y="537.485"/><use xlink:href="#ag" x="140.683" y="537.485"/><use xlink:href="#aF" x="150.379" y="534.417"/><use xlink:href="#ar" x="159.832" y="534.417"/><use xlink:href="#as" x="165.69" y="534.417"/><g clip-path="url(#aG)"><path fill="url(#aH)" d="M15.023 579.684v-11.336h388.063v11.336Zm0 0"/></g><use xlink:href="#aI" x="387.641" y="577.985"/><use xlink:href="#aI" x="394.372" y="577.985"/><path fill="#f2f2f2" stroke="#000" stroke-miterlimit="10" stroke-width=".797" d="M196.602 576.055v-3.989a2.99 2.99 0 0 1 2.988-2.988h18.93a2.99 2.99 0 0 1 2.988 2.988v3.989a2.99 2.99 0 0 1-2.988 2.988h-18.93a2.99 2.99 0 0 1-2.988-2.988Zm0 0"/><use xlink:href="#aJ" x="198.439" y="576.948"/><use xlink:href="#aK" x="203.747" y="576.948"/><use xlink:href="#aK" x="209.055" y="576.948"/><use xlink:href="#aL" x="214.363" y="576.948"/><use xlink:href="#aM" x="17.008" y="577.985"/><use xlink:href="#aN" x="20.976" y="577.985"/><use xlink:href="#aO" x="24.944" y="577.985"/><use xlink:href="#aP" x="31.598" y="577.985"/><use xlink:href="#aQ" x="33.85" y="577.985"/><use xlink:href="#aR" x="37.818" y="577.985"/><use xlink:href="#aS" x="41.787" y="577.985"/><use xlink:href="#aT" x="46.724" y="577.985"/><use xlink:href="#aM" x="57.353" y="577.985"/><use xlink:href="#aU" x="61.321" y="577.985"/><use xlink:href="#aV" x="67.974" y="577.985"/><use xlink:href="#aM" x="73.539" y="577.985"/><use xlink:href="#aW" x="77.508" y="577.985"/><use xlink:href="#aM" x="81.476" y="577.985"/><use xlink:href="#aX" x="85.444" y="577.985"/><use xlink:href="#aT" x="92.097" y="577.985"/><use xlink:href="#aY" x="102.725" y="577.985"/><use xlink:href="#aZ" x="108.388" y="577.985"/><use xlink:href="#ba" x="112.789" y="577.985"/><use xlink:href="#bb" x="118.263" y="577.985"/><use xlink:href="#bc" x="121.806" y="577.985"/><use xlink:href="#bd" x="125.991" y="577.985"/><use xlink:href="#aM" x="131.786" y="577.985"/><use xlink:href="#aW" x="135.754" y="577.985"/><use xlink:href="#aM" x="139.723" y="577.985"/><use xlink:href="#be" x="143.691" y="577.985"/></svg>