<svg xmlns="http://www.w3.org/2000/svg" xmlns:xlink="http://www.w3.org/1999/xlink" width="559.371" height="793.701" viewBox="0 0 419.528 595.276"><defs><path id="d" d="M3.344 2.297v-.078L1.5-2.5l1.844-4.703v-.078c0-.11-.078-.203-.188-.203a.24.24 0 0 0-.203.14L1.11-2.562c-.015.015-.015.046-.015.062 0 .031 0 .063.015.078L2.953 2.36a.24.24 0 0 0 .203.141c.11 0 .188-.094.188-.203m0 0"/><path id="e" d="M4.969-1.422c0-.11-.094-.11-.125-.11-.094 0-.11.048-.14.188-.173.64-.345 1.235-.75 1.235-.282 0-.298-.266-.298-.453 0-.22.016-.313.125-.75L4-2.203l.36-1.39c.062-.282.062-.298.062-.344 0-.172-.11-.266-.281-.266-.25 0-.391.219-.422.437-.188-.375-.469-.64-.922-.64-1.156 0-2.39 1.468-2.39 2.922C.406-.547.952.109 1.718.109c.203 0 .703-.046 1.297-.75a.91.91 0 0 0 .906.75c.36 0 .578-.234.75-.546.156-.36.297-.985.297-.985m-1.375-1.89a.6.6 0 0 1-.031.171l-.485 1.954c-.062.187-.062.203-.203.375-.437.546-.844.703-1.125.703-.5 0-.64-.547-.64-.938 0-.5.312-1.719.546-2.187.313-.578.75-.953 1.157-.953.64 0 .78.812.78.875m0 0"/><path id="f" d="M2.781-2.5c0-.016 0-.047-.015-.062L.922-7.344c-.031-.078-.11-.14-.188-.14a.207.207 0 0 0-.203.203v.078L2.375-2.5.531 2.219v.078c0 .11.094.203.203.203.079 0 .157-.062.188-.14l1.844-4.782c.015-.015.015-.047.015-.078m0 0"/><path id="g" d="M6.047-.156c0-.094-.11-.11-.14-.11-.25 0-.376-.03-.5-.312L4.218-3.297 5.766-4.5c.218-.172.812-.625 1.312-.672.063-.016.156-.031.156-.156 0-.047-.03-.11-.109-.11 0 0-.234.016-.281.016h-.328c-.266 0-.563-.016-.813-.016-.047 0-.172 0-.172.141 0 .11.14.125.14.125.11 0 .173.047.173.11 0 .125-.14.25-.172.28l-.047.048c-.016.015-.031.015-.094.078L2.563-2.344l.609-2.5c.078-.265.125-.328.61-.328.171 0 .265 0 .265-.156 0-.047-.031-.11-.125-.11-.14 0-.313.016-.453.016h-.953l-.453-.016c-.047 0-.172 0-.172.141 0 .125.093.125.234.125.219 0 .438 0 .438.11 0 .046 0 .062-.032.171L1.47-.609c-.078.28-.125.343-.61.343-.171 0-.265 0-.265.157C.594-.047.64 0 .719 0c.031 0 .39-.016.453-.031h.484c.672 0 .89.031.938.031s.156 0 .156-.156c0-.11-.094-.11-.234-.11-.25 0-.438 0-.438-.125 0-.046.047-.218.078-.328l.297-1.203 1.25-.969.985 2.25c.046.094.046.11.046.141 0 .203-.187.234-.343.234-.094 0-.188.016-.188.157 0 .062.047.109.11.109.28 0 .578-.031.843-.031.672 0 .64.031.735.031.03 0 .156 0 .156-.156m0 0"/><path id="h" d="M2.828-1.14c0-.11-.11-.11-.156-.11-.125 0-.125.031-.172.172-.14.516-.406.937-.734.937-.157 0-.188-.109-.188-.25 0-.187.063-.328.188-.656l.515-1.39c.063-.172.094-.25.094-.422 0-.438-.312-.657-.656-.657-.75 0-1.078 1.11-1.078 1.22 0 .108.093.108.14.108.14 0 .14-.03.172-.171.125-.407.375-.938.75-.938.14 0 .172.11.172.25 0 .188-.047.344-.156.61L1.156-.953a1.1 1.1 0 0 0-.078.375c0 .36.266.656.672.656.75 0 1.078-1.125 1.078-1.219m.125-3.704a.354.354 0 0 0-.36-.375.55.55 0 0 0-.53.532c0 .234.171.359.359.359.265 0 .531-.234.531-.516m0 0"/><path id="i" d="M4.14-1.14c0-.11-.109-.11-.14-.11-.14 0-.156.047-.187.172-.11.453-.266.937-.61.937-.14 0-.25-.078-.25-.375 0-.125.031-.265.063-.39.03-.125.03-.172.03-.25 0-.563-.546-.75-1.108-.86.296-.187.625-.53.671-.593.454-.5.766-.688 1.063-.688.11 0 .172.063.203.11-.156.03-.344.171-.344.39s.188.266.281.266c.204 0 .407-.14.407-.453 0-.266-.157-.532-.547-.532s-.75.266-1.188.735c-.484.515-.656.594-.796.672l.796-3.188c0-.031.016-.094.016-.125 0-.11-.125-.11-.219-.094l-.828.063c-.11.016-.187.016-.187.156 0 .125.093.125.203.125.375 0 .375.047.375.11a.7.7 0 0 1-.032.171L.657-.266c0 .032-.015.079-.015.11 0 .11.078.234.25.234.14 0 .265-.094.328-.297l.39-1.578c.313.031.891.172.891.656 0 .047 0 .079-.031.188a1 1 0 0 0-.031.25c0 .437.296.781.734.781.36 0 .562-.265.656-.406.188-.297.313-.766.313-.813m0 0"/><path id="j" d="M4.297-2.172c0-.828-.547-1.344-1.266-1.344C2-3.516.921-2.437.921-1.266c0 .875.595 1.344 1.267 1.344 1.062 0 2.109-1.094 2.109-2.25m-.594-.281c0 .265-.125 1.031-.437 1.578-.266.438-.688.734-1.078.734-.297 0-.672-.203-.672-.843 0-.36.172-1.11.422-1.547.343-.578.812-.766 1.078-.766.39 0 .687.297.687.844m0 0"/><path id="k" d="M8.25-.328c0-.047 0-.078-.062-.234l-2.516-7.22c-.188-.515-.531-.515-.766-.515H3.844c-.235 0-.578 0-.766.516L.563-.562C.5-.406.5-.375.5-.328.5 0 .797 0 .969 0h.437c.203 0 .578 0 .75-.484l.469-1.328h3.297l.406 1.156c.156.422.234.656.813.656h.64c.172 0 .469 0 .469-.328m-2.687-2.5H2.969l.875-2.531c.172-.532.328-.985.422-1.422h.015c.063.297.063.312.157.593Zm0 0"/><path id="l" d="M6.25-2.766c0-.562 0-2.843-2.25-2.843-.969 0-1.578.547-1.687.672V-7.72c0-.39-.079-.578-.563-.578h-.453c-.422 0-.563.14-.563.578v7.14C.734-.14.86 0 1.297 0h.484c.203 0 .563 0 .578-.469a1.74 1.74 0 0 0 1.344.594c2.547 0 2.547-2.281 2.547-2.89m-1.625.016c0 .89 0 2.016-1.344 2.016-.5 0-.797-.297-.922-.453v-3.141c.157-.14.516-.422 1.063-.422 1.203 0 1.203 1.11 1.203 2m0 0"/><path id="m" d="M5.672-.578v-3.203c0-1.89-1.828-1.89-2.422-1.89-.562 0-1.156.046-1.953.374-.25.11-.313.14-.313.281 0 .079.063.766.079.875a.17.17 0 0 0 .156.125c.062 0 .093-.03.125-.078.515-.531 1.125-.797 1.86-.797.64 0 .843.391.843 1.094v.422c-.422 0-3.563.031-3.563 1.781C.484-.75 1.156.125 2.22.125c.406 0 1.297-.11 1.86-.937v.234c0 .39.077.578.577.578h.438c.453 0 .578-.156.578-.578M4.047-1.844c0 1.11-1.14 1.11-1.172 1.11-.516 0-.828-.422-.828-.875 0-1.172 1.656-1.266 2-1.266Zm0 0"/><path id="n" d="M2.61-.328v-.922c0-.297-.016-.312-.329-.312H1.36c-.312 0-.312.015-.312.312v.922c0 .312 0 .328.406.328-.078.188-.14.375-.203.578-.078.172-.203.531-.203.531 0 .157.125.157.312.157H1.5c.25 0 .25-.016.375-.203L2.5.078c.11-.172.11-.203.11-.406m0 0"/><path id="o" d="M8.75-4.094c0-2.39-.875-4.468-4-4.468-3.312 0-4.016 2.28-4.016 4.468 0 2.235.766 4.36 4 4.36 3.079 0 4.016-1.907 4.016-4.36M7-4.28C7-3.22 7-.688 4.75-.688c-2.266 0-2.266-2.5-2.266-3.593 0-1.047 0-3.344 2.25-3.344C7-7.625 7-5.359 7-4.281m0 0"/><path id="p" d="M2.672.375v-5.281c0-.375-.078-.563-.563-.563h-.453c-.453 0-.562.157-.562.563V.672c0 .297 0 .781-.719.781-.219 0-.5-.047-.75-.219-.031-.015-.078-.046-.125-.046-.094 0-.11 0-.219.312-.047.125-.125.36-.125.39 0 .22.985.563 1.735.563 1.328 0 1.78-.89 1.78-2.078m0-7.625v-.219c0-.39-.078-.578-.563-.578H1.5c-.453 0-.578.156-.578.578v.219c0 .36.062.578.578.578h.61c.5 0 .562-.219.562-.578m0 0"/><path id="q" d="M5.469-.594c0-.14-.047-.687-.078-.843 0-.032-.032-.157-.141-.157-.047 0-.078 0-.187.125-.204.172-.766.672-1.75.672-1.25 0-1.25-1.219-1.25-1.969 0-.968.062-1.984 1.28-1.984.782 0 1.11.203 1.532.547.14.14.172.14.219.14.125 0 .14-.109.156-.156.016-.093.14-.765.14-.828 0-.11-.077-.156-.28-.25-.579-.266-.938-.375-1.782-.375-1.781 0-2.89.828-2.89 2.922C.438-.766 1.468.125 3.28.125c.313 0 1.031 0 1.828-.406.344-.188.36-.203.36-.313m0 0"/><path id="r" d="M5.266-.437c0-.454-.36-.454-.72-.454L2.72-.875h-.547l2.922-3.687c.125-.157.14-.22.14-.407 0-.5-.375-.5-.578-.5H1.125c-.156 0-.578 0-.578.453 0 .438.39.438.703.438l1.734-.031h.454L.515-.906C.39-.75.375-.687.375-.5c0 .5.36.5.563.5h3.765c.156 0 .563 0 .563-.437m0 0"/><path id="s" d="M5.719-3.11c0-1.546-.703-2.562-2.485-2.562-1.921 0-2.859 1.063-2.859 2.89 0 1.954 1.125 2.907 3 2.907.469 0 1.14-.047 1.938-.453.25-.125.343-.156.343-.313 0-.078-.031-.421-.047-.515-.046-.375-.062-.39-.171-.39-.047 0-.079 0-.204.124a2.7 2.7 0 0 1-1.796.688c-1.36 0-1.5-1.063-1.532-1.828h3.25c.266 0 .563 0 .563-.547m-1.313-.078h-2.5c.047-.734.282-1.624 1.328-1.624.954 0 1.125.687 1.172 1.625m0 0"/><path id="t" d="M2.594 2.234c-.375-.5-1.25-1.64-.64-4.484.609-2.828 1.952-3.969 2.546-4.484h-.594c-1.25.89-2.265 2.422-2.703 4.484-.453 2.14-.031 3.625.813 4.484Zm0 0"/><path id="u" d="M5.703 0 4.516-2.922c.968-.25 1.75-.89 1.906-1.625.203-.922-.688-1.672-1.969-1.672h-2.25L.875 0h.828l.61-2.828h1.421L4.844 0Zm-.062-4.547c-.125.578-.782 1.14-1.891 1.14H2.438l.484-2.28h1.312c1.047 0 1.547.5 1.407 1.14m0 0"/><path id="v" d="m3.703 0 .125-.594H2.484c-.109 0-.218.016-.328.016h-.75L4.453-3.61l.063-.375H1.234l-.125.562h2.282L.344-.39.266 0Zm0 0"/><path id="w" d="M4.563-1.625c.125-.562-.094-1.219-.938-1.547.61-.172 1.281-.656 1.422-1.328.172-.812-.438-1.562-1.453-1.562-1.047 0-1.953.765-2.125 1.562-.14.672.312 1.156.843 1.328C1.298-2.828.845-2.156.72-1.625.516-.641 1.188.203 2.25.203c1.094 0 2.11-.86 2.313-1.828m-.188-2.86c-.11.563-.594 1.016-1.344 1.016-.703 0-1.031-.422-.906-1.015.14-.594.656-1.016 1.344-1.016.734 0 1.031.438.906 1.016m-.594 2.86c-.172.828-.797 1.234-1.39 1.234-.641 0-1.063-.421-.891-1.234.203-.953.953-1.25 1.406-1.25.516 0 1.078.328.875 1.25m0 0"/><path id="x" d="m1.656-.016.172-.75h-.781L.89 0h.234L.641 1.14h.375Zm0 0"/><path id="y" d="m3.922 0 .11-.562H2.89l1.172-5.5h-.188c-.734.578-1.594.578-1.906.578l-.11.562c.25 0 .704 0 1.25-.203L2.125-.562H.985L.858 0Zm0 0"/><path id="z" d="M4.531-1.828c.235-1.11-.375-2-1.328-2-.11 0-.547 0-1.047.36l.375-1.782h2.422l.125-.61h-3.11L1.267-2.53h.64c.438-.656.985-.703 1.157-.703.374 0 .843.28.609 1.406-.235 1.094-.953 1.437-1.5 1.437-.453 0-1.031-.218-1.235-.812L.5-.687c.094.203.547.89 1.563.89 1.124 0 2.234-.906 2.468-2.031m0 0"/><path id="A" d="m5.063-2.172.125-.578H.577l-.125.578Zm0 0"/><path id="B" d="m5.328-5.25.14-.61H1.626l-.14.673H3.25c.11 0 .219-.016.313-.016h1.109C2.953-3.734 1.797-1.922 1.375.094h.797c.5-2.313 1.875-4.203 3.156-5.344m0 0"/><path id="C" d="M3.328-2.25c.453-2.125.031-3.625-.812-4.484h-.578c.39.5 1.25 1.656.64 4.484C1.984.594.625 1.734.031 2.234h.594c1.234-.89 2.266-2.421 2.703-4.484m0 0"/><path id="D" d="M0-6.047h-.266v.14c0 .5-.062.579-.328.673l-4.922 1.859c-.109.047-.171.063-.171.203s.062.172.171.203l4.688 1.781c.219.079.562.25.562.907H0C-.031-.547-.031-.97-.031-1.11c0-.25 0-.5.031-.875h-.266c0 .343-.171.547-.39.547-.063 0-.078 0-.172-.032l-1-.375v-2.172l1.187-.453C-.547-4.5-.5-4.5-.5-4.5c.234 0 .234.406.234.64H0L-.031-5c0-.437 0-.594.031-1.047m-2.094 2.14v1.97l-2.593-1Zm0 0"/><path id="E" d="M-1.719-4.422c-1 0-1.797.828-1.797 1.797 0 .64.344 1.016.485 1.156h-2.5l.093 1.188h.266c0-.547.047-.61.438-.61H0v-.234l-.5-.297a1.32 1.32 0 0 0 .578-1.11c0-1-.781-1.89-1.797-1.89m-.015.719c.187 0 .75 0 1.125.281.359.297.468.672.468.922 0 .39-.203.703-.515.922-.156.094-.156.094-.313.094h-1.547c-.156 0-.171 0-.312-.125a1.26 1.26 0 0 1-.469-.97c0-.405.25-.718.485-.874.218-.14.5-.25 1.078-.25m0 0"/><path id="F" d="M-.719-4.094h-.437v.25h.437c.328 0 .453.11.453.281 0 .297-.359.297-.453.297h-1.656c-.781 0-1.172.75-1.172 1.485 0 .656.25 1.25.781 1.25a.36.36 0 0 0 .375-.375.36.36 0 0 0-.375-.375.356.356 0 0 0-.359.297c-.203-.297-.203-.735-.203-.782 0-.453.312-.89.969-.89h.234c.031.453.047.984.281 1.547.313.703.766.843 1.032.843.687 0 .89-.812.89-1.359a1.23 1.23 0 0 0-.64-1.11c.296-.046.609-.25.609-.609 0-.078-.031-.75-.766-.75m-.406 1.438c.781 0 .984.64.984.969 0 .406-.28.765-.671.765-.516 0-1.063-.5-1.094-1.734Zm-3.094.015-1.218 1.016c-.125.11-.125.219-.125.25 0 .14.14.313.312.313.14 0 .203-.063.266-.157l.937-1.25Zm0 0"/><path id="G" d="M-.031-1.719c-.438 0-.86.172-.86.547 0 .266.22.438.438.438.25 0 .453-.172.453-.438 0-.187-.094-.297-.125-.312.25 0 .89 0 1.469.593.015.032.031.047.078.047.078 0 .125-.062.125-.11 0-.093-.625-.765-1.578-.765m0 0"/><path id="H" d="M-3.953-5.281c-.781 0-1.485.843-1.485 1.984v2.938h.266v-.188c0-.61.078-.625.375-.625H-.64c.297 0 .375.016.375.625v.188H0l-.031-1.172L0-2.703h-.266v.172c0 .61-.078.625-.375.625h-1.843V-3.36c0-.97-.625-1.922-1.47-1.922m0 .828c.344 0 1.234 0 1.234 1.36v1.218h-2.14c-.266 0-.313-.016-.313-.39v-.829c0-1.36.86-1.36 1.219-1.36m0 0"/><path id="I" d="M-.719-4.094h-.437v.25h.437c.328 0 .453.11.453.281 0 .297-.359.297-.453.297h-1.656c-.781 0-1.172.75-1.172 1.485 0 .656.25 1.25.781 1.25a.36.36 0 0 0 .375-.375.36.36 0 0 0-.375-.375.356.356 0 0 0-.359.297c-.203-.297-.203-.735-.203-.782 0-.453.312-.89.969-.89h.234c.031.453.047.984.281 1.547.313.703.766.843 1.032.843.687 0 .89-.812.89-1.359a1.23 1.23 0 0 0-.64-1.11c.296-.046.609-.25.609-.609 0-.078-.031-.75-.766-.75m-.406 1.438c.781 0 .984.64.984.969 0 .406-.28.765-.671.765-.516 0-1.063-.5-1.094-1.734Zm0 0"/><path id="J" d="M0-4.422h-.266c0 .547-.046.61-.437.61h-4.828l.093 1.187h.266c0-.531.047-.61.438-.61h1.687a1.4 1.4 0 0 0-.469 1.079c0 1 .782 1.875 1.797 1.875.985 0 1.797-.797 1.797-1.797 0-.469-.219-.86-.5-1.125h.5Zm-.984 1.219c.14 0 .172 0 .328.125.328.219.515.578.515.953s-.187.688-.484.875c-.312.219-.703.266-1.078.266-.469 0-.797-.079-1.063-.266a1.15 1.15 0 0 1-.53-.953c0-.375.202-.766.608-1Zm0 0"/><path id="K" d="M-3.016-3.062c-.28 0-.5.25-.5.609 0 .515.391.875.844 1.031v.016h-.844l.094 1.125h.266c0-.547.047-.61.437-.61h2.094c.36 0 .36.11.36.61H0c-.031-.313-.031-.75-.031-.938 0-.468 0-.484.031-1h-.266v.156c0 .579-.078.594-.375.594h-1.171c-.61 0-1.47-.25-1.485-1.015.031.046.094.14.281.14.25 0 .36-.203.36-.36 0-.187-.125-.358-.36-.358m0 0"/><path id="L" d="M-.953-3.516a.12.12 0 0 0-.11.125c0 .094.047.11.094.125.782.282.797.97.797 1.11 0 .36-.156.734-.531.969-.36.234-.875.234-1.11.234v-2.344c0-.172 0-.219-.187-.219-.703 0-1.547.391-1.547 1.516 0 .984.813 1.766 1.797 1.766 1.031 0 1.828-.86 1.828-1.875 0-1-.844-1.407-1.031-1.407m-1.078.547v2.016c-1.11-.078-1.297-.75-1.297-1.047 0-.937 1.125-.969 1.297-.969m0 0"/><path id="M" d="M-1.719-4.422c-1 0-1.797.813-1.797 1.781 0 .313.079.766.5 1.172h-.5l.094 1.188h.266c0-.563.047-.61.375-.61H.922c.36 0 .36.11.36.61h.265c-.031-.344-.031-.688-.031-.906 0-.235 0-.563.03-.907h-.265c0 .516 0 .61-.36.61H-.39a1.37 1.37 0 0 0 .47-1.047c0-1-.782-1.89-1.798-1.89m0 .719c.907 0 1.578.578 1.578 1.219 0 .28-.125.64-.515.906-.14.094-.156.094-.297.094h-1.703a1.3 1.3 0 0 1-.61-1.094c0-.61.672-1.125 1.547-1.125m0 0"/><path id="N" d="M-.437-1.625a.453.453 0 0 0-.454.453c0 .266.22.438.438.438A.44.44 0 0 0 0-1.172a.45.45 0 0 0-.437-.453m0 0"/><path id="O" d="M-1.594-3.797c-.922 0-1.75.672-1.75 1.61 0 .39.125.765.406 1.078h-1.546c.03-.11.125-.422.125-.766 0-1-.703-1.594-.828-1.594-.094 0-.11.047-.11.094 0 0 0 .031.031.094.125.312.22.687.22 1.11 0 .468-.11.858-.22 1.108-.03.079-.03.11-.03.11 0 .094.077.094.234.094h2.328c.14 0 .234 0 .234-.125 0-.063-.031-.079-.094-.125-.11-.094-.515-.391-.515-1.078 0-.438.359-.657.515-.735.281-.125.656-.14.953-.14s.735 0 1.079.218c.25.156.484.485.484.906 0 .516-.313 1.016-.844 1.204.016-.016.016-.079.016-.079 0-.218-.14-.406-.39-.406a.39.39 0 0 0-.407.39c0 .157.078.407.422.407.718 0 1.453-.625 1.453-1.531 0-1-.781-1.844-1.766-1.844m0 0"/><path id="P" d="M0 6.047h.266v-.14c0-.5.062-.579.328-.673l4.922-1.859c.109-.047.172-.062.172-.203 0-.14-.063-.172-.172-.203L.828 1.188C.61 1.109.266.938.266.28H0c.031.266.031.688.031.828 0 .25 0 .5-.031.875h.266c0-.343.172-.546.39-.546a.4.4 0 0 1 .172.03l1 .376v2.172l-1.187.453C.547 4.5.5 4.5.5 4.5c-.234 0-.234-.406-.234-.64H0L.031 5c0 .438 0 .594-.031 1.047m2.094-2.14v-1.97l2.594 1Zm0 0"/><path id="Q" d="M1.719 4.422c1 0 1.797-.828 1.797-1.797 0-.64-.344-1.016-.485-1.156h2.5L5.438.28h-.266c0 .547-.047.61-.438.61H0v.234l.5.297a1.32 1.32 0 0 0-.578 1.11c0 1 .781 1.89 1.797 1.89m.015-.719c-.187 0-.75 0-1.125-.281C.25 3.125.141 2.75.141 2.5c0-.39.203-.703.515-.922.156-.094.156-.094.313-.094h1.547c.156 0 .172 0 .312.125.297.235.469.61.469.97 0 .405-.25.718-.485.874-.218.14-.5.25-1.078.25m0 0"/><path id="R" d="M.719 4.094h.437v-.25H.72c-.328 0-.453-.11-.453-.281 0-.297.359-.297.453-.297h1.656c.781 0 1.172-.75 1.172-1.485 0-.656-.25-1.25-.781-1.25a.36.36 0 0 0-.375.375c0 .219.156.375.375.375a.356.356 0 0 0 .359-.297c.203.297.203.735.203.782 0 .453-.312.89-.969.89h-.234c-.031-.453-.047-.984-.281-1.547C1.53.406 1.078.266.813.266c-.688 0-.891.812-.891 1.359 0 .578.328.938.64 1.11-.296.046-.609.25-.609.609 0 .078.031.75.766.75m.406-1.438c-.781 0-.984-.64-.984-.969 0-.406.28-.765.672-.765.515 0 1.062.5 1.093 1.734Zm4.125.516c.172 0 .313-.172.313-.313 0-.03 0-.14-.125-.25l-1.22-1.015-.171.172.937 1.25c.063.078.125.156.266.156m0 0"/><path id="S" d="M3.953 5.281c.781 0 1.485-.843 1.485-1.984V.359h-.266v.188c0 .61-.078.625-.375.625H.64c-.297 0-.375-.016-.375-.625V.359H0l.031 1.172L0 2.703h.266v-.172c0-.61.078-.625.375-.625h1.843V3.36c0 .97.625 1.922 1.47 1.922m0-.828c-.344 0-1.234 0-1.234-1.36V1.876h2.14c.266 0 .313.016.313.39v.829c0 1.36-.86 1.36-1.219 1.36m0 0"/><path id="T" d="M.719 4.094h.437v-.25H.72c-.328 0-.453-.11-.453-.281 0-.297.359-.297.453-.297h1.656c.781 0 1.172-.75 1.172-1.485 0-.656-.25-1.25-.781-1.25a.36.36 0 0 0-.375.375c0 .219.156.375.375.375a.356.356 0 0 0 .359-.297c.203.297.203.735.203.782 0 .453-.312.89-.969.89h-.234c-.031-.453-.047-.984-.281-1.547C1.53.406 1.078.266.813.266c-.688 0-.891.812-.891 1.359 0 .578.328.938.64 1.11-.296.046-.609.25-.609.609 0 .078.031.75.766.75m.406-1.438c-.781 0-.984-.64-.984-.969 0-.406.28-.765.672-.765.515 0 1.062.5 1.093 1.734Zm0 0"/><path id="U" d="M0 4.422h.266c0-.547.046-.61.437-.61h4.828l-.093-1.187h-.266c0 .531-.047.61-.438.61H3.047c.312-.282.469-.657.469-1.079 0-1-.782-1.875-1.797-1.875-.985 0-1.797.797-1.797 1.797 0 .469.219.86.5 1.125h-.5Zm.984-1.219c-.14 0-.171 0-.328-.125a1.15 1.15 0 0 1-.515-.953c0-.375.187-.687.484-.875.313-.219.703-.266 1.078-.266.469 0 .797.079 1.063.266.297.188.53.547.53.953 0 .375-.202.766-.608 1Zm0 0"/><path id="V" d="M3.016 3.063c.28 0 .5-.25.5-.61 0-.515-.391-.875-.844-1.031v-.016h.844L3.422.281h-.266c0 .547-.047.61-.437.61H.625C.265.89.265.78.265.28H0c.031.313.031.75.031.938 0 .468 0 .484-.031 1h.266v-.156c0-.579.078-.594.375-.594h1.172c.609 0 1.468.25 1.484 1.015-.031-.046-.094-.14-.281-.14-.25 0-.36.203-.36.36 0 .187.125.358.36.358m0 0"/><path id="W" d="M.953 3.516a.12.12 0 0 0 .11-.125c0-.094-.047-.11-.094-.125a1.14 1.14 0 0 1-.797-1.11c0-.36.156-.734.531-.969.36-.234.875-.234 1.11-.234v2.344c0 .172 0 .219.187.219.703 0 1.547-.391 1.547-1.516 0-.984-.813-1.766-1.797-1.766-1.031 0-1.828.86-1.828 1.875 0 1 .844 1.407 1.031 1.407m1.078-.547V.953c1.11.078 1.297.75 1.297 1.047 0 .938-1.125.969-1.297.969m0 0"/><path id="X" d="M1.719 4.422c1 0 1.797-.813 1.797-1.781 0-.313-.079-.766-.5-1.172h.5L3.422.28h-.266c0 .563-.047.61-.375.61H-.922c-.36 0-.36-.11-.36-.61h-.265c.031.344.031.688.031.907 0 .234 0 .562-.03.906h.265c0-.516 0-.61.36-.61H.39a1.37 1.37 0 0 0-.47 1.047c0 1 .782 1.89 1.798 1.89m0-.719C.812 3.703.14 3.125.14 2.484c0-.28.125-.64.515-.906.14-.094.156-.094.297-.094h1.703c.313.188.61.594.61 1.094 0 .61-.672 1.125-1.547 1.125m0 0"/><path id="Y" d="M.438 1.625a.453.453 0 0 0 .453-.453.436.436 0 0 0-.438-.438.44.44 0 0 0-.453.438.45.45 0 0 0 .438.453m0 0"/><path id="Z" d="M5.125 4.11V2.077c0-.203.016-.437.031-.64.032-.422.11-.422.235-.454v-.25L3.703.47v.25c.125.015.672.11.735.219.046.078.046.687.046.796v1.688l-1.109-.813C2.172 1.703.906 1.5.281 1.5c-.078 0-.453 0-.453.375s.36.375.453.375h.39c1.142 0 2.079.203 2.61.594L4.86 4.03c.079.078.094.078.266.078m0 0"/><path id="aa" d="M13.61-7.687v-.516l-1.297.031c-.344 0-1.22 0-1.5-.031v.515c.14 0 1.187 0 1.187.172 0 0 0 .032-.047.141L9.938-2.047l-2.126-5.64h1.125v-.516c-.374.031-1.484.031-1.937.031-.375 0-1.531 0-1.828-.031v.515h1.016l.484 1.297-1.64 4.344-2.126-5.64h1.125v-.516c-.343.031-1.515.031-1.953.031-.375 0-1.515 0-1.812-.031v.515h1L4.109-.171c.079.203.11.281.375.281.266 0 .297-.078.375-.28l2.079-5.5 2.093 5.5c.063.202.094.28.36.28.234 0 .297-.046.375-.28L12.5-7.407c.094-.203.11-.282 1.11-.282m0 0"/><path id="ao" d="M9.953 0v-.516h-.312c-.657 0-.703-.062-.813-.218L5.61-5.047l2.844-2.406c.156-.14.266-.234 1.328-.234v-.516L8.5-8.172c-.36 0-1.297 0-1.594-.031v.515c.266 0 .547.016.86.141l-4.47 3.813v-3.953h1.267v-.516c-.344.031-1.625.031-2.047.031-.438 0-1.72 0-2.063-.031v.515H1.72v7.172H.453V0c.344-.031 1.625-.031 2.063-.031.422 0 1.703 0 2.047.031v-.516H3.297v-2.562L4.53-4.125l2.5 3.344c.016.031.063.094.063.14 0 .125-.578.125-.844.125V0c.39-.031 1.5-.031 1.953-.031.36 0 1.485 0 1.75.031m0 0"/><path id="bd" d="M6.328 0v-.516H5.172v-1.359h1.156v-.516H5.172v-5.125c0-.296-.016-.343-.313-.343-.203 0-.234 0-.375.172L.375-2.391v.516h3.39v1.36H2.47V0C2.813-.031 4-.031 4.422-.031c.406 0 1.594 0 1.906.031M3.875-2.39H.922l2.953-3.797Zm0 0"/><path id="be" d="M6.14-2.469c0-1.672-1.156-2.547-2.577-2.547-.235 0-1 0-1.485 1.016v-.328c0-.734.031-1.469.375-2.11.266-.5.875-.968 1.64-.968.235 0 .657.031.954.328-.453.047-.64.39-.64.703 0 .438.312.703.702.703.313 0 .704-.203.704-.719 0-.718-.485-1.453-1.735-1.453-1.5 0-3.516.938-3.516 4.047 0 .813 0 3.938 2.829 3.938 1.578 0 2.75-.922 2.75-2.61m-1.515 0c0 1.172 0 2.14-1.25 2.14-.75 0-1.062-.655-1.11-.75-.156-.39-.156-1.343-.156-1.452 0-1.469.625-2.094 1.329-2.094 1.187 0 1.187.953 1.187 2.156m0 0"/><path id="ab" d="M7.266-6.625c.109-.437.125-.844-.125-1.156-.328-.453-.953-.547-1.578-.547-.938 0-1.922.25-2.75.922-.547.406-.954.922-1.282 1.484A8 8 0 0 0 .688-3.75C.53-3.14.438-2.516.484-1.953c.047.5.157.953.438 1.312.39.532 1.047.813 1.797.813.812 0 1.719-.203 2.437-.781.235-.188.422-.422.578-.641l-.406-.562-.156.078c-.156.359-.36.734-.688 1-.406.312-.906.5-1.359.5-.531 0-.969-.25-1.234-.61-.282-.375-.407-.86-.438-1.344-.062-.593.031-1.234.188-1.859.172-.687.39-1.36.75-2.016.25-.468.578-.906 1.03-1.265a2.96 2.96 0 0 1 1.845-.625c.406 0 .812.11 1.03.406.22.297.204.656.11 1.063-.11.422-.312.875-.687 1.187-.297.234-.625.39-.969.39-.14 0-.328 0-.422-.124-.11-.14-.047-.36.047-.547.078-.172.156-.36.078-.5-.078-.094-.203-.125-.344-.125s-.296.016-.421.125a.8.8 0 0 0-.235.437c-.062.266-.047.516.094.688.25.328.703.406 1.156.406.531 0 1.125-.172 1.594-.562.5-.407.828-.953.969-1.516m0 0"/><path id="ag" d="M7.656-6.953c.094-.344.047-.656-.14-.906-.282-.391-.985-.47-1.375-.47-.891 0-1.766.22-2.657.813-.718.485-1.218 1.282-1.421 2.079-.172.718-.235 1.453.156 1.984.406.531 1.094.781 1.844.781.593 0 1.25-.172 1.828-.531l-.25 1.14c-.125.516-.328.97-.578 1.47-.22.374-.5.75-.86 1.046-.469.39-1.031.656-1.578.656-.36 0-.719-.062-.922-.328-.11-.156-.11-.375-.11-.593.016-.157.016-.329-.062-.438a.34.34 0 0 0-.281-.125.75.75 0 0 0-.469.14.84.84 0 0 0-.265.407.98.98 0 0 0 .172.89c.28.391.812.485 1.359.485.984 0 1.984-.406 2.86-1.11.452-.359.78-.812 1.03-1.328.36-.718.61-1.468.797-2.234l.391-1.578-.672.156c-.156.344-.5.828-.687.969-.47.39-1 .547-1.532.547-.5 0-.89-.219-1.156-.563-.36-.484-.312-1.187-.14-1.86a3.62 3.62 0 0 1 1.265-1.952 2.5 2.5 0 0 1 1.547-.516c.297 0 .719.11.922.406.14.188.219.407.14.672-.046.219-.125.469-.328.64-.28.22-.546.25-.828.25l-.093.204c.187.031.468.11.53.11.36 0 .704-.188 1.016-.438.297-.25.47-.563.547-.875m0 0"/><path id="am" d="m10.344-8.156-.172-.11-.375.422c-.14.14-.36.266-.563.266-.078 0-.25-.031-.359-.047a18 18 0 0 1-1.687-.36l.078-.327-.063-.047-.672.297a10 10 0 0 0-.718-.047c-.954 0-1.813.187-2.657.859-.531.438-1.015 1-1.172 1.61-.046.202-.078.406.032.546.093.094.172.172.328.172.125 0 .265-.094.375-.172a.63.63 0 0 0 .219-.36c.03-.124.015-.296.015-.421.016-.172.016-.312.078-.469.047-.187.375-.61.656-.843.563-.438 1.126-.563 1.72-.563a4.5 4.5 0 0 1 .921.094l-.86 3.172H3.704l-.25.343h1.938l-.282 1.047c-.125.422-.25.844-.484 1.25a3 3 0 0 1-.687.875c-.407.375-.97.672-1.47.672-.312 0-.609-.078-.78-.312a1.1 1.1 0 0 1-.188-.407c-.094-.437-.14-.453-.312-.453a.73.73 0 0 0-.438.14c-.125.11-.203.204-.234.345-.063.25-.032.5.125.672.234.328.609.484 1.062.484.969 0 2.031-.39 2.844-1.094.437-.375.672-.687.906-1.094.281-.5.469-1.015.61-1.546l.14-.579h1.469l.344-.343H6.28l.766-2.97c.156.063.937.329 1.422.47.156.062.344.109.5.109.25 0 .531-.219.703-.422Zm0 0"/><path id="ap" d="M5.953-1.703c0-.125-.11-.125-.14-.125-.125 0-.141.047-.172.219-.203.765-.422 1.484-.907 1.484-.328 0-.359-.312-.359-.562s.031-.36.156-.875l.266-1.079.422-1.671c.093-.344.093-.36.093-.407 0-.203-.156-.328-.359-.328-.281 0-.453.266-.5.531-.203-.437-.562-.765-1.094-.765-1.406 0-2.875 1.75-2.875 3.5 0 1.125.657 1.906 1.579 1.906.25 0 .843-.047 1.562-.89.094.5.516.89 1.078.89.422 0 .703-.266.89-.656.204-.422.36-1.172.36-1.172M4.313-3.97c0 .078-.016.14-.032.203l-.593 2.344c-.063.219-.063.234-.25.438-.516.656-1.016.859-1.344.859-.594 0-.766-.656-.766-1.125 0-.61.375-2.078.656-2.625.375-.703.907-1.14 1.391-1.14.766 0 .938.968.938 1.046m0 0"/><path id="az" d="M6.172-8.156s0-.14-.156-.14c-.188 0-1.313.108-1.516.14-.094 0-.172.062-.172.219 0 .14.11.14.281.14.579 0 .61.094.61.203l-.047.25-.719 2.828c-.203-.437-.562-.765-1.094-.765-1.406 0-2.875 1.75-2.875 3.5 0 1.125.657 1.906 1.579 1.906.25 0 .843-.047 1.562-.89.094.5.516.89 1.078.89.422 0 .703-.266.89-.656.204-.422.36-1.172.36-1.172 0-.125-.11-.125-.14-.125-.125 0-.141.047-.172.219-.203.765-.422 1.484-.907 1.484-.328 0-.359-.312-.359-.562 0-.282.031-.36.078-.563ZM4.312-3.97c0 .078-.015.14-.03.203l-.594 2.344c-.063.219-.063.234-.25.438-.516.656-1.016.859-1.344.859-.594 0-.766-.656-.766-1.125 0-.61.375-2.078.656-2.625.375-.703.907-1.14 1.391-1.14.766 0 .938.968.938 1.046m0 0"/><path id="aJ" d="M6.828-7.234c.063-.282.016-.578-.125-.75-.234-.328-.672-.407-1.125-.407-.719 0-1.406.094-2.062.625-.438.344-.766.829-.891 1.313-.11.469-.11.937.14 1.266.172.25.47.421.782.53l-.031.126a3.46 3.46 0 0 0-1.766.734C1.172-3.328.734-2.719.563-2.062.438-1.532.438-.984.734-.61c.204.265.516.437.829.562.406.14.859.188 1.328.188.89 0 1.797-.328 2.578-.953.11-.079.265-.297.39-.454l-.39-.578-.157.032c-.125.343-.312.656-.593.875-.469.375-1 .656-1.532.656-.562 0-1.14-.094-1.437-.5-.297-.39-.312-.922-.187-1.469.14-.547.453-1.062.921-1.437.344-.266.782-.407 1.157-.5.562-.125 1.109-.157 1.672-.157l.062-.312c-.406 0-.797-.032-1.172-.14-.25-.063-.5-.173-.656-.391-.219-.282-.266-.704-.172-1.125.14-.516.453-1.032.89-1.391.298-.25.688-.313 1.032-.313.281 0 .469.063.61.204a.5.5 0 0 1 .109.468c-.047.203-.157.328-.266.453-.078.094-.14.172-.187.282a.36.36 0 0 0 .03.234c.079.094.126.094.266.094s.422-.078.625-.266c.22-.234.282-.437.344-.687m0 0"/><path id="aV" d="M6 0v-4.484C6-6.281 4.203-8.22 2.172-8.937c-.031-.016-.063-.032-.11-.032a.324.324 0 0 0-.312.313c0 .14.094.25.203.297 1.656.609 2.828 2.406 2.828 3.875V0Zm0 0"/><path id="aW" d="M6 0v-8.937H4.781V0Zm0 0"/><path id="aX" d="M9.031-8.969a.31.31 0 0 0-.203-.281C7.156-9.86 6-11.812 6-13.453v-4.469H4.781v4.469c0 1.765 1.438 3.594 3.172 4.484-1.734.906-3.172 2.735-3.172 4.485V0H6v-4.484c0-1.641 1.156-3.578 2.828-4.188a.33.33 0 0 0 .203-.297m0 0"/><path id="aY" d="M6-4.484V-8.97H4.781v4.485c0 1.468-1.172 3.28-2.828 3.89a.31.31 0 0 0-.203.282c0 .171.156.312.313.312.046 0 .078-.016.109-.031C4.203-.75 6-2.671 6-4.484m0 0"/><path id="ba" d="M7.453-.172a.245.245 0 0 0 0-.344L4.984-2.984l2.47-2.485c.093-.093.093-.25 0-.328-.079-.094-.235-.094-.329 0L4.656-3.328 2.172-5.797c-.094-.094-.25-.094-.328 0-.094.078-.094.234 0 .328l2.468 2.485L1.845-.516a.245.245 0 0 0 0 .344c.078.094.234.094.328 0l2.484-2.484L7.125-.172c.094.094.25.094.328 0m0 0"/><path id="ac" d="M7.406 0 4.391-8.297H3.328L.328 0h.875l.875-2.422h3.375L6.328 0ZM5.203-3.094h-2.86l1.423-4.344Zm0 0"/><path id="ad" d="M5.563-2.672c0-1.469-.782-2.75-1.891-2.75-.344 0-1.11.063-1.86.672v-3.547H.939V0h.906v-.531c.547.515 1.125.656 1.547.656 1.14 0 2.172-1.172 2.172-2.797m-.907 0c0 1.563-.968 2.078-1.703 2.078-.328 0-.562-.125-.781-.297-.281-.25-.328-.453-.328-.656V-4.03c.218-.328.64-.672 1.234-.672.719 0 1.578.547 1.578 2.031m0 0"/><path id="ae" d="M4.797 0v-3.5c0-1.156-.828-1.984-1.938-1.984-.718 0-1.25.172-1.843.5l.078.78c.515-.374 1.062-.593 1.765-.593.547 0 1.032.453 1.032 1.313v.5c-.547.015-1.266.062-1.985.297C1.11-2.422.641-1.97.641-1.375c0 .531.312 1.5 1.328 1.5.656 0 1.5-.203 1.937-.562V0ZM3.89-1.61c0 .25 0 .532-.407.766-.312.203-.718.25-.906.25-.64 0-1.078-.343-1.078-.797 0-.812 1.656-.984 2.39-.984Zm0 0"/><path id="af" d="M2.11-.016v-.953h-.97V0h.298L1.14 1.5h.468Zm0 0"/><path id="ah" d="M7.969-4.125c0-2.531-1.719-4.422-3.657-4.422-1.984 0-3.671 1.922-3.671 4.422C.64-1.609 2.375.25 4.297.25c1.984 0 3.672-1.875 3.672-4.375m-1.032-.172C6.938-1.953 5.658-.5 4.313-.5c-1.39 0-2.64-1.5-2.64-3.797 0-2.203 1.297-3.516 2.625-3.516 1.375 0 2.64 1.344 2.64 3.516m0 0"/><path id="ai" d="M2.14.703v-6.015h-.89v6.14c0 .781-.625.86-.875.86-.531 0-.86-.344-.875-.375l-.234.718c.375.235.859.406 1.406.406.75 0 1.469-.624 1.469-1.734m0-7.5v-1.016H1.11v1.016Zm0 0"/><path id="aj" d="M4.86-.5c0-.031-.032-.406-.048-.453l-.015-.344a2.8 2.8 0 0 1-1.828.672c-1 0-1.64-.875-1.64-2.047 0-.984.484-2.078 1.671-2.078.797 0 1.14.203 1.656.547l.14-.781c-.702-.407-1.093-.5-1.796-.5-1.656 0-2.578 1.453-2.578 2.812C.422-1.14 1.516.125 2.953.125c.578 0 1.25-.156 1.906-.625m0 0"/><path id="ak" d="M4.703 0v-.734H2.984c-.14 0-.28.015-.421.015H1.547l3.11-4.125v-.468H.483v.703h2.953L.329-.484V0Zm0 0"/><path id="al" d="M4.86-2.687c0-.516-.048-1.25-.423-1.876-.5-.828-1.328-.921-1.671-.921C1.469-5.484.39-4.25.39-2.687.39-1.11 1.547.124 2.92.124c.563 0 1.22-.156 1.876-.64 0-.047-.047-.438-.047-.438s-.031-.281-.031-.328c-.703.593-1.407.687-1.766.687-.922 0-1.703-.828-1.734-2.093Zm-.704-.641h-2.86c.204-.813.767-1.438 1.47-1.438.359 0 1.187.157 1.39 1.438m0 0"/><path id="an" d="M2.344-8.297h-.969l.094 6.235h.781Zm0 8.297v-.969h-.969V0Zm0 0"/><path id="aq" d="M7.094 0v-8.297h-.907V-.89h-.015l-.969-2-2.64-5.406h-1.47V0h.923v-7.406l.968 2L5.625 0Zm0 0"/><path id="ar" d="M1.813 0v-5.312H.938V0Zm.078-6.797v-1.016H.859v1.016Zm0 0"/><path id="as" d="M5.484-2.625c0-1.625-1.187-2.86-2.562-2.86-1.406 0-2.563 1.266-2.563 2.86 0 1.563 1.188 2.75 2.563 2.75 1.406 0 2.562-1.219 2.562-2.75m-.906-.125c0 1.469-.844 2.125-1.656 2.125-.86 0-1.656-.719-1.656-2.125 0-1.453.89-2.016 1.656-2.016.812 0 1.656.625 1.656 2.016m0 0"/><path id="at" d="m3.89-.344-.171-.703c-.422.375-.86.422-1.078.422-.532 0-.594-.562-.594-.984v-3h1.64v-.703h-1.64v-1.516h-.828v1.516h-1v.703h.969v3.203c0 .703.156 1.531.984 1.531.797 0 1.36-.281 1.719-.469m0 0"/><path id="au" d="M3.797-4.625v-.797c-1.078 0-1.719.64-2.047 1.11V-5.36H.938V0h.875v-2.625c0-1.203.906-1.984 1.984-2m0 0"/><path id="av" d="M5.172-5.312h-.89c-.548 1.421-1.47 3.765-1.516 4.625H2.75c-.062-.72-.687-2.282-.797-2.532L1.11-5.312H.172L2.39 0l-.422 1.094c-.266.593-.438.656-.657.656-.171 0-.546-.047-.921-.187l.078.78c.062.016.469.095.844.095.296 0 .843 0 1.359-1.313Zm0 0"/><path id="aw" d="M8.328 0v-3.594c0-.828-.219-1.828-1.61-1.828-1.015 0-1.577.703-1.765.969-.203-.766-.86-.969-1.484-.969-.985 0-1.5.625-1.703.875v-.812H.922V0h.906v-2.969c0-.797.313-1.734 1.188-1.734 1.093 0 1.156.75 1.156 1.187V0h.906v-2.969c0-.797.313-1.734 1.188-1.734 1.093 0 1.156.75 1.156 1.187V0Zm0 0"/><path id="ax" d="M1.813 0v-8.297H.938V0Zm0 0"/><path id="ay" d="M4.203-1.516c0-.609-.36-1-.406-1.046-.453-.47-.813-.532-1.531-.672-.438-.094-1.047-.203-1.047-.813 0-.734.843-.734 1-.734.625 0 1.125.14 1.656.437l.14-.765a3.9 3.9 0 0 0-1.687-.375c-.265 0-1.937 0-1.937 1.547 0 .53.297.89.468 1.062.438.36.735.422 1.438.563.39.093 1.078.234 1.078.859 0 .828-.922.828-1.094.828A3.12 3.12 0 0 1 .47-1.219l-.14.813c.046.031.859.531 1.968.531 1.547 0 1.906-.937 1.906-1.64m-.312-6.78h-.922l-1.547 2h.719Zm0 0"/><path id="aA" d="M5.063 0v-8.297h-.891v3.485a2.65 2.65 0 0 0-1.688-.61c-1.14 0-2.062 1.219-2.062 2.766S1.297.125 2.437.125c.438 0 1.11-.156 1.704-.734V0ZM4.14-1.406c-.282.515-.703.812-1.22.812-.733 0-1.593-.562-1.593-2.047 0-1.593 1.016-2.062 1.703-2.062.469 0 .86.234 1.11.625Zm0 0"/><path id="aB" d="M5.063 0v-5.312h-.907v3.421c0 .907-.625 1.36-1.406 1.36-.844 0-.922-.313-.922-.844v-3.937H.922v3.984c0 .86.265 1.453 1.25 1.453.344 0 1.281-.062 2.015-.719V0Zm0 0"/><path id="aC" d="M5.063 0v-3.594c0-.734-.157-1.828-1.594-1.828-.828 0-1.375.469-1.656.813v-3.688H.922V0h.906v-2.969c0-.75.281-1.734 1.188-1.734 1.109 0 1.14.766 1.14 1.187V0Zm0 0"/><path id="aD" d="M5.063 0v-3.594c0-.734-.157-1.828-1.594-1.828-.672 0-1.25.297-1.703.875v-.812H.922V0h.906v-2.969c0-.75.281-1.734 1.188-1.734 1.109 0 1.14.766 1.14 1.187V0Zm0 0"/><path id="aE" d="M7.766-5.312H6.89l-.703 2.437c-.172.563-.516 1.688-.563 2.203-.047-.281-.234-1.078-.484-1.937l-.797-2.703H3.53L2.844-2.97c-.219.75-.5 1.781-.531 2.282h-.016c-.016-.235-.14-.86-.375-1.672l-.844-2.953H.172L1.766 0h.922c.453-1.5 1.156-3.781 1.218-4.61h.016c.015.485.265 1.344.344 1.626L5.109 0h1.063Zm0 0"/><path id="aF" d="M5.469 0 3.25-3.266l1.969-2.046h-1.11L1.813-2.906v-5.39H.938V0h.828v-1.719l.906-.953L4.5 0Zm0 0"/><path id="aG" d="M5.484-2.625c0-1.625-1.187-2.86-2.562-2.86-1.406 0-2.563 1.266-2.563 2.86 0 1.563 1.188 2.75 2.563 2.75 1.406 0 2.562-1.219 2.562-2.75m-.906-.125c0 1.469-.844 2.125-1.656 2.125-.86 0-1.656-.719-1.656-2.125 0-1.453.89-2.016 1.656-2.016.812 0 1.656.625 1.656 2.016m-.016-5.547h-.906l-1.547 2h.72Zm0 0"/><path id="aH" d="M4.703 0v-.734H2.984c-.14 0-.28.015-.421.015H1.547l3.11-4.125v-.468H.483v.703h2.953L.329-.484V0ZM3.047-6.797v-1.016H2.016v1.016Zm0 0"/><path id="aI" d="M4.86-.5c0-.031-.032-.406-.048-.453l-.015-.344a2.8 2.8 0 0 1-1.828.672c-1 0-1.64-.875-1.64-2.047 0-.984.484-2.078 1.671-2.078.797 0 1.14.203 1.656.547l.14-.781c-.702-.407-1.093-.5-1.796-.5-1.656 0-2.578 1.453-2.578 2.812C.422-1.14 1.516.125 2.953.125c.578 0 1.25-.156 1.906-.625M4.5-8.297h-.922l-1.547 2h.719Zm0 0"/><path id="aK" d="M4.703 0v-.734H2.984c-.14 0-.28.015-.421.015H1.547l3.11-4.125v-.468H.483v.703h2.953L.329-.484V0Zm-.516-8.297h-.906l-1.562 2h.718Zm0 0"/><path id="aL" d="M2.11 0v-.969h-.97V0Zm0 0"/><path id="aM" d="M5.844-2.266c0-.765-.375-1.328-.625-1.625-.563-.593-1-.718-1.797-.921-.813-.204-1.11-.266-1.375-.516-.156-.172-.485-.469-.485-1 0-.734.657-1.438 1.72-1.438 1.015 0 1.546.391 1.984.766l.172-.953c-.485-.266-1.094-.594-2.157-.594-1.594 0-2.64 1.14-2.64 2.344 0 .844.515 1.39.578 1.453.593.61 1 .703 1.75.906 1.031.25 1.187.297 1.578.688.203.219.375.594.375 1.015 0 .829-.672 1.594-1.703 1.594a3.75 3.75 0 0 1-2.516-1l-.172.969A4.9 4.9 0 0 0 3.22.25C4.75.25 5.844-.937 5.844-2.266m0 0"/><path id="aN" d="M7.75-4.078c0-2.328-1.578-4.219-3.594-4.219H1.094V0h3.062c2 0 3.594-1.812 3.594-4.078m-1-.016c0 2.188-1.328 3.422-2.86 3.422H2.095v-6.953H3.89c1.593 0 2.859 1.375 2.859 3.531m0 0"/><path id="aO" d="m6.875-.531-.078-.844c-.313.234-.672.484-1.063.61-.375.124-.78.14-1.187.14-.766 0-1.469-.422-1.938-1.031-.546-.703-.796-1.594-.796-2.485 0-.906.25-1.796.796-2.5.47-.609 1.172-1.03 1.938-1.03.36 0 .719.03 1.062.14.344.125.672.297.97.515l.171-1a5.6 5.6 0 0 0-1.078-.312 5.6 5.6 0 0 0-1.125-.094c-1.031 0-1.984.469-2.656 1.25C1.14-6.344.78-5.266.78-4.14c0 1.094.36 2.188 1.11 3.016.672.766 1.625 1.25 2.656 1.25.406 0 .812-.016 1.219-.125.406-.125.765-.328 1.109-.531m0 0"/><path id="aP" d="M4.203-1.516c0-.609-.36-1-.406-1.046-.453-.47-.813-.532-1.531-.672-.438-.094-1.047-.203-1.047-.813 0-.734.843-.734 1-.734.625 0 1.125.14 1.656.437l.14-.765a3.9 3.9 0 0 0-1.687-.375c-.265 0-1.937 0-1.937 1.547 0 .53.297.89.468 1.062.438.36.735.422 1.438.563.39.093 1.078.234 1.078.859 0 .828-.922.828-1.094.828A3.12 3.12 0 0 1 .47-1.219l-.14.813c.046.031.859.531 1.968.531 1.547 0 1.906-.937 1.906-1.64m0 0"/><path id="aQ" d="M5.563-2.672c0-1.437-.75-2.75-1.875-2.75-.485 0-1.25.156-1.876.672v-.562H.939v7.625h.906V-.531c.406.36.906.656 1.547.656 1.156 0 2.172-1.172 2.172-2.797m-.907.016c0 1.203-.812 2.062-1.703 2.062-.328 0-.562-.125-.781-.297-.297-.25-.328-.468-.328-.656v-2.469a1.47 1.47 0 0 1 1.219-.671c.874 0 1.593.89 1.593 2.03m0 0"/><path id="aR" d="m5.672-4.703-.125-.719c-.234 0-1.047 0-1.828.39-.39-.327-.875-.39-1.11-.39-1.046 0-1.875.875-1.875 1.922 0 .422.125.828.391 1.188a1.64 1.64 0 0 0-.344 1.015c0 .453.156.75.297.906C.468 0 .328.516.328.844c0 .875 1.125 1.61 2.594 1.61 1.453 0 2.594-.704 2.594-1.61 0-1.688-1.938-1.688-2.422-1.688H2.078c-.172 0-.672 0-.672-.625 0-.265.047-.343.11-.437.203.14.593.343 1.078.343 1.031 0 1.875-.859 1.875-1.937a2.13 2.13 0 0 0-.36-1.156 7 7 0 0 1 .954-.063c.046 0 .312 0 .609.016M3.64-3.5c0 1.063-.672 1.281-1.032 1.281-.53 0-1.062-.36-1.062-1.265 0-1.063.672-1.282 1.047-1.282.531 0 1.047.36 1.047 1.266M4.688.844c0 .562-.829.953-1.766.953-.922 0-1.766-.375-1.766-.953 0-.047 0-.813.907-.813h1.046c.266 0 1.579 0 1.579.813m0 0"/><path id="aT" d="M7.11-2.25c0-1.047-1.032-1.89-2.266-2.094 1.39-.375 1.937-1.172 1.937-1.875 0-1.078-1.218-2.078-2.906-2.078H1.109V0h3.094C5.875 0 7.11-1.078 7.11-2.25M5.86-6.203c0 .844-1.032 1.531-2.298 1.531H2.079v-2.953h1.469c1.281 0 2.312.625 2.312 1.422m.312 3.937c0 .844-.969 1.594-2.313 1.594H2.08v-3.281h1.593c1.547 0 2.5.86 2.5 1.687m0 0"/><path id="aU" d="m3.688-5.36-.485-.515-.828.719v-3.14H1.5v3.874L.328-3.375l.453.547.719-.656V0h.875v-4.234Zm0 0"/><path id="aS" d="M4.344-5.125H2.25c-.312 0-.406-.016-.687-.031-.422-.047-.438-.094-.454-.235H.844L.563-3.687h.265c.016-.11.094-.641.219-.72.062-.046.719-.046.828-.046h1.75l-.844 1.047C1.75-2.031 1.656-.766 1.656-.296c0 .093 0 .452.375.452s.375-.36.375-.453v-.328c0-1.547.313-2.25.656-2.687l1.204-1.5c.078-.094.078-.11.078-.313m0 0"/><path id="aZ" d="m5.266 0 .156-.812H3.297c-.14 0-.281.015-.422.015H1.594A77 77 0 0 1 4.25-2.922c1.047-.765 1.953-1.515 2.188-2.61.28-1.327-.375-2.546-1.954-2.546-1.296 0-2.125.844-2.687 1.953.266.484.266.5.344.656.578-1.281 1.14-1.875 2.03-1.875 1.032 0 1.516.813 1.298 1.828-.125.625-.516 1.313-1.485 2.11L.734-.75.578 0Zm0 0"/><path id="bf" d="M5.547 0v-.25h-.125c-.469 0-.516-.078-.594-.266L3.125-4.812c-.031-.11-.062-.157-.187-.157-.141 0-.157.047-.204.157L1.125-.734C1.063-.562.938-.25.313-.25V0c.234-.016.484-.031.718-.031.282 0 .797.031.844.031v-.25c-.312 0-.516-.14-.516-.328 0-.063.016-.078.047-.14l.328-.86H3.72l.406 1.016c0 .03.031.078.031.109 0 .203-.375.203-.562.203V0l1.031-.031c.328 0 .86.031.922.031M3.609-1.828H1.83l.89-2.266Zm0 0"/><path id="bg" d="M4.047 0v-.25c-.469 0-.516-.047-.516-.39v-4.204l-1.047.078v.25c.47 0 .516.063.516.391v1.453a1.37 1.37 0 0 0-.969-.406c-.937 0-1.703.703-1.703 1.578S1.062.063 1.938.063c.578 0 .921-.297 1.03-.422v.422ZM2.969-.734c-.172.328-.531.609-.985.609-.39 0-.671-.234-.812-.437-.14-.204-.219-.485-.219-.922 0-.172 0-.688.281-1.016.282-.312.625-.375.829-.375.328 0 .64.156.828.406.078.11.078.11.078.25Zm0 0"/><path id="bh" d="M5.469-2.75V-3c-.188.016-.313.031-.5.031-.219 0-.485-.015-.688-.031v.25c.235 0 .36.14.36.297 0 .062 0 .078-.047.172L3.922-.547l-.75-1.906a.3.3 0 0 1-.031-.125c0-.156.172-.172.375-.172V-3c-.25.016-.5.031-.75.031-.203 0-.422-.015-.625-.031v.25c.172 0 .312 0 .406.047.094.078.156.312.156.312s-.015.063-.031.079L2.016-.641l-.703-1.812c-.032-.094-.032-.094-.032-.125 0-.172.25-.172.375-.172V-3s-.515.031-.797.031C.641-2.969.422-2.984.203-3v.25c.281 0 .438 0 .5.203l.969 2.453c.047.11.062.157.203.157.125 0 .14-.047.172-.141l.797-1.984.765 1.968c.047.094.063.157.204.157.124 0 .14-.047.187-.157l.875-2.234c.14-.344.375-.422.594-.422m0 0"/><path id="bi" d="M3.266-.844c0-.015-.016-.094-.125-.094-.094 0-.11.047-.125.11-.22.562-.75.672-1 .672-.328 0-.641-.14-.844-.406-.266-.329-.266-.75-.266-1.032h2.157c.156 0 .203 0 .203-.14 0-.625-.344-1.375-1.391-1.375a1.59 1.59 0 0 0-1.61 1.578c0 .89.782 1.594 1.704 1.594.937 0 1.297-.75 1.297-.907m-.485-.922H.906c.078-.984.703-1.14.969-1.14.86 0 .89.969.906 1.14m0 0"/><path id="bj" d="M4.11 0v-.25c-.454 0-.516 0-.516-.297v-1.562c0-.61-.297-.97-1.047-.97-.578 0-.938.313-1.14.688v-.687L.374-3v.25c.469 0 .531.047.531.39v1.813c0 .297-.078.297-.531.297V0s.5-.031.797-.031c.25 0 .734.031.797.031v-.25c-.453 0-.516 0-.516-.297v-1.265c0-.72.578-1.063 1.031-1.063.485 0 .547.375.547.734v1.594c0 .297-.062.297-.515.297V0s.5-.031.797-.031c.25 0 .734.031.796.031m0 0"/><path id="bk" d="M2.61-.875v-.39h-.235v.374c0 .485-.219.735-.5.735-.469 0-.469-.578-.469-.703V-2.75h1.078V-3H1.406v-1.281h-.25c0 .625-.281 1.312-.953 1.328v.203h.64v1.875c0 .781.595.938.985.938.469 0 .781-.391.781-.938m0 0"/><path id="bl" d="M3.516-1.266H3.28c-.015.157-.094.563-.187.625-.047.047-.578.047-.688.047H1.125c.734-.64.984-.843 1.39-1.172.516-.406 1-.843 1-1.5 0-.843-.734-1.359-1.624-1.359-.86 0-1.453.61-1.453 1.25 0 .344.296.39.375.39.156 0 .359-.124.359-.374 0-.125-.047-.375-.406-.375.218-.485.687-.641 1.015-.641.703 0 1.063.547 1.063 1.11 0 .609-.438 1.078-.656 1.328L.516-.266C.437-.203.437-.187.437 0h2.876Zm0 0"/><path id="bm" d="M3.594-2.219c0-.765-.094-1.328-.406-1.812-.22-.313-.657-.594-1.204-.594C.36-4.625.36-2.719.36-2.219s0 2.36 1.625 2.36c1.61 0 1.61-1.86 1.61-2.36m-.625-.094c0 .516 0 1.032-.094 1.47-.14.64-.61.78-.89.78-.329 0-.75-.187-.891-.75C1-1.219 1-1.796 1-2.312c0-.515 0-1.046.094-1.421.156-.547.593-.703.89-.703.375 0 .735.234.86.64.11.375.125.875.125 1.485m0 0"/><path id="bn" d="M3.516-1.406c0-.782-.594-1.5-1.453-1.5-.313 0-.672.062-.985.328v-1.313c.36.094.563.094.672.094.922 0 1.469-.625 1.469-.734 0-.078-.047-.094-.078-.094 0 0-.032 0-.063.016-.172.062-.531.203-1.047.203-.203 0-.562-.016-1.015-.188-.079-.031-.094-.031-.094-.031-.094 0-.094.078-.094.188v2.046c0 .125 0 .204.11.204.062 0 .078 0 .14-.094.297-.375.734-.438.969-.438.422 0 .61.328.64.39.126.235.172.5.172.907 0 .203 0 .61-.218.922a.98.98 0 0 1-.813.422c-.453 0-.922-.25-1.094-.719.266.016.407-.156.407-.344 0-.296-.266-.343-.36-.343 0 0-.343 0-.343.375 0 .625.578 1.25 1.406 1.25.89 0 1.672-.657 1.672-1.547m0 0"/><path id="bo" d="M7.813-1.75v-.203H.109v.203Zm0 0"/><path id="bp" d="M3.578-2.297c0-1.719-.765-2.328-1.578-2.328a1.55 1.55 0 0 0-1.11.422c-.234.234-.515.5-.515 1.125 0 .89.703 1.547 1.516 1.547.562 0 .859-.375 1.015-.688v.14c0 1.735-.844 2-1.265 2-.157 0-.532-.015-.72-.233a.315.315 0 0 0 .313-.329.32.32 0 0 0-.328-.328c-.203 0-.328.14-.328.344 0 .469.39.766 1.063.766 1 0 1.937-.938 1.937-2.438M2.891-3c0 .906-.516 1.266-.953 1.266-.282 0-.532-.079-.735-.407-.156-.25-.156-.546-.156-.937 0-.406 0-.672.203-.953.172-.25.39-.39.75-.39s.578.218.688.405c.187.282.203.782.203 1.016m0 0"/><path id="bq" d="M2.516 0v-.25h-.172c-.578 0-.578-.078-.578-.328v-3.61c0-.234 0-.328.578-.328h.172v-.25l-1.078.032-1.079-.032v.25h.172c.578 0 .578.094.578.329v3.609c0 .25 0 .328-.578.328H.36V0l1.079-.031Zm0 0"/><path id="br" d="M3.578-1.422c0-.89-.703-1.547-1.515-1.547-.563 0-.86.375-1.016.688 0-.563.047-1.078.312-1.516.235-.375.61-.625 1.063-.625.203 0 .484.047.625.234-.172.016-.328.141-.328.344a.32.32 0 0 0 .328.328c.219 0 .344-.14.344-.343 0-.407-.297-.766-.985-.766-1 0-2.031.922-2.031 2.422C.375-.406 1.219.14 2 .14c.844 0 1.578-.657 1.578-1.563m-.672 0c0 .39 0 .688-.187.969A.82.82 0 0 1 2-.078c-.36 0-.625-.203-.781-.516-.094-.203-.157-.562-.157-.968 0-.688.407-1.204.97-1.204.312 0 .53.125.702.375.172.266.172.563.172.97m0 0"/><path id="bs" d="M2.016 1.734v-.328h-.72V-4.89h.72v-.328H.953v6.953Zm0 0"/><path id="bt" d="M3.688-1.14v-.25h-.782V-4.5c0-.14 0-.203-.14-.203-.094 0-.125 0-.188.11L.266-1.392v.25h2.062v.563c0 .25 0 .328-.578.328h-.187V0l1.046-.031L3.672 0v-.25h-.188c-.578 0-.578-.078-.578-.328v-.563Zm-1.313-.25H.531l1.844-2.548Zm0 0"/><path id="bu" d="M1.531-.39a.403.403 0 0 0-.406-.407.4.4 0 0 0-.406.39c0 .25.203.407.406.407a.4.4 0 0 0 .406-.39m0 0"/><path id="bv" d="M1.297 1.734v-6.953H.219v.328h.734v6.297H.22v.328Zm0 0"/><path id="bw" d="M4.563 0v-.437H3.266v-5.157c0-.187 0-.297-.266-.297-.11 0-.125 0-.203.063-.688.516-1.656.516-1.828.516H.797v.437h.172a4.2 4.2 0 0 0 1.203-.172v4.61H.89V0c.343-.031 1.422-.031 1.828-.031.422 0 1.484 0 1.844.031m0 0"/><path id="bx" d="M4.86-2.953c0-.469-.032-1.39-.485-2.094-.297-.437-.828-.844-1.719-.844-1.281 0-2.218.72-2.218 1.938 0 1.125.765 1.937 2.093 1.937.406 0 .781-.203 1.063-.687v.172c0 .578-.063 1.156-.235 1.531-.109.234-.468.703-1.171.703-.079 0-.454 0-.735-.187a.55.55 0 0 0 .422-.563c0-.375-.281-.578-.578-.578-.25 0-.594.14-.594.594 0 .61.469 1.14 1.5 1.14 1.25 0 2.656-.796 2.656-3.062m-1.266-.89c0 .406-.172 1.452-1.031 1.452-.86 0-.86-.656-.86-1.53 0-.876 0-1.61.984-1.61.563 0 .766.515.797.593.11.297.11.782.11 1.094m0 0"/><path id="by" d="M4.766-2.016h-.453c-.016.125-.094.766-.235.829-.11.046-.781.046-.937.046H1.859c.485-.39 1.016-.812 1.47-1.125.75-.53 1.437-1.015 1.437-1.89 0-1.047-.953-1.735-2.25-1.735-1.11 0-1.985.532-1.985 1.36 0 .468.36.687.672.687a.65.65 0 0 0 .656-.672c0-.203-.078-.53-.468-.64.312-.25.718-.282.89-.282.735 0 1.203.547 1.203 1.282 0 .656-.375 1.234-.859 1.718l-2 1.985c-.094.094-.094.11-.094.281V0H4.5Zm0 0"/><clipPath id="b"><path d="M.535.266h6.883v9.636H.535Zm0 0"/></clipPath><clipPath id="a"><path d="M0 0h8v10H0z"/></clipPath><clipPath id="bb"><path d="M15.023 568.348H403v11.336H15.023Zm0 0"/></clipPath><linearGradient id="bc" x1="0" x2="388.063" y1="0" y2="0" gradientTransform="matrix(1 0 0 -1 15.024 579.685)" gradientUnits="userSpaceOnUse"><stop offset="0" stop-color="#f2f2f2"/><stop offset=".25" stop-color="#f2f2f2"/><stop offset=".313" stop-color="#f2f2f2"/><stop offset=".344" stop-color="#f2f2f2"/><stop offset=".359" stop-color="#f3f3f3"/><stop offset=".363" stop-color="#f4f4f4"/><stop offset=".367" stop-color="#f5f5f5"/><stop offset=".371" stop-color="#f6f6f6"/><stop offset=".375" stop-color="#f7f7f7"/><stop offset=".379" stop-color="#f8f8f8"/><stop offset=".383" stop-color="#f9f9f9"/><stop offset=".387" stop-color="#fafafa"/><stop offset=".391" stop-color="#fbfbfb"/><stop offset=".395" stop-color="#fcfcfc"/><stop offset=".398" stop-color="#fcfcfc"/><stop offset=".406" stop-color="#fcfcfc"/><stop offset=".438" stop-color="#fcfcfc"/><stop offset=".5" stop-color="#fcfcfc"/><stop offset=".563" stop-color="#fcfcfc"/><stop offset=".566" stop-color="#fcfcfc"/><stop offset=".57" stop-color="#fbfbfb"/><stop offset=".574" stop-color="#fafafa"/><stop offset=".578" stop-color="#f9f9f9"/><stop offset=".582" stop-color="#f8f8f8"/><stop offset=".586" stop-color="#f7f7f7"/><stop offset=".59" stop-color="#f6f6f6"/><stop offset=".594" stop-color="#f5f5f5"/><stop offset=".598" stop-color="#f4f4f4"/><stop offset=".602" stop-color="#f3f3f3"/><stop offset=".609" stop-color="#f3f3f3"/><stop offset=".625" stop-color="#f2f2f2"/><stop offset=".75" stop-color="#f2f2f2"/><stop offset="1" stop-color="#f2f2f2"/></linearGradient><g id="c" clip-path="url(#a)"><g clip-path="url(#b)"><path fill-rule="evenodd" d="m3.977 7.836 3.441 2.066V1.645c0-.762-.617-1.38-1.375-1.38H1.914C1.152.266.535.884.535 1.646v8.257Zm-2.754.851 2.754-1.652L6.73 8.687V1.646a.69.69 0 0 0-.687-.692H1.914a.69.69 0 0 0-.691.692Zm0 0"/></g></g></defs><use xlink:href="#c" transform="translate(9 27)"/><use xlink:href="#d" x="17.008" y="23.315"/><use xlink:href="#e" x="20.884" y="23.315"/><use xlink:href="#f" x="26.154" y="23.315"/><use xlink:href="#g" x="384.039" y="23.315"/><use xlink:href="#h" x="390.168" y="23.315"/><use xlink:href="#i" x="392.79" y="23.315"/><use xlink:href="#j" x="396.727" y="23.315"/><use xlink:href="#k" x="144.355" y="34.908"/><use xlink:href="#l" x="153.118" y="34.908"/><use xlink:href="#l" x="159.825" y="34.908"/><use xlink:href="#m" x="166.532" y="34.908"/><use xlink:href="#n" x="172.808" y="34.908"/><use xlink:href="#o" x="180.854" y="34.908"/><use xlink:href="#p" x="190.346" y="34.908"/><use xlink:href="#q" x="193.765" y="34.908"/><use xlink:href="#r" x="199.611" y="34.908"/><use xlink:href="#s" x="205.302" y="34.908"/><use xlink:href="#t" x="220.378" y="34.908"/><use xlink:href="#u" x="223.964" y="34.908"/><use xlink:href="#v" x="229.936" y="34.908"/><use xlink:href="#w" x="235.289" y="34.908"/><use xlink:href="#x" x="239.897" y="34.908"/><use xlink:href="#y" x="243.806" y="34.908"/><use xlink:href="#z" x="248.415" y="34.908"/><use xlink:href="#A" x="253.023" y="34.908"/><use xlink:href="#y" x="257.632" y="34.908"/><use xlink:href="#B" x="262.24" y="34.908"/><use xlink:href="#C" x="266.849" y="34.908"/><path fill="none" stroke="#000" stroke-miterlimit="10" stroke-width=".398" d="M17.008 39.293h384.094"/><use xlink:href="#D" x="399.042" y="101.268"/><use xlink:href="#E" x="399.042" y="94.924"/><use xlink:href="#E" x="399.042" y="90.222"/><use xlink:href="#F" x="399.042" y="85.519"/><use xlink:href="#G" x="399.042" y="81.287"/><use xlink:href="#H" x="399.042" y="76.115"/><use xlink:href="#I" x="399.042" y="70.583"/><use xlink:href="#J" x="399.042" y="66.351"/><use xlink:href="#K" x="399.042" y="61.649"/><use xlink:href="#L" x="399.042" y="58.35"/><use xlink:href="#M" x="399.042" y="51.774"/><use xlink:href="#N" x="399.042" y="47.072"/><use xlink:href="#O" x="399.042" y="44.721"/><use xlink:href="#P" x="403.164" y="40.487"/><use xlink:href="#Q" x="403.164" y="46.831"/><use xlink:href="#Q" x="403.164" y="51.533"/><use xlink:href="#R" x="403.164" y="56.236"/><use xlink:href="#S" x="403.164" y="63.281"/><use xlink:href="#T" x="403.164" y="68.812"/><use xlink:href="#U" x="403.164" y="73.044"/><use xlink:href="#V" x="403.164" y="77.747"/><use xlink:href="#W" x="403.164" y="81.046"/><use xlink:href="#X" x="403.164" y="87.622"/><use xlink:href="#Y" x="403.164" y="92.324"/><use xlink:href="#Z" x="403.164" y="94.675"/><use xlink:href="#aa" x="112.908" y="61.174"/><use xlink:href="#ab" x="132.777" y="51.089" fill="red"/><use xlink:href="#ac" x="132.777" y="61.174"/><use xlink:href="#ad" x="140.512" y="61.174"/><use xlink:href="#ad" x="146.513" y="61.174"/><use xlink:href="#ae" x="152.515" y="61.174"/><use xlink:href="#af" x="158.122" y="61.174"/><use xlink:href="#ag" x="165.271" y="51.089" fill="red"/><use xlink:href="#ah" x="165.271" y="61.174"/><use xlink:href="#ai" x="173.903" y="61.174"/><use xlink:href="#aj" x="176.987" y="61.174"/><use xlink:href="#ak" x="182.187" y="61.174"/><use xlink:href="#al" x="187.268" y="61.174"/><use xlink:href="#af" x="192.469" y="61.174"/><use xlink:href="#am" x="199.619" y="51.089" fill="red"/><use xlink:href="#ah" x="199.619" y="61.174"/><use xlink:href="#ai" x="208.251" y="61.174"/><use xlink:href="#ab" x="211.335" y="51.089" fill="red"/><use xlink:href="#aj" x="211.335" y="61.174"/><use xlink:href="#ak" x="216.535" y="61.174"/><use xlink:href="#al" x="221.616" y="61.174"/><use xlink:href="#an" x="226.817" y="61.174"/><use xlink:href="#ao" x="116.267" y="88.796"/><use xlink:href="#ap" x="132.777" y="78.71" fill="red"/><use xlink:href="#aq" x="132.777" y="88.796"/><use xlink:href="#ar" x="140.978" y="88.796"/><use xlink:href="#al" x="143.728" y="88.796"/><use xlink:href="#as" x="152.826" y="88.796"/><use xlink:href="#at" x="158.683" y="88.796"/><use xlink:href="#au" x="162.916" y="88.796"/><use xlink:href="#ak" x="166.897" y="88.796"/><use xlink:href="#av" x="171.977" y="88.796"/><use xlink:href="#aw" x="177.333" y="88.796"/><use xlink:href="#ae" x="186.586" y="88.796"/><use xlink:href="#ax" x="192.193" y="88.796"/><use xlink:href="#ar" x="194.943" y="88.796"/><use xlink:href="#ay" x="197.693" y="88.796"/><use xlink:href="#aw" x="202.176" y="88.796"/><use xlink:href="#av" x="211.429" y="88.796"/><use xlink:href="#az" x="132.777" y="100.354" fill="red"/><use xlink:href="#aA" x="132.777" y="110.439"/><use xlink:href="#aB" x="138.778" y="110.439"/><use xlink:href="#aj" x="144.78" y="110.439"/><use xlink:href="#aC" x="149.98" y="110.439"/><use xlink:href="#ae" x="155.982" y="110.439"/><use xlink:href="#aD" x="165.486" y="110.439"/><use xlink:href="#ar" x="171.487" y="110.439"/><use xlink:href="#al" x="174.237" y="110.439"/><use xlink:href="#aE" x="179.437" y="110.439"/><use xlink:href="#as" x="187.077" y="110.439"/><use xlink:href="#ax" x="192.935" y="110.439"/><use xlink:href="#ap" x="195.685" y="100.354" fill="red"/><use xlink:href="#aD" x="195.685" y="110.439"/><use xlink:href="#ar" x="201.686" y="110.439"/><use xlink:href="#aF" x="204.436" y="110.439"/><use xlink:href="#aG" x="209.792" y="110.439"/><use xlink:href="#aE" x="215.327" y="110.439"/><use xlink:href="#af" x="223.289" y="110.439"/><use xlink:href="#am" x="132.777" y="121.998" fill="red"/><use xlink:href="#ad" x="132.777" y="132.083"/><use xlink:href="#av" x="138.456" y="132.083"/><use xlink:href="#ak" x="147.709" y="132.083"/><use xlink:href="#aD" x="152.79" y="132.083"/><use xlink:href="#as" x="158.791" y="132.083"/><use xlink:href="#aE" x="164.326" y="132.083"/><use xlink:href="#aB" x="172.288" y="132.083"/><use xlink:href="#aH" x="182.187" y="132.083"/><use xlink:href="#av" x="187.268" y="132.083"/><use xlink:href="#aI" x="192.624" y="132.083"/><use xlink:href="#aE" x="201.721" y="132.083"/><use xlink:href="#ad" x="213.581" y="132.083"/><use xlink:href="#as" x="219.905" y="132.083"/><use xlink:href="#aJ" x="225.765" y="121.998" fill="red"/><use xlink:href="#ai" x="225.765" y="132.083"/><use xlink:href="#ae" x="228.849" y="132.083"/><use xlink:href="#aK" x="234.456" y="132.083"/><use xlink:href="#aD" x="239.537" y="132.083"/><use xlink:href="#ar" x="245.539" y="132.083"/><use xlink:href="#af" x="248.288" y="132.083"/><use xlink:href="#am" x="132.777" y="143.641" fill="red"/><use xlink:href="#ad" x="132.777" y="153.727"/><use xlink:href="#av" x="138.456" y="153.727"/><use xlink:href="#ak" x="147.709" y="153.727"/><use xlink:href="#aD" x="152.79" y="153.727"/><use xlink:href="#as" x="158.791" y="153.727"/><use xlink:href="#aE" x="164.326" y="153.727"/><use xlink:href="#aB" x="172.288" y="153.727"/><use xlink:href="#aH" x="182.187" y="153.727"/><use xlink:href="#av" x="187.268" y="153.727"/><use xlink:href="#aI" x="192.624" y="153.727"/><use xlink:href="#aE" x="201.721" y="153.727"/><use xlink:href="#ad" x="213.581" y="153.727"/><use xlink:href="#as" x="219.905" y="153.727"/><use xlink:href="#aJ" x="225.765" y="143.641" fill="red"/><use xlink:href="#ai" x="225.765" y="153.727"/><use xlink:href="#ae" x="228.849" y="153.727"/><use xlink:href="#aK" x="234.456" y="153.727"/><use xlink:href="#aD" x="239.537" y="153.727"/><use xlink:href="#ar" x="245.539" y="153.727"/><use xlink:href="#aL" x="248.288" y="153.727"/><use xlink:href="#aa" x="112.908" y="181.348"/><use xlink:href="#ap" x="132.777" y="171.262" fill="red"/><use xlink:href="#aM" x="132.777" y="181.348"/><use xlink:href="#ae" x="139.281" y="181.348"/><use xlink:href="#aw" x="144.887" y="181.348"/><use xlink:href="#aN" x="158.038" y="181.348"/><use xlink:href="#aB" x="166.454" y="181.348"/><use xlink:href="#aj" x="172.456" y="181.348"/><use xlink:href="#aC" x="177.656" y="181.348"/><use xlink:href="#aO" x="187.555" y="181.348"/><use xlink:href="#aC" x="195.039" y="181.348"/><use xlink:href="#au" x="201.04" y="181.348"/><use xlink:href="#av" x="205.021" y="181.348"/><use xlink:href="#aP" x="210.377" y="181.348"/><use xlink:href="#at" x="214.86" y="181.348"/><use xlink:href="#aB" x="219.092" y="181.348"/><use xlink:href="#aP" x="225.094" y="181.348"/><use xlink:href="#ae" x="229.577" y="181.348"/><use xlink:href="#az" x="132.777" y="192.906" fill="red"/><use xlink:href="#aE" x="132.777" y="202.991"/><use xlink:href="#aP" x="140.739" y="202.991"/><use xlink:href="#aQ" x="145.222" y="202.991"/><use xlink:href="#ar" x="151.224" y="202.991"/><use xlink:href="#al" x="153.973" y="202.991"/><use xlink:href="#au" x="159.174" y="202.991"/><use xlink:href="#ae" x="163.155" y="202.991"/><use xlink:href="#aP" x="172.659" y="202.991"/><use xlink:href="#aE" x="177.142" y="202.991"/><use xlink:href="#av" x="185.104" y="202.991"/><use xlink:href="#aw" x="190.46" y="202.991"/><use xlink:href="#ay" x="203.61" y="202.991"/><use xlink:href="#aE" x="208.094" y="202.991"/><use xlink:href="#ar" x="216.056" y="202.991"/><use xlink:href="#ae" x="218.805" y="202.991"/><use xlink:href="#ap" x="224.414" y="192.906" fill="red"/><use xlink:href="#aA" x="224.414" y="202.991"/><use xlink:href="#al" x="230.415" y="202.991"/><use xlink:href="#aj" x="235.616" y="202.991"/><use xlink:href="#at" x="240.816" y="202.991"/><use xlink:href="#aE" x="244.726" y="202.991"/><use xlink:href="#al" x="252.365" y="202.991"/><use xlink:href="#aw" x="257.565" y="202.991"/><use xlink:href="#am" x="132.777" y="214.55" fill="red"/><use xlink:href="#aD" x="132.777" y="224.635"/><use xlink:href="#ae" x="138.778" y="224.635"/><use xlink:href="#aP" x="144.385" y="224.635"/><use xlink:href="#ak" x="148.868" y="224.635"/><use xlink:href="#al" x="153.949" y="224.635"/><use xlink:href="#aR" x="159.15" y="224.635"/><use xlink:href="#as" x="165.008" y="224.635"/><use xlink:href="#aJ" x="174.764" y="214.55" fill="red"/><use xlink:href="#aA" x="174.764" y="224.635"/><use xlink:href="#aB" x="180.765" y="224.635"/><use xlink:href="#aj" x="186.767" y="224.635"/><use xlink:href="#aC" x="191.967" y="224.635"/><use xlink:href="#ae" x="197.969" y="224.635"/><use xlink:href="#af" x="203.576" y="224.635"/><use xlink:href="#aJ" x="132.777" y="236.193" fill="red"/><use xlink:href="#aS" x="140.106" y="231.854" fill="red"/><use xlink:href="#aH" x="132.777" y="246.279"/><use xlink:href="#al" x="137.858" y="246.279"/><use xlink:href="#ai" x="146.956" y="246.279"/><use xlink:href="#al" x="150.04" y="246.279"/><use xlink:href="#aP" x="155.24" y="246.279"/><use xlink:href="#at" x="159.724" y="246.279"/><use xlink:href="#al" x="163.956" y="246.279"/><use xlink:href="#ay" x="169.156" y="246.279"/><use xlink:href="#aw" x="173.639" y="246.279"/><use xlink:href="#av" x="182.892" y="246.279"/><use xlink:href="#aA" x="192.146" y="246.279"/><use xlink:href="#ak" x="198.147" y="246.279"/><use xlink:href="#ar" x="203.228" y="246.279"/><use xlink:href="#al" x="205.977" y="246.279"/><use xlink:href="#aI" x="211.178" y="246.279"/><use xlink:href="#aw" x="216.378" y="246.279"/><use xlink:href="#ar" x="225.632" y="246.279"/><use xlink:href="#ap" x="232.28" y="236.193" fill="red"/><use xlink:href="#aT" x="232.28" y="246.279"/><use xlink:href="#as" x="240.051" y="246.279"/><use xlink:href="#aR" x="245.909" y="246.279"/><use xlink:href="#ae" x="251.767" y="246.279"/><use xlink:href="#af" x="257.374" y="246.279"/><use xlink:href="#ae" x="132.777" y="273.9"/><use xlink:href="#ai" x="142.281" y="273.9"/><use xlink:href="#al" x="145.366" y="273.9"/><use xlink:href="#ag" x="150.567" y="263.815" fill="red"/><use xlink:href="#aS" x="158.756" y="259.475" fill="red"/><use xlink:href="#aH" x="150.567" y="273.9"/><use xlink:href="#al" x="155.648" y="273.9"/><use xlink:href="#ax" x="160.848" y="273.9"/><use xlink:href="#ar" x="163.598" y="273.9"/><use xlink:href="#aA" x="170.245" y="273.9"/><use xlink:href="#ak" x="176.246" y="273.9"/><use xlink:href="#ar" x="181.327" y="273.9"/><use xlink:href="#al" x="184.077" y="273.9"/><use xlink:href="#aI" x="189.277" y="273.9"/><use xlink:href="#aw" x="194.478" y="273.9"/><use xlink:href="#ar" x="203.731" y="273.9"/><use xlink:href="#af" x="206.481" y="273.9"/><use xlink:href="#at" x="132.777" y="295.544"/><use xlink:href="#as" x="137.009" y="295.544"/><use xlink:href="#ar" x="146.764" y="295.544"/><use xlink:href="#ab" x="153.412" y="285.458" fill="red"/><use xlink:href="#aA" x="153.412" y="295.544"/><use xlink:href="#ak" x="159.413" y="295.544"/><use xlink:href="#ar" x="164.494" y="295.544"/><use xlink:href="#al" x="167.244" y="295.544"/><use xlink:href="#aA" x="172.444" y="295.544"/><use xlink:href="#ak" x="178.446" y="295.544"/><use xlink:href="#ar" x="183.527" y="295.544"/><use xlink:href="#aj" x="186.276" y="295.544"/><use xlink:href="#ae" x="191.477" y="295.544"/><use xlink:href="#aw" x="197.084" y="295.544"/><use xlink:href="#ar" x="206.337" y="295.544"/><use xlink:href="#af" x="209.086" y="295.544"/><use xlink:href="#aE" x="132.777" y="317.187"/><use xlink:href="#aP" x="140.739" y="317.187"/><use xlink:href="#aQ" x="145.222" y="317.187"/><use xlink:href="#aG" x="151.546" y="317.187"/><use xlink:href="#aU" x="157.404" y="317.187"/><use xlink:href="#aA" x="160.835" y="317.187"/><use xlink:href="#ak" x="166.837" y="317.187"/><use xlink:href="#ar" x="171.918" y="317.187"/><use xlink:href="#al" x="174.667" y="317.187"/><use xlink:href="#aA" x="179.868" y="317.187"/><use xlink:href="#ak" x="185.869" y="317.187"/><use xlink:href="#ar" x="190.95" y="317.187"/><use xlink:href="#aj" x="193.7" y="317.187"/><use xlink:href="#ae" x="198.9" y="317.187"/><use xlink:href="#aw" x="204.507" y="317.187"/><use xlink:href="#ar" x="213.76" y="317.187"/><use xlink:href="#aO" x="220.407" y="317.187"/><use xlink:href="#aC" x="227.891" y="317.187"/><use xlink:href="#au" x="233.892" y="317.187"/><use xlink:href="#av" x="237.873" y="317.187"/><use xlink:href="#aJ" x="243.231" y="307.102" fill="red"/><use xlink:href="#aS" x="250.56" y="302.762" fill="red"/><use xlink:href="#aP" x="243.231" y="317.187"/><use xlink:href="#at" x="247.714" y="317.187"/><use xlink:href="#aB" x="251.946" y="317.187"/><use xlink:href="#aP" x="257.948" y="317.187"/><use xlink:href="#ae" x="262.431" y="317.187"/><use xlink:href="#af" x="268.038" y="317.187"/><use xlink:href="#aA" x="132.777" y="338.831"/><use xlink:href="#ak" x="138.778" y="338.831"/><use xlink:href="#ar" x="143.859" y="338.831"/><use xlink:href="#al" x="146.609" y="338.831"/><use xlink:href="#aA" x="151.809" y="338.831"/><use xlink:href="#ak" x="157.811" y="338.831"/><use xlink:href="#ar" x="162.892" y="338.831"/><use xlink:href="#aj" x="165.641" y="338.831"/><use xlink:href="#ae" x="170.842" y="338.831"/><use xlink:href="#aw" x="176.449" y="338.831"/><use xlink:href="#ar" x="185.702" y="338.831"/><use xlink:href="#ap" x="192.35" y="328.746" fill="red"/><use xlink:href="#aT" x="192.35" y="338.831"/><use xlink:href="#as" x="200.121" y="338.831"/><use xlink:href="#aR" x="205.979" y="338.831"/><use xlink:href="#ae" x="211.837" y="338.831"/><use xlink:href="#aL" x="217.444" y="338.831"/><use xlink:href="#aV" x="277.268" y="267.659"/><use xlink:href="#aW" x="277.268" y="275.87"/><use xlink:href="#aW" x="277.268" y="283.562"/><use xlink:href="#aW" x="277.268" y="291.253"/><use xlink:href="#aX" x="277.268" y="308.455"/><use xlink:href="#aW" x="277.268" y="316.667"/><use xlink:href="#aW" x="277.268" y="324.358"/><use xlink:href="#aW" x="277.268" y="332.05"/><use xlink:href="#aY" x="277.268" y="340.285"/><use xlink:href="#aZ" x="290.044" y="302.478"/><use xlink:href="#ba" x="295.902" y="302.478"/><use xlink:href="#ab" x="132.777" y="356.367" fill="red"/><use xlink:href="#ac" x="132.777" y="366.452"/><use xlink:href="#ad" x="140.512" y="366.452"/><use xlink:href="#ad" x="146.513" y="366.452"/><use xlink:href="#ae" x="152.515" y="366.452"/><use xlink:href="#af" x="158.122" y="366.452"/><use xlink:href="#ag" x="165.271" y="356.367" fill="red"/><use xlink:href="#ah" x="165.271" y="366.452"/><use xlink:href="#ai" x="173.903" y="366.452"/><use xlink:href="#aj" x="176.987" y="366.452"/><use xlink:href="#ak" x="182.187" y="366.452"/><use xlink:href="#al" x="187.268" y="366.452"/><use xlink:href="#af" x="192.469" y="366.452"/><use xlink:href="#am" x="199.619" y="356.367" fill="red"/><use xlink:href="#ah" x="199.619" y="366.452"/><use xlink:href="#ai" x="208.251" y="366.452"/><use xlink:href="#aj" x="211.335" y="366.452"/><use xlink:href="#ak" x="216.535" y="366.452"/><use xlink:href="#ab" x="221.616" y="356.367" fill="red"/><use xlink:href="#al" x="221.616" y="366.452"/><use xlink:href="#an" x="226.816" y="366.452"/><g clip-path="url(#bb)"><path fill="url(#bc)" d="M15.023 579.684v-11.336h388.063v11.336Zm0 0"/></g><use xlink:href="#bd" x="17.008" y="577.985"/><use xlink:href="#be" x="23.739" y="577.985"/><use xlink:href="#bf" x="272.17" y="577.985"/><use xlink:href="#bg" x="277.833" y="577.985"/><use xlink:href="#bh" x="282.233" y="577.985"/><use xlink:href="#bi" x="287.708" y="577.985"/><use xlink:href="#bj" x="291.251" y="577.985"/><use xlink:href="#bk" x="295.435" y="577.985"/><use xlink:href="#bl" x="301.231" y="577.985"/><use xlink:href="#bm" x="305.199" y="577.985"/><use xlink:href="#bl" x="309.167" y="577.985"/><use xlink:href="#bn" x="313.135" y="577.985"/><use xlink:href="#bo" x="319.788" y="577.985"/><use xlink:href="#bl" x="330.417" y="577.985"/><use xlink:href="#bp" x="334.385" y="577.985"/><use xlink:href="#bq" x="341.038" y="577.985"/><use xlink:href="#bl" x="346.604" y="577.985"/><use xlink:href="#bm" x="350.572" y="577.985"/><use xlink:href="#bl" x="354.54" y="577.985"/><use xlink:href="#br" x="358.508" y="577.985"/><use xlink:href="#bo" x="365.161" y="577.985"/><use xlink:href="#bs" x="375.79" y="577.985"/><use xlink:href="#bt" x="378.042" y="577.985"/><use xlink:href="#bn" x="382.011" y="577.985"/><use xlink:href="#bu" x="385.979" y="577.985"/><use xlink:href="#bl" x="388.231" y="577.985"/><use xlink:href="#bv" x="392.2" y="577.985"/><use xlink:href="#bl" x="397.137" y="577.985"/><path fill="#f2f2f2" stroke="#000" stroke-miterlimit="10" stroke-width=".797" d="M196.602 576.055v-3.989a2.99 2.99 0 0 1 2.988-2.988h18.93a2.99 2.99 0 0 1 2.988 2.988v3.989a2.99 2.99 0 0 1-2.988 2.988h-18.93a2.99 2.99 0 0 1-2.988-2.988Zm0 0"/><use xlink:href="#bw" x="198.439" y="576.948"/><use xlink:href="#bx" x="203.747" y="576.948"/><use xlink:href="#bx" x="209.055" y="576.948"/><use xlink:href="#by" x="214.363" y="576.948"/></svg>