<svg xmlns="http://www.w3.org/2000/svg" xmlns:xlink="http://www.w3.org/1999/xlink" width="559.371" height="793.701" viewBox="0 0 419.528 595.276"><defs><path id="d" d="M3.344 2.297v-.078L1.5-2.5l1.844-4.703v-.078c0-.11-.078-.203-.188-.203a.24.24 0 0 0-.203.14L1.11-2.562c-.015.015-.015.046-.015.062 0 .031 0 .063.015.078L2.953 2.36a.24.24 0 0 0 .203.141c.11 0 .188-.094.188-.203m0 0"/><path id="e" d="M4.969-1.422c0-.11-.094-.11-.125-.11-.094 0-.11.048-.14.188-.173.64-.345 1.235-.75 1.235-.282 0-.298-.266-.298-.453 0-.22.016-.313.125-.75L4-2.203l.36-1.39c.062-.282.062-.298.062-.344 0-.172-.11-.266-.281-.266-.25 0-.391.219-.422.437-.188-.375-.469-.64-.922-.64-1.156 0-2.39 1.468-2.39 2.922C.406-.547.952.109 1.718.109c.203 0 .703-.046 1.297-.75a.91.91 0 0 0 .906.75c.36 0 .578-.234.75-.546.156-.36.297-.985.297-.985m-1.375-1.89a.6.6 0 0 1-.031.171l-.485 1.954c-.062.187-.062.203-.203.375-.437.546-.844.703-1.125.703-.5 0-.64-.547-.64-.938 0-.5.312-1.719.546-2.187.313-.578.75-.953 1.157-.953.64 0 .78.812.78.875m0 0"/><path id="f" d="M2.781-2.5c0-.016 0-.047-.015-.062L.922-7.344c-.031-.078-.11-.14-.188-.14a.207.207 0 0 0-.203.203v.078L2.375-2.5.531 2.219v.078c0 .11.094.203.203.203.079 0 .157-.062.188-.14l1.844-4.782c.015-.015.015-.047.015-.078m0 0"/><path id="g" d="M6.047-.156c0-.094-.11-.11-.14-.11-.25 0-.376-.03-.5-.312L4.218-3.297 5.766-4.5c.218-.172.812-.625 1.312-.672.063-.016.156-.031.156-.156 0-.047-.03-.11-.109-.11 0 0-.234.016-.281.016h-.328c-.266 0-.563-.016-.813-.016-.047 0-.172 0-.172.141 0 .11.14.125.14.125.11 0 .173.047.173.11 0 .125-.14.25-.172.28l-.047.048c-.016.015-.031.015-.094.078L2.563-2.344l.609-2.5c.078-.265.125-.328.61-.328.171 0 .265 0 .265-.156 0-.047-.031-.11-.125-.11-.14 0-.313.016-.453.016h-.953l-.453-.016c-.047 0-.172 0-.172.141 0 .125.093.125.234.125.219 0 .438 0 .438.11 0 .046 0 .062-.032.171L1.47-.609c-.078.28-.125.343-.61.343-.171 0-.265 0-.265.157C.594-.047.64 0 .719 0c.031 0 .39-.016.453-.031h.484c.672 0 .89.031.938.031s.156 0 .156-.156c0-.11-.094-.11-.234-.11-.25 0-.438 0-.438-.125 0-.046.047-.218.078-.328l.297-1.203 1.25-.969.985 2.25c.046.094.046.11.046.141 0 .203-.187.234-.343.234-.094 0-.188.016-.188.157 0 .062.047.109.11.109.28 0 .578-.031.843-.031.672 0 .64.031.735.031.03 0 .156 0 .156-.156m0 0"/><path id="h" d="M2.828-1.14c0-.11-.11-.11-.156-.11-.125 0-.125.031-.172.172-.14.516-.406.937-.734.937-.157 0-.188-.109-.188-.25 0-.187.063-.328.188-.656l.515-1.39c.063-.172.094-.25.094-.422 0-.438-.312-.657-.656-.657-.75 0-1.078 1.11-1.078 1.22 0 .108.093.108.14.108.14 0 .14-.03.172-.171.125-.407.375-.938.75-.938.14 0 .172.11.172.25 0 .188-.047.344-.156.61L1.156-.953a1.1 1.1 0 0 0-.078.375c0 .36.266.656.672.656.75 0 1.078-1.125 1.078-1.219m.125-3.704a.354.354 0 0 0-.36-.375.55.55 0 0 0-.53.532c0 .234.171.359.359.359.265 0 .531-.234.531-.516m0 0"/><path id="i" d="M4.14-1.14c0-.11-.109-.11-.14-.11-.14 0-.156.047-.187.172-.11.453-.266.937-.61.937-.14 0-.25-.078-.25-.375 0-.125.031-.265.063-.39.03-.125.03-.172.03-.25 0-.563-.546-.75-1.108-.86.296-.187.625-.53.671-.593.454-.5.766-.688 1.063-.688.11 0 .172.063.203.11-.156.03-.344.171-.344.39s.188.266.281.266c.204 0 .407-.14.407-.453 0-.266-.157-.532-.547-.532s-.75.266-1.188.735c-.484.515-.656.594-.796.672l.796-3.188c0-.031.016-.094.016-.125 0-.11-.125-.11-.219-.094l-.828.063c-.11.016-.187.016-.187.156 0 .125.093.125.203.125.375 0 .375.047.375.11a.7.7 0 0 1-.032.171L.657-.266c0 .032-.015.079-.015.11 0 .11.078.234.25.234.14 0 .265-.094.328-.297l.39-1.578c.313.031.891.172.891.656 0 .047 0 .079-.031.188a1 1 0 0 0-.031.25c0 .437.296.781.734.781.36 0 .562-.265.656-.406.188-.297.313-.766.313-.813m0 0"/><path id="j" d="M4.297-2.172c0-.828-.547-1.344-1.266-1.344C2-3.516.921-2.437.921-1.266c0 .875.595 1.344 1.267 1.344 1.062 0 2.109-1.094 2.109-2.25m-.594-.281c0 .265-.125 1.031-.437 1.578-.266.438-.688.734-1.078.734-.297 0-.672-.203-.672-.843 0-.36.172-1.11.422-1.547.343-.578.812-.766 1.078-.766.39 0 .687.297.687.844m0 0"/><path id="k" d="M8.25-.328c0-.047 0-.078-.062-.234l-2.516-7.22c-.188-.515-.531-.515-.766-.515H3.844c-.235 0-.578 0-.766.516L.563-.562C.5-.406.5-.375.5-.328.5 0 .797 0 .969 0h.437c.203 0 .578 0 .75-.484l.469-1.328h3.297l.406 1.156c.156.422.234.656.813.656h.64c.172 0 .469 0 .469-.328m-2.687-2.5H2.969l.875-2.531c.172-.532.328-.985.422-1.422h.015c.063.297.063.312.157.593Zm0 0"/><path id="l" d="M6.25-2.766c0-.562 0-2.843-2.25-2.843-.969 0-1.578.547-1.687.672V-7.72c0-.39-.079-.578-.563-.578h-.453c-.422 0-.563.14-.563.578v7.14C.734-.14.86 0 1.297 0h.484c.203 0 .563 0 .578-.469a1.74 1.74 0 0 0 1.344.594c2.547 0 2.547-2.281 2.547-2.89m-1.625.016c0 .89 0 2.016-1.344 2.016-.5 0-.797-.297-.922-.453v-3.141c.157-.14.516-.422 1.063-.422 1.203 0 1.203 1.11 1.203 2m0 0"/><path id="m" d="M4.25-4.719v-.562c0-.235 0-.328-.203-.328-.344 0-1.219.125-1.781 1.406v-.766c0-.39-.094-.578-.578-.578h-.391c-.422 0-.563.125-.563.578v4.39C.734-.14.86 0 1.297 0h.453c.453 0 .563-.156.563-.578V-2.75c0-1.14.953-1.594 1.703-1.656.218 0 .234 0 .234-.313m0 0"/><path id="n" d="M5.672-.578v-3.203c0-1.89-1.828-1.89-2.422-1.89-.562 0-1.156.046-1.953.374-.25.11-.313.14-.313.281 0 .079.063.766.079.875a.17.17 0 0 0 .156.125c.062 0 .093-.03.125-.078.515-.531 1.125-.797 1.86-.797.64 0 .843.391.843 1.094v.422c-.422 0-3.563.031-3.563 1.781C.484-.75 1.156.125 2.22.125c.406 0 1.297-.11 1.86-.937v.234c0 .39.077.578.577.578h.438c.453 0 .578-.156.578-.578M4.047-1.844c0 1.11-1.14 1.11-1.172 1.11-.516 0-.828-.422-.828-.875 0-1.172 1.656-1.266 2-1.266Zm0 0"/><path id="o" d="M5.969-.578v-3.313c0-1.218-.516-1.718-1.735-1.718-1.203 0-1.75.828-1.921 1.156V-7.72c0-.39-.094-.578-.579-.578h-.437c-.438 0-.578.14-.578.578v7.14c0 .438.125.579.578.579h.469c.453 0 .578-.156.578-.578v-2.64c0-1.032.687-1.532 1.312-1.532.578 0 .688.281.688.89v3.282c0 .39.093.578.578.578h.484c.453 0 .563-.156.563-.578m0 0"/><path id="p" d="M9.64-.578v-3.313c0-1.218-.53-1.718-1.75-1.718-.843 0-1.5.39-1.937 1.187-.187-1.14-1.203-1.187-1.703-1.187-.234 0-.734 0-1.281.39-.36.282-.61.672-.688.844h-.015v-.594c0-.39-.079-.578-.563-.578h-.406c-.438 0-.578.125-.578.578v4.39c0 .438.125.579.578.579h.469c.453 0 .578-.156.578-.578v-2.64c0-1.079.734-1.532 1.312-1.532s.703.25.703.89v3.282c0 .437.141.578.579.578h.484c.453 0 .562-.156.562-.578v-2.64c0-1.079.735-1.532 1.313-1.532s.719.25.719.89v3.282c0 .437.125.578.562.578h.485c.453 0 .578-.156.578-.578m0 0"/><path id="q" d="M6.938-3.078c.406-1.906-.625-3.344-2.172-3.344-1.563 0-3.203 1.438-3.594 3.344-.406 1.86.64 3.281 2.187 3.281s3.188-1.422 3.579-3.281m-.829-.14C5.75-1.532 4.563-.439 3.484-.439c-1.062 0-1.796-1.093-1.437-2.78.36-1.641 1.562-2.594 2.594-2.594 1.015 0 1.812.953 1.468 2.593m0 0"/><path id="r" d="M4.86-2c.218-1.078-.157-2.078-1.032-2.078-.234 0-.89.047-1.61.516l.579-2.657h-.719L.75 0h.734l.094-.422c.094.125.469.516 1.125.516.938 0 1.89-.906 2.156-2.094m-.75 0C3.86-.844 3.015-.484 2.468-.484a.73.73 0 0 1-.75-.563L2.125-3c.172-.187.563-.5 1.078-.5.531 0 1.14.375.906 1.5m0 0"/><path id="s" d="m1.594.531.968-4.515h-.718L.875.609c-.125.594-.672.625-.828.625a.8.8 0 0 1-.61-.28l-.328.577c.391.25.813.313 1.047.313.61 0 1.266-.485 1.438-1.313m1.203-5.578.172-.86h-.86l-.187.86Zm0 0"/><path id="t" d="m3.781 0 .547-2.594c.188-.89-.312-1.547-1.203-1.547-.594 0-1.047.157-1.531.407l-.078.625C2.03-3.437 2.5-3.562 3-3.562s.719.39.594.984l-.094.375C1.953-2.172.86-1.766.703-1.047.625-.625.75.093 1.531.093c.172 0 .953-.015 1.61-.437L3.062 0Zm-.469-1.25c-.046.188-.093.406-.453.594-.265.14-.562.172-.75.172-.453 0-.78-.22-.703-.578.125-.625 1.89-.657 2-.657Zm0 0"/><path id="u" d="M7-3.984h-.687C5.969-3.344 4.75-1.047 4.578-.5h-.016c.032-.375-.03-.984-.078-1.484l-.203-2h-.656c-.469.875-1.531 2.89-1.687 3.453h-.016c.047-.328-.016-1.14-.063-1.703l-.171-1.75h-.72L1.392 0h.75l.906-1.734c.312-.641.687-1.344.797-1.735-.016.172 0 .516 0 .61 0 .39 0 .406.031.64L4.078 0h.813Zm0 0"/><path id="v" d="m1.453 0 .844-3.984h-.719L.734 0ZM2.61-5.047l.188-.86h-.875l-.172.86Zm0 0"/><path id="w" d="M4.25-1.969c.063-.281.188-.953-.047-1.5-.25-.562-.797-.672-1.14-.672-1.047 0-2.079.97-2.313 2.11C.5-.844 1.172.094 2.297.094c.422 0 .969-.11 1.562-.438l.079-.61c-.657.391-1.204.47-1.516.47-.75 0-1.172-.657-1.016-1.485ZM3.828-2.5H1.563c.265-.562.812-1.047 1.375-1.047.328 0 .906.14.89 1.047m0 0"/><path id="x" d="m4.031 0 .563-2.656c.14-.672.125-1.422-.969-1.422-.703 0-1.219.406-1.484.672l.14-.625h-.687L.719 0h.75l.468-2.187c.125-.594.516-1.313 1.188-1.313.906 0 .766.64.719.906L3.28 0Zm0 0"/><path id="y" d="m7.125 0 1.328-6.219H7.375L5.531-3.156c-.36.594-1.125 1.844-1.312 2.281h-.016c0-.375-.187-1.453-.281-1.89L3.39-5.829l-.079-.39H2.25L.922 0h.734l1.172-5.531c.016.468.25 1.797.297 2.047l.453 2.53.14.75h.673l1.906-3.155c.203-.328 1.062-1.75 1.266-2.172L6.39 0Zm0 0"/><path id="z" d="m6.578 0 .563-2.656c.156-.672.14-1.422-.953-1.422-.75 0-1.266.453-1.547.734-.016-.187-.094-.734-1.016-.734-.703 0-1.219.406-1.484.672l.14-.625h-.687L.719 0h.75l.468-2.187c.125-.594.516-1.313 1.188-1.313.906 0 .766.64.719.906L3.28 0h.75L4.5-2.187C4.625-2.781 5-3.5 5.688-3.5c.89 0 .765.64.703.906L5.844 0Zm0 0"/><path id="A" d="m3.734-3.437.157-.641c-.657 0-1.313.328-1.797.86l.172-.813h-.657L.75 0h.719l.39-1.906a1.98 1.98 0 0 1 1.875-1.531m0 0"/><path id="B" d="M2.594 2.234c-.375-.5-1.25-1.64-.64-4.484.609-2.828 1.952-3.969 2.546-4.484h-.594c-1.25.89-2.265 2.422-2.703 4.484-.453 2.14-.031 3.625.813 4.484Zm0 0"/><path id="C" d="M5.703 0 4.516-2.922c.968-.25 1.75-.89 1.906-1.625.203-.922-.688-1.672-1.969-1.672h-2.25L.875 0h.828l.61-2.828h1.421L4.844 0Zm-.062-4.547c-.125.578-.782 1.14-1.891 1.14H2.438l.484-2.28h1.312c1.047 0 1.547.5 1.407 1.14m0 0"/><path id="D" d="m4.016 0 1.328-6.219h-.719l-.578 2.625c-.406-.422-.969-.484-1.25-.484-.906 0-1.813.937-2.047 2.094C.5-.828 1 .094 1.875.094c.266 0 .844-.063 1.484-.563L3.266 0ZM3.53-1.266c-.031.172-.031.188-.156.313-.312.328-.656.469-.984.469-.578 0-1.141-.422-.907-1.5C1.734-3.125 2.578-3.5 3.141-3.5c.406 0 .64.234.765.469Zm0 0"/><path id="E" d="m3.703 0 .125-.594H2.484c-.109 0-.218.016-.328.016h-.75L4.453-3.61l.063-.375H1.234l-.125.562h2.282L.344-.39.266 0Zm0 0"/><path id="F" d="m3.922 0 .11-.562H2.89l1.172-5.5h-.188c-.734.578-1.594.578-1.906.578l-.11.562c.25 0 .704 0 1.25-.203L2.125-.562H.985L.858 0Zm0 0"/><path id="G" d="M4.563-1.625c.125-.562-.094-1.219-.938-1.547.61-.172 1.281-.656 1.422-1.328.172-.812-.438-1.562-1.453-1.562-1.047 0-1.953.765-2.125 1.562-.14.672.312 1.156.843 1.328C1.298-2.828.845-2.156.72-1.625.516-.641 1.188.203 2.25.203c1.094 0 2.11-.86 2.313-1.828m-.188-2.86c-.11.563-.594 1.016-1.344 1.016-.703 0-1.031-.422-.906-1.015.14-.594.656-1.016 1.344-1.016.734 0 1.031.438.906 1.016m-.594 2.86c-.172.828-.797 1.234-1.39 1.234-.641 0-1.063-.421-.891-1.234.203-.953.953-1.25 1.406-1.25.516 0 1.078.328.875 1.25m0 0"/><path id="H" d="m1.656-.016.172-.75h-.781L.89 0h.234L.641 1.14h.375Zm0 0"/><path id="I" d="m5.063-2.172.125-.578H.577l-.125.578Zm0 0"/><path id="J" d="M4.531-1.828c.235-1.11-.375-2-1.328-2-.11 0-.547 0-1.047.36l.375-1.782h2.422l.125-.61h-3.11L1.267-2.53h.64c.438-.656.985-.703 1.157-.703.374 0 .843.28.609 1.406-.235 1.094-.953 1.437-1.5 1.437-.453 0-1.031-.218-1.235-.812L.5-.687c.094.203.547.89 1.563.89 1.124 0 2.234-.906 2.468-2.031m0 0"/><path id="K" d="M3.328-2.25c.453-2.125.031-3.625-.812-4.484h-.578c.39.5 1.25 1.656.64 4.484C1.984.594.625 1.734.031 2.234h.594c1.234-.89 2.266-2.421 2.703-4.484m0 0"/><path id="L" d="M0-6.047h-.266v.14c0 .5-.062.579-.328.673l-4.922 1.859c-.109.047-.171.063-.171.203s.062.172.171.203l4.688 1.781c.219.079.562.25.562.907H0C-.031-.547-.031-.97-.031-1.11c0-.25 0-.5.031-.875h-.266c0 .343-.171.547-.39.547-.063 0-.078 0-.172-.032l-1-.375v-2.172l1.187-.453C-.547-4.5-.5-4.5-.5-4.5c.234 0 .234.406.234.64H0L-.031-5c0-.437 0-.594.031-1.047m-2.094 2.14v1.97l-2.593-1Zm0 0"/><path id="M" d="M-1.719-4.422c-1 0-1.797.828-1.797 1.797 0 .64.344 1.016.485 1.156h-2.5l.093 1.188h.266c0-.547.047-.61.438-.61H0v-.234l-.5-.297a1.32 1.32 0 0 0 .578-1.11c0-1-.781-1.89-1.797-1.89m-.015.719c.187 0 .75 0 1.125.281.359.297.468.672.468.922 0 .39-.203.703-.515.922-.156.094-.156.094-.313.094h-1.547c-.156 0-.171 0-.312-.125a1.26 1.26 0 0 1-.469-.97c0-.405.25-.718.485-.874.218-.14.5-.25 1.078-.25m0 0"/><path id="N" d="M-3.016-3.062c-.28 0-.5.25-.5.609 0 .515.391.875.844 1.031v.016h-.844l.094 1.125h.266c0-.547.047-.61.437-.61h2.094c.36 0 .36.11.36.61H0c-.031-.313-.031-.75-.031-.938 0-.468 0-.484.031-1h-.266v.156c0 .579-.078.594-.375.594h-1.171c-.61 0-1.47-.25-1.485-1.015.031.046.094.14.281.14.25 0 .36-.203.36-.36 0-.187-.125-.358-.36-.358m0 0"/><path id="O" d="M-.719-4.094h-.437v.25h.437c.328 0 .453.11.453.281 0 .297-.359.297-.453.297h-1.656c-.781 0-1.172.75-1.172 1.485 0 .656.25 1.25.781 1.25a.36.36 0 0 0 .375-.375.36.36 0 0 0-.375-.375.356.356 0 0 0-.359.297c-.203-.297-.203-.735-.203-.782 0-.453.312-.89.969-.89h.234c.031.453.047.984.281 1.547.313.703.766.843 1.032.843.687 0 .89-.812.89-1.359a1.23 1.23 0 0 0-.64-1.11c.296-.046.609-.25.609-.609 0-.078-.031-.75-.766-.75m-.406 1.438c.781 0 .984.64.984.969 0 .406-.28.765-.671.765-.516 0-1.063-.5-1.094-1.734Zm0 0"/><path id="P" d="M0-6.828h-.266c0 .516 0 .61-.359.61h-1.797c-.64 0-1.094.28-1.094 1.14 0 .734.5 1.11.735 1.234-.578.14-.735.594-.735 1.11 0 .78.547 1.14.766 1.25h-.766l.094 1.156h.266c0-.547.047-.61.437-.61h2.094c.36 0 .36.094.36.61H0c-.031-.344-.031-.688-.031-.906 0-.235 0-.563.031-.907h-.266c0 .5 0 .61-.359.61h-1.437c-.844 0-1.235-.64-1.235-1.14 0-.517.406-.61.844-.61h1.828c.36 0 .36.11.36.61H0c-.031-.345-.031-.688-.031-.907 0-.235 0-.563.031-.906h-.266c0 .515 0 .609-.359.609h-1.437c-.844 0-1.235-.64-1.235-1.14 0-.516.406-.61.844-.61h1.828c.36 0 .36.11.36.61H0c-.031-.344-.031-.688-.031-.907 0-.234 0-.562.031-.906m0 0"/><path id="Q" d="M-1.703-3.984c-.984 0-1.844.828-1.844 1.875s.86 1.875 1.844 1.875c1 0 1.781-.86 1.781-1.875 0-1.032-.781-1.875-1.781-1.875m-.063.703c.36 0 .797.015 1.141.25.313.203.453.562.453.922 0 .422-.203.765-.484.937-.328.203-.719.219-1.11.219-.312 0-.78 0-1.125-.235a1.14 1.14 0 0 1-.437-.921c0-.422.203-.766.469-.938.343-.219.765-.234 1.093-.234m0 0"/><path id="R" d="M-1.719-4.422c-1 0-1.797.813-1.797 1.781 0 .313.079.766.5 1.172h-.5l.094 1.188h.266c0-.563.047-.61.375-.61H.922c.36 0 .36.11.36.61h.265c-.031-.344-.031-.688-.031-.906 0-.235 0-.563.03-.907h-.265c0 .516 0 .61-.36.61H-.39a1.37 1.37 0 0 0 .47-1.047c0-1-.782-1.89-1.798-1.89m0 .719c.907 0 1.578.578 1.578 1.219 0 .28-.125.64-.515.906-.14.094-.156.094-.297.094h-1.703a1.3 1.3 0 0 1-.61-1.094c0-.61.672-1.125 1.547-1.125m0 0"/><path id="S" d="M-.437-1.625a.453.453 0 0 0-.454.453c0 .266.22.438.438.438A.44.44 0 0 0 0-1.172a.45.45 0 0 0-.437-.453m0 0"/><path id="T" d="M-1.625-3.875c-1.031 0-1.766.797-1.766 1.672 0 .578.36.922.75 1.11-.656 0-1.234-.063-1.718-.344-.407-.25-.735-.657-.735-1.157 0-.156.032-.515.297-.703.031.36.297.39.375.39.25 0 .375-.187.375-.374 0-.14-.078-.375-.39-.375-.47 0-.86.36-.86 1.078 0 1.11 1.047 2.234 2.766 2.234C-.36-.344.172-1.359.172-2.125c0-.39-.11-.797-.453-1.156-.313-.328-.64-.594-1.344-.594m0 .75c.406 0 .75 0 1.047.156.36.219.5.485.5.844a.88.88 0 0 1-.516.797c-.36.187-.89.203-1.203.203-.781 0-1.375-.422-1.375-1.047 0-.39.203-.64.485-.781.296-.172.656-.172 1.062-.172m0 0"/><path id="U" d="M0 6.047h.266v-.14c0-.5.062-.579.328-.673l4.922-1.859c.109-.047.172-.062.172-.203 0-.14-.063-.172-.172-.203L.828 1.188C.61 1.109.266.938.266.28H0c.031.266.031.688.031.828 0 .25 0 .5-.031.875h.266c0-.343.172-.546.39-.546a.4.4 0 0 1 .172.03l1 .376v2.172l-1.187.453C.547 4.5.5 4.5.5 4.5c-.234 0-.234-.406-.234-.64H0L.031 5c0 .438 0 .594-.031 1.047m2.094-2.14v-1.97l2.594 1Zm0 0"/><path id="V" d="M1.719 4.422c1 0 1.797-.828 1.797-1.797 0-.64-.344-1.016-.485-1.156h2.5L5.438.28h-.266c0 .547-.047.61-.438.61H0v.234l.5.297a1.32 1.32 0 0 0-.578 1.11c0 1 .781 1.89 1.797 1.89m.015-.719c-.187 0-.75 0-1.125-.281C.25 3.125.141 2.75.141 2.5c0-.39.203-.703.515-.922.156-.094.156-.094.313-.094h1.547c.156 0 .172 0 .312.125.297.235.469.61.469.97 0 .405-.25.718-.485.874-.218.14-.5.25-1.078.25m0 0"/><path id="W" d="M3.016 3.063c.28 0 .5-.25.5-.61 0-.515-.391-.875-.844-1.031v-.016h.844L3.422.281h-.266c0 .547-.047.61-.437.61H.625C.265.89.265.78.265.28H0c.031.313.031.75.031.938 0 .468 0 .484-.031 1h.266v-.156c0-.579.078-.594.375-.594h1.172c.609 0 1.468.25 1.484 1.015-.031-.046-.094-.14-.281-.14-.25 0-.36.203-.36.36 0 .187.125.358.36.358m0 0"/><path id="X" d="M.719 4.094h.437v-.25H.72c-.328 0-.453-.11-.453-.281 0-.297.359-.297.453-.297h1.656c.781 0 1.172-.75 1.172-1.485 0-.656-.25-1.25-.781-1.25a.36.36 0 0 0-.375.375c0 .219.156.375.375.375a.356.356 0 0 0 .359-.297c.203.297.203.735.203.782 0 .453-.312.89-.969.89h-.234c-.031-.453-.047-.984-.281-1.547C1.53.406 1.078.266.813.266c-.688 0-.891.812-.891 1.359 0 .578.328.938.64 1.11-.296.046-.609.25-.609.609 0 .078.031.75.766.75m.406-1.438c-.781 0-.984-.64-.984-.969 0-.406.28-.765.672-.765.515 0 1.062.5 1.093 1.734Zm0 0"/><path id="Y" d="M0 4.484h.266c0-.515 0-.609.359-.609h1.797c.656 0 1.094-.312 1.094-1.14 0-.704-.453-1.063-.703-1.22H5.53L5.438.329h-.266c0 .547-.047.61-.438.61H.625c-.36 0-.36-.094-.36-.61H0c.031.344.031.688.031.906 0 .235 0 .563-.031.907h.266c0-.5 0-.61.359-.61h1.438c.843 0 1.234.64 1.234 1.125s-.344.61-.844.61H.625c-.36 0-.36-.094-.36-.61H0c.031.344.031.703.031.906 0 .235 0 .579-.031.922m0 0"/><path id="Z" d="M0 6.828h.266c0-.516 0-.61.359-.61h1.797c.64 0 1.094-.28 1.094-1.14 0-.734-.5-1.11-.735-1.234.578-.14.735-.594.735-1.11a1.37 1.37 0 0 0-.766-1.25h.766L3.422.328h-.266c0 .547-.047.61-.437.61H.625c-.36 0-.36-.094-.36-.61H0c.031.344.031.688.031.906 0 .235 0 .563-.031.907h.266c0-.5 0-.61.359-.61h1.438c.843 0 1.234.64 1.234 1.14 0 .517-.406.61-.844.61H.625c-.36 0-.36-.11-.36-.61H0c.031.345.031.688.031.907 0 .235 0 .563-.031.906h.266c0-.515 0-.609.359-.609h1.438c.843 0 1.234.64 1.234 1.14 0 .516-.406.61-.844.61H.625c-.36 0-.36-.11-.36-.61H0c.031.344.031.688.031.907 0 .234 0 .562-.031.906m0 0"/><path id="aa" d="M1.719 4.422c1 0 1.797-.813 1.797-1.781 0-.313-.079-.766-.5-1.172h.5L3.422.28h-.266c0 .563-.047.61-.375.61H-.922c-.36 0-.36-.11-.36-.61h-.265c.031.344.031.688.031.907 0 .234 0 .562-.03.906h.265c0-.516 0-.61.36-.61H.39a1.37 1.37 0 0 0-.47 1.047c0 1 .782 1.89 1.798 1.89m0-.719C.812 3.703.14 3.125.14 2.484c0-.28.125-.64.515-.906.14-.094.156-.094.297-.094h1.703c.313.188.61.594.61 1.094 0 .61-.672 1.125-1.547 1.125m0 0"/><path id="ab" d="M.438 1.625a.453.453 0 0 0 .453-.453.436.436 0 0 0-.438-.438.44.44 0 0 0-.453.438.45.45 0 0 0 .438.453m0 0"/><path id="ac" d="M1.344 3.875c.5 0 .828-.266.968-.406.126-.125.141-.14.563-.828.219.453.61 1 1.234 1 .766 0 1.188-.782 1.188-1.516 0-.844-.578-1.531-1.328-1.531-.297 0-.563.094-.797.297-.172.14-.188.172-.5.656C2.234.563 1.656.344 1.219.344c-.89 0-1.39.89-1.39 1.765 0 .97.671 1.766 1.515 1.766m2.765-.64c-.453 0-.843-.36-1.078-.829l.594-1c.14-.234.375-.422.64-.422.5 0 .829.547.829 1.125 0 .61-.422 1.125-.985 1.125m-3.046.187c-.61 0-.985-.656-.985-1.297 0-.719.485-1.312 1.14-1.312.595 0 1.063.437 1.313.984l-.656 1.078c-.078.125-.328.547-.812.547m0 0"/><path id="ad" d="M9.953 0v-.516h-.312c-.657 0-.703-.062-.813-.218L5.61-5.047l2.844-2.406c.156-.14.266-.234 1.328-.234v-.516L8.5-8.172c-.36 0-1.297 0-1.594-.031v.515c.266 0 .547.016.86.141l-4.47 3.813v-3.953h1.267v-.516c-.344.031-1.625.031-2.047.031-.438 0-1.72 0-2.063-.031v.515H1.72v7.172H.453V0c.344-.031 1.625-.031 2.063-.031.422 0 1.703 0 2.047.031v-.516H3.297v-2.562L4.53-4.125l2.5 3.344c.016.031.063.094.063.14 0 .125-.578.125-.844.125V0c.39-.031 1.5-.031 1.953-.031.36 0 1.485 0 1.75.031m0 0"/><path id="aX" d="M13.61-7.687v-.516l-1.297.031c-.344 0-1.22 0-1.5-.031v.515c.14 0 1.187 0 1.187.172 0 0 0 .032-.047.141L9.938-2.047l-2.126-5.64h1.125v-.516c-.374.031-1.484.031-1.937.031-.375 0-1.531 0-1.828-.031v.515h1.016l.484 1.297-1.64 4.344-2.126-5.64h1.125v-.516c-.343.031-1.515.031-1.953.031-.375 0-1.515 0-1.812-.031v.515h1L4.109-.171c.079.203.11.281.375.281.266 0 .297-.078.375-.28l2.079-5.5 2.093 5.5c.063.202.094.28.36.28.234 0 .297-.046.375-.28L12.5-7.407c.094-.203.11-.282 1.11-.282m0 0"/><path id="bd" d="M6.328 0v-.516H5.172v-1.359h1.156v-.516H5.172v-5.125c0-.296-.016-.343-.313-.343-.203 0-.234 0-.375.172L.375-2.391v.516h3.39v1.36H2.47V0C2.813-.031 4-.031 4.422-.031c.406 0 1.594 0 1.906.031M3.875-2.39H.922l2.953-3.797Zm0 0"/><path id="be" d="M6.516-7.703H4c-.094 0-1.875-.047-2.016-.078-.296-.047-.328-.172-.343-.297h-.5L.734-5.125h.516c0-.125.094-.953.297-1.094.11-.062 1.11-.062 1.297-.062h2.172C3.625-4.61 3.469-4.406 3.094-3.703 2.39-2.313 2.28-1.25 2.28-.656c0 .797.61.797.703.797a.75.75 0 0 0 .547-.235c.156-.187.156-.343.156-.86 0-1.827.172-3.171.922-4.062l1.797-2.14c.11-.125.11-.14.11-.547m0 0"/><path id="ae" d="M5.953-1.703c0-.125-.11-.125-.14-.125-.125 0-.141.047-.172.219-.203.765-.422 1.484-.907 1.484-.328 0-.359-.312-.359-.562s.031-.36.156-.875l.266-1.079.422-1.671c.093-.344.093-.36.093-.407 0-.203-.156-.328-.359-.328-.281 0-.453.266-.5.531-.203-.437-.562-.765-1.094-.765-1.406 0-2.875 1.75-2.875 3.5 0 1.125.657 1.906 1.579 1.906.25 0 .843-.047 1.562-.89.094.5.516.89 1.078.89.422 0 .703-.266.89-.656.204-.422.36-1.172.36-1.172M4.313-3.97c0 .078-.016.14-.032.203l-.593 2.344c-.063.219-.063.234-.25.438-.516.656-1.016.859-1.344.859-.594 0-.766-.656-.766-1.125 0-.61.375-2.078.656-2.625.375-.703.907-1.14 1.391-1.14.766 0 .938.968.938 1.046m0 0"/><path id="au" d="M6.172-8.156s0-.14-.156-.14c-.188 0-1.313.108-1.516.14-.094 0-.172.062-.172.219 0 .14.11.14.281.14.579 0 .61.094.61.203l-.047.25-.719 2.828c-.203-.437-.562-.765-1.094-.765-1.406 0-2.875 1.75-2.875 3.5 0 1.125.657 1.906 1.579 1.906.25 0 .843-.047 1.562-.89.094.5.516.89 1.078.89.422 0 .703-.266.89-.656.204-.422.36-1.172.36-1.172 0-.125-.11-.125-.14-.125-.125 0-.141.047-.172.219-.203.765-.422 1.484-.907 1.484-.328 0-.359-.312-.359-.562 0-.282.031-.36.078-.563ZM4.312-3.97c0 .078-.015.14-.03.203l-.594 2.344c-.063.219-.063.234-.25.438-.516.656-1.016.859-1.344.859-.594 0-.766-.656-.766-1.125 0-.61.375-2.078.656-2.625.375-.703.907-1.14 1.391-1.14.766 0 .938.968.938 1.046m0 0"/><path id="ax" d="M6.828-7.234c.063-.282.016-.578-.125-.75-.234-.328-.672-.407-1.125-.407-.719 0-1.406.094-2.062.625-.438.344-.766.829-.891 1.313-.11.469-.11.937.14 1.266.172.25.47.421.782.53l-.031.126a3.46 3.46 0 0 0-1.766.734C1.172-3.328.734-2.719.563-2.062.438-1.532.438-.984.734-.61c.204.265.516.437.829.562.406.14.859.188 1.328.188.89 0 1.797-.328 2.578-.953.11-.079.265-.297.39-.454l-.39-.578-.157.032c-.125.343-.312.656-.593.875-.469.375-1 .656-1.532.656-.562 0-1.14-.094-1.437-.5-.297-.39-.312-.922-.187-1.469.14-.547.453-1.062.921-1.437.344-.266.782-.407 1.157-.5.562-.125 1.109-.157 1.672-.157l.062-.312c-.406 0-.797-.032-1.172-.14-.25-.063-.5-.173-.656-.391-.219-.282-.266-.704-.172-1.125.14-.516.453-1.032.89-1.391.298-.25.688-.313 1.032-.313.281 0 .469.063.61.204a.5.5 0 0 1 .109.468c-.047.203-.157.328-.266.453-.078.094-.14.172-.187.282a.36.36 0 0 0 .03.234c.079.094.126.094.266.094s.422-.078.625-.266c.22-.234.282-.437.344-.687m0 0"/><path id="aK" d="M7.656-6.953c.094-.344.047-.656-.14-.906-.282-.391-.985-.47-1.375-.47-.891 0-1.766.22-2.657.813-.718.485-1.218 1.282-1.421 2.079-.172.718-.235 1.453.156 1.984.406.531 1.094.781 1.844.781.593 0 1.25-.172 1.828-.531l-.25 1.14c-.125.516-.328.97-.578 1.47-.22.374-.5.75-.86 1.046-.469.39-1.031.656-1.578.656-.36 0-.719-.062-.922-.328-.11-.156-.11-.375-.11-.593.016-.157.016-.329-.062-.438a.34.34 0 0 0-.281-.125.75.75 0 0 0-.469.14.84.84 0 0 0-.265.407.98.98 0 0 0 .172.89c.28.391.812.485 1.359.485.984 0 1.984-.406 2.86-1.11.452-.359.78-.812 1.03-1.328.36-.718.61-1.468.797-2.234l.391-1.578-.672.156c-.156.344-.5.828-.687.969-.47.39-1 .547-1.532.547-.5 0-.89-.219-1.156-.563-.36-.484-.312-1.187-.14-1.86a3.62 3.62 0 0 1 1.265-1.952 2.5 2.5 0 0 1 1.547-.516c.297 0 .719.11.922.406.14.188.219.407.14.672-.046.219-.125.469-.328.64-.28.22-.546.25-.828.25l-.093.204c.187.031.468.11.53.11.36 0 .704-.188 1.016-.438.297-.25.47-.563.547-.875m0 0"/><path id="aM" d="m10.344-8.156-.172-.11-.375.422c-.14.14-.36.266-.563.266-.078 0-.25-.031-.359-.047a18 18 0 0 1-1.687-.36l.078-.327-.063-.047-.672.297a10 10 0 0 0-.718-.047c-.954 0-1.813.187-2.657.859-.531.438-1.015 1-1.172 1.61-.046.202-.078.406.032.546.093.094.172.172.328.172.125 0 .265-.094.375-.172a.63.63 0 0 0 .219-.36c.03-.124.015-.296.015-.421.016-.172.016-.312.078-.469.047-.187.375-.61.656-.843.563-.438 1.126-.563 1.72-.563a4.5 4.5 0 0 1 .921.094l-.86 3.172H3.704l-.25.343h1.938l-.282 1.047c-.125.422-.25.844-.484 1.25a3 3 0 0 1-.687.875c-.407.375-.97.672-1.47.672-.312 0-.609-.078-.78-.312a1.1 1.1 0 0 1-.188-.407c-.094-.437-.14-.453-.312-.453a.73.73 0 0 0-.438.14c-.125.11-.203.204-.234.345-.063.25-.032.5.125.672.234.328.609.484 1.062.484.969 0 2.031-.39 2.844-1.094.437-.375.672-.687.906-1.094.281-.5.469-1.015.61-1.546l.14-.579h1.469l.344-.343H6.28l.766-2.97c.156.063.937.329 1.422.47.156.062.344.109.5.109.25 0 .531-.219.703-.422Zm0 0"/><path id="af" d="M7.11-2.25c0-1.047-1.032-1.89-2.266-2.094 1.39-.375 1.937-1.172 1.937-1.875 0-1.078-1.218-2.078-2.906-2.078H1.109V0h3.094C5.875 0 7.11-1.078 7.11-2.25M5.86-6.203c0 .844-1.032 1.531-2.298 1.531H2.079v-2.953h1.469c1.281 0 2.312.625 2.312 1.422m.312 3.937c0 .844-.969 1.594-2.313 1.594H2.08v-3.281h1.593c1.547 0 2.5.86 2.5 1.687m0 0"/><path id="ag" d="M5.172-5.312h-.89c-.548 1.421-1.47 3.765-1.516 4.625H2.75c-.062-.72-.687-2.282-.797-2.532L1.11-5.312H.172L2.39 0l-.422 1.094c-.266.593-.438.656-.657.656-.171 0-.546-.047-.921-.187l.078.78c.062.016.469.095.844.095.296 0 .843 0 1.359-1.313Zm0 0"/><path id="ah" d="m3.688-5.36-.485-.515-.828.719v-3.14H1.5v3.874L.328-3.375l.453.547.719-.656V0h.875v-4.234Zm0 0"/><path id="ai" d="M5.484-2.625c0-1.625-1.187-2.86-2.562-2.86-1.406 0-2.563 1.266-2.563 2.86 0 1.563 1.188 2.75 2.563 2.75 1.406 0 2.562-1.219 2.562-2.75m-.906-.125c0 1.469-.844 2.125-1.656 2.125-.86 0-1.656-.719-1.656-2.125 0-1.453.89-2.016 1.656-2.016.812 0 1.656.625 1.656 2.016m0 0"/><path id="aj" d="M5.063 0v-5.312h-.907v3.421c0 .907-.625 1.36-1.406 1.36-.844 0-.922-.313-.922-.844v-3.937H.922v3.984c0 .86.265 1.453 1.25 1.453.344 0 1.281-.062 2.015-.719V0Zm0 0"/><path id="ak" d="M5.563-2.672c0-1.437-.75-2.75-1.875-2.75-.485 0-1.25.156-1.876.672v-.562H.939v7.625h.906V-.531c.406.36.906.656 1.547.656 1.156 0 2.172-1.172 2.172-2.797m-.907.016c0 1.203-.812 2.062-1.703 2.062-.328 0-.562-.125-.781-.297-.297-.25-.328-.468-.328-.656v-2.469a1.47 1.47 0 0 1 1.219-.671c.874 0 1.593.89 1.593 2.03m0 0"/><path id="al" d="M4.797 0v-3.5c0-1.156-.828-1.984-1.938-1.984-.718 0-1.25.172-1.843.5l.078.78c.515-.374 1.062-.593 1.765-.593.547 0 1.032.453 1.032 1.313v.5c-.547.015-1.266.062-1.985.297C1.11-2.422.641-1.97.641-1.375c0 .531.312 1.5 1.328 1.5.656 0 1.5-.203 1.937-.562V0ZM3.89-1.61c0 .25 0 .532-.407.766-.312.203-.718.25-.906.25-.64 0-1.078-.343-1.078-.797 0-.812 1.656-.984 2.39-.984Zm0 0"/><path id="am" d="M1.813 0v-8.297H.938V0Zm0 0"/><path id="an" d="M5.063 0v-3.594c0-.734-.157-1.828-1.594-1.828-.672 0-1.25.297-1.703.875v-.812H.922V0h.906v-2.969c0-.75.281-1.734 1.188-1.734 1.109 0 1.14.766 1.14 1.187V0Zm0 0"/><path id="ao" d="M1.813 0v-5.312H.938V0Zm.078-6.797v-1.016H.859v1.016Zm0 0"/><path id="ap" d="M4.86-2.687c0-.516-.048-1.25-.423-1.876-.5-.828-1.328-.921-1.671-.921C1.469-5.484.39-4.25.39-2.687.39-1.11 1.547.124 2.92.124c.563 0 1.22-.156 1.876-.64 0-.047-.047-.438-.047-.438s-.031-.281-.031-.328c-.703.593-1.407.687-1.766.687-.922 0-1.703-.828-1.734-2.093Zm-.704-.641h-2.86c.204-.813.767-1.438 1.47-1.438.359 0 1.187.157 1.39 1.438m0 0"/><path id="aq" d="M7.766-5.312H6.89l-.703 2.437c-.172.563-.516 1.688-.563 2.203-.047-.281-.234-1.078-.484-1.937l-.797-2.703H3.53L2.844-2.97c-.219.75-.5 1.781-.531 2.282h-.016c-.016-.235-.14-.86-.375-1.672l-.844-2.953H.172L1.766 0h.922c.453-1.5 1.156-3.781 1.218-4.61h.016c.015.485.265 1.344.344 1.626L5.109 0h1.063Zm0 0"/><path id="ar" d="m5.672-4.703-.125-.719c-.234 0-1.047 0-1.828.39-.39-.327-.875-.39-1.11-.39-1.046 0-1.875.875-1.875 1.922 0 .422.125.828.391 1.188a1.64 1.64 0 0 0-.344 1.015c0 .453.156.75.297.906C.468 0 .328.516.328.844c0 .875 1.125 1.61 2.594 1.61 1.453 0 2.594-.704 2.594-1.61 0-1.688-1.938-1.688-2.422-1.688H2.078c-.172 0-.672 0-.672-.625 0-.265.047-.343.11-.437.203.14.593.343 1.078.343 1.031 0 1.875-.859 1.875-1.937a2.13 2.13 0 0 0-.36-1.156 7 7 0 0 1 .954-.063c.046 0 .312 0 .609.016M3.64-3.5c0 1.063-.672 1.281-1.032 1.281-.53 0-1.062-.36-1.062-1.265 0-1.063.672-1.282 1.047-1.282.531 0 1.047.36 1.047 1.266M4.688.844c0 .562-.829.953-1.766.953-.922 0-1.766-.375-1.766-.953 0-.047 0-.813.907-.813h1.046c.266 0 1.579 0 1.579.813m0 0"/><path id="as" d="M5.063 0v-8.297h-.891v3.485a2.65 2.65 0 0 0-1.688-.61c-1.14 0-2.062 1.219-2.062 2.766S1.297.125 2.437.125c.438 0 1.11-.156 1.704-.734V0ZM4.14-1.406c-.282.515-.703.812-1.22.812-.733 0-1.593-.562-1.593-2.047 0-1.593 1.016-2.062 1.703-2.062.469 0 .86.234 1.11.625Zm0 0"/><path id="at" d="M2.11-.016v-.953h-.97V0h.298L1.14 1.5h.468Zm0 0"/><path id="av" d="M5.469 0 3.25-3.266l1.969-2.046h-1.11L1.813-2.906v-5.39H.938V0h.828v-1.719l.906-.953L4.5 0Zm0 0"/><path id="aw" d="M7.406 0 4.391-8.297H3.328L.328 0h.875l.875-2.422h3.375L6.328 0ZM5.203-3.094h-2.86l1.423-4.344Zm0 0"/><path id="ay" d="M5.563-2.672c0-1.469-.782-2.75-1.891-2.75-.344 0-1.11.063-1.86.672v-3.547H.939V0h.906v-.531c.547.515 1.125.656 1.547.656 1.14 0 2.172-1.172 2.172-2.797m-.907 0c0 1.563-.968 2.078-1.703 2.078-.328 0-.562-.125-.781-.297-.281-.25-.328-.453-.328-.656V-4.03c.218-.328.64-.672 1.234-.672.719 0 1.578.547 1.578 2.031m0 0"/><path id="az" d="M3.797-4.625v-.797c-1.078 0-1.719.64-2.047 1.11V-5.36H.938V0h.875v-2.625c0-1.203.906-1.984 1.984-2m0 0"/><path id="aA" d="M5.063 0v-3.594c0-.734-.157-1.828-1.594-1.828-.828 0-1.375.469-1.656.813v-3.688H.922V0h.906v-2.969c0-.75.281-1.734 1.188-1.734 1.109 0 1.14.766 1.14 1.187V0Zm0 0"/><path id="aB" d="M8.328 0v-3.594c0-.828-.219-1.828-1.61-1.828-1.015 0-1.577.703-1.765.969-.203-.766-.86-.969-1.484-.969-.985 0-1.5.625-1.703.875v-.812H.922V0h.906v-2.969c0-.797.313-1.734 1.188-1.734 1.093 0 1.156.75 1.156 1.187V0h.906v-2.969c0-.797.313-1.734 1.188-1.734 1.093 0 1.156.75 1.156 1.187V0Zm0 0"/><path id="aC" d="M4.203-1.516c0-.609-.36-1-.406-1.046-.453-.47-.813-.532-1.531-.672-.438-.094-1.047-.203-1.047-.813 0-.734.843-.734 1-.734.625 0 1.125.14 1.656.437l.14-.765a3.9 3.9 0 0 0-1.687-.375c-.265 0-1.937 0-1.937 1.547 0 .53.297.89.468 1.062.438.36.735.422 1.438.563.39.093 1.078.234 1.078.859 0 .828-.922.828-1.094.828A3.12 3.12 0 0 1 .47-1.219l-.14.813c.046.031.859.531 1.968.531 1.547 0 1.906-.937 1.906-1.64m0 0"/><path id="aD" d="M4.703 0v-.734H2.984c-.14 0-.28.015-.421.015H1.547l3.11-4.125v-.468H.483v.703h2.953L.329-.484V0Zm0 0"/><path id="aE" d="m3.89-.344-.171-.703c-.422.375-.86.422-1.078.422-.532 0-.594-.562-.594-.984v-3h1.64v-.703h-1.64v-1.516h-.828v1.516h-1v.703h.969v3.203c0 .703.156 1.531.984 1.531.797 0 1.36-.281 1.719-.469m0 0"/><path id="aF" d="M2.11 0v-.969h-.97V0Zm0 0"/><path id="aG" d="M4.86-2.687c0-.516-.048-1.25-.423-1.876-.5-.828-1.328-.921-1.671-.921C1.469-5.484.39-4.25.39-2.687.39-1.141 1.5.078 2.844.124c-.531.344-.875.828-.828 1.39 0 .516.375 1.016 1.172 1.016.39 0 .703-.062 1.171-.297l-.156-.703c-.266.11-.547.172-.812.172-.328-.031-.625-.094-.625-.453-.016-.531.5-.969 1.047-1.281.328-.094.64-.25.984-.485 0-.046-.047-.437-.047-.437s-.031-.281-.031-.328c-.703.593-1.407.687-1.766.687-.922 0-1.703-.828-1.734-2.093Zm-.704-.641h-2.86c.204-.813.767-1.438 1.47-1.438.359 0 1.187.157 1.39 1.438m0 0"/><path id="aH" d="M9.016 0v-8.297h-1.36L6.281-4.609c-.61 1.672-1.078 2.922-1.203 3.468h-.016c-.03-.203-.187-.64-.343-1.109-.219-.64-.219-.672-.407-1.156L2.5-8.296H1.14V0h.923v-7.375c.171.813 2.109 5.922 2.562 7.125H5.5c.39-1.031 2.36-6.234 2.578-7.14h.016V0Zm0 0"/><path id="aI" d="M6.797-5.875c0-1.266-1.172-2.422-2.797-2.422H1.094V0h1.015v-3.453H4c1.656 0 2.797-1.188 2.797-2.422m-.953-.016c0 .938-.735 1.75-2.094 1.75H2.094v-3.484H3.75c1.406 0 2.094.828 2.094 1.734m0 0"/><path id="aJ" d="M5.484-2.625c0-1.625-1.187-2.86-2.562-2.86-1.406 0-2.563 1.266-2.563 2.86 0 1.563 1.188 2.75 2.563 2.75 1.406 0 2.562-1.219 2.562-2.75m-.906-.125c0 1.469-.844 2.125-1.656 2.125-.86 0-1.656-.719-1.656-2.125 0-1.453.89-2.016 1.656-2.016.812 0 1.656.625 1.656 2.016m-.016-5.547h-.906l-1.547 2h.72Zm0 0"/><path id="aL" d="M4.86-.5c0-.031-.032-.406-.048-.453l-.015-.344a2.8 2.8 0 0 1-1.828.672c-1 0-1.64-.875-1.64-2.047 0-.984.484-2.078 1.671-2.078.797 0 1.14.203 1.656.547l.14-.781c-.702-.407-1.093-.5-1.796-.5-1.656 0-2.578 1.453-2.578 2.812C.422-1.14 1.516.125 2.953.125c.578 0 1.25-.156 1.906-.625m0 0"/><path id="aN" d="M2.14.703v-6.015h-.89v6.14c0 .781-.625.86-.875.86-.531 0-.86-.344-.875-.375l-.234.718c.375.235.859.406 1.406.406.75 0 1.469-.624 1.469-1.734m0-7.5v-1.016H1.11v1.016Zm0 0"/><path id="aO" d="M4.703 0v-.734H2.984c-.14 0-.28.015-.421.015H1.547l3.11-4.125v-.468H.483v.703h2.953L.329-.484V0ZM3.047-6.797v-1.016H2.016v1.016Zm0 0"/><path id="aP" d="M6.547 0v-.766H5.422l-3.094.032h-.375l4.531-7.078v-.485H.813v.735h2.343c.14 0 .281-.016.422-.016h1.61L.64-.484V0Zm0 0"/><path id="aR" d="M2.11-4.344v-.968h-.97v.968ZM2.11 0v-.969h-.97V0Zm0 0"/><path id="aS" d="M2.11-.016v-.953h-.97V0h.313l-.312 1.5h.484Zm2.28 0v-.953h-.968V0h.297l-.297 1.5h.469Zm0 0"/><path id="aT" d="M7.969-4.125c0-2.531-1.719-4.422-3.657-4.422-1.984 0-3.671 1.922-3.671 4.422C.64-1.609 2.375.25 4.297.25c1.984 0 3.672-1.875 3.672-4.375m-1.032-.172C6.938-1.953 5.658-.5 4.313-.5c-1.39 0-2.64-1.5-2.64-3.797 0-2.203 1.297-3.516 2.625-3.516 1.375 0 2.64 1.344 2.64 3.516m0 0"/><path id="aU" d="M4.86-.5c0-.031-.032-.406-.048-.453l-.015-.344a2.8 2.8 0 0 1-1.828.672c-1 0-1.64-.875-1.64-2.047 0-.984.484-2.078 1.671-2.078.797 0 1.14.203 1.656.547l.14-.781c-.702-.407-1.093-.5-1.796-.5-1.656 0-2.578 1.453-2.578 2.812C.422-1.14 1.516.125 2.953.125c.578 0 1.25-.156 1.906-.625M4.5-8.297h-.922l-1.547 2h.719Zm0 0"/><path id="aV" d="M2.344-8.297h-.969l.094 6.235h.781Zm0 8.297v-.969h-.969V0Zm0 0"/><path id="aW" d="M2.11-7.344v-.953h-.97v.969h.313l-.312 1.5h.484Zm2.28 0v-.953h-.968v.969h.297l-.297 1.5h.469Zm0 0"/><path id="aY" d="m6.875-.531-.078-.844c-.313.234-.672.484-1.063.61-.375.124-.78.14-1.187.14-.766 0-1.469-.422-1.938-1.031-.546-.703-.796-1.594-.796-2.485 0-.906.25-1.796.796-2.5.47-.609 1.172-1.03 1.938-1.03.36 0 .719.03 1.062.14.344.125.672.297.97.515l.171-1a5.6 5.6 0 0 0-1.078-.312 5.6 5.6 0 0 0-1.125-.094c-1.031 0-1.984.469-2.656 1.25C1.14-6.344.78-5.266.78-4.14c0 1.094.36 2.188 1.11 3.016.672.766 1.625 1.25 2.656 1.25.406 0 .812-.016 1.219-.125.406-.125.765-.328 1.109-.531m0 0"/><path id="aZ" d="M7.094 0v-8.297h-.907V-.89h-.015l-.969-2-2.64-5.406h-1.47V0h.923v-7.406l.968 2L5.625 0Zm0 0"/><path id="ba" d="M4.203-1.516c0-.609-.36-1-.406-1.046-.453-.47-.813-.532-1.531-.672-.438-.094-1.047-.203-1.047-.813 0-.734.843-.734 1-.734.625 0 1.125.14 1.656.437l.14-.765a3.9 3.9 0 0 0-1.687-.375c-.265 0-1.937 0-1.937 1.547 0 .53.297.89.468 1.062.438.36.735.422 1.438.563.39.093 1.078.234 1.078.859 0 .828-.922.828-1.094.828A3.12 3.12 0 0 1 .47-1.219l-.14.813c.046.031.859.531 1.968.531 1.547 0 1.906-.937 1.906-1.64m-.312-6.78h-.922l-1.547 2h.719Zm0 0"/><path id="aQ" d="M4.344-5.125H2.25c-.312 0-.406-.016-.687-.031-.422-.047-.438-.094-.454-.235H.844L.563-3.687h.265c.016-.11.094-.641.219-.72.062-.046.719-.046.828-.046h1.75l-.844 1.047C1.75-2.031 1.656-.766 1.656-.296c0 .093 0 .452.375.452s.375-.36.375-.453v-.328c0-1.547.313-2.25.656-2.687l1.204-1.5c.078-.094.078-.11.078-.313m0 0"/><path id="bf" d="M4.563 0v-.437H3.266v-5.157c0-.187 0-.297-.266-.297-.11 0-.125 0-.203.063-.688.516-1.656.516-1.828.516H.797v.437h.172a4.2 4.2 0 0 0 1.203-.172v4.61H.89V0c.343-.031 1.422-.031 1.828-.031.422 0 1.484 0 1.844.031m0 0"/><path id="bg" d="M4.86-2.953c0-.469-.032-1.39-.485-2.094-.297-.437-.828-.844-1.719-.844-1.281 0-2.218.72-2.218 1.938 0 1.125.765 1.937 2.093 1.937.406 0 .781-.203 1.063-.687v.172c0 .578-.063 1.156-.235 1.531-.109.234-.468.703-1.171.703-.079 0-.454 0-.735-.187a.55.55 0 0 0 .422-.563c0-.375-.281-.578-.578-.578-.25 0-.594.14-.594.594 0 .61.469 1.14 1.5 1.14 1.25 0 2.656-.796 2.656-3.062m-1.266-.89c0 .406-.172 1.452-1.031 1.452-.86 0-.86-.656-.86-1.53 0-.876 0-1.61.984-1.61.563 0 .766.515.797.593.11.297.11.782.11 1.094m0 0"/><path id="bh" d="M4.766-2.016h-.453c-.016.125-.094.766-.235.829-.11.046-.781.046-.937.046H1.859c.485-.39 1.016-.812 1.47-1.125.75-.53 1.437-1.015 1.437-1.89 0-1.047-.953-1.735-2.25-1.735-1.11 0-1.985.532-1.985 1.36 0 .468.36.687.672.687a.65.65 0 0 0 .656-.672c0-.203-.078-.53-.468-.64.312-.25.718-.282.89-.282.735 0 1.203.547 1.203 1.282 0 .656-.375 1.234-.859 1.718l-2 1.985c-.094.094-.094.11-.094.281V0H4.5Zm0 0"/><path id="bi" d="M3.578-1.203c0-.547-.437-1.094-1.203-1.25.719-.266.984-.781.984-1.219 0-.547-.625-.953-1.406-.953-.766 0-1.36.375-1.36.938 0 .234.157.359.36.359.219 0 .36-.156.36-.344 0-.203-.141-.36-.36-.375.25-.297.719-.375.985-.375.312 0 .75.156.75.75 0 .297-.094.625-.282.828-.219.266-.422.281-.765.313-.172.015-.188.015-.22.015 0 0-.077.016-.077.094 0 .094.062.094.187.094h.375c.547 0 .938.375.938 1.125 0 .86-.516 1.125-.906 1.125-.282 0-.907-.078-1.188-.5.328 0 .406-.235.406-.39 0-.22-.172-.376-.39-.376a.38.38 0 0 0-.391.407C.375-.281 1.094.14 1.938.14c.968 0 1.64-.657 1.64-1.344m0 0"/><path id="bj" d="M2.016 1.734v-.328h-.72V-4.89h.72v-.328H.953v6.953Zm0 0"/><path id="bk" d="M3.516-1.406c0-.782-.594-1.5-1.453-1.5-.313 0-.672.062-.985.328v-1.313c.36.094.563.094.672.094.922 0 1.469-.625 1.469-.734 0-.078-.047-.094-.078-.094 0 0-.032 0-.063.016-.172.062-.531.203-1.047.203-.203 0-.562-.016-1.015-.188-.079-.031-.094-.031-.094-.031-.094 0-.094.078-.094.188v2.046c0 .125 0 .204.11.204.062 0 .078 0 .14-.094.297-.375.734-.438.969-.438.422 0 .61.328.64.39.126.235.172.5.172.907 0 .203 0 .61-.218.922a.98.98 0 0 1-.813.422c-.453 0-.922-.25-1.094-.719.266.016.407-.156.407-.344 0-.296-.266-.343-.36-.343 0 0-.343 0-.343.375 0 .625.578 1.25 1.406 1.25.89 0 1.672-.657 1.672-1.547m0 0"/><path id="bl" d="M1.297 1.734v-6.953H.219v.328h.734v6.297H.22v.328Zm0 0"/><path id="bm" d="M7.813-1.75v-.203H.109v.203Zm0 0"/><path id="bn" d="M3.516-1.266H3.28c-.015.157-.094.563-.187.625-.047.047-.578.047-.688.047H1.125c.734-.64.984-.843 1.39-1.172.516-.406 1-.843 1-1.5 0-.843-.734-1.359-1.624-1.359-.86 0-1.453.61-1.453 1.25 0 .344.296.39.375.39.156 0 .359-.124.359-.374 0-.125-.047-.375-.406-.375.218-.485.687-.641 1.015-.641.703 0 1.063.547 1.063 1.11 0 .609-.438 1.078-.656 1.328L.516-.266C.437-.203.437-.187.437 0h2.876Zm0 0"/><path id="bo" d="M3.578-2.297c0-1.719-.765-2.328-1.578-2.328a1.55 1.55 0 0 0-1.11.422c-.234.234-.515.5-.515 1.125 0 .89.703 1.547 1.516 1.547.562 0 .859-.375 1.015-.688v.14c0 1.735-.844 2-1.265 2-.157 0-.532-.015-.72-.233a.315.315 0 0 0 .313-.329.32.32 0 0 0-.328-.328c-.203 0-.328.14-.328.344 0 .469.39.766 1.063.766 1 0 1.937-.938 1.937-2.438M2.891-3c0 .906-.516 1.266-.953 1.266-.282 0-.532-.079-.735-.407-.156-.25-.156-.546-.156-.937 0-.406 0-.672.203-.953.172-.25.39-.39.75-.39s.578.218.688.405c.187.282.203.782.203 1.016m0 0"/><path id="bp" d="M2.516 0v-.25h-.172c-.578 0-.578-.078-.578-.328v-3.61c0-.234 0-.328.578-.328h.172v-.25l-1.078.032-1.079-.032v.25h.172c.578 0 .578.094.578.329v3.609c0 .25 0 .328-.578.328H.36V0l1.079-.031Zm0 0"/><path id="bq" d="M3.594-2.219c0-.765-.094-1.328-.406-1.812-.22-.313-.657-.594-1.204-.594C.36-4.625.36-2.719.36-2.219s0 2.36 1.625 2.36c1.61 0 1.61-1.86 1.61-2.36m-.625-.094c0 .516 0 1.032-.094 1.47-.14.64-.61.78-.89.78-.329 0-.75-.187-.891-.75C1-1.219 1-1.796 1-2.312c0-.515 0-1.046.094-1.421.156-.547.593-.703.89-.703.375 0 .735.234.86.64.11.375.125.875.125 1.485m0 0"/><path id="br" d="M3.578-1.422c0-.89-.703-1.547-1.515-1.547-.563 0-.86.375-1.016.688 0-.563.047-1.078.312-1.516.235-.375.61-.625 1.063-.625.203 0 .484.047.625.234-.172.016-.328.141-.328.344a.32.32 0 0 0 .328.328c.219 0 .344-.14.344-.343 0-.407-.297-.766-.985-.766-1 0-2.031.922-2.031 2.422C.375-.406 1.219.14 2 .14c.844 0 1.578-.657 1.578-1.563m-.672 0c0 .39 0 .688-.187.969A.82.82 0 0 1 2-.078c-.36 0-.625-.203-.781-.516-.094-.203-.157-.562-.157-.968 0-.688.407-1.204.97-1.204.312 0 .53.125.702.375.172.266.172.563.172.97m0 0"/><path id="bs" d="M5.547 0v-.25h-.125c-.469 0-.516-.078-.594-.266L3.125-4.812c-.031-.11-.062-.157-.187-.157-.141 0-.157.047-.204.157L1.125-.734C1.063-.562.938-.25.313-.25V0c.234-.016.484-.031.718-.031.282 0 .797.031.844.031v-.25c-.312 0-.516-.14-.516-.328 0-.063.016-.078.047-.14l.328-.86H3.72l.406 1.016c0 .03.031.078.031.109 0 .203-.375.203-.562.203V0l1.031-.031c.328 0 .86.031.922.031M3.609-1.828H1.83l.89-2.266Zm0 0"/><path id="bt" d="M4.047 0v-.25c-.469 0-.516-.047-.516-.39v-4.204l-1.047.078v.25c.47 0 .516.063.516.391v1.453a1.37 1.37 0 0 0-.969-.406c-.937 0-1.703.703-1.703 1.578S1.062.063 1.938.063c.578 0 .921-.297 1.03-.422v.422ZM2.969-.734c-.172.328-.531.609-.985.609-.39 0-.671-.234-.812-.437-.14-.204-.219-.485-.219-.922 0-.172 0-.688.281-1.016.282-.312.625-.375.829-.375.328 0 .64.156.828.406.078.11.078.11.078.25Zm0 0"/><path id="bu" d="M5.469-2.75V-3c-.188.016-.313.031-.5.031-.219 0-.485-.015-.688-.031v.25c.235 0 .36.14.36.297 0 .062 0 .078-.047.172L3.922-.547l-.75-1.906a.3.3 0 0 1-.031-.125c0-.156.172-.172.375-.172V-3c-.25.016-.5.031-.75.031-.203 0-.422-.015-.625-.031v.25c.172 0 .312 0 .406.047.094.078.156.312.156.312s-.015.063-.031.079L2.016-.641l-.703-1.812c-.032-.094-.032-.094-.032-.125 0-.172.25-.172.375-.172V-3s-.515.031-.797.031C.641-2.969.422-2.984.203-3v.25c.281 0 .438 0 .5.203l.969 2.453c.047.11.062.157.203.157.125 0 .14-.047.172-.141l.797-1.984.765 1.968c.047.094.063.157.204.157.124 0 .14-.047.187-.157l.875-2.234c.14-.344.375-.422.594-.422m0 0"/><path id="bv" d="M3.266-.844c0-.015-.016-.094-.125-.094-.094 0-.11.047-.125.11-.22.562-.75.672-1 .672-.328 0-.641-.14-.844-.406-.266-.329-.266-.75-.266-1.032h2.157c.156 0 .203 0 .203-.14 0-.625-.344-1.375-1.391-1.375a1.59 1.59 0 0 0-1.61 1.578c0 .89.782 1.594 1.704 1.594.937 0 1.297-.75 1.297-.907m-.485-.922H.906c.078-.984.703-1.14.969-1.14.86 0 .89.969.906 1.14m0 0"/><path id="bw" d="M4.11 0v-.25c-.454 0-.516 0-.516-.297v-1.562c0-.61-.297-.97-1.047-.97-.578 0-.938.313-1.14.688v-.687L.374-3v.25c.469 0 .531.047.531.39v1.813c0 .297-.078.297-.531.297V0s.5-.031.797-.031c.25 0 .734.031.797.031v-.25c-.453 0-.516 0-.516-.297v-1.265c0-.72.578-1.063 1.031-1.063.485 0 .547.375.547.734v1.594c0 .297-.062.297-.515.297V0s.5-.031.797-.031c.25 0 .734.031.796.031m0 0"/><path id="bx" d="M2.61-.875v-.39h-.235v.374c0 .485-.219.735-.5.735-.469 0-.469-.578-.469-.703V-2.75h1.078V-3H1.406v-1.281h-.25c0 .625-.281 1.312-.953 1.328v.203h.64v1.875c0 .781.595.938.985.938.469 0 .781-.391.781-.938m0 0"/><clipPath id="b"><path d="M.535.266h6.883v9.636H.535Zm0 0"/></clipPath><clipPath id="a"><path d="M0 0h8v10H0z"/></clipPath><clipPath id="bb"><path d="M15.023 568.348H403v11.336H15.023Zm0 0"/></clipPath><linearGradient id="bc" x1="0" x2="388.063" y1="0" y2="0" gradientTransform="matrix(1 0 0 -1 15.024 579.685)" gradientUnits="userSpaceOnUse"><stop offset="0" stop-color="#f2f2f2"/><stop offset=".25" stop-color="#f2f2f2"/><stop offset=".313" stop-color="#f2f2f2"/><stop offset=".344" stop-color="#f2f2f2"/><stop offset=".359" stop-color="#f3f3f3"/><stop offset=".363" stop-color="#f4f4f4"/><stop offset=".367" stop-color="#f5f5f5"/><stop offset=".371" stop-color="#f6f6f6"/><stop offset=".375" stop-color="#f7f7f7"/><stop offset=".379" stop-color="#f8f8f8"/><stop offset=".383" stop-color="#f9f9f9"/><stop offset=".387" stop-color="#fafafa"/><stop offset=".391" stop-color="#fbfbfb"/><stop offset=".395" stop-color="#fcfcfc"/><stop offset=".398" stop-color="#fcfcfc"/><stop offset=".406" stop-color="#fcfcfc"/><stop offset=".438" stop-color="#fcfcfc"/><stop offset=".5" stop-color="#fcfcfc"/><stop offset=".563" stop-color="#fcfcfc"/><stop offset=".566" stop-color="#fcfcfc"/><stop offset=".57" stop-color="#fbfbfb"/><stop offset=".574" stop-color="#fafafa"/><stop offset=".578" stop-color="#f9f9f9"/><stop offset=".582" stop-color="#f8f8f8"/><stop offset=".586" stop-color="#f7f7f7"/><stop offset=".59" stop-color="#f6f6f6"/><stop offset=".594" stop-color="#f5f5f5"/><stop offset=".598" stop-color="#f4f4f4"/><stop offset=".602" stop-color="#f3f3f3"/><stop offset=".609" stop-color="#f3f3f3"/><stop offset=".625" stop-color="#f2f2f2"/><stop offset=".75" stop-color="#f2f2f2"/><stop offset="1" stop-color="#f2f2f2"/></linearGradient><g id="c" clip-path="url(#a)"><g clip-path="url(#b)"><path fill-rule="evenodd" d="m3.977 7.836 3.441 2.066V1.645c0-.762-.617-1.38-1.375-1.38H1.914C1.152.266.535.884.535 1.646v8.257Zm-2.754.851 2.754-1.652L6.73 8.687V1.646a.69.69 0 0 0-.687-.692H1.914a.69.69 0 0 0-.691.692Zm0 0"/></g></g></defs><use xlink:href="#c" transform="translate(9 27)"/><use xlink:href="#d" x="17.008" y="23.315"/><use xlink:href="#e" x="20.884" y="23.315"/><use xlink:href="#f" x="26.154" y="23.315"/><use xlink:href="#g" x="384.039" y="23.315"/><use xlink:href="#h" x="390.168" y="23.315"/><use xlink:href="#i" x="392.79" y="23.315"/><use xlink:href="#j" x="396.727" y="23.315"/><use xlink:href="#k" x="108.076" y="34.908"/><use xlink:href="#l" x="116.839" y="34.908"/><use xlink:href="#m" x="123.175" y="34.908"/><use xlink:href="#n" x="127.622" y="34.908"/><use xlink:href="#o" x="133.899" y="34.908"/><use xlink:href="#n" x="140.606" y="34.908"/><use xlink:href="#p" x="146.882" y="34.908"/><use xlink:href="#q" x="166.214" y="34.908"/><use xlink:href="#r" x="173.019" y="34.908"/><use xlink:href="#s" x="177.78" y="34.908"/><use xlink:href="#t" x="180.237" y="34.908"/><use xlink:href="#u" x="184.406" y="34.908"/><use xlink:href="#v" x="190.7" y="34.908"/><use xlink:href="#w" x="192.897" y="34.908"/><use xlink:href="#x" x="196.994" y="34.908"/><use xlink:href="#v" x="201.755" y="34.908"/><use xlink:href="#w" x="203.952" y="34.908"/><use xlink:href="#u" x="211.125" y="34.908"/><use xlink:href="#y" x="220.494" y="34.908"/><use xlink:href="#t" x="228.546" y="34.908"/><use xlink:href="#z" x="232.975" y="34.908"/><use xlink:href="#A" x="240.291" y="34.908"/><use xlink:href="#w" x="243.438" y="34.908"/><use xlink:href="#B" x="256.502" y="34.908"/><use xlink:href="#C" x="260.088" y="34.908"/><use xlink:href="#D" x="266.059" y="34.908"/><use xlink:href="#E" x="270.82" y="34.908"/><use xlink:href="#F" x="276.173" y="34.908"/><use xlink:href="#G" x="280.782" y="34.908"/><use xlink:href="#H" x="285.39" y="34.908"/><use xlink:href="#F" x="289.299" y="34.908"/><use xlink:href="#I" x="293.908" y="34.908"/><use xlink:href="#J" x="298.516" y="34.908"/><use xlink:href="#K" x="303.125" y="34.908"/><path fill="none" stroke="#000" stroke-miterlimit="10" stroke-width=".398" d="M17.008 39.293h384.094"/><use xlink:href="#L" x="399.042" y="84.459"/><use xlink:href="#M" x="399.042" y="78.115"/><use xlink:href="#N" x="399.042" y="73.413"/><use xlink:href="#O" x="399.042" y="70.113"/><use xlink:href="#P" x="399.042" y="65.881"/><use xlink:href="#Q" x="399.042" y="58.827"/><use xlink:href="#R" x="399.042" y="51.774"/><use xlink:href="#S" x="399.042" y="47.072"/><use xlink:href="#T" x="399.042" y="44.721"/><use xlink:href="#U" x="403.164" y="40.487"/><use xlink:href="#V" x="403.164" y="46.831"/><use xlink:href="#W" x="403.164" y="51.533"/><use xlink:href="#X" x="403.164" y="54.833"/><use xlink:href="#Y" x="403.164" y="59.065"/><use xlink:href="#X" x="403.164" y="63.767"/><use xlink:href="#Z" x="403.164" y="67.999"/><use xlink:href="#aa" x="403.164" y="77.866"/><use xlink:href="#ab" x="403.164" y="82.569"/><use xlink:href="#ac" x="403.164" y="84.92"/><use xlink:href="#ad" x="29.262" y="61.174"/><use xlink:href="#ae" x="45.772" y="51.089" fill="red"/><use xlink:href="#af" x="45.772" y="61.174"/><use xlink:href="#ag" x="53.543" y="61.174"/><use xlink:href="#ah" x="58.899" y="61.174"/><use xlink:href="#ai" x="62.33" y="61.174"/><use xlink:href="#aj" x="72.085" y="61.174"/><use xlink:href="#ak" x="78.086" y="61.174"/><use xlink:href="#al" x="84.088" y="61.174"/><use xlink:href="#am" x="89.695" y="61.174"/><use xlink:href="#an" x="92.444" y="61.174"/><use xlink:href="#ao" x="98.446" y="61.174"/><use xlink:href="#ap" x="101.195" y="61.174"/><use xlink:href="#ai" x="110.293" y="61.174"/><use xlink:href="#aq" x="115.828" y="61.174"/><use xlink:href="#ap" x="123.468" y="61.174"/><use xlink:href="#ar" x="128.668" y="61.174"/><use xlink:href="#ai" x="134.526" y="61.174"/><use xlink:href="#as" x="144.281" y="61.174"/><use xlink:href="#an" x="150.283" y="61.174"/><use xlink:href="#ao" x="156.284" y="61.174"/><use xlink:href="#al" x="159.034" y="61.174"/><use xlink:href="#at" x="164.641" y="61.174"/><use xlink:href="#au" x="45.772" y="72.733" fill="red"/><use xlink:href="#av" x="45.772" y="82.818"/><use xlink:href="#ao" x="51.451" y="82.818"/><use xlink:href="#ap" x="54.2" y="82.818"/><use xlink:href="#as" x="59.401" y="82.818"/><use xlink:href="#ag" x="65.402" y="82.818"/><use xlink:href="#aw" x="74.655" y="82.818"/><use xlink:href="#ax" x="82.39" y="72.733" fill="red"/><use xlink:href="#ay" x="82.39" y="82.818"/><use xlink:href="#az" x="88.069" y="82.818"/><use xlink:href="#al" x="92.05" y="82.818"/><use xlink:href="#aA" x="97.657" y="82.818"/><use xlink:href="#al" x="103.658" y="82.818"/><use xlink:href="#aB" x="109.265" y="82.818"/><use xlink:href="#aC" x="45.772" y="104.462"/><use xlink:href="#ao" x="50.255" y="104.462"/><use xlink:href="#ap" x="53.005" y="104.462"/><use xlink:href="#as" x="58.205" y="104.462"/><use xlink:href="#aD" x="64.207" y="104.462"/><use xlink:href="#ao" x="69.287" y="104.462"/><use xlink:href="#al" x="72.037" y="104.462"/><use xlink:href="#ah" x="77.644" y="104.462"/><use xlink:href="#ak" x="85.295" y="104.462"/><use xlink:href="#az" x="90.974" y="104.462"/><use xlink:href="#aD" x="94.955" y="104.462"/><use xlink:href="#ap" x="100.036" y="104.462"/><use xlink:href="#as" x="105.236" y="104.462"/><use xlink:href="#aC" x="115.135" y="104.462"/><use xlink:href="#aq" x="119.618" y="104.462"/><use xlink:href="#ai" x="127.257" y="104.462"/><use xlink:href="#ao" x="133.115" y="104.462"/><use xlink:href="#aB" x="135.865" y="104.462"/><use xlink:href="#an" x="149.015" y="104.462"/><use xlink:href="#al" x="155.017" y="104.462"/><use xlink:href="#ae" x="160.625" y="94.376" fill="red"/><use xlink:href="#aB" x="160.625" y="104.462"/><use xlink:href="#ao" x="169.878" y="104.462"/><use xlink:href="#ai" x="172.628" y="104.462"/><use xlink:href="#aE" x="178.486" y="104.462"/><use xlink:href="#ap" x="182.718" y="104.462"/><use xlink:href="#aB" x="187.918" y="104.462"/><use xlink:href="#aF" x="197.171" y="104.462"/><use xlink:href="#ae" x="45.772" y="116.02" fill="red"/><use xlink:href="#af" x="45.772" y="126.105"/><use xlink:href="#ag" x="53.543" y="126.105"/><use xlink:href="#ah" x="58.899" y="126.105"/><use xlink:href="#ai" x="62.33" y="126.105"/><use xlink:href="#aj" x="72.085" y="126.105"/><use xlink:href="#ak" x="78.086" y="126.105"/><use xlink:href="#al" x="84.088" y="126.105"/><use xlink:href="#am" x="89.695" y="126.105"/><use xlink:href="#an" x="92.444" y="126.105"/><use xlink:href="#ao" x="98.446" y="126.105"/><use xlink:href="#ap" x="101.195" y="126.105"/><use xlink:href="#ai" x="110.293" y="126.105"/><use xlink:href="#aq" x="115.828" y="126.105"/><use xlink:href="#ap" x="123.468" y="126.105"/><use xlink:href="#ar" x="128.668" y="126.105"/><use xlink:href="#ai" x="134.526" y="126.105"/><use xlink:href="#as" x="144.281" y="126.105"/><use xlink:href="#an" x="150.283" y="126.105"/><use xlink:href="#ao" x="156.284" y="126.105"/><use xlink:href="#al" x="159.034" y="126.105"/><use xlink:href="#at" x="164.641" y="126.105"/><use xlink:href="#au" x="45.772" y="137.664" fill="red"/><use xlink:href="#av" x="45.772" y="147.749"/><use xlink:href="#ao" x="51.451" y="147.749"/><use xlink:href="#ap" x="54.2" y="147.749"/><use xlink:href="#as" x="59.401" y="147.749"/><use xlink:href="#ag" x="65.402" y="147.749"/><use xlink:href="#aw" x="74.655" y="147.749"/><use xlink:href="#ay" x="82.39" y="147.749"/><use xlink:href="#az" x="88.069" y="147.749"/><use xlink:href="#ax" x="92.05" y="137.664" fill="red"/><use xlink:href="#al" x="92.05" y="147.749"/><use xlink:href="#aA" x="97.657" y="147.749"/><use xlink:href="#al" x="103.658" y="147.749"/><use xlink:href="#aB" x="109.265" y="147.749"/><use xlink:href="#aC" x="45.772" y="169.393"/><use xlink:href="#ao" x="50.255" y="169.393"/><use xlink:href="#ap" x="53.005" y="169.393"/><use xlink:href="#as" x="58.205" y="169.393"/><use xlink:href="#aD" x="64.207" y="169.393"/><use xlink:href="#ao" x="69.287" y="169.393"/><use xlink:href="#al" x="72.037" y="169.393"/><use xlink:href="#ah" x="77.644" y="169.393"/><use xlink:href="#ak" x="85.295" y="169.393"/><use xlink:href="#ai" x="91.619" y="169.393"/><use xlink:href="#as" x="97.8" y="169.393"/><use xlink:href="#as" x="107.699" y="169.393"/><use xlink:href="#aG" x="113.7" y="169.393"/><use xlink:href="#ay" x="118.901" y="169.393"/><use xlink:href="#ap" x="125.225" y="169.393"/><use xlink:href="#aB" x="130.425" y="169.393"/><use xlink:href="#ae" x="143.577" y="159.307" fill="red"/><use xlink:href="#aH" x="143.577" y="169.393"/><use xlink:href="#al" x="153.739" y="169.393"/><use xlink:href="#aB" x="159.346" y="169.393"/><use xlink:href="#az" x="168.599" y="169.393"/><use xlink:href="#ap" x="172.58" y="169.393"/><use xlink:href="#aF" x="177.78" y="169.393"/><use xlink:href="#aI" x="45.772" y="191.036"/><use xlink:href="#ai" x="52.897" y="191.036"/><use xlink:href="#as" x="59.078" y="191.036"/><use xlink:href="#an" x="65.079" y="191.036"/><use xlink:href="#ao" x="71.081" y="191.036"/><use xlink:href="#aJ" x="73.83" y="191.036"/><use xlink:href="#aC" x="79.688" y="191.036"/><use xlink:href="#ah" x="84.171" y="191.036"/><use xlink:href="#aC" x="87.603" y="191.036"/><use xlink:href="#aD" x="92.086" y="191.036"/><use xlink:href="#ag" x="97.167" y="191.036"/><use xlink:href="#aK" x="106.42" y="180.951" fill="red"/><use xlink:href="#ai" x="106.42" y="191.036"/><use xlink:href="#aL" x="112.601" y="191.036"/><use xlink:href="#aD" x="117.801" y="191.036"/><use xlink:href="#ag" x="122.882" y="191.036"/><use xlink:href="#at" x="127.258" y="191.036"/><use xlink:href="#ak" x="134.407" y="191.036"/><use xlink:href="#ai" x="140.731" y="191.036"/><use xlink:href="#aM" x="146.59" y="180.951" fill="red"/><use xlink:href="#ak" x="146.59" y="191.036"/><use xlink:href="#al" x="152.591" y="191.036"/><use xlink:href="#aE" x="158.198" y="191.036"/><use xlink:href="#az" x="162.43" y="191.036"/><use xlink:href="#aD" x="166.411" y="191.036"/><use xlink:href="#ag" x="171.492" y="191.036"/><use xlink:href="#ah" x="176.848" y="191.036"/><use xlink:href="#at" x="180.602" y="191.036"/><use xlink:href="#al" x="45.772" y="212.68"/><use xlink:href="#ai" x="55.276" y="212.68"/><use xlink:href="#aE" x="61.134" y="212.68"/><use xlink:href="#ai" x="65.366" y="212.68"/><use xlink:href="#aE" x="75.122" y="212.68"/><use xlink:href="#az" x="79.354" y="212.68"/><use xlink:href="#aD" x="83.335" y="212.68"/><use xlink:href="#ap" x="88.416" y="212.68"/><use xlink:href="#aN" x="93.616" y="212.68"/><use xlink:href="#aB" x="100.598" y="212.68"/><use xlink:href="#aG" x="109.851" y="212.68"/><use xlink:href="#ax" x="115.052" y="202.595" fill="red"/><use xlink:href="#aO" x="115.052" y="212.68"/><use xlink:href="#ai" x="120.133" y="212.68"/><use xlink:href="#aq" x="125.668" y="212.68"/><use xlink:href="#ao" x="133.63" y="212.68"/><use xlink:href="#ap" x="136.38" y="212.68"/><use xlink:href="#aC" x="45.772" y="234.324"/><use xlink:href="#aE" x="50.255" y="234.324"/><use xlink:href="#al" x="54.487" y="234.324"/><use xlink:href="#am" x="60.094" y="234.324"/><use xlink:href="#ao" x="62.844" y="234.324"/><use xlink:href="#ae" x="69.491" y="224.238" fill="red"/><use xlink:href="#ak" x="69.491" y="234.324"/><use xlink:href="#az" x="75.17" y="234.324"/><use xlink:href="#aD" x="79.151" y="234.324"/><use xlink:href="#ap" x="84.232" y="234.324"/><use xlink:href="#as" x="89.432" y="234.324"/><use xlink:href="#an" x="99.331" y="234.324"/><use xlink:href="#ao" x="105.332" y="234.324"/><use xlink:href="#aB" x="108.082" y="234.324"/><use xlink:href="#aF" x="117.335" y="234.324"/><use xlink:href="#aP" x="45.772" y="255.967"/><use xlink:href="#al" x="52.921" y="255.967"/><use xlink:href="#am" x="58.528" y="255.967"/><use xlink:href="#ap" x="61.278" y="255.967"/><use xlink:href="#as" x="66.478" y="255.967"/><use xlink:href="#aq" x="72.479" y="255.967"/><use xlink:href="#ao" x="80.442" y="255.967"/><use xlink:href="#ap" x="83.191" y="255.967"/><use xlink:href="#ao" x="92.289" y="255.967"/><use xlink:href="#aL" x="95.039" y="255.967"/><use xlink:href="#aA" x="100.239" y="255.967"/><use xlink:href="#ax" x="110.138" y="245.882" fill="red"/><use xlink:href="#aj" x="110.138" y="255.967"/><use xlink:href="#aN" x="116.139" y="255.967"/><use xlink:href="#az" x="119.224" y="255.967"/><use xlink:href="#aD" x="123.205" y="255.967"/><use xlink:href="#al" x="128.286" y="255.967"/><use xlink:href="#ah" x="133.893" y="255.967"/><use xlink:href="#at" x="137.646" y="255.967"/><use xlink:href="#ak" x="45.772" y="277.611"/><use xlink:href="#ai" x="52.096" y="277.611"/><use xlink:href="#aL" x="58.277" y="277.611"/><use xlink:href="#aA" x="63.477" y="277.611"/><use xlink:href="#ag" x="69.479" y="277.611"/><use xlink:href="#am" x="74.835" y="277.611"/><use xlink:href="#ao" x="77.584" y="277.611"/><use xlink:href="#ah" x="80.334" y="277.611"/><use xlink:href="#aC" x="87.985" y="277.611"/><use xlink:href="#ao" x="92.468" y="277.611"/><use xlink:href="#aG" x="95.218" y="277.611"/><use xlink:href="#as" x="104.316" y="277.611"/><use xlink:href="#ai" x="110.317" y="277.611"/><use xlink:href="#aD" x="120.072" y="277.611"/><use xlink:href="#ao" x="125.153" y="277.611"/><use xlink:href="#ap" x="127.903" y="277.611"/><use xlink:href="#ax" x="133.104" y="267.525" fill="red"/><use xlink:href="#aQ" x="140.433" y="263.186" fill="red"/><use xlink:href="#aB" x="133.104" y="277.611"/><use xlink:href="#ao" x="142.357" y="277.611"/><use xlink:href="#ao" x="149.004" y="277.611"/><use xlink:href="#ak" x="155.651" y="277.611"/><use xlink:href="#ai" x="161.975" y="277.611"/><use xlink:href="#ae" x="167.834" y="267.525" fill="red"/><use xlink:href="#aq" x="167.834" y="277.611"/><use xlink:href="#ao" x="175.796" y="277.611"/><use xlink:href="#ap" x="178.546" y="277.611"/><use xlink:href="#as" x="183.746" y="277.611"/><use xlink:href="#aD" x="189.748" y="277.611"/><use xlink:href="#ao" x="194.828" y="277.611"/><use xlink:href="#al" x="197.578" y="277.611"/><use xlink:href="#ah" x="203.185" y="277.611"/><use xlink:href="#aR" x="206.939" y="277.611"/><use xlink:href="#aS" x="45.772" y="299.254"/><use xlink:href="#aT" x="50.972" y="299.254"/><use xlink:href="#aI" x="63.501" y="299.254"/><use xlink:href="#al" x="70.626" y="299.254"/><use xlink:href="#an" x="76.233" y="299.254"/><use xlink:href="#ao" x="82.235" y="299.254"/><use xlink:href="#ap" x="84.984" y="299.254"/><use xlink:href="#aK" x="94.083" y="289.169" fill="red"/><use xlink:href="#aB" x="94.083" y="299.254"/><use xlink:href="#aJ" x="103.336" y="299.254"/><use xlink:href="#aN" x="109.194" y="299.254"/><use xlink:href="#at" x="112.279" y="299.254"/><use xlink:href="#an" x="45.772" y="320.898"/><use xlink:href="#ao" x="51.773" y="320.898"/><use xlink:href="#ap" x="54.523" y="320.898"/><use xlink:href="#ai" x="63.621" y="320.898"/><use xlink:href="#aB" x="69.479" y="320.898"/><use xlink:href="#ao" x="78.732" y="320.898"/><use xlink:href="#aN" x="81.482" y="320.898"/><use xlink:href="#al" x="84.566" y="320.898"/><use xlink:href="#aN" x="90.173" y="320.898"/><use xlink:href="#aB" x="97.155" y="320.898"/><use xlink:href="#an" x="106.408" y="320.898"/><use xlink:href="#ao" x="112.409" y="320.898"/><use xlink:href="#ap" x="115.159" y="320.898"/><use xlink:href="#at" x="120.359" y="320.898"/><use xlink:href="#aM" x="127.509" y="310.813" fill="red"/><use xlink:href="#ak" x="127.509" y="320.898"/><use xlink:href="#az" x="133.188" y="320.898"/><use xlink:href="#ai" x="137.169" y="320.898"/><use xlink:href="#aC" x="143.027" y="320.898"/><use xlink:href="#aD" x="147.51" y="320.898"/><use xlink:href="#aG" x="152.591" y="320.898"/><use xlink:href="#at" x="157.791" y="320.898"/><use xlink:href="#aL" x="45.772" y="342.542"/><use xlink:href="#aA" x="50.972" y="342.542"/><use xlink:href="#aL" x="56.974" y="342.542"/><use xlink:href="#ao" x="62.174" y="342.542"/><use xlink:href="#ap" x="64.924" y="342.542"/><use xlink:href="#aN" x="70.124" y="342.542"/><use xlink:href="#aC" x="77.106" y="342.542"/><use xlink:href="#ao" x="81.589" y="342.542"/><use xlink:href="#aG" x="84.339" y="342.542"/><use xlink:href="#aD" x="93.437" y="342.542"/><use xlink:href="#al" x="98.517" y="342.542"/><use xlink:href="#aE" x="104.124" y="342.542"/><use xlink:href="#ax" x="108.357" y="332.456" fill="red"/><use xlink:href="#az" x="108.357" y="342.542"/><use xlink:href="#aD" x="112.338" y="342.542"/><use xlink:href="#ag" x="117.419" y="342.542"/><use xlink:href="#aB" x="122.775" y="342.542"/><use xlink:href="#al" x="132.028" y="342.542"/><use xlink:href="#aU" x="137.635" y="342.542"/><use xlink:href="#aV" x="142.835" y="342.542"/><use xlink:href="#aW" x="146.553" y="342.542"/><use xlink:href="#aX" x="25.902" y="367.174"/><use xlink:href="#aY" x="45.772" y="367.174"/><use xlink:href="#aA" x="53.256" y="367.174"/><use xlink:href="#aL" x="59.257" y="367.174"/><use xlink:href="#ao" x="64.458" y="367.174"/><use xlink:href="#ap" x="67.207" y="367.174"/><use xlink:href="#aN" x="72.408" y="367.174"/><use xlink:href="#aC" x="79.389" y="367.174"/><use xlink:href="#ao" x="83.873" y="367.174"/><use xlink:href="#aG" x="86.622" y="367.174"/><use xlink:href="#aD" x="95.72" y="367.174"/><use xlink:href="#al" x="100.801" y="367.174"/><use xlink:href="#aE" x="106.408" y="367.174"/><use xlink:href="#ae" x="110.641" y="357.089" fill="red"/><use xlink:href="#az" x="110.641" y="367.174"/><use xlink:href="#aD" x="114.622" y="367.174"/><use xlink:href="#ag" x="119.703" y="367.174"/><use xlink:href="#aB" x="125.059" y="367.174"/><use xlink:href="#al" x="134.312" y="367.174"/><use xlink:href="#aU" x="139.919" y="367.174"/><use xlink:href="#aV" x="145.119" y="367.174"/><use xlink:href="#aZ" x="45.772" y="388.818"/><use xlink:href="#ao" x="53.973" y="388.818"/><use xlink:href="#ap" x="56.723" y="388.818"/><use xlink:href="#ai" x="65.821" y="388.818"/><use xlink:href="#aB" x="71.678" y="388.818"/><use xlink:href="#ao" x="80.932" y="388.818"/><use xlink:href="#aN" x="83.681" y="388.818"/><use xlink:href="#al" x="86.766" y="388.818"/><use xlink:href="#aN" x="92.373" y="388.818"/><use xlink:href="#aB" x="99.354" y="388.818"/><use xlink:href="#an" x="108.608" y="388.818"/><use xlink:href="#ao" x="114.609" y="388.818"/><use xlink:href="#ap" x="117.359" y="388.818"/><use xlink:href="#at" x="122.559" y="388.818"/><use xlink:href="#aK" x="129.709" y="378.732" fill="red"/><use xlink:href="#ak" x="129.709" y="388.818"/><use xlink:href="#az" x="135.388" y="388.818"/><use xlink:href="#ai" x="139.369" y="388.818"/><use xlink:href="#aC" x="145.227" y="388.818"/><use xlink:href="#aD" x="149.71" y="388.818"/><use xlink:href="#aG" x="154.791" y="388.818"/><use xlink:href="#at" x="159.991" y="388.818"/><use xlink:href="#aL" x="45.772" y="410.461"/><use xlink:href="#aA" x="50.972" y="410.461"/><use xlink:href="#aL" x="56.974" y="410.461"/><use xlink:href="#ao" x="62.174" y="410.461"/><use xlink:href="#ap" x="64.924" y="410.461"/><use xlink:href="#aN" x="70.124" y="410.461"/><use xlink:href="#aC" x="77.106" y="410.461"/><use xlink:href="#ao" x="81.589" y="410.461"/><use xlink:href="#aG" x="84.339" y="410.461"/><use xlink:href="#aD" x="93.437" y="410.461"/><use xlink:href="#al" x="98.517" y="410.461"/><use xlink:href="#aM" x="104.125" y="400.376" fill="red"/><use xlink:href="#aE" x="104.125" y="410.461"/><use xlink:href="#az" x="108.357" y="410.461"/><use xlink:href="#aD" x="112.338" y="410.461"/><use xlink:href="#ag" x="117.419" y="410.461"/><use xlink:href="#aB" x="122.775" y="410.461"/><use xlink:href="#al" x="132.028" y="410.461"/><use xlink:href="#aU" x="137.635" y="410.461"/><use xlink:href="#aV" x="142.835" y="410.461"/><use xlink:href="#aY" x="45.772" y="432.105"/><use xlink:href="#aA" x="53.256" y="432.105"/><use xlink:href="#aL" x="59.257" y="432.105"/><use xlink:href="#ao" x="64.458" y="432.105"/><use xlink:href="#ap" x="67.207" y="432.105"/><use xlink:href="#aN" x="72.408" y="432.105"/><use xlink:href="#aC" x="79.389" y="432.105"/><use xlink:href="#ao" x="83.873" y="432.105"/><use xlink:href="#aG" x="86.622" y="432.105"/><use xlink:href="#aD" x="95.72" y="432.105"/><use xlink:href="#al" x="100.801" y="432.105"/><use xlink:href="#ax" x="106.408" y="422.02" fill="red"/><use xlink:href="#aE" x="106.408" y="432.105"/><use xlink:href="#az" x="110.64" y="432.105"/><use xlink:href="#aD" x="114.621" y="432.105"/><use xlink:href="#ag" x="119.702" y="432.105"/><use xlink:href="#aB" x="125.058" y="432.105"/><use xlink:href="#al" x="134.311" y="432.105"/><use xlink:href="#aU" x="139.918" y="432.105"/><use xlink:href="#aV" x="145.118" y="432.105"/><use xlink:href="#ad" x="222.445" y="61.174"/><use xlink:href="#ae" x="238.955" y="51.089" fill="red"/><use xlink:href="#aI" x="238.955" y="61.174"/><use xlink:href="#az" x="246.403" y="61.174"/><use xlink:href="#aD" x="250.384" y="61.174"/><use xlink:href="#ag" x="255.465" y="61.174"/><use xlink:href="#an" x="260.821" y="61.174"/><use xlink:href="#ao" x="266.822" y="61.174"/><use xlink:href="#ai" x="269.572" y="61.174"/><use xlink:href="#aC" x="275.43" y="61.174"/><use xlink:href="#aG" x="279.913" y="61.174"/><use xlink:href="#aE" x="289.011" y="61.174"/><use xlink:href="#az" x="293.243" y="61.174"/><use xlink:href="#ai" x="297.224" y="61.174"/><use xlink:href="#aL" x="303.404" y="61.174"/><use xlink:href="#aA" x="308.605" y="61.174"/><use xlink:href="#aG" x="314.606" y="61.174"/><use xlink:href="#ax" x="323.705" y="51.089" fill="red"/><use xlink:href="#aq" x="323.705" y="61.174"/><use xlink:href="#ai" x="331.344" y="61.174"/><use xlink:href="#as" x="337.525" y="61.174"/><use xlink:href="#ag" x="343.526" y="61.174"/><use xlink:href="#at" x="347.902" y="61.174"/><use xlink:href="#aq" x="238.955" y="82.818"/><use xlink:href="#ag" x="246.917" y="82.818"/><use xlink:href="#aD" x="256.17" y="82.818"/><use xlink:href="#al" x="261.251" y="82.818"/><use xlink:href="#ba" x="266.858" y="82.818"/><use xlink:href="#ai" x="275.238" y="82.818"/><use xlink:href="#ay" x="281.096" y="82.818"/><use xlink:href="#aB" x="287.098" y="82.818"/><use xlink:href="#ag" x="296.351" y="82.818"/><use xlink:href="#aN" x="301.707" y="82.818"/><use xlink:href="#ap" x="304.791" y="82.818"/><use xlink:href="#aL" x="309.992" y="82.818"/><use xlink:href="#ao" x="315.192" y="82.818"/><use xlink:href="#ap" x="317.942" y="82.818"/><use xlink:href="#aC" x="327.039" y="82.818"/><use xlink:href="#ai" x="331.523" y="82.818"/><use xlink:href="#ay" x="337.381" y="82.818"/><use xlink:href="#ao" x="343.382" y="82.818"/><use xlink:href="#ap" x="346.132" y="82.818"/><use xlink:href="#an" x="355.229" y="82.818"/><use xlink:href="#ai" x="361.231" y="82.818"/><use xlink:href="#ar" x="367.089" y="82.818"/><use xlink:href="#ao" x="372.947" y="82.818"/><use xlink:href="#at" x="375.696" y="82.818"/><use xlink:href="#al" x="238.955" y="104.462"/><use xlink:href="#ak" x="248.459" y="104.462"/><use xlink:href="#ai" x="254.783" y="104.462"/><use xlink:href="#aE" x="260.641" y="104.462"/><use xlink:href="#ap" x="264.873" y="104.462"/><use xlink:href="#aB" x="270.074" y="104.462"/><use xlink:href="#ai" x="283.224" y="104.462"/><use xlink:href="#as" x="289.405" y="104.462"/><use xlink:href="#ak" x="295.407" y="104.462"/><use xlink:href="#ai" x="301.731" y="104.462"/><use xlink:href="#aL" x="307.911" y="104.462"/><use xlink:href="#aD" x="313.112" y="104.462"/><use xlink:href="#an" x="318.193" y="104.462"/><use xlink:href="#ao" x="324.194" y="104.462"/><use xlink:href="#ap" x="326.944" y="104.462"/><use xlink:href="#aL" x="332.144" y="104.462"/><use xlink:href="#ao" x="337.345" y="104.462"/><use xlink:href="#ap" x="340.094" y="104.462"/><use xlink:href="#ae" x="349.194" y="94.376" fill="red"/><use xlink:href="#aq" x="349.194" y="104.462"/><use xlink:href="#aL" x="361.053" y="104.462"/><use xlink:href="#ao" x="366.254" y="104.462"/><use xlink:href="#ap" x="369.003" y="104.462"/><use xlink:href="#an" x="374.204" y="104.462"/><use xlink:href="#ao" x="380.205" y="104.462"/><use xlink:href="#aj" x="382.955" y="104.462"/><use xlink:href="#aF" x="388.956" y="104.462"/><use xlink:href="#aI" x="238.955" y="129.094"/><use xlink:href="#az" x="246.403" y="129.094"/><use xlink:href="#aD" x="250.384" y="129.094"/><use xlink:href="#ag" x="255.465" y="129.094"/><use xlink:href="#an" x="260.821" y="129.094"/><use xlink:href="#ao" x="266.822" y="129.094"/><use xlink:href="#ai" x="269.572" y="129.094"/><use xlink:href="#aC" x="275.43" y="129.094"/><use xlink:href="#aG" x="279.913" y="129.094"/><use xlink:href="#av" x="289.011" y="129.094"/><use xlink:href="#aG" x="294.366" y="129.094"/><use xlink:href="#aC" x="299.567" y="129.094"/><use xlink:href="#ax" x="307.948" y="119.009" fill="red"/><use xlink:href="#aL" x="307.948" y="129.094"/><use xlink:href="#aA" x="313.148" y="129.094"/><use xlink:href="#am" x="319.15" y="129.094"/><use xlink:href="#ap" x="321.899" y="129.094"/><use xlink:href="#ay" x="327.1" y="129.094"/><use xlink:href="#al" x="333.101" y="129.094"/><use xlink:href="#at" x="338.708" y="129.094"/><use xlink:href="#al" x="238.955" y="150.738"/><use xlink:href="#ay" x="244.562" y="150.738"/><use xlink:href="#ag" x="250.241" y="150.738"/><use xlink:href="#ba" x="255.596" y="150.738"/><use xlink:href="#aL" x="260.079" y="150.738"/><use xlink:href="#ao" x="265.28" y="150.738"/><use xlink:href="#ap" x="268.03" y="150.738"/><use xlink:href="#aC" x="277.127" y="150.738"/><use xlink:href="#ao" x="281.61" y="150.738"/><use xlink:href="#aG" x="284.36" y="150.738"/><use xlink:href="#ak" x="293.458" y="150.738"/><use xlink:href="#ai" x="299.782" y="150.738"/><use xlink:href="#av" x="305.64" y="150.738"/><use xlink:href="#az" x="311.319" y="150.738"/><use xlink:href="#aD" x="315.3" y="150.738"/><use xlink:href="#ap" x="320.381" y="150.738"/><use xlink:href="#ak" x="325.581" y="150.738"/><use xlink:href="#ao" x="331.582" y="150.738"/><use xlink:href="#am" x="334.332" y="150.738"/><use xlink:href="#ao" x="337.082" y="150.738"/><use xlink:href="#at" x="339.831" y="150.738"/><use xlink:href="#aD" x="238.955" y="172.381"/><use xlink:href="#al" x="244.036" y="172.381"/><use xlink:href="#an" x="249.643" y="172.381"/><use xlink:href="#ao" x="255.644" y="172.381"/><use xlink:href="#aB" x="258.394" y="172.381"/><use xlink:href="#ak" x="271.544" y="172.381"/><use xlink:href="#aJ" x="277.869" y="172.381"/><use xlink:href="#aN" x="283.726" y="172.381"/><use xlink:href="#as" x="286.811" y="172.381"/><use xlink:href="#aD" x="292.812" y="172.381"/><use xlink:href="#ao" x="297.893" y="172.381"/><use xlink:href="#ap" x="300.643" y="172.381"/><use xlink:href="#aL" x="305.843" y="172.381"/><use xlink:href="#ao" x="311.044" y="172.381"/><use xlink:href="#ap" x="313.793" y="172.381"/><use xlink:href="#ae" x="322.892" y="162.296" fill="red"/><use xlink:href="#as" x="322.892" y="172.381"/><use xlink:href="#al" x="328.893" y="172.381"/><use xlink:href="#am" x="334.5" y="172.381"/><use xlink:href="#ap" x="337.25" y="172.381"/><use xlink:href="#aN" x="342.45" y="172.381"/><use xlink:href="#aF" x="345.535" y="172.381"/><use xlink:href="#aZ" x="238.955" y="197.014"/><use xlink:href="#ao" x="247.156" y="197.014"/><use xlink:href="#ap" x="249.906" y="197.014"/><use xlink:href="#ak" x="259.004" y="197.014"/><use xlink:href="#az" x="264.682" y="197.014"/><use xlink:href="#aD" x="268.663" y="197.014"/><use xlink:href="#ap" x="273.744" y="197.014"/><use xlink:href="#aD" x="278.944" y="197.014"/><use xlink:href="#ak" x="287.923" y="197.014"/><use xlink:href="#az" x="293.601" y="197.014"/><use xlink:href="#aD" x="297.582" y="197.014"/><use xlink:href="#ag" x="302.663" y="197.014"/><use xlink:href="#aK" x="308.02" y="186.928" fill="red"/><use xlink:href="#ak" x="308.02" y="197.014"/><use xlink:href="#al" x="314.021" y="197.014"/><use xlink:href="#as" x="319.628" y="197.014"/><use xlink:href="#ap" x="325.63" y="197.014"/><use xlink:href="#av" x="330.83" y="197.014"/><use xlink:href="#ak" x="238.955" y="218.657"/><use xlink:href="#az" x="244.634" y="218.657"/><use xlink:href="#aD" x="248.615" y="218.657"/><use xlink:href="#ap" x="253.696" y="218.657"/><use xlink:href="#aL" x="258.896" y="218.657"/><use xlink:href="#aA" x="264.096" y="218.657"/><use xlink:href="#ai" x="270.098" y="218.657"/><use xlink:href="#as" x="276.279" y="218.657"/><use xlink:href="#aD" x="282.28" y="218.657"/><use xlink:href="#ao" x="287.361" y="218.657"/><use xlink:href="#am" x="290.11" y="218.657"/><use xlink:href="#ao" x="292.86" y="218.657"/><use xlink:href="#ba" x="295.61" y="218.657"/><use xlink:href="#aL" x="300.093" y="218.657"/><use xlink:href="#ao" x="305.293" y="218.657"/><use xlink:href="#ap" x="308.043" y="218.657"/><use xlink:href="#aM" x="317.142" y="208.572" fill="red"/><use xlink:href="#as" x="317.142" y="218.657"/><use xlink:href="#aD" x="323.143" y="218.657"/><use xlink:href="#ao" x="328.224" y="218.657"/><use xlink:href="#aC" x="330.974" y="218.657"/><use xlink:href="#ao" x="335.457" y="218.657"/><use xlink:href="#al" x="338.207" y="218.657"/><use xlink:href="#aN" x="343.814" y="218.657"/><use xlink:href="#ai" x="238.955" y="240.301"/><use xlink:href="#ay" x="244.813" y="240.301"/><use xlink:href="#ai" x="251.137" y="240.301"/><use xlink:href="#av" x="256.995" y="240.301"/><use xlink:href="#ax" x="266.571" y="230.216" fill="red"/><use xlink:href="#aB" x="266.571" y="240.301"/><use xlink:href="#an" x="275.824" y="240.301"/><use xlink:href="#ao" x="281.826" y="240.301"/><use xlink:href="#ap" x="284.575" y="240.301"/><use xlink:href="#aF" x="289.776" y="240.301"/><use xlink:href="#aX" x="219.085" y="273.9"/><use xlink:href="#aT" x="238.955" y="273.9"/><use xlink:href="#aI" x="251.484" y="273.9"/><use xlink:href="#al" x="258.609" y="273.9"/><use xlink:href="#an" x="264.216" y="273.9"/><use xlink:href="#ao" x="270.217" y="273.9"/><use xlink:href="#ap" x="272.967" y="273.9"/><use xlink:href="#ae" x="282.065" y="263.815" fill="red"/><use xlink:href="#aB" x="282.065" y="273.9"/><use xlink:href="#aJ" x="291.318" y="273.9"/><use xlink:href="#aN" x="297.176" y="273.9"/><use xlink:href="#at" x="300.261" y="273.9"/><use xlink:href="#an" x="238.955" y="295.544"/><use xlink:href="#ao" x="244.956" y="295.544"/><use xlink:href="#ap" x="247.706" y="295.544"/><use xlink:href="#ai" x="256.804" y="295.544"/><use xlink:href="#aB" x="262.662" y="295.544"/><use xlink:href="#ao" x="271.915" y="295.544"/><use xlink:href="#aN" x="274.665" y="295.544"/><use xlink:href="#al" x="277.749" y="295.544"/><use xlink:href="#aN" x="283.356" y="295.544"/><use xlink:href="#aB" x="290.338" y="295.544"/><use xlink:href="#an" x="299.591" y="295.544"/><use xlink:href="#ao" x="305.592" y="295.544"/><use xlink:href="#ap" x="308.342" y="295.544"/><use xlink:href="#at" x="313.542" y="295.544"/><use xlink:href="#aK" x="320.692" y="285.458" fill="red"/><use xlink:href="#ak" x="320.692" y="295.544"/><use xlink:href="#az" x="326.371" y="295.544"/><use xlink:href="#ai" x="330.352" y="295.544"/><use xlink:href="#aC" x="336.21" y="295.544"/><use xlink:href="#aD" x="340.693" y="295.544"/><use xlink:href="#aG" x="345.774" y="295.544"/><use xlink:href="#at" x="350.974" y="295.544"/><use xlink:href="#aL" x="238.955" y="317.187"/><use xlink:href="#aA" x="244.155" y="317.187"/><use xlink:href="#aL" x="250.157" y="317.187"/><use xlink:href="#ao" x="255.357" y="317.187"/><use xlink:href="#ap" x="258.107" y="317.187"/><use xlink:href="#aN" x="263.307" y="317.187"/><use xlink:href="#aC" x="270.289" y="317.187"/><use xlink:href="#ao" x="274.772" y="317.187"/><use xlink:href="#aG" x="277.522" y="317.187"/><use xlink:href="#aD" x="286.62" y="317.187"/><use xlink:href="#al" x="291.7" y="317.187"/><use xlink:href="#aM" x="297.308" y="307.102" fill="red"/><use xlink:href="#aE" x="297.308" y="317.187"/><use xlink:href="#az" x="301.54" y="317.187"/><use xlink:href="#aD" x="305.521" y="317.187"/><use xlink:href="#ag" x="310.602" y="317.187"/><use xlink:href="#aB" x="315.958" y="317.187"/><use xlink:href="#al" x="325.211" y="317.187"/><use xlink:href="#aU" x="330.818" y="317.187"/><use xlink:href="#at" x="336.018" y="317.187"/><use xlink:href="#aL" x="238.955" y="338.831"/><use xlink:href="#aA" x="244.155" y="338.831"/><use xlink:href="#aL" x="250.157" y="338.831"/><use xlink:href="#ao" x="255.357" y="338.831"/><use xlink:href="#ap" x="258.107" y="338.831"/><use xlink:href="#aN" x="263.307" y="338.831"/><use xlink:href="#aC" x="270.289" y="338.831"/><use xlink:href="#ao" x="274.772" y="338.831"/><use xlink:href="#aG" x="277.522" y="338.831"/><use xlink:href="#aD" x="286.62" y="338.831"/><use xlink:href="#al" x="291.7" y="338.831"/><use xlink:href="#ax" x="297.308" y="328.746" fill="red"/><use xlink:href="#aE" x="297.308" y="338.831"/><use xlink:href="#az" x="301.54" y="338.831"/><use xlink:href="#aD" x="305.521" y="338.831"/><use xlink:href="#ag" x="310.602" y="338.831"/><use xlink:href="#aB" x="315.958" y="338.831"/><use xlink:href="#al" x="325.211" y="338.831"/><use xlink:href="#aU" x="330.818" y="338.831"/><use xlink:href="#aV" x="336.018" y="338.831"/><use xlink:href="#aY" x="238.955" y="372.43"/><use xlink:href="#aA" x="246.439" y="372.43"/><use xlink:href="#aL" x="252.44" y="372.43"/><use xlink:href="#ao" x="257.641" y="372.43"/><use xlink:href="#ap" x="260.39" y="372.43"/><use xlink:href="#aN" x="265.591" y="372.43"/><use xlink:href="#aC" x="272.572" y="372.43"/><use xlink:href="#ao" x="277.056" y="372.43"/><use xlink:href="#aG" x="279.805" y="372.43"/><use xlink:href="#aD" x="288.903" y="372.43"/><use xlink:href="#al" x="293.984" y="372.43"/><use xlink:href="#ae" x="299.592" y="362.344" fill="red"/><use xlink:href="#aE" x="299.592" y="372.43"/><use xlink:href="#az" x="303.824" y="372.43"/><use xlink:href="#aD" x="307.805" y="372.43"/><use xlink:href="#ag" x="312.886" y="372.43"/><use xlink:href="#aB" x="318.242" y="372.43"/><use xlink:href="#al" x="327.495" y="372.43"/><use xlink:href="#aU" x="333.102" y="372.43"/><use xlink:href="#at" x="338.302" y="372.43"/><use xlink:href="#an" x="238.955" y="394.073"/><use xlink:href="#ao" x="244.956" y="394.073"/><use xlink:href="#ap" x="247.706" y="394.073"/><use xlink:href="#ai" x="256.804" y="394.073"/><use xlink:href="#aB" x="262.662" y="394.073"/><use xlink:href="#ao" x="271.915" y="394.073"/><use xlink:href="#aN" x="274.665" y="394.073"/><use xlink:href="#al" x="277.749" y="394.073"/><use xlink:href="#aN" x="283.356" y="394.073"/><use xlink:href="#aB" x="290.338" y="394.073"/><use xlink:href="#an" x="299.591" y="394.073"/><use xlink:href="#ao" x="305.592" y="394.073"/><use xlink:href="#ap" x="308.342" y="394.073"/><use xlink:href="#at" x="313.542" y="394.073"/><use xlink:href="#aK" x="320.692" y="383.988" fill="red"/><use xlink:href="#ak" x="320.692" y="394.073"/><use xlink:href="#az" x="326.371" y="394.073"/><use xlink:href="#ai" x="330.352" y="394.073"/><use xlink:href="#aC" x="336.21" y="394.073"/><use xlink:href="#aD" x="340.693" y="394.073"/><use xlink:href="#aG" x="345.774" y="394.073"/><use xlink:href="#at" x="350.974" y="394.073"/><use xlink:href="#aL" x="238.955" y="415.717"/><use xlink:href="#aA" x="244.155" y="415.717"/><use xlink:href="#aL" x="250.157" y="415.717"/><use xlink:href="#ao" x="255.357" y="415.717"/><use xlink:href="#ap" x="258.107" y="415.717"/><use xlink:href="#aN" x="263.307" y="415.717"/><use xlink:href="#aC" x="270.289" y="415.717"/><use xlink:href="#ao" x="274.772" y="415.717"/><use xlink:href="#aG" x="277.522" y="415.717"/><use xlink:href="#aD" x="286.62" y="415.717"/><use xlink:href="#al" x="291.7" y="415.717"/><use xlink:href="#aM" x="297.308" y="405.632" fill="red"/><use xlink:href="#aE" x="297.308" y="415.717"/><use xlink:href="#az" x="301.54" y="415.717"/><use xlink:href="#aD" x="305.521" y="415.717"/><use xlink:href="#ag" x="310.602" y="415.717"/><use xlink:href="#aB" x="315.958" y="415.717"/><use xlink:href="#al" x="325.211" y="415.717"/><use xlink:href="#aU" x="330.818" y="415.717"/><use xlink:href="#aV" x="336.018" y="415.717"/><use xlink:href="#aY" x="238.955" y="437.361"/><use xlink:href="#aA" x="246.439" y="437.361"/><use xlink:href="#aL" x="252.44" y="437.361"/><use xlink:href="#ao" x="257.641" y="437.361"/><use xlink:href="#ap" x="260.39" y="437.361"/><use xlink:href="#aN" x="265.591" y="437.361"/><use xlink:href="#aC" x="272.572" y="437.361"/><use xlink:href="#ao" x="277.056" y="437.361"/><use xlink:href="#aG" x="279.805" y="437.361"/><use xlink:href="#aD" x="288.903" y="437.361"/><use xlink:href="#al" x="293.984" y="437.361"/><use xlink:href="#ax" x="299.592" y="427.275" fill="red"/><use xlink:href="#aE" x="299.592" y="437.361"/><use xlink:href="#az" x="303.824" y="437.361"/><use xlink:href="#aD" x="307.805" y="437.361"/><use xlink:href="#ag" x="312.886" y="437.361"/><use xlink:href="#aB" x="318.242" y="437.361"/><use xlink:href="#al" x="327.495" y="437.361"/><use xlink:href="#aU" x="333.102" y="437.361"/><use xlink:href="#aV" x="338.302" y="437.361"/><g clip-path="url(#bb)"><path fill="url(#bc)" d="M15.023 579.684v-11.336h388.063v11.336Zm0 0"/></g><use xlink:href="#bd" x="387.641" y="577.985"/><use xlink:href="#be" x="394.372" y="577.985"/><path fill="#f2f2f2" stroke="#000" stroke-miterlimit="10" stroke-width=".797" d="M196.602 576.055v-3.989a2.99 2.99 0 0 1 2.988-2.988h18.93a2.99 2.99 0 0 1 2.988 2.988v3.989a2.99 2.99 0 0 1-2.988 2.988h-18.93a2.99 2.99 0 0 1-2.988-2.988Zm0 0"/><use xlink:href="#bf" x="198.439" y="576.948"/><use xlink:href="#bg" x="203.747" y="576.948"/><use xlink:href="#bg" x="209.055" y="576.948"/><use xlink:href="#bh" x="214.363" y="576.948"/><use xlink:href="#bi" x="17.008" y="577.985"/><use xlink:href="#bj" x="23.661" y="577.985"/><use xlink:href="#bk" x="25.914" y="577.985"/><use xlink:href="#bk" x="29.882" y="577.985"/><use xlink:href="#bl" x="33.85" y="577.985"/><use xlink:href="#bm" x="38.788" y="577.985"/><use xlink:href="#bn" x="49.416" y="577.985"/><use xlink:href="#bo" x="53.384" y="577.985"/><use xlink:href="#bp" x="60.038" y="577.985"/><use xlink:href="#bn" x="65.603" y="577.985"/><use xlink:href="#bq" x="69.571" y="577.985"/><use xlink:href="#bn" x="73.539" y="577.985"/><use xlink:href="#br" x="77.508" y="577.985"/><use xlink:href="#bm" x="84.161" y="577.985"/><use xlink:href="#bs" x="94.789" y="577.985"/><use xlink:href="#bt" x="100.452" y="577.985"/><use xlink:href="#bu" x="104.852" y="577.985"/><use xlink:href="#bv" x="110.327" y="577.985"/><use xlink:href="#bw" x="113.87" y="577.985"/><use xlink:href="#bx" x="118.054" y="577.985"/><use xlink:href="#bn" x="123.85" y="577.985"/><use xlink:href="#bq" x="127.818" y="577.985"/><use xlink:href="#bn" x="131.786" y="577.985"/><use xlink:href="#bk" x="135.754" y="577.985"/></svg>