<svg xmlns="http://www.w3.org/2000/svg" xmlns:xlink="http://www.w3.org/1999/xlink" width="559.371" height="793.701" viewBox="0 0 419.528 595.276"><defs><path id="d" d="M3.344 2.297v-.078L1.5-2.5l1.844-4.703v-.078c0-.11-.078-.203-.188-.203a.24.24 0 0 0-.203.14L1.11-2.562c-.015.015-.015.046-.015.062 0 .031 0 .063.015.078L2.953 2.36a.24.24 0 0 0 .203.141c.11 0 .188-.094.188-.203m0 0"/><path id="e" d="M4.969-1.422c0-.11-.094-.11-.125-.11-.094 0-.11.048-.14.188-.173.64-.345 1.235-.75 1.235-.282 0-.298-.266-.298-.453 0-.22.016-.313.125-.75L4-2.203l.36-1.39c.062-.282.062-.298.062-.344 0-.172-.11-.266-.281-.266-.25 0-.391.219-.422.437-.188-.375-.469-.64-.922-.64-1.156 0-2.39 1.468-2.39 2.922C.406-.547.952.109 1.718.109c.203 0 .703-.046 1.297-.75a.91.91 0 0 0 .906.75c.36 0 .578-.234.75-.546.156-.36.297-.985.297-.985m-1.375-1.89a.6.6 0 0 1-.031.171l-.485 1.954c-.062.187-.062.203-.203.375-.437.546-.844.703-1.125.703-.5 0-.64-.547-.64-.938 0-.5.312-1.719.546-2.187.313-.578.75-.953 1.157-.953.64 0 .78.812.78.875m0 0"/><path id="f" d="M2.781-2.5c0-.016 0-.047-.015-.062L.922-7.344c-.031-.078-.11-.14-.188-.14a.207.207 0 0 0-.203.203v.078L2.375-2.5.531 2.219v.078c0 .11.094.203.203.203.079 0 .157-.062.188-.14l1.844-4.782c.015-.015.015-.047.015-.078m0 0"/><path id="g" d="M6.047-.156c0-.094-.11-.11-.14-.11-.25 0-.376-.03-.5-.312L4.218-3.297 5.766-4.5c.218-.172.812-.625 1.312-.672.063-.016.156-.031.156-.156 0-.047-.03-.11-.109-.11 0 0-.234.016-.281.016h-.328c-.266 0-.563-.016-.813-.016-.047 0-.172 0-.172.141 0 .11.14.125.14.125.11 0 .173.047.173.11 0 .125-.14.25-.172.28l-.047.048c-.016.015-.031.015-.094.078L2.563-2.344l.609-2.5c.078-.265.125-.328.61-.328.171 0 .265 0 .265-.156 0-.047-.031-.11-.125-.11-.14 0-.313.016-.453.016h-.953l-.453-.016c-.047 0-.172 0-.172.141 0 .125.093.125.234.125.219 0 .438 0 .438.11 0 .046 0 .062-.032.171L1.47-.609c-.078.28-.125.343-.61.343-.171 0-.265 0-.265.157C.594-.047.64 0 .719 0c.031 0 .39-.016.453-.031h.484c.672 0 .89.031.938.031s.156 0 .156-.156c0-.11-.094-.11-.234-.11-.25 0-.438 0-.438-.125 0-.046.047-.218.078-.328l.297-1.203 1.25-.969.985 2.25c.046.094.046.11.046.141 0 .203-.187.234-.343.234-.094 0-.188.016-.188.157 0 .062.047.109.11.109.28 0 .578-.031.843-.031.672 0 .64.031.735.031.03 0 .156 0 .156-.156m0 0"/><path id="h" d="M2.828-1.14c0-.11-.11-.11-.156-.11-.125 0-.125.031-.172.172-.14.516-.406.937-.734.937-.157 0-.188-.109-.188-.25 0-.187.063-.328.188-.656l.515-1.39c.063-.172.094-.25.094-.422 0-.438-.312-.657-.656-.657-.75 0-1.078 1.11-1.078 1.22 0 .108.093.108.14.108.14 0 .14-.03.172-.171.125-.407.375-.938.75-.938.14 0 .172.11.172.25 0 .188-.047.344-.156.61L1.156-.953a1.1 1.1 0 0 0-.078.375c0 .36.266.656.672.656.75 0 1.078-1.125 1.078-1.219m.125-3.704a.354.354 0 0 0-.36-.375.55.55 0 0 0-.53.532c0 .234.171.359.359.359.265 0 .531-.234.531-.516m0 0"/><path id="i" d="M4.14-1.14c0-.11-.109-.11-.14-.11-.14 0-.156.047-.187.172-.11.453-.266.937-.61.937-.14 0-.25-.078-.25-.375 0-.125.031-.265.063-.39.03-.125.03-.172.03-.25 0-.563-.546-.75-1.108-.86.296-.187.625-.53.671-.593.454-.5.766-.688 1.063-.688.11 0 .172.063.203.11-.156.03-.344.171-.344.39s.188.266.281.266c.204 0 .407-.14.407-.453 0-.266-.157-.532-.547-.532s-.75.266-1.188.735c-.484.515-.656.594-.796.672l.796-3.188c0-.031.016-.094.016-.125 0-.11-.125-.11-.219-.094l-.828.063c-.11.016-.187.016-.187.156 0 .125.093.125.203.125.375 0 .375.047.375.11a.7.7 0 0 1-.032.171L.657-.266c0 .032-.015.079-.015.11 0 .11.078.234.25.234.14 0 .265-.094.328-.297l.39-1.578c.313.031.891.172.891.656 0 .047 0 .079-.031.188a1 1 0 0 0-.031.25c0 .437.296.781.734.781.36 0 .562-.265.656-.406.188-.297.313-.766.313-.813m0 0"/><path id="j" d="M4.297-2.172c0-.828-.547-1.344-1.266-1.344C2-3.516.921-2.437.921-1.266c0 .875.595 1.344 1.267 1.344 1.062 0 2.109-1.094 2.109-2.25m-.594-.281c0 .265-.125 1.031-.437 1.578-.266.438-.688.734-1.078.734-.297 0-.672-.203-.672-.843 0-.36.172-1.11.422-1.547.343-.578.812-.766 1.078-.766.39 0 .687.297.687.844m0 0"/><path id="k" d="M8.016-2.312c0-1.688-1.657-1.954-2.094-2.032 1.094-.25 1.734-.875 1.734-1.797 0-2.156-2.547-2.156-3.047-2.156H1.656c-.422 0-.562.14-.562.578v7.14c0 .438.125.579.562.579h3.282c.89 0 3.078-.156 3.078-2.312M6.03-6.11c0 1.359-1.578 1.359-1.875 1.359h-1.39v-2.516h1.406c.469 0 1.86.032 1.86 1.157m.328 3.765C6.36-1.109 5.08-1.03 4.5-1.03H2.766v-2.86H4.28c.422 0 2.078 0 2.078 1.547m0 0"/><path id="l" d="M5.672-.578v-3.203c0-1.89-1.828-1.89-2.422-1.89-.562 0-1.156.046-1.953.374-.25.11-.313.14-.313.281 0 .079.063.766.079.875a.17.17 0 0 0 .156.125c.062 0 .093-.03.125-.078.515-.531 1.125-.797 1.86-.797.64 0 .843.391.843 1.094v.422c-.422 0-3.563.031-3.563 1.781C.484-.75 1.156.125 2.22.125c.406 0 1.297-.11 1.86-.937v.234c0 .39.077.578.577.578h.438c.453 0 .578-.156.578-.578M4.047-1.844c0 1.11-1.14 1.11-1.172 1.11-.516 0-.828-.422-.828-.875 0-1.172 1.656-1.266 2-1.266Zm0 0"/><path id="m" d="M4.25-4.719v-.562c0-.235 0-.328-.203-.328-.344 0-1.219.125-1.781 1.406v-.766c0-.39-.094-.578-.578-.578h-.391c-.422 0-.563.125-.563.578v4.39C.734-.14.86 0 1.297 0h.453c.453 0 .563-.156.563-.578V-2.75c0-1.14.953-1.594 1.703-1.656.218 0 .234 0 .234-.313m0 0"/><path id="n" d="M5.969-.578v-3.313c0-1.218-.516-1.718-1.735-1.718-1.265 0-1.796.906-1.953 1.234h-.015v-.594c0-.39-.079-.578-.563-.578h-.406c-.438 0-.578.125-.578.578v4.39c0 .438.125.579.578.579h.469c.453 0 .578-.156.578-.578v-2.64c0-1.032.687-1.532 1.312-1.532.578 0 .688.281.688.89v3.282c0 .39.093.578.578.578h.484c.453 0 .563-.156.563-.578m0 0"/><path id="o" d="M5.938-.266s0-.109-.11-.265L3.734-3.25l1.844-1.703c.14-.14.188-.172.188-.266 0-.25-.25-.25-.407-.25h-.703c-.203 0-.437 0-.718.25l-1.72 1.594v-4.094c0-.39-.077-.578-.562-.578h-.25c-.437 0-.578.14-.578.578v7.14c0 .438.125.579.578.579h.203c.454 0 .579-.156.579-.578v-1.235l.562-.515L4.297-.297c.203.266.297.297.64.297h.579c.156 0 .422 0 .422-.266m0 0"/><path id="p" d="M5.969-.578v-4.328c0-.375-.078-.563-.563-.563h-.484c-.453 0-.578.157-.578.563v2.843c0 .782-.407 1.47-1.266 1.47-.656 0-.734-.173-.734-.813v-3.5c0-.375-.078-.563-.578-.563h-.47c-.437 0-.577.125-.577.563V-1.5c0 1.266.687 1.625 1.937 1.625.313 0 1.172 0 1.735-1.016v.313c0 .39.078.578.562.578h.453c.453 0 .563-.156.563-.578m0 0"/><path id="q" d="M6.188-2.687c0-1.97-.954-2.985-2.907-2.985-1.984 0-2.906 1.063-2.906 2.984C.375-.733 1.406.126 3.281.126s2.907-.86 2.907-2.812m-1.625-.141c0 .937 0 2.031-1.282 2.031C2-.797 2-1.875 2-2.828c0-.922 0-1.985 1.281-1.985s1.281 1.047 1.281 1.985m0 0"/><path id="r" d="M5.266-.437c0-.454-.36-.454-.72-.454L2.72-.875h-.547l2.922-3.687c.125-.157.14-.22.14-.407 0-.5-.375-.5-.578-.5H1.125c-.156 0-.578 0-.578.453 0 .438.39.438.703.438l1.734-.031h.454L.515-.906C.39-.75.375-.687.375-.5c0 .5.36.5.563.5h3.765c.156 0 .563 0 .563-.437M3.719-7.25v-.219c0-.39-.078-.578-.578-.578h-.61c-.453 0-.578.156-.578.578v.219c0 .36.063.578.578.578h.61c.5 0 .578-.219.578-.578m0 0"/><path id="s" d="M5.656-5.156c0-.313-.328-.313-.484-.313h-.266c-.187 0-.453 0-.625.266-.031.062-1 2.703-1.062 3.5h-.016c-.062-.578-.547-1.688-1.062-2.844-.328-.75-.422-.922-1.016-.922H.813c-.172 0-.47 0-.47.313 0 .047.032.125.063.187L2.672 0c-.11.25-.14.375-.172.5-.14.39-.344.938-1 .938-.39 0-.656-.172-.797-.25C.641 1.14.625 1.14.578 1.14s-.14.03-.14.172c0 .093.062.921.093.968.11.14.766.172.953.172 1.485 0 2.063-1.406 2.157-1.703l1.953-5.656c.062-.157.062-.188.062-.25m0 0"/><path id="t" d="M5.89 0 4.814-6.219h-.829L.266 0h.703L2.03-1.781h2.657L5 0ZM4.595-2.312H2.359l1.797-3.25Zm0 0"/><path id="u" d="m5.203-3.484.031-.594c-.171 0-.765 0-1.5.281a1.26 1.26 0 0 0-.812-.281c-.828 0-1.625.672-1.797 1.453-.047.234-.062.563.11.906-.22.235-.36.5-.423.75-.046.25-.015.5.079.672C.375 0 .17.391.125.641c-.14.656.625 1.203 1.781 1.203 1.157 0 2.157-.547 2.297-1.219.266-1.25-1.219-1.266-1.61-1.266h-.827c-.11 0-.516 0-.422-.468.031-.172.093-.235.14-.297.22.156.5.265.797.265.828 0 1.625-.687 1.797-1.468a1.34 1.34 0 0 0-.062-.797c-.032-.047-.032-.063-.032-.063.016-.047.454-.047.579-.047.062 0 .39 0 .64.032m-1.781.859c-.156.734-.656.938-1.016.938-.422 0-.765-.266-.625-.922.157-.735.657-.938 1.016-.938.406 0 .765.266.625.922M3.547.641c-.078.39-.797.672-1.516.672-.703 0-1.328-.266-1.234-.688 0 0 .125-.578.812-.578h.844c.188 0 1.219 0 1.094.594m0 0"/><path id="v" d="m4.031 0 .563-2.656c.14-.672.125-1.422-.969-1.422-.703 0-1.219.406-1.484.672l.14-.625h-.687L.719 0h.75l.468-2.187c.125-.594.516-1.313 1.188-1.313.906 0 .766.64.719.906L3.28 0Zm0 0"/><path id="w" d="m4.031 0 .844-3.984h-.75l-.547 2.593c-.156.72-.765.954-1.312.954-.641 0-.657-.204-.578-.579l.625-2.968h-.75l-.625 3C.766-.22 1.016.094 1.656.094c.516 0 1.235-.14 1.75-.531L3.312 0Zm0 0"/><path id="x" d="M3.563-1.156a.97.97 0 0 0-.25-.89c-.25-.267-.5-.329-1.032-.423-.312-.062-.75-.156-.656-.578.11-.515.75-.515.89-.515.657 0 .985.203 1.22.343l.25-.625c-.5-.25-.907-.297-1.282-.297-.203 0-1.515 0-1.765 1.188a.9.9 0 0 0 .187.797c.281.297.5.344 1.078.469.281.046.781.14.672.609C2.75-.5 2.031-.5 1.906-.5c-.531 0-1-.187-1.328-.453l-.25.656c.469.281 1 .39 1.453.39.594 0 1.563-.187 1.782-1.25m0 0"/><path id="y" d="M6.797-3.062c.375-1.75-.594-3.157-2.156-3.157H2.203L.875 0h2.438c1.562 0 3.125-1.36 3.484-3.062m-.844 0c-.328 1.578-1.516 2.53-2.75 2.53H1.828l1.094-5.155h1.375c1.234 0 2.016 1 1.656 2.625m0 0"/><path id="z" d="M4.25-1.969c.063-.281.188-.953-.047-1.5-.25-.562-.797-.672-1.14-.672-1.047 0-2.079.97-2.313 2.11C.5-.844 1.172.094 2.297.094c.422 0 .969-.11 1.562-.438l.079-.61c-.657.391-1.204.47-1.516.47-.75 0-1.172-.657-1.016-1.485ZM3.828-2.5H1.563c.265-.562.812-1.047 1.375-1.047.328 0 .906.14.89 1.047m0 0"/><path id="A" d="m1.453 0 .844-3.984h-.719L.734 0ZM2.61-5.047l.188-.86h-.875l-.172.86Zm0 0"/><path id="B" d="M0-6.047h-.266v.14c0 .5-.062.579-.328.673l-4.922 1.859c-.109.047-.171.063-.171.203s.062.172.171.203l4.688 1.781c.219.079.562.25.562.907H0C-.031-.547-.031-.97-.031-1.11c0-.25 0-.5.031-.875h-.266c0 .343-.171.547-.39.547-.063 0-.078 0-.172-.032l-1-.375v-2.172l1.187-.453C-.547-4.5-.5-4.5-.5-4.5c.234 0 .234.406.234.64H0L-.031-5c0-.437 0-.594.031-1.047m-2.094 2.14v1.97l-2.593-1Zm0 0"/><path id="C" d="M-3.203-4.11a.43.43 0 0 0-.406.454c0 .14.046.531.375.89-.141.204-.282.516-.282.891 0 .781.547 1.36 1.172 1.36.375 0 .656-.204.813-.376a.934.934 0 0 0 1.36-.094c.108.423.421.75.78.75.579 0 1.032-.827 1.032-1.874 0-1-.407-1.875-1.047-1.875-.422 0-.766.25-.89.515-.25.469-.25.86-.25 1.64v.454c-.032.25-.235.438-.532.438-.188 0-.266-.047-.328-.094.187-.344.234-.657.234-.844 0-.781-.547-1.375-1.172-1.375-.297 0-.562.14-.765.328a1.2 1.2 0 0 1-.266-.765c.016.03.063.078.188.078.14 0 .25-.11.25-.25a.25.25 0 0 0-.266-.25m.86 1.5c.296 0 .5.032.656.157a.7.7 0 0 1 .28.578c0 .734-.765.734-.937.734-.297 0-.5-.03-.656-.156a.72.72 0 0 1-.281-.578c0-.734.765-.734.937-.734m2.952-.906c.422 0 .797.61.797 1.407S1.031-.703.61-.703c-.171 0-.64-.14-.64-.781v-.766c0-.219 0-1.266.64-1.266m0 0"/><path id="D" d="M0-4.484h-.266c0 .515 0 .609-.359.609h-1.797c-.656 0-1.094.313-1.094 1.14 0 .797.579 1.157.766 1.25h-.766l.094 1.157h.266c0-.547.047-.61.437-.61h2.094c.36 0 .36.094.36.61H0c-.031-.344-.031-.688-.031-.906 0-.235 0-.563.031-.907h-.266c0 .5 0 .61-.359.61h-1.437c-.844 0-1.235-.64-1.235-1.125s.344-.61.844-.61h1.828c.36 0 .36.094.36.61H0C-.031-3-.031-3.36-.031-3.562c0-.235 0-.579.031-.922m0 0"/><path id="E" d="M-.953-3.516a.12.12 0 0 0-.11.125c0 .094.047.11.094.125.782.282.797.97.797 1.11 0 .36-.156.734-.531.969-.36.234-.875.234-1.11.234v-2.344c0-.172 0-.219-.187-.219-.703 0-1.547.391-1.547 1.516 0 .984.813 1.766 1.797 1.766 1.031 0 1.828-.86 1.828-1.875 0-1-.844-1.407-1.031-1.407m-1.078.547v2.016c-1.11-.078-1.297-.75-1.297-1.047 0-.937 1.125-.969 1.297-.969m0 0"/><path id="F" d="M0-2.125h-.266c0 .5 0 .61-.359.61h-4.906l.093 1.187h.266c0-.547.047-.61.438-.61h4.109c.36 0 .36.094.36.61H0c-.031-.313-.031-.766-.031-.906 0-.157 0-.578.031-.891m0 0"/><path id="G" d="M-1.703-3.984c-.984 0-1.844.828-1.844 1.875s.86 1.875 1.844 1.875c1 0 1.781-.86 1.781-1.875 0-1.032-.781-1.875-1.781-1.875m-.063.703c.36 0 .797.015 1.141.25.313.203.453.562.453.922 0 .422-.203.765-.484.937-.328.203-.719.219-1.11.219-.312 0-.78 0-1.125-.235a1.14 1.14 0 0 1-.437-.921c0-.422.203-.766.469-.938.343-.219.765-.234 1.093-.234m0 0"/><path id="H" d="M0-4.422h-.266c0 .547-.046.61-.437.61h-4.828l.093 1.187h.266c0-.531.047-.61.438-.61h1.687a1.4 1.4 0 0 0-.469 1.079c0 1 .782 1.875 1.797 1.875.985 0 1.797-.797 1.797-1.797 0-.469-.219-.86-.5-1.125h.5Zm-.984 1.219c.14 0 .172 0 .328.125.328.219.515.578.515.953s-.187.688-.484.875c-.312.219-.703.266-1.078.266-.469 0-.797-.079-1.063-.266a1.15 1.15 0 0 1-.53-.953c0-.375.202-.766.608-1Zm0 0"/><path id="I" d="M0-2.078h-.266c0 .531-.03.562-.343.562h-2.907l.094 1.157h.266c0-.516.047-.578.437-.578h2.094c.36 0 .36.093.36.609H0c-.031-.313-.031-.766-.031-.89 0-.095 0-.579.031-.86m-4.797.453a.453.453 0 0 0-.453.453.45.45 0 0 0 .453.438.437.437 0 0 0 .438-.438.45.45 0 0 0-.438-.453m0 0"/><path id="J" d="M-2.672-5.984c-1.531 0-2.765 1.156-2.765 2.593v3.032h.265v-.188c0-.61.078-.625.375-.625H-.64c.297 0 .375.016.375.625v.188H0v-3.032c0-1.437-1.187-2.593-2.672-2.593m0 .812c.406 0 1.188 0 1.766.5.328.266.64.781.64 1.5v.906c0 .375-.046.391-.328.391h-4.265c-.266 0-.313-.016-.313-.39v-.907c0-.625.25-1.14.64-1.5.61-.5 1.47-.5 1.86-.5m0 0"/><path id="K" d="M-1.719-4.422c-1 0-1.797.813-1.797 1.781 0 .313.079.766.5 1.172h-.5l.094 1.188h.266c0-.563.047-.61.375-.61H.922c.36 0 .36.11.36.61h.265c-.031-.344-.031-.688-.031-.906 0-.235 0-.563.03-.907h-.265c0 .516 0 .61-.36.61H-.39a1.37 1.37 0 0 0 .47-1.047c0-1-.782-1.89-1.798-1.89m0 .719c.907 0 1.578.578 1.578 1.219 0 .28-.125.64-.515.906-.14.094-.156.094-.297.094h-1.703a1.3 1.3 0 0 1-.61-1.094c0-.61.672-1.125 1.547-1.125m0 0"/><path id="L" d="M-.437-1.625a.453.453 0 0 0-.454.453c0 .266.22.438.438.438A.44.44 0 0 0 0-1.172a.45.45 0 0 0-.437-.453m0 0"/><path id="M" d="M-1.422-3.797v.25c.156.016.547.078.703.172.063.047.063.656.063.781v1.422l-.969-1.078a9 9 0 0 1-.5-.594c-.453-.484-.89-.953-1.61-.953-.953 0-1.562.797-1.562 1.781 0 .97.719 1.594 1.438 1.594.39 0 .437-.312.437-.422 0-.172-.11-.422-.422-.422-.406 0-.406.407-.406.5-.594-.234-.781-.765-.781-1.156 0-.734.625-1.125 1.297-1.125.828 0 1.437.578 2.39 1.531l1.047 1c.078.094.094.094.297.094v-3.14Zm0 0"/><path id="N" d="M0-3.562h-.266v.28c0 .75-.093.782-.39.782h-4.422c-.219 0-.219.016-.219.234.313.329.5.75.5 1.5h.266c0-.218 0-.64-.203-1.109h4.078c.297 0 .39.031.39.781v.282H0c-.031-.329-.031-1.016-.031-1.375 0-.36 0-1.047.031-1.376m0 0"/><path id="O" d="M1.86 5.64c.077 0 .156 0 .156-.14 0-.078-.047-.11-.125-.11C.67 5.329.094 4.329.094 3.485c0-.671.422-2.187 2.625-2.187 2.156 0 2.625 1.437 2.625 2.187s-.532 1.672-1.907 1.891c-.062 0-.109.016-.109.125 0 .14.047.14.203.14h1.875c.125 0 .203 0 .203-.109 0-.062 0-.062-.109-.14l-.594-.407c.313-.28.703-.812.703-1.578C5.61 1.812 4.33.47 2.72.47s-2.89 1.328-2.89 2.953C-.172 4.75.89 5.64 1.858 5.64m0 0"/><path id="P" d="M1.703 3.984c.984 0 1.844-.828 1.844-1.875 0-1.046-.86-1.875-1.844-1.875-1 0-1.781.86-1.781 1.875 0 1.032.781 1.875 1.781 1.875m.063-.703c-.36 0-.797-.015-1.141-.25C.313 2.828.172 2.47.172 2.11c0-.421.203-.765.484-.937.328-.203.719-.219 1.11-.219.312 0 .78 0 1.125.235.28.218.437.546.437.921 0 .422-.203.766-.469.938-.343.219-.765.234-1.093.234m0 0"/><path id="Q" d="M3.016 3.063c.28 0 .5-.25.5-.61 0-.515-.391-.875-.844-1.031v-.016h.844L3.422.281h-.266c0 .547-.047.61-.437.61H.625C.265.89.265.78.265.28H0c.031.313.031.75.031.938 0 .468 0 .484-.031 1h.266v-.156c0-.579.078-.594.375-.594h1.172c.609 0 1.468.25 1.484 1.015-.031-.046-.094-.14-.281-.14-.25 0-.36.203-.36.36 0 .187.125.358.36.358m0 0"/><path id="R" d="M0 4.422h.266c0-.547.046-.61.437-.61h4.828l-.093-1.187h-.266c0 .531-.047.61-.438.61H3.047c.312-.282.469-.657.469-1.079 0-1-.782-1.875-1.797-1.875-.985 0-1.797.797-1.797 1.797 0 .469.219.86.5 1.125h-.5Zm.984-1.219c-.14 0-.171 0-.328-.125a1.15 1.15 0 0 1-.515-.953c0-.375.187-.687.484-.875.313-.219.703-.266 1.078-.266.469 0 .797.079 1.063.266.297.188.53.547.53.953 0 .375-.202.766-.608 1Zm0 0"/><path id="S" d="M.953 3.516a.12.12 0 0 0 .11-.125c0-.094-.047-.11-.094-.125a1.14 1.14 0 0 1-.797-1.11c0-.36.156-.734.531-.969.36-.234.875-.234 1.11-.234v2.344c0 .172 0 .219.187.219.703 0 1.547-.391 1.547-1.516 0-.984-.813-1.766-1.797-1.766-1.031 0-1.828.86-1.828 1.875 0 1 .844 1.407 1.031 1.407m1.078-.547V.953c1.11.078 1.297.75 1.297 1.047 0 .938-1.125.969-1.297.969m0 0"/><path id="T" d="M2.672 5.984c1.531 0 2.766-1.156 2.766-2.593V.359h-.266v.188c0 .61-.078.625-.375.625H.64c-.297 0-.375-.016-.375-.625V.359H0v3.032c0 1.437 1.188 2.593 2.672 2.593m0-.812c-.406 0-1.188 0-1.766-.5-.328-.266-.64-.781-.64-1.5v-.906c0-.375.046-.391.328-.391h4.265c.266 0 .313.016.313.39v.907c0 .625-.25 1.14-.64 1.5-.61.5-1.47.5-1.86.5m0 0"/><path id="U" d="M0 2.078h.266c0-.531.03-.562.343-.562h2.907L3.422.359h-.266c0 .516-.047.579-.437.579H.625c-.36 0-.36-.094-.36-.61H0c.031.313.031.766.031.89 0 .095 0 .579-.031.86m4.797-.453a.453.453 0 0 0 .453-.453.45.45 0 0 0-.453-.438.437.437 0 0 0-.438.438c0 .25.204.453.438.453m0 0"/><path id="V" d="M1.031 3.047c.375 0 .938-.219 1.11-1.172.015-.062.093-.516.093-.547.063-.25.235-.625.547-.625.235 0 .578.188.578.938 0 .89-.656.937-.875.953-.062 0-.093.062-.093.11 0 .14.062.14.203.14h.75c.125 0 .203 0 .203-.11 0-.046 0-.062-.125-.187 0-.016-.078-.094-.078-.11 0 0 0-.03.031-.078.094-.125.172-.359.172-.718 0-1.11-.594-1.36-.985-1.36-.39 0-.624.297-.656.313-.234.328-.265.5-.36 1.047-.077.375-.187.984-.718.984-.312 0-.687-.203-.687-.937C.14.875.766.64 1.188.547c.109-.031.14-.047.14-.14C1.328.28 1.266.28 1.11.28H.125c-.125 0-.203 0-.203.094 0 .063 0 .063.156.203.047.047.14.125.188.172-.328.36-.344.734-.344.938 0 1.015.578 1.359 1.11 1.359m0 0"/><path id="W" d="M1.719 4.422c1 0 1.797-.813 1.797-1.781 0-.313-.079-.766-.5-1.172h.5L3.422.28h-.266c0 .563-.047.61-.375.61H-.922c-.36 0-.36-.11-.36-.61h-.265c.031.344.031.688.031.907 0 .234 0 .562-.03.906h.265c0-.516 0-.61.36-.61H.39a1.37 1.37 0 0 0-.47 1.047c0 1 .782 1.89 1.798 1.89m0-.719C.812 3.703.14 3.125.14 2.484c0-.28.125-.64.515-.906.14-.094.156-.094.297-.094h1.703c.313.188.61.594.61 1.094 0 .61-.672 1.125-1.547 1.125m0 0"/><path id="X" d="M.438 1.625a.453.453 0 0 0 .453-.453.436.436 0 0 0-.438-.438.44.44 0 0 0-.453.438.45.45 0 0 0 .438.453m0 0"/><path id="Y" d="M0 3.563h.266V3.28c0-.75.093-.781.39-.781h4.422c.219 0 .219-.016.219-.234-.313-.328-.5-.75-.5-1.5H4.53c0 .218 0 .64.203 1.109H.656c-.297 0-.39-.031-.39-.781V.812H0c.031.329.031 1.016.031 1.376s0 1.046-.031 1.374m0 0"/><path id="Z" d="M1.344 3.875c.5 0 .828-.266.968-.406.126-.125.141-.14.563-.828.219.453.61 1 1.234 1 .766 0 1.188-.782 1.188-1.516 0-.844-.578-1.531-1.328-1.531-.297 0-.563.094-.797.297-.172.14-.188.172-.5.656C2.234.563 1.656.344 1.219.344c-.89 0-1.39.89-1.39 1.765 0 .97.671 1.766 1.515 1.766m2.765-.64c-.453 0-.843-.36-1.078-.829l.594-1c.14-.234.375-.422.64-.422.5 0 .829.547.829 1.125 0 .61-.422 1.125-.985 1.125m-3.046.187c-.61 0-.985-.656-.985-1.297 0-.719.485-1.312 1.14-1.312.595 0 1.063.437 1.313.984l-.656 1.078c-.078.125-.328.547-.812.547m0 0"/><path id="aa" d="M1.625 3.875c1.031 0 1.766-.797 1.766-1.672 0-.578-.36-.922-.75-1.11.656 0 1.234.063 1.718.345.407.25.735.656.735 1.156 0 .156-.032.515-.297.703-.031-.36-.297-.39-.375-.39-.25 0-.375.187-.375.374 0 .14.078.375.39.375.47 0 .86-.36.86-1.078C5.297 1.468 4.25.344 2.53.344.36.344-.172 1.359-.172 2.125c0 .39.11.797.453 1.156.313.328.64.594 1.344.594m0-.75c-.406 0-.75 0-1.047-.156-.36-.219-.5-.485-.5-.844a.88.88 0 0 1 .516-.797c.36-.187.89-.203 1.203-.203.781 0 1.375.422 1.375 1.047 0 .39-.203.64-.485.781-.296.172-.656.172-1.062.172m0 0"/><path id="ab" d="M9.953 0v-.516h-.312c-.657 0-.703-.062-.813-.218L5.61-5.047l2.844-2.406c.156-.14.266-.234 1.328-.234v-.516L8.5-8.172c-.36 0-1.297 0-1.594-.031v.515c.266 0 .547.016.86.141l-4.47 3.813v-3.953h1.267v-.516c-.344.031-1.625.031-2.047.031-.438 0-1.72 0-2.063-.031v.515H1.72v7.172H.453V0c.344-.031 1.625-.031 2.063-.031.422 0 1.703 0 2.047.031v-.516H3.297v-2.562L4.53-4.125l2.5 3.344c.016.031.063.094.063.14 0 .125-.578.125-.844.125V0c.39-.031 1.5-.031 1.953-.031.36 0 1.485 0 1.75.031m0 0"/><path id="aG" d="M13.61-7.687v-.516l-1.297.031c-.344 0-1.22 0-1.5-.031v.515c.14 0 1.187 0 1.187.172 0 0 0 .032-.047.141L9.938-2.047l-2.126-5.64h1.125v-.516c-.374.031-1.484.031-1.937.031-.375 0-1.531 0-1.828-.031v.515h1.016l.484 1.297-1.64 4.344-2.126-5.64h1.125v-.516c-.343.031-1.515.031-1.953.031-.375 0-1.515 0-1.812-.031v.515h1L4.109-.171c.079.203.11.281.375.281.266 0 .297-.078.375-.28l2.079-5.5 2.093 5.5c.063.202.094.28.36.28.234 0 .297-.046.375-.28L12.5-7.407c.094-.203.11-.282 1.11-.282m0 0"/><path id="bx" d="M6.031-2.406c0-1.453-.984-2.5-2.625-2.5-.484 0-1.047.093-1.562.484v-1.781c.406.094.718.094.906.094.281 0 .969 0 1.766-.485.375-.234 1-.765 1-1.047 0-.062 0-.203-.157-.203 0 0-.03 0-.14.063-.563.187-1.14.328-1.813.328-.687 0-1.25-.14-1.812-.344-.094-.016-.125-.047-.157-.047-.14 0-.14.125-.14.328v3.47c0 .234 0 .359.234.359.125 0 .14 0 .235-.126.14-.171.578-.687 1.593-.687 1.094 0 1.094 1.125 1.094 2.063 0 .859 0 2.109-1.469 2.109-.437 0-1.187-.172-1.593-.86.625 0 .78-.468.78-.734a.72.72 0 0 0-.75-.75c-.359 0-.75.203-.75.766C.672-.86 1.61.14 3.032.14c1.844 0 3-1.063 3-2.547m0 0"/><path id="ac" d="M5.953-1.703c0-.125-.11-.125-.14-.125-.125 0-.141.047-.172.219-.203.765-.422 1.484-.907 1.484-.328 0-.359-.312-.359-.562s.031-.36.156-.875l.266-1.079.422-1.671c.093-.344.093-.36.093-.407 0-.203-.156-.328-.359-.328-.281 0-.453.266-.5.531-.203-.437-.562-.765-1.094-.765-1.406 0-2.875 1.75-2.875 3.5 0 1.125.657 1.906 1.579 1.906.25 0 .843-.047 1.562-.89.094.5.516.89 1.078.89.422 0 .703-.266.89-.656.204-.422.36-1.172.36-1.172M4.313-3.97c0 .078-.016.14-.032.203l-.593 2.344c-.063.219-.063.234-.25.438-.516.656-1.016.859-1.344.859-.594 0-.766-.656-.766-1.125 0-.61.375-2.078.656-2.625.375-.703.907-1.14 1.391-1.14.766 0 .938.968.938 1.046m0 0"/><path id="ao" d="M7.656-6.953c.094-.344.047-.656-.14-.906-.282-.391-.985-.47-1.375-.47-.891 0-1.766.22-2.657.813-.718.485-1.218 1.282-1.421 2.079-.172.718-.235 1.453.156 1.984.406.531 1.094.781 1.844.781.593 0 1.25-.172 1.828-.531l-.25 1.14c-.125.516-.328.97-.578 1.47-.22.374-.5.75-.86 1.046-.469.39-1.031.656-1.578.656-.36 0-.719-.062-.922-.328-.11-.156-.11-.375-.11-.593.016-.157.016-.329-.062-.438a.34.34 0 0 0-.281-.125.75.75 0 0 0-.469.14.84.84 0 0 0-.265.407.98.98 0 0 0 .172.89c.28.391.812.485 1.359.485.984 0 1.984-.406 2.86-1.11.452-.359.78-.812 1.03-1.328.36-.718.61-1.468.797-2.234l.391-1.578-.672.156c-.156.344-.5.828-.687.969-.47.39-1 .547-1.532.547-.5 0-.89-.219-1.156-.563-.36-.484-.312-1.187-.14-1.86a3.62 3.62 0 0 1 1.265-1.952 2.5 2.5 0 0 1 1.547-.516c.297 0 .719.11.922.406.14.188.219.407.14.672-.046.219-.125.469-.328.64-.28.22-.546.25-.828.25l-.093.204c.187.031.468.11.53.11.36 0 .704-.188 1.016-.438.297-.25.47-.563.547-.875m0 0"/><path id="aB" d="m10.344-8.156-.172-.11-.375.422c-.14.14-.36.266-.563.266-.078 0-.25-.031-.359-.047a18 18 0 0 1-1.687-.36l.078-.327-.063-.047-.672.297a10 10 0 0 0-.718-.047c-.954 0-1.813.187-2.657.859-.531.438-1.015 1-1.172 1.61-.046.202-.078.406.032.546.093.094.172.172.328.172.125 0 .265-.094.375-.172a.63.63 0 0 0 .219-.36c.03-.124.015-.296.015-.421.016-.172.016-.312.078-.469.047-.187.375-.61.656-.843.563-.438 1.126-.563 1.72-.563a4.5 4.5 0 0 1 .921.094l-.86 3.172H3.704l-.25.343h1.938l-.282 1.047c-.125.422-.25.844-.484 1.25a3 3 0 0 1-.687.875c-.407.375-.97.672-1.47.672-.312 0-.609-.078-.78-.312a1.1 1.1 0 0 1-.188-.407c-.094-.437-.14-.453-.312-.453a.73.73 0 0 0-.438.14c-.125.11-.203.204-.234.345-.063.25-.032.5.125.672.234.328.609.484 1.062.484.969 0 2.031-.39 2.844-1.094.437-.375.672-.687.906-1.094.281-.5.469-1.015.61-1.546l.14-.579h1.469l.344-.343H6.28l.766-2.97c.156.063.937.329 1.422.47.156.062.344.109.5.109.25 0 .531-.219.703-.422Zm0 0"/><path id="aF" d="M6.828-7.234c.063-.282.016-.578-.125-.75-.234-.328-.672-.407-1.125-.407-.719 0-1.406.094-2.062.625-.438.344-.766.829-.891 1.313-.11.469-.11.937.14 1.266.172.25.47.421.782.53l-.031.126a3.46 3.46 0 0 0-1.766.734C1.172-3.328.734-2.719.563-2.062.438-1.532.438-.984.734-.61c.204.265.516.437.829.562.406.14.859.188 1.328.188.89 0 1.797-.328 2.578-.953.11-.079.265-.297.39-.454l-.39-.578-.157.032c-.125.343-.312.656-.593.875-.469.375-1 .656-1.532.656-.562 0-1.14-.094-1.437-.5-.297-.39-.312-.922-.187-1.469.14-.547.453-1.062.921-1.437.344-.266.782-.407 1.157-.5.562-.125 1.109-.157 1.672-.157l.062-.312c-.406 0-.797-.032-1.172-.14-.25-.063-.5-.173-.656-.391-.219-.282-.266-.704-.172-1.125.14-.516.453-1.032.89-1.391.298-.25.688-.313 1.032-.313.281 0 .469.063.61.204a.5.5 0 0 1 .109.468c-.047.203-.157.328-.266.453-.078.094-.14.172-.187.282a.36.36 0 0 0 .03.234c.079.094.126.094.266.094s.422-.078.625-.266c.22-.234.282-.437.344-.687m0 0"/><path id="ad" d="M7.11-2.25c0-1.047-1.032-1.89-2.266-2.094 1.39-.375 1.937-1.172 1.937-1.875 0-1.078-1.218-2.078-2.906-2.078H1.109V0h3.094C5.875 0 7.11-1.078 7.11-2.25M5.86-6.203c0 .844-1.032 1.531-2.298 1.531H2.079v-2.953h1.469c1.281 0 2.312.625 2.312 1.422m.312 3.937c0 .844-.969 1.594-2.313 1.594H2.08v-3.281h1.593c1.547 0 2.5.86 2.5 1.687m0 0"/><path id="ae" d="M4.797 0v-3.5c0-1.156-.828-1.984-1.938-1.984-.718 0-1.25.172-1.843.5l.078.78c.515-.374 1.062-.593 1.765-.593.547 0 1.032.453 1.032 1.313v.5c-.547.015-1.266.062-1.985.297C1.11-2.422.641-1.97.641-1.375c0 .531.312 1.5 1.328 1.5.656 0 1.5-.203 1.937-.562V0ZM3.89-1.61c0 .25 0 .532-.407.766-.312.203-.718.25-.906.25-.64 0-1.078-.343-1.078-.797 0-.812 1.656-.984 2.39-.984Zm0 0"/><path id="af" d="M3.797-4.625v-.797c-1.078 0-1.719.64-2.047 1.11V-5.36H.938V0h.875v-2.625c0-1.203.906-1.984 1.984-2m0 0"/><path id="ag" d="M5.063 0v-3.594c0-.734-.157-1.828-1.594-1.828-.672 0-1.25.297-1.703.875v-.812H.922V0h.906v-2.969c0-.75.281-1.734 1.188-1.734 1.109 0 1.14.766 1.14 1.187V0Zm0 0"/><path id="ah" d="M5.469 0 3.25-3.266l1.969-2.046h-1.11L1.813-2.906v-5.39H.938V0h.828v-1.719l.906-.953L4.5 0Zm0 0"/><path id="ai" d="M5.063 0v-5.312h-.907v3.421c0 .907-.625 1.36-1.406 1.36-.844 0-.922-.313-.922-.844v-3.937H.922v3.984c0 .86.265 1.453 1.25 1.453.344 0 1.281-.062 2.015-.719V0Zm0 0"/><path id="aj" d="M5.484-2.625c0-1.625-1.187-2.86-2.562-2.86-1.406 0-2.563 1.266-2.563 2.86 0 1.563 1.188 2.75 2.563 2.75 1.406 0 2.562-1.219 2.562-2.75m-.906-.125c0 1.469-.844 2.125-1.656 2.125-.86 0-1.656-.719-1.656-2.125 0-1.453.89-2.016 1.656-2.016.812 0 1.656.625 1.656 2.016m0 0"/><path id="ak" d="M4.703 0v-.734H2.984c-.14 0-.28.015-.421.015H1.547l3.11-4.125v-.468H.483v.703h2.953L.329-.484V0ZM3.047-6.797v-1.016H2.016v1.016Zm0 0"/><path id="al" d="M5.172-5.312h-.89c-.548 1.421-1.47 3.765-1.516 4.625H2.75c-.062-.72-.687-2.282-.797-2.532L1.11-5.312H.172L2.39 0l-.422 1.094c-.266.593-.438.656-.657.656-.171 0-.546-.047-.921-.187l.078.78c.062.016.469.095.844.095.296 0 .843 0 1.359-1.313Zm0 0"/><path id="am" d="m3.89-.344-.171-.703c-.422.375-.86.422-1.078.422-.532 0-.594-.562-.594-.984v-3h1.64v-.703h-1.64v-1.516h-.828v1.516h-1v.703h.969v3.203c0 .703.156 1.531.984 1.531.797 0 1.36-.281 1.719-.469m0 0"/><path id="an" d="M5.484-2.625c0-1.625-1.187-2.86-2.562-2.86-1.406 0-2.563 1.266-2.563 2.86 0 1.563 1.188 2.75 2.563 2.75 1.406 0 2.562-1.219 2.562-2.75m-.906-.125c0 1.469-.844 2.125-1.656 2.125-.86 0-1.656-.719-1.656-2.125 0-1.453.89-2.016 1.656-2.016.812 0 1.656.625 1.656 2.016m-.016-5.547h-.906l-1.547 2h.72Zm0 0"/><path id="ap" d="m5.672-4.703-.125-.719c-.234 0-1.047 0-1.828.39-.39-.327-.875-.39-1.11-.39-1.046 0-1.875.875-1.875 1.922 0 .422.125.828.391 1.188a1.64 1.64 0 0 0-.344 1.015c0 .453.156.75.297.906C.468 0 .328.516.328.844c0 .875 1.125 1.61 2.594 1.61 1.453 0 2.594-.704 2.594-1.61 0-1.688-1.938-1.688-2.422-1.688H2.078c-.172 0-.672 0-.672-.625 0-.265.047-.343.11-.437.203.14.593.343 1.078.343 1.031 0 1.875-.859 1.875-1.937a2.13 2.13 0 0 0-.36-1.156 7 7 0 0 1 .954-.063c.046 0 .312 0 .609.016M3.64-3.5c0 1.063-.672 1.281-1.032 1.281-.53 0-1.062-.36-1.062-1.265 0-1.063.672-1.282 1.047-1.282.531 0 1.047.36 1.047 1.266M4.688.844c0 .562-.829.953-1.766.953-.922 0-1.766-.375-1.766-.953 0-.047 0-.813.907-.813h1.046c.266 0 1.579 0 1.579.813m0 0"/><path id="aq" d="m3.688-5.36-.485-.515-.828.719v-3.14H1.5v3.874L.328-3.375l.453.547.719-.656V0h.875v-4.234Zm0 0"/><path id="ar" d="M5.063 0v-8.297h-.891v3.485a2.65 2.65 0 0 0-1.688-.61c-1.14 0-2.062 1.219-2.062 2.766S1.297.125 2.437.125c.438 0 1.11-.156 1.704-.734V0ZM4.14-1.406c-.282.515-.703.812-1.22.812-.733 0-1.593-.562-1.593-2.047 0-1.593 1.016-2.062 1.703-2.062.469 0 .86.234 1.11.625Zm0 0"/><path id="as" d="M4.703 0v-.734H2.984c-.14 0-.28.015-.421.015H1.547l3.11-4.125v-.468H.483v.703h2.953L.329-.484V0Zm0 0"/><path id="at" d="M1.813 0v-5.312H.938V0Zm.078-6.797v-1.016H.859v1.016Zm0 0"/><path id="au" d="M4.203-1.516c0-.609-.36-1-.406-1.046-.453-.47-.813-.532-1.531-.672-.438-.094-1.047-.203-1.047-.813 0-.734.843-.734 1-.734.625 0 1.125.14 1.656.437l.14-.765a3.9 3.9 0 0 0-1.687-.375c-.265 0-1.937 0-1.937 1.547 0 .53.297.89.468 1.062.438.36.735.422 1.438.563.39.093 1.078.234 1.078.859 0 .828-.922.828-1.094.828A3.12 3.12 0 0 1 .47-1.219l-.14.813c.046.031.859.531 1.968.531 1.547 0 1.906-.937 1.906-1.64m0 0"/><path id="av" d="M4.86-2.687c0-.516-.048-1.25-.423-1.876-.5-.828-1.328-.921-1.671-.921C1.469-5.484.39-4.25.39-2.687.39-1.11 1.547.124 2.92.124c.563 0 1.22-.156 1.876-.64 0-.047-.047-.438-.047-.438s-.031-.281-.031-.328c-.703.593-1.407.687-1.766.687-.922 0-1.703-.828-1.734-2.093Zm-.704-.641h-2.86c.204-.813.767-1.438 1.47-1.438.359 0 1.187.157 1.39 1.438m0 0"/><path id="aw" d="M4.86-.5c0-.031-.032-.406-.048-.453l-.015-.344a2.8 2.8 0 0 1-1.828.672c-1 0-1.64-.875-1.64-2.047 0-.984.484-2.078 1.671-2.078.797 0 1.14.203 1.656.547l.14-.781c-.702-.407-1.093-.5-1.796-.5-1.656 0-2.578 1.453-2.578 2.812C.422-1.14 1.516.125 2.953.125c.578 0 1.25-.156 1.906-.625m0 0"/><path id="ax" d="M5.063 0v-3.594c0-.734-.157-1.828-1.594-1.828-.828 0-1.375.469-1.656.813v-3.688H.922V0h.906v-2.969c0-.75.281-1.734 1.188-1.734 1.109 0 1.14.766 1.14 1.187V0Zm0 0"/><path id="ay" d="M4.203-1.516c0-.609-.36-1-.406-1.046-.453-.47-.813-.532-1.531-.672-.438-.094-1.047-.203-1.047-.813 0-.734.843-.734 1-.734.625 0 1.125.14 1.656.437l.14-.765a3.9 3.9 0 0 0-1.687-.375c-.265 0-1.937 0-1.937 1.547 0 .53.297.89.468 1.062.438.36.735.422 1.438.563.39.093 1.078.234 1.078.859 0 .828-.922.828-1.094.828A3.12 3.12 0 0 1 .47-1.219l-.14.813c.046.031.859.531 1.968.531 1.547 0 1.906-.937 1.906-1.64m-.312-6.78h-.922l-1.547 2h.719Zm0 0"/><path id="az" d="M7.766-5.312H6.89l-.703 2.437c-.172.563-.516 1.688-.563 2.203-.047-.281-.234-1.078-.484-1.937l-.797-2.703H3.53L2.844-2.97c-.219.75-.5 1.781-.531 2.282h-.016c-.016-.235-.14-.86-.375-1.672l-.844-2.953H.172L1.766 0h.922c.453-1.5 1.156-3.781 1.218-4.61h.016c.015.485.265 1.344.344 1.626L5.109 0h1.063Zm0 0"/><path id="aA" d="M2.11-.016v-.953h-.97V0h.298L1.14 1.5h.468Zm0 0"/><path id="aC" d="M8.328 0v-3.594c0-.828-.219-1.828-1.61-1.828-1.015 0-1.577.703-1.765.969-.203-.766-.86-.969-1.484-.969-.985 0-1.5.625-1.703.875v-.812H.922V0h.906v-2.969c0-.797.313-1.734 1.188-1.734 1.093 0 1.156.75 1.156 1.187V0h.906v-2.969c0-.797.313-1.734 1.188-1.734 1.093 0 1.156.75 1.156 1.187V0Zm0 0"/><path id="aD" d="M2.14.703v-6.015h-.89v6.14c0 .781-.625.86-.875.86-.531 0-.86-.344-.875-.375l-.234.718c.375.235.859.406 1.406.406.75 0 1.469-.624 1.469-1.734m0-7.5v-1.016H1.11v1.016Zm0 0"/><path id="aE" d="M4.86-2.687c0-.516-.048-1.25-.423-1.876-.5-.828-1.328-.921-1.671-.921C1.469-5.484.39-4.25.39-2.687.39-1.141 1.5.078 2.844.124c-.531.344-.875.828-.828 1.39 0 .516.375 1.016 1.172 1.016.39 0 .703-.062 1.171-.297l-.156-.703c-.266.11-.547.172-.812.172-.328-.031-.625-.094-.625-.453-.016-.531.5-.969 1.047-1.281.328-.094.64-.25.984-.485 0-.046-.047-.437-.047-.437s-.031-.281-.031-.328c-.703.593-1.407.687-1.766.687-.922 0-1.703-.828-1.734-2.093Zm-.704-.641h-2.86c.204-.813.767-1.438 1.47-1.438.359 0 1.187.157 1.39 1.438m0 0"/><path id="aH" d="M5.563-2.672c0-1.469-.782-2.75-1.891-2.75-.344 0-1.11.063-1.86.672v-3.547H.939V0h.906v-.531c.547.515 1.125.656 1.547.656 1.14 0 2.172-1.172 2.172-2.797m-.907 0c0 1.563-.968 2.078-1.703 2.078-.328 0-.562-.125-.781-.297-.281-.25-.328-.453-.328-.656V-4.03c.218-.328.64-.672 1.234-.672.719 0 1.578.547 1.578 2.031m0 0"/><path id="aI" d="M5.563-2.672c0-1.437-.75-2.75-1.875-2.75-.485 0-1.25.156-1.876.672v-.562H.939v7.625h.906V-.531c.406.36.906.656 1.547.656 1.156 0 2.172-1.172 2.172-2.797m-.907.016c0 1.203-.812 2.062-1.703 2.062-.328 0-.562-.125-.781-.297-.297-.25-.328-.468-.328-.656v-2.469a1.47 1.47 0 0 1 1.219-.671c.874 0 1.593.89 1.593 2.03m0 0"/><path id="aJ" d="M2.11 0v-.969h-.97V0Zm0 0"/><path id="aK" d="M7.406 0 4.391-8.297H3.328L.328 0h.875l.875-2.422h3.375L6.328 0ZM5.203-3.094h-2.86l1.423-4.344Zm0 0"/><path id="aL" d="M7.75-4.078c0-2.328-1.578-4.219-3.594-4.219H1.094V0h3.062c2 0 3.594-1.812 3.594-4.078m-1-.016c0 2.188-1.328 3.422-2.86 3.422H2.095v-6.953H3.89c1.593 0 2.859 1.375 2.859 3.531m0 0"/><path id="aN" d="M5.063 2.313v-7.735h-.891v.766c-.328-.375-.844-.766-1.563-.766C1.438-5.422.422-4.25.422-2.64c0 1.516.875 2.766 2 2.766.922 0 1.562-.562 1.719-.734v2.922Zm-.891-3.97c0 .22 0 .235-.125.407-.328.5-.766.656-1.125.656-.89 0-1.594-.937-1.594-2.047 0-1.234.86-2.046 1.703-2.046.766 0 1.14.78 1.14 1.25Zm0 0"/><path id="aO" d="M1.813 0v-8.297H.938V0Zm0 0"/><path id="aP" d="M2.11-4.344v-.968h-.97v.968ZM2.11 0v-.969h-.97V0Zm0 0"/><path id="aM" d="M3.453-1.14c.063-.141.016-.282-.11-.344l-1.155-.5L3.343-2.5c.125-.062.172-.203.11-.344a.25.25 0 0 0-.345-.062l-1.015.75.125-1.266a.237.237 0 0 0-.235-.265c-.14 0-.234.14-.218.265l.125 1.266-1.016-.75a.25.25 0 0 0-.344.062c-.062.14-.015.281.11.344l1.156.516-1.156.5c-.125.062-.172.203-.11.343a.25.25 0 0 0 .344.063l1.016-.75-.125 1.266a.22.22 0 0 0 .218.25c.157 0 .25-.125.235-.25l-.125-1.266 1.015.75a.25.25 0 0 0 .344-.063m0 0"/><path id="aQ" d="M2.594-.86c.047-.093.015-.218-.094-.25l-.86-.39.86-.375a.176.176 0 0 0 .094-.25c-.063-.094-.172-.125-.266-.062l-.765.562.109-.937a.173.173 0 0 0-.172-.204.173.173 0 0 0-.172.204l.094.937-.766-.562c-.078-.063-.203-.032-.25.062-.062.094-.015.203.078.25l.875.375-.875.39c-.093.032-.14.157-.078.25.047.094.172.11.25.047l.766-.562-.094.953c-.016.094.063.188.172.188.11 0 .188-.094.172-.188l-.11-.953.766.563c.094.062.203.046.266-.047m0 0"/><path id="aR" d="M5.797-3.578 5.64-5.391H.469L.297-3.578h.25c.11-1.344.297-1.547 1.515-1.547.157 0 .407 0 .47.016.14.03.155.109.155.312v4.14c0 .282 0 .391-.828.391h-.312V0c.297-.031 1.156-.031 1.5-.031s1.203 0 1.5.031v-.266H4.25c-.828 0-.828-.109-.828-.39v-4.14c0-.188 0-.282.156-.313.078-.016.313-.016.469-.016 1.219 0 1.39.203 1.5 1.547Zm0 0"/><path id="aS" d="M3.516-.953a.12.12 0 0 0-.125-.11c-.094 0-.11.047-.125.094a1.14 1.14 0 0 1-1.11.797c-.36 0-.734-.156-.969-.531-.234-.36-.234-.875-.234-1.11h2.344c.172 0 .219 0 .219-.187 0-.703-.391-1.547-1.516-1.547-.984 0-1.766.813-1.766 1.797 0 1.031.86 1.828 1.875 1.828 1 0 1.407-.844 1.407-1.031m-.547-1.078H.953c.078-1.11.75-1.297 1.047-1.297.938 0 .969 1.125.969 1.297m0 0"/><path id="aT" d="M4.313 0v-.266c-.329 0-.47-.03-.766-.406l-1.14-1.5.671-.531c.531-.422.86-.453 1.063-.469v-.265c-.203.03-.313.03-.641.03-.39 0-.5-.015-.844-.03v.265c.156.016.188.11.188.156 0 .172-.172.313-.235.36l-1.14.922v-3.797L.28-5.438v.266c.547 0 .61.047.61.438v4.109c0 .36-.11.36-.61.36V0c.313-.031.735-.031.875-.031.157 0 .578 0 .89.031v-.266c-.515 0-.608 0-.608-.359v-.766l.53-.437c.032 0 .235.281.36.437.125.157.25.329.375.485s.281.36.281.484c0 .14-.14.156-.25.156V0c.344-.031.704-.031.844-.031.297 0 .469 0 .735.031m0 0"/><path id="aU" d="M3.047-1.031c0-.375-.219-.938-1.172-1.11a10 10 0 0 0-.547-.093c-.25-.063-.625-.235-.625-.547 0-.235.188-.578.938-.578.89 0 .937.656.953.875 0 .062.062.093.11.093.14 0 .14-.062.14-.203v-.75c0-.125 0-.203-.11-.203-.046 0-.062 0-.187.125-.016 0-.094.078-.11.078 0 0-.03 0-.078-.031-.125-.094-.359-.172-.718-.172-1.11 0-1.36.594-1.36.985 0 .39.297.624.313.656.328.234.5.265 1.047.36.375.077.984.187.984.718 0 .312-.203.687-.937.687C.875-.14.64-.766.547-1.187c-.031-.11-.047-.141-.14-.141-.126 0-.126.062-.126.219v.984c0 .125 0 .203.094.203.063 0 .063 0 .203-.156.047-.047.125-.14.172-.188.36.329.734.344.938.344 1.015 0 1.359-.578 1.359-1.11m0 0"/><path id="aV" d="M2.813-1v-.437h-.25v.421c0 .547-.25.844-.547.844-.532 0-.532-.687-.532-.812v-2.188h1.188v-.265H1.484v-1.47h-.25c0 .735-.328 1.485-1.078 1.516v.22h.719V-1c0 .938.719 1.078 1.078 1.078.547 0 .86-.469.86-1.078m0 0"/><path id="aW" d="m2.422-3.406-.156-.203-.516.375v-2.297l-1.187.093v.266c.53 0 .593.047.593.438v1.937l-.672.5.157.219.515-.39v1.843c0 .36-.093.36-.593.36V0c.312-.031.75-.031.89-.031.156 0 .594 0 .89.031v-.266c-.5 0-.593 0-.593-.359v-2.281Zm0 0"/><path id="aX" d="M4.094-.719v-.437h-.25v.437c0 .328-.11.453-.281.453-.297 0-.297-.359-.297-.453v-1.656c0-.781-.75-1.172-1.485-1.172-.656 0-1.25.25-1.25.781a.36.36 0 0 0 .375.375.36.36 0 0 0 .375-.375.356.356 0 0 0-.297-.359c.297-.203.735-.203.782-.203.453 0 .89.312.89.969v.234c-.453.031-.984.047-1.547.281-.703.313-.843.766-.843 1.032 0 .687.812.89 1.359.89a1.23 1.23 0 0 0 1.11-.64c.046.296.25.609.609.609.078 0 .75-.031.75-.766m-1.438-.406c0 .781-.64.984-.969.984-.406 0-.765-.28-.765-.671 0-.516.5-1.063 1.734-1.094Zm0 0"/><path id="aY" d="M3.516-.953c0-.094-.11-.094-.125-.094-.063 0-.094 0-.125.078a1.07 1.07 0 0 1-1.078.797C1.703-.172.984-.547.984-1.734c0-1.141.594-1.578 1.172-1.578.078 0 .5 0 .781.156a.336.336 0 0 0-.265.344c0 .218.156.374.375.374s.375-.14.375-.39c0-.485-.531-.719-1.281-.719-1.11 0-1.86.875-1.86 1.828C.281-.703 1.11.078 2.11.078c1.125 0 1.407-.937 1.407-1.031m0 0"/><path id="aZ" d="M2.078 0v-.266c-.531 0-.562-.03-.562-.343v-2.907l-1.157.094v.266c.516 0 .579.047.579.437v2.094c0 .36-.094.36-.61.36V0c.313-.031.766-.031.89-.031.095 0 .579 0 .86.031m-.453-4.797a.453.453 0 0 0-.453-.453.45.45 0 0 0-.438.453c0 .234.188.438.438.438a.45.45 0 0 0 .453-.438m0 0"/><path id="ba" d="M4.484 0v-.266c-.515 0-.609 0-.609-.359v-1.797c0-.656-.312-1.094-1.14-1.094a1.38 1.38 0 0 0-1.25.766v-.766l-1.157.094v.266c.547 0 .61.047.61.437v2.094c0 .36-.094.36-.61.36V0c.344-.031.688-.031.906-.031.235 0 .563 0 .907.031v-.266c-.5 0-.61 0-.61-.359v-1.437c0-.844.64-1.235 1.125-1.235s.61.344.61.844v1.828c0 .36-.094.36-.61.36V0c.344-.031.703-.031.906-.031.235 0 .579 0 .922.031M3.406-5.25a.324.324 0 0 0-.312-.312c-.031 0-.14 0-.235.125L1.83-4.22 2-4.047l1.25-.937c.094-.063.156-.125.156-.266m0 0"/><path id="bb" d="M4.422 0v-.266c-.547 0-.61-.046-.61-.437v-4.828l-1.187.093v.266c.531 0 .61.047.61.438v1.687a1.4 1.4 0 0 0-1.079-.469c-1 0-1.875.782-1.875 1.797 0 .985.797 1.797 1.797 1.797.469 0 .86-.219 1.125-.5v.5ZM3.203-.984c0 .14 0 .172-.125.328a1.15 1.15 0 0 1-.953.515c-.375 0-.687-.187-.875-.484-.219-.312-.266-.703-.266-1.078 0-.469.079-.797.266-1.063.188-.296.547-.53.953-.53.375 0 .766.202 1 .608Zm0 0"/><path id="bc" d="M3.984-1.703c0-.984-.828-1.844-1.875-1.844-1.046 0-1.875.86-1.875 1.844 0 1 .86 1.781 1.875 1.781 1.032 0 1.875-.781 1.875-1.781m-.703-.063c0 .36-.015.797-.25 1.141-.203.313-.562.453-.922.453-.421 0-.765-.203-.937-.484-.203-.328-.219-.719-.219-1.11 0-.312 0-.78.235-1.125.218-.28.546-.437.921-.437.422 0 .766.203.938.469.219.343.234.765.234 1.093m0 0"/><path id="bd" d="M4.484 0v-.266c-.515 0-.609 0-.609-.359v-1.797c0-.656-.312-1.094-1.14-1.094a1.38 1.38 0 0 0-1.25.766v-.766l-1.157.094v.266c.547 0 .61.047.61.437v2.094c0 .36-.094.36-.61.36V0c.344-.031.688-.031.906-.031.235 0 .563 0 .907.031v-.266c-.5 0-.61 0-.61-.359v-1.437c0-.844.64-1.235 1.125-1.235s.61.344.61.844v1.828c0 .36-.094.36-.61.36V0c.344-.031.703-.031.906-.031.235 0 .579 0 .922.031m0 0"/><path id="be" d="M4.281-3.172v-.265c-.265.03-.281.03-.625.03-.031 0-.453 0-.687-.03v.265c.234.016.344.14.344.328 0 .047 0 .11-.047.203L2.422-.719l-.938-2.093c-.046-.11-.046-.126-.046-.157 0-.187.25-.203.421-.203v-.265c-.359.03-.703.03-.875.03-.171 0-.546 0-.812-.03v.265c.422 0 .531.016.672.313L2.094 0C1.734.844 1.5 1.406.938 1.406c-.204 0-.329-.093-.329-.093A.35.35 0 0 0 .86.969.336.336 0 0 0 .516.625c-.172 0-.344.11-.344.36 0 .343.344.64.766.64.718 0 1.093-.86 1.125-.937L3.53-2.625c.203-.453.5-.531.75-.547m0 0"/><path id="bf" d="M3.406-1.531h-.25C3.078-.61 2.922-.25 1.937-.25H1l2.313-2.906c.046-.078.062-.094.062-.156 0-.126-.094-.126-.219-.126H.453l-.11 1.329h.25c.048-.828.235-1.11 1.126-1.11h.906L.313-.297C.25-.219.233-.203.233-.14.234 0 .328 0 .47 0h2.797Zm0 0"/><path id="bg" d="M1.734.016c0-.485-.187-.875-.562-.875a.427.427 0 0 0-.438.437c0 .25.172.453.438.453.219 0 .297-.093.344-.14 0 .78-.282 1.156-.641 1.484-.031.047-.031.078-.031.078 0 .078.062.125.11.125.109 0 .78-.625.78-1.562m1.657 0c0-.485-.188-.875-.563-.875a.44.44 0 0 0-.453.437c0 .25.172.453.453.453.219 0 .281-.093.328-.14 0 .78-.281 1.156-.625 1.484-.047.047-.047.078-.047.078 0 .078.079.125.11.125.11 0 .797-.625.797-1.562m0 0"/><path id="bh" d="M6.203-.719c0-.047 0-.156-.125-.156s-.125.094-.125.14c-.047.5-.312.673-.547.673-.422 0-.468-.36-.61-1.375-.062-.454-.14-1-1.015-1.266.625-.172 1.375-.625 1.375-1.313 0-.78-1-1.421-2.187-1.421H.359v.265h.188c.61 0 .625.078.625.375V-.64c0 .297-.016.375-.625.375H.359V0l1.157-.031L2.688 0v-.266h-.172c-.625 0-.641-.078-.641-.375v-1.968h1.016c.578 0 .843.297.906.359.234.25.234.406.234.938 0 .5 0 .843.328 1.14.344.297.782.344 1.016.344.672 0 .828-.656.828-.89M4.328-4.016c0 .891-.625 1.172-1.469 1.172h-.984v-2.015c0-.203.016-.282.203-.313h.485c.718 0 1.765 0 1.765 1.156m0 0"/><path id="bi" d="M4.484 0v-.266c-.546 0-.609-.046-.609-.437v-2.813l-1.219.094v.266c.547 0 .61.047.61.437v1.39C3.266-.64 2.859-.14 2.25-.14c-.687 0-.719-.343-.719-.75v-2.625l-1.203.094v.266c.61 0 .61.015.61.719v1.203c0 .578 0 1.312 1.265 1.312.75 0 1.047-.578 1.078-.64h.016v.64Zm0 0"/><path id="bj" d="M3.984-1.703c0-.984-.828-1.844-1.875-1.844-1.046 0-1.875.86-1.875 1.844 0 1 .86 1.781 1.875 1.781 1.032 0 1.875-.781 1.875-1.781m-.703-.063c0 .36-.015.797-.25 1.141-.203.313-.562.453-.922.453-.421 0-.765-.203-.937-.484-.203-.328-.219-.719-.219-1.11 0-.312 0-.78.235-1.125.218-.28.546-.437.921-.437.422 0 .766.203.938.469.219.343.234.765.234 1.093m-.11-3.484c0-.172-.171-.312-.312-.312-.03 0-.14 0-.25.125L1.594-4.22l.172.172 1.25-.937c.078-.063.156-.125.156-.266m0 0"/><path id="bk" d="M3.797-1.422h-.25c-.016.156-.078.547-.172.703-.047.063-.656.063-.781.063H1.172l1.078-.969c.125-.125.453-.39.594-.5.484-.453.953-.89.953-1.61 0-.953-.797-1.562-1.781-1.562-.97 0-1.594.719-1.594 1.438 0 .39.312.437.422.437.172 0 .422-.11.422-.422 0-.406-.407-.406-.5-.406.234-.594.765-.781 1.156-.781.734 0 1.125.625 1.125 1.297 0 .828-.578 1.437-1.531 2.39l-1 1.047C.422-.219.422-.203.422 0h3.14Zm0 0"/><path id="bl" d="M3.89-2.547c0-.844-.078-1.36-.343-1.875-.344-.703-1-.875-1.438-.875-1 0-1.375.75-1.484.969C.344-3.75.328-2.953.328-2.547c0 .531.016 1.328.406 1.969.36.594.954.75 1.375.75.391 0 1.063-.125 1.47-.906.296-.578.312-1.297.312-1.813m-.703-.094c0 .47 0 1.188-.093 1.641-.172.828-.719.938-.985.938-.265 0-.812-.125-.984-.954-.094-.453-.094-1.203-.094-1.625 0-.546 0-1.109.094-1.546.172-.813.781-.891.984-.891.266 0 .829.14.985.86.094.437.094 1.046.094 1.577m0 0"/><path id="bm" d="M3.563 0v-.266H3.28c-.75 0-.781-.093-.781-.39v-4.422c0-.219-.016-.219-.234-.219-.328.313-.75.5-1.5.5v.266c.218 0 .64 0 1.109-.203v4.078c0 .297-.031.39-.781.39H.812V0c.329-.031 1.016-.031 1.376-.031s1.046 0 1.374.031m0 0"/><path id="bn" d="M3.875-2.625c0-2.062-.922-2.672-1.734-2.672-.953 0-1.797.734-1.797 1.781 0 1.016.781 1.766 1.687 1.766.563 0 .906-.36 1.094-.766v.172c0 1.938-.922 2.266-1.39 2.266-.173 0-.579-.016-.798-.266.36-.031.375-.297.375-.375a.37.37 0 0 0-.375-.375.37.37 0 0 0-.375.39c0 .548.454.876 1.188.876 1.094 0 2.125-1.094 2.125-2.797m-.766-.734c0 .64-.343 1.39-1.046 1.39-.376 0-.61-.172-.782-.468-.187-.282-.187-.672-.187-1.079 0-.468 0-.796.218-1.125.204-.296.454-.453.829-.453.53 0 .765.532.797.563.156.39.171 1.015.171 1.172m0 0"/><path id="bo" d="M1.734-4.672c0-.469-.187-.86-.562-.86a.427.427 0 0 0-.438.438c0 .235.172.453.438.453.219 0 .297-.093.344-.14 0 .781-.282 1.14-.641 1.484-.031.031-.031.078-.031.078 0 .078.062.125.11.125.109 0 .78-.64.78-1.578m1.657 0c0-.469-.188-.86-.563-.86a.44.44 0 0 0-.453.438c0 .235.172.453.453.453.219 0 .281-.093.328-.14 0 .781-.281 1.14-.625 1.484-.047.031-.047.078-.047.078 0 .078.079.125.11.125.11 0 .797-.64.797-1.578m0 0"/><path id="bp" d="M3.063-3.016c0-.28-.25-.5-.61-.5-.515 0-.875.391-1.031.844h-.016v-.844l-1.125.094v.266c.547 0 .61.047.61.437v2.094c0 .36-.11.36-.61.36V0c.313-.031.75-.031.938-.031.468 0 .484 0 1 .031v-.266h-.156c-.579 0-.594-.078-.594-.375v-1.171c0-.61.25-1.47 1.015-1.485-.046.031-.14.094-.14.281 0 .25.203.36.36.36.187 0 .358-.125.358-.36m0 0"/><path id="bq" d="M3.984-1.703c0-.984-.828-1.844-1.875-1.844-1.046 0-1.875.86-1.875 1.844 0 1 .86 1.781 1.875 1.781 1.032 0 1.875-.781 1.875-1.781m-.703-.063c0 .36-.015.797-.25 1.141-.203.313-.562.453-.922.453-.421 0-.765-.203-.937-.484-.203-.328-.219-.719-.219-1.11 0-.312 0-.78.235-1.125.218-.28.546-.437.921-.437.422 0 .766.203.938.469.219.343.234.765.234 1.093m-.64-2.453L1.625-5.437c-.11-.125-.219-.125-.25-.125-.14 0-.312.14-.312.312 0 .14.062.203.156.266l1.25.937Zm0 0"/><path id="br" d="M1.625-.437a.453.453 0 0 0-.453-.454.436.436 0 0 0-.438.438.44.44 0 0 0 .438.453.45.45 0 0 0 .453-.437m0 0"/><path id="bs" d="M2.813 1.89c0-.03 0-.03-.11-.14C1.61.719 1.343-.75 1.343-1.984c0-2.297.938-3.375 1.345-3.75.124-.094.124-.11.124-.141 0-.047-.03-.094-.109-.094-.125 0-.531.407-.594.469C1.047-4.375.83-2.953.83-1.984c0 1.78.734 3.218 1.827 3.968.063 0 .156 0 .156-.093m0 0"/><path id="bt" d="M4.422-1.719c0-1-.813-1.797-1.781-1.797-.313 0-.766.079-1.172.5v-.5L.28-3.422v.266c.563 0 .61.047.61.375V.922c0 .36-.11.36-.61.36v.265c.344-.031.688-.031.907-.031.234 0 .562 0 .906.03v-.265c-.516 0-.61 0-.61-.36V-.39a1.37 1.37 0 0 0 1.047.47c1 0 1.89-.782 1.89-1.798m-.719 0c0 .907-.578 1.578-1.219 1.578-.28 0-.64-.125-.906-.515-.094-.14-.094-.156-.094-.297v-1.703c.188-.313.594-.61 1.094-.61.61 0 1.125.672 1.125 1.547m0 0"/><path id="bu" d="M2.469-1.984c0-.766-.14-1.672-.625-2.61C1.454-5.328.719-5.969.578-5.969c-.078 0-.094.047-.094.094 0 .031 0 .047.094.14 1.11 1.063 1.36 2.516 1.36 3.75C1.938.298 1 1.376.593 1.75c-.11.094-.11.11-.11.14 0 .048.016.094.094.094.125 0 .531-.406.594-.468C2.234.39 2.469-1.031 2.469-1.984m0 0"/><path id="by" d="M4.766-2.016h-.453c-.016.125-.094.766-.235.829-.11.046-.781.046-.937.046H1.859c.485-.39 1.016-.812 1.47-1.125.75-.53 1.437-1.015 1.437-1.89 0-1.047-.953-1.735-2.25-1.735-1.11 0-1.985.532-1.985 1.36 0 .468.36.687.672.687a.65.65 0 0 0 .656-.672c0-.203-.078-.53-.468-.64.312-.25.718-.282.89-.282.735 0 1.203.547 1.203 1.282 0 .656-.375 1.234-.859 1.718l-2 1.985c-.094.094-.094.11-.094.281V0H4.5Zm0 0"/><path id="bz" d="M4.89-2.86c0-.921-.03-3.03-2.234-3.03C.47-5.89.406-3.845.406-2.86c0 .938.031 2.97 2.235 2.97 2.187 0 2.25-1.97 2.25-2.97m-1.202-.109c0 .703 0 1.766-.141 2.11a.96.96 0 0 1-.89.609c-.25 0-.86-.11-.985-.937-.063-.47-.063-1.282-.063-1.782 0-.562 0-1.312.063-1.734.14-.719.734-.828.969-.828.297 0 .859.156.984.843.063.438.063 1.204.063 1.72m0 0"/><path id="bA" d="M5.156-5.516v-.265H3.11c-.187 0-1.437-.047-1.546-.078-.172-.047-.188-.11-.204-.203H.906L.594-3.766h.453c.094-.75.25-.812.25-.812.125-.047.812-.047.984-.047h1.5c-.922 1.047-.922 1.063-1.11 1.344-.733 1.11-.89 2.14-.89 2.75 0 .625.485.64.578.64.235 0 .407-.14.454-.187.124-.188.124-.234.124-.75 0-1.156.11-2.234.688-2.89l1.438-1.626c.078-.093.093-.14.093-.172m0 0"/><path id="bB" d="M3.516-1.266H3.28c-.015.157-.094.563-.187.625-.047.047-.578.047-.688.047H1.125c.734-.64.984-.843 1.39-1.172.516-.406 1-.843 1-1.5 0-.843-.734-1.359-1.624-1.359-.86 0-1.453.61-1.453 1.25 0 .344.296.39.375.39.156 0 .359-.124.359-.374 0-.125-.047-.375-.406-.375.218-.485.687-.641 1.015-.641.703 0 1.063.547 1.063 1.11 0 .609-.438 1.078-.656 1.328L.516-.266C.437-.203.437-.187.437 0h2.876Zm0 0"/><path id="bC" d="M3.297 0v-.25H3.03c-.703 0-.703-.094-.703-.328v-3.86c0-.187 0-.187-.203-.187-.453.438-1.078.438-1.36.438v.25c.157 0 .626 0 1-.188v3.547c0 .234 0 .328-.687.328H.812V0l1.235-.031Zm0 0"/><path id="bD" d="M3.578-2.297c0-1.719-.765-2.328-1.578-2.328a1.55 1.55 0 0 0-1.11.422c-.234.234-.515.5-.515 1.125 0 .89.703 1.547 1.516 1.547.562 0 .859-.375 1.015-.688v.14c0 1.735-.844 2-1.265 2-.157 0-.532-.015-.72-.233a.315.315 0 0 0 .313-.329.32.32 0 0 0-.328-.328c-.203 0-.328.14-.328.344 0 .469.39.766 1.063.766 1 0 1.937-.938 1.937-2.438M2.891-3c0 .906-.516 1.266-.953 1.266-.282 0-.532-.079-.735-.407-.156-.25-.156-.546-.156-.937 0-.406 0-.672.203-.953.172-.25.39-.39.75-.39s.578.218.688.405c.187.282.203.782.203 1.016m0 0"/><path id="bE" d="M2.016 1.734v-.328h-.72V-4.89h.72v-.328H.953v6.953Zm0 0"/><path id="bF" d="M3.797-4.484H1.969c-.282 0-.36-.016-.61-.032C1-4.546.984-4.594.97-4.703H.734L.484-3.22H.72c.015-.11.094-.562.203-.64.047-.032.625-.032.719-.032h1.515l-.719.922c-.906 1.188-1 2.297-1 2.703 0 .079 0 .407.329.407.343 0 .343-.313.343-.407v-.28c0-1.345.282-1.97.579-2.345l1.046-1.312c.063-.094.063-.11.063-.281m0 0"/><path id="bG" d="M1.531-.39a.403.403 0 0 0-.406-.407.4.4 0 0 0-.406.39c0 .25.203.407.406.407a.4.4 0 0 0 .406-.39m0 0"/><path id="bH" d="M1.297 1.734v-6.953H.219v.328h.734v6.297H.22v.328Zm0 0"/><path id="bI" d="M7.813-1.75v-.203H.109v.203Zm0 0"/><path id="bJ" d="M2.516 0v-.25h-.172c-.578 0-.578-.078-.578-.328v-3.61c0-.234 0-.328.578-.328h.172v-.25l-1.078.032-1.079-.032v.25h.172c.578 0 .578.094.578.329v3.609c0 .25 0 .328-.578.328H.36V0l1.079-.031Zm0 0"/><path id="bK" d="M3.594-2.219c0-.765-.094-1.328-.406-1.812-.22-.313-.657-.594-1.204-.594C.36-4.625.36-2.719.36-2.219s0 2.36 1.625 2.36c1.61 0 1.61-1.86 1.61-2.36m-.625-.094c0 .516 0 1.032-.094 1.47-.14.64-.61.78-.89.78-.329 0-.75-.187-.891-.75C1-1.219 1-1.796 1-2.312c0-.515 0-1.046.094-1.421.156-.547.593-.703.89-.703.375 0 .735.234.86.64.11.375.125.875.125 1.485m0 0"/><path id="bL" d="M3.578-1.422c0-.89-.703-1.547-1.515-1.547-.563 0-.86.375-1.016.688 0-.563.047-1.078.312-1.516.235-.375.61-.625 1.063-.625.203 0 .484.047.625.234-.172.016-.328.141-.328.344a.32.32 0 0 0 .328.328c.219 0 .344-.14.344-.343 0-.407-.297-.766-.985-.766-1 0-2.031.922-2.031 2.422C.375-.406 1.219.14 2 .14c.844 0 1.578-.657 1.578-1.563m-.672 0c0 .39 0 .688-.187.969A.82.82 0 0 1 2-.078c-.36 0-.625-.203-.781-.516-.094-.203-.157-.562-.157-.968 0-.688.407-1.204.97-1.204.312 0 .53.125.702.375.172.266.172.563.172.97m0 0"/><path id="bM" d="M5.547 0v-.25h-.125c-.469 0-.516-.078-.594-.266L3.125-4.812c-.031-.11-.062-.157-.187-.157-.141 0-.157.047-.204.157L1.125-.734C1.063-.562.938-.25.313-.25V0c.234-.016.484-.031.718-.031.282 0 .797.031.844.031v-.25c-.312 0-.516-.14-.516-.328 0-.063.016-.078.047-.14l.328-.86H3.72l.406 1.016c0 .03.031.078.031.109 0 .203-.375.203-.562.203V0l1.031-.031c.328 0 .86.031.922.031M3.609-1.828H1.83l.89-2.266Zm0 0"/><path id="bN" d="M4.047 0v-.25c-.469 0-.516-.047-.516-.39v-4.204l-1.047.078v.25c.47 0 .516.063.516.391v1.453a1.37 1.37 0 0 0-.969-.406c-.937 0-1.703.703-1.703 1.578S1.062.063 1.938.063c.578 0 .921-.297 1.03-.422v.422ZM2.969-.734c-.172.328-.531.609-.985.609-.39 0-.671-.234-.812-.437-.14-.204-.219-.485-.219-.922 0-.172 0-.688.281-1.016.282-.312.625-.375.829-.375.328 0 .64.156.828.406.078.11.078.11.078.25Zm0 0"/><path id="bO" d="M5.469-2.75V-3c-.188.016-.313.031-.5.031-.219 0-.485-.015-.688-.031v.25c.235 0 .36.14.36.297 0 .062 0 .078-.047.172L3.922-.547l-.75-1.906a.3.3 0 0 1-.031-.125c0-.156.172-.172.375-.172V-3c-.25.016-.5.031-.75.031-.203 0-.422-.015-.625-.031v.25c.172 0 .312 0 .406.047.094.078.156.312.156.312s-.015.063-.031.079L2.016-.641l-.703-1.812c-.032-.094-.032-.094-.032-.125 0-.172.25-.172.375-.172V-3s-.515.031-.797.031C.641-2.969.422-2.984.203-3v.25c.281 0 .438 0 .5.203l.969 2.453c.047.11.062.157.203.157.125 0 .14-.047.172-.141l.797-1.984.765 1.968c.047.094.063.157.204.157.124 0 .14-.047.187-.157l.875-2.234c.14-.344.375-.422.594-.422m0 0"/><path id="bP" d="M3.266-.844c0-.015-.016-.094-.125-.094-.094 0-.11.047-.125.11-.22.562-.75.672-1 .672-.328 0-.641-.14-.844-.406-.266-.329-.266-.75-.266-1.032h2.157c.156 0 .203 0 .203-.14 0-.625-.344-1.375-1.391-1.375a1.59 1.59 0 0 0-1.61 1.578c0 .89.782 1.594 1.704 1.594.937 0 1.297-.75 1.297-.907m-.485-.922H.906c.078-.984.703-1.14.969-1.14.86 0 .89.969.906 1.14m0 0"/><path id="bQ" d="M4.11 0v-.25c-.454 0-.516 0-.516-.297v-1.562c0-.61-.297-.97-1.047-.97-.578 0-.938.313-1.14.688v-.687L.374-3v.25c.469 0 .531.047.531.39v1.813c0 .297-.078.297-.531.297V0s.5-.031.797-.031c.25 0 .734.031.797.031v-.25c-.453 0-.516 0-.516-.297v-1.265c0-.72.578-1.063 1.031-1.063.485 0 .547.375.547.734v1.594c0 .297-.062.297-.515.297V0s.5-.031.797-.031c.25 0 .734.031.796.031m0 0"/><path id="bR" d="M2.61-.875v-.39h-.235v.374c0 .485-.219.735-.5.735-.469 0-.469-.578-.469-.703V-2.75h1.078V-3H1.406v-1.281h-.25c0 .625-.281 1.312-.953 1.328v.203h.64v1.875c0 .781.595.938.985.938.469 0 .781-.391.781-.938m0 0"/><path id="bS" d="M3.516-1.406c0-.782-.594-1.5-1.453-1.5-.313 0-.672.062-.985.328v-1.313c.36.094.563.094.672.094.922 0 1.469-.625 1.469-.734 0-.078-.047-.094-.078-.094 0 0-.032 0-.063.016-.172.062-.531.203-1.047.203-.203 0-.562-.016-1.015-.188-.079-.031-.094-.031-.094-.031-.094 0-.094.078-.094.188v2.046c0 .125 0 .204.11.204.062 0 .078 0 .14-.094.297-.375.734-.438.969-.438.422 0 .61.328.64.39.126.235.172.5.172.907 0 .203 0 .61-.218.922a.98.98 0 0 1-.813.422c-.453 0-.922-.25-1.094-.719.266.016.407-.156.407-.344 0-.296-.266-.343-.36-.343 0 0-.343 0-.343.375 0 .625.578 1.25 1.406 1.25.89 0 1.672-.657 1.672-1.547m0 0"/><clipPath id="b"><path d="M.535.266h6.883v9.636H.535Zm0 0"/></clipPath><clipPath id="a"><path d="M0 0h8v10H0z"/></clipPath><clipPath id="bv"><path d="M15.023 568.348H403v11.336H15.023Zm0 0"/></clipPath><linearGradient id="bw" x1="0" x2="388.063" y1="0" y2="0" gradientTransform="matrix(1 0 0 -1 15.024 579.685)" gradientUnits="userSpaceOnUse"><stop offset="0" stop-color="#ffc299"/><stop offset=".25" stop-color="#ffc299"/><stop offset=".313" stop-color="#ffc299"/><stop offset=".344" stop-color="#ffc299"/><stop offset=".352" stop-color="#ffc299"/><stop offset=".355" stop-color="#ffbe93"/><stop offset=".359" stop-color="#ffbb8d"/><stop offset=".363" stop-color="#ffb27e"/><stop offset=".367" stop-color="#ffa96f"/><stop offset=".371" stop-color="#ffa060"/><stop offset=".375" stop-color="#ff9651"/><stop offset=".379" stop-color="#ff8d42"/><stop offset=".383" stop-color="#ff8433"/><stop offset=".387" stop-color="#ff7b24"/><stop offset=".391" stop-color="#ff7214"/><stop offset=".395" stop-color="#ff6c0a"/><stop offset=".398" stop-color="#f60"/><stop offset=".406" stop-color="#f60"/><stop offset=".438" stop-color="#f60"/><stop offset=".5" stop-color="#f60"/><stop offset=".563" stop-color="#f60"/><stop offset=".566" stop-color="#ff6d0b"/><stop offset=".57" stop-color="#ff7316"/><stop offset=".574" stop-color="#ff7d26"/><stop offset=".578" stop-color="#ff8635"/><stop offset=".582" stop-color="#ff8f44"/><stop offset=".586" stop-color="#ff9853"/><stop offset=".59" stop-color="#ffa162"/><stop offset=".594" stop-color="#ffaa71"/><stop offset=".598" stop-color="#ffb380"/><stop offset=".602" stop-color="#ffbc8f"/><stop offset=".605" stop-color="#ffbf94"/><stop offset=".609" stop-color="#ffc299"/><stop offset=".625" stop-color="#ffc299"/><stop offset=".75" stop-color="#ffc299"/><stop offset="1" stop-color="#ffc299"/></linearGradient><g id="c" clip-path="url(#a)"><g clip-path="url(#b)"><path fill-rule="evenodd" d="m3.977 7.836 3.441 2.066V1.645c0-.762-.617-1.38-1.375-1.38H1.914C1.152.266.535.884.535 1.646v8.257Zm-2.754.851 2.754-1.652L6.73 8.687V1.646a.69.69 0 0 0-.687-.692H1.914a.69.69 0 0 0-.691.692Zm0 0"/></g></g></defs><use xlink:href="#c" transform="translate(9 27)"/><use xlink:href="#d" x="17.008" y="23.315"/><use xlink:href="#e" x="20.884" y="23.315"/><use xlink:href="#f" x="26.154" y="23.315"/><use xlink:href="#g" x="384.039" y="23.315"/><use xlink:href="#h" x="390.168" y="23.315"/><use xlink:href="#i" x="392.79" y="23.315"/><use xlink:href="#j" x="396.727" y="23.315"/><use xlink:href="#k" x="144.711" y="34.908"/><use xlink:href="#l" x="153.474" y="34.908"/><use xlink:href="#m" x="159.38" y="34.908"/><use xlink:href="#l" x="163.827" y="34.908"/><use xlink:href="#n" x="170.103" y="34.908"/><use xlink:href="#o" x="176.81" y="34.908"/><use xlink:href="#p" x="183.158" y="34.908"/><use xlink:href="#k" x="194.252" y="34.908"/><use xlink:href="#q" x="203.015" y="34.908"/><use xlink:href="#r" x="209.591" y="34.908"/><use xlink:href="#s" x="215.281" y="34.908"/><use xlink:href="#t" x="230.226" y="34.908"/><use xlink:href="#u" x="236.386" y="34.908"/><use xlink:href="#v" x="240.994" y="34.908"/><use xlink:href="#w" x="245.755" y="34.908"/><use xlink:href="#x" x="250.516" y="34.908"/><use xlink:href="#y" x="257.124" y="34.908"/><use xlink:href="#z" x="263.786" y="34.908"/><use xlink:href="#A" x="267.883" y="34.908"/><path fill="none" stroke="#000" stroke-miterlimit="10" stroke-width=".398" d="M17.008 39.293h384.094"/><use xlink:href="#B" x="399.042" y="116.777"/><use xlink:href="#C" x="399.042" y="110.433"/><use xlink:href="#D" x="399.042" y="106.201"/><use xlink:href="#E" x="399.042" y="101.499"/><use xlink:href="#F" x="399.042" y="97.737"/><use xlink:href="#F" x="399.042" y="95.386"/><use xlink:href="#G" x="399.042" y="93.034"/><use xlink:href="#H" x="399.042" y="85.981"/><use xlink:href="#I" x="399.042" y="81.279"/><use xlink:href="#J" x="399.042" y="76.106"/><use xlink:href="#I" x="399.042" y="69.642"/><use xlink:href="#G" x="399.042" y="67.291"/><use xlink:href="#K" x="399.042" y="60.238"/><use xlink:href="#L" x="399.042" y="55.535"/><use xlink:href="#M" x="399.042" y="53.184"/><use xlink:href="#N" x="399.042" y="48.952"/><use xlink:href="#M" x="399.042" y="44.72"/><use xlink:href="#O" x="403.164" y="40.487"/><use xlink:href="#P" x="403.164" y="46.6"/><use xlink:href="#Q" x="403.164" y="50.832"/><use xlink:href="#R" x="403.164" y="54.132"/><use xlink:href="#S" x="403.164" y="58.834"/><use xlink:href="#Q" x="403.164" y="62.596"/><use xlink:href="#P" x="403.164" y="65.895"/><use xlink:href="#R" x="403.164" y="72.941"/><use xlink:href="#S" x="403.164" y="77.643"/><use xlink:href="#T" x="403.164" y="84.226"/><use xlink:href="#U" x="403.164" y="90.69"/><use xlink:href="#P" x="403.164" y="93.041"/><use xlink:href="#V" x="403.164" y="97.273"/><use xlink:href="#W" x="403.164" y="103.434"/><use xlink:href="#X" x="403.164" y="108.136"/><use xlink:href="#Y" x="403.164" y="110.488"/><use xlink:href="#Z" x="403.164" y="114.72"/><use xlink:href="#aa" x="403.164" y="118.952"/><use xlink:href="#ab" x="46.74" y="61.174"/><use xlink:href="#ac" x="63.25" y="51.089" fill="red"/><use xlink:href="#ad" x="63.25" y="61.174"/><use xlink:href="#ae" x="71.021" y="61.174"/><use xlink:href="#af" x="76.305" y="61.174"/><use xlink:href="#ae" x="80.286" y="61.174"/><use xlink:href="#ag" x="85.893" y="61.174"/><use xlink:href="#ah" x="91.894" y="61.174"/><use xlink:href="#ai" x="97.573" y="61.174"/><use xlink:href="#ad" x="107.472" y="61.174"/><use xlink:href="#aj" x="115.242" y="61.174"/><use xlink:href="#ak" x="121.1" y="61.174"/><use xlink:href="#al" x="126.181" y="61.174"/><use xlink:href="#ah" x="63.25" y="82.818"/><use xlink:href="#am" x="68.929" y="82.818"/><use xlink:href="#an" x="73.161" y="82.818"/><use xlink:href="#af" x="78.696" y="82.818"/><use xlink:href="#al" x="82.677" y="82.818"/><use xlink:href="#ao" x="91.931" y="72.733" fill="red"/><use xlink:href="#ap" x="91.931" y="82.818"/><use xlink:href="#aq" x="97.789" y="82.818"/><use xlink:href="#ae" x="101.22" y="82.818"/><use xlink:href="#ar" x="106.827" y="82.818"/><use xlink:href="#as" x="112.828" y="82.818"/><use xlink:href="#at" x="117.909" y="82.818"/><use xlink:href="#au" x="120.659" y="82.818"/><use xlink:href="#as" x="125.142" y="82.818"/><use xlink:href="#ap" x="134.12" y="82.818"/><use xlink:href="#af" x="139.978" y="82.818"/><use xlink:href="#as" x="143.959" y="82.818"/><use xlink:href="#av" x="149.04" y="82.818"/><use xlink:href="#aw" x="154.24" y="82.818"/><use xlink:href="#ax" x="159.441" y="82.818"/><use xlink:href="#al" x="165.442" y="82.818"/><use xlink:href="#ac" x="174.696" y="72.733" fill="red"/><use xlink:href="#ay" x="174.696" y="82.818"/><use xlink:href="#az" x="179.179" y="82.818"/><use xlink:href="#at" x="187.141" y="82.818"/><use xlink:href="#ae" x="189.891" y="82.818"/><use xlink:href="#am" x="195.498" y="82.818"/><use xlink:href="#ae" x="199.73" y="82.818"/><use xlink:href="#aA" x="205.337" y="82.818"/><use xlink:href="#aB" x="63.25" y="94.376" fill="red"/><use xlink:href="#as" x="63.25" y="104.462"/><use xlink:href="#aC" x="68.331" y="104.462"/><use xlink:href="#at" x="77.584" y="104.462"/><use xlink:href="#aq" x="80.334" y="104.462"/><use xlink:href="#ai" x="84.088" y="104.462"/><use xlink:href="#aD" x="90.089" y="104.462"/><use xlink:href="#au" x="97.071" y="104.462"/><use xlink:href="#at" x="101.554" y="104.462"/><use xlink:href="#aE" x="104.303" y="104.462"/><use xlink:href="#ag" x="113.401" y="104.462"/><use xlink:href="#ae" x="119.403" y="104.462"/><use xlink:href="#ar" x="125.01" y="104.462"/><use xlink:href="#aF" x="134.91" y="94.376" fill="red"/><use xlink:href="#ag" x="134.91" y="104.462"/><use xlink:href="#ae" x="140.911" y="104.462"/><use xlink:href="#aC" x="146.518" y="104.462"/><use xlink:href="#at" x="155.771" y="104.462"/><use xlink:href="#aA" x="158.521" y="104.462"/><use xlink:href="#aG" x="43.381" y="132.083"/><use xlink:href="#ac" x="63.25" y="121.998" fill="red"/><use xlink:href="#ad" x="63.25" y="132.083"/><use xlink:href="#ae" x="71.021" y="132.083"/><use xlink:href="#af" x="76.305" y="132.083"/><use xlink:href="#ae" x="80.286" y="132.083"/><use xlink:href="#ag" x="85.893" y="132.083"/><use xlink:href="#ah" x="91.894" y="132.083"/><use xlink:href="#ai" x="97.573" y="132.083"/><use xlink:href="#ad" x="107.472" y="132.083"/><use xlink:href="#aj" x="115.242" y="132.083"/><use xlink:href="#ak" x="121.1" y="132.083"/><use xlink:href="#al" x="126.181" y="132.083"/><use xlink:href="#ah" x="63.25" y="153.727"/><use xlink:href="#am" x="68.929" y="153.727"/><use xlink:href="#an" x="73.161" y="153.727"/><use xlink:href="#af" x="78.696" y="153.727"/><use xlink:href="#al" x="82.677" y="153.727"/><use xlink:href="#ao" x="91.931" y="143.641" fill="red"/><use xlink:href="#ap" x="91.931" y="153.727"/><use xlink:href="#aq" x="97.789" y="153.727"/><use xlink:href="#ae" x="101.22" y="153.727"/><use xlink:href="#ar" x="106.827" y="153.727"/><use xlink:href="#as" x="112.828" y="153.727"/><use xlink:href="#at" x="117.909" y="153.727"/><use xlink:href="#au" x="120.659" y="153.727"/><use xlink:href="#as" x="125.142" y="153.727"/><use xlink:href="#ap" x="134.12" y="153.727"/><use xlink:href="#af" x="139.978" y="153.727"/><use xlink:href="#as" x="143.959" y="153.727"/><use xlink:href="#av" x="149.04" y="153.727"/><use xlink:href="#aw" x="154.24" y="153.727"/><use xlink:href="#ax" x="159.441" y="153.727"/><use xlink:href="#al" x="165.442" y="153.727"/><use xlink:href="#ac" x="174.696" y="143.641" fill="red"/><use xlink:href="#ay" x="174.696" y="153.727"/><use xlink:href="#az" x="179.179" y="153.727"/><use xlink:href="#at" x="187.141" y="153.727"/><use xlink:href="#ae" x="189.891" y="153.727"/><use xlink:href="#am" x="195.498" y="153.727"/><use xlink:href="#ae" x="199.73" y="153.727"/><use xlink:href="#aA" x="205.337" y="153.727"/><use xlink:href="#aB" x="63.25" y="165.285" fill="red"/><use xlink:href="#as" x="63.25" y="175.37"/><use xlink:href="#aC" x="68.331" y="175.37"/><use xlink:href="#at" x="77.584" y="175.37"/><use xlink:href="#aq" x="80.334" y="175.37"/><use xlink:href="#ai" x="84.088" y="175.37"/><use xlink:href="#aD" x="90.089" y="175.37"/><use xlink:href="#au" x="97.071" y="175.37"/><use xlink:href="#at" x="101.554" y="175.37"/><use xlink:href="#aE" x="104.303" y="175.37"/><use xlink:href="#ag" x="113.401" y="175.37"/><use xlink:href="#ae" x="119.403" y="175.37"/><use xlink:href="#ar" x="125.01" y="175.37"/><use xlink:href="#aF" x="134.91" y="165.285" fill="red"/><use xlink:href="#ag" x="134.91" y="175.37"/><use xlink:href="#ae" x="140.911" y="175.37"/><use xlink:href="#aC" x="146.518" y="175.37"/><use xlink:href="#at" x="155.771" y="175.37"/><use xlink:href="#aA" x="158.521" y="175.37"/><use xlink:href="#ac" x="63.25" y="192.906" fill="red"/><use xlink:href="#ad" x="63.25" y="202.991"/><use xlink:href="#ae" x="71.021" y="202.991"/><use xlink:href="#af" x="76.305" y="202.991"/><use xlink:href="#ae" x="80.286" y="202.991"/><use xlink:href="#ag" x="85.893" y="202.991"/><use xlink:href="#ah" x="91.894" y="202.991"/><use xlink:href="#ai" x="97.573" y="202.991"/><use xlink:href="#ad" x="107.472" y="202.991"/><use xlink:href="#aj" x="115.242" y="202.991"/><use xlink:href="#ak" x="121.1" y="202.991"/><use xlink:href="#al" x="126.181" y="202.991"/><use xlink:href="#ah" x="63.25" y="224.635"/><use xlink:href="#am" x="68.929" y="224.635"/><use xlink:href="#an" x="73.161" y="224.635"/><use xlink:href="#af" x="78.696" y="224.635"/><use xlink:href="#al" x="82.677" y="224.635"/><use xlink:href="#ao" x="91.931" y="214.55" fill="red"/><use xlink:href="#ap" x="91.931" y="224.635"/><use xlink:href="#aq" x="97.789" y="224.635"/><use xlink:href="#ae" x="101.22" y="224.635"/><use xlink:href="#ar" x="106.827" y="224.635"/><use xlink:href="#as" x="112.828" y="224.635"/><use xlink:href="#at" x="117.909" y="224.635"/><use xlink:href="#au" x="120.659" y="224.635"/><use xlink:href="#as" x="125.142" y="224.635"/><use xlink:href="#ap" x="134.12" y="224.635"/><use xlink:href="#af" x="139.978" y="224.635"/><use xlink:href="#as" x="143.959" y="224.635"/><use xlink:href="#av" x="149.04" y="224.635"/><use xlink:href="#aw" x="154.24" y="224.635"/><use xlink:href="#ax" x="159.441" y="224.635"/><use xlink:href="#al" x="165.442" y="224.635"/><use xlink:href="#ac" x="174.696" y="214.55" fill="red"/><use xlink:href="#ay" x="174.696" y="224.635"/><use xlink:href="#az" x="179.179" y="224.635"/><use xlink:href="#at" x="187.141" y="224.635"/><use xlink:href="#ae" x="189.891" y="224.635"/><use xlink:href="#am" x="195.498" y="224.635"/><use xlink:href="#ae" x="199.73" y="224.635"/><use xlink:href="#aA" x="205.337" y="224.635"/><use xlink:href="#aB" x="63.25" y="236.193" fill="red"/><use xlink:href="#aj" x="63.25" y="246.279"/><use xlink:href="#aH" x="69.108" y="246.279"/><use xlink:href="#ar" x="75.432" y="246.279"/><use xlink:href="#ae" x="81.434" y="246.279"/><use xlink:href="#af" x="86.718" y="246.279"/><use xlink:href="#as" x="90.699" y="246.279"/><use xlink:href="#ag" x="99.677" y="246.279"/><use xlink:href="#ae" x="105.678" y="246.279"/><use xlink:href="#au" x="111.285" y="246.279"/><use xlink:href="#aI" x="119.666" y="246.279"/><use xlink:href="#aj" x="125.99" y="246.279"/><use xlink:href="#aF" x="131.849" y="236.193" fill="red"/><use xlink:href="#ah" x="131.849" y="246.279"/><use xlink:href="#aj" x="137.205" y="246.279"/><use xlink:href="#aD" x="143.063" y="246.279"/><use xlink:href="#av" x="146.147" y="246.279"/><use xlink:href="#aC" x="151.348" y="246.279"/><use xlink:href="#aA" x="160.601" y="246.279"/><use xlink:href="#aB" x="63.25" y="257.837" fill="red"/><use xlink:href="#aj" x="63.25" y="267.922"/><use xlink:href="#aH" x="69.108" y="267.922"/><use xlink:href="#ar" x="75.432" y="267.922"/><use xlink:href="#ae" x="81.434" y="267.922"/><use xlink:href="#af" x="86.718" y="267.922"/><use xlink:href="#as" x="90.699" y="267.922"/><use xlink:href="#ag" x="99.677" y="267.922"/><use xlink:href="#ae" x="105.678" y="267.922"/><use xlink:href="#au" x="111.285" y="267.922"/><use xlink:href="#aI" x="119.666" y="267.922"/><use xlink:href="#aj" x="125.99" y="267.922"/><use xlink:href="#aF" x="131.849" y="257.837" fill="red"/><use xlink:href="#ah" x="131.849" y="267.922"/><use xlink:href="#aj" x="137.205" y="267.922"/><use xlink:href="#aD" x="143.063" y="267.922"/><use xlink:href="#av" x="146.147" y="267.922"/><use xlink:href="#aC" x="151.348" y="267.922"/><use xlink:href="#aJ" x="160.601" y="267.922"/><use xlink:href="#ab" x="238.321" y="61.174"/><use xlink:href="#ac" x="254.831" y="51.089" fill="red"/><use xlink:href="#aK" x="254.831" y="61.174"/><use xlink:href="#ap" x="262.566" y="61.174"/><use xlink:href="#ag" x="268.424" y="61.174"/><use xlink:href="#ai" x="274.425" y="61.174"/><use xlink:href="#au" x="280.427" y="61.174"/><use xlink:href="#aL" x="288.807" y="61.174"/><use xlink:href="#av" x="297.223" y="61.174"/><use xlink:href="#at" x="302.424" y="61.174"/><use xlink:href="#aA" x="305.174" y="61.174"/><use xlink:href="#aM" x="308.426" y="56.835"/><use xlink:href="#aN" x="254.831" y="82.818"/><use xlink:href="#ai" x="260.832" y="82.818"/><use xlink:href="#at" x="266.834" y="82.818"/><use xlink:href="#ao" x="273.482" y="72.733" fill="red"/><use xlink:href="#am" x="273.482" y="82.818"/><use xlink:href="#aj" x="277.714" y="82.818"/><use xlink:href="#aO" x="283.572" y="82.818"/><use xlink:href="#aO" x="286.322" y="82.818"/><use xlink:href="#at" x="289.071" y="82.818"/><use xlink:href="#au" x="291.821" y="82.818"/><use xlink:href="#aI" x="300.201" y="82.818"/><use xlink:href="#av" x="306.526" y="82.818"/><use xlink:href="#aw" x="311.726" y="82.818"/><use xlink:href="#aw" x="316.926" y="82.818"/><use xlink:href="#ae" x="322.127" y="82.818"/><use xlink:href="#am" x="327.734" y="82.818"/><use xlink:href="#ae" x="331.966" y="82.818"/><use xlink:href="#ac" x="341.471" y="72.733" fill="red"/><use xlink:href="#aC" x="341.471" y="82.818"/><use xlink:href="#ai" x="350.724" y="82.818"/><use xlink:href="#ag" x="356.726" y="82.818"/><use xlink:href="#ar" x="362.727" y="82.818"/><use xlink:href="#at" x="368.728" y="82.818"/><use xlink:href="#aP" x="371.478" y="82.818"/><use xlink:href="#aB" x="254.831" y="94.376" fill="red"/><use xlink:href="#aC" x="254.831" y="104.462"/><use xlink:href="#at" x="264.084" y="104.462"/><use xlink:href="#au" x="266.834" y="104.462"/><use xlink:href="#av" x="271.317" y="104.462"/><use xlink:href="#af" x="276.517" y="104.462"/><use xlink:href="#av" x="280.498" y="104.462"/><use xlink:href="#af" x="285.699" y="104.462"/><use xlink:href="#av" x="289.68" y="104.462"/><use xlink:href="#aF" x="298.779" y="94.376" fill="red"/><use xlink:href="#ag" x="298.779" y="104.462"/><use xlink:href="#aj" x="304.78" y="104.462"/><use xlink:href="#aH" x="310.638" y="104.462"/><use xlink:href="#at" x="316.64" y="104.462"/><use xlink:href="#au" x="319.389" y="104.462"/><use xlink:href="#aJ" x="323.873" y="104.462"/><use xlink:href="#aG" x="234.962" y="132.083"/><use xlink:href="#ac" x="254.831" y="121.998" fill="red"/><use xlink:href="#aK" x="254.831" y="132.083"/><use xlink:href="#ap" x="262.566" y="132.083"/><use xlink:href="#ag" x="268.424" y="132.083"/><use xlink:href="#ai" x="274.425" y="132.083"/><use xlink:href="#au" x="280.427" y="132.083"/><use xlink:href="#aL" x="288.807" y="132.083"/><use xlink:href="#av" x="297.223" y="132.083"/><use xlink:href="#at" x="302.424" y="132.083"/><use xlink:href="#aA" x="305.174" y="132.083"/><use xlink:href="#aN" x="254.831" y="153.727"/><use xlink:href="#ai" x="260.832" y="153.727"/><use xlink:href="#at" x="266.834" y="153.727"/><use xlink:href="#ao" x="273.482" y="143.641" fill="red"/><use xlink:href="#am" x="273.482" y="153.727"/><use xlink:href="#aj" x="277.714" y="153.727"/><use xlink:href="#aO" x="283.572" y="153.727"/><use xlink:href="#aO" x="286.322" y="153.727"/><use xlink:href="#at" x="289.071" y="153.727"/><use xlink:href="#au" x="291.821" y="153.727"/><use xlink:href="#aI" x="300.201" y="153.727"/><use xlink:href="#av" x="306.526" y="153.727"/><use xlink:href="#aw" x="311.726" y="153.727"/><use xlink:href="#aw" x="316.926" y="153.727"/><use xlink:href="#ae" x="322.127" y="153.727"/><use xlink:href="#am" x="327.734" y="153.727"/><use xlink:href="#ae" x="331.966" y="153.727"/><use xlink:href="#ac" x="341.471" y="143.641" fill="red"/><use xlink:href="#aC" x="341.471" y="153.727"/><use xlink:href="#ai" x="350.724" y="153.727"/><use xlink:href="#ag" x="356.726" y="153.727"/><use xlink:href="#ar" x="362.727" y="153.727"/><use xlink:href="#at" x="368.728" y="153.727"/><use xlink:href="#aP" x="371.478" y="153.727"/><use xlink:href="#aB" x="254.831" y="165.285" fill="red"/><use xlink:href="#aC" x="254.831" y="175.37"/><use xlink:href="#at" x="264.084" y="175.37"/><use xlink:href="#au" x="266.834" y="175.37"/><use xlink:href="#av" x="271.317" y="175.37"/><use xlink:href="#af" x="276.517" y="175.37"/><use xlink:href="#av" x="280.498" y="175.37"/><use xlink:href="#af" x="285.699" y="175.37"/><use xlink:href="#av" x="289.68" y="175.37"/><use xlink:href="#aF" x="298.779" y="165.285" fill="red"/><use xlink:href="#ag" x="298.779" y="175.37"/><use xlink:href="#aj" x="304.78" y="175.37"/><use xlink:href="#aH" x="310.638" y="175.37"/><use xlink:href="#at" x="316.64" y="175.37"/><use xlink:href="#au" x="319.389" y="175.37"/><use xlink:href="#aJ" x="323.873" y="175.37"/><use xlink:href="#ac" x="254.831" y="192.906" fill="red"/><use xlink:href="#aK" x="254.831" y="202.991"/><use xlink:href="#ap" x="262.566" y="202.991"/><use xlink:href="#ag" x="268.424" y="202.991"/><use xlink:href="#ai" x="274.425" y="202.991"/><use xlink:href="#au" x="280.427" y="202.991"/><use xlink:href="#aL" x="288.807" y="202.991"/><use xlink:href="#av" x="297.223" y="202.991"/><use xlink:href="#at" x="302.424" y="202.991"/><use xlink:href="#aA" x="305.174" y="202.991"/><use xlink:href="#aN" x="254.831" y="224.635"/><use xlink:href="#ai" x="260.832" y="224.635"/><use xlink:href="#at" x="266.834" y="224.635"/><use xlink:href="#ao" x="273.482" y="214.55" fill="red"/><use xlink:href="#am" x="273.482" y="224.635"/><use xlink:href="#aj" x="277.714" y="224.635"/><use xlink:href="#aO" x="283.572" y="224.635"/><use xlink:href="#aO" x="286.322" y="224.635"/><use xlink:href="#at" x="289.071" y="224.635"/><use xlink:href="#au" x="291.821" y="224.635"/><use xlink:href="#aI" x="300.201" y="224.635"/><use xlink:href="#av" x="306.526" y="224.635"/><use xlink:href="#aw" x="311.726" y="224.635"/><use xlink:href="#aw" x="316.926" y="224.635"/><use xlink:href="#ae" x="322.127" y="224.635"/><use xlink:href="#am" x="327.734" y="224.635"/><use xlink:href="#ae" x="331.966" y="224.635"/><use xlink:href="#ac" x="341.471" y="214.55" fill="red"/><use xlink:href="#aC" x="341.471" y="224.635"/><use xlink:href="#ai" x="350.724" y="224.635"/><use xlink:href="#ag" x="356.726" y="224.635"/><use xlink:href="#ar" x="362.727" y="224.635"/><use xlink:href="#at" x="368.728" y="224.635"/><use xlink:href="#aP" x="371.478" y="224.635"/><use xlink:href="#aB" x="254.831" y="236.193" fill="red"/><use xlink:href="#ar" x="254.831" y="246.279"/><use xlink:href="#aj" x="260.832" y="246.279"/><use xlink:href="#ag" x="266.69" y="246.279"/><use xlink:href="#ae" x="272.692" y="246.279"/><use xlink:href="#ag" x="282.196" y="246.279"/><use xlink:href="#aj" x="288.197" y="246.279"/><use xlink:href="#aH" x="294.055" y="246.279"/><use xlink:href="#at" x="300.057" y="246.279"/><use xlink:href="#au" x="302.806" y="246.279"/><use xlink:href="#aF" x="311.188" y="236.193" fill="red"/><use xlink:href="#aI" x="311.188" y="246.279"/><use xlink:href="#ae" x="317.189" y="246.279"/><use xlink:href="#aw" x="322.796" y="246.279"/><use xlink:href="#av" x="327.997" y="246.279"/><use xlink:href="#aC" x="333.197" y="246.279"/><use xlink:href="#aA" x="342.45" y="246.279"/><use xlink:href="#aB" x="254.831" y="257.837" fill="red"/><use xlink:href="#ar" x="254.831" y="267.922"/><use xlink:href="#aj" x="260.832" y="267.922"/><use xlink:href="#ag" x="266.69" y="267.922"/><use xlink:href="#ae" x="272.692" y="267.922"/><use xlink:href="#ag" x="282.196" y="267.922"/><use xlink:href="#aj" x="288.197" y="267.922"/><use xlink:href="#aH" x="294.055" y="267.922"/><use xlink:href="#at" x="300.057" y="267.922"/><use xlink:href="#au" x="302.806" y="267.922"/><use xlink:href="#aF" x="311.188" y="257.837" fill="red"/><use xlink:href="#aI" x="311.188" y="267.922"/><use xlink:href="#ae" x="317.189" y="267.922"/><use xlink:href="#aw" x="322.796" y="267.922"/><use xlink:href="#av" x="327.997" y="267.922"/><use xlink:href="#aC" x="333.197" y="267.922"/><use xlink:href="#aJ" x="342.45" y="267.922"/><path fill="none" stroke="#000" stroke-miterlimit="10" stroke-width=".398" d="M17.008 554.594h153.637"/><use xlink:href="#aQ" x="27.919" y="561.113"/><use xlink:href="#aR" x="31.354" y="564.007" fill="red"/><g fill="red"><use xlink:href="#aS" x="36.758" y="564.007"/><use xlink:href="#aT" x="40.52" y="564.007"/><use xlink:href="#aU" x="44.991" y="564.007"/><use xlink:href="#aV" x="48.33" y="564.007"/></g><g fill="red"><use xlink:href="#aW" x="54.443" y="564.007"/><use xlink:href="#aX" x="57.288" y="564.007"/><use xlink:href="#aY" x="61.52" y="564.007"/><use xlink:href="#aZ" x="65.282" y="564.007"/><use xlink:href="#ba" x="67.633" y="564.007"/><use xlink:href="#aU" x="72.336" y="564.007"/><use xlink:href="#aT" x="75.675" y="564.007"/><use xlink:href="#aZ" x="80.146" y="564.007"/></g><g fill="red"><use xlink:href="#bb" x="85.319" y="564.007"/><use xlink:href="#bc" x="90.021" y="564.007"/></g><g fill="red"><use xlink:href="#bb" x="94.492" y="564.007"/><use xlink:href="#aX" x="99.195" y="564.007"/><use xlink:href="#bd" x="103.427" y="564.007"/></g><use xlink:href="#be" x="107.89" y="564.007" fill="red"/><g fill="red"><use xlink:href="#bf" x="115.182" y="564.007"/><use xlink:href="#aX" x="118.944" y="564.007"/></g><g fill="red"><use xlink:href="#bg" x="125.998" y="564.007"/><use xlink:href="#bh" x="129.999" y="564.007"/><use xlink:href="#aS" x="136.231" y="564.007"/><use xlink:href="#aU" x="139.993" y="564.007"/><use xlink:href="#bi" x="143.332" y="564.007"/><use xlink:href="#aY" x="148.035" y="564.007"/><use xlink:href="#aZ" x="151.797" y="564.007"/><use xlink:href="#aV" x="154.148" y="564.007"/><use xlink:href="#bj" x="157.439" y="564.007"/></g><g fill="red"><use xlink:href="#bk" x="164.493" y="564.007"/><use xlink:href="#bl" x="168.725" y="564.007"/><use xlink:href="#bm" x="172.957" y="564.007"/><use xlink:href="#bn" x="177.189" y="564.007"/><use xlink:href="#bo" x="181.421" y="564.007"/></g><g fill="red"><use xlink:href="#bc" x="188.243" y="564.007"/><use xlink:href="#bp" x="192.476" y="564.007"/><use xlink:href="#aX" x="195.775" y="564.007"/><use xlink:href="#bf" x="200.007" y="564.007"/></g><g fill="red"><use xlink:href="#bg" x="206.59" y="564.007"/><use xlink:href="#bh" x="210.591" y="564.007"/><use xlink:href="#aZ" x="216.824" y="564.007"/><use xlink:href="#aU" x="219.175" y="564.007"/><use xlink:href="#bi" x="222.514" y="564.007"/><use xlink:href="#aU" x="227.217" y="564.007"/><use xlink:href="#aY" x="230.556" y="564.007"/><use xlink:href="#aZ" x="234.318" y="564.007"/><use xlink:href="#aV" x="236.669" y="564.007"/><use xlink:href="#bq" x="239.961" y="564.007"/></g><g fill="red"><use xlink:href="#bk" x="247.014" y="564.007"/><use xlink:href="#bl" x="251.246" y="564.007"/><use xlink:href="#bk" x="255.478" y="564.007"/><use xlink:href="#bl" x="259.71" y="564.007"/><use xlink:href="#bo" x="263.943" y="564.007"/><use xlink:href="#br" x="267.943" y="564.007"/></g><g fill="red"><use xlink:href="#bs" x="273.116" y="564.007"/><use xlink:href="#bt" x="276.408" y="564.007"/><use xlink:href="#bp" x="281.11" y="564.007"/><use xlink:href="#bf" x="284.409" y="564.007"/><use xlink:href="#be" x="288.171" y="564.007"/><use xlink:href="#bt" x="292.642" y="564.007"/><use xlink:href="#br" x="297.345" y="564.007"/></g><g fill="red"><use xlink:href="#bp" x="302.517" y="564.007"/><use xlink:href="#aS" x="305.817" y="564.007"/><use xlink:href="#bb" x="309.579" y="564.007"/><use xlink:href="#br" x="314.281" y="564.007"/><use xlink:href="#bu" x="316.632" y="564.007"/></g><g clip-path="url(#bv)"><path fill="url(#bw)" d="M15.023 579.684v-11.336h388.063v11.336Zm0 0"/></g><use xlink:href="#bx" x="394.372" y="577.985"/><path fill="#f2f2f2" stroke="#000" stroke-miterlimit="10" stroke-width=".797" d="M196.602 575.965v-3.988a2.99 2.99 0 0 1 2.988-2.989h18.93a2.99 2.99 0 0 1 2.988 2.989v3.988a2.99 2.99 0 0 1-2.988 2.988h-18.93a2.99 2.99 0 0 1-2.988-2.988Zm0 0"/><use xlink:href="#by" x="198.439" y="576.948"/><use xlink:href="#bz" x="203.747" y="576.948"/><use xlink:href="#bz" x="209.055" y="576.948"/><use xlink:href="#bA" x="214.363" y="576.948"/><use xlink:href="#bB" x="17.008" y="577.985"/><use xlink:href="#bC" x="20.976" y="577.985"/><use xlink:href="#bD" x="24.944" y="577.985"/><use xlink:href="#bE" x="31.598" y="577.985"/><use xlink:href="#bB" x="33.85" y="577.985"/><use xlink:href="#bF" x="37.818" y="577.985"/><use xlink:href="#bG" x="41.787" y="577.985"/><use xlink:href="#bC" x="44.039" y="577.985"/><use xlink:href="#bH" x="48.007" y="577.985"/><use xlink:href="#bI" x="52.945" y="577.985"/><use xlink:href="#bB" x="63.573" y="577.985"/><use xlink:href="#bD" x="67.542" y="577.985"/><use xlink:href="#bJ" x="74.195" y="577.985"/><use xlink:href="#bB" x="79.76" y="577.985"/><use xlink:href="#bK" x="83.728" y="577.985"/><use xlink:href="#bB" x="87.697" y="577.985"/><use xlink:href="#bL" x="91.665" y="577.985"/><use xlink:href="#bI" x="98.318" y="577.985"/><use xlink:href="#bM" x="108.946" y="577.985"/><use xlink:href="#bN" x="114.609" y="577.985"/><use xlink:href="#bO" x="119.01" y="577.985"/><use xlink:href="#bP" x="124.484" y="577.985"/><use xlink:href="#bQ" x="128.027" y="577.985"/><use xlink:href="#bR" x="132.212" y="577.985"/><use xlink:href="#bB" x="138.007" y="577.985"/><use xlink:href="#bK" x="141.975" y="577.985"/><use xlink:href="#bB" x="145.943" y="577.985"/><use xlink:href="#bS" x="149.912" y="577.985"/></svg>