<svg xmlns="http://www.w3.org/2000/svg" xmlns:xlink="http://www.w3.org/1999/xlink" width="559.371" height="793.701" viewBox="0 0 419.528 595.276"><defs><path id="d" d="M3.344 2.297v-.078L1.5-2.5l1.844-4.703v-.078c0-.11-.078-.203-.188-.203a.24.24 0 0 0-.203.14L1.11-2.562c-.015.015-.015.046-.015.062 0 .031 0 .063.015.078L2.953 2.36a.24.24 0 0 0 .203.141c.11 0 .188-.094.188-.203m0 0"/><path id="e" d="M6.063-5.516c.093-.375.093-.718-.094-.968-.282-.391-.813-.47-1.328-.47-.782 0-1.594.22-2.297.766-.453.36-.797.782-1.063 1.25C.938-4.358.72-3.734.563-3.125a5 5 0 0 0-.157 1.5c.031.406.125.781.36 1.094.328.437.875.687 1.5.687.687 0 1.437-.172 2.047-.672a2.5 2.5 0 0 0 .468-.53l-.328-.47-.14.063c-.125.312-.313.61-.579.828a1.8 1.8 0 0 1-1.125.438c-.453 0-.812-.22-1.03-.516-.235-.313-.345-.719-.376-1.125-.047-.5.031-1.016.156-1.547C1.5-3.953 1.688-4.5 2-5.047c.203-.406.484-.766.844-1.062.469-.375 1.015-.516 1.547-.516.343 0 .672.078.859.328.188.25.172.563.094.89-.094.36-.266.735-.578.985-.235.188-.516.328-.797.328-.125 0-.281 0-.36-.11-.093-.109-.046-.296.047-.452.047-.14.125-.297.047-.407-.047-.078-.172-.109-.281-.109a.5.5 0 0 0-.344.11.7.7 0 0 0-.203.359c-.047.219-.031.422.078.578.219.266.578.328.969.328.437 0 .937-.14 1.328-.469a2.43 2.43 0 0 0 .813-1.25m0 0"/><path id="f" d="M2.781-2.5c0-.016 0-.047-.015-.062L.922-7.344c-.031-.078-.11-.14-.188-.14a.207.207 0 0 0-.203.203v.078L2.375-2.5.531 2.219v.078c0 .11.094.203.203.203.079 0 .157-.062.188-.14l1.844-4.782c.015-.015.015-.047.015-.078m0 0"/><path id="g" d="M6.047-.156c0-.094-.11-.11-.14-.11-.25 0-.376-.03-.5-.312L4.218-3.297 5.766-4.5c.218-.172.812-.625 1.312-.672.063-.016.156-.031.156-.156 0-.047-.03-.11-.109-.11 0 0-.234.016-.281.016h-.328c-.266 0-.563-.016-.813-.016-.047 0-.172 0-.172.141 0 .11.14.125.14.125.11 0 .173.047.173.11 0 .125-.14.25-.172.28l-.047.048c-.016.015-.031.015-.094.078L2.563-2.344l.609-2.5c.078-.265.125-.328.61-.328.171 0 .265 0 .265-.156 0-.047-.031-.11-.125-.11-.14 0-.313.016-.453.016h-.953l-.453-.016c-.047 0-.172 0-.172.141 0 .125.093.125.234.125.219 0 .438 0 .438.11 0 .046 0 .062-.032.171L1.47-.609c-.078.28-.125.343-.61.343-.171 0-.265 0-.265.157C.594-.047.64 0 .719 0c.031 0 .39-.016.453-.031h.484c.672 0 .89.031.938.031s.156 0 .156-.156c0-.11-.094-.11-.234-.11-.25 0-.438 0-.438-.125 0-.046.047-.218.078-.328l.297-1.203 1.25-.969.985 2.25c.046.094.046.11.046.141 0 .203-.187.234-.343.234-.094 0-.188.016-.188.157 0 .062.047.109.11.109.28 0 .578-.031.843-.031.672 0 .64.031.735.031.03 0 .156 0 .156-.156m0 0"/><path id="h" d="M2.828-1.14c0-.11-.11-.11-.156-.11-.125 0-.125.031-.172.172-.14.516-.406.937-.734.937-.157 0-.188-.109-.188-.25 0-.187.063-.328.188-.656l.515-1.39c.063-.172.094-.25.094-.422 0-.438-.312-.657-.656-.657-.75 0-1.078 1.11-1.078 1.22 0 .108.093.108.14.108.14 0 .14-.03.172-.171.125-.407.375-.938.75-.938.14 0 .172.11.172.25 0 .188-.047.344-.156.61L1.156-.953a1.1 1.1 0 0 0-.078.375c0 .36.266.656.672.656.75 0 1.078-1.125 1.078-1.219m.125-3.704a.354.354 0 0 0-.36-.375.55.55 0 0 0-.53.532c0 .234.171.359.359.359.265 0 .531-.234.531-.516m0 0"/><path id="i" d="M4.14-1.14c0-.11-.109-.11-.14-.11-.14 0-.156.047-.187.172-.11.453-.266.937-.61.937-.14 0-.25-.078-.25-.375 0-.125.031-.265.063-.39.03-.125.03-.172.03-.25 0-.563-.546-.75-1.108-.86.296-.187.625-.53.671-.593.454-.5.766-.688 1.063-.688.11 0 .172.063.203.11-.156.03-.344.171-.344.39s.188.266.281.266c.204 0 .407-.14.407-.453 0-.266-.157-.532-.547-.532s-.75.266-1.188.735c-.484.515-.656.594-.796.672l.796-3.188c0-.031.016-.094.016-.125 0-.11-.125-.11-.219-.094l-.828.063c-.11.016-.187.016-.187.156 0 .125.093.125.203.125.375 0 .375.047.375.11a.7.7 0 0 1-.032.171L.657-.266c0 .032-.015.079-.015.11 0 .11.078.234.25.234.14 0 .265-.094.328-.297l.39-1.578c.313.031.891.172.891.656 0 .047 0 .079-.031.188a1 1 0 0 0-.031.25c0 .437.296.781.734.781.36 0 .562-.265.656-.406.188-.297.313-.766.313-.813m0 0"/><path id="j" d="M4.297-2.172c0-.828-.547-1.344-1.266-1.344C2-3.516.921-2.437.921-1.266c0 .875.595 1.344 1.267 1.344 1.062 0 2.109-1.094 2.109-2.25m-.594-.281c0 .265-.125 1.031-.437 1.578-.266.438-.688.734-1.078.734-.297 0-.672-.203-.672-.843 0-.36.172-1.11.422-1.547.343-.578.812-.766 1.078-.766.39 0 .687.297.687.844m0 0"/><path id="bD" d="M5.125-2.031c0-.11-.125-.11-.14-.11-.126 0-.126.016-.188.204-.328.968-.625 1.656-2.031 1.656H1.484l4.313-4.86c.062-.078.11-.125.11-.218 0-.079-.079-.079-.204-.079H2.422c-.203 0-.203 0-.25.157l-.438 1.437c-.03.078-.03.094-.03.094 0 .11.109.11.155.11.11 0 .11-.016.172-.172.297-.891.719-1.36 1.86-1.36h1.218L.766-.297a.32.32 0 0 0-.094.203C.672 0 .75 0 .875 0h3.422c.172 0 .203 0 .25-.14l.547-1.782c.031-.094.031-.11.031-.11m0 0"/><path id="bE" d="M4.578-1.14c0-.11-.11-.11-.14-.11-.141 0-.141.031-.188.234-.156.61-.328.875-.531.875-.235 0-.235-.25-.235-.359 0-.047 0-.125.032-.219l1.14-4.578c0-.031.016-.094.016-.125 0-.11-.125-.11-.203-.094l-.828.063c-.125.016-.203.016-.203.156 0 .125.093.125.203.125.39 0 .39.047.39.11 0 .046-.031.125-.031.171l-.469 1.829c-.156-.282-.39-.454-.719-.454-.953 0-1.906 1.188-1.906 2.329 0 .75.453 1.265 1.047 1.265.469 0 .86-.344 1.031-.547.063.297.329.547.72.547.28 0 .468-.172.608-.422.172-.312.266-.797.266-.797m-1.547.077C2.97-.78 2.453-.14 1.97-.14c-.36 0-.485-.406-.485-.734 0-.375.235-1.312.422-1.672.328-.578.672-.75.907-.75.5 0 .578.688.578.766l-.016.11Zm0 0"/><path id="bF" d="M4.11-2.969c0-.453-.579-.547-.844-.547-.47 0-.797.25-1.032.547-.062-.297-.328-.547-.718-.547-.266 0-.453.157-.61.438-.156.265-.265.75-.265.781 0 .11.093.11.14.11.14 0 .14-.032.188-.22.125-.468.265-.89.531-.89.234 0 .234.281.234.36 0 .109-.015.234-.046.343L1.094-.266c-.016.079-.016.094-.016.125 0 .125.094.22.234.22.22 0 .313-.188.344-.313l.485-1.953c.015-.11.39-1.11 1.109-1.11.078 0 .297.016.453.14-.265.095-.281.298-.281.36 0 .219.187.266.281.266.156 0 .406-.11.406-.438m0 0"/><path id="bG" d="M5.89-2.937c0-.5-.234-.579-.359-.579-.156 0-.39.157-.39.391 0 .11.062.156.109.203.156.172.219.39.219.61 0 .312-.25 1.124-.39 1.437-.173.406-.423.734-.813.734-.563 0-.563-.546-.563-.671 0-.22.016-.329.14-.797l.313-1.25c.032-.11.078-.313.078-.344 0-.156-.109-.235-.234-.235-.266 0-.328.25-.344.329l-.422 1.734c-.062.219-.062.234-.078.422 0 .203-.14.422-.219.531q-.21.282-.468.281c-.328 0-.625-.171-.625-.703 0-.406.234-1.015.422-1.515.093-.266.125-.328.125-.5 0-.438-.328-.657-.657-.657-.765 0-1.093 1.11-1.093 1.22 0 .108.093.108.14.108.14 0 .14-.03.172-.171.14-.5.406-.938.766-.938.14 0 .172.11.172.25 0 .188-.063.36-.141.531-.344.954-.422 1.235-.422 1.579 0 .89.719 1.015 1.125 1.015.219 0 .516-.047.813-.5.218.438.718.5.968.5.47 0 .829-.281 1.125-.937.266-.547.532-1.641.532-2.078m0 0"/><path id="bH" d="M4.5-1.14c0-.11-.11-.11-.156-.11-.125 0-.125.031-.172.234-.156.61-.328.875-.531.875-.235 0-.235-.25-.235-.359 0-.047 0-.125.031-.219L4-2.969c0-.047.031-.125.031-.172 0-.125-.11-.218-.25-.218-.11 0-.281.062-.328.297-.156-.282-.39-.454-.734-.454-.938 0-1.89 1.188-1.89 2.329 0 .75.452 1.265 1.046 1.265.469 0 .86-.344 1.031-.547.063.297.328.547.719.547.281 0 .469-.172.61-.422.171-.312.265-.797.265-.797m-1.547.077c-.062.282-.594.922-1.062.922-.375 0-.485-.406-.485-.734 0-.375.235-1.312.422-1.672.328-.578.672-.75.89-.75.516 0 .595.688.595.766l-.016.11Zm0 0"/><path id="bI" d="M3.344-1.25c0-.703-.703-.844-.969-.906-.344-.063-.625-.125-.625-.453 0-.22.203-.688.828-.688.25 0 .516.094.625.344-.281.062-.281.328-.281.328 0 .14.11.234.234.234.047 0 .36 0 .36-.437 0-.469-.47-.688-.922-.688-1.078 0-1.328.875-1.328 1.172 0 .203.078.438.25.563.172.156.265.172.734.281.172.031.594.11.594.516 0 .25-.203.843-1.078.843-.172 0-.641-.03-.813-.39.36-.063.36-.375.36-.39 0-.157-.11-.266-.282-.266-.203 0-.406.156-.406.5 0 .437.438.765 1.14.765 1.25 0 1.579-.937 1.579-1.328m.734-4.047c0-.172-.14-.25-.25-.25s-.219.11-.219.11l-1.234 1.14c-.031.016-.094.078-.094.14 0 .048.063.157.156.157.032 0 .063-.016.11-.047l1.344-.969c.172-.109.187-.218.187-.28m0 0"/><path id="bJ" d="M8.36-5.328c0-.11-.094-.11-.22-.11h-.984c-.172 0-.218 0-.312.157L4-.72l-.562-4.515c-.016-.188-.016-.203-.235-.203H2.172c-.14 0-.235 0-.235.14 0 .125.094.125.235.125.203 0 .437 0 .437.11 0 .046 0 .062-.03.171L1.561-.859c-.078.328-.203.578-.78.593-.048 0-.141.016-.141.157C.64-.047.687 0 .75 0c.25 0 .531-.031.766-.031.625 0 .718.031.797.031.03 0 .156 0 .156-.156 0-.094-.11-.11-.156-.11-.329 0-.47-.093-.47-.328 0-.062.032-.156.032-.187L2.922-4.97h.015l.579 4.766c.015.14.03.203.172.203.14 0 .187-.094.234-.172l3.031-4.86h.016L5.859-.608c-.062.297-.125.343-.64.343-.125 0-.219 0-.219.157 0 .062.047.109.11.109.124 0 .312-.016.421-.031H6c.672 0 .875.031.906.031.047 0 .157 0 .157-.156 0-.11-.094-.11-.22-.11-.25 0-.437 0-.437-.125 0-.062.016-.125.032-.187l1.046-4.234c.079-.297.125-.36.641-.36.14 0 .234 0 .234-.156m0 0"/><path id="bK" d="m3.516.078.78-3.125c.032-.11.032-.125.032-.156 0-.156-.11-.235-.234-.235-.25 0-.313.25-.328.329L3.219-.922c-.047.156-.375.781-.906.781-.47 0-.47-.484-.47-.625 0-.453.204-1 .454-1.687.062-.156.094-.235.094-.406 0-.438-.328-.657-.657-.657-.765 0-1.093 1.11-1.093 1.22 0 .108.093.108.14.108.14 0 .14-.03.172-.171.14-.5.406-.938.766-.938.14 0 .172.11.172.25 0 .188-.063.36-.141.531-.219.625-.437 1.204-.437 1.641 0 .719.515.953.968.953.344 0 .625-.172.75-.297A2.75 2.75 0 0 1 2.562.906c-.218.25-.515.5-.859.5-.219 0-.406-.093-.5-.297.219-.046.36-.218.36-.406 0-.14-.11-.25-.282-.25-.14 0-.406.078-.406.485s.344.687.813.687c.89 0 1.656-.844 1.828-1.547m0 0"/><path id="bL" d="M1.922.422 2.64-2.5c.046-.156.046-.219.046-.281 0-.438-.328-.735-.75-.735C1.11-3.516.642-2.39.642-2.28c0 .094.109.094.14.094.125 0 .14-.032.172-.126.328-.78.719-.984.969-.984.14 0 .234.063.234.36 0 .109-.015.171-.015.218L1.359.406c-.062.266-.343 1-.875 1a.63.63 0 0 1-.296-.062C.39 1.234.406 1 .406 1 .406.844.296.734.125.734a.417.417 0 0 0-.406.422c0 .297.328.469.765.469.672 0 1.282-.578 1.438-1.203m1.031-5.266a.354.354 0 0 0-.36-.375.55.55 0 0 0-.53.532c0 .234.171.359.359.359.265 0 .531-.234.531-.516m0 0"/><path id="k" d="M8.25-.328c0-.047 0-.078-.062-.234l-2.516-7.22c-.188-.515-.531-.515-.766-.515H3.844c-.235 0-.578 0-.766.516L.563-.562C.5-.406.5-.375.5-.328.5 0 .797 0 .969 0h.437c.203 0 .578 0 .75-.484l.469-1.328h3.297l.406 1.156c.156.422.234.656.813.656h.64c.172 0 .469 0 .469-.328m-2.687-2.5H2.969l.875-2.531c.172-.532.328-.985.422-1.422h.015c.063.297.063.312.157.593Zm0 0"/><path id="l" d="M5.656-5.14c0-.329-.297-.329-.484-.329h-.25c-.5 0-.625.172-.734.516L3-1.343l-1.187-3.61c-.079-.266-.157-.516-.735-.516H.781c-.172 0-.468 0-.468.328 0 .032 0 .063.062.235L1.797-.5c.156.5.531.5.75.5h.875C3.64 0 4 0 4.172-.5l1.422-4.406c.062-.172.062-.203.062-.235m0 0"/><path id="m" d="M5.719-3.11c0-1.546-.703-2.562-2.485-2.562-1.921 0-2.859 1.063-2.859 2.89 0 1.954 1.125 2.907 3 2.907.469 0 1.14-.047 1.938-.453.25-.125.343-.156.343-.313 0-.078-.031-.421-.047-.515-.046-.375-.062-.39-.171-.39-.047 0-.079 0-.204.124a2.7 2.7 0 0 1-1.796.688c-1.36 0-1.5-1.063-1.532-1.828h3.25c.266 0 .563 0 .563-.547m-1.313-.078h-2.5c.047-.734.282-1.624 1.328-1.624.954 0 1.125.687 1.172 1.625m0 0"/><path id="n" d="M10.594-.578v-7.14c0-.391-.094-.579-.578-.579h-1c-.297 0-.594.031-.797.516L6.64-3.906c-.25.61-.703 1.703-.797 2.125h-.016c-.11-.438-.594-1.61-.844-2.25l-1.53-3.782c-.204-.484-.579-.484-.798-.484h-1c-.422 0-.562.14-.562.578v7.14c0 .438.125.579.562.579h.328c.454 0 .579-.156.579-.578V-6.75c.14.531.671 1.86.968 2.563L4.906-.781c.219.515.516.515.922.515s.688 0 .906-.515l1.532-3.75c.109-.282.765-1.907.843-2.219h.016v6.172c0 .39.078.578.563.578h.328c.453 0 .578-.156.578-.578m0 0"/><path id="o" d="M5.672-.578v-3.203c0-1.89-1.828-1.89-2.422-1.89-.562 0-1.156.046-1.953.374-.25.11-.313.14-.313.281 0 .079.063.766.079.875a.17.17 0 0 0 .156.125c.062 0 .093-.03.125-.078.515-.531 1.125-.797 1.86-.797.64 0 .843.391.843 1.094v.422c-.422 0-3.563.031-3.563 1.781C.484-.75 1.156.125 2.22.125c.406 0 1.297-.11 1.86-.937v.234c0 .39.077.578.577.578h.438c.453 0 .578-.156.578-.578M4.047-1.844c0 1.11-1.14 1.11-1.172 1.11-.516 0-.828-.422-.828-.875 0-1.172 1.656-1.266 2-1.266Zm0 0"/><path id="p" d="M4.25-4.719v-.562c0-.235 0-.328-.203-.328-.344 0-1.219.125-1.781 1.406v-.766c0-.39-.094-.578-.578-.578h-.391c-.422 0-.563.125-.563.578v4.39C.734-.14.86 0 1.297 0h.453c.453 0 .563-.156.563-.578V-2.75c0-1.14.953-1.594 1.703-1.656.218 0 .234 0 .234-.313m0 0"/><path id="q" d="M2.313-.578v-4.328c0-.375-.079-.563-.563-.563h-.453c-.422 0-.563.125-.563.563v4.328c0 .437.125.578.563.578h.453c.453 0 .563-.156.563-.578m.093-6.672v-.219c0-.39-.094-.578-.578-.578h-.61c-.452 0-.577.156-.577.578v.219c0 .36.062.578.578.578h.61c.5 0 .577-.219.577-.578m0 0"/><path id="r" d="m3.922 0 .11-.562H2.89l1.172-5.5h-.188c-.734.578-1.594.578-1.906.578l-.11.562c.25 0 .704 0 1.25-.203L2.125-.562H.985L.858 0Zm0 0"/><path id="s" d="M4.86-3c.515-2.437-.407-3.062-1.235-3.062-.516 0-.984.171-1.484.609-.547.5-.782.906-.938 1.578-.125.625-.094 1.047.11 1.5.218.484.484.656.906.656.781 0 1.406-.437 1.719-.734C3.453-.86 2.562-.391 1.968-.391c-.25 0-.577-.046-.859-.328l-.406.5c.344.313.719.422 1.14.422C3.048.203 4.439-1.047 4.86-3m-.688-.672c-.14.735-.75 1.375-1.453 1.375-.469 0-.625-.265-.735-.484-.14-.36-.078-.719 0-1.094.094-.39.172-.766.547-1.172.14-.14.453-.453.969-.453.938 0 .781 1.297.719 1.61a.6.6 0 0 1-.047.218m0 0"/><path id="t" d="M4.563-1.625c.125-.562-.094-1.219-.938-1.547.61-.172 1.281-.656 1.422-1.328.172-.812-.438-1.562-1.453-1.562-1.047 0-1.953.765-2.125 1.562-.14.672.312 1.156.843 1.328C1.298-2.828.845-2.156.72-1.625.516-.641 1.188.203 2.25.203c1.094 0 2.11-.86 2.313-1.828m-.188-2.86c-.11.563-.594 1.016-1.344 1.016-.703 0-1.031-.422-.906-1.015.14-.594.656-1.016 1.344-1.016.734 0 1.031.438.906 1.016m-.594 2.86c-.172.828-.797 1.234-1.39 1.234-.641 0-1.063-.421-.891-1.234.203-.953.953-1.25 1.406-1.25.516 0 1.078.328.875 1.25m0 0"/><path id="u" d="m4.656-1.5.125-.578h-.89l.797-3.781h-.86L.703-2.08.578-1.5H3L2.688 0h.75l.328-1.5Zm-1.468-.578h-1.75l.75-.906C2.547-3.437 3.797-5 3.906-5.454Zm0 0"/><path id="v" d="M2.594 2.234c-.375-.5-1.25-1.64-.64-4.484.609-2.828 1.952-3.969 2.546-4.484h-.594c-1.25.89-2.265 2.422-2.703 4.484-.453 2.14-.031 3.625.813 4.484Zm0 0"/><path id="w" d="m5.313 0 .125-.625h-.391l-2.188.016h-.343l.578-2.672 1.734-1.235-.25-.406-1.344.969.485-2.266h-.86l-.64 2.985-1.031.734.25.39.64-.453L1.531 0Zm0 0"/><path id="x" d="M4.344 0 3.109-2.437l1.875-1.547h-.859L1.906-2.141l.86-4.078h-.672L.766 0h.656l.266-1.281.875-.703 1 1.984Zm0 0"/><path id="y" d="m1.656-.016.172-.75h-.781L.89 0h.234L.641 1.14h.375Zm0 0"/><path id="z" d="m4.14 0 .141-.672H2.594c-.094 0-.203.016-.313.016h-.984L3.047-2c1.11-.766 1.781-1.25 1.969-2.125.218-1.031-.328-1.937-1.547-1.937-.953 0-1.625.546-2.094 1.437l.297.516c.453-1.047.984-1.344 1.531-1.344.813 0 1.188.61 1.016 1.344-.172.812-.844 1.343-1.64 1.937l-2 1.563L.452 0Zm0 0"/><path id="A" d="m4.031 0 .563-2.656c.14-.672.125-1.422-.969-1.422-.703 0-1.219.406-1.484.672l.14-.625h-.687L.719 0h.75l.468-2.187c.125-.594.516-1.313 1.188-1.313.906 0 .766.64.719.906L3.28 0Zm0 0"/><path id="B" d="M3.328-2.25c.453-2.125.031-3.625-.812-4.484h-.578c.39.5 1.25 1.656.64 4.484C1.984.594.625 1.734.031 2.234h.594c1.234-.89 2.266-2.421 2.703-4.484m0 0"/><path id="C" d="M0-6.047h-.266v.14c0 .5-.062.579-.328.673l-4.922 1.859c-.109.047-.171.063-.171.203s.062.172.171.203l4.688 1.781c.219.079.562.25.562.907H0C-.031-.547-.031-.97-.031-1.11c0-.25 0-.5.031-.875h-.266c0 .343-.171.547-.39.547-.063 0-.078 0-.172-.032l-1-.375v-2.172l1.187-.453C-.547-4.5-.5-4.5-.5-4.5c.234 0 .234.406.234.64H0L-.031-5c0-.437 0-.594.031-1.047m-2.094 2.14v1.97l-2.593-1Zm0 0"/><path id="D" d="M-3.172-4.281h-.265c.03.265.03.281.03.61 0 .077 0 .452-.03.702h.265c.016-.281.188-.36.328-.36.078 0 .125.017.188.048l2.015.86-2.171.952c-.094.047-.157.047-.157.047-.203 0-.203-.297-.203-.422h-.265c.03.344.03.719.03.86 0 .172 0 .547-.03.812h.265c0-.484.047-.531.313-.656l2.765-1.188c.125-.062.172-.109.172-.218 0-.11-.062-.172-.156-.203L-2.61-3.532c-.453-.188-.547-.469-.563-.75m0 0"/><path id="E" d="M-.953-3.516a.12.12 0 0 0-.11.125c0 .094.047.11.094.125.782.282.797.97.797 1.11 0 .36-.156.734-.531.969-.36.234-.875.234-1.11.234v-2.344c0-.172 0-.219-.187-.219-.703 0-1.547.391-1.547 1.516 0 .984.813 1.766 1.797 1.766 1.031 0 1.828-.86 1.828-1.875 0-1-.844-1.407-1.031-1.407m-1.078.547v2.016c-1.11-.078-1.297-.75-1.297-1.047 0-.937 1.125-.969 1.297-.969m0 0"/><path id="F" d="M0-7.36h-.266v.173c0 .625-.078.64-.375.64h-4.156c-.297 0-.375-.016-.375-.64v-.172h-.266v1.343c0 .22.016.235.157.297L-.75-3.875l-4.516 1.844c-.156.078-.171.078-.171.297v1.343h.265v-.171c0-.61.078-.625.375-.625h3.938c.218 0 .593 0 .593.796H0c-.031-.359-.031-.734-.031-.937s0-.578.031-.938h-.266c0 .797-.375.797-.593.797h-4.235l4.907-2.015c.093-.047.187-.079.187-.188 0-.11-.094-.14-.187-.187l-4.97-2.032H-.64c.297 0 .375.016.375.625v.172H0l-.031-1.125Zm0 0"/><path id="G" d="M-.719-4.094h-.437v.25h.437c.328 0 .453.11.453.281 0 .297-.359.297-.453.297h-1.656c-.781 0-1.172.75-1.172 1.485 0 .656.25 1.25.781 1.25a.36.36 0 0 0 .375-.375.36.36 0 0 0-.375-.375.356.356 0 0 0-.359.297c-.203-.297-.203-.735-.203-.782 0-.453.312-.89.969-.89h.234c.031.453.047.984.281 1.547.313.703.766.843 1.032.843.687 0 .89-.812.89-1.359a1.23 1.23 0 0 0-.64-1.11c.296-.046.609-.25.609-.609 0-.078-.031-.75-.766-.75m-.406 1.438c.781 0 .984.64.984.969 0 .406-.28.765-.671.765-.516 0-1.063-.5-1.094-1.734Zm0 0"/><path id="H" d="M-3.016-3.062c-.28 0-.5.25-.5.609 0 .515.391.875.844 1.031v.016h-.844l.094 1.125h.266c0-.547.047-.61.437-.61h2.094c.36 0 .36.11.36.61H0c-.031-.313-.031-.75-.031-.938 0-.468 0-.484.031-1h-.266v.156c0 .579-.078.594-.375.594h-1.171c-.61 0-1.47-.25-1.485-1.015.031.046.094.14.281.14.25 0 .36-.203.36-.36 0-.187-.125-.358-.36-.358m0 0"/><path id="I" d="M0-2.078h-.266c0 .531-.03.562-.343.562h-2.907l.094 1.157h.266c0-.516.047-.578.437-.578h2.094c.36 0 .36.093.36.609H0c-.031-.313-.031-.766-.031-.89 0-.095 0-.579.031-.86m-4.797.453a.453.453 0 0 0-.453.453.45.45 0 0 0 .453.438.437.437 0 0 0 .438-.438.45.45 0 0 0-.438-.453m0 0"/><path id="J" d="M0-2.734h-.266v.187c0 .64-.078.656-.375.656h-4.156c-.297 0-.375-.015-.375-.656v-.187h-.266l.016 1.218-.016 1.204h.266V-.5c0-.625.078-.656.375-.656H-.64c.297 0 .375.031.375.656v.188H0l-.031-1.204Zm0 0"/><path id="K" d="M-1.719-4.422c-1 0-1.797.813-1.797 1.781 0 .313.079.766.5 1.172h-.5l.094 1.188h.266c0-.563.047-.61.375-.61H.922c.36 0 .36.11.36.61h.265c-.031-.344-.031-.688-.031-.906 0-.235 0-.563.03-.907h-.265c0 .516 0 .61-.36.61H-.39a1.37 1.37 0 0 0 .47-1.047c0-1-.782-1.89-1.798-1.89m0 .719c.907 0 1.578.578 1.578 1.219 0 .28-.125.64-.515.906-.14.094-.156.094-.297.094h-1.703a1.3 1.3 0 0 1-.61-1.094c0-.61.672-1.125 1.547-1.125m0 0"/><path id="L" d="M-.437-1.625a.453.453 0 0 0-.454.453c0 .266.22.438.438.438A.44.44 0 0 0 0-1.172a.45.45 0 0 0-.437-.453m0 0"/><path id="M" d="M-1.422-3.797v.25c.156.016.547.078.703.172.063.047.063.656.063.781v1.422l-.969-1.078a9 9 0 0 1-.5-.594c-.453-.484-.89-.953-1.61-.953-.953 0-1.562.797-1.562 1.781 0 .97.719 1.594 1.438 1.594.39 0 .437-.312.437-.422 0-.172-.11-.422-.422-.422-.406 0-.406.407-.406.5-.594-.234-.781-.765-.781-1.156 0-.734.625-1.125 1.297-1.125.828 0 1.437.578 2.39 1.531l1.047 1c.078.094.094.094.297.094v-3.14Zm0 0"/><path id="N" d="M-2.547-3.89c-.844 0-1.36.078-1.875.343-.703.344-.875 1-.875 1.438 0 1 .75 1.375.969 1.484.578.281 1.375.297 1.781.297.531 0 1.328-.016 1.969-.406.594-.36.75-.953.75-1.375 0-.391-.125-1.063-.906-1.47-.578-.296-1.297-.312-1.813-.312m-.094.703c.47 0 1.188 0 1.641.093.828.172.938.719.938.985 0 .265-.125.812-.954.984-.453.094-1.203.094-1.625.094-.546 0-1.109 0-1.546-.094-.813-.172-.891-.781-.891-.984 0-.266.14-.828.86-.985.437-.094 1.046-.094 1.577-.094m0 0"/><path id="O" d="M0 6.047h.266v-.14c0-.5.062-.579.328-.673l4.922-1.859c.109-.047.172-.062.172-.203 0-.14-.063-.172-.172-.203L.828 1.188C.61 1.109.266.938.266.28H0c.031.266.031.688.031.828 0 .25 0 .5-.031.875h.266c0-.343.172-.546.39-.546a.4.4 0 0 1 .172.03l1 .376v2.172l-1.187.453C.547 4.5.5 4.5.5 4.5c-.234 0-.234-.406-.234-.64H0L.031 5c0 .438 0 .594-.031 1.047m2.094-2.14v-1.97l2.594 1Zm0 0"/><path id="P" d="M3.172 4.281h.265c-.03-.265-.03-.281-.03-.61 0-.077 0-.452.03-.702h-.265c-.016.281-.188.36-.328.36a.4.4 0 0 1-.188-.048l-2.015-.86 2.172-.952c.093-.047.156-.047.156-.047.203 0 .203.297.203.422h.265c-.03-.344-.03-.719-.03-.86 0-.171 0-.546.03-.812h-.265c0 .484-.047.531-.313.656L.094 2.016c-.125.062-.172.109-.172.218 0 .11.062.172.156.204L2.61 3.53c.454.188.547.469.563.75m0 0"/><path id="Q" d="M.953 3.516a.12.12 0 0 0 .11-.125c0-.094-.047-.11-.094-.125a1.14 1.14 0 0 1-.797-1.11c0-.36.156-.734.531-.969.36-.234.875-.234 1.11-.234v2.344c0 .172 0 .219.187.219.703 0 1.547-.391 1.547-1.516 0-.984-.813-1.766-1.797-1.766-1.031 0-1.828.86-1.828 1.875 0 1 .844 1.407 1.031 1.407m1.078-.547V.953c1.11.078 1.297.75 1.297 1.047 0 .938-1.125.969-1.297.969m0 0"/><path id="R" d="M0 7.36h.266v-.173c0-.625.078-.64.375-.64h4.156c.297 0 .375.016.375.64v.172h.266V6.016c0-.22-.016-.235-.157-.297L.75 3.875l4.516-1.844c.156-.078.172-.078.172-.297V.391h-.266v.172c0 .609-.078.625-.375.625H.859c-.218 0-.593 0-.593-.797H0c.031.359.031.734.031.937s0 .578-.031.938h.266c0-.797.375-.797.593-.797h4.235L.188 3.484C.094 3.531 0 3.563 0 3.672c0 .11.094.14.188.187l4.968 2.032H.641c-.297 0-.375-.016-.375-.625v-.172H0l.031 1.125Zm0 0"/><path id="S" d="M.719 4.094h.437v-.25H.72c-.328 0-.453-.11-.453-.281 0-.297.359-.297.453-.297h1.656c.781 0 1.172-.75 1.172-1.485 0-.656-.25-1.25-.781-1.25a.36.36 0 0 0-.375.375c0 .219.156.375.375.375a.356.356 0 0 0 .359-.297c.203.297.203.735.203.782 0 .453-.312.89-.969.89h-.234c-.031-.453-.047-.984-.281-1.547C1.53.406 1.078.266.813.266c-.688 0-.891.812-.891 1.359 0 .578.328.938.64 1.11-.296.046-.609.25-.609.609 0 .078.031.75.766.75m.406-1.438c-.781 0-.984-.64-.984-.969 0-.406.28-.765.672-.765.515 0 1.062.5 1.093 1.734Zm0 0"/><path id="T" d="M3.016 3.063c.28 0 .5-.25.5-.61 0-.515-.391-.875-.844-1.031v-.016h.844L3.422.281h-.266c0 .547-.047.61-.437.61H.625C.265.89.265.78.265.28H0c.031.313.031.75.031.938 0 .468 0 .484-.031 1h.266v-.156c0-.579.078-.594.375-.594h1.172c.609 0 1.468.25 1.484 1.015-.031-.046-.094-.14-.281-.14-.25 0-.36.203-.36.36 0 .187.125.358.36.358m0 0"/><path id="U" d="M0 2.078h.266c0-.531.03-.562.343-.562h2.907L3.422.359h-.266c0 .516-.047.579-.437.579H.625c-.36 0-.36-.094-.36-.61H0c.031.313.031.766.031.89 0 .095 0 .579-.031.86m5.25.156c.172 0 .313-.171.313-.312 0-.031 0-.14-.125-.25L4.218.656l-.171.172.937 1.25c.063.078.125.156.266.156m0 0"/><path id="V" d="M0 2.734h.266v-.187c0-.64.078-.656.375-.656h4.156c.297 0 .375.015.375.656v.187h.266l-.016-1.218.016-1.203h-.266V.5c0 .625-.078.656-.375.656H.64C.344 1.156.266 1.125.266.5V.313H0l.031 1.203Zm0 0"/><path id="W" d="M1.719 4.422c1 0 1.797-.813 1.797-1.781 0-.313-.079-.766-.5-1.172h.5L3.422.28h-.266c0 .563-.047.61-.375.61H-.922c-.36 0-.36-.11-.36-.61h-.265c.031.344.031.688.031.907 0 .234 0 .562-.03.906h.265c0-.516 0-.61.36-.61H.39a1.37 1.37 0 0 0-.47 1.047c0 1 .782 1.89 1.798 1.89m0-.719C.812 3.703.14 3.125.14 2.484c0-.28.125-.64.515-.906.14-.094.156-.094.297-.094h1.703c.313.188.61.594.61 1.094 0 .61-.672 1.125-1.547 1.125m0 0"/><path id="X" d="M.438 1.625a.453.453 0 0 0 .453-.453.436.436 0 0 0-.438-.438.44.44 0 0 0-.453.438.45.45 0 0 0 .438.453m0 0"/><path id="Y" d="M1.422 3.797v-.25c-.156-.016-.547-.078-.703-.172-.063-.047-.063-.656-.063-.781V1.172l.969 1.078c.125.125.39.453.5.594.453.484.89.953 1.61.953.953 0 1.562-.797 1.562-1.781 0-.97-.719-1.594-1.438-1.594-.39 0-.437.312-.437.422 0 .172.11.422.422.422.406 0 .406-.407.406-.5.594.234.781.765.781 1.156 0 .734-.625 1.125-1.297 1.125-.828 0-1.437-.578-2.39-1.531l-1.047-1C.219.422.203.422 0 .422v3.14Zm0 0"/><path id="Z" d="M9.953 0v-.516h-.312c-.657 0-.703-.062-.813-.218L5.61-5.047l2.844-2.406c.156-.14.266-.234 1.328-.234v-.516L8.5-8.172c-.36 0-1.297 0-1.594-.031v.515c.266 0 .547.016.86.141l-4.47 3.813v-3.953h1.267v-.516c-.344.031-1.625.031-2.047.031-.438 0-1.72 0-2.063-.031v.515H1.72v7.172H.453V0c.344-.031 1.625-.031 2.063-.031.422 0 1.703 0 2.047.031v-.516H3.297v-2.562L4.53-4.125l2.5 3.344c.016.031.063.094.063.14 0 .125-.578.125-.844.125V0c.39-.031 1.5-.031 1.953-.031.36 0 1.485 0 1.75.031m0 0"/><path id="aL" d="M13.61-7.687v-.516l-1.297.031c-.344 0-1.22 0-1.5-.031v.515c.14 0 1.187 0 1.187.172 0 0 0 .032-.047.141L9.938-2.047l-2.126-5.64h1.125v-.516c-.374.031-1.484.031-1.937.031-.375 0-1.531 0-1.828-.031v.515h1.016l.484 1.297-1.64 4.344-2.126-5.64h1.125v-.516c-.343.031-1.515.031-1.953.031-.375 0-1.515 0-1.812-.031v.515h1L4.109-.171c.079.203.11.281.375.281.266 0 .297-.078.375-.28l2.079-5.5 2.093 5.5c.063.202.094.28.36.28.234 0 .297-.046.375-.28L12.5-7.407c.094-.203.11-.282 1.11-.282m0 0"/><path id="bQ" d="M6.031-2.406c0-1.453-.984-2.5-2.625-2.5-.484 0-1.047.093-1.562.484v-1.781c.406.094.718.094.906.094.281 0 .969 0 1.766-.485.375-.234 1-.765 1-1.047 0-.062 0-.203-.157-.203 0 0-.03 0-.14.063-.563.187-1.14.328-1.813.328-.687 0-1.25-.14-1.812-.344-.094-.016-.125-.047-.157-.047-.14 0-.14.125-.14.328v3.47c0 .234 0 .359.234.359.125 0 .14 0 .235-.126.14-.171.578-.687 1.593-.687 1.094 0 1.094 1.125 1.094 2.063 0 .859 0 2.109-1.469 2.109-.437 0-1.187-.172-1.593-.86.625 0 .78-.468.78-.734a.72.72 0 0 0-.75-.75c-.359 0-.75.203-.75.766C.672-.86 1.61.14 3.032.14c1.844 0 3-1.063 3-2.547m0 0"/><path id="bR" d="M5.766 0v-.516H4.14V-7.5c0-.344-.032-.344-.407-.344-.89.766-2.218.766-2.484.766h-.219v.516h.219c.422 0 1.063-.079 1.531-.235v6.281H1.125V0l2.313-.031Zm0 0"/><path id="aa" d="M7.266-6.625c.109-.437.125-.844-.125-1.156-.328-.453-.953-.547-1.578-.547-.938 0-1.922.25-2.75.922-.547.406-.954.922-1.282 1.484A8 8 0 0 0 .688-3.75C.53-3.14.438-2.516.484-1.953c.047.5.157.953.438 1.312.39.532 1.047.813 1.797.813.812 0 1.719-.203 2.437-.781.235-.188.422-.422.578-.641l-.406-.562-.156.078c-.156.359-.36.734-.688 1-.406.312-.906.5-1.359.5-.531 0-.969-.25-1.234-.61-.282-.375-.407-.86-.438-1.344-.062-.593.031-1.234.188-1.859.172-.687.39-1.36.75-2.016.25-.468.578-.906 1.03-1.265a2.96 2.96 0 0 1 1.845-.625c.406 0 .812.11 1.03.406.22.297.204.656.11 1.063-.11.422-.312.875-.687 1.187-.297.234-.625.39-.969.39-.14 0-.328 0-.422-.124-.11-.14-.047-.36.047-.547.078-.172.156-.36.078-.5-.078-.094-.203-.125-.344-.125s-.296.016-.421.125a.8.8 0 0 0-.235.437c-.062.266-.047.516.094.688.25.328.703.406 1.156.406.531 0 1.125-.172 1.594-.562.5-.407.828-.953.969-1.516m0 0"/><path id="ab" d="M6.828-7.234c.063-.282.016-.578-.125-.75-.234-.328-.672-.407-1.125-.407-.719 0-1.406.094-2.062.625-.438.344-.766.829-.891 1.313-.11.469-.11.937.14 1.266.172.25.47.421.782.53l-.031.126a3.46 3.46 0 0 0-1.766.734C1.172-3.328.734-2.719.563-2.062.438-1.532.438-.984.734-.61c.204.265.516.437.829.562.406.14.859.188 1.328.188.89 0 1.797-.328 2.578-.953.11-.079.265-.297.39-.454l-.39-.578-.157.032c-.125.343-.312.656-.593.875-.469.375-1 .656-1.532.656-.562 0-1.14-.094-1.437-.5-.297-.39-.312-.922-.187-1.469.14-.547.453-1.062.921-1.437.344-.266.782-.407 1.157-.5.562-.125 1.109-.157 1.672-.157l.062-.312c-.406 0-.797-.032-1.172-.14-.25-.063-.5-.173-.656-.391-.219-.282-.266-.704-.172-1.125.14-.516.453-1.032.89-1.391.298-.25.688-.313 1.032-.313.281 0 .469.063.61.204a.5.5 0 0 1 .109.468c-.047.203-.157.328-.266.453-.078.094-.14.172-.187.282a.36.36 0 0 0 .03.234c.079.094.126.094.266.094s.422-.078.625-.266c.22-.234.282-.437.344-.687m0 0"/><path id="ae" d="m10.344-8.156-.172-.11-.375.422c-.14.14-.36.266-.563.266-.078 0-.25-.031-.359-.047a18 18 0 0 1-1.687-.36l.078-.327-.063-.047-.672.297a10 10 0 0 0-.718-.047c-.954 0-1.813.187-2.657.859-.531.438-1.015 1-1.172 1.61-.046.202-.078.406.032.546.093.094.172.172.328.172.125 0 .265-.094.375-.172a.63.63 0 0 0 .219-.36c.03-.124.015-.296.015-.421.016-.172.016-.312.078-.469.047-.187.375-.61.656-.843.563-.438 1.126-.563 1.72-.563a4.5 4.5 0 0 1 .921.094l-.86 3.172H3.704l-.25.343h1.938l-.282 1.047c-.125.422-.25.844-.484 1.25a3 3 0 0 1-.687.875c-.407.375-.97.672-1.47.672-.312 0-.609-.078-.78-.312a1.1 1.1 0 0 1-.188-.407c-.094-.437-.14-.453-.312-.453a.73.73 0 0 0-.438.14c-.125.11-.203.204-.234.345-.063.25-.032.5.125.672.234.328.609.484 1.062.484.969 0 2.031-.39 2.844-1.094.437-.375.672-.687.906-1.094.281-.5.469-1.015.61-1.546l.14-.579h1.469l.344-.343H6.28l.766-2.97c.156.063.937.329 1.422.47.156.062.344.109.5.109.25 0 .531-.219.703-.422Zm0 0"/><path id="ac" d="M7.406 0 4.391-8.297H3.328L.328 0h.875l.875-2.422h3.375L6.328 0ZM5.203-3.094h-2.86l1.423-4.344Zm0 0"/><path id="ad" d="M5.172-5.312h-.89c-.641 1.78-.282.75-.876 2.39-.203.563-.64 1.828-.719 2.281h-.015c-.047-.421-.297-1.078-.469-1.593l-1.11-3.078H.173L2.14 0h1.062Zm0 0"/><path id="af" d="M4.86-2.687c0-.516-.048-1.25-.423-1.876-.5-.828-1.328-.921-1.671-.921C1.469-5.484.39-4.25.39-2.687.39-1.11 1.547.124 2.92.124c.563 0 1.22-.156 1.876-.64 0-.047-.047-.438-.047-.438s-.031-.281-.031-.328c-.703.593-1.407.687-1.766.687-.922 0-1.703-.828-1.734-2.093Zm-.704-.641h-2.86c.204-.813.767-1.438 1.47-1.438.359 0 1.187.157 1.39 1.438m0 0"/><path id="ag" d="M9.016 0v-8.297h-1.36L6.281-4.609c-.61 1.672-1.078 2.922-1.203 3.468h-.016c-.03-.203-.187-.64-.343-1.109-.219-.64-.219-.672-.407-1.156L2.5-8.296H1.14V0h.923v-7.375c.171.813 2.109 5.922 2.562 7.125H5.5c.39-1.031 2.36-6.234 2.578-7.14h.016V0Zm0 0"/><path id="ah" d="M4.797 0v-3.5c0-1.156-.828-1.984-1.938-1.984-.718 0-1.25.172-1.843.5l.078.78c.515-.374 1.062-.593 1.765-.593.547 0 1.032.453 1.032 1.313v.5c-.547.015-1.266.062-1.985.297C1.11-2.422.641-1.97.641-1.375c0 .531.312 1.5 1.328 1.5.656 0 1.5-.203 1.937-.562V0ZM3.89-1.61c0 .25 0 .532-.407.766-.312.203-.718.25-.906.25-.64 0-1.078-.343-1.078-.797 0-.812 1.656-.984 2.39-.984Zm0 0"/><path id="ai" d="M3.797-4.625v-.797c-1.078 0-1.719.64-2.047 1.11V-5.36H.938V0h.875v-2.625c0-1.203.906-1.984 1.984-2m0 0"/><path id="aj" d="M1.813 0v-5.312H.938V0Zm.078-6.797v-1.016H.859v1.016Zm0 0"/><path id="ak" d="M2.11-.016v-.953h-.97V0h.298L1.14 1.5h.468Zm0 0"/><path id="al" d="M5.563-2.672c0-1.437-.75-2.75-1.875-2.75-.485 0-1.25.156-1.876.672v-.562H.939v7.625h.906V-.531c.406.36.906.656 1.547.656 1.156 0 2.172-1.172 2.172-2.797m-.907.016c0 1.203-.812 2.062-1.703 2.062-.328 0-.562-.125-.781-.297-.297-.25-.328-.468-.328-.656v-2.469a1.47 1.47 0 0 1 1.219-.671c.874 0 1.593.89 1.593 2.03m0 0"/><path id="am" d="m3.688-5.36-.485-.515-.828.719v-3.14H1.5v3.874L.328-3.375l.453.547.719-.656V0h.875v-4.234Zm0 0"/><path id="an" d="M5.063 0v-3.594c0-.734-.157-1.828-1.594-1.828-.672 0-1.25.297-1.703.875v-.812H.922V0h.906v-2.969c0-.75.281-1.734 1.188-1.734 1.109 0 1.14.766 1.14 1.187V0Zm0 0"/><path id="ao" d="M4.203-1.516c0-.609-.36-1-.406-1.046-.453-.47-.813-.532-1.531-.672-.438-.094-1.047-.203-1.047-.813 0-.734.843-.734 1-.734.625 0 1.125.14 1.656.437l.14-.765a3.9 3.9 0 0 0-1.687-.375c-.265 0-1.937 0-1.937 1.547 0 .53.297.89.468 1.062.438.36.735.422 1.438.563.39.093 1.078.234 1.078.859 0 .828-.922.828-1.094.828A3.12 3.12 0 0 1 .47-1.219l-.14.813c.046.031.859.531 1.968.531 1.547 0 1.906-.937 1.906-1.64m0 0"/><path id="ap" d="M5.469 0 3.25-3.266l1.969-2.046h-1.11L1.813-2.906v-5.39H.938V0h.828v-1.719l.906-.953L4.5 0Zm0 0"/><path id="aq" d="M6.797-5.875c0-1.266-1.172-2.422-2.797-2.422H1.094V0h1.015v-3.453H4c1.656 0 2.797-1.188 2.797-2.422m-.953-.016c0 .938-.735 1.75-2.094 1.75H2.094v-3.484H3.75c1.406 0 2.094.828 2.094 1.734m0 0"/><path id="ar" d="M2.14.703v-6.015h-.89v6.14c0 .781-.625.86-.875.86-.531 0-.86-.344-.875-.375l-.234.718c.375.235.859.406 1.406.406.75 0 1.469-.624 1.469-1.734m0-7.5v-1.016H1.11v1.016Zm0 0"/><path id="as" d="m3.89-.344-.171-.703c-.422.375-.86.422-1.078.422-.532 0-.594-.562-.594-.984v-3h1.64v-.703h-1.64v-1.516h-.828v1.516h-1v.703h.969v3.203c0 .703.156 1.531.984 1.531.797 0 1.36-.281 1.719-.469m0 0"/><path id="at" d="M4.703 0v-.734H2.984c-.14 0-.28.015-.421.015H1.547l3.11-4.125v-.468H.483v.703h2.953L.329-.484V0Zm0 0"/><path id="au" d="M7.547-7.484v-.75H.422v.75H2c.14 0 .281-.016.422-.016h1.062V0H4.5v-7.5h1.063c.14 0 .28.016.421.016Zm0 0"/><path id="av" d="M5.484-2.625c0-1.625-1.187-2.86-2.562-2.86-1.406 0-2.563 1.266-2.563 2.86 0 1.563 1.188 2.75 2.563 2.75 1.406 0 2.562-1.219 2.562-2.75m-.906-.125c0 1.469-.844 2.125-1.656 2.125-.86 0-1.656-.719-1.656-2.125 0-1.453.89-2.016 1.656-2.016.812 0 1.656.625 1.656 2.016m0 0"/><path id="aw" d="M5.563-2.672c0-1.469-.782-2.75-1.891-2.75-.344 0-1.11.063-1.86.672v-3.547H.939V0h.906v-.531c.547.515 1.125.656 1.547.656 1.14 0 2.172-1.172 2.172-2.797m-.907 0c0 1.563-.968 2.078-1.703 2.078-.328 0-.562-.125-.781-.297-.281-.25-.328-.453-.328-.656V-4.03c.218-.328.64-.672 1.234-.672.719 0 1.578.547 1.578 2.031m0 0"/><path id="ax" d="m5.219 2.234-.157-.703c-.265.11-.546.172-.812.172-.328-.031-.61-.094-.625-.453C3.609.719 4.109.313 4.656 0h.14v-3.5c0-1.156-.827-1.984-1.937-1.984-.718 0-1.25.172-1.843.5l.078.78c.515-.374 1.062-.593 1.765-.593.547 0 1.032.453 1.032 1.313v.5c-.547.015-1.266.062-1.985.297C1.11-2.422.641-1.97.641-1.375c0 .531.312 1.5 1.328 1.5.656 0 1.5-.203 1.937-.562V0c-.594.328-1.078.906-1.031 1.516 0 .515.375 1.015 1.172 1.015.406 0 .703-.062 1.172-.297M3.89-1.609c0 .25 0 .53-.407.765-.312.203-.718.25-.906.25-.64 0-1.078-.343-1.078-.797 0-.812 1.656-.984 2.39-.984Zm0 0"/><path id="ay" d="M2.344-8.297h-.969l.094 6.235h.781Zm0 8.297v-.969h-.969V0Zm0 0"/><path id="az" d="M7.11-2.25c0-1.047-1.032-1.89-2.266-2.094 1.39-.375 1.937-1.172 1.937-1.875 0-1.078-1.218-2.078-2.906-2.078H1.109V0h3.094C5.875 0 7.11-1.078 7.11-2.25M5.86-6.203c0 .844-1.032 1.531-2.298 1.531H2.079v-2.953h1.469c1.281 0 2.312.625 2.312 1.422m.312 3.937c0 .844-.969 1.594-2.313 1.594H2.08v-3.281h1.593c1.547 0 2.5.86 2.5 1.687m0 0"/><path id="aA" d="m5.672-4.703-.125-.719c-.234 0-1.047 0-1.828.39-.39-.327-.875-.39-1.11-.39-1.046 0-1.875.875-1.875 1.922 0 .422.125.828.391 1.188a1.64 1.64 0 0 0-.344 1.015c0 .453.156.75.297.906C.468 0 .328.516.328.844c0 .875 1.125 1.61 2.594 1.61 1.453 0 2.594-.704 2.594-1.61 0-1.688-1.938-1.688-2.422-1.688H2.078c-.172 0-.672 0-.672-.625 0-.265.047-.343.11-.437.203.14.593.343 1.078.343 1.031 0 1.875-.859 1.875-1.937a2.13 2.13 0 0 0-.36-1.156 7 7 0 0 1 .954-.063c.046 0 .312 0 .609.016M3.64-3.5c0 1.063-.672 1.281-1.032 1.281-.53 0-1.062-.36-1.062-1.265 0-1.063.672-1.282 1.047-1.282.531 0 1.047.36 1.047 1.266M4.688.844c0 .562-.829.953-1.766.953-.922 0-1.766-.375-1.766-.953 0-.047 0-.813.907-.813h1.046c.266 0 1.579 0 1.579.813m0 0"/><path id="aB" d="M7.766-5.312H6.89l-.703 2.437c-.172.563-.516 1.688-.563 2.203-.047-.281-.234-1.078-.484-1.937l-.797-2.703H3.53L2.844-2.97c-.219.75-.5 1.781-.531 2.282h-.016c-.016-.235-.14-.86-.375-1.672l-.844-2.953H.172L1.766 0h.922c.453-1.5 1.156-3.781 1.218-4.61h.016c.015.485.265 1.344.344 1.626L5.109 0h1.063Zm0 0"/><path id="aC" d="M4.203-1.516c0-.609-.36-1-.406-1.046-.453-.47-.813-.532-1.531-.672-.438-.094-1.047-.203-1.047-.813 0-.734.843-.734 1-.734.625 0 1.125.14 1.656.437l.14-.765a3.9 3.9 0 0 0-1.687-.375c-.265 0-1.937 0-1.937 1.547 0 .53.297.89.468 1.062.438.36.735.422 1.438.563.39.093 1.078.234 1.078.859 0 .828-.922.828-1.094.828A3.12 3.12 0 0 1 .47-1.219l-.14.813c.046.031.859.531 1.968.531 1.547 0 1.906-.937 1.906-1.64m-.312-6.78h-.922l-1.547 2h.719Zm0 0"/><path id="aD" d="M8.328 0v-3.594c0-.828-.219-1.828-1.61-1.828-1.015 0-1.577.703-1.765.969-.203-.766-.86-.969-1.484-.969-.985 0-1.5.625-1.703.875v-.812H.922V0h.906v-2.969c0-.797.313-1.734 1.188-1.734 1.093 0 1.156.75 1.156 1.187V0h.906v-2.969c0-.797.313-1.734 1.188-1.734 1.093 0 1.156.75 1.156 1.187V0Zm0 0"/><path id="aE" d="M4.86-2.687c0-.516-.048-1.25-.423-1.876-.5-.828-1.328-.921-1.671-.921C1.469-5.484.39-4.25.39-2.687.39-1.141 1.5.078 2.844.124c-.531.344-.875.828-.828 1.39 0 .516.375 1.016 1.172 1.016.39 0 .703-.062 1.171-.297l-.156-.703c-.266.11-.547.172-.812.172-.328-.031-.625-.094-.625-.453-.016-.531.5-.969 1.047-1.281.328-.094.64-.25.984-.485 0-.046-.047-.437-.047-.437s-.031-.281-.031-.328c-.703.593-1.407.687-1.766.687-.922 0-1.703-.828-1.734-2.093Zm-.704-.641h-2.86c.204-.813.767-1.438 1.47-1.438.359 0 1.187.157 1.39 1.438m0 0"/><path id="aF" d="M5.063 0v-8.297h-.891v3.485a2.65 2.65 0 0 0-1.688-.61c-1.14 0-2.062 1.219-2.062 2.766S1.297.125 2.437.125c.438 0 1.11-.156 1.704-.734V0ZM4.14-1.406c-.282.515-.703.812-1.22.812-.733 0-1.593-.562-1.593-2.047 0-1.593 1.016-2.062 1.703-2.062.469 0 .86.234 1.11.625Zm0 0"/><path id="aG" d="M5.172-5.312h-.89c-.548 1.421-1.47 3.765-1.516 4.625H2.75c-.062-.72-.687-2.282-.797-2.532L1.11-5.312H.172L2.39 0l-.422 1.094c-.266.593-.438.656-.657.656-.171 0-.546-.047-.921-.187l.078.78c.062.016.469.095.844.095.296 0 .843 0 1.359-1.313Zm0 0"/><path id="aI" d="M4.86-.5c0-.031-.032-.406-.048-.453l-.015-.344a2.8 2.8 0 0 1-1.828.672c-1 0-1.64-.875-1.64-2.047 0-.984.484-2.078 1.671-2.078.797 0 1.14.203 1.656.547l.14-.781c-.702-.407-1.093-.5-1.796-.5-1.656 0-2.578 1.453-2.578 2.812C.422-1.14 1.516.125 2.953.125c.578 0 1.25-.156 1.906-.625m0 0"/><path id="aJ" d="M4.531-1.766v-6.53h-1v6.483c0 .688-.344 1.329-1.39 1.329a1.96 1.96 0 0 1-1.485-.657L.484-.25c.704.36 1.375.5 2 .5 1.25 0 2.047-.734 2.047-2.016m0 0"/><path id="aK" d="M5.063 0v-5.312h-.907v3.421c0 .907-.625 1.36-1.406 1.36-.844 0-.922-.313-.922-.844v-3.937H.922v3.984c0 .86.265 1.453 1.25 1.453.344 0 1.281-.062 2.015-.719V0Zm0 0"/><path id="aM" d="M5.844-2.266c0-.765-.375-1.328-.625-1.625-.563-.593-1-.718-1.797-.921-.813-.204-1.11-.266-1.375-.516-.156-.172-.485-.469-.485-1 0-.734.657-1.438 1.72-1.438 1.015 0 1.546.391 1.984.766l.172-.953c-.485-.266-1.094-.594-2.157-.594-1.594 0-2.64 1.14-2.64 2.344 0 .844.515 1.39.578 1.453.593.61 1 .703 1.75.906 1.031.25 1.187.297 1.578.688.203.219.375.594.375 1.015 0 .829-.672 1.594-1.703 1.594a3.75 3.75 0 0 1-2.516-1l-.172.969A4.9 4.9 0 0 0 3.22.25C4.75.25 5.844-.937 5.844-2.266m-.328-8.093H4.203L2.11-8.906h1.063Zm0 0"/><path id="aN" d="M5.484-2.625c0-1.625-1.187-2.86-2.562-2.86-1.406 0-2.563 1.266-2.563 2.86 0 1.563 1.188 2.75 2.563 2.75 1.406 0 2.562-1.219 2.562-2.75m-.906-.125c0 1.469-.844 2.125-1.656 2.125-.86 0-1.656-.719-1.656-2.125 0-1.453.89-2.016 1.656-2.016.812 0 1.656.625 1.656 2.016m-.016-5.547h-.906l-1.547 2h.72Zm0 0"/><path id="aO" d="M1.813 0v-8.297H.938V0Zm0 0"/><path id="aH" d="M3.453-1.14c.063-.141.016-.282-.11-.344l-1.155-.5L3.343-2.5c.125-.062.172-.203.11-.344a.25.25 0 0 0-.345-.062l-1.015.75.125-1.266a.237.237 0 0 0-.235-.265c-.14 0-.234.14-.218.265l.125 1.266-1.016-.75a.25.25 0 0 0-.344.062c-.062.14-.015.281.11.344l1.156.516-1.156.5c-.125.062-.172.203-.11.343a.25.25 0 0 0 .344.063l1.016-.75-.125 1.266a.22.22 0 0 0 .218.25c.157 0 .25-.125.235-.25l-.125-1.266 1.015.75a.25.25 0 0 0 .344-.063m0 0"/><path id="bn" d="M7.516-1.984c0-.063-.032-.094-.079-.11-.453-.156-.796-.469-1.093-.828a2.4 2.4 0 0 1-.453-1.015.15.15 0 0 0-.157-.126c-.093 0-.171.063-.171.157 0 .015.015.031.015.031a2.7 2.7 0 0 0 1.14 1.719H.626c-.094 0-.156.078-.156.172 0 .078.062.156.156.156h6.094A2.697 2.697 0 0 0 5.579-.11s-.016.015-.016.03c0 .095.078.157.171.157.079 0 .141-.047.157-.125.062-.375.234-.719.453-1.016.297-.359.64-.671 1.093-.828.047-.015.079-.046.079-.093m0 0"/><path id="aP" d="M2.594-.86c.047-.093.015-.218-.094-.25l-.86-.39.86-.375a.176.176 0 0 0 .094-.25c-.063-.094-.172-.125-.266-.062l-.765.562.109-.937a.173.173 0 0 0-.172-.204.173.173 0 0 0-.172.204l.094.937-.766-.562c-.078-.063-.203-.032-.25.062-.062.094-.015.203.078.25l.875.375-.875.39c-.093.032-.14.157-.078.25.047.094.172.11.25.047l.766-.562-.094.953c-.016.094.063.188.172.188.11 0 .188-.094.172-.188l-.11-.953.766.563c.094.062.203.046.266-.047m0 0"/><path id="aQ" d="M4.734-2.14H4.5C4.438-1.032 4.25-.282 2.75-.282H1.344l3.281-4.844c.063-.11.063-.14.063-.172 0-.14-.079-.14-.22-.14H.689L.594-3.641h.25c.062-1.171.61-1.53 1.656-1.53h1.328L.531-.329C.47-.234.47-.188.47-.156.469 0 .547 0 .688 0h3.906Zm0 0"/><path id="aR" d="M4.094-.719v-.437h-.25v.437c0 .328-.11.453-.281.453-.297 0-.297-.359-.297-.453v-1.656c0-.781-.75-1.172-1.485-1.172-.656 0-1.25.25-1.25.781a.36.36 0 0 0 .375.375.36.36 0 0 0 .375-.375.356.356 0 0 0-.297-.359c.297-.203.735-.203.782-.203.453 0 .89.312.89.969v.234c-.453.031-.984.047-1.547.281-.703.313-.843.766-.843 1.032 0 .687.812.89 1.359.89a1.23 1.23 0 0 0 1.11-.64c.046.296.25.609.609.609.078 0 .75-.031.75-.766m-1.438-.406c0 .781-.64.984-.969.984-.406 0-.765-.28-.765-.671 0-.516.5-1.063 1.734-1.094Zm0 0"/><path id="aS" d="M1.734.016c0-.485-.187-.875-.562-.875a.427.427 0 0 0-.438.437c0 .25.172.453.438.453.219 0 .297-.093.344-.14 0 .78-.282 1.156-.641 1.484-.031.047-.031.078-.031.078 0 .078.062.125.11.125.109 0 .78-.625.78-1.562m1.657 0c0-.485-.188-.875-.563-.875a.44.44 0 0 0-.453.437c0 .25.172.453.453.453.219 0 .281-.093.328-.14 0 .78-.281 1.156-.625 1.484-.047.047-.047.078-.047.078 0 .078.079.125.11.125.11 0 .797-.625.797-1.562m0 0"/><path id="aT" d="M6.828 0v-.266c-.516 0-.61 0-.61-.359v-1.797c0-.64-.28-1.094-1.14-1.094-.734 0-1.11.5-1.234.735-.14-.578-.594-.735-1.11-.735a1.37 1.37 0 0 0-1.25.766v-.766l-1.156.094v.266c.547 0 .61.047.61.437v2.094c0 .36-.094.36-.61.36V0c.344-.031.688-.031.906-.031.235 0 .563 0 .907.031v-.266c-.5 0-.61 0-.61-.359v-1.437c0-.844.64-1.235 1.14-1.235.517 0 .61.406.61.844v1.828c0 .36-.11.36-.61.36V0c.345-.031.688-.031.907-.031.235 0 .563 0 .906.031v-.266c-.515 0-.609 0-.609-.359v-1.437c0-.844.64-1.235 1.14-1.235.516 0 .61.406.61.844v1.828c0 .36-.11.36-.61.36V0c.344-.031.688-.031.907-.031.234 0 .562 0 .906.031m0 0"/><path id="aU" d="M3.063-3.016c0-.28-.25-.5-.61-.5-.515 0-.875.391-1.031.844h-.016v-.844l-1.125.094v.266c.547 0 .61.047.61.437v2.094c0 .36-.11.36-.61.36V0c.313-.031.75-.031.938-.031.468 0 .484 0 1 .031v-.266h-.156c-.579 0-.594-.078-.594-.375v-1.171c0-.61.25-1.47 1.015-1.485-.046.031-.14.094-.14.281 0 .25.203.36.36.36.187 0 .358-.125.358-.36m0 0"/><path id="aV" d="M2.813-1v-.437h-.25v.421c0 .547-.25.844-.547.844-.532 0-.532-.687-.532-.812v-2.188h1.188v-.265H1.484v-1.47h-.25c0 .735-.328 1.485-1.078 1.516v.22h.719V-1c0 .938.719 1.078 1.078 1.078.547 0 .86-.469.86-1.078m0 0"/><path id="aW" d="M5.938-3.172v-.265c-.266.03-.282.03-.625.03-.25 0-.47 0-.72-.03v.265c.345.016.438.219.438.36 0 .109-.031.156-.047.203l-.75 1.984-.828-2.172c-.031-.11-.031-.125-.031-.156 0-.203.25-.219.438-.219v-.265c-.313.03-.735.03-.813.03-.172 0-.5 0-.734-.03v.265c.484 0 .5.047.656.469L2.187-.734l-.796-2.078c0-.032-.032-.11-.032-.141 0-.219.297-.219.438-.219v-.265c-.344.03-.703.03-.844.03-.14 0-.562 0-.781-.03v.265c.39 0 .469.031.562.25L1.797-.109c.047.125.078.187.203.187.14 0 .172-.094.203-.187l.844-2.235.844 2.235c.046.093.078.187.218.187.125 0 .157-.078.188-.172l.969-2.531c.062-.187.203-.531.672-.547m0 0"/><path id="aX" d="M4.281-3.172v-.265c-.265.03-.281.03-.625.03-.031 0-.453 0-.687-.03v.265c.234.016.344.14.344.328 0 .047 0 .11-.047.203L2.422-.719l-.938-2.093c-.046-.11-.046-.126-.046-.157 0-.187.25-.203.421-.203v-.265c-.359.03-.703.03-.875.03-.171 0-.546 0-.812-.03v.265c.422 0 .531.016.672.313L2.094 0C1.734.844 1.5 1.406.938 1.406c-.204 0-.329-.093-.329-.093A.35.35 0 0 0 .86.969.336.336 0 0 0 .516.625c-.172 0-.344.11-.344.36 0 .343.344.64.766.64.718 0 1.093-.86 1.125-.937L3.53-2.625c.203-.453.5-.531.75-.547m0 0"/><path id="aY" d="M3.516-.953c0-.094-.11-.094-.125-.094-.063 0-.094 0-.125.078a1.07 1.07 0 0 1-1.078.797C1.703-.172.984-.547.984-1.734c0-1.141.594-1.578 1.172-1.578.078 0 .5 0 .781.156a.336.336 0 0 0-.265.344c0 .218.156.374.375.374s.375-.14.375-.39c0-.485-.531-.719-1.281-.719-1.11 0-1.86.875-1.86 1.828C.281-.703 1.11.078 2.11.078c1.125 0 1.407-.937 1.407-1.031m0 0"/><path id="aZ" d="M4.484 0v-.266c-.515 0-.609 0-.609-.359v-1.797c0-.656-.312-1.094-1.14-1.094-.704 0-1.063.454-1.22.704v-2.72l-1.187.095v.265c.547 0 .61.047.61.438v4.109c0 .36-.094.36-.61.36V0c.344-.031.688-.031.906-.031.235 0 .563 0 .907.031v-.266c-.5 0-.61 0-.61-.359v-1.437c0-.844.64-1.235 1.125-1.235s.61.344.61.844v1.828c0 .36-.094.36-.61.36V0c.344-.031.703-.031.906-.031.235 0 .579 0 .922.031m0 0"/><path id="ba" d="M3.047-1.031c0-.375-.219-.938-1.172-1.11a10 10 0 0 0-.547-.093c-.25-.063-.625-.235-.625-.547 0-.235.188-.578.938-.578.89 0 .937.656.953.875 0 .062.062.093.11.093.14 0 .14-.062.14-.203v-.75c0-.125 0-.203-.11-.203-.046 0-.062 0-.187.125-.016 0-.094.078-.11.078 0 0-.03 0-.078-.031-.125-.094-.359-.172-.718-.172-1.11 0-1.36.594-1.36.985 0 .39.297.624.313.656.328.234.5.265 1.047.36.375.077.984.187.984.718 0 .312-.203.687-.937.687C.875-.14.64-.766.547-1.187c-.031-.11-.047-.141-.14-.141-.126 0-.126.062-.126.219v.984c0 .125 0 .203.094.203.063 0 .063 0 .203-.156.047-.047.125-.14.172-.188.36.329.734.344.938.344 1.015 0 1.359-.578 1.359-1.11m0 0"/><path id="bb" d="m2.422-3.406-.156-.203-.516.375v-2.297l-1.187.093v.266c.53 0 .593.047.593.438v1.937l-.672.5.157.219.515-.39v1.843c0 .36-.093.36-.593.36V0c.312-.031.75-.031.89-.031.156 0 .594 0 .89.031v-.266c-.5 0-.593 0-.593-.359v-2.281Zm0 0"/><path id="bc" d="M5.281-3.953c0-.781-.843-1.485-1.984-1.485H.359v.266h.188c.61 0 .625.078.625.375V-.64c0 .297-.016.375-.625.375H.359V0l1.172-.031L2.703 0v-.266h-.172c-.61 0-.625-.078-.625-.375v-1.843H3.36c.97 0 1.922-.625 1.922-1.47m-.828 0c0 .344 0 1.234-1.36 1.234H1.876v-2.14c0-.266.016-.313.39-.313h.829c1.36 0 1.36.86 1.36 1.219m0 0"/><path id="bd" d="M4.484 0v-.266c-.515 0-.609 0-.609-.359v-1.797c0-.656-.312-1.094-1.14-1.094a1.38 1.38 0 0 0-1.25.766v-.766l-1.157.094v.266c.547 0 .61.047.61.437v2.094c0 .36-.094.36-.61.36V0c.344-.031.688-.031.906-.031.235 0 .563 0 .907.031v-.266c-.5 0-.61 0-.61-.359v-1.437c0-.844.64-1.235 1.125-1.235s.61.344.61.844v1.828c0 .36-.094.36-.61.36V0c.344-.031.703-.031.906-.031.235 0 .579 0 .922.031m0 0"/><path id="be" d="M3.797-1.422h-.25c-.016.156-.078.547-.172.703-.047.063-.656.063-.781.063H1.172l1.078-.969c.125-.125.453-.39.594-.5.484-.453.953-.89.953-1.61 0-.953-.797-1.562-1.781-1.562-.97 0-1.594.719-1.594 1.438 0 .39.312.437.422.437.172 0 .422-.11.422-.422 0-.406-.407-.406-.5-.406.234-.594.765-.781 1.156-.781.734 0 1.125.625 1.125 1.297 0 .828-.578 1.437-1.531 2.39l-1 1.047C.422-.219.422-.203.422 0h3.14Zm0 0"/><path id="bf" d="M3.89-2.547c0-.844-.078-1.36-.343-1.875-.344-.703-1-.875-1.438-.875-1 0-1.375.75-1.484.969C.344-3.75.328-2.953.328-2.547c0 .531.016 1.328.406 1.969.36.594.954.75 1.375.75.391 0 1.063-.125 1.47-.906.296-.578.312-1.297.312-1.813m-.703-.094c0 .47 0 1.188-.093 1.641-.172.828-.719.938-.985.938-.265 0-.812-.125-.984-.954-.094-.453-.094-1.203-.094-1.625 0-.546 0-1.109.094-1.546.172-.813.781-.891.984-.891.266 0 .829.14.985.86.094.437.094 1.046.094 1.577m0 0"/><path id="bg" d="M3.797-1.594c0-.922-.672-1.75-1.61-1.75-.39 0-.765.125-1.078.406v-1.546c.11.03.422.125.766.125 1 0 1.594-.703 1.594-.828 0-.094-.047-.11-.094-.11 0 0-.031 0-.094.031a3 3 0 0 1-1.11.22c-.468 0-.858-.11-1.108-.22-.079-.03-.11-.03-.11-.03-.094 0-.094.077-.094.234v2.328c0 .14 0 .234.125.234.063 0 .079-.031.125-.094.094-.11.391-.515 1.079-.515.437 0 .656.359.734.515.125.281.14.656.14.953s0 .735-.218 1.079c-.156.25-.485.484-.906.484A1.27 1.27 0 0 1 .734-.922c.016.016.079.016.079.016.218 0 .406-.14.406-.39a.39.39 0 0 0-.39-.407c-.157 0-.407.078-.407.422 0 .718.625 1.453 1.531 1.453 1 0 1.844-.781 1.844-1.766m0 0"/><path id="bh" d="M1.734-4.672c0-.469-.187-.86-.562-.86a.427.427 0 0 0-.438.438c0 .235.172.453.438.453.219 0 .297-.093.344-.14 0 .781-.282 1.14-.641 1.484-.031.031-.031.078-.031.078 0 .078.062.125.11.125.109 0 .78-.64.78-1.578m1.657 0c0-.469-.188-.86-.563-.86a.44.44 0 0 0-.453.438c0 .235.172.453.453.453.219 0 .281-.093.328-.14 0 .781-.281 1.14-.625 1.484-.047.031-.047.078-.047.078 0 .078.079.125.11.125.11 0 .797-.64.797-1.578m0 0"/><path id="bi" d="M1.625-2.984a.443.443 0 0 0-.453-.453A.436.436 0 0 0 .734-3a.44.44 0 0 0 .438.453.45.45 0 0 0 .453-.437m0 2.547a.453.453 0 0 0-.453-.454.436.436 0 0 0-.438.438.44.44 0 0 0 .438.453.45.45 0 0 0 .453-.437m0 0"/><path id="bj" d="M4.422-1.719c0-1-.828-1.797-1.797-1.797-.64 0-1.016.344-1.156.485v-2.5L.28-5.438v.266c.547 0 .61.047.61.438V0h.234l.297-.5a1.32 1.32 0 0 0 1.11.578c1 0 1.89-.781 1.89-1.797m-.719-.015c0 .187 0 .75-.281 1.125-.297.359-.672.468-.922.468-.39 0-.703-.203-.922-.515-.094-.156-.094-.156-.094-.313v-1.547c0-.156 0-.171.125-.312a1.26 1.26 0 0 1 .97-.469c.405 0 .718.25.874.485.14.218.25.5.25 1.078m0 0"/><path id="bk" d="M3.984-1.703c0-.984-.828-1.844-1.875-1.844-1.046 0-1.875.86-1.875 1.844 0 1 .86 1.781 1.875 1.781 1.032 0 1.875-.781 1.875-1.781m-.703-.063c0 .36-.015.797-.25 1.141-.203.313-.562.453-.922.453-.421 0-.765-.203-.937-.484-.203-.328-.219-.719-.219-1.11 0-.312 0-.78.235-1.125.218-.28.546-.437.921-.437.422 0 .766.203.938.469.219.343.234.765.234 1.093m0 0"/><path id="bl" d="M4.11-3.203a.43.43 0 0 0-.454-.406c-.14 0-.531.046-.89.375a1.6 1.6 0 0 0-.891-.282c-.781 0-1.36.547-1.36 1.172 0 .375.204.656.376.813a.934.934 0 0 0 .094 1.36c-.422.108-.75.421-.75.78 0 .579.828 1.032 1.874 1.032 1 0 1.875-.407 1.875-1.047 0-.422-.25-.766-.515-.89-.469-.25-.86-.25-1.64-.25h-.454c-.25-.032-.437-.235-.437-.532 0-.188.046-.266.093-.328.344.187.657.234.844.234.781 0 1.375-.547 1.375-1.172 0-.297-.14-.562-.328-.765.11-.094.375-.266.765-.266-.03.016-.078.063-.078.188 0 .14.11.25.25.25a.25.25 0 0 0 .25-.266m-1.5.86c0 .296-.032.5-.157.656a.7.7 0 0 1-.578.28c-.734 0-.734-.765-.734-.937 0-.297.03-.5.156-.656a.72.72 0 0 1 .578-.281c.734 0 .734.765.734.937M3.515.608c0 .422-.61.797-1.407.797-.796 0-1.406-.375-1.406-.797 0-.171.14-.64.781-.64h.766c.219 0 1.266 0 1.266.64m0 0"/><path id="bm" d="M2.078 0v-.266c-.531 0-.562-.03-.562-.343v-2.907l-1.157.094v.266c.516 0 .579.047.579.437v2.094c0 .36-.094.36-.61.36V0c.313-.031.766-.031.89-.031.095 0 .579 0 .86.031m-.453-4.797a.453.453 0 0 0-.453-.453.45.45 0 0 0-.438.453c0 .234.188.438.438.438a.45.45 0 0 0 .453-.438m0 0"/><path id="bo" d="M1.625-.437a.453.453 0 0 0-.453-.454.436.436 0 0 0-.438.438.44.44 0 0 0 .438.453.45.45 0 0 0 .453-.437m0 0"/><path id="bp" d="M5.64-1.86c0-.077 0-.156-.14-.156-.078 0-.11.047-.11.125C5.329-.67 4.329-.094 3.485-.094c-.671 0-2.187-.422-2.187-2.625 0-2.156 1.437-2.625 2.187-2.625s1.672.532 1.891 1.907c0 .062.016.109.125.109.14 0 .14-.047.14-.203v-1.875c0-.125 0-.203-.109-.203-.062 0-.062 0-.14.109l-.407.594a2.12 2.12 0 0 0-1.578-.703C1.812-5.61.47-4.33.47-2.72S1.797.171 3.422.171C4.75.172 5.64-.89 5.64-1.858m0 0"/><path id="bq" d="M3.516-.953a.12.12 0 0 0-.125-.11c-.094 0-.11.047-.125.094a1.14 1.14 0 0 1-1.11.797c-.36 0-.734-.156-.969-.531-.234-.36-.234-.875-.234-1.11h2.344c.172 0 .219 0 .219-.187 0-.703-.391-1.547-1.516-1.547-.984 0-1.766.813-1.766 1.797 0 1.031.86 1.828 1.875 1.828 1 0 1.407-.844 1.407-1.031m-.547-1.078H.953c.078-1.11.75-1.297 1.047-1.297.938 0 .969 1.125.969 1.297m0 0"/><path id="br" d="M4.313 0v-.266c-.329 0-.47-.03-.766-.406l-1.14-1.5.671-.531c.531-.422.86-.453 1.063-.469v-.265c-.203.03-.313.03-.641.03-.39 0-.5-.015-.844-.03v.265c.156.016.188.11.188.156 0 .172-.172.313-.235.36l-1.14.922v-3.797L.28-5.438v.266c.547 0 .61.047.61.438v4.109c0 .36-.11.36-.61.36V0c.313-.031.735-.031.875-.031.157 0 .578 0 .89.031v-.266c-.515 0-.608 0-.608-.359v-.766l.53-.437c.032 0 .235.281.36.437.125.157.25.329.375.485s.281.36.281.484c0 .14-.14.156-.25.156V0c.344-.031.704-.031.844-.031.297 0 .469 0 .735.031m0 0"/><path id="bs" d="M1.719-.031c0-.438-.172-.86-.547-.86a.436.436 0 0 0-.438.438c0 .25.172.453.438.453.187 0 .297-.094.312-.125 0 .25 0 .89-.593 1.469-.032.015-.047.031-.047.078 0 .078.062.125.11.125.093 0 .765-.625.765-1.578m0 0"/><path id="bt" d="M3.406-1.531h-.25C3.078-.61 2.922-.25 1.937-.25H1l2.313-2.906c.046-.078.062-.094.062-.156 0-.126-.094-.126-.219-.126H.453l-.11 1.329h.25c.048-.828.235-1.11 1.126-1.11h.906L.313-.297C.25-.219.233-.203.233-.14.234 0 .328 0 .47 0h2.797ZM2.328-4.797a.44.44 0 0 0-.437-.453.44.44 0 0 0-.438.453.437.437 0 1 0 .875 0m0 0"/><path id="bu" d="M4.422-1.719c0-1-.813-1.797-1.781-1.797-.313 0-.766.079-1.172.5v-.5L.28-3.422v.266c.563 0 .61.047.61.375V.922c0 .36-.11.36-.61.36v.265c.344-.031.688-.031.907-.031.234 0 .562 0 .906.03v-.265c-.516 0-.61 0-.61-.36V-.39a1.37 1.37 0 0 0 1.047.47c1 0 1.89-.782 1.89-1.798m-.719 0c0 .907-.578 1.578-1.219 1.578-.28 0-.64-.125-.906-.515-.094-.14-.094-.156-.094-.297v-1.703c.188-.313.594-.61 1.094-.61.61 0 1.125.672 1.125 1.547m0 0"/><path id="bv" d="M5.516-1.453c0-.656-.61-1.281-1.61-1.39.86-.188 1.375-.704 1.375-1.25 0-.72-.797-1.344-1.875-1.344H.375v.265h.188c.609 0 .625.078.625.375V-.64c0 .297-.016.375-.625.375H.375V0h3.266c1.093 0 1.875-.703 1.875-1.453M4.5-4.093c0 .546-.469 1.156-1.39 1.156H1.86V-4.86c0-.266.015-.313.39-.313h1.11c.78 0 1.14.61 1.14 1.078m.203 2.624c0 .64-.531 1.203-1.344 1.203H2.25c-.375 0-.39-.046-.39-.328v-2.125h1.624c.766 0 1.22.625 1.22 1.25m0 0"/><path id="bw" d="M3.047-1.031c0-.375-.219-.938-1.172-1.11a10 10 0 0 0-.547-.093c-.25-.063-.625-.235-.625-.547 0-.235.188-.578.938-.578.89 0 .937.656.953.875 0 .062.062.093.11.093.14 0 .14-.062.14-.203v-.75c0-.125 0-.203-.11-.203-.046 0-.062 0-.187.125-.016 0-.094.078-.11.078 0 0-.03 0-.078-.031-.125-.094-.359-.172-.718-.172-1.11 0-1.36.594-1.36.985 0 .39.297.624.313.656.328.234.5.265 1.047.36.375.077.984.187.984.718 0 .312-.203.687-.937.687C.875-.14.64-.766.547-1.187c-.031-.11-.047-.141-.14-.141-.126 0-.126.062-.126.219v.984c0 .125 0 .203.094.203.063 0 .063 0 .203-.156.047-.047.125-.14.172-.188.36.329.734.344.938.344 1.015 0 1.359-.578 1.359-1.11M2.719-5.25c0-.172-.156-.312-.297-.312-.047 0-.156 0-.25.125L1.14-4.22l.172.172 1.25-.937c.093-.063.156-.125.156-.266m0 0"/><path id="bx" d="M4.422 0v-.266c-.547 0-.61-.046-.61-.437v-4.828l-1.187.093v.266c.531 0 .61.047.61.438v1.687a1.4 1.4 0 0 0-1.079-.469c-1 0-1.875.782-1.875 1.797 0 .985.797 1.797 1.797 1.797.469 0 .86-.219 1.125-.5v.5ZM3.203-.984c0 .14 0 .172-.125.328a1.15 1.15 0 0 1-.953.515c-.375 0-.687-.187-.875-.484-.219-.312-.266-.703-.266-1.078 0-.469.079-.797.266-1.063.188-.296.547-.53.953-.53.375 0 .766.202 1 .608Zm0 0"/><path id="by" d="M4.484 0v-.266c-.546 0-.609-.046-.609-.437v-2.813l-1.219.094v.266c.547 0 .61.047.61.437v1.39C3.266-.64 2.859-.14 2.25-.14c-.687 0-.719-.343-.719-.75v-2.625l-1.203.094v.266c.61 0 .61.015.61.719v1.203c0 .578 0 1.312 1.265 1.312.75 0 1.047-.578 1.078-.64h.016v.64Zm0 0"/><path id="bz" d="M1.813.36v-3.876l-1.25.094v.266c.593 0 .671.047.671.437V.375c0 .219-.046 1.031-.593 1.031-.11 0-.297-.031-.391-.078A.36.36 0 0 0 .469.984.36.36 0 0 0 .094.61C-.11.61-.281.75-.281 1c0 .406.437.625.937.625.64 0 1.156-.516 1.156-1.266m0-5.157a.44.44 0 0 0-.438-.453.44.44 0 0 0-.437.453c0 .234.171.438.437.438.25 0 .438-.203.438-.438m0 0"/><path id="bA" d="M4.094.953C4.125.797 3.906.72 3.875.86c-.094.282-.328.438-.562.422C2.547 1.25 2.53.47 3.234.031c.032.016.063.016.11.016.078 0 .75-.031.75-.766v-.437h-.25v.437c0 .328-.11.453-.281.453-.297 0-.297-.359-.297-.453v-1.656c0-.781-.75-1.172-1.485-1.172-.656 0-1.25.25-1.25.781a.36.36 0 0 0 .375.375.36.36 0 0 0 .375-.375.356.356 0 0 0-.297-.359c.297-.203.735-.203.782-.203.453 0 .89.312.89.969v.234c-.453.031-.984.047-1.547.281-.703.313-.843.766-.843 1.032 0 .687.812.89 1.359.89a1.23 1.23 0 0 0 1.11-.64c.03.171.109.343.234.453C2.672.125 2.28.578 2.28.953c0 .328.344.75.86.75.406 0 .859-.297.953-.75M2.656-1.125c0 .781-.64.984-.969.984-.406 0-.765-.28-.765-.671 0-.516.5-1.063 1.734-1.094Zm0 0"/><path id="bB" d="M5.797-3.578 5.64-5.391H.469L.297-3.578h.25c.11-1.344.297-1.547 1.515-1.547.157 0 .407 0 .47.016.14.03.155.109.155.312v4.14c0 .282 0 .391-.828.391h-.312V0c.297-.031 1.156-.031 1.5-.031s1.203 0 1.5.031v-.266H4.25c-.828 0-.828-.109-.828-.39v-4.14c0-.188 0-.282.156-.313.078-.016.313-.016.469-.016 1.219 0 1.39.203 1.5 1.547Zm0 0"/><path id="bC" d="M3.406-1.531h-.25C3.078-.61 2.922-.25 1.937-.25H1l2.313-2.906c.046-.078.062-.094.062-.156 0-.126-.094-.126-.219-.126H.453l-.11 1.329h.25c.048-.828.235-1.11 1.126-1.11h.906L.313-.297C.25-.219.233-.203.233-.14.234 0 .328 0 .47 0h2.797Zm0 0"/><path id="bM" d="M2.813 1.89c0-.03 0-.03-.11-.14C1.61.719 1.343-.75 1.343-1.984c0-2.297.938-3.375 1.345-3.75.124-.094.124-.11.124-.141 0-.047-.03-.094-.109-.094-.125 0-.531.407-.594.469C1.047-4.375.83-2.953.83-1.984c0 1.78.734 3.218 1.827 3.968.063 0 .156 0 .156-.093m0 0"/><path id="bN" d="M2.469-1.984c0-.766-.14-1.672-.625-2.61C1.454-5.328.719-5.969.578-5.969c-.078 0-.094.047-.094.094 0 .031 0 .047.094.14 1.11 1.063 1.36 2.516 1.36 3.75C1.938.298 1 1.376.593 1.75c-.11.094-.11.11-.11.14 0 .048.016.094.094.094.125 0 .531-.406.594-.468C2.234.39 2.469-1.031 2.469-1.984m0 0"/><path id="bS" d="M4.563 0v-.437H3.266v-5.157c0-.187 0-.297-.266-.297-.11 0-.125 0-.203.063-.688.516-1.656.516-1.828.516H.797v.437h.172a4.2 4.2 0 0 0 1.203-.172v4.61H.89V0c.343-.031 1.422-.031 1.828-.031.422 0 1.484 0 1.844.031m0 0"/><path id="bT" d="M4.86-2.953c0-.469-.032-1.39-.485-2.094-.297-.437-.828-.844-1.719-.844-1.281 0-2.218.72-2.218 1.938 0 1.125.765 1.937 2.093 1.937.406 0 .781-.203 1.063-.687v.172c0 .578-.063 1.156-.235 1.531-.109.234-.468.703-1.171.703-.079 0-.454 0-.735-.187a.55.55 0 0 0 .422-.563c0-.375-.281-.578-.578-.578-.25 0-.594.14-.594.594 0 .61.469 1.14 1.5 1.14 1.25 0 2.656-.796 2.656-3.062m-1.266-.89c0 .406-.172 1.452-1.031 1.452-.86 0-.86-.656-.86-1.53 0-.876 0-1.61.984-1.61.563 0 .766.515.797.593.11.297.11.782.11 1.094m0 0"/><path id="bU" d="M4.766-2.016h-.453c-.016.125-.094.766-.235.829-.11.046-.781.046-.937.046H1.859c.485-.39 1.016-.812 1.47-1.125.75-.53 1.437-1.015 1.437-1.89 0-1.047-.953-1.735-2.25-1.735-1.11 0-1.985.532-1.985 1.36 0 .468.36.687.672.687a.65.65 0 0 0 .656-.672c0-.203-.078-.53-.468-.64.312-.25.718-.282.89-.282.735 0 1.203.547 1.203 1.282 0 .656-.375 1.234-.859 1.718l-2 1.985c-.094.094-.094.11-.094.281V0H4.5Zm0 0"/><path id="bV" d="M3.797-4.484H1.969c-.282 0-.36-.016-.61-.032C1-4.546.984-4.594.97-4.703H.734L.484-3.22H.72c.015-.11.094-.562.203-.64.047-.032.625-.032.719-.032h1.515l-.719.922c-.906 1.188-1 2.297-1 2.703 0 .079 0 .407.329.407.343 0 .343-.313.343-.407v-.28c0-1.345.282-1.97.579-2.345l1.046-1.312c.063-.094.063-.11.063-.281m0 0"/><path id="bW" d="M2.016 1.734v-.328h-.72V-4.89h.72v-.328H.953v6.953Zm0 0"/><path id="bX" d="M3.578-1.422c0-.89-.703-1.547-1.515-1.547-.563 0-.86.375-1.016.688 0-.563.047-1.078.312-1.516.235-.375.61-.625 1.063-.625.203 0 .484.047.625.234-.172.016-.328.141-.328.344a.32.32 0 0 0 .328.328c.219 0 .344-.14.344-.343 0-.407-.297-.766-.985-.766-1 0-2.031.922-2.031 2.422C.375-.406 1.219.14 2 .14c.844 0 1.578-.657 1.578-1.563m-.672 0c0 .39 0 .688-.187.969A.82.82 0 0 1 2-.078c-.36 0-.625-.203-.781-.516-.094-.203-.157-.562-.157-.968 0-.688.407-1.204.97-1.204.312 0 .53.125.702.375.172.266.172.563.172.97m0 0"/><path id="bY" d="M3.516-1.406c0-.782-.594-1.5-1.453-1.5-.313 0-.672.062-.985.328v-1.313c.36.094.563.094.672.094.922 0 1.469-.625 1.469-.734 0-.078-.047-.094-.078-.094 0 0-.032 0-.063.016-.172.062-.531.203-1.047.203-.203 0-.562-.016-1.015-.188-.079-.031-.094-.031-.094-.031-.094 0-.094.078-.094.188v2.046c0 .125 0 .204.11.204.062 0 .078 0 .14-.094.297-.375.734-.438.969-.438.422 0 .61.328.64.39.126.235.172.5.172.907 0 .203 0 .61-.218.922a.98.98 0 0 1-.813.422c-.453 0-.922-.25-1.094-.719.266.016.407-.156.407-.344 0-.296-.266-.343-.36-.343 0 0-.343 0-.343.375 0 .625.578 1.25 1.406 1.25.89 0 1.672-.657 1.672-1.547m0 0"/><path id="bZ" d="M1.531-.39a.403.403 0 0 0-.406-.407.4.4 0 0 0-.406.39c0 .25.203.407.406.407a.4.4 0 0 0 .406-.39m0 0"/><path id="ca" d="M3.516-1.266H3.28c-.015.157-.094.563-.187.625-.047.047-.578.047-.688.047H1.125c.734-.64.984-.843 1.39-1.172.516-.406 1-.843 1-1.5 0-.843-.734-1.359-1.624-1.359-.86 0-1.453.61-1.453 1.25 0 .344.296.39.375.39.156 0 .359-.124.359-.374 0-.125-.047-.375-.406-.375.218-.485.687-.641 1.015-.641.703 0 1.063.547 1.063 1.11 0 .609-.438 1.078-.656 1.328L.516-.266C.437-.203.437-.187.437 0h2.876Zm0 0"/><path id="cb" d="M1.297 1.734v-6.953H.219v.328h.734v6.297H.22v.328Zm0 0"/><path id="cc" d="M7.813-1.75v-.203H.109v.203Zm0 0"/><path id="cd" d="M3.578-2.297c0-1.719-.765-2.328-1.578-2.328a1.55 1.55 0 0 0-1.11.422c-.234.234-.515.5-.515 1.125 0 .89.703 1.547 1.516 1.547.562 0 .859-.375 1.015-.688v.14c0 1.735-.844 2-1.265 2-.157 0-.532-.015-.72-.233a.315.315 0 0 0 .313-.329.32.32 0 0 0-.328-.328c-.203 0-.328.14-.328.344 0 .469.39.766 1.063.766 1 0 1.937-.938 1.937-2.438M2.891-3c0 .906-.516 1.266-.953 1.266-.282 0-.532-.079-.735-.407-.156-.25-.156-.546-.156-.937 0-.406 0-.672.203-.953.172-.25.39-.39.75-.39s.578.218.688.405c.187.282.203.782.203 1.016m0 0"/><path id="ce" d="M2.516 0v-.25h-.172c-.578 0-.578-.078-.578-.328v-3.61c0-.234 0-.328.578-.328h.172v-.25l-1.078.032-1.079-.032v.25h.172c.578 0 .578.094.578.329v3.609c0 .25 0 .328-.578.328H.36V0l1.079-.031Zm0 0"/><path id="cf" d="M3.594-2.219c0-.765-.094-1.328-.406-1.812-.22-.313-.657-.594-1.204-.594C.36-4.625.36-2.719.36-2.219s0 2.36 1.625 2.36c1.61 0 1.61-1.86 1.61-2.36m-.625-.094c0 .516 0 1.032-.094 1.47-.14.64-.61.78-.89.78-.329 0-.75-.187-.891-.75C1-1.219 1-1.796 1-2.312c0-.515 0-1.046.094-1.421.156-.547.593-.703.89-.703.375 0 .735.234.86.64.11.375.125.875.125 1.485m0 0"/><path id="cg" d="M5.547 0v-.25h-.125c-.469 0-.516-.078-.594-.266L3.125-4.812c-.031-.11-.062-.157-.187-.157-.141 0-.157.047-.204.157L1.125-.734C1.063-.562.938-.25.313-.25V0c.234-.016.484-.031.718-.031.282 0 .797.031.844.031v-.25c-.312 0-.516-.14-.516-.328 0-.063.016-.078.047-.14l.328-.86H3.72l.406 1.016c0 .03.031.078.031.109 0 .203-.375.203-.562.203V0l1.031-.031c.328 0 .86.031.922.031M3.609-1.828H1.83l.89-2.266Zm0 0"/><path id="ch" d="M4.047 0v-.25c-.469 0-.516-.047-.516-.39v-4.204l-1.047.078v.25c.47 0 .516.063.516.391v1.453a1.37 1.37 0 0 0-.969-.406c-.937 0-1.703.703-1.703 1.578S1.062.063 1.938.063c.578 0 .921-.297 1.03-.422v.422ZM2.969-.734c-.172.328-.531.609-.985.609-.39 0-.671-.234-.812-.437-.14-.204-.219-.485-.219-.922 0-.172 0-.688.281-1.016.282-.312.625-.375.829-.375.328 0 .64.156.828.406.078.11.078.11.078.25Zm0 0"/><path id="ci" d="M5.469-2.75V-3c-.188.016-.313.031-.5.031-.219 0-.485-.015-.688-.031v.25c.235 0 .36.14.36.297 0 .062 0 .078-.047.172L3.922-.547l-.75-1.906a.3.3 0 0 1-.031-.125c0-.156.172-.172.375-.172V-3c-.25.016-.5.031-.75.031-.203 0-.422-.015-.625-.031v.25c.172 0 .312 0 .406.047.094.078.156.312.156.312s-.015.063-.031.079L2.016-.641l-.703-1.812c-.032-.094-.032-.094-.032-.125 0-.172.25-.172.375-.172V-3s-.515.031-.797.031C.641-2.969.422-2.984.203-3v.25c.281 0 .438 0 .5.203l.969 2.453c.047.11.062.157.203.157.125 0 .14-.047.172-.141l.797-1.984.765 1.968c.047.094.063.157.204.157.124 0 .14-.047.187-.157l.875-2.234c.14-.344.375-.422.594-.422m0 0"/><path id="cj" d="M3.266-.844c0-.015-.016-.094-.125-.094-.094 0-.11.047-.125.11-.22.562-.75.672-1 .672-.328 0-.641-.14-.844-.406-.266-.329-.266-.75-.266-1.032h2.157c.156 0 .203 0 .203-.14 0-.625-.344-1.375-1.391-1.375a1.59 1.59 0 0 0-1.61 1.578c0 .89.782 1.594 1.704 1.594.937 0 1.297-.75 1.297-.907m-.485-.922H.906c.078-.984.703-1.14.969-1.14.86 0 .89.969.906 1.14m0 0"/><path id="ck" d="M4.11 0v-.25c-.454 0-.516 0-.516-.297v-1.562c0-.61-.297-.97-1.047-.97-.578 0-.938.313-1.14.688v-.687L.374-3v.25c.469 0 .531.047.531.39v1.813c0 .297-.078.297-.531.297V0s.5-.031.797-.031c.25 0 .734.031.797.031v-.25c-.453 0-.516 0-.516-.297v-1.265c0-.72.578-1.063 1.031-1.063.485 0 .547.375.547.734v1.594c0 .297-.062.297-.515.297V0s.5-.031.797-.031c.25 0 .734.031.796.031m0 0"/><path id="cl" d="M2.61-.875v-.39h-.235v.374c0 .485-.219.735-.5.735-.469 0-.469-.578-.469-.703V-2.75h1.078V-3H1.406v-1.281h-.25c0 .625-.281 1.312-.953 1.328v.203h.64v1.875c0 .781.595.938.985.938.469 0 .781-.391.781-.938m0 0"/><clipPath id="b"><path d="M.535.266h6.883v9.636H.535Zm0 0"/></clipPath><clipPath id="a"><path d="M0 0h8v10H0z"/></clipPath><clipPath id="bO"><path d="M15.023 568.348H403v11.336H15.023Zm0 0"/></clipPath><linearGradient id="bP" x1="0" x2="388.063" y1="0" y2="0" gradientTransform="matrix(1 0 0 -1 15.024 579.685)" gradientUnits="userSpaceOnUse"><stop offset="0" stop-color="#f2f2f2"/><stop offset=".25" stop-color="#f2f2f2"/><stop offset=".313" stop-color="#f2f2f2"/><stop offset=".344" stop-color="#f2f2f2"/><stop offset=".359" stop-color="#f3f3f3"/><stop offset=".363" stop-color="#f4f4f4"/><stop offset=".367" stop-color="#f5f5f5"/><stop offset=".371" stop-color="#f6f6f6"/><stop offset=".375" stop-color="#f7f7f7"/><stop offset=".379" stop-color="#f8f8f8"/><stop offset=".383" stop-color="#f9f9f9"/><stop offset=".387" stop-color="#fafafa"/><stop offset=".391" stop-color="#fbfbfb"/><stop offset=".395" stop-color="#fcfcfc"/><stop offset=".398" stop-color="#fcfcfc"/><stop offset=".406" stop-color="#fcfcfc"/><stop offset=".438" stop-color="#fcfcfc"/><stop offset=".5" stop-color="#fcfcfc"/><stop offset=".563" stop-color="#fcfcfc"/><stop offset=".566" stop-color="#fcfcfc"/><stop offset=".57" stop-color="#fbfbfb"/><stop offset=".574" stop-color="#fafafa"/><stop offset=".578" stop-color="#f9f9f9"/><stop offset=".582" stop-color="#f8f8f8"/><stop offset=".586" stop-color="#f7f7f7"/><stop offset=".59" stop-color="#f6f6f6"/><stop offset=".594" stop-color="#f5f5f5"/><stop offset=".598" stop-color="#f4f4f4"/><stop offset=".602" stop-color="#f3f3f3"/><stop offset=".609" stop-color="#f3f3f3"/><stop offset=".625" stop-color="#f2f2f2"/><stop offset=".75" stop-color="#f2f2f2"/><stop offset="1" stop-color="#f2f2f2"/></linearGradient><g id="c" clip-path="url(#a)"><g clip-path="url(#b)"><path fill-rule="evenodd" d="m3.977 7.836 3.441 2.066V1.645c0-.762-.617-1.38-1.375-1.38H1.914C1.152.266.535.884.535 1.646v8.257Zm-2.754.851 2.754-1.652L6.73 8.687V1.646a.69.69 0 0 0-.687-.692H1.914a.69.69 0 0 0-.691.692Zm0 0"/></g></g></defs><use xlink:href="#c" transform="translate(9 27)"/><use xlink:href="#d" x="17.008" y="23.315"/><use xlink:href="#e" x="20.884" y="23.315"/><use xlink:href="#f" x="27.399" y="23.315"/><use xlink:href="#g" x="384.039" y="23.315"/><use xlink:href="#h" x="390.168" y="23.315"/><use xlink:href="#i" x="392.79" y="23.315"/><use xlink:href="#j" x="396.727" y="23.315"/><use xlink:href="#k" x="138.054" y="34.908"/><use xlink:href="#l" x="146.446" y="34.908"/><use xlink:href="#m" x="152.424" y="34.908"/><use xlink:href="#n" x="162.92" y="34.908"/><use xlink:href="#o" x="174.612" y="34.908"/><use xlink:href="#p" x="180.518" y="34.908"/><use xlink:href="#q" x="184.965" y="34.908"/><use xlink:href="#o" x="188.026" y="34.908"/><use xlink:href="#r" x="203.269" y="34.908"/><use xlink:href="#s" x="207.878" y="34.908"/><use xlink:href="#t" x="212.486" y="34.908"/><use xlink:href="#u" x="217.095" y="34.908"/><use xlink:href="#v" x="230.669" y="34.908"/><use xlink:href="#w" x="234.256" y="34.908"/><use xlink:href="#x" x="240.048" y="34.908"/><use xlink:href="#r" x="245.893" y="34.908"/><use xlink:href="#y" x="250.502" y="34.908"/><use xlink:href="#z" x="254.411" y="34.908"/><use xlink:href="#t" x="259.02" y="34.908"/><use xlink:href="#A" x="263.628" y="34.908"/><use xlink:href="#A" x="268.389" y="34.908"/><use xlink:href="#B" x="273.15" y="34.908"/><path fill="none" stroke="#000" stroke-miterlimit="10" stroke-width=".398" d="M17.008 39.293h384.094"/><use xlink:href="#C" x="399.042" y="106.081"/><use xlink:href="#D" x="399.042" y="100.677"/><use xlink:href="#E" x="399.042" y="96.445"/><use xlink:href="#F" x="399.042" y="89.87"/><use xlink:href="#G" x="399.042" y="82.115"/><use xlink:href="#H" x="399.042" y="77.883"/><use xlink:href="#I" x="399.042" y="74.584"/><use xlink:href="#G" x="399.042" y="72.232"/><use xlink:href="#J" x="399.042" y="65.179"/><use xlink:href="#J" x="399.042" y="61.887"/><use xlink:href="#K" x="399.042" y="56.013"/><use xlink:href="#L" x="399.042" y="51.311"/><use xlink:href="#M" x="399.042" y="48.96"/><use xlink:href="#N" x="399.042" y="44.728"/><use xlink:href="#O" x="403.164" y="40.487"/><use xlink:href="#P" x="403.164" y="45.891"/><use xlink:href="#Q" x="403.164" y="50.123"/><use xlink:href="#R" x="403.164" y="56.698"/><use xlink:href="#S" x="403.164" y="64.453"/><use xlink:href="#T" x="403.164" y="68.685"/><use xlink:href="#U" x="403.164" y="71.984"/><use xlink:href="#S" x="403.164" y="74.336"/><use xlink:href="#V" x="403.164" y="81.389"/><use xlink:href="#V" x="403.164" y="84.681"/><use xlink:href="#W" x="403.164" y="90.555"/><use xlink:href="#X" x="403.164" y="95.257"/><use xlink:href="#Y" x="403.164" y="97.608"/><use xlink:href="#Y" x="403.164" y="101.84"/><use xlink:href="#Z" x="155.412" y="61.174"/><use xlink:href="#aa" x="171.923" y="51.089" fill="red"/><use xlink:href="#ab" x="183.639" y="51.089" fill="red"/><use xlink:href="#ac" x="171.923" y="61.174"/><use xlink:href="#ad" x="183.555" y="61.174"/><use xlink:href="#ae" x="192.808" y="51.089" fill="red"/><use xlink:href="#af" x="192.808" y="61.174"/><use xlink:href="#ag" x="205.803" y="61.174"/><use xlink:href="#ah" x="215.965" y="61.174"/><use xlink:href="#ai" x="221.249" y="61.174"/><use xlink:href="#aj" x="225.23" y="61.174"/><use xlink:href="#ab" x="227.98" y="51.089" fill="red"/><use xlink:href="#ah" x="227.98" y="61.174"/><use xlink:href="#ak" x="233.587" y="61.174"/><use xlink:href="#aa" x="171.923" y="72.733" fill="red"/><use xlink:href="#ab" x="183.639" y="72.733" fill="red"/><use xlink:href="#al" x="171.923" y="82.818"/><use xlink:href="#af" x="178.247" y="82.818"/><use xlink:href="#am" x="183.448" y="82.818"/><use xlink:href="#an" x="187.202" y="82.818"/><use xlink:href="#ae" x="193.203" y="72.733" fill="red"/><use xlink:href="#ah" x="193.203" y="82.818"/><use xlink:href="#am" x="202.707" y="82.818"/><use xlink:href="#ab" x="206.461" y="72.733" fill="red"/><use xlink:href="#ah" x="206.461" y="82.818"/><use xlink:href="#ao" x="212.068" y="82.818"/><use xlink:href="#ap" x="216.551" y="82.818"/><use xlink:href="#aj" x="222.23" y="82.818"/><use xlink:href="#ak" x="224.979" y="82.818"/><use xlink:href="#ae" x="171.923" y="94.376" fill="red"/><use xlink:href="#aq" x="171.923" y="104.462"/><use xlink:href="#ah" x="179.048" y="104.462"/><use xlink:href="#an" x="184.655" y="104.462"/><use xlink:href="#ar" x="194.554" y="104.462"/><use xlink:href="#af" x="197.638" y="104.462"/><use xlink:href="#ao" x="202.839" y="104.462"/><use xlink:href="#as" x="207.322" y="104.462"/><use xlink:href="#ab" x="215.451" y="94.376" fill="red"/><use xlink:href="#at" x="215.451" y="104.462"/><use xlink:href="#au" x="224.429" y="104.462"/><use xlink:href="#av" x="231.435" y="104.462"/><use xlink:href="#aw" x="237.293" y="104.462"/><use xlink:href="#ax" x="243.294" y="104.462"/><use xlink:href="#ay" x="248.901" y="104.462"/><use xlink:href="#az" x="171.923" y="126.105"/><use xlink:href="#am" x="179.694" y="126.105"/><use xlink:href="#av" x="183.125" y="126.105"/><use xlink:href="#aA" x="188.983" y="126.105"/><use xlink:href="#av" x="194.841" y="126.105"/><use xlink:href="#ao" x="200.699" y="126.105"/><use xlink:href="#am" x="205.182" y="126.105"/><use xlink:href="#ah" x="208.613" y="126.105"/><use xlink:href="#ae" x="214.22" y="116.02" fill="red"/><use xlink:href="#aB" x="214.22" y="126.105"/><use xlink:href="#aj" x="222.182" y="126.105"/><use xlink:href="#av" x="224.932" y="126.105"/><use xlink:href="#an" x="230.79" y="126.105"/><use xlink:href="#ah" x="236.791" y="126.105"/><use xlink:href="#aC" x="242.398" y="126.105"/><use xlink:href="#aD" x="171.923" y="147.749"/><use xlink:href="#aj" x="181.176" y="147.749"/><use xlink:href="#aE" x="183.926" y="147.749"/><use xlink:href="#aF" x="189.126" y="147.749"/><use xlink:href="#at" x="195.128" y="147.749"/><use xlink:href="#aG" x="200.209" y="147.749"/><use xlink:href="#an" x="209.462" y="147.749"/><use xlink:href="#aj" x="215.463" y="147.749"/><use xlink:href="#af" x="218.213" y="147.749"/><use xlink:href="#aB" x="223.413" y="147.749"/><use xlink:href="#aj" x="231.375" y="147.749"/><use xlink:href="#ah" x="234.125" y="147.749"/><use xlink:href="#ab" x="239.732" y="137.664" fill="red"/><use xlink:href="#ao" x="239.732" y="147.749"/><use xlink:href="#as" x="244.215" y="147.749"/><use xlink:href="#ah" x="248.447" y="147.749"/><use xlink:href="#aD" x="254.054" y="147.749"/><use xlink:href="#aj" x="263.307" y="147.749"/><use xlink:href="#aj" x="171.923" y="169.393"/><use xlink:href="#aw" x="178.57" y="169.393"/><use xlink:href="#am" x="184.571" y="169.393"/><use xlink:href="#av" x="188.002" y="169.393"/><use xlink:href="#aA" x="193.86" y="169.393"/><use xlink:href="#av" x="199.718" y="169.393"/><use xlink:href="#ao" x="205.576" y="169.393"/><use xlink:href="#am" x="210.059" y="169.393"/><use xlink:href="#ah" x="213.491" y="169.393"/><use xlink:href="#ae" x="219.098" y="159.307" fill="red"/><use xlink:href="#aB" x="219.098" y="169.393"/><use xlink:href="#aj" x="227.06" y="169.393"/><use xlink:href="#av" x="229.81" y="169.393"/><use xlink:href="#an" x="235.668" y="169.393"/><use xlink:href="#aG" x="241.669" y="169.393"/><use xlink:href="#aH" x="247.025" y="165.053"/><use xlink:href="#av" x="171.923" y="191.036"/><use xlink:href="#aB" x="177.458" y="191.036"/><use xlink:href="#av" x="185.097" y="191.036"/><use xlink:href="#aI" x="191.278" y="191.036"/><use xlink:href="#au" x="200.376" y="191.036"/><use xlink:href="#aB" x="207.382" y="191.036"/><use xlink:href="#af" x="215.021" y="191.036"/><use xlink:href="#aA" x="220.221" y="191.036"/><use xlink:href="#av" x="226.079" y="191.036"/><use xlink:href="#am" x="235.834" y="191.036"/><use xlink:href="#av" x="239.266" y="191.036"/><use xlink:href="#an" x="245.123" y="191.036"/><use xlink:href="#ah" x="251.125" y="191.036"/><use xlink:href="#ak" x="256.732" y="191.036"/><use xlink:href="#aJ" x="171.923" y="212.68"/><use xlink:href="#af" x="177.41" y="212.68"/><use xlink:href="#ab" x="182.61" y="202.595" fill="red"/><use xlink:href="#at" x="182.61" y="212.68"/><use xlink:href="#aK" x="187.691" y="212.68"/><use xlink:href="#ao" x="193.692" y="212.68"/><use xlink:href="#ay" x="198.175" y="212.68"/><use xlink:href="#aL" x="152.053" y="240.301"/><use xlink:href="#aa" x="171.923" y="230.216" fill="red"/><use xlink:href="#ab" x="183.639" y="230.216" fill="red"/><use xlink:href="#aM" x="171.923" y="240.301"/><use xlink:href="#aB" x="178.427" y="240.301"/><use xlink:href="#aj" x="186.389" y="240.301"/><use xlink:href="#aE" x="189.138" y="240.301"/><use xlink:href="#ae" x="194.338" y="230.216" fill="red"/><use xlink:href="#as" x="194.338" y="240.301"/><use xlink:href="#ah" x="198.57" y="240.301"/><use xlink:href="#ag" x="208.074" y="240.301"/><use xlink:href="#ah" x="218.236" y="240.301"/><use xlink:href="#ai" x="223.52" y="240.301"/><use xlink:href="#aG" x="227.501" y="240.301"/><use xlink:href="#ab" x="232.858" y="230.216" fill="red"/><use xlink:href="#ar" x="232.858" y="240.301"/><use xlink:href="#av" x="235.942" y="240.301"/><use xlink:href="#ak" x="241.8" y="240.301"/><use xlink:href="#aa" x="171.923" y="251.859" fill="red"/><use xlink:href="#ab" x="183.639" y="251.859" fill="red"/><use xlink:href="#ag" x="171.923" y="261.945"/><use xlink:href="#ah" x="182.085" y="261.945"/><use xlink:href="#as" x="187.692" y="261.945"/><use xlink:href="#ae" x="191.924" y="251.859" fill="red"/><use xlink:href="#ap" x="191.924" y="261.945"/><use xlink:href="#av" x="197.28" y="261.945"/><use xlink:href="#ab" x="207.035" y="251.859" fill="red"/><use xlink:href="#az" x="207.035" y="261.945"/><use xlink:href="#av" x="214.806" y="261.945"/><use xlink:href="#aA" x="220.664" y="261.945"/><use xlink:href="#ah" x="226.522" y="261.945"/><use xlink:href="#ak" x="232.129" y="261.945"/><use xlink:href="#ae" x="171.923" y="273.503" fill="red"/><use xlink:href="#aD" x="171.923" y="283.588"/><use xlink:href="#aN" x="181.176" y="283.588"/><use xlink:href="#aF" x="187.357" y="283.588"/><use xlink:href="#aO" x="193.358" y="283.588"/><use xlink:href="#ao" x="200.005" y="283.588"/><use xlink:href="#aj" x="204.488" y="283.588"/><use xlink:href="#aE" x="207.238" y="283.588"/><use xlink:href="#at" x="216.336" y="283.588"/><use xlink:href="#ah" x="221.417" y="283.588"/><use xlink:href="#ab" x="230.921" y="273.503" fill="red"/><use xlink:href="#an" x="230.921" y="283.588"/><use xlink:href="#ah" x="236.922" y="283.588"/><use xlink:href="#aD" x="242.529" y="283.588"/><use xlink:href="#aj" x="251.782" y="283.588"/><use xlink:href="#ak" x="254.532" y="283.588"/><use xlink:href="#aw" x="171.923" y="305.232"/><use xlink:href="#av" x="178.247" y="305.232"/><use xlink:href="#ar" x="188.002" y="305.232"/><use xlink:href="#af" x="191.087" y="305.232"/><use xlink:href="#ao" x="196.287" y="305.232"/><use xlink:href="#ae" x="200.77" y="295.147" fill="red"/><use xlink:href="#as" x="200.77" y="305.232"/><use xlink:href="#af" x="205.002" y="305.232"/><use xlink:href="#aC" x="210.202" y="305.232"/><use xlink:href="#aD" x="214.686" y="305.232"/><use xlink:href="#aG" x="223.939" y="305.232"/><use xlink:href="#aA" x="171.923" y="326.876"/><use xlink:href="#ai" x="177.781" y="326.876"/><use xlink:href="#at" x="181.762" y="326.876"/><use xlink:href="#af" x="186.843" y="326.876"/><use xlink:href="#ao" x="192.043" y="326.876"/><use xlink:href="#at" x="196.526" y="326.876"/><use xlink:href="#an" x="201.607" y="326.876"/><use xlink:href="#aj" x="207.609" y="326.876"/><use xlink:href="#ab" x="210.358" y="316.79" fill="red"/><use xlink:href="#ap" x="210.358" y="326.876"/><use xlink:href="#ah" x="216.037" y="326.876"/><use xlink:href="#aD" x="221.644" y="326.876"/><use xlink:href="#aj" x="230.897" y="326.876"/><use xlink:href="#ak" x="233.646" y="326.876"/><use xlink:href="#aD" x="171.923" y="348.519"/><use xlink:href="#aN" x="181.176" y="348.519"/><use xlink:href="#aF" x="187.357" y="348.519"/><use xlink:href="#aO" x="193.358" y="348.519"/><use xlink:href="#ao" x="200.005" y="348.519"/><use xlink:href="#aj" x="204.488" y="348.519"/><use xlink:href="#aE" x="207.238" y="348.519"/><use xlink:href="#ae" x="216.336" y="338.434" fill="red"/><use xlink:href="#as" x="216.336" y="348.519"/><use xlink:href="#af" x="220.568" y="348.519"/><use xlink:href="#ai" x="225.768" y="348.519"/><use xlink:href="#ah" x="229.75" y="348.519"/><use xlink:href="#at" x="235.356" y="348.519"/><use xlink:href="#aj" x="171.923" y="370.163"/><use xlink:href="#aB" x="178.57" y="370.163"/><use xlink:href="#aA" x="190.429" y="370.163"/><use xlink:href="#av" x="196.287" y="370.163"/><use xlink:href="#aF" x="202.468" y="370.163"/><use xlink:href="#at" x="208.469" y="370.163"/><use xlink:href="#aj" x="213.55" y="370.163"/><use xlink:href="#an" x="216.3" y="370.163"/><use xlink:href="#aE" x="222.301" y="370.163"/><use xlink:href="#an" x="171.923" y="391.807"/><use xlink:href="#ah" x="177.924" y="391.807"/><use xlink:href="#ao" x="183.531" y="391.807"/><use xlink:href="#at" x="188.014" y="391.807"/><use xlink:href="#af" x="193.095" y="391.807"/><use xlink:href="#ar" x="198.296" y="391.807"/><use xlink:href="#ab" x="205.277" y="381.721" fill="red"/><use xlink:href="#aC" x="205.277" y="391.807"/><use xlink:href="#aD" x="209.76" y="391.807"/><use xlink:href="#aj" x="219.013" y="391.807"/><use xlink:href="#af" x="221.763" y="391.807"/><use xlink:href="#ai" x="226.963" y="391.807"/><use xlink:href="#ae" x="230.945" y="381.721" fill="red"/><use xlink:href="#aI" x="230.945" y="391.807"/><use xlink:href="#aj" x="236.145" y="391.807"/><use xlink:href="#ay" x="238.895" y="391.807"/><use xlink:href="#ac" x="171.923" y="413.45"/><use xlink:href="#ab" x="179.658" y="403.365" fill="red"/><use xlink:href="#aD" x="179.658" y="413.45"/><use xlink:href="#af" x="188.911" y="413.45"/><use xlink:href="#an" x="194.112" y="413.45"/><use xlink:href="#ay" x="200.113" y="413.45"/><path fill="none" stroke="#000" stroke-miterlimit="10" stroke-width=".398" d="M17.008 545.145h153.637"/><use xlink:href="#aP" x="27.919" y="551.666"/><g fill="red"><use xlink:href="#aQ" x="31.354" y="554.559"/><use xlink:href="#aR" x="36.527" y="554.559"/></g><g fill="red"><use xlink:href="#aS" x="44.122" y="554.559"/><use xlink:href="#aQ" x="48.123" y="554.559"/><use xlink:href="#aT" x="53.295" y="554.559"/><use xlink:href="#aR" x="60.349" y="554.559"/><use xlink:href="#aU" x="64.581" y="554.559"/><use xlink:href="#aV" x="67.881" y="554.559"/></g><g fill="red"><use xlink:href="#aW" x="70.941" y="554.559"/><use xlink:href="#aX" x="77.054" y="554.559"/><use xlink:href="#aY" x="81.525" y="554.559"/></g><use xlink:href="#aZ" x="85.048" y="554.559" fill="red"/><g fill="red"><use xlink:href="#aW" x="89.511" y="554.559"/><use xlink:href="#ba" x="95.624" y="554.559"/><use xlink:href="#aV" x="98.964" y="554.559"/><use xlink:href="#aR" x="102.255" y="554.559"/><use xlink:href="#bb" x="106.487" y="554.559"/></g><use xlink:href="#bc" x="112.696" y="554.559" fill="red"/><g fill="red"><use xlink:href="#aR" x="118.227" y="554.559"/><use xlink:href="#bd" x="122.459" y="554.559"/></g><g fill="red"><use xlink:href="#be" x="130.525" y="554.559"/><use xlink:href="#bf" x="134.757" y="554.559"/><use xlink:href="#be" x="138.989" y="554.559"/><use xlink:href="#bg" x="143.221" y="554.559"/><use xlink:href="#bh" x="147.453" y="554.559"/><use xlink:href="#bi" x="151.454" y="554.559"/></g><use xlink:href="#bj" x="157.182" y="554.559"/><use xlink:href="#bb" x="161.884" y="554.559"/><use xlink:href="#bk" x="164.73" y="554.559"/><use xlink:href="#bl" x="168.962" y="554.559"/><use xlink:href="#bk" x="173.194" y="554.559"/><use xlink:href="#ba" x="177.426" y="554.559"/><use xlink:href="#bb" x="180.765" y="554.559"/><use xlink:href="#aR" x="183.611" y="554.559"/><use xlink:href="#aW" x="187.603" y="554.559"/><use xlink:href="#bm" x="193.716" y="554.559"/><use xlink:href="#bk" x="196.068" y="554.559"/><use xlink:href="#bd" x="200.3" y="554.559"/><use xlink:href="#bn" x="205.002" y="554.559" fill="red"/><use xlink:href="#bj" x="212.972" y="554.559"/><use xlink:href="#bb" x="217.674" y="554.559"/><use xlink:href="#bk" x="220.52" y="554.559"/><use xlink:href="#bl" x="224.752" y="554.559"/><use xlink:href="#bk" x="228.984" y="554.559"/><use xlink:href="#ba" x="233.216" y="554.559"/><use xlink:href="#bb" x="236.555" y="554.559"/><use xlink:href="#aR" x="239.401" y="554.559"/><use xlink:href="#aW" x="243.393" y="554.559"/><use xlink:href="#bm" x="249.506" y="554.559"/><use xlink:href="#bk" x="251.858" y="554.559"/><use xlink:href="#bd" x="256.09" y="554.559"/><use xlink:href="#aX" x="260.553" y="554.559"/><use xlink:href="#bo" x="265.024" y="554.559" fill="red"/><g fill="red"><use xlink:href="#bp" x="270.746" y="554.559"/><use xlink:href="#bm" x="276.859" y="554.559"/><use xlink:href="#bq" x="279.211" y="554.559"/><use xlink:href="#br" x="282.972" y="554.559"/><use xlink:href="#aR" x="287.444" y="554.559"/></g><use xlink:href="#aW" x="291.445" y="554.559" fill="red"/><g fill="red"><use xlink:href="#bq" x="297.318" y="554.559"/><use xlink:href="#bs" x="301.08" y="554.559"/></g><g fill="red"><use xlink:href="#bt" x="306.795" y="554.559"/><use xlink:href="#bq" x="310.557" y="554.559"/></g><use xlink:href="#bu" x="317.682" y="554.559" fill="red"/><use xlink:href="#bk" x="322.623" y="554.559" fill="red"/><use xlink:href="#bv" x="330.234" y="554.559"/><use xlink:href="#bb" x="336.227" y="554.559"/><use xlink:href="#bk" x="339.073" y="554.559"/><use xlink:href="#bl" x="343.305" y="554.559"/><use xlink:href="#bk" x="347.537" y="554.559"/><use xlink:href="#ba" x="351.769" y="554.559"/><use xlink:href="#bb" x="355.108" y="554.559"/><use xlink:href="#aR" x="357.954" y="554.559"/><use xlink:href="#aW" x="361.947" y="554.559"/><use xlink:href="#bm" x="368.06" y="554.559"/><use xlink:href="#bk" x="370.411" y="554.559"/><use xlink:href="#bd" x="374.643" y="554.559"/><use xlink:href="#aR" x="379.345" y="554.559"/><use xlink:href="#bw" x="383.577" y="554.559"/><g fill="red"><use xlink:href="#bd" x="390.287" y="554.559"/><use xlink:href="#bm" x="394.989" y="554.559"/><use xlink:href="#bq" x="397.34" y="554.559"/></g><g fill="red"><use xlink:href="#bx" x="17.008" y="564.023"/><use xlink:href="#bk" x="21.71" y="564.023"/></g><g fill="red"><use xlink:href="#bx" x="26.181" y="564.023"/><use xlink:href="#aR" x="30.884" y="564.023"/><use xlink:href="#bd" x="35.116" y="564.023"/><use xlink:href="#bk" x="39.818" y="564.023"/></g><g fill="red"><use xlink:href="#bj" x="46.872" y="564.023"/><use xlink:href="#aU" x="51.574" y="564.023"/><use xlink:href="#aR" x="54.873" y="564.023"/><use xlink:href="#br" x="59.106" y="564.023"/><use xlink:href="#by" x="63.577" y="564.023"/><use xlink:href="#bz" x="68.279" y="564.023"/><use xlink:href="#bA" x="70.869" y="564.023"/><use xlink:href="#aY" x="75.101" y="564.023"/><use xlink:href="#bq" x="78.863" y="564.023"/><use xlink:href="#bl" x="82.625" y="564.023"/><use xlink:href="#bk" x="86.857" y="564.023"/></g><use xlink:href="#bB" x="93.912" y="564.023"/><use xlink:href="#aX" x="99.786" y="564.023"/><use xlink:href="#bs" x="104.257" y="564.023" fill="red"/><g fill="red"><use xlink:href="#bz" x="109.43" y="564.023"/><use xlink:href="#aR" x="112.02" y="564.023"/><use xlink:href="#br" x="116.252" y="564.023"/></g><g fill="red"><use xlink:href="#aV" x="123.544" y="564.023"/><use xlink:href="#bk" x="126.836" y="564.023"/></g><g fill="red"><use xlink:href="#by" x="133.89" y="564.023"/><use xlink:href="#aY" x="138.592" y="564.023"/><use xlink:href="#bC" x="142.354" y="564.023"/><use xlink:href="#aX" x="146.116" y="564.023"/><use xlink:href="#bd" x="150.587" y="564.023"/><use xlink:href="#bm" x="155.289" y="564.023"/><use xlink:href="#bk" x="157.64" y="564.023"/><use xlink:href="#bd" x="161.872" y="564.023"/><use xlink:href="#bk" x="166.575" y="564.023"/></g><use xlink:href="#aW" x="173.628" y="564.023" fill="red"/><g fill="red"><use xlink:href="#bD" x="182.563" y="564.023"/><use xlink:href="#bE" x="187.807" y="564.023"/><use xlink:href="#bF" x="192.183" y="564.023"/></g><g fill="red"><use xlink:href="#j" x="195.355" y="564.023"/><use xlink:href="#bG" x="199.73" y="564.023"/><use xlink:href="#bH" x="205.413" y="564.023"/><use xlink:href="#bI" x="209.788" y="564.023"/></g><g fill="red"><use xlink:href="#bJ" x="216.348" y="564.023"/><use xlink:href="#bH" x="224.007" y="564.023"/><use xlink:href="#bF" x="228.383" y="564.023"/><use xlink:href="#bK" x="231.993" y="564.023"/><use xlink:href="#bL" x="236.145" y="564.023"/><use xlink:href="#j" x="238.767" y="564.023"/></g><use xlink:href="#bs" x="243.143" y="564.023" fill="red"/><g fill="red"><use xlink:href="#ba" x="248.316" y="564.023"/><use xlink:href="#aV" x="251.655" y="564.023"/><use xlink:href="#aU" x="254.947" y="564.023"/><use xlink:href="#bo" x="258.246" y="564.023"/></g><g fill="red"><use xlink:href="#be" x="263.419" y="564.023"/><use xlink:href="#be" x="267.651" y="564.023"/><use xlink:href="#bg" x="271.883" y="564.023"/><use xlink:href="#bo" x="276.115" y="564.023"/></g><g fill="red"><use xlink:href="#bM" x="281.287" y="564.023"/><use xlink:href="#bu" x="284.579" y="564.023"/><use xlink:href="#aU" x="289.281" y="564.023"/><use xlink:href="#bC" x="292.581" y="564.023"/><use xlink:href="#aX" x="296.343" y="564.023"/><use xlink:href="#bu" x="300.814" y="564.023"/><use xlink:href="#bo" x="305.516" y="564.023"/></g><g fill="red"><use xlink:href="#aU" x="310.689" y="564.023"/><use xlink:href="#bq" x="313.988" y="564.023"/><use xlink:href="#bx" x="317.75" y="564.023"/><use xlink:href="#bo" x="322.453" y="564.023"/><use xlink:href="#bN" x="324.804" y="564.023"/></g><g clip-path="url(#bO)"><path fill="url(#bP)" d="M15.023 579.684v-11.336h388.063v11.336Zm0 0"/></g><use xlink:href="#bQ" x="387.641" y="577.985"/><use xlink:href="#bR" x="394.372" y="577.985"/><path fill="#f2f2f2" stroke="#000" stroke-miterlimit="10" stroke-width=".797" d="M196.602 576.055v-3.989a2.99 2.99 0 0 1 2.988-2.988h18.93a2.99 2.99 0 0 1 2.988 2.988v3.989a2.99 2.99 0 0 1-2.988 2.988h-18.93a2.99 2.99 0 0 1-2.988-2.988Zm0 0"/><use xlink:href="#bS" x="198.439" y="576.948"/><use xlink:href="#bT" x="203.747" y="576.948"/><use xlink:href="#bT" x="209.055" y="576.948"/><use xlink:href="#bU" x="214.363" y="576.948"/><use xlink:href="#bV" x="17.008" y="577.985"/><use xlink:href="#bW" x="23.661" y="577.985"/><use xlink:href="#bX" x="25.914" y="577.985"/><use xlink:href="#bY" x="29.882" y="577.985"/><use xlink:href="#bZ" x="33.85" y="577.985"/><use xlink:href="#ca" x="36.103" y="577.985"/><use xlink:href="#cb" x="40.071" y="577.985"/><use xlink:href="#cc" x="45.009" y="577.985"/><use xlink:href="#ca" x="55.637" y="577.985"/><use xlink:href="#cd" x="59.605" y="577.985"/><use xlink:href="#ce" x="66.258" y="577.985"/><use xlink:href="#ca" x="71.824" y="577.985"/><use xlink:href="#cf" x="75.792" y="577.985"/><use xlink:href="#ca" x="79.76" y="577.985"/><use xlink:href="#bX" x="83.728" y="577.985"/><use xlink:href="#cc" x="90.381" y="577.985"/><use xlink:href="#cg" x="101.01" y="577.985"/><use xlink:href="#ch" x="106.673" y="577.985"/><use xlink:href="#ci" x="111.073" y="577.985"/><use xlink:href="#cj" x="116.548" y="577.985"/><use xlink:href="#ck" x="120.091" y="577.985"/><use xlink:href="#cl" x="124.275" y="577.985"/><use xlink:href="#ca" x="130.071" y="577.985"/><use xlink:href="#cf" x="134.039" y="577.985"/><use xlink:href="#ca" x="138.007" y="577.985"/><use xlink:href="#bY" x="141.975" y="577.985"/></svg>