<svg xmlns="http://www.w3.org/2000/svg" xmlns:xlink="http://www.w3.org/1999/xlink" width="559.371" height="793.701" viewBox="0 0 419.528 595.276"><defs><path id="d" d="M3.344 2.297v-.078L1.5-2.5l1.844-4.703v-.078c0-.11-.078-.203-.188-.203a.24.24 0 0 0-.203.14L1.11-2.562c-.015.015-.015.046-.015.062 0 .031 0 .063.015.078L2.953 2.36a.24.24 0 0 0 .203.141c.11 0 .188-.094.188-.203m0 0"/><path id="e" d="M8.14-6.734v-.188c-.28.031-.75.094-1.078.219a5.5 5.5 0 0 0-.859.422c-.422.25-.75.656-1.047 1.062-.453.625-.828 1.235-1.234 1.875-.438.703-1.11 1.813-1.313 2.063-.203.265-.453.578-.718.781a.7.7 0 0 1-.47.188c-.093 0-.171-.032-.218-.094-.031-.047-.078-.11-.062-.188l.093-.234c.016-.047.047-.125.063-.156.016-.079.016-.141-.031-.188A.32.32 0 0 0 1-1.312a.53.53 0 0 0-.328.093.84.84 0 0 0-.25.375c-.047.25-.031.5.094.688.125.172.343.25.578.25.375 0 .797-.188 1.156-.469a9.4 9.4 0 0 0 1.703-1.984h2.203l-.39 1.578a1.8 1.8 0 0 0-.079.484c0 .125.016.235.079.313.062.093.187.14.312.14.25 0 .516-.14.734-.265A5.4 5.4 0 0 0 7.86-.86l-.109-.172c-.187.14-.328.234-.484.328-.125.078-.25.14-.391.14-.078 0-.156-.015-.203-.078-.125-.171-.11-.406-.078-.64.125-.703.297-1.406.468-2.11l.72-2.89c.046-.172.093-.282.202-.36Zm-1 .375-.89 3.578H4.234c.407-.75.813-1.531 1.313-2.25.281-.407.547-.828.937-1.14.188-.141.407-.266.61-.298Zm0 0"/><path id="f" d="M2.781-2.5c0-.016 0-.047-.015-.062L.922-7.344c-.031-.078-.11-.14-.188-.14a.207.207 0 0 0-.203.203v.078L2.375-2.5.531 2.219v.078c0 .11.094.203.203.203.079 0 .157-.062.188-.14l1.844-4.782c.015-.015.015-.047.015-.078m0 0"/><path id="g" d="M5.89-.156c0-.11-.093-.11-.218-.11-.39 0-.406-.062-.422-.265L4.766-5.47c-.016-.187-.032-.218-.172-.218-.11 0-.172.015-.266.171L1.594-.937C1.25-.36.937-.281.687-.266.595-.25.517-.25.517-.109c0 .078.062.109.109.109.063 0 .11-.031.656-.031.5 0 .688.031.735.031.03 0 .156 0 .156-.156 0-.094-.094-.11-.14-.11-.173-.015-.298-.078-.298-.25 0-.125.188-.437.313-.656.219-.36.219-.375.406-.672H4.47l.11 1.235c.015.156.015.343-.47.343-.125 0-.218 0-.218.157 0 .03.015.109.125.109.28 0 .593-.031.89-.031.688 0 .75.031.828.031.047 0 .157 0 .157-.156M4.439-2.11H2.609l1.579-2.625Zm0 0"/><path id="h" d="M5.016-1.14c0-.11-.11-.11-.157-.11-.125 0-.14.031-.171.172-.141.516-.407.937-.75.937-.157 0-.172-.109-.172-.25 0-.187.062-.359.109-.515.172-.422.484-1.281.484-1.75 0-.688-.468-.86-.906-.86-.672 0-1.047.454-1.203.641a.72.72 0 0 0-.734-.64c-.266 0-.453.156-.61.437-.156.265-.265.75-.265.781 0 .11.093.11.14.11.14 0 .14-.032.188-.22.125-.468.265-.89.531-.89.234 0 .234.281.234.36 0 .109-.015.234-.046.343L1.094-.266c-.016.079-.016.094-.016.125 0 .125.094.22.234.22.25 0 .313-.188.375-.5l.172-.673c.047-.172.047-.187.125-.531l.141-.516c.031-.125.281-.593.531-.828.25-.203.5-.328.781-.328.313 0 .407.235.407.531 0 .47-.344 1.375-.485 1.766-.062.14-.109.281-.109.422 0 .36.266.656.672.656.75 0 1.094-1.11 1.094-1.219m0 0"/><path id="i" d="M4.578-1.14c0-.11-.11-.11-.14-.11-.141 0-.141.031-.188.234-.156.61-.328.875-.531.875-.235 0-.235-.25-.235-.359 0-.047 0-.125.032-.219l1.14-4.578c0-.031.016-.094.016-.125 0-.11-.125-.11-.203-.094l-.828.063c-.125.016-.203.016-.203.156 0 .125.093.125.203.125.39 0 .39.047.39.11 0 .046-.031.125-.031.171l-.469 1.829c-.156-.282-.39-.454-.719-.454-.953 0-1.906 1.188-1.906 2.329 0 .75.453 1.265 1.047 1.265.469 0 .86-.344 1.031-.547.063.297.329.547.72.547.28 0 .468-.172.608-.422.172-.312.266-.797.266-.797m-1.547.077C2.97-.78 2.453-.14 1.97-.14c-.36 0-.485-.406-.485-.734 0-.375.235-1.312.422-1.672.328-.578.672-.75.907-.75.5 0 .578.688.578.766l-.016.11Zm0 0"/><path id="j" d="M4.11-2.969c0-.453-.579-.547-.844-.547-.47 0-.797.25-1.032.547-.062-.297-.328-.547-.718-.547-.266 0-.453.157-.61.438-.156.265-.265.75-.265.781 0 .11.093.11.14.11.14 0 .14-.032.188-.22.125-.468.265-.89.531-.89.234 0 .234.281.234.36 0 .109-.015.234-.046.343L1.094-.266c-.016.079-.016.094-.016.125 0 .125.094.22.234.22.22 0 .313-.188.344-.313l.485-1.953c.015-.11.39-1.11 1.109-1.11.078 0 .297.016.453.14-.265.095-.281.298-.281.36 0 .219.187.266.281.266.156 0 .406-.11.406-.438m0 0"/><path id="k" d="M4-.797c0-.062-.11-.172-.156-.172-.047 0-.063.016-.125.094a2.02 2.02 0 0 1-1.5.734c-.547 0-.688-.546-.688-.906 0-.187.063-.531.125-.766h.453c.313 0 1.797 0 1.797-1.015 0-.39-.344-.688-.89-.688-.86 0-2.063.75-2.063 2.157 0 .734.406 1.437 1.25 1.437C3.36.078 4-.687 4-.797m-.437-2.031c0 .781-1.235.781-1.516.781h-.328c.25-.984.953-1.25 1.297-1.25.28 0 .547.156.547.469m0 0"/><path id="l" d="M4.5-1.14c0-.11-.11-.11-.156-.11-.125 0-.125.031-.172.234-.156.61-.328.875-.531.875-.235 0-.235-.25-.235-.359 0-.047 0-.125.031-.219L4-2.969c0-.047.031-.125.031-.172 0-.125-.11-.218-.25-.218-.11 0-.281.062-.328.297-.156-.282-.39-.454-.734-.454-.938 0-1.89 1.188-1.89 2.329 0 .75.452 1.265 1.046 1.265.469 0 .86-.344 1.031-.547.063.297.328.547.719.547.281 0 .469-.172.61-.422.171-.312.265-.797.265-.797m-1.547.077c-.062.282-.594.922-1.062.922-.375 0-.485-.406-.485-.734 0-.375.235-1.312.422-1.672.328-.578.672-.75.89-.75.516 0 .595.688.595.766l-.016.11Zm0 0"/><path id="m" d="M4.547-1.844c0-.343-.11-.656-.313-.875-.218-.234-.359-.265-1.078-.453-.031-.015-.406-.11-.469-.125-.343-.11-.53-.39-.53-.75 0-.64.671-1.328 1.39-1.328.812 0 1.047.547 1.047 1.172 0 .266-.047.422-.047.469 0 .093.094.093.156.093.125 0 .125-.015.172-.156l.406-1.61c0-.015.016-.077.016-.109 0-.03-.031-.093-.11-.093-.062 0-.062 0-.14.093l-.36.454c-.312-.47-.78-.547-1.125-.547-1.015 0-1.921.937-1.921 1.843 0 .907.718 1.11 1.015 1.172l.75.203c.39.11.625.36.625.829 0 .718-.687 1.468-1.437 1.468-.672 0-1.281-.297-1.281-1.11 0-.124.03-.312.062-.421v-.094c0-.093-.094-.093-.14-.093-.11 0-.141.015-.173.156L.673-.078C.64.032.64.047.64.062c0 .094.062.11.109.11C.813.172.828.14.89.078l.36-.453c.328.422.828.547 1.328.547 1.047 0 1.969-1.031 1.969-2.016m0 0"/><path id="n" d="M2.39-1.14c0-.11-.109-.11-.156-.11-.125 0-.125.031-.156.172-.125.406-.25.937-.547.937-.218 0-.218-.25-.218-.359 0-.047 0-.125.03-.219l1.141-4.578c0-.031.016-.094.016-.125 0-.11-.125-.11-.219-.094l-.828.063c-.11.016-.187.016-.187.156 0 .125.093.125.203.125.375 0 .375.047.375.11a.7.7 0 0 1-.032.171L.829-.937c-.047.156-.047.203-.047.28 0 .485.375.735.735.735.172 0 .422-.047.625-.437.14-.282.25-.75.25-.782m0 0"/><path id="o" d="M4.297-2.172c0-.828-.547-1.344-1.266-1.344C2-3.516.921-2.437.921-1.266c0 .875.595 1.344 1.267 1.344 1.062 0 2.109-1.094 2.109-2.25m-.594-.281c0 .265-.125 1.031-.437 1.578-.266.438-.688.734-1.078.734-.297 0-.672-.203-.672-.843 0-.36.172-1.11.422-1.547.343-.578.812-.766 1.078-.766.39 0 .687.297.687.844m0 0"/><path id="p" d="M2.828-1.14c0-.11-.11-.11-.156-.11-.125 0-.125.031-.172.172-.14.516-.406.937-.734.937-.157 0-.188-.109-.188-.25 0-.187.063-.328.188-.656l.515-1.39c.063-.172.094-.25.094-.422 0-.438-.312-.657-.656-.657-.75 0-1.078 1.11-1.078 1.22 0 .108.093.108.14.108.14 0 .14-.03.172-.171.125-.407.375-.938.75-.938.14 0 .172.11.172.25 0 .188-.047.344-.156.61L1.156-.953a1.1 1.1 0 0 0-.078.375c0 .36.266.656.672.656.75 0 1.078-1.125 1.078-1.219m.125-3.704a.354.354 0 0 0-.36-.375.55.55 0 0 0-.53.532c0 .234.171.359.359.359.265 0 .531-.234.531-.516m0 0"/><path id="q" d="M7.719-.687 7.625-1.72c0-.078-.078-.14-.14-.14-.032 0-.063.015-.094.03-.328.25-.672.485-1.063.626-.406.125-.812.14-1.219.14-.75 0-1.484-.203-1.968-.75-.532-.64-.657-1.5-.657-2.328 0-.843.125-1.703.657-2.343.484-.563 1.218-.766 1.968-.766.36 0 .72.047 1.079.188.343.125.64.328.906.578a.14.14 0 0 0 .11.046c.077 0 .14-.062.14-.125l.234-1.28a.19.19 0 0 0-.094-.173q-.585-.21-1.171-.328a6.3 6.3 0 0 0-1.204-.094c-1.203 0-2.437.25-3.28 1.079C.983-6.531.733-5.33.733-4.141c0 1.172.25 2.375 1.094 3.204C2.672-.11 3.906.125 5.11.125c.438 0 .891 0 1.329-.125.421-.125.812-.328 1.218-.547a.2.2 0 0 0 .063-.14m0 0"/><path id="r" d="M5.969-.578v-3.313c0-1.218-.516-1.718-1.735-1.718-1.203 0-1.75.828-1.921 1.156V-7.72c0-.39-.094-.578-.579-.578h-.437c-.438 0-.578.14-.578.578v7.14c0 .438.125.579.578.579h.469c.453 0 .578-.156.578-.578v-2.64c0-1.032.687-1.532 1.312-1.532.578 0 .688.281.688.89v3.282c0 .39.093.578.578.578h.484c.453 0 .563-.156.563-.578m0 0"/><path id="s" d="M8.594-5.14c-.031-.329-.25-.329-.625-.329-.563 0-.703.032-.875.657l-.969 3.468-1.016-3.593c-.062-.266-.156-.532-.703-.532-.172 0-.453 0-.61.266-.108.187-.64 2.25-1.062 3.656l-.953-3.39c-.125-.407-.25-.532-.734-.532h-.25c-.219 0-.469 0-.516.328L1.547-.547C1.703 0 2.016 0 2.313 0h.343c.563 0 .656-.172.781-.656.282-1 .704-2.5.766-3.125v-.016c.078.688.61 2.578.75 3.14.14.423.203.657.797.657h.813c.515 0 .64-.14.75-.547Zm0 0"/><path id="t" d="M5.672-.578v-3.203c0-1.89-1.828-1.89-2.422-1.89-.562 0-1.156.046-1.953.374-.25.11-.313.14-.313.281 0 .079.063.766.079.875a.17.17 0 0 0 .156.125c.062 0 .093-.03.125-.078.515-.531 1.125-.797 1.86-.797.64 0 .843.391.843 1.094v.422c-.422 0-3.563.031-3.563 1.781C.484-.75 1.156.125 2.22.125c.406 0 1.297-.11 1.86-.937v.234c0 .39.077.578.577.578h.438c.453 0 .578-.156.578-.578M4.047-1.844c0 1.11-1.14 1.11-1.172 1.11-.516 0-.828-.422-.828-.875 0-1.172 1.656-1.266 2-1.266Zm0 0"/><path id="u" d="M2.313-.578v-7.14c0-.391-.079-.579-.563-.579h-.453c-.422 0-.563.14-.563.578v7.14C.734-.14.86 0 1.297 0h.453c.453 0 .563-.156.563-.578m0 0"/><path id="v" d="M5.469-.594c0-.14-.047-.687-.078-.843 0-.032-.032-.157-.141-.157-.047 0-.078 0-.187.125-.204.172-.766.672-1.75.672-1.25 0-1.25-1.219-1.25-1.969 0-.968.062-1.984 1.28-1.984.782 0 1.11.203 1.532.547.14.14.172.14.219.14.125 0 .14-.109.156-.156.016-.093.14-.765.14-.828 0-.11-.077-.156-.28-.25-.579-.266-.938-.375-1.782-.375-1.781 0-2.89.828-2.89 2.922C.438-.766 1.468.125 3.28.125c.313 0 1.031 0 1.828-.406.344-.188.36-.203.36-.313m0 0"/><path id="w" d="M2.313-.578v-4.328c0-.375-.079-.563-.563-.563h-.453c-.422 0-.563.125-.563.563v4.328c0 .437.125.578.563.578h.453c.453 0 .563-.156.563-.578m.093-6.672v-.219c0-.39-.094-.578-.578-.578h-.61c-.452 0-.577.156-.577.578v.219c0 .36.062.578.578.578h.61c.5 0 .577-.219.577-.578m0 0"/><path id="x" d="M5.719-3.11c0-1.546-.703-2.562-2.485-2.562-1.921 0-2.859 1.063-2.859 2.89 0 1.954 1.125 2.907 3 2.907.469 0 1.14-.047 1.938-.453.25-.125.343-.156.343-.313 0-.078-.031-.421-.047-.515-.046-.375-.062-.39-.171-.39-.047 0-.079 0-.204.124a2.7 2.7 0 0 1-1.796.688c-1.36 0-1.5-1.063-1.532-1.828h3.25c.266 0 .563 0 .563-.547m-1.313-.078h-2.5c.047-.734.282-1.624 1.328-1.624.954 0 1.125.687 1.172 1.625m0 0"/><path id="y" d="M8.016-2.312c0-1.688-1.657-1.954-2.094-2.032 1.094-.25 1.734-.875 1.734-1.797 0-2.156-2.547-2.156-3.047-2.156H1.656c-.422 0-.562.14-.562.578v7.14c0 .438.125.579.562.579h3.282c.89 0 3.078-.156 3.078-2.312M6.03-6.11c0 1.359-1.578 1.359-1.875 1.359h-1.39v-2.516h1.406c.469 0 1.86.032 1.86 1.157m.328 3.765C6.36-1.109 5.08-1.03 4.5-1.03H2.766v-2.86H4.28c.422 0 2.078 0 2.078 1.547m0 0"/><path id="z" d="M6.188-2.687c0-1.97-.954-2.985-2.907-2.985-1.984 0-2.906 1.063-2.906 2.984C.375-.733 1.406.126 3.281.126s2.907-.86 2.907-2.812m-1.625-.141c0 .937 0 2.031-1.282 2.031C2-.797 2-1.875 2-2.828c0-.922 0-1.985 1.281-1.985s1.281 1.047 1.281 1.985m0 0"/><path id="A" d="M6.39-4.844c0-.047-.062-.328-.093-.453-.047-.281-.047-.312-.266-.312-.36 0-.968.14-1.422.422-.562-.375-1.171-.422-1.687-.422-.5 0-2.406 0-2.406 1.968 0 .485.125 1.079.578 1.485C.78-1.72.78-1.25.78-1.187c0 .218.063.609.313.937C.922-.172.297.031.297.797c0 .375.187 1 .937 1.344.672.312 1.485.328 2.047.328.703 0 2.985 0 2.985-1.703 0-1.86-1.688-1.86-3.297-1.86H2.39c-.438 0-.594 0-.766-.156-.047-.047-.25-.219-.25-.531 0-.078.016-.11.031-.172.547.297 1.266.297 1.516.297.5 0 2.39 0 2.39-1.969 0-.687-.25-1.11-.359-1.234.203 0 .61 0 1.11.125a.36.36 0 0 0 .171.046c.094 0 .157-.062.157-.156M3.798-3.64c0 .672-.047 1.125-.875 1.125-.844 0-.875-.453-.875-1.109s.031-1.125.875-1.125c.828 0 .875.453.875 1.11M5.03.797c0 .812-1.36.812-1.75.812-.469 0-1.75 0-1.75-.843 0-.563.375-.563.64-.563h1.392c.968 0 1.468.172 1.468.594m0 0"/><path id="B" d="M2.594 2.234c-.375-.5-1.25-1.64-.64-4.484.609-2.828 1.952-3.969 2.546-4.484h-.594c-1.25.89-2.265 2.422-2.703 4.484-.453 2.14-.031 3.625.813 4.484Zm0 0"/><path id="C" d="M6.313-4.406c.203-.953-.516-1.813-1.797-1.813H2.203L.875 0h.86l.546-2.562h1.453c1.266 0 2.36-.86 2.579-1.844m-.782 0c-.156.718-.843 1.297-1.89 1.297H2.375l.547-2.578h1.265c1.032 0 1.485.562 1.344 1.28m0 0"/><path id="D" d="M3.563-1.156a.97.97 0 0 0-.25-.89c-.25-.267-.5-.329-1.032-.423-.312-.062-.75-.156-.656-.578.11-.515.75-.515.89-.515.657 0 .985.203 1.22.343l.25-.625c-.5-.25-.907-.297-1.282-.297-.203 0-1.515 0-1.765 1.188a.9.9 0 0 0 .187.797c.281.297.5.344 1.078.469.281.046.781.14.672.609C2.75-.5 2.031-.5 1.906-.5c-.531 0-1-.187-1.328-.453l-.25.656c.469.281 1 .39 1.453.39.594 0 1.563-.187 1.782-1.25m0 0"/><path id="E" d="m3.922 0 .11-.562H2.89l1.172-5.5h-.188c-.734.578-1.594.578-1.906.578l-.11.562c.25 0 .704 0 1.25-.203L2.125-.562H.985L.858 0Zm0 0"/><path id="F" d="M4.531-1.828c.235-1.11-.375-2-1.328-2-.11 0-.547 0-1.047.36l.375-1.782h2.422l.125-.61h-3.11L1.267-2.53h.64c.438-.656.985-.703 1.157-.703.374 0 .843.28.609 1.406-.235 1.094-.953 1.437-1.5 1.437-.453 0-1.031-.218-1.235-.812L.5-.687c.094.203.547.89 1.563.89 1.124 0 2.234-.906 2.468-2.031m0 0"/><path id="G" d="M4.86-2.922c.171-.844.28-1.64.015-2.344-.203-.5-.687-.796-1.281-.796-.453 0-1.125.171-1.672.875-.578.703-.797 1.656-.938 2.265C.891-2.469.672-1.437.922-.719c.281.797.937.922 1.328.922.516 0 1.219-.219 1.766-.969.484-.656.687-1.437.843-2.156m-.72-.094c-.14.61-.265 1.22-.593 1.813-.344.61-.813.812-1.156.812-1.203 0-.813-1.78-.625-2.625.109-.578.203-1.03.437-1.5.313-.609.75-.968 1.266-.968 1.187 0 .844 1.625.672 2.468m0 0"/><path id="H" d="M3.328-2.25c.453-2.125.031-3.625-.812-4.484h-.578c.39.5 1.25 1.656.64 4.484C1.984.594.625 1.734.031 2.234h.594c1.234-.89 2.266-2.421 2.703-4.484m0 0"/><path id="I" d="M-2.078-4.937v.25c.828.093 1.812.218 1.812 1.671v.75c0 .36-.046.375-.328.375h-4.203c-.266 0-.375 0-.375-.75v-.25h-.266c.016.36.016.938.016 1.313l-.016 1.234h.266V-.53c0-.61.078-.625.375-.625H-.64c.297 0 .375.015.375.625v.187H0v-4.36Zm0 0"/><path id="J" d="M-1.703-3.984c-.984 0-1.844.828-1.844 1.875s.86 1.875 1.844 1.875c1 0 1.781-.86 1.781-1.875 0-1.032-.781-1.875-1.781-1.875m-.063.703c.36 0 .797.015 1.141.25.313.203.453.562.453.922 0 .422-.203.765-.484.937-.328.203-.719.219-1.11.219-.312 0-.78 0-1.125-.235a1.14 1.14 0 0 1-.437-.921c0-.422.203-.766.469-.938.343-.219.765-.234 1.093-.234m0 0"/><path id="K" d="M0-4.422h-.266c0 .547-.046.61-.437.61h-4.828l.093 1.187h.266c0-.531.047-.61.438-.61h1.687a1.4 1.4 0 0 0-.469 1.079c0 1 .782 1.875 1.797 1.875.985 0 1.797-.797 1.797-1.797 0-.469-.219-.86-.5-1.125h.5Zm-.984 1.219c.14 0 .172 0 .328.125.328.219.515.578.515.953s-.187.688-.484.875c-.312.219-.703.266-1.078.266-.469 0-.797-.079-1.063-.266a1.15 1.15 0 0 1-.53-.953c0-.375.202-.766.608-1Zm0 0"/><path id="L" d="M-.719-4.094h-.437v.25h.437c.328 0 .453.11.453.281 0 .297-.359.297-.453.297h-1.656c-.781 0-1.172.75-1.172 1.485 0 .656.25 1.25.781 1.25a.36.36 0 0 0 .375-.375.36.36 0 0 0-.375-.375.356.356 0 0 0-.359.297c-.203-.297-.203-.735-.203-.782 0-.453.312-.89.969-.89h.234c.031.453.047.984.281 1.547.313.703.766.843 1.032.843.687 0 .89-.812.89-1.359a1.23 1.23 0 0 0-.64-1.11c.296-.046.609-.25.609-.609 0-.078-.031-.75-.766-.75m-.406 1.438c.781 0 .984.64.984.969 0 .406-.28.765-.671.765-.516 0-1.063-.5-1.094-1.734Zm0 0"/><path id="M" d="M-1-2.812h-.437v.25h.421c.547 0 .844.25.844.546 0 .532-.687.532-.812.532h-2.188v-1.188h-.265v1.188h-1.47v.25c.735 0 1.485.328 1.516 1.078h.22v-.719H-1c.938 0 1.078-.719 1.078-1.078 0-.547-.469-.86-1.078-.86m0 0"/><path id="N" d="M-.953-3.516a.12.12 0 0 0-.11.125c0 .094.047.11.094.125.782.282.797.97.797 1.11 0 .36-.156.734-.531.969-.36.234-.875.234-1.11.234v-2.344c0-.172 0-.219-.187-.219-.703 0-1.547.391-1.547 1.516 0 .984.813 1.766 1.797 1.766 1.031 0 1.828-.86 1.828-1.875 0-1-.844-1.407-1.031-1.407m-1.078.547v2.016c-1.11-.078-1.297-.75-1.297-1.047 0-.937 1.125-.969 1.297-.969m0 0"/><path id="O" d="M0-2.734h-.266v.187c0 .64-.078.656-.375.656h-4.156c-.297 0-.375-.015-.375-.656v-.187h-.266l.016 1.218-.016 1.204h.266V-.5c0-.625.078-.656.375-.656H-.64c.297 0 .375.031.375.656v.188H0l-.031-1.204Zm0 0"/><path id="P" d="M0-2.078h-.266c0 .531-.03.562-.343.562h-2.907l.094 1.157h.266c0-.516.047-.578.437-.578h2.094c.36 0 .36.093.36.609H0c-.031-.313-.031-.766-.031-.89 0-.095 0-.579.031-.86m-4.797.453a.453.453 0 0 0-.453.453.45.45 0 0 0 .453.438.437.437 0 0 0 .438-.438.45.45 0 0 0-.438-.453m0 0"/><path id="Q" d="M-1.719-4.422c-1 0-1.797.813-1.797 1.781 0 .313.079.766.5 1.172h-.5l.094 1.188h.266c0-.563.047-.61.375-.61H.922c.36 0 .36.11.36.61h.265c-.031-.344-.031-.688-.031-.906 0-.235 0-.563.03-.907h-.265c0 .516 0 .61-.36.61H-.39a1.37 1.37 0 0 0 .47-1.047c0-1-.782-1.89-1.798-1.89m0 .719c.907 0 1.578.578 1.578 1.219 0 .28-.125.64-.515.906-.14.094-.156.094-.297.094h-1.703a1.3 1.3 0 0 1-.61-1.094c0-.61.672-1.125 1.547-1.125m0 0"/><path id="R" d="M-.437-1.625a.453.453 0 0 0-.454.453c0 .266.22.438.438.438A.44.44 0 0 0 0-1.172a.45.45 0 0 0-.437-.453m0 0"/><path id="S" d="M0-3.562h-.266v.28c0 .75-.093.782-.39.782h-4.422c-.219 0-.219.016-.219.234.313.329.5.75.5 1.5h.266c0-.218 0-.64-.203-1.109h4.078c.297 0 .39.031.39.781v.282H0c-.031-.329-.031-1.016-.031-1.375 0-.36 0-1.047.031-1.376m0 0"/><path id="T" d="M-2.547-3.89c-.844 0-1.36.078-1.875.343-.703.344-.875 1-.875 1.438 0 1 .75 1.375.969 1.484.578.281 1.375.297 1.781.297.531 0 1.328-.016 1.969-.406.594-.36.75-.953.75-1.375 0-.391-.125-1.063-.906-1.47-.578-.296-1.297-.312-1.813-.312m-.094.703c.47 0 1.188 0 1.641.093.828.172.938.719.938.985 0 .265-.125.812-.954.984-.453.094-1.203.094-1.625.094-.546 0-1.109 0-1.546-.094-.813-.172-.891-.781-.891-.984 0-.266.14-.828.86-.985.437-.094 1.046-.094 1.577-.094m0 0"/><path id="U" d="M0 6.047h.266v-.14c0-.5.062-.579.328-.673l4.922-1.859c.109-.047.172-.062.172-.203 0-.14-.063-.172-.172-.203L.828 1.188C.61 1.109.266.938.266.28H0c.031.266.031.688.031.828 0 .25 0 .5-.031.875h.266c0-.343.172-.546.39-.546a.4.4 0 0 1 .172.03l1 .376v2.172l-1.187.453C.547 4.5.5 4.5.5 4.5c-.234 0-.234-.406-.234-.64H0L.031 5c0 .438 0 .594-.031 1.047m2.094-2.14v-1.97l2.594 1Zm0 0"/><path id="V" d="M0 2.125h.266c0-.5 0-.61.359-.61h4.906L5.438.329h-.266c0 .547-.047.61-.438.61H.625c-.36 0-.36-.094-.36-.61H0c.031.313.031.766.031.906 0 .157 0 .579-.031.891m0 0"/><path id="W" d="M.953 3.516a.12.12 0 0 0 .11-.125c0-.094-.047-.11-.094-.125a1.14 1.14 0 0 1-.797-1.11c0-.36.156-.734.531-.969.36-.234.875-.234 1.11-.234v2.344c0 .172 0 .219.187.219.703 0 1.547-.391 1.547-1.516 0-.984-.813-1.766-1.797-1.766-1.031 0-1.828.86-1.828 1.875 0 1 .844 1.407 1.031 1.407m1.078-.547V.953c1.11.078 1.297.75 1.297 1.047 0 .938-1.125.969-1.297.969m0 0"/><path id="X" d="M0 4.484h.266c0-.546.046-.609.437-.609h2.813l-.094-1.219h-.266c0 .547-.047.61-.437.61h-1.39C.64 3.266.14 2.859.14 2.25c0-.687.343-.719.75-.719h2.625L3.422.328h-.266c0 .61-.015.61-.719.61H1.235c-.578 0-1.312 0-1.312 1.265 0 .75.578 1.047.64 1.078v.016h-.64Zm0 0"/><path id="Y" d="M3.172 4.281h.265c-.03-.265-.03-.281-.03-.625 0-.031 0-.453.03-.687h-.265c-.016.234-.14.344-.328.344-.047 0-.11 0-.203-.047L.719 2.422l2.094-.938c.109-.046.124-.046.156-.046.187 0 .203.25.203.421h.265c-.03-.359-.03-.703-.03-.875 0-.171 0-.546.03-.812h-.265c0 .422-.016.531-.313.672L0 2.094C-.844 1.734-1.406 1.5-1.406.938c0-.204.093-.329.093-.329.016.063.11.25.344.25A.336.336 0 0 0-.625.516c0-.172-.11-.344-.36-.344-.343 0-.64.344-.64.766 0 .718.86 1.093.938 1.125L2.625 3.53c.453.203.531.5.547.75m0 0"/><path id="Z" d="M.719 4.094h.437v-.25H.72c-.328 0-.453-.11-.453-.281 0-.297.359-.297.453-.297h1.656c.781 0 1.172-.75 1.172-1.485 0-.656-.25-1.25-.781-1.25a.36.36 0 0 0-.375.375c0 .219.156.375.375.375a.356.356 0 0 0 .359-.297c.203.297.203.735.203.782 0 .453-.312.89-.969.89h-.234c-.031-.453-.047-.984-.281-1.547C1.53.406 1.078.266.813.266c-.688 0-.891.812-.891 1.359 0 .578.328.938.64 1.11-.296.046-.609.25-.609.609 0 .078.031.75.766.75m.406-1.438c-.781 0-.984-.64-.984-.969 0-.406.28-.765.672-.765.515 0 1.062.5 1.093 1.734Zm0 0"/><path id="aa" d="M.031 1.719c.438 0 .86-.172.86-.547A.436.436 0 0 0 .453.734C.203.734 0 .906 0 1.172c0 .187.094.297.125.312-.25 0-.89 0-1.469-.593-.015-.032-.031-.047-.078-.047-.078 0-.125.062-.125.11 0 .093.625.765 1.578.765m0 0"/><path id="ab" d="M1.719 4.422c1 0 1.797-.828 1.797-1.797 0-.64-.344-1.016-.485-1.156h2.5L5.438.28h-.266c0 .547-.047.61-.438.61H0v.234l.5.297a1.32 1.32 0 0 0-.578 1.11c0 1 .781 1.89 1.797 1.89m.015-.719c-.187 0-.75 0-1.125-.281C.25 3.125.141 2.75.141 2.5c0-.39.203-.703.515-.922.156-.094.156-.094.313-.094h1.547c.156 0 .172 0 .312.125.297.235.469.61.469.97 0 .405-.25.718-.485.874-.218.14-.5.25-1.078.25m0 0"/><path id="ac" d="M0 4.422h.266c0-.547.046-.61.437-.61h4.828l-.093-1.187h-.266c0 .531-.047.61-.438.61H3.047c.312-.282.469-.657.469-1.079 0-1-.782-1.875-1.797-1.875-.985 0-1.797.797-1.797 1.797 0 .469.219.86.5 1.125h-.5Zm.984-1.219c-.14 0-.171 0-.328-.125a1.15 1.15 0 0 1-.515-.953c0-.375.187-.687.484-.875.313-.219.703-.266 1.078-.266.469 0 .797.079 1.063.266.297.188.53.547.53.953 0 .375-.202.766-.608 1Zm0 0"/><path id="ad" d="M1.469 4.219a1.62 1.62 0 0 0 1.594-1.266l.265-1.094c.11-.515.516-.89 1-.89.547 0 1.047.469 1.047 1.156 0 1.375-1.297 1.563-1.594 1.61-.094.015-.14.015-.14.124 0 .125.046.125.203.125h1.562c.125 0 .203 0 .203-.109 0-.062-.015-.078-.109-.125l-.453-.281c.437-.406.562-.906.562-1.344 0-.953-.718-1.656-1.53-1.656-.61 0-.938.344-1.095.5-.28.281-.343.547-.546 1.406-.157.688-.188.797-.47 1.063a1.08 1.08 0 0 1-.734.28c-.562 0-1.14-.421-1.14-1.171 0-.875.422-1.781 1.531-1.828.125-.016.188-.016.188-.125 0-.125-.063-.125-.22-.125H.048c-.14 0-.219 0-.219.11 0 .062.016.062.094.124.047.031.125.063.453.281-.437.5-.547 1.094-.547 1.579 0 .984.797 1.656 1.64 1.656m0 0"/><path id="ae" d="M0 4.484h.266c0-.515 0-.609.359-.609h1.797c.656 0 1.094-.312 1.094-1.14a1.38 1.38 0 0 0-.766-1.25h.766L3.422.327h-.266c0 .547-.047.61-.437.61H.625c-.36 0-.36-.094-.36-.61H0c.031.344.031.688.031.906 0 .235 0 .563-.031.907h.266c0-.5 0-.61.359-.61h1.438c.843 0 1.234.64 1.234 1.125s-.344.61-.844.61H.625c-.36 0-.36-.094-.36-.61H0c.031.344.031.703.031.906 0 .235 0 .579-.031.922m5.047-.718.156-.157c-.36-.328-.36-.578-.36-.671 0-.188.079-.344.173-.532.109-.219.187-.36.187-.547 0-.312-.172-.468-.64-.906l-.157.156c.36.329.36.579.36.672 0 .172-.079.344-.188.532-.094.218-.172.359-.172.546 0 .313.172.47.64.907m0 0"/><path id="af" d="M1.703 3.984c.984 0 1.844-.828 1.844-1.875 0-1.046-.86-1.875-1.844-1.875-1 0-1.781.86-1.781 1.875 0 1.032.781 1.875 1.781 1.875m.063-.703c-.36 0-.797-.015-1.141-.25C.313 2.828.172 2.47.172 2.11c0-.421.203-.765.484-.937.328-.203.719-.219 1.11-.219.312 0 .78 0 1.125.235.28.218.437.546.437.921 0 .422-.203.766-.469.938-.343.219-.765.234-1.093.234m0 0"/><path id="ag" d="M3.016 3.063c.28 0 .5-.25.5-.61 0-.515-.391-.875-.844-1.031v-.016h.844L3.422.281h-.266c0 .547-.047.61-.437.61H.625C.265.89.265.78.265.28H0c.031.313.031.75.031.938 0 .468 0 .484-.031 1h.266v-.156c0-.579.078-.594.375-.594h1.172c.609 0 1.468.25 1.484 1.015-.031-.046-.094-.14-.281-.14-.25 0-.36.203-.36.36 0 .187.125.358.36.358m0 0"/><path id="ah" d="M1.719 4.422c1 0 1.797-.813 1.797-1.781 0-.313-.079-.766-.5-1.172h.5L3.422.28h-.266c0 .563-.047.61-.375.61H-.922c-.36 0-.36-.11-.36-.61h-.265c.031.344.031.688.031.907 0 .234 0 .562-.03.906h.265c0-.516 0-.61.36-.61H.39a1.37 1.37 0 0 0-.47 1.047c0 1 .782 1.89 1.798 1.89m0-.719C.812 3.703.14 3.125.14 2.484c0-.28.125-.64.515-.906.14-.094.156-.094.297-.094h1.703c.313.188.61.594.61 1.094 0 .61-.672 1.125-1.547 1.125m0 0"/><path id="ai" d="M.438 1.625a.453.453 0 0 0 .453-.453.436.436 0 0 0-.438-.438.44.44 0 0 0-.453.438.45.45 0 0 0 .438.453m0 0"/><path id="aj" d="M0 3.563h.266V3.28c0-.75.093-.781.39-.781h4.422c.219 0 .219-.016.219-.234-.313-.328-.5-.75-.5-1.5H4.53c0 .218 0 .64.203 1.109H.656c-.297 0-.39-.031-.39-.781V.812H0c.031.329.031 1.016.031 1.376s0 1.046-.031 1.374m0 0"/><path id="ak" d="M1.36 3.875c.671 0 1.265-.531 1.453-1.344.218.625.75 1.11 1.39 1.11s1.094-.72 1.094-1.547c0-.86-.453-1.5-1.063-1.5-.296 0-.421.187-.421.406 0 .25.171.406.406.406.297 0 .406-.265.406-.437.438.344.469.953.469 1.094 0 .203-.063.812-.89.812-.548 0-.891-.234-1.016-.344-.25-.234-.266-.422-.297-.906 0-.156-.016-.219-.125-.219-.11 0-.11.078-.11.219v.39c0 .626-.453 1.032-1.297 1.032-1 0-1.28-.563-1.28-.985 0-.437.155-1.046.577-1.328 0 .297.188.5.438.5.265 0 .437-.187.437-.453 0-.203-.125-.437-.453-.437-.75 0-1.25.812-1.25 1.734 0 1.047.734 1.797 1.531 1.797m0 0"/><path id="al" d="M13.61-7.687v-.516l-1.297.031c-.344 0-1.22 0-1.5-.031v.515c.14 0 1.187 0 1.187.172 0 0 0 .032-.047.141L9.938-2.047l-2.126-5.64h1.125v-.516c-.374.031-1.484.031-1.937.031-.375 0-1.531 0-1.828-.031v.515h1.016l.484 1.297-1.64 4.344-2.126-5.64h1.125v-.516c-.343.031-1.515.031-1.953.031-.375 0-1.515 0-1.812-.031v.515h1L4.109-.171c.079.203.11.281.375.281.266 0 .297-.078.375-.28l2.079-5.5 2.093 5.5c.063.202.094.28.36.28.234 0 .297-.046.375-.28L12.5-7.407c.094-.203.11-.282 1.11-.282m0 0"/><path id="ax" d="M9.953 0v-.516h-.312c-.657 0-.703-.062-.813-.218L5.61-5.047l2.844-2.406c.156-.14.266-.234 1.328-.234v-.516L8.5-8.172c-.36 0-1.297 0-1.594-.031v.515c.266 0 .547.016.86.141l-4.47 3.813v-3.953h1.267v-.516c-.344.031-1.625.031-2.047.031-.438 0-1.72 0-2.063-.031v.515H1.72v7.172H.453V0c.344-.031 1.625-.031 2.063-.031.422 0 1.703 0 2.047.031v-.516H3.297v-2.562L4.53-4.125l2.5 3.344c.016.031.063.094.063.14 0 .125-.578.125-.844.125V0c.39-.031 1.5-.031 1.953-.031.36 0 1.485 0 1.75.031m0 0"/><path id="bi" d="M6.14-2.469c0-1.672-1.156-2.547-2.577-2.547-.235 0-1 0-1.485 1.016v-.328c0-.734.031-1.469.375-2.11.266-.5.875-.968 1.64-.968.235 0 .657.031.954.328-.453.047-.64.39-.64.703 0 .438.312.703.702.703.313 0 .704-.203.704-.719 0-.718-.485-1.453-1.735-1.453-1.5 0-3.516.938-3.516 4.047 0 .813 0 3.938 2.829 3.938 1.578 0 2.75-.922 2.75-2.61m-1.515 0c0 1.172 0 2.14-1.25 2.14-.75 0-1.062-.655-1.11-.75-.156-.39-.156-1.343-.156-1.452 0-1.469.625-2.094 1.329-2.094 1.187 0 1.187.953 1.187 2.156m0 0"/><path id="bj" d="M6.031-2.406c0-1.453-.984-2.5-2.625-2.5-.484 0-1.047.093-1.562.484v-1.781c.406.094.718.094.906.094.281 0 .969 0 1.766-.485.375-.234 1-.765 1-1.047 0-.062 0-.203-.157-.203 0 0-.03 0-.14.063-.563.187-1.14.328-1.813.328-.687 0-1.25-.14-1.812-.344-.094-.016-.125-.047-.157-.047-.14 0-.14.125-.14.328v3.47c0 .234 0 .359.234.359.125 0 .14 0 .235-.126.14-.171.578-.687 1.593-.687 1.094 0 1.094 1.125 1.094 2.063 0 .859 0 2.109-1.469 2.109-.437 0-1.187-.172-1.593-.86.625 0 .78-.468.78-.734a.72.72 0 0 0-.75-.75c-.359 0-.75.203-.75.766C.672-.86 1.61.14 3.032.14c1.844 0 3-1.063 3-2.547m0 0"/><path id="am" d="M6.828-7.234c.063-.282.016-.578-.125-.75-.234-.328-.672-.407-1.125-.407-.719 0-1.406.094-2.062.625-.438.344-.766.829-.891 1.313-.11.469-.11.937.14 1.266.172.25.47.421.782.53l-.031.126a3.46 3.46 0 0 0-1.766.734C1.172-3.328.734-2.719.563-2.062.438-1.532.438-.984.734-.61c.204.265.516.437.829.562.406.14.859.188 1.328.188.89 0 1.797-.328 2.578-.953.11-.079.265-.297.39-.454l-.39-.578-.157.032c-.125.343-.312.656-.593.875-.469.375-1 .656-1.532.656-.562 0-1.14-.094-1.437-.5-.297-.39-.312-.922-.187-1.469.14-.547.453-1.062.921-1.437.344-.266.782-.407 1.157-.5.562-.125 1.109-.157 1.672-.157l.062-.312c-.406 0-.797-.032-1.172-.14-.25-.063-.5-.173-.656-.391-.219-.282-.266-.704-.172-1.125.14-.516.453-1.032.89-1.391.298-.25.688-.313 1.032-.313.281 0 .469.063.61.204a.5.5 0 0 1 .109.468c-.047.203-.157.328-.266.453-.078.094-.14.172-.187.282a.36.36 0 0 0 .03.234c.079.094.126.094.266.094s.422-.078.625-.266c.22-.234.282-.437.344-.687m0 0"/><path id="aq" d="M9.766-8.062v-.235c-.344.031-.891.11-1.297.266-.36.125-.719.312-1.031.5-.5.297-.907.797-1.25 1.265-.547.75-1 1.485-1.485 2.266-.516.828-1.328 2.156-1.578 2.469s-.547.687-.86.937a.88.88 0 0 1-.562.219c-.094 0-.203-.031-.266-.11-.03-.062-.093-.124-.062-.218s.063-.188.11-.281c.015-.063.062-.157.062-.203a.22.22 0 0 0-.031-.22c-.063-.093-.172-.155-.328-.155a.58.58 0 0 0-.375.109.82.82 0 0 0-.297.437c-.079.313-.047.61.109.844a.87.87 0 0 0 .672.297c.469 0 .969-.25 1.39-.578.5-.406 1.407-1.328 2.047-2.375h2.641l-.469 1.89a2 2 0 0 0-.093.594c.015.125.03.266.093.36.078.109.235.156.39.156.298 0 .61-.14.876-.297.453-.25.86-.547 1.25-.906l-.14-.203a5 5 0 0 1-.563.39.83.83 0 0 1-.469.172c-.094 0-.187-.015-.25-.094-.156-.203-.14-.484-.094-.78.157-.829.36-1.688.563-2.516l.86-3.47c.062-.218.108-.327.25-.421Zm-1.188.437L7.5-3.328H5.063c.5-.922 1-1.828 1.578-2.703.343-.5.672-1 1.14-1.375.235-.172.485-.297.719-.344Zm0 0"/><path id="av" d="M9.766-4.687c.234-.891.28-1.829-.188-2.454-.328-.421-.797-.671-1.328-.843-.687-.22-1.437-.235-2.219-.235l.078-.297-.078-.046-.812.374c-.875.063-1.89.313-2.766 1-.437.344-.781.829-.906 1.329-.047.234-.063.453 0 .593a.29.29 0 0 0 .266.172.56.56 0 0 0 .39-.172c.125-.093.188-.25.219-.39.078-.266.047-.469.11-.735A1.35 1.35 0 0 1 3-7.109a3.32 3.32 0 0 1 2.125-.735L4.203-4.14c-.14.579-.297 1.172-.562 1.75-.141.344-.36.704-.657.954-.609.5-1.328.796-2.015.796l-.485.594h3.47c1.25 0 2.53-.484 3.624-1.36 1.094-.859 1.875-2.046 2.188-3.28m-.891.062c-.156.625-.36 1.25-.703 1.828-.266.485-.61.938-1.047 1.281a3.5 3.5 0 0 1-1.297.704c-.578.171-1.156.171-1.719.171H2.656l-.015-.125.53-.437c.517-.438.923-1 1.235-1.563a9.8 9.8 0 0 0 .844-2.28l.688-2.798c.593 0 1.14.047 1.671.219.391.125.75.297 1 .61.47.624.485 1.515.266 2.39m0 0"/><path id="an" d="M7.406 0 4.391-8.297H3.328L.328 0h.875l.875-2.422h3.375L6.328 0ZM5.203-3.094h-2.86l1.423-4.344Zm0 0"/><path id="ao" d="M1.813 0v-8.297H.938V0Zm0 0"/><path id="ap" d="M4.86-2.687c0-.516-.048-1.25-.423-1.876-.5-.828-1.328-.921-1.671-.921C1.469-5.484.39-4.25.39-2.687.39-1.11 1.547.124 2.92.124c.563 0 1.22-.156 1.876-.64 0-.047-.047-.438-.047-.438s-.031-.281-.031-.328c-.703.593-1.407.687-1.766.687-.922 0-1.703-.828-1.734-2.093Zm-.704-.641h-2.86c.204-.813.767-1.438 1.47-1.438.359 0 1.187.157 1.39 1.438m0 0"/><path id="ar" d="M5.063 0v-5.312h-.907v3.421c0 .907-.625 1.36-1.406 1.36-.844 0-.922-.313-.922-.844v-3.937H.922v3.984c0 .86.265 1.453 1.25 1.453.344 0 1.281-.062 2.015-.719V0Zm0 0"/><path id="as" d="M2.14.703v-6.015h-.89v6.14c0 .781-.625.86-.875.86-.531 0-.86-.344-.875-.375l-.234.718c.375.235.859.406 1.406.406.75 0 1.469-.624 1.469-1.734m0-7.5v-1.016H1.11v1.016Zm0 0"/><path id="at" d="M4.797 0v-3.5c0-1.156-.828-1.984-1.938-1.984-.718 0-1.25.172-1.843.5l.078.78c.515-.374 1.062-.593 1.765-.593.547 0 1.032.453 1.032 1.313v.5c-.547.015-1.266.062-1.985.297C1.11-2.422.641-1.97.641-1.375c0 .531.312 1.5 1.328 1.5.656 0 1.5-.203 1.937-.562V0ZM3.89-1.61c0 .25 0 .532-.407.766-.312.203-.718.25-.906.25-.64 0-1.078-.343-1.078-.797 0-.812 1.656-.984 2.39-.984Zm0 0"/><path id="au" d="M2.11-.016v-.953h-.97V0h.298L1.14 1.5h.468Zm0 0"/><path id="aw" d="M2.11 0v-.969h-.97V0Zm0 0"/><path id="ay" d="m6.875-.531-.078-.844c-.313.234-.672.484-1.063.61-.375.124-.78.14-1.187.14-.766 0-1.469-.422-1.938-1.031-.546-.703-.796-1.594-.796-2.485 0-.906.25-1.796.796-2.5.47-.609 1.172-1.03 1.938-1.03.36 0 .719.03 1.062.14.344.125.672.297.97.515l.171-1a5.6 5.6 0 0 0-1.078-.312 5.6 5.6 0 0 0-1.125-.094c-1.031 0-1.984.469-2.656 1.25C1.14-6.344.78-5.266.78-4.14c0 1.094.36 2.188 1.11 3.016.672.766 1.625 1.25 2.656 1.25.406 0 .812-.016 1.219-.125.406-.125.765-.328 1.109-.531m0 0"/><path id="az" d="M5.063 0v-3.594c0-.734-.157-1.828-1.594-1.828-.828 0-1.375.469-1.656.813v-3.688H.922V0h.906v-2.969c0-.75.281-1.734 1.188-1.734 1.109 0 1.14.766 1.14 1.187V0Zm0 0"/><path id="aA" d="M7.766-5.312H6.89l-.703 2.437c-.172.563-.516 1.688-.563 2.203-.047-.281-.234-1.078-.484-1.937l-.797-2.703H3.53L2.844-2.97c-.219.75-.5 1.781-.531 2.282h-.016c-.016-.235-.14-.86-.375-1.672l-.844-2.953H.172L1.766 0h.922c.453-1.5 1.156-3.781 1.218-4.61h.016c.015.485.265 1.344.344 1.626L5.109 0h1.063Zm0 0"/><path id="aB" d="M4.86-.5c0-.031-.032-.406-.048-.453l-.015-.344a2.8 2.8 0 0 1-1.828.672c-1 0-1.64-.875-1.64-2.047 0-.984.484-2.078 1.671-2.078.797 0 1.14.203 1.656.547l.14-.781c-.702-.407-1.093-.5-1.796-.5-1.656 0-2.578 1.453-2.578 2.812C.422-1.14 1.516.125 2.953.125c.578 0 1.25-.156 1.906-.625m0 0"/><path id="aC" d="M1.813 0v-5.312H.938V0Zm.078-6.797v-1.016H.859v1.016Zm0 0"/><path id="aD" d="M7.11-2.25c0-1.047-1.032-1.89-2.266-2.094 1.39-.375 1.937-1.172 1.937-1.875 0-1.078-1.218-2.078-2.906-2.078H1.109V0h3.094C5.875 0 7.11-1.078 7.11-2.25M5.86-6.203c0 .844-1.032 1.531-2.298 1.531H2.079v-2.953h1.469c1.281 0 2.312.625 2.312 1.422m.312 3.937c0 .844-.969 1.594-2.313 1.594H2.08v-3.281h1.593c1.547 0 2.5.86 2.5 1.687m0 0"/><path id="aE" d="M5.484-2.625c0-1.625-1.187-2.86-2.562-2.86-1.406 0-2.563 1.266-2.563 2.86 0 1.563 1.188 2.75 2.563 2.75 1.406 0 2.562-1.219 2.562-2.75m-.906-.125c0 1.469-.844 2.125-1.656 2.125-.86 0-1.656-.719-1.656-2.125 0-1.453.89-2.016 1.656-2.016.812 0 1.656.625 1.656 2.016m0 0"/><path id="aF" d="m5.672-4.703-.125-.719c-.234 0-1.047 0-1.828.39-.39-.327-.875-.39-1.11-.39-1.046 0-1.875.875-1.875 1.922 0 .422.125.828.391 1.188a1.64 1.64 0 0 0-.344 1.015c0 .453.156.75.297.906C.468 0 .328.516.328.844c0 .875 1.125 1.61 2.594 1.61 1.453 0 2.594-.704 2.594-1.61 0-1.688-1.938-1.688-2.422-1.688H2.078c-.172 0-.672 0-.672-.625 0-.265.047-.343.11-.437.203.14.593.343 1.078.343 1.031 0 1.875-.859 1.875-1.937a2.13 2.13 0 0 0-.36-1.156 7 7 0 0 1 .954-.063c.046 0 .312 0 .609.016M3.64-3.5c0 1.063-.672 1.281-1.032 1.281-.53 0-1.062-.36-1.062-1.265 0-1.063.672-1.282 1.047-1.282.531 0 1.047.36 1.047 1.266M4.688.844c0 .562-.829.953-1.766.953-.922 0-1.766-.375-1.766-.953 0-.047 0-.813.907-.813h1.046c.266 0 1.579 0 1.579.813m0 0"/><path id="aG" d="M4.531-1.766v-6.53h-1v6.483c0 .688-.344 1.329-1.39 1.329a1.96 1.96 0 0 1-1.485-.657L.484-.25c.704.36 1.375.5 2 .5 1.25 0 2.047-.734 2.047-2.016m0 0"/><path id="aH" d="M4.203-1.516c0-.609-.36-1-.406-1.046-.453-.47-.813-.532-1.531-.672-.438-.094-1.047-.203-1.047-.813 0-.734.843-.734 1-.734.625 0 1.125.14 1.656.437l.14-.765a3.9 3.9 0 0 0-1.687-.375c-.265 0-1.937 0-1.937 1.547 0 .53.297.89.468 1.062.438.36.735.422 1.438.563.39.093 1.078.234 1.078.859 0 .828-.922.828-1.094.828A3.12 3.12 0 0 1 .47-1.219l-.14.813c.046.031.859.531 1.968.531 1.547 0 1.906-.937 1.906-1.64m-.312-6.78h-.922l-1.547 2h.719Zm0 0"/><path id="aI" d="M4.86-2.687c0-.516-.048-1.25-.423-1.876-.5-.828-1.328-.921-1.671-.921C1.469-5.484.39-4.25.39-2.687.39-1.141 1.5.078 2.844.124c-.531.344-.875.828-.828 1.39 0 .516.375 1.016 1.172 1.016.39 0 .703-.062 1.171-.297l-.156-.703c-.266.11-.547.172-.812.172-.328-.031-.625-.094-.625-.453-.016-.531.5-.969 1.047-1.281.328-.094.64-.25.984-.485 0-.046-.047-.437-.047-.437s-.031-.281-.031-.328c-.703.593-1.407.687-1.766.687-.922 0-1.703-.828-1.734-2.093Zm-.704-.641h-2.86c.204-.813.767-1.438 1.47-1.438.359 0 1.187.157 1.39 1.438m0 0"/><path id="aJ" d="m3.89-.344-.171-.703c-.422.375-.86.422-1.078.422-.532 0-.594-.562-.594-.984v-3h1.64v-.703h-1.64v-1.516h-.828v1.516h-1v.703h.969v3.203c0 .703.156 1.531.984 1.531.797 0 1.36-.281 1.719-.469m0 0"/><path id="aK" d="M5.172-5.312h-.89c-.548 1.421-1.47 3.765-1.516 4.625H2.75c-.062-.72-.687-2.282-.797-2.532L1.11-5.312H.172L2.39 0l-.422 1.094c-.266.593-.438.656-.657.656-.171 0-.546-.047-.921-.187l.078.78c.062.016.469.095.844.095.296 0 .843 0 1.359-1.313Zm0 0"/><path id="aL" d="M8.328 0v-3.594c0-.828-.219-1.828-1.61-1.828-1.015 0-1.577.703-1.765.969-.203-.766-.86-.969-1.484-.969-.985 0-1.5.625-1.703.875v-.812H.922V0h.906v-2.969c0-.797.313-1.734 1.188-1.734 1.093 0 1.156.75 1.156 1.187V0h.906v-2.969c0-.797.313-1.734 1.188-1.734 1.093 0 1.156.75 1.156 1.187V0Zm0 0"/><path id="aM" d="M5.563-2.672c0-1.437-.75-2.75-1.875-2.75-.485 0-1.25.156-1.876.672v-.562H.939v7.625h.906V-.531c.406.36.906.656 1.547.656 1.156 0 2.172-1.172 2.172-2.797m-.907.016c0 1.203-.812 2.062-1.703 2.062-.328 0-.562-.125-.781-.297-.297-.25-.328-.468-.328-.656v-2.469a1.47 1.47 0 0 1 1.219-.671c.874 0 1.593.89 1.593 2.03m0 0"/><path id="aN" d="M3.797-4.625v-.797c-1.078 0-1.719.64-2.047 1.11V-5.36H.938V0h.875v-2.625c0-1.203.906-1.984 1.984-2m0 0"/><path id="aO" d="M4.703 0v-.734H2.984c-.14 0-.28.015-.421.015H1.547l3.11-4.125v-.468H.483v.703h2.953L.329-.484V0Zm0 0"/><path id="aP" d="M5.563-2.672c0-1.469-.782-2.75-1.891-2.75-.344 0-1.11.063-1.86.672v-3.547H.939V0h.906v-.531c.547.515 1.125.656 1.547.656 1.14 0 2.172-1.172 2.172-2.797m-.907 0c0 1.563-.968 2.078-1.703 2.078-.328 0-.562-.125-.781-.297-.281-.25-.328-.453-.328-.656V-4.03c.218-.328.64-.672 1.234-.672.719 0 1.578.547 1.578 2.031m0 0"/><path id="aQ" d="M5.469 0 3.25-3.266l1.969-2.046h-1.11L1.813-2.906v-5.39H.938V0h.828v-1.719l.906-.953L4.5 0Zm0 0"/><path id="aR" d="M5.063 0v-3.594c0-.734-.157-1.828-1.594-1.828-.672 0-1.25.297-1.703.875v-.812H.922V0h.906v-2.969c0-.75.281-1.734 1.188-1.734 1.109 0 1.14.766 1.14 1.187V0Zm0 0"/><path id="aS" d="M4.203-1.516c0-.609-.36-1-.406-1.046-.453-.47-.813-.532-1.531-.672-.438-.094-1.047-.203-1.047-.813 0-.734.843-.734 1-.734.625 0 1.125.14 1.656.437l.14-.765a3.9 3.9 0 0 0-1.687-.375c-.265 0-1.937 0-1.937 1.547 0 .53.297.89.468 1.062.438.36.735.422 1.438.563.39.093 1.078.234 1.078.859 0 .828-.922.828-1.094.828A3.12 3.12 0 0 1 .47-1.219l-.14.813c.046.031.859.531 1.968.531 1.547 0 1.906-.937 1.906-1.64m0 0"/><path id="aT" d="M5.344-7.344v-.968h-.969v.968ZM5.312 0v-5.312h-.89V0ZM3.438-4.61v-.702h-1.39v-1.454c0-.718.375-.937.703-.937.266 0 .531.094.688.219v-.813c-.235-.094-.313-.125-.688-.125-.89 0-1.562.86-1.562 2.016v1.093H.313v.704h.875V0h.875v-4.61Zm0 0"/><path id="aU" d="M7-.453v-3.172H4.547v.719h1.531v2.031a4.6 4.6 0 0 1-1.531.25c-.766 0-1.469-.422-1.938-1.031-.546-.703-.796-1.594-.796-2.485 0-.906.25-1.796.796-2.5.47-.609 1.172-1.03 1.938-1.03.39 0 .797.046 1.172.187.375.14.718.375 1.015.64l.172-1c-.36-.187-.734-.36-1.14-.453a5.4 5.4 0 0 0-1.22-.125c-1.03 0-1.984.469-2.655 1.25C1.14-6.344.78-5.266.78-4.14c0 1.094.36 2.188 1.11 3.016.672.766 1.625 1.25 2.656 1.25C5.39.125 6.234-.078 7-.453m0 0"/><path id="aV" d="M5.063 0v-8.297h-.891v3.485a2.65 2.65 0 0 0-1.688-.61c-1.14 0-2.062 1.219-2.062 2.766S1.297.125 2.437.125c.438 0 1.11-.156 1.704-.734V0ZM4.14-1.406c-.282.515-.703.812-1.22.812-.733 0-1.593-.562-1.593-2.047 0-1.593 1.016-2.062 1.703-2.062.469 0 .86.234 1.11.625Zm0 0"/><path id="aW" d="m3.688-5.36-.485-.515-.828.719v-3.14H1.5v3.874L.328-3.375l.453.547.719-.656V0h.875v-4.234Zm0 0"/><path id="aX" d="M4.703 0v-.734H2.984c-.14 0-.28.015-.421.015H1.547l3.11-4.125v-.468H.483v.703h2.953L.329-.484V0Zm-.516-8.297h-.906l-1.562 2h.718Zm0 0"/><path id="aY" d="m5.219 2.234-.157-.703c-.265.11-.546.172-.812.172-.328-.031-.61-.094-.625-.453C3.609.719 4.109.313 4.656 0h.14v-3.5c0-1.156-.827-1.984-1.937-1.984-.718 0-1.25.172-1.843.5l.078.78c.515-.374 1.062-.593 1.765-.593.547 0 1.032.453 1.032 1.313v.5c-.547.015-1.266.062-1.985.297C1.11-2.422.641-1.97.641-1.375c0 .531.312 1.5 1.328 1.5.656 0 1.5-.203 1.937-.562V0c-.594.328-1.078.906-1.031 1.516 0 .515.375 1.015 1.172 1.015.406 0 .703-.062 1.172-.297M3.89-1.609c0 .25 0 .53-.407.765-.312.203-.718.25-.906.25-.64 0-1.078-.343-1.078-.797 0-.812 1.656-.984 2.39-.984Zm0 0"/><path id="aZ" d="M4.047-7.5v-.797c-.078-.015-.469-.125-.922-.125-1.125 0-1.937.875-1.937 2.031v1.079H.313v.703h.875V0h.875v-4.61h1.28v-.702H2.048v-1.422c0-.813.672-.97 1.078-.97s.781.141.922.204m0 0"/><path id="ba" d="M5.484-2.625c0-1.625-1.187-2.86-2.562-2.86-1.406 0-2.563 1.266-2.563 2.86 0 1.563 1.188 2.75 2.563 2.75 1.406 0 2.562-1.219 2.562-2.75m-.906-.125c0 1.469-.844 2.125-1.656 2.125-.86 0-1.656-.719-1.656-2.125 0-1.453.89-2.016 1.656-2.016.812 0 1.656.625 1.656 2.016m-.016-5.547h-.906l-1.547 2h.72Zm0 0"/><path id="bb" d="M5.063 0v-3.594c0-.734-.157-1.828-1.594-1.828-.672 0-1.25.297-1.703.875v-.812H.922V0h.906v-2.969c0-.75.281-1.734 1.188-1.734 1.109 0 1.14.766 1.14 1.187V0ZM4.64-8.297h-.907l-1.562 2h.719Zm0 0"/><path id="bc" d="M3.438-4.61v-.702H2.047v-1.454c0-.718.375-.937.703-.937.234 0 .484.062.688.203v-.797c-.235-.094-.313-.125-.688-.125-.89 0-1.562.86-1.562 2.016v1.093H.313v.704h.875V0h.875v-4.61ZM5.312 0v-8.297h-.89V0Zm0 0"/><path id="bd" d="M2.11-4.344v-.968h-.97v.968Zm0 4.328v-.953h-.97V0h.298L1.14 1.5h.468Zm0 0"/><path id="be" d="M4.703 0v-.734H2.984c-.14 0-.28.015-.421.015H1.547l3.11-4.125v-.468H.483v.703h2.953L.329-.484V0ZM3.047-6.797v-1.016H2.016v1.016Zm0 0"/><path id="bf" d="M6.797-5.875c0-1.266-1.172-2.422-2.797-2.422H1.094V0h1.015v-3.453H4c1.656 0 2.797-1.188 2.797-2.422m-.953-.016c0 .938-.735 1.75-2.094 1.75H2.094v-3.484H3.75c1.406 0 2.094.828 2.094 1.734m0 0"/><path id="bk" d="M4.563 0v-.437H3.266v-5.157c0-.187 0-.297-.266-.297-.11 0-.125 0-.203.063-.688.516-1.656.516-1.828.516H.797v.437h.172a4.2 4.2 0 0 0 1.203-.172v4.61H.89V0c.343-.031 1.422-.031 1.828-.031.422 0 1.484 0 1.844.031m0 0"/><path id="bl" d="M4.86-2.953c0-.469-.032-1.39-.485-2.094-.297-.437-.828-.844-1.719-.844-1.281 0-2.218.72-2.218 1.938 0 1.125.765 1.937 2.093 1.937.406 0 .781-.203 1.063-.687v.172c0 .578-.063 1.156-.235 1.531-.109.234-.468.703-1.171.703-.079 0-.454 0-.735-.187a.55.55 0 0 0 .422-.563c0-.375-.281-.578-.578-.578-.25 0-.594.14-.594.594 0 .61.469 1.14 1.5 1.14 1.25 0 2.656-.796 2.656-3.062m-1.266-.89c0 .406-.172 1.452-1.031 1.452-.86 0-.86-.656-.86-1.53 0-.876 0-1.61.984-1.61.563 0 .766.515.797.593.11.297.11.782.11 1.094m0 0"/><path id="bm" d="M4.766-2.016h-.453c-.016.125-.094.766-.235.829-.11.046-.781.046-.937.046H1.859c.485-.39 1.016-.812 1.47-1.125.75-.53 1.437-1.015 1.437-1.89 0-1.047-.953-1.735-2.25-1.735-1.11 0-1.985.532-1.985 1.36 0 .468.36.687.672.687a.65.65 0 0 0 .656-.672c0-.203-.078-.53-.468-.64.312-.25.718-.282.89-.282.735 0 1.203.547 1.203 1.282 0 .656-.375 1.234-.859 1.718l-2 1.985c-.094.094-.094.11-.094.281V0H4.5Zm0 0"/><path id="bn" d="M3.516-1.266H3.28c-.015.157-.094.563-.187.625-.047.047-.578.047-.688.047H1.125c.734-.64.984-.843 1.39-1.172.516-.406 1-.843 1-1.5 0-.843-.734-1.359-1.624-1.359-.86 0-1.453.61-1.453 1.25 0 .344.296.39.375.39.156 0 .359-.124.359-.374 0-.125-.047-.375-.406-.375.218-.485.687-.641 1.015-.641.703 0 1.063.547 1.063 1.11 0 .609-.438 1.078-.656 1.328L.516-.266C.437-.203.437-.187.437 0h2.876Zm0 0"/><path id="bo" d="M3.297 0v-.25H3.03c-.703 0-.703-.094-.703-.328v-3.86c0-.187 0-.187-.203-.187-.453.438-1.078.438-1.36.438v.25c.157 0 .626 0 1-.188v3.547c0 .234 0 .328-.687.328H.812V0l1.235-.031Zm0 0"/><path id="bp" d="M2.016 1.734v-.328h-.72V-4.89h.72v-.328H.953v6.953Zm0 0"/><path id="bq" d="M3.688-1.14v-.25h-.782V-4.5c0-.14 0-.203-.14-.203-.094 0-.125 0-.188.11L.266-1.392v.25h2.062v.563c0 .25 0 .328-.578.328h-.187V0l1.046-.031L3.672 0v-.25h-.188c-.578 0-.578-.078-.578-.328v-.563Zm-1.313-.25H.531l1.844-2.548Zm0 0"/><path id="br" d="M3.578-1.203c0-.547-.437-1.094-1.203-1.25.719-.266.984-.781.984-1.219 0-.547-.625-.953-1.406-.953-.766 0-1.36.375-1.36.938 0 .234.157.359.36.359.219 0 .36-.156.36-.344 0-.203-.141-.36-.36-.375.25-.297.719-.375.985-.375.312 0 .75.156.75.75 0 .297-.094.625-.282.828-.219.266-.422.281-.765.313-.172.015-.188.015-.22.015 0 0-.077.016-.077.094 0 .094.062.094.187.094h.375c.547 0 .938.375.938 1.125 0 .86-.516 1.125-.906 1.125-.282 0-.907-.078-1.188-.5.328 0 .406-.235.406-.39 0-.22-.172-.376-.39-.376a.38.38 0 0 0-.391.407C.375-.281 1.094.14 1.938.14c.968 0 1.64-.657 1.64-1.344m0 0"/><path id="bs" d="M1.297 1.734v-6.953H.219v.328h.734v6.297H.22v.328Zm0 0"/><path id="bt" d="M7.813-1.75v-.203H.109v.203Zm0 0"/><path id="bu" d="M3.578-2.297c0-1.719-.765-2.328-1.578-2.328a1.55 1.55 0 0 0-1.11.422c-.234.234-.515.5-.515 1.125 0 .89.703 1.547 1.516 1.547.562 0 .859-.375 1.015-.688v.14c0 1.735-.844 2-1.265 2-.157 0-.532-.015-.72-.233a.315.315 0 0 0 .313-.329.32.32 0 0 0-.328-.328c-.203 0-.328.14-.328.344 0 .469.39.766 1.063.766 1 0 1.937-.938 1.937-2.438M2.891-3c0 .906-.516 1.266-.953 1.266-.282 0-.532-.079-.735-.407-.156-.25-.156-.546-.156-.937 0-.406 0-.672.203-.953.172-.25.39-.39.75-.39s.578.218.688.405c.187.282.203.782.203 1.016m0 0"/><path id="bv" d="M2.516 0v-.25h-.172c-.578 0-.578-.078-.578-.328v-3.61c0-.234 0-.328.578-.328h.172v-.25l-1.078.032-1.079-.032v.25h.172c.578 0 .578.094.578.329v3.609c0 .25 0 .328-.578.328H.36V0l1.079-.031Zm0 0"/><path id="bw" d="M3.594-2.219c0-.765-.094-1.328-.406-1.812-.22-.313-.657-.594-1.204-.594C.36-4.625.36-2.719.36-2.219s0 2.36 1.625 2.36c1.61 0 1.61-1.86 1.61-2.36m-.625-.094c0 .516 0 1.032-.094 1.47-.14.64-.61.78-.89.78-.329 0-.75-.187-.891-.75C1-1.219 1-1.796 1-2.312c0-.515 0-1.046.094-1.421.156-.547.593-.703.89-.703.375 0 .735.234.86.64.11.375.125.875.125 1.485m0 0"/><path id="bx" d="M3.578-1.422c0-.89-.703-1.547-1.515-1.547-.563 0-.86.375-1.016.688 0-.563.047-1.078.312-1.516.235-.375.61-.625 1.063-.625.203 0 .484.047.625.234-.172.016-.328.141-.328.344a.32.32 0 0 0 .328.328c.219 0 .344-.14.344-.343 0-.407-.297-.766-.985-.766-1 0-2.031.922-2.031 2.422C.375-.406 1.219.14 2 .14c.844 0 1.578-.657 1.578-1.563m-.672 0c0 .39 0 .688-.187.969A.82.82 0 0 1 2-.078c-.36 0-.625-.203-.781-.516-.094-.203-.157-.562-.157-.968 0-.688.407-1.204.97-1.204.312 0 .53.125.702.375.172.266.172.563.172.97m0 0"/><path id="by" d="M5.547 0v-.25h-.125c-.469 0-.516-.078-.594-.266L3.125-4.812c-.031-.11-.062-.157-.187-.157-.141 0-.157.047-.204.157L1.125-.734C1.063-.562.938-.25.313-.25V0c.234-.016.484-.031.718-.031.282 0 .797.031.844.031v-.25c-.312 0-.516-.14-.516-.328 0-.063.016-.078.047-.14l.328-.86H3.72l.406 1.016c0 .03.031.078.031.109 0 .203-.375.203-.562.203V0l1.031-.031c.328 0 .86.031.922.031M3.609-1.828H1.83l.89-2.266Zm0 0"/><path id="bz" d="M4.047 0v-.25c-.469 0-.516-.047-.516-.39v-4.204l-1.047.078v.25c.47 0 .516.063.516.391v1.453a1.37 1.37 0 0 0-.969-.406c-.937 0-1.703.703-1.703 1.578S1.062.063 1.938.063c.578 0 .921-.297 1.03-.422v.422ZM2.969-.734c-.172.328-.531.609-.985.609-.39 0-.671-.234-.812-.437-.14-.204-.219-.485-.219-.922 0-.172 0-.688.281-1.016.282-.312.625-.375.829-.375.328 0 .64.156.828.406.078.11.078.11.078.25Zm0 0"/><path id="bA" d="M5.469-2.75V-3c-.188.016-.313.031-.5.031-.219 0-.485-.015-.688-.031v.25c.235 0 .36.14.36.297 0 .062 0 .078-.047.172L3.922-.547l-.75-1.906a.3.3 0 0 1-.031-.125c0-.156.172-.172.375-.172V-3c-.25.016-.5.031-.75.031-.203 0-.422-.015-.625-.031v.25c.172 0 .312 0 .406.047.094.078.156.312.156.312s-.015.063-.031.079L2.016-.641l-.703-1.812c-.032-.094-.032-.094-.032-.125 0-.172.25-.172.375-.172V-3s-.515.031-.797.031C.641-2.969.422-2.984.203-3v.25c.281 0 .438 0 .5.203l.969 2.453c.047.11.062.157.203.157.125 0 .14-.047.172-.141l.797-1.984.765 1.968c.047.094.063.157.204.157.124 0 .14-.047.187-.157l.875-2.234c.14-.344.375-.422.594-.422m0 0"/><path id="bB" d="M3.266-.844c0-.015-.016-.094-.125-.094-.094 0-.11.047-.125.11-.22.562-.75.672-1 .672-.328 0-.641-.14-.844-.406-.266-.329-.266-.75-.266-1.032h2.157c.156 0 .203 0 .203-.14 0-.625-.344-1.375-1.391-1.375a1.59 1.59 0 0 0-1.61 1.578c0 .89.782 1.594 1.704 1.594.937 0 1.297-.75 1.297-.907m-.485-.922H.906c.078-.984.703-1.14.969-1.14.86 0 .89.969.906 1.14m0 0"/><path id="bC" d="M4.11 0v-.25c-.454 0-.516 0-.516-.297v-1.562c0-.61-.297-.97-1.047-.97-.578 0-.938.313-1.14.688v-.687L.374-3v.25c.469 0 .531.047.531.39v1.813c0 .297-.078.297-.531.297V0s.5-.031.797-.031c.25 0 .734.031.797.031v-.25c-.453 0-.516 0-.516-.297v-1.265c0-.72.578-1.063 1.031-1.063.485 0 .547.375.547.734v1.594c0 .297-.062.297-.515.297V0s.5-.031.797-.031c.25 0 .734.031.796.031m0 0"/><path id="bD" d="M2.61-.875v-.39h-.235v.374c0 .485-.219.735-.5.735-.469 0-.469-.578-.469-.703V-2.75h1.078V-3H1.406v-1.281h-.25c0 .625-.281 1.312-.953 1.328v.203h.64v1.875c0 .781.595.938.985.938.469 0 .781-.391.781-.938m0 0"/><path id="bE" d="M3.516-1.406c0-.782-.594-1.5-1.453-1.5-.313 0-.672.062-.985.328v-1.313c.36.094.563.094.672.094.922 0 1.469-.625 1.469-.734 0-.078-.047-.094-.078-.094 0 0-.032 0-.063.016-.172.062-.531.203-1.047.203-.203 0-.562-.016-1.015-.188-.079-.031-.094-.031-.094-.031-.094 0-.094.078-.094.188v2.046c0 .125 0 .204.11.204.062 0 .078 0 .14-.094.297-.375.734-.438.969-.438.422 0 .61.328.64.39.126.235.172.5.172.907 0 .203 0 .61-.218.922a.98.98 0 0 1-.813.422c-.453 0-.922-.25-1.094-.719.266.016.407-.156.407-.344 0-.296-.266-.343-.36-.343 0 0-.343 0-.343.375 0 .625.578 1.25 1.406 1.25.89 0 1.672-.657 1.672-1.547m0 0"/><clipPath id="b"><path d="M.535.266h6.883v9.636H.535Zm0 0"/></clipPath><clipPath id="a"><path d="M0 0h8v10H0z"/></clipPath><clipPath id="bg"><path d="M15.023 568.348H403v11.336H15.023Zm0 0"/></clipPath><linearGradient id="bh" x1="0" x2="388.063" y1="0" y2="0" gradientTransform="matrix(1 0 0 -1 15.024 579.685)" gradientUnits="userSpaceOnUse"><stop offset="0" stop-color="#f2f2f2"/><stop offset=".25" stop-color="#f2f2f2"/><stop offset=".313" stop-color="#f2f2f2"/><stop offset=".344" stop-color="#f2f2f2"/><stop offset=".359" stop-color="#f3f3f3"/><stop offset=".363" stop-color="#f4f4f4"/><stop offset=".367" stop-color="#f5f5f5"/><stop offset=".371" stop-color="#f6f6f6"/><stop offset=".375" stop-color="#f7f7f7"/><stop offset=".379" stop-color="#f8f8f8"/><stop offset=".383" stop-color="#f9f9f9"/><stop offset=".387" stop-color="#fafafa"/><stop offset=".391" stop-color="#fbfbfb"/><stop offset=".395" stop-color="#fcfcfc"/><stop offset=".398" stop-color="#fcfcfc"/><stop offset=".406" stop-color="#fcfcfc"/><stop offset=".438" stop-color="#fcfcfc"/><stop offset=".5" stop-color="#fcfcfc"/><stop offset=".563" stop-color="#fcfcfc"/><stop offset=".566" stop-color="#fcfcfc"/><stop offset=".57" stop-color="#fbfbfb"/><stop offset=".574" stop-color="#fafafa"/><stop offset=".578" stop-color="#f9f9f9"/><stop offset=".582" stop-color="#f8f8f8"/><stop offset=".586" stop-color="#f7f7f7"/><stop offset=".59" stop-color="#f6f6f6"/><stop offset=".594" stop-color="#f5f5f5"/><stop offset=".598" stop-color="#f4f4f4"/><stop offset=".602" stop-color="#f3f3f3"/><stop offset=".609" stop-color="#f3f3f3"/><stop offset=".625" stop-color="#f2f2f2"/><stop offset=".75" stop-color="#f2f2f2"/><stop offset="1" stop-color="#f2f2f2"/></linearGradient><g id="c" clip-path="url(#a)"><g clip-path="url(#b)"><path fill-rule="evenodd" d="m3.977 7.836 3.441 2.066V1.645c0-.762-.617-1.38-1.375-1.38H1.914C1.152.266.535.884.535 1.646v8.257Zm-2.754.851 2.754-1.652L6.73 8.687V1.646a.69.69 0 0 0-.687-.692H1.914a.69.69 0 0 0-.691.692Zm0 0"/></g></g></defs><use xlink:href="#c" transform="translate(9 27)"/><use xlink:href="#d" x="17.008" y="23.315"/><use xlink:href="#e" x="20.884" y="23.315"/><use xlink:href="#f" x="29.422" y="23.315"/><use xlink:href="#g" x="346.332" y="23.315"/><use xlink:href="#h" x="352.246" y="23.315"/><use xlink:href="#i" x="357.052" y="23.315"/><use xlink:href="#j" x="361.427" y="23.315"/><use xlink:href="#k" x="364.599" y="23.315"/><use xlink:href="#l" x="368.098" y="23.315"/><use xlink:href="#m" x="375.534" y="23.315"/><use xlink:href="#k" x="380.34" y="23.315"/><use xlink:href="#n" x="384.277" y="23.315"/><use xlink:href="#n" x="387.114" y="23.315"/><use xlink:href="#o" x="389.298" y="23.315"/><use xlink:href="#h" x="393.674" y="23.315"/><use xlink:href="#p" x="398.48" y="23.315"/><use xlink:href="#q" x="146.746" y="34.908"/><use xlink:href="#r" x="155.15" y="34.908"/><use xlink:href="#s" x="161.857" y="34.908"/><use xlink:href="#t" x="170.381" y="34.908"/><use xlink:href="#u" x="176.657" y="34.908"/><use xlink:href="#v" x="179.718" y="34.908"/><use xlink:href="#w" x="185.564" y="34.908"/><use xlink:href="#x" x="188.624" y="34.908"/><use xlink:href="#y" x="199.121" y="34.908"/><use xlink:href="#z" x="207.884" y="34.908"/><use xlink:href="#A" x="214.459" y="34.908"/><use xlink:href="#t" x="221.034" y="34.908"/><use xlink:href="#B" x="236.279" y="34.908"/><use xlink:href="#C" x="239.865" y="34.908"/><use xlink:href="#D" x="245.756" y="34.908"/><use xlink:href="#E" x="250.634" y="34.908"/><use xlink:href="#F" x="255.242" y="34.908"/><use xlink:href="#G" x="259.851" y="34.908"/><use xlink:href="#H" x="264.459" y="34.908"/><path fill="none" stroke="#000" stroke-miterlimit="10" stroke-width=".398" d="M17.008 39.293h384.094"/><use xlink:href="#I" x="399.042" y="110.672"/><use xlink:href="#J" x="399.042" y="105.38"/><use xlink:href="#K" x="399.042" y="100.909"/><use xlink:href="#L" x="399.042" y="96.206"/><use xlink:href="#M" x="399.042" y="91.974"/><use xlink:href="#N" x="399.042" y="88.683"/><use xlink:href="#O" x="399.042" y="82.1"/><use xlink:href="#K" x="399.042" y="79.047"/><use xlink:href="#K" x="399.042" y="74.345"/><use xlink:href="#P" x="399.042" y="69.642"/><use xlink:href="#J" x="399.042" y="67.291"/><use xlink:href="#Q" x="399.042" y="60.238"/><use xlink:href="#R" x="399.042" y="55.536"/><use xlink:href="#S" x="399.042" y="53.184"/><use xlink:href="#S" x="399.042" y="48.952"/><use xlink:href="#T" x="399.042" y="44.72"/><use xlink:href="#U" x="403.164" y="40.487"/><use xlink:href="#V" x="403.164" y="46.831"/><use xlink:href="#W" x="403.164" y="49.182"/><use xlink:href="#V" x="403.164" y="52.944"/><use xlink:href="#X" x="403.164" y="55.295"/><use xlink:href="#Y" x="403.164" y="59.998"/><use xlink:href="#Z" x="403.164" y="64.23"/><use xlink:href="#aa" x="403.164" y="68.462"/><use xlink:href="#Z" x="403.164" y="73.626"/><use xlink:href="#V" x="403.164" y="77.858"/><use xlink:href="#Z" x="403.164" y="80.209"/><use xlink:href="#ab" x="403.164" y="84.442"/><use xlink:href="#Z" x="403.164" y="89.144"/><use xlink:href="#ac" x="403.164" y="93.376"/><use xlink:href="#Z" x="403.164" y="100.9"/><use xlink:href="#V" x="403.164" y="105.132"/><use xlink:href="#ad" x="403.164" y="110.304"/><use xlink:href="#W" x="403.164" y="115.007"/><use xlink:href="#ae" x="403.164" y="118.768"/><use xlink:href="#af" x="403.164" y="123.471"/><use xlink:href="#ag" x="403.164" y="127.703"/><use xlink:href="#ah" x="403.164" y="133.824"/><use xlink:href="#ai" x="403.164" y="138.526"/><use xlink:href="#aj" x="403.164" y="140.877"/><use xlink:href="#ak" x="403.164" y="145.109"/><use xlink:href="#al" x="79.467" y="61.174"/><use xlink:href="#am" x="99.337" y="51.089" fill="red"/><use xlink:href="#an" x="99.337" y="61.174"/><use xlink:href="#ao" x="107.072" y="61.174"/><use xlink:href="#ao" x="109.822" y="61.174"/><use xlink:href="#ap" x="112.571" y="61.174"/><use xlink:href="#aq" x="117.772" y="51.089" fill="red"/><use xlink:href="#ao" x="117.772" y="61.174"/><use xlink:href="#ar" x="120.522" y="61.174"/><use xlink:href="#as" x="126.523" y="61.174"/><use xlink:href="#at" x="129.607" y="61.174"/><use xlink:href="#au" x="135.214" y="61.174"/><use xlink:href="#av" x="142.363" y="51.089" fill="red"/><use xlink:href="#at" x="142.363" y="61.174"/><use xlink:href="#ao" x="147.97" y="61.174"/><use xlink:href="#ao" x="150.72" y="61.174"/><use xlink:href="#ap" x="153.469" y="61.174"/><use xlink:href="#aq" x="158.67" y="51.089" fill="red"/><use xlink:href="#ao" x="158.67" y="61.174"/><use xlink:href="#ar" x="161.42" y="61.174"/><use xlink:href="#as" x="167.421" y="61.174"/><use xlink:href="#at" x="170.505" y="61.174"/><use xlink:href="#au" x="176.112" y="61.174"/><use xlink:href="#av" x="183.262" y="51.089" fill="red"/><use xlink:href="#at" x="183.262" y="61.174"/><use xlink:href="#ao" x="188.869" y="61.174"/><use xlink:href="#ao" x="191.619" y="61.174"/><use xlink:href="#ap" x="194.368" y="61.174"/><use xlink:href="#aq" x="199.569" y="51.089" fill="red"/><use xlink:href="#ao" x="199.569" y="61.174"/><use xlink:href="#ar" x="202.319" y="61.174"/><use xlink:href="#am" x="208.32" y="51.089" fill="red"/><use xlink:href="#as" x="208.32" y="61.174"/><use xlink:href="#at" x="211.404" y="61.174"/><use xlink:href="#aw" x="217.011" y="61.174"/><use xlink:href="#aq" x="99.337" y="72.733" fill="red"/><use xlink:href="#an" x="99.337" y="82.818"/><use xlink:href="#ao" x="107.072" y="82.818"/><use xlink:href="#ao" x="109.822" y="82.818"/><use xlink:href="#ap" x="112.571" y="82.818"/><use xlink:href="#av" x="117.772" y="72.733" fill="red"/><use xlink:href="#ao" x="117.772" y="82.818"/><use xlink:href="#ar" x="120.522" y="82.818"/><use xlink:href="#as" x="126.523" y="82.818"/><use xlink:href="#at" x="129.607" y="82.818"/><use xlink:href="#au" x="135.214" y="82.818"/><use xlink:href="#aq" x="142.363" y="72.733" fill="red"/><use xlink:href="#at" x="142.363" y="82.818"/><use xlink:href="#ao" x="147.97" y="82.818"/><use xlink:href="#ao" x="150.72" y="82.818"/><use xlink:href="#ap" x="153.469" y="82.818"/><use xlink:href="#am" x="158.67" y="72.733" fill="red"/><use xlink:href="#ao" x="158.67" y="82.818"/><use xlink:href="#ar" x="161.42" y="82.818"/><use xlink:href="#as" x="167.421" y="82.818"/><use xlink:href="#at" x="170.505" y="82.818"/><use xlink:href="#au" x="176.112" y="82.818"/><use xlink:href="#av" x="183.262" y="72.733" fill="red"/><use xlink:href="#at" x="183.262" y="82.818"/><use xlink:href="#ao" x="188.869" y="82.818"/><use xlink:href="#ao" x="191.619" y="82.818"/><use xlink:href="#ap" x="194.368" y="82.818"/><use xlink:href="#ao" x="199.569" y="82.818"/><use xlink:href="#ar" x="202.318" y="82.818"/><use xlink:href="#am" x="208.32" y="72.733" fill="red"/><use xlink:href="#as" x="208.32" y="82.818"/><use xlink:href="#at" x="211.404" y="82.818"/><use xlink:href="#aw" x="217.011" y="82.818"/><use xlink:href="#ax" x="82.827" y="110.439"/><use xlink:href="#am" x="99.337" y="100.354" fill="red"/><use xlink:href="#ay" x="99.337" y="110.439"/><use xlink:href="#az" x="106.821" y="110.439"/><use xlink:href="#aA" x="112.822" y="110.439"/><use xlink:href="#at" x="120.461" y="110.439"/><use xlink:href="#ao" x="126.068" y="110.439"/><use xlink:href="#aB" x="128.818" y="110.439"/><use xlink:href="#aC" x="134.018" y="110.439"/><use xlink:href="#ap" x="136.768" y="110.439"/><use xlink:href="#aq" x="145.866" y="100.354" fill="red"/><use xlink:href="#aD" x="145.866" y="110.439"/><use xlink:href="#aE" x="153.637" y="110.439"/><use xlink:href="#aF" x="159.495" y="110.439"/><use xlink:href="#at" x="165.353" y="110.439"/><use xlink:href="#aA" x="174.857" y="110.439"/><use xlink:href="#aG" x="186.716" y="110.439"/><use xlink:href="#ap" x="192.204" y="110.439"/><use xlink:href="#aF" x="197.404" y="110.439"/><use xlink:href="#aE" x="203.262" y="110.439"/><use xlink:href="#av" x="213.018" y="100.354" fill="red"/><use xlink:href="#aH" x="213.018" y="110.439"/><use xlink:href="#aA" x="217.501" y="110.439"/><use xlink:href="#aC" x="225.463" y="110.439"/><use xlink:href="#aI" x="228.213" y="110.439"/><use xlink:href="#aJ" x="233.413" y="110.439"/><use xlink:href="#aK" x="237.323" y="110.439"/><use xlink:href="#aL" x="242.678" y="110.439"/><use xlink:href="#aM" x="255.829" y="110.439"/><use xlink:href="#aN" x="261.507" y="110.439"/><use xlink:href="#aO" x="265.488" y="110.439"/><use xlink:href="#aK" x="270.569" y="110.439"/><use xlink:href="#aq" x="275.927" y="100.354" fill="red"/><use xlink:href="#aP" x="275.927" y="110.439"/><use xlink:href="#aK" x="281.606" y="110.439"/><use xlink:href="#aJ" x="286.961" y="110.439"/><use xlink:href="#aQ" x="291.194" y="110.439"/><use xlink:href="#ar" x="296.872" y="110.439"/><use xlink:href="#au" x="302.874" y="110.439"/><use xlink:href="#av" x="99.337" y="121.998" fill="red"/><use xlink:href="#aB" x="99.337" y="132.083"/><use xlink:href="#az" x="104.537" y="132.083"/><use xlink:href="#aA" x="110.539" y="132.083"/><use xlink:href="#at" x="118.178" y="132.083"/><use xlink:href="#ao" x="123.785" y="132.083"/><use xlink:href="#aB" x="126.535" y="132.083"/><use xlink:href="#aC" x="131.735" y="132.083"/><use xlink:href="#ap" x="134.485" y="132.083"/><use xlink:href="#aR" x="143.582" y="132.083"/><use xlink:href="#at" x="149.584" y="132.083"/><use xlink:href="#aA" x="159.088" y="132.083"/><use xlink:href="#aK" x="167.05" y="132.083"/><use xlink:href="#aq" x="172.407" y="121.998" fill="red"/><use xlink:href="#aS" x="172.407" y="132.083"/><use xlink:href="#aE" x="176.89" y="132.083"/><use xlink:href="#aQ" x="182.748" y="132.083"/><use xlink:href="#aC" x="188.427" y="132.083"/><use xlink:href="#aL" x="191.176" y="132.083"/><use xlink:href="#aT" x="204.327" y="132.083"/><use xlink:href="#aN" x="210.579" y="132.083"/><use xlink:href="#aL" x="214.56" y="132.083"/><use xlink:href="#at" x="223.814" y="132.083"/><use xlink:href="#am" x="229.421" y="121.998" fill="red"/><use xlink:href="#aL" x="229.421" y="132.083"/><use xlink:href="#ap" x="238.674" y="132.083"/><use xlink:href="#aR" x="243.875" y="132.083"/><use xlink:href="#aB" x="249.876" y="132.083"/><use xlink:href="#aC" x="255.076" y="132.083"/><use xlink:href="#ap" x="257.826" y="132.083"/><use xlink:href="#au" x="263.027" y="132.083"/><use xlink:href="#aq" x="99.337" y="143.641" fill="red"/><use xlink:href="#aB" x="99.337" y="153.727"/><use xlink:href="#az" x="104.537" y="153.727"/><use xlink:href="#aA" x="110.539" y="153.727"/><use xlink:href="#at" x="118.178" y="153.727"/><use xlink:href="#ao" x="123.785" y="153.727"/><use xlink:href="#aB" x="126.535" y="153.727"/><use xlink:href="#aC" x="131.735" y="153.727"/><use xlink:href="#ap" x="134.485" y="153.727"/><use xlink:href="#aU" x="143.582" y="153.727"/><use xlink:href="#aE" x="151.389" y="153.727"/><use xlink:href="#aO" x="161.144" y="153.727"/><use xlink:href="#at" x="166.225" y="153.727"/><use xlink:href="#av" x="175.73" y="143.641" fill="red"/><use xlink:href="#aA" x="175.73" y="153.727"/><use xlink:href="#aC" x="183.692" y="153.727"/><use xlink:href="#ap" x="186.442" y="153.727"/><use xlink:href="#ao" x="191.642" y="153.727"/><use xlink:href="#aQ" x="194.392" y="153.727"/><use xlink:href="#aC" x="200.07" y="153.727"/><use xlink:href="#ap" x="202.82" y="153.727"/><use xlink:href="#aq" x="211.919" y="143.641" fill="red"/><use xlink:href="#aG" x="211.919" y="153.727"/><use xlink:href="#ap" x="217.406" y="153.727"/><use xlink:href="#aF" x="222.607" y="153.727"/><use xlink:href="#aE" x="228.465" y="153.727"/><use xlink:href="#am" x="238.22" y="143.641" fill="red"/><use xlink:href="#aV" x="238.22" y="153.727"/><use xlink:href="#aO" x="244.221" y="153.727"/><use xlink:href="#aC" x="249.302" y="153.727"/><use xlink:href="#ap" x="252.052" y="153.727"/><use xlink:href="#aW" x="257.252" y="153.727"/><use xlink:href="#at" x="260.683" y="153.727"/><use xlink:href="#au" x="266.29" y="153.727"/><use xlink:href="#av" x="99.337" y="165.285" fill="red"/><use xlink:href="#aB" x="99.337" y="175.37"/><use xlink:href="#az" x="104.537" y="175.37"/><use xlink:href="#aA" x="110.539" y="175.37"/><use xlink:href="#at" x="118.178" y="175.37"/><use xlink:href="#ao" x="123.785" y="175.37"/><use xlink:href="#aB" x="126.535" y="175.37"/><use xlink:href="#aC" x="131.735" y="175.37"/><use xlink:href="#ap" x="134.485" y="175.37"/><use xlink:href="#aG" x="143.582" y="175.37"/><use xlink:href="#ap" x="149.07" y="175.37"/><use xlink:href="#aF" x="154.27" y="175.37"/><use xlink:href="#aE" x="160.128" y="175.37"/><use xlink:href="#aA" x="169.883" y="175.37"/><use xlink:href="#aO" x="177.845" y="175.37"/><use xlink:href="#aR" x="182.926" y="175.37"/><use xlink:href="#aC" x="188.928" y="175.37"/><use xlink:href="#aE" x="191.677" y="175.37"/><use xlink:href="#aS" x="197.535" y="175.37"/><use xlink:href="#aW" x="202.019" y="175.37"/><use xlink:href="#aK" x="205.772" y="175.37"/><use xlink:href="#aL" x="215.026" y="175.37"/><use xlink:href="#at" x="224.279" y="175.37"/><use xlink:href="#am" x="229.887" y="165.285" fill="red"/><use xlink:href="#as" x="229.887" y="175.37"/><use xlink:href="#ap" x="232.971" y="175.37"/><use xlink:href="#aS" x="238.172" y="175.37"/><use xlink:href="#aJ" x="242.655" y="175.37"/><use xlink:href="#at" x="246.887" y="175.37"/><use xlink:href="#aJ" x="252.494" y="175.37"/><use xlink:href="#aw" x="256.726" y="175.37"/><use xlink:href="#al" x="79.467" y="202.991"/><use xlink:href="#am" x="99.337" y="192.906" fill="red"/><use xlink:href="#an" x="99.337" y="202.991"/><use xlink:href="#ao" x="107.072" y="202.991"/><use xlink:href="#ao" x="109.822" y="202.991"/><use xlink:href="#ap" x="112.571" y="202.991"/><use xlink:href="#aq" x="117.772" y="192.906" fill="red"/><use xlink:href="#ao" x="117.772" y="202.991"/><use xlink:href="#ar" x="120.522" y="202.991"/><use xlink:href="#as" x="126.523" y="202.991"/><use xlink:href="#at" x="129.607" y="202.991"/><use xlink:href="#au" x="135.214" y="202.991"/><use xlink:href="#av" x="142.363" y="192.906" fill="red"/><use xlink:href="#at" x="142.363" y="202.991"/><use xlink:href="#ao" x="147.97" y="202.991"/><use xlink:href="#ao" x="150.72" y="202.991"/><use xlink:href="#ap" x="153.469" y="202.991"/><use xlink:href="#aq" x="158.67" y="192.906" fill="red"/><use xlink:href="#ao" x="158.67" y="202.991"/><use xlink:href="#ar" x="161.42" y="202.991"/><use xlink:href="#as" x="167.421" y="202.991"/><use xlink:href="#at" x="170.505" y="202.991"/><use xlink:href="#au" x="176.112" y="202.991"/><use xlink:href="#av" x="183.262" y="192.906" fill="red"/><use xlink:href="#at" x="183.262" y="202.991"/><use xlink:href="#ao" x="188.869" y="202.991"/><use xlink:href="#ao" x="191.619" y="202.991"/><use xlink:href="#ap" x="194.368" y="202.991"/><use xlink:href="#aq" x="199.569" y="192.906" fill="red"/><use xlink:href="#ao" x="199.569" y="202.991"/><use xlink:href="#ar" x="202.319" y="202.991"/><use xlink:href="#am" x="208.32" y="192.906" fill="red"/><use xlink:href="#as" x="208.32" y="202.991"/><use xlink:href="#at" x="211.404" y="202.991"/><use xlink:href="#aw" x="217.011" y="202.991"/><use xlink:href="#aq" x="99.337" y="214.55" fill="red"/><use xlink:href="#an" x="99.337" y="224.635"/><use xlink:href="#ao" x="107.072" y="224.635"/><use xlink:href="#ao" x="109.822" y="224.635"/><use xlink:href="#ap" x="112.571" y="224.635"/><use xlink:href="#av" x="117.772" y="214.55" fill="red"/><use xlink:href="#ao" x="117.772" y="224.635"/><use xlink:href="#ar" x="120.522" y="224.635"/><use xlink:href="#as" x="126.523" y="224.635"/><use xlink:href="#at" x="129.607" y="224.635"/><use xlink:href="#au" x="135.214" y="224.635"/><use xlink:href="#aq" x="142.363" y="214.55" fill="red"/><use xlink:href="#at" x="142.363" y="224.635"/><use xlink:href="#ao" x="147.97" y="224.635"/><use xlink:href="#ao" x="150.72" y="224.635"/><use xlink:href="#ap" x="153.469" y="224.635"/><use xlink:href="#am" x="158.67" y="214.55" fill="red"/><use xlink:href="#ao" x="158.67" y="224.635"/><use xlink:href="#ar" x="161.42" y="224.635"/><use xlink:href="#as" x="167.421" y="224.635"/><use xlink:href="#at" x="170.505" y="224.635"/><use xlink:href="#au" x="176.112" y="224.635"/><use xlink:href="#av" x="183.262" y="214.55" fill="red"/><use xlink:href="#at" x="183.262" y="224.635"/><use xlink:href="#ao" x="188.869" y="224.635"/><use xlink:href="#ao" x="191.619" y="224.635"/><use xlink:href="#ap" x="194.368" y="224.635"/><use xlink:href="#ao" x="199.569" y="224.635"/><use xlink:href="#ar" x="202.318" y="224.635"/><use xlink:href="#am" x="208.32" y="214.55" fill="red"/><use xlink:href="#as" x="208.32" y="224.635"/><use xlink:href="#at" x="211.404" y="224.635"/><use xlink:href="#aw" x="217.011" y="224.635"/><use xlink:href="#ax" x="82.827" y="252.256"/><use xlink:href="#am" x="99.337" y="242.171" fill="red"/><use xlink:href="#ay" x="99.337" y="252.256"/><use xlink:href="#az" x="106.821" y="252.256"/><use xlink:href="#aA" x="112.822" y="252.256"/><use xlink:href="#at" x="120.461" y="252.256"/><use xlink:href="#ao" x="126.068" y="252.256"/><use xlink:href="#aB" x="128.818" y="252.256"/><use xlink:href="#aC" x="134.018" y="252.256"/><use xlink:href="#ap" x="136.768" y="252.256"/><use xlink:href="#aU" x="145.866" y="252.256"/><use xlink:href="#aE" x="153.672" y="252.256"/><use xlink:href="#aM" x="163.428" y="252.256"/><use xlink:href="#aN" x="169.106" y="252.256"/><use xlink:href="#aO" x="173.087" y="252.256"/><use xlink:href="#aK" x="178.168" y="252.256"/><use xlink:href="#aq" x="187.422" y="242.171" fill="red"/><use xlink:href="#aV" x="187.422" y="252.256"/><use xlink:href="#aX" x="193.423" y="252.256"/><use xlink:href="#aA" x="198.504" y="252.256"/><use xlink:href="#aC" x="206.466" y="252.256"/><use xlink:href="#aI" x="209.216" y="252.256"/><use xlink:href="#aQ" x="214.416" y="252.256"/><use xlink:href="#ar" x="220.095" y="252.256"/><use xlink:href="#aV" x="229.994" y="252.256"/><use xlink:href="#aE" x="235.995" y="252.256"/><use xlink:href="#av" x="241.854" y="242.171" fill="red"/><use xlink:href="#aR" x="241.854" y="252.256"/><use xlink:href="#aE" x="247.855" y="252.256"/><use xlink:href="#aH" x="253.713" y="252.256"/><use xlink:href="#aR" x="258.196" y="252.256"/><use xlink:href="#ap" x="264.198" y="252.256"/><use xlink:href="#as" x="269.398" y="252.256"/><use xlink:href="#aq" x="276.381" y="242.171" fill="red"/><use xlink:href="#aJ" x="276.381" y="252.256"/><use xlink:href="#aN" x="280.613" y="252.256"/><use xlink:href="#aY" x="284.594" y="252.256"/><use xlink:href="#aP" x="290.201" y="252.256"/><use xlink:href="#aK" x="295.88" y="252.256"/><use xlink:href="#au" x="300.255" y="252.256"/><use xlink:href="#av" x="99.337" y="263.815" fill="red"/><use xlink:href="#aB" x="99.337" y="273.9"/><use xlink:href="#az" x="104.537" y="273.9"/><use xlink:href="#aA" x="110.539" y="273.9"/><use xlink:href="#at" x="118.178" y="273.9"/><use xlink:href="#ao" x="123.785" y="273.9"/><use xlink:href="#aB" x="126.535" y="273.9"/><use xlink:href="#aC" x="131.735" y="273.9"/><use xlink:href="#ap" x="134.485" y="273.9"/><use xlink:href="#aU" x="143.582" y="273.9"/><use xlink:href="#aE" x="151.389" y="273.9"/><use xlink:href="#aR" x="161.144" y="273.9"/><use xlink:href="#at" x="167.146" y="273.9"/><use xlink:href="#aq" x="176.651" y="263.815" fill="red"/><use xlink:href="#az" x="176.651" y="273.9"/><use xlink:href="#at" x="182.652" y="273.9"/><use xlink:href="#aN" x="187.937" y="273.9"/><use xlink:href="#aZ" x="191.918" y="273.9"/><use xlink:href="#at" x="195.492" y="273.9"/><use xlink:href="#aB" x="201.099" y="273.9"/><use xlink:href="#az" x="206.299" y="273.9"/><use xlink:href="#aC" x="216.198" y="273.9"/><use xlink:href="#aF" x="222.845" y="273.9"/><use xlink:href="#aC" x="228.703" y="273.9"/><use xlink:href="#am" x="231.453" y="263.815" fill="red"/><use xlink:href="#aJ" x="231.453" y="273.9"/><use xlink:href="#at" x="235.685" y="273.9"/><use xlink:href="#aN" x="240.969" y="273.9"/><use xlink:href="#at" x="244.95" y="273.9"/><use xlink:href="#aB" x="250.557" y="273.9"/><use xlink:href="#az" x="255.758" y="273.9"/><use xlink:href="#au" x="261.759" y="273.9"/><use xlink:href="#aq" x="99.337" y="285.458" fill="red"/><use xlink:href="#aB" x="99.337" y="295.544"/><use xlink:href="#az" x="104.537" y="295.544"/><use xlink:href="#aA" x="110.539" y="295.544"/><use xlink:href="#at" x="118.178" y="295.544"/><use xlink:href="#ao" x="123.785" y="295.544"/><use xlink:href="#aB" x="126.535" y="295.544"/><use xlink:href="#aC" x="131.735" y="295.544"/><use xlink:href="#ap" x="134.485" y="295.544"/><use xlink:href="#aP" x="143.582" y="295.544"/><use xlink:href="#aI" x="149.907" y="295.544"/><use xlink:href="#aP" x="155.107" y="295.544"/><use xlink:href="#ap" x="161.431" y="295.544"/><use xlink:href="#aR" x="166.632" y="295.544"/><use xlink:href="#av" x="172.634" y="285.458" fill="red"/><use xlink:href="#aQ" x="172.634" y="295.544"/><use xlink:href="#at" x="178.313" y="295.544"/><use xlink:href="#aL" x="183.92" y="295.544"/><use xlink:href="#aC" x="193.173" y="295.544"/><use xlink:href="#au" x="195.922" y="295.544"/><use xlink:href="#aq" x="203.072" y="285.458" fill="red"/><use xlink:href="#aB" x="203.072" y="295.544"/><use xlink:href="#az" x="208.272" y="295.544"/><use xlink:href="#aA" x="214.274" y="295.544"/><use xlink:href="#at" x="221.913" y="295.544"/><use xlink:href="#ao" x="227.52" y="295.544"/><use xlink:href="#aB" x="230.27" y="295.544"/><use xlink:href="#aC" x="235.47" y="295.544"/><use xlink:href="#ap" x="238.22" y="295.544"/><use xlink:href="#aA" x="247.317" y="295.544"/><use xlink:href="#aH" x="255.279" y="295.544"/><use xlink:href="#aN" x="259.763" y="295.544"/><use xlink:href="#ba" x="263.744" y="295.544"/><use xlink:href="#aV" x="269.924" y="295.544"/><use xlink:href="#am" x="279.824" y="285.458" fill="red"/><use xlink:href="#aJ" x="279.824" y="295.544"/><use xlink:href="#at" x="284.056" y="295.544"/><use xlink:href="#bb" x="289.663" y="295.544"/><use xlink:href="#aB" x="295.664" y="295.544"/><use xlink:href="#ba" x="300.865" y="295.544"/><use xlink:href="#aA" x="306.4" y="295.544"/><use xlink:href="#au" x="314.362" y="295.544"/><use xlink:href="#av" x="99.337" y="307.102" fill="red"/><use xlink:href="#aB" x="99.337" y="317.187"/><use xlink:href="#az" x="104.537" y="317.187"/><use xlink:href="#aA" x="110.539" y="317.187"/><use xlink:href="#at" x="118.178" y="317.187"/><use xlink:href="#ao" x="123.785" y="317.187"/><use xlink:href="#aB" x="126.535" y="317.187"/><use xlink:href="#aC" x="131.735" y="317.187"/><use xlink:href="#ap" x="134.485" y="317.187"/><use xlink:href="#aU" x="143.582" y="317.187"/><use xlink:href="#aE" x="151.389" y="317.187"/><use xlink:href="#aR" x="161.144" y="317.187"/><use xlink:href="#at" x="167.146" y="317.187"/><use xlink:href="#aS" x="176.65" y="317.187"/><use xlink:href="#aJ" x="181.133" y="317.187"/><use xlink:href="#aN" x="185.365" y="317.187"/><use xlink:href="#ar" x="189.346" y="317.187"/><use xlink:href="#aR" x="195.348" y="317.187"/><use xlink:href="#at" x="201.349" y="317.187"/><use xlink:href="#aB" x="206.956" y="317.187"/><use xlink:href="#az" x="212.156" y="317.187"/><use xlink:href="#aC" x="222.055" y="317.187"/><use xlink:href="#aR" x="228.702" y="317.187"/><use xlink:href="#at" x="234.703" y="317.187"/><use xlink:href="#am" x="244.209" y="307.102" fill="red"/><use xlink:href="#bc" x="244.209" y="317.187"/><use xlink:href="#ap" x="250.461" y="317.187"/><use xlink:href="#aJ" x="255.662" y="317.187"/><use xlink:href="#at" x="259.894" y="317.187"/><use xlink:href="#aB" x="265.501" y="317.187"/><use xlink:href="#az" x="270.701" y="317.187"/><use xlink:href="#aw" x="276.703" y="317.187"/><use xlink:href="#al" x="79.467" y="344.808"/><use xlink:href="#am" x="99.337" y="334.723" fill="red"/><use xlink:href="#an" x="99.337" y="344.808"/><use xlink:href="#ao" x="107.072" y="344.808"/><use xlink:href="#ao" x="109.822" y="344.808"/><use xlink:href="#ap" x="112.571" y="344.808"/><use xlink:href="#aq" x="117.772" y="334.723" fill="red"/><use xlink:href="#ao" x="117.772" y="344.808"/><use xlink:href="#ar" x="120.522" y="344.808"/><use xlink:href="#as" x="126.523" y="344.808"/><use xlink:href="#at" x="129.607" y="344.808"/><use xlink:href="#au" x="135.214" y="344.808"/><use xlink:href="#av" x="142.363" y="334.723" fill="red"/><use xlink:href="#at" x="142.363" y="344.808"/><use xlink:href="#ao" x="147.97" y="344.808"/><use xlink:href="#ao" x="150.72" y="344.808"/><use xlink:href="#ap" x="153.469" y="344.808"/><use xlink:href="#aq" x="158.67" y="334.723" fill="red"/><use xlink:href="#ao" x="158.67" y="344.808"/><use xlink:href="#ar" x="161.42" y="344.808"/><use xlink:href="#as" x="167.421" y="344.808"/><use xlink:href="#at" x="170.505" y="344.808"/><use xlink:href="#au" x="176.112" y="344.808"/><use xlink:href="#av" x="183.262" y="334.723" fill="red"/><use xlink:href="#at" x="183.262" y="344.808"/><use xlink:href="#ao" x="188.869" y="344.808"/><use xlink:href="#ao" x="191.619" y="344.808"/><use xlink:href="#ap" x="194.368" y="344.808"/><use xlink:href="#aq" x="199.569" y="334.723" fill="red"/><use xlink:href="#ao" x="199.569" y="344.808"/><use xlink:href="#ar" x="202.319" y="344.808"/><use xlink:href="#am" x="208.32" y="334.723" fill="red"/><use xlink:href="#as" x="208.32" y="344.808"/><use xlink:href="#at" x="211.404" y="344.808"/><use xlink:href="#aw" x="217.011" y="344.808"/><use xlink:href="#aq" x="99.337" y="356.367" fill="red"/><use xlink:href="#an" x="99.337" y="366.452"/><use xlink:href="#ao" x="107.072" y="366.452"/><use xlink:href="#ao" x="109.822" y="366.452"/><use xlink:href="#ap" x="112.571" y="366.452"/><use xlink:href="#av" x="117.772" y="356.367" fill="red"/><use xlink:href="#ao" x="117.772" y="366.452"/><use xlink:href="#ar" x="120.522" y="366.452"/><use xlink:href="#as" x="126.523" y="366.452"/><use xlink:href="#at" x="129.607" y="366.452"/><use xlink:href="#au" x="135.214" y="366.452"/><use xlink:href="#aq" x="142.363" y="356.367" fill="red"/><use xlink:href="#at" x="142.363" y="366.452"/><use xlink:href="#ao" x="147.97" y="366.452"/><use xlink:href="#ao" x="150.72" y="366.452"/><use xlink:href="#ap" x="153.469" y="366.452"/><use xlink:href="#am" x="158.67" y="356.367" fill="red"/><use xlink:href="#ao" x="158.67" y="366.452"/><use xlink:href="#ar" x="161.42" y="366.452"/><use xlink:href="#as" x="167.421" y="366.452"/><use xlink:href="#at" x="170.505" y="366.452"/><use xlink:href="#au" x="176.112" y="366.452"/><use xlink:href="#av" x="183.262" y="356.367" fill="red"/><use xlink:href="#at" x="183.262" y="366.452"/><use xlink:href="#ao" x="188.869" y="366.452"/><use xlink:href="#ao" x="191.619" y="366.452"/><use xlink:href="#ap" x="194.368" y="366.452"/><use xlink:href="#ao" x="199.569" y="366.452"/><use xlink:href="#ar" x="202.318" y="366.452"/><use xlink:href="#am" x="208.32" y="356.367" fill="red"/><use xlink:href="#as" x="208.32" y="366.452"/><use xlink:href="#at" x="211.404" y="366.452"/><use xlink:href="#aw" x="217.011" y="366.452"/><use xlink:href="#ax" x="82.827" y="394.073"/><use xlink:href="#am" x="99.337" y="383.988" fill="red"/><use xlink:href="#ay" x="99.337" y="394.073"/><use xlink:href="#az" x="106.821" y="394.073"/><use xlink:href="#aA" x="112.822" y="394.073"/><use xlink:href="#at" x="120.461" y="394.073"/><use xlink:href="#ao" x="126.068" y="394.073"/><use xlink:href="#aB" x="128.818" y="394.073"/><use xlink:href="#aC" x="134.018" y="394.073"/><use xlink:href="#ap" x="136.768" y="394.073"/><use xlink:href="#aU" x="145.866" y="394.073"/><use xlink:href="#aE" x="153.672" y="394.073"/><use xlink:href="#aM" x="163.428" y="394.073"/><use xlink:href="#aN" x="169.106" y="394.073"/><use xlink:href="#aO" x="173.087" y="394.073"/><use xlink:href="#aK" x="178.168" y="394.073"/><use xlink:href="#aq" x="187.422" y="383.988" fill="red"/><use xlink:href="#aA" x="187.422" y="394.073"/><use xlink:href="#aJ" x="195.384" y="394.073"/><use xlink:href="#ba" x="199.616" y="394.073"/><use xlink:href="#aN" x="205.151" y="394.073"/><use xlink:href="#aO" x="209.132" y="394.073"/><use xlink:href="#ap" x="214.213" y="394.073"/><use xlink:href="#av" x="223.312" y="383.988" fill="red"/><use xlink:href="#aV" x="223.312" y="394.073"/><use xlink:href="#aX" x="229.313" y="394.073"/><use xlink:href="#aA" x="234.394" y="394.073"/><use xlink:href="#aC" x="242.356" y="394.073"/><use xlink:href="#aI" x="245.106" y="394.073"/><use xlink:href="#aB" x="250.306" y="394.073"/><use xlink:href="#aO" x="255.507" y="394.073"/><use xlink:href="#aR" x="260.588" y="394.073"/><use xlink:href="#aK" x="266.589" y="394.073"/><use xlink:href="#aB" x="271.945" y="394.073"/><use xlink:href="#az" x="277.145" y="394.073"/><use xlink:href="#aB" x="287.044" y="394.073"/><use xlink:href="#aK" x="292.245" y="394.073"/><use xlink:href="#aL" x="297.6" y="394.073"/><use xlink:href="#aq" x="306.855" y="383.988" fill="red"/><use xlink:href="#aP" x="306.855" y="394.073"/><use xlink:href="#at" x="312.856" y="394.073"/><use xlink:href="#aW" x="318.463" y="394.073"/><use xlink:href="#ba" x="321.894" y="394.073"/><use xlink:href="#aA" x="327.43" y="394.073"/><use xlink:href="#au" x="335.392" y="394.073"/><use xlink:href="#av" x="99.337" y="405.632" fill="red"/><use xlink:href="#aB" x="99.337" y="415.717"/><use xlink:href="#az" x="104.537" y="415.717"/><use xlink:href="#aA" x="110.539" y="415.717"/><use xlink:href="#at" x="118.178" y="415.717"/><use xlink:href="#ao" x="123.785" y="415.717"/><use xlink:href="#aB" x="126.535" y="415.717"/><use xlink:href="#aC" x="131.735" y="415.717"/><use xlink:href="#ap" x="134.485" y="415.717"/><use xlink:href="#aU" x="143.582" y="415.717"/><use xlink:href="#aE" x="151.389" y="415.717"/><use xlink:href="#aq" x="161.145" y="405.632" fill="red"/><use xlink:href="#aR" x="161.145" y="415.717"/><use xlink:href="#at" x="167.146" y="415.717"/><use xlink:href="#aB" x="176.651" y="415.717"/><use xlink:href="#aK" x="181.851" y="415.717"/><use xlink:href="#aL" x="187.207" y="415.717"/><use xlink:href="#aP" x="196.46" y="415.717"/><use xlink:href="#at" x="202.461" y="415.717"/><use xlink:href="#aW" x="208.068" y="415.717"/><use xlink:href="#at" x="211.499" y="415.717"/><use xlink:href="#aB" x="217.106" y="415.717"/><use xlink:href="#az" x="222.307" y="415.717"/><use xlink:href="#am" x="232.206" y="405.632" fill="red"/><use xlink:href="#aP" x="232.206" y="415.717"/><use xlink:href="#aN" x="237.885" y="415.717"/><use xlink:href="#aO" x="241.866" y="415.717"/><use xlink:href="#aL" x="246.947" y="415.717"/><use xlink:href="#aC" x="256.2" y="415.717"/><use xlink:href="#aY" x="258.949" y="415.717"/><use xlink:href="#aB" x="264.556" y="415.717"/><use xlink:href="#aK" x="269.757" y="415.717"/><use xlink:href="#aB" x="275.112" y="415.717"/><use xlink:href="#az" x="280.313" y="415.717"/><use xlink:href="#bd" x="286.314" y="415.717"/><use xlink:href="#al" x="79.467" y="437.361"/><use xlink:href="#aq" x="99.337" y="427.275" fill="red"/><use xlink:href="#aA" x="99.337" y="437.361"/><use xlink:href="#aS" x="107.299" y="437.361"/><use xlink:href="#aO" x="111.782" y="437.361"/><use xlink:href="#aK" x="116.863" y="437.361"/><use xlink:href="#aS" x="122.219" y="437.361"/><use xlink:href="#aJ" x="126.702" y="437.361"/><use xlink:href="#aQ" x="130.934" y="437.361"/><use xlink:href="#aE" x="136.29" y="437.361"/><use xlink:href="#au" x="142.148" y="437.361"/><use xlink:href="#aB" x="149.297" y="437.361"/><use xlink:href="#aE" x="154.497" y="437.361"/><use xlink:href="#av" x="164.253" y="427.275" fill="red"/><use xlink:href="#be" x="164.253" y="437.361"/><use xlink:href="#aK" x="169.334" y="437.361"/><use xlink:href="#as" x="174.69" y="437.361"/><use xlink:href="#ap" x="177.774" y="437.361"/><use xlink:href="#au" x="182.975" y="437.361"/><use xlink:href="#aR" x="190.124" y="437.361"/><use xlink:href="#aC" x="196.125" y="437.361"/><use xlink:href="#ap" x="198.875" y="437.361"/><use xlink:href="#aB" x="204.075" y="437.361"/><use xlink:href="#az" x="209.276" y="437.361"/><use xlink:href="#aq" x="219.175" y="427.275" fill="red"/><use xlink:href="#aA" x="219.175" y="437.361"/><use xlink:href="#aC" x="227.137" y="437.361"/><use xlink:href="#ap" x="229.887" y="437.361"/><use xlink:href="#ao" x="235.087" y="437.361"/><use xlink:href="#aP" x="237.837" y="437.361"/><use xlink:href="#aC" x="243.838" y="437.361"/><use xlink:href="#am" x="250.486" y="427.275" fill="red"/><use xlink:href="#bf" x="250.486" y="437.361"/><use xlink:href="#at" x="257.611" y="437.361"/><use xlink:href="#aR" x="263.218" y="437.361"/><use xlink:href="#at" x="269.219" y="437.361"/><use xlink:href="#aw" x="274.826" y="437.361"/><use xlink:href="#av" x="99.337" y="448.919" fill="red"/><use xlink:href="#ay" x="99.337" y="459.004"/><use xlink:href="#az" x="106.821" y="459.004"/><use xlink:href="#aA" x="112.822" y="459.004"/><use xlink:href="#at" x="120.461" y="459.004"/><use xlink:href="#ao" x="126.068" y="459.004"/><use xlink:href="#aB" x="128.818" y="459.004"/><use xlink:href="#aC" x="134.018" y="459.004"/><use xlink:href="#ap" x="136.768" y="459.004"/><use xlink:href="#aC" x="145.866" y="459.004"/><use xlink:href="#aA" x="152.513" y="459.004"/><use xlink:href="#aK" x="160.475" y="459.004"/><use xlink:href="#aS" x="165.831" y="459.004"/><use xlink:href="#aW" x="170.314" y="459.004"/><use xlink:href="#at" x="173.745" y="459.004"/><use xlink:href="#aA" x="179.029" y="459.004"/><use xlink:href="#aC" x="186.991" y="459.004"/><use xlink:href="#at" x="189.741" y="459.004"/><use xlink:href="#as" x="195.348" y="459.004"/><use xlink:href="#aB" x="198.432" y="459.004"/><use xlink:href="#aC" x="203.632" y="459.004"/><use xlink:href="#ap" x="206.382" y="459.004"/><use xlink:href="#am" x="215.481" y="448.919" fill="red"/><use xlink:href="#aD" x="215.481" y="459.004"/><use xlink:href="#aE" x="223.252" y="459.004"/><use xlink:href="#aF" x="229.11" y="459.004"/><use xlink:href="#at" x="234.968" y="459.004"/><use xlink:href="#aw" x="240.575" y="459.004"/><use xlink:href="#al" x="79.467" y="486.625"/><use xlink:href="#am" x="99.337" y="476.54" fill="red"/><use xlink:href="#an" x="99.337" y="486.625"/><use xlink:href="#ao" x="107.072" y="486.625"/><use xlink:href="#ao" x="109.822" y="486.625"/><use xlink:href="#ap" x="112.571" y="486.625"/><use xlink:href="#aq" x="117.772" y="476.54" fill="red"/><use xlink:href="#ao" x="117.772" y="486.625"/><use xlink:href="#ar" x="120.522" y="486.625"/><use xlink:href="#as" x="126.523" y="486.625"/><use xlink:href="#at" x="129.607" y="486.625"/><use xlink:href="#au" x="135.214" y="486.625"/><use xlink:href="#av" x="142.363" y="476.54" fill="red"/><use xlink:href="#at" x="142.363" y="486.625"/><use xlink:href="#ao" x="147.97" y="486.625"/><use xlink:href="#ao" x="150.72" y="486.625"/><use xlink:href="#ap" x="153.469" y="486.625"/><use xlink:href="#aq" x="158.67" y="476.54" fill="red"/><use xlink:href="#ao" x="158.67" y="486.625"/><use xlink:href="#ar" x="161.42" y="486.625"/><use xlink:href="#as" x="167.421" y="486.625"/><use xlink:href="#at" x="170.505" y="486.625"/><use xlink:href="#au" x="176.112" y="486.625"/><use xlink:href="#av" x="183.262" y="476.54" fill="red"/><use xlink:href="#at" x="183.262" y="486.625"/><use xlink:href="#ao" x="188.869" y="486.625"/><use xlink:href="#ao" x="191.619" y="486.625"/><use xlink:href="#ap" x="194.368" y="486.625"/><use xlink:href="#aq" x="199.569" y="476.54" fill="red"/><use xlink:href="#ao" x="199.569" y="486.625"/><use xlink:href="#ar" x="202.319" y="486.625"/><use xlink:href="#am" x="208.32" y="476.54" fill="red"/><use xlink:href="#as" x="208.32" y="486.625"/><use xlink:href="#at" x="211.404" y="486.625"/><use xlink:href="#aw" x="217.011" y="486.625"/><use xlink:href="#aq" x="99.337" y="498.184" fill="red"/><use xlink:href="#an" x="99.337" y="508.269"/><use xlink:href="#ao" x="107.072" y="508.269"/><use xlink:href="#ao" x="109.822" y="508.269"/><use xlink:href="#ap" x="112.571" y="508.269"/><use xlink:href="#av" x="117.772" y="498.184" fill="red"/><use xlink:href="#ao" x="117.772" y="508.269"/><use xlink:href="#ar" x="120.522" y="508.269"/><use xlink:href="#as" x="126.523" y="508.269"/><use xlink:href="#at" x="129.607" y="508.269"/><use xlink:href="#au" x="135.214" y="508.269"/><use xlink:href="#aq" x="142.363" y="498.184" fill="red"/><use xlink:href="#at" x="142.363" y="508.269"/><use xlink:href="#ao" x="147.97" y="508.269"/><use xlink:href="#ao" x="150.72" y="508.269"/><use xlink:href="#ap" x="153.469" y="508.269"/><use xlink:href="#am" x="158.67" y="498.184" fill="red"/><use xlink:href="#ao" x="158.67" y="508.269"/><use xlink:href="#ar" x="161.42" y="508.269"/><use xlink:href="#as" x="167.421" y="508.269"/><use xlink:href="#at" x="170.505" y="508.269"/><use xlink:href="#au" x="176.112" y="508.269"/><use xlink:href="#av" x="183.262" y="498.184" fill="red"/><use xlink:href="#at" x="183.262" y="508.269"/><use xlink:href="#ao" x="188.869" y="508.269"/><use xlink:href="#ao" x="191.619" y="508.269"/><use xlink:href="#ap" x="194.368" y="508.269"/><use xlink:href="#ao" x="199.569" y="508.269"/><use xlink:href="#ar" x="202.318" y="508.269"/><use xlink:href="#am" x="208.32" y="498.184" fill="red"/><use xlink:href="#as" x="208.32" y="508.269"/><use xlink:href="#at" x="211.404" y="508.269"/><use xlink:href="#aw" x="217.011" y="508.269"/><g clip-path="url(#bg)"><path fill="url(#bh)" d="M15.023 579.684v-11.336h388.063v11.336Zm0 0"/></g><use xlink:href="#bi" x="387.641" y="577.985"/><use xlink:href="#bj" x="394.372" y="577.985"/><path fill="#f2f2f2" stroke="#000" stroke-miterlimit="10" stroke-width=".797" d="M196.602 576.055v-3.989a2.99 2.99 0 0 1 2.988-2.988h18.93a2.99 2.99 0 0 1 2.988 2.988v3.989a2.99 2.99 0 0 1-2.988 2.988h-18.93a2.99 2.99 0 0 1-2.988-2.988Zm0 0"/><use xlink:href="#bk" x="198.439" y="576.948"/><use xlink:href="#bl" x="203.747" y="576.948"/><use xlink:href="#bl" x="209.055" y="576.948"/><use xlink:href="#bm" x="214.363" y="576.948"/><use xlink:href="#bn" x="17.008" y="577.985"/><use xlink:href="#bo" x="20.976" y="577.985"/><use xlink:href="#bp" x="27.629" y="577.985"/><use xlink:href="#bq" x="29.882" y="577.985"/><use xlink:href="#br" x="33.85" y="577.985"/><use xlink:href="#bs" x="37.818" y="577.985"/><use xlink:href="#bt" x="42.756" y="577.985"/><use xlink:href="#bn" x="53.384" y="577.985"/><use xlink:href="#bu" x="57.353" y="577.985"/><use xlink:href="#bv" x="64.006" y="577.985"/><use xlink:href="#bn" x="69.571" y="577.985"/><use xlink:href="#bw" x="73.539" y="577.985"/><use xlink:href="#bn" x="77.508" y="577.985"/><use xlink:href="#bx" x="81.476" y="577.985"/><use xlink:href="#bt" x="88.129" y="577.985"/><use xlink:href="#by" x="98.757" y="577.985"/><use xlink:href="#bz" x="104.42" y="577.985"/><use xlink:href="#bA" x="108.821" y="577.985"/><use xlink:href="#bB" x="114.295" y="577.985"/><use xlink:href="#bC" x="117.838" y="577.985"/><use xlink:href="#bD" x="122.023" y="577.985"/><use xlink:href="#bn" x="127.818" y="577.985"/><use xlink:href="#bw" x="131.786" y="577.985"/><use xlink:href="#bn" x="135.754" y="577.985"/><use xlink:href="#bE" x="139.723" y="577.985"/></svg>