<svg xmlns="http://www.w3.org/2000/svg" xmlns:xlink="http://www.w3.org/1999/xlink" width="559.371" height="793.701" viewBox="0 0 419.528 595.276"><defs><path id="d" d="M3.344 2.297v-.078L1.5-2.5l1.844-4.703v-.078c0-.11-.078-.203-.188-.203a.24.24 0 0 0-.203.14L1.11-2.562c-.015.015-.015.046-.015.062 0 .031 0 .063.015.078L2.953 2.36a.24.24 0 0 0 .203.141c.11 0 .188-.094.188-.203m0 0"/><path id="e" d="M4.969-1.422c0-.11-.094-.11-.125-.11-.094 0-.11.048-.14.188-.173.64-.345 1.235-.75 1.235-.282 0-.298-.266-.298-.453 0-.22.016-.313.125-.75L4-2.203l.36-1.39c.062-.282.062-.298.062-.344 0-.172-.11-.266-.281-.266-.25 0-.391.219-.422.437-.188-.375-.469-.64-.922-.64-1.156 0-2.39 1.468-2.39 2.922C.406-.547.952.109 1.718.109c.203 0 .703-.046 1.297-.75a.91.91 0 0 0 .906.75c.36 0 .578-.234.75-.546.156-.36.297-.985.297-.985m-1.375-1.89a.6.6 0 0 1-.031.171l-.485 1.954c-.062.187-.062.203-.203.375-.437.546-.844.703-1.125.703-.5 0-.64-.547-.64-.938 0-.5.312-1.719.546-2.187.313-.578.75-.953 1.157-.953.64 0 .78.812.78.875m0 0"/><path id="f" d="M2.781-2.5c0-.016 0-.047-.015-.062L.922-7.344c-.031-.078-.11-.14-.188-.14a.207.207 0 0 0-.203.203v.078L2.375-2.5.531 2.219v.078c0 .11.094.203.203.203.079 0 .157-.062.188-.14l1.844-4.782c.015-.015.015-.047.015-.078m0 0"/><path id="g" d="M6.047-.156c0-.094-.11-.11-.14-.11-.25 0-.376-.03-.5-.312L4.218-3.297 5.766-4.5c.218-.172.812-.625 1.312-.672.063-.016.156-.031.156-.156 0-.047-.03-.11-.109-.11 0 0-.234.016-.281.016h-.328c-.266 0-.563-.016-.813-.016-.047 0-.172 0-.172.141 0 .11.14.125.14.125.11 0 .173.047.173.11 0 .125-.14.25-.172.28l-.047.048c-.016.015-.031.015-.094.078L2.563-2.344l.609-2.5c.078-.265.125-.328.61-.328.171 0 .265 0 .265-.156 0-.047-.031-.11-.125-.11-.14 0-.313.016-.453.016h-.953l-.453-.016c-.047 0-.172 0-.172.141 0 .125.093.125.234.125.219 0 .438 0 .438.11 0 .046 0 .062-.032.171L1.47-.609c-.078.28-.125.343-.61.343-.171 0-.265 0-.265.157C.594-.047.64 0 .719 0c.031 0 .39-.016.453-.031h.484c.672 0 .89.031.938.031s.156 0 .156-.156c0-.11-.094-.11-.234-.11-.25 0-.438 0-.438-.125 0-.046.047-.218.078-.328l.297-1.203 1.25-.969.985 2.25c.046.094.046.11.046.141 0 .203-.187.234-.343.234-.094 0-.188.016-.188.157 0 .062.047.109.11.109.28 0 .578-.031.843-.031.672 0 .64.031.735.031.03 0 .156 0 .156-.156m0 0"/><path id="h" d="M2.828-1.14c0-.11-.11-.11-.156-.11-.125 0-.125.031-.172.172-.14.516-.406.937-.734.937-.157 0-.188-.109-.188-.25 0-.187.063-.328.188-.656l.515-1.39c.063-.172.094-.25.094-.422 0-.438-.312-.657-.656-.657-.75 0-1.078 1.11-1.078 1.22 0 .108.093.108.14.108.14 0 .14-.03.172-.171.125-.407.375-.938.75-.938.14 0 .172.11.172.25 0 .188-.047.344-.156.61L1.156-.953a1.1 1.1 0 0 0-.078.375c0 .36.266.656.672.656.75 0 1.078-1.125 1.078-1.219m.125-3.704a.354.354 0 0 0-.36-.375.55.55 0 0 0-.53.532c0 .234.171.359.359.359.265 0 .531-.234.531-.516m0 0"/><path id="i" d="M4.14-1.14c0-.11-.109-.11-.14-.11-.14 0-.156.047-.187.172-.11.453-.266.937-.61.937-.14 0-.25-.078-.25-.375 0-.125.031-.265.063-.39.03-.125.03-.172.03-.25 0-.563-.546-.75-1.108-.86.296-.187.625-.53.671-.593.454-.5.766-.688 1.063-.688.11 0 .172.063.203.11-.156.03-.344.171-.344.39s.188.266.281.266c.204 0 .407-.14.407-.453 0-.266-.157-.532-.547-.532s-.75.266-1.188.735c-.484.515-.656.594-.796.672l.796-3.188c0-.031.016-.094.016-.125 0-.11-.125-.11-.219-.094l-.828.063c-.11.016-.187.016-.187.156 0 .125.093.125.203.125.375 0 .375.047.375.11a.7.7 0 0 1-.032.171L.657-.266c0 .032-.015.079-.015.11 0 .11.078.234.25.234.14 0 .265-.094.328-.297l.39-1.578c.313.031.891.172.891.656 0 .047 0 .079-.031.188a1 1 0 0 0-.031.25c0 .437.296.781.734.781.36 0 .562-.265.656-.406.188-.297.313-.766.313-.813m0 0"/><path id="j" d="M4.297-2.172c0-.828-.547-1.344-1.266-1.344C2-3.516.921-2.437.921-1.266c0 .875.595 1.344 1.267 1.344 1.062 0 2.109-1.094 2.109-2.25m-.594-.281c0 .265-.125 1.031-.437 1.578-.266.438-.688.734-1.078.734-.297 0-.672-.203-.672-.843 0-.36.172-1.11.422-1.547.343-.578.812-.766 1.078-.766.39 0 .687.297.687.844m0 0"/><path id="k" d="M7.719-.687 7.625-1.72c0-.078-.078-.14-.14-.14-.032 0-.063.015-.094.03-.328.25-.672.485-1.063.626-.406.125-.812.14-1.219.14-.75 0-1.484-.203-1.968-.75-.532-.64-.657-1.5-.657-2.328 0-.843.125-1.703.657-2.343.484-.563 1.218-.766 1.968-.766.36 0 .72.047 1.079.188.343.125.64.328.906.578a.14.14 0 0 0 .11.046c.077 0 .14-.062.14-.125l.234-1.28a.19.19 0 0 0-.094-.173q-.585-.21-1.171-.328a6.3 6.3 0 0 0-1.204-.094c-1.203 0-2.437.25-3.28 1.079C.983-6.531.733-5.33.733-4.141c0 1.172.25 2.375 1.094 3.204C2.672-.11 3.906.125 5.11.125c.438 0 .891 0 1.329-.125.421-.125.812-.328 1.218-.547a.2.2 0 0 0 .063-.14m0 0"/><path id="l" d="M6.188-2.687c0-1.97-.954-2.985-2.907-2.985-1.984 0-2.906 1.063-2.906 2.984C.375-.733 1.406.126 3.281.126s2.907-.86 2.907-2.812m-1.625-.141c0 .937 0 2.031-1.282 2.031C2-.797 2-1.875 2-2.828c0-.922 0-1.985 1.281-1.985s1.281 1.047 1.281 1.985m.593-5.313c0-.156-.14-.156-.328-.156h-.984c-.235 0-.25.016-.36.14L2.47-6.75c-.11.125-.11.172-.11.172 0 .156.125.156.313.156h.453l1.89-1.531c.063-.063.141-.11.141-.188m0 0"/><path id="m" d="M4.25-4.719v-.562c0-.235 0-.328-.203-.328-.344 0-1.219.125-1.781 1.406v-.766c0-.39-.094-.578-.578-.578h-.391c-.422 0-.563.125-.563.578v4.39C.734-.14.86 0 1.297 0h.453c.453 0 .563-.156.563-.578V-2.75c0-1.14.953-1.594 1.703-1.656.218 0 .234 0 .234-.313m0 0"/><path id="n" d="M5.938-.266s0-.109-.11-.265L3.734-3.25l1.844-1.703c.14-.14.188-.172.188-.266 0-.25-.25-.25-.407-.25h-.703c-.203 0-.437 0-.718.25l-1.72 1.594v-4.094c0-.39-.077-.578-.562-.578h-.25c-.437 0-.578.14-.578.578v7.14c0 .438.125.579.578.579h.203c.454 0 .579-.156.579-.578v-1.235l.562-.515L4.297-.297c.203.266.297.297.64.297h.579c.156 0 .422 0 .422-.266m0 0"/><path id="o" d="M2.313-.578v-4.328c0-.375-.079-.563-.563-.563h-.453c-.422 0-.563.125-.563.563v4.328c0 .437.125.578.563.578h.453c.453 0 .563-.156.563-.578m.093-6.672v-.219c0-.39-.094-.578-.578-.578h-.61c-.452 0-.577.156-.577.578v.219c0 .36.062.578.578.578h.61c.5 0 .577-.219.577-.578m0 0"/><path id="p" d="M2.672.375v-5.281c0-.375-.078-.563-.563-.563h-.453c-.453 0-.562.157-.562.563V.672c0 .297 0 .781-.719.781-.219 0-.5-.047-.75-.219-.031-.015-.078-.046-.125-.046-.094 0-.11 0-.219.312-.047.125-.125.36-.125.39 0 .22.985.563 1.735.563 1.328 0 1.78-.89 1.78-2.078m0-7.625v-.219c0-.39-.078-.578-.563-.578H1.5c-.453 0-.578.156-.578.578v.219c0 .36.062.578.578.578h.61c.5 0 .562-.219.562-.578m0 0"/><path id="q" d="M5.719-3.11c0-1.546-.703-2.562-2.485-2.562-1.921 0-2.859 1.063-2.859 2.89 0 1.954 1.125 2.907 3 2.907.469 0 1.14-.047 1.938-.453.25-.125.343-.156.343-.313 0-.078-.031-.421-.047-.515-.046-.375-.062-.39-.171-.39-.047 0-.079 0-.204.124a2.7 2.7 0 0 1-1.796.688c-1.36 0-1.5-1.063-1.532-1.828h3.25c.266 0 .563 0 .563-.547m-1.313-.078h-2.5c.047-.734.282-1.624 1.328-1.624.954 0 1.125.687 1.172 1.625m0 0"/><path id="r" d="M6.188-2.687c0-1.97-.954-2.985-2.907-2.985-1.984 0-2.906 1.063-2.906 2.984C.375-.733 1.406.126 3.281.126s2.907-.86 2.907-2.812m-1.625-.141c0 .937 0 2.031-1.282 2.031C2-.797 2-1.875 2-2.828c0-.922 0-1.985 1.281-1.985s1.281 1.047 1.281 1.985m0 0"/><path id="s" d="M5.266-.437c0-.454-.36-.454-.72-.454L2.72-.875h-.547l2.922-3.687c.125-.157.14-.22.14-.407 0-.5-.375-.5-.578-.5H1.125c-.156 0-.578 0-.578.453 0 .438.39.438.703.438l1.734-.031h.454L.515-.906C.39-.75.375-.687.375-.5c0 .5.36.5.563.5h3.765c.156 0 .563 0 .563-.437m0 0"/><path id="t" d="M2.313-.578v-7.14c0-.391-.079-.579-.563-.579h-.453c-.422 0-.563.14-.563.578v7.14C.734-.14.86 0 1.297 0h.453c.453 0 .563-.156.563-.578m0 0"/><path id="u" d="M9.64-.578v-3.313c0-1.218-.53-1.718-1.75-1.718-.843 0-1.5.39-1.937 1.187-.187-1.14-1.203-1.187-1.703-1.187-.234 0-.734 0-1.281.39-.36.282-.61.672-.688.844h-.015v-.594c0-.39-.079-.578-.563-.578h-.406c-.438 0-.578.125-.578.578v4.39c0 .438.125.579.578.579h.469c.453 0 .578-.156.578-.578v-2.64c0-1.079.734-1.532 1.312-1.532s.703.25.703.89v3.282c0 .437.141.578.579.578h.484c.453 0 .562-.156.562-.578v-2.64c0-1.079.735-1.532 1.313-1.532s.719.25.719.89v3.282c0 .437.125.578.562.578h.485c.453 0 .578-.156.578-.578m0 0"/><path id="v" d="M4.734-1.687c0-.672-.359-1.079-.578-1.282-.468-.422-.89-.5-1.39-.594-.657-.124-1.141-.218-1.141-.687 0-.484.39-.578.86-.578.796 0 1.234.297 1.546.562.11.125.14.125.188.125.125 0 .14-.109.156-.156.031-.11.14-.766.14-.828 0-.187-.624-.36-.765-.406-.469-.14-.86-.14-1.172-.14-.531 0-2.14 0-2.14 1.702 0 .594.265.938.593 1.235.422.375.875.468 1.563.593.344.063.953.172.953.688 0 .562-.469.656-.922.656a2.21 2.21 0 0 1-1.766-.828c-.062-.062-.093-.094-.171-.094-.11 0-.141.11-.157.172-.015.172-.156.86-.156.969 0 .219.89.5.89.5a4.4 4.4 0 0 0 1.36.203c.61 0 2.11-.047 2.11-1.812m0 0"/><path id="w" d="m7.125 0 1.328-6.219H7.375L5.531-3.156c-.36.594-1.125 1.844-1.312 2.281h-.016c0-.375-.187-1.453-.281-1.89L3.39-5.829l-.079-.39H2.25L.922 0h.734l1.172-5.531c.016.468.25 1.797.297 2.047l.453 2.53.14.75h.673l1.906-3.155c.203-.328 1.062-1.75 1.266-2.172L6.39 0Zm0 0"/><path id="x" d="m3.781 0 .547-2.594c.188-.89-.312-1.547-1.203-1.547-.594 0-1.047.157-1.531.407l-.078.625C2.03-3.437 2.5-3.562 3-3.562s.719.39.594.984l-.094.375C1.953-2.172.86-1.766.703-1.047.625-.625.75.093 1.531.093c.172 0 .953-.015 1.61-.437L3.062 0Zm-.469-1.25c-.046.188-.093.406-.453.594-.265.14-.562.172-.75.172-.453 0-.78-.22-.703-.578.125-.625 1.89-.657 2-.657Zm0 0"/><path id="y" d="m3.734-3.437.157-.641c-.657 0-1.313.328-1.797.86l.172-.813h-.657L.75 0h.719l.39-1.906a1.98 1.98 0 0 1 1.875-1.531m0 0"/><path id="z" d="M3.563-1.156a.97.97 0 0 0-.25-.89c-.25-.267-.5-.329-1.032-.423-.312-.062-.75-.156-.656-.578.11-.515.75-.515.89-.515.657 0 .985.203 1.22.343l.25-.625c-.5-.25-.907-.297-1.282-.297-.203 0-1.515 0-1.765 1.188a.9.9 0 0 0 .187.797c.281.297.5.344 1.078.469.281.046.781.14.672.609C2.75-.5 2.031-.5 1.906-.5c-.531 0-1-.187-1.328-.453l-.25.656c.469.281 1 .39 1.453.39.594 0 1.563-.187 1.782-1.25m0 0"/><path id="A" d="m3.703 0 .125-.594H2.484c-.109 0-.218.016-.328.016h-.75L4.453-3.61l.063-.375H1.234l-.125.562h2.282L.344-.39.266 0Zm0 0"/><path id="B" d="m3.703 0 .125-.594H2.484c-.109 0-.218.016-.328.016h-.75L4.453-3.61l.063-.375H1.234l-.125.562h2.282L.344-.39.266 0Zm-.187-5.047.172-.86h-.86l-.172.86Zm0 0"/><path id="C" d="m3.688-4.016-.266-.39-.719.515.5-2.328H2.5L1.86-3.28l-1 .75.25.406.609-.453L1.172 0h.719l.672-3.203Zm0 0"/><path id="D" d="M4.75-1.969C5-3.14 4.313-4.14 3.172-4.14c-1.11 0-2.234.97-2.484 2.172C.438-.797 1.188.094 2.28.094 3.391.094 4.5-.812 4.75-1.97m-.719-.093C3.797-1.016 3.063-.516 2.406-.516c-.687 0-1.172-.53-.953-1.546.219-1.047.984-1.485 1.594-1.485.64 0 1.203.453.984 1.485m0 0"/><path id="E" d="M4.86-2c.218-1.078-.157-2.078-1.032-2.078-.234 0-.89.047-1.61.516l.579-2.657h-.719L.75 0h.734l.094-.422c.094.125.469.516 1.125.516.938 0 1.89-.906 2.156-2.094m-.75 0C3.86-.844 3.015-.484 2.468-.484a.73.73 0 0 1-.75-.563L2.125-3c.172-.187.563-.5 1.078-.5.531 0 1.14.375.906 1.5m0 0"/><path id="F" d="m4.031 0 .563-2.656c.14-.672.125-1.422-.969-1.422-.703 0-1.219.406-1.484.672l.14-.625h-.687L.719 0h.75l.468-2.187c.125-.594.516-1.313 1.188-1.313.906 0 .766.64.719.906L3.28 0Zm0 0"/><path id="G" d="M4.953-3.984H4.25C3.234-2.344 2.469-1.156 2.313-.531c.046-.406-.141-1.328-.188-1.594-.172-.922-.266-1.219-.406-1.86h-.75L1.922 0l-.5.797c-.344.5-.516.5-.64.5-.141 0-.454-.031-.688-.156l-.078.625c.015.015.328.078.64.078.235 0 .625 0 1.313-1.078Zm0 0"/><path id="H" d="M2.594 2.234c-.375-.5-1.25-1.64-.64-4.484.609-2.828 1.952-3.969 2.546-4.484h-.594c-1.25.89-2.265 2.422-2.703 4.484-.453 2.14-.031 3.625.813 4.484Zm0 0"/><path id="I" d="m5.313 0 .125-.625h-.391l-2.188.016h-.343l.578-2.672 1.734-1.235-.25-.406-1.344.969.485-2.266h-.86l-.64 2.985-1.031.734.25.39.64-.453L1.531 0Zm0 0"/><path id="J" d="M4.344 0 3.109-2.437l1.875-1.547h-.859L1.906-2.141l.86-4.078h-.672L.766 0h.656l.266-1.281.875-.703 1 1.984Zm0 0"/><path id="K" d="m4.14 0 .141-.672H2.594c-.094 0-.203.016-.313.016h-.984L3.047-2c1.11-.766 1.781-1.25 1.969-2.125.218-1.031-.328-1.937-1.547-1.937-.953 0-1.625.546-2.094 1.437l.297.516c.453-1.047.984-1.344 1.531-1.344.813 0 1.188.61 1.016 1.344-.172.812-.844 1.343-1.64 1.937l-2 1.563L.452 0Zm0 0"/><path id="L" d="M4.563-1.625c.14-.703-.25-1.297-.938-1.547.703-.312 1.203-.906 1.328-1.515.172-.782-.453-1.375-1.39-1.375-.75 0-1.47.39-1.97.953l.25.515C2.407-5.375 3.11-5.5 3.439-5.5c.468 0 .859.25.734.813A1.56 1.56 0 0 1 2.766-3.5c-.188.016-.328.031-.5.031l-.125.594h.672c.874 0 1 .703.89 1.25-.156.703-.687 1.234-1.375 1.234C1.594-.39 1-.797.766-1.28c-.141.36-.157.39-.235.578.328.531.938.906 1.688.906 1.14 0 2.14-.89 2.344-1.828m0 0"/><path id="M" d="m1.656-.016.172-.75h-.781L.89 0h.234L.641 1.14h.375Zm0 0"/><path id="N" d="M4.563-1.625c.125-.562-.094-1.219-.938-1.547.61-.172 1.281-.656 1.422-1.328.172-.812-.438-1.562-1.453-1.562-1.047 0-1.953.765-2.125 1.562-.14.672.312 1.156.843 1.328C1.298-2.828.845-2.156.72-1.625.516-.641 1.188.203 2.25.203c1.094 0 2.11-.86 2.313-1.828m-.188-2.86c-.11.563-.594 1.016-1.344 1.016-.703 0-1.031-.422-.906-1.015.14-.594.656-1.016 1.344-1.016.734 0 1.031.438.906 1.016m-.594 2.86c-.172.828-.797 1.234-1.39 1.234-.641 0-1.063-.421-.891-1.234.203-.953.953-1.25 1.406-1.25.516 0 1.078.328.875 1.25m0 0"/><path id="O" d="m1.656 0 .172-.766h-.781L.89 0Zm0 0"/><path id="P" d="m3.922 0 .11-.562H2.89l1.172-5.5h-.188c-.734.578-1.594.578-1.906.578l-.11.562c.25 0 .704 0 1.25-.203L2.125-.562H.985L.858 0Zm0 0"/><path id="Q" d="m4.656-1.5.125-.578h-.89l.797-3.781h-.86L.703-2.08.578-1.5H3L2.688 0h.75l.328-1.5Zm-1.468-.578h-1.75l.75-.906C2.547-3.437 3.797-5 3.906-5.454Zm0 0"/><path id="R" d="M4.64-2c.11-.5.126-.953-.077-1.437-.235-.563-.516-.72-.938-.72-.344 0-1.031.11-1.719.735C2.266-4.625 3.063-5.5 4.031-5.5c.172 0 .5 0 .922.188l.11-.579a2.5 2.5 0 0 0-.922-.171c-1.297 0-2.735 1.25-3.141 3.187C.469-.422 1.422.203 2.266.203c.547 0 .984-.203 1.437-.61.531-.468.797-.89.938-1.593m-.78 0c-.079.344-.157.719-.47 1.11-.218.265-.53.5-1 .5-.953 0-.812-1.282-.78-1.579.03-.125.03-.14.062-.234.14-.688.719-1.36 1.453-1.36.344 0 .61.126.766.547.093.313.062.61-.032 1.016m0 0"/><path id="S" d="M3.328-2.25c.453-2.125.031-3.625-.812-4.484h-.578c.39.5 1.25 1.656.64 4.484C1.984.594.625 1.734.031 2.234h.594c1.234-.89 2.266-2.421 2.703-4.484m0 0"/><path id="T" d="M11.797-3.984a5.45 5.45 0 0 0-5.453-5.453A5.45 5.45 0 0 0 .89-3.984a5.45 5.45 0 0 0 5.453 5.453 5.45 5.45 0 0 0 5.453-5.453m-.64 0A4.815 4.815 0 0 1 6.343.828 4.815 4.815 0 0 1 1.53-3.984a4.815 4.815 0 0 1 4.813-4.813 4.815 4.815 0 0 1 4.812 4.813m0 0"/><path id="U" d="M6.5-2.578h-.25C6-1.031 5.766-.312 4.063-.312H2.734c-.468 0-.484-.063-.484-.391v-2.672h.89c.97 0 1.079.328 1.079 1.172h.25v-2.64h-.25c0 .859-.11 1.171-1.078 1.171H2.25v-2.406c0-.328.016-.39.484-.39h1.282c1.53 0 1.797.546 1.953 1.937h.25l-.282-2.25H.329v.312h.235c.765 0 .796.11.796.469v5.219c0 .36-.03.469-.796.469H.328V0h5.75Zm0 0"/><path id="V" d="m-3.61-5.156-1.812.218v4.594h.266V-.53c0-.61.093-.625.39-.625H-.64c.297 0 .375.015.375.625v.187H0l-.031-1.234c0-.375 0-.953.031-1.313h-.266v.25c0 .75-.109.75-.39.75h-1.922v-.734c0-.781.25-.875.922-.875v-.25h-2.125v.25c.687 0 .937.094.937.875v.734h-1.984c-.266 0-.328-.015-.328-.375v-1.062c0-1.297.5-1.453 1.547-1.594Zm0 0"/><path id="W" d="M0-2.078h-.266c0 .531-.03.562-.343.562h-2.907l.094 1.157h.266c0-.516.047-.578.437-.578h2.094c.36 0 .36.093.36.609H0c-.031-.313-.031-.766-.031-.89 0-.095 0-.579.031-.86m-4.797.453a.453.453 0 0 0-.453.453.45.45 0 0 0 .453.438.437.437 0 0 0 .438-.438.45.45 0 0 0-.438-.453m0 0"/><path id="X" d="M-3.203-4.11a.43.43 0 0 0-.406.454c0 .14.046.531.375.89-.141.204-.282.516-.282.891 0 .781.547 1.36 1.172 1.36.375 0 .656-.204.813-.376a.934.934 0 0 0 1.36-.094c.108.423.421.75.78.75.579 0 1.032-.827 1.032-1.874 0-1-.407-1.875-1.047-1.875-.422 0-.766.25-.89.515-.25.469-.25.86-.25 1.64v.454c-.032.25-.235.438-.532.438-.188 0-.266-.047-.328-.094.187-.344.234-.657.234-.844 0-.781-.547-1.375-1.172-1.375-.297 0-.562.14-.765.328a1.2 1.2 0 0 1-.266-.765c.016.03.063.078.188.078.14 0 .25-.11.25-.25a.25.25 0 0 0-.266-.25m.86 1.5c.296 0 .5.032.656.157a.7.7 0 0 1 .28.578c0 .734-.765.734-.937.734-.297 0-.5-.03-.656-.156a.72.72 0 0 1-.281-.578c0-.734.765-.734.937-.734m2.952-.906c.422 0 .797.61.797 1.407S1.031-.703.61-.703c-.171 0-.64-.14-.64-.781v-.766c0-.219 0-1.266.64-1.266m0 0"/><path id="Y" d="M0-2.125h-.266c0 .5 0 .61-.359.61h-4.906l.093 1.187h.266c0-.547.047-.61.438-.61h4.109c.36 0 .36.094.36.61H0c-.031-.313-.031-.766-.031-.906 0-.157 0-.578.031-.891m0 0"/><path id="Z" d="M-.953-3.516a.12.12 0 0 0-.11.125c0 .094.047.11.094.125.782.282.797.97.797 1.11 0 .36-.156.734-.531.969-.36.234-.875.234-1.11.234v-2.344c0-.172 0-.219-.187-.219-.703 0-1.547.391-1.547 1.516 0 .984.813 1.766 1.797 1.766 1.031 0 1.828-.86 1.828-1.875 0-1-.844-1.407-1.031-1.407m-1.078.547v2.016c-1.11-.078-1.297-.75-1.297-1.047 0-.937 1.125-.969 1.297-.969m0 0"/><path id="aa" d="M0-4.422h-.266c0 .547-.046.61-.437.61h-4.828l.093 1.187h.266c0-.531.047-.61.438-.61h1.687a1.4 1.4 0 0 0-.469 1.079c0 1 .782 1.875 1.797 1.875.985 0 1.797-.797 1.797-1.797 0-.469-.219-.86-.5-1.125h.5Zm-.984 1.219c.14 0 .172 0 .328.125.328.219.515.578.515.953s-.187.688-.484.875c-.312.219-.703.266-1.078.266-.469 0-.797-.079-1.063-.266a1.15 1.15 0 0 1-.53-.953c0-.375.202-.766.608-1Zm0 0"/><path id="ab" d="M-1.937-6.234h-.266c.031.406.031.625.031 1.093 0 .329 0 .985-.031 1.297h.265v-.281c0-.766.094-.781.391-.781h.516c.156 0 .484 0 .718.422.22.39.22.843.22.937 0 .813-.5 2.25-2.626 2.25-2.172 0-2.625-1.453-2.625-2.187 0-.797.578-1.688 1.89-1.891.079-.016.126-.016.126-.125 0-.14-.047-.14-.203-.14h-1.875c-.125 0-.203 0-.203.109 0 .047 0 .062.109.125l.594.406a2.13 2.13 0 0 0-.703 1.594c0 1.594 1.28 2.937 2.89 2.937 1.578 0 2.89-1.312 2.89-2.968 0-.61-.187-1.297-.655-1.61.218-.156.484-.422.484-.5 0-.094-.094-.094-.203-.094h-1.375c-.313 0-.36-.03-.36-.593m0 0"/><path id="ac" d="M-3.016-3.062c-.28 0-.5.25-.5.609 0 .515.391.875.844 1.031v.016h-.844l.094 1.125h.266c0-.547.047-.61.437-.61h2.094c.36 0 .36.11.36.61H0c-.031-.313-.031-.75-.031-.938 0-.468 0-.484.031-1h-.266v.156c0 .579-.078.594-.375.594h-1.171c-.61 0-1.47-.25-1.485-1.015.031.046.094.14.281.14.25 0 .36-.203.36-.36 0-.187-.125-.358-.36-.358m0 0"/><path id="ad" d="M0-4.484h-.266c0 .547-.046.609-.437.609h-2.813l.094 1.219h.266c0-.547.047-.61.437-.61h1.39c.688 0 1.188.407 1.188 1.016 0 .688-.343.719-.75.719h-2.625l.094 1.203h.266c0-.61.015-.61.719-.61h1.203c.578 0 1.312 0 1.312-1.265 0-.75-.578-1.047-.64-1.078v-.016h.64Zm0 0"/><path id="ae" d="M-1.031-3.047c-.375 0-.938.219-1.11 1.172-.015.063-.093.516-.093.547-.063.25-.235.625-.547.625-.235 0-.578-.188-.578-.938 0-.89.656-.937.875-.953.062 0 .093-.062.093-.11 0-.14-.062-.14-.203-.14h-.75c-.125 0-.203 0-.203.11 0 .046 0 .062.125.187 0 .016.078.094.078.11 0 0 0 .03-.031.078-.094.125-.172.359-.172.718 0 1.11.594 1.36.985 1.36.39 0 .624-.297.656-.313.234-.328.265-.5.36-1.047.077-.375.187-.984.718-.984.312 0 .687.203.687.938 0 .812-.625 1.046-1.046 1.14-.11.031-.141.047-.141.14 0 .126.062.126.219.126h.984c.125 0 .203 0 .203-.094 0-.062 0-.062-.156-.203-.047-.047-.14-.125-.188-.172.329-.36.344-.734.344-.937 0-1.016-.578-1.36-1.11-1.36m0 0"/><path id="af" d="M-.719-4.094h-.437v.25h.437c.328 0 .453.11.453.281 0 .297-.359.297-.453.297h-1.656c-.781 0-1.172.75-1.172 1.485 0 .656.25 1.25.781 1.25a.36.36 0 0 0 .375-.375.36.36 0 0 0-.375-.375.356.356 0 0 0-.359.297c-.203-.297-.203-.735-.203-.782 0-.453.312-.89.969-.89h.234c.031.453.047.984.281 1.547.313.703.766.843 1.032.843.687 0 .89-.812.89-1.359a1.23 1.23 0 0 0-.64-1.11c.296-.046.609-.25.609-.609 0-.078-.031-.75-.766-.75m-.406 1.438c.781 0 .984.64.984.969 0 .406-.28.765-.671.765-.516 0-1.063-.5-1.094-1.734Zm0 0"/><path id="ag" d="M0-6.828h-.266c0 .516 0 .61-.359.61h-1.797c-.64 0-1.094.28-1.094 1.14 0 .734.5 1.11.735 1.234-.578.14-.735.594-.735 1.11 0 .78.547 1.14.766 1.25h-.766l.094 1.156h.266c0-.547.047-.61.437-.61h2.094c.36 0 .36.094.36.61H0c-.031-.344-.031-.688-.031-.906 0-.235 0-.563.031-.907h-.266c0 .5 0 .61-.359.61h-1.437c-.844 0-1.235-.64-1.235-1.14 0-.517.406-.61.844-.61h1.828c.36 0 .36.11.36.61H0c-.031-.345-.031-.688-.031-.907 0-.235 0-.563.031-.906h-.266c0 .515 0 .609-.359.609h-1.437c-.844 0-1.235-.64-1.235-1.14 0-.516.406-.61.844-.61h1.828c.36 0 .36.11.36.61H0c-.031-.344-.031-.688-.031-.907 0-.234 0-.562.031-.906m0 0"/><path id="ah" d="M-1.719-4.422c-1 0-1.797.813-1.797 1.781 0 .313.079.766.5 1.172h-.5l.094 1.188h.266c0-.563.047-.61.375-.61H.922c.36 0 .36.11.36.61h.265c-.031-.344-.031-.688-.031-.906 0-.235 0-.563.03-.907h-.265c0 .516 0 .61-.36.61H-.39a1.37 1.37 0 0 0 .47-1.047c0-1-.782-1.89-1.798-1.89m0 .719c.907 0 1.578.578 1.578 1.219 0 .28-.125.64-.515.906-.14.094-.156.094-.297.094h-1.703a1.3 1.3 0 0 1-.61-1.094c0-.61.672-1.125 1.547-1.125m0 0"/><path id="ai" d="M-.437-1.625a.453.453 0 0 0-.454.453c0 .266.22.438.438.438A.44.44 0 0 0 0-1.172a.45.45 0 0 0-.437-.453m0 0"/><path id="aj" d="M-1.625-3.875c-1.031 0-1.766.797-1.766 1.672 0 .578.36.922.75 1.11-.656 0-1.234-.063-1.718-.344-.407-.25-.735-.657-.735-1.157 0-.156.032-.515.297-.703.031.36.297.39.375.39.25 0 .375-.187.375-.374 0-.14-.078-.375-.39-.375-.47 0-.86.36-.86 1.078 0 1.11 1.047 2.234 2.766 2.234C-.36-.344.172-1.359.172-2.125c0-.39-.11-.797-.453-1.156-.313-.328-.64-.594-1.344-.594m0 .75c.406 0 .75 0 1.047.156.36.219.5.485.5.844a.88.88 0 0 1-.516.797c-.36.187-.89.203-1.203.203-.781 0-1.375-.422-1.375-1.047 0-.39.203-.64.485-.781.296-.172.656-.172 1.062-.172m0 0"/><path id="ak" d="M-5.125-4.11v2.032c0 .203-.016.437-.031.64-.032.422-.11.422-.235.454v.25l1.688.265v-.25c-.125-.015-.672-.11-.735-.219-.046-.078-.046-.687-.046-.796v-1.688l1.109.813C-2.172-1.703-.906-1.5-.281-1.5c.078 0 .453 0 .453-.375s-.36-.375-.453-.375h-.39c-1.141 0-2.079-.203-2.61-.594L-4.86-4.03c-.079-.078-.094-.078-.266-.078m0 0"/><path id="al" d="M0 5.984h.266v-.171c0-.61.078-.641.375-.641h4.156c.297 0 .375.031.375.64v.172h.266l-.016-1.171.016-1.172h-.266v.172c0 .624-.078.64-.375.64H2.969V1.891h1.828c.297 0 .375.015.375.625v.172h.266l-.016-1.172.016-1.172h-.266V.53c0 .61-.078.625-.375.625H.64c-.297 0-.375-.015-.375-.625V.344H0l.031 1.172L0 2.688h.266v-.172c0-.61.078-.625.375-.625h2.062v2.562H.641c-.297 0-.375-.016-.375-.64V3.64H0l.031 1.172Zm0 0"/><path id="am" d="M0 2.078h.266c0-.531.03-.562.343-.562h2.907L3.422.359h-.266c0 .516-.047.579-.437.579H.625c-.36 0-.36-.094-.36-.61H0c.031.313.031.766.031.89 0 .095 0 .579-.031.86m4.797-.453a.453.453 0 0 0 .453-.453.45.45 0 0 0-.453-.438.437.437 0 0 0-.438.438c0 .25.204.453.438.453m0 0"/><path id="an" d="M-.36 1.813h3.876L3.422.563h-.266c0 .593-.047.671-.437.671H-.375c-.219 0-1.031-.046-1.031-.593 0-.11.031-.297.078-.391.016.047.11.219.344.219A.36.36 0 0 0-.61.094C-.61-.11-.75-.281-1-.281c-.406 0-.625.437-.625.937 0 .64.516 1.156 1.266 1.156m5.157 0a.44.44 0 0 0 .453-.438.44.44 0 0 0-.453-.437.427.427 0 0 0-.438.437c0 .25.204.438.438.438m0 0"/><path id="ao" d="M.719 4.094h.437v-.25H.72c-.328 0-.453-.11-.453-.281 0-.297.359-.297.453-.297h1.656c.781 0 1.172-.75 1.172-1.485 0-.656-.25-1.25-.781-1.25a.36.36 0 0 0-.375.375c0 .219.156.375.375.375a.356.356 0 0 0 .359-.297c.203.297.203.735.203.782 0 .453-.312.89-.969.89h-.234c-.031-.453-.047-.984-.281-1.547C1.53.406 1.078.266.813.266c-.688 0-.891.812-.891 1.359 0 .578.328.938.64 1.11-.296.046-.609.25-.609.609 0 .078.031.75.766.75m.406-1.438c-.781 0-.984-.64-.984-.969 0-.406.28-.765.672-.765.515 0 1.062.5 1.093 1.734Zm0 0"/><path id="ap" d="M1.031 3.047c.375 0 .938-.219 1.11-1.172.015-.062.093-.516.093-.547.063-.25.235-.625.547-.625.235 0 .578.188.578.938 0 .89-.656.937-.875.953-.062 0-.093.062-.093.11 0 .14.062.14.203.14h.75c.125 0 .203 0 .203-.11 0-.046 0-.062-.125-.187 0-.016-.078-.094-.078-.11 0 0 0-.03.031-.078.094-.125.172-.359.172-.718 0-1.11-.594-1.36-.985-1.36-.39 0-.624.297-.656.313-.234.328-.265.5-.36 1.047-.077.375-.187.984-.718.984-.312 0-.687-.203-.687-.937C.14.875.766.64 1.188.547c.109-.031.14-.047.14-.14C1.328.28 1.266.28 1.11.28H.125c-.125 0-.203 0-.203.094 0 .063 0 .063.156.203.047.047.14.125.188.172-.328.36-.344.734-.344.938 0 1.015.578 1.359 1.11 1.359m0 0"/><path id="aq" d="M0 4.422h.266c0-.547.046-.61.437-.61h4.828l-.093-1.187h-.266c0 .531-.047.61-.438.61H3.047c.312-.282.469-.657.469-1.079 0-1-.782-1.875-1.797-1.875-.985 0-1.797.797-1.797 1.797 0 .469.219.86.5 1.125h-.5Zm.984-1.219c-.14 0-.171 0-.328-.125a1.15 1.15 0 0 1-.515-.953c0-.375.187-.687.484-.875.313-.219.703-.266 1.078-.266.469 0 .797.079 1.063.266.297.188.53.547.53.953 0 .375-.202.766-.608 1Zm0 0"/><path id="ar" d="M.953 3.516a.12.12 0 0 0 .11-.125c0-.094-.047-.11-.094-.125a1.14 1.14 0 0 1-.797-1.11c0-.36.156-.734.531-.969.36-.234.875-.234 1.11-.234v2.344c0 .172 0 .219.187.219.703 0 1.547-.391 1.547-1.516 0-.984-.813-1.766-1.797-1.766-1.031 0-1.828.86-1.828 1.875 0 1 .844 1.407 1.031 1.407m1.078-.547V.953c1.11.078 1.297.75 1.297 1.047 0 .938-1.125.969-1.297.969m0 0"/><path id="as" d="M5.172 3.89h.266c-.016-.406-.016-.624-.016-1.078 0-.343 0-.953.016-1.28h-.266v.265c0 .75-.094.781-.375.781h-3.61c-.734 0-1.124-.437-1.124-.86 0-.343.156-.702.406-.89 0 .219.14.469.437.469a.426.426 0 0 0 .438-.438c0-.171-.11-.437-.453-.437C.297.422-.172 1-.172 1.75c0 .734.485 1.531 1.36 1.531h3.64c.344 0 .344.094.344.61m0 0"/><path id="at" d="M3.016 3.063c.28 0 .5-.25.5-.61 0-.515-.391-.875-.844-1.031v-.016h.844L3.422.281h-.266c0 .547-.047.61-.437.61H.625C.265.89.265.78.265.28H0c.031.313.031.75.031.938 0 .468 0 .484-.031 1h.266v-.156c0-.579.078-.594.375-.594h1.172c.609 0 1.468.25 1.484 1.015-.031-.046-.094-.14-.281-.14-.25 0-.36.203-.36.36 0 .187.125.358.36.358m0 0"/><path id="au" d="M0 4.484h.266c0-.546.046-.609.437-.609h2.813l-.094-1.219h-.266c0 .547-.047.61-.437.61h-1.39C.64 3.266.14 2.859.14 2.25c0-.687.343-.719.75-.719h2.625L3.422.328h-.266c0 .61-.015.61-.719.61H1.235c-.578 0-1.312 0-1.312 1.265 0 .75.578 1.047.64 1.078v.016h-.64Zm0 0"/><path id="av" d="M0 2.125h.266c0-.5 0-.61.359-.61h4.906L5.438.329h-.266c0 .547-.047.61-.438.61H.625c-.36 0-.36-.094-.36-.61H0c.031.313.031.766.031.906 0 .157 0 .579-.031.891m0 0"/><path id="aw" d="M.953 3.516a.12.12 0 0 0 .11-.125c0-.094-.047-.11-.094-.125a1.14 1.14 0 0 1-.797-1.11c0-.36.156-.734.531-.969.36-.234.875-.234 1.11-.234v2.344c0 .172 0 .219.187.219.703 0 1.547-.391 1.547-1.516 0-.984-.813-1.766-1.797-1.766-1.031 0-1.828.86-1.828 1.875 0 1 .844 1.407 1.031 1.407m1.078-.547V.953c1.11.078 1.297.75 1.297 1.047 0 .938-1.125.969-1.297.969m3.219-.031c.172 0 .313-.172.313-.313 0-.031 0-.14-.125-.25l-1.22-1.016-.171.157.937 1.25c.063.093.125.172.266.172m0 0"/><path id="ax" d="M0 4.484h.266c0-.515 0-.609.359-.609h1.797c.656 0 1.094-.312 1.094-1.14a1.38 1.38 0 0 0-.766-1.25h.766L3.422.327h-.266c0 .547-.047.61-.437.61H.625c-.36 0-.36-.094-.36-.61H0c.031.344.031.688.031.906 0 .235 0 .563-.031.907h.266c0-.5 0-.61.359-.61h1.438c.843 0 1.234.64 1.234 1.125s-.344.61-.844.61H.625c-.36 0-.36-.094-.36-.61H0c.031.344.031.703.031.906 0 .235 0 .579-.031.922m0 0"/><path id="ay" d="M1.719 4.422c1 0 1.797-.813 1.797-1.781 0-.313-.079-.766-.5-1.172h.5L3.422.28h-.266c0 .563-.047.61-.375.61H-.922c-.36 0-.36-.11-.36-.61h-.265c.031.344.031.688.031.907 0 .234 0 .562-.03.906h.265c0-.516 0-.61.36-.61H.39a1.37 1.37 0 0 0-.47 1.047c0 1 .782 1.89 1.798 1.89m0-.719C.812 3.703.14 3.125.14 2.484c0-.28.125-.64.515-.906.14-.094.156-.094.297-.094h1.703c.313.188.61.594.61 1.094 0 .61-.672 1.125-1.547 1.125m0 0"/><path id="az" d="M.438 1.625a.453.453 0 0 0 .453-.453.436.436 0 0 0-.438-.438.44.44 0 0 0-.453.438.45.45 0 0 0 .438.453m0 0"/><path id="aA" d="M1.344 3.875c.5 0 .828-.266.968-.406.126-.125.141-.14.563-.828.219.453.61 1 1.234 1 .766 0 1.188-.782 1.188-1.516 0-.844-.578-1.531-1.328-1.531-.297 0-.563.094-.797.297-.172.14-.188.172-.5.656C2.234.563 1.656.344 1.219.344c-.89 0-1.39.89-1.39 1.765 0 .97.671 1.766 1.515 1.766m2.765-.64c-.453 0-.843-.36-1.078-.829l.594-1c.14-.234.375-.422.64-.422.5 0 .829.547.829 1.125 0 .61-.422 1.125-.985 1.125m-3.046.187c-.61 0-.985-.656-.985-1.297 0-.719.485-1.312 1.14-1.312.595 0 1.063.437 1.313.984l-.656 1.078c-.078.125-.328.547-.812.547m0 0"/><path id="aB" d="M1.313 3.984h.25v-.843h3.593c.157 0 .219 0 .219-.172 0-.094 0-.11-.11-.188L1.564.234h-.25v2.25H.64c-.297 0-.375-.015-.375-.64v-.172H0l.031 1.14L0 3.954h.266v-.172c0-.625.078-.64.375-.64h.672Zm.25-1.437V.516l2.953 2.03Zm0 0"/><path id="aC" d="M9.953 0v-.516h-.312c-.657 0-.703-.062-.813-.218L5.61-5.047l2.844-2.406c.156-.14.266-.234 1.328-.234v-.516L8.5-8.172c-.36 0-1.297 0-1.594-.031v.515c.266 0 .547.016.86.141l-4.47 3.813v-3.953h1.267v-.516c-.344.031-1.625.031-2.047.031-.438 0-1.72 0-2.063-.031v.515H1.72v7.172H.453V0c.344-.031 1.625-.031 2.063-.031.422 0 1.703 0 2.047.031v-.516H3.297v-2.562L4.53-4.125l2.5 3.344c.016.031.063.094.063.14 0 .125-.578.125-.844.125V0c.39-.031 1.5-.031 1.953-.031.36 0 1.485 0 1.75.031m0 0"/><path id="aD" d="M2.875-.281c0-.766-.36-1.438-1.016-1.438-.53 0-.859.39-.859.86 0 .422.297.859.86.859.359 0 .562-.172.609-.234 0 .343-.063 1.328-1.047 2.172-.078.078-.11.093-.11.156 0 .11.141.219.22.219.155 0 1.343-1 1.343-2.594m0 0"/><path id="aE" d="M13.61-7.687v-.516l-1.297.031c-.344 0-1.22 0-1.5-.031v.515c.14 0 1.187 0 1.187.172 0 0 0 .032-.047.141L9.938-2.047l-2.126-5.64h1.125v-.516c-.374.031-1.484.031-1.937.031-.375 0-1.531 0-1.828-.031v.515h1.016l.484 1.297-1.64 4.344-2.126-5.64h1.125v-.516c-.343.031-1.515.031-1.953.031-.375 0-1.515 0-1.812-.031v.515h1L4.109-.171c.079.203.11.281.375.281.266 0 .297-.078.375-.28l2.079-5.5 2.093 5.5c.063.202.094.28.36.28.234 0 .297-.046.375-.28L12.5-7.407c.094-.203.11-.282 1.11-.282m0 0"/><path id="by" d="M6.14-2.469c0-1.672-1.156-2.547-2.577-2.547-.235 0-1 0-1.485 1.016v-.328c0-.734.031-1.469.375-2.11.266-.5.875-.968 1.64-.968.235 0 .657.031.954.328-.453.047-.64.39-.64.703 0 .438.312.703.702.703.313 0 .704-.203.704-.719 0-.718-.485-1.453-1.735-1.453-1.5 0-3.516.938-3.516 4.047 0 .813 0 3.938 2.829 3.938 1.578 0 2.75-.922 2.75-2.61m-1.515 0c0 1.172 0 2.14-1.25 2.14-.75 0-1.062-.655-1.11-.75-.156-.39-.156-1.343-.156-1.452 0-1.469.625-2.094 1.329-2.094 1.187 0 1.187.953 1.187 2.156m0 0"/><path id="bz" d="M6.14-3.937c0-.797 0-3.907-2.765-3.907-1.64 0-2.812.953-2.812 2.594 0 1.672 1.14 2.563 2.578 2.563.5 0 1.109-.188 1.484-1.032v.344c0 .844 0 3.047-1.86 3.047-.374 0-.812-.11-1.062-.297.36-.062.61-.312.61-.703a.69.69 0 0 0-.704-.703c-.312 0-.718.203-.718.734 0 .828.656 1.438 1.89 1.438 1.516 0 3.36-.985 3.36-4.078M4.61-5.11c0 .843-.344 2.03-1.344 2.03-1.188 0-1.188-.968-1.188-2.14 0-1.156 0-2.187 1.297-2.187.766 0 1.047.672 1.094.812.125.36.14 1.094.14 1.485m0 0"/><path id="aF" d="M5.953-1.703c0-.125-.11-.125-.14-.125-.125 0-.141.047-.172.219-.203.765-.422 1.484-.907 1.484-.328 0-.359-.312-.359-.562s.031-.36.156-.875l.266-1.079.422-1.671c.093-.344.093-.36.093-.407 0-.203-.156-.328-.359-.328-.281 0-.453.266-.5.531-.203-.437-.562-.765-1.094-.765-1.406 0-2.875 1.75-2.875 3.5 0 1.125.657 1.906 1.579 1.906.25 0 .843-.047 1.562-.89.094.5.516.89 1.078.89.422 0 .703-.266.89-.656.204-.422.36-1.172.36-1.172M4.313-3.97c0 .078-.016.14-.032.203l-.593 2.344c-.063.219-.063.234-.25.438-.516.656-1.016.859-1.344.859-.594 0-.766-.656-.766-1.125 0-.61.375-2.078.656-2.625.375-.703.907-1.14 1.391-1.14.766 0 .938.968.938 1.046m0 0"/><path id="aU" d="m10.344-8.156-.172-.11-.375.422c-.14.14-.36.266-.563.266-.078 0-.25-.031-.359-.047a18 18 0 0 1-1.687-.36l.078-.327-.063-.047-.672.297a10 10 0 0 0-.718-.047c-.954 0-1.813.187-2.657.859-.531.438-1.015 1-1.172 1.61-.046.202-.078.406.032.546.093.094.172.172.328.172.125 0 .265-.094.375-.172a.63.63 0 0 0 .219-.36c.03-.124.015-.296.015-.421.016-.172.016-.312.078-.469.047-.187.375-.61.656-.843.563-.438 1.126-.563 1.72-.563a4.5 4.5 0 0 1 .921.094l-.86 3.172H3.704l-.25.343h1.938l-.282 1.047c-.125.422-.25.844-.484 1.25a3 3 0 0 1-.687.875c-.407.375-.97.672-1.47.672-.312 0-.609-.078-.78-.312a1.1 1.1 0 0 1-.188-.407c-.094-.437-.14-.453-.312-.453a.73.73 0 0 0-.438.14c-.125.11-.203.204-.234.345-.063.25-.032.5.125.672.234.328.609.484 1.062.484.969 0 2.031-.39 2.844-1.094.437-.375.672-.687.906-1.094.281-.5.469-1.015.61-1.546l.14-.579h1.469l.344-.343H6.28l.766-2.97c.156.063.937.329 1.422.47.156.062.344.109.5.109.25 0 .531-.219.703-.422Zm0 0"/><path id="bi" d="M7.656-6.953c.094-.344.047-.656-.14-.906-.282-.391-.985-.47-1.375-.47-.891 0-1.766.22-2.657.813-.718.485-1.218 1.282-1.421 2.079-.172.718-.235 1.453.156 1.984.406.531 1.094.781 1.844.781.593 0 1.25-.172 1.828-.531l-.25 1.14c-.125.516-.328.97-.578 1.47-.22.374-.5.75-.86 1.046-.469.39-1.031.656-1.578.656-.36 0-.719-.062-.922-.328-.11-.156-.11-.375-.11-.593.016-.157.016-.329-.062-.438a.34.34 0 0 0-.281-.125.75.75 0 0 0-.469.14.84.84 0 0 0-.265.407.98.98 0 0 0 .172.89c.28.391.812.485 1.359.485.984 0 1.984-.406 2.86-1.11.452-.359.78-.812 1.03-1.328.36-.718.61-1.468.797-2.234l.391-1.578-.672.156c-.156.344-.5.828-.687.969-.47.39-1 .547-1.532.547-.5 0-.89-.219-1.156-.563-.36-.484-.312-1.187-.14-1.86a3.62 3.62 0 0 1 1.265-1.952 2.5 2.5 0 0 1 1.547-.516c.297 0 .719.11.922.406.14.188.219.407.14.672-.046.219-.125.469-.328.64-.28.22-.546.25-.828.25l-.093.204c.187.031.468.11.53.11.36 0 .704-.188 1.016-.438.297-.25.47-.563.547-.875m0 0"/><path id="bl" d="M6.828-7.234c.063-.282.016-.578-.125-.75-.234-.328-.672-.407-1.125-.407-.719 0-1.406.094-2.062.625-.438.344-.766.829-.891 1.313-.11.469-.11.937.14 1.266.172.25.47.421.782.53l-.031.126a3.46 3.46 0 0 0-1.766.734C1.172-3.328.734-2.719.563-2.062.438-1.532.438-.984.734-.61c.204.265.516.437.829.562.406.14.859.188 1.328.188.89 0 1.797-.328 2.578-.953.11-.079.265-.297.39-.454l-.39-.578-.157.032c-.125.343-.312.656-.593.875-.469.375-1 .656-1.532.656-.562 0-1.14-.094-1.437-.5-.297-.39-.312-.922-.187-1.469.14-.547.453-1.062.921-1.437.344-.266.782-.407 1.157-.5.562-.125 1.109-.157 1.672-.157l.062-.312c-.406 0-.797-.032-1.172-.14-.25-.063-.5-.173-.656-.391-.219-.282-.266-.704-.172-1.125.14-.516.453-1.032.89-1.391.298-.25.688-.313 1.032-.313.281 0 .469.063.61.204a.5.5 0 0 1 .109.468c-.047.203-.157.328-.266.453-.078.094-.14.172-.187.282a.36.36 0 0 0 .03.234c.079.094.126.094.266.094s.422-.078.625-.266c.22-.234.282-.437.344-.687m0 0"/><path id="bv" d="M8.578-4.234c0-.079-.062-.141-.156-.141-.063 0-.14.063-.14.14-.032 1.126-.5 1.657-1.329 1.923a1 1 0 0 1-.375.062c-.64 0-1.219-.5-1.75-.969-.64-.578-1.406-1.125-2.203-1.125-.172 0-.36.032-.516.078C1.08-3.937.72-3.125.672-1.75c0 .094.062.14.14.14s.141-.046.141-.14c.031-1.125.5-1.64 1.344-1.922a1 1 0 0 1 .375-.062c.625 0 1.219.5 1.734.968.657.594 1.422 1.141 2.203 1.141.188 0 .36-.031.532-.078 1.015-.344 1.375-1.14 1.437-2.531m0 0"/><path id="aG" d="m6.875-.531-.078-.844c-.313.234-.672.484-1.063.61-.375.124-.78.14-1.187.14-.766 0-1.469-.422-1.938-1.031-.546-.703-.796-1.594-.796-2.485 0-.906.25-1.796.796-2.5.47-.609 1.172-1.03 1.938-1.03.36 0 .719.03 1.062.14.344.125.672.297.97.515l.171-1a5.6 5.6 0 0 0-1.078-.312 5.6 5.6 0 0 0-1.125-.094c-1.031 0-1.984.469-2.656 1.25C1.14-6.344.78-5.266.78-4.14c0 1.094.36 2.188 1.11 3.016.672.766 1.625 1.25 2.656 1.25.406 0 .812-.016 1.219-.125.406-.125.765-.328 1.109-.531m0 0"/><path id="aH" d="M5.484-2.625c0-1.625-1.187-2.86-2.562-2.86-1.406 0-2.563 1.266-2.563 2.86 0 1.563 1.188 2.75 2.563 2.75 1.406 0 2.562-1.219 2.562-2.75m-.906-.125c0 1.469-.844 2.125-1.656 2.125-.86 0-1.656-.719-1.656-2.125 0-1.453.89-2.016 1.656-2.016.812 0 1.656.625 1.656 2.016m-.016-5.547h-.906l-1.547 2h.72Zm0 0"/><path id="aI" d="M3.797-4.625v-.797c-1.078 0-1.719.64-2.047 1.11V-5.36H.938V0h.875v-2.625c0-1.203.906-1.984 1.984-2m0 0"/><path id="aJ" d="M5.469 0 3.25-3.266l1.969-2.046h-1.11L1.813-2.906v-5.39H.938V0h.828v-1.719l.906-.953L4.5 0Zm0 0"/><path id="aK" d="M1.813 0v-5.312H.938V0Zm.078-6.797v-1.016H.859v1.016Zm0 0"/><path id="aL" d="M2.14.703v-6.015h-.89v6.14c0 .781-.625.86-.875.86-.531 0-.86-.344-.875-.375l-.234.718c.375.235.859.406 1.406.406.75 0 1.469-.624 1.469-1.734m0-7.5v-1.016H1.11v1.016Zm0 0"/><path id="aM" d="M4.86-2.687c0-.516-.048-1.25-.423-1.876-.5-.828-1.328-.921-1.671-.921C1.469-5.484.39-4.25.39-2.687.39-1.11 1.547.124 2.92.124c.563 0 1.22-.156 1.876-.64 0-.047-.047-.438-.047-.438s-.031-.281-.031-.328c-.703.593-1.407.687-1.766.687-.922 0-1.703-.828-1.734-2.093Zm-.704-.641h-2.86c.204-.813.767-1.438 1.47-1.438.359 0 1.187.157 1.39 1.438m0 0"/><path id="aN" d="M5.484-2.625c0-1.625-1.187-2.86-2.562-2.86-1.406 0-2.563 1.266-2.563 2.86 0 1.563 1.188 2.75 2.563 2.75 1.406 0 2.562-1.219 2.562-2.75m-.906-.125c0 1.469-.844 2.125-1.656 2.125-.86 0-1.656-.719-1.656-2.125 0-1.453.89-2.016 1.656-2.016.812 0 1.656.625 1.656 2.016m0 0"/><path id="aO" d="M4.703 0v-.734H2.984c-.14 0-.28.015-.421.015H1.547l3.11-4.125v-.468H.483v.703h2.953L.329-.484V0Zm0 0"/><path id="aP" d="M1.813 0v-8.297H.938V0Zm0 0"/><path id="aQ" d="M8.328 0v-3.594c0-.828-.219-1.828-1.61-1.828-1.015 0-1.577.703-1.765.969-.203-.766-.86-.969-1.484-.969-.985 0-1.5.625-1.703.875v-.812H.922V0h.906v-2.969c0-.797.313-1.734 1.188-1.734 1.093 0 1.156.75 1.156 1.187V0h.906v-2.969c0-.797.313-1.734 1.188-1.734 1.093 0 1.156.75 1.156 1.187V0Zm0 0"/><path id="aR" d="M4.203-1.516c0-.609-.36-1-.406-1.046-.453-.47-.813-.532-1.531-.672-.438-.094-1.047-.203-1.047-.813 0-.734.843-.734 1-.734.625 0 1.125.14 1.656.437l.14-.765a3.9 3.9 0 0 0-1.687-.375c-.265 0-1.937 0-1.937 1.547 0 .53.297.89.468 1.062.438.36.735.422 1.438.563.39.093 1.078.234 1.078.859 0 .828-.922.828-1.094.828A3.12 3.12 0 0 1 .47-1.219l-.14.813c.046.031.859.531 1.968.531 1.547 0 1.906-.937 1.906-1.64m0 0"/><path id="aS" d="M2.11-.016v-.953h-.97V0h.298L1.14 1.5h.468Zm0 0"/><path id="aT" d="M5.063 0v-3.594c0-.734-.157-1.828-1.594-1.828-.672 0-1.25.297-1.703.875v-.812H.922V0h.906v-2.969c0-.75.281-1.734 1.188-1.734 1.109 0 1.14.766 1.14 1.187V0Zm0 0"/><path id="aV" d="M5.563-2.672c0-1.437-.75-2.75-1.875-2.75-.485 0-1.25.156-1.876.672v-.562H.939v7.625h.906V-.531c.406.36.906.656 1.547.656 1.156 0 2.172-1.172 2.172-2.797m-.907.016c0 1.203-.812 2.062-1.703 2.062-.328 0-.562-.125-.781-.297-.297-.25-.328-.468-.328-.656v-2.469a1.47 1.47 0 0 1 1.219-.671c.874 0 1.593.89 1.593 2.03m0 0"/><path id="aW" d="m3.688-5.36-.485-.515-.828.719v-3.14H1.5v3.874L.328-3.375l.453.547.719-.656V0h.875v-4.234Zm0 0"/><path id="aX" d="M4.797 0v-3.5c0-1.156-.828-1.984-1.938-1.984-.718 0-1.25.172-1.843.5l.078.78c.515-.374 1.062-.593 1.765-.593.547 0 1.032.453 1.032 1.313v.5c-.547.015-1.266.062-1.985.297C1.11-2.422.641-1.97.641-1.375c0 .531.312 1.5 1.328 1.5.656 0 1.5-.203 1.937-.562V0ZM3.89-1.61c0 .25 0 .532-.407.766-.312.203-.718.25-.906.25-.64 0-1.078-.343-1.078-.797 0-.812 1.656-.984 2.39-.984Zm0 0"/><path id="aY" d="M4.86-.5c0-.031-.032-.406-.048-.453l-.015-.344a2.8 2.8 0 0 1-1.828.672c-1 0-1.64-.875-1.64-2.047 0-.984.484-2.078 1.671-2.078.797 0 1.14.203 1.656.547l.14-.781c-.702-.407-1.093-.5-1.796-.5-1.656 0-2.578 1.453-2.578 2.812C.422-1.14 1.516.125 2.953.125c.578 0 1.25-.156 1.906-.625m0 0"/><path id="aZ" d="M5.063 0v-8.297h-.891v3.485a2.65 2.65 0 0 0-1.688-.61c-1.14 0-2.062 1.219-2.062 2.766S1.297.125 2.437.125c.438 0 1.11-.156 1.704-.734V0ZM4.14-1.406c-.282.515-.703.812-1.22.812-.733 0-1.593-.562-1.593-2.047 0-1.593 1.016-2.062 1.703-2.062.469 0 .86.234 1.11.625Zm0 0"/><path id="ba" d="m5.219 2.234-.157-.703c-.265.11-.546.172-.812.172-.328-.031-.61-.094-.625-.453C3.609.719 4.109.313 4.656 0h.14v-3.5c0-1.156-.827-1.984-1.937-1.984-.718 0-1.25.172-1.843.5l.078.78c.515-.374 1.062-.593 1.765-.593.547 0 1.032.453 1.032 1.313v.5c-.547.015-1.266.062-1.985.297C1.11-2.422.641-1.97.641-1.375c0 .531.312 1.5 1.328 1.5.656 0 1.5-.203 1.937-.562V0c-.594.328-1.078.906-1.031 1.516 0 .515.375 1.015 1.172 1.015.406 0 .703-.062 1.172-.297M3.89-1.609c0 .25 0 .53-.407.765-.312.203-.718.25-.906.25-.64 0-1.078-.343-1.078-.797 0-.812 1.656-.984 2.39-.984Zm0 0"/><path id="bb" d="M2.11 0v-.969h-.97V0Zm0 0"/><path id="bc" d="M4.531-1.766v-6.53h-1v6.483c0 .688-.344 1.329-1.39 1.329a1.96 1.96 0 0 1-1.485-.657L.484-.25c.704.36 1.375.5 2 .5 1.25 0 2.047-.734 2.047-2.016m0 0"/><path id="bd" d="M4.203-1.516c0-.609-.36-1-.406-1.046-.453-.47-.813-.532-1.531-.672-.438-.094-1.047-.203-1.047-.813 0-.734.843-.734 1-.734.625 0 1.125.14 1.656.437l.14-.765a3.9 3.9 0 0 0-1.687-.375c-.265 0-1.937 0-1.937 1.547 0 .53.297.89.468 1.062.438.36.735.422 1.438.563.39.093 1.078.234 1.078.859 0 .828-.922.828-1.094.828A3.12 3.12 0 0 1 .47-1.219l-.14.813c.046.031.859.531 1.968.531 1.547 0 1.906-.937 1.906-1.64m-.312-6.78h-.922l-1.547 2h.719Zm0 0"/><path id="be" d="M4.86-2.687c0-.516-.048-1.25-.423-1.876-.5-.828-1.328-.921-1.671-.921C1.469-5.484.39-4.25.39-2.687.39-1.141 1.5.078 2.844.124c-.531.344-.875.828-.828 1.39 0 .516.375 1.016 1.172 1.016.39 0 .703-.062 1.171-.297l-.156-.703c-.266.11-.547.172-.812.172-.328-.031-.625-.094-.625-.453-.016-.531.5-.969 1.047-1.281.328-.094.64-.25.984-.485 0-.046-.047-.437-.047-.437s-.031-.281-.031-.328c-.703.593-1.407.687-1.766.687-.922 0-1.703-.828-1.734-2.093Zm-.704-.641h-2.86c.204-.813.767-1.438 1.47-1.438.359 0 1.187.157 1.39 1.438m0 0"/><path id="bf" d="M5.172-5.312h-.89c-.548 1.421-1.47 3.765-1.516 4.625H2.75c-.062-.72-.687-2.282-.797-2.532L1.11-5.312H.172L2.39 0l-.422 1.094c-.266.593-.438.656-.657.656-.171 0-.546-.047-.921-.187l.078.78c.062.016.469.095.844.095.296 0 .843 0 1.359-1.313Zm0 0"/><path id="bg" d="m3.89-.344-.171-.703c-.422.375-.86.422-1.078.422-.532 0-.594-.562-.594-.984v-3h1.64v-.703h-1.64v-1.516h-.828v1.516h-1v.703h.969v3.203c0 .703.156 1.531.984 1.531.797 0 1.36-.281 1.719-.469m0 0"/><path id="bh" d="M7.766-5.312H6.89l-.703 2.437c-.172.563-.516 1.688-.563 2.203-.047-.281-.234-1.078-.484-1.937l-.797-2.703H3.53L2.844-2.97c-.219.75-.5 1.781-.531 2.282h-.016c-.016-.235-.14-.86-.375-1.672l-.844-2.953H.172L1.766 0h.922c.453-1.5 1.156-3.781 1.218-4.61h.016c.015.485.265 1.344.344 1.626L5.109 0h1.063Zm0 0"/><path id="bj" d="M5.063 0v-5.312h-.907v3.421c0 .907-.625 1.36-1.406 1.36-.844 0-.922-.313-.922-.844v-3.937H.922v3.984c0 .86.265 1.453 1.25 1.453.344 0 1.281-.062 2.015-.719V0Zm0 0"/><path id="bk" d="M5.063 0v-3.594c0-.734-.157-1.828-1.594-1.828-.828 0-1.375.469-1.656.813v-3.688H.922V0h.906v-2.969c0-.75.281-1.734 1.188-1.734 1.109 0 1.14.766 1.14 1.187V0Zm0 0"/><path id="bm" d="M4.86-6.562c0-.922-.563-1.86-2.25-1.86-.938 0-1.61.375-1.97.64l.266.735a2.5 2.5 0 0 1 1.719-.656c.64 0 1.328.156 1.328 1.125 0 .547-.25.766-.453.937C2.828-5.062 2.203-4 2.203-2.67v.608h.766v-.578c0-1.28.781-2.125 1.234-2.5.25-.203.656-.593.656-1.421M3.077 0v-.969H2.11V0Zm0 0"/><path id="bn" d="M7.406 0 4.391-8.297H3.328L.328 0h.875l.875-2.422h3.375L6.328 0ZM5.203-3.094h-2.86l1.423-4.344Zm0 0"/><path id="bo" d="M2.344-8.297h-.969l.094 6.235h.781Zm0 8.297v-.969h-.969V0Zm0 0"/><path id="bp" d="M7.969-4.125c0-2.531-1.719-4.422-3.657-4.422-1.984 0-3.671 1.922-3.671 4.422C.64-1.609 2.375.25 4.297.25c1.984 0 3.672-1.875 3.672-4.375m-1.032-.172C6.938-1.953 5.658-.5 4.313-.5c-1.39 0-2.64-1.5-2.64-3.797 0-2.203 1.297-3.516 2.625-3.516 1.375 0 2.64 1.344 2.64 3.516m0 0"/><path id="bq" d="M5.563-2.672c0-1.469-.782-2.75-1.891-2.75-.344 0-1.11.063-1.86.672v-3.547H.939V0h.906v-.531c.547.515 1.125.656 1.547.656 1.14 0 2.172-1.172 2.172-2.797m-.907 0c0 1.563-.968 2.078-1.703 2.078-.328 0-.562-.125-.781-.297-.281-.25-.328-.453-.328-.656V-4.03c.218-.328.64-.672 1.234-.672.719 0 1.578.547 1.578 2.031m0 0"/><path id="br" d="M2.11-4.344v-.968h-.97v.968Zm0 4.328v-.953h-.97V0h.298L1.14 1.5h.468Zm0 0"/><path id="bs" d="M2.11-4.344v-.968h-.97v.968ZM2.11 0v-.969h-.97V0Zm0 0"/><path id="bt" d="M7.547-7.484v-.75H.422v.75H2c.14 0 .281-.016.422-.016h1.062V0H4.5v-7.5h1.063c.14 0 .28.016.421.016Zm0 0"/><path id="bu" d="m5.672-4.703-.125-.719c-.234 0-1.047 0-1.828.39-.39-.327-.875-.39-1.11-.39-1.046 0-1.875.875-1.875 1.922 0 .422.125.828.391 1.188a1.64 1.64 0 0 0-.344 1.015c0 .453.156.75.297.906C.468 0 .328.516.328.844c0 .875 1.125 1.61 2.594 1.61 1.453 0 2.594-.704 2.594-1.61 0-1.688-1.938-1.688-2.422-1.688H2.078c-.172 0-.672 0-.672-.625 0-.265.047-.343.11-.437.203.14.593.343 1.078.343 1.031 0 1.875-.859 1.875-1.937a2.13 2.13 0 0 0-.36-1.156 7 7 0 0 1 .954-.063c.046 0 .312 0 .609.016M3.64-3.5c0 1.063-.672 1.281-1.032 1.281-.53 0-1.062-.36-1.062-1.265 0-1.063.672-1.282 1.047-1.282.531 0 1.047.36 1.047 1.266M4.688.844c0 .562-.829.953-1.766.953-.922 0-1.766-.375-1.766-.953 0-.047 0-.813.907-.813h1.046c.266 0 1.579 0 1.579.813m0 0"/><path id="bA" d="M4.563 0v-.437H3.266v-5.157c0-.187 0-.297-.266-.297-.11 0-.125 0-.203.063-.688.516-1.656.516-1.828.516H.797v.437h.172a4.2 4.2 0 0 0 1.203-.172v4.61H.89V0c.343-.031 1.422-.031 1.828-.031.422 0 1.484 0 1.844.031m0 0"/><path id="bB" d="M4.86-2.953c0-.469-.032-1.39-.485-2.094-.297-.437-.828-.844-1.719-.844-1.281 0-2.218.72-2.218 1.938 0 1.125.765 1.937 2.093 1.937.406 0 .781-.203 1.063-.687v.172c0 .578-.063 1.156-.235 1.531-.109.234-.468.703-1.171.703-.079 0-.454 0-.735-.187a.55.55 0 0 0 .422-.563c0-.375-.281-.578-.578-.578-.25 0-.594.14-.594.594 0 .61.469 1.14 1.5 1.14 1.25 0 2.656-.796 2.656-3.062m-1.266-.89c0 .406-.172 1.452-1.031 1.452-.86 0-.86-.656-.86-1.53 0-.876 0-1.61.984-1.61.563 0 .766.515.797.593.11.297.11.782.11 1.094m0 0"/><path id="bC" d="M4.766-2.016h-.453c-.016.125-.094.766-.235.829-.11.046-.781.046-.937.046H1.859c.485-.39 1.016-.812 1.47-1.125.75-.53 1.437-1.015 1.437-1.89 0-1.047-.953-1.735-2.25-1.735-1.11 0-1.985.532-1.985 1.36 0 .468.36.687.672.687a.65.65 0 0 0 .656-.672c0-.203-.078-.53-.468-.64.312-.25.718-.282.89-.282.735 0 1.203.547 1.203 1.282 0 .656-.375 1.234-.859 1.718l-2 1.985c-.094.094-.094.11-.094.281V0H4.5Zm0 0"/><path id="bD" d="M3.516-1.266H3.28c-.015.157-.094.563-.187.625-.047.047-.578.047-.688.047H1.125c.734-.64.984-.843 1.39-1.172.516-.406 1-.843 1-1.5 0-.843-.734-1.359-1.624-1.359-.86 0-1.453.61-1.453 1.25 0 .344.296.39.375.39.156 0 .359-.124.359-.374 0-.125-.047-.375-.406-.375.218-.485.687-.641 1.015-.641.703 0 1.063.547 1.063 1.11 0 .609-.438 1.078-.656 1.328L.516-.266C.437-.203.437-.187.437 0h2.876Zm0 0"/><path id="bE" d="M3.516-1.406c0-.782-.594-1.5-1.453-1.5-.313 0-.672.062-.985.328v-1.313c.36.094.563.094.672.094.922 0 1.469-.625 1.469-.734 0-.078-.047-.094-.078-.094 0 0-.032 0-.063.016-.172.062-.531.203-1.047.203-.203 0-.562-.016-1.015-.188-.079-.031-.094-.031-.094-.031-.094 0-.094.078-.094.188v2.046c0 .125 0 .204.11.204.062 0 .078 0 .14-.094.297-.375.734-.438.969-.438.422 0 .61.328.64.39.126.235.172.5.172.907 0 .203 0 .61-.218.922a.98.98 0 0 1-.813.422c-.453 0-.922-.25-1.094-.719.266.016.407-.156.407-.344 0-.296-.266-.343-.36-.343 0 0-.343 0-.343.375 0 .625.578 1.25 1.406 1.25.89 0 1.672-.657 1.672-1.547m0 0"/><path id="bF" d="M2.016 1.734v-.328h-.72V-4.89h.72v-.328H.953v6.953Zm0 0"/><path id="bG" d="M3.297 0v-.25H3.03c-.703 0-.703-.094-.703-.328v-3.86c0-.187 0-.187-.203-.187-.453.438-1.078.438-1.36.438v.25c.157 0 .626 0 1-.188v3.547c0 .234 0 .328-.687.328H.812V0l1.235-.031Zm0 0"/><path id="bH" d="M3.594-2.219c0-.765-.094-1.328-.406-1.812-.22-.313-.657-.594-1.204-.594C.36-4.625.36-2.719.36-2.219s0 2.36 1.625 2.36c1.61 0 1.61-1.86 1.61-2.36m-.625-.094c0 .516 0 1.032-.094 1.47-.14.64-.61.78-.89.78-.329 0-.75-.187-.891-.75C1-1.219 1-1.796 1-2.312c0-.515 0-1.046.094-1.421.156-.547.593-.703.89-.703.375 0 .735.234.86.64.11.375.125.875.125 1.485m0 0"/><path id="bI" d="M3.688-1.14v-.25h-.782V-4.5c0-.14 0-.203-.14-.203-.094 0-.125 0-.188.11L.266-1.392v.25h2.062v.563c0 .25 0 .328-.578.328h-.187V0l1.046-.031L3.672 0v-.25h-.188c-.578 0-.578-.078-.578-.328v-.563Zm-1.313-.25H.531l1.844-2.548Zm0 0"/><path id="bJ" d="M1.297 1.734v-6.953H.219v.328h.734v6.297H.22v.328Zm0 0"/><path id="bK" d="M7.813-1.75v-.203H.109v.203Zm0 0"/><path id="bL" d="M3.578-2.297c0-1.719-.765-2.328-1.578-2.328a1.55 1.55 0 0 0-1.11.422c-.234.234-.515.5-.515 1.125 0 .89.703 1.547 1.516 1.547.562 0 .859-.375 1.015-.688v.14c0 1.735-.844 2-1.265 2-.157 0-.532-.015-.72-.233a.315.315 0 0 0 .313-.329.32.32 0 0 0-.328-.328c-.203 0-.328.14-.328.344 0 .469.39.766 1.063.766 1 0 1.937-.938 1.937-2.438M2.891-3c0 .906-.516 1.266-.953 1.266-.282 0-.532-.079-.735-.407-.156-.25-.156-.546-.156-.937 0-.406 0-.672.203-.953.172-.25.39-.39.75-.39s.578.218.688.405c.187.282.203.782.203 1.016m0 0"/><path id="bM" d="M2.516 0v-.25h-.172c-.578 0-.578-.078-.578-.328v-3.61c0-.234 0-.328.578-.328h.172v-.25l-1.078.032-1.079-.032v.25h.172c.578 0 .578.094.578.329v3.609c0 .25 0 .328-.578.328H.36V0l1.079-.031Zm0 0"/><path id="bN" d="M3.578-1.422c0-.89-.703-1.547-1.515-1.547-.563 0-.86.375-1.016.688 0-.563.047-1.078.312-1.516.235-.375.61-.625 1.063-.625.203 0 .484.047.625.234-.172.016-.328.141-.328.344a.32.32 0 0 0 .328.328c.219 0 .344-.14.344-.343 0-.407-.297-.766-.985-.766-1 0-2.031.922-2.031 2.422C.375-.406 1.219.14 2 .14c.844 0 1.578-.657 1.578-1.563m-.672 0c0 .39 0 .688-.187.969A.82.82 0 0 1 2-.078c-.36 0-.625-.203-.781-.516-.094-.203-.157-.562-.157-.968 0-.688.407-1.204.97-1.204.312 0 .53.125.702.375.172.266.172.563.172.97m0 0"/><path id="bO" d="M5.547 0v-.25h-.125c-.469 0-.516-.078-.594-.266L3.125-4.812c-.031-.11-.062-.157-.187-.157-.141 0-.157.047-.204.157L1.125-.734C1.063-.562.938-.25.313-.25V0c.234-.016.484-.031.718-.031.282 0 .797.031.844.031v-.25c-.312 0-.516-.14-.516-.328 0-.063.016-.078.047-.14l.328-.86H3.72l.406 1.016c0 .03.031.078.031.109 0 .203-.375.203-.562.203V0l1.031-.031c.328 0 .86.031.922.031M3.609-1.828H1.83l.89-2.266Zm0 0"/><path id="bP" d="M4.047 0v-.25c-.469 0-.516-.047-.516-.39v-4.204l-1.047.078v.25c.47 0 .516.063.516.391v1.453a1.37 1.37 0 0 0-.969-.406c-.937 0-1.703.703-1.703 1.578S1.062.063 1.938.063c.578 0 .921-.297 1.03-.422v.422ZM2.969-.734c-.172.328-.531.609-.985.609-.39 0-.671-.234-.812-.437-.14-.204-.219-.485-.219-.922 0-.172 0-.688.281-1.016.282-.312.625-.375.829-.375.328 0 .64.156.828.406.078.11.078.11.078.25Zm0 0"/><path id="bQ" d="M5.469-2.75V-3c-.188.016-.313.031-.5.031-.219 0-.485-.015-.688-.031v.25c.235 0 .36.14.36.297 0 .062 0 .078-.047.172L3.922-.547l-.75-1.906a.3.3 0 0 1-.031-.125c0-.156.172-.172.375-.172V-3c-.25.016-.5.031-.75.031-.203 0-.422-.015-.625-.031v.25c.172 0 .312 0 .406.047.094.078.156.312.156.312s-.015.063-.031.079L2.016-.641l-.703-1.812c-.032-.094-.032-.094-.032-.125 0-.172.25-.172.375-.172V-3s-.515.031-.797.031C.641-2.969.422-2.984.203-3v.25c.281 0 .438 0 .5.203l.969 2.453c.047.11.062.157.203.157.125 0 .14-.047.172-.141l.797-1.984.765 1.968c.047.094.063.157.204.157.124 0 .14-.047.187-.157l.875-2.234c.14-.344.375-.422.594-.422m0 0"/><path id="bR" d="M3.266-.844c0-.015-.016-.094-.125-.094-.094 0-.11.047-.125.11-.22.562-.75.672-1 .672-.328 0-.641-.14-.844-.406-.266-.329-.266-.75-.266-1.032h2.157c.156 0 .203 0 .203-.14 0-.625-.344-1.375-1.391-1.375a1.59 1.59 0 0 0-1.61 1.578c0 .89.782 1.594 1.704 1.594.937 0 1.297-.75 1.297-.907m-.485-.922H.906c.078-.984.703-1.14.969-1.14.86 0 .89.969.906 1.14m0 0"/><path id="bS" d="M4.11 0v-.25c-.454 0-.516 0-.516-.297v-1.562c0-.61-.297-.97-1.047-.97-.578 0-.938.313-1.14.688v-.687L.374-3v.25c.469 0 .531.047.531.39v1.813c0 .297-.078.297-.531.297V0s.5-.031.797-.031c.25 0 .734.031.797.031v-.25c-.453 0-.516 0-.516-.297v-1.265c0-.72.578-1.063 1.031-1.063.485 0 .547.375.547.734v1.594c0 .297-.062.297-.515.297V0s.5-.031.797-.031c.25 0 .734.031.796.031m0 0"/><path id="bT" d="M2.61-.875v-.39h-.235v.374c0 .485-.219.735-.5.735-.469 0-.469-.578-.469-.703V-2.75h1.078V-3H1.406v-1.281h-.25c0 .625-.281 1.312-.953 1.328v.203h.64v1.875c0 .781.595.938.985.938.469 0 .781-.391.781-.938m0 0"/><clipPath id="b"><path d="M.535.266h6.883v9.636H.535Zm0 0"/></clipPath><clipPath id="a"><path d="M0 0h8v10H0z"/></clipPath><clipPath id="bw"><path d="M15.023 568.348H403v11.336H15.023Zm0 0"/></clipPath><linearGradient id="bx" x1="0" x2="388.063" y1="0" y2="0" gradientTransform="matrix(1 0 0 -1 15.024 579.685)" gradientUnits="userSpaceOnUse"><stop offset="0" stop-color="#d9d9d9"/><stop offset=".25" stop-color="#d9d9d9"/><stop offset=".313" stop-color="#d9d9d9"/><stop offset=".344" stop-color="#d9d9d9"/><stop offset=".352" stop-color="#d9d9d9"/><stop offset=".355" stop-color="#d5d5d5"/><stop offset=".359" stop-color="#d1d1d1"/><stop offset=".363" stop-color="#c7c7c7"/><stop offset=".367" stop-color="#bdbdbd"/><stop offset=".371" stop-color="#b3b3b3"/><stop offset=".375" stop-color="#a9a9a9"/><stop offset=".379" stop-color="#9f9f9f"/><stop offset=".383" stop-color="#949494"/><stop offset=".387" stop-color="#8a8a8a"/><stop offset=".391" stop-color="gray"/><stop offset=".395" stop-color="#7a7a7a"/><stop offset=".398" stop-color="#737373"/><stop offset=".406" stop-color="#737373"/><stop offset=".438" stop-color="#737373"/><stop offset=".5" stop-color="#737373"/><stop offset=".563" stop-color="#737373"/><stop offset=".566" stop-color="#7a7a7a"/><stop offset=".57" stop-color="#828282"/><stop offset=".574" stop-color="#8c8c8c"/><stop offset=".578" stop-color="#969696"/><stop offset=".582" stop-color="#a0a0a0"/><stop offset=".586" stop-color="#aaa"/><stop offset=".59" stop-color="#b4b4b4"/><stop offset=".594" stop-color="#bebebe"/><stop offset=".598" stop-color="#c8c8c8"/><stop offset=".602" stop-color="#d2d2d2"/><stop offset=".605" stop-color="#d5d5d5"/><stop offset=".609" stop-color="#d9d9d9"/><stop offset=".625" stop-color="#d9d9d9"/><stop offset=".75" stop-color="#d9d9d9"/><stop offset="1" stop-color="#d9d9d9"/></linearGradient><g id="c" clip-path="url(#a)"><g clip-path="url(#b)"><path fill-rule="evenodd" d="m3.977 7.836 3.441 2.066V1.645c0-.762-.617-1.38-1.375-1.38H1.914C1.152.266.535.884.535 1.646v8.257Zm-2.754.851 2.754-1.652L6.73 8.687V1.646a.69.69 0 0 0-.687-.692H1.914a.69.69 0 0 0-.691.692Zm0 0"/></g></g></defs><use xlink:href="#c" transform="translate(9 27)"/><use xlink:href="#d" x="17.008" y="23.315"/><use xlink:href="#e" x="20.884" y="23.315"/><use xlink:href="#f" x="26.154" y="23.315"/><use xlink:href="#g" x="384.039" y="23.315"/><use xlink:href="#h" x="390.168" y="23.315"/><use xlink:href="#i" x="392.79" y="23.315"/><use xlink:href="#j" x="396.727" y="23.315"/><use xlink:href="#k" x="75.165" y="34.908"/><use xlink:href="#l" x="83.569" y="34.908"/><use xlink:href="#m" x="89.774" y="34.908"/><use xlink:href="#n" x="94.221" y="34.908"/><use xlink:href="#o" x="100.569" y="34.908"/><use xlink:href="#p" x="108.017" y="34.908"/><use xlink:href="#q" x="111.436" y="34.908"/><use xlink:href="#m" x="117.545" y="34.908"/><use xlink:href="#r" x="121.993" y="34.908"/><use xlink:href="#s" x="128.568" y="34.908"/><use xlink:href="#r" x="134.259" y="34.908"/><use xlink:href="#t" x="140.834" y="34.908"/><use xlink:href="#o" x="143.894" y="34.908"/><use xlink:href="#u" x="146.955" y="34.908"/><use xlink:href="#v" x="157.32" y="34.908"/><use xlink:href="#n" x="162.365" y="34.908"/><use xlink:href="#o" x="168.713" y="34.908"/><use xlink:href="#q" x="171.773" y="34.908"/><use xlink:href="#w" x="186.85" y="34.908"/><use xlink:href="#x" x="194.901" y="34.908"/><use xlink:href="#y" x="199.071" y="34.908"/><use xlink:href="#z" x="202.218" y="34.908"/><use xlink:href="#A" x="205.75" y="34.908"/><use xlink:href="#B" x="212.833" y="34.908"/><use xlink:href="#x" x="216.841" y="34.908"/><use xlink:href="#C" x="221.27" y="34.908"/><use xlink:href="#D" x="223.996" y="34.908"/><use xlink:href="#E" x="228.605" y="34.908"/><use xlink:href="#F" x="233.366" y="34.908"/><use xlink:href="#G" x="238.127" y="34.908"/><use xlink:href="#H" x="251.342" y="34.908"/><use xlink:href="#I" x="254.929" y="34.908"/><use xlink:href="#J" x="260.721" y="34.908"/><use xlink:href="#K" x="266.567" y="34.908"/><use xlink:href="#L" x="271.175" y="34.908"/><use xlink:href="#M" x="275.784" y="34.908"/><use xlink:href="#K" x="279.693" y="34.908"/><use xlink:href="#N" x="284.301" y="34.908"/><use xlink:href="#O" x="288.91" y="34.908"/><use xlink:href="#L" x="291.474" y="34.908"/><use xlink:href="#P" x="296.083" y="34.908"/><use xlink:href="#O" x="300.691" y="34.908"/><use xlink:href="#L" x="303.256" y="34.908"/><use xlink:href="#Q" x="307.864" y="34.908"/><use xlink:href="#O" x="312.473" y="34.908"/><use xlink:href="#Q" x="315.037" y="34.908"/><use xlink:href="#L" x="319.645" y="34.908"/><use xlink:href="#O" x="324.254" y="34.908"/><use xlink:href="#Q" x="326.818" y="34.908"/><use xlink:href="#R" x="331.427" y="34.908"/><use xlink:href="#S" x="336.035" y="34.908"/><use xlink:href="#T" x="392.766" y="35.506" fill="red"/><use xlink:href="#U" x="395.718" y="34.908" fill="red"/><path fill="none" stroke="#000" stroke-miterlimit="10" stroke-width=".398" d="M17.008 39.293h384.094"/><use xlink:href="#V" x="399.042" y="142.059"/><use xlink:href="#W" x="399.042" y="136.536"/><use xlink:href="#X" x="399.042" y="134.185"/><use xlink:href="#Y" x="399.042" y="129.953"/><use xlink:href="#W" x="399.042" y="127.601"/><use xlink:href="#Z" x="399.042" y="125.25"/><use xlink:href="#aa" x="399.042" y="118.667"/><use xlink:href="#W" x="399.042" y="113.965"/><use xlink:href="#ab" x="399.042" y="108.792"/><use xlink:href="#Z" x="399.042" y="102.145"/><use xlink:href="#ac" x="399.042" y="98.383"/><use xlink:href="#ad" x="399.042" y="95.084"/><use xlink:href="#ae" x="399.042" y="90.382"/><use xlink:href="#af" x="399.042" y="87.042"/><use xlink:href="#Y" x="399.042" y="82.81"/><use xlink:href="#Z" x="399.042" y="80.459"/><use xlink:href="#ag" x="399.042" y="76.697"/><use xlink:href="#ag" x="399.042" y="69.644"/><use xlink:href="#Z" x="399.042" y="62.59"/><use xlink:href="#ah" x="399.042" y="56.007"/><use xlink:href="#ai" x="399.042" y="51.305"/><use xlink:href="#aj" x="399.042" y="48.953"/><use xlink:href="#ak" x="399.042" y="44.721"/><use xlink:href="#al" x="403.164" y="40.487"/><use xlink:href="#am" x="403.164" y="46.831"/><use xlink:href="#an" x="403.164" y="49.182"/><use xlink:href="#ao" x="403.164" y="51.773"/><use xlink:href="#ap" x="403.164" y="56.005"/><use xlink:href="#aq" x="403.164" y="62.157"/><use xlink:href="#ar" x="403.164" y="66.86"/><use xlink:href="#as" x="403.164" y="73.443"/><use xlink:href="#ar" x="403.164" y="77.795"/><use xlink:href="#at" x="403.164" y="81.556"/><use xlink:href="#au" x="403.164" y="84.856"/><use xlink:href="#ap" x="403.164" y="89.558"/><use xlink:href="#ao" x="403.164" y="92.898"/><use xlink:href="#av" x="403.164" y="97.13"/><use xlink:href="#aw" x="403.164" y="99.481"/><use xlink:href="#ax" x="403.164" y="103.243"/><use xlink:href="#ay" x="403.164" y="110.766"/><use xlink:href="#az" x="403.164" y="115.469"/><use xlink:href="#aA" x="403.164" y="117.82"/><use xlink:href="#aB" x="403.164" y="122.052"/><use xlink:href="#aC" x="101.261" y="61.174"/><use xlink:href="#aD" x="110.837" y="61.174"/><use xlink:href="#aE" x="111.231" y="61.174"/><use xlink:href="#aF" x="131.102" y="51.089" fill="red"/><use xlink:href="#aG" x="131.102" y="61.174"/><use xlink:href="#aH" x="138.586" y="61.174"/><use xlink:href="#aI" x="144.121" y="61.174"/><use xlink:href="#aJ" x="148.102" y="61.174"/><use xlink:href="#aK" x="153.781" y="61.174"/><use xlink:href="#aL" x="160.428" y="61.174"/><use xlink:href="#aM" x="163.512" y="61.174"/><use xlink:href="#aI" x="168.712" y="61.174"/><use xlink:href="#aN" x="172.693" y="61.174"/><use xlink:href="#aO" x="178.551" y="61.174"/><use xlink:href="#aN" x="183.632" y="61.174"/><use xlink:href="#aP" x="189.49" y="61.174"/><use xlink:href="#aK" x="192.24" y="61.174"/><use xlink:href="#aQ" x="194.99" y="61.174"/><use xlink:href="#aR" x="204.243" y="61.174"/><use xlink:href="#aJ" x="208.726" y="61.174"/><use xlink:href="#aK" x="214.404" y="61.174"/><use xlink:href="#aM" x="217.154" y="61.174"/><use xlink:href="#aS" x="222.355" y="61.174"/><use xlink:href="#aT" x="131.102" y="82.818"/><use xlink:href="#aK" x="137.103" y="82.818"/><use xlink:href="#aM" x="139.853" y="82.818"/><use xlink:href="#aU" x="148.951" y="72.733" fill="red"/><use xlink:href="#aV" x="148.951" y="82.818"/><use xlink:href="#aW" x="154.952" y="82.818"/><use xlink:href="#aX" x="158.383" y="82.818"/><use xlink:href="#aY" x="163.99" y="82.818"/><use xlink:href="#aO" x="169.191" y="82.818"/><use xlink:href="#aY" x="174.272" y="82.818"/><use xlink:href="#aK" x="179.472" y="82.818"/><use xlink:href="#aM" x="182.222" y="82.818"/><use xlink:href="#aS" x="187.422" y="82.818"/><use xlink:href="#aT" x="194.571" y="82.818"/><use xlink:href="#aK" x="200.573" y="82.818"/><use xlink:href="#aM" x="203.322" y="82.818"/><use xlink:href="#aV" x="212.42" y="82.818"/><use xlink:href="#aW" x="218.422" y="82.818"/><use xlink:href="#aX" x="221.853" y="82.818"/><use xlink:href="#aY" x="227.459" y="82.818"/><use xlink:href="#aO" x="232.66" y="82.818"/><use xlink:href="#aY" x="237.741" y="82.818"/><use xlink:href="#aK" x="242.941" y="82.818"/><use xlink:href="#aM" x="245.691" y="82.818"/><use xlink:href="#aT" x="254.789" y="82.818"/><use xlink:href="#aX" x="260.79" y="82.818"/><use xlink:href="#aF" x="266.398" y="72.733" fill="red"/><use xlink:href="#aZ" x="266.398" y="82.818"/><use xlink:href="#aM" x="272.399" y="82.818"/><use xlink:href="#aQ" x="281.497" y="82.818"/><use xlink:href="#aT" x="290.75" y="82.818"/><use xlink:href="#ba" x="296.752" y="82.818"/><use xlink:href="#bb" x="302.359" y="82.818"/><use xlink:href="#aC" x="114.591" y="110.439"/><use xlink:href="#bc" x="131.102" y="110.439"/><use xlink:href="#aM" x="136.589" y="110.439"/><use xlink:href="#bd" x="141.79" y="110.439"/><use xlink:href="#aP" x="146.273" y="110.439"/><use xlink:href="#aK" x="149.023" y="110.439"/><use xlink:href="#aR" x="155.67" y="110.439"/><use xlink:href="#aK" x="160.153" y="110.439"/><use xlink:href="#be" x="162.902" y="110.439"/><use xlink:href="#aU" x="172" y="100.354" fill="red"/><use xlink:href="#aY" x="172" y="110.439"/><use xlink:href="#aO" x="177.2" y="110.439"/><use xlink:href="#bf" x="182.281" y="110.439"/><use xlink:href="#aT" x="187.637" y="110.439"/><use xlink:href="#aK" x="193.639" y="110.439"/><use xlink:href="#bg" x="200.286" y="110.439"/><use xlink:href="#aN" x="204.518" y="110.439"/><use xlink:href="#aO" x="214.273" y="110.439"/><use xlink:href="#aZ" x="223.251" y="110.439"/><use xlink:href="#aI" x="229.253" y="110.439"/><use xlink:href="#aO" x="233.234" y="110.439"/><use xlink:href="#aM" x="238.314" y="110.439"/><use xlink:href="#bh" x="243.515" y="110.439"/><use xlink:href="#aM" x="251.154" y="110.439"/><use xlink:href="#aQ" x="256.355" y="110.439"/><use xlink:href="#aO" x="269.505" y="110.439"/><use xlink:href="#aK" x="274.586" y="110.439"/><use xlink:href="#aM" x="277.336" y="110.439"/><use xlink:href="#aP" x="282.536" y="110.439"/><use xlink:href="#aN" x="285.286" y="110.439"/><use xlink:href="#aT" x="291.144" y="110.439"/><use xlink:href="#bf" x="297.145" y="110.439"/><use xlink:href="#aQ" x="302.501" y="110.439"/><use xlink:href="#aS" x="311.754" y="110.439"/><use xlink:href="#bi" x="131.102" y="121.998" fill="red"/><use xlink:href="#aO" x="131.102" y="132.083"/><use xlink:href="#aR" x="140.08" y="132.083"/><use xlink:href="#bj" x="144.563" y="132.083"/><use xlink:href="#aY" x="150.565" y="132.083"/><use xlink:href="#bk" x="155.765" y="132.083"/><use xlink:href="#bf" x="161.767" y="132.083"/><use xlink:href="#aQ" x="167.122" y="132.083"/><use xlink:href="#aY" x="180.273" y="132.083"/><use xlink:href="#aN" x="185.473" y="132.083"/><use xlink:href="#aR" x="195.229" y="132.083"/><use xlink:href="#aK" x="199.712" y="132.083"/><use xlink:href="#be" x="202.461" y="132.083"/><use xlink:href="#aF" x="211.56" y="121.998" fill="red"/><use xlink:href="#aR" x="211.56" y="132.083"/><use xlink:href="#bg" x="216.043" y="132.083"/><use xlink:href="#aX" x="220.275" y="132.083"/><use xlink:href="#aT" x="225.882" y="132.083"/><use xlink:href="#aK" x="231.883" y="132.083"/><use xlink:href="#aM" x="234.633" y="132.083"/><use xlink:href="#aS" x="239.834" y="132.083"/><use xlink:href="#aU" x="131.102" y="143.641" fill="red"/><use xlink:href="#aO" x="131.102" y="153.727"/><use xlink:href="#aR" x="140.08" y="153.727"/><use xlink:href="#bj" x="144.563" y="153.727"/><use xlink:href="#aY" x="150.565" y="153.727"/><use xlink:href="#bk" x="155.765" y="153.727"/><use xlink:href="#bf" x="161.767" y="153.727"/><use xlink:href="#aQ" x="167.122" y="153.727"/><use xlink:href="#aY" x="180.273" y="153.727"/><use xlink:href="#aN" x="185.473" y="153.727"/><use xlink:href="#aR" x="195.229" y="153.727"/><use xlink:href="#aK" x="199.712" y="153.727"/><use xlink:href="#be" x="202.461" y="153.727"/><use xlink:href="#bl" x="211.56" y="143.641" fill="red"/><use xlink:href="#aR" x="211.56" y="153.727"/><use xlink:href="#bg" x="216.043" y="153.727"/><use xlink:href="#aX" x="220.275" y="153.727"/><use xlink:href="#aT" x="225.882" y="153.727"/><use xlink:href="#aK" x="231.883" y="153.727"/><use xlink:href="#aM" x="234.633" y="153.727"/><use xlink:href="#bm" x="239.834" y="153.727"/><use xlink:href="#aF" x="249.255" y="143.641" fill="red"/><use xlink:href="#bn" x="249.255" y="153.727"/><use xlink:href="#aL" x="256.99" y="153.727"/><use xlink:href="#bo" x="260.074" y="153.727"/><use xlink:href="#aE" x="111.232" y="181.348"/><use xlink:href="#aF" x="131.102" y="171.262" fill="red"/><use xlink:href="#aG" x="131.102" y="181.348"/><use xlink:href="#aH" x="138.586" y="181.348"/><use xlink:href="#aI" x="144.121" y="181.348"/><use xlink:href="#aJ" x="148.102" y="181.348"/><use xlink:href="#aK" x="153.781" y="181.348"/><use xlink:href="#aL" x="160.428" y="181.348"/><use xlink:href="#aM" x="163.512" y="181.348"/><use xlink:href="#aI" x="168.712" y="181.348"/><use xlink:href="#aN" x="172.693" y="181.348"/><use xlink:href="#aO" x="178.551" y="181.348"/><use xlink:href="#aN" x="183.632" y="181.348"/><use xlink:href="#aP" x="189.49" y="181.348"/><use xlink:href="#aK" x="192.24" y="181.348"/><use xlink:href="#aQ" x="194.99" y="181.348"/><use xlink:href="#aR" x="204.243" y="181.348"/><use xlink:href="#aJ" x="208.726" y="181.348"/><use xlink:href="#aK" x="214.404" y="181.348"/><use xlink:href="#aM" x="217.154" y="181.348"/><use xlink:href="#aS" x="222.355" y="181.348"/><use xlink:href="#aT" x="131.102" y="202.991"/><use xlink:href="#aK" x="137.103" y="202.991"/><use xlink:href="#aM" x="139.853" y="202.991"/><use xlink:href="#aU" x="148.951" y="192.906" fill="red"/><use xlink:href="#aV" x="148.951" y="202.991"/><use xlink:href="#aW" x="154.952" y="202.991"/><use xlink:href="#aX" x="158.383" y="202.991"/><use xlink:href="#aY" x="163.99" y="202.991"/><use xlink:href="#aO" x="169.191" y="202.991"/><use xlink:href="#aY" x="174.272" y="202.991"/><use xlink:href="#aK" x="179.472" y="202.991"/><use xlink:href="#aM" x="182.222" y="202.991"/><use xlink:href="#aS" x="187.422" y="202.991"/><use xlink:href="#aT" x="194.571" y="202.991"/><use xlink:href="#aK" x="200.573" y="202.991"/><use xlink:href="#aM" x="203.322" y="202.991"/><use xlink:href="#aV" x="212.42" y="202.991"/><use xlink:href="#aW" x="218.422" y="202.991"/><use xlink:href="#aX" x="221.853" y="202.991"/><use xlink:href="#aY" x="227.459" y="202.991"/><use xlink:href="#aO" x="232.66" y="202.991"/><use xlink:href="#aY" x="237.741" y="202.991"/><use xlink:href="#aK" x="242.941" y="202.991"/><use xlink:href="#aM" x="245.691" y="202.991"/><use xlink:href="#aT" x="254.789" y="202.991"/><use xlink:href="#aX" x="260.79" y="202.991"/><use xlink:href="#aF" x="266.398" y="192.906" fill="red"/><use xlink:href="#aZ" x="266.398" y="202.991"/><use xlink:href="#aM" x="272.399" y="202.991"/><use xlink:href="#aQ" x="281.497" y="202.991"/><use xlink:href="#aT" x="290.75" y="202.991"/><use xlink:href="#ba" x="296.752" y="202.991"/><use xlink:href="#bb" x="302.359" y="202.991"/><use xlink:href="#aC" x="114.591" y="230.613"/><use xlink:href="#aF" x="131.102" y="220.527" fill="red"/><use xlink:href="#bp" x="131.102" y="230.613"/><use xlink:href="#aL" x="139.734" y="230.613"/><use xlink:href="#aY" x="142.818" y="230.613"/><use xlink:href="#aO" x="148.018" y="230.613"/><use xlink:href="#aM" x="153.099" y="230.613"/><use xlink:href="#aS" x="158.3" y="230.613"/><use xlink:href="#aV" x="165.449" y="230.613"/><use xlink:href="#aI" x="171.127" y="230.613"/><use xlink:href="#aO" x="175.108" y="230.613"/><use xlink:href="#aM" x="180.189" y="230.613"/><use xlink:href="#bq" x="185.39" y="230.613"/><use xlink:href="#aX" x="191.391" y="230.613"/><use xlink:href="#aY" x="196.998" y="230.613"/><use xlink:href="#aO" x="202.198" y="230.613"/><use xlink:href="#aK" x="211.177" y="230.613"/><use xlink:href="#aQ" x="213.926" y="230.613"/><use xlink:href="#aS" x="223.179" y="230.613"/><use xlink:href="#bq" x="131.102" y="252.256"/><use xlink:href="#aN" x="137.426" y="252.256"/><use xlink:href="#aT" x="147.181" y="252.256"/><use xlink:href="#aK" x="153.183" y="252.256"/><use xlink:href="#aM" x="155.933" y="252.256"/><use xlink:href="#aU" x="165.03" y="242.171" fill="red"/><use xlink:href="#bh" x="165.03" y="252.256"/><use xlink:href="#aK" x="172.992" y="252.256"/><use xlink:href="#aM" x="175.742" y="252.256"/><use xlink:href="#aZ" x="180.942" y="252.256"/><use xlink:href="#aO" x="186.944" y="252.256"/><use xlink:href="#ba" x="192.024" y="252.256"/><use xlink:href="#aS" x="197.631" y="252.256"/><use xlink:href="#aY" x="204.78" y="252.256"/><use xlink:href="#aN" x="209.981" y="252.256"/><use xlink:href="#aF" x="219.737" y="242.171" fill="red"/><use xlink:href="#aY" x="219.737" y="252.256"/><use xlink:href="#aO" x="224.937" y="252.256"/><use xlink:href="#bf" x="230.018" y="252.256"/><use xlink:href="#aT" x="235.374" y="252.256"/><use xlink:href="#aK" x="241.376" y="252.256"/><use xlink:href="#ba" x="244.125" y="252.256"/><use xlink:href="#br" x="249.732" y="252.256"/><use xlink:href="#aU" x="131.102" y="263.815" fill="red"/><use xlink:href="#aV" x="131.102" y="273.9"/><use xlink:href="#aI" x="136.781" y="273.9"/><use xlink:href="#aO" x="140.762" y="273.9"/><use xlink:href="#aM" x="145.843" y="273.9"/><use xlink:href="#bq" x="151.043" y="273.9"/><use xlink:href="#aX" x="157.044" y="273.9"/><use xlink:href="#aY" x="162.651" y="273.9"/><use xlink:href="#aO" x="167.852" y="273.9"/><use xlink:href="#aK" x="176.83" y="273.9"/><use xlink:href="#aQ" x="179.58" y="273.9"/><use xlink:href="#aS" x="188.833" y="273.9"/><use xlink:href="#bl" x="195.982" y="263.815" fill="red"/><use xlink:href="#aV" x="195.982" y="273.9"/><use xlink:href="#aI" x="201.661" y="273.9"/><use xlink:href="#aO" x="205.642" y="273.9"/><use xlink:href="#aM" x="210.723" y="273.9"/><use xlink:href="#bq" x="215.923" y="273.9"/><use xlink:href="#aX" x="221.924" y="273.9"/><use xlink:href="#aY" x="227.531" y="273.9"/><use xlink:href="#aO" x="232.732" y="273.9"/><use xlink:href="#aK" x="241.71" y="273.9"/><use xlink:href="#aQ" x="244.46" y="273.9"/><use xlink:href="#bo" x="253.713" y="273.9"/><use xlink:href="#aF" x="261.329" y="263.815" fill="red"/><use xlink:href="#bn" x="261.329" y="273.9"/><use xlink:href="#aL" x="269.064" y="273.9"/><use xlink:href="#bo" x="272.148" y="273.9"/><use xlink:href="#aE" x="111.232" y="301.521"/><use xlink:href="#aF" x="131.102" y="291.436" fill="red"/><use xlink:href="#aG" x="131.102" y="301.521"/><use xlink:href="#aH" x="138.586" y="301.521"/><use xlink:href="#aI" x="144.121" y="301.521"/><use xlink:href="#aJ" x="148.102" y="301.521"/><use xlink:href="#aK" x="153.781" y="301.521"/><use xlink:href="#aL" x="160.428" y="301.521"/><use xlink:href="#aM" x="163.512" y="301.521"/><use xlink:href="#aI" x="168.712" y="301.521"/><use xlink:href="#aN" x="172.693" y="301.521"/><use xlink:href="#aO" x="178.551" y="301.521"/><use xlink:href="#aN" x="183.632" y="301.521"/><use xlink:href="#aP" x="189.49" y="301.521"/><use xlink:href="#aK" x="192.24" y="301.521"/><use xlink:href="#aQ" x="194.99" y="301.521"/><use xlink:href="#aR" x="204.243" y="301.521"/><use xlink:href="#aJ" x="208.726" y="301.521"/><use xlink:href="#aK" x="214.404" y="301.521"/><use xlink:href="#aM" x="217.154" y="301.521"/><use xlink:href="#aS" x="222.355" y="301.521"/><use xlink:href="#aT" x="131.102" y="323.165"/><use xlink:href="#aK" x="137.103" y="323.165"/><use xlink:href="#aM" x="139.853" y="323.165"/><use xlink:href="#aU" x="148.951" y="313.079" fill="red"/><use xlink:href="#aV" x="148.951" y="323.165"/><use xlink:href="#aW" x="154.952" y="323.165"/><use xlink:href="#aX" x="158.383" y="323.165"/><use xlink:href="#aY" x="163.99" y="323.165"/><use xlink:href="#aO" x="169.191" y="323.165"/><use xlink:href="#aY" x="174.272" y="323.165"/><use xlink:href="#aK" x="179.472" y="323.165"/><use xlink:href="#aM" x="182.222" y="323.165"/><use xlink:href="#aS" x="187.422" y="323.165"/><use xlink:href="#aT" x="194.571" y="323.165"/><use xlink:href="#aK" x="200.573" y="323.165"/><use xlink:href="#aM" x="203.322" y="323.165"/><use xlink:href="#aV" x="212.42" y="323.165"/><use xlink:href="#aW" x="218.422" y="323.165"/><use xlink:href="#aX" x="221.853" y="323.165"/><use xlink:href="#aY" x="227.459" y="323.165"/><use xlink:href="#aO" x="232.66" y="323.165"/><use xlink:href="#aY" x="237.741" y="323.165"/><use xlink:href="#aK" x="242.941" y="323.165"/><use xlink:href="#aM" x="245.691" y="323.165"/><use xlink:href="#aT" x="254.789" y="323.165"/><use xlink:href="#aX" x="260.79" y="323.165"/><use xlink:href="#aF" x="266.398" y="313.079" fill="red"/><use xlink:href="#aZ" x="266.398" y="323.165"/><use xlink:href="#aM" x="272.399" y="323.165"/><use xlink:href="#aQ" x="281.497" y="323.165"/><use xlink:href="#aT" x="290.75" y="323.165"/><use xlink:href="#ba" x="296.752" y="323.165"/><use xlink:href="#bb" x="302.359" y="323.165"/><use xlink:href="#aC" x="114.591" y="350.786"/><use xlink:href="#aU" x="131.102" y="340.701" fill="red"/><use xlink:href="#bc" x="131.102" y="350.786"/><use xlink:href="#aX" x="136.589" y="350.786"/><use xlink:href="#aY" x="146.094" y="350.786"/><use xlink:href="#aK" x="151.294" y="350.786"/><use xlink:href="#be" x="154.044" y="350.786"/><use xlink:href="#aO" x="163.141" y="350.786"/><use xlink:href="#aX" x="168.222" y="350.786"/><use xlink:href="#bl" x="173.829" y="340.701" fill="red"/><use xlink:href="#aV" x="173.829" y="350.786"/><use xlink:href="#aM" x="180.153" y="350.786"/><use xlink:href="#bh" x="185.354" y="350.786"/><use xlink:href="#aT" x="193.316" y="350.786"/><use xlink:href="#aK" x="199.317" y="350.786"/><use xlink:href="#aX" x="202.067" y="350.786"/><use xlink:href="#aQ" x="207.674" y="350.786"/><use xlink:href="#bs" x="216.927" y="350.786"/><use xlink:href="#aZ" x="131.102" y="372.43"/><use xlink:href="#aO" x="137.103" y="372.43"/><use xlink:href="#aK" x="142.184" y="372.43"/><use xlink:href="#bd" x="144.934" y="372.43"/><use xlink:href="#bq" x="153.314" y="372.43"/><use xlink:href="#be" x="159.639" y="372.43"/><use xlink:href="#aZ" x="164.839" y="372.43"/><use xlink:href="#aO" x="170.84" y="372.43"/><use xlink:href="#aK" x="175.921" y="372.43"/><use xlink:href="#aM" x="178.671" y="372.43"/><use xlink:href="#aR" x="183.871" y="372.43"/><use xlink:href="#aO" x="188.355" y="372.43"/><use xlink:href="#aU" x="197.333" y="362.344" fill="red"/><use xlink:href="#aO" x="197.333" y="372.43"/><use xlink:href="#aM" x="202.414" y="372.43"/><use xlink:href="#aQ" x="211.512" y="372.43"/><use xlink:href="#aT" x="220.765" y="372.43"/><use xlink:href="#ba" x="226.766" y="372.43"/><use xlink:href="#bl" x="236.271" y="362.344" fill="red"/><use xlink:href="#bh" x="236.271" y="372.43"/><use xlink:href="#aI" x="248.13" y="372.43"/><use xlink:href="#aX" x="252.111" y="372.43"/><use xlink:href="#aL" x="257.718" y="372.43"/><use xlink:href="#bj" x="260.803" y="372.43"/><use xlink:href="#bo" x="266.804" y="372.43"/><use xlink:href="#aE" x="111.232" y="400.051"/><use xlink:href="#aF" x="131.102" y="389.966" fill="red"/><use xlink:href="#aG" x="131.102" y="400.051"/><use xlink:href="#aH" x="138.586" y="400.051"/><use xlink:href="#aI" x="144.121" y="400.051"/><use xlink:href="#aJ" x="148.102" y="400.051"/><use xlink:href="#aK" x="153.781" y="400.051"/><use xlink:href="#aL" x="160.428" y="400.051"/><use xlink:href="#aM" x="163.512" y="400.051"/><use xlink:href="#aI" x="168.712" y="400.051"/><use xlink:href="#aN" x="172.693" y="400.051"/><use xlink:href="#aO" x="178.551" y="400.051"/><use xlink:href="#aN" x="183.632" y="400.051"/><use xlink:href="#aP" x="189.49" y="400.051"/><use xlink:href="#aK" x="192.24" y="400.051"/><use xlink:href="#aQ" x="194.99" y="400.051"/><use xlink:href="#aR" x="204.243" y="400.051"/><use xlink:href="#aJ" x="208.726" y="400.051"/><use xlink:href="#aK" x="214.404" y="400.051"/><use xlink:href="#aM" x="217.154" y="400.051"/><use xlink:href="#aS" x="222.355" y="400.051"/><use xlink:href="#aT" x="131.102" y="421.695"/><use xlink:href="#aK" x="137.103" y="421.695"/><use xlink:href="#aM" x="139.853" y="421.695"/><use xlink:href="#aU" x="148.951" y="411.609" fill="red"/><use xlink:href="#aV" x="148.951" y="421.695"/><use xlink:href="#aW" x="154.952" y="421.695"/><use xlink:href="#aX" x="158.383" y="421.695"/><use xlink:href="#aY" x="163.99" y="421.695"/><use xlink:href="#aO" x="169.191" y="421.695"/><use xlink:href="#aY" x="174.272" y="421.695"/><use xlink:href="#aK" x="179.472" y="421.695"/><use xlink:href="#aM" x="182.222" y="421.695"/><use xlink:href="#aS" x="187.422" y="421.695"/><use xlink:href="#aT" x="194.571" y="421.695"/><use xlink:href="#aK" x="200.573" y="421.695"/><use xlink:href="#aM" x="203.322" y="421.695"/><use xlink:href="#aV" x="212.42" y="421.695"/><use xlink:href="#aW" x="218.422" y="421.695"/><use xlink:href="#aX" x="221.853" y="421.695"/><use xlink:href="#aY" x="227.459" y="421.695"/><use xlink:href="#aO" x="232.66" y="421.695"/><use xlink:href="#aY" x="237.741" y="421.695"/><use xlink:href="#aK" x="242.941" y="421.695"/><use xlink:href="#aM" x="245.691" y="421.695"/><use xlink:href="#aT" x="254.789" y="421.695"/><use xlink:href="#aX" x="260.79" y="421.695"/><use xlink:href="#aF" x="266.398" y="411.609" fill="red"/><use xlink:href="#aZ" x="266.398" y="421.695"/><use xlink:href="#aM" x="272.399" y="421.695"/><use xlink:href="#aQ" x="281.497" y="421.695"/><use xlink:href="#aT" x="290.75" y="421.695"/><use xlink:href="#ba" x="296.752" y="421.695"/><use xlink:href="#bb" x="302.359" y="421.695"/><use xlink:href="#aC" x="114.591" y="449.316"/><use xlink:href="#aF" x="131.102" y="439.23" fill="red"/><use xlink:href="#bp" x="131.102" y="449.316"/><use xlink:href="#aL" x="139.734" y="449.316"/><use xlink:href="#aY" x="142.818" y="449.316"/><use xlink:href="#aO" x="148.018" y="449.316"/><use xlink:href="#aM" x="153.099" y="449.316"/><use xlink:href="#aS" x="158.3" y="449.316"/><use xlink:href="#aU" x="165.449" y="439.23" fill="red"/><use xlink:href="#bp" x="165.449" y="449.316"/><use xlink:href="#aL" x="174.081" y="449.316"/><use xlink:href="#aY" x="177.165" y="449.316"/><use xlink:href="#aO" x="182.365" y="449.316"/><use xlink:href="#aM" x="187.446" y="449.316"/><use xlink:href="#aS" x="192.647" y="449.316"/><use xlink:href="#bh" x="131.102" y="470.959"/><use xlink:href="#bt" x="142.961" y="470.959"/><use xlink:href="#bh" x="149.967" y="470.959"/><use xlink:href="#aN" x="157.606" y="470.959"/><use xlink:href="#aL" x="163.464" y="470.959"/><use xlink:href="#aM" x="166.549" y="470.959"/><use xlink:href="#bi" x="175.647" y="460.874" fill="red"/><use xlink:href="#aI" x="175.647" y="470.959"/><use xlink:href="#be" x="179.628" y="470.959"/><use xlink:href="#aY" x="184.828" y="470.959"/><use xlink:href="#aM" x="190.029" y="470.959"/><use xlink:href="#aV" x="199.127" y="470.959"/><use xlink:href="#aN" x="205.451" y="470.959"/><use xlink:href="#bh" x="210.986" y="470.959"/><use xlink:href="#aK" x="218.948" y="470.959"/><use xlink:href="#aM" x="221.698" y="470.959"/><use xlink:href="#aI" x="226.898" y="470.959"/><use xlink:href="#aO" x="230.879" y="470.959"/><use xlink:href="#aX" x="235.96" y="470.959"/><use xlink:href="#aQ" x="241.567" y="470.959"/><use xlink:href="#aZ" x="254.717" y="470.959"/><use xlink:href="#bj" x="260.719" y="470.959"/><use xlink:href="#aY" x="266.72" y="470.959"/><use xlink:href="#bk" x="271.921" y="470.959"/><use xlink:href="#aX" x="277.922" y="470.959"/><use xlink:href="#aF" x="287.427" y="460.874" fill="red"/><use xlink:href="#aQ" x="287.427" y="470.959"/><use xlink:href="#aM" x="296.68" y="470.959"/><use xlink:href="#bu" x="301.881" y="470.959"/><use xlink:href="#aN" x="307.739" y="470.959"/><use xlink:href="#bb" x="313.596" y="470.959"/><use xlink:href="#aU" x="131.102" y="482.518" fill="red"/><use xlink:href="#bn" x="131.102" y="492.603"/><use xlink:href="#aL" x="138.837" y="492.603"/><use xlink:href="#aS" x="141.921" y="492.603"/><use xlink:href="#bl" x="149.07" y="482.518" fill="red"/><use xlink:href="#aX" x="149.07" y="492.603"/><use xlink:href="#aL" x="154.677" y="492.603"/><use xlink:href="#aS" x="157.761" y="492.603"/><use xlink:href="#aF" x="164.911" y="482.518" fill="red"/><use xlink:href="#aX" x="164.911" y="492.603"/><use xlink:href="#aL" x="170.518" y="492.603"/><use xlink:href="#bv" x="173.602" y="484.11" fill="red"/><use xlink:href="#bo" x="173.602" y="492.603"/><use xlink:href="#aE" x="111.232" y="520.224"/><use xlink:href="#aF" x="131.102" y="510.139" fill="red"/><use xlink:href="#aG" x="131.102" y="520.224"/><use xlink:href="#aH" x="138.586" y="520.224"/><use xlink:href="#aI" x="144.121" y="520.224"/><use xlink:href="#aJ" x="148.102" y="520.224"/><use xlink:href="#aK" x="153.781" y="520.224"/><use xlink:href="#aL" x="160.428" y="520.224"/><use xlink:href="#aM" x="163.512" y="520.224"/><use xlink:href="#aI" x="168.712" y="520.224"/><use xlink:href="#aN" x="172.693" y="520.224"/><use xlink:href="#aO" x="178.551" y="520.224"/><use xlink:href="#aN" x="183.632" y="520.224"/><use xlink:href="#aP" x="189.49" y="520.224"/><use xlink:href="#aK" x="192.24" y="520.224"/><use xlink:href="#aQ" x="194.99" y="520.224"/><use xlink:href="#aR" x="204.243" y="520.224"/><use xlink:href="#aJ" x="208.726" y="520.224"/><use xlink:href="#aK" x="214.404" y="520.224"/><use xlink:href="#aM" x="217.154" y="520.224"/><use xlink:href="#aS" x="222.355" y="520.224"/><use xlink:href="#aT" x="131.102" y="541.868"/><use xlink:href="#aK" x="137.103" y="541.868"/><use xlink:href="#aM" x="139.853" y="541.868"/><use xlink:href="#aU" x="148.951" y="531.783" fill="red"/><use xlink:href="#aV" x="148.951" y="541.868"/><use xlink:href="#aW" x="154.952" y="541.868"/><use xlink:href="#aX" x="158.383" y="541.868"/><use xlink:href="#aY" x="163.99" y="541.868"/><use xlink:href="#aO" x="169.191" y="541.868"/><use xlink:href="#aY" x="174.272" y="541.868"/><use xlink:href="#aK" x="179.472" y="541.868"/><use xlink:href="#aM" x="182.222" y="541.868"/><use xlink:href="#aS" x="187.422" y="541.868"/><use xlink:href="#aT" x="194.571" y="541.868"/><use xlink:href="#aK" x="200.573" y="541.868"/><use xlink:href="#aM" x="203.322" y="541.868"/><use xlink:href="#aV" x="212.42" y="541.868"/><use xlink:href="#aW" x="218.422" y="541.868"/><use xlink:href="#aX" x="221.853" y="541.868"/><use xlink:href="#aY" x="227.459" y="541.868"/><use xlink:href="#aO" x="232.66" y="541.868"/><use xlink:href="#aY" x="237.741" y="541.868"/><use xlink:href="#aK" x="242.941" y="541.868"/><use xlink:href="#aM" x="245.691" y="541.868"/><use xlink:href="#aT" x="254.789" y="541.868"/><use xlink:href="#aX" x="260.79" y="541.868"/><use xlink:href="#aF" x="266.398" y="531.783" fill="red"/><use xlink:href="#aZ" x="266.398" y="541.868"/><use xlink:href="#aM" x="272.399" y="541.868"/><use xlink:href="#aQ" x="281.497" y="541.868"/><use xlink:href="#aT" x="290.75" y="541.868"/><use xlink:href="#ba" x="296.752" y="541.868"/><use xlink:href="#bb" x="302.359" y="541.868"/><g clip-path="url(#bw)"><path fill="url(#bx)" d="M15.023 579.684v-11.336h388.063v11.336Zm0 0"/></g><use xlink:href="#by" x="387.641" y="577.985"/><use xlink:href="#bz" x="394.372" y="577.985"/><path fill="#f2f2f2" stroke="#000" stroke-miterlimit="10" stroke-width=".797" d="M196.602 576.055v-3.989a2.99 2.99 0 0 1 2.988-2.988h18.93a2.99 2.99 0 0 1 2.988 2.988v3.989a2.99 2.99 0 0 1-2.988 2.988h-18.93a2.99 2.99 0 0 1-2.988-2.988Zm0 0"/><use xlink:href="#bA" x="198.439" y="576.948"/><use xlink:href="#bB" x="203.747" y="576.948"/><use xlink:href="#bB" x="209.055" y="576.948"/><use xlink:href="#bC" x="214.363" y="576.948"/><use xlink:href="#bD" x="17.008" y="577.985"/><use xlink:href="#bE" x="20.976" y="577.985"/><use xlink:href="#bF" x="27.629" y="577.985"/><use xlink:href="#bG" x="29.882" y="577.985"/><use xlink:href="#bH" x="33.85" y="577.985"/><use xlink:href="#bI" x="37.818" y="577.985"/><use xlink:href="#bJ" x="41.787" y="577.985"/><use xlink:href="#bK" x="46.724" y="577.985"/><use xlink:href="#bD" x="57.353" y="577.985"/><use xlink:href="#bL" x="61.321" y="577.985"/><use xlink:href="#bM" x="67.974" y="577.985"/><use xlink:href="#bD" x="73.539" y="577.985"/><use xlink:href="#bH" x="77.508" y="577.985"/><use xlink:href="#bD" x="81.476" y="577.985"/><use xlink:href="#bN" x="85.444" y="577.985"/><use xlink:href="#bK" x="92.097" y="577.985"/><use xlink:href="#bO" x="102.725" y="577.985"/><use xlink:href="#bP" x="108.388" y="577.985"/><use xlink:href="#bQ" x="112.789" y="577.985"/><use xlink:href="#bR" x="118.263" y="577.985"/><use xlink:href="#bS" x="121.806" y="577.985"/><use xlink:href="#bT" x="125.991" y="577.985"/><use xlink:href="#bD" x="131.786" y="577.985"/><use xlink:href="#bH" x="135.754" y="577.985"/><use xlink:href="#bD" x="139.723" y="577.985"/><use xlink:href="#bE" x="143.691" y="577.985"/></svg>