<svg xmlns="http://www.w3.org/2000/svg" xmlns:xlink="http://www.w3.org/1999/xlink" width="559.371" height="793.701" viewBox="0 0 419.528 595.276"><defs><path id="d" d="M3.344 2.297v-.078L1.5-2.5l1.844-4.703v-.078c0-.11-.078-.203-.188-.203a.24.24 0 0 0-.203.14L1.11-2.562c-.015.015-.015.046-.015.062 0 .031 0 .063.015.078L2.953 2.36a.24.24 0 0 0 .203.141c.11 0 .188-.094.188-.203m0 0"/><path id="e" d="M4.969-1.422c0-.11-.094-.11-.125-.11-.094 0-.11.048-.14.188-.173.64-.345 1.235-.75 1.235-.282 0-.298-.266-.298-.453 0-.22.016-.313.125-.75L4-2.203l.36-1.39c.062-.282.062-.298.062-.344 0-.172-.11-.266-.281-.266-.25 0-.391.219-.422.437-.188-.375-.469-.64-.922-.64-1.156 0-2.39 1.468-2.39 2.922C.406-.547.952.109 1.718.109c.203 0 .703-.046 1.297-.75a.91.91 0 0 0 .906.75c.36 0 .578-.234.75-.546.156-.36.297-.985.297-.985m-1.375-1.89a.6.6 0 0 1-.031.171l-.485 1.954c-.062.187-.062.203-.203.375-.437.546-.844.703-1.125.703-.5 0-.64-.547-.64-.938 0-.5.312-1.719.546-2.187.313-.578.75-.953 1.157-.953.64 0 .78.812.78.875m0 0"/><path id="f" d="M2.781-2.5c0-.016 0-.047-.015-.062L.922-7.344c-.031-.078-.11-.14-.188-.14a.207.207 0 0 0-.203.203v.078L2.375-2.5.531 2.219v.078c0 .11.094.203.203.203.079 0 .157-.062.188-.14l1.844-4.782c.015-.015.015-.047.015-.078m0 0"/><path id="g" d="M6.047-.156c0-.094-.11-.11-.14-.11-.25 0-.376-.03-.5-.312L4.218-3.297 5.766-4.5c.218-.172.812-.625 1.312-.672.063-.016.156-.031.156-.156 0-.047-.03-.11-.109-.11 0 0-.234.016-.281.016h-.328c-.266 0-.563-.016-.813-.016-.047 0-.172 0-.172.141 0 .11.14.125.14.125.11 0 .173.047.173.11 0 .125-.14.25-.172.28l-.047.048c-.016.015-.031.015-.094.078L2.563-2.344l.609-2.5c.078-.265.125-.328.61-.328.171 0 .265 0 .265-.156 0-.047-.031-.11-.125-.11-.14 0-.313.016-.453.016h-.953l-.453-.016c-.047 0-.172 0-.172.141 0 .125.093.125.234.125.219 0 .438 0 .438.11 0 .046 0 .062-.032.171L1.47-.609c-.078.28-.125.343-.61.343-.171 0-.265 0-.265.157C.594-.047.64 0 .719 0c.031 0 .39-.016.453-.031h.484c.672 0 .89.031.938.031s.156 0 .156-.156c0-.11-.094-.11-.234-.11-.25 0-.438 0-.438-.125 0-.046.047-.218.078-.328l.297-1.203 1.25-.969.985 2.25c.046.094.046.11.046.141 0 .203-.187.234-.343.234-.094 0-.188.016-.188.157 0 .062.047.109.11.109.28 0 .578-.031.843-.031.672 0 .64.031.735.031.03 0 .156 0 .156-.156m0 0"/><path id="h" d="M2.828-1.14c0-.11-.11-.11-.156-.11-.125 0-.125.031-.172.172-.14.516-.406.937-.734.937-.157 0-.188-.109-.188-.25 0-.187.063-.328.188-.656l.515-1.39c.063-.172.094-.25.094-.422 0-.438-.312-.657-.656-.657-.75 0-1.078 1.11-1.078 1.22 0 .108.093.108.14.108.14 0 .14-.03.172-.171.125-.407.375-.938.75-.938.14 0 .172.11.172.25 0 .188-.047.344-.156.61L1.156-.953a1.1 1.1 0 0 0-.078.375c0 .36.266.656.672.656.75 0 1.078-1.125 1.078-1.219m.125-3.704a.354.354 0 0 0-.36-.375.55.55 0 0 0-.53.532c0 .234.171.359.359.359.265 0 .531-.234.531-.516m0 0"/><path id="i" d="M4.14-1.14c0-.11-.109-.11-.14-.11-.14 0-.156.047-.187.172-.11.453-.266.937-.61.937-.14 0-.25-.078-.25-.375 0-.125.031-.265.063-.39.03-.125.03-.172.03-.25 0-.563-.546-.75-1.108-.86.296-.187.625-.53.671-.593.454-.5.766-.688 1.063-.688.11 0 .172.063.203.11-.156.03-.344.171-.344.39s.188.266.281.266c.204 0 .407-.14.407-.453 0-.266-.157-.532-.547-.532s-.75.266-1.188.735c-.484.515-.656.594-.796.672l.796-3.188c0-.031.016-.094.016-.125 0-.11-.125-.11-.219-.094l-.828.063c-.11.016-.187.016-.187.156 0 .125.093.125.203.125.375 0 .375.047.375.11a.7.7 0 0 1-.032.171L.657-.266c0 .032-.015.079-.015.11 0 .11.078.234.25.234.14 0 .265-.094.328-.297l.39-1.578c.313.031.891.172.891.656 0 .047 0 .079-.031.188a1 1 0 0 0-.031.25c0 .437.296.781.734.781.36 0 .562-.265.656-.406.188-.297.313-.766.313-.813m0 0"/><path id="j" d="M4.297-2.172c0-.828-.547-1.344-1.266-1.344C2-3.516.921-2.437.921-1.266c0 .875.595 1.344 1.267 1.344 1.062 0 2.109-1.094 2.109-2.25m-.594-.281c0 .265-.125 1.031-.437 1.578-.266.438-.688.734-1.078.734-.297 0-.672-.203-.672-.843 0-.36.172-1.11.422-1.547.343-.578.812-.766 1.078-.766.39 0 .687.297.687.844m0 0"/><path id="k" d="M8.75-4.094c0-.937-.156-2.093-.828-2.953-.89-1.11-2.328-1.25-3.11-1.25H1.656c-.422 0-.562.14-.562.578v7.14c0 .438.125.579.562.579h3.157C7.733 0 8.75-1.75 8.75-4.094m-1.719 0c0 1.36-.14 3.063-2.687 3.063H2.812v-6.235h1.532c2.578 0 2.687 1.844 2.687 3.172m0 0"/><path id="l" d="M6.188-2.687c0-1.97-.954-2.985-2.907-2.985-1.984 0-2.906 1.063-2.906 2.984C.375-.733 1.406.126 3.281.126s2.907-.86 2.907-2.812m-1.625-.141c0 .937 0 2.031-1.282 2.031C2-.797 2-1.875 2-2.828c0-.922 0-1.985 1.281-1.985s1.281 1.047 1.281 1.985m0 0"/><path id="m" d="M7.719-.687 7.625-1.72c0-.078-.078-.14-.14-.14-.032 0-.063.015-.094.03-.328.25-.672.485-1.063.626-.406.125-.812.14-1.219.14-.75 0-1.484-.203-1.968-.75-.532-.64-.657-1.5-.657-2.328 0-.843.125-1.703.657-2.343.484-.563 1.218-.766 1.968-.766.36 0 .72.047 1.079.188.343.125.64.328.906.578a.14.14 0 0 0 .11.046c.077 0 .14-.062.14-.125l.234-1.28a.19.19 0 0 0-.094-.173q-.585-.21-1.171-.328a6.3 6.3 0 0 0-1.204-.094c-1.203 0-2.437.25-3.28 1.079C.983-6.531.733-5.33.733-4.141c0 1.172.25 2.375 1.094 3.204C2.672-.11 3.906.125 5.11.125c.438 0 .891 0 1.329-.125.421-.125.812-.328 1.218-.547a.2.2 0 0 0 .063-.14m0 0"/><path id="n" d="M2.313-.578v-4.328c0-.375-.079-.563-.563-.563h-.453c-.422 0-.563.125-.563.563v4.328c0 .437.125.578.563.578h.453c.453 0 .563-.156.563-.578m.093-6.672v-.219c0-.39-.094-.578-.578-.578h-.61c-.452 0-.577.156-.577.578v.219c0 .36.062.578.578.578h.61c.5 0 .577-.219.577-.578m0 0"/><path id="o" d="M5.719-3.11c0-1.546-.703-2.562-2.485-2.562-1.921 0-2.859 1.063-2.859 2.89 0 1.954 1.125 2.907 3 2.907.469 0 1.14-.047 1.938-.453.25-.125.343-.156.343-.313 0-.078-.031-.421-.047-.515-.046-.375-.062-.39-.171-.39-.047 0-.079 0-.204.124a2.7 2.7 0 0 1-1.796.688c-1.36 0-1.5-1.063-1.532-1.828h3.25c.266 0 .563 0 .563-.547m-1.313-.078h-2.5c.047-.734.282-1.624 1.328-1.624.954 0 1.125.687 1.172 1.625m0 0"/><path id="p" d="M6.25-2.766c0-.562 0-2.843-2.25-2.843-.969 0-1.578.547-1.687.672V-7.72c0-.39-.079-.578-.563-.578h-.453c-.422 0-.563.14-.563.578v7.14C.734-.14.86 0 1.297 0h.484c.203 0 .563 0 .578-.469a1.74 1.74 0 0 0 1.344.594c2.547 0 2.547-2.281 2.547-2.89m-1.625.016c0 .89 0 2.016-1.344 2.016-.5 0-.797-.297-.922-.453v-3.141c.157-.14.516-.422 1.063-.422 1.203 0 1.203 1.11 1.203 2m0 0"/><path id="q" d="M2.61-.328v-.922c0-.297-.016-.312-.329-.312H1.36c-.312 0-.312.015-.312.312v.922c0 .312 0 .328.406.328-.078.188-.14.375-.203.578-.078.172-.203.531-.203.531 0 .157.125.157.312.157H1.5c.25 0 .25-.016.375-.203L2.5.078c.11-.172.11-.203.11-.406m0 0"/><path id="r" d="M7.656-5.719c0-1.797-1.172-2.578-3-2.578h-3c-.422 0-.562.14-.562.578v7.14c0 .438.125.579.562.579h.61c.453 0 .578-.156.578-.578v-2.625h1.812c1.875 0 3-.797 3-2.516M6-5.719c0 .813-.125 1.578-1.734 1.578H2.813v-3.125H4.28C5.844-7.266 6-6.546 6-5.719m0 0"/><path id="s" d="M5.672-.578v-3.203c0-1.89-1.828-1.89-2.422-1.89-.562 0-1.156.046-1.953.374-.25.11-.313.14-.313.281 0 .079.063.766.079.875a.17.17 0 0 0 .156.125c.062 0 .093-.03.125-.078.515-.531 1.125-.797 1.86-.797.64 0 .843.391.843 1.094v.422c-.422 0-3.563.031-3.563 1.781C.484-.75 1.156.125 2.22.125c.406 0 1.297-.11 1.86-.937v.234c0 .39.077.578.577.578h.438c.453 0 .578-.156.578-.578M4.047-1.844c0 1.11-1.14 1.11-1.172 1.11-.516 0-.828-.422-.828-.875 0-1.172 1.656-1.266 2-1.266Zm0 0"/><path id="t" d="M5.969-.578v-3.313c0-1.218-.516-1.718-1.735-1.718-1.265 0-1.796.906-1.953 1.234h-.015v-.594c0-.39-.079-.578-.563-.578h-.406c-.438 0-.578.125-.578.578v4.39c0 .438.125.579.578.579h.469c.453 0 .578-.156.578-.578v-2.64c0-1.032.687-1.532 1.312-1.532.578 0 .688.281.688.89v3.282c0 .39.093.578.578.578h.484c.453 0 .563-.156.563-.578m0 0"/><path id="u" d="M8.594-5.14c-.031-.329-.25-.329-.625-.329-.563 0-.703.032-.875.657l-.969 3.468-1.016-3.593c-.062-.266-.156-.532-.703-.532-.172 0-.453 0-.61.266-.108.187-.64 2.25-1.062 3.656l-.953-3.39c-.125-.407-.25-.532-.734-.532h-.25c-.219 0-.469 0-.516.328L1.547-.547C1.703 0 2.016 0 2.313 0h.343c.563 0 .656-.172.781-.656.282-1 .704-2.5.766-3.125v-.016c.078.688.61 2.578.75 3.14.14.423.203.657.797.657h.813c.515 0 .64-.14.75-.547Zm0 0"/><path id="v" d="M5.266-.437c0-.454-.36-.454-.72-.454L2.72-.875h-.547l2.922-3.687c.125-.157.14-.22.14-.407 0-.5-.375-.5-.578-.5H1.125c-.156 0-.578 0-.578.453 0 .438.39.438.703.438l1.734-.031h.454L.515-.906C.39-.75.375-.687.375-.5c0 .5.36.5.563.5h3.765c.156 0 .563 0 .563-.437m0 0"/><path id="w" d="M4.734-1.687c0-.672-.359-1.079-.578-1.282-.468-.422-.89-.5-1.39-.594-.657-.124-1.141-.218-1.141-.687 0-.484.39-.578.86-.578.796 0 1.234.297 1.546.562.11.125.14.125.188.125.125 0 .14-.109.156-.156.031-.11.14-.766.14-.828 0-.187-.624-.36-.765-.406-.469-.14-.86-.14-1.172-.14-.531 0-2.14 0-2.14 1.702 0 .594.265.938.593 1.235.422.375.875.468 1.563.593.344.063.953.172.953.688 0 .562-.469.656-.922.656a2.21 2.21 0 0 1-1.766-.828c-.062-.062-.093-.094-.171-.094-.11 0-.141.11-.157.172-.015.172-.156.86-.156.969 0 .219.89.5.89.5a4.4 4.4 0 0 0 1.36.203c.61 0 2.11-.047 2.11-1.812m0 0"/><path id="x" d="M5.719-3.11c0-1.546-.703-2.562-2.485-2.562-1.921 0-2.859 1.063-2.859 2.89C.375-.905 1.406.048 3.125.126c-.297.39-.453.766-.453 1.219 0 .672.422 1.203 1.281 1.203.453 0 .969-.172 1.39-.39.063-.032.11-.141.11-.22l-.14-.437c0-.078-.157-.156-.235-.14-.266.062-.516.14-.766.14s-.468-.11-.468-.469c.015-.39.203-.797.594-1.031a4 4 0 0 0 .875-.328c.25-.125.343-.156.343-.313 0-.078-.031-.421-.047-.515-.046-.375-.062-.39-.171-.39-.047 0-.079 0-.204.124a2.7 2.7 0 0 1-1.796.688c-1.36 0-1.5-1.063-1.532-1.828h3.25c.266 0 .563 0 .563-.547m-1.313-.078h-2.5c.047-.734.282-1.624 1.328-1.624.954 0 1.125.687 1.172 1.625m0 0"/><path id="y" d="M9.64-.578v-3.313c0-1.218-.53-1.718-1.75-1.718-.843 0-1.5.39-1.937 1.187-.187-1.14-1.203-1.187-1.703-1.187-.234 0-.734 0-1.281.39-.36.282-.61.672-.688.844h-.015v-.594c0-.39-.079-.578-.563-.578h-.406c-.438 0-.578.125-.578.578v4.39c0 .438.125.579.578.579h.469c.453 0 .578-.156.578-.578v-2.64c0-1.079.734-1.532 1.312-1.532s.703.25.703.89v3.282c0 .437.141.578.579.578h.484c.453 0 .562-.156.562-.578v-2.64c0-1.079.735-1.532 1.313-1.532s.719.25.719.89v3.282c0 .437.125.578.562.578h.485c.453 0 .578-.156.578-.578m0 0"/><path id="z" d="M2.672.375v-5.281c0-.375-.078-.563-.563-.563h-.453c-.453 0-.562.157-.562.563V.672c0 .297 0 .781-.719.781-.219 0-.5-.047-.75-.219-.031-.015-.078-.046-.125-.046-.094 0-.11 0-.219.312-.047.125-.125.36-.125.39 0 .22.985.563 1.735.563 1.328 0 1.78-.89 1.78-2.078m0-7.625v-.219c0-.39-.078-.578-.563-.578H1.5c-.453 0-.578.156-.578.578v.219c0 .36.062.578.578.578h.61c.5 0 .562-.219.562-.578m0 0"/><path id="A" d="m6.125 1.938-.14-.438c-.016-.078-.157-.156-.235-.14-.266.062-.516.14-.766.14s-.484-.11-.468-.469C4.53.641 4.703.234 5.094 0c.453 0 .578-.156.578-.578v-3.203c0-1.89-1.828-1.89-2.422-1.89-.562 0-1.156.046-1.953.374-.25.11-.313.14-.313.281 0 .079.063.766.079.875a.17.17 0 0 0 .156.125c.062 0 .093-.03.125-.078.515-.531 1.125-.797 1.86-.797.64 0 .843.391.843 1.094v.422c-.422 0-3.563.031-3.563 1.781C.484-.75 1.156.125 2.22.125c.406 0 1.297-.11 1.86-.937v.234c0 .14 0 .265.046.36-.406.39-.797 1.03-.797 1.562 0 .672.438 1.203 1.297 1.203.438 0 .969-.172 1.39-.39.063-.032.11-.141.11-.22M4.047-1.844c0 1.11-1.14 1.11-1.172 1.11-.516 0-.828-.422-.828-.875 0-1.172 1.656-1.266 2-1.266Zm0 0"/><path id="B" d="M5.969-.578v-7.14c0-.391-.094-.579-.578-.579h-.438c-.453 0-.578.156-.578.578v2.703a2.18 2.18 0 0 0-1.5-.593C.438-5.61.438-3.312.438-2.72c0 .547 0 2.844 2.375 2.844.5 0 1.015-.14 1.53-.687 0 .437.157.562.563.562h.485c.453 0 .578-.156.578-.578M4.344-1.5c0 .203 0 .313-.344.563a1.35 1.35 0 0 1-.719.203c-1.219 0-1.219-1.094-1.219-1.985 0-.906 0-2.031 1.344-2.031.344 0 .672.125.938.375Zm0 0"/><path id="C" d="M5.969-.578v-4.328c0-.375-.078-.563-.563-.563h-.484c-.453 0-.578.157-.578.563v2.843c0 .782-.407 1.47-1.266 1.47-.656 0-.734-.173-.734-.813v-3.5c0-.375-.078-.563-.578-.563h-.47c-.437 0-.577.125-.577.563V-1.5c0 1.266.687 1.625 1.937 1.625.313 0 1.172 0 1.735-1.016v.313c0 .39.078.578.562.578h.453c.453 0 .563-.156.563-.578m0 0"/><path id="D" d="M2.594 2.234c-.375-.5-1.25-1.64-.64-4.484.609-2.828 1.952-3.969 2.546-4.484h-.594c-1.25.89-2.265 2.422-2.703 4.484-.453 2.14-.031 3.625.813 4.484Zm0 0"/><path id="E" d="M6.313-4.406c.203-.953-.516-1.813-1.797-1.813H2.203L.875 0h.86l.546-2.562h1.453c1.266 0 2.36-.86 2.579-1.844m-.782 0c-.156.718-.843 1.297-1.89 1.297H2.375l.547-2.578h1.265c1.032 0 1.485.562 1.344 1.28m0 0"/><path id="F" d="M3.563-1.156a.97.97 0 0 0-.25-.89c-.25-.267-.5-.329-1.032-.423-.312-.062-.75-.156-.656-.578.11-.515.75-.515.89-.515.657 0 .985.203 1.22.343l.25-.625c-.5-.25-.907-.297-1.282-.297-.203 0-1.515 0-1.765 1.188a.9.9 0 0 0 .187.797c.281.297.5.344 1.078.469.281.046.781.14.672.609C2.75-.5 2.031-.5 1.906-.5c-.531 0-1-.187-1.328-.453l-.25.656c.469.281 1 .39 1.453.39.594 0 1.563-.187 1.782-1.25m0 0"/><path id="G" d="m4.14 0 .141-.672H2.594c-.094 0-.203.016-.313.016h-.984L3.047-2c1.11-.766 1.781-1.25 1.969-2.125.218-1.031-.328-1.937-1.547-1.937-.953 0-1.625.546-2.094 1.437l.297.516c.453-1.047.984-1.344 1.531-1.344.813 0 1.188.61 1.016 1.344-.172.812-.844 1.343-1.64 1.937l-2 1.563L.452 0Zm0 0"/><path id="H" d="M4.531-1.828c.235-1.11-.375-2-1.328-2-.11 0-.547 0-1.047.36l.375-1.782h2.422l.125-.61h-3.11L1.267-2.53h.64c.438-.656.985-.703 1.157-.703.374 0 .843.28.609 1.406-.235 1.094-.953 1.437-1.5 1.437-.453 0-1.031-.218-1.235-.812L.5-.687c.094.203.547.89 1.563.89 1.124 0 2.234-.906 2.468-2.031m0 0"/><path id="I" d="M3.328-2.25c.453-2.125.031-3.625-.812-4.484h-.578c.39.5 1.25 1.656.64 4.484C1.984.594.625 1.734.031 2.234h.594c1.234-.89 2.266-2.421 2.703-4.484m0 0"/><path id="J" d="M11.797-3.984a5.45 5.45 0 0 0-5.453-5.453A5.45 5.45 0 0 0 .89-3.984a5.45 5.45 0 0 0 5.453 5.453 5.45 5.45 0 0 0 5.453-5.453m-.64 0A4.815 4.815 0 0 1 6.343.828 4.815 4.815 0 0 1 1.53-3.984a4.815 4.815 0 0 1 4.813-4.813 4.815 4.815 0 0 1 4.812 4.813m0 0"/><path id="K" d="M6.5-2.578h-.25C6-1.031 5.766-.312 4.063-.312H2.734c-.468 0-.484-.063-.484-.391v-2.672h.89c.97 0 1.079.328 1.079 1.172h.25v-2.64h-.25c0 .859-.11 1.171-1.078 1.171H2.25v-2.406c0-.328.016-.39.484-.39h1.282c1.53 0 1.797.546 1.953 1.937h.25l-.282-2.25H.329v.312h.235c.765 0 .796.11.796.469v5.219c0 .36-.03.469-.796.469H.328V0h5.75Zm0 0"/><path id="bv" d="M1.906-4.453c0-.266-.156-.531-.515-.531a.58.58 0 0 0-.407.156c0 .016-.03.031-.03.031s-.016-.14-.016-.172c0-.328.062-1.047.703-1.656.109-.125.109-.14.109-.172 0-.078-.047-.11-.094-.11-.11 0-.937.75-.937 1.938 0 .594.234 1.047.672 1.047.343 0 .515-.281.515-.531m0 0"/><path id="L" d="M0-6.047h-.266v.14c0 .5-.062.579-.328.673l-4.922 1.859c-.109.047-.171.063-.171.203s.062.172.171.203l4.688 1.781c.219.079.562.25.562.907H0C-.031-.547-.031-.97-.031-1.11c0-.25 0-.5.031-.875h-.266c0 .343-.171.547-.39.547-.063 0-.078 0-.172-.032l-1-.375v-2.172l1.187-.453C-.547-4.5-.5-4.5-.5-4.5c.234 0 .234.406.234.64H0L-.031-5c0-.437 0-.594.031-1.047m-2.094 2.14v1.97l-2.593-1Zm0 0"/><path id="M" d="M-1-2.812h-.437v.25h.421c.547 0 .844.25.844.546 0 .532-.687.532-.812.532h-2.188v-1.188h-.265v1.188h-1.47v.25c.735 0 1.485.328 1.516 1.078h.22v-.719H-1c.938 0 1.078-.719 1.078-1.078 0-.547-.469-.86-1.078-.86m0 0"/><path id="N" d="M-.953-3.516a.12.12 0 0 0-.11.125c0 .094.047.11.094.125.782.282.797.97.797 1.11 0 .36-.156.734-.531.969-.36.234-.875.234-1.11.234v-2.344c0-.172 0-.219-.187-.219-.703 0-1.547.391-1.547 1.516 0 .984.813 1.766 1.797 1.766 1.031 0 1.828-.86 1.828-1.875 0-1-.844-1.407-1.031-1.407m-1.078.547v2.016c-1.11-.078-1.297-.75-1.297-1.047 0-.937 1.125-.969 1.297-.969m0 0"/><path id="O" d="M-.031-1.719c-.438 0-.86.172-.86.547 0 .266.22.438.438.438.25 0 .453-.172.453-.438 0-.187-.094-.297-.125-.312.25 0 .89 0 1.469.593.015.032.031.047.078.047.078 0 .125-.062.125-.11 0-.093-.625-.765-1.578-.765m0 0"/><path id="P" d="M-1.469-4.219a1.62 1.62 0 0 0-1.593 1.266l-.266 1.094c-.11.515-.516.89-1 .89-.547 0-1.047-.468-1.047-1.156 0-1.375 1.297-1.562 1.594-1.61.094-.015.14-.015.14-.124 0-.125-.046-.125-.203-.125h-1.562c-.125 0-.203 0-.203.109 0 .063.015.078.109.125l.453.281c-.437.406-.562.906-.562 1.344 0 .953.718 1.656 1.53 1.656.61 0 .938-.343 1.095-.5.28-.281.343-.547.547-1.406.156-.687.187-.797.468-1.062.078-.079.344-.282.735-.282.562 0 1.14.422 1.14 1.172 0 .875-.422 1.781-1.531 1.828-.125.016-.187.016-.187.125 0 .125.062.125.218.125h1.547c.14 0 .219 0 .219-.11C.172-.64.156-.64.078-.702.031-.734-.047-.766-.375-.984c.438-.5.547-1.094.547-1.578 0-.985-.797-1.657-1.64-1.657m0 0"/><path id="Q" d="M0-2.078h-.266c0 .531-.03.562-.343.562h-2.907l.094 1.157h.266c0-.516.047-.578.437-.578h2.094c.36 0 .36.093.36.609H0c-.031-.313-.031-.766-.031-.89 0-.095 0-.579.031-.86m-4.797.453a.453.453 0 0 0-.453.453.45.45 0 0 0 .453.438.437.437 0 0 0 .438-.438.45.45 0 0 0-.438-.453m0 0"/><path id="R" d="M-3.203-4.11a.43.43 0 0 0-.406.454c0 .14.046.531.375.89-.141.204-.282.516-.282.891 0 .781.547 1.36 1.172 1.36.375 0 .656-.204.813-.376a.934.934 0 0 0 1.36-.094c.108.423.421.75.78.75.579 0 1.032-.827 1.032-1.874 0-1-.407-1.875-1.047-1.875-.422 0-.766.25-.89.515-.25.469-.25.86-.25 1.64v.454c-.032.25-.235.438-.532.438-.188 0-.266-.047-.328-.094.187-.344.234-.657.234-.844 0-.781-.547-1.375-1.172-1.375-.297 0-.562.14-.765.328a1.2 1.2 0 0 1-.266-.765c.016.03.063.078.188.078.14 0 .25-.11.25-.25a.25.25 0 0 0-.266-.25m.86 1.5c.296 0 .5.032.656.157a.7.7 0 0 1 .28.578c0 .734-.765.734-.937.734-.297 0-.5-.03-.656-.156a.72.72 0 0 1-.281-.578c0-.734.765-.734.937-.734m2.952-.906c.422 0 .797.61.797 1.407S1.031-.703.61-.703c-.171 0-.64-.14-.64-.781v-.766c0-.219 0-1.266.64-1.266m0 0"/><path id="S" d="M0-4.484h-.266c0 .515 0 .609-.359.609h-1.797c-.656 0-1.094.313-1.094 1.14 0 .797.579 1.157.766 1.25h-.766l.094 1.157h.266c0-.547.047-.61.437-.61h2.094c.36 0 .36.094.36.61H0c-.031-.344-.031-.688-.031-.906 0-.235 0-.563.031-.907h-.266c0 .5 0 .61-.359.61h-1.437c-.844 0-1.235-.64-1.235-1.125s.344-.61.844-.61h1.828c.36 0 .36.094.36.61H0C-.031-3-.031-3.36-.031-3.562c0-.235 0-.579.031-.922m0 0"/><path id="T" d="M-1.703-3.984c-.984 0-1.844.828-1.844 1.875s.86 1.875 1.844 1.875c1 0 1.781-.86 1.781-1.875 0-1.032-.781-1.875-1.781-1.875m-.063.703c.36 0 .797.015 1.141.25.313.203.453.562.453.922 0 .422-.203.765-.484.937-.328.203-.719.219-1.11.219-.312 0-.78 0-1.125-.235a1.14 1.14 0 0 1-.437-.921c0-.422.203-.766.469-.938.343-.219.765-.234 1.093-.234m0 0"/><path id="U" d="M-3.016-3.062c-.28 0-.5.25-.5.609 0 .515.391.875.844 1.031v.016h-.844l.094 1.125h.266c0-.547.047-.61.437-.61h2.094c.36 0 .36.11.36.61H0c-.031-.313-.031-.75-.031-.938 0-.468 0-.484.031-1h-.266v.156c0 .579-.078.594-.375.594h-1.171c-.61 0-1.47-.25-1.485-1.015.031.046.094.14.281.14.25 0 .36-.203.36-.36 0-.187-.125-.358-.36-.358m0 0"/><path id="V" d="M-.719-4.094h-.437v.25h.437c.328 0 .453.11.453.281 0 .297-.359.297-.453.297h-1.656c-.781 0-1.172.75-1.172 1.485 0 .656.25 1.25.781 1.25a.36.36 0 0 0 .375-.375.36.36 0 0 0-.375-.375.356.356 0 0 0-.359.297c-.203-.297-.203-.735-.203-.782 0-.453.312-.89.969-.89h.234c.031.453.047.984.281 1.547.313.703.766.843 1.032.843.687 0 .89-.812.89-1.359a1.23 1.23 0 0 0-.64-1.11c.296-.046.609-.25.609-.609 0-.078-.031-.75-.766-.75m-.406 1.438c.781 0 .984.64.984.969 0 .406-.28.765-.671.765-.516 0-1.063-.5-1.094-1.734Zm0 0"/><path id="W" d="M0-2.125h-.266c0 .5 0 .61-.359.61h-4.906l.093 1.187h.266c0-.547.047-.61.438-.61h4.109c.36 0 .36.094.36.61H0c-.031-.313-.031-.766-.031-.906 0-.157 0-.578.031-.891m0 0"/><path id="X" d="M-1.531-3.406v.25c.922.078 1.281.234 1.281 1.219V-1l-2.906-2.312c-.078-.047-.094-.063-.156-.063-.126 0-.126.094-.126.219v2.703l1.329.11v-.25c-.828-.048-1.11-.235-1.11-1.126v-.906L-.297-.312c.078.062.094.078.156.078C0-.234 0-.328 0-.47v-2.797Zm0 0"/><path id="Y" d="M0-6.828h-.266c0 .516 0 .61-.359.61h-1.797c-.64 0-1.094.28-1.094 1.14 0 .734.5 1.11.735 1.234-.578.14-.735.594-.735 1.11 0 .78.547 1.14.766 1.25h-.766l.094 1.156h.266c0-.547.047-.61.437-.61h2.094c.36 0 .36.094.36.61H0c-.031-.344-.031-.688-.031-.906 0-.235 0-.563.031-.907h-.266c0 .5 0 .61-.359.61h-1.437c-.844 0-1.235-.64-1.235-1.14 0-.517.406-.61.844-.61h1.828c.36 0 .36.11.36.61H0c-.031-.345-.031-.688-.031-.907 0-.235 0-.563.031-.906h-.266c0 .515 0 .609-.359.609h-1.437c-.844 0-1.235-.64-1.235-1.14 0-.516.406-.61.844-.61h1.828c.36 0 .36.11.36.61H0c-.031-.344-.031-.688-.031-.907 0-.234 0-.562.031-.906m0 0"/><path id="Z" d="M-1.719-4.422c-1 0-1.797.813-1.797 1.781 0 .313.079.766.5 1.172h-.5l.094 1.188h.266c0-.563.047-.61.375-.61H.922c.36 0 .36.11.36.61h.265c-.031-.344-.031-.688-.031-.906 0-.235 0-.563.03-.907h-.265c0 .516 0 .61-.36.61H-.39a1.37 1.37 0 0 0 .47-1.047c0-1-.782-1.89-1.798-1.89m0 .719c.907 0 1.578.578 1.578 1.219 0 .28-.125.64-.515.906-.14.094-.156.094-.297.094h-1.703a1.3 1.3 0 0 1-.61-1.094c0-.61.672-1.125 1.547-1.125m0 0"/><path id="aa" d="M-.437-1.625a.453.453 0 0 0-.454.453c0 .266.22.438.438.438A.44.44 0 0 0 0-1.172a.45.45 0 0 0-.437-.453m0 0"/><path id="ab" d="M-1.422-3.797v.25c.156.016.547.078.703.172.063.047.063.656.063.781v1.422l-.969-1.078a9 9 0 0 1-.5-.594c-.453-.484-.89-.953-1.61-.953-.953 0-1.562.797-1.562 1.781 0 .97.719 1.594 1.438 1.594.39 0 .437-.312.437-.422 0-.172-.11-.422-.422-.422-.406 0-.406.407-.406.5-.594-.234-.781-.765-.781-1.156 0-.734.625-1.125 1.297-1.125.828 0 1.437.578 2.39 1.531l1.047 1c.078.094.094.094.297.094v-3.14Zm0 0"/><path id="ac" d="M1.828-2.672h-.047l-3.765 1.469-3.782-1.469h-.046c-.094 0-.157.063-.157.156 0 .063.032.125.094.157l3.828 1.468c.016.016.031.016.063.016.015 0 .03 0 .046-.016l3.829-1.468a.17.17 0 0 0 .093-.157c0-.093-.062-.156-.156-.156m0 0"/><path id="ad" d="M-1.14-4.547c-.11 0-.11.094-.11.125 0 .11.031.125.25.172.39.094.86.25.86.578 0 .219-.172.266-.391.266-.14 0-.422-.063-.625-.11l-.719-.187c-.297-.078-.344-.078-.61-.156C-2.687-3.906-3.062-4-3.108-4c-.172 0-.25.14-.25.266 0 .14.093.328.312.375a.93.93 0 0 0-.469.812c0 1.031 1.125 2.063 2.266 2.063C-.469-.484.078-1 .078-1.687c0-.438-.25-.813-.562-1.141.484-.14.562-.61.562-.813 0-.28-.172-.484-.422-.625a2.6 2.6 0 0 0-.797-.28M-2.595-3.25c.031 0 .078.016.11.016L-1-2.86c.234.062.39.234.531.406.078.078.328.39.328.734 0 .297-.203.594-.78.594-.423 0-1.298-.234-1.61-.422-.64-.36-.766-.766-.766-1 0-.547.61-.703.703-.703m0 0"/><path id="ae" d="M-1.984-2.219h-.063L-5.875-.734a.17.17 0 0 0-.094.156c0 .078.063.156.157.156.015 0 .03 0 .046-.016l3.782-1.453L1.78-.437c.016.015.032.015.047.015a.157.157 0 0 0 .156-.156.17.17 0 0 0-.093-.156L-1.937-2.22zm0 0"/><path id="af" d="M0 6.047h.266v-.14c0-.5.062-.579.328-.673l4.922-1.859c.109-.047.172-.062.172-.203 0-.14-.063-.172-.172-.203L.828 1.188C.61 1.109.266.938.266.28H0c.031.266.031.688.031.828 0 .25 0 .5-.031.875h.266c0-.343.172-.546.39-.546a.4.4 0 0 1 .172.03l1 .376v2.172l-1.187.453C.547 4.5.5 4.5.5 4.5c-.234 0-.234-.406-.234-.64H0L.031 5c0 .438 0 .594-.031 1.047m2.094-2.14v-1.97l2.594 1Zm0 0"/><path id="ag" d="M1 2.813h.438v-.25h-.422c-.547 0-.844-.25-.844-.547 0-.532.687-.532.812-.532h2.188v1.188h.265V1.484h1.47v-.25c-.735 0-1.485-.328-1.516-1.078h-.22v.719H1c-.937 0-1.078.719-1.078 1.078 0 .547.469.86 1.078.86m0 0"/><path id="ah" d="M0 2.078h.266c0-.531.03-.562.343-.562h2.907L3.422.359h-.266c0 .516-.047.579-.437.579H.625c-.36 0-.36-.094-.36-.61H0c.031.313.031.766.031.89 0 .095 0 .579-.031.86m4.797-.453a.453.453 0 0 0 .453-.453.45.45 0 0 0-.453-.438.437.437 0 0 0-.438.438c0 .25.204.453.438.453m0 0"/><path id="ai" d="M.031 1.719c.438 0 .86-.172.86-.547A.436.436 0 0 0 .453.734C.203.734 0 .906 0 1.172c0 .187.094.297.125.312-.25 0-.89 0-1.469-.593-.015-.032-.031-.047-.078-.047-.078 0-.125.062-.125.11 0 .093.625.765 1.578.765m0 0"/><path id="aj" d="M1.469 4.219a1.62 1.62 0 0 0 1.594-1.266l.265-1.094c.11-.515.516-.89 1-.89.547 0 1.047.469 1.047 1.156 0 1.375-1.297 1.563-1.594 1.61-.094.015-.14.015-.14.124 0 .125.046.125.203.125h1.562c.125 0 .203 0 .203-.109 0-.062-.015-.078-.109-.125l-.453-.281c.437-.406.562-.906.562-1.344 0-.953-.718-1.656-1.53-1.656-.61 0-.938.344-1.095.5-.28.281-.343.547-.546 1.406-.157.688-.188.797-.47 1.063a1.08 1.08 0 0 1-.734.28c-.562 0-1.14-.421-1.14-1.171 0-.875.422-1.781 1.531-1.828.125-.016.188-.016.188-.125 0-.125-.063-.125-.22-.125H.048c-.14 0-.219 0-.219.11 0 .062.016.062.094.124.047.031.125.063.453.281-.437.5-.547 1.094-.547 1.579 0 .984.797 1.656 1.64 1.656m0 0"/><path id="ak" d="M.953 3.516a.12.12 0 0 0 .11-.125c0-.094-.047-.11-.094-.125a1.14 1.14 0 0 1-.797-1.11c0-.36.156-.734.531-.969.36-.234.875-.234 1.11-.234v2.344c0 .172 0 .219.187.219.703 0 1.547-.391 1.547-1.516 0-.984-.813-1.766-1.797-1.766-1.031 0-1.828.86-1.828 1.875 0 1 .844 1.407 1.031 1.407m1.078-.547V.953c1.11.078 1.297.75 1.297 1.047 0 .938-1.125.969-1.297.969m0 0"/><path id="al" d="M0 4.484h.266c0-.515 0-.609.359-.609h1.797c.656 0 1.094-.312 1.094-1.14a1.38 1.38 0 0 0-.766-1.25h.766L3.422.327h-.266c0 .547-.047.61-.437.61H.625c-.36 0-.36-.094-.36-.61H0c.031.344.031.688.031.906 0 .235 0 .563-.031.907h.266c0-.5 0-.61.359-.61h1.438c.843 0 1.234.64 1.234 1.125s-.344.61-.844.61H.625c-.36 0-.36-.094-.36-.61H0c.031.344.031.703.031.906 0 .235 0 .579-.031.922m5.047-.718.156-.157c-.36-.328-.36-.578-.36-.671 0-.188.079-.344.173-.532.109-.219.187-.36.187-.547 0-.312-.172-.468-.64-.906l-.157.156c.36.329.36.579.36.672 0 .172-.079.344-.188.532-.094.218-.172.359-.172.546 0 .313.172.47.64.907m0 0"/><path id="am" d="M1.703 3.984c.984 0 1.844-.828 1.844-1.875 0-1.046-.86-1.875-1.844-1.875-1 0-1.781.86-1.781 1.875 0 1.032.781 1.875 1.781 1.875m.063-.703c-.36 0-.797-.015-1.141-.25C.313 2.828.172 2.47.172 2.11c0-.421.203-.765.484-.937.328-.203.719-.219 1.11-.219.312 0 .78 0 1.125.235.28.218.437.546.437.921 0 .422-.203.766-.469.938-.343.219-.765.234-1.093.234m0 0"/><path id="an" d="M3.016 3.063c.28 0 .5-.25.5-.61 0-.515-.391-.875-.844-1.031v-.016h.844L3.422.281h-.266c0 .547-.047.61-.437.61H.625C.265.89.265.78.265.28H0c.031.313.031.75.031.938 0 .468 0 .484-.031 1h.266v-.156c0-.579.078-.594.375-.594h1.172c.609 0 1.468.25 1.484 1.015-.031-.046-.094-.14-.281-.14-.25 0-.36.203-.36.36 0 .187.125.358.36.358m0 0"/><path id="ao" d="M0 2.125h.266c0-.5 0-.61.359-.61h4.906L5.438.329h-.266c0 .547-.047.61-.438.61H.625c-.36 0-.36-.094-.36-.61H0c.031.313.031.766.031.906 0 .157 0 .579-.031.891m0 0"/><path id="ap" d="M3.172 4.281h.265c-.03-.265-.03-.281-.03-.61 0-.077 0-.452.03-.702h-.265c-.016.281-.188.36-.328.36a.4.4 0 0 1-.188-.048l-2.015-.86 2.172-.952c.093-.047.156-.047.156-.047.203 0 .203.297.203.422h.265c-.03-.344-.03-.719-.03-.86 0-.171 0-.546.03-.812h-.265c0 .484-.047.531-.313.656L.094 2.016c-.125.062-.172.109-.172.218 0 .11.062.172.156.204L2.61 3.53c.454.188.547.469.563.75m0 0"/><path id="aq" d="M.719 4.094h.437v-.25H.72c-.328 0-.453-.11-.453-.281 0-.297.359-.297.453-.297h1.656c.781 0 1.172-.75 1.172-1.485 0-.656-.25-1.25-.781-1.25a.36.36 0 0 0-.375.375c0 .219.156.375.375.375a.356.356 0 0 0 .359-.297c.203.297.203.735.203.782 0 .453-.312.89-.969.89h-.234c-.031-.453-.047-.984-.281-1.547C1.53.406 1.078.266.813.266c-.688 0-.891.812-.891 1.359 0 .578.328.938.64 1.11-.296.046-.609.25-.609.609 0 .078.031.75.766.75m.406-1.438c-.781 0-.984-.64-.984-.969 0-.406.28-.765.672-.765.515 0 1.062.5 1.093 1.734Zm0 0"/><path id="ar" d="M0 4.484h.266c0-.515 0-.609.359-.609h1.797c.656 0 1.094-.312 1.094-1.14a1.38 1.38 0 0 0-.766-1.25h.766L3.422.327h-.266c0 .547-.047.61-.437.61H.625c-.36 0-.36-.094-.36-.61H0c.031.344.031.688.031.906 0 .235 0 .563-.031.907h.266c0-.5 0-.61.359-.61h1.438c.843 0 1.234.64 1.234 1.125s-.344.61-.844.61H.625c-.36 0-.36-.094-.36-.61H0c.031.344.031.703.031.906 0 .235 0 .579-.031.922m0 0"/><path id="as" d="M0 6.828h.266c0-.516 0-.61.359-.61h1.797c.64 0 1.094-.28 1.094-1.14 0-.734-.5-1.11-.735-1.234.578-.14.735-.594.735-1.11a1.37 1.37 0 0 0-.766-1.25h.766L3.422.328h-.266c0 .547-.047.61-.437.61H.625c-.36 0-.36-.094-.36-.61H0c.031.344.031.688.031.906 0 .235 0 .563-.031.907h.266c0-.5 0-.61.359-.61h1.438c.843 0 1.234.64 1.234 1.14 0 .517-.406.61-.844.61H.625c-.36 0-.36-.11-.36-.61H0c.031.345.031.688.031.907 0 .235 0 .563-.031.906h.266c0-.515 0-.609.359-.609h1.438c.843 0 1.234.64 1.234 1.14 0 .516-.406.61-.844.61H.625c-.36 0-.36-.11-.36-.61H0c.031.344.031.688.031.907 0 .234 0 .562-.031.906m0 0"/><path id="at" d="M1.719 4.422c1 0 1.797-.813 1.797-1.781 0-.313-.079-.766-.5-1.172h.5L3.422.28h-.266c0 .563-.047.61-.375.61H-.922c-.36 0-.36-.11-.36-.61h-.265c.031.344.031.688.031.907 0 .234 0 .562-.03.906h.265c0-.516 0-.61.36-.61H.39a1.37 1.37 0 0 0-.47 1.047c0 1 .782 1.89 1.798 1.89m0-.719C.812 3.703.14 3.125.14 2.484c0-.28.125-.64.515-.906.14-.094.156-.094.297-.094h1.703c.313.188.61.594.61 1.094 0 .61-.672 1.125-1.547 1.125m0 0"/><path id="au" d="M.438 1.625a.453.453 0 0 0 .453-.453.436.436 0 0 0-.438-.438.44.44 0 0 0-.453.438.45.45 0 0 0 .438.453m0 0"/><path id="av" d="M1.594 3.797c.922 0 1.75-.672 1.75-1.61 0-.39-.125-.765-.406-1.078h1.546c-.03.11-.125.422-.125.766 0 1 .704 1.594.829 1.594.093 0 .109-.047.109-.094 0 0 0-.031-.031-.094a3 3 0 0 1-.22-1.11c0-.468.11-.858.22-1.108.03-.079.03-.11.03-.11C5.297.86 5.22.86 5.063.86H2.735c-.14 0-.234 0-.234.125 0 .063.031.079.094.125.11.094.515.391.515 1.079 0 .437-.359.656-.515.734-.281.125-.656.14-.953.14s-.735 0-1.078-.218a1.08 1.08 0 0 1-.485-.906c0-.516.313-1.016.844-1.204C.906.75.906.813.906.813c0 .218.14.406.39.406a.39.39 0 0 0 .407-.39c0-.157-.078-.407-.422-.407-.718 0-1.453.625-1.453 1.531 0 1 .781 1.844 1.766 1.844m0 0"/><path id="aw" d="M-1.828 2.672h.047l3.765-1.469 3.782 1.469h.046c.094 0 .157-.063.157-.156a.17.17 0 0 0-.094-.157L2.047.891C2.03.875 2.016.875 1.984.875c-.015 0-.03 0-.046.016l-3.829 1.468a.17.17 0 0 0-.093.157c0 .093.062.156.156.156m0 0"/><path id="ax" d="M1.14 4.547c.11 0 .11-.094.11-.125 0-.11-.031-.125-.25-.172C.61 4.156.14 4 .14 3.672c0-.219.173-.266.391-.266.14 0 .422.063.625.11l.719.187c.297.078.344.078.61.156.203.047.578.141.624.141.172 0 .25-.14.25-.266a.39.39 0 0 0-.312-.375.93.93 0 0 0 .469-.812C3.516 1.516 2.39.484 1.25.484.469.484-.078 1-.078 1.688c0 .437.25.812.562 1.14-.484.14-.562.61-.562.813 0 .28.172.484.422.625.312.187.765.28.797.28M2.595 3.25c-.031 0-.078-.016-.11-.016L1 2.86c-.234-.062-.39-.234-.531-.406C.39 2.375.14 2.063.14 1.72c0-.297.203-.594.78-.594.423 0 1.298.234 1.61.422.64.36.766.766.766 1 0 .547-.61.703-.703.703m0 0"/><path id="ay" d="M1.984 2.219h.063L5.875.734a.17.17 0 0 0 .094-.156.157.157 0 0 0-.157-.156c-.015 0-.03 0-.046.016L1.984 1.89-1.78.438c-.016-.016-.032-.016-.047-.016a.157.157 0 0 0-.156.156c0 .063.03.125.093.156L1.938 2.22zm0 0"/><path id="az" d="M.828 3.938c.047 0 .125-.063.125-.126 0-.046-.015-.062-.078-.124C.141 3.062.141 2.125.141 1.984c0-.578.39-.828.89-.828.235 0 1.094.11 1.64.532.392.296.626.718.626 1.109 0 .11-.016.5-.25.687-.047-.28-.266-.406-.438-.406-.218 0-.296.172-.296.313 0 .172.124.453.515.453.531 0 .688-.61.688-1.047C3.516 1.609 2.422.5 1.313.5.625.5-.079.969-.079 1.969c0 1.344.781 1.969.906 1.969m0 0"/><path id="aA" d="M2.938 1.531a.42.42 0 0 0 .421-.422.42.42 0 0 0-.421-.421.42.42 0 0 0-.422.421.42.42 0 0 0 .422.422m-1.891 0a.42.42 0 0 0 .422-.422.42.42 0 0 0-.422-.421.42.42 0 0 0-.422.421.42.42 0 0 0 .422.422m0 0"/><path id="aB" d="M4 3.203q.094 0 .094-.094c0-.234-.032-.5-.032-.734 0-.25.032-.516.032-.75 0-.047 0-.14-.14-.14-.079 0-.079.077-.079.187 0 .203 0 .36-.094.36-.047 0-.094-.016-.14-.016L.453 1.219C.266 1.172.22 1.125.22.719c0-.125 0-.188-.14-.188 0 0-.079 0-.079.078 0 .25.031.516.031.75 0 .25-.031.516-.031.75 0 .032 0 .125.125.125.094 0 .094-.062.094-.171 0 0 0-.126.015-.22 0-.14.016-.14.078-.14.032 0 .047 0 .126.016l3.187.797c.188.046.25.062.25.5 0 .125 0 .187.125.187m0 0"/><path id="aC" d="M9.953 0v-.516h-.312c-.657 0-.703-.062-.813-.218L5.61-5.047l2.844-2.406c.156-.14.266-.234 1.328-.234v-.516L8.5-8.172c-.36 0-1.297 0-1.594-.031v.515c.266 0 .547.016.86.141l-4.47 3.813v-3.953h1.267v-.516c-.344.031-1.625.031-2.047.031-.438 0-1.72 0-2.063-.031v.515H1.72v7.172H.453V0c.344-.031 1.625-.031 2.063-.031.422 0 1.703 0 2.047.031v-.516H3.297v-2.562L4.53-4.125l2.5 3.344c.016.031.063.094.063.14 0 .125-.578.125-.844.125V0c.39-.031 1.5-.031 1.953-.031.36 0 1.485 0 1.75.031m0 0"/><path id="aD" d="M2.875-.281c0-.766-.36-1.438-1.016-1.438-.53 0-.859.39-.859.86 0 .422.297.859.86.859.359 0 .562-.172.609-.234 0 .343-.063 1.328-1.047 2.172-.078.078-.11.093-.11.156 0 .11.141.219.22.219.155 0 1.343-1 1.343-2.594m0 0"/><path id="aE" d="M13.61-7.687v-.516l-1.297.031c-.344 0-1.22 0-1.5-.031v.515c.14 0 1.187 0 1.187.172 0 0 0 .032-.047.141L9.938-2.047l-2.126-5.64h1.125v-.516c-.374.031-1.484.031-1.937.031-.375 0-1.531 0-1.828-.031v.515h1.016l.484 1.297-1.64 4.344-2.126-5.64h1.125v-.516c-.343.031-1.515.031-1.953.031-.375 0-1.515 0-1.812-.031v.515h1L4.109-.171c.079.203.11.281.375.281.266 0 .297-.078.375-.28l2.079-5.5 2.093 5.5c.063.202.094.28.36.28.234 0 .297-.046.375-.28L12.5-7.407c.094-.203.11-.282 1.11-.282m0 0"/><path id="by" d="M6.516-7.703H4c-.094 0-1.875-.047-2.016-.078-.296-.047-.328-.172-.343-.297h-.5L.734-5.125h.516c0-.125.094-.953.297-1.094.11-.062 1.11-.062 1.297-.062h2.172C3.625-4.61 3.469-4.406 3.094-3.703 2.39-2.313 2.28-1.25 2.28-.656c0 .797.61.797.703.797a.75.75 0 0 0 .547-.235c.156-.187.156-.343.156-.86 0-1.827.172-3.171.922-4.062l1.797-2.14c.11-.125.11-.14.11-.547m0 0"/><path id="bz" d="M6.031-2.406c0-1.453-.984-2.5-2.625-2.5-.484 0-1.047.093-1.562.484v-1.781c.406.094.718.094.906.094.281 0 .969 0 1.766-.485.375-.234 1-.765 1-1.047 0-.062 0-.203-.157-.203 0 0-.03 0-.14.063-.563.187-1.14.328-1.813.328-.687 0-1.25-.14-1.812-.344-.094-.016-.125-.047-.157-.047-.14 0-.14.125-.14.328v3.47c0 .234 0 .359.234.359.125 0 .14 0 .235-.126.14-.171.578-.687 1.593-.687 1.094 0 1.094 1.125 1.094 2.063 0 .859 0 2.109-1.469 2.109-.437 0-1.187-.172-1.593-.86.625 0 .78-.468.78-.734a.72.72 0 0 0-.75-.75c-.359 0-.75.203-.75.766C.672-.86 1.61.14 3.032.14c1.844 0 3-1.063 3-2.547m0 0"/><path id="aF" d="M5.953-1.703c0-.125-.11-.125-.14-.125-.125 0-.141.047-.172.219-.203.765-.422 1.484-.907 1.484-.328 0-.359-.312-.359-.562s.031-.36.156-.875l.266-1.079.422-1.671c.093-.344.093-.36.093-.407 0-.203-.156-.328-.359-.328-.281 0-.453.266-.5.531-.203-.437-.562-.765-1.094-.765-1.406 0-2.875 1.75-2.875 3.5 0 1.125.657 1.906 1.579 1.906.25 0 .843-.047 1.562-.89.094.5.516.89 1.078.89.422 0 .703-.266.89-.656.204-.422.36-1.172.36-1.172M4.313-3.97c0 .078-.016.14-.032.203l-.593 2.344c-.063.219-.063.234-.25.438-.516.656-1.016.859-1.344.859-.594 0-.766-.656-.766-1.125 0-.61.375-2.078.656-2.625.375-.703.907-1.14 1.391-1.14.766 0 .938.968.938 1.046m0 0"/><path id="aX" d="M6.828-7.234c.063-.282.016-.578-.125-.75-.234-.328-.672-.407-1.125-.407-.719 0-1.406.094-2.062.625-.438.344-.766.829-.891 1.313-.11.469-.11.937.14 1.266.172.25.47.421.782.53l-.031.126a3.46 3.46 0 0 0-1.766.734C1.172-3.328.734-2.719.563-2.062.438-1.532.438-.984.734-.61c.204.265.516.437.829.562.406.14.859.188 1.328.188.89 0 1.797-.328 2.578-.953.11-.079.265-.297.39-.454l-.39-.578-.157.032c-.125.343-.312.656-.593.875-.469.375-1 .656-1.532.656-.562 0-1.14-.094-1.437-.5-.297-.39-.312-.922-.187-1.469.14-.547.453-1.062.921-1.437.344-.266.782-.407 1.157-.5.562-.125 1.109-.157 1.672-.157l.062-.312c-.406 0-.797-.032-1.172-.14-.25-.063-.5-.173-.656-.391-.219-.282-.266-.704-.172-1.125.14-.516.453-1.032.89-1.391.298-.25.688-.313 1.032-.313.281 0 .469.063.61.204a.5.5 0 0 1 .109.468c-.047.203-.157.328-.266.453-.078.094-.14.172-.187.282a.36.36 0 0 0 .03.234c.079.094.126.094.266.094s.422-.078.625-.266c.22-.234.282-.437.344-.687m0 0"/><path id="ba" d="M6.172-8.156s0-.14-.156-.14c-.188 0-1.313.108-1.516.14-.094 0-.172.062-.172.219 0 .14.11.14.281.14.579 0 .61.094.61.203l-.047.25-.719 2.828c-.203-.437-.562-.765-1.094-.765-1.406 0-2.875 1.75-2.875 3.5 0 1.125.657 1.906 1.579 1.906.25 0 .843-.047 1.562-.89.094.5.516.89 1.078.89.422 0 .703-.266.89-.656.204-.422.36-1.172.36-1.172 0-.125-.11-.125-.14-.125-.125 0-.141.047-.172.219-.203.765-.422 1.484-.907 1.484-.328 0-.359-.312-.359-.562 0-.282.031-.36.078-.563ZM4.312-3.97c0 .078-.015.14-.03.203l-.594 2.344c-.063.219-.063.234-.25.438-.516.656-1.016.859-1.344.859-.594 0-.766-.656-.766-1.125 0-.61.375-2.078.656-2.625.375-.703.907-1.14 1.391-1.14.766 0 .938.968.938 1.046m0 0"/><path id="bb" d="m10.344-8.156-.172-.11-.375.422c-.14.14-.36.266-.563.266-.078 0-.25-.031-.359-.047a18 18 0 0 1-1.687-.36l.078-.327-.063-.047-.672.297a10 10 0 0 0-.718-.047c-.954 0-1.813.187-2.657.859-.531.438-1.015 1-1.172 1.61-.046.202-.078.406.032.546.093.094.172.172.328.172.125 0 .265-.094.375-.172a.63.63 0 0 0 .219-.36c.03-.124.015-.296.015-.421.016-.172.016-.312.078-.469.047-.187.375-.61.656-.843.563-.438 1.126-.563 1.72-.563a4.5 4.5 0 0 1 .921.094l-.86 3.172H3.704l-.25.343h1.938l-.282 1.047c-.125.422-.25.844-.484 1.25a3 3 0 0 1-.687.875c-.407.375-.97.672-1.47.672-.312 0-.609-.078-.78-.312a1.1 1.1 0 0 1-.188-.407c-.094-.437-.14-.453-.312-.453a.73.73 0 0 0-.438.14c-.125.11-.203.204-.234.345-.063.25-.032.5.125.672.234.328.609.484 1.062.484.969 0 2.031-.39 2.844-1.094.437-.375.672-.687.906-1.094.281-.5.469-1.015.61-1.546l.14-.579h1.469l.344-.343H6.28l.766-2.97c.156.063.937.329 1.422.47.156.062.344.109.5.109.25 0 .531-.219.703-.422Zm0 0"/><path id="aG" d="M7.75-4.078c0-2.328-1.578-4.219-3.594-4.219H1.094V0h3.062c2 0 3.594-1.812 3.594-4.078m-1-.016c0 2.188-1.328 3.422-2.86 3.422H2.095v-6.953H3.89c1.593 0 2.859 1.375 2.859 3.531m0 0"/><path id="aH" d="M5.484-2.625c0-1.625-1.187-2.86-2.562-2.86-1.406 0-2.563 1.266-2.563 2.86 0 1.563 1.188 2.75 2.563 2.75 1.406 0 2.562-1.219 2.562-2.75m-.906-.125c0 1.469-.844 2.125-1.656 2.125-.86 0-1.656-.719-1.656-2.125 0-1.453.89-2.016 1.656-2.016.812 0 1.656.625 1.656 2.016m0 0"/><path id="aI" d="m6.875-.531-.078-.844c-.313.234-.672.484-1.063.61-.375.124-.78.14-1.187.14-.766 0-1.469-.422-1.938-1.031-.546-.703-.796-1.594-.796-2.485 0-.906.25-1.796.796-2.5.47-.609 1.172-1.03 1.938-1.03.36 0 .719.03 1.062.14.344.125.672.297.97.515l.171-1a5.6 5.6 0 0 0-1.078-.312 5.6 5.6 0 0 0-1.125-.094c-1.031 0-1.984.469-2.656 1.25C1.14-6.344.78-5.266.78-4.14c0 1.094.36 2.188 1.11 3.016.672.766 1.625 1.25 2.656 1.25.406 0 .812-.016 1.219-.125.406-.125.765-.328 1.109-.531m0 0"/><path id="aJ" d="M1.813 0v-5.312H.938V0Zm.078-6.797v-1.016H.859v1.016Zm0 0"/><path id="aK" d="M4.86-2.687c0-.516-.048-1.25-.423-1.876-.5-.828-1.328-.921-1.671-.921C1.469-5.484.39-4.25.39-2.687.39-1.11 1.547.124 2.92.124c.563 0 1.22-.156 1.876-.64 0-.047-.047-.438-.047-.438s-.031-.281-.031-.328c-.703.593-1.407.687-1.766.687-.922 0-1.703-.828-1.734-2.093Zm-.704-.641h-2.86c.204-.813.767-1.438 1.47-1.438.359 0 1.187.157 1.39 1.438m0 0"/><path id="aL" d="M5.563-2.672c0-1.469-.782-2.75-1.891-2.75-.344 0-1.11.063-1.86.672v-3.547H.939V0h.906v-.531c.547.515 1.125.656 1.547.656 1.14 0 2.172-1.172 2.172-2.797m-.907 0c0 1.563-.968 2.078-1.703 2.078-.328 0-.562-.125-.781-.297-.281-.25-.328-.453-.328-.656V-4.03c.218-.328.64-.672 1.234-.672.719 0 1.578.547 1.578 2.031m0 0"/><path id="aM" d="M2.11-.016v-.953h-.97V0h.298L1.14 1.5h.468Zm0 0"/><path id="aN" d="M6.797-5.875c0-1.266-1.172-2.422-2.797-2.422H1.094V0h1.015v-3.453H4c1.656 0 2.797-1.188 2.797-2.422m-.953-.016c0 .938-.735 1.75-2.094 1.75H2.094v-3.484H3.75c1.406 0 2.094.828 2.094 1.734m0 0"/><path id="aO" d="M4.797 0v-3.5c0-1.156-.828-1.984-1.938-1.984-.718 0-1.25.172-1.843.5l.078.78c.515-.374 1.062-.593 1.765-.593.547 0 1.032.453 1.032 1.313v.5c-.547.015-1.266.062-1.985.297C1.11-2.422.641-1.97.641-1.375c0 .531.312 1.5 1.328 1.5.656 0 1.5-.203 1.937-.562V0ZM3.89-1.61c0 .25 0 .532-.407.766-.312.203-.718.25-.906.25-.64 0-1.078-.343-1.078-.797 0-.812 1.656-.984 2.39-.984Zm0 0"/><path id="aP" d="M5.063 0v-3.594c0-.734-.157-1.828-1.594-1.828-.672 0-1.25.297-1.703.875v-.812H.922V0h.906v-2.969c0-.75.281-1.734 1.188-1.734 1.109 0 1.14.766 1.14 1.187V0Zm0 0"/><path id="aQ" d="M7.766-5.312H6.89l-.703 2.437c-.172.563-.516 1.688-.563 2.203-.047-.281-.234-1.078-.484-1.937l-.797-2.703H3.53L2.844-2.97c-.219.75-.5 1.781-.531 2.282h-.016c-.016-.235-.14-.86-.375-1.672l-.844-2.953H.172L1.766 0h.922c.453-1.5 1.156-3.781 1.218-4.61h.016c.015.485.265 1.344.344 1.626L5.109 0h1.063Zm0 0"/><path id="aR" d="M4.703 0v-.734H2.984c-.14 0-.28.015-.421.015H1.547l3.11-4.125v-.468H.483v.703h2.953L.329-.484V0Zm0 0"/><path id="aS" d="M4.203-1.516c0-.609-.36-1-.406-1.046-.453-.47-.813-.532-1.531-.672-.438-.094-1.047-.203-1.047-.813 0-.734.843-.734 1-.734.625 0 1.125.14 1.656.437l.14-.765a3.9 3.9 0 0 0-1.687-.375c-.265 0-1.937 0-1.937 1.547 0 .53.297.89.468 1.062.438.36.735.422 1.438.563.39.093 1.078.234 1.078.859 0 .828-.922.828-1.094.828A3.12 3.12 0 0 1 .47-1.219l-.14.813c.046.031.859.531 1.968.531 1.547 0 1.906-.937 1.906-1.64m0 0"/><path id="aT" d="M4.86-2.687c0-.516-.048-1.25-.423-1.876-.5-.828-1.328-.921-1.671-.921C1.469-5.484.39-4.25.39-2.687.39-1.141 1.5.078 2.844.124c-.531.344-.875.828-.828 1.39 0 .516.375 1.016 1.172 1.016.39 0 .703-.062 1.171-.297l-.156-.703c-.266.11-.547.172-.812.172-.328-.031-.625-.094-.625-.453-.016-.531.5-.969 1.047-1.281.328-.094.64-.25.984-.485 0-.046-.047-.437-.047-.437s-.031-.281-.031-.328c-.703.593-1.407.687-1.766.687-.922 0-1.703-.828-1.734-2.093Zm-.704-.641h-2.86c.204-.813.767-1.438 1.47-1.438.359 0 1.187.157 1.39 1.438m0 0"/><path id="aU" d="M8.328 0v-3.594c0-.828-.219-1.828-1.61-1.828-1.015 0-1.577.703-1.765.969-.203-.766-.86-.969-1.484-.969-.985 0-1.5.625-1.703.875v-.812H.922V0h.906v-2.969c0-.797.313-1.734 1.188-1.734 1.093 0 1.156.75 1.156 1.187V0h.906v-2.969c0-.797.313-1.734 1.188-1.734 1.093 0 1.156.75 1.156 1.187V0Zm0 0"/><path id="aV" d="M2.14.703v-6.015h-.89v6.14c0 .781-.625.86-.875.86-.531 0-.86-.344-.875-.375l-.234.718c.375.235.859.406 1.406.406.75 0 1.469-.624 1.469-1.734m0-7.5v-1.016H1.11v1.016Zm0 0"/><path id="aW" d="m5.219 2.234-.157-.703c-.265.11-.546.172-.812.172-.328-.031-.61-.094-.625-.453C3.609.719 4.109.313 4.656 0h.14v-3.5c0-1.156-.827-1.984-1.937-1.984-.718 0-1.25.172-1.843.5l.078.78c.515-.374 1.062-.593 1.765-.593.547 0 1.032.453 1.032 1.313v.5c-.547.015-1.266.062-1.985.297C1.11-2.422.641-1.97.641-1.375c0 .531.312 1.5 1.328 1.5.656 0 1.5-.203 1.937-.562V0c-.594.328-1.078.906-1.031 1.516 0 .515.375 1.015 1.172 1.015.406 0 .703-.062 1.172-.297M3.89-1.609c0 .25 0 .53-.407.765-.312.203-.718.25-.906.25-.64 0-1.078-.343-1.078-.797 0-.812 1.656-.984 2.39-.984Zm0 0"/><path id="aY" d="M5.063 0v-8.297h-.891v3.485a2.65 2.65 0 0 0-1.688-.61c-1.14 0-2.062 1.219-2.062 2.766S1.297.125 2.437.125c.438 0 1.11-.156 1.704-.734V0ZM4.14-1.406c-.282.515-.703.812-1.22.812-.733 0-1.593-.562-1.593-2.047 0-1.593 1.016-2.062 1.703-2.062.469 0 .86.234 1.11.625Zm0 0"/><path id="aZ" d="M5.063 0v-5.312h-.907v3.421c0 .907-.625 1.36-1.406 1.36-.844 0-.922-.313-.922-.844v-3.937H.922v3.984c0 .86.265 1.453 1.25 1.453.344 0 1.281-.062 2.015-.719V0Zm0 0"/><path id="bc" d="M5.484-2.625c0-1.625-1.187-2.86-2.562-2.86-1.406 0-2.563 1.266-2.563 2.86 0 1.563 1.188 2.75 2.563 2.75 1.406 0 2.562-1.219 2.562-2.75m-.906-.125c0 1.469-.844 2.125-1.656 2.125-.86 0-1.656-.719-1.656-2.125 0-1.453.89-2.016 1.656-2.016.812 0 1.656.625 1.656 2.016m-.016-5.547h-.906l-1.547 2h.72Zm0 0"/><path id="bd" d="M7.11-2.25c0-1.047-1.032-1.89-2.266-2.094 1.39-.375 1.937-1.172 1.937-1.875 0-1.078-1.218-2.078-2.906-2.078H1.109V0h3.094C5.875 0 7.11-1.078 7.11-2.25M5.86-6.203c0 .844-1.032 1.531-2.298 1.531H2.079v-2.953h1.469c1.281 0 2.312.625 2.312 1.422m.312 3.937c0 .844-.969 1.594-2.313 1.594H2.08v-3.281h1.593c1.547 0 2.5.86 2.5 1.687m0 0"/><path id="be" d="M4.703 0v-.734H2.984c-.14 0-.28.015-.421.015H1.547l3.11-4.125v-.468H.483v.703h2.953L.329-.484V0ZM3.047-6.797v-1.016H2.016v1.016Zm0 0"/><path id="bf" d="M2.11 0v-.969h-.97V0Zm0 0"/><path id="bg" d="M7.547-7.484v-.75H.422v.75H2c.14 0 .281-.016.422-.016h1.062V0H4.5v-7.5h1.063c.14 0 .28.016.421.016Zm0 0"/><path id="bh" d="M4.047-7.5v-.797c-.078-.015-.469-.125-.922-.125-1.125 0-1.937.875-1.937 2.031v1.079H.313v.703h.875V0h.875v-4.61h1.28v-.702H2.048v-1.422c0-.813.672-.97 1.078-.97s.781.141.922.204m0 0"/><path id="bi" d="M4.86-.5c0-.031-.032-.406-.048-.453l-.015-.344a2.8 2.8 0 0 1-1.828.672c-1 0-1.64-.875-1.64-2.047 0-.984.484-2.078 1.671-2.078.797 0 1.14.203 1.656.547l.14-.781c-.702-.407-1.093-.5-1.796-.5-1.656 0-2.578 1.453-2.578 2.812C.422-1.14 1.516.125 2.953.125c.578 0 1.25-.156 1.906-.625m0 0"/><path id="bj" d="M5.063 0v-3.594c0-.734-.157-1.828-1.594-1.828-.828 0-1.375.469-1.656.813v-3.688H.922V0h.906v-2.969c0-.75.281-1.734 1.188-1.734 1.109 0 1.14.766 1.14 1.187V0Zm0 0"/><path id="bk" d="m3.89-.344-.171-.703c-.422.375-.86.422-1.078.422-.532 0-.594-.562-.594-.984v-3h1.64v-.703h-1.64v-1.516h-.828v1.516h-1v.703h.969v3.203c0 .703.156 1.531.984 1.531.797 0 1.36-.281 1.719-.469m0 0"/><path id="bl" d="M3.797-4.625v-.797c-1.078 0-1.719.64-2.047 1.11V-5.36H.938V0h.875v-2.625c0-1.203.906-1.984 1.984-2m0 0"/><path id="bm" d="M5.172-5.312h-.89c-.548 1.421-1.47 3.765-1.516 4.625H2.75c-.062-.72-.687-2.282-.797-2.532L1.11-5.312H.172L2.39 0l-.422 1.094c-.266.593-.438.656-.657.656-.171 0-.546-.047-.921-.187l.078.78c.062.016.469.095.844.095.296 0 .843 0 1.359-1.313Zm0 0"/><path id="bn" d="m5.672-4.703-.125-.719c-.234 0-1.047 0-1.828.39-.39-.327-.875-.39-1.11-.39-1.046 0-1.875.875-1.875 1.922 0 .422.125.828.391 1.188a1.64 1.64 0 0 0-.344 1.015c0 .453.156.75.297.906C.468 0 .328.516.328.844c0 .875 1.125 1.61 2.594 1.61 1.453 0 2.594-.704 2.594-1.61 0-1.688-1.938-1.688-2.422-1.688H2.078c-.172 0-.672 0-.672-.625 0-.265.047-.343.11-.437.203.14.593.343 1.078.343 1.031 0 1.875-.859 1.875-1.937a2.13 2.13 0 0 0-.36-1.156 7 7 0 0 1 .954-.063c.046 0 .312 0 .609.016M3.64-3.5c0 1.063-.672 1.281-1.032 1.281-.53 0-1.062-.36-1.062-1.265 0-1.063.672-1.282 1.047-1.282.531 0 1.047.36 1.047 1.266M4.688.844c0 .562-.829.953-1.766.953-.922 0-1.766-.375-1.766-.953 0-.047 0-.813.907-.813h1.046c.266 0 1.579 0 1.579.813m0 0"/><path id="bo" d="M5.469 0 3.25-3.266l1.969-2.046h-1.11L1.813-2.906v-5.39H.938V0h.828v-1.719l.906-.953L4.5 0Zm0 0"/><path id="bp" d="M4.203-1.516c0-.609-.36-1-.406-1.046-.453-.47-.813-.532-1.531-.672-.438-.094-1.047-.203-1.047-.813 0-.734.843-.734 1-.734.625 0 1.125.14 1.656.437l.14-.765a3.9 3.9 0 0 0-1.687-.375c-.265 0-1.937 0-1.937 1.547 0 .53.297.89.468 1.062.438.36.735.422 1.438.563.39.093 1.078.234 1.078.859 0 .828-.922.828-1.094.828A3.12 3.12 0 0 1 .47-1.219l-.14.813c.046.031.859.531 1.968.531 1.547 0 1.906-.937 1.906-1.64m-.312-6.78h-.922l-1.547 2h.719Zm0 0"/><path id="bq" d="M10.813-8.297h-.876L8.845-4.375c-.266.938-.266.969-.485 1.766-.14.578-.328 1.265-.375 1.703H7.97c-.063-.5-.313-1.531-.516-2.25l-1.422-5.14H5.016L4-4.595c-.094.297-.812 2.89-.89 3.672h-.016c-.047-.469-.344-1.625-.39-1.828l-.517-1.906-1-3.64H.173L2.516 0H3.5l1.125-4.062c.297-1.063.75-2.704.828-3.344h.016s.078.625.64 2.672L7.406 0H8.47Zm0 0"/><path id="br" d="M5.563-2.672c0-1.437-.75-2.75-1.875-2.75-.485 0-1.25.156-1.876.672v-.562H.939v7.625h.906V-.531c.406.36.906.656 1.547.656 1.156 0 2.172-1.172 2.172-2.797m-.907.016c0 1.203-.812 2.062-1.703 2.062-.328 0-.562-.125-.781-.297-.297-.25-.328-.468-.328-.656v-2.469a1.47 1.47 0 0 1 1.219-.671c.874 0 1.593.89 1.593 2.03m0 0"/><path id="bs" d="m3.688-5.36-.485-.515-.828.719v-3.14H1.5v3.874L.328-3.375l.453.547.719-.656V0h.875v-4.234Zm0 0"/><path id="bt" d="M4.86-.5c0-.031-.032-.406-.048-.453l-.015-.344a2.8 2.8 0 0 1-1.828.672c-1 0-1.64-.875-1.64-2.047 0-.984.484-2.078 1.671-2.078.797 0 1.14.203 1.656.547l.14-.781c-.702-.407-1.093-.5-1.796-.5-1.656 0-2.578 1.453-2.578 2.812C.422-1.14 1.516.125 2.953.125c.578 0 1.25-.156 1.906-.625M4.5-8.297h-.922l-1.547 2h.719Zm0 0"/><path id="bu" d="M9.016 0v-8.297h-1.36L6.281-4.609c-.61 1.672-1.078 2.922-1.203 3.468h-.016c-.03-.203-.187-.64-.343-1.109-.219-.64-.219-.672-.407-1.156L2.5-8.296H1.14V0h.923v-7.375c.171.813 2.109 5.922 2.562 7.125H5.5c.39-1.031 2.36-6.234 2.578-7.14h.016V0Zm0 0"/><path id="bA" d="M4.563 0v-.437H3.266v-5.157c0-.187 0-.297-.266-.297-.11 0-.125 0-.203.063-.688.516-1.656.516-1.828.516H.797v.437h.172a4.2 4.2 0 0 0 1.203-.172v4.61H.89V0c.343-.031 1.422-.031 1.828-.031.422 0 1.484 0 1.844.031m0 0"/><path id="bB" d="M4.86-2.953c0-.469-.032-1.39-.485-2.094-.297-.437-.828-.844-1.719-.844-1.281 0-2.218.72-2.218 1.938 0 1.125.765 1.937 2.093 1.937.406 0 .781-.203 1.063-.687v.172c0 .578-.063 1.156-.235 1.531-.109.234-.468.703-1.171.703-.079 0-.454 0-.735-.187a.55.55 0 0 0 .422-.563c0-.375-.281-.578-.578-.578-.25 0-.594.14-.594.594 0 .61.469 1.14 1.5 1.14 1.25 0 2.656-.796 2.656-3.062m-1.266-.89c0 .406-.172 1.452-1.031 1.452-.86 0-.86-.656-.86-1.53 0-.876 0-1.61.984-1.61.563 0 .766.515.797.593.11.297.11.782.11 1.094m0 0"/><path id="bC" d="M4.86-1.61c0-.718-.532-1.327-1.548-1.546.907-.313 1.25-.938 1.25-1.485 0-.671-.671-1.25-2-1.25-1.109 0-1.828.594-1.828 1.329 0 .406.282.656.641.656.39 0 .656-.281.656-.656 0-.297-.172-.547-.531-.625.063-.063.438-.344 1.016-.344.78 0 .78.593.78.875 0 .5-.187 1.281-.968 1.328l-.422.031c-.14.016-.14.11-.14.172 0 .188.093.188.265.188h.422c1 0 1 .874 1 1.328 0 .406 0 1.312-.953 1.312-.11 0-.734-.016-1.14-.312.406-.11.5-.47.5-.672 0-.422-.298-.703-.72-.703-.374 0-.702.25-.702.703 0 .843.906 1.39 2.093 1.39 1.64 0 2.328-.906 2.328-1.718m0 0"/><path id="bD" d="M3.578-1.203c0-.547-.437-1.094-1.203-1.25.719-.266.984-.781.984-1.219 0-.547-.625-.953-1.406-.953-.766 0-1.36.375-1.36.938 0 .234.157.359.36.359.219 0 .36-.156.36-.344 0-.203-.141-.36-.36-.375.25-.297.719-.375.985-.375.312 0 .75.156.75.75 0 .297-.094.625-.282.828-.219.266-.422.281-.765.313-.172.015-.188.015-.22.015 0 0-.077.016-.077.094 0 .094.062.094.187.094h.375c.547 0 .938.375.938 1.125 0 .86-.516 1.125-.906 1.125-.282 0-.907-.078-1.188-.5.328 0 .406-.235.406-.39 0-.22-.172-.376-.39-.376a.38.38 0 0 0-.391.407C.375-.281 1.094.14 1.938.14c.968 0 1.64-.657 1.64-1.344m0 0"/><path id="bE" d="M3.297 0v-.25H3.03c-.703 0-.703-.094-.703-.328v-3.86c0-.187 0-.187-.203-.187-.453.438-1.078.438-1.36.438v.25c.157 0 .626 0 1-.188v3.547c0 .234 0 .328-.687.328H.812V0l1.235-.031Zm0 0"/><path id="bF" d="M2.016 1.734v-.328h-.72V-4.89h.72v-.328H.953v6.953Zm0 0"/><path id="bG" d="M3.516-1.266H3.28c-.015.157-.094.563-.187.625-.047.047-.578.047-.688.047H1.125c.734-.64.984-.843 1.39-1.172.516-.406 1-.843 1-1.5 0-.843-.734-1.359-1.624-1.359-.86 0-1.453.61-1.453 1.25 0 .344.296.39.375.39.156 0 .359-.124.359-.374 0-.125-.047-.375-.406-.375.218-.485.687-.641 1.015-.641.703 0 1.063.547 1.063 1.11 0 .609-.438 1.078-.656 1.328L.516-.266C.437-.203.437-.187.437 0h2.876Zm0 0"/><path id="bH" d="M3.688-1.14v-.25h-.782V-4.5c0-.14 0-.203-.14-.203-.094 0-.125 0-.188.11L.266-1.392v.25h2.062v.563c0 .25 0 .328-.578.328h-.187V0l1.046-.031L3.672 0v-.25h-.188c-.578 0-.578-.078-.578-.328v-.563Zm-1.313-.25H.531l1.844-2.548Zm0 0"/><path id="bI" d="M1.297 1.734v-6.953H.219v.328h.734v6.297H.22v.328Zm0 0"/><path id="bJ" d="M7.813-1.75v-.203H.109v.203Zm0 0"/><path id="bK" d="M3.578-2.297c0-1.719-.765-2.328-1.578-2.328a1.55 1.55 0 0 0-1.11.422c-.234.234-.515.5-.515 1.125 0 .89.703 1.547 1.516 1.547.562 0 .859-.375 1.015-.688v.14c0 1.735-.844 2-1.265 2-.157 0-.532-.015-.72-.233a.315.315 0 0 0 .313-.329.32.32 0 0 0-.328-.328c-.203 0-.328.14-.328.344 0 .469.39.766 1.063.766 1 0 1.937-.938 1.937-2.438M2.891-3c0 .906-.516 1.266-.953 1.266-.282 0-.532-.079-.735-.407-.156-.25-.156-.546-.156-.937 0-.406 0-.672.203-.953.172-.25.39-.39.75-.39s.578.218.688.405c.187.282.203.782.203 1.016m0 0"/><path id="bL" d="M2.516 0v-.25h-.172c-.578 0-.578-.078-.578-.328v-3.61c0-.234 0-.328.578-.328h.172v-.25l-1.078.032-1.079-.032v.25h.172c.578 0 .578.094.578.329v3.609c0 .25 0 .328-.578.328H.36V0l1.079-.031Zm0 0"/><path id="bM" d="M3.594-2.219c0-.765-.094-1.328-.406-1.812-.22-.313-.657-.594-1.204-.594C.36-4.625.36-2.719.36-2.219s0 2.36 1.625 2.36c1.61 0 1.61-1.86 1.61-2.36m-.625-.094c0 .516 0 1.032-.094 1.47-.14.64-.61.78-.89.78-.329 0-.75-.187-.891-.75C1-1.219 1-1.796 1-2.312c0-.515 0-1.046.094-1.421.156-.547.593-.703.89-.703.375 0 .735.234.86.64.11.375.125.875.125 1.485m0 0"/><path id="bN" d="M3.578-1.422c0-.89-.703-1.547-1.515-1.547-.563 0-.86.375-1.016.688 0-.563.047-1.078.312-1.516.235-.375.61-.625 1.063-.625.203 0 .484.047.625.234-.172.016-.328.141-.328.344a.32.32 0 0 0 .328.328c.219 0 .344-.14.344-.343 0-.407-.297-.766-.985-.766-1 0-2.031.922-2.031 2.422C.375-.406 1.219.14 2 .14c.844 0 1.578-.657 1.578-1.563m-.672 0c0 .39 0 .688-.187.969A.82.82 0 0 1 2-.078c-.36 0-.625-.203-.781-.516-.094-.203-.157-.562-.157-.968 0-.688.407-1.204.97-1.204.312 0 .53.125.702.375.172.266.172.563.172.97m0 0"/><path id="bO" d="M5.547 0v-.25h-.125c-.469 0-.516-.078-.594-.266L3.125-4.812c-.031-.11-.062-.157-.187-.157-.141 0-.157.047-.204.157L1.125-.734C1.063-.562.938-.25.313-.25V0c.234-.016.484-.031.718-.031.282 0 .797.031.844.031v-.25c-.312 0-.516-.14-.516-.328 0-.063.016-.078.047-.14l.328-.86H3.72l.406 1.016c0 .03.031.078.031.109 0 .203-.375.203-.562.203V0l1.031-.031c.328 0 .86.031.922.031M3.609-1.828H1.83l.89-2.266Zm0 0"/><path id="bP" d="M4.047 0v-.25c-.469 0-.516-.047-.516-.39v-4.204l-1.047.078v.25c.47 0 .516.063.516.391v1.453a1.37 1.37 0 0 0-.969-.406c-.937 0-1.703.703-1.703 1.578S1.062.063 1.938.063c.578 0 .921-.297 1.03-.422v.422ZM2.969-.734c-.172.328-.531.609-.985.609-.39 0-.671-.234-.812-.437-.14-.204-.219-.485-.219-.922 0-.172 0-.688.281-1.016.282-.312.625-.375.829-.375.328 0 .64.156.828.406.078.11.078.11.078.25Zm0 0"/><path id="bQ" d="M5.469-2.75V-3c-.188.016-.313.031-.5.031-.219 0-.485-.015-.688-.031v.25c.235 0 .36.14.36.297 0 .062 0 .078-.047.172L3.922-.547l-.75-1.906a.3.3 0 0 1-.031-.125c0-.156.172-.172.375-.172V-3c-.25.016-.5.031-.75.031-.203 0-.422-.015-.625-.031v.25c.172 0 .312 0 .406.047.094.078.156.312.156.312s-.015.063-.031.079L2.016-.641l-.703-1.812c-.032-.094-.032-.094-.032-.125 0-.172.25-.172.375-.172V-3s-.515.031-.797.031C.641-2.969.422-2.984.203-3v.25c.281 0 .438 0 .5.203l.969 2.453c.047.11.062.157.203.157.125 0 .14-.047.172-.141l.797-1.984.765 1.968c.047.094.063.157.204.157.124 0 .14-.047.187-.157l.875-2.234c.14-.344.375-.422.594-.422m0 0"/><path id="bR" d="M3.266-.844c0-.015-.016-.094-.125-.094-.094 0-.11.047-.125.11-.22.562-.75.672-1 .672-.328 0-.641-.14-.844-.406-.266-.329-.266-.75-.266-1.032h2.157c.156 0 .203 0 .203-.14 0-.625-.344-1.375-1.391-1.375a1.59 1.59 0 0 0-1.61 1.578c0 .89.782 1.594 1.704 1.594.937 0 1.297-.75 1.297-.907m-.485-.922H.906c.078-.984.703-1.14.969-1.14.86 0 .89.969.906 1.14m0 0"/><path id="bS" d="M4.11 0v-.25c-.454 0-.516 0-.516-.297v-1.562c0-.61-.297-.97-1.047-.97-.578 0-.938.313-1.14.688v-.687L.374-3v.25c.469 0 .531.047.531.39v1.813c0 .297-.078.297-.531.297V0s.5-.031.797-.031c.25 0 .734.031.797.031v-.25c-.453 0-.516 0-.516-.297v-1.265c0-.72.578-1.063 1.031-1.063.485 0 .547.375.547.734v1.594c0 .297-.062.297-.515.297V0s.5-.031.797-.031c.25 0 .734.031.796.031m0 0"/><path id="bT" d="M2.61-.875v-.39h-.235v.374c0 .485-.219.735-.5.735-.469 0-.469-.578-.469-.703V-2.75h1.078V-3H1.406v-1.281h-.25c0 .625-.281 1.312-.953 1.328v.203h.64v1.875c0 .781.595.938.985.938.469 0 .781-.391.781-.938m0 0"/><path id="bU" d="M3.516-1.406c0-.782-.594-1.5-1.453-1.5-.313 0-.672.062-.985.328v-1.313c.36.094.563.094.672.094.922 0 1.469-.625 1.469-.734 0-.078-.047-.094-.078-.094 0 0-.032 0-.063.016-.172.062-.531.203-1.047.203-.203 0-.562-.016-1.015-.188-.079-.031-.094-.031-.094-.031-.094 0-.094.078-.094.188v2.046c0 .125 0 .204.11.204.062 0 .078 0 .14-.094.297-.375.734-.438.969-.438.422 0 .61.328.64.39.126.235.172.5.172.907 0 .203 0 .61-.218.922a.98.98 0 0 1-.813.422c-.453 0-.922-.25-1.094-.719.266.016.407-.156.407-.344 0-.296-.266-.343-.36-.343 0 0-.343 0-.343.375 0 .625.578 1.25 1.406 1.25.89 0 1.672-.657 1.672-1.547m0 0"/><clipPath id="b"><path d="M.535.266h6.883v9.636H.535Zm0 0"/></clipPath><clipPath id="a"><path d="M0 0h8v10H0z"/></clipPath><clipPath id="bw"><path d="M15.023 568.348H403v11.336H15.023Zm0 0"/></clipPath><linearGradient id="bx" x1="0" x2="388.063" y1="0" y2="0" gradientTransform="matrix(1 0 0 -1 15.024 579.685)" gradientUnits="userSpaceOnUse"><stop offset="0" stop-color="#f2f2f2"/><stop offset=".25" stop-color="#f2f2f2"/><stop offset=".313" stop-color="#f2f2f2"/><stop offset=".344" stop-color="#f2f2f2"/><stop offset=".359" stop-color="#f3f3f3"/><stop offset=".363" stop-color="#f4f4f4"/><stop offset=".367" stop-color="#f5f5f5"/><stop offset=".371" stop-color="#f6f6f6"/><stop offset=".375" stop-color="#f7f7f7"/><stop offset=".379" stop-color="#f8f8f8"/><stop offset=".383" stop-color="#f9f9f9"/><stop offset=".387" stop-color="#fafafa"/><stop offset=".391" stop-color="#fbfbfb"/><stop offset=".395" stop-color="#fcfcfc"/><stop offset=".398" stop-color="#fcfcfc"/><stop offset=".406" stop-color="#fcfcfc"/><stop offset=".438" stop-color="#fcfcfc"/><stop offset=".5" stop-color="#fcfcfc"/><stop offset=".563" stop-color="#fcfcfc"/><stop offset=".566" stop-color="#fcfcfc"/><stop offset=".57" stop-color="#fbfbfb"/><stop offset=".574" stop-color="#fafafa"/><stop offset=".578" stop-color="#f9f9f9"/><stop offset=".582" stop-color="#f8f8f8"/><stop offset=".586" stop-color="#f7f7f7"/><stop offset=".59" stop-color="#f6f6f6"/><stop offset=".594" stop-color="#f5f5f5"/><stop offset=".598" stop-color="#f4f4f4"/><stop offset=".602" stop-color="#f3f3f3"/><stop offset=".609" stop-color="#f3f3f3"/><stop offset=".625" stop-color="#f2f2f2"/><stop offset=".75" stop-color="#f2f2f2"/><stop offset="1" stop-color="#f2f2f2"/></linearGradient><g id="c" clip-path="url(#a)"><g clip-path="url(#b)"><path fill-rule="evenodd" d="m3.977 7.836 3.441 2.066V1.645c0-.762-.617-1.38-1.375-1.38H1.914C1.152.266.535.884.535 1.646v8.257Zm-2.754.851 2.754-1.652L6.73 8.687V1.646a.69.69 0 0 0-.687-.692H1.914a.69.69 0 0 0-.691.692Zm0 0"/></g></g></defs><use xlink:href="#c" transform="translate(9 27)"/><use xlink:href="#d" x="17.008" y="23.315"/><use xlink:href="#e" x="20.884" y="23.315"/><use xlink:href="#f" x="26.154" y="23.315"/><use xlink:href="#g" x="384.039" y="23.315"/><use xlink:href="#h" x="390.168" y="23.315"/><use xlink:href="#i" x="392.79" y="23.315"/><use xlink:href="#j" x="396.727" y="23.315"/><use xlink:href="#k" x="84.051" y="34.908"/><use xlink:href="#l" x="93.543" y="34.908"/><use xlink:href="#m" x="104.506" y="34.908"/><use xlink:href="#n" x="112.91" y="34.908"/><use xlink:href="#o" x="115.971" y="34.908"/><use xlink:href="#p" x="122.08" y="34.908"/><use xlink:href="#n" x="128.787" y="34.908"/><use xlink:href="#o" x="131.847" y="34.908"/><use xlink:href="#q" x="137.956" y="34.908"/><use xlink:href="#r" x="146.002" y="34.908"/><use xlink:href="#s" x="154.036" y="34.908"/><use xlink:href="#t" x="160.312" y="34.908"/><use xlink:href="#n" x="167.019" y="34.908"/><use xlink:href="#o" x="170.079" y="34.908"/><use xlink:href="#q" x="176.188" y="34.908"/><use xlink:href="#u" x="184.234" y="34.908"/><use xlink:href="#v" x="193.128" y="34.908"/><use xlink:href="#t" x="198.819" y="34.908"/><use xlink:href="#l" x="205.526" y="34.908"/><use xlink:href="#w" x="212.101" y="34.908"/><use xlink:href="#v" x="217.146" y="34.908"/><use xlink:href="#x" x="222.837" y="34.908"/><use xlink:href="#y" x="233.333" y="34.908"/><use xlink:href="#l" x="243.698" y="34.908"/><use xlink:href="#z" x="250.273" y="34.908"/><use xlink:href="#A" x="253.692" y="34.908"/><use xlink:href="#B" x="264.356" y="34.908"/><use xlink:href="#C" x="271.063" y="34.908"/><use xlink:href="#w" x="277.77" y="34.908"/><use xlink:href="#v" x="282.815" y="34.908"/><use xlink:href="#x" x="288.505" y="34.908"/><use xlink:href="#D" x="303.583" y="34.908"/><use xlink:href="#E" x="307.169" y="34.908"/><use xlink:href="#F" x="313.06" y="34.908"/><use xlink:href="#G" x="317.938" y="34.908"/><use xlink:href="#H" x="322.546" y="34.908"/><use xlink:href="#I" x="327.155" y="34.908"/><use xlink:href="#J" x="392.766" y="35.506" fill="red"/><use xlink:href="#K" x="395.718" y="34.908" fill="red"/><path fill="none" stroke="#000" stroke-miterlimit="10" stroke-width=".398" d="M17.008 39.293h384.094"/><use xlink:href="#L" x="399.042" y="198.583"/><use xlink:href="#M" x="399.042" y="189.418"/><use xlink:href="#N" x="399.042" y="186.126"/><use xlink:href="#O" x="399.042" y="182.364"/><use xlink:href="#P" x="399.042" y="177.192"/><use xlink:href="#Q" x="399.042" y="172.489"/><use xlink:href="#R" x="399.042" y="170.138"/><use xlink:href="#S" x="399.042" y="165.906"/><use xlink:href="#T" x="399.042" y="161.204"/><use xlink:href="#U" x="399.042" y="156.972"/><use xlink:href="#O" x="399.042" y="153.672"/><use xlink:href="#Q" x="399.042" y="148.499"/><use xlink:href="#S" x="399.042" y="146.148"/><use xlink:href="#S" x="399.042" y="141.446"/><use xlink:href="#V" x="399.042" y="136.744"/><use xlink:href="#W" x="399.042" y="132.512"/><use xlink:href="#X" x="399.042" y="130.161"/><use xlink:href="#T" x="399.042" y="126.399"/><use xlink:href="#W" x="399.042" y="119.345"/><use xlink:href="#V" x="399.042" y="116.994"/><use xlink:href="#Y" x="399.042" y="109.941"/><use xlink:href="#Q" x="399.042" y="102.887"/><use xlink:href="#V" x="399.042" y="100.536"/><use xlink:href="#V" x="399.042" y="93.483"/><use xlink:href="#S" x="399.042" y="89.251"/><use xlink:href="#Q" x="399.042" y="84.548"/><use xlink:href="#Y" x="399.042" y="82.197"/><use xlink:href="#V" x="399.042" y="75.144"/><use xlink:href="#Z" x="399.042" y="68.09"/><use xlink:href="#aa" x="399.042" y="63.388"/><use xlink:href="#ab" x="399.042" y="61.037"/><use xlink:href="#O" x="399.042" y="56.805"/><use xlink:href="#ac" x="399.042" y="51.63"/><use xlink:href="#ad" x="399.042" y="48.53"/><use xlink:href="#ae" x="399.042" y="43.588"/><use xlink:href="#af" x="403.164" y="40.487"/><use xlink:href="#ag" x="403.164" y="49.645"/><use xlink:href="#ah" x="403.164" y="52.936"/><use xlink:href="#ai" x="403.164" y="55.287"/><use xlink:href="#aj" x="403.164" y="60.46"/><use xlink:href="#ak" x="403.164" y="65.162"/><use xlink:href="#al" x="403.164" y="68.924"/><use xlink:href="#am" x="403.164" y="73.626"/><use xlink:href="#an" x="403.164" y="77.858"/><use xlink:href="#ai" x="403.164" y="81.158"/><use xlink:href="#ao" x="403.164" y="86.33"/><use xlink:href="#ak" x="403.164" y="88.682"/><use xlink:href="#ap" x="403.164" y="92.443"/><use xlink:href="#aq" x="403.164" y="96.452"/><use xlink:href="#ar" x="403.164" y="100.684"/><use xlink:href="#ag" x="403.164" y="105.148"/><use xlink:href="#am" x="403.164" y="108.439"/><use xlink:href="#as" x="403.164" y="115.485"/><use xlink:href="#ah" x="403.164" y="122.538"/><use xlink:href="#aq" x="403.164" y="127.711"/><use xlink:href="#ao" x="403.164" y="131.943"/><use xlink:href="#as" x="403.164" y="134.294"/><use xlink:href="#aq" x="403.164" y="141.347"/><use xlink:href="#at" x="403.164" y="148.401"/><use xlink:href="#au" x="403.164" y="153.103"/><use xlink:href="#av" x="403.164" y="155.454"/><use xlink:href="#ai" x="403.164" y="159.686"/><use xlink:href="#aw" x="403.164" y="164.868"/><use xlink:href="#ax" x="403.164" y="167.968"/><use xlink:href="#ay" x="403.164" y="172.91"/><use xlink:href="#ai" x="403.164" y="176.01"/><use xlink:href="#az" x="403.164" y="181.183"/><use xlink:href="#aA" x="403.164" y="186.14"/><use xlink:href="#ax" x="403.164" y="191.01"/><use xlink:href="#aB" x="401.195" y="195.955"/><use xlink:href="#aB" x="401.195" y="198.675"/><use xlink:href="#aB" x="401.195" y="201.395"/><use xlink:href="#aC" x="84.399" y="61.174"/><use xlink:href="#aD" x="93.975" y="61.174"/><use xlink:href="#aE" x="94.369" y="61.174"/><use xlink:href="#aF" x="114.239" y="51.089" fill="red"/><use xlink:href="#aG" x="114.239" y="61.174"/><use xlink:href="#aH" x="122.655" y="61.174"/><use xlink:href="#aI" x="132.411" y="61.174"/><use xlink:href="#aJ" x="139.894" y="61.174"/><use xlink:href="#aK" x="142.644" y="61.174"/><use xlink:href="#aL" x="147.845" y="61.174"/><use xlink:href="#aJ" x="153.846" y="61.174"/><use xlink:href="#aK" x="156.596" y="61.174"/><use xlink:href="#aM" x="161.796" y="61.174"/><use xlink:href="#aN" x="168.945" y="61.174"/><use xlink:href="#aO" x="176.07" y="61.174"/><use xlink:href="#aP" x="181.677" y="61.174"/><use xlink:href="#aJ" x="187.679" y="61.174"/><use xlink:href="#aK" x="190.428" y="61.174"/><use xlink:href="#aM" x="195.629" y="61.174"/><use xlink:href="#aQ" x="202.778" y="61.174"/><use xlink:href="#aR" x="210.74" y="61.174"/><use xlink:href="#aP" x="215.821" y="61.174"/><use xlink:href="#aH" x="221.822" y="61.174"/><use xlink:href="#aS" x="227.68" y="61.174"/><use xlink:href="#aR" x="232.163" y="61.174"/><use xlink:href="#aT" x="237.244" y="61.174"/><use xlink:href="#aU" x="246.342" y="61.174"/><use xlink:href="#aH" x="255.595" y="61.174"/><use xlink:href="#aV" x="261.453" y="61.174"/><use xlink:href="#aW" x="264.537" y="61.174"/><use xlink:href="#aX" x="274.044" y="51.089" fill="red"/><use xlink:href="#aY" x="274.044" y="61.174"/><use xlink:href="#aZ" x="280.045" y="61.174"/><use xlink:href="#aS" x="286.047" y="61.174"/><use xlink:href="#aR" x="290.53" y="61.174"/><use xlink:href="#aT" x="295.611" y="61.174"/><use xlink:href="#aM" x="300.811" y="61.174"/><use xlink:href="#aY" x="114.239" y="82.818"/><use xlink:href="#aH" x="120.24" y="82.818"/><use xlink:href="#aI" x="129.996" y="82.818"/><use xlink:href="#aJ" x="137.48" y="82.818"/><use xlink:href="#aK" x="140.229" y="82.818"/><use xlink:href="#aL" x="145.43" y="82.818"/><use xlink:href="#aJ" x="151.431" y="82.818"/><use xlink:href="#aK" x="154.181" y="82.818"/><use xlink:href="#aM" x="159.381" y="82.818"/><g fill="red"><use xlink:href="#ba" x="166.531" y="72.733"/><use xlink:href="#bb" x="172.748" y="72.733"/></g><use xlink:href="#aH" x="166.531" y="82.818"/><use xlink:href="#aU" x="176.286" y="82.818"/><use xlink:href="#bc" x="185.539" y="82.818"/><use xlink:href="#aV" x="191.397" y="82.818"/><use xlink:href="#aX" x="198.379" y="72.733" fill="red"/><use xlink:href="#bd" x="198.379" y="82.818"/><use xlink:href="#aH" x="206.15" y="82.818"/><use xlink:href="#be" x="212.008" y="82.818"/><use xlink:href="#aK" x="217.089" y="82.818"/><use xlink:href="#bf" x="222.289" y="82.818"/><use xlink:href="#aC" x="97.729" y="110.439"/><use xlink:href="#aF" x="114.239" y="100.354" fill="red"/><use xlink:href="#bg" x="114.239" y="110.439"/><use xlink:href="#aH" x="121.245" y="110.439"/><use xlink:href="#aL" x="127.103" y="110.439"/><use xlink:href="#aJ" x="133.104" y="110.439"/><use xlink:href="#aK" x="135.854" y="110.439"/><use xlink:href="#aZ" x="144.951" y="110.439"/><use xlink:href="#bh" x="150.953" y="110.439"/><use xlink:href="#aO" x="154.527" y="110.439"/><use xlink:href="#aU" x="160.134" y="110.439"/><use xlink:href="#aM" x="169.387" y="110.439"/><use xlink:href="#aH" x="176.537" y="110.439"/><use xlink:href="#aX" x="186.293" y="100.354" fill="red"/><use xlink:href="#aN" x="186.293" y="110.439"/><use xlink:href="#aO" x="193.418" y="110.439"/><use xlink:href="#aP" x="199.025" y="110.439"/><use xlink:href="#aJ" x="205.026" y="110.439"/><use xlink:href="#aK" x="207.776" y="110.439"/><use xlink:href="#aM" x="212.977" y="110.439"/><use xlink:href="#aP" x="114.239" y="132.083"/><use xlink:href="#aJ" x="120.24" y="132.083"/><use xlink:href="#aK" x="122.99" y="132.083"/><use xlink:href="#bi" x="128.19" y="132.083"/><use xlink:href="#bj" x="133.391" y="132.083"/><use xlink:href="#aP" x="143.29" y="132.083"/><use xlink:href="#aJ" x="149.291" y="132.083"/><use xlink:href="#aK" x="152.041" y="132.083"/><use xlink:href="#bk" x="161.138" y="132.083"/><use xlink:href="#bl" x="165.371" y="132.083"/><use xlink:href="#bm" x="169.352" y="132.083"/><use xlink:href="#aZ" x="174.707" y="132.083"/><use xlink:href="#aU" x="180.709" y="132.083"/><use xlink:href="#bh" x="189.962" y="132.083"/><use xlink:href="#aZ" x="193.537" y="132.083"/><use xlink:href="#aV" x="199.538" y="132.083"/><use xlink:href="#aW" x="202.622" y="132.083"/><use xlink:href="#aP" x="212.127" y="132.083"/><use xlink:href="#aO" x="218.128" y="132.083"/><use xlink:href="#aY" x="223.735" y="132.083"/><use xlink:href="#aK" x="229.736" y="132.083"/><use xlink:href="#aU" x="238.834" y="132.083"/><use xlink:href="#aP" x="248.087" y="132.083"/><use xlink:href="#aW" x="254.089" y="132.083"/><use xlink:href="#ba" x="263.595" y="121.998" fill="red"/><use xlink:href="#aU" x="263.595" y="132.083"/><use xlink:href="#aH" x="272.848" y="132.083"/><use xlink:href="#bb" x="278.706" y="121.998" fill="red"/><use xlink:href="#aJ" x="278.706" y="132.083"/><use xlink:href="#aQ" x="285.353" y="132.083"/><use xlink:href="#bl" x="293.315" y="132.083"/><use xlink:href="#aH" x="297.296" y="132.083"/><use xlink:href="#aX" x="303.154" y="121.998" fill="red"/><use xlink:href="#bn" x="303.154" y="132.083"/><use xlink:href="#aH" x="309.012" y="132.083"/><use xlink:href="#aQ" x="314.547" y="132.083"/><use xlink:href="#aJ" x="322.509" y="132.083"/><use xlink:href="#aK" x="325.259" y="132.083"/><use xlink:href="#bf" x="330.459" y="132.083"/><use xlink:href="#aF" x="114.239" y="143.641" fill="red"/><use xlink:href="#aN" x="114.239" y="153.727"/><use xlink:href="#aH" x="121.364" y="153.727"/><use xlink:href="#bo" x="127.222" y="153.727"/><use xlink:href="#aO" x="132.901" y="153.727"/><use xlink:href="#be" x="138.508" y="153.727"/><use xlink:href="#aU" x="147.486" y="153.727"/><use xlink:href="#aJ" x="156.739" y="153.727"/><use xlink:href="#aM" x="159.489" y="153.727"/><use xlink:href="#aN" x="166.638" y="153.727"/><use xlink:href="#aO" x="173.763" y="153.727"/><use xlink:href="#aP" x="179.37" y="153.727"/><use xlink:href="#aJ" x="185.371" y="153.727"/><use xlink:href="#aK" x="188.121" y="153.727"/><use xlink:href="#aM" x="193.321" y="153.727"/><use xlink:href="#bg" x="200.47" y="153.727"/><use xlink:href="#aQ" x="207.476" y="153.727"/><use xlink:href="#aH" x="215.115" y="153.727"/><use xlink:href="#aV" x="220.973" y="153.727"/><use xlink:href="#aW" x="224.058" y="153.727"/><use xlink:href="#aX" x="233.563" y="143.641" fill="red"/><use xlink:href="#aY" x="233.563" y="153.727"/><use xlink:href="#bl" x="239.564" y="153.727"/><use xlink:href="#aH" x="243.545" y="153.727"/><use xlink:href="#bn" x="249.403" y="153.727"/><use xlink:href="#aT" x="255.261" y="153.727"/><use xlink:href="#aM" x="260.462" y="153.727"/><use xlink:href="#aP" x="114.239" y="175.37"/><use xlink:href="#aO" x="120.24" y="175.37"/><use xlink:href="#aZ" x="125.847" y="175.37"/><use xlink:href="#bi" x="131.849" y="175.37"/><use xlink:href="#aR" x="137.049" y="175.37"/><use xlink:href="#aU" x="146.027" y="175.37"/><use xlink:href="#aP" x="155.281" y="175.37"/><use xlink:href="#aJ" x="161.282" y="175.37"/><use xlink:href="#aK" x="164.032" y="175.37"/><use xlink:href="#aM" x="169.232" y="175.37"/><use xlink:href="#aN" x="176.381" y="175.37"/><use xlink:href="#aO" x="183.506" y="175.37"/><use xlink:href="#aP" x="189.113" y="175.37"/><use xlink:href="#aJ" x="195.115" y="175.37"/><use xlink:href="#aK" x="197.864" y="175.37"/><use xlink:href="#aM" x="203.065" y="175.37"/><use xlink:href="#ba" x="210.215" y="165.285" fill="red"/><use xlink:href="#bg" x="210.215" y="175.37"/><use xlink:href="#aQ" x="217.221" y="175.37"/><use xlink:href="#aH" x="224.86" y="175.37"/><use xlink:href="#bb" x="230.718" y="165.285" fill="red"/><use xlink:href="#aV" x="230.718" y="175.37"/><use xlink:href="#aK" x="233.802" y="175.37"/><use xlink:href="#aV" x="239.003" y="175.37"/><use xlink:href="#aX" x="245.985" y="165.285" fill="red"/><use xlink:href="#bp" x="245.985" y="175.37"/><use xlink:href="#bi" x="250.468" y="175.37"/><use xlink:href="#aJ" x="255.669" y="175.37"/><use xlink:href="#aK" x="258.418" y="175.37"/><use xlink:href="#be" x="263.619" y="175.37"/><use xlink:href="#bo" x="268.7" y="175.37"/><use xlink:href="#aJ" x="274.378" y="175.37"/><use xlink:href="#bf" x="277.128" y="175.37"/><use xlink:href="#aE" x="94.369" y="202.991"/><use xlink:href="#aF" x="114.239" y="192.906" fill="red"/><use xlink:href="#aG" x="114.239" y="202.991"/><use xlink:href="#aH" x="122.655" y="202.991"/><use xlink:href="#aI" x="132.411" y="202.991"/><use xlink:href="#aJ" x="139.894" y="202.991"/><use xlink:href="#aK" x="142.644" y="202.991"/><use xlink:href="#aL" x="147.845" y="202.991"/><use xlink:href="#aJ" x="153.846" y="202.991"/><use xlink:href="#aK" x="156.596" y="202.991"/><use xlink:href="#aM" x="161.796" y="202.991"/><use xlink:href="#aN" x="168.945" y="202.991"/><use xlink:href="#aO" x="176.07" y="202.991"/><use xlink:href="#aP" x="181.677" y="202.991"/><use xlink:href="#aJ" x="187.679" y="202.991"/><use xlink:href="#aK" x="190.428" y="202.991"/><use xlink:href="#aM" x="195.629" y="202.991"/><use xlink:href="#aQ" x="202.778" y="202.991"/><use xlink:href="#aR" x="210.74" y="202.991"/><use xlink:href="#aP" x="215.821" y="202.991"/><use xlink:href="#aH" x="221.822" y="202.991"/><use xlink:href="#aS" x="227.68" y="202.991"/><use xlink:href="#aR" x="232.163" y="202.991"/><use xlink:href="#aT" x="237.244" y="202.991"/><use xlink:href="#aU" x="246.342" y="202.991"/><use xlink:href="#aH" x="255.595" y="202.991"/><use xlink:href="#aV" x="261.453" y="202.991"/><use xlink:href="#aW" x="264.537" y="202.991"/><use xlink:href="#aX" x="274.044" y="192.906" fill="red"/><use xlink:href="#aY" x="274.044" y="202.991"/><use xlink:href="#aZ" x="280.045" y="202.991"/><use xlink:href="#aS" x="286.047" y="202.991"/><use xlink:href="#aR" x="290.53" y="202.991"/><use xlink:href="#aT" x="295.611" y="202.991"/><use xlink:href="#aM" x="300.811" y="202.991"/><use xlink:href="#aY" x="114.239" y="224.635"/><use xlink:href="#aH" x="120.24" y="224.635"/><use xlink:href="#aI" x="129.996" y="224.635"/><use xlink:href="#aJ" x="137.48" y="224.635"/><use xlink:href="#aK" x="140.229" y="224.635"/><use xlink:href="#aL" x="145.43" y="224.635"/><use xlink:href="#aJ" x="151.431" y="224.635"/><use xlink:href="#aK" x="154.181" y="224.635"/><use xlink:href="#aM" x="159.381" y="224.635"/><g fill="red"><use xlink:href="#ba" x="166.531" y="214.55"/><use xlink:href="#bb" x="172.748" y="214.55"/></g><use xlink:href="#aH" x="166.531" y="224.635"/><use xlink:href="#aU" x="176.286" y="224.635"/><use xlink:href="#bc" x="185.539" y="224.635"/><use xlink:href="#aV" x="191.397" y="224.635"/><use xlink:href="#aX" x="198.379" y="214.55" fill="red"/><use xlink:href="#bd" x="198.379" y="224.635"/><use xlink:href="#aH" x="206.15" y="224.635"/><use xlink:href="#be" x="212.008" y="224.635"/><use xlink:href="#aK" x="217.089" y="224.635"/><use xlink:href="#bf" x="222.289" y="224.635"/><use xlink:href="#aC" x="97.729" y="252.256"/><use xlink:href="#aF" x="114.239" y="242.171" fill="red"/><use xlink:href="#bq" x="114.239" y="252.256"/><use xlink:href="#aS" x="124.903" y="252.256"/><use xlink:href="#br" x="129.386" y="252.256"/><use xlink:href="#aH" x="135.71" y="252.256"/><use xlink:href="#aU" x="141.568" y="252.256"/><use xlink:href="#aP" x="150.821" y="252.256"/><use xlink:href="#aJ" x="156.823" y="252.256"/><use xlink:href="#aV" x="159.572" y="252.256"/><use xlink:href="#aM" x="162.657" y="252.256"/><use xlink:href="#aN" x="169.806" y="252.256"/><use xlink:href="#aO" x="176.931" y="252.256"/><use xlink:href="#aP" x="182.538" y="252.256"/><use xlink:href="#aJ" x="188.539" y="252.256"/><use xlink:href="#aK" x="191.289" y="252.256"/><use xlink:href="#aM" x="196.489" y="252.256"/><use xlink:href="#aP" x="203.639" y="252.256"/><use xlink:href="#aO" x="209.64" y="252.256"/><use xlink:href="#bg" x="219.144" y="252.256"/><use xlink:href="#aQ" x="226.15" y="252.256"/><use xlink:href="#aH" x="233.789" y="252.256"/><use xlink:href="#aV" x="239.647" y="252.256"/><use xlink:href="#aW" x="242.731" y="252.256"/><use xlink:href="#aX" x="252.237" y="242.171" fill="red"/><use xlink:href="#aU" x="252.237" y="252.256"/><use xlink:href="#aJ" x="261.49" y="252.256"/><use xlink:href="#bs" x="264.24" y="252.256"/><use xlink:href="#aH" x="267.671" y="252.256"/><use xlink:href="#bp" x="273.529" y="252.256"/><use xlink:href="#bt" x="278.012" y="252.256"/><use xlink:href="#aM" x="283.212" y="252.256"/><use xlink:href="#aP" x="114.239" y="273.9"/><use xlink:href="#aO" x="120.24" y="273.9"/><use xlink:href="#bg" x="129.745" y="273.9"/><use xlink:href="#aQ" x="136.75" y="273.9"/><use xlink:href="#aH" x="144.39" y="273.9"/><use xlink:href="#aV" x="150.247" y="273.9"/><use xlink:href="#aK" x="153.332" y="273.9"/><use xlink:href="#aQ" x="162.43" y="273.9"/><use xlink:href="#aS" x="170.392" y="273.9"/><use xlink:href="#br" x="174.875" y="273.9"/><use xlink:href="#bc" x="181.199" y="273.9"/><use xlink:href="#bs" x="187.057" y="273.9"/><use xlink:href="#bi" x="190.488" y="273.9"/><use xlink:href="#aR" x="195.688" y="273.9"/><use xlink:href="#aZ" x="200.769" y="273.9"/><use xlink:href="#bi" x="206.771" y="273.9"/><use xlink:href="#aJ" x="211.971" y="273.9"/><use xlink:href="#aK" x="214.721" y="273.9"/><use xlink:href="#aM" x="219.921" y="273.9"/><use xlink:href="#ba" x="227.072" y="263.815" fill="red"/><use xlink:href="#bo" x="227.072" y="273.9"/><use xlink:href="#bk" x="232.751" y="273.9"/><use xlink:href="#bc" x="236.983" y="273.9"/><use xlink:href="#bb" x="242.841" y="263.815" fill="red"/><use xlink:href="#bl" x="242.841" y="273.9"/><use xlink:href="#aK" x="246.822" y="273.9"/><use xlink:href="#aV" x="255.92" y="273.9"/><use xlink:href="#aK" x="259.004" y="273.9"/><use xlink:href="#aS" x="264.205" y="273.9"/><use xlink:href="#bk" x="268.688" y="273.9"/><use xlink:href="#aX" x="276.817" y="263.815" fill="red"/><use xlink:href="#aQ" x="276.817" y="273.9"/><use xlink:href="#aJ" x="284.779" y="273.9"/><use xlink:href="#aK" x="287.529" y="273.9"/><use xlink:href="#bi" x="292.729" y="273.9"/><use xlink:href="#aR" x="297.93" y="273.9"/><use xlink:href="#aP" x="303.01" y="273.9"/><use xlink:href="#aK" x="309.012" y="273.9"/><use xlink:href="#bf" x="314.212" y="273.9"/><use xlink:href="#aF" x="114.239" y="285.458" fill="red"/><use xlink:href="#bu" x="114.239" y="295.544"/><use xlink:href="#aH" x="124.401" y="295.544"/><use xlink:href="#aJ" x="130.259" y="295.544"/><use xlink:href="#bi" x="133.008" y="295.544"/><use xlink:href="#bj" x="138.209" y="295.544"/><use xlink:href="#bn" x="148.108" y="295.544"/><use xlink:href="#bl" x="153.965" y="295.544"/><use xlink:href="#aR" x="157.946" y="295.544"/><use xlink:href="#aK" x="163.027" y="295.544"/><use xlink:href="#bi" x="168.228" y="295.544"/><use xlink:href="#bj" x="173.428" y="295.544"/><use xlink:href="#bc" x="179.43" y="295.544"/><use xlink:href="#aQ" x="184.965" y="295.544"/><use xlink:href="#aM" x="192.927" y="295.544"/><use xlink:href="#aN" x="200.076" y="295.544"/><use xlink:href="#aO" x="207.201" y="295.544"/><use xlink:href="#aP" x="212.808" y="295.544"/><use xlink:href="#aJ" x="218.809" y="295.544"/><use xlink:href="#aK" x="221.559" y="295.544"/><use xlink:href="#aM" x="226.759" y="295.544"/><use xlink:href="#aP" x="233.909" y="295.544"/><use xlink:href="#aJ" x="239.91" y="295.544"/><use xlink:href="#aK" x="242.66" y="295.544"/><use xlink:href="#aQ" x="251.757" y="295.544"/><use xlink:href="#aS" x="259.719" y="295.544"/><use xlink:href="#br" x="264.203" y="295.544"/><use xlink:href="#aH" x="270.527" y="295.544"/><use xlink:href="#aX" x="276.387" y="285.458" fill="red"/><use xlink:href="#aU" x="276.387" y="295.544"/><use xlink:href="#aJ" x="285.64" y="295.544"/><use xlink:href="#aP" x="288.39" y="295.544"/><use xlink:href="#aO" x="294.391" y="295.544"/><use xlink:href="#aV" x="299.998" y="295.544"/><use xlink:href="#aM" x="303.083" y="295.544"/><use xlink:href="#br" x="114.239" y="317.187"/><use xlink:href="#aO" x="120.24" y="317.187"/><use xlink:href="#aU" x="125.847" y="317.187"/><use xlink:href="#aJ" x="135.1" y="317.187"/><use xlink:href="#aT" x="137.85" y="317.187"/><use xlink:href="#bk" x="143.051" y="317.187"/><use xlink:href="#aO" x="147.283" y="317.187"/><use xlink:href="#aV" x="152.89" y="317.187"/><use xlink:href="#aM" x="155.974" y="317.187"/><use xlink:href="#aN" x="163.123" y="317.187"/><use xlink:href="#aO" x="170.248" y="317.187"/><use xlink:href="#aP" x="175.855" y="317.187"/><use xlink:href="#aJ" x="181.856" y="317.187"/><use xlink:href="#aK" x="184.606" y="317.187"/><use xlink:href="#aM" x="189.807" y="317.187"/><use xlink:href="#ba" x="196.957" y="307.102" fill="red"/><use xlink:href="#be" x="196.957" y="317.187"/><use xlink:href="#aK" x="202.038" y="317.187"/><use xlink:href="#bp" x="207.238" y="317.187"/><use xlink:href="#bb" x="215.619" y="307.102" fill="red"/><use xlink:href="#aV" x="215.619" y="317.187"/><use xlink:href="#aK" x="218.703" y="317.187"/><use xlink:href="#aS" x="223.904" y="317.187"/><use xlink:href="#bk" x="228.387" y="317.187"/><use xlink:href="#bu" x="236.516" y="317.187"/><use xlink:href="#aJ" x="246.678" y="317.187"/><use xlink:href="#bs" x="249.428" y="317.187"/><use xlink:href="#aH" x="252.859" y="317.187"/><use xlink:href="#aX" x="258.717" y="307.102" fill="red"/><use xlink:href="#aS" x="258.717" y="317.187"/><use xlink:href="#aJ" x="263.2" y="317.187"/><use xlink:href="#aK" x="265.95" y="317.187"/><use xlink:href="#bl" x="271.15" y="317.187"/><use xlink:href="#aY" x="275.131" y="317.187"/><use xlink:href="#aR" x="281.133" y="317.187"/><use xlink:href="#aJ" x="286.214" y="317.187"/><use xlink:href="#aK" x="288.963" y="317.187"/><use xlink:href="#aU" x="294.164" y="317.187"/><use xlink:href="#bf" x="303.417" y="317.187"/><use xlink:href="#bb" x="114.239" y="328.746" fill="red"/><use xlink:href="#aN" x="114.239" y="338.831"/><use xlink:href="#aH" x="121.364" y="338.831"/><use xlink:href="#aY" x="127.545" y="338.831"/><use xlink:href="#aO" x="133.546" y="338.831"/><use xlink:href="#bl" x="138.83" y="338.831"/><use xlink:href="#aZ" x="142.811" y="338.831"/><use xlink:href="#aV" x="148.813" y="338.831"/><use xlink:href="#aU" x="155.795" y="338.831"/><use xlink:href="#aJ" x="165.048" y="338.831"/><use xlink:href="#aM" x="167.797" y="338.831"/><use xlink:href="#aN" x="174.947" y="338.831"/><use xlink:href="#aO" x="182.072" y="338.831"/><use xlink:href="#aP" x="187.679" y="338.831"/><use xlink:href="#aJ" x="193.68" y="338.831"/><use xlink:href="#aK" x="196.43" y="338.831"/><use xlink:href="#aM" x="201.63" y="338.831"/><use xlink:href="#bg" x="208.779" y="338.831"/><use xlink:href="#aQ" x="215.785" y="338.831"/><use xlink:href="#aH" x="223.424" y="338.831"/><use xlink:href="#aV" x="229.282" y="338.831"/><use xlink:href="#aK" x="232.366" y="338.831"/><use xlink:href="#aU" x="241.464" y="338.831"/><use xlink:href="#aJ" x="250.717" y="338.831"/><use xlink:href="#bs" x="253.467" y="338.831"/><use xlink:href="#aH" x="256.898" y="338.831"/><use xlink:href="#aX" x="262.758" y="328.746" fill="red"/><use xlink:href="#aS" x="262.758" y="338.831"/><use xlink:href="#aJ" x="267.241" y="338.831"/><use xlink:href="#aK" x="269.991" y="338.831"/><use xlink:href="#bl" x="275.191" y="338.831"/><use xlink:href="#aY" x="279.172" y="338.831"/><use xlink:href="#aR" x="285.174" y="338.831"/><use xlink:href="#aJ" x="290.255" y="338.831"/><use xlink:href="#aK" x="293.004" y="338.831"/><use xlink:href="#aM" x="298.205" y="338.831"/><use xlink:href="#aR" x="114.239" y="360.474"/><use xlink:href="#bb" x="119.32" y="350.389" fill="red"/><use xlink:href="#aO" x="119.32" y="360.474"/><use xlink:href="#aP" x="124.927" y="360.474"/><use xlink:href="#aZ" x="130.928" y="360.474"/><use xlink:href="#bl" x="136.93" y="360.474"/><use xlink:href="#aR" x="140.911" y="360.474"/><use xlink:href="#aU" x="149.889" y="360.474"/><use xlink:href="#aP" x="159.142" y="360.474"/><use xlink:href="#aJ" x="165.144" y="360.474"/><use xlink:href="#aK" x="167.893" y="360.474"/><use xlink:href="#aQ" x="176.991" y="360.474"/><use xlink:href="#bg" x="188.85" y="360.474"/><use xlink:href="#aQ" x="195.856" y="360.474"/><use xlink:href="#aH" x="203.495" y="360.474"/><use xlink:href="#aJ" x="209.353" y="360.474"/><use xlink:href="#aU" x="212.103" y="360.474"/><use xlink:href="#aU" x="225.253" y="360.474"/><use xlink:href="#aJ" x="234.506" y="360.474"/><use xlink:href="#bs" x="237.256" y="360.474"/><use xlink:href="#aH" x="240.687" y="360.474"/><use xlink:href="#aX" x="246.547" y="350.389" fill="red"/><use xlink:href="#aS" x="246.547" y="360.474"/><use xlink:href="#aJ" x="251.03" y="360.474"/><use xlink:href="#aK" x="253.78" y="360.474"/><use xlink:href="#bl" x="258.98" y="360.474"/><use xlink:href="#aY" x="262.961" y="360.474"/><use xlink:href="#aR" x="268.963" y="360.474"/><use xlink:href="#aJ" x="274.043" y="360.474"/><use xlink:href="#aZ" x="276.793" y="360.474"/><use xlink:href="#bf" x="282.795" y="360.474"/><use xlink:href="#aE" x="94.369" y="388.096"/><use xlink:href="#aF" x="114.239" y="378.01" fill="red"/><use xlink:href="#aG" x="114.239" y="388.096"/><use xlink:href="#aH" x="122.655" y="388.096"/><use xlink:href="#aI" x="132.411" y="388.096"/><use xlink:href="#aJ" x="139.894" y="388.096"/><use xlink:href="#aK" x="142.644" y="388.096"/><use xlink:href="#aL" x="147.845" y="388.096"/><use xlink:href="#aJ" x="153.846" y="388.096"/><use xlink:href="#aK" x="156.596" y="388.096"/><use xlink:href="#aM" x="161.796" y="388.096"/><use xlink:href="#aN" x="168.945" y="388.096"/><use xlink:href="#aO" x="176.07" y="388.096"/><use xlink:href="#aP" x="181.677" y="388.096"/><use xlink:href="#aJ" x="187.679" y="388.096"/><use xlink:href="#aK" x="190.428" y="388.096"/><use xlink:href="#aM" x="195.629" y="388.096"/><use xlink:href="#aQ" x="202.778" y="388.096"/><use xlink:href="#aR" x="210.74" y="388.096"/><use xlink:href="#aP" x="215.821" y="388.096"/><use xlink:href="#aH" x="221.822" y="388.096"/><use xlink:href="#aS" x="227.68" y="388.096"/><use xlink:href="#aR" x="232.163" y="388.096"/><use xlink:href="#aT" x="237.244" y="388.096"/><use xlink:href="#aU" x="246.342" y="388.096"/><use xlink:href="#aH" x="255.595" y="388.096"/><use xlink:href="#aV" x="261.453" y="388.096"/><use xlink:href="#aW" x="264.537" y="388.096"/><use xlink:href="#aX" x="274.044" y="378.01" fill="red"/><use xlink:href="#aY" x="274.044" y="388.096"/><use xlink:href="#aZ" x="280.045" y="388.096"/><use xlink:href="#aS" x="286.047" y="388.096"/><use xlink:href="#aR" x="290.53" y="388.096"/><use xlink:href="#aT" x="295.611" y="388.096"/><use xlink:href="#aM" x="300.811" y="388.096"/><use xlink:href="#aY" x="114.239" y="409.739"/><use xlink:href="#aH" x="120.24" y="409.739"/><use xlink:href="#aI" x="129.996" y="409.739"/><use xlink:href="#aJ" x="137.48" y="409.739"/><use xlink:href="#aK" x="140.229" y="409.739"/><use xlink:href="#aL" x="145.43" y="409.739"/><use xlink:href="#aJ" x="151.431" y="409.739"/><use xlink:href="#aK" x="154.181" y="409.739"/><use xlink:href="#aM" x="159.381" y="409.739"/><g fill="red"><use xlink:href="#ba" x="166.531" y="399.654"/><use xlink:href="#bb" x="172.748" y="399.654"/></g><use xlink:href="#aH" x="166.531" y="409.739"/><use xlink:href="#aU" x="176.286" y="409.739"/><use xlink:href="#bc" x="185.539" y="409.739"/><use xlink:href="#aV" x="191.397" y="409.739"/><use xlink:href="#aX" x="198.379" y="399.654" fill="red"/><use xlink:href="#bd" x="198.379" y="409.739"/><use xlink:href="#aH" x="206.15" y="409.739"/><use xlink:href="#be" x="212.008" y="409.739"/><use xlink:href="#aK" x="217.089" y="409.739"/><use xlink:href="#bf" x="222.289" y="409.739"/><use xlink:href="#bv" x="31.952" y="421.585"/><g clip-path="url(#bw)"><path fill="url(#bx)" d="M15.023 579.684v-11.336h388.063v11.336Zm0 0"/></g><use xlink:href="#by" x="387.641" y="577.985"/><use xlink:href="#bz" x="394.372" y="577.985"/><path fill="#f2f2f2" stroke="#000" stroke-miterlimit="10" stroke-width=".797" d="M196.602 576.055v-3.989a2.99 2.99 0 0 1 2.988-2.988h18.93a2.99 2.99 0 0 1 2.988 2.988v3.989a2.99 2.99 0 0 1-2.988 2.988h-18.93a2.99 2.99 0 0 1-2.988-2.988Zm0 0"/><use xlink:href="#bA" x="198.439" y="576.948"/><use xlink:href="#bB" x="203.747" y="576.948"/><use xlink:href="#bB" x="209.055" y="576.948"/><use xlink:href="#bC" x="214.363" y="576.948"/><use xlink:href="#bD" x="17.008" y="577.985"/><use xlink:href="#bE" x="20.976" y="577.985"/><use xlink:href="#bF" x="27.629" y="577.985"/><use xlink:href="#bE" x="29.882" y="577.985"/><use xlink:href="#bG" x="33.85" y="577.985"/><use xlink:href="#bH" x="37.818" y="577.985"/><use xlink:href="#bI" x="41.787" y="577.985"/><use xlink:href="#bJ" x="46.724" y="577.985"/><use xlink:href="#bG" x="57.353" y="577.985"/><use xlink:href="#bK" x="61.321" y="577.985"/><use xlink:href="#bL" x="67.974" y="577.985"/><use xlink:href="#bG" x="73.539" y="577.985"/><use xlink:href="#bM" x="77.508" y="577.985"/><use xlink:href="#bG" x="81.476" y="577.985"/><use xlink:href="#bN" x="85.444" y="577.985"/><use xlink:href="#bJ" x="92.097" y="577.985"/><use xlink:href="#bO" x="102.725" y="577.985"/><use xlink:href="#bP" x="108.388" y="577.985"/><use xlink:href="#bQ" x="112.789" y="577.985"/><use xlink:href="#bR" x="118.263" y="577.985"/><use xlink:href="#bS" x="121.806" y="577.985"/><use xlink:href="#bT" x="125.991" y="577.985"/><use xlink:href="#bG" x="131.786" y="577.985"/><use xlink:href="#bM" x="135.754" y="577.985"/><use xlink:href="#bG" x="139.723" y="577.985"/><use xlink:href="#bU" x="143.691" y="577.985"/></svg>