<svg xmlns="http://www.w3.org/2000/svg" xmlns:xlink="http://www.w3.org/1999/xlink" width="559.371" height="793.701" viewBox="0 0 419.528 595.276"><defs><path id="d" d="M3.344 2.297v-.078L1.5-2.5l1.844-4.703v-.078c0-.11-.078-.203-.188-.203a.24.24 0 0 0-.203.14L1.11-2.562c-.015.015-.015.046-.015.062 0 .031 0 .063.015.078L2.953 2.36a.24.24 0 0 0 .203.141c.11 0 .188-.094.188-.203m0 0"/><path id="e" d="M4.281-1.062c0-.063-.047-.141-.11-.141-.062 0-.077.031-.14.11-.781.984-1.875.984-1.984.984-.781 0-.875-.844-.875-1.157 0-.125.016-.421.156-1.03h.531c.297 0 1.032-.032 1.532-.235.703-.297.75-.89.75-1.031 0-.438-.375-.844-1.063-.844-1.11 0-2.625.968-2.625 2.718C.453-.671 1.047.11 2.031.11c1.422 0 2.25-1.062 2.25-1.171m-.468-2.5c0 1.046-1.594 1.046-2.016 1.046H1.39c.39-1.515 1.422-1.671 1.687-1.671.453 0 .735.296.735.625m0 0"/><path id="f" d="M2.781-2.5c0-.016 0-.047-.015-.062L.922-7.344c-.031-.078-.11-.14-.188-.14a.207.207 0 0 0-.203.203v.078L2.375-2.5.531 2.219v.078c0 .11.094.203.203.203.079 0 .157-.062.188-.14l1.844-4.782c.015-.015.015-.047.015-.078m0 0"/><path id="g" d="M6.047-.156c0-.094-.11-.11-.14-.11-.25 0-.376-.03-.5-.312L4.218-3.297 5.766-4.5c.218-.172.812-.625 1.312-.672.063-.016.156-.031.156-.156 0-.047-.03-.11-.109-.11 0 0-.234.016-.281.016h-.328c-.266 0-.563-.016-.813-.016-.047 0-.172 0-.172.141 0 .11.14.125.14.125.11 0 .173.047.173.11 0 .125-.14.25-.172.28l-.047.048c-.016.015-.031.015-.094.078L2.563-2.344l.609-2.5c.078-.265.125-.328.61-.328.171 0 .265 0 .265-.156 0-.047-.031-.11-.125-.11-.14 0-.313.016-.453.016h-.953l-.453-.016c-.047 0-.172 0-.172.141 0 .125.093.125.234.125.219 0 .438 0 .438.11 0 .046 0 .062-.032.171L1.47-.609c-.078.28-.125.343-.61.343-.171 0-.265 0-.265.157C.594-.047.64 0 .719 0c.031 0 .39-.016.453-.031h.484c.672 0 .89.031.938.031s.156 0 .156-.156c0-.11-.094-.11-.234-.11-.25 0-.438 0-.438-.125 0-.046.047-.218.078-.328l.297-1.203 1.25-.969.985 2.25c.046.094.046.11.046.141 0 .203-.187.234-.343.234-.094 0-.188.016-.188.157 0 .062.047.109.11.109.28 0 .578-.031.843-.031.672 0 .64.031.735.031.03 0 .156 0 .156-.156m0 0"/><path id="h" d="M2.828-1.14c0-.11-.11-.11-.156-.11-.125 0-.125.031-.172.172-.14.516-.406.937-.734.937-.157 0-.188-.109-.188-.25 0-.187.063-.328.188-.656l.515-1.39c.063-.172.094-.25.094-.422 0-.438-.312-.657-.656-.657-.75 0-1.078 1.11-1.078 1.22 0 .108.093.108.14.108.14 0 .14-.03.172-.171.125-.407.375-.938.75-.938.14 0 .172.11.172.25 0 .188-.047.344-.156.61L1.156-.953a1.1 1.1 0 0 0-.078.375c0 .36.266.656.672.656.75 0 1.078-1.125 1.078-1.219m.125-3.704a.354.354 0 0 0-.36-.375.55.55 0 0 0-.53.532c0 .234.171.359.359.359.265 0 .531-.234.531-.516m0 0"/><path id="i" d="M4.14-1.14c0-.11-.109-.11-.14-.11-.14 0-.156.047-.187.172-.11.453-.266.937-.61.937-.14 0-.25-.078-.25-.375 0-.125.031-.265.063-.39.03-.125.03-.172.03-.25 0-.563-.546-.75-1.108-.86.296-.187.625-.53.671-.593.454-.5.766-.688 1.063-.688.11 0 .172.063.203.11-.156.03-.344.171-.344.39s.188.266.281.266c.204 0 .407-.14.407-.453 0-.266-.157-.532-.547-.532s-.75.266-1.188.735c-.484.515-.656.594-.796.672l.796-3.188c0-.031.016-.094.016-.125 0-.11-.125-.11-.219-.094l-.828.063c-.11.016-.187.016-.187.156 0 .125.093.125.203.125.375 0 .375.047.375.11a.7.7 0 0 1-.032.171L.657-.266c0 .032-.015.079-.015.11 0 .11.078.234.25.234.14 0 .265-.094.328-.297l.39-1.578c.313.031.891.172.891.656 0 .047 0 .079-.031.188a1 1 0 0 0-.031.25c0 .437.296.781.734.781.36 0 .562-.265.656-.406.188-.297.313-.766.313-.813m0 0"/><path id="j" d="M4.297-2.172c0-.828-.547-1.344-1.266-1.344C2-3.516.921-2.437.921-1.266c0 .875.595 1.344 1.267 1.344 1.062 0 2.109-1.094 2.109-2.25m-.594-.281c0 .265-.125 1.031-.437 1.578-.266.438-.688.734-1.078.734-.297 0-.672-.203-.672-.843 0-.36.172-1.11.422-1.547.343-.578.812-.766 1.078-.766.39 0 .687.297.687.844m0 0"/><path id="k" d="M8.75-4.094c0-.937-.156-2.093-.828-2.953-.89-1.11-2.328-1.25-3.11-1.25H1.656c-.422 0-.562.14-.562.578v7.14c0 .438.125.579.562.579h3.157C7.733 0 8.75-1.75 8.75-4.094m-1.719 0c0 1.36-.14 3.063-2.687 3.063H2.812v-6.235h1.532c2.578 0 2.687 1.844 2.687 3.172m0 0"/><path id="l" d="M6.188-2.687c0-1.97-.954-2.985-2.907-2.985-1.984 0-2.906 1.063-2.906 2.984C.375-.733 1.406.126 3.281.126s2.907-.86 2.907-2.812m-1.625-.141c0 .937 0 2.031-1.282 2.031C2-.797 2-1.875 2-2.828c0-.922 0-1.985 1.281-1.985s1.281 1.047 1.281 1.985m0 0"/><path id="m" d="M7.719-.687 7.625-1.72c0-.078-.078-.14-.14-.14-.032 0-.063.015-.094.03-.328.25-.672.485-1.063.626-.406.125-.812.14-1.219.14-.75 0-1.484-.203-1.968-.75-.532-.64-.657-1.5-.657-2.328 0-.843.125-1.703.657-2.343.484-.563 1.218-.766 1.968-.766.36 0 .72.047 1.079.188.343.125.64.328.906.578a.14.14 0 0 0 .11.046c.077 0 .14-.062.14-.125l.234-1.28a.19.19 0 0 0-.094-.173q-.585-.21-1.171-.328a6.3 6.3 0 0 0-1.204-.094c-1.203 0-2.437.25-3.28 1.079C.983-6.531.733-5.33.733-4.141c0 1.172.25 2.375 1.094 3.204C2.672-.11 3.906.125 5.11.125c.438 0 .891 0 1.329-.125.421-.125.812-.328 1.218-.547a.2.2 0 0 0 .063-.14m0 0"/><path id="n" d="M2.313-.578v-4.328c0-.375-.079-.563-.563-.563h-.453c-.422 0-.563.125-.563.563v4.328c0 .437.125.578.563.578h.453c.453 0 .563-.156.563-.578m.093-6.672v-.219c0-.39-.094-.578-.578-.578h-.61c-.452 0-.577.156-.577.578v.219c0 .36.062.578.578.578h.61c.5 0 .577-.219.577-.578m0 0"/><path id="o" d="M5.719-3.11c0-1.546-.703-2.562-2.485-2.562-1.921 0-2.859 1.063-2.859 2.89 0 1.954 1.125 2.907 3 2.907.469 0 1.14-.047 1.938-.453.25-.125.343-.156.343-.313 0-.078-.031-.421-.047-.515-.046-.375-.062-.39-.171-.39-.047 0-.079 0-.204.124a2.7 2.7 0 0 1-1.796.688c-1.36 0-1.5-1.063-1.532-1.828h3.25c.266 0 .563 0 .563-.547m-1.313-.078h-2.5c.047-.734.282-1.624 1.328-1.624.954 0 1.125.687 1.172 1.625m0 0"/><path id="p" d="M6.25-2.766c0-.562 0-2.843-2.25-2.843-.969 0-1.578.547-1.687.672V-7.72c0-.39-.079-.578-.563-.578h-.453c-.422 0-.563.14-.563.578v7.14C.734-.14.86 0 1.297 0h.484c.203 0 .563 0 .578-.469a1.74 1.74 0 0 0 1.344.594c2.547 0 2.547-2.281 2.547-2.89m-1.625.016c0 .89 0 2.016-1.344 2.016-.5 0-.797-.297-.922-.453v-3.141c.157-.14.516-.422 1.063-.422 1.203 0 1.203 1.11 1.203 2m0 0"/><path id="q" d="M8.594-5.14c-.031-.329-.25-.329-.625-.329-.563 0-.703.032-.875.657l-.969 3.468-1.016-3.593c-.062-.266-.156-.532-.703-.532-.172 0-.453 0-.61.266-.108.187-.64 2.25-1.062 3.656l-.953-3.39c-.125-.407-.25-.532-.734-.532h-.25c-.219 0-.469 0-.516.328L1.547-.547C1.703 0 2.016 0 2.313 0h.343c.563 0 .656-.172.781-.656.282-1 .704-2.5.766-3.125v-.016c.078.688.61 2.578.75 3.14.14.423.203.657.797.657h.813c.515 0 .64-.14.75-.547Zm0 0"/><path id="r" d="M4.39-6.469a.45.45 0 0 0-.64-.062l-.766.61V-7.72c0-.39-.078-.578-.562-.578h-.453c-.422 0-.563.14-.563.578v3.063l-1.078.843a.46.46 0 0 0-.062.626c.156.187.422.234.625.062l.515-.406v2.953c0 .437.125.578.563.578h.453c.453 0 .562-.156.562-.578v-4.219l1.329-1.062a.444.444 0 0 0 .078-.61m0 0"/><path id="s" d="M5.672-.578v-3.203c0-1.89-1.828-1.89-2.422-1.89-.562 0-1.156.046-1.953.374-.25.11-.313.14-.313.281 0 .079.063.766.079.875a.17.17 0 0 0 .156.125c.062 0 .093-.03.125-.078.515-.531 1.125-.797 1.86-.797.64 0 .843.391.843 1.094v.422c-.422 0-3.563.031-3.563 1.781C.484-.75 1.156.125 2.22.125c.406 0 1.297-.11 1.86-.937v.234c0 .39.077.578.577.578h.438c.453 0 .578-.156.578-.578M4.047-1.844c0 1.11-1.14 1.11-1.172 1.11-.516 0-.828-.422-.828-.875 0-1.172 1.656-1.266 2-1.266Zm0 0"/><path id="t" d="M9.64-.578v-3.313c0-1.218-.53-1.718-1.75-1.718-.843 0-1.5.39-1.937 1.187-.187-1.14-1.203-1.187-1.703-1.187-.234 0-.734 0-1.281.39-.36.282-.61.672-.688.844h-.015v-.594c0-.39-.079-.578-.563-.578h-.406c-.438 0-.578.125-.578.578v4.39c0 .438.125.579.578.579h.469c.453 0 .578-.156.578-.578v-2.64c0-1.079.734-1.532 1.312-1.532s.703.25.703.89v3.282c0 .437.141.578.579.578h.484c.453 0 .562-.156.562-.578v-2.64c0-1.079.735-1.532 1.313-1.532s.719.25.719.89v3.282c0 .437.125.578.562.578h.485c.453 0 .578-.156.578-.578m0 0"/><path id="u" d="M2.594 2.234c-.375-.5-1.25-1.64-.64-4.484.609-2.828 1.952-3.969 2.546-4.484h-.594c-1.25.89-2.265 2.422-2.703 4.484-.453 2.14-.031 3.625.813 4.484Zm0 0"/><path id="v" d="M6.313-4.406c.203-.953-.516-1.813-1.797-1.813H2.203L.875 0h.86l.546-2.562h1.453c1.266 0 2.36-.86 2.579-1.844m-.782 0c-.156.718-.843 1.297-1.89 1.297H2.375l.547-2.578h1.265c1.032 0 1.485.562 1.344 1.28m0 0"/><path id="w" d="M3.563-1.156a.97.97 0 0 0-.25-.89c-.25-.267-.5-.329-1.032-.423-.312-.062-.75-.156-.656-.578.11-.515.75-.515.89-.515.657 0 .985.203 1.22.343l.25-.625c-.5-.25-.907-.297-1.282-.297-.203 0-1.515 0-1.765 1.188a.9.9 0 0 0 .187.797c.281.297.5.344 1.078.469.281.046.781.14.672.609C2.75-.5 2.031-.5 1.906-.5c-.531 0-1-.187-1.328-.453l-.25.656c.469.281 1 .39 1.453.39.594 0 1.563-.187 1.782-1.25m0 0"/><path id="x" d="m3.922 0 .11-.562H2.89l1.172-5.5h-.188c-.734.578-1.594.578-1.906.578l-.11.562c.25 0 .704 0 1.25-.203L2.125-.562H.985L.858 0Zm0 0"/><path id="y" d="m4.656-1.5.125-.578h-.89l.797-3.781h-.86L.703-2.08.578-1.5H3L2.688 0h.75l.328-1.5Zm-1.468-.578h-1.75l.75-.906C2.547-3.437 3.797-5 3.906-5.454Zm0 0"/><path id="z" d="M3.328-2.25c.453-2.125.031-3.625-.812-4.484h-.578c.39.5 1.25 1.656.64 4.484C1.984.594.625 1.734.031 2.234h.594c1.234-.89 2.266-2.421 2.703-4.484m0 0"/><path id="A" d="m-3.578-5.797-1.813.156v5.172l1.813.172v-.25c-1.344-.11-1.547-.297-1.547-1.515 0-.157 0-.407.016-.47.03-.14.109-.155.312-.155h4.14c.282 0 .391 0 .391.828v.312H0c-.031-.297-.031-1.156-.031-1.5s0-1.203.031-1.5h-.266v.297c0 .828-.109.828-.39.828h-4.14c-.188 0-.282 0-.313-.156-.016-.078-.016-.313-.016-.469 0-1.219.203-1.39 1.547-1.5Zm0 0"/><path id="B" d="M0-2.078h-.266c0 .531-.03.562-.343.562h-2.907l.094 1.157h.266c0-.516.047-.578.437-.578h2.094c.36 0 .36.093.36.609H0c-.031-.313-.031-.766-.031-.89 0-.095 0-.579.031-.86m-4.797.453a.453.453 0 0 0-.453.453.45.45 0 0 0 .453.438.437.437 0 0 0 .438-.438.45.45 0 0 0-.438-.453m0 0"/><path id="C" d="M-1.031-3.047c-.375 0-.938.219-1.11 1.172-.015.063-.093.516-.093.547-.063.25-.235.625-.547.625-.235 0-.578-.188-.578-.938 0-.89.656-.937.875-.953.062 0 .093-.062.093-.11 0-.14-.062-.14-.203-.14h-.75c-.125 0-.203 0-.203.11 0 .046 0 .062.125.187 0 .016.078.094.078.11 0 0 0 .03-.031.078-.094.125-.172.359-.172.718 0 1.11.594 1.36.985 1.36.39 0 .624-.297.656-.313.234-.328.265-.5.36-1.047.077-.375.187-.984.718-.984.312 0 .687.203.687.938 0 .812-.625 1.046-1.046 1.14-.11.031-.141.047-.141.14 0 .126.062.126.219.126h.984c.125 0 .203 0 .203-.094 0-.062 0-.062-.156-.203-.047-.047-.14-.125-.188-.172.329-.36.344-.734.344-.937 0-1.016-.578-1.36-1.11-1.36m0 0"/><path id="D" d="M-1-2.812h-.437v.25h.421c.547 0 .844.25.844.546 0 .532-.687.532-.812.532h-2.188v-1.188h-.265v1.188h-1.47v.25c.735 0 1.485.328 1.516 1.078h.22v-.719H-1c.938 0 1.078-.719 1.078-1.078 0-.547-.469-.86-1.078-.86m0 0"/><path id="E" d="M-1.703-3.984c-.984 0-1.844.828-1.844 1.875s.86 1.875 1.844 1.875c1 0 1.781-.86 1.781-1.875 0-1.032-.781-1.875-1.781-1.875m-.063.703c.36 0 .797.015 1.141.25.313.203.453.562.453.922 0 .422-.203.765-.484.937-.328.203-.719.219-1.11.219-.312 0-.78 0-1.125-.235a1.14 1.14 0 0 1-.437-.921c0-.422.203-.766.469-.938.343-.219.765-.234 1.093-.234m0 0"/><path id="F" d="M-.953-3.516c-.094 0-.094.11-.094.125 0 .063 0 .094.078.125.172.047.797.282.797 1.079 0 .484-.375 1.203-1.562 1.203-1.141 0-1.578-.594-1.578-1.172 0-.078 0-.5.156-.781.062.234.25.265.344.265a.36.36 0 0 0 .374-.375c0-.219-.14-.375-.39-.375-.485 0-.719.531-.719 1.281 0 1.11.875 1.86 1.828 1.86C-.703-.281.078-1.11.078-2.11c0-1.125-.937-1.407-1.031-1.407m0 0"/><path id="G" d="M0-4.484h-.266c0 .515 0 .609-.359.609h-1.797c-.656 0-1.094.313-1.094 1.14 0 .704.454 1.063.704 1.22h-2.72l.095 1.187h.265c0-.547.047-.61.438-.61h4.109c.36 0 .36.094.36.61H0c-.031-.344-.031-.688-.031-.906 0-.235 0-.563.031-.907h-.266c0 .5 0 .61-.359.61h-1.437c-.844 0-1.235-.64-1.235-1.125s.344-.61.844-.61h1.828c.36 0 .36.094.36.61H0C-.031-3-.031-3.36-.031-3.562c0-.235 0-.579.031-.922m0 0"/><path id="H" d="M-.719-4.094h-.437v.25h.437c.328 0 .453.11.453.281 0 .297-.359.297-.453.297h-1.656c-.781 0-1.172.75-1.172 1.485 0 .656.25 1.25.781 1.25a.36.36 0 0 0 .375-.375.36.36 0 0 0-.375-.375.356.356 0 0 0-.359.297c-.203-.297-.203-.735-.203-.782 0-.453.312-.89.969-.89h.234c.031.453.047.984.281 1.547.313.703.766.843 1.032.843.687 0 .89-.812.89-1.359a1.23 1.23 0 0 0-.64-1.11c.296-.046.609-.25.609-.609 0-.078-.031-.75-.766-.75m-.406 1.438c.781 0 .984.64.984.969 0 .406-.28.765-.671.765-.516 0-1.063-.5-1.094-1.734Zm0 0"/><path id="I" d="M0-6.828h-.266c0 .516 0 .61-.359.61h-1.797c-.64 0-1.094.28-1.094 1.14 0 .734.5 1.11.735 1.234-.578.14-.735.594-.735 1.11 0 .78.547 1.14.766 1.25h-.766l.094 1.156h.266c0-.547.047-.61.437-.61h2.094c.36 0 .36.094.36.61H0c-.031-.344-.031-.688-.031-.906 0-.235 0-.563.031-.907h-.266c0 .5 0 .61-.359.61h-1.437c-.844 0-1.235-.64-1.235-1.14 0-.517.406-.61.844-.61h1.828c.36 0 .36.11.36.61H0c-.031-.345-.031-.688-.031-.907 0-.235 0-.563.031-.906h-.266c0 .515 0 .609-.359.609h-1.437c-.844 0-1.235-.64-1.235-1.14 0-.516.406-.61.844-.61h1.828c.36 0 .36.11.36.61H0c-.031-.344-.031-.688-.031-.907 0-.234 0-.562.031-.906m0 0"/><path id="J" d="M0-4.484h-.266c0 .515 0 .609-.359.609h-1.797c-.656 0-1.094.313-1.094 1.14 0 .797.579 1.157.766 1.25h-.766l.094 1.157h.266c0-.547.047-.61.437-.61h2.094c.36 0 .36.094.36.61H0c-.031-.344-.031-.688-.031-.906 0-.235 0-.563.031-.907h-.266c0 .5 0 .61-.359.61h-1.437c-.844 0-1.235-.64-1.235-1.125s.344-.61.844-.61h1.828c.36 0 .36.094.36.61H0C-.031-3-.031-3.36-.031-3.562c0-.235 0-.579.031-.922m0 0"/><path id="K" d="M0-4.422h-.266c0 .547-.046.61-.437.61h-4.828l.093 1.187h.266c0-.531.047-.61.438-.61h1.687a1.4 1.4 0 0 0-.469 1.079c0 1 .782 1.875 1.797 1.875.985 0 1.797-.797 1.797-1.797 0-.469-.219-.86-.5-1.125h.5Zm-.984 1.219c.14 0 .172 0 .328.125.328.219.515.578.515.953s-.187.688-.484.875c-.312.219-.703.266-1.078.266-.469 0-.797-.079-1.063-.266a1.15 1.15 0 0 1-.53-.953c0-.375.202-.766.608-1Zm0 0"/><path id="L" d="M-1.719-4.422c-1 0-1.797.813-1.797 1.781 0 .313.079.766.5 1.172h-.5l.094 1.188h.266c0-.563.047-.61.375-.61H.922c.36 0 .36.11.36.61h.265c-.031-.344-.031-.688-.031-.906 0-.235 0-.563.03-.907h-.265c0 .516 0 .61-.36.61H-.39a1.37 1.37 0 0 0 .47-1.047c0-1-.782-1.89-1.798-1.89m0 .719c.907 0 1.578.578 1.578 1.219 0 .28-.125.64-.515.906-.14.094-.156.094-.297.094h-1.703a1.3 1.3 0 0 1-.61-1.094c0-.61.672-1.125 1.547-1.125m0 0"/><path id="M" d="M-.437-1.625a.453.453 0 0 0-.454.453c0 .266.22.438.438.438A.44.44 0 0 0 0-1.172a.45.45 0 0 0-.437-.453m0 0"/><path id="N" d="M0-3.562h-.266v.28c0 .75-.093.782-.39.782h-4.422c-.219 0-.219.016-.219.234.313.329.5.75.5 1.5h.266c0-.218 0-.64-.203-1.109h4.078c.297 0 .39.031.39.781v.282H0c-.031-.329-.031-1.016-.031-1.375 0-.36 0-1.047.031-1.376m0 0"/><path id="O" d="M-1.625-3.875c-1.031 0-1.766.797-1.766 1.672 0 .578.36.922.75 1.11-.656 0-1.234-.063-1.718-.344-.407-.25-.735-.657-.735-1.157 0-.156.032-.515.297-.703.031.36.297.39.375.39.25 0 .375-.187.375-.374 0-.14-.078-.375-.39-.375-.47 0-.86.36-.86 1.078 0 1.11 1.047 2.234 2.766 2.234C-.36-.344.172-1.359.172-2.125c0-.39-.11-.797-.453-1.156-.313-.328-.64-.594-1.344-.594m0 .75c.406 0 .75 0 1.047.156.36.219.5.485.5.844a.88.88 0 0 1-.516.797c-.36.187-.89.203-1.203.203-.781 0-1.375-.422-1.375-1.047 0-.39.203-.64.485-.781.296-.172.656-.172 1.062-.172m0 0"/><path id="P" d="M-1.312-3.984h-.25v.843h-3.594c-.157 0-.219 0-.219.172 0 .094 0 .11.11.188l3.702 2.547h.25v-2.25h.672c.297 0 .375.015.375.64v.172H0l-.031-1.14L0-3.953h-.266v.172c0 .625-.078.64-.375.64h-.671Zm-.25 1.437v2.031l-2.954-2.03Zm0 0"/><path id="Q" d="M-.031-1.719c-.438 0-.86.172-.86.547 0 .266.22.438.438.438.25 0 .453-.172.453-.438 0-.187-.094-.297-.125-.312.25 0 .89 0 1.469.593.015.032.031.047.078.047.078 0 .125-.062.125-.11 0-.093-.625-.765-1.578-.765m0 0"/><path id="R" d="M1.828-2.672h-.047l-3.765 1.469-3.782-1.469h-.046c-.094 0-.157.063-.157.156 0 .063.032.125.094.157l3.828 1.468c.016.016.031.016.063.016.015 0 .03 0 .046-.016l3.829-1.468a.17.17 0 0 0 .093-.157c0-.093-.062-.156-.156-.156m0 0"/><path id="S" d="M-.828-3.937c-.047 0-.125.062-.125.124 0 .047.015.063.078.126.734.624.734 1.562.734 1.703 0 .484-.328.797-.968.797-.11 0-.266 0-.703-.094v-.5c0-.235-.016-.86-.172-1.281-.203-.594-.594-.704-.828-.704-.438 0-.704.438-.704.985 0 .953.735 2.25 2.094 2.25.813 0 1.5-.5 1.5-1.438 0-1.343-.781-1.968-.906-1.968m-1.985.515c.766 0 .766 1.344.766 1.688v.39c-1.156-.328-1.25-1.218-1.25-1.437 0-.344.188-.64.485-.64m0 0"/><path id="T" d="M-1.984-2.219h-.063L-5.875-.734a.17.17 0 0 0-.094.156c0 .078.063.156.157.156.015 0 .03 0 .046-.016l3.782-1.453L1.78-.437c.016.015.032.015.047.015a.157.157 0 0 0 .156-.156.17.17 0 0 0-.093-.156L-1.937-2.22zm0 0"/><path id="U" d="m3.578 5.797 1.813-.156V.469L3.578.297v.25c1.344.11 1.547.297 1.547 1.515 0 .157 0 .407-.016.47-.03.14-.109.155-.312.155H.657c-.282 0-.391 0-.391-.828v-.312H0c.031.297.031 1.156.031 1.5s0 1.203-.031 1.5h.266V4.25c0-.828.109-.828.39-.828h4.14c.188 0 .282 0 .313.156.016.078.016.313.016.469 0 1.219-.203 1.39-1.547 1.5Zm0 0"/><path id="V" d="M.953 3.516a.12.12 0 0 0 .11-.125c0-.094-.047-.11-.094-.125a1.14 1.14 0 0 1-.797-1.11c0-.36.156-.734.531-.969.36-.234.875-.234 1.11-.234v2.344c0 .172 0 .219.187.219.703 0 1.547-.391 1.547-1.516 0-.984-.813-1.766-1.797-1.766-1.031 0-1.828.86-1.828 1.875 0 1 .844 1.407 1.031 1.407m1.078-.547V.953c1.11.078 1.297.75 1.297 1.047 0 .938-1.125.969-1.297.969m0 0"/><path id="W" d="M1.031 3.047c.375 0 .938-.219 1.11-1.172.015-.062.093-.516.093-.547.063-.25.235-.625.547-.625.235 0 .578.188.578.938 0 .89-.656.937-.875.953-.062 0-.093.062-.093.11 0 .14.062.14.203.14h.75c.125 0 .203 0 .203-.11 0-.046 0-.062-.125-.187 0-.016-.078-.094-.078-.11 0 0 0-.03.031-.078.094-.125.172-.359.172-.718 0-1.11-.594-1.36-.985-1.36-.39 0-.624.297-.656.313-.234.328-.265.5-.36 1.047-.077.375-.187.984-.718.984-.312 0-.687-.203-.687-.937C.14.875.766.64 1.188.547c.109-.031.14-.047.14-.14C1.328.28 1.266.28 1.11.28H.125c-.125 0-.203 0-.203.094 0 .063 0 .063.156.203.047.047.14.125.188.172-.328.36-.344.734-.344.938 0 1.015.578 1.359 1.11 1.359m0 0"/><path id="X" d="M1 2.813h.438v-.25h-.422c-.547 0-.844-.25-.844-.547 0-.532.687-.532.812-.532h2.188v1.188h.265V1.484h1.47v-.25c-.735 0-1.485-.328-1.516-1.078h-.22v.719H1c-.937 0-1.078.719-1.078 1.078 0 .547.469.86 1.078.86m0 0"/><path id="Y" d="M1.703 3.984c.984 0 1.844-.828 1.844-1.875 0-1.046-.86-1.875-1.844-1.875-1 0-1.781.86-1.781 1.875 0 1.032.781 1.875 1.781 1.875m.063-.703c-.36 0-.797-.015-1.141-.25C.313 2.828.172 2.47.172 2.11c0-.421.203-.765.484-.937.328-.203.719-.219 1.11-.219.312 0 .78 0 1.125.235.28.218.437.546.437.921 0 .422-.203.766-.469.938-.343.219-.765.234-1.093.234m0 0"/><path id="Z" d="M3.172 4.281h.265c-.03-.265-.03-.281-.03-.625 0-.031 0-.453.03-.687h-.265c-.016.234-.14.344-.328.344-.047 0-.11 0-.203-.047L.719 2.422l2.094-.938c.109-.046.124-.046.156-.046.187 0 .203.25.203.421h.265c-.03-.359-.03-.703-.03-.875 0-.171 0-.546.03-.812h-.265c0 .422-.016.531-.313.672L0 2.094C-.844 1.734-1.406 1.5-1.406.938c0-.204.093-.329.093-.329.016.063.11.25.344.25A.336.336 0 0 0-.625.516c0-.172-.11-.344-.36-.344-.343 0-.64.344-.64.766 0 .718.86 1.093.938 1.125L2.625 3.53c.453.203.531.5.547.75m0 0"/><path id="aa" d="M0 2.125h.266c0-.5 0-.61.359-.61h4.906L5.438.329h-.266c0 .547-.047.61-.438.61H.625c-.36 0-.36-.094-.36-.61H0c.031.313.031.766.031.906 0 .157 0 .579-.031.891m0 0"/><path id="ab" d="M.719 4.094h.437v-.25H.72c-.328 0-.453-.11-.453-.281 0-.297.359-.297.453-.297h1.656c.781 0 1.172-.75 1.172-1.485 0-.656-.25-1.25-.781-1.25a.36.36 0 0 0-.375.375c0 .219.156.375.375.375a.356.356 0 0 0 .359-.297c.203.297.203.735.203.782 0 .453-.312.89-.969.89h-.234c-.031-.453-.047-.984-.281-1.547C1.53.406 1.078.266.813.266c-.688 0-.891.812-.891 1.359 0 .578.328.938.64 1.11-.296.046-.609.25-.609.609 0 .078.031.75.766.75m.406-1.438c-.781 0-.984-.64-.984-.969 0-.406.28-.765.672-.765.515 0 1.062.5 1.093 1.734Zm0 0"/><path id="ac" d="M0 6.828h.266c0-.516 0-.61.359-.61h1.797c.64 0 1.094-.28 1.094-1.14 0-.734-.5-1.11-.735-1.234.578-.14.735-.594.735-1.11a1.37 1.37 0 0 0-.766-1.25h.766L3.422.328h-.266c0 .547-.047.61-.437.61H.625c-.36 0-.36-.094-.36-.61H0c.031.344.031.688.031.906 0 .235 0 .563-.031.907h.266c0-.5 0-.61.359-.61h1.438c.843 0 1.234.64 1.234 1.14 0 .517-.406.61-.844.61H.625c-.36 0-.36-.11-.36-.61H0c.031.345.031.688.031.907 0 .235 0 .563-.031.906h.266c0-.515 0-.609.359-.609h1.438c.843 0 1.234.64 1.234 1.14 0 .516-.406.61-.844.61H.625c-.36 0-.36-.11-.36-.61H0c.031.344.031.688.031.907 0 .234 0 .562-.031.906m0 0"/><path id="ad" d="M0 4.484h.266c0-.515 0-.609.359-.609h1.797c.656 0 1.094-.312 1.094-1.14a1.38 1.38 0 0 0-.766-1.25h.766L3.422.327h-.266c0 .547-.047.61-.437.61H.625c-.36 0-.36-.094-.36-.61H0c.031.344.031.688.031.906 0 .235 0 .563-.031.907h.266c0-.5 0-.61.359-.61h1.438c.843 0 1.234.64 1.234 1.125s-.344.61-.844.61H.625c-.36 0-.36-.094-.36-.61H0c.031.344.031.703.031.906 0 .235 0 .579-.031.922m0 0"/><path id="ae" d="M0 4.422h.266c0-.547.046-.61.437-.61h4.828l-.093-1.187h-.266c0 .531-.047.61-.438.61H3.047c.312-.282.469-.657.469-1.079 0-1-.782-1.875-1.797-1.875-.985 0-1.797.797-1.797 1.797 0 .469.219.86.5 1.125h-.5Zm.984-1.219c-.14 0-.171 0-.328-.125a1.15 1.15 0 0 1-.515-.953c0-.375.187-.687.484-.875.313-.219.703-.266 1.078-.266.469 0 .797.079 1.063.266.297.188.53.547.53.953 0 .375-.202.766-.608 1Zm0 0"/><path id="af" d="M.031 1.719c.438 0 .86-.172.86-.547A.436.436 0 0 0 .453.734C.203.734 0 .906 0 1.172c0 .187.094.297.125.312-.25 0-.89 0-1.469-.593-.015-.032-.031-.047-.078-.047-.078 0-.125.062-.125.11 0 .093.625.765 1.578.765m0 0"/><path id="ag" d="M1.469 4.219a1.62 1.62 0 0 0 1.594-1.266l.265-1.094c.11-.515.516-.89 1-.89.547 0 1.047.469 1.047 1.156 0 1.375-1.297 1.563-1.594 1.61-.094.015-.14.015-.14.124 0 .125.046.125.203.125h1.562c.125 0 .203 0 .203-.109 0-.062-.015-.078-.109-.125l-.453-.281c.437-.406.562-.906.562-1.344 0-.953-.718-1.656-1.53-1.656-.61 0-.938.344-1.095.5-.28.281-.343.547-.546 1.406-.157.688-.188.797-.47 1.063a1.08 1.08 0 0 1-.734.28c-.562 0-1.14-.421-1.14-1.171 0-.875.422-1.781 1.531-1.828.125-.016.188-.016.188-.125 0-.125-.063-.125-.22-.125H.048c-.14 0-.219 0-.219.11 0 .062.016.062.094.124.047.031.125.063.453.281-.437.5-.547 1.094-.547 1.579 0 .984.797 1.656 1.64 1.656m0 0"/><path id="ah" d="M0 4.484h.266c0-.515 0-.609.359-.609h1.797c.656 0 1.094-.312 1.094-1.14a1.38 1.38 0 0 0-.766-1.25h.766L3.422.327h-.266c0 .547-.047.61-.437.61H.625c-.36 0-.36-.094-.36-.61H0c.031.344.031.688.031.906 0 .235 0 .563-.031.907h.266c0-.5 0-.61.359-.61h1.438c.843 0 1.234.64 1.234 1.125s-.344.61-.844.61H.625c-.36 0-.36-.094-.36-.61H0c.031.344.031.703.031.906 0 .235 0 .579-.031.922m5.047-.718.156-.157c-.36-.328-.36-.578-.36-.671 0-.188.079-.344.173-.532.109-.219.187-.36.187-.547 0-.312-.172-.468-.64-.906l-.157.156c.36.329.36.579.36.672 0 .172-.079.344-.188.532-.094.218-.172.359-.172.546 0 .313.172.47.64.907m0 0"/><path id="ai" d="M3.016 3.063c.28 0 .5-.25.5-.61 0-.515-.391-.875-.844-1.031v-.016h.844L3.422.281h-.266c0 .547-.047.61-.437.61H.625C.265.89.265.78.265.28H0c.031.313.031.75.031.938 0 .468 0 .484-.031 1h.266v-.156c0-.579.078-.594.375-.594h1.172c.609 0 1.468.25 1.484 1.015-.031-.046-.094-.14-.281-.14-.25 0-.36.203-.36.36 0 .187.125.358.36.358m0 0"/><path id="aj" d="M1.719 4.422c1 0 1.797-.813 1.797-1.781 0-.313-.079-.766-.5-1.172h.5L3.422.28h-.266c0 .563-.047.61-.375.61H-.922c-.36 0-.36-.11-.36-.61h-.265c.031.344.031.688.031.907 0 .234 0 .562-.03.906h.265c0-.516 0-.61.36-.61H.39a1.37 1.37 0 0 0-.47 1.047c0 1 .782 1.89 1.798 1.89m0-.719C.812 3.703.14 3.125.14 2.484c0-.28.125-.64.515-.906.14-.094.156-.094.297-.094h1.703c.313.188.61.594.61 1.094 0 .61-.672 1.125-1.547 1.125m0 0"/><path id="ak" d="M.438 1.625a.453.453 0 0 0 .453-.453.436.436 0 0 0-.438-.438.44.44 0 0 0-.453.438.45.45 0 0 0 .438.453m0 0"/><path id="al" d="M0 3.563h.266V3.28c0-.75.093-.781.39-.781h4.422c.219 0 .219-.016.219-.234-.313-.328-.5-.75-.5-1.5H4.53c0 .218 0 .64.203 1.109H.656c-.297 0-.39-.031-.39-.781V.812H0c.031.329.031 1.016.031 1.376s0 1.046-.031 1.374m0 0"/><path id="am" d="M1.594 3.797c.922 0 1.75-.672 1.75-1.61 0-.39-.125-.765-.406-1.078h1.546c-.03.11-.125.422-.125.766 0 1 .704 1.594.829 1.594.093 0 .109-.047.109-.094 0 0 0-.031-.031-.094a3 3 0 0 1-.22-1.11c0-.468.11-.858.22-1.108.03-.079.03-.11.03-.11C5.297.86 5.22.86 5.063.86H2.735c-.14 0-.234 0-.234.125 0 .063.031.079.094.125.11.094.515.391.515 1.079 0 .437-.359.656-.515.734-.281.125-.656.14-.953.14s-.735 0-1.078-.218a1.08 1.08 0 0 1-.485-.906c0-.516.313-1.016.844-1.204C.906.75.906.813.906.813c0 .218.14.406.39.406a.39.39 0 0 0 .407-.39c0-.157-.078-.407-.422-.407-.718 0-1.453.625-1.453 1.531 0 1 .781 1.844 1.766 1.844m0 0"/><path id="an" d="M1.344 3.875c.5 0 .828-.266.968-.406.126-.125.141-.14.563-.828.219.453.61 1 1.234 1 .766 0 1.188-.782 1.188-1.516 0-.844-.578-1.531-1.328-1.531-.297 0-.563.094-.797.297-.172.14-.188.172-.5.656C2.234.563 1.656.344 1.219.344c-.89 0-1.39.89-1.39 1.765 0 .97.671 1.766 1.515 1.766m2.765-.64c-.453 0-.843-.36-1.078-.829l.594-1c.14-.234.375-.422.64-.422.5 0 .829.547.829 1.125 0 .61-.422 1.125-.985 1.125m-3.046.187c-.61 0-.985-.656-.985-1.297 0-.719.485-1.312 1.14-1.312.595 0 1.063.437 1.313.984l-.656 1.078c-.078.125-.328.547-.812.547m0 0"/><path id="ao" d="M-1.828 2.672h.047l3.765-1.469 3.782 1.469h.046c.094 0 .157-.063.157-.156a.17.17 0 0 0-.094-.157L2.047.891C2.03.875 2.016.875 1.984.875c-.015 0-.03 0-.046.016l-3.829 1.468a.17.17 0 0 0-.093.157c0 .093.062.156.156.156m0 0"/><path id="ap" d="M5.422 4.578a.12.12 0 0 0 .11-.125c0-.156-.063-.812-.079-1.016-.016-.062-.016-.171-.187-.171-.11 0-.11.109-.11.203 0 .375-.062.375-.125.375-.047 0-.093-.016-.172-.031l-1.812-.454a.93.93 0 0 0 .469-.812C3.516 1.516 2.39.484 1.25.484.469.484-.078 1-.078 1.688c0 .437.25.812.562 1.14-.484.14-.562.61-.562.813 0 .28.172.484.422.625.312.187.765.28.797.28.109 0 .109-.093.109-.124 0-.11-.031-.125-.25-.172C.61 4.156.14 4 .14 3.672c0-.219.173-.266.391-.266.156 0 .219.016.328.031l4.438 1.11a.5.5 0 0 0 .125.031M2.594 3.25c-.031 0-.078-.016-.11-.016L1 2.86c-.234-.062-.39-.234-.531-.406C.39 2.375.14 2.063.14 1.72c0-.297.203-.594.78-.594.423 0 1.298.234 1.61.422.64.36.766.766.766 1 0 .547-.61.703-.703.703m0 0"/><path id="aq" d="M1.984 2.219h.063L5.875.734a.17.17 0 0 0 .094-.156.157.157 0 0 0-.157-.156c-.015 0-.03 0-.046.016L1.984 1.89-1.78.438c-.016-.016-.032-.016-.047-.016a.157.157 0 0 0-.156.156c0 .063.03.125.093.156L1.938 2.22zm0 0"/><path id="ar" d="M13.61-7.687v-.516l-1.297.031c-.344 0-1.22 0-1.5-.031v.515c.14 0 1.187 0 1.187.172 0 0 0 .032-.047.141L9.938-2.047l-2.126-5.64h1.125v-.516c-.374.031-1.484.031-1.937.031-.375 0-1.531 0-1.828-.031v.515h1.016l.484 1.297-1.64 4.344-2.126-5.64h1.125v-.516c-.343.031-1.515.031-1.953.031-.375 0-1.515 0-1.812-.031v.515h1L4.109-.171c.079.203.11.281.375.281.266 0 .297-.078.375-.28l2.079-5.5 2.093 5.5c.063.202.094.28.36.28.234 0 .297-.046.375-.28L12.5-7.407c.094-.203.11-.282 1.11-.282m0 0"/><path id="be" d="M9.953 0v-.516h-.312c-.657 0-.703-.062-.813-.218L5.61-5.047l2.844-2.406c.156-.14.266-.234 1.328-.234v-.516L8.5-8.172c-.36 0-1.297 0-1.594-.031v.515c.266 0 .547.016.86.141l-4.47 3.813v-3.953h1.267v-.516c-.344.031-1.625.031-2.047.031-.438 0-1.72 0-2.063-.031v.515H1.72v7.172H.453V0c.344-.031 1.625-.031 2.063-.031.422 0 1.703 0 2.047.031v-.516H3.297v-2.562L4.53-4.125l2.5 3.344c.016.031.063.094.063.14 0 .125-.578.125-.844.125V0c.39-.031 1.5-.031 1.953-.031.36 0 1.485 0 1.75.031m0 0"/><path id="bt" d="M6.516-7.703H4c-.094 0-1.875-.047-2.016-.078-.296-.047-.328-.172-.343-.297h-.5L.734-5.125h.516c0-.125.094-.953.297-1.094.11-.062 1.11-.062 1.297-.062h2.172C3.625-4.61 3.469-4.406 3.094-3.703 2.39-2.313 2.28-1.25 2.28-.656c0 .797.61.797.703.797a.75.75 0 0 0 .547-.235c.156-.187.156-.343.156-.86 0-1.827.172-3.171.922-4.062l1.797-2.14c.11-.125.11-.14.11-.547m0 0"/><path id="bu" d="M6.14-2.469c0-1.672-1.156-2.547-2.577-2.547-.235 0-1 0-1.485 1.016v-.328c0-.734.031-1.469.375-2.11.266-.5.875-.968 1.64-.968.235 0 .657.031.954.328-.453.047-.64.39-.64.703 0 .438.312.703.702.703.313 0 .704-.203.704-.719 0-.718-.485-1.453-1.735-1.453-1.5 0-3.516.938-3.516 4.047 0 .813 0 3.938 2.829 3.938 1.578 0 2.75-.922 2.75-2.61m-1.515 0c0 1.172 0 2.14-1.25 2.14-.75 0-1.062-.655-1.11-.75-.156-.39-.156-1.343-.156-1.452 0-1.469.625-2.094 1.329-2.094 1.187 0 1.187.953 1.187 2.156m0 0"/><path id="as" d="M5.14-1.281c0-.063-.077-.157-.14-.157-.062 0-.094.032-.156.125C3.89-.125 2.594-.125 2.454-.125c-.938 0-1.048-1.016-1.048-1.39 0-.141.016-.516.203-1.25h.625c.344 0 1.235-.016 1.829-.266.843-.36.89-1.063.89-1.235 0-.53-.453-1.015-1.266-1.015-1.328 0-3.14 1.156-3.14 3.25C.547-.812 1.25.125 2.422.125 4.14.125 5.14-1.141 5.14-1.281m-.577-2.985c0 1.235-1.907 1.235-2.407 1.235h-.484c.469-1.813 1.703-1.985 2.016-1.985.562 0 .874.344.874.75m0 0"/><path id="aF" d="M12.234-7.672c.047-.14.032-.578-.546-.578-.47 0-.782.188-1.22.5a5.3 5.3 0 0 0-1.14 1.219 9.4 9.4 0 0 0-.969 1.89H5.641l.797-3.093L7.094-8l.062-.203a38 38 0 0 0-1.39-.031c-.5 0-.922.062-1.438.172a3.2 3.2 0 0 0-1.219.609c-.484.36-.921.828-1.062 1.375-.047.187-.078.36-.094.562 0 .11 0 .235.078.313.047.078.125.156.25.156.156 0 .297-.11.438-.219a.49.49 0 0 0 .172-.328l.015-.484c.016-.14.016-.297.063-.453.078-.313.36-.563.61-.782.265-.203.562-.296.858-.359a5.5 5.5 0 0 1 1.235-.125l-.844 3.36c-.187.765-.422 1.546-.781 2.296-.203.47-.516.954-.938 1.297-.328.266-.75.407-1 .407-.203 0-.406-.016-.515-.172A1 1 0 0 1 1.5-.906a.75.75 0 0 0-.094-.281c-.062-.079-.218-.079-.343-.079a.57.57 0 0 0-.375.125.5.5 0 0 0-.188.297c-.062.25 0 .469.14.625.188.25.5.297.844.297.75 0 1.454-.36 2.11-.89.484-.375.89-.86 1.156-1.391.313-.625.578-1.313.781-1.985h2.672c-.172.5-.36 1.11-.453 1.47-.125.546-.25 1.077-.266 1.609 0 .359.094.703.266.968.156.172.39.235.656.235.422 0 .766-.172 1.125-.453.203-.172.406-.375.703-.672l-.187-.203a8 8 0 0 1-.656.593c-.141.141-.422.282-.563.282-.156 0-.25-.032-.328-.141-.156-.234-.172-.562-.172-.89a7.3 7.3 0 0 1 .297-1.594c.234-.985.484-1.97.89-2.922.126-.328.282-.594.5-.922.188-.266.376-.422.579-.578a.8.8 0 0 1 .5-.188c.172 0 .234.094.328.203a.3.3 0 0 0 .265.157.576.576 0 0 0 .547-.438m0 0"/><path id="aJ" d="M5.953-1.703c0-.125-.11-.125-.14-.125-.125 0-.141.047-.172.219-.203.765-.422 1.484-.907 1.484-.328 0-.359-.312-.359-.562s.031-.36.156-.875l.266-1.079.422-1.671c.093-.344.093-.36.093-.407 0-.203-.156-.328-.359-.328-.281 0-.453.266-.5.531-.203-.437-.562-.765-1.094-.765-1.406 0-2.875 1.75-2.875 3.5 0 1.125.657 1.906 1.579 1.906.25 0 .843-.047 1.562-.89.094.5.516.89 1.078.89.422 0 .703-.266.89-.656.204-.422.36-1.172.36-1.172M4.313-3.97c0 .078-.016.14-.032.203l-.593 2.344c-.063.219-.063.234-.25.438-.516.656-1.016.859-1.344.859-.594 0-.766-.656-.766-1.125 0-.61.375-2.078.656-2.625.375-.703.907-1.14 1.391-1.14.766 0 .938.968.938 1.046m0 0"/><path id="bf" d="M9.766-4.687c.234-.891.28-1.829-.188-2.454-.328-.421-.797-.671-1.328-.843-.687-.22-1.437-.235-2.219-.235l.078-.297-.078-.046-.812.374c-.875.063-1.89.313-2.766 1-.437.344-.781.829-.906 1.329-.047.234-.063.453 0 .593a.29.29 0 0 0 .266.172.56.56 0 0 0 .39-.172c.125-.093.188-.25.219-.39.078-.266.047-.469.11-.735A1.35 1.35 0 0 1 3-7.109a3.32 3.32 0 0 1 2.125-.735L4.203-4.14c-.14.579-.297 1.172-.562 1.75-.141.344-.36.704-.657.954-.609.5-1.328.796-2.015.796l-.485.594h3.47c1.25 0 2.53-.484 3.624-1.36 1.094-.859 1.875-2.046 2.188-3.28m-.891.062c-.156.625-.36 1.25-.703 1.828-.266.485-.61.938-1.047 1.281a3.5 3.5 0 0 1-1.297.704c-.578.171-1.156.171-1.719.171H2.656l-.015-.125.53-.437c.517-.438.923-1 1.235-1.563a9.8 9.8 0 0 0 .844-2.28l.688-2.798c.593 0 1.14.047 1.671.219.391.125.75.297 1 .61.47.624.485 1.515.266 2.39m0 0"/><path id="bg" d="M7.656-6.953c.094-.344.047-.656-.14-.906-.282-.391-.985-.47-1.375-.47-.891 0-1.766.22-2.657.813-.718.485-1.218 1.282-1.421 2.079-.172.718-.235 1.453.156 1.984.406.531 1.094.781 1.844.781.593 0 1.25-.172 1.828-.531l-.25 1.14c-.125.516-.328.97-.578 1.47-.22.374-.5.75-.86 1.046-.469.39-1.031.656-1.578.656-.36 0-.719-.062-.922-.328-.11-.156-.11-.375-.11-.593.016-.157.016-.329-.062-.438a.34.34 0 0 0-.281-.125.75.75 0 0 0-.469.14.84.84 0 0 0-.265.407.98.98 0 0 0 .172.89c.28.391.812.485 1.359.485.984 0 1.984-.406 2.86-1.11.452-.359.78-.812 1.03-1.328.36-.718.61-1.468.797-2.234l.391-1.578-.672.156c-.156.344-.5.828-.687.969-.47.39-1 .547-1.532.547-.5 0-.89-.219-1.156-.563-.36-.484-.312-1.187-.14-1.86a3.62 3.62 0 0 1 1.265-1.952 2.5 2.5 0 0 1 1.547-.516c.297 0 .719.11.922.406.14.188.219.407.14.672-.046.219-.125.469-.328.64-.28.22-.546.25-.828.25l-.093.204c.187.031.468.11.53.11.36 0 .704-.188 1.016-.438.297-.25.47-.563.547-.875m0 0"/><path id="bi" d="M7.266-6.625c.109-.437.125-.844-.125-1.156-.328-.453-.953-.547-1.578-.547-.938 0-1.922.25-2.75.922-.547.406-.954.922-1.282 1.484A8 8 0 0 0 .688-3.75C.53-3.14.438-2.516.484-1.953c.047.5.157.953.438 1.312.39.532 1.047.813 1.797.813.812 0 1.719-.203 2.437-.781.235-.188.422-.422.578-.641l-.406-.562-.156.078c-.156.359-.36.734-.688 1-.406.312-.906.5-1.359.5-.531 0-.969-.25-1.234-.61-.282-.375-.407-.86-.438-1.344-.062-.593.031-1.234.188-1.859.172-.687.39-1.36.75-2.016.25-.468.578-.906 1.03-1.265a2.96 2.96 0 0 1 1.845-.625c.406 0 .812.11 1.03.406.22.297.204.656.11 1.063-.11.422-.312.875-.687 1.187-.297.234-.625.39-.969.39-.14 0-.328 0-.422-.124-.11-.14-.047-.36.047-.547.078-.172.156-.36.078-.5-.078-.094-.203-.125-.344-.125s-.296.016-.421.125a.8.8 0 0 0-.235.437c-.062.266-.047.516.094.688.25.328.703.406 1.156.406.531 0 1.125-.172 1.594-.562.5-.407.828-.953.969-1.516m0 0"/><path id="at" d="M7.75-4.078c0-2.328-1.578-4.219-3.594-4.219H1.094V0h3.062c2 0 3.594-1.812 3.594-4.078m-1-.016c0 2.188-1.328 3.422-2.86 3.422H2.095v-6.953H3.89c1.593 0 2.859 1.375 2.859 3.531m0 0"/><path id="au" d="M5.484-2.625c0-1.625-1.187-2.86-2.562-2.86-1.406 0-2.563 1.266-2.563 2.86 0 1.563 1.188 2.75 2.563 2.75 1.406 0 2.562-1.219 2.562-2.75m-.906-.125c0 1.469-.844 2.125-1.656 2.125-.86 0-1.656-.719-1.656-2.125 0-1.453.89-2.016 1.656-2.016.812 0 1.656.625 1.656 2.016m0 0"/><path id="av" d="m6.875-.531-.078-.844c-.313.234-.672.484-1.063.61-.375.124-.78.14-1.187.14-.766 0-1.469-.422-1.938-1.031-.546-.703-.796-1.594-.796-2.485 0-.906.25-1.796.796-2.5.47-.609 1.172-1.03 1.938-1.03.36 0 .719.03 1.062.14.344.125.672.297.97.515l.171-1a5.6 5.6 0 0 0-1.078-.312 5.6 5.6 0 0 0-1.125-.094c-1.031 0-1.984.469-2.656 1.25C1.14-6.344.78-5.266.78-4.14c0 1.094.36 2.188 1.11 3.016.672.766 1.625 1.25 2.656 1.25.406 0 .812-.016 1.219-.125.406-.125.765-.328 1.109-.531m0 0"/><path id="aw" d="M1.813 0v-5.312H.938V0Zm.078-6.797v-1.016H.859v1.016Zm0 0"/><path id="ax" d="M4.86-2.687c0-.516-.048-1.25-.423-1.876-.5-.828-1.328-.921-1.671-.921C1.469-5.484.39-4.25.39-2.687.39-1.11 1.547.124 2.92.124c.563 0 1.22-.156 1.876-.64 0-.047-.047-.438-.047-.438s-.031-.281-.031-.328c-.703.593-1.407.687-1.766.687-.922 0-1.703-.828-1.734-2.093Zm-.704-.641h-2.86c.204-.813.767-1.438 1.47-1.438.359 0 1.187.157 1.39 1.438m0 0"/><path id="ay" d="M5.563-2.672c0-1.469-.782-2.75-1.891-2.75-.344 0-1.11.063-1.86.672v-3.547H.939V0h.906v-.531c.547.515 1.125.656 1.547.656 1.14 0 2.172-1.172 2.172-2.797m-.907 0c0 1.563-.968 2.078-1.703 2.078-.328 0-.562-.125-.781-.297-.281-.25-.328-.453-.328-.656V-4.03c.218-.328.64-.672 1.234-.672.719 0 1.578.547 1.578 2.031m0 0"/><path id="az" d="M7.766-5.312H6.89l-.703 2.437c-.172.563-.516 1.688-.563 2.203-.047-.281-.234-1.078-.484-1.937l-.797-2.703H3.53L2.844-2.97c-.219.75-.5 1.781-.531 2.282h-.016c-.016-.235-.14-.86-.375-1.672l-.844-2.953H.172L1.766 0h.922c.453-1.5 1.156-3.781 1.218-4.61h.016c.015.485.265 1.344.344 1.626L5.109 0h1.063Zm0 0"/><path id="aA" d="m3.688-5.36-.485-.515-.828.719v-3.14H1.5v3.874L.328-3.375l.453.547.719-.656V0h.875v-4.234Zm0 0"/><path id="aB" d="M4.797 0v-3.5c0-1.156-.828-1.984-1.938-1.984-.718 0-1.25.172-1.843.5l.078.78c.515-.374 1.062-.593 1.765-.593.547 0 1.032.453 1.032 1.313v.5c-.547.015-1.266.062-1.985.297C1.11-2.422.641-1.97.641-1.375c0 .531.312 1.5 1.328 1.5.656 0 1.5-.203 1.937-.562V0ZM3.89-1.61c0 .25 0 .532-.407.766-.312.203-.718.25-.906.25-.64 0-1.078-.343-1.078-.797 0-.812 1.656-.984 2.39-.984Zm0 0"/><path id="aC" d="M8.328 0v-3.594c0-.828-.219-1.828-1.61-1.828-1.015 0-1.577.703-1.765.969-.203-.766-.86-.969-1.484-.969-.985 0-1.5.625-1.703.875v-.812H.922V0h.906v-2.969c0-.797.313-1.734 1.188-1.734 1.093 0 1.156.75 1.156 1.187V0h.906v-2.969c0-.797.313-1.734 1.188-1.734 1.093 0 1.156.75 1.156 1.187V0Zm0 0"/><path id="aD" d="M2.11-.016v-.953h-.97V0h.298L1.14 1.5h.468Zm0 0"/><path id="aE" d="M5.063 0v-8.297h-.891v3.485a2.65 2.65 0 0 0-1.688-.61c-1.14 0-2.062 1.219-2.062 2.766S1.297.125 2.437.125c.438 0 1.11-.156 1.704-.734V0ZM4.14-1.406c-.282.515-.703.812-1.22.812-.733 0-1.593-.562-1.593-2.047 0-1.593 1.016-2.062 1.703-2.062.469 0 .86.234 1.11.625Zm0 0"/><path id="aH" d="M6.797-5.875c0-1.266-1.172-2.422-2.797-2.422H1.094V0h1.015v-3.453H4c1.656 0 2.797-1.188 2.797-2.422m-.953-.016c0 .938-.735 1.75-2.094 1.75H2.094v-3.484H3.75c1.406 0 2.094.828 2.094 1.734m0 0"/><path id="aI" d="M5.063 0v-3.594c0-.734-.157-1.828-1.594-1.828-.672 0-1.25.297-1.703.875v-.812H.922V0h.906v-2.969c0-.75.281-1.734 1.188-1.734 1.109 0 1.14.766 1.14 1.187V0Zm0 0"/><path id="aK" d="M5.563-2.672c0-1.437-.75-2.75-1.875-2.75-.485 0-1.25.156-1.876.672v-.562H.939v7.625h.906V-.531c.406.36.906.656 1.547.656 1.156 0 2.172-1.172 2.172-2.797m-.907.016c0 1.203-.812 2.062-1.703 2.062-.328 0-.562-.125-.781-.297-.297-.25-.328-.468-.328-.656v-2.469a1.47 1.47 0 0 1 1.219-.671c.874 0 1.593.89 1.593 2.03m0 0"/><path id="aL" d="M3.797-4.625v-.797c-1.078 0-1.719.64-2.047 1.11V-5.36H.938V0h.875v-2.625c0-1.203.906-1.984 1.984-2m0 0"/><path id="aM" d="M4.703 0v-.734H2.984c-.14 0-.28.015-.421.015H1.547l3.11-4.125v-.468H.483v.703h2.953L.329-.484V0Zm0 0"/><path id="aN" d="M5.172-5.312h-.89c-.548 1.421-1.47 3.765-1.516 4.625H2.75c-.062-.72-.687-2.282-.797-2.532L1.11-5.312H.172L2.39 0l-.422 1.094c-.266.593-.438.656-.657.656-.171 0-.546-.047-.921-.187l.078.78c.062.016.469.095.844.095.296 0 .843 0 1.359-1.313Zm0 0"/><path id="aO" d="m5.219 2.234-.157-.703c-.265.11-.546.172-.812.172-.328-.031-.61-.094-.625-.453C3.609.719 4.109.313 4.656 0h.14v-3.5c0-1.156-.827-1.984-1.937-1.984-.718 0-1.25.172-1.843.5l.078.78c.515-.374 1.062-.593 1.765-.593.547 0 1.032.453 1.032 1.313v.5c-.547.015-1.266.062-1.985.297C1.11-2.422.641-1.97.641-1.375c0 .531.312 1.5 1.328 1.5.656 0 1.5-.203 1.937-.562V0c-.594.328-1.078.906-1.031 1.516 0 .515.375 1.015 1.172 1.015.406 0 .703-.062 1.172-.297M3.89-1.609c0 .25 0 .53-.407.765-.312.203-.718.25-.906.25-.64 0-1.078-.343-1.078-.797 0-.812 1.656-.984 2.39-.984Zm0 0"/><path id="aP" d="M4.703 0v-.734H2.984c-.14 0-.28.015-.421.015H1.547l3.11-4.125v-.468H.483v.703h2.953L.329-.484V0Zm-.516-8.297h-.906l-1.562 2h.718Zm0 0"/><path id="aQ" d="M4.203-1.516c0-.609-.36-1-.406-1.046-.453-.47-.813-.532-1.531-.672-.438-.094-1.047-.203-1.047-.813 0-.734.843-.734 1-.734.625 0 1.125.14 1.656.437l.14-.765a3.9 3.9 0 0 0-1.687-.375c-.265 0-1.937 0-1.937 1.547 0 .53.297.89.468 1.062.438.36.735.422 1.438.563.39.093 1.078.234 1.078.859 0 .828-.922.828-1.094.828A3.12 3.12 0 0 1 .47-1.219l-.14.813c.046.031.859.531 1.968.531 1.547 0 1.906-.937 1.906-1.64m0 0"/><path id="aR" d="M4.86-2.687c0-.516-.048-1.25-.423-1.876-.5-.828-1.328-.921-1.671-.921C1.469-5.484.39-4.25.39-2.687.39-1.141 1.5.078 2.844.124c-.531.344-.875.828-.828 1.39 0 .516.375 1.016 1.172 1.016.39 0 .703-.062 1.171-.297l-.156-.703c-.266.11-.547.172-.812.172-.328-.031-.625-.094-.625-.453-.016-.531.5-.969 1.047-1.281.328-.094.64-.25.984-.485 0-.046-.047-.437-.047-.437s-.031-.281-.031-.328c-.703.593-1.407.687-1.766.687-.922 0-1.703-.828-1.734-2.093Zm-.704-.641h-2.86c.204-.813.767-1.438 1.47-1.438.359 0 1.187.157 1.39 1.438m0 0"/><path id="aS" d="M5.063 0v-5.312h-.907v3.421c0 .907-.625 1.36-1.406 1.36-.844 0-.922-.313-.922-.844v-3.937H.922v3.984c0 .86.265 1.453 1.25 1.453.344 0 1.281-.062 2.015-.719V0Zm0 0"/><path id="aT" d="M4.86-.5c0-.031-.032-.406-.048-.453l-.015-.344a2.8 2.8 0 0 1-1.828.672c-1 0-1.64-.875-1.64-2.047 0-.984.484-2.078 1.671-2.078.797 0 1.14.203 1.656.547l.14-.781c-.702-.407-1.093-.5-1.796-.5-1.656 0-2.578 1.453-2.578 2.812C.422-1.14 1.516.125 2.953.125c.578 0 1.25-.156 1.906-.625m0 0"/><path id="aU" d="M5.063 0v-3.594c0-.734-.157-1.828-1.594-1.828-.828 0-1.375.469-1.656.813v-3.688H.922V0h.906v-2.969c0-.75.281-1.734 1.188-1.734 1.109 0 1.14.766 1.14 1.187V0Zm0 0"/><path id="aV" d="M2.14.703v-6.015h-.89v6.14c0 .781-.625.86-.875.86-.531 0-.86-.344-.875-.375l-.234.718c.375.235.859.406 1.406.406.75 0 1.469-.624 1.469-1.734m0-7.5v-1.016H1.11v1.016Zm0 0"/><path id="aW" d="m5.672-4.703-.125-.719c-.234 0-1.047 0-1.828.39-.39-.327-.875-.39-1.11-.39-1.046 0-1.875.875-1.875 1.922 0 .422.125.828.391 1.188a1.64 1.64 0 0 0-.344 1.015c0 .453.156.75.297.906C.468 0 .328.516.328.844c0 .875 1.125 1.61 2.594 1.61 1.453 0 2.594-.704 2.594-1.61 0-1.688-1.938-1.688-2.422-1.688H2.078c-.172 0-.672 0-.672-.625 0-.265.047-.343.11-.437.203.14.593.343 1.078.343 1.031 0 1.875-.859 1.875-1.937a2.13 2.13 0 0 0-.36-1.156 7 7 0 0 1 .954-.063c.046 0 .312 0 .609.016M3.64-3.5c0 1.063-.672 1.281-1.032 1.281-.53 0-1.062-.36-1.062-1.265 0-1.063.672-1.282 1.047-1.282.531 0 1.047.36 1.047 1.266M4.688.844c0 .562-.829.953-1.766.953-.922 0-1.766-.375-1.766-.953 0-.047 0-.813.907-.813h1.046c.266 0 1.579 0 1.579.813m0 0"/><path id="aX" d="M11.688-2.922v-.719H0v.72Zm0 0"/><path id="aY" d="M2.11 0v-.969h-.97V0Zm0 0"/><path id="aZ" d="M7.094 0v-8.297h-.907V-.89h-.015l-.969-2-2.64-5.406h-1.47V0h.923v-7.406l.968 2L5.625 0Zm0 0"/><path id="ba" d="M1.813 0v-8.297H.938V0Zm0 0"/><path id="bb" d="m3.89-.344-.171-.703c-.422.375-.86.422-1.078.422-.532 0-.594-.562-.594-.984v-3h1.64v-.703h-1.64v-1.516h-.828v1.516h-1v.703h.969v3.203c0 .703.156 1.531.984 1.531.797 0 1.36-.281 1.719-.469m0 0"/><path id="bc" d="M5.469 0 3.25-3.266l1.969-2.046h-1.11L1.813-2.906v-5.39H.938V0h.828v-1.719l.906-.953L4.5 0Zm0 0"/><path id="bd" d="M5.344-7.344v-.968h-.969v.968ZM5.312 0v-5.312h-.89V0ZM3.438-4.61v-.702h-1.39v-1.454c0-.718.375-.937.703-.937.266 0 .531.094.688.219v-.813c-.235-.094-.313-.125-.688-.125-.89 0-1.562.86-1.562 2.016v1.093H.313v.704h.875V0h.875v-4.61Zm0 0"/><path id="bh" d="M4.703 0v-.734H2.984c-.14 0-.28.015-.421.015H1.547l3.11-4.125v-.468H.483v.703h2.953L.329-.484V0ZM3.047-6.797v-1.016H2.016v1.016Zm0 0"/><path id="bj" d="M2.11-4.344v-.968h-.97v.968Zm0 4.328v-.953h-.97V0h.298L1.14 1.5h.468Zm0 0"/><path id="bk" d="M5.484-2.625c0-1.625-1.187-2.86-2.562-2.86-1.406 0-2.563 1.266-2.563 2.86 0 1.563 1.188 2.75 2.563 2.75 1.406 0 2.562-1.219 2.562-2.75m-.906-.125c0 1.469-.844 2.125-1.656 2.125-.86 0-1.656-.719-1.656-2.125 0-1.453.89-2.016 1.656-2.016.812 0 1.656.625 1.656 2.016m-.016-5.547h-.906l-1.547 2h.72Zm0 0"/><path id="bl" d="M5.844-2.266c0-.765-.375-1.328-.625-1.625-.563-.593-1-.718-1.797-.921-.813-.204-1.11-.266-1.375-.516-.156-.172-.485-.469-.485-1 0-.734.657-1.438 1.72-1.438 1.015 0 1.546.391 1.984.766l.172-.953c-.485-.266-1.094-.594-2.157-.594-1.594 0-2.64 1.14-2.64 2.344 0 .844.515 1.39.578 1.453.593.61 1 .703 1.75.906 1.031.25 1.187.297 1.578.688.203.219.375.594.375 1.015 0 .829-.672 1.594-1.703 1.594a3.75 3.75 0 0 1-2.516-1l-.172.969A4.9 4.9 0 0 0 3.22.25C4.75.25 5.844-.937 5.844-2.266m0 0"/><path id="bm" d="M4.047-7.5v-.797c-.078-.015-.469-.125-.922-.125-1.125 0-1.937.875-1.937 2.031v1.079H.313v.703h.875V0h.875v-4.61h1.28v-.702H2.048v-1.422c0-.813.672-.97 1.078-.97s.781.141.922.204m0 0"/><path id="bn" d="M2.11 0v-.969h-.97V0Zm2.03 0v-.969h-.968V0Zm2.048 0v-.969h-.97V0Zm0 0"/><path id="bo" d="M7.547-7.484v-.75H.422v.75H2c.14 0 .281-.016.422-.016h1.062V0H4.5v-7.5h1.063c.14 0 .28.016.421.016Zm0 0"/><path id="bp" d="M2.344-8.297h-.969l.094 6.235h.781Zm0 8.297v-.969h-.969V0Zm0 0"/><path id="bq" d="M6.89-2.781v-5.516H5.97v5.531c0 1.594-1 2.344-1.953 2.344-.938 0-1.907-.734-1.907-2.344v-5.53H1.08v5.515C1.078-1.031 2.452.25 4 .25c1.563 0 2.89-1.297 2.89-3.031m0 0"/><path id="aG" d="M4.344-5.125H2.25c-.312 0-.406-.016-.687-.031-.422-.047-.438-.094-.454-.235H.844L.563-3.687h.265c.016-.11.094-.641.219-.72.062-.046.719-.046.828-.046h1.75l-.844 1.047C1.75-2.031 1.656-.766 1.656-.296c0 .093 0 .452.375.452s.375-.36.375-.453v-.328c0-1.547.313-2.25.656-2.687l1.204-1.5c.078-.094.078-.11.078-.313m0 0"/><path id="bv" d="M5.547 0v-.25h-.125c-.469 0-.516-.078-.594-.266L3.125-4.812c-.031-.11-.062-.157-.187-.157-.141 0-.157.047-.204.157L1.125-.734C1.063-.562.938-.25.313-.25V0c.234-.016.484-.031.718-.031.282 0 .797.031.844.031v-.25c-.312 0-.516-.14-.516-.328 0-.063.016-.078.047-.14l.328-.86H3.72l.406 1.016c0 .03.031.078.031.109 0 .203-.375.203-.562.203V0l1.031-.031c.328 0 .86.031.922.031M3.609-1.828H1.83l.89-2.266Zm0 0"/><path id="bw" d="M4.047 0v-.25c-.469 0-.516-.047-.516-.39v-4.204l-1.047.078v.25c.47 0 .516.063.516.391v1.453a1.37 1.37 0 0 0-.969-.406c-.937 0-1.703.703-1.703 1.578S1.062.063 1.938.063c.578 0 .921-.297 1.03-.422v.422ZM2.969-.734c-.172.328-.531.609-.985.609-.39 0-.671-.234-.812-.437-.14-.204-.219-.485-.219-.922 0-.172 0-.688.281-1.016.282-.312.625-.375.829-.375.328 0 .64.156.828.406.078.11.078.11.078.25Zm0 0"/><path id="bx" d="M5.469-2.75V-3c-.188.016-.313.031-.5.031-.219 0-.485-.015-.688-.031v.25c.235 0 .36.14.36.297 0 .062 0 .078-.047.172L3.922-.547l-.75-1.906a.3.3 0 0 1-.031-.125c0-.156.172-.172.375-.172V-3c-.25.016-.5.031-.75.031-.203 0-.422-.015-.625-.031v.25c.172 0 .312 0 .406.047.094.078.156.312.156.312s-.015.063-.031.079L2.016-.641l-.703-1.812c-.032-.094-.032-.094-.032-.125 0-.172.25-.172.375-.172V-3s-.515.031-.797.031C.641-2.969.422-2.984.203-3v.25c.281 0 .438 0 .5.203l.969 2.453c.047.11.062.157.203.157.125 0 .14-.047.172-.141l.797-1.984.765 1.968c.047.094.063.157.204.157.124 0 .14-.047.187-.157l.875-2.234c.14-.344.375-.422.594-.422m0 0"/><path id="by" d="M3.266-.844c0-.015-.016-.094-.125-.094-.094 0-.11.047-.125.11-.22.562-.75.672-1 .672-.328 0-.641-.14-.844-.406-.266-.329-.266-.75-.266-1.032h2.157c.156 0 .203 0 .203-.14 0-.625-.344-1.375-1.391-1.375a1.59 1.59 0 0 0-1.61 1.578c0 .89.782 1.594 1.704 1.594.937 0 1.297-.75 1.297-.907m-.485-.922H.906c.078-.984.703-1.14.969-1.14.86 0 .89.969.906 1.14m0 0"/><path id="bz" d="M4.11 0v-.25c-.454 0-.516 0-.516-.297v-1.562c0-.61-.297-.97-1.047-.97-.578 0-.938.313-1.14.688v-.687L.374-3v.25c.469 0 .531.047.531.39v1.813c0 .297-.078.297-.531.297V0s.5-.031.797-.031c.25 0 .734.031.797.031v-.25c-.453 0-.516 0-.516-.297v-1.265c0-.72.578-1.063 1.031-1.063.485 0 .547.375.547.734v1.594c0 .297-.062.297-.515.297V0s.5-.031.797-.031c.25 0 .734.031.796.031m0 0"/><path id="bA" d="M2.61-.875v-.39h-.235v.374c0 .485-.219.735-.5.735-.469 0-.469-.578-.469-.703V-2.75h1.078V-3H1.406v-1.281h-.25c0 .625-.281 1.312-.953 1.328v.203h.64v1.875c0 .781.595.938.985.938.469 0 .781-.391.781-.938m0 0"/><path id="bB" d="M3.516-1.266H3.28c-.015.157-.094.563-.187.625-.047.047-.578.047-.688.047H1.125c.734-.64.984-.843 1.39-1.172.516-.406 1-.843 1-1.5 0-.843-.734-1.359-1.624-1.359-.86 0-1.453.61-1.453 1.25 0 .344.296.39.375.39.156 0 .359-.124.359-.374 0-.125-.047-.375-.406-.375.218-.485.687-.641 1.015-.641.703 0 1.063.547 1.063 1.11 0 .609-.438 1.078-.656 1.328L.516-.266C.437-.203.437-.187.437 0h2.876Zm0 0"/><path id="bC" d="M3.594-2.219c0-.765-.094-1.328-.406-1.812-.22-.313-.657-.594-1.204-.594C.36-4.625.36-2.719.36-2.219s0 2.36 1.625 2.36c1.61 0 1.61-1.86 1.61-2.36m-.625-.094c0 .516 0 1.032-.094 1.47-.14.64-.61.78-.89.78-.329 0-.75-.187-.891-.75C1-1.219 1-1.796 1-2.312c0-.515 0-1.046.094-1.421.156-.547.593-.703.89-.703.375 0 .735.234.86.64.11.375.125.875.125 1.485m0 0"/><path id="bD" d="M3.516-1.406c0-.782-.594-1.5-1.453-1.5-.313 0-.672.062-.985.328v-1.313c.36.094.563.094.672.094.922 0 1.469-.625 1.469-.734 0-.078-.047-.094-.078-.094 0 0-.032 0-.063.016-.172.062-.531.203-1.047.203-.203 0-.562-.016-1.015-.188-.079-.031-.094-.031-.094-.031-.094 0-.094.078-.094.188v2.046c0 .125 0 .204.11.204.062 0 .078 0 .14-.094.297-.375.734-.438.969-.438.422 0 .61.328.64.39.126.235.172.5.172.907 0 .203 0 .61-.218.922a.98.98 0 0 1-.813.422c-.453 0-.922-.25-1.094-.719.266.016.407-.156.407-.344 0-.296-.266-.343-.36-.343 0 0-.343 0-.343.375 0 .625.578 1.25 1.406 1.25.89 0 1.672-.657 1.672-1.547m0 0"/><path id="bE" d="M7.813-1.75v-.203H.109v.203Zm0 0"/><path id="bF" d="M3.578-2.297c0-1.719-.765-2.328-1.578-2.328a1.55 1.55 0 0 0-1.11.422c-.234.234-.515.5-.515 1.125 0 .89.703 1.547 1.516 1.547.562 0 .859-.375 1.015-.688v.14c0 1.735-.844 2-1.265 2-.157 0-.532-.015-.72-.233a.315.315 0 0 0 .313-.329.32.32 0 0 0-.328-.328c-.203 0-.328.14-.328.344 0 .469.39.766 1.063.766 1 0 1.937-.938 1.937-2.438M2.891-3c0 .906-.516 1.266-.953 1.266-.282 0-.532-.079-.735-.407-.156-.25-.156-.546-.156-.937 0-.406 0-.672.203-.953.172-.25.39-.39.75-.39s.578.218.688.405c.187.282.203.782.203 1.016m0 0"/><path id="bG" d="M2.516 0v-.25h-.172c-.578 0-.578-.078-.578-.328v-3.61c0-.234 0-.328.578-.328h.172v-.25l-1.078.032-1.079-.032v.25h.172c.578 0 .578.094.578.329v3.609c0 .25 0 .328-.578.328H.36V0l1.079-.031Zm0 0"/><path id="bH" d="M3.578-1.422c0-.89-.703-1.547-1.515-1.547-.563 0-.86.375-1.016.688 0-.563.047-1.078.312-1.516.235-.375.61-.625 1.063-.625.203 0 .484.047.625.234-.172.016-.328.141-.328.344a.32.32 0 0 0 .328.328c.219 0 .344-.14.344-.343 0-.407-.297-.766-.985-.766-1 0-2.031.922-2.031 2.422C.375-.406 1.219.14 2 .14c.844 0 1.578-.657 1.578-1.563m-.672 0c0 .39 0 .688-.187.969A.82.82 0 0 1 2-.078c-.36 0-.625-.203-.781-.516-.094-.203-.157-.562-.157-.968 0-.688.407-1.204.97-1.204.312 0 .53.125.702.375.172.266.172.563.172.97m0 0"/><path id="bI" d="M2.016 1.734v-.328h-.72V-4.89h.72v-.328H.953v6.953Zm0 0"/><path id="bJ" d="M3.297 0v-.25H3.03c-.703 0-.703-.094-.703-.328v-3.86c0-.187 0-.187-.203-.187-.453.438-1.078.438-1.36.438v.25c.157 0 .626 0 1-.188v3.547c0 .234 0 .328-.687.328H.812V0l1.235-.031Zm0 0"/><path id="bK" d="M1.297 1.734v-6.953H.219v.328h.734v6.297H.22v.328Zm0 0"/><path id="bL" d="M3.578-1.203c0-.547-.437-1.094-1.203-1.25.719-.266.984-.781.984-1.219 0-.547-.625-.953-1.406-.953-.766 0-1.36.375-1.36.938 0 .234.157.359.36.359.219 0 .36-.156.36-.344 0-.203-.141-.36-.36-.375.25-.297.719-.375.985-.375.312 0 .75.156.75.75 0 .297-.094.625-.282.828-.219.266-.422.281-.765.313-.172.015-.188.015-.22.015 0 0-.077.016-.077.094 0 .094.062.094.187.094h.375c.547 0 .938.375.938 1.125 0 .86-.516 1.125-.906 1.125-.282 0-.907-.078-1.188-.5.328 0 .406-.235.406-.39 0-.22-.172-.376-.39-.376a.38.38 0 0 0-.391.407C.375-.281 1.094.14 1.938.14c.968 0 1.64-.657 1.64-1.344m0 0"/><path id="bM" d="M4.563 0v-.437H3.266v-5.157c0-.187 0-.297-.266-.297-.11 0-.125 0-.203.063-.688.516-1.656.516-1.828.516H.797v.437h.172a4.2 4.2 0 0 0 1.203-.172v4.61H.89V0c.343-.031 1.422-.031 1.828-.031.422 0 1.484 0 1.844.031m0 0"/><path id="bN" d="M4.86-2.953c0-.469-.032-1.39-.485-2.094-.297-.437-.828-.844-1.719-.844-1.281 0-2.218.72-2.218 1.938 0 1.125.765 1.937 2.093 1.937.406 0 .781-.203 1.063-.687v.172c0 .578-.063 1.156-.235 1.531-.109.234-.468.703-1.171.703-.079 0-.454 0-.735-.187a.55.55 0 0 0 .422-.563c0-.375-.281-.578-.578-.578-.25 0-.594.14-.594.594 0 .61.469 1.14 1.5 1.14 1.25 0 2.656-.796 2.656-3.062m-1.266-.89c0 .406-.172 1.452-1.031 1.452-.86 0-.86-.656-.86-1.53 0-.876 0-1.61.984-1.61.563 0 .766.515.797.593.11.297.11.782.11 1.094m0 0"/><path id="bO" d="M4.86-1.844c0-.484-.094-.968-.61-1.437-.469-.39-.937-.485-1.484-.485-.578 0-.922.407-1.063.688v-.156c0-1.125.219-1.485.313-1.641a1.47 1.47 0 0 1 1.218-.656c.172 0 .454.031.672.234-.36.078-.484.344-.484.563 0 .39.297.593.594.593a.57.57 0 0 0 .578-.609c0-.547-.375-1.14-1.375-1.14-1.297 0-2.781.827-2.781 3.046 0 .438.03 1.313.421 1.953.391.688 1.016 1 1.829 1 1.28 0 2.171-.734 2.171-1.953m-1.266-.015c0 .906 0 1.562-.922 1.562-.531 0-.766-.406-.828-.562-.125-.282-.125-1-.125-1.032 0-.921.39-1.515 1.015-1.515.86 0 .86.656.86 1.547m0 0"/><clipPath id="b"><path d="M.535.266h6.883v9.636H.535Zm0 0"/></clipPath><clipPath id="a"><path d="M0 0h8v10H0z"/></clipPath><clipPath id="br"><path d="M15.023 568.348H403v11.336H15.023Zm0 0"/></clipPath><linearGradient id="bs" x1="0" x2="388.063" y1="0" y2="0" gradientTransform="matrix(1 0 0 -1 15.024 579.685)" gradientUnits="userSpaceOnUse"><stop offset="0" stop-color="#f2f2f2"/><stop offset=".25" stop-color="#f2f2f2"/><stop offset=".313" stop-color="#f2f2f2"/><stop offset=".344" stop-color="#f2f2f2"/><stop offset=".359" stop-color="#f3f3f3"/><stop offset=".363" stop-color="#f4f4f4"/><stop offset=".367" stop-color="#f5f5f5"/><stop offset=".371" stop-color="#f6f6f6"/><stop offset=".375" stop-color="#f7f7f7"/><stop offset=".379" stop-color="#f8f8f8"/><stop offset=".383" stop-color="#f9f9f9"/><stop offset=".387" stop-color="#fafafa"/><stop offset=".391" stop-color="#fbfbfb"/><stop offset=".395" stop-color="#fcfcfc"/><stop offset=".398" stop-color="#fcfcfc"/><stop offset=".406" stop-color="#fcfcfc"/><stop offset=".438" stop-color="#fcfcfc"/><stop offset=".5" stop-color="#fcfcfc"/><stop offset=".563" stop-color="#fcfcfc"/><stop offset=".566" stop-color="#fcfcfc"/><stop offset=".57" stop-color="#fbfbfb"/><stop offset=".574" stop-color="#fafafa"/><stop offset=".578" stop-color="#f9f9f9"/><stop offset=".582" stop-color="#f8f8f8"/><stop offset=".586" stop-color="#f7f7f7"/><stop offset=".59" stop-color="#f6f6f6"/><stop offset=".594" stop-color="#f5f5f5"/><stop offset=".598" stop-color="#f4f4f4"/><stop offset=".602" stop-color="#f3f3f3"/><stop offset=".609" stop-color="#f3f3f3"/><stop offset=".625" stop-color="#f2f2f2"/><stop offset=".75" stop-color="#f2f2f2"/><stop offset="1" stop-color="#f2f2f2"/></linearGradient><g id="c" clip-path="url(#a)"><g clip-path="url(#b)"><path fill-rule="evenodd" d="m3.977 7.836 3.441 2.066V1.645c0-.762-.617-1.38-1.375-1.38H1.914C1.152.266.535.884.535 1.646v8.257Zm-2.754.851 2.754-1.652L6.73 8.687V1.646a.69.69 0 0 0-.687-.692H1.914a.69.69 0 0 0-.691.692Zm0 0"/></g></g></defs><use xlink:href="#c" transform="translate(9 27)"/><use xlink:href="#d" x="17.008" y="23.315"/><use xlink:href="#e" x="20.884" y="23.315"/><use xlink:href="#f" x="25.526" y="23.315"/><use xlink:href="#g" x="384.039" y="23.315"/><use xlink:href="#h" x="390.168" y="23.315"/><use xlink:href="#i" x="392.79" y="23.315"/><use xlink:href="#j" x="396.727" y="23.315"/><use xlink:href="#k" x="139.92" y="34.908"/><use xlink:href="#l" x="149.412" y="34.908"/><use xlink:href="#m" x="160.375" y="34.908"/><use xlink:href="#n" x="168.779" y="34.908"/><use xlink:href="#o" x="171.84" y="34.908"/><use xlink:href="#p" x="177.949" y="34.908"/><use xlink:href="#n" x="184.656" y="34.908"/><use xlink:href="#o" x="187.716" y="34.908"/><use xlink:href="#q" x="198.213" y="34.908"/><use xlink:href="#l" x="206.737" y="34.908"/><use xlink:href="#r" x="213.312" y="34.908"/><use xlink:href="#s" x="217.496" y="34.908"/><use xlink:href="#t" x="223.772" y="34.908"/><use xlink:href="#u" x="243.105" y="34.908"/><use xlink:href="#v" x="246.691" y="34.908"/><use xlink:href="#w" x="252.582" y="34.908"/><use xlink:href="#x" x="257.46" y="34.908"/><use xlink:href="#y" x="262.068" y="34.908"/><use xlink:href="#x" x="266.677" y="34.908"/><use xlink:href="#z" x="271.285" y="34.908"/><path fill="none" stroke="#000" stroke-miterlimit="10" stroke-width=".398" d="M17.008 39.293h384.094"/><use xlink:href="#A" x="399.042" y="143.453"/><use xlink:href="#B" x="399.042" y="137.34"/><use xlink:href="#C" x="399.042" y="132.167"/><use xlink:href="#D" x="399.042" y="128.828"/><use xlink:href="#E" x="399.042" y="125.536"/><use xlink:href="#F" x="399.042" y="118.483"/><use xlink:href="#G" x="399.042" y="114.96"/><use xlink:href="#B" x="399.042" y="110.258"/><use xlink:href="#H" x="399.042" y="107.907"/><use xlink:href="#I" x="399.042" y="103.675"/><use xlink:href="#H" x="399.042" y="96.621"/><use xlink:href="#J" x="399.042" y="92.389"/><use xlink:href="#K" x="399.042" y="87.687"/><use xlink:href="#E" x="399.042" y="82.985"/><use xlink:href="#L" x="399.042" y="75.931"/><use xlink:href="#M" x="399.042" y="71.229"/><use xlink:href="#N" x="399.042" y="68.878"/><use xlink:href="#O" x="399.042" y="64.646"/><use xlink:href="#P" x="399.042" y="60.414"/><use xlink:href="#Q" x="399.042" y="56.181"/><use xlink:href="#R" x="399.042" y="51.008"/><use xlink:href="#S" x="399.042" y="47.908"/><use xlink:href="#T" x="399.042" y="43.588"/><use xlink:href="#U" x="403.164" y="40.487"/><use xlink:href="#V" x="403.164" y="45.891"/><use xlink:href="#V" x="403.164" y="52.466"/><use xlink:href="#W" x="403.164" y="56.228"/><use xlink:href="#X" x="403.164" y="59.567"/><use xlink:href="#Y" x="403.164" y="62.859"/><use xlink:href="#Z" x="403.164" y="66.86"/><use xlink:href="#aa" x="403.164" y="74.144"/><use xlink:href="#aa" x="403.164" y="76.495"/><use xlink:href="#ab" x="403.164" y="78.847"/><use xlink:href="#ac" x="403.164" y="83.079"/><use xlink:href="#ab" x="403.164" y="90.132"/><use xlink:href="#ad" x="403.164" y="94.364"/><use xlink:href="#ae" x="403.164" y="99.066"/><use xlink:href="#Y" x="403.164" y="103.769"/><use xlink:href="#af" x="403.164" y="108.001"/><use xlink:href="#ag" x="403.164" y="113.173"/><use xlink:href="#V" x="403.164" y="117.876"/><use xlink:href="#ah" x="403.164" y="121.638"/><use xlink:href="#Y" x="403.164" y="126.34"/><use xlink:href="#ai" x="403.164" y="130.572"/><use xlink:href="#aj" x="403.164" y="136.693"/><use xlink:href="#ak" x="403.164" y="141.395"/><use xlink:href="#al" x="403.164" y="143.746"/><use xlink:href="#am" x="403.164" y="147.978"/><use xlink:href="#an" x="403.164" y="152.21"/><use xlink:href="#af" x="403.164" y="156.443"/><use xlink:href="#ao" x="403.164" y="161.624"/><use xlink:href="#ap" x="403.164" y="164.724"/><use xlink:href="#aq" x="403.164" y="169.466"/><use xlink:href="#ar" x="69.174" y="61.174"/><use xlink:href="#as" x="89.043" y="51.089" fill="red"/><use xlink:href="#at" x="89.043" y="61.174"/><use xlink:href="#au" x="97.459" y="61.174"/><use xlink:href="#av" x="107.215" y="61.174"/><use xlink:href="#aw" x="114.698" y="61.174"/><use xlink:href="#ax" x="117.448" y="61.174"/><use xlink:href="#ay" x="122.649" y="61.174"/><use xlink:href="#aw" x="128.65" y="61.174"/><use xlink:href="#ax" x="131.4" y="61.174"/><use xlink:href="#az" x="140.497" y="61.174"/><use xlink:href="#au" x="148.137" y="61.174"/><use xlink:href="#aA" x="153.995" y="61.174"/><use xlink:href="#aB" x="157.426" y="61.174"/><use xlink:href="#aC" x="163.032" y="61.174"/><use xlink:href="#aD" x="172.286" y="61.174"/><use xlink:href="#aE" x="179.435" y="61.174"/><use xlink:href="#au" x="185.436" y="61.174"/><use xlink:href="#av" x="195.191" y="61.174"/><use xlink:href="#aw" x="202.675" y="61.174"/><use xlink:href="#ax" x="205.425" y="61.174"/><use xlink:href="#ay" x="210.625" y="61.174"/><use xlink:href="#aw" x="216.627" y="61.174"/><use xlink:href="#ax" x="219.376" y="61.174"/><use xlink:href="#az" x="228.474" y="61.174"/><use xlink:href="#au" x="236.113" y="61.174"/><use xlink:href="#aA" x="241.971" y="61.174"/><use xlink:href="#aB" x="245.402" y="61.174"/><use xlink:href="#aC" x="251.009" y="61.174"/><use xlink:href="#aD" x="260.263" y="61.174"/><use xlink:href="#au" x="267.412" y="61.174"/><use xlink:href="#aF" x="277.17" y="51.089" fill="red"/><use xlink:href="#aG" x="289.902" y="46.749" fill="red"/><use xlink:href="#aH" x="277.17" y="61.174"/><use xlink:href="#aB" x="284.295" y="61.174"/><use xlink:href="#aI" x="289.902" y="61.174"/><use xlink:href="#aw" x="295.903" y="61.174"/><use xlink:href="#ax" x="298.653" y="61.174"/><use xlink:href="#aD" x="303.854" y="61.174"/><use xlink:href="#aJ" x="89.043" y="72.733" fill="red"/><use xlink:href="#aK" x="89.043" y="82.818"/><use xlink:href="#aL" x="94.722" y="82.818"/><use xlink:href="#aM" x="98.703" y="82.818"/><use xlink:href="#aN" x="103.784" y="82.818"/><use xlink:href="#ay" x="109.139" y="82.818"/><use xlink:href="#aO" x="115.141" y="82.818"/><use xlink:href="#aE" x="120.748" y="82.818"/><use xlink:href="#aP" x="126.749" y="82.818"/><use xlink:href="#aD" x="131.83" y="82.818"/><use xlink:href="#aK" x="138.979" y="82.818"/><use xlink:href="#au" x="145.303" y="82.818"/><use xlink:href="#aQ" x="151.161" y="82.818"/><use xlink:href="#aK" x="155.644" y="82.818"/><use xlink:href="#aw" x="161.646" y="82.818"/><use xlink:href="#ax" x="164.395" y="82.818"/><use xlink:href="#aQ" x="169.596" y="82.818"/><use xlink:href="#aM" x="174.079" y="82.818"/><use xlink:href="#aF" x="183.059" y="72.733" fill="red"/><use xlink:href="#aG" x="195.791" y="68.393" fill="red"/><use xlink:href="#aQ" x="183.059" y="82.818"/><use xlink:href="#aw" x="187.542" y="82.818"/><use xlink:href="#aR" x="190.292" y="82.818"/><use xlink:href="#aD" x="195.492" y="82.818"/><use xlink:href="#aK" x="89.043" y="104.462"/><use xlink:href="#au" x="95.367" y="104.462"/><use xlink:href="#aQ" x="101.225" y="104.462"/><use xlink:href="#aA" x="105.708" y="104.462"/><use xlink:href="#aS" x="109.462" y="104.462"/><use xlink:href="#aT" x="115.464" y="104.462"/><use xlink:href="#aU" x="120.664" y="104.462"/><use xlink:href="#aB" x="126.665" y="104.462"/><use xlink:href="#aV" x="132.272" y="104.462"/><use xlink:href="#aC" x="139.254" y="104.462"/><use xlink:href="#ax" x="148.507" y="104.462"/><use xlink:href="#aW" x="153.708" y="104.462"/><use xlink:href="#au" x="159.566" y="104.462"/><use xlink:href="#aW" x="169.321" y="104.462"/><use xlink:href="#aA" x="175.179" y="104.462"/><use xlink:href="#au" x="178.61" y="104.462"/><use xlink:href="#aQ" x="184.468" y="104.462"/><use xlink:href="#aS" x="188.951" y="104.462"/><use xlink:href="#aX" x="198.85" y="104.462"/><use xlink:href="#aE" x="214.451" y="104.462"/><use xlink:href="#au" x="220.452" y="104.462"/><use xlink:href="#av" x="230.208" y="104.462"/><use xlink:href="#aw" x="237.691" y="104.462"/><use xlink:href="#ax" x="240.441" y="104.462"/><use xlink:href="#ay" x="245.642" y="104.462"/><use xlink:href="#aw" x="251.643" y="104.462"/><use xlink:href="#ax" x="254.393" y="104.462"/><use xlink:href="#as" x="263.493" y="94.376" fill="red"/><use xlink:href="#az" x="263.493" y="104.462"/><use xlink:href="#au" x="271.132" y="104.462"/><use xlink:href="#aA" x="276.99" y="104.462"/><use xlink:href="#aB" x="280.421" y="104.462"/><use xlink:href="#aC" x="286.028" y="104.462"/><use xlink:href="#aY" x="295.281" y="104.462"/><use xlink:href="#as" x="89.043" y="116.02" fill="red"/><use xlink:href="#aZ" x="89.043" y="126.105"/><use xlink:href="#aw" x="97.244" y="126.105"/><use xlink:href="#ax" x="99.994" y="126.105"/><use xlink:href="#aT" x="105.194" y="126.105"/><use xlink:href="#aU" x="110.395" y="126.105"/><use xlink:href="#aC" x="120.293" y="126.105"/><use xlink:href="#au" x="129.547" y="126.105"/><use xlink:href="#aV" x="135.405" y="126.105"/><use xlink:href="#aB" x="138.489" y="126.105"/><use xlink:href="#aC" x="147.993" y="126.105"/><use xlink:href="#au" x="157.246" y="126.105"/><use xlink:href="#aE" x="163.427" y="126.105"/><use xlink:href="#ba" x="169.428" y="126.105"/><use xlink:href="#aw" x="172.178" y="126.105"/><use xlink:href="#bb" x="174.928" y="126.105"/><use xlink:href="#az" x="178.837" y="126.105"/><use xlink:href="#aB" x="186.476" y="126.105"/><use xlink:href="#ay" x="195.98" y="126.105"/><use xlink:href="#aR" x="202.305" y="126.105"/><use xlink:href="#aE" x="207.505" y="126.105"/><use xlink:href="#aM" x="213.507" y="126.105"/><use xlink:href="#aw" x="218.587" y="126.105"/><use xlink:href="#ax" x="221.337" y="126.105"/><use xlink:href="#aV" x="230.435" y="126.105"/><use xlink:href="#aB" x="233.519" y="126.105"/><use xlink:href="#bc" x="239.126" y="126.105"/><use xlink:href="#bc" x="248.702" y="126.105"/><use xlink:href="#aB" x="254.381" y="126.105"/><use xlink:href="#aF" x="259.99" y="116.02" fill="red"/><use xlink:href="#aG" x="272.723" y="111.68" fill="red"/><use xlink:href="#aE" x="259.99" y="126.105"/><use xlink:href="#aM" x="265.991" y="126.105"/><use xlink:href="#aw" x="271.072" y="126.105"/><use xlink:href="#aE" x="273.822" y="126.105"/><use xlink:href="#aA" x="279.823" y="126.105"/><use xlink:href="#au" x="283.254" y="126.105"/><use xlink:href="#aD" x="289.112" y="126.105"/><use xlink:href="#az" x="89.043" y="147.749"/><use xlink:href="#aM" x="97.005" y="147.749"/><use xlink:href="#aI" x="102.086" y="147.749"/><use xlink:href="#aw" x="108.087" y="147.749"/><use xlink:href="#ax" x="110.837" y="147.749"/><use xlink:href="#aQ" x="116.037" y="147.749"/><use xlink:href="#aw" x="120.521" y="147.749"/><use xlink:href="#ax" x="123.27" y="147.749"/><use xlink:href="#aI" x="128.471" y="147.749"/><use xlink:href="#aw" x="134.472" y="147.749"/><use xlink:href="#ax" x="137.222" y="147.749"/><use xlink:href="#aL" x="146.319" y="147.749"/><use xlink:href="#aO" x="150.3" y="147.749"/><use xlink:href="#bc" x="155.907" y="147.749"/><use xlink:href="#aC" x="165.483" y="147.749"/><use xlink:href="#au" x="174.736" y="147.749"/><use xlink:href="#aw" x="180.594" y="147.749"/><use xlink:href="#aT" x="183.344" y="147.749"/><use xlink:href="#aU" x="188.544" y="147.749"/><use xlink:href="#aX" x="198.443" y="147.749"/><use xlink:href="#aV" x="214.044" y="147.749"/><use xlink:href="#aB" x="217.129" y="147.749"/><use xlink:href="#bc" x="222.736" y="147.749"/><use xlink:href="#au" x="232.312" y="147.749"/><use xlink:href="#bd" x="238.17" y="147.749"/><use xlink:href="#aB" x="244.422" y="147.749"/><use xlink:href="#aL" x="249.706" y="147.749"/><use xlink:href="#aB" x="253.687" y="147.749"/><use xlink:href="#az" x="263.191" y="147.749"/><use xlink:href="#aw" x="271.153" y="147.749"/><use xlink:href="#ax" x="273.903" y="147.749"/><use xlink:href="#as" x="279.107" y="137.664" fill="red"/><use xlink:href="#aT" x="279.107" y="147.749"/><use xlink:href="#aM" x="284.307" y="147.749"/><use xlink:href="#au" x="289.388" y="147.749"/><use xlink:href="#aL" x="294.923" y="147.749"/><use xlink:href="#aI" x="298.904" y="147.749"/><use xlink:href="#aB" x="304.906" y="147.749"/><use xlink:href="#aY" x="310.513" y="147.749"/><use xlink:href="#be" x="72.533" y="172.381"/><use xlink:href="#bf" x="89.043" y="162.296" fill="red"/><use xlink:href="#aH" x="89.043" y="172.381"/><use xlink:href="#au" x="96.168" y="172.381"/><use xlink:href="#aQ" x="102.026" y="172.381"/><use xlink:href="#bb" x="106.509" y="172.381"/><use xlink:href="#aB" x="110.741" y="172.381"/><use xlink:href="#az" x="116.025" y="172.381"/><use xlink:href="#aD" x="123.987" y="172.381"/><use xlink:href="#aH" x="131.137" y="172.381"/><use xlink:href="#aB" x="138.262" y="172.381"/><use xlink:href="#aI" x="143.869" y="172.381"/><use xlink:href="#aw" x="149.87" y="172.381"/><use xlink:href="#ax" x="152.62" y="172.381"/><use xlink:href="#aD" x="157.82" y="172.381"/><use xlink:href="#bg" x="164.971" y="162.296" fill="red"/><use xlink:href="#aK" x="164.971" y="172.381"/><use xlink:href="#aL" x="170.65" y="172.381"/><use xlink:href="#aM" x="174.631" y="172.381"/><use xlink:href="#aN" x="179.712" y="172.381"/><use xlink:href="#aC" x="188.965" y="172.381"/><use xlink:href="#au" x="198.218" y="172.381"/><use xlink:href="#aw" x="204.076" y="172.381"/><use xlink:href="#aT" x="206.825" y="172.381"/><use xlink:href="#aU" x="212.026" y="172.381"/><use xlink:href="#aS" x="221.925" y="172.381"/><use xlink:href="#aQ" x="227.926" y="172.381"/><use xlink:href="#bb" x="232.409" y="172.381"/><use xlink:href="#aB" x="236.641" y="172.381"/><use xlink:href="#aT" x="242.248" y="172.381"/><use xlink:href="#aU" x="247.449" y="172.381"/><use xlink:href="#az" x="257.347" y="172.381"/><use xlink:href="#aB" x="264.987" y="172.381"/><use xlink:href="#aL" x="270.271" y="172.381"/><use xlink:href="#bb" x="274.252" y="172.381"/><use xlink:href="#au" x="278.484" y="172.381"/><use xlink:href="#az" x="284.019" y="172.381"/><use xlink:href="#aF" x="291.982" y="162.296" fill="red"/><use xlink:href="#aG" x="304.715" y="157.956" fill="red"/><use xlink:href="#aI" x="291.982" y="172.381"/><use xlink:href="#aw" x="297.983" y="172.381"/><use xlink:href="#bc" x="300.733" y="172.381"/><use xlink:href="#aB" x="306.412" y="172.381"/><use xlink:href="#aD" x="312.019" y="172.381"/><use xlink:href="#bf" x="89.043" y="183.94" fill="red"/><use xlink:href="#aQ" x="89.043" y="194.025"/><use xlink:href="#bb" x="93.526" y="194.025"/><use xlink:href="#aL" x="97.758" y="194.025"/><use xlink:href="#aB" x="101.739" y="194.025"/><use xlink:href="#bh" x="107.346" y="194.025"/><use xlink:href="#ax" x="112.427" y="194.025"/><use xlink:href="#aK" x="121.525" y="194.025"/><use xlink:href="#aL" x="127.203" y="194.025"/><use xlink:href="#aM" x="131.184" y="194.025"/><use xlink:href="#aN" x="136.265" y="194.025"/><use xlink:href="#bi" x="145.52" y="183.94" fill="red"/><use xlink:href="#ay" x="145.52" y="194.025"/><use xlink:href="#aL" x="151.199" y="194.025"/><use xlink:href="#aB" x="155.18" y="194.025"/><use xlink:href="#aC" x="160.787" y="194.025"/><use xlink:href="#aw" x="170.04" y="194.025"/><use xlink:href="#ax" x="172.789" y="194.025"/><use xlink:href="#az" x="181.887" y="194.025"/><use xlink:href="#aB" x="189.526" y="194.025"/><use xlink:href="#aL" x="194.81" y="194.025"/><use xlink:href="#aW" x="198.791" y="194.025"/><use xlink:href="#aF" x="208.547" y="183.94" fill="red"/><use xlink:href="#aG" x="221.279" y="179.6" fill="red"/><use xlink:href="#aC" x="208.547" y="194.025"/><use xlink:href="#au" x="217.8" y="194.025"/><use xlink:href="#aw" x="223.658" y="194.025"/><use xlink:href="#aT" x="226.408" y="194.025"/><use xlink:href="#aU" x="231.608" y="194.025"/><use xlink:href="#bj" x="237.61" y="194.025"/><use xlink:href="#aJ" x="89.043" y="205.583" fill="red"/><use xlink:href="#aI" x="89.043" y="215.669"/><use xlink:href="#aw" x="95.044" y="215.669"/><use xlink:href="#ax" x="97.794" y="215.669"/><use xlink:href="#aT" x="102.994" y="215.669"/><use xlink:href="#aU" x="108.195" y="215.669"/><use xlink:href="#aC" x="118.094" y="215.669"/><use xlink:href="#au" x="127.347" y="215.669"/><use xlink:href="#aV" x="133.205" y="215.669"/><use xlink:href="#ax" x="136.289" y="215.669"/><use xlink:href="#aQ" x="145.387" y="215.669"/><use xlink:href="#ax" x="149.87" y="215.669"/><use xlink:href="#aL" x="155.07" y="215.669"/><use xlink:href="#aT" x="159.052" y="215.669"/><use xlink:href="#ax" x="164.252" y="215.669"/><use xlink:href="#aI" x="173.35" y="215.669"/><use xlink:href="#aw" x="179.351" y="215.669"/><use xlink:href="#ax" x="182.101" y="215.669"/><use xlink:href="#aQ" x="191.198" y="215.669"/><use xlink:href="#bc" x="195.682" y="215.669"/><use xlink:href="#aA" x="201.36" y="215.669"/><use xlink:href="#aB" x="204.791" y="215.669"/><use xlink:href="#aI" x="210.398" y="215.669"/><use xlink:href="#aw" x="216.4" y="215.669"/><use xlink:href="#aB" x="219.149" y="215.669"/><use xlink:href="#aQ" x="228.653" y="215.669"/><use xlink:href="#aw" x="233.137" y="215.669"/><use xlink:href="#aR" x="235.886" y="215.669"/><use xlink:href="#aE" x="244.984" y="215.669"/><use xlink:href="#au" x="250.985" y="215.669"/><use xlink:href="#aF" x="260.743" y="205.583" fill="red"/><use xlink:href="#aG" x="273.476" y="201.244" fill="red"/><use xlink:href="#aM" x="260.743" y="215.669"/><use xlink:href="#aA" x="265.824" y="215.669"/><use xlink:href="#ax" x="269.255" y="215.669"/><use xlink:href="#aW" x="274.455" y="215.669"/><use xlink:href="#au" x="280.313" y="215.669"/><use xlink:href="#aD" x="286.171" y="215.669"/><use xlink:href="#aJ" x="89.043" y="227.227" fill="red"/><use xlink:href="#aE" x="89.043" y="237.312"/><use xlink:href="#au" x="95.044" y="237.312"/><use xlink:href="#aK" x="104.8" y="237.312"/><use xlink:href="#au" x="111.124" y="237.312"/><use xlink:href="#aK" x="116.982" y="237.312"/><use xlink:href="#ax" x="123.306" y="237.312"/><use xlink:href="#aA" x="128.506" y="237.312"/><use xlink:href="#aI" x="132.26" y="237.312"/><use xlink:href="#aw" x="138.262" y="237.312"/><use xlink:href="#aB" x="141.011" y="237.312"/><use xlink:href="#aI" x="146.618" y="237.312"/><use xlink:href="#aw" x="152.62" y="237.312"/><use xlink:href="#aB" x="155.369" y="237.312"/><use xlink:href="#aT" x="164.874" y="237.312"/><use xlink:href="#aM" x="170.074" y="237.312"/><use xlink:href="#aN" x="175.155" y="237.312"/><use xlink:href="#aI" x="180.511" y="237.312"/><use xlink:href="#bk" x="186.512" y="237.312"/><use xlink:href="#az" x="192.047" y="237.312"/><use xlink:href="#aK" x="203.907" y="237.312"/><use xlink:href="#aL" x="209.585" y="237.312"/><use xlink:href="#aM" x="213.566" y="237.312"/><use xlink:href="#ax" x="218.647" y="237.312"/><use xlink:href="#aQ" x="223.848" y="237.312"/><use xlink:href="#aF" x="228.333" y="227.227" fill="red"/><use xlink:href="#aG" x="241.065" y="222.887" fill="red"/><use xlink:href="#bb" x="228.333" y="237.312"/><use xlink:href="#aR" x="232.565" y="237.312"/><use xlink:href="#aK" x="237.765" y="237.312"/><use xlink:href="#aT" x="244.09" y="237.312"/><use xlink:href="#aM" x="249.29" y="237.312"/><use xlink:href="#aN" x="254.371" y="237.312"/><use xlink:href="#aT" x="259.727" y="237.312"/><use xlink:href="#aU" x="264.927" y="237.312"/><use xlink:href="#aY" x="270.929" y="237.312"/><use xlink:href="#bg" x="89.043" y="248.871" fill="red"/><use xlink:href="#bl" x="89.043" y="258.956"/><use xlink:href="#aK" x="95.547" y="258.956"/><use xlink:href="#aL" x="101.225" y="258.956"/><use xlink:href="#aB" x="105.206" y="258.956"/><use xlink:href="#az" x="110.49" y="258.956"/><use xlink:href="#aw" x="118.452" y="258.956"/><use xlink:href="#ax" x="121.202" y="258.956"/><use xlink:href="#aE" x="126.402" y="258.956"/><use xlink:href="#ba" x="132.404" y="258.956"/><use xlink:href="#aw" x="135.153" y="258.956"/><use xlink:href="#az" x="137.903" y="258.956"/><use xlink:href="#aN" x="145.865" y="258.956"/><use xlink:href="#as" x="155.12" y="248.871" fill="red"/><use xlink:href="#aI" x="155.12" y="258.956"/><use xlink:href="#aw" x="161.121" y="258.956"/><use xlink:href="#ax" x="163.871" y="258.956"/><use xlink:href="#aT" x="169.071" y="258.956"/><use xlink:href="#aU" x="174.272" y="258.956"/><use xlink:href="#aS" x="184.171" y="258.956"/><use xlink:href="#aE" x="190.172" y="258.956"/><use xlink:href="#ax" x="196.173" y="258.956"/><use xlink:href="#aL" x="201.374" y="258.956"/><use xlink:href="#aM" x="205.355" y="258.956"/><use xlink:href="#aB" x="210.436" y="258.956"/><use xlink:href="#aC" x="219.94" y="258.956"/><use xlink:href="#aI" x="229.193" y="258.956"/><use xlink:href="#aw" x="235.195" y="258.956"/><use xlink:href="#ax" x="237.944" y="258.956"/><use xlink:href="#aD" x="243.145" y="258.956"/><use xlink:href="#ay" x="250.294" y="258.956"/><use xlink:href="#au" x="256.618" y="258.956"/><use xlink:href="#aF" x="266.374" y="248.871" fill="red"/><use xlink:href="#aG" x="279.107" y="244.531" fill="red"/><use xlink:href="#bc" x="266.374" y="258.956"/><use xlink:href="#au" x="271.73" y="258.956"/><use xlink:href="#aT" x="277.911" y="258.956"/><use xlink:href="#aU" x="283.111" y="258.956"/><use xlink:href="#aB" x="289.112" y="258.956"/><use xlink:href="#aw" x="298.617" y="258.956"/><use xlink:href="#bc" x="305.264" y="258.956"/><use xlink:href="#au" x="310.619" y="258.956"/><use xlink:href="#aL" x="316.155" y="258.956"/><use xlink:href="#aN" x="320.136" y="258.956"/><use xlink:href="#as" x="325.493" y="248.871" fill="red"/><use xlink:href="#aW" x="325.493" y="258.956"/><use xlink:href="#aS" x="331.351" y="258.956"/><use xlink:href="#aV" x="337.352" y="258.956"/><use xlink:href="#ax" x="340.437" y="258.956"/><use xlink:href="#aD" x="345.637" y="258.956"/><use xlink:href="#bi" x="89.043" y="270.514" fill="red"/><use xlink:href="#aB" x="89.043" y="280.6"/><use xlink:href="#ay" x="94.65" y="280.6"/><use xlink:href="#aN" x="100.329" y="280.6"/><use xlink:href="#au" x="109.582" y="280.6"/><use xlink:href="#ba" x="115.44" y="280.6"/><use xlink:href="#ax" x="118.189" y="280.6"/><use xlink:href="#aV" x="123.39" y="280.6"/><use xlink:href="#ax" x="126.474" y="280.6"/><use xlink:href="#bc" x="131.675" y="280.6"/><use xlink:href="#aI" x="141.25" y="280.6"/><use xlink:href="#aw" x="147.252" y="280.6"/><use xlink:href="#ax" x="150.002" y="280.6"/><use xlink:href="#aW" x="155.202" y="280.6"/><use xlink:href="#au" x="161.06" y="280.6"/><use xlink:href="#aE" x="167.241" y="280.6"/><use xlink:href="#aM" x="173.242" y="280.6"/><use xlink:href="#aw" x="178.323" y="280.6"/><use xlink:href="#az" x="181.073" y="280.6"/><use xlink:href="#ax" x="188.712" y="280.6"/><use xlink:href="#aW" x="193.912" y="280.6"/><use xlink:href="#au" x="199.77" y="280.6"/><use xlink:href="#aI" x="209.526" y="280.6"/><use xlink:href="#aw" x="215.527" y="280.6"/><use xlink:href="#ax" x="218.277" y="280.6"/><use xlink:href="#aK" x="227.374" y="280.6"/><use xlink:href="#ax" x="233.698" y="280.6"/><use xlink:href="#aL" x="238.899" y="280.6"/><use xlink:href="#bm" x="242.88" y="280.6"/><use xlink:href="#aS" x="246.454" y="280.6"/><use xlink:href="#aC" x="252.456" y="280.6"/><use xlink:href="#au" x="261.709" y="280.6"/><use xlink:href="#az" x="267.244" y="280.6"/><use xlink:href="#aB" x="274.883" y="280.6"/><use xlink:href="#aA" x="280.49" y="280.6"/><use xlink:href="#aC" x="288.142" y="280.6"/><use xlink:href="#au" x="297.395" y="280.6"/><use xlink:href="#aV" x="303.253" y="280.6"/><use xlink:href="#ax" x="306.337" y="280.6"/><use xlink:href="#aV" x="311.538" y="280.6"/><use xlink:href="#aF" x="318.523" y="270.514" fill="red"/><use xlink:href="#aG" x="331.255" y="266.175" fill="red"/><use xlink:href="#aW" x="318.523" y="280.6"/><use xlink:href="#aA" x="324.381" y="280.6"/><use xlink:href="#au" x="327.812" y="280.6"/><use xlink:href="#az" x="333.347" y="280.6"/><use xlink:href="#aN" x="341.309" y="280.6"/><use xlink:href="#aD" x="345.685" y="280.6"/><use xlink:href="#aJ" x="89.043" y="292.158" fill="red"/><use xlink:href="#ay" x="89.043" y="302.243"/><use xlink:href="#au" x="95.367" y="302.243"/><use xlink:href="#aV" x="105.122" y="302.243"/><use xlink:href="#aB" x="108.207" y="302.243"/><use xlink:href="#aM" x="117.711" y="302.243"/><use xlink:href="#ax" x="122.792" y="302.243"/><use xlink:href="#aK" x="127.992" y="302.243"/><use xlink:href="#aQ" x="133.994" y="302.243"/><use xlink:href="#aS" x="138.477" y="302.243"/><use xlink:href="#aA" x="144.478" y="302.243"/><use xlink:href="#ay" x="148.232" y="302.243"/><use xlink:href="#aN" x="153.911" y="302.243"/><use xlink:href="#aC" x="159.267" y="302.243"/><use xlink:href="#aQ" x="172.417" y="302.243"/><use xlink:href="#aw" x="176.9" y="302.243"/><use xlink:href="#aR" x="179.65" y="302.243"/><use xlink:href="#aV" x="188.748" y="302.243"/><use xlink:href="#ax" x="191.832" y="302.243"/><use xlink:href="#aW" x="197.032" y="302.243"/><use xlink:href="#au" x="202.89" y="302.243"/><use xlink:href="#aW" x="212.646" y="302.243"/><use xlink:href="#aL" x="218.504" y="302.243"/><use xlink:href="#aM" x="222.485" y="302.243"/><use xlink:href="#ax" x="227.566" y="302.243"/><use xlink:href="#aF" x="232.768" y="292.158" fill="red"/><use xlink:href="#aG" x="245.501" y="287.818" fill="red"/><use xlink:href="#aT" x="232.768" y="302.243"/><use xlink:href="#aU" x="237.968" y="302.243"/><use xlink:href="#aB" x="243.97" y="302.243"/><use xlink:href="#aC" x="249.577" y="302.243"/><use xlink:href="#aw" x="258.83" y="302.243"/><use xlink:href="#aD" x="261.58" y="302.243"/><use xlink:href="#bi" x="89.043" y="313.802" fill="red"/><use xlink:href="#ay" x="89.043" y="323.887"/><use xlink:href="#au" x="95.367" y="323.887"/><use xlink:href="#aV" x="105.122" y="323.887"/><use xlink:href="#aB" x="108.207" y="323.887"/><use xlink:href="#aM" x="117.711" y="323.887"/><use xlink:href="#ax" x="122.792" y="323.887"/><use xlink:href="#aK" x="127.992" y="323.887"/><use xlink:href="#aQ" x="133.994" y="323.887"/><use xlink:href="#aS" x="138.477" y="323.887"/><use xlink:href="#aA" x="144.478" y="323.887"/><use xlink:href="#ay" x="148.232" y="323.887"/><use xlink:href="#aN" x="153.911" y="323.887"/><use xlink:href="#aC" x="159.267" y="323.887"/><use xlink:href="#aQ" x="172.417" y="323.887"/><use xlink:href="#aw" x="176.9" y="323.887"/><use xlink:href="#aR" x="179.65" y="323.887"/><use xlink:href="#aV" x="188.748" y="323.887"/><use xlink:href="#ax" x="191.832" y="323.887"/><use xlink:href="#aW" x="197.032" y="323.887"/><use xlink:href="#au" x="202.89" y="323.887"/><use xlink:href="#aW" x="212.646" y="323.887"/><use xlink:href="#aL" x="218.504" y="323.887"/><use xlink:href="#aM" x="222.485" y="323.887"/><use xlink:href="#ax" x="227.566" y="323.887"/><use xlink:href="#aF" x="232.768" y="313.802" fill="red"/><use xlink:href="#aG" x="245.501" y="309.462" fill="red"/><use xlink:href="#aT" x="232.768" y="323.887"/><use xlink:href="#aU" x="237.968" y="323.887"/><use xlink:href="#aB" x="243.97" y="323.887"/><use xlink:href="#aC" x="249.577" y="323.887"/><use xlink:href="#aw" x="258.83" y="323.887"/><use xlink:href="#aY" x="261.58" y="323.887"/><use xlink:href="#ar" x="69.174" y="348.519"/><use xlink:href="#as" x="89.043" y="338.434" fill="red"/><use xlink:href="#at" x="89.043" y="348.519"/><use xlink:href="#au" x="97.459" y="348.519"/><use xlink:href="#av" x="107.215" y="348.519"/><use xlink:href="#aw" x="114.698" y="348.519"/><use xlink:href="#ax" x="117.448" y="348.519"/><use xlink:href="#ay" x="122.649" y="348.519"/><use xlink:href="#aw" x="128.65" y="348.519"/><use xlink:href="#ax" x="131.4" y="348.519"/><use xlink:href="#az" x="140.497" y="348.519"/><use xlink:href="#au" x="148.137" y="348.519"/><use xlink:href="#aA" x="153.995" y="348.519"/><use xlink:href="#aB" x="157.426" y="348.519"/><use xlink:href="#aC" x="163.032" y="348.519"/><use xlink:href="#bn" x="176.183" y="348.519"/><use xlink:href="#be" x="72.533" y="373.152"/><use xlink:href="#bf" x="89.043" y="363.066" fill="red"/><use xlink:href="#aZ" x="89.043" y="373.152"/><use xlink:href="#aB" x="97.244" y="373.152"/><use xlink:href="#av" x="106.748" y="373.152"/><use xlink:href="#aw" x="114.232" y="373.152"/><use xlink:href="#ax" x="116.982" y="373.152"/><use xlink:href="#ay" x="122.182" y="373.152"/><use xlink:href="#aw" x="128.184" y="373.152"/><use xlink:href="#ax" x="130.933" y="373.152"/><use xlink:href="#aD" x="136.134" y="373.152"/><use xlink:href="#bg" x="143.284" y="363.066" fill="red"/><use xlink:href="#aH" x="143.284" y="373.152"/><use xlink:href="#aB" x="150.409" y="373.152"/><use xlink:href="#aI" x="156.016" y="373.152"/><use xlink:href="#aw" x="162.017" y="373.152"/><use xlink:href="#ax" x="164.767" y="373.152"/><use xlink:href="#aD" x="169.968" y="373.152"/><use xlink:href="#aK" x="177.117" y="373.152"/><use xlink:href="#aB" x="183.118" y="373.152"/><use xlink:href="#bb" x="188.725" y="373.152"/><use xlink:href="#aL" x="192.957" y="373.152"/><use xlink:href="#aM" x="196.938" y="373.152"/><use xlink:href="#aO" x="202.019" y="373.152"/><use xlink:href="#aC" x="211.523" y="373.152"/><use xlink:href="#au" x="220.776" y="373.152"/><use xlink:href="#aV" x="226.634" y="373.152"/><use xlink:href="#ax" x="229.719" y="373.152"/><use xlink:href="#aF" x="238.818" y="363.066" fill="red"/><use xlink:href="#aG" x="251.55" y="358.727" fill="red"/><use xlink:href="#au" x="238.818" y="373.152"/><use xlink:href="#aT" x="244.999" y="373.152"/><use xlink:href="#aM" x="250.199" y="373.152"/><use xlink:href="#aN" x="255.28" y="373.152"/><use xlink:href="#aD" x="259.656" y="373.152"/><use xlink:href="#bf" x="89.043" y="384.71" fill="red"/><use xlink:href="#az" x="89.043" y="394.795"/><use xlink:href="#bo" x="100.902" y="394.795"/><use xlink:href="#au" x="107.908" y="394.795"/><use xlink:href="#ay" x="113.766" y="394.795"/><use xlink:href="#aw" x="119.767" y="394.795"/><use xlink:href="#ax" x="122.517" y="394.795"/><use xlink:href="#aQ" x="131.615" y="394.795"/><use xlink:href="#aw" x="136.098" y="394.795"/><use xlink:href="#aR" x="138.848" y="394.795"/><use xlink:href="#bi" x="147.946" y="384.71" fill="red"/><use xlink:href="#aT" x="147.946" y="394.795"/><use xlink:href="#aU" x="153.146" y="394.795"/><use xlink:href="#aL" x="159.148" y="394.795"/><use xlink:href="#au" x="163.129" y="394.795"/><use xlink:href="#aI" x="168.987" y="394.795"/><use xlink:href="#aw" x="174.988" y="394.795"/><use xlink:href="#aR" x="177.738" y="394.795"/><use xlink:href="#aD" x="182.938" y="394.795"/><use xlink:href="#aI" x="190.087" y="394.795"/><use xlink:href="#aw" x="196.089" y="394.795"/><use xlink:href="#ax" x="198.838" y="394.795"/><use xlink:href="#aM" x="207.936" y="394.795"/><use xlink:href="#au" x="213.017" y="394.795"/><use xlink:href="#aQ" x="218.875" y="394.795"/><use xlink:href="#bb" x="223.358" y="394.795"/><use xlink:href="#aB" x="227.59" y="394.795"/><use xlink:href="#az" x="232.874" y="394.795"/><use xlink:href="#aw" x="240.836" y="394.795"/><use xlink:href="#aB" x="243.586" y="394.795"/><use xlink:href="#aV" x="249.193" y="394.795"/><use xlink:href="#aQ" x="256.175" y="394.795"/><use xlink:href="#aB" x="260.658" y="394.795"/><use xlink:href="#aC" x="266.265" y="394.795"/><use xlink:href="#ax" x="275.518" y="394.795"/><use xlink:href="#aV" x="280.718" y="394.795"/><use xlink:href="#aC" x="287.7" y="394.795"/><use xlink:href="#au" x="296.953" y="394.795"/><use xlink:href="#aV" x="302.811" y="394.795"/><use xlink:href="#ax" x="305.895" y="394.795"/><use xlink:href="#aV" x="311.096" y="394.795"/><use xlink:href="#aF" x="318.08" y="384.71" fill="red"/><use xlink:href="#aG" x="330.813" y="380.37" fill="red"/><use xlink:href="#aE" x="318.08" y="394.795"/><use xlink:href="#aS" x="324.081" y="394.795"/><use xlink:href="#aQ" x="330.083" y="394.795"/><use xlink:href="#aM" x="334.566" y="394.795"/><use xlink:href="#aN" x="339.647" y="394.795"/><use xlink:href="#bp" x="345.003" y="394.795"/><use xlink:href="#aJ" x="89.043" y="406.354" fill="red"/><use xlink:href="#bq" x="89.043" y="416.439"/><use xlink:href="#aQ" x="97.017" y="416.439"/><use xlink:href="#bb" x="101.5" y="416.439"/><use xlink:href="#aL" x="105.732" y="416.439"/><use xlink:href="#aM" x="109.713" y="416.439"/><use xlink:href="#ax" x="114.794" y="416.439"/><use xlink:href="#bh" x="119.994" y="416.439"/><use xlink:href="#aC" x="128.973" y="416.439"/><use xlink:href="#aI" x="138.226" y="416.439"/><use xlink:href="#aw" x="144.227" y="416.439"/><use xlink:href="#ax" x="146.977" y="416.439"/><use xlink:href="#bo" x="156.075" y="416.439"/><use xlink:href="#aN" x="163.08" y="416.439"/><use xlink:href="#au" x="172.333" y="416.439"/><use xlink:href="#aE" x="178.514" y="416.439"/><use xlink:href="#aQ" x="188.413" y="416.439"/><use xlink:href="#aw" x="192.896" y="416.439"/><use xlink:href="#aE" x="195.646" y="416.439"/><use xlink:href="#aA" x="201.647" y="416.439"/><use xlink:href="#aB" x="205.078" y="416.439"/><use xlink:href="#aD" x="210.685" y="416.439"/><use xlink:href="#bc" x="217.834" y="416.439"/><use xlink:href="#bb" x="223.513" y="416.439"/><use xlink:href="#bk" x="227.745" y="416.439"/><use xlink:href="#aL" x="233.28" y="416.439"/><use xlink:href="#ax" x="237.261" y="416.439"/><use xlink:href="#aI" x="246.359" y="416.439"/><use xlink:href="#aB" x="252.36" y="416.439"/><use xlink:href="#aC" x="261.864" y="416.439"/><use xlink:href="#aI" x="271.118" y="416.439"/><use xlink:href="#aw" x="277.119" y="416.439"/><use xlink:href="#ax" x="279.869" y="416.439"/><use xlink:href="#aM" x="288.966" y="416.439"/><use xlink:href="#aB" x="294.047" y="416.439"/><use xlink:href="#aQ" x="299.654" y="416.439"/><use xlink:href="#bb" x="304.137" y="416.439"/><use xlink:href="#aB" x="308.369" y="416.439"/><use xlink:href="#aF" x="313.98" y="406.354" fill="red"/><use xlink:href="#aG" x="326.712" y="402.014" fill="red"/><use xlink:href="#az" x="313.98" y="416.439"/><use xlink:href="#aw" x="321.942" y="416.439"/><use xlink:href="#ba" x="324.692" y="416.439"/><use xlink:href="#aw" x="327.441" y="416.439"/><use xlink:href="#aD" x="330.191" y="416.439"/><use xlink:href="#au" x="89.043" y="438.083"/><use xlink:href="#aE" x="95.224" y="438.083"/><use xlink:href="#aK" x="105.122" y="438.083"/><use xlink:href="#aS" x="111.124" y="438.083"/><use xlink:href="#aJ" x="117.126" y="427.997" fill="red"/><use xlink:href="#aA" x="117.126" y="438.083"/><use xlink:href="#aB" x="120.557" y="438.083"/><use xlink:href="#aK" x="126.164" y="438.083"/><use xlink:href="#ax" x="132.488" y="438.083"/><use xlink:href="#bc" x="137.689" y="438.083"/><use xlink:href="#ba" x="147.265" y="438.083"/><use xlink:href="#aw" x="150.014" y="438.083"/><use xlink:href="#aT" x="152.764" y="438.083"/><use xlink:href="#aM" x="157.964" y="438.083"/><use xlink:href="#aI" x="163.045" y="438.083"/><use xlink:href="#aN" x="169.047" y="438.083"/><use xlink:href="#aT" x="174.402" y="438.083"/><use xlink:href="#aU" x="179.603" y="438.083"/><use xlink:href="#aF" x="189.503" y="427.997" fill="red"/><use xlink:href="#aG" x="202.235" y="423.658" fill="red"/><use xlink:href="#az" x="189.503" y="438.083"/><use xlink:href="#aL" x="197.465" y="438.083"/><use xlink:href="#au" x="201.446" y="438.083"/><use xlink:href="#aW" x="207.304" y="438.083"/><use xlink:href="#bk" x="213.162" y="438.083"/><use xlink:href="#az" x="218.697" y="438.083"/><use xlink:href="#aY" x="226.659" y="438.083"/><use xlink:href="#bg" x="89.043" y="449.641" fill="red"/><use xlink:href="#aZ" x="89.043" y="459.726"/><use xlink:href="#aw" x="97.244" y="459.726"/><use xlink:href="#ax" x="99.994" y="459.726"/><use xlink:href="#aT" x="105.194" y="459.726"/><use xlink:href="#aU" x="110.395" y="459.726"/><use xlink:href="#az" x="120.293" y="459.726"/><use xlink:href="#aK" x="128.255" y="459.726"/><use xlink:href="#aB" x="134.257" y="459.726"/><use xlink:href="#aE" x="139.864" y="459.726"/><use xlink:href="#aI" x="145.865" y="459.726"/><use xlink:href="#aO" x="151.867" y="459.726"/><use xlink:href="#au" x="161.371" y="459.726"/><use xlink:href="#aI" x="167.229" y="459.726"/><use xlink:href="#aw" x="173.23" y="459.726"/><use xlink:href="#aD" x="175.98" y="459.726"/><use xlink:href="#as" x="183.131" y="449.641" fill="red"/><use xlink:href="#bc" x="183.131" y="459.726"/><use xlink:href="#aB" x="188.81" y="459.726"/><use xlink:href="#bh" x="194.417" y="459.726"/><use xlink:href="#aE" x="199.497" y="459.726"/><use xlink:href="#aN" x="205.499" y="459.726"/><use xlink:href="#aE" x="214.752" y="459.726"/><use xlink:href="#au" x="220.753" y="459.726"/><use xlink:href="#aQ" x="230.509" y="459.726"/><use xlink:href="#az" x="234.992" y="459.726"/><use xlink:href="#au" x="242.631" y="459.726"/><use xlink:href="#aV" x="248.489" y="459.726"/><use xlink:href="#ax" x="251.573" y="459.726"/><use xlink:href="#aV" x="256.774" y="459.726"/><use xlink:href="#aF" x="263.756" y="449.641" fill="red"/><use xlink:href="#aG" x="276.488" y="445.301" fill="red"/><use xlink:href="#aQ" x="263.756" y="459.726"/><use xlink:href="#aw" x="268.239" y="459.726"/><use xlink:href="#ax" x="270.989" y="459.726"/><use xlink:href="#aT" x="276.189" y="459.726"/><use xlink:href="#aw" x="281.39" y="459.726"/><use xlink:href="#aD" x="284.139" y="459.726"/><use xlink:href="#bi" x="89.043" y="471.285" fill="red"/><use xlink:href="#aB" x="89.043" y="481.37"/><use xlink:href="#aV" x="98.547" y="481.37"/><use xlink:href="#aB" x="101.632" y="481.37"/><use xlink:href="#aM" x="111.136" y="481.37"/><use xlink:href="#aV" x="116.217" y="481.37"/><use xlink:href="#ax" x="119.301" y="481.37"/><use xlink:href="#aE" x="124.502" y="481.37"/><use xlink:href="#aI" x="130.503" y="481.37"/><use xlink:href="#au" x="136.504" y="481.37"/><use xlink:href="#aT" x="142.685" y="481.37"/><use xlink:href="#aM" x="147.886" y="481.37"/><use xlink:href="#au" x="152.966" y="481.37"/><use xlink:href="#aI" x="158.824" y="481.37"/><use xlink:href="#aN" x="164.826" y="481.37"/><use xlink:href="#aM" x="174.079" y="481.37"/><use xlink:href="#bo" x="183.057" y="481.37"/><use xlink:href="#au" x="190.063" y="481.37"/><use xlink:href="#ay" x="195.921" y="481.37"/><use xlink:href="#aO" x="201.922" y="481.37"/><use xlink:href="#aK" x="211.426" y="481.37"/><use xlink:href="#aL" x="217.105" y="481.37"/><use xlink:href="#aM" x="221.086" y="481.37"/><use xlink:href="#ax" x="226.167" y="481.37"/><use xlink:href="#aV" x="231.367" y="481.37"/><use xlink:href="#aE" x="234.452" y="481.37"/><use xlink:href="#aR" x="240.453" y="481.37"/><use xlink:href="#ay" x="249.551" y="481.37"/><use xlink:href="#ax" x="255.875" y="481.37"/><use xlink:href="#aM" x="261.075" y="481.37"/><use xlink:href="#aF" x="270.057" y="471.285" fill="red"/><use xlink:href="#aG" x="282.789" y="466.945" fill="red"/><use xlink:href="#aQ" x="270.057" y="481.37"/><use xlink:href="#aM" x="274.54" y="481.37"/><use xlink:href="#bc" x="279.621" y="481.37"/><use xlink:href="#au" x="284.977" y="481.37"/><use xlink:href="#aE" x="291.158" y="481.37"/><use xlink:href="#aN" x="297.159" y="481.37"/><use xlink:href="#aD" x="301.535" y="481.37"/><use xlink:href="#aJ" x="89.043" y="492.928" fill="red"/><use xlink:href="#aB" x="89.043" y="503.014"/><use xlink:href="#aV" x="98.547" y="503.014"/><use xlink:href="#aB" x="101.632" y="503.014"/><use xlink:href="#aM" x="111.136" y="503.014"/><use xlink:href="#aV" x="116.217" y="503.014"/><use xlink:href="#ax" x="119.301" y="503.014"/><use xlink:href="#aE" x="124.502" y="503.014"/><use xlink:href="#aI" x="130.503" y="503.014"/><use xlink:href="#au" x="136.504" y="503.014"/><use xlink:href="#aT" x="142.685" y="503.014"/><use xlink:href="#aM" x="147.886" y="503.014"/><use xlink:href="#au" x="152.966" y="503.014"/><use xlink:href="#aI" x="158.824" y="503.014"/><use xlink:href="#aN" x="164.826" y="503.014"/><use xlink:href="#aM" x="174.079" y="503.014"/><use xlink:href="#bo" x="183.057" y="503.014"/><use xlink:href="#au" x="190.063" y="503.014"/><use xlink:href="#ay" x="195.921" y="503.014"/><use xlink:href="#aO" x="201.922" y="503.014"/><use xlink:href="#aK" x="211.426" y="503.014"/><use xlink:href="#aL" x="217.105" y="503.014"/><use xlink:href="#aM" x="221.086" y="503.014"/><use xlink:href="#ax" x="226.167" y="503.014"/><use xlink:href="#aV" x="231.367" y="503.014"/><use xlink:href="#aE" x="234.452" y="503.014"/><use xlink:href="#aR" x="240.453" y="503.014"/><use xlink:href="#ay" x="249.551" y="503.014"/><use xlink:href="#ax" x="255.875" y="503.014"/><use xlink:href="#aM" x="261.075" y="503.014"/><use xlink:href="#aF" x="270.057" y="492.928" fill="red"/><use xlink:href="#aG" x="282.789" y="488.589" fill="red"/><use xlink:href="#aQ" x="270.057" y="503.014"/><use xlink:href="#aM" x="274.54" y="503.014"/><use xlink:href="#bc" x="279.621" y="503.014"/><use xlink:href="#au" x="284.977" y="503.014"/><use xlink:href="#aE" x="291.158" y="503.014"/><use xlink:href="#aN" x="297.159" y="503.014"/><use xlink:href="#aY" x="301.535" y="503.014"/><use xlink:href="#ar" x="69.174" y="527.646"/><use xlink:href="#as" x="89.043" y="517.561" fill="red"/><use xlink:href="#at" x="89.043" y="527.646"/><use xlink:href="#au" x="97.459" y="527.646"/><use xlink:href="#av" x="107.215" y="527.646"/><use xlink:href="#aw" x="114.698" y="527.646"/><use xlink:href="#ax" x="117.448" y="527.646"/><use xlink:href="#ay" x="122.649" y="527.646"/><use xlink:href="#aw" x="128.65" y="527.646"/><use xlink:href="#ax" x="131.4" y="527.646"/><use xlink:href="#az" x="140.497" y="527.646"/><use xlink:href="#au" x="148.137" y="527.646"/><use xlink:href="#aA" x="153.995" y="527.646"/><use xlink:href="#aB" x="157.426" y="527.646"/><use xlink:href="#aC" x="163.032" y="527.646"/><use xlink:href="#bn" x="176.183" y="527.646"/><g clip-path="url(#br)"><path fill="url(#bs)" d="M15.023 579.684v-11.336h388.063v11.336Zm0 0"/></g><use xlink:href="#bt" x="17.008" y="577.985"/><use xlink:href="#bu" x="23.739" y="577.985"/><use xlink:href="#bv" x="270.454" y="577.985"/><use xlink:href="#bw" x="276.117" y="577.985"/><use xlink:href="#bx" x="280.517" y="577.985"/><use xlink:href="#by" x="285.999" y="577.985"/><use xlink:href="#bz" x="289.542" y="577.985"/><use xlink:href="#bA" x="293.726" y="577.985"/><use xlink:href="#bB" x="299.515" y="577.985"/><use xlink:href="#bC" x="303.483" y="577.985"/><use xlink:href="#bB" x="307.451" y="577.985"/><use xlink:href="#bD" x="311.419" y="577.985"/><use xlink:href="#bE" x="318.072" y="577.985"/><use xlink:href="#bB" x="328.701" y="577.985"/><use xlink:href="#bF" x="332.669" y="577.985"/><use xlink:href="#bG" x="339.322" y="577.985"/><use xlink:href="#bB" x="344.888" y="577.985"/><use xlink:href="#bC" x="348.856" y="577.985"/><use xlink:href="#bB" x="352.824" y="577.985"/><use xlink:href="#bH" x="356.792" y="577.985"/><use xlink:href="#bE" x="363.445" y="577.985"/><use xlink:href="#bI" x="374.074" y="577.985"/><use xlink:href="#bJ" x="376.326" y="577.985"/><use xlink:href="#bB" x="380.295" y="577.985"/><use xlink:href="#bD" x="384.263" y="577.985"/><use xlink:href="#bK" x="388.231" y="577.985"/><use xlink:href="#bL" x="393.169" y="577.985"/><use xlink:href="#bB" x="397.137" y="577.985"/><path fill="#f2f2f2" stroke="#000" stroke-miterlimit="10" stroke-width=".797" d="M196.602 576.055v-3.989a2.99 2.99 0 0 1 2.988-2.988h18.93a2.99 2.99 0 0 1 2.988 2.988v3.989a2.99 2.99 0 0 1-2.988 2.988h-18.93a2.99 2.99 0 0 1-2.988-2.988Zm0 0"/><use xlink:href="#bM" x="198.439" y="576.948"/><use xlink:href="#bN" x="203.747" y="576.948"/><use xlink:href="#bN" x="209.055" y="576.948"/><use xlink:href="#bO" x="214.363" y="576.948"/></svg>