<svg xmlns="http://www.w3.org/2000/svg" xmlns:xlink="http://www.w3.org/1999/xlink" width="559.371" height="793.701" viewBox="0 0 419.528 595.276"><defs><path id="f" d="M3.344 2.297v-.078L1.5-2.5l1.844-4.703v-.078c0-.11-.078-.203-.188-.203a.24.24 0 0 0-.203.14L1.11-2.562c-.015.015-.015.046-.015.062 0 .031 0 .063.015.078L2.953 2.36a.24.24 0 0 0 .203.141c.11 0 .188-.094.188-.203m0 0"/><path id="g" d="M4.969-1.422c0-.11-.094-.11-.125-.11-.094 0-.11.048-.14.188-.173.64-.345 1.235-.75 1.235-.282 0-.298-.266-.298-.453 0-.22.016-.313.125-.75L4-2.203l.36-1.39c.062-.282.062-.298.062-.344 0-.172-.11-.266-.281-.266-.25 0-.391.219-.422.437-.188-.375-.469-.64-.922-.64-1.156 0-2.39 1.468-2.39 2.922C.406-.547.952.109 1.718.109c.203 0 .703-.046 1.297-.75a.91.91 0 0 0 .906.75c.36 0 .578-.234.75-.546.156-.36.297-.985.297-.985m-1.375-1.89a.6.6 0 0 1-.031.171l-.485 1.954c-.062.187-.062.203-.203.375-.437.546-.844.703-1.125.703-.5 0-.64-.547-.64-.938 0-.5.312-1.719.546-2.187.313-.578.75-.953 1.157-.953.64 0 .78.812.78.875m0 0"/><path id="h" d="M2.781-2.5c0-.016 0-.047-.015-.062L.922-7.344c-.031-.078-.11-.14-.188-.14a.207.207 0 0 0-.203.203v.078L2.375-2.5.531 2.219v.078c0 .11.094.203.203.203.079 0 .157-.062.188-.14l1.844-4.782c.015-.015.015-.047.015-.078m0 0"/><path id="i" d="M6.047-.156c0-.094-.11-.11-.14-.11-.25 0-.376-.03-.5-.312L4.218-3.297 5.766-4.5c.218-.172.812-.625 1.312-.672.063-.016.156-.031.156-.156 0-.047-.03-.11-.109-.11 0 0-.234.016-.281.016h-.328c-.266 0-.563-.016-.813-.016-.047 0-.172 0-.172.141 0 .11.14.125.14.125.11 0 .173.047.173.11 0 .125-.14.25-.172.28l-.047.048c-.016.015-.031.015-.094.078L2.563-2.344l.609-2.5c.078-.265.125-.328.61-.328.171 0 .265 0 .265-.156 0-.047-.031-.11-.125-.11-.14 0-.313.016-.453.016h-.953l-.453-.016c-.047 0-.172 0-.172.141 0 .125.093.125.234.125.219 0 .438 0 .438.11 0 .046 0 .062-.032.171L1.47-.609c-.078.28-.125.343-.61.343-.171 0-.265 0-.265.157C.594-.047.64 0 .719 0c.031 0 .39-.016.453-.031h.484c.672 0 .89.031.938.031s.156 0 .156-.156c0-.11-.094-.11-.234-.11-.25 0-.438 0-.438-.125 0-.046.047-.218.078-.328l.297-1.203 1.25-.969.985 2.25c.046.094.046.11.046.141 0 .203-.187.234-.343.234-.094 0-.188.016-.188.157 0 .062.047.109.11.109.28 0 .578-.031.843-.031.672 0 .64.031.735.031.03 0 .156 0 .156-.156m0 0"/><path id="j" d="M2.828-1.14c0-.11-.11-.11-.156-.11-.125 0-.125.031-.172.172-.14.516-.406.937-.734.937-.157 0-.188-.109-.188-.25 0-.187.063-.328.188-.656l.515-1.39c.063-.172.094-.25.094-.422 0-.438-.312-.657-.656-.657-.75 0-1.078 1.11-1.078 1.22 0 .108.093.108.14.108.14 0 .14-.03.172-.171.125-.407.375-.938.75-.938.14 0 .172.11.172.25 0 .188-.047.344-.156.61L1.156-.953a1.1 1.1 0 0 0-.078.375c0 .36.266.656.672.656.75 0 1.078-1.125 1.078-1.219m.125-3.704a.354.354 0 0 0-.36-.375.55.55 0 0 0-.53.532c0 .234.171.359.359.359.265 0 .531-.234.531-.516m0 0"/><path id="k" d="M4.14-1.14c0-.11-.109-.11-.14-.11-.14 0-.156.047-.187.172-.11.453-.266.937-.61.937-.14 0-.25-.078-.25-.375 0-.125.031-.265.063-.39.03-.125.03-.172.03-.25 0-.563-.546-.75-1.108-.86.296-.187.625-.53.671-.593.454-.5.766-.688 1.063-.688.11 0 .172.063.203.11-.156.03-.344.171-.344.39s.188.266.281.266c.204 0 .407-.14.407-.453 0-.266-.157-.532-.547-.532s-.75.266-1.188.735c-.484.515-.656.594-.796.672l.796-3.188c0-.031.016-.094.016-.125 0-.11-.125-.11-.219-.094l-.828.063c-.11.016-.187.016-.187.156 0 .125.093.125.203.125.375 0 .375.047.375.11a.7.7 0 0 1-.032.171L.657-.266c0 .032-.015.079-.015.11 0 .11.078.234.25.234.14 0 .265-.094.328-.297l.39-1.578c.313.031.891.172.891.656 0 .047 0 .079-.031.188a1 1 0 0 0-.031.25c0 .437.296.781.734.781.36 0 .562-.265.656-.406.188-.297.313-.766.313-.813m0 0"/><path id="l" d="M4.297-2.172c0-.828-.547-1.344-1.266-1.344C2-3.516.921-2.437.921-1.266c0 .875.595 1.344 1.267 1.344 1.062 0 2.109-1.094 2.109-2.25m-.594-.281c0 .265-.125 1.031-.437 1.578-.266.438-.688.734-1.078.734-.297 0-.672-.203-.672-.843 0-.36.172-1.11.422-1.547.343-.578.812-.766 1.078-.766.39 0 .687.297.687.844m0 0"/><path id="m" d="M5.11-1.781V-7.72c0-.39-.094-.578-.579-.578h-.578c-.453 0-.578.156-.578.578v5.86c0 .25 0 .922-1.047.922-.687 0-1.078-.375-1.234-.594-.11-.125-.125-.14-.203-.14-.11 0-.141.109-.157.218C.672-1.078.547-.437.547-.391c0 .11.078.141.297.235a5 5 0 0 0 1.969.422c1.28 0 2.296-.641 2.296-2.047m0 0"/><path id="n" d="M5.672-.578v-3.203c0-1.89-1.828-1.89-2.422-1.89-.562 0-1.156.046-1.953.374-.25.11-.313.14-.313.281 0 .079.063.766.079.875a.17.17 0 0 0 .156.125c.062 0 .093-.03.125-.078.515-.531 1.125-.797 1.86-.797.64 0 .843.391.843 1.094v.422c-.422 0-3.563.031-3.563 1.781C.484-.75 1.156.125 2.22.125c.406 0 1.297-.11 1.86-.937v.234c0 .39.077.578.577.578h.438c.453 0 .578-.156.578-.578M4.047-1.844c0 1.11-1.14 1.11-1.172 1.11-.516 0-.828-.422-.828-.875 0-1.172 1.656-1.266 2-1.266Zm0 0"/><path id="o" d="M5.969-.578v-3.313c0-1.218-.516-1.718-1.735-1.718-1.203 0-1.75.828-1.921 1.156V-7.72c0-.39-.094-.578-.579-.578h-.437c-.438 0-.578.14-.578.578v7.14c0 .438.125.579.578.579h.469c.453 0 .578-.156.578-.578v-2.64c0-1.032.687-1.532 1.312-1.532.578 0 .688.281.688.89v3.282c0 .39.093.578.578.578h.484c.453 0 .563-.156.563-.578m0 0"/><path id="p" d="M8.594-5.14c-.031-.329-.25-.329-.625-.329-.563 0-.703.032-.875.657l-.969 3.468-1.016-3.593c-.062-.266-.156-.532-.703-.532-.172 0-.453 0-.61.266-.108.187-.64 2.25-1.062 3.656l-.953-3.39c-.125-.407-.25-.532-.734-.532h-.25c-.219 0-.469 0-.516.328L1.547-.547C1.703 0 2.016 0 2.313 0h.343c.563 0 .656-.172.781-.656.282-1 .704-2.5.766-3.125v-.016c.078.688.61 2.578.75 3.14.14.423.203.657.797.657h.813c.515 0 .64-.14.75-.547Zm0 0"/><path id="q" d="M5.719-3.11c0-1.546-.703-2.562-2.485-2.562-1.921 0-2.859 1.063-2.859 2.89 0 1.954 1.125 2.907 3 2.907.469 0 1.14-.047 1.938-.453.25-.125.343-.156.343-.313 0-.078-.031-.421-.047-.515-.046-.375-.062-.39-.171-.39-.047 0-.079 0-.204.124a2.7 2.7 0 0 1-1.796.688c-1.36 0-1.5-1.063-1.532-1.828h3.25c.266 0 .563 0 .563-.547m-1.313-.078h-2.5c.047-.734.282-1.624 1.328-1.624.954 0 1.125.687 1.172 1.625m0 0"/><path id="r" d="M2.61-.328v-.922c0-.297-.016-.312-.329-.312H1.36c-.312 0-.312.015-.312.312v.922c0 .312 0 .328.406.328-.078.188-.14.375-.203.578-.078.172-.203.531-.203.531 0 .157.125.157.312.157H1.5c.25 0 .25-.016.375-.203L2.5.078c.11-.172.11-.203.11-.406m0 0"/><path id="s" d="M8.266-7.547v-.11c0-.374-.079-.562-.563-.562H1.047c-.422 0-.563.125-.563.563v.11c0 .562.282.562.61.562L3.5-7.016v6.438c0 .437.14.578.578.578h.61c.453 0 .578-.156.578-.578v-6.438l2.39.032c.328 0 .61 0 .61-.563m0 0"/><path id="t" d="M5.656-5.156c0-.313-.328-.313-.484-.313h-.266c-.187 0-.453 0-.625.266-.031.062-1 2.703-1.062 3.5h-.016c-.062-.578-.547-1.688-1.062-2.844-.328-.75-.422-.922-1.016-.922H.813c-.172 0-.47 0-.47.313 0 .047.032.125.063.187L2.672 0c-.11.25-.14.375-.172.5-.14.39-.344.938-1 .938-.39 0-.656-.172-.797-.25C.641 1.14.625 1.14.578 1.14s-.14.03-.14.172c0 .093.062.921.093.968.11.14.766.172.953.172 1.485 0 2.063-1.406 2.157-1.703l1.953-5.656c.062-.157.062-.188.062-.25m0 0"/><path id="u" d="M4.734-1.687c0-.672-.359-1.079-.578-1.282-.468-.422-.89-.5-1.39-.594-.657-.124-1.141-.218-1.141-.687 0-.484.39-.578.86-.578.796 0 1.234.297 1.546.562.11.125.14.125.188.125.125 0 .14-.109.156-.156.031-.11.14-.766.14-.828 0-.187-.624-.36-.765-.406-.469-.14-.86-.14-1.172-.14-.531 0-2.14 0-2.14 1.702 0 .594.265.938.593 1.235.422.375.875.468 1.563.593.344.063.953.172.953.688 0 .562-.469.656-.922.656a2.21 2.21 0 0 1-1.766-.828c-.062-.062-.093-.094-.171-.094-.11 0-.141.11-.157.172-.015.172-.156.86-.156.969 0 .219.89.5.89.5a4.4 4.4 0 0 0 1.36.203c.61 0 2.11-.047 2.11-1.812m-.343-6.454c0-.156-.141-.156-.328-.156h-.985c-.234 0-.25.016-.36.14L1.704-6.75c-.11.125-.11.172-.11.172 0 .156.126.156.313.156h.453L4.25-7.953c.063-.063.14-.11.14-.188m0 0"/><path id="v" d="M8.016-2.312c0-1.688-1.657-1.954-2.094-2.032 1.094-.25 1.734-.875 1.734-1.797 0-2.156-2.547-2.156-3.047-2.156H1.656c-.422 0-.562.14-.562.578v7.14c0 .438.125.579.562.579h3.282c.89 0 3.078-.156 3.078-2.312M6.03-6.11c0 1.359-1.578 1.359-1.875 1.359h-1.39v-2.516h1.406c.469 0 1.86.032 1.86 1.157m.328 3.765C6.36-1.109 5.08-1.03 4.5-1.03H2.766v-2.86H4.28c.422 0 2.078 0 2.078 1.547m0 0"/><path id="w" d="M6.188-2.687c0-1.97-.954-2.985-2.907-2.985-1.984 0-2.906 1.063-2.906 2.984C.375-.733 1.406.126 3.281.126s2.907-.86 2.907-2.812m-1.625-.141c0 .937 0 2.031-1.282 2.031C2-.797 2-1.875 2-2.828c0-.922 0-1.985 1.281-1.985s1.281 1.047 1.281 1.985m0 0"/><path id="x" d="M6.39-4.844c0-.047-.062-.328-.093-.453-.047-.281-.047-.312-.266-.312-.36 0-.968.14-1.422.422-.562-.375-1.171-.422-1.687-.422-.5 0-2.406 0-2.406 1.968 0 .485.125 1.079.578 1.485C.78-1.72.78-1.25.78-1.187c0 .218.063.609.313.937C.922-.172.297.031.297.797c0 .375.187 1 .937 1.344.672.312 1.485.328 2.047.328.703 0 2.985 0 2.985-1.703 0-1.86-1.688-1.86-3.297-1.86H2.39c-.438 0-.594 0-.766-.156-.047-.047-.25-.219-.25-.531 0-.078.016-.11.031-.172.547.297 1.266.297 1.516.297.5 0 2.39 0 2.39-1.969 0-.687-.25-1.11-.359-1.234.203 0 .61 0 1.11.125a.36.36 0 0 0 .171.046c.094 0 .157-.062.157-.156M3.798-3.64c0 .672-.047 1.125-.875 1.125-.844 0-.875-.453-.875-1.109s.031-1.125.875-1.125c.828 0 .875.453.875 1.11M5.03.797c0 .812-1.36.812-1.75.812-.469 0-1.75 0-1.75-.843 0-.563.375-.563.64-.563h1.392c.968 0 1.468.172 1.468.594m0 0"/><path id="y" d="M2.313-.578v-4.328c0-.375-.079-.563-.563-.563h-.453c-.422 0-.563.125-.563.563v4.328c0 .437.125.578.563.578h.453c.453 0 .563-.156.563-.578m.093-6.672v-.219c0-.39-.094-.578-.578-.578h-.61c-.452 0-.577.156-.577.578v.219c0 .36.062.578.578.578h.61c.5 0 .577-.219.577-.578m0 0"/><path id="z" d="M9.64-.578v-3.313c0-1.218-.53-1.718-1.75-1.718-.843 0-1.5.39-1.937 1.187-.187-1.14-1.203-1.187-1.703-1.187-.234 0-.734 0-1.281.39-.36.282-.61.672-.688.844h-.015v-.594c0-.39-.079-.578-.563-.578h-.406c-.438 0-.578.125-.578.578v4.39c0 .438.125.579.578.579h.469c.453 0 .578-.156.578-.578v-2.64c0-1.079.734-1.532 1.312-1.532s.703.25.703.89v3.282c0 .437.141.578.579.578h.484c.453 0 .562-.156.562-.578v-2.64c0-1.079.735-1.532 1.313-1.532s.719.25.719.89v3.282c0 .437.125.578.562.578h.485c.453 0 .578-.156.578-.578m0 0"/><path id="A" d="M2.594 2.234c-.375-.5-1.25-1.64-.64-4.484.609-2.828 1.952-3.969 2.546-4.484h-.594c-1.25.89-2.265 2.422-2.703 4.484-.453 2.14-.031 3.625.813 4.484Zm0 0"/><path id="B" d="m1.719 0 1.328-6.219h-.875L.859 0Zm0 0"/><path id="C" d="m3.703 0 .125-.594H2.484c-.109 0-.218.016-.328.016h-.75L4.453-3.61l.063-.375H1.234l-.125.562h2.282L.344-.39.266 0Zm0 0"/><path id="D" d="m4.14 0 .141-.672H2.594c-.094 0-.203.016-.313.016h-.984L3.047-2c1.11-.766 1.781-1.25 1.969-2.125.218-1.031-.328-1.937-1.547-1.937-.953 0-1.625.546-2.094 1.437l.297.516c.453-1.047.984-1.344 1.531-1.344.813 0 1.188.61 1.016 1.344-.172.812-.844 1.343-1.64 1.937l-2 1.563L.452 0Zm0 0"/><path id="E" d="M4.531-1.828c.235-1.11-.375-2-1.328-2-.11 0-.547 0-1.047.36l.375-1.782h2.422l.125-.61h-3.11L1.267-2.53h.64c.438-.656.985-.703 1.157-.703.374 0 .843.28.609 1.406-.235 1.094-.953 1.437-1.5 1.437-.453 0-1.031-.218-1.235-.812L.5-.687c.094.203.547.89 1.563.89 1.124 0 2.234-.906 2.468-2.031m0 0"/><path id="F" d="m1.656-.016.172-.75h-.781L.89 0h.234L.641 1.14h.375Zm0 0"/><path id="G" d="m3.922 0 .11-.562H2.89l1.172-5.5h-.188c-.734.578-1.594.578-1.906.578l-.11.562c.25 0 .704 0 1.25-.203L2.125-.562H.985L.858 0Zm0 0"/><path id="H" d="m5.063-2.172.125-.578H.577l-.125.578Zm0 0"/><path id="I" d="M4.563-1.625c.125-.562-.094-1.219-.938-1.547.61-.172 1.281-.656 1.422-1.328.172-.812-.438-1.562-1.453-1.562-1.047 0-1.953.765-2.125 1.562-.14.672.312 1.156.843 1.328C1.298-2.828.845-2.156.72-1.625.516-.641 1.188.203 2.25.203c1.094 0 2.11-.86 2.313-1.828m-.188-2.86c-.11.563-.594 1.016-1.344 1.016-.703 0-1.031-.422-.906-1.015.14-.594.656-1.016 1.344-1.016.734 0 1.031.438.906 1.016m-.594 2.86c-.172.828-.797 1.234-1.39 1.234-.641 0-1.063-.421-.891-1.234.203-.953.953-1.25 1.406-1.25.516 0 1.078.328.875 1.25m0 0"/><path id="J" d="M3.328-2.25c.453-2.125.031-3.625-.812-4.484h-.578c.39.5 1.25 1.656.64 4.484C1.984.594.625 1.734.031 2.234h.594c1.234-.89 2.266-2.421 2.703-4.484m0 0"/><path id="L" d="M-5.172-3.89h-.266c.016.406.016.624.016 1.078 0 .343 0 .953-.016 1.28h.266v-.265c0-.75.094-.781.375-.781h3.61c.734 0 1.125.437 1.125.86 0 .343-.157.702-.407.89 0-.219-.14-.469-.437-.469a.426.426 0 0 0-.438.438c0 .172.11.437.453.437C-.297-.422.172-1 .172-1.75c0-.734-.484-1.531-1.36-1.531h-3.64c-.344 0-.344-.094-.344-.61m0 0"/><path id="M" d="M-.719-4.094h-.437v.25h.437c.328 0 .453.11.453.281 0 .297-.359.297-.453.297h-1.656c-.781 0-1.172.75-1.172 1.485 0 .656.25 1.25.781 1.25a.36.36 0 0 0 .375-.375.36.36 0 0 0-.375-.375.356.356 0 0 0-.359.297c-.203-.297-.203-.735-.203-.782 0-.453.312-.89.969-.89h.234c.031.453.047.984.281 1.547.313.703.766.843 1.032.843.687 0 .89-.812.89-1.359a1.23 1.23 0 0 0-.64-1.11c.296-.046.609-.25.609-.609 0-.078-.031-.75-.766-.75m-.406 1.438c.781 0 .984.64.984.969 0 .406-.28.765-.671.765-.516 0-1.063-.5-1.094-1.734Zm0 0"/><path id="N" d="M0-4.484h-.266c0 .515 0 .609-.359.609h-1.797c-.656 0-1.094.313-1.094 1.14 0 .704.454 1.063.704 1.22h-2.72l.095 1.187h.265c0-.547.047-.61.438-.61h4.109c.36 0 .36.094.36.61H0c-.031-.344-.031-.688-.031-.906 0-.235 0-.563.031-.907h-.266c0 .5 0 .61-.359.61h-1.437c-.844 0-1.235-.64-1.235-1.125s.344-.61.844-.61h1.828c.36 0 .36.094.36.61H0C-.031-3-.031-3.36-.031-3.562c0-.235 0-.579.031-.922m0 0"/><path id="O" d="M-3.172-4.281h-.265c.03.265.03.281.03.61 0 .077 0 .452-.03.702h.265c.016-.281.188-.36.328-.36.078 0 .125.017.188.048l2.015.86-2.171.952c-.094.047-.157.047-.157.047-.203 0-.203-.297-.203-.422h-.265c.03.344.03.719.03.86 0 .172 0 .547-.03.812h.265c0-.484.047-.531.313-.656l2.765-1.188c.125-.062.172-.109.172-.218 0-.11-.062-.172-.156-.203L-2.61-3.532c-.453-.188-.547-.469-.563-.75m0 0"/><path id="P" d="M-.953-3.516a.12.12 0 0 0-.11.125c0 .094.047.11.094.125.782.282.797.97.797 1.11 0 .36-.156.734-.531.969-.36.234-.875.234-1.11.234v-2.344c0-.172 0-.219-.187-.219-.703 0-1.547.391-1.547 1.516 0 .984.813 1.766 1.797 1.766 1.031 0 1.828-.86 1.828-1.875 0-1-.844-1.407-1.031-1.407m-1.078.547v2.016c-1.11-.078-1.297-.75-1.297-1.047 0-.937 1.125-.969 1.297-.969m-2.188.563-1.218 1.031c-.125.094-.125.219-.125.25 0 .14.14.297.312.297.14 0 .203-.063.266-.156l.937-1.25Zm0 0"/><path id="Q" d="M-.031-1.719c-.438 0-.86.172-.86.547 0 .266.22.438.438.438.25 0 .453-.172.453-.438 0-.187-.094-.297-.125-.312.25 0 .89 0 1.469.593.015.032.031.047.078.047.078 0 .125-.062.125-.11 0-.093-.625-.765-1.578-.765m0 0"/><path id="R" d="M-1-2.812h-.437v.25h.421c.547 0 .844.25.844.546 0 .532-.687.532-.812.532h-2.188v-1.188h-.265v1.188h-1.47v.25c.735 0 1.485.328 1.516 1.078h.22v-.719H-1c.938 0 1.078-.719 1.078-1.078 0-.547-.469-.86-1.078-.86m0 0"/><path id="S" d="M0-4.484h-.266c0 .547-.046.609-.437.609h-2.813l.094 1.219h.266c0-.547.047-.61.437-.61h1.39c.688 0 1.188.407 1.188 1.016 0 .688-.343.719-.75.719h-2.625l.094 1.203h.266c0-.61.015-.61.719-.61h1.203c.578 0 1.312 0 1.312-1.265 0-.75-.578-1.047-.64-1.078v-.016h.64Zm0 0"/><path id="T" d="M-1.031-3.047c-.375 0-.938.219-1.11 1.172-.015.063-.093.516-.093.547-.063.25-.235.625-.547.625-.235 0-.578-.188-.578-.938 0-.89.656-.937.875-.953.062 0 .093-.062.093-.11 0-.14-.062-.14-.203-.14h-.75c-.125 0-.203 0-.203.11 0 .046 0 .062.125.187 0 .016.078.094.078.11 0 0 0 .03-.031.078-.094.125-.172.359-.172.718 0 1.11.594 1.36.985 1.36.39 0 .624-.297.656-.313.234-.328.265-.5.36-1.047.077-.375.187-.984.718-.984.312 0 .687.203.687.938 0 .812-.625 1.046-1.046 1.14-.11.031-.141.047-.141.14 0 .126.062.126.219.126h.984c.125 0 .203 0 .203-.094 0-.062 0-.062-.156-.203-.047-.047-.14-.125-.188-.172.329-.36.344-.734.344-.937 0-1.016-.578-1.36-1.11-1.36m0 0"/><path id="U" d="M-.953-3.516a.12.12 0 0 0-.11.125c0 .094.047.11.094.125.782.282.797.97.797 1.11 0 .36-.156.734-.531.969-.36.234-.875.234-1.11.234v-2.344c0-.172 0-.219-.187-.219-.703 0-1.547.391-1.547 1.516 0 .984.813 1.766 1.797 1.766 1.031 0 1.828-.86 1.828-1.875 0-1-.844-1.407-1.031-1.407m-1.078.547v2.016c-1.11-.078-1.297-.75-1.297-1.047 0-.937 1.125-.969 1.297-.969m0 0"/><path id="V" d="M0-2.078h-.266c0 .531-.03.562-.343.562h-2.907l.094 1.157h.266c0-.516.047-.578.437-.578h2.094c.36 0 .36.093.36.609H0c-.031-.313-.031-.766-.031-.89 0-.095 0-.579.031-.86m-4.797.453a.453.453 0 0 0-.453.453.45.45 0 0 0 .453.438.437.437 0 0 0 .438-.438.45.45 0 0 0-.438-.453m0 0"/><path id="W" d="M0-2.125h-.266c0 .5 0 .61-.359.61h-4.906l.093 1.187h.266c0-.547.047-.61.438-.61h4.109c.36 0 .36.094.36.61H0c-.031-.313-.031-.766-.031-.906 0-.157 0-.578.031-.891m0 0"/><path id="X" d="M0-6.828h-.266c0 .516 0 .61-.359.61h-1.797c-.64 0-1.094.28-1.094 1.14 0 .734.5 1.11.735 1.234-.578.14-.735.594-.735 1.11 0 .78.547 1.14.766 1.25h-.766l.094 1.156h.266c0-.547.047-.61.437-.61h2.094c.36 0 .36.094.36.61H0c-.031-.344-.031-.688-.031-.906 0-.235 0-.563.031-.907h-.266c0 .5 0 .61-.359.61h-1.437c-.844 0-1.235-.64-1.235-1.14 0-.517.406-.61.844-.61h1.828c.36 0 .36.11.36.61H0c-.031-.345-.031-.688-.031-.907 0-.235 0-.563.031-.906h-.266c0 .515 0 .609-.359.609h-1.437c-.844 0-1.235-.64-1.235-1.14 0-.516.406-.61.844-.61h1.828c.36 0 .36.11.36.61H0c-.031-.344-.031-.688-.031-.907 0-.234 0-.562.031-.906m0 0"/><path id="Y" d="M-1.703-3.984c-.984 0-1.844.828-1.844 1.875s.86 1.875 1.844 1.875c1 0 1.781-.86 1.781-1.875 0-1.032-.781-1.875-1.781-1.875m-.063.703c.36 0 .797.015 1.141.25.313.203.453.562.453.922 0 .422-.203.765-.484.937-.328.203-.719.219-1.11.219-.312 0-.78 0-1.125-.235a1.14 1.14 0 0 1-.437-.921c0-.422.203-.766.469-.938.343-.219.765-.234 1.093-.234m0 0"/><path id="Z" d="M-2.672-5.984c-1.531 0-2.765 1.156-2.765 2.593v3.032h.265v-.188c0-.61.078-.625.375-.625H-.64c.297 0 .375.016.375.625v.188H0v-3.032c0-1.437-1.187-2.593-2.672-2.593m0 .812c.406 0 1.188 0 1.766.5.328.266.64.781.64 1.5v.906c0 .375-.046.391-.328.391h-4.265c-.266 0-.313-.016-.313-.39v-.907c0-.625.25-1.14.64-1.5.61-.5 1.47-.5 1.86-.5m0 0"/><path id="aa" d="M-1.719-4.422c-1 0-1.797.813-1.797 1.781 0 .313.079.766.5 1.172h-.5l.094 1.188h.266c0-.563.047-.61.375-.61H.922c.36 0 .36.11.36.61h.265c-.031-.344-.031-.688-.031-.906 0-.235 0-.563.03-.907h-.265c0 .516 0 .61-.36.61H-.39a1.37 1.37 0 0 0 .47-1.047c0-1-.782-1.89-1.798-1.89m0 .719c.907 0 1.578.578 1.578 1.219 0 .28-.125.64-.515.906-.14.094-.156.094-.297.094h-1.703a1.3 1.3 0 0 1-.61-1.094c0-.61.672-1.125 1.547-1.125m0 0"/><path id="ab" d="M-.437-1.625a.453.453 0 0 0-.454.453c0 .266.22.438.438.438A.44.44 0 0 0 0-1.172a.45.45 0 0 0-.437-.453m0 0"/><path id="ac" d="M0-3.562h-.266v.28c0 .75-.093.782-.39.782h-4.422c-.219 0-.219.016-.219.234.313.329.5.75.5 1.5h.266c0-.218 0-.64-.203-1.109h4.078c.297 0 .39.031.39.781v.282H0c-.031-.329-.031-1.016-.031-1.375 0-.36 0-1.047.031-1.376m0 0"/><path id="ad" d="M-2.547-3.89c-.844 0-1.36.078-1.875.343-.703.344-.875 1-.875 1.438 0 1 .75 1.375.969 1.484.578.281 1.375.297 1.781.297.531 0 1.328-.016 1.969-.406.594-.36.75-.953.75-1.375 0-.391-.125-1.063-.906-1.47-.578-.296-1.297-.312-1.813-.312m-.094.703c.47 0 1.188 0 1.641.093.828.172.938.719.938.985 0 .265-.125.812-.954.984-.453.094-1.203.094-1.625.094-.546 0-1.109 0-1.546-.094-.813-.172-.891-.781-.891-.984 0-.266.14-.828.86-.985.437-.094 1.046-.094 1.577-.094m0 0"/><path id="ae" d="M5.172 6.219h.266c-.016-.25-.016-.657-.016-.797 0-.25 0-.484.016-.875h-.266c0 .281-.14.406-.281.406-.11 0-.188-.062-.266-.11l-2.11-1.405 2.329-1.563c.047-.031.093-.062.156-.062.172 0 .172.343.172.515h.266l-.016-1.156c0-.438 0-.625.016-1.047h-.266V.25c0 .422-.047.594-.281.75L2.17 2.813H.642c-.297 0-.375-.016-.375-.626v-.171H0l.031 1.14L0 4.312h.266v-.171c0-.625.093-.625.359-.625h1.563L4.64 5.172c.187.125.53.36.53 1.047m0 0"/><path id="af" d="M.719 4.094h.437v-.25H.72c-.328 0-.453-.11-.453-.281 0-.297.359-.297.453-.297h1.656c.781 0 1.172-.75 1.172-1.485 0-.656-.25-1.25-.781-1.25a.36.36 0 0 0-.375.375c0 .219.156.375.375.375a.356.356 0 0 0 .359-.297c.203.297.203.735.203.782 0 .453-.312.89-.969.89h-.234c-.031-.453-.047-.984-.281-1.547C1.53.406 1.078.266.813.266c-.688 0-.891.812-.891 1.359 0 .578.328.938.64 1.11-.296.046-.609.25-.609.609 0 .078.031.75.766.75m.406-1.438c-.781 0-.984-.64-.984-.969 0-.406.28-.765.672-.765.515 0 1.062.5 1.093 1.734Zm0 0"/><path id="ag" d="M0 4.484h.266c0-.515 0-.609.359-.609h1.797c.656 0 1.094-.312 1.094-1.14 0-.704-.453-1.063-.703-1.22H5.53L5.438.329h-.266c0 .547-.047.61-.438.61H.625c-.36 0-.36-.094-.36-.61H0c.031.344.031.688.031.906 0 .235 0 .563-.031.907h.266c0-.5 0-.61.359-.61h1.438c.843 0 1.234.64 1.234 1.125s-.344.61-.844.61H.625c-.36 0-.36-.094-.36-.61H0c.031.344.031.703.031.906 0 .235 0 .579-.031.922m0 0"/><path id="ah" d="M3.172 4.281h.265c-.03-.265-.03-.281-.03-.61 0-.077 0-.452.03-.702h-.265c-.016.281-.188.36-.328.36a.4.4 0 0 1-.188-.048l-2.015-.86 2.172-.952c.093-.047.156-.047.156-.047.203 0 .203.297.203.422h.265c-.03-.344-.03-.719-.03-.86 0-.171 0-.546.03-.812h-.265c0 .484-.047.531-.313.656L.094 2.016c-.125.062-.172.109-.172.218 0 .11.062.172.156.204L2.61 3.53c.454.188.547.469.563.75m0 0"/><path id="ai" d="M.953 3.516a.12.12 0 0 0 .11-.125c0-.094-.047-.11-.094-.125a1.14 1.14 0 0 1-.797-1.11c0-.36.156-.734.531-.969.36-.234.875-.234 1.11-.234v2.344c0 .172 0 .219.187.219.703 0 1.547-.391 1.547-1.516 0-.984-.813-1.766-1.797-1.766-1.031 0-1.828.86-1.828 1.875 0 1 .844 1.407 1.031 1.407m1.078-.547V.953c1.11.078 1.297.75 1.297 1.047 0 .938-1.125.969-1.297.969m0 0"/><path id="aj" d="M.031 1.719c.438 0 .86-.172.86-.547A.436.436 0 0 0 .453.734C.203.734 0 .906 0 1.172c0 .187.094.297.125.312-.25 0-.89 0-1.469-.593-.015-.032-.031-.047-.078-.047-.078 0-.125.062-.125.11 0 .093.625.765 1.578.765m0 0"/><path id="ak" d="M1 2.813h.438v-.25h-.422c-.547 0-.844-.25-.844-.547 0-.532.687-.532.812-.532h2.188v1.188h.265V1.484h1.47v-.25c-.735 0-1.485-.328-1.516-1.078h-.22v.719H1c-.937 0-1.078.719-1.078 1.078 0 .547.469.86 1.078.86m0 0"/><path id="al" d="M0 4.484h.266c0-.546.046-.609.437-.609h2.813l-.094-1.219h-.266c0 .547-.047.61-.437.61h-1.39C.64 3.266.14 2.859.14 2.25c0-.687.343-.719.75-.719h2.625L3.422.328h-.266c0 .61-.015.61-.719.61H1.235c-.578 0-1.312 0-1.312 1.265 0 .75.578 1.047.64 1.078v.016h-.64Zm5.25-1.078a.324.324 0 0 0 .313-.312c0-.031 0-.14-.125-.235l-1.22-1.03L4.048 2l.937 1.25c.063.094.125.156.266.156m0 0"/><path id="am" d="M3.016 3.063c.28 0 .5-.25.5-.61 0-.515-.391-.875-.844-1.031v-.016h.844L3.422.281h-.266c0 .547-.047.61-.437.61H.625C.265.89.265.78.265.28H0c.031.313.031.75.031.938 0 .468 0 .484-.031 1h.266v-.156c0-.579.078-.594.375-.594h1.172c.609 0 1.468.25 1.484 1.015-.031-.046-.094-.14-.281-.14-.25 0-.36.203-.36.36 0 .187.125.358.36.358m0 0"/><path id="an" d="M1.031 3.047c.375 0 .938-.219 1.11-1.172.015-.062.093-.516.093-.547.063-.25.235-.625.547-.625.235 0 .578.188.578.938 0 .89-.656.937-.875.953-.062 0-.093.062-.093.11 0 .14.062.14.203.14h.75c.125 0 .203 0 .203-.11 0-.046 0-.062-.125-.187 0-.016-.078-.094-.078-.11 0 0 0-.03.031-.078.094-.125.172-.359.172-.718 0-1.11-.594-1.36-.985-1.36-.39 0-.624.297-.656.313-.234.328-.265.5-.36 1.047-.077.375-.187.984-.718.984-.312 0-.687-.203-.687-.937C.14.875.766.64 1.188.547c.109-.031.14-.047.14-.14C1.328.28 1.266.28 1.11.28H.125c-.125 0-.203 0-.203.094 0 .063 0 .063.156.203.047.047.14.125.188.172-.328.36-.344.734-.344.938 0 1.015.578 1.359 1.11 1.359m0 0"/><path id="ao" d="M0 6.828h.266c0-.516 0-.61.359-.61h1.797c.64 0 1.094-.28 1.094-1.14 0-.734-.5-1.11-.735-1.234.578-.14.735-.594.735-1.11a1.37 1.37 0 0 0-.766-1.25h.766L3.422.328h-.266c0 .547-.047.61-.437.61H.625c-.36 0-.36-.094-.36-.61H0c.031.344.031.688.031.906 0 .235 0 .563-.031.907h.266c0-.5 0-.61.359-.61h1.438c.843 0 1.234.64 1.234 1.14 0 .517-.406.61-.844.61H.625c-.36 0-.36-.11-.36-.61H0c.031.345.031.688.031.907 0 .235 0 .563-.031.906h.266c0-.515 0-.609.359-.609h1.438c.843 0 1.234.64 1.234 1.14 0 .516-.406.61-.844.61H.625c-.36 0-.36-.11-.36-.61H0c.031.344.031.688.031.907 0 .234 0 .562-.031.906m0 0"/><path id="ap" d="M0 2.078h.266c0-.531.03-.562.343-.562h2.907L3.422.359h-.266c0 .516-.047.579-.437.579H.625c-.36 0-.36-.094-.36-.61H0c.031.313.031.766.031.89 0 .095 0 .579-.031.86m4.797-.453a.453.453 0 0 0 .453-.453.45.45 0 0 0-.453-.438.437.437 0 0 0-.438.438c0 .25.204.453.438.453m0 0"/><path id="aq" d="M2.672 5.984c1.531 0 2.766-1.156 2.766-2.593V.359h-.266v.188c0 .61-.078.625-.375.625H.64c-.297 0-.375-.016-.375-.625V.359H0v3.032c0 1.437 1.188 2.593 2.672 2.593m0-.812c-.406 0-1.188 0-1.766-.5-.328-.266-.64-.781-.64-1.5v-.906c0-.375.046-.391.328-.391h4.265c.266 0 .313.016.313.39v.907c0 .625-.25 1.14-.64 1.5-.61.5-1.47.5-1.86.5m0 0"/><path id="ar" d="M1.703 3.984c.984 0 1.844-.828 1.844-1.875 0-1.046-.86-1.875-1.844-1.875-1 0-1.781.86-1.781 1.875 0 1.032.781 1.875 1.781 1.875m.063-.703c-.36 0-.797-.015-1.141-.25C.313 2.828.172 2.47.172 2.11c0-.421.203-.765.484-.937.328-.203.719-.219 1.11-.219.312 0 .78 0 1.125.235.28.218.437.546.437.921 0 .422-.203.766-.469.938-.343.219-.765.234-1.093.234m0 0"/><path id="as" d="M1.719 4.422c1 0 1.797-.813 1.797-1.781 0-.313-.079-.766-.5-1.172h.5L3.422.28h-.266c0 .563-.047.61-.375.61H-.922c-.36 0-.36-.11-.36-.61h-.265c.031.344.031.688.031.907 0 .234 0 .562-.03.906h.265c0-.516 0-.61.36-.61H.39a1.37 1.37 0 0 0-.47 1.047c0 1 .782 1.89 1.798 1.89m0-.719C.812 3.703.14 3.125.14 2.484c0-.28.125-.64.515-.906.14-.094.156-.094.297-.094h1.703c.313.188.61.594.61 1.094 0 .61-.672 1.125-1.547 1.125m0 0"/><path id="at" d="M.438 1.625a.453.453 0 0 0 .453-.453.436.436 0 0 0-.438-.438.44.44 0 0 0-.453.438.45.45 0 0 0 .438.453m0 0"/><path id="au" d="M0 3.563h.266V3.28c0-.75.093-.781.39-.781h4.422c.219 0 .219-.016.219-.234-.313-.328-.5-.75-.5-1.5H4.53c0 .218 0 .64.203 1.109H.656c-.297 0-.39-.031-.39-.781V.812H0c.031.329.031 1.016.031 1.376s0 1.046-.031 1.374m0 0"/><path id="av" d="M5.125 4.11V2.077c0-.203.016-.437.031-.64.032-.422.11-.422.235-.454v-.25L3.703.47v.25c.125.015.672.11.735.219.046.078.046.687.046.796v1.688l-1.109-.813C2.172 1.703.906 1.5.281 1.5c-.078 0-.453 0-.453.375s.36.375.453.375h.39c1.142 0 2.079.203 2.61.594L4.86 4.03c.079.078.094.078.266.078m0 0"/><path id="aw" d="M1.594 3.797c.922 0 1.75-.672 1.75-1.61 0-.39-.125-.765-.406-1.078h1.546c-.03.11-.125.422-.125.766 0 1 .704 1.594.829 1.594.093 0 .109-.047.109-.094 0 0 0-.031-.031-.094a3 3 0 0 1-.22-1.11c0-.468.11-.858.22-1.108.03-.079.03-.11.03-.11C5.297.86 5.22.86 5.063.86H2.735c-.14 0-.234 0-.234.125 0 .063.031.079.094.125.11.094.515.391.515 1.079 0 .437-.359.656-.515.734-.281.125-.656.14-.953.14s-.735 0-1.078-.218a1.08 1.08 0 0 1-.485-.906c0-.516.313-1.016.844-1.204C.906.75.906.813.906.813c0 .218.14.406.39.406a.39.39 0 0 0 .407-.39c0-.157-.078-.407-.422-.407-.718 0-1.453.625-1.453 1.531 0 1 .781 1.844 1.766 1.844m0 0"/><path id="ax" d="M9.953 0v-.516h-.312c-.657 0-.703-.062-.813-.218L5.61-5.047l2.844-2.406c.156-.14.266-.234 1.328-.234v-.516L8.5-8.172c-.36 0-1.297 0-1.594-.031v.515c.266 0 .547.016.86.141l-4.47 3.813v-3.953h1.267v-.516c-.344.031-1.625.031-2.047.031-.438 0-1.72 0-2.063-.031v.515H1.72v7.172H.453V0c.344-.031 1.625-.031 2.063-.031.422 0 1.703 0 2.047.031v-.516H3.297v-2.562L4.53-4.125l2.5 3.344c.016.031.063.094.063.14 0 .125-.578.125-.844.125V0c.39-.031 1.5-.031 1.953-.031.36 0 1.485 0 1.75.031m0 0"/><path id="ay" d="M2.875-.281c0-.766-.36-1.438-1.016-1.438-.53 0-.859.39-.859.86 0 .422.297.859.86.859.359 0 .562-.172.609-.234 0 .343-.063 1.328-1.047 2.172-.078.078-.11.093-.11.156 0 .11.141.219.22.219.155 0 1.343-1 1.343-2.594m0 0"/><path id="az" d="M13.61-7.687v-.516l-1.297.031c-.344 0-1.22 0-1.5-.031v.515c.14 0 1.187 0 1.187.172 0 0 0 .032-.047.141L9.938-2.047l-2.126-5.64h1.125v-.516c-.374.031-1.484.031-1.937.031-.375 0-1.531 0-1.828-.031v.515h1.016l.484 1.297-1.64 4.344-2.126-5.64h1.125v-.516c-.343.031-1.515.031-1.953.031-.375 0-1.515 0-1.812-.031v.515h1L4.109-.171c.079.203.11.281.375.281.266 0 .297-.078.375-.28l2.079-5.5 2.093 5.5c.063.202.094.28.36.28.234 0 .297-.046.375-.28L12.5-7.407c.094-.203.11-.282 1.11-.282m0 0"/><path id="cb" d="M6.14-3.937c0-.797 0-3.907-2.765-3.907-1.64 0-2.812.953-2.812 2.594 0 1.672 1.14 2.563 2.578 2.563.5 0 1.109-.188 1.484-1.032v.344c0 .844 0 3.047-1.86 3.047-.374 0-.812-.11-1.062-.297.36-.062.61-.312.61-.703a.69.69 0 0 0-.704-.703c-.312 0-.718.203-.718.734 0 .828.656 1.438 1.89 1.438 1.516 0 3.36-.985 3.36-4.078M4.61-5.11c0 .843-.344 2.03-1.344 2.03-1.188 0-1.188-.968-1.188-2.14 0-1.156 0-2.187 1.297-2.187.766 0 1.047.672 1.094.812.125.36.14 1.094.14 1.485m0 0"/><path id="cc" d="M6.14-2.469c0-1.672-1.156-2.547-2.577-2.547-.235 0-1 0-1.485 1.016v-.328c0-.734.031-1.469.375-2.11.266-.5.875-.968 1.64-.968.235 0 .657.031.954.328-.453.047-.64.39-.64.703 0 .438.312.703.702.703.313 0 .704-.203.704-.719 0-.718-.485-1.453-1.735-1.453-1.5 0-3.516.938-3.516 4.047 0 .813 0 3.938 2.829 3.938 1.578 0 2.75-.922 2.75-2.61m-1.515 0c0 1.172 0 2.14-1.25 2.14-.75 0-1.062-.655-1.11-.75-.156-.39-.156-1.343-.156-1.452 0-1.469.625-2.094 1.329-2.094 1.187 0 1.187.953 1.187 2.156m0 0"/><path id="aA" d="M5.953-1.703c0-.125-.11-.125-.14-.125-.125 0-.141.047-.172.219-.203.765-.422 1.484-.907 1.484-.328 0-.359-.312-.359-.562s.031-.36.156-.875l.266-1.079.422-1.671c.093-.344.093-.36.093-.407 0-.203-.156-.328-.359-.328-.281 0-.453.266-.5.531-.203-.437-.562-.765-1.094-.765-1.406 0-2.875 1.75-2.875 3.5 0 1.125.657 1.906 1.579 1.906.25 0 .843-.047 1.562-.89.094.5.516.89 1.078.89.422 0 .703-.266.89-.656.204-.422.36-1.172.36-1.172M4.313-3.97c0 .078-.016.14-.032.203l-.593 2.344c-.063.219-.063.234-.25.438-.516.656-1.016.859-1.344.859-.594 0-.766-.656-.766-1.125 0-.61.375-2.078.656-2.625.375-.703.907-1.14 1.391-1.14.766 0 .938.968.938 1.046m0 0"/><path id="aQ" d="M6.828-7.234c.063-.282.016-.578-.125-.75-.234-.328-.672-.407-1.125-.407-.719 0-1.406.094-2.062.625-.438.344-.766.829-.891 1.313-.11.469-.11.937.14 1.266.172.25.47.421.782.53l-.031.126a3.46 3.46 0 0 0-1.766.734C1.172-3.328.734-2.719.563-2.062.438-1.532.438-.984.734-.61c.204.265.516.437.829.562.406.14.859.188 1.328.188.89 0 1.797-.328 2.578-.953.11-.079.265-.297.39-.454l-.39-.578-.157.032c-.125.343-.312.656-.593.875-.469.375-1 .656-1.532.656-.562 0-1.14-.094-1.437-.5-.297-.39-.312-.922-.187-1.469.14-.547.453-1.062.921-1.437.344-.266.782-.407 1.157-.5.562-.125 1.109-.157 1.672-.157l.062-.312c-.406 0-.797-.032-1.172-.14-.25-.063-.5-.173-.656-.391-.219-.282-.266-.704-.172-1.125.14-.516.453-1.032.89-1.391.298-.25.688-.313 1.032-.313.281 0 .469.063.61.204a.5.5 0 0 1 .109.468c-.047.203-.157.328-.266.453-.078.094-.14.172-.187.282a.36.36 0 0 0 .03.234c.079.094.126.094.266.094s.422-.078.625-.266c.22-.234.282-.437.344-.687m0 0"/><path id="aZ" d="m10.344-8.156-.172-.11-.375.422c-.14.14-.36.266-.563.266-.078 0-.25-.031-.359-.047a18 18 0 0 1-1.687-.36l.078-.327-.063-.047-.672.297a10 10 0 0 0-.718-.047c-.954 0-1.813.187-2.657.859-.531.438-1.015 1-1.172 1.61-.046.202-.078.406.032.546.093.094.172.172.328.172.125 0 .265-.094.375-.172a.63.63 0 0 0 .219-.36c.03-.124.015-.296.015-.421.016-.172.016-.312.078-.469.047-.187.375-.61.656-.843.563-.438 1.126-.563 1.72-.563a4.5 4.5 0 0 1 .921.094l-.86 3.172H3.704l-.25.343h1.938l-.282 1.047c-.125.422-.25.844-.484 1.25a3 3 0 0 1-.687.875c-.407.375-.97.672-1.47.672-.312 0-.609-.078-.78-.312a1.1 1.1 0 0 1-.188-.407c-.094-.437-.14-.453-.312-.453a.73.73 0 0 0-.438.14c-.125.11-.203.204-.234.345-.063.25-.032.5.125.672.234.328.609.484 1.062.484.969 0 2.031-.39 2.844-1.094.437-.375.672-.687.906-1.094.281-.5.469-1.015.61-1.546l.14-.579h1.469l.344-.343H6.28l.766-2.97c.156.063.937.329 1.422.47.156.062.344.109.5.109.25 0 .531-.219.703-.422Zm0 0"/><path id="bc" d="M6 0v-4.484C6-6.281 4.203-8.22 2.172-8.937c-.031-.016-.063-.032-.11-.032a.324.324 0 0 0-.312.313c0 .14.094.25.203.297 1.656.609 2.828 2.406 2.828 3.875V0Zm0 0"/><path id="bd" d="M6 0v-8.937H4.781V0Zm0 0"/><path id="be" d="M9.031-8.969a.31.31 0 0 0-.203-.281C7.156-9.86 6-11.812 6-13.453v-4.469H4.781v4.469c0 1.765 1.438 3.594 3.172 4.484-1.734.906-3.172 2.735-3.172 4.485V0H6v-4.484c0-1.641 1.156-3.578 2.828-4.188a.33.33 0 0 0 .203-.297m0 0"/><path id="bf" d="M6-4.484V-8.97H4.781v4.485c0 1.468-1.172 3.28-2.828 3.89a.31.31 0 0 0-.203.282c0 .171.156.312.313.312.046 0 .078-.016.109-.031C4.203-.75 6-2.671 6-4.484m0 0"/><path id="bh" d="M7.453-.172a.245.245 0 0 0 0-.344L4.984-2.984l2.47-2.485c.093-.093.093-.25 0-.328-.079-.094-.235-.094-.329 0L4.656-3.328 2.172-5.797c-.094-.094-.25-.094-.328 0-.094.078-.094.234 0 .328l2.468 2.485L1.845-.516a.245.245 0 0 0 0 .344c.078.094.234.094.328 0l2.484-2.484L7.125-.172c.094.094.25.094.328 0m0 0"/><path id="bo" d="M7.656-6.953c.094-.344.047-.656-.14-.906-.282-.391-.985-.47-1.375-.47-.891 0-1.766.22-2.657.813-.718.485-1.218 1.282-1.421 2.079-.172.718-.235 1.453.156 1.984.406.531 1.094.781 1.844.781.593 0 1.25-.172 1.828-.531l-.25 1.14c-.125.516-.328.97-.578 1.47-.22.374-.5.75-.86 1.046-.469.39-1.031.656-1.578.656-.36 0-.719-.062-.922-.328-.11-.156-.11-.375-.11-.593.016-.157.016-.329-.062-.438a.34.34 0 0 0-.281-.125.75.75 0 0 0-.469.14.84.84 0 0 0-.265.407.98.98 0 0 0 .172.89c.28.391.812.485 1.359.485.984 0 1.984-.406 2.86-1.11.452-.359.78-.812 1.03-1.328.36-.718.61-1.468.797-2.234l.391-1.578-.672.156c-.156.344-.5.828-.687.969-.47.39-1 .547-1.532.547-.5 0-.89-.219-1.156-.563-.36-.484-.312-1.187-.14-1.86a3.62 3.62 0 0 1 1.265-1.952 2.5 2.5 0 0 1 1.547-.516c.297 0 .719.11.922.406.14.188.219.407.14.672-.046.219-.125.469-.328.64-.28.22-.546.25-.828.25l-.093.204c.187.031.468.11.53.11.36 0 .704-.188 1.016-.438.297-.25.47-.563.547-.875m0 0"/><path id="aB" d="M4.531-1.766v-6.53h-1v6.483c0 .688-.344 1.329-1.39 1.329a1.96 1.96 0 0 1-1.485-.657L.484-.25c.704.36 1.375.5 2 .5 1.25 0 2.047-.734 2.047-2.016m0 0"/><path id="aC" d="M4.797 0v-3.5c0-1.156-.828-1.984-1.938-1.984-.718 0-1.25.172-1.843.5l.078.78c.515-.374 1.062-.593 1.765-.593.547 0 1.032.453 1.032 1.313v.5c-.547.015-1.266.062-1.985.297C1.11-2.422.641-1.97.641-1.375c0 .531.312 1.5 1.328 1.5.656 0 1.5-.203 1.937-.562V0ZM3.89-1.61c0 .25 0 .532-.407.766-.312.203-.718.25-.906.25-.64 0-1.078-.343-1.078-.797 0-.812 1.656-.984 2.39-.984Zm0 0"/><path id="aD" d="M5.063 0v-3.594c0-.734-.157-1.828-1.594-1.828-.828 0-1.375.469-1.656.813v-3.688H.922V0h.906v-2.969c0-.75.281-1.734 1.188-1.734 1.109 0 1.14.766 1.14 1.187V0Zm0 0"/><path id="aE" d="M7.766-5.312H6.89l-.703 2.437c-.172.563-.516 1.688-.563 2.203-.047-.281-.234-1.078-.484-1.937l-.797-2.703H3.53L2.844-2.97c-.219.75-.5 1.781-.531 2.282h-.016c-.016-.235-.14-.86-.375-1.672l-.844-2.953H.172L1.766 0h.922c.453-1.5 1.156-3.781 1.218-4.61h.016c.015.485.265 1.344.344 1.626L5.109 0h1.063Zm0 0"/><path id="aF" d="M4.86-2.687c0-.516-.048-1.25-.423-1.876-.5-.828-1.328-.921-1.671-.921C1.469-5.484.39-4.25.39-2.687.39-1.11 1.547.124 2.92.124c.563 0 1.22-.156 1.876-.64 0-.047-.047-.438-.047-.438s-.031-.281-.031-.328c-.703.593-1.407.687-1.766.687-.922 0-1.703-.828-1.734-2.093Zm-.704-.641h-2.86c.204-.813.767-1.438 1.47-1.438.359 0 1.187.157 1.39 1.438m0 0"/><path id="aH" d="M2.11-.016v-.953h-.97V0h.298L1.14 1.5h.468Zm0 0"/><path id="aI" d="M7.547-7.484v-.75H.422v.75H2c.14 0 .281-.016.422-.016h1.062V0H4.5v-7.5h1.063c.14 0 .28.016.421.016Zm0 0"/><path id="aJ" d="M5.172-5.312h-.89c-.548 1.421-1.47 3.765-1.516 4.625H2.75c-.062-.72-.687-2.282-.797-2.532L1.11-5.312H.172L2.39 0l-.422 1.094c-.266.593-.438.656-.657.656-.171 0-.546-.047-.921-.187l.078.78c.062.016.469.095.844.095.296 0 .843 0 1.359-1.313Zm0 0"/><path id="aK" d="M4.203-1.516c0-.609-.36-1-.406-1.046-.453-.47-.813-.532-1.531-.672-.438-.094-1.047-.203-1.047-.813 0-.734.843-.734 1-.734.625 0 1.125.14 1.656.437l.14-.765a3.9 3.9 0 0 0-1.687-.375c-.265 0-1.937 0-1.937 1.547 0 .53.297.89.468 1.062.438.36.735.422 1.438.563.39.093 1.078.234 1.078.859 0 .828-.922.828-1.094.828A3.12 3.12 0 0 1 .47-1.219l-.14.813c.046.031.859.531 1.968.531 1.547 0 1.906-.937 1.906-1.64m-.312-6.78h-.922l-1.547 2h.719Zm0 0"/><path id="aL" d="M7.11-2.25c0-1.047-1.032-1.89-2.266-2.094 1.39-.375 1.937-1.172 1.937-1.875 0-1.078-1.218-2.078-2.906-2.078H1.109V0h3.094C5.875 0 7.11-1.078 7.11-2.25M5.86-6.203c0 .844-1.032 1.531-2.298 1.531H2.079v-2.953h1.469c1.281 0 2.312.625 2.312 1.422m.312 3.937c0 .844-.969 1.594-2.313 1.594H2.08v-3.281h1.593c1.547 0 2.5.86 2.5 1.687m0 0"/><path id="aM" d="M5.484-2.625c0-1.625-1.187-2.86-2.562-2.86-1.406 0-2.563 1.266-2.563 2.86 0 1.563 1.188 2.75 2.563 2.75 1.406 0 2.562-1.219 2.562-2.75m-.906-.125c0 1.469-.844 2.125-1.656 2.125-.86 0-1.656-.719-1.656-2.125 0-1.453.89-2.016 1.656-2.016.812 0 1.656.625 1.656 2.016m0 0"/><path id="aN" d="m5.672-4.703-.125-.719c-.234 0-1.047 0-1.828.39-.39-.327-.875-.39-1.11-.39-1.046 0-1.875.875-1.875 1.922 0 .422.125.828.391 1.188a1.64 1.64 0 0 0-.344 1.015c0 .453.156.75.297.906C.468 0 .328.516.328.844c0 .875 1.125 1.61 2.594 1.61 1.453 0 2.594-.704 2.594-1.61 0-1.688-1.938-1.688-2.422-1.688H2.078c-.172 0-.672 0-.672-.625 0-.265.047-.343.11-.437.203.14.593.343 1.078.343 1.031 0 1.875-.859 1.875-1.937a2.13 2.13 0 0 0-.36-1.156 7 7 0 0 1 .954-.063c.046 0 .312 0 .609.016M3.64-3.5c0 1.063-.672 1.281-1.032 1.281-.53 0-1.062-.36-1.062-1.265 0-1.063.672-1.282 1.047-1.282.531 0 1.047.36 1.047 1.266M4.688.844c0 .562-.829.953-1.766.953-.922 0-1.766-.375-1.766-.953 0-.047 0-.813.907-.813h1.046c.266 0 1.579 0 1.579.813m0 0"/><path id="aO" d="M1.813 0v-5.312H.938V0Zm.078-6.797v-1.016H.859v1.016Zm0 0"/><path id="aP" d="M8.328 0v-3.594c0-.828-.219-1.828-1.61-1.828-1.015 0-1.577.703-1.765.969-.203-.766-.86-.969-1.484-.969-.985 0-1.5.625-1.703.875v-.812H.922V0h.906v-2.969c0-.797.313-1.734 1.188-1.734 1.093 0 1.156.75 1.156 1.187V0h.906v-2.969c0-.797.313-1.734 1.188-1.734 1.093 0 1.156.75 1.156 1.187V0Zm0 0"/><path id="aS" d="M5.563-2.672c0-1.469-.782-2.75-1.891-2.75-.344 0-1.11.063-1.86.672v-3.547H.939V0h.906v-.531c.547.515 1.125.656 1.547.656 1.14 0 2.172-1.172 2.172-2.797m-.907 0c0 1.563-.968 2.078-1.703 2.078-.328 0-.562-.125-.781-.297-.281-.25-.328-.453-.328-.656V-4.03c.218-.328.64-.672 1.234-.672.719 0 1.578.547 1.578 2.031m0 0"/><path id="aT" d="M4.86-2.687c0-.516-.048-1.25-.423-1.876-.5-.828-1.328-.921-1.671-.921C1.469-5.484.39-4.25.39-2.687.39-1.141 1.5.078 2.844.124c-.531.344-.875.828-.828 1.39 0 .516.375 1.016 1.172 1.016.39 0 .703-.062 1.171-.297l-.156-.703c-.266.11-.547.172-.812.172-.328-.031-.625-.094-.625-.453-.016-.531.5-.969 1.047-1.281.328-.094.64-.25.984-.485 0-.046-.047-.437-.047-.437s-.031-.281-.031-.328c-.703.593-1.407.687-1.766.687-.922 0-1.703-.828-1.734-2.093Zm-.704-.641h-2.86c.204-.813.767-1.438 1.47-1.438.359 0 1.187.157 1.39 1.438m0 0"/><path id="aU" d="M5.063 0v-8.297h-.891v3.485a2.65 2.65 0 0 0-1.688-.61c-1.14 0-2.062 1.219-2.062 2.766S1.297.125 2.437.125c.438 0 1.11-.156 1.704-.734V0ZM4.14-1.406c-.282.515-.703.812-1.22.812-.733 0-1.593-.562-1.593-2.047 0-1.593 1.016-2.062 1.703-2.062.469 0 .86.234 1.11.625Zm0 0"/><path id="aV" d="M1.813 0v-8.297H.938V0Zm0 0"/><path id="aW" d="M4.86-.5c0-.031-.032-.406-.048-.453l-.015-.344a2.8 2.8 0 0 1-1.828.672c-1 0-1.64-.875-1.64-2.047 0-.984.484-2.078 1.671-2.078.797 0 1.14.203 1.656.547l.14-.781c-.702-.407-1.093-.5-1.796-.5-1.656 0-2.578 1.453-2.578 2.812C.422-1.14 1.516.125 2.953.125c.578 0 1.25-.156 1.906-.625M4.5-8.297h-.922l-1.547 2h.719Zm0 0"/><path id="aX" d="m6.875-.531-.078-.844c-.313.234-.672.484-1.063.61-.375.124-.78.14-1.187.14-.766 0-1.469-.422-1.938-1.031-.546-.703-.796-1.594-.796-2.485 0-.906.25-1.796.796-2.5.47-.609 1.172-1.03 1.938-1.03.36 0 .719.03 1.062.14.344.125.672.297.97.515l.171-1a5.6 5.6 0 0 0-1.078-.312 5.6 5.6 0 0 0-1.125-.094c-1.031 0-1.984.469-2.656 1.25C1.14-6.344.78-5.266.78-4.14c0 1.094.36 2.188 1.11 3.016.672.766 1.625 1.25 2.656 1.25.406 0 .812-.016 1.219-.125.406-.125.765-.328 1.109-.531m0 0"/><path id="aY" d="M2.11 0v-.969h-.97V0Zm0 0"/><path id="ba" d="M4.203-1.516c0-.609-.36-1-.406-1.046-.453-.47-.813-.532-1.531-.672-.438-.094-1.047-.203-1.047-.813 0-.734.843-.734 1-.734.625 0 1.125.14 1.656.437l.14-.765a3.9 3.9 0 0 0-1.687-.375c-.265 0-1.937 0-1.937 1.547 0 .53.297.89.468 1.062.438.36.735.422 1.438.563.39.093 1.078.234 1.078.859 0 .828-.922.828-1.094.828A3.12 3.12 0 0 1 .47-1.219l-.14.813c.046.031.859.531 1.968.531 1.547 0 1.906-.937 1.906-1.64m0 0"/><path id="bb" d="m3.688-5.36-.485-.515-.828.719v-3.14H1.5v3.874L.328-3.375l.453.547.719-.656V0h.875v-4.234Zm0 0"/><path id="bi" d="M6.547 0v-.766H5.422l-3.094.032h-.375l4.531-7.078v-.485H.813v.735h2.343c.14 0 .281-.016.422-.016h1.61L.64-.484V0Zm0 0"/><path id="bj" d="M5.063 0v-3.594c0-.734-.157-1.828-1.594-1.828-.672 0-1.25.297-1.703.875v-.812H.922V0h.906v-2.969c0-.75.281-1.734 1.188-1.734 1.109 0 1.14.766 1.14 1.187V0Zm0 0"/><path id="bk" d="M4.86-.5c0-.031-.032-.406-.048-.453l-.015-.344a2.8 2.8 0 0 1-1.828.672c-1 0-1.64-.875-1.64-2.047 0-.984.484-2.078 1.671-2.078.797 0 1.14.203 1.656.547l.14-.781c-.702-.407-1.093-.5-1.796-.5-1.656 0-2.578 1.453-2.578 2.812C.422-1.14 1.516.125 2.953.125c.578 0 1.25-.156 1.906-.625m0 0"/><path id="bl" d="M4.703 0v-.734H2.984c-.14 0-.28.015-.421.015H1.547l3.11-4.125v-.468H.483v.703h2.953L.329-.484V0Zm0 0"/><path id="bm" d="M3.797-4.625v-.797c-1.078 0-1.719.64-2.047 1.11V-5.36H.938V0h.875v-2.625c0-1.203.906-1.984 1.984-2m0 0"/><path id="bn" d="M5.063 0v-5.312h-.907v3.421c0 .907-.625 1.36-1.406 1.36-.844 0-.922-.313-.922-.844v-3.937H.922v3.984c0 .86.265 1.453 1.25 1.453.344 0 1.281-.062 2.015-.719V0Zm0 0"/><path id="bp" d="m3.89-.344-.171-.703c-.422.375-.86.422-1.078.422-.532 0-.594-.562-.594-.984v-3h1.64v-.703h-1.64v-1.516h-.828v1.516h-1v.703h.969v3.203c0 .703.156 1.531.984 1.531.797 0 1.36-.281 1.719-.469m0 0"/><path id="bq" d="M5.469 0 3.25-3.266l1.969-2.046h-1.11L1.813-2.906v-5.39H.938V0h.828v-1.719l.906-.953L4.5 0Zm0 0"/><path id="br" d="M4.703 0v-.734H2.984c-.14 0-.28.015-.421.015H1.547l3.11-4.125v-.468H.483v.703h2.953L.329-.484V0ZM3.047-6.797v-1.016H2.016v1.016Zm0 0"/><path id="bs" d="M5.563-2.672c0-1.437-.75-2.75-1.875-2.75-.485 0-1.25.156-1.876.672v-.562H.939v7.625h.906V-.531c.406.36.906.656 1.547.656 1.156 0 2.172-1.172 2.172-2.797m-.907.016c0 1.203-.812 2.062-1.703 2.062-.328 0-.562-.125-.781-.297-.297-.25-.328-.468-.328-.656v-2.469a1.47 1.47 0 0 1 1.219-.671c.874 0 1.593.89 1.593 2.03m0 0"/><path id="bt" d="M7.969-4.125c0-2.531-1.719-4.422-3.657-4.422-1.984 0-3.671 1.922-3.671 4.422C.64-1.609 2.375.25 4.297.25c1.984 0 3.672-1.875 3.672-4.375m-1.032-.172C6.938-1.953 5.658-.5 4.313-.5c-1.39 0-2.64-1.5-2.64-3.797 0-2.203 1.297-3.516 2.625-3.516 1.375 0 2.64 1.344 2.64 3.516m0 0"/><path id="bu" d="M7.203 0 4.86-3.89c1.313-.376 2.016-1.282 2.016-2.172 0-1.188-1.281-2.235-2.969-2.235H1.094V0h1v-3.797h1.86L6.171 0ZM5.922-6.062c0 .75-.64 1.562-2.14 1.562H2.093v-3.125H3.78c1.438 0 2.14.766 2.14 1.563m0 0"/><path id="bv" d="M2.344-8.297h-.969l.094 6.235h.781Zm0 8.297v-.969h-.969V0Zm0 0"/><path id="aG" d="M3.453-1.14c.063-.141.016-.282-.11-.344l-1.155-.5L3.343-2.5c.125-.062.172-.203.11-.344a.25.25 0 0 0-.345-.062l-1.015.75.125-1.266a.237.237 0 0 0-.235-.265c-.14 0-.234.14-.218.265l.125 1.266-1.016-.75a.25.25 0 0 0-.344.062c-.062.14-.015.281.11.344l1.156.516-1.156.5c-.125.062-.172.203-.11.343a.25.25 0 0 0 .344.063l1.016-.75-.125 1.266a.22.22 0 0 0 .218.25c.157 0 .25-.125.235-.25l-.125-1.266 1.015.75a.25.25 0 0 0 .344-.063m0 0"/><path id="aR" d="M4.344-5.125H2.25c-.312 0-.406-.016-.687-.031-.422-.047-.438-.094-.454-.235H.844L.563-3.687h.265c.016-.11.094-.641.219-.72.062-.046.719-.046.828-.046h1.75l-.844 1.047C1.75-2.031 1.656-.766 1.656-.296c0 .093 0 .452.375.452s.375-.36.375-.453v-.328c0-1.547.313-2.25.656-2.687l1.204-1.5c.078-.094.078-.11.078-.313m0 0"/><path id="bg" d="m5.266 0 .156-.812H3.297c-.14 0-.281.015-.422.015H1.594A77 77 0 0 1 4.25-2.922c1.047-.765 1.953-1.515 2.188-2.61.28-1.327-.375-2.546-1.954-2.546-1.296 0-2.125.844-2.687 1.953.266.484.266.5.344.656.578-1.281 1.14-1.875 2.03-1.875 1.032 0 1.516.813 1.298 1.828-.125.625-.516 1.313-1.485 2.11L.734-.75.578 0Zm0 0"/><path id="bw" d="M2.594-.86c.047-.093.015-.218-.094-.25l-.86-.39.86-.375a.176.176 0 0 0 .094-.25c-.063-.094-.172-.125-.266-.062l-.765.562.109-.937a.173.173 0 0 0-.172-.204.173.173 0 0 0-.172.204l.094.937-.766-.562c-.078-.063-.203-.032-.25.062-.062.094-.015.203.078.25l.875.375-.875.39c-.093.032-.14.157-.078.25.047.094.172.11.25.047l.766-.562-.094.953c-.016.094.063.188.172.188.11 0 .188-.094.172-.188l-.11-.953.766.563c.094.062.203.046.266-.047m0 0"/><path id="bx" d="M1.734.016c0-.485-.187-.875-.562-.875a.427.427 0 0 0-.438.437c0 .25.172.453.438.453.219 0 .297-.093.344-.14 0 .78-.282 1.156-.641 1.484-.031.047-.031.078-.031.078 0 .078.062.125.11.125.109 0 .78-.625.78-1.562m1.657 0c0-.485-.188-.875-.563-.875a.44.44 0 0 0-.453.437c0 .25.172.453.453.453.219 0 .281-.093.328-.14 0 .78-.281 1.156-.625 1.484-.047.047-.047.078-.047.078 0 .078.079.125.11.125.11 0 .797-.625.797-1.562m0 0"/><path id="by" d="M4.734-2.14H4.5C4.438-1.032 4.25-.282 2.75-.282H1.344l3.281-4.844c.063-.11.063-.14.063-.172 0-.14-.079-.14-.22-.14H.689L.594-3.641h.25c.062-1.171.61-1.53 1.656-1.53h1.328L.531-.329C.47-.234.47-.188.47-.156.469 0 .547 0 .688 0h3.906Zm0 0"/><path id="bz" d="M6.828 0v-.266c-.516 0-.61 0-.61-.359v-1.797c0-.64-.28-1.094-1.14-1.094-.734 0-1.11.5-1.234.735-.14-.578-.594-.735-1.11-.735a1.37 1.37 0 0 0-1.25.766v-.766l-1.156.094v.266c.547 0 .61.047.61.437v2.094c0 .36-.094.36-.61.36V0c.344-.031.688-.031.906-.031.235 0 .563 0 .907.031v-.266c-.5 0-.61 0-.61-.359v-1.437c0-.844.64-1.235 1.14-1.235.517 0 .61.406.61.844v1.828c0 .36-.11.36-.61.36V0c.345-.031.688-.031.907-.031.235 0 .563 0 .906.031v-.266c-.515 0-.609 0-.609-.359v-1.437c0-.844.64-1.235 1.14-1.235.516 0 .61.406.61.844v1.828c0 .36-.11.36-.61.36V0c.344-.031.688-.031.907-.031.234 0 .562 0 .906.031m0 0"/><path id="bA" d="M4.094-.719v-.437h-.25v.437c0 .328-.11.453-.281.453-.297 0-.297-.359-.297-.453v-1.656c0-.781-.75-1.172-1.485-1.172-.656 0-1.25.25-1.25.781a.36.36 0 0 0 .375.375.36.36 0 0 0 .375-.375.356.356 0 0 0-.297-.359c.297-.203.735-.203.782-.203.453 0 .89.312.89.969v.234c-.453.031-.984.047-1.547.281-.703.313-.843.766-.843 1.032 0 .687.812.89 1.359.89a1.23 1.23 0 0 0 1.11-.64c.046.296.25.609.609.609.078 0 .75-.031.75-.766m-1.438-.406c0 .781-.64.984-.969.984-.406 0-.765-.28-.765-.671 0-.516.5-1.063 1.734-1.094Zm0 0"/><path id="bB" d="M3.063-3.016c0-.28-.25-.5-.61-.5-.515 0-.875.391-1.031.844h-.016v-.844l-1.125.094v.266c.547 0 .61.047.61.437v2.094c0 .36-.11.36-.61.36V0c.313-.031.75-.031.938-.031.468 0 .484 0 1 .031v-.266h-.156c-.579 0-.594-.078-.594-.375v-1.171c0-.61.25-1.47 1.015-1.485-.046.031-.14.094-.14.281 0 .25.203.36.36.36.187 0 .358-.125.358-.36m0 0"/><path id="bC" d="M2.813-1v-.437h-.25v.421c0 .547-.25.844-.547.844-.532 0-.532-.687-.532-.812v-2.188h1.188v-.265H1.484v-1.47h-.25c0 .735-.328 1.485-1.078 1.516v.22h.719V-1c0 .938.719 1.078 1.078 1.078.547 0 .86-.469.86-1.078m0 0"/><path id="bD" d="M5.938-3.172v-.265c-.266.03-.282.03-.625.03-.25 0-.47 0-.72-.03v.265c.345.016.438.219.438.36 0 .109-.031.156-.047.203l-.75 1.984-.828-2.172c-.031-.11-.031-.125-.031-.156 0-.203.25-.219.438-.219v-.265c-.313.03-.735.03-.813.03-.172 0-.5 0-.734-.03v.265c.484 0 .5.047.656.469L2.187-.734l-.796-2.078c0-.032-.032-.11-.032-.141 0-.219.297-.219.438-.219v-.265c-.344.03-.703.03-.844.03-.14 0-.562 0-.781-.03v.265c.39 0 .469.031.562.25L1.797-.109c.047.125.078.187.203.187.14 0 .172-.094.203-.187l.844-2.235.844 2.235c.046.093.078.187.218.187.125 0 .157-.078.188-.172l.969-2.531c.062-.187.203-.531.672-.547m0 0"/><path id="bE" d="M4.281-3.172v-.265c-.265.03-.281.03-.625.03-.031 0-.453 0-.687-.03v.265c.234.016.344.14.344.328 0 .047 0 .11-.047.203L2.422-.719l-.938-2.093c-.046-.11-.046-.126-.046-.157 0-.187.25-.203.421-.203v-.265c-.359.03-.703.03-.875.03-.171 0-.546 0-.812-.03v.265c.422 0 .531.016.672.313L2.094 0C1.734.844 1.5 1.406.938 1.406c-.204 0-.329-.093-.329-.093A.35.35 0 0 0 .86.969.336.336 0 0 0 .516.625c-.172 0-.344.11-.344.36 0 .343.344.64.766.64.718 0 1.093-.86 1.125-.937L3.53-2.625c.203-.453.5-.531.75-.547m0 0"/><path id="bF" d="M3.516-.953c0-.094-.11-.094-.125-.094-.063 0-.094 0-.125.078a1.07 1.07 0 0 1-1.078.797C1.703-.172.984-.547.984-1.734c0-1.141.594-1.578 1.172-1.578.078 0 .5 0 .781.156a.336.336 0 0 0-.265.344c0 .218.156.374.375.374s.375-.14.375-.39c0-.485-.531-.719-1.281-.719-1.11 0-1.86.875-1.86 1.828C.281-.703 1.11.078 2.11.078c1.125 0 1.407-.937 1.407-1.031m0 0"/><path id="bG" d="M4.484 0v-.266c-.515 0-.609 0-.609-.359v-1.797c0-.656-.312-1.094-1.14-1.094-.704 0-1.063.454-1.22.704v-2.72l-1.187.095v.265c.547 0 .61.047.61.438v4.109c0 .36-.094.36-.61.36V0c.344-.031.688-.031.906-.031.235 0 .563 0 .907.031v-.266c-.5 0-.61 0-.61-.359v-1.437c0-.844.64-1.235 1.125-1.235s.61.344.61.844v1.828c0 .36-.094.36-.61.36V0c.344-.031.703-.031.906-.031.235 0 .579 0 .922.031m0 0"/><path id="bH" d="M3.047-1.031c0-.375-.219-.938-1.172-1.11a10 10 0 0 0-.547-.093c-.25-.063-.625-.235-.625-.547 0-.235.188-.578.938-.578.89 0 .937.656.953.875 0 .062.062.093.11.093.14 0 .14-.062.14-.203v-.75c0-.125 0-.203-.11-.203-.046 0-.062 0-.187.125-.016 0-.094.078-.11.078 0 0-.03 0-.078-.031-.125-.094-.359-.172-.718-.172-1.11 0-1.36.594-1.36.985 0 .39.297.624.313.656.328.234.5.265 1.047.36.375.077.984.187.984.718 0 .312-.203.687-.937.687C.875-.14.64-.766.547-1.187c-.031-.11-.047-.141-.14-.141-.126 0-.126.062-.126.219v.984c0 .125 0 .203.094.203.063 0 .063 0 .203-.156.047-.047.125-.14.172-.188.36.329.734.344.938.344 1.015 0 1.359-.578 1.359-1.11m0 0"/><path id="bI" d="m2.422-3.406-.156-.203-.516.375v-2.297l-1.187.093v.266c.53 0 .593.047.593.438v1.937l-.672.5.157.219.515-.39v1.843c0 .36-.093.36-.593.36V0c.312-.031.75-.031.89-.031.156 0 .594 0 .89.031v-.266c-.5 0-.593 0-.593-.359v-2.281Zm0 0"/><path id="bJ" d="M5.281-3.953c0-.781-.843-1.485-1.984-1.485H.359v.266h.188c.61 0 .625.078.625.375V-.64c0 .297-.016.375-.625.375H.359V0l1.172-.031L2.703 0v-.266h-.172c-.61 0-.625-.078-.625-.375v-1.843H3.36c.97 0 1.922-.625 1.922-1.47m-.828 0c0 .344 0 1.234-1.36 1.234H1.876v-2.14c0-.266.016-.313.39-.313h.829c1.36 0 1.36.86 1.36 1.219m0 0"/><path id="bK" d="M4.484 0v-.266c-.515 0-.609 0-.609-.359v-1.797c0-.656-.312-1.094-1.14-1.094a1.38 1.38 0 0 0-1.25.766v-.766l-1.157.094v.266c.547 0 .61.047.61.437v2.094c0 .36-.094.36-.61.36V0c.344-.031.688-.031.906-.031.235 0 .563 0 .907.031v-.266c-.5 0-.61 0-.61-.359v-1.437c0-.844.64-1.235 1.125-1.235s.61.344.61.844v1.828c0 .36-.094.36-.61.36V0c.344-.031.703-.031.906-.031.235 0 .579 0 .922.031m0 0"/><path id="bL" d="M3.797-1.422h-.25c-.016.156-.078.547-.172.703-.047.063-.656.063-.781.063H1.172l1.078-.969c.125-.125.453-.39.594-.5.484-.453.953-.89.953-1.61 0-.953-.797-1.562-1.781-1.562-.97 0-1.594.719-1.594 1.438 0 .39.312.437.422.437.172 0 .422-.11.422-.422 0-.406-.407-.406-.5-.406.234-.594.765-.781 1.156-.781.734 0 1.125.625 1.125 1.297 0 .828-.578 1.437-1.531 2.39l-1 1.047C.422-.219.422-.203.422 0h3.14Zm0 0"/><path id="bM" d="M3.89-2.547c0-.844-.078-1.36-.343-1.875-.344-.703-1-.875-1.438-.875-1 0-1.375.75-1.484.969C.344-3.75.328-2.953.328-2.547c0 .531.016 1.328.406 1.969.36.594.954.75 1.375.75.391 0 1.063-.125 1.47-.906.296-.578.312-1.297.312-1.813m-.703-.094c0 .47 0 1.188-.093 1.641-.172.828-.719.938-.985.938-.265 0-.812-.125-.984-.954-.094-.453-.094-1.203-.094-1.625 0-.546 0-1.109.094-1.546.172-.813.781-.891.984-.891.266 0 .829.14.985.86.094.437.094 1.046.094 1.577m0 0"/><path id="bN" d="M3.797-1.594c0-.922-.672-1.75-1.61-1.75-.39 0-.765.125-1.078.406v-1.546c.11.03.422.125.766.125 1 0 1.594-.703 1.594-.828 0-.094-.047-.11-.094-.11 0 0-.031 0-.094.031a3 3 0 0 1-1.11.22c-.468 0-.858-.11-1.108-.22-.079-.03-.11-.03-.11-.03-.094 0-.094.077-.094.234v2.328c0 .14 0 .234.125.234.063 0 .079-.031.125-.094.094-.11.391-.515 1.079-.515.437 0 .656.359.734.515.125.281.14.656.14.953s0 .735-.218 1.079c-.156.25-.485.484-.906.484A1.27 1.27 0 0 1 .734-.922c.016.016.079.016.079.016.218 0 .406-.14.406-.39a.39.39 0 0 0-.39-.407c-.157 0-.407.078-.407.422 0 .718.625 1.453 1.531 1.453 1 0 1.844-.781 1.844-1.766m0 0"/><path id="bO" d="M1.734-4.672c0-.469-.187-.86-.562-.86a.427.427 0 0 0-.438.438c0 .235.172.453.438.453.219 0 .297-.093.344-.14 0 .781-.282 1.14-.641 1.484-.031.031-.031.078-.031.078 0 .078.062.125.11.125.109 0 .78-.64.78-1.578m1.657 0c0-.469-.188-.86-.563-.86a.44.44 0 0 0-.453.438c0 .235.172.453.453.453.219 0 .281-.093.328-.14 0 .781-.281 1.14-.625 1.484-.047.031-.047.078-.047.078 0 .078.079.125.11.125.11 0 .797-.64.797-1.578m0 0"/><path id="bP" d="M4.422-1.719c0-1-.813-1.797-1.781-1.797-.313 0-.766.079-1.172.5v-.5L.28-3.422v.266c.563 0 .61.047.61.375V.922c0 .36-.11.36-.61.36v.265c.344-.031.688-.031.907-.031.234 0 .562 0 .906.03v-.265c-.516 0-.61 0-.61-.36V-.39a1.37 1.37 0 0 0 1.047.47c1 0 1.89-.782 1.89-1.798m-.719 0c0 .907-.578 1.578-1.219 1.578-.28 0-.64-.125-.906-.515-.094-.14-.094-.156-.094-.297v-1.703c.188-.313.594-.61 1.094-.61.61 0 1.125.672 1.125 1.547m0 0"/><path id="bQ" d="M3.406-1.531h-.25C3.078-.61 2.922-.25 1.937-.25H1l2.313-2.906c.046-.078.062-.094.062-.156 0-.126-.094-.126-.219-.126H.453l-.11 1.329h.25c.048-.828.235-1.11 1.126-1.11h.906L.313-.297C.25-.219.233-.203.233-.14.234 0 .328 0 .47 0h2.797Zm0 0"/><path id="bR" d="M3.984-1.703c0-.984-.828-1.844-1.875-1.844-1.046 0-1.875.86-1.875 1.844 0 1 .86 1.781 1.875 1.781 1.032 0 1.875-.781 1.875-1.781m-.703-.063c0 .36-.015.797-.25 1.141-.203.313-.562.453-.922.453-.421 0-.765-.203-.937-.484-.203-.328-.219-.719-.219-1.11 0-.312 0-.78.235-1.125.218-.28.546-.437.921-.437.422 0 .766.203.938.469.219.343.234.765.234 1.093m-.11-3.484c0-.172-.171-.312-.312-.312-.03 0-.14 0-.25.125L1.594-4.22l.172.172 1.25-.937c.078-.063.156-.125.156-.266m0 0"/><path id="bS" d="M2.078 0v-.266c-.531 0-.562-.03-.562-.343v-2.907l-1.157.094v.266c.516 0 .579.047.579.437v2.094c0 .36-.094.36-.61.36V0c.313-.031.766-.031.89-.031.095 0 .579 0 .86.031m-.453-4.797a.453.453 0 0 0-.453-.453.45.45 0 0 0-.438.453c0 .234.188.438.438.438a.45.45 0 0 0 .453-.438m0 0"/><path id="bT" d="M3.89-5.172v-.266c-.406.016-.624.016-1.078.016-.343 0-.953 0-1.28-.016v.266h.265c.75 0 .781.094.781.375v3.61c0 .734-.437 1.125-.86 1.125-.343 0-.702-.157-.89-.407.219 0 .469-.14.469-.437a.426.426 0 0 0-.438-.438c-.171 0-.437.11-.437.453C.422-.297 1 .172 1.75.172c.734 0 1.531-.484 1.531-1.36v-3.64c0-.344.094-.344.61-.344m0 0"/><path id="bU" d="M3.516-.953a.12.12 0 0 0-.125-.11c-.094 0-.11.047-.125.094a1.14 1.14 0 0 1-1.11.797c-.36 0-.734-.156-.969-.531-.234-.36-.234-.875-.234-1.11h2.344c.172 0 .219 0 .219-.187 0-.703-.391-1.547-1.516-1.547-.984 0-1.766.813-1.766 1.797 0 1.031.86 1.828 1.875 1.828 1 0 1.407-.844 1.407-1.031m-.547-1.078H.953c.078-1.11.75-1.297 1.047-1.297.938 0 .969 1.125.969 1.297m0 0"/><path id="bV" d="M1.625-.437a.453.453 0 0 0-.453-.454.436.436 0 0 0-.438.438.44.44 0 0 0 .438.453.45.45 0 0 0 .453-.437m0 0"/><path id="bW" d="M2.813 1.89c0-.03 0-.03-.11-.14C1.61.719 1.343-.75 1.343-1.984c0-2.297.938-3.375 1.345-3.75.124-.094.124-.11.124-.141 0-.047-.03-.094-.109-.094-.125 0-.531.407-.594.469C1.047-4.375.83-2.953.83-1.984c0 1.78.734 3.218 1.827 3.968.063 0 .156 0 .156-.093m0 0"/><path id="bX" d="M4.422 0v-.266c-.547 0-.61-.046-.61-.437v-4.828l-1.187.093v.266c.531 0 .61.047.61.438v1.687a1.4 1.4 0 0 0-1.079-.469c-1 0-1.875.782-1.875 1.797 0 .985.797 1.797 1.797 1.797.469 0 .86-.219 1.125-.5v.5ZM3.203-.984c0 .14 0 .172-.125.328a1.15 1.15 0 0 1-.953.515c-.375 0-.687-.187-.875-.484-.219-.312-.266-.703-.266-1.078 0-.469.079-.797.266-1.063.188-.296.547-.53.953-.53.375 0 .766.202 1 .608Zm0 0"/><path id="bY" d="M2.469-1.984c0-.766-.14-1.672-.625-2.61C1.454-5.328.719-5.969.578-5.969c-.078 0-.094.047-.094.094 0 .031 0 .047.094.14 1.11 1.063 1.36 2.516 1.36 3.75C1.938.298 1 1.376.593 1.75c-.11.094-.11.11-.11.14 0 .048.016.094.094.094.125 0 .531-.406.594-.468C2.234.39 2.469-1.031 2.469-1.984m0 0"/><path id="cd" d="M5.547 0v-.25h-.125c-.469 0-.516-.078-.594-.266L3.125-4.812c-.031-.11-.062-.157-.187-.157-.141 0-.157.047-.204.157L1.125-.734C1.063-.562.938-.25.313-.25V0c.234-.016.484-.031.718-.031.282 0 .797.031.844.031v-.25c-.312 0-.516-.14-.516-.328 0-.063.016-.078.047-.14l.328-.86H3.72l.406 1.016c0 .03.031.078.031.109 0 .203-.375.203-.562.203V0l1.031-.031c.328 0 .86.031.922.031M3.609-1.828H1.83l.89-2.266Zm0 0"/><path id="ce" d="M4.047 0v-.25c-.469 0-.516-.047-.516-.39v-4.204l-1.047.078v.25c.47 0 .516.063.516.391v1.453a1.37 1.37 0 0 0-.969-.406c-.937 0-1.703.703-1.703 1.578S1.062.063 1.938.063c.578 0 .921-.297 1.03-.422v.422ZM2.969-.734c-.172.328-.531.609-.985.609-.39 0-.671-.234-.812-.437-.14-.204-.219-.485-.219-.922 0-.172 0-.688.281-1.016.282-.312.625-.375.829-.375.328 0 .64.156.828.406.078.11.078.11.078.25Zm0 0"/><path id="cf" d="M5.469-2.75V-3c-.188.016-.313.031-.5.031-.219 0-.485-.015-.688-.031v.25c.235 0 .36.14.36.297 0 .062 0 .078-.047.172L3.922-.547l-.75-1.906a.3.3 0 0 1-.031-.125c0-.156.172-.172.375-.172V-3c-.25.016-.5.031-.75.031-.203 0-.422-.015-.625-.031v.25c.172 0 .312 0 .406.047.094.078.156.312.156.312s-.015.063-.031.079L2.016-.641l-.703-1.812c-.032-.094-.032-.094-.032-.125 0-.172.25-.172.375-.172V-3s-.515.031-.797.031C.641-2.969.422-2.984.203-3v.25c.281 0 .438 0 .5.203l.969 2.453c.047.11.062.157.203.157.125 0 .14-.047.172-.141l.797-1.984.765 1.968c.047.094.063.157.204.157.124 0 .14-.047.187-.157l.875-2.234c.14-.344.375-.422.594-.422m0 0"/><path id="cg" d="M3.266-.844c0-.015-.016-.094-.125-.094-.094 0-.11.047-.125.11-.22.562-.75.672-1 .672-.328 0-.641-.14-.844-.406-.266-.329-.266-.75-.266-1.032h2.157c.156 0 .203 0 .203-.14 0-.625-.344-1.375-1.391-1.375a1.59 1.59 0 0 0-1.61 1.578c0 .89.782 1.594 1.704 1.594.937 0 1.297-.75 1.297-.907m-.485-.922H.906c.078-.984.703-1.14.969-1.14.86 0 .89.969.906 1.14m0 0"/><path id="ch" d="M4.11 0v-.25c-.454 0-.516 0-.516-.297v-1.562c0-.61-.297-.97-1.047-.97-.578 0-.938.313-1.14.688v-.687L.374-3v.25c.469 0 .531.047.531.39v1.813c0 .297-.078.297-.531.297V0s.5-.031.797-.031c.25 0 .734.031.797.031v-.25c-.453 0-.516 0-.516-.297v-1.265c0-.72.578-1.063 1.031-1.063.485 0 .547.375.547.734v1.594c0 .297-.062.297-.515.297V0s.5-.031.797-.031c.25 0 .734.031.796.031m0 0"/><path id="ci" d="M2.61-.875v-.39h-.235v.374c0 .485-.219.735-.5.735-.469 0-.469-.578-.469-.703V-2.75h1.078V-3H1.406v-1.281h-.25c0 .625-.281 1.312-.953 1.328v.203h.64v1.875c0 .781.595.938.985.938.469 0 .781-.391.781-.938m0 0"/><path id="cj" d="M3.516-1.266H3.28c-.015.157-.094.563-.187.625-.047.047-.578.047-.688.047H1.125c.734-.64.984-.843 1.39-1.172.516-.406 1-.843 1-1.5 0-.843-.734-1.359-1.624-1.359-.86 0-1.453.61-1.453 1.25 0 .344.296.39.375.39.156 0 .359-.124.359-.374 0-.125-.047-.375-.406-.375.218-.485.687-.641 1.015-.641.703 0 1.063.547 1.063 1.11 0 .609-.438 1.078-.656 1.328L.516-.266C.437-.203.437-.187.437 0h2.876Zm0 0"/><path id="ck" d="M3.594-2.219c0-.765-.094-1.328-.406-1.812-.22-.313-.657-.594-1.204-.594C.36-4.625.36-2.719.36-2.219s0 2.36 1.625 2.36c1.61 0 1.61-1.86 1.61-2.36m-.625-.094c0 .516 0 1.032-.094 1.47-.14.64-.61.78-.89.78-.329 0-.75-.187-.891-.75C1-1.219 1-1.796 1-2.312c0-.515 0-1.046.094-1.421.156-.547.593-.703.89-.703.375 0 .735.234.86.64.11.375.125.875.125 1.485m0 0"/><path id="cl" d="M3.516-1.406c0-.782-.594-1.5-1.453-1.5-.313 0-.672.062-.985.328v-1.313c.36.094.563.094.672.094.922 0 1.469-.625 1.469-.734 0-.078-.047-.094-.078-.094 0 0-.032 0-.063.016-.172.062-.531.203-1.047.203-.203 0-.562-.016-1.015-.188-.079-.031-.094-.031-.094-.031-.094 0-.094.078-.094.188v2.046c0 .125 0 .204.11.204.062 0 .078 0 .14-.094.297-.375.734-.438.969-.438.422 0 .61.328.64.39.126.235.172.5.172.907 0 .203 0 .61-.218.922a.98.98 0 0 1-.813.422c-.453 0-.922-.25-1.094-.719.266.016.407-.156.407-.344 0-.296-.266-.343-.36-.343 0 0-.343 0-.343.375 0 .625.578 1.25 1.406 1.25.89 0 1.672-.657 1.672-1.547m0 0"/><path id="cm" d="M7.813-1.75v-.203H.109v.203Zm0 0"/><path id="cn" d="M3.578-2.297c0-1.719-.765-2.328-1.578-2.328a1.55 1.55 0 0 0-1.11.422c-.234.234-.515.5-.515 1.125 0 .89.703 1.547 1.516 1.547.562 0 .859-.375 1.015-.688v.14c0 1.735-.844 2-1.265 2-.157 0-.532-.015-.72-.233a.315.315 0 0 0 .313-.329.32.32 0 0 0-.328-.328c-.203 0-.328.14-.328.344 0 .469.39.766 1.063.766 1 0 1.937-.938 1.937-2.438M2.891-3c0 .906-.516 1.266-.953 1.266-.282 0-.532-.079-.735-.407-.156-.25-.156-.546-.156-.937 0-.406 0-.672.203-.953.172-.25.39-.39.75-.39s.578.218.688.405c.187.282.203.782.203 1.016m0 0"/><path id="co" d="M2.516 0v-.25h-.172c-.578 0-.578-.078-.578-.328v-3.61c0-.234 0-.328.578-.328h.172v-.25l-1.078.032-1.079-.032v.25h.172c.578 0 .578.094.578.329v3.609c0 .25 0 .328-.578.328H.36V0l1.079-.031Zm0 0"/><path id="cp" d="M3.578-1.422c0-.89-.703-1.547-1.515-1.547-.563 0-.86.375-1.016.688 0-.563.047-1.078.312-1.516.235-.375.61-.625 1.063-.625.203 0 .484.047.625.234-.172.016-.328.141-.328.344a.32.32 0 0 0 .328.328c.219 0 .344-.14.344-.343 0-.407-.297-.766-.985-.766-1 0-2.031.922-2.031 2.422C.375-.406 1.219.14 2 .14c.844 0 1.578-.657 1.578-1.563m-.672 0c0 .39 0 .688-.187.969A.82.82 0 0 1 2-.078c-.36 0-.625-.203-.781-.516-.094-.203-.157-.562-.157-.968 0-.688.407-1.204.97-1.204.312 0 .53.125.702.375.172.266.172.563.172.97m0 0"/><path id="cq" d="M2.016 1.734v-.328h-.72V-4.89h.72v-.328H.953v6.953Zm0 0"/><path id="cr" d="M3.578-1.203c0-.547-.437-1.094-1.203-1.25.719-.266.984-.781.984-1.219 0-.547-.625-.953-1.406-.953-.766 0-1.36.375-1.36.938 0 .234.157.359.36.359.219 0 .36-.156.36-.344 0-.203-.141-.36-.36-.375.25-.297.719-.375.985-.375.312 0 .75.156.75.75 0 .297-.094.625-.282.828-.219.266-.422.281-.765.313-.172.015-.188.015-.22.015 0 0-.077.016-.077.094 0 .094.062.094.187.094h.375c.547 0 .938.375.938 1.125 0 .86-.516 1.125-.906 1.125-.282 0-.907-.078-1.188-.5.328 0 .406-.235.406-.39 0-.22-.172-.376-.39-.376a.38.38 0 0 0-.391.407C.375-.281 1.094.14 1.938.14c.968 0 1.64-.657 1.64-1.344m0 0"/><path id="cs" d="M1.531-.39a.403.403 0 0 0-.406-.407.4.4 0 0 0-.406.39c0 .25.203.407.406.407a.4.4 0 0 0 .406-.39m0 0"/><path id="ct" d="M1.297 1.734v-6.953H.219v.328h.734v6.297H.22v.328Zm0 0"/><path id="cu" d="M4.563 0v-.437H3.266v-5.157c0-.187 0-.297-.266-.297-.11 0-.125 0-.203.063-.688.516-1.656.516-1.828.516H.797v.437h.172a4.2 4.2 0 0 0 1.203-.172v4.61H.89V0c.343-.031 1.422-.031 1.828-.031.422 0 1.484 0 1.844.031m0 0"/><path id="cv" d="M4.86-2.953c0-.469-.032-1.39-.485-2.094-.297-.437-.828-.844-1.719-.844-1.281 0-2.218.72-2.218 1.938 0 1.125.765 1.937 2.093 1.937.406 0 .781-.203 1.063-.687v.172c0 .578-.063 1.156-.235 1.531-.109.234-.468.703-1.171.703-.079 0-.454 0-.735-.187a.55.55 0 0 0 .422-.563c0-.375-.281-.578-.578-.578-.25 0-.594.14-.594.594 0 .61.469 1.14 1.5 1.14 1.25 0 2.656-.796 2.656-3.062m-1.266-.89c0 .406-.172 1.452-1.031 1.452-.86 0-.86-.656-.86-1.53 0-.876 0-1.61.984-1.61.563 0 .766.515.797.593.11.297.11.782.11 1.094m0 0"/><path id="cw" d="M4.766-2.016h-.453c-.016.125-.094.766-.235.829-.11.046-.781.046-.937.046H1.859c.485-.39 1.016-.812 1.47-1.125.75-.53 1.437-1.015 1.437-1.89 0-1.047-.953-1.735-2.25-1.735-1.11 0-1.985.532-1.985 1.36 0 .468.36.687.672.687a.65.65 0 0 0 .656-.672c0-.203-.078-.53-.468-.64.312-.25.718-.282.89-.282.735 0 1.203.547 1.203 1.282 0 .656-.375 1.234-.859 1.718l-2 1.985c-.094.094-.094.11-.094.281V0H4.5Zm0 0"/><clipPath id="b"><path d="M.535.266h6.883v9.636H.535Zm0 0"/></clipPath><clipPath id="a"><path d="M0 0h8v10H0z"/></clipPath><clipPath id="d"><path d="M.262 1h20.847v9.402H.262Zm0 0"/></clipPath><clipPath id="c"><path d="M0 0h22v11H0z"/></clipPath><clipPath id="bZ"><path d="M15.023 568.348H403v11.336H15.023Zm0 0"/></clipPath><g id="e" clip-path="url(#a)"><g clip-path="url(#b)"><path fill-rule="evenodd" d="m3.977 7.836 3.441 2.066V1.645c0-.762-.617-1.38-1.375-1.38H1.914C1.152.266.535.884.535 1.646v8.257Zm-2.754.851 2.754-1.652L6.73 8.687V1.646a.69.69 0 0 0-.687-.692H1.914a.69.69 0 0 0-.691.692Zm0 0"/></g></g><g id="K" clip-path="url(#c)"><g clip-path="url(#d)"><path d="m20 6.488-.2-.23q.767-.574.766-1.594 0-.732-1.078-.773-1.201-.046-1.203-1.024 0-.504.34-1.137h.195q.076.495.66.543l.66.043q.969.076.97 1.34V4.2Q21.107 5.918 20 6.49m-4.059 3.644-.117-.153q.188-.321.188-.761 0-.427-.059-1.281a21 21 0 0 1-.058-1.29c0-1.164.285-2.082.847-2.75h-4.265q-1.09 0-1.09-.914c0-.472.144-.867.441-1.187h.195c.075.336.305.508.68.508h3.535c.301 0 .535.05.692.152q.241.152.242.707v.356q0 .27-.27.703-.26.428-.261 1.332.002.52.168 1.562c.109.696.168 1.219.168 1.567q-.002 1.287-1.036 1.449m-4.382.004-.102-.157q.188-.197.188-.53-.001-.225-.02-.68a15 15 0 0 1-.023-.68c0-1.008.363-1.516 1.085-1.516q.147 0 .247.059v.195c-.23.152-.348.465-.348.95 0 .16.012.394.031.71q.029.47.028.703-.002.88-1.086.946m-2.086-.051-.16-.05v-5q0-.523-.165-.77c-.105-.168-.402-.293-.882-.368q-1.102-.18-1.102-1.101 0-.667.418-1.067h.195q.062.45.602.543l.61.094q.51.08.738.395.239.31.238 1.234v5.195q0 .644-.492.895m-4.657.047-.113-.153q.188-.321.188-.761 0-.427-.059-1.281a21 21 0 0 1-.059-1.29q0-1.747.848-2.75H1.355c-.726 0-1.093-.304-1.093-.914q0-.707.441-1.187h.195c.079.336.305.508.684.508h3.531q.456 0 .696.152t.238.707v.356q.002.27-.266.703-.263.428-.261 1.332-.002.52.168 1.562.164 1.045.164 1.567.001 1.287-1.036 1.449m-4.378.004L.336 9.98q.187-.197.187-.53 0-.225-.023-.68-.019-.458-.02-.68c0-1.008.364-1.516 1.086-1.516q.147 0 .246.059v.195c-.23.152-.347.465-.347.95 0 .16.008.394.027.71q.03.47.031.703-.001.88-1.085.946"/></g></g><linearGradient id="ca" x1="0" x2="388.063" y1="0" y2="0" gradientTransform="matrix(1 0 0 -1 15.024 579.685)" gradientUnits="userSpaceOnUse"><stop offset="0" stop-color="#f2f2f2"/><stop offset=".25" stop-color="#f2f2f2"/><stop offset=".313" stop-color="#f2f2f2"/><stop offset=".344" stop-color="#f2f2f2"/><stop offset=".359" stop-color="#f3f3f3"/><stop offset=".363" stop-color="#f4f4f4"/><stop offset=".367" stop-color="#f5f5f5"/><stop offset=".371" stop-color="#f6f6f6"/><stop offset=".375" stop-color="#f7f7f7"/><stop offset=".379" stop-color="#f8f8f8"/><stop offset=".383" stop-color="#f9f9f9"/><stop offset=".387" stop-color="#fafafa"/><stop offset=".391" stop-color="#fbfbfb"/><stop offset=".395" stop-color="#fcfcfc"/><stop offset=".398" stop-color="#fcfcfc"/><stop offset=".406" stop-color="#fcfcfc"/><stop offset=".438" stop-color="#fcfcfc"/><stop offset=".5" stop-color="#fcfcfc"/><stop offset=".563" stop-color="#fcfcfc"/><stop offset=".566" stop-color="#fcfcfc"/><stop offset=".57" stop-color="#fbfbfb"/><stop offset=".574" stop-color="#fafafa"/><stop offset=".578" stop-color="#f9f9f9"/><stop offset=".582" stop-color="#f8f8f8"/><stop offset=".586" stop-color="#f7f7f7"/><stop offset=".59" stop-color="#f6f6f6"/><stop offset=".594" stop-color="#f5f5f5"/><stop offset=".598" stop-color="#f4f4f4"/><stop offset=".602" stop-color="#f3f3f3"/><stop offset=".609" stop-color="#f3f3f3"/><stop offset=".625" stop-color="#f2f2f2"/><stop offset=".75" stop-color="#f2f2f2"/><stop offset="1" stop-color="#f2f2f2"/></linearGradient></defs><use xlink:href="#e" transform="translate(9 27)"/><use xlink:href="#f" x="17.008" y="23.315"/><use xlink:href="#g" x="20.884" y="23.315"/><use xlink:href="#h" x="26.154" y="23.315"/><use xlink:href="#i" x="384.039" y="23.315"/><use xlink:href="#j" x="390.168" y="23.315"/><use xlink:href="#k" x="392.79" y="23.315"/><use xlink:href="#l" x="396.727" y="23.315"/><use xlink:href="#m" x="113.145" y="34.908"/><use xlink:href="#n" x="119.35" y="34.908"/><use xlink:href="#o" x="125.626" y="34.908"/><use xlink:href="#p" x="132.333" y="34.908"/><use xlink:href="#q" x="140.857" y="34.908"/><use xlink:href="#r" x="146.966" y="34.908"/><use xlink:href="#s" x="155.011" y="34.908"/><use xlink:href="#t" x="162.675" y="34.908"/><use xlink:href="#u" x="168.652" y="34.908"/><use xlink:href="#v" x="178.085" y="34.908"/><use xlink:href="#w" x="186.848" y="34.908"/><use xlink:href="#x" x="193.423" y="34.908"/><use xlink:href="#y" x="199.998" y="34.908"/><use xlink:href="#q" x="203.059" y="34.908"/><use xlink:href="#z" x="209.168" y="34.908"/><use xlink:href="#z" x="223.92" y="34.908"/><use xlink:href="#t" x="234.285" y="34.908"/><use xlink:href="#z" x="240.263" y="34.908"/><use xlink:href="#A" x="259.596" y="34.908"/><use xlink:href="#B" x="263.182" y="34.908"/><use xlink:href="#C" x="265.756" y="34.908"/><use xlink:href="#D" x="271.108" y="34.908"/><use xlink:href="#E" x="275.717" y="34.908"/><use xlink:href="#F" x="280.325" y="34.908"/><use xlink:href="#G" x="284.235" y="34.908"/><use xlink:href="#H" x="288.843" y="34.908"/><use xlink:href="#I" x="293.452" y="34.908"/><use xlink:href="#J" x="298.06" y="34.908"/><use xlink:href="#K" transform="translate(378 26)"/><path fill="none" stroke="#000" stroke-miterlimit="10" stroke-width=".398" d="M17.008 39.293h384.094"/><use xlink:href="#L" x="399.042" y="149.391"/><use xlink:href="#M" x="399.042" y="145.039"/><use xlink:href="#N" x="399.042" y="140.807"/><use xlink:href="#O" x="399.042" y="136.344"/><use xlink:href="#P" x="399.042" y="132.112"/><use xlink:href="#Q" x="399.042" y="128.35"/><use xlink:href="#R" x="399.042" y="123.178"/><use xlink:href="#S" x="399.042" y="119.886"/><use xlink:href="#T" x="399.042" y="112.362"/><use xlink:href="#U" x="399.042" y="109.023"/><use xlink:href="#V" x="399.042" y="105.261"/><use xlink:href="#V" x="399.042" y="100.089"/><use xlink:href="#W" x="399.042" y="97.737"/><use xlink:href="#X" x="399.042" y="92.565"/><use xlink:href="#V" x="399.042" y="85.511"/><use xlink:href="#Y" x="399.042" y="83.16"/><use xlink:href="#Z" x="399.042" y="76.107"/><use xlink:href="#V" x="399.042" y="69.643"/><use xlink:href="#Y" x="399.042" y="67.292"/><use xlink:href="#aa" x="399.042" y="60.239"/><use xlink:href="#ab" x="399.042" y="55.536"/><use xlink:href="#ac" x="399.042" y="53.185"/><use xlink:href="#ad" x="399.042" y="48.953"/><use xlink:href="#ad" x="399.042" y="44.721"/><use xlink:href="#ae" x="403.164" y="40.487"/><use xlink:href="#af" x="403.164" y="46.122"/><use xlink:href="#ag" x="403.164" y="50.354"/><use xlink:href="#ah" x="403.164" y="54.817"/><use xlink:href="#ai" x="403.164" y="59.049"/><use xlink:href="#ag" x="403.164" y="62.811"/><use xlink:href="#aj" x="403.164" y="67.513"/><use xlink:href="#ak" x="403.164" y="72.678"/><use xlink:href="#al" x="403.164" y="75.969"/><use xlink:href="#ai" x="403.164" y="83.493"/><use xlink:href="#am" x="403.164" y="87.255"/><use xlink:href="#ai" x="403.164" y="90.555"/><use xlink:href="#an" x="403.164" y="94.316"/><use xlink:href="#ao" x="403.164" y="100.477"/><use xlink:href="#ap" x="403.164" y="107.531"/><use xlink:href="#aq" x="403.164" y="112.703"/><use xlink:href="#ap" x="403.164" y="119.167"/><use xlink:href="#ar" x="403.164" y="121.518"/><use xlink:href="#an" x="403.164" y="125.75"/><use xlink:href="#as" x="403.164" y="131.911"/><use xlink:href="#at" x="403.164" y="136.613"/><use xlink:href="#au" x="403.164" y="138.964"/><use xlink:href="#av" x="403.164" y="143.196"/><use xlink:href="#aw" x="403.164" y="147.428"/><use xlink:href="#ax" x="112.087" y="61.174"/><use xlink:href="#ay" x="121.663" y="61.174"/><use xlink:href="#az" x="122.057" y="61.174"/><use xlink:href="#aA" x="141.927" y="51.089" fill="red"/><use xlink:href="#aB" x="141.927" y="61.174"/><use xlink:href="#aC" x="147.414" y="61.174"/><use xlink:href="#aD" x="153.021" y="61.174"/><use xlink:href="#aE" x="159.023" y="61.174"/><use xlink:href="#aF" x="166.662" y="61.174"/><use xlink:href="#aG" x="171.863" y="56.835"/><use xlink:href="#aH" x="176.517" y="61.174"/><use xlink:href="#aI" x="183.666" y="61.174"/><use xlink:href="#aJ" x="190.672" y="61.174"/><use xlink:href="#aK" x="196.028" y="61.174"/><use xlink:href="#aL" x="204.408" y="61.174"/><use xlink:href="#aM" x="212.179" y="61.174"/><use xlink:href="#aN" x="218.037" y="61.174"/><use xlink:href="#aO" x="223.895" y="61.174"/><use xlink:href="#aF" x="226.644" y="61.174"/><use xlink:href="#aP" x="231.845" y="61.174"/><use xlink:href="#aQ" x="244.997" y="51.089" fill="red"/><use xlink:href="#aR" x="252.325" y="46.749" fill="red"/><use xlink:href="#aP" x="244.997" y="61.174"/><use xlink:href="#aJ" x="254.25" y="61.174"/><use xlink:href="#aP" x="259.606" y="61.174"/><use xlink:href="#aH" x="268.859" y="61.174"/><use xlink:href="#aS" x="141.927" y="82.818"/><use xlink:href="#aT" x="148.251" y="82.818"/><use xlink:href="#aU" x="153.452" y="82.818"/><use xlink:href="#aT" x="159.453" y="82.818"/><use xlink:href="#aE" x="168.551" y="82.818"/><use xlink:href="#aO" x="176.513" y="82.818"/><use xlink:href="#aF" x="179.262" y="82.818"/><use xlink:href="#aV" x="184.463" y="82.818"/><use xlink:href="#aS" x="187.213" y="82.818"/><use xlink:href="#aO" x="193.214" y="82.818"/><use xlink:href="#aW" x="195.964" y="82.818"/><use xlink:href="#aA" x="205.062" y="72.733" fill="red"/><use xlink:href="#aX" x="205.062" y="82.818"/><use xlink:href="#aO" x="212.546" y="82.818"/><use xlink:href="#aT" x="215.295" y="82.818"/><use xlink:href="#aY" x="220.496" y="82.818"/><use xlink:href="#ax" x="125.417" y="110.439"/><use xlink:href="#aA" x="141.927" y="100.354" fill="red"/><use xlink:href="#aL" x="141.927" y="110.439"/><use xlink:href="#aT" x="149.698" y="110.439"/><use xlink:href="#aU" x="154.898" y="110.439"/><use xlink:href="#aT" x="160.9" y="110.439"/><use xlink:href="#aI" x="169.997" y="110.439"/><use xlink:href="#aE" x="177.003" y="110.439"/><use xlink:href="#aF" x="184.642" y="110.439"/><use xlink:href="#aO" x="193.74" y="110.439"/><use xlink:href="#aP" x="196.49" y="110.439"/><use xlink:href="#aO" x="205.743" y="110.439"/><use xlink:href="#aT" x="208.492" y="110.439"/><use xlink:href="#aZ" x="217.591" y="100.354" fill="red"/><use xlink:href="#ba" x="217.591" y="110.439"/><use xlink:href="#bb" x="222.074" y="110.439"/><use xlink:href="#aC" x="225.505" y="110.439"/><use xlink:href="#aE" x="230.789" y="110.439"/><use xlink:href="#aO" x="238.751" y="110.439"/><use xlink:href="#aW" x="241.501" y="110.439"/><use xlink:href="#aY" x="246.701" y="110.439"/><use xlink:href="#aL" x="141.927" y="132.083"/><use xlink:href="#aT" x="149.698" y="132.083"/><use xlink:href="#aU" x="154.898" y="132.083"/><use xlink:href="#aT" x="160.9" y="132.083"/><use xlink:href="#aI" x="169.997" y="132.083"/><use xlink:href="#aE" x="177.003" y="132.083"/><use xlink:href="#aF" x="184.642" y="132.083"/><use xlink:href="#aO" x="193.74" y="132.083"/><use xlink:href="#aP" x="196.49" y="132.083"/><use xlink:href="#aO" x="205.743" y="132.083"/><use xlink:href="#aT" x="208.492" y="132.083"/><use xlink:href="#ba" x="217.59" y="132.083"/><use xlink:href="#bb" x="222.073" y="132.083"/><use xlink:href="#aC" x="225.504" y="132.083"/><use xlink:href="#aE" x="230.788" y="132.083"/><use xlink:href="#aO" x="238.75" y="132.083"/><use xlink:href="#aW" x="241.5" y="132.083"/><use xlink:href="#aY" x="246.7" y="132.083"/><use xlink:href="#aL" x="141.927" y="153.727"/><use xlink:href="#aT" x="149.698" y="153.727"/><use xlink:href="#aU" x="154.898" y="153.727"/><use xlink:href="#aT" x="160.9" y="153.727"/><use xlink:href="#aI" x="169.997" y="153.727"/><use xlink:href="#aE" x="177.003" y="153.727"/><use xlink:href="#aF" x="184.642" y="153.727"/><use xlink:href="#aO" x="193.74" y="153.727"/><use xlink:href="#aP" x="196.49" y="153.727"/><use xlink:href="#aO" x="205.743" y="153.727"/><use xlink:href="#aT" x="208.492" y="153.727"/><use xlink:href="#aQ" x="217.591" y="143.641" fill="red"/><use xlink:href="#aR" x="224.92" y="139.302" fill="red"/><use xlink:href="#ba" x="217.591" y="153.727"/><use xlink:href="#bb" x="222.074" y="153.727"/><use xlink:href="#aC" x="225.505" y="153.727"/><use xlink:href="#aE" x="230.789" y="153.727"/><use xlink:href="#aO" x="238.751" y="153.727"/><use xlink:href="#aW" x="241.501" y="153.727"/><use xlink:href="#aY" x="246.701" y="153.727"/><use xlink:href="#az" x="122.058" y="175.37"/><use xlink:href="#aA" x="141.927" y="165.285" fill="red"/><use xlink:href="#aB" x="141.927" y="175.37"/><use xlink:href="#aC" x="147.414" y="175.37"/><use xlink:href="#aD" x="153.021" y="175.37"/><use xlink:href="#aE" x="159.023" y="175.37"/><use xlink:href="#aF" x="166.662" y="175.37"/><use xlink:href="#aG" x="171.863" y="171.031"/><use xlink:href="#aH" x="176.517" y="175.37"/><use xlink:href="#aI" x="183.666" y="175.37"/><use xlink:href="#aJ" x="190.672" y="175.37"/><use xlink:href="#aK" x="196.028" y="175.37"/><use xlink:href="#aL" x="204.408" y="175.37"/><use xlink:href="#aM" x="212.179" y="175.37"/><use xlink:href="#aN" x="218.037" y="175.37"/><use xlink:href="#aO" x="223.895" y="175.37"/><use xlink:href="#aF" x="226.644" y="175.37"/><use xlink:href="#aP" x="231.845" y="175.37"/><use xlink:href="#aQ" x="244.997" y="165.285" fill="red"/><use xlink:href="#aR" x="252.325" y="160.945" fill="red"/><use xlink:href="#aP" x="244.997" y="175.37"/><use xlink:href="#aJ" x="254.25" y="175.37"/><use xlink:href="#aP" x="259.606" y="175.37"/><use xlink:href="#aH" x="268.859" y="175.37"/><use xlink:href="#aS" x="141.927" y="197.014"/><use xlink:href="#aT" x="148.251" y="197.014"/><use xlink:href="#aU" x="153.452" y="197.014"/><use xlink:href="#aT" x="159.453" y="197.014"/><use xlink:href="#aE" x="168.551" y="197.014"/><use xlink:href="#aO" x="176.513" y="197.014"/><use xlink:href="#aF" x="179.262" y="197.014"/><use xlink:href="#aV" x="184.463" y="197.014"/><use xlink:href="#aS" x="187.213" y="197.014"/><use xlink:href="#aO" x="193.214" y="197.014"/><use xlink:href="#aW" x="195.964" y="197.014"/><use xlink:href="#aA" x="205.062" y="186.928" fill="red"/><use xlink:href="#aX" x="205.062" y="197.014"/><use xlink:href="#aO" x="212.546" y="197.014"/><use xlink:href="#aT" x="215.295" y="197.014"/><use xlink:href="#aY" x="220.496" y="197.014"/><use xlink:href="#bc" x="278.088" y="168.784"/><use xlink:href="#bd" x="278.088" y="174.038"/><use xlink:href="#be" x="278.088" y="188.282"/><use xlink:href="#bd" x="278.088" y="193.535"/><use xlink:href="#bf" x="278.088" y="198.813"/><use xlink:href="#bg" x="290.865" y="182.304"/><use xlink:href="#bh" x="296.723" y="182.304"/><use xlink:href="#ax" x="125.417" y="224.635"/><use xlink:href="#aA" x="141.927" y="214.55" fill="red"/><use xlink:href="#bi" x="141.927" y="224.635"/><use xlink:href="#bj" x="149.076" y="224.635"/><use xlink:href="#aO" x="155.077" y="224.635"/><use xlink:href="#aE" x="157.827" y="224.635"/><use xlink:href="#aF" x="165.466" y="224.635"/><use xlink:href="#bk" x="170.667" y="224.635"/><use xlink:href="#bl" x="175.867" y="224.635"/><use xlink:href="#aJ" x="180.948" y="224.635"/><use xlink:href="#ba" x="186.304" y="224.635"/><use xlink:href="#bl" x="190.787" y="224.635"/><use xlink:href="#aZ" x="199.766" y="214.55" fill="red"/><use xlink:href="#aK" x="199.766" y="224.635"/><use xlink:href="#aP" x="204.249" y="224.635"/><use xlink:href="#aO" x="213.502" y="224.635"/><use xlink:href="#aF" x="216.252" y="224.635"/><use xlink:href="#bm" x="221.452" y="224.635"/><use xlink:href="#aW" x="225.433" y="224.635"/><use xlink:href="#bj" x="141.927" y="246.279"/><use xlink:href="#aC" x="147.928" y="246.279"/><use xlink:href="#bl" x="157.433" y="246.279"/><use xlink:href="#aC" x="162.514" y="246.279"/><use xlink:href="#aE" x="167.798" y="246.279"/><use xlink:href="#ba" x="175.76" y="246.279"/><use xlink:href="#bl" x="180.243" y="246.279"/><use xlink:href="#aF" x="185.324" y="246.279"/><use xlink:href="#aH" x="190.524" y="246.279"/><use xlink:href="#aM" x="141.927" y="267.922"/><use xlink:href="#ba" x="147.785" y="267.922"/><use xlink:href="#bn" x="152.268" y="267.922"/><use xlink:href="#ba" x="158.269" y="267.922"/><use xlink:href="#bl" x="162.753" y="267.922"/><use xlink:href="#aJ" x="167.833" y="267.922"/><use xlink:href="#ba" x="173.189" y="267.922"/><use xlink:href="#bl" x="177.672" y="267.922"/><use xlink:href="#bo" x="186.651" y="257.837" fill="red"/><use xlink:href="#bb" x="186.651" y="267.922"/><use xlink:href="#bl" x="190.405" y="267.922"/><use xlink:href="#aJ" x="195.486" y="267.922"/><use xlink:href="#bj" x="141.927" y="289.566"/><use xlink:href="#aC" x="147.928" y="289.566"/><use xlink:href="#aE" x="157.433" y="289.566"/><use xlink:href="#ba" x="165.395" y="289.566"/><use xlink:href="#bl" x="169.878" y="289.566"/><use xlink:href="#aJ" x="174.959" y="289.566"/><use xlink:href="#ba" x="180.315" y="289.566"/><use xlink:href="#bp" x="184.798" y="289.566"/><use xlink:href="#bq" x="189.03" y="289.566"/><use xlink:href="#aO" x="194.708" y="289.566"/><use xlink:href="#bk" x="197.458" y="289.566"/><use xlink:href="#aD" x="202.658" y="289.566"/><use xlink:href="#aZ" x="212.558" y="279.481" fill="red"/><use xlink:href="#bp" x="212.558" y="289.566"/><use xlink:href="#aE" x="216.467" y="289.566"/><use xlink:href="#aC" x="224.107" y="289.566"/><use xlink:href="#bm" x="229.391" y="289.566"/><use xlink:href="#bl" x="233.372" y="289.566"/><use xlink:href="#aC" x="238.452" y="289.566"/><use xlink:href="#bk" x="244.059" y="289.566"/><use xlink:href="#aD" x="249.26" y="289.566"/><use xlink:href="#aH" x="255.261" y="289.566"/><use xlink:href="#bj" x="141.927" y="311.21"/><use xlink:href="#aC" x="147.928" y="311.21"/><use xlink:href="#aE" x="157.433" y="311.21"/><use xlink:href="#ba" x="165.395" y="311.21"/><use xlink:href="#bl" x="169.878" y="311.21"/><use xlink:href="#aJ" x="174.959" y="311.21"/><use xlink:href="#ba" x="180.315" y="311.21"/><use xlink:href="#bp" x="184.798" y="311.21"/><use xlink:href="#bq" x="189.03" y="311.21"/><use xlink:href="#aO" x="194.708" y="311.21"/><use xlink:href="#bk" x="197.458" y="311.21"/><use xlink:href="#aD" x="202.658" y="311.21"/><use xlink:href="#aQ" x="212.558" y="301.124" fill="red"/><use xlink:href="#aR" x="219.887" y="296.785" fill="red"/><use xlink:href="#bp" x="212.558" y="311.21"/><use xlink:href="#aE" x="216.467" y="311.21"/><use xlink:href="#aC" x="224.107" y="311.21"/><use xlink:href="#bm" x="229.391" y="311.21"/><use xlink:href="#bl" x="233.372" y="311.21"/><use xlink:href="#aC" x="238.452" y="311.21"/><use xlink:href="#bk" x="244.059" y="311.21"/><use xlink:href="#aD" x="249.26" y="311.21"/><use xlink:href="#aY" x="255.261" y="311.21"/><use xlink:href="#az" x="122.058" y="332.853"/><use xlink:href="#aA" x="141.927" y="322.768" fill="red"/><use xlink:href="#aB" x="141.927" y="332.853"/><use xlink:href="#aC" x="147.414" y="332.853"/><use xlink:href="#aD" x="153.021" y="332.853"/><use xlink:href="#aE" x="159.023" y="332.853"/><use xlink:href="#aF" x="166.662" y="332.853"/><use xlink:href="#aG" x="171.863" y="328.514"/><use xlink:href="#aH" x="176.517" y="332.853"/><use xlink:href="#aI" x="183.666" y="332.853"/><use xlink:href="#aJ" x="190.672" y="332.853"/><use xlink:href="#aK" x="196.028" y="332.853"/><use xlink:href="#aL" x="204.408" y="332.853"/><use xlink:href="#aM" x="212.179" y="332.853"/><use xlink:href="#aN" x="218.037" y="332.853"/><use xlink:href="#aO" x="223.895" y="332.853"/><use xlink:href="#aF" x="226.644" y="332.853"/><use xlink:href="#aP" x="231.845" y="332.853"/><use xlink:href="#aQ" x="244.997" y="322.768" fill="red"/><use xlink:href="#aR" x="252.325" y="318.428" fill="red"/><use xlink:href="#aP" x="244.997" y="332.853"/><use xlink:href="#aJ" x="254.25" y="332.853"/><use xlink:href="#aP" x="259.606" y="332.853"/><use xlink:href="#aH" x="268.859" y="332.853"/><use xlink:href="#aS" x="141.927" y="354.497"/><use xlink:href="#aT" x="148.251" y="354.497"/><use xlink:href="#aU" x="153.452" y="354.497"/><use xlink:href="#aT" x="159.453" y="354.497"/><use xlink:href="#aE" x="168.551" y="354.497"/><use xlink:href="#aO" x="176.513" y="354.497"/><use xlink:href="#aF" x="179.262" y="354.497"/><use xlink:href="#aV" x="184.463" y="354.497"/><use xlink:href="#aS" x="187.213" y="354.497"/><use xlink:href="#aO" x="193.214" y="354.497"/><use xlink:href="#aW" x="195.964" y="354.497"/><use xlink:href="#aA" x="205.062" y="344.412" fill="red"/><use xlink:href="#aX" x="205.062" y="354.497"/><use xlink:href="#aO" x="212.546" y="354.497"/><use xlink:href="#aT" x="215.295" y="354.497"/><use xlink:href="#aY" x="220.496" y="354.497"/><use xlink:href="#bc" x="278.088" y="326.267"/><use xlink:href="#bd" x="278.088" y="331.521"/><use xlink:href="#be" x="278.088" y="345.765"/><use xlink:href="#bd" x="278.088" y="351.018"/><use xlink:href="#bf" x="278.088" y="356.296"/><use xlink:href="#bg" x="290.865" y="339.787"/><use xlink:href="#bh" x="296.723" y="339.787"/><use xlink:href="#ax" x="125.417" y="382.118"/><use xlink:href="#aA" x="141.927" y="372.033" fill="red"/><use xlink:href="#aB" x="141.927" y="382.118"/><use xlink:href="#bn" x="147.414" y="382.118"/><use xlink:href="#br" x="153.416" y="382.118"/><use xlink:href="#ba" x="162.394" y="382.118"/><use xlink:href="#bb" x="166.877" y="382.118"/><use xlink:href="#aJ" x="170.631" y="382.118"/><use xlink:href="#bk" x="175.987" y="382.118"/><use xlink:href="#aD" x="181.187" y="382.118"/><use xlink:href="#aC" x="187.189" y="382.118"/><use xlink:href="#aW" x="192.796" y="382.118"/><use xlink:href="#bq" x="201.893" y="382.118"/><use xlink:href="#bm" x="207.572" y="382.118"/><use xlink:href="#aM" x="211.553" y="382.118"/><use xlink:href="#bq" x="217.411" y="382.118"/><use xlink:href="#aO" x="223.09" y="382.118"/><use xlink:href="#bn" x="229.737" y="382.118"/><use xlink:href="#aZ" x="235.739" y="372.033" fill="red"/><use xlink:href="#aS" x="235.739" y="382.118"/><use xlink:href="#aM" x="242.063" y="382.118"/><use xlink:href="#aN" x="247.921" y="382.118"/><use xlink:href="#aO" x="253.779" y="382.118"/><use xlink:href="#bk" x="256.529" y="382.118"/><use xlink:href="#aD" x="261.729" y="382.118"/><use xlink:href="#aH" x="267.731" y="382.118"/><use xlink:href="#bq" x="141.927" y="403.762"/><use xlink:href="#bm" x="147.606" y="403.762"/><use xlink:href="#aM" x="151.587" y="403.762"/><use xlink:href="#bq" x="157.445" y="403.762"/><use xlink:href="#aO" x="163.123" y="403.762"/><use xlink:href="#bs" x="169.77" y="403.762"/><use xlink:href="#aM" x="176.094" y="403.762"/><use xlink:href="#bo" x="181.953" y="393.676" fill="red"/><use xlink:href="#bq" x="181.953" y="403.762"/><use xlink:href="#aM" x="187.309" y="403.762"/><use xlink:href="#bm" x="192.844" y="403.762"/><use xlink:href="#bj" x="196.825" y="403.762"/><use xlink:href="#aJ" x="202.826" y="403.762"/><use xlink:href="#bk" x="208.182" y="403.762"/><use xlink:href="#aD" x="213.383" y="403.762"/><use xlink:href="#aH" x="219.384" y="403.762"/><use xlink:href="#bq" x="141.927" y="425.405"/><use xlink:href="#bm" x="147.606" y="425.405"/><use xlink:href="#aM" x="151.587" y="425.405"/><use xlink:href="#bq" x="157.445" y="425.405"/><use xlink:href="#aO" x="163.123" y="425.405"/><use xlink:href="#bs" x="169.77" y="425.405"/><use xlink:href="#aM" x="176.094" y="425.405"/><use xlink:href="#aZ" x="181.953" y="415.32" fill="red"/><use xlink:href="#bq" x="181.953" y="425.405"/><use xlink:href="#aM" x="187.309" y="425.405"/><use xlink:href="#bm" x="192.844" y="425.405"/><use xlink:href="#bj" x="196.825" y="425.405"/><use xlink:href="#aJ" x="202.826" y="425.405"/><use xlink:href="#bk" x="208.182" y="425.405"/><use xlink:href="#aD" x="213.383" y="425.405"/><use xlink:href="#aY" x="219.384" y="425.405"/><use xlink:href="#bt" x="141.927" y="447.049"/><use xlink:href="#bp" x="150.559" y="447.049"/><use xlink:href="#aM" x="154.791" y="447.049"/><use xlink:href="#bu" x="164.546" y="447.049"/><use xlink:href="#aF" x="172.078" y="447.049"/><use xlink:href="#ba" x="177.278" y="447.049"/><use xlink:href="#bl" x="181.761" y="447.049"/><use xlink:href="#bp" x="186.842" y="447.049"/><use xlink:href="#aC" x="191.074" y="447.049"/><use xlink:href="#aB" x="200.578" y="447.049"/><use xlink:href="#aC" x="206.066" y="447.049"/><use xlink:href="#aQ" x="211.673" y="436.964" fill="red"/><use xlink:href="#aR" x="219.002" y="432.624" fill="red"/><use xlink:href="#bq" x="211.673" y="447.049"/><use xlink:href="#bn" x="217.352" y="447.049"/><use xlink:href="#aS" x="223.353" y="447.049"/><use xlink:href="#aC" x="229.354" y="447.049"/><use xlink:href="#bv" x="234.961" y="447.049"/><use xlink:href="#az" x="122.058" y="468.693"/><use xlink:href="#aA" x="141.927" y="458.607" fill="red"/><use xlink:href="#aB" x="141.927" y="468.693"/><use xlink:href="#aC" x="147.414" y="468.693"/><use xlink:href="#aD" x="153.021" y="468.693"/><use xlink:href="#aE" x="159.023" y="468.693"/><use xlink:href="#aF" x="166.662" y="468.693"/><use xlink:href="#aG" x="171.863" y="464.353"/><use xlink:href="#aH" x="176.517" y="468.693"/><use xlink:href="#aI" x="183.666" y="468.693"/><use xlink:href="#aJ" x="190.672" y="468.693"/><use xlink:href="#aK" x="196.028" y="468.693"/><use xlink:href="#aL" x="204.408" y="468.693"/><use xlink:href="#aM" x="212.179" y="468.693"/><use xlink:href="#aN" x="218.037" y="468.693"/><use xlink:href="#aO" x="223.895" y="468.693"/><use xlink:href="#aF" x="226.644" y="468.693"/><use xlink:href="#aP" x="231.845" y="468.693"/><use xlink:href="#aQ" x="244.997" y="458.607" fill="red"/><use xlink:href="#aR" x="252.325" y="454.268" fill="red"/><use xlink:href="#aP" x="244.997" y="468.693"/><use xlink:href="#aJ" x="254.25" y="468.693"/><use xlink:href="#aP" x="259.606" y="468.693"/><use xlink:href="#aH" x="268.859" y="468.693"/><use xlink:href="#aS" x="141.927" y="490.336"/><use xlink:href="#aT" x="148.251" y="490.336"/><use xlink:href="#aU" x="153.452" y="490.336"/><use xlink:href="#aT" x="159.453" y="490.336"/><use xlink:href="#aE" x="168.551" y="490.336"/><use xlink:href="#aO" x="176.513" y="490.336"/><use xlink:href="#aF" x="179.262" y="490.336"/><use xlink:href="#aV" x="184.463" y="490.336"/><use xlink:href="#aS" x="187.213" y="490.336"/><use xlink:href="#aO" x="193.214" y="490.336"/><use xlink:href="#aW" x="195.964" y="490.336"/><use xlink:href="#aA" x="205.062" y="480.251" fill="red"/><use xlink:href="#aX" x="205.062" y="490.336"/><use xlink:href="#aO" x="212.546" y="490.336"/><use xlink:href="#aT" x="215.295" y="490.336"/><use xlink:href="#aY" x="220.496" y="490.336"/><use xlink:href="#bc" x="278.088" y="462.107"/><use xlink:href="#bd" x="278.088" y="467.36"/><use xlink:href="#be" x="278.088" y="481.604"/><use xlink:href="#bd" x="278.088" y="486.858"/><use xlink:href="#bf" x="278.088" y="492.135"/><use xlink:href="#bg" x="290.865" y="475.627"/><use xlink:href="#bh" x="296.723" y="475.627"/><path fill="none" stroke="#000" stroke-miterlimit="10" stroke-width=".398" d="M17.008 554.617h153.637"/><use xlink:href="#bw" x="27.919" y="561.137"/><g fill="red"><use xlink:href="#bx" x="31.354" y="564.03"/><use xlink:href="#by" x="35.355" y="564.03"/><use xlink:href="#bz" x="40.527" y="564.03"/><use xlink:href="#bA" x="47.581" y="564.03"/><use xlink:href="#bB" x="51.813" y="564.03"/><use xlink:href="#bC" x="55.113" y="564.03"/></g><g fill="red"><use xlink:href="#bD" x="58.165" y="564.03"/><use xlink:href="#bE" x="64.278" y="564.03"/><use xlink:href="#bF" x="68.749" y="564.03"/></g><use xlink:href="#bG" x="72.272" y="564.03" fill="red"/><g fill="red"><use xlink:href="#bD" x="76.735" y="564.03"/><use xlink:href="#bH" x="82.848" y="564.03"/><use xlink:href="#bC" x="86.188" y="564.03"/><use xlink:href="#bA" x="89.479" y="564.03"/><use xlink:href="#bI" x="93.711" y="564.03"/></g><use xlink:href="#bJ" x="99.378" y="564.03" fill="red"/><g fill="red"><use xlink:href="#bA" x="104.901" y="564.03"/><use xlink:href="#bK" x="109.133" y="564.03"/></g><g fill="red"><use xlink:href="#bL" x="116.657" y="564.03"/><use xlink:href="#bM" x="120.889" y="564.03"/><use xlink:href="#bL" x="125.121" y="564.03"/><use xlink:href="#bN" x="129.353" y="564.03"/><use xlink:href="#bO" x="133.585" y="564.03"/></g><g fill="red"><use xlink:href="#bP" x="140.407" y="564.03"/><use xlink:href="#bB" x="145.11" y="564.03"/><use xlink:href="#bQ" x="148.409" y="564.03"/><use xlink:href="#bE" x="152.171" y="564.03"/><use xlink:href="#bD" x="156.642" y="564.03"/><use xlink:href="#bB" x="162.755" y="564.03"/><use xlink:href="#bR" x="166.055" y="564.03"/></g><g fill="red"><use xlink:href="#bF" x="170.526" y="564.03"/><use xlink:href="#bS" x="174.288" y="564.03"/><use xlink:href="#bI" x="176.639" y="564.03"/></g><use xlink:href="#bT" x="182.308" y="564.03"/><use xlink:href="#bA" x="186.66" y="564.03"/><use xlink:href="#bG" x="190.892" y="564.03"/><use xlink:href="#bD" x="195.355" y="564.03"/><use xlink:href="#bU" x="201.229" y="564.03"/><g fill="red"><use xlink:href="#bQ" x="207.813" y="564.03"/><use xlink:href="#bA" x="211.575" y="564.03"/><use xlink:href="#bz" x="215.807" y="564.03"/><use xlink:href="#bS" x="222.86" y="564.03"/><use xlink:href="#bA" x="225.212" y="564.03"/><use xlink:href="#bH" x="229.444" y="564.03"/><use xlink:href="#bC" x="232.783" y="564.03"/></g><use xlink:href="#bJ" x="238.896" y="564.03"/><use xlink:href="#bA" x="244.419" y="564.03"/><use xlink:href="#bK" x="248.651" y="564.03"/><use xlink:href="#bS" x="253.354" y="564.03"/><use xlink:href="#bU" x="255.705" y="564.03"/><use xlink:href="#bV" x="259.467" y="564.03" fill="red"/><g fill="red"><use xlink:href="#bW" x="264.639" y="564.03"/><use xlink:href="#bP" x="267.931" y="564.03"/><use xlink:href="#bB" x="272.633" y="564.03"/><use xlink:href="#bQ" x="275.933" y="564.03"/><use xlink:href="#bE" x="279.694" y="564.03"/><use xlink:href="#bP" x="284.166" y="564.03"/><use xlink:href="#bV" x="288.868" y="564.03"/></g><g fill="red"><use xlink:href="#bB" x="294.04" y="564.03"/><use xlink:href="#bU" x="297.34" y="564.03"/><use xlink:href="#bX" x="301.102" y="564.03"/><use xlink:href="#bV" x="305.804" y="564.03"/><use xlink:href="#bY" x="308.155" y="564.03"/></g><g clip-path="url(#bZ)"><path fill="url(#ca)" d="M15.023 579.684v-11.336h388.063v11.336Zm0 0"/></g><use xlink:href="#cb" x="17.008" y="577.985"/><use xlink:href="#cc" x="23.739" y="577.985"/><use xlink:href="#cd" x="268.202" y="577.985"/><use xlink:href="#ce" x="273.865" y="577.985"/><use xlink:href="#cf" x="278.265" y="577.985"/><use xlink:href="#cg" x="283.74" y="577.985"/><use xlink:href="#ch" x="287.283" y="577.985"/><use xlink:href="#ci" x="291.467" y="577.985"/><use xlink:href="#cj" x="297.263" y="577.985"/><use xlink:href="#ck" x="301.231" y="577.985"/><use xlink:href="#cj" x="305.199" y="577.985"/><use xlink:href="#cl" x="309.167" y="577.985"/><use xlink:href="#cm" x="315.82" y="577.985"/><use xlink:href="#cj" x="326.449" y="577.985"/><use xlink:href="#cn" x="330.417" y="577.985"/><use xlink:href="#co" x="337.07" y="577.985"/><use xlink:href="#cj" x="342.636" y="577.985"/><use xlink:href="#ck" x="346.604" y="577.985"/><use xlink:href="#cj" x="350.572" y="577.985"/><use xlink:href="#cp" x="354.54" y="577.985"/><use xlink:href="#cm" x="361.193" y="577.985"/><use xlink:href="#cq" x="371.822" y="577.985"/><use xlink:href="#cr" x="374.074" y="577.985"/><use xlink:href="#cl" x="378.043" y="577.985"/><use xlink:href="#cs" x="382.011" y="577.985"/><use xlink:href="#cj" x="384.263" y="577.985"/><use xlink:href="#ct" x="388.232" y="577.985"/><use xlink:href="#cl" x="393.169" y="577.985"/><use xlink:href="#cr" x="397.137" y="577.985"/><path fill="#f2f2f2" stroke="#000" stroke-miterlimit="10" stroke-width=".797" d="M196.602 576.055v-3.989a2.99 2.99 0 0 1 2.988-2.988h18.93a2.99 2.99 0 0 1 2.988 2.988v3.989a2.99 2.99 0 0 1-2.988 2.988h-18.93a2.99 2.99 0 0 1-2.988-2.988Zm0 0"/><use xlink:href="#cu" x="198.439" y="576.948"/><use xlink:href="#cv" x="203.747" y="576.948"/><use xlink:href="#cv" x="209.055" y="576.948"/><use xlink:href="#cw" x="214.363" y="576.948"/></svg>