<svg xmlns="http://www.w3.org/2000/svg" xmlns:xlink="http://www.w3.org/1999/xlink" width="559.371" height="793.701" viewBox="0 0 419.528 595.276"><defs><path id="f" d="M3.344 2.297v-.078L1.5-2.5l1.844-4.703v-.078c0-.11-.078-.203-.188-.203a.24.24 0 0 0-.203.14L1.11-2.562c-.015.015-.015.046-.015.062 0 .031 0 .063.015.078L2.953 2.36a.24.24 0 0 0 .203.141c.11 0 .188-.094.188-.203m0 0"/><path id="g" d="M4.969-1.422c0-.11-.094-.11-.125-.11-.094 0-.11.048-.14.188-.173.64-.345 1.235-.75 1.235-.282 0-.298-.266-.298-.453 0-.22.016-.313.125-.75L4-2.203l.36-1.39c.062-.282.062-.298.062-.344 0-.172-.11-.266-.281-.266-.25 0-.391.219-.422.437-.188-.375-.469-.64-.922-.64-1.156 0-2.39 1.468-2.39 2.922C.406-.547.952.109 1.718.109c.203 0 .703-.046 1.297-.75a.91.91 0 0 0 .906.75c.36 0 .578-.234.75-.546.156-.36.297-.985.297-.985m-1.375-1.89a.6.6 0 0 1-.031.171l-.485 1.954c-.062.187-.062.203-.203.375-.437.546-.844.703-1.125.703-.5 0-.64-.547-.64-.938 0-.5.312-1.719.546-2.187.313-.578.75-.953 1.157-.953.64 0 .78.812.78.875m0 0"/><path id="h" d="M2.781-2.5c0-.016 0-.047-.015-.062L.922-7.344c-.031-.078-.11-.14-.188-.14a.207.207 0 0 0-.203.203v.078L2.375-2.5.531 2.219v.078c0 .11.094.203.203.203.079 0 .157-.062.188-.14l1.844-4.782c.015-.015.015-.047.015-.078m0 0"/><path id="i" d="M6.047-.156c0-.094-.11-.11-.14-.11-.25 0-.376-.03-.5-.312L4.218-3.297 5.766-4.5c.218-.172.812-.625 1.312-.672.063-.016.156-.031.156-.156 0-.047-.03-.11-.109-.11 0 0-.234.016-.281.016h-.328c-.266 0-.563-.016-.813-.016-.047 0-.172 0-.172.141 0 .11.14.125.14.125.11 0 .173.047.173.11 0 .125-.14.25-.172.28l-.047.048c-.016.015-.031.015-.094.078L2.563-2.344l.609-2.5c.078-.265.125-.328.61-.328.171 0 .265 0 .265-.156 0-.047-.031-.11-.125-.11-.14 0-.313.016-.453.016h-.953l-.453-.016c-.047 0-.172 0-.172.141 0 .125.093.125.234.125.219 0 .438 0 .438.11 0 .046 0 .062-.032.171L1.47-.609c-.078.28-.125.343-.61.343-.171 0-.265 0-.265.157C.594-.047.64 0 .719 0c.031 0 .39-.016.453-.031h.484c.672 0 .89.031.938.031s.156 0 .156-.156c0-.11-.094-.11-.234-.11-.25 0-.438 0-.438-.125 0-.046.047-.218.078-.328l.297-1.203 1.25-.969.985 2.25c.046.094.046.11.046.141 0 .203-.187.234-.343.234-.094 0-.188.016-.188.157 0 .062.047.109.11.109.28 0 .578-.031.843-.031.672 0 .64.031.735.031.03 0 .156 0 .156-.156m0 0"/><path id="j" d="M2.828-1.14c0-.11-.11-.11-.156-.11-.125 0-.125.031-.172.172-.14.516-.406.937-.734.937-.157 0-.188-.109-.188-.25 0-.187.063-.328.188-.656l.515-1.39c.063-.172.094-.25.094-.422 0-.438-.312-.657-.656-.657-.75 0-1.078 1.11-1.078 1.22 0 .108.093.108.14.108.14 0 .14-.03.172-.171.125-.407.375-.938.75-.938.14 0 .172.11.172.25 0 .188-.047.344-.156.61L1.156-.953a1.1 1.1 0 0 0-.078.375c0 .36.266.656.672.656.75 0 1.078-1.125 1.078-1.219m.125-3.704a.354.354 0 0 0-.36-.375.55.55 0 0 0-.53.532c0 .234.171.359.359.359.265 0 .531-.234.531-.516m0 0"/><path id="k" d="M4.14-1.14c0-.11-.109-.11-.14-.11-.14 0-.156.047-.187.172-.11.453-.266.937-.61.937-.14 0-.25-.078-.25-.375 0-.125.031-.265.063-.39.03-.125.03-.172.03-.25 0-.563-.546-.75-1.108-.86.296-.187.625-.53.671-.593.454-.5.766-.688 1.063-.688.11 0 .172.063.203.11-.156.03-.344.171-.344.39s.188.266.281.266c.204 0 .407-.14.407-.453 0-.266-.157-.532-.547-.532s-.75.266-1.188.735c-.484.515-.656.594-.796.672l.796-3.188c0-.031.016-.094.016-.125 0-.11-.125-.11-.219-.094l-.828.063c-.11.016-.187.016-.187.156 0 .125.093.125.203.125.375 0 .375.047.375.11a.7.7 0 0 1-.032.171L.657-.266c0 .032-.015.079-.015.11 0 .11.078.234.25.234.14 0 .265-.094.328-.297l.39-1.578c.313.031.891.172.891.656 0 .047 0 .079-.031.188a1 1 0 0 0-.031.25c0 .437.296.781.734.781.36 0 .562-.265.656-.406.188-.297.313-.766.313-.813m0 0"/><path id="l" d="M4.297-2.172c0-.828-.547-1.344-1.266-1.344C2-3.516.921-2.437.921-1.266c0 .875.595 1.344 1.267 1.344 1.062 0 2.109-1.094 2.109-2.25m-.594-.281c0 .265-.125 1.031-.437 1.578-.266.438-.688.734-1.078.734-.297 0-.672-.203-.672-.843 0-.36.172-1.11.422-1.547.343-.578.812-.766 1.078-.766.39 0 .687.297.687.844m0 0"/><path id="m" d="M5.11-1.781V-7.72c0-.39-.094-.578-.579-.578h-.578c-.453 0-.578.156-.578.578v5.86c0 .25 0 .922-1.047.922-.687 0-1.078-.375-1.234-.594-.11-.125-.125-.14-.203-.14-.11 0-.141.109-.157.218C.672-1.078.547-.437.547-.391c0 .11.078.141.297.235a5 5 0 0 0 1.969.422c1.28 0 2.296-.641 2.296-2.047m0 0"/><path id="n" d="M5.672-.578v-3.203c0-1.89-1.828-1.89-2.422-1.89-.562 0-1.156.046-1.953.374-.25.11-.313.14-.313.281 0 .079.063.766.079.875a.17.17 0 0 0 .156.125c.062 0 .093-.03.125-.078.515-.531 1.125-.797 1.86-.797.64 0 .843.391.843 1.094v.422c-.422 0-3.563.031-3.563 1.781C.484-.75 1.156.125 2.22.125c.406 0 1.297-.11 1.86-.937v.234c0 .39.077.578.577.578h.438c.453 0 .578-.156.578-.578M4.047-1.844c0 1.11-1.14 1.11-1.172 1.11-.516 0-.828-.422-.828-.875 0-1.172 1.656-1.266 2-1.266Zm0 0"/><path id="o" d="M5.938-.266s0-.109-.11-.265L3.734-3.25l1.844-1.703c.14-.14.188-.172.188-.266 0-.25-.25-.25-.407-.25h-.703c-.203 0-.437 0-.718.25l-1.72 1.594v-4.094c0-.39-.077-.578-.562-.578h-.25c-.437 0-.578.14-.578.578v7.14c0 .438.125.579.578.579h.203c.454 0 .579-.156.579-.578v-1.235l.562-.515L4.297-.297c.203.266.297.297.64.297h.579c.156 0 .422 0 .422-.266m0 0"/><path id="p" d="M5.969-.578v-7.14c0-.391-.094-.579-.578-.579h-.438c-.453 0-.578.156-.578.578v2.703a2.18 2.18 0 0 0-1.5-.593C.438-5.61.438-3.312.438-2.72c0 .547 0 2.844 2.375 2.844.5 0 1.015-.14 1.53-.687 0 .437.157.562.563.562h.485c.453 0 .578-.156.578-.578M4.344-1.5c0 .203 0 .313-.344.563a1.35 1.35 0 0 1-.719.203c-1.219 0-1.219-1.094-1.219-1.985 0-.906 0-2.031 1.344-2.031.344 0 .672.125.938.375Zm0 0"/><path id="q" d="M4.39-6.469a.45.45 0 0 0-.64-.062l-.766.61V-7.72c0-.39-.078-.578-.562-.578h-.453c-.422 0-.563.14-.563.578v3.063l-1.078.843a.46.46 0 0 0-.062.626c.156.187.422.234.625.062l.515-.406v2.953c0 .437.125.578.563.578h.453c.453 0 .562-.156.562-.578v-4.219l1.329-1.062a.444.444 0 0 0 .078-.61m0 0"/><path id="r" d="M5.969-.578v-4.328c0-.375-.078-.563-.563-.563h-.484c-.453 0-.578.157-.578.563v2.843c0 .782-.407 1.47-1.266 1.47-.656 0-.734-.173-.734-.813v-3.5c0-.375-.078-.563-.578-.563h-.47c-.437 0-.577.125-.577.563V-1.5c0 1.266.687 1.625 1.937 1.625.313 0 1.172 0 1.735-1.016v.313c0 .39.078.578.562.578h.453c.453 0 .563-.156.563-.578m0 0"/><path id="s" d="M6.39-4.844c0-.047-.062-.328-.093-.453-.047-.281-.047-.312-.266-.312-.36 0-.968.14-1.422.422-.562-.375-1.171-.422-1.687-.422-.5 0-2.406 0-2.406 1.968 0 .485.125 1.079.578 1.485C.78-1.72.78-1.25.78-1.187c0 .218.063.609.313.937C.922-.172.297.031.297.797c0 .375.187 1 .937 1.344.672.312 1.485.328 2.047.328.703 0 2.985 0 2.985-1.703 0-1.86-1.688-1.86-3.297-1.86H2.39c-.438 0-.594 0-.766-.156-.047-.047-.25-.219-.25-.531 0-.078.016-.11.031-.172.547.297 1.266.297 1.516.297.5 0 2.39 0 2.39-1.969 0-.687-.25-1.11-.359-1.234.203 0 .61 0 1.11.125a.36.36 0 0 0 .171.046c.094 0 .157-.062.157-.156M3.798-3.64c0 .672-.047 1.125-.875 1.125-.844 0-.875-.453-.875-1.109s.031-1.125.875-1.125c.828 0 .875.453.875 1.11M5.03.797c0 .812-1.36.812-1.75.812-.469 0-1.75 0-1.75-.843 0-.563.375-.563.64-.563h1.392c.968 0 1.468.172 1.468.594m0 0"/><path id="t" d="M6.188-2.687c0-1.97-.954-2.985-2.907-2.985-1.984 0-2.906 1.063-2.906 2.984C.375-.733 1.406.126 3.281.126s2.907-.86 2.907-2.812m-1.625-.141c0 .937 0 2.031-1.282 2.031C2-.797 2-1.875 2-2.828c0-.922 0-1.985 1.281-1.985s1.281 1.047 1.281 1.985m0 0"/><path id="u" d="M2.672.375v-5.281c0-.375-.078-.563-.563-.563h-.453c-.453 0-.562.157-.562.563V.672c0 .297 0 .781-.719.781-.219 0-.5-.047-.75-.219-.031-.015-.078-.046-.125-.046-.094 0-.11 0-.219.312-.047.125-.125.36-.125.39 0 .22.985.563 1.735.563 1.328 0 1.78-.89 1.78-2.078m0-7.625v-.219c0-.39-.078-.578-.563-.578H1.5c-.453 0-.578.156-.578.578v.219c0 .36.062.578.578.578h.61c.5 0 .562-.219.562-.578m0 0"/><path id="v" d="M5.719-3.11c0-1.546-.703-2.562-2.485-2.562-1.921 0-2.859 1.063-2.859 2.89 0 1.954 1.125 2.907 3 2.907.469 0 1.14-.047 1.938-.453.25-.125.343-.156.343-.313 0-.078-.031-.421-.047-.515-.046-.375-.062-.39-.171-.39-.047 0-.079 0-.204.124a2.7 2.7 0 0 1-1.796.688c-1.36 0-1.5-1.063-1.532-1.828h3.25c.266 0 .563 0 .563-.547m-1.313-.078h-2.5c.047-.734.282-1.624 1.328-1.624.954 0 1.125.687 1.172 1.625m0 0"/><path id="w" d="M4.734-1.687c0-.672-.359-1.079-.578-1.282-.468-.422-.89-.5-1.39-.594-.657-.124-1.141-.218-1.141-.687 0-.484.39-.578.86-.578.796 0 1.234.297 1.546.562.11.125.14.125.188.125.125 0 .14-.109.156-.156.031-.11.14-.766.14-.828 0-.187-.624-.36-.765-.406-.469-.14-.86-.14-1.172-.14-.531 0-2.14 0-2.14 1.702 0 .594.265.938.593 1.235.422.375.875.468 1.563.593.344.063.953.172.953.688 0 .562-.469.656-.922.656a2.21 2.21 0 0 1-1.766-.828c-.062-.062-.093-.094-.171-.094-.11 0-.141.11-.157.172-.015.172-.156.86-.156.969 0 .219.89.5.89.5a4.4 4.4 0 0 0 1.36.203c.61 0 2.11-.047 2.11-1.812m0 0"/><path id="x" d="M5.266-.437c0-.454-.36-.454-.72-.454L2.72-.875h-.547l2.922-3.687c.125-.157.14-.22.14-.407 0-.5-.375-.5-.578-.5H1.125c-.156 0-.578 0-.578.453 0 .438.39.438.703.438l1.734-.031h.454L.515-.906C.39-.75.375-.687.375-.5c0 .5.36.5.563.5h3.765c.156 0 .563 0 .563-.437m0 0"/><path id="y" d="M5.469-.594c0-.14-.047-.687-.078-.843 0-.032-.032-.157-.141-.157-.047 0-.078 0-.187.125-.204.172-.766.672-1.75.672-1.25 0-1.25-1.219-1.25-1.969 0-.968.062-1.984 1.28-1.984.782 0 1.11.203 1.532.547.14.14.172.14.219.14.125 0 .14-.109.156-.156.016-.093.14-.765.14-.828 0-.11-.077-.156-.28-.25-.579-.266-.938-.375-1.782-.375-1.781 0-2.89.828-2.89 2.922C.438-.766 1.468.125 3.28.125c.313 0 1.031 0 1.828-.406.344-.188.36-.203.36-.313m0 0"/><path id="z" d="M2.594 2.234c-.375-.5-1.25-1.64-.64-4.484.609-2.828 1.952-3.969 2.546-4.484h-.594c-1.25.89-2.265 2.422-2.703 4.484-.453 2.14-.031 3.625.813 4.484Zm0 0"/><path id="A" d="M6.313-4.406c.203-.953-.516-1.813-1.797-1.813H2.203L.875 0h.86l.546-2.562h1.453c1.266 0 2.36-.86 2.579-1.844m-.782 0c-.156.718-.843 1.297-1.89 1.297H2.375l.547-2.578h1.265c1.032 0 1.485.562 1.344 1.28m0 0"/><path id="B" d="M3.563-1.156a.97.97 0 0 0-.25-.89c-.25-.267-.5-.329-1.032-.423-.312-.062-.75-.156-.656-.578.11-.515.75-.515.89-.515.657 0 .985.203 1.22.343l.25-.625c-.5-.25-.907-.297-1.282-.297-.203 0-1.515 0-1.765 1.188a.9.9 0 0 0 .187.797c.281.297.5.344 1.078.469.281.046.781.14.672.609C2.75-.5 2.031-.5 1.906-.5c-.531 0-1-.187-1.328-.453l-.25.656c.469.281 1 .39 1.453.39.594 0 1.563-.187 1.782-1.25m0 0"/><path id="C" d="m3.922 0 .11-.562H2.89l1.172-5.5h-.188c-.734.578-1.594.578-1.906.578l-.11.562c.25 0 .704 0 1.25-.203L2.125-.562H.985L.858 0Zm0 0"/><path id="D" d="M4.563-1.625c.14-.703-.25-1.297-.938-1.547.703-.312 1.203-.906 1.328-1.515.172-.782-.453-1.375-1.39-1.375-.75 0-1.47.39-1.97.953l.25.515C2.407-5.375 3.11-5.5 3.439-5.5c.468 0 .859.25.734.813A1.56 1.56 0 0 1 2.766-3.5c-.188.016-.328.031-.5.031l-.125.594h.672c.874 0 1 .703.89 1.25-.156.703-.687 1.234-1.375 1.234C1.594-.39 1-.797.766-1.28c-.141.36-.157.39-.235.578.328.531.938.906 1.688.906 1.14 0 2.14-.89 2.344-1.828m0 0"/><path id="E" d="M3.328-2.25c.453-2.125.031-3.625-.812-4.484h-.578c.39.5 1.25 1.656.64 4.484C1.984.594.625 1.734.031 2.234h.594c1.234-.89 2.266-2.421 2.703-4.484m0 0"/><path id="G" d="m-3.61-5.156-1.812.218v4.594h.266V-.53c0-.61.093-.625.39-.625H-.64c.297 0 .375.015.375.625v.187H0l-.031-1.234c0-.375 0-.953.031-1.313h-.266v.25c0 .75-.109.75-.39.75h-1.922v-.734c0-.781.25-.875.922-.875v-.25h-2.125v.25c.687 0 .937.094.937.875v.734h-1.984c-.266 0-.328-.015-.328-.375v-1.062c0-1.297.5-1.453 1.547-1.594Zm0 0"/><path id="H" d="M0-2.078h-.266c0 .531-.03.562-.343.562h-2.907l.094 1.157h.266c0-.516.047-.578.437-.578h2.094c.36 0 .36.093.36.609H0c-.031-.313-.031-.766-.031-.89 0-.095 0-.579.031-.86m-4.797.453a.453.453 0 0 0-.453.453.45.45 0 0 0 .453.438.437.437 0 0 0 .438-.438.45.45 0 0 0-.438-.453m0 0"/><path id="I" d="M0-4.484h-.266c0 .515 0 .609-.359.609h-1.797c-.656 0-1.094.313-1.094 1.14 0 .797.579 1.157.766 1.25h-.766l.094 1.157h.266c0-.547.047-.61.437-.61h2.094c.36 0 .36.094.36.61H0c-.031-.344-.031-.688-.031-.906 0-.235 0-.563.031-.907h-.266c0 .5 0 .61-.359.61h-1.437c-.844 0-1.235-.64-1.235-1.125s.344-.61.844-.61h1.828c.36 0 .36.094.36.61H0C-.031-3-.031-3.36-.031-3.562c0-.235 0-.579.031-.922m0 0"/><path id="J" d="M-1.703-3.984c-.984 0-1.844.828-1.844 1.875s.86 1.875 1.844 1.875c1 0 1.781-.86 1.781-1.875 0-1.032-.781-1.875-1.781-1.875m-.063.703c.36 0 .797.015 1.141.25.313.203.453.562.453.922 0 .422-.203.765-.484.937-.328.203-.719.219-1.11.219-.312 0-.78 0-1.125-.235a1.14 1.14 0 0 1-.437-.921c0-.422.203-.766.469-.938.343-.219.765-.234 1.093-.234m0 0"/><path id="K" d="M-.719-4.094h-.437v.25h.437c.328 0 .453.11.453.281 0 .297-.359.297-.453.297h-1.656c-.781 0-1.172.75-1.172 1.485 0 .656.25 1.25.781 1.25a.36.36 0 0 0 .375-.375.36.36 0 0 0-.375-.375.356.356 0 0 0-.359.297c-.203-.297-.203-.735-.203-.782 0-.453.312-.89.969-.89h.234c.031.453.047.984.281 1.547.313.703.766.843 1.032.843.687 0 .89-.812.89-1.359a1.23 1.23 0 0 0-.64-1.11c.296-.046.609-.25.609-.609 0-.078-.031-.75-.766-.75m-.406 1.438c.781 0 .984.64.984.969 0 .406-.28.765-.671.765-.516 0-1.063-.5-1.094-1.734Zm0 0"/><path id="L" d="M1.547-4.422H1.28c0 .516 0 .61-.36.61h-4.437v.218l.688.297c-.422.266-.688.64-.688 1.14 0 1 .782 1.876 1.797 1.876 1 0 1.797-.813 1.797-1.797 0-.578-.312-.938-.562-1.14H.922c.36 0 .36.109.36.609h.265c-.031-.344-.031-.688-.031-.907 0-.234 0-.562.03-.906m-2.672 1.188c.125 0 .172 0 .375.125.484.28.61.703.61.984 0 .64-.72 1.14-1.579 1.14-.906 0-1.547-.593-1.547-1.218 0-.656.641-1.031 1.079-1.031Zm0 0"/><path id="M" d="M0-4.484h-.266c0 .547-.046.609-.437.609h-2.813l.094 1.219h.266c0-.547.047-.61.437-.61h1.39c.688 0 1.188.407 1.188 1.016 0 .688-.343.719-.75.719h-2.625l.094 1.203h.266c0-.61.015-.61.719-.61h1.203c.578 0 1.312 0 1.312-1.265 0-.75-.578-1.047-.64-1.078v-.016h.64Zm0 0"/><path id="N" d="M0-4.422h-.266c0 .547-.046.61-.437.61h-4.828l.093 1.187h.266c0-.531.047-.61.438-.61h1.687a1.4 1.4 0 0 0-.469 1.079c0 1 .782 1.875 1.797 1.875.985 0 1.797-.797 1.797-1.797 0-.469-.219-.86-.5-1.125h.5Zm-.984 1.219c.14 0 .172 0 .328.125.328.219.515.578.515.953s-.187.688-.484.875c-.312.219-.703.266-1.078.266-.469 0-.797-.079-1.063-.266a1.15 1.15 0 0 1-.53-.953c0-.375.202-.766.608-1Zm0 0"/><path id="O" d="M-1.719-4.422c-1 0-1.797.813-1.797 1.781 0 .313.079.766.5 1.172h-.5l.094 1.188h.266c0-.563.047-.61.375-.61H.922c.36 0 .36.11.36.61h.265c-.031-.344-.031-.688-.031-.906 0-.235 0-.563.03-.907h-.265c0 .516 0 .61-.36.61H-.39a1.37 1.37 0 0 0 .47-1.047c0-1-.782-1.89-1.798-1.89m0 .719c.907 0 1.578.578 1.578 1.219 0 .28-.125.64-.515.906-.14.094-.156.094-.297.094h-1.703a1.3 1.3 0 0 1-.61-1.094c0-.61.672-1.125 1.547-1.125m0 0"/><path id="P" d="M-.437-1.625a.453.453 0 0 0-.454.453c0 .266.22.438.438.438A.44.44 0 0 0 0-1.172a.45.45 0 0 0-.437-.453m0 0"/><path id="Q" d="M-1.625-3.875c-1.031 0-1.766.797-1.766 1.672 0 .578.36.922.75 1.11-.656 0-1.234-.063-1.718-.344-.407-.25-.735-.657-.735-1.157 0-.156.032-.515.297-.703.031.36.297.39.375.39.25 0 .375-.187.375-.374 0-.14-.078-.375-.39-.375-.47 0-.86.36-.86 1.078 0 1.11 1.047 2.234 2.766 2.234C-.36-.344.172-1.359.172-2.125c0-.39-.11-.797-.453-1.156-.313-.328-.64-.594-1.344-.594m0 .75c.406 0 .75 0 1.047.156.36.219.5.485.5.844a.88.88 0 0 1-.516.797c-.36.187-.89.203-1.203.203-.781 0-1.375-.422-1.375-1.047 0-.39.203-.64.485-.781.296-.172.656-.172 1.062-.172m0 0"/><path id="R" d="M-1.344-3.875c-.5 0-.828.266-.968.406-.126.125-.141.14-.563.828-.219-.453-.61-1-1.234-1-.766 0-1.188.782-1.188 1.516 0 .844.578 1.531 1.328 1.531.297 0 .563-.094.797-.297.172-.14.188-.171.5-.656.438.984 1.016 1.203 1.453 1.203.89 0 1.39-.89 1.39-1.765 0-.97-.671-1.766-1.515-1.766m-2.765.64c.453 0 .843.36 1.078.829l-.594 1c-.14.234-.375.422-.64.422-.5 0-.829-.547-.829-1.125 0-.61.422-1.125.985-1.125m3.047-.187c.609 0 .984.656.984 1.297 0 .719-.484 1.313-1.14 1.313-.594 0-1.063-.438-1.313-.985l.656-1.078c.078-.125.328-.547.813-.547m0 0"/><path id="S" d="M0 5.984h.266v-.171c0-.61.078-.641.375-.641h4.156c.297 0 .375.031.375.64v.172h.266l-.016-1.171.016-1.172h-.266v.172c0 .624-.078.64-.375.64H2.969V1.891h1.828c.297 0 .375.015.375.625v.172h.266l-.016-1.172.016-1.172h-.266V.53c0 .61-.078.625-.375.625H.64c-.297 0-.375-.015-.375-.625V.344H0l.031 1.172L0 2.688h.266v-.172c0-.61.078-.625.375-.625h2.062v2.562H.641c-.297 0-.375-.016-.375-.64V3.64H0l.031 1.172Zm0 0"/><path id="T" d="M.719 4.094h.437v-.25H.72c-.328 0-.453-.11-.453-.281 0-.297.359-.297.453-.297h1.656c.781 0 1.172-.75 1.172-1.485 0-.656-.25-1.25-.781-1.25a.36.36 0 0 0-.375.375c0 .219.156.375.375.375a.356.356 0 0 0 .359-.297c.203.297.203.735.203.782 0 .453-.312.89-.969.89h-.234c-.031-.453-.047-.984-.281-1.547C1.53.406 1.078.266.813.266c-.688 0-.891.812-.891 1.359 0 .578.328.938.64 1.11-.296.046-.609.25-.609.609 0 .078.031.75.766.75m.406-1.438c-.781 0-.984-.64-.984-.969 0-.406.28-.765.672-.765.515 0 1.062.5 1.093 1.734Zm0 0"/><path id="U" d="M1.031 3.047c.375 0 .938-.219 1.11-1.172.015-.062.093-.516.093-.547.063-.25.235-.625.547-.625.235 0 .578.188.578.938 0 .89-.656.937-.875.953-.062 0-.093.062-.093.11 0 .14.062.14.203.14h.75c.125 0 .203 0 .203-.11 0-.046 0-.062-.125-.187 0-.016-.078-.094-.078-.11 0 0 0-.03.031-.078.094-.125.172-.359.172-.718 0-1.11-.594-1.36-.985-1.36-.39 0-.624.297-.656.313-.234.328-.265.5-.36 1.047-.077.375-.187.984-.718.984-.312 0-.687-.203-.687-.937C.14.875.766.64 1.188.547c.109-.031.14-.047.14-.14C1.328.28 1.266.28 1.11.28H.125c-.125 0-.203 0-.203.094 0 .063 0 .063.156.203.047.047.14.125.188.172-.328.36-.344.734-.344.938 0 1.015.578 1.359 1.11 1.359m0 0"/><path id="V" d="M1 2.813h.438v-.25h-.422c-.547 0-.844-.25-.844-.547 0-.532.687-.532.812-.532h2.188v1.188h.265V1.484h1.47v-.25c-.735 0-1.485-.328-1.516-1.078h-.22v.719H1c-.937 0-1.078.719-1.078 1.078 0 .547.469.86 1.078.86m0 0"/><path id="W" d="M.953 3.516c.094 0 .094-.11.094-.125 0-.063 0-.094-.078-.125a1.07 1.07 0 0 1-.797-1.078c0-.485.375-1.204 1.562-1.204 1.141 0 1.579.594 1.579 1.172 0 .078 0 .5-.157.781a.336.336 0 0 0-.344-.265.36.36 0 0 0-.374.375c0 .219.14.375.39.375.485 0 .719-.531.719-1.281 0-1.11-.875-1.86-1.828-1.86C.703.281-.078 1.11-.078 2.11c0 1.125.937 1.407 1.031 1.407m0 0"/><path id="X" d="M0 4.484h.266c0-.546.046-.609.437-.609h2.813l-.094-1.219h-.266c0 .547-.047.61-.437.61h-1.39C.64 3.266.14 2.859.14 2.25c0-.687.343-.719.75-.719h2.625L3.422.328h-.266c0 .61-.015.61-.719.61H1.235c-.578 0-1.312 0-1.312 1.265 0 .75.578 1.047.64 1.078v.016h-.64Zm0 0"/><path id="Y" d="M.719 4.094h.437v-.25H.72c-.328 0-.453-.11-.453-.281 0-.297.359-.297.453-.297h1.656c.781 0 1.172-.75 1.172-1.485 0-.656-.25-1.25-.781-1.25a.36.36 0 0 0-.375.375c0 .219.156.375.375.375a.356.356 0 0 0 .359-.297c.203.297.203.735.203.782 0 .453-.312.89-.969.89h-.234c-.031-.453-.047-.984-.281-1.547C1.53.406 1.078.266.813.266c-.688 0-.891.812-.891 1.359 0 .578.328.938.64 1.11-.296.046-.609.25-.609.609 0 .078.031.75.766.75m.406-1.438c-.781 0-.984-.64-.984-.969 0-.406.28-.765.672-.765.515 0 1.062.5 1.093 1.734Zm4.125.516c.172 0 .313-.172.313-.313 0-.03 0-.14-.125-.25l-1.22-1.015-.171.172.937 1.25c.063.078.125.156.266.156m0 0"/><path id="Z" d="M0 4.484h.266c0-.515 0-.609.359-.609h1.797c.656 0 1.094-.312 1.094-1.14a1.38 1.38 0 0 0-.766-1.25h.766L3.422.327h-.266c0 .547-.047.61-.437.61H.625c-.36 0-.36-.094-.36-.61H0c.031.344.031.688.031.906 0 .235 0 .563-.031.907h.266c0-.5 0-.61.359-.61h1.438c.843 0 1.234.64 1.234 1.125s-.344.61-.844.61H.625c-.36 0-.36-.094-.36-.61H0c.031.344.031.703.031.906 0 .235 0 .579-.031.922m0 0"/><path id="aa" d="M0 4.422h.266c0-.547.046-.61.437-.61h4.828l-.093-1.187h-.266c0 .531-.047.61-.438.61H3.047c.312-.282.469-.657.469-1.079 0-1-.782-1.875-1.797-1.875-.985 0-1.797.797-1.797 1.797 0 .469.219.86.5 1.125h-.5Zm.984-1.219c-.14 0-.171 0-.328-.125a1.15 1.15 0 0 1-.515-.953c0-.375.187-.687.484-.875.313-.219.703-.266 1.078-.266.469 0 .797.079 1.063.266.297.188.53.547.53.953 0 .375-.202.766-.608 1Zm0 0"/><path id="ab" d="M1.703 3.984c.984 0 1.844-.828 1.844-1.875 0-1.046-.86-1.875-1.844-1.875-1 0-1.781.86-1.781 1.875 0 1.032.781 1.875 1.781 1.875m.063-.703c-.36 0-.797-.015-1.141-.25C.313 2.828.172 2.47.172 2.11c0-.421.203-.765.484-.937.328-.203.719-.219 1.11-.219.312 0 .78 0 1.125.235.28.218.437.546.437.921 0 .422-.203.766-.469.938-.343.219-.765.234-1.093.234m0 0"/><path id="ac" d="M1.719 4.422c1 0 1.797-.813 1.797-1.781 0-.313-.079-.766-.5-1.172h.5L3.422.28h-.266c0 .563-.047.61-.375.61H-.922c-.36 0-.36-.11-.36-.61h-.265c.031.344.031.688.031.907 0 .234 0 .562-.03.906h.265c0-.516 0-.61.36-.61H.39a1.37 1.37 0 0 0-.47 1.047c0 1 .782 1.89 1.798 1.89m0-.719C.812 3.703.14 3.125.14 2.484c0-.28.125-.64.515-.906.14-.094.156-.094.297-.094h1.703c.313.188.61.594.61 1.094 0 .61-.672 1.125-1.547 1.125m0 0"/><path id="ad" d="M.438 1.625a.453.453 0 0 0 .453-.453.436.436 0 0 0-.438-.438.44.44 0 0 0-.453.438.45.45 0 0 0 .438.453m0 0"/><path id="ae" d="M1.344 3.875c.5 0 .828-.266.968-.406.126-.125.141-.14.563-.828.219.453.61 1 1.234 1 .766 0 1.188-.782 1.188-1.516 0-.844-.578-1.531-1.328-1.531-.297 0-.563.094-.797.297-.172.14-.188.172-.5.656C2.234.563 1.656.344 1.219.344c-.89 0-1.39.89-1.39 1.765 0 .97.671 1.766 1.515 1.766m2.765-.64c-.453 0-.843-.36-1.078-.829l.594-1c.14-.234.375-.422.64-.422.5 0 .829.547.829 1.125 0 .61-.422 1.125-.985 1.125m-3.046.187c-.61 0-.985-.656-.985-1.297 0-.719.485-1.312 1.14-1.312.595 0 1.063.437 1.313.984l-.656 1.078c-.078.125-.328.547-.812.547m0 0"/><path id="af" d="M2.547 3.89c.844 0 1.36-.078 1.875-.343.703-.344.875-1 .875-1.438 0-1-.75-1.375-.969-1.484C3.75.344 2.953.328 2.547.328c-.531 0-1.328.016-1.969.406-.594.36-.75.954-.75 1.375 0 .391.125 1.063.906 1.47.579.296 1.297.312 1.813.312m.094-.703c-.47 0-1.188 0-1.641-.093-.828-.172-.937-.719-.937-.985 0-.265.125-.812.953-.984.453-.094 1.203-.094 1.625-.094.547 0 1.109 0 1.547.094.812.172.89.781.89.984 0 .266-.14.829-.86.985-.437.094-1.046.094-1.577.094m0 0"/><path id="ag" d="M9.953 0v-.516h-.312c-.657 0-.703-.062-.813-.218L5.61-5.047l2.844-2.406c.156-.14.266-.234 1.328-.234v-.516L8.5-8.172c-.36 0-1.297 0-1.594-.031v.515c.266 0 .547.016.86.141l-4.47 3.813v-3.953h1.267v-.516c-.344.031-1.625.031-2.047.031-.438 0-1.72 0-2.063-.031v.515H1.72v7.172H.453V0c.344-.031 1.625-.031 2.063-.031.422 0 1.703 0 2.047.031v-.516H3.297v-2.562L4.53-4.125l2.5 3.344c.016.031.063.094.063.14 0 .125-.578.125-.844.125V0c.39-.031 1.5-.031 1.953-.031.36 0 1.485 0 1.75.031m0 0"/><path id="aP" d="M13.61-7.687v-.516l-1.297.031c-.344 0-1.22 0-1.5-.031v.515c.14 0 1.187 0 1.187.172 0 0 0 .032-.047.141L9.938-2.047l-2.126-5.64h1.125v-.516c-.374.031-1.484.031-1.937.031-.375 0-1.531 0-1.828-.031v.515h1.016l.484 1.297-1.64 4.344-2.126-5.64h1.125v-.516c-.343.031-1.515.031-1.953.031-.375 0-1.515 0-1.812-.031v.515h1L4.109-.171c.079.203.11.281.375.281.266 0 .297-.078.375-.28l2.079-5.5 2.093 5.5c.063.202.094.28.36.28.234 0 .297-.046.375-.28L12.5-7.407c.094-.203.11-.282 1.11-.282m0 0"/><path id="bS" d="M6.14-3.937c0-.797 0-3.907-2.765-3.907-1.64 0-2.812.953-2.812 2.594 0 1.672 1.14 2.563 2.578 2.563.5 0 1.109-.188 1.484-1.032v.344c0 .844 0 3.047-1.86 3.047-.374 0-.812-.11-1.062-.297.36-.062.61-.312.61-.703a.69.69 0 0 0-.704-.703c-.312 0-.718.203-.718.734 0 .828.656 1.438 1.89 1.438 1.516 0 3.36-.985 3.36-4.078M4.61-5.11c0 .843-.344 2.03-1.344 2.03-1.188 0-1.188-.968-1.188-2.14 0-1.156 0-2.187 1.297-2.187.766 0 1.047.672 1.094.812.125.36.14 1.094.14 1.485m0 0"/><path id="bT" d="M6.516-7.703H4c-.094 0-1.875-.047-2.016-.078-.296-.047-.328-.172-.343-.297h-.5L.734-5.125h.516c0-.125.094-.953.297-1.094.11-.062 1.11-.062 1.297-.062h2.172C3.625-4.61 3.469-4.406 3.094-3.703 2.39-2.313 2.28-1.25 2.28-.656c0 .797.61.797.703.797a.75.75 0 0 0 .547-.235c.156-.187.156-.343.156-.86 0-1.827.172-3.171.922-4.062l1.797-2.14c.11-.125.11-.14.11-.547m0 0"/><path id="ah" d="M5.953-1.703c0-.125-.11-.125-.14-.125-.125 0-.141.047-.172.219-.203.765-.422 1.484-.907 1.484-.328 0-.359-.312-.359-.562s.031-.36.156-.875l.266-1.079.422-1.671c.093-.344.093-.36.093-.407 0-.203-.156-.328-.359-.328-.281 0-.453.266-.5.531-.203-.437-.562-.765-1.094-.765-1.406 0-2.875 1.75-2.875 3.5 0 1.125.657 1.906 1.579 1.906.25 0 .843-.047 1.562-.89.094.5.516.89 1.078.89.422 0 .703-.266.89-.656.204-.422.36-1.172.36-1.172M4.313-3.97c0 .078-.016.14-.032.203l-.593 2.344c-.063.219-.063.234-.25.438-.516.656-1.016.859-1.344.859-.594 0-.766-.656-.766-1.125 0-.61.375-2.078.656-2.625.375-.703.907-1.14 1.391-1.14.766 0 .938.968.938 1.046m0 0"/><path id="aG" d="M6.828-7.234c.063-.282.016-.578-.125-.75-.234-.328-.672-.407-1.125-.407-.719 0-1.406.094-2.062.625-.438.344-.766.829-.891 1.313-.11.469-.11.937.14 1.266.172.25.47.421.782.53l-.031.126a3.46 3.46 0 0 0-1.766.734C1.172-3.328.734-2.719.563-2.062.438-1.532.438-.984.734-.61c.204.265.516.437.829.562.406.14.859.188 1.328.188.89 0 1.797-.328 2.578-.953.11-.079.265-.297.39-.454l-.39-.578-.157.032c-.125.343-.312.656-.593.875-.469.375-1 .656-1.532.656-.562 0-1.14-.094-1.437-.5-.297-.39-.312-.922-.187-1.469.14-.547.453-1.062.921-1.437.344-.266.782-.407 1.157-.5.562-.125 1.109-.157 1.672-.157l.062-.312c-.406 0-.797-.032-1.172-.14-.25-.063-.5-.173-.656-.391-.219-.282-.266-.704-.172-1.125.14-.516.453-1.032.89-1.391.298-.25.688-.313 1.032-.313.281 0 .469.063.61.204a.5.5 0 0 1 .109.468c-.047.203-.157.328-.266.453-.078.094-.14.172-.187.282a.36.36 0 0 0 .03.234c.079.094.126.094.266.094s.422-.078.625-.266c.22-.234.282-.437.344-.687m0 0"/><path id="ai" d="M4.531-1.766v-6.53h-1v6.483c0 .688-.344 1.329-1.39 1.329a1.96 1.96 0 0 1-1.485-.657L.484-.25c.704.36 1.375.5 2 .5 1.25 0 2.047-.734 2.047-2.016m0 0"/><path id="aj" d="M4.797 0v-3.5c0-1.156-.828-1.984-1.938-1.984-.718 0-1.25.172-1.843.5l.078.78c.515-.374 1.062-.593 1.765-.593.547 0 1.032.453 1.032 1.313v.5c-.547.015-1.266.062-1.985.297C1.11-2.422.641-1.97.641-1.375c0 .531.312 1.5 1.328 1.5.656 0 1.5-.203 1.937-.562V0ZM3.89-1.61c0 .25 0 .532-.407.766-.312.203-.718.25-.906.25-.64 0-1.078-.343-1.078-.797 0-.812 1.656-.984 2.39-.984Zm0 0"/><path id="ak" d="M5.469 0 3.25-3.266l1.969-2.046h-1.11L1.813-2.906v-5.39H.938V0h.828v-1.719l.906-.953L4.5 0Zm0 0"/><path id="al" d="M5.063 0v-8.297h-.891v3.485a2.65 2.65 0 0 0-1.688-.61c-1.14 0-2.062 1.219-2.062 2.766S1.297.125 2.437.125c.438 0 1.11-.156 1.704-.734V0ZM4.14-1.406c-.282.515-.703.812-1.22.812-.733 0-1.593-.562-1.593-2.047 0-1.593 1.016-2.062 1.703-2.062.469 0 .86.234 1.11.625Zm0 0"/><path id="am" d="m3.688-5.36-.485-.515-.828.719v-3.14H1.5v3.874L.328-3.375l.453.547.719-.656V0h.875v-4.234Zm0 0"/><path id="an" d="M5.063 0v-5.312h-.907v3.421c0 .907-.625 1.36-1.406 1.36-.844 0-.922-.313-.922-.844v-3.937H.922v3.984c0 .86.265 1.453 1.25 1.453.344 0 1.281-.062 2.015-.719V0Zm0 0"/><path id="ao" d="m5.672-4.703-.125-.719c-.234 0-1.047 0-1.828.39-.39-.327-.875-.39-1.11-.39-1.046 0-1.875.875-1.875 1.922 0 .422.125.828.391 1.188a1.64 1.64 0 0 0-.344 1.015c0 .453.156.75.297.906C.468 0 .328.516.328.844c0 .875 1.125 1.61 2.594 1.61 1.453 0 2.594-.704 2.594-1.61 0-1.688-1.938-1.688-2.422-1.688H2.078c-.172 0-.672 0-.672-.625 0-.265.047-.343.11-.437.203.14.593.343 1.078.343 1.031 0 1.875-.859 1.875-1.937a2.13 2.13 0 0 0-.36-1.156 7 7 0 0 1 .954-.063c.046 0 .312 0 .609.016M3.64-3.5c0 1.063-.672 1.281-1.032 1.281-.53 0-1.062-.36-1.062-1.265 0-1.063.672-1.282 1.047-1.282.531 0 1.047.36 1.047 1.266M4.688.844c0 .562-.829.953-1.766.953-.922 0-1.766-.375-1.766-.953 0-.047 0-.813.907-.813h1.046c.266 0 1.579 0 1.579.813m0 0"/><path id="ap" d="M5.484-2.625c0-1.625-1.187-2.86-2.562-2.86-1.406 0-2.563 1.266-2.563 2.86 0 1.563 1.188 2.75 2.563 2.75 1.406 0 2.562-1.219 2.562-2.75m-.906-.125c0 1.469-.844 2.125-1.656 2.125-.86 0-1.656-.719-1.656-2.125 0-1.453.89-2.016 1.656-2.016.812 0 1.656.625 1.656 2.016m0 0"/><path id="aq" d="M2.14.703v-6.015h-.89v6.14c0 .781-.625.86-.875.86-.531 0-.86-.344-.875-.375l-.234.718c.375.235.859.406 1.406.406.75 0 1.469-.624 1.469-1.734m0-7.5v-1.016H1.11v1.016Zm0 0"/><path id="ar" d="M4.86-2.687c0-.516-.048-1.25-.423-1.876-.5-.828-1.328-.921-1.671-.921C1.469-5.484.39-4.25.39-2.687.39-1.11 1.547.124 2.92.124c.563 0 1.22-.156 1.876-.64 0-.047-.047-.438-.047-.438s-.031-.281-.031-.328c-.703.593-1.407.687-1.766.687-.922 0-1.703-.828-1.734-2.093Zm-.704-.641h-2.86c.204-.813.767-1.438 1.47-1.438.359 0 1.187.157 1.39 1.438m0 0"/><path id="as" d="M4.203-1.516c0-.609-.36-1-.406-1.046-.453-.47-.813-.532-1.531-.672-.438-.094-1.047-.203-1.047-.813 0-.734.843-.734 1-.734.625 0 1.125.14 1.656.437l.14-.765a3.9 3.9 0 0 0-1.687-.375c-.265 0-1.937 0-1.937 1.547 0 .53.297.89.468 1.062.438.36.735.422 1.438.563.39.093 1.078.234 1.078.859 0 .828-.922.828-1.094.828A3.12 3.12 0 0 1 .47-1.219l-.14.813c.046.031.859.531 1.968.531 1.547 0 1.906-.937 1.906-1.64m0 0"/><path id="at" d="M4.703 0v-.734H2.984c-.14 0-.28.015-.421.015H1.547l3.11-4.125v-.468H.483v.703h2.953L.329-.484V0Zm0 0"/><path id="au" d="M4.86-.5c0-.031-.032-.406-.048-.453l-.015-.344a2.8 2.8 0 0 1-1.828.672c-1 0-1.64-.875-1.64-2.047 0-.984.484-2.078 1.671-2.078.797 0 1.14.203 1.656.547l.14-.781c-.702-.407-1.093-.5-1.796-.5-1.656 0-2.578 1.453-2.578 2.812C.422-1.14 1.516.125 2.953.125c.578 0 1.25-.156 1.906-.625m0 0"/><path id="av" d="M5.563-2.672c0-1.469-.782-2.75-1.891-2.75-.344 0-1.11.063-1.86.672v-3.547H.939V0h.906v-.531c.547.515 1.125.656 1.547.656 1.14 0 2.172-1.172 2.172-2.797m-.907 0c0 1.563-.968 2.078-1.703 2.078-.328 0-.562-.125-.781-.297-.281-.25-.328-.453-.328-.656V-4.03c.218-.328.64-.672 1.234-.672.719 0 1.578.547 1.578 2.031m0 0"/><path id="aw" d="M4.86-2.687c0-.516-.048-1.25-.423-1.876-.5-.828-1.328-.921-1.671-.921C1.469-5.484.39-4.25.39-2.687.39-1.141 1.5.078 2.844.124c-.531.344-.875.828-.828 1.39 0 .516.375 1.016 1.172 1.016.39 0 .703-.062 1.171-.297l-.156-.703c-.266.11-.547.172-.812.172-.328-.031-.625-.094-.625-.453-.016-.531.5-.969 1.047-1.281.328-.094.64-.25.984-.485 0-.046-.047-.437-.047-.437s-.031-.281-.031-.328c-.703.593-1.407.687-1.766.687-.922 0-1.703-.828-1.734-2.093Zm-.704-.641h-2.86c.204-.813.767-1.438 1.47-1.438.359 0 1.187.157 1.39 1.438m0 0"/><path id="ax" d="M1.813 0v-5.312H.938V0Zm.078-6.797v-1.016H.859v1.016Zm0 0"/><path id="ay" d="M2.11-.016v-.953h-.97V0h.298L1.14 1.5h.468Zm0 0"/><path id="az" d="M5.063 0v-3.594c0-.734-.157-1.828-1.594-1.828-.828 0-1.375.469-1.656.813v-3.688H.922V0h.906v-2.969c0-.75.281-1.734 1.188-1.734 1.109 0 1.14.766 1.14 1.187V0Zm0 0"/><path id="aA" d="M7.766-5.312H6.89l-.703 2.437c-.172.563-.516 1.688-.563 2.203-.047-.281-.234-1.078-.484-1.937l-.797-2.703H3.53L2.844-2.97c-.219.75-.5 1.781-.531 2.282h-.016c-.016-.235-.14-.86-.375-1.672l-.844-2.953H.172L1.766 0h.922c.453-1.5 1.156-3.781 1.218-4.61h.016c.015.485.265 1.344.344 1.626L5.109 0h1.063Zm0 0"/><path id="aC" d="M5.563-2.672c0-1.437-.75-2.75-1.875-2.75-.485 0-1.25.156-1.876.672v-.562H.939v7.625h.906V-.531c.406.36.906.656 1.547.656 1.156 0 2.172-1.172 2.172-2.797m-.907.016c0 1.203-.812 2.062-1.703 2.062-.328 0-.562-.125-.781-.297-.297-.25-.328-.468-.328-.656v-2.469a1.47 1.47 0 0 1 1.219-.671c.874 0 1.593.89 1.593 2.03m0 0"/><path id="aD" d="M8.328 0v-3.594c0-.828-.219-1.828-1.61-1.828-1.015 0-1.577.703-1.765.969-.203-.766-.86-.969-1.484-.969-.985 0-1.5.625-1.703.875v-.812H.922V0h.906v-2.969c0-.797.313-1.734 1.188-1.734 1.093 0 1.156.75 1.156 1.187V0h.906v-2.969c0-.797.313-1.734 1.188-1.734 1.093 0 1.156.75 1.156 1.187V0Zm0 0"/><path id="aE" d="M5.063 0v-3.594c0-.734-.157-1.828-1.594-1.828-.672 0-1.25.297-1.703.875v-.812H.922V0h.906v-2.969c0-.75.281-1.734 1.188-1.734 1.109 0 1.14.766 1.14 1.187V0Zm0 0"/><path id="aF" d="M4.86-.5c0-.031-.032-.406-.048-.453l-.015-.344a2.8 2.8 0 0 1-1.828.672c-1 0-1.64-.875-1.64-2.047 0-.984.484-2.078 1.671-2.078.797 0 1.14.203 1.656.547l.14-.781c-.702-.407-1.093-.5-1.796-.5-1.656 0-2.578 1.453-2.578 2.812C.422-1.14 1.516.125 2.953.125c.578 0 1.25-.156 1.906-.625M4.5-8.297h-.922l-1.547 2h.719Zm0 0"/><path id="aH" d="m3.89-.344-.171-.703c-.422.375-.86.422-1.078.422-.532 0-.594-.562-.594-.984v-3h1.64v-.703h-1.64v-1.516h-.828v1.516h-1v.703h.969v3.203c0 .703.156 1.531.984 1.531.797 0 1.36-.281 1.719-.469m0 0"/><path id="aJ" d="M1.813 0v-8.297H.938V0Zm0 0"/><path id="aK" d="M3.797-4.625v-.797c-1.078 0-1.719.64-2.047 1.11V-5.36H.938V0h.875v-2.625c0-1.203.906-1.984 1.984-2m0 0"/><path id="aL" d="m5.219 2.234-.157-.703c-.265.11-.546.172-.812.172-.328-.031-.61-.094-.625-.453C3.609.719 4.109.313 4.656 0h.14v-3.5c0-1.156-.827-1.984-1.937-1.984-.718 0-1.25.172-1.843.5l.078.78c.515-.374 1.062-.593 1.765-.593.547 0 1.032.453 1.032 1.313v.5c-.547.015-1.266.062-1.985.297C1.11-2.422.641-1.97.641-1.375c0 .531.312 1.5 1.328 1.5.656 0 1.5-.203 1.937-.562V0c-.594.328-1.078.906-1.031 1.516 0 .515.375 1.015 1.172 1.015.406 0 .703-.062 1.172-.297M3.89-1.609c0 .25 0 .53-.407.765-.312.203-.718.25-.906.25-.64 0-1.078-.343-1.078-.797 0-.812 1.656-.984 2.39-.984Zm0 0"/><path id="aM" d="M5.172-5.312h-.89c-.548 1.421-1.47 3.765-1.516 4.625H2.75c-.062-.72-.687-2.282-.797-2.532L1.11-5.312H.172L2.39 0l-.422 1.094c-.266.593-.438.656-.657.656-.171 0-.546-.047-.921-.187l.078.78c.062.016.469.095.844.095.296 0 .843 0 1.359-1.313Zm0 0"/><path id="aN" d="M4.86-6.562c0-.922-.563-1.86-2.25-1.86-.938 0-1.61.375-1.97.64l.266.735a2.5 2.5 0 0 1 1.719-.656c.64 0 1.328.156 1.328 1.125 0 .547-.25.766-.453.937C2.828-5.062 2.203-4 2.203-2.67v.608h.766v-.578c0-1.28.781-2.125 1.234-2.5.25-.203.656-.593.656-1.421M3.077 0v-.969H2.11V0Zm0 0"/><path id="aO" d="M2.344-8.297h-.969l.094 6.235h.781Zm0 8.297v-.969h-.969V0Zm0 0"/><path id="aQ" d="M6.547 0v-.766H5.422l-3.094.032h-.375l4.531-7.078v-.485H.813v.735h2.343c.14 0 .281-.016.422-.016h1.61L.64-.484V0Zm0 0"/><path id="aR" d="M4.203-1.516c0-.609-.36-1-.406-1.046-.453-.47-.813-.532-1.531-.672-.438-.094-1.047-.203-1.047-.813 0-.734.843-.734 1-.734.625 0 1.125.14 1.656.437l.14-.765a3.9 3.9 0 0 0-1.687-.375c-.265 0-1.937 0-1.937 1.547 0 .53.297.89.468 1.062.438.36.735.422 1.438.563.39.093 1.078.234 1.078.859 0 .828-.922.828-1.094.828A3.12 3.12 0 0 1 .47-1.219l-.14.813c.046.031.859.531 1.968.531 1.547 0 1.906-.937 1.906-1.64m-.312-6.78h-.922l-1.547 2h.719Zm0 0"/><path id="aS" d="M7.11-2.25c0-1.047-1.032-1.89-2.266-2.094 1.39-.375 1.937-1.172 1.937-1.875 0-1.078-1.218-2.078-2.906-2.078H1.109V0h3.094C5.875 0 7.11-1.078 7.11-2.25M5.86-6.203c0 .844-1.032 1.531-2.298 1.531H2.079v-2.953h1.469c1.281 0 2.312.625 2.312 1.422m.312 3.937c0 .844-.969 1.594-2.313 1.594H2.08v-3.281h1.593c1.547 0 2.5.86 2.5 1.687m0 0"/><path id="aT" d="M7.969-4.125c0-2.531-1.719-4.422-3.657-4.422-1.984 0-3.671 1.922-3.671 4.422C.64-1.609 2.375.25 4.297.25c1.984 0 3.672-1.875 3.672-4.375m-1.032-.172C6.938-1.953 5.658-.5 4.313-.5c-1.39 0-2.64-1.5-2.64-3.797 0-2.203 1.297-3.516 2.625-3.516 1.375 0 2.64 1.344 2.64 3.516m0 0"/><path id="aU" d="M5.844-2.266c0-.765-.375-1.328-.625-1.625-.563-.593-1-.718-1.797-.921-.813-.204-1.11-.266-1.375-.516-.156-.172-.485-.469-.485-1 0-.734.657-1.438 1.72-1.438 1.015 0 1.546.391 1.984.766l.172-.953c-.485-.266-1.094-.594-2.157-.594-1.594 0-2.64 1.14-2.64 2.344 0 .844.515 1.39.578 1.453.593.61 1 .703 1.75.906 1.031.25 1.187.297 1.578.688.203.219.375.594.375 1.015 0 .829-.672 1.594-1.703 1.594a3.75 3.75 0 0 1-2.516-1l-.172.969A4.9 4.9 0 0 0 3.22.25C4.75.25 5.844-.937 5.844-2.266m0 0"/><path id="aV" d="M4.703 0v-.734H2.984c-.14 0-.28.015-.421.015H1.547l3.11-4.125v-.468H.483v.703h2.953L.329-.484V0ZM3.047-6.797v-1.016H2.016v1.016Zm0 0"/><path id="aW" d="M5.484-2.625c0-1.625-1.187-2.86-2.562-2.86-1.406 0-2.563 1.266-2.563 2.86 0 1.563 1.188 2.75 2.563 2.75 1.406 0 2.562-1.219 2.562-2.75m-.906-.125c0 1.469-.844 2.125-1.656 2.125-.86 0-1.656-.719-1.656-2.125 0-1.453.89-2.016 1.656-2.016.812 0 1.656.625 1.656 2.016m-.016-5.547h-.906l-1.547 2h.72Zm0 0"/><path id="aX" d="M2.11 0v-.969h-.97V0Zm0 0"/><path id="aY" d="M2.11 0v-.969h-.97V0Zm2.03 0v-.969h-.968V0Zm2.048 0v-.969h-.97V0Zm0 0"/><path id="aZ" d="M2.11-4.344v-.968h-.97v.968ZM2.11 0v-.969h-.97V0Zm0 0"/><path id="ba" d="M2.11-.016v-.953h-.97V0h.313l-.312 1.5h.484Zm2.28 0v-.953h-.968V0h.297l-.297 1.5h.469Zm0 0"/><path id="bb" d="M2.11-7.344v-.953h-.97v.969h.313l-.312 1.5h.484Zm2.28 0v-.953h-.968v.969h.297l-.297 1.5h.469Zm0 0"/><path id="bc" d="M4.047-7.5v-.797c-.078-.015-.469-.125-.922-.125-1.125 0-1.937.875-1.937 2.031v1.079H.313v.703h.875V0h.875v-4.61h1.28v-.702H2.048v-1.422c0-.813.672-.97 1.078-.97s.781.141.922.204m0 0"/><path id="bd" d="M7.406 0 4.391-8.297H3.328L.328 0h.875l.875-2.422h3.375L6.328 0ZM5.203-3.094h-2.86l1.423-4.344Zm0 0"/><path id="be" d="M7.547-7.484v-.75H.422v.75H2c.14 0 .281-.016.422-.016h1.062V0H4.5v-7.5h1.063c.14 0 .28.016.421.016Zm0 0"/><path id="aB" d="M3.453-1.14c.063-.141.016-.282-.11-.344l-1.155-.5L3.343-2.5c.125-.062.172-.203.11-.344a.25.25 0 0 0-.345-.062l-1.015.75.125-1.266a.237.237 0 0 0-.235-.265c-.14 0-.234.14-.218.265l.125 1.266-1.016-.75a.25.25 0 0 0-.344.062c-.062.14-.015.281.11.344l1.156.516-1.156.5c-.125.062-.172.203-.11.343a.25.25 0 0 0 .344.063l1.016-.75-.125 1.266a.22.22 0 0 0 .218.25c.157 0 .25-.125.235-.25l-.125-1.266 1.015.75a.25.25 0 0 0 .344-.063m0 0"/><path id="aI" d="M4.344-5.125H2.25c-.312 0-.406-.016-.687-.031-.422-.047-.438-.094-.454-.235H.844L.563-3.687h.265c.016-.11.094-.641.219-.72.062-.046.719-.046.828-.046h1.75l-.844 1.047C1.75-2.031 1.656-.766 1.656-.296c0 .093 0 .452.375.452s.375-.36.375-.453v-.328c0-1.547.313-2.25.656-2.687l1.204-1.5c.078-.094.078-.11.078-.313m0 0"/><path id="bf" d="M2.594-.86c.047-.093.015-.218-.094-.25l-.86-.39.86-.375a.176.176 0 0 0 .094-.25c-.063-.094-.172-.125-.266-.062l-.765.562.109-.937a.173.173 0 0 0-.172-.204.173.173 0 0 0-.172.204l.094.937-.766-.562c-.078-.063-.203-.032-.25.062-.062.094-.015.203.078.25l.875.375-.875.39c-.093.032-.14.157-.078.25.047.094.172.11.25.047l.766-.562-.094.953c-.016.094.063.188.172.188.11 0 .188-.094.172-.188l-.11-.953.766.563c.094.062.203.046.266-.047m0 0"/><path id="bg" d="M1.734.016c0-.485-.187-.875-.562-.875a.427.427 0 0 0-.438.437c0 .25.172.453.438.453.219 0 .297-.093.344-.14 0 .78-.282 1.156-.641 1.484-.031.047-.031.078-.031.078 0 .078.062.125.11.125.109 0 .78-.625.78-1.562m1.657 0c0-.485-.188-.875-.563-.875a.44.44 0 0 0-.453.437c0 .25.172.453.453.453.219 0 .281-.093.328-.14 0 .78-.281 1.156-.625 1.484-.047.047-.047.078-.047.078 0 .078.079.125.11.125.11 0 .797-.625.797-1.562m0 0"/><path id="bh" d="M4.734-2.14H4.5C4.438-1.032 4.25-.282 2.75-.282H1.344l3.281-4.844c.063-.11.063-.14.063-.172 0-.14-.079-.14-.22-.14H.689L.594-3.641h.25c.062-1.171.61-1.53 1.656-1.53h1.328L.531-.329C.47-.234.47-.188.47-.156.469 0 .547 0 .688 0h3.906Zm0 0"/><path id="bi" d="M6.828 0v-.266c-.516 0-.61 0-.61-.359v-1.797c0-.64-.28-1.094-1.14-1.094-.734 0-1.11.5-1.234.735-.14-.578-.594-.735-1.11-.735a1.37 1.37 0 0 0-1.25.766v-.766l-1.156.094v.266c.547 0 .61.047.61.437v2.094c0 .36-.094.36-.61.36V0c.344-.031.688-.031.906-.031.235 0 .563 0 .907.031v-.266c-.5 0-.61 0-.61-.359v-1.437c0-.844.64-1.235 1.14-1.235.517 0 .61.406.61.844v1.828c0 .36-.11.36-.61.36V0c.345-.031.688-.031.907-.031.235 0 .563 0 .906.031v-.266c-.515 0-.609 0-.609-.359v-1.437c0-.844.64-1.235 1.14-1.235.516 0 .61.406.61.844v1.828c0 .36-.11.36-.61.36V0c.344-.031.688-.031.907-.031.234 0 .562 0 .906.031m0 0"/><path id="bj" d="M4.094-.719v-.437h-.25v.437c0 .328-.11.453-.281.453-.297 0-.297-.359-.297-.453v-1.656c0-.781-.75-1.172-1.485-1.172-.656 0-1.25.25-1.25.781a.36.36 0 0 0 .375.375.36.36 0 0 0 .375-.375.356.356 0 0 0-.297-.359c.297-.203.735-.203.782-.203.453 0 .89.312.89.969v.234c-.453.031-.984.047-1.547.281-.703.313-.843.766-.843 1.032 0 .687.812.89 1.359.89a1.23 1.23 0 0 0 1.11-.64c.046.296.25.609.609.609.078 0 .75-.031.75-.766m-1.438-.406c0 .781-.64.984-.969.984-.406 0-.765-.28-.765-.671 0-.516.5-1.063 1.734-1.094Zm0 0"/><path id="bk" d="M3.063-3.016c0-.28-.25-.5-.61-.5-.515 0-.875.391-1.031.844h-.016v-.844l-1.125.094v.266c.547 0 .61.047.61.437v2.094c0 .36-.11.36-.61.36V0c.313-.031.75-.031.938-.031.468 0 .484 0 1 .031v-.266h-.156c-.579 0-.594-.078-.594-.375v-1.171c0-.61.25-1.47 1.015-1.485-.046.031-.14.094-.14.281 0 .25.203.36.36.36.187 0 .358-.125.358-.36m0 0"/><path id="bl" d="M2.813-1v-.437h-.25v.421c0 .547-.25.844-.547.844-.532 0-.532-.687-.532-.812v-2.188h1.188v-.265H1.484v-1.47h-.25c0 .735-.328 1.485-1.078 1.516v.22h.719V-1c0 .938.719 1.078 1.078 1.078.547 0 .86-.469.86-1.078m0 0"/><path id="bm" d="M5.938-3.172v-.265c-.266.03-.282.03-.625.03-.25 0-.47 0-.72-.03v.265c.345.016.438.219.438.36 0 .109-.031.156-.047.203l-.75 1.984-.828-2.172c-.031-.11-.031-.125-.031-.156 0-.203.25-.219.438-.219v-.265c-.313.03-.735.03-.813.03-.172 0-.5 0-.734-.03v.265c.484 0 .5.047.656.469L2.187-.734l-.796-2.078c0-.032-.032-.11-.032-.141 0-.219.297-.219.438-.219v-.265c-.344.03-.703.03-.844.03-.14 0-.562 0-.781-.03v.265c.39 0 .469.031.562.25L1.797-.109c.047.125.078.187.203.187.14 0 .172-.094.203-.187l.844-2.235.844 2.235c.046.093.078.187.218.187.125 0 .157-.078.188-.172l.969-2.531c.062-.187.203-.531.672-.547m0 0"/><path id="bn" d="M4.281-3.172v-.265c-.265.03-.281.03-.625.03-.031 0-.453 0-.687-.03v.265c.234.016.344.14.344.328 0 .047 0 .11-.047.203L2.422-.719l-.938-2.093c-.046-.11-.046-.126-.046-.157 0-.187.25-.203.421-.203v-.265c-.359.03-.703.03-.875.03-.171 0-.546 0-.812-.03v.265c.422 0 .531.016.672.313L2.094 0C1.734.844 1.5 1.406.938 1.406c-.204 0-.329-.093-.329-.093A.35.35 0 0 0 .86.969.336.336 0 0 0 .516.625c-.172 0-.344.11-.344.36 0 .343.344.64.766.64.718 0 1.093-.86 1.125-.937L3.53-2.625c.203-.453.5-.531.75-.547m0 0"/><path id="bo" d="M3.516-.953c0-.094-.11-.094-.125-.094-.063 0-.094 0-.125.078a1.07 1.07 0 0 1-1.078.797C1.703-.172.984-.547.984-1.734c0-1.141.594-1.578 1.172-1.578.078 0 .5 0 .781.156a.336.336 0 0 0-.265.344c0 .218.156.374.375.374s.375-.14.375-.39c0-.485-.531-.719-1.281-.719-1.11 0-1.86.875-1.86 1.828C.281-.703 1.11.078 2.11.078c1.125 0 1.407-.937 1.407-1.031m0 0"/><path id="bp" d="M4.484 0v-.266c-.515 0-.609 0-.609-.359v-1.797c0-.656-.312-1.094-1.14-1.094-.704 0-1.063.454-1.22.704v-2.72l-1.187.095v.265c.547 0 .61.047.61.438v4.109c0 .36-.094.36-.61.36V0c.344-.031.688-.031.906-.031.235 0 .563 0 .907.031v-.266c-.5 0-.61 0-.61-.359v-1.437c0-.844.64-1.235 1.125-1.235s.61.344.61.844v1.828c0 .36-.094.36-.61.36V0c.344-.031.703-.031.906-.031.235 0 .579 0 .922.031m0 0"/><path id="bq" d="M3.047-1.031c0-.375-.219-.938-1.172-1.11a10 10 0 0 0-.547-.093c-.25-.063-.625-.235-.625-.547 0-.235.188-.578.938-.578.89 0 .937.656.953.875 0 .062.062.093.11.093.14 0 .14-.062.14-.203v-.75c0-.125 0-.203-.11-.203-.046 0-.062 0-.187.125-.016 0-.094.078-.11.078 0 0-.03 0-.078-.031-.125-.094-.359-.172-.718-.172-1.11 0-1.36.594-1.36.985 0 .39.297.624.313.656.328.234.5.265 1.047.36.375.077.984.187.984.718 0 .312-.203.687-.937.687C.875-.14.64-.766.547-1.187c-.031-.11-.047-.141-.14-.141-.126 0-.126.062-.126.219v.984c0 .125 0 .203.094.203.063 0 .063 0 .203-.156.047-.047.125-.14.172-.188.36.329.734.344.938.344 1.015 0 1.359-.578 1.359-1.11m0 0"/><path id="br" d="m2.422-3.406-.156-.203-.516.375v-2.297l-1.187.093v.266c.53 0 .593.047.593.438v1.937l-.672.5.157.219.515-.39v1.843c0 .36-.093.36-.593.36V0c.312-.031.75-.031.89-.031.156 0 .594 0 .89.031v-.266c-.5 0-.593 0-.593-.359v-2.281Zm0 0"/><path id="bs" d="M5.281-3.953c0-.781-.843-1.485-1.984-1.485H.359v.266h.188c.61 0 .625.078.625.375V-.64c0 .297-.016.375-.625.375H.359V0l1.172-.031L2.703 0v-.266h-.172c-.61 0-.625-.078-.625-.375v-1.843H3.36c.97 0 1.922-.625 1.922-1.47m-.828 0c0 .344 0 1.234-1.36 1.234H1.876v-2.14c0-.266.016-.313.39-.313h.829c1.36 0 1.36.86 1.36 1.219m0 0"/><path id="bt" d="M4.484 0v-.266c-.515 0-.609 0-.609-.359v-1.797c0-.656-.312-1.094-1.14-1.094a1.38 1.38 0 0 0-1.25.766v-.766l-1.157.094v.266c.547 0 .61.047.61.437v2.094c0 .36-.094.36-.61.36V0c.344-.031.688-.031.906-.031.235 0 .563 0 .907.031v-.266c-.5 0-.61 0-.61-.359v-1.437c0-.844.64-1.235 1.125-1.235s.61.344.61.844v1.828c0 .36-.094.36-.61.36V0c.344-.031.703-.031.906-.031.235 0 .579 0 .922.031m0 0"/><path id="bu" d="M3.797-1.422h-.25c-.016.156-.078.547-.172.703-.047.063-.656.063-.781.063H1.172l1.078-.969c.125-.125.453-.39.594-.5.484-.453.953-.89.953-1.61 0-.953-.797-1.562-1.781-1.562-.97 0-1.594.719-1.594 1.438 0 .39.312.437.422.437.172 0 .422-.11.422-.422 0-.406-.407-.406-.5-.406.234-.594.765-.781 1.156-.781.734 0 1.125.625 1.125 1.297 0 .828-.578 1.437-1.531 2.39l-1 1.047C.422-.219.422-.203.422 0h3.14Zm0 0"/><path id="bv" d="M3.89-2.547c0-.844-.078-1.36-.343-1.875-.344-.703-1-.875-1.438-.875-1 0-1.375.75-1.484.969C.344-3.75.328-2.953.328-2.547c0 .531.016 1.328.406 1.969.36.594.954.75 1.375.75.391 0 1.063-.125 1.47-.906.296-.578.312-1.297.312-1.813m-.703-.094c0 .47 0 1.188-.093 1.641-.172.828-.719.938-.985.938-.265 0-.812-.125-.984-.954-.094-.453-.094-1.203-.094-1.625 0-.546 0-1.109.094-1.546.172-.813.781-.891.984-.891.266 0 .829.14.985.86.094.437.094 1.046.094 1.577m0 0"/><path id="bw" d="M3.797-1.594c0-.922-.672-1.75-1.61-1.75-.39 0-.765.125-1.078.406v-1.546c.11.03.422.125.766.125 1 0 1.594-.703 1.594-.828 0-.094-.047-.11-.094-.11 0 0-.031 0-.094.031a3 3 0 0 1-1.11.22c-.468 0-.858-.11-1.108-.22-.079-.03-.11-.03-.11-.03-.094 0-.094.077-.094.234v2.328c0 .14 0 .234.125.234.063 0 .079-.031.125-.094.094-.11.391-.515 1.079-.515.437 0 .656.359.734.515.125.281.14.656.14.953s0 .735-.218 1.079c-.156.25-.485.484-.906.484A1.27 1.27 0 0 1 .734-.922c.016.016.079.016.079.016.218 0 .406-.14.406-.39a.39.39 0 0 0-.39-.407c-.157 0-.407.078-.407.422 0 .718.625 1.453 1.531 1.453 1 0 1.844-.781 1.844-1.766m0 0"/><path id="bx" d="M1.734-4.672c0-.469-.187-.86-.562-.86a.427.427 0 0 0-.438.438c0 .235.172.453.438.453.219 0 .297-.093.344-.14 0 .781-.282 1.14-.641 1.484-.031.031-.031.078-.031.078 0 .078.062.125.11.125.109 0 .78-.64.78-1.578m1.657 0c0-.469-.188-.86-.563-.86a.44.44 0 0 0-.453.438c0 .235.172.453.453.453.219 0 .281-.093.328-.14 0 .781-.281 1.14-.625 1.484-.047.031-.047.078-.047.078 0 .078.079.125.11.125.11 0 .797-.64.797-1.578m0 0"/><path id="by" d="M4.422-1.719c0-1-.813-1.797-1.781-1.797-.313 0-.766.079-1.172.5v-.5L.28-3.422v.266c.563 0 .61.047.61.375V.922c0 .36-.11.36-.61.36v.265c.344-.031.688-.031.907-.031.234 0 .562 0 .906.03v-.265c-.516 0-.61 0-.61-.36V-.39a1.37 1.37 0 0 0 1.047.47c1 0 1.89-.782 1.89-1.798m-.719 0c0 .907-.578 1.578-1.219 1.578-.28 0-.64-.125-.906-.515-.094-.14-.094-.156-.094-.297v-1.703c.188-.313.594-.61 1.094-.61.61 0 1.125.672 1.125 1.547m0 0"/><path id="bz" d="M3.406-1.531h-.25C3.078-.61 2.922-.25 1.937-.25H1l2.313-2.906c.046-.078.062-.094.062-.156 0-.126-.094-.126-.219-.126H.453l-.11 1.329h.25c.048-.828.235-1.11 1.126-1.11h.906L.313-.297C.25-.219.233-.203.233-.14.234 0 .328 0 .47 0h2.797Zm0 0"/><path id="bA" d="M3.984-1.703c0-.984-.828-1.844-1.875-1.844-1.046 0-1.875.86-1.875 1.844 0 1 .86 1.781 1.875 1.781 1.032 0 1.875-.781 1.875-1.781m-.703-.063c0 .36-.015.797-.25 1.141-.203.313-.562.453-.922.453-.421 0-.765-.203-.937-.484-.203-.328-.219-.719-.219-1.11 0-.312 0-.78.235-1.125.218-.28.546-.437.921-.437.422 0 .766.203.938.469.219.343.234.765.234 1.093m-.11-3.484c0-.172-.171-.312-.312-.312-.03 0-.14 0-.25.125L1.594-4.22l.172.172 1.25-.937c.078-.063.156-.125.156-.266m0 0"/><path id="bB" d="M2.078 0v-.266c-.531 0-.562-.03-.562-.343v-2.907l-1.157.094v.266c.516 0 .579.047.579.437v2.094c0 .36-.094.36-.61.36V0c.313-.031.766-.031.89-.031.095 0 .579 0 .86.031m-.453-4.797a.453.453 0 0 0-.453-.453.45.45 0 0 0-.438.453c0 .234.188.438.438.438a.45.45 0 0 0 .453-.438m0 0"/><path id="bC" d="M3.89-5.172v-.266c-.406.016-.624.016-1.078.016-.343 0-.953 0-1.28-.016v.266h.265c.75 0 .781.094.781.375v3.61c0 .734-.437 1.125-.86 1.125-.343 0-.702-.157-.89-.407.219 0 .469-.14.469-.437a.426.426 0 0 0-.438-.438c-.171 0-.437.11-.437.453C.422-.297 1 .172 1.75.172c.734 0 1.531-.484 1.531-1.36v-3.64c0-.344.094-.344.61-.344m0 0"/><path id="bD" d="M3.516-.953a.12.12 0 0 0-.125-.11c-.094 0-.11.047-.125.094a1.14 1.14 0 0 1-1.11.797c-.36 0-.734-.156-.969-.531-.234-.36-.234-.875-.234-1.11h2.344c.172 0 .219 0 .219-.187 0-.703-.391-1.547-1.516-1.547-.984 0-1.766.813-1.766 1.797 0 1.031.86 1.828 1.875 1.828 1 0 1.407-.844 1.407-1.031m-.547-1.078H.953c.078-1.11.75-1.297 1.047-1.297.938 0 .969 1.125.969 1.297m0 0"/><path id="bE" d="M4.484 0v-.266c-.546 0-.609-.046-.609-.437v-2.813l-1.219.094v.266c.547 0 .61.047.61.437v1.39C3.266-.64 2.859-.14 2.25-.14c-.687 0-.719-.343-.719-.75v-2.625l-1.203.094v.266c.61 0 .61.015.61.719v1.203c0 .578 0 1.312 1.265 1.312.75 0 1.047-.578 1.078-.64h.016v.64Zm0 0"/><path id="bF" d="M3.984-1.703c0-.984-.828-1.844-1.875-1.844-1.046 0-1.875.86-1.875 1.844 0 1 .86 1.781 1.875 1.781 1.032 0 1.875-.781 1.875-1.781m-.703-.063c0 .36-.015.797-.25 1.141-.203.313-.562.453-.922.453-.421 0-.765-.203-.937-.484-.203-.328-.219-.719-.219-1.11 0-.312 0-.78.235-1.125.218-.28.546-.437.921-.437.422 0 .766.203.938.469.219.343.234.765.234 1.093m0 0"/><path id="bG" d="M1.719-.031c0-.438-.172-.86-.547-.86a.436.436 0 0 0-.438.438c0 .25.172.453.438.453.187 0 .297-.094.312-.125 0 .25 0 .89-.593 1.469-.032.015-.047.031-.047.078 0 .078.062.125.11.125.093 0 .765-.625.765-1.578m0 0"/><path id="bH" d="M5.516-1.453c0-.656-.61-1.281-1.61-1.39.86-.188 1.375-.704 1.375-1.25 0-.72-.797-1.344-1.875-1.344H.375v.265h.188c.609 0 .625.078.625.375V-.64c0 .297-.016.375-.625.375H.375V0h3.266c1.093 0 1.875-.703 1.875-1.453M4.5-4.093c0 .546-.469 1.156-1.39 1.156H1.86V-4.86c0-.266.015-.313.39-.313h1.11c.78 0 1.14.61 1.14 1.078m.203 2.624c0 .64-.531 1.203-1.344 1.203H2.25c-.375 0-.39-.046-.39-.328v-2.125h1.624c.766 0 1.22.625 1.22 1.25m0 0"/><path id="bI" d="M3.406-1.531h-.25C3.078-.61 2.922-.25 1.937-.25H1l2.313-2.906c.046-.078.062-.094.062-.156 0-.126-.094-.126-.219-.126H.453l-.11 1.329h.25c.048-.828.235-1.11 1.126-1.11h.906L.313-.297C.25-.219.233-.203.233-.14.234 0 .328 0 .47 0h2.797ZM2.328-4.797a.44.44 0 0 0-.437-.453.44.44 0 0 0-.438.453.437.437 0 1 0 .875 0m0 0"/><path id="bJ" d="M2.813 1.89c0-.03 0-.03-.11-.14C1.61.719 1.343-.75 1.343-1.984c0-2.297.938-3.375 1.345-3.75.124-.094.124-.11.124-.141 0-.047-.03-.094-.109-.094-.125 0-.531.407-.594.469C1.047-4.375.83-2.953.83-1.984c0 1.78.734 3.218 1.827 3.968.063 0 .156 0 .156-.093m0 0"/><path id="bK" d="M4.313 0v-.266c-.329 0-.47-.03-.766-.406l-1.14-1.5.671-.531c.531-.422.86-.453 1.063-.469v-.265c-.203.03-.313.03-.641.03-.39 0-.5-.015-.844-.03v.265c.156.016.188.11.188.156 0 .172-.172.313-.235.36l-1.14.922v-3.797L.28-5.438v.266c.547 0 .61.047.61.438v4.109c0 .36-.11.36-.61.36V0c.313-.031.735-.031.875-.031.157 0 .578 0 .89.031v-.266c-.515 0-.608 0-.608-.359v-.766l.53-.437c.032 0 .235.281.36.437.125.157.25.329.375.485s.281.36.281.484c0 .14-.14.156-.25.156V0c.344-.031.704-.031.844-.031.297 0 .469 0 .735.031m0 0"/><path id="bL" d="M4.422 0v-.266c-.547 0-.61-.046-.61-.437v-4.828l-1.187.093v.266c.531 0 .61.047.61.438v1.687a1.4 1.4 0 0 0-1.079-.469c-1 0-1.875.782-1.875 1.797 0 .985.797 1.797 1.797 1.797.469 0 .86-.219 1.125-.5v.5ZM3.203-.984c0 .14 0 .172-.125.328a1.15 1.15 0 0 1-.953.515c-.375 0-.687-.187-.875-.484-.219-.312-.266-.703-.266-1.078 0-.469.079-.797.266-1.063.188-.296.547-.53.953-.53.375 0 .766.202 1 .608Zm0 0"/><path id="bM" d="M3.047-1.031c0-.375-.219-.938-1.172-1.11a10 10 0 0 0-.547-.093c-.25-.063-.625-.235-.625-.547 0-.235.188-.578.938-.578.89 0 .937.656.953.875 0 .062.062.093.11.093.14 0 .14-.062.14-.203v-.75c0-.125 0-.203-.11-.203-.046 0-.062 0-.187.125-.016 0-.094.078-.11.078 0 0-.03 0-.078-.031-.125-.094-.359-.172-.718-.172-1.11 0-1.36.594-1.36.985 0 .39.297.624.313.656.328.234.5.265 1.047.36.375.077.984.187.984.718 0 .312-.203.687-.937.687C.875-.14.64-.766.547-1.187c-.031-.11-.047-.141-.14-.141-.126 0-.126.062-.126.219v.984c0 .125 0 .203.094.203.063 0 .063 0 .203-.156.047-.047.125-.14.172-.188.36.329.734.344.938.344 1.015 0 1.359-.578 1.359-1.11M2.719-5.25c0-.172-.156-.312-.297-.312-.047 0-.156 0-.25.125L1.14-4.22l.172.172 1.25-.937c.093-.063.156-.125.156-.266m0 0"/><path id="bN" d="M4.422-1.719c0-1-.828-1.797-1.797-1.797-.64 0-1.016.344-1.156.485v-2.5L.28-5.438v.266c.547 0 .61.047.61.438V0h.234l.297-.5a1.32 1.32 0 0 0 1.11.578c1 0 1.89-.781 1.89-1.797m-.719-.015c0 .187 0 .75-.281 1.125-.297.359-.672.468-.922.468-.39 0-.703-.203-.922-.515-.094-.156-.094-.156-.094-.313v-1.547c0-.156 0-.171.125-.312a1.26 1.26 0 0 1 .97-.469c.405 0 .718.25.874.485.14.218.25.5.25 1.078m0 0"/><path id="bO" d="M2.469-1.984c0-.766-.14-1.672-.625-2.61C1.454-5.328.719-5.969.578-5.969c-.078 0-.094.047-.094.094 0 .031 0 .047.094.14 1.11 1.063 1.36 2.516 1.36 3.75C1.938.298 1 1.376.593 1.75c-.11.094-.11.11-.11.14 0 .048.016.094.094.094.125 0 .531-.406.594-.468C2.234.39 2.469-1.031 2.469-1.984m0 0"/><path id="bP" d="M1.625-.437a.453.453 0 0 0-.453-.454.436.436 0 0 0-.438.438.44.44 0 0 0 .438.453.45.45 0 0 0 .453-.437m0 0"/><path id="bU" d="M4.563 0v-.437H3.266v-5.157c0-.187 0-.297-.266-.297-.11 0-.125 0-.203.063-.688.516-1.656.516-1.828.516H.797v.437h.172a4.2 4.2 0 0 0 1.203-.172v4.61H.89V0c.343-.031 1.422-.031 1.828-.031.422 0 1.484 0 1.844.031m0 0"/><path id="bV" d="M4.86-2.953c0-.469-.032-1.39-.485-2.094-.297-.437-.828-.844-1.719-.844-1.281 0-2.218.72-2.218 1.938 0 1.125.765 1.937 2.093 1.937.406 0 .781-.203 1.063-.687v.172c0 .578-.063 1.156-.235 1.531-.109.234-.468.703-1.171.703-.079 0-.454 0-.735-.187a.55.55 0 0 0 .422-.563c0-.375-.281-.578-.578-.578-.25 0-.594.14-.594.594 0 .61.469 1.14 1.5 1.14 1.25 0 2.656-.796 2.656-3.062m-1.266-.89c0 .406-.172 1.452-1.031 1.452-.86 0-.86-.656-.86-1.53 0-.876 0-1.61.984-1.61.563 0 .766.515.797.593.11.297.11.782.11 1.094m0 0"/><path id="bW" d="M4.766-2.016h-.453c-.016.125-.094.766-.235.829-.11.046-.781.046-.937.046H1.859c.485-.39 1.016-.812 1.47-1.125.75-.53 1.437-1.015 1.437-1.89 0-1.047-.953-1.735-2.25-1.735-1.11 0-1.985.532-1.985 1.36 0 .468.36.687.672.687a.65.65 0 0 0 .656-.672c0-.203-.078-.53-.468-.64.312-.25.718-.282.89-.282.735 0 1.203.547 1.203 1.282 0 .656-.375 1.234-.859 1.718l-2 1.985c-.094.094-.094.11-.094.281V0H4.5Zm0 0"/><path id="bX" d="M3.516-1.406c0-.782-.594-1.5-1.453-1.5-.313 0-.672.062-.985.328v-1.313c.36.094.563.094.672.094.922 0 1.469-.625 1.469-.734 0-.078-.047-.094-.078-.094 0 0-.032 0-.063.016-.172.062-.531.203-1.047.203-.203 0-.562-.016-1.015-.188-.079-.031-.094-.031-.094-.031-.094 0-.094.078-.094.188v2.046c0 .125 0 .204.11.204.062 0 .078 0 .14-.094.297-.375.734-.438.969-.438.422 0 .61.328.64.39.126.235.172.5.172.907 0 .203 0 .61-.218.922a.98.98 0 0 1-.813.422c-.453 0-.922-.25-1.094-.719.266.016.407-.156.407-.344 0-.296-.266-.343-.36-.343 0 0-.343 0-.343.375 0 .625.578 1.25 1.406 1.25.89 0 1.672-.657 1.672-1.547m0 0"/><path id="bY" d="M3.688-1.14v-.25h-.782V-4.5c0-.14 0-.203-.14-.203-.094 0-.125 0-.188.11L.266-1.392v.25h2.062v.563c0 .25 0 .328-.578.328h-.187V0l1.046-.031L3.672 0v-.25h-.188c-.578 0-.578-.078-.578-.328v-.563Zm-1.313-.25H.531l1.844-2.548Zm0 0"/><path id="bZ" d="M2.016 1.734v-.328h-.72V-4.89h.72v-.328H.953v6.953Zm0 0"/><path id="ca" d="M3.578-1.203c0-.547-.437-1.094-1.203-1.25.719-.266.984-.781.984-1.219 0-.547-.625-.953-1.406-.953-.766 0-1.36.375-1.36.938 0 .234.157.359.36.359.219 0 .36-.156.36-.344 0-.203-.141-.36-.36-.375.25-.297.719-.375.985-.375.312 0 .75.156.75.75 0 .297-.094.625-.282.828-.219.266-.422.281-.765.313-.172.015-.188.015-.22.015 0 0-.077.016-.077.094 0 .094.062.094.187.094h.375c.547 0 .938.375.938 1.125 0 .86-.516 1.125-.906 1.125-.282 0-.907-.078-1.188-.5.328 0 .406-.235.406-.39 0-.22-.172-.376-.39-.376a.38.38 0 0 0-.391.407C.375-.281 1.094.14 1.938.14c.968 0 1.64-.657 1.64-1.344m0 0"/><path id="cb" d="M1.531-.39a.403.403 0 0 0-.406-.407.4.4 0 0 0-.406.39c0 .25.203.407.406.407a.4.4 0 0 0 .406-.39m0 0"/><path id="cc" d="M3.297 0v-.25H3.03c-.703 0-.703-.094-.703-.328v-3.86c0-.187 0-.187-.203-.187-.453.438-1.078.438-1.36.438v.25c.157 0 .626 0 1-.188v3.547c0 .234 0 .328-.687.328H.812V0l1.235-.031Zm0 0"/><path id="cd" d="M1.297 1.734v-6.953H.219v.328h.734v6.297H.22v.328Zm0 0"/><path id="ce" d="M7.813-1.75v-.203H.109v.203Zm0 0"/><path id="cf" d="M3.516-1.266H3.28c-.015.157-.094.563-.187.625-.047.047-.578.047-.688.047H1.125c.734-.64.984-.843 1.39-1.172.516-.406 1-.843 1-1.5 0-.843-.734-1.359-1.624-1.359-.86 0-1.453.61-1.453 1.25 0 .344.296.39.375.39.156 0 .359-.124.359-.374 0-.125-.047-.375-.406-.375.218-.485.687-.641 1.015-.641.703 0 1.063.547 1.063 1.11 0 .609-.438 1.078-.656 1.328L.516-.266C.437-.203.437-.187.437 0h2.876Zm0 0"/><path id="cg" d="M3.578-2.297c0-1.719-.765-2.328-1.578-2.328a1.55 1.55 0 0 0-1.11.422c-.234.234-.515.5-.515 1.125 0 .89.703 1.547 1.516 1.547.562 0 .859-.375 1.015-.688v.14c0 1.735-.844 2-1.265 2-.157 0-.532-.015-.72-.233a.315.315 0 0 0 .313-.329.32.32 0 0 0-.328-.328c-.203 0-.328.14-.328.344 0 .469.39.766 1.063.766 1 0 1.937-.938 1.937-2.438M2.891-3c0 .906-.516 1.266-.953 1.266-.282 0-.532-.079-.735-.407-.156-.25-.156-.546-.156-.937 0-.406 0-.672.203-.953.172-.25.39-.39.75-.39s.578.218.688.405c.187.282.203.782.203 1.016m0 0"/><path id="ch" d="M2.516 0v-.25h-.172c-.578 0-.578-.078-.578-.328v-3.61c0-.234 0-.328.578-.328h.172v-.25l-1.078.032-1.079-.032v.25h.172c.578 0 .578.094.578.329v3.609c0 .25 0 .328-.578.328H.36V0l1.079-.031Zm0 0"/><path id="ci" d="M3.594-2.219c0-.765-.094-1.328-.406-1.812-.22-.313-.657-.594-1.204-.594C.36-4.625.36-2.719.36-2.219s0 2.36 1.625 2.36c1.61 0 1.61-1.86 1.61-2.36m-.625-.094c0 .516 0 1.032-.094 1.47-.14.64-.61.78-.89.78-.329 0-.75-.187-.891-.75C1-1.219 1-1.796 1-2.312c0-.515 0-1.046.094-1.421.156-.547.593-.703.89-.703.375 0 .735.234.86.64.11.375.125.875.125 1.485m0 0"/><path id="cj" d="M3.578-1.422c0-.89-.703-1.547-1.515-1.547-.563 0-.86.375-1.016.688 0-.563.047-1.078.312-1.516.235-.375.61-.625 1.063-.625.203 0 .484.047.625.234-.172.016-.328.141-.328.344a.32.32 0 0 0 .328.328c.219 0 .344-.14.344-.343 0-.407-.297-.766-.985-.766-1 0-2.031.922-2.031 2.422C.375-.406 1.219.14 2 .14c.844 0 1.578-.657 1.578-1.563m-.672 0c0 .39 0 .688-.187.969A.82.82 0 0 1 2-.078c-.36 0-.625-.203-.781-.516-.094-.203-.157-.562-.157-.968 0-.688.407-1.204.97-1.204.312 0 .53.125.702.375.172.266.172.563.172.97m0 0"/><path id="ck" d="M5.547 0v-.25h-.125c-.469 0-.516-.078-.594-.266L3.125-4.812c-.031-.11-.062-.157-.187-.157-.141 0-.157.047-.204.157L1.125-.734C1.063-.562.938-.25.313-.25V0c.234-.016.484-.031.718-.031.282 0 .797.031.844.031v-.25c-.312 0-.516-.14-.516-.328 0-.063.016-.078.047-.14l.328-.86H3.72l.406 1.016c0 .03.031.078.031.109 0 .203-.375.203-.562.203V0l1.031-.031c.328 0 .86.031.922.031M3.609-1.828H1.83l.89-2.266Zm0 0"/><path id="cl" d="M4.047 0v-.25c-.469 0-.516-.047-.516-.39v-4.204l-1.047.078v.25c.47 0 .516.063.516.391v1.453a1.37 1.37 0 0 0-.969-.406c-.937 0-1.703.703-1.703 1.578S1.062.063 1.938.063c.578 0 .921-.297 1.03-.422v.422ZM2.969-.734c-.172.328-.531.609-.985.609-.39 0-.671-.234-.812-.437-.14-.204-.219-.485-.219-.922 0-.172 0-.688.281-1.016.282-.312.625-.375.829-.375.328 0 .64.156.828.406.078.11.078.11.078.25Zm0 0"/><path id="cm" d="M5.469-2.75V-3c-.188.016-.313.031-.5.031-.219 0-.485-.015-.688-.031v.25c.235 0 .36.14.36.297 0 .062 0 .078-.047.172L3.922-.547l-.75-1.906a.3.3 0 0 1-.031-.125c0-.156.172-.172.375-.172V-3c-.25.016-.5.031-.75.031-.203 0-.422-.015-.625-.031v.25c.172 0 .312 0 .406.047.094.078.156.312.156.312s-.015.063-.031.079L2.016-.641l-.703-1.812c-.032-.094-.032-.094-.032-.125 0-.172.25-.172.375-.172V-3s-.515.031-.797.031C.641-2.969.422-2.984.203-3v.25c.281 0 .438 0 .5.203l.969 2.453c.047.11.062.157.203.157.125 0 .14-.047.172-.141l.797-1.984.765 1.968c.047.094.063.157.204.157.124 0 .14-.047.187-.157l.875-2.234c.14-.344.375-.422.594-.422m0 0"/><path id="cn" d="M3.266-.844c0-.015-.016-.094-.125-.094-.094 0-.11.047-.125.11-.22.562-.75.672-1 .672-.328 0-.641-.14-.844-.406-.266-.329-.266-.75-.266-1.032h2.157c.156 0 .203 0 .203-.14 0-.625-.344-1.375-1.391-1.375a1.59 1.59 0 0 0-1.61 1.578c0 .89.782 1.594 1.704 1.594.937 0 1.297-.75 1.297-.907m-.485-.922H.906c.078-.984.703-1.14.969-1.14.86 0 .89.969.906 1.14m0 0"/><path id="co" d="M4.11 0v-.25c-.454 0-.516 0-.516-.297v-1.562c0-.61-.297-.97-1.047-.97-.578 0-.938.313-1.14.688v-.687L.374-3v.25c.469 0 .531.047.531.39v1.813c0 .297-.078.297-.531.297V0s.5-.031.797-.031c.25 0 .734.031.797.031v-.25c-.453 0-.516 0-.516-.297v-1.265c0-.72.578-1.063 1.031-1.063.485 0 .547.375.547.734v1.594c0 .297-.062.297-.515.297V0s.5-.031.797-.031c.25 0 .734.031.796.031m0 0"/><path id="cp" d="M2.61-.875v-.39h-.235v.374c0 .485-.219.735-.5.735-.469 0-.469-.578-.469-.703V-2.75h1.078V-3H1.406v-1.281h-.25c0 .625-.281 1.312-.953 1.328v.203h.64v1.875c0 .781.595.938.985.938.469 0 .781-.391.781-.938m0 0"/><clipPath id="b"><path d="M.535.266h6.883v9.636H.535Zm0 0"/></clipPath><clipPath id="a"><path d="M0 0h8v10H0z"/></clipPath><clipPath id="d"><path d="M.262 1h20.847v9.402H.262Zm0 0"/></clipPath><clipPath id="c"><path d="M0 0h22v11H0z"/></clipPath><clipPath id="bQ"><path d="M15.023 568.348H403v11.336H15.023Zm0 0"/></clipPath><g id="e" clip-path="url(#a)"><g clip-path="url(#b)"><path fill-rule="evenodd" d="m3.977 7.836 3.441 2.066V1.645c0-.762-.617-1.38-1.375-1.38H1.914C1.152.266.535.884.535 1.646v8.257Zm-2.754.851 2.754-1.652L6.73 8.687V1.646a.69.69 0 0 0-.687-.692H1.914a.69.69 0 0 0-.691.692Zm0 0"/></g></g><g id="F" clip-path="url(#c)"><g clip-path="url(#d)"><path d="m20 6.488-.2-.23q.767-.574.766-1.594 0-.732-1.078-.773-1.201-.046-1.203-1.024 0-.504.34-1.137h.195q.076.495.66.543l.66.043q.969.076.97 1.34V4.2Q21.107 5.918 20 6.49m-4.059 3.644-.117-.153q.188-.321.188-.761 0-.427-.059-1.281a21 21 0 0 1-.058-1.29c0-1.164.285-2.082.847-2.75h-4.265q-1.09 0-1.09-.914c0-.472.144-.867.441-1.187h.195c.075.336.305.508.68.508h3.535c.301 0 .535.05.692.152q.241.152.242.707v.356q0 .27-.27.703-.26.428-.261 1.332.002.52.168 1.562c.109.696.168 1.219.168 1.567q-.002 1.287-1.036 1.449m-4.382.004-.102-.157q.188-.197.188-.53-.001-.225-.02-.68a15 15 0 0 1-.023-.68c0-1.008.363-1.516 1.085-1.516q.147 0 .247.059v.195c-.23.152-.348.465-.348.95 0 .16.012.394.031.71q.029.47.028.703-.002.88-1.086.946m-2.086-.051-.16-.05v-5q0-.523-.165-.77c-.105-.168-.402-.293-.882-.368q-1.102-.18-1.102-1.101 0-.667.418-1.067h.195q.062.45.602.543l.61.094q.51.08.738.395.239.31.238 1.234v5.195q0 .644-.492.895m-4.657.047-.113-.153q.188-.321.188-.761 0-.427-.059-1.281a21 21 0 0 1-.059-1.29q0-1.747.848-2.75H1.355c-.726 0-1.093-.304-1.093-.914q0-.707.441-1.187h.195c.079.336.305.508.684.508h3.531q.456 0 .696.152t.238.707v.356q.002.27-.266.703-.263.428-.261 1.332-.002.52.168 1.562.164 1.045.164 1.567.001 1.287-1.036 1.449m-4.378.004L.336 9.98q.187-.197.187-.53 0-.225-.023-.68-.019-.458-.02-.68c0-1.008.364-1.516 1.086-1.516q.147 0 .246.059v.195c-.23.152-.347.465-.347.95 0 .16.008.394.027.71q.03.47.031.703-.001.88-1.085.946"/></g></g><linearGradient id="bR" x1="0" x2="388.063" y1="0" y2="0" gradientTransform="matrix(1 0 0 -1 15.024 579.685)" gradientUnits="userSpaceOnUse"><stop offset="0" stop-color="#f2f2f2"/><stop offset=".25" stop-color="#f2f2f2"/><stop offset=".313" stop-color="#f2f2f2"/><stop offset=".344" stop-color="#f2f2f2"/><stop offset=".359" stop-color="#f3f3f3"/><stop offset=".363" stop-color="#f4f4f4"/><stop offset=".367" stop-color="#f5f5f5"/><stop offset=".371" stop-color="#f6f6f6"/><stop offset=".375" stop-color="#f7f7f7"/><stop offset=".379" stop-color="#f8f8f8"/><stop offset=".383" stop-color="#f9f9f9"/><stop offset=".387" stop-color="#fafafa"/><stop offset=".391" stop-color="#fbfbfb"/><stop offset=".395" stop-color="#fcfcfc"/><stop offset=".398" stop-color="#fcfcfc"/><stop offset=".406" stop-color="#fcfcfc"/><stop offset=".438" stop-color="#fcfcfc"/><stop offset=".5" stop-color="#fcfcfc"/><stop offset=".563" stop-color="#fcfcfc"/><stop offset=".566" stop-color="#fcfcfc"/><stop offset=".57" stop-color="#fbfbfb"/><stop offset=".574" stop-color="#fafafa"/><stop offset=".578" stop-color="#f9f9f9"/><stop offset=".582" stop-color="#f8f8f8"/><stop offset=".586" stop-color="#f7f7f7"/><stop offset=".59" stop-color="#f6f6f6"/><stop offset=".594" stop-color="#f5f5f5"/><stop offset=".598" stop-color="#f4f4f4"/><stop offset=".602" stop-color="#f3f3f3"/><stop offset=".609" stop-color="#f3f3f3"/><stop offset=".625" stop-color="#f2f2f2"/><stop offset=".75" stop-color="#f2f2f2"/><stop offset="1" stop-color="#f2f2f2"/></linearGradient></defs><use xlink:href="#e" transform="translate(9 27)"/><use xlink:href="#f" x="17.008" y="23.315"/><use xlink:href="#g" x="20.884" y="23.315"/><use xlink:href="#h" x="26.154" y="23.315"/><use xlink:href="#i" x="384.039" y="23.315"/><use xlink:href="#j" x="390.168" y="23.315"/><use xlink:href="#k" x="392.79" y="23.315"/><use xlink:href="#l" x="396.727" y="23.315"/><use xlink:href="#m" x="141.017" y="34.908"/><use xlink:href="#n" x="147.222" y="34.908"/><use xlink:href="#o" x="153.498" y="34.908"/><use xlink:href="#p" x="164.234" y="34.908"/><use xlink:href="#q" x="170.94" y="34.908"/><use xlink:href="#r" x="175.495" y="34.908"/><use xlink:href="#s" x="182.202" y="34.908"/><use xlink:href="#t" x="188.777" y="34.908"/><use xlink:href="#u" x="199.74" y="34.908"/><use xlink:href="#v" x="203.159" y="34.908"/><use xlink:href="#w" x="209.268" y="34.908"/><use xlink:href="#x" x="214.313" y="34.908"/><use xlink:href="#y" x="220.004" y="34.908"/><use xlink:href="#x" x="225.85" y="34.908"/><use xlink:href="#v" x="231.54" y="34.908"/><use xlink:href="#z" x="246.617" y="34.908"/><use xlink:href="#A" x="250.203" y="34.908"/><use xlink:href="#B" x="256.094" y="34.908"/><use xlink:href="#C" x="260.972" y="34.908"/><use xlink:href="#D" x="265.58" y="34.908"/><use xlink:href="#E" x="270.189" y="34.908"/><use xlink:href="#F" transform="translate(378 26)"/><path fill="none" stroke="#000" stroke-miterlimit="10" stroke-width=".398" d="M17.008 39.293h384.094"/><use xlink:href="#G" x="399.042" y="112.553"/><use xlink:href="#H" x="399.042" y="107.03"/><use xlink:href="#I" x="399.042" y="104.679"/><use xlink:href="#J" x="399.042" y="99.976"/><use xlink:href="#K" x="399.042" y="92.923"/><use xlink:href="#L" x="399.042" y="85.869"/><use xlink:href="#M" x="399.042" y="81.398"/><use xlink:href="#K" x="399.042" y="76.696"/><use xlink:href="#I" x="399.042" y="72.464"/><use xlink:href="#N" x="399.042" y="67.762"/><use xlink:href="#J" x="399.042" y="63.059"/><use xlink:href="#O" x="399.042" y="56.006"/><use xlink:href="#P" x="399.042" y="51.304"/><use xlink:href="#Q" x="399.042" y="48.952"/><use xlink:href="#R" x="399.042" y="44.72"/><use xlink:href="#S" x="403.164" y="40.487"/><use xlink:href="#T" x="403.164" y="46.831"/><use xlink:href="#U" x="403.164" y="51.063"/><use xlink:href="#V" x="403.164" y="54.403"/><use xlink:href="#T" x="403.164" y="57.694"/><use xlink:href="#W" x="403.164" y="64.74"/><use xlink:href="#X" x="403.164" y="68.502"/><use xlink:href="#Y" x="403.164" y="73.204"/><use xlink:href="#Z" x="403.164" y="77.436"/><use xlink:href="#aa" x="403.164" y="82.138"/><use xlink:href="#ab" x="403.164" y="86.841"/><use xlink:href="#ac" x="403.164" y="93.894"/><use xlink:href="#ad" x="403.164" y="98.596"/><use xlink:href="#ae" x="403.164" y="100.947"/><use xlink:href="#af" x="403.164" y="105.18"/><use xlink:href="#ag" x="114.199" y="59.582"/><use xlink:href="#ah" x="130.709" y="52.151" fill="red"/><use xlink:href="#ai" x="130.709" y="59.582"/><use xlink:href="#aj" x="136.196" y="59.582"/><use xlink:href="#ak" x="141.803" y="59.582"/><use xlink:href="#al" x="151.379" y="59.582"/><use xlink:href="#am" x="157.381" y="59.582"/><use xlink:href="#an" x="161.134" y="59.582"/><use xlink:href="#ao" x="167.136" y="59.582"/><use xlink:href="#ap" x="172.994" y="59.582"/><use xlink:href="#aq" x="182.749" y="59.582"/><use xlink:href="#ar" x="185.834" y="59.582"/><use xlink:href="#as" x="191.034" y="59.582"/><use xlink:href="#at" x="195.517" y="59.582"/><use xlink:href="#au" x="200.598" y="59.582"/><use xlink:href="#at" x="205.798" y="59.582"/><use xlink:href="#ar" x="210.879" y="59.582"/><use xlink:href="#av" x="130.709" y="79.633"/><use xlink:href="#aw" x="137.033" y="79.633"/><use xlink:href="#al" x="142.234" y="79.633"/><use xlink:href="#at" x="148.235" y="79.633"/><use xlink:href="#ax" x="153.316" y="79.633"/><use xlink:href="#ar" x="156.066" y="79.633"/><use xlink:href="#as" x="161.266" y="79.633"/><use xlink:href="#at" x="165.749" y="79.633"/><use xlink:href="#ay" x="170.83" y="79.633"/><use xlink:href="#ai" x="177.979" y="79.633"/><use xlink:href="#aj" x="183.466" y="79.633"/><use xlink:href="#az" x="189.073" y="79.633"/><use xlink:href="#aA" x="195.075" y="79.633"/><use xlink:href="#ar" x="202.714" y="79.633"/><use xlink:href="#aB" x="207.915" y="75.293"/><use xlink:href="#ay" x="209.581" y="79.633"/><use xlink:href="#at" x="216.73" y="79.633"/><use xlink:href="#aj" x="221.811" y="79.633"/><use xlink:href="#aC" x="227.418" y="79.633"/><use xlink:href="#ap" x="233.742" y="79.633"/><use xlink:href="#aD" x="239.6" y="79.633"/><use xlink:href="#ax" x="248.853" y="79.633"/><use xlink:href="#aE" x="251.603" y="79.633"/><use xlink:href="#aj" x="257.604" y="79.633"/><use xlink:href="#aF" x="263.211" y="79.633"/><use xlink:href="#aG" x="272.31" y="72.202" fill="red"/><use xlink:href="#aD" x="272.31" y="79.633"/><use xlink:href="#aE" x="281.563" y="79.633"/><use xlink:href="#ax" x="287.565" y="79.633"/><use xlink:href="#ar" x="290.314" y="79.633"/><use xlink:href="#ax" x="130.709" y="99.684"/><use xlink:href="#aH" x="137.356" y="99.684"/><use xlink:href="#aA" x="141.265" y="99.684"/><use xlink:href="#ar" x="148.904" y="99.684"/><use xlink:href="#ap" x="158.002" y="99.684"/><use xlink:href="#aG" x="163.861" y="92.253" fill="red"/><use xlink:href="#aI" x="171.189" y="87.913" fill="red"/><use xlink:href="#av" x="163.861" y="99.684"/><use xlink:href="#aJ" x="169.862" y="99.684"/><use xlink:href="#ax" x="172.612" y="99.684"/><use xlink:href="#au" x="175.362" y="99.684"/><use xlink:href="#at" x="180.562" y="99.684"/><use xlink:href="#ar" x="185.643" y="99.684"/><use xlink:href="#aC" x="130.709" y="119.736"/><use xlink:href="#aK" x="136.388" y="119.736"/><use xlink:href="#at" x="140.369" y="119.736"/><use xlink:href="#ar" x="145.45" y="119.736"/><use xlink:href="#al" x="150.65" y="119.736"/><use xlink:href="#ar" x="156.651" y="119.736"/><use xlink:href="#aD" x="165.749" y="119.736"/><use xlink:href="#aE" x="175.002" y="119.736"/><use xlink:href="#aL" x="181.004" y="119.736"/><use xlink:href="#av" x="190.508" y="119.736"/><use xlink:href="#aw" x="196.832" y="119.736"/><use xlink:href="#al" x="202.033" y="119.736"/><use xlink:href="#at" x="208.034" y="119.736"/><use xlink:href="#ax" x="213.115" y="119.736"/><use xlink:href="#ar" x="215.864" y="119.736"/><use xlink:href="#as" x="221.065" y="119.736"/><use xlink:href="#at" x="225.548" y="119.736"/><use xlink:href="#ah" x="234.528" y="112.304" fill="red"/><use xlink:href="#as" x="234.528" y="119.736"/><use xlink:href="#ak" x="239.011" y="119.736"/><use xlink:href="#aK" x="244.69" y="119.736"/><use xlink:href="#aM" x="248.671" y="119.736"/><use xlink:href="#aA" x="254.027" y="119.736"/><use xlink:href="#aj" x="261.666" y="119.736"/><use xlink:href="#aF" x="267.273" y="119.736"/><use xlink:href="#aN" x="272.473" y="119.736"/><use xlink:href="#aO" x="277.996" y="119.736"/><use xlink:href="#aP" x="110.839" y="139.787"/><use xlink:href="#aQ" x="130.709" y="139.787"/><use xlink:href="#aj" x="137.858" y="139.787"/><use xlink:href="#aR" x="143.465" y="139.787"/><use xlink:href="#aC" x="147.948" y="139.787"/><use xlink:href="#ax" x="153.95" y="139.787"/><use xlink:href="#ar" x="156.699" y="139.787"/><use xlink:href="#aA" x="161.9" y="139.787"/><use xlink:href="#aj" x="169.539" y="139.787"/><use xlink:href="#aD" x="175.146" y="139.787"/><use xlink:href="#aG" x="188.297" y="132.355" fill="red"/><use xlink:href="#aI" x="195.625" y="128.016" fill="red"/><use xlink:href="#ai" x="188.297" y="139.787"/><use xlink:href="#aj" x="193.784" y="139.787"/><use xlink:href="#az" x="199.391" y="139.787"/><use xlink:href="#aA" x="205.393" y="139.787"/><use xlink:href="#ar" x="213.032" y="139.787"/><use xlink:href="#aB" x="218.233" y="135.447"/><use xlink:href="#ay" x="222.887" y="139.787"/><use xlink:href="#aD" x="130.709" y="159.838"/><use xlink:href="#ar" x="139.962" y="159.838"/><use xlink:href="#aD" x="145.163" y="159.838"/><use xlink:href="#an" x="154.416" y="159.838"/><use xlink:href="#ah" x="164.315" y="152.407" fill="red"/><use xlink:href="#aS" x="164.315" y="159.838"/><use xlink:href="#ap" x="172.086" y="159.838"/><use xlink:href="#ao" x="177.944" y="159.838"/><use xlink:href="#an" x="183.802" y="159.838"/><use xlink:href="#aO" x="189.803" y="159.838"/><use xlink:href="#aQ" x="130.709" y="179.889"/><use xlink:href="#aj" x="137.858" y="179.889"/><use xlink:href="#aR" x="143.465" y="179.889"/><use xlink:href="#aC" x="147.948" y="179.889"/><use xlink:href="#ax" x="153.95" y="179.889"/><use xlink:href="#ar" x="156.699" y="179.889"/><use xlink:href="#aA" x="161.9" y="179.889"/><use xlink:href="#aj" x="169.539" y="179.889"/><use xlink:href="#aD" x="175.146" y="179.889"/><use xlink:href="#aG" x="188.297" y="172.458" fill="red"/><use xlink:href="#aI" x="195.625" y="168.118" fill="red"/><use xlink:href="#ai" x="188.297" y="179.889"/><use xlink:href="#aj" x="193.784" y="179.889"/><use xlink:href="#az" x="199.391" y="179.889"/><use xlink:href="#aA" x="205.393" y="179.889"/><use xlink:href="#ar" x="213.032" y="179.889"/><use xlink:href="#aB" x="218.233" y="175.549"/><use xlink:href="#ay" x="222.887" y="179.889"/><use xlink:href="#aT" x="130.709" y="199.94"/><use xlink:href="#aE" x="139.341" y="199.94"/><use xlink:href="#aD" x="149.239" y="199.94"/><use xlink:href="#aM" x="158.492" y="199.94"/><use xlink:href="#aD" x="163.848" y="199.94"/><use xlink:href="#aT" x="176.999" y="199.94"/><use xlink:href="#al" x="185.63" y="199.94"/><use xlink:href="#ak" x="191.632" y="199.94"/><use xlink:href="#an" x="197.31" y="199.94"/><use xlink:href="#aC" x="203.312" y="199.94"/><use xlink:href="#ax" x="209.313" y="199.94"/><use xlink:href="#ah" x="212.064" y="192.509" fill="red"/><use xlink:href="#au" x="212.064" y="199.94"/><use xlink:href="#ax" x="217.264" y="199.94"/><use xlink:href="#ar" x="220.014" y="199.94"/><use xlink:href="#aJ" x="225.214" y="199.94"/><use xlink:href="#ar" x="227.964" y="199.94"/><use xlink:href="#aD" x="233.165" y="199.94"/><use xlink:href="#aO" x="242.418" y="199.94"/><use xlink:href="#ag" x="114.199" y="225.969"/><use xlink:href="#ah" x="130.709" y="218.538" fill="red"/><use xlink:href="#aU" x="130.709" y="225.969"/><use xlink:href="#aC" x="137.213" y="225.969"/><use xlink:href="#ap" x="143.537" y="225.969"/><use xlink:href="#aq" x="149.395" y="225.969"/><use xlink:href="#aK" x="152.479" y="225.969"/><use xlink:href="#at" x="156.46" y="225.969"/><use xlink:href="#aM" x="161.541" y="225.969"/><use xlink:href="#aq" x="166.897" y="225.969"/><use xlink:href="#aE" x="173.879" y="225.969"/><use xlink:href="#aj" x="179.88" y="225.969"/><use xlink:href="#aD" x="189.384" y="225.969"/><use xlink:href="#aE" x="198.637" y="225.969"/><use xlink:href="#ax" x="204.639" y="225.969"/><use xlink:href="#ar" x="207.388" y="225.969"/><use xlink:href="#ay" x="212.589" y="225.969"/><use xlink:href="#ap" x="130.709" y="246.02"/><use xlink:href="#al" x="136.89" y="246.02"/><use xlink:href="#aC" x="142.891" y="246.02"/><use xlink:href="#ap" x="149.215" y="246.02"/><use xlink:href="#aA" x="154.751" y="246.02"/><use xlink:href="#ax" x="162.713" y="246.02"/><use xlink:href="#ar" x="165.462" y="246.02"/><use xlink:href="#al" x="170.663" y="246.02"/><use xlink:href="#at" x="176.664" y="246.02"/><use xlink:href="#ai" x="185.642" y="246.02"/><use xlink:href="#aj" x="191.13" y="246.02"/><use xlink:href="#az" x="196.736" y="246.02"/><use xlink:href="#aA" x="202.738" y="246.02"/><use xlink:href="#ar" x="210.377" y="246.02"/><use xlink:href="#aB" x="215.579" y="241.681"/><use xlink:href="#ay" x="220.233" y="246.02"/><use xlink:href="#aS" x="227.382" y="246.02"/><use xlink:href="#ap" x="235.153" y="246.02"/><use xlink:href="#aV" x="241.011" y="246.02"/><use xlink:href="#ar" x="246.092" y="246.02"/><use xlink:href="#aG" x="255.19" y="238.589" fill="red"/><use xlink:href="#aD" x="255.19" y="246.02"/><use xlink:href="#aW" x="264.443" y="246.02"/><use xlink:href="#aq" x="270.301" y="246.02"/><use xlink:href="#ay" x="273.386" y="246.02"/><use xlink:href="#ap" x="130.709" y="266.071"/><use xlink:href="#aR" x="136.567" y="266.071"/><use xlink:href="#aA" x="141.05" y="266.071"/><use xlink:href="#ax" x="149.012" y="266.071"/><use xlink:href="#ar" x="151.762" y="266.071"/><use xlink:href="#aF" x="156.962" y="266.071"/><use xlink:href="#aD" x="166.06" y="266.071"/><use xlink:href="#ar" x="175.313" y="266.071"/><use xlink:href="#aG" x="184.411" y="258.64" fill="red"/><use xlink:href="#aI" x="191.74" y="254.301" fill="red"/><use xlink:href="#ap" x="184.411" y="266.071"/><use xlink:href="#au" x="190.592" y="266.071"/><use xlink:href="#at" x="195.792" y="266.071"/><use xlink:href="#aM" x="200.873" y="266.071"/><use xlink:href="#ay" x="205.249" y="266.071"/><use xlink:href="#av" x="130.709" y="286.123"/><use xlink:href="#aM" x="136.388" y="286.123"/><use xlink:href="#aD" x="141.743" y="286.123"/><use xlink:href="#as" x="154.894" y="286.123"/><use xlink:href="#ax" x="159.377" y="286.123"/><use xlink:href="#aw" x="162.127" y="286.123"/><use xlink:href="#aE" x="171.225" y="286.123"/><use xlink:href="#ax" x="177.226" y="286.123"/><use xlink:href="#ar" x="179.976" y="286.123"/><use xlink:href="#aC" x="189.073" y="286.123"/><use xlink:href="#ap" x="195.398" y="286.123"/><use xlink:href="#ao" x="201.255" y="286.123"/><use xlink:href="#aK" x="207.113" y="286.123"/><use xlink:href="#aL" x="211.094" y="286.123"/><use xlink:href="#aV" x="216.701" y="286.123"/><use xlink:href="#aM" x="221.782" y="286.123"/><use xlink:href="#am" x="227.138" y="286.123"/><use xlink:href="#ah" x="234.791" y="278.691" fill="red"/><use xlink:href="#aA" x="234.791" y="286.123"/><use xlink:href="#aR" x="246.65" y="286.123"/><use xlink:href="#aD" x="251.133" y="286.123"/><use xlink:href="#ax" x="260.387" y="286.123"/><use xlink:href="#ar" x="263.136" y="286.123"/><use xlink:href="#aK" x="268.337" y="286.123"/><use xlink:href="#au" x="272.318" y="286.123"/><use xlink:href="#ax" x="277.518" y="286.123"/><use xlink:href="#aX" x="280.268" y="286.123"/><use xlink:href="#aP" x="110.839" y="306.174"/><use xlink:href="#aQ" x="130.709" y="306.174"/><use xlink:href="#aj" x="137.858" y="306.174"/><use xlink:href="#aR" x="143.465" y="306.174"/><use xlink:href="#aC" x="147.948" y="306.174"/><use xlink:href="#ax" x="153.95" y="306.174"/><use xlink:href="#ar" x="156.699" y="306.174"/><use xlink:href="#aA" x="161.9" y="306.174"/><use xlink:href="#aj" x="169.539" y="306.174"/><use xlink:href="#aD" x="175.146" y="306.174"/><use xlink:href="#aG" x="188.297" y="298.743" fill="red"/><use xlink:href="#aI" x="195.625" y="294.403" fill="red"/><use xlink:href="#ai" x="188.297" y="306.174"/><use xlink:href="#aj" x="193.784" y="306.174"/><use xlink:href="#az" x="199.391" y="306.174"/><use xlink:href="#aA" x="205.393" y="306.174"/><use xlink:href="#ar" x="213.032" y="306.174"/><use xlink:href="#aB" x="218.233" y="301.834"/><use xlink:href="#aY" x="222.887" y="306.174"/><use xlink:href="#ag" x="114.199" y="332.203"/><use xlink:href="#ah" x="130.709" y="324.771" fill="red"/><use xlink:href="#aS" x="130.709" y="332.203"/><use xlink:href="#aM" x="138.48" y="332.203"/><use xlink:href="#aD" x="147.733" y="332.203"/><use xlink:href="#aW" x="156.986" y="332.203"/><use xlink:href="#aq" x="162.844" y="332.203"/><use xlink:href="#aA" x="169.826" y="332.203"/><use xlink:href="#aK" x="177.788" y="332.203"/><use xlink:href="#aW" x="181.769" y="332.203"/><use xlink:href="#ao" x="187.627" y="332.203"/><use xlink:href="#aE" x="130.709" y="352.254"/><use xlink:href="#ax" x="136.71" y="352.254"/><use xlink:href="#ar" x="139.46" y="352.254"/><use xlink:href="#aD" x="148.558" y="352.254"/><use xlink:href="#aW" x="157.811" y="352.254"/><use xlink:href="#ao" x="163.669" y="352.254"/><use xlink:href="#am" x="169.527" y="352.254"/><use xlink:href="#aD" x="177.178" y="352.254"/><use xlink:href="#aW" x="186.431" y="352.254"/><use xlink:href="#aA" x="191.966" y="352.254"/><use xlink:href="#ax" x="199.928" y="352.254"/><use xlink:href="#aF" x="202.678" y="352.254"/><use xlink:href="#aZ" x="207.879" y="352.254"/><use xlink:href="#ba" x="215.028" y="352.254"/><use xlink:href="#at" x="220.551" y="352.254"/><use xlink:href="#aA" x="225.632" y="352.254"/><use xlink:href="#aM" x="233.594" y="352.254"/><use xlink:href="#au" x="238.95" y="352.254"/><use xlink:href="#ax" x="244.15" y="352.254"/><use xlink:href="#aw" x="246.9" y="352.254"/><use xlink:href="#aV" x="252.1" y="352.254"/><use xlink:href="#aM" x="257.181" y="352.254"/><use xlink:href="#am" x="262.537" y="352.254"/><use xlink:href="#ar" x="265.968" y="352.254"/><use xlink:href="#aD" x="271.168" y="352.254"/><use xlink:href="#aG" x="284.321" y="344.823" fill="red"/><use xlink:href="#ao" x="284.321" y="352.254"/><use xlink:href="#ap" x="290.179" y="352.254"/><use xlink:href="#aO" x="296.037" y="352.254"/><use xlink:href="#bb" x="299.755" y="352.254"/><use xlink:href="#aj" x="130.709" y="372.305"/><use xlink:href="#aE" x="136.316" y="372.305"/><use xlink:href="#ax" x="142.317" y="372.305"/><use xlink:href="#au" x="148.964" y="372.305"/><use xlink:href="#ax" x="154.165" y="372.305"/><use xlink:href="#ar" x="156.914" y="372.305"/><use xlink:href="#aG" x="162.115" y="364.874" fill="red"/><use xlink:href="#aI" x="169.444" y="360.534" fill="red"/><use xlink:href="#aD" x="162.115" y="372.305"/><use xlink:href="#ax" x="171.368" y="372.305"/><use xlink:href="#aw" x="174.118" y="372.305"/><use xlink:href="#aV" x="179.318" y="372.305"/><use xlink:href="#au" x="184.399" y="372.305"/><use xlink:href="#aM" x="189.6" y="372.305"/><use xlink:href="#aE" x="130.709" y="392.356"/><use xlink:href="#ax" x="136.71" y="392.356"/><use xlink:href="#ar" x="139.46" y="392.356"/><use xlink:href="#aH" x="148.558" y="392.356"/><use xlink:href="#aK" x="152.79" y="392.356"/><use xlink:href="#aM" x="156.771" y="392.356"/><use xlink:href="#an" x="162.127" y="392.356"/><use xlink:href="#aD" x="168.128" y="392.356"/><use xlink:href="#bc" x="177.381" y="392.356"/><use xlink:href="#ap" x="180.956" y="392.356"/><use xlink:href="#aA" x="186.491" y="392.356"/><use xlink:href="#aj" x="194.13" y="392.356"/><use xlink:href="#aJ" x="199.737" y="392.356"/><use xlink:href="#ax" x="202.487" y="392.356"/><use xlink:href="#ay" x="205.236" y="392.356"/><use xlink:href="#ao" x="212.386" y="392.356"/><use xlink:href="#al" x="218.244" y="392.356"/><use xlink:href="#aM" x="224.245" y="392.356"/><use xlink:href="#an" x="233.498" y="392.356"/><use xlink:href="#ah" x="239.501" y="384.925" fill="red"/><use xlink:href="#aC" x="239.501" y="392.356"/><use xlink:href="#aj" x="245.502" y="392.356"/><use xlink:href="#al" x="251.109" y="392.356"/><use xlink:href="#aE" x="257.111" y="392.356"/><use xlink:href="#aw" x="263.112" y="392.356"/><use xlink:href="#aX" x="268.313" y="392.356"/><use xlink:href="#aP" x="110.839" y="412.407"/><use xlink:href="#aQ" x="130.709" y="412.407"/><use xlink:href="#aj" x="137.858" y="412.407"/><use xlink:href="#aR" x="143.465" y="412.407"/><use xlink:href="#aC" x="147.948" y="412.407"/><use xlink:href="#ax" x="153.95" y="412.407"/><use xlink:href="#ar" x="156.699" y="412.407"/><use xlink:href="#aA" x="161.9" y="412.407"/><use xlink:href="#aj" x="169.539" y="412.407"/><use xlink:href="#aD" x="175.146" y="412.407"/><use xlink:href="#aG" x="188.297" y="404.976" fill="red"/><use xlink:href="#aI" x="195.625" y="400.636" fill="red"/><use xlink:href="#ai" x="188.297" y="412.407"/><use xlink:href="#aj" x="193.784" y="412.407"/><use xlink:href="#az" x="199.391" y="412.407"/><use xlink:href="#aA" x="205.393" y="412.407"/><use xlink:href="#ar" x="213.032" y="412.407"/><use xlink:href="#aB" x="218.233" y="408.068"/><use xlink:href="#aY" x="222.887" y="412.407"/><use xlink:href="#ag" x="114.199" y="438.436"/><use xlink:href="#ah" x="130.709" y="431.005" fill="red"/><use xlink:href="#bd" x="130.709" y="438.436"/><use xlink:href="#aJ" x="138.444" y="438.436"/><use xlink:href="#ar" x="141.194" y="438.436"/><use xlink:href="#aq" x="150.291" y="438.436"/><use xlink:href="#aj" x="153.376" y="438.436"/><use xlink:href="#at" x="130.709" y="458.487"/><use xlink:href="#aj" x="135.79" y="458.487"/><use xlink:href="#an" x="141.397" y="458.487"/><use xlink:href="#bc" x="147.398" y="458.487"/><use xlink:href="#aj" x="150.973" y="458.487"/><use xlink:href="#am" x="156.58" y="458.487"/><use xlink:href="#ar" x="160.011" y="458.487"/><use xlink:href="#aD" x="165.211" y="458.487"/><use xlink:href="#be" x="178.362" y="458.487"/><use xlink:href="#aA" x="185.367" y="458.487"/><use xlink:href="#ar" x="193.007" y="458.487"/><use xlink:href="#aD" x="198.207" y="458.487"/><use xlink:href="#an" x="207.46" y="458.487"/><use xlink:href="#aD" x="217.359" y="458.487"/><use xlink:href="#ax" x="226.612" y="458.487"/><use xlink:href="#am" x="229.362" y="458.487"/><use xlink:href="#ap" x="232.793" y="458.487"/><use xlink:href="#aG" x="238.652" y="451.056" fill="red"/><use xlink:href="#as" x="238.652" y="458.487"/><use xlink:href="#ax" x="243.135" y="458.487"/><use xlink:href="#ar" x="245.885" y="458.487"/><use xlink:href="#aK" x="251.085" y="458.487"/><use xlink:href="#al" x="255.066" y="458.487"/><use xlink:href="#at" x="261.068" y="458.487"/><use xlink:href="#ax" x="266.149" y="458.487"/><use xlink:href="#an" x="268.898" y="458.487"/><use xlink:href="#ay" x="274.9" y="458.487"/><use xlink:href="#be" x="130.709" y="478.539"/><use xlink:href="#aA" x="137.715" y="478.539"/><use xlink:href="#ap" x="145.354" y="478.539"/><use xlink:href="#ax" x="151.212" y="478.539"/><use xlink:href="#aD" x="153.961" y="478.539"/><use xlink:href="#at" x="167.112" y="478.539"/><use xlink:href="#av" x="172.193" y="478.539"/><use xlink:href="#aj" x="178.194" y="478.539"/><use xlink:href="#aG" x="183.802" y="471.107" fill="red"/><use xlink:href="#aI" x="191.13" y="466.768" fill="red"/><use xlink:href="#aA" x="183.802" y="478.539"/><use xlink:href="#ax" x="191.764" y="478.539"/><use xlink:href="#ar" x="194.514" y="478.539"/><use xlink:href="#aE" x="199.714" y="478.539"/><use xlink:href="#ax" x="205.716" y="478.539"/><use xlink:href="#ar" x="208.465" y="478.539"/><use xlink:href="#aD" x="213.666" y="478.539"/><use xlink:href="#aK" x="130.709" y="498.59"/><use xlink:href="#ap" x="134.69" y="498.59"/><use xlink:href="#at" x="140.548" y="498.59"/><use xlink:href="#aK" x="145.629" y="498.59"/><use xlink:href="#aj" x="149.61" y="498.59"/><use xlink:href="#al" x="155.217" y="498.59"/><use xlink:href="#an" x="161.218" y="498.59"/><use xlink:href="#aq" x="167.22" y="498.59"/><use xlink:href="#ar" x="170.304" y="498.59"/><use xlink:href="#as" x="179.402" y="498.59"/><use xlink:href="#ax" x="183.885" y="498.59"/><use xlink:href="#aw" x="186.635" y="498.59"/><use xlink:href="#aD" x="195.732" y="498.59"/><use xlink:href="#ar" x="204.985" y="498.59"/><use xlink:href="#ah" x="214.084" y="491.159" fill="red"/><use xlink:href="#as" x="214.084" y="498.59"/><use xlink:href="#ar" x="218.567" y="498.59"/><use xlink:href="#aK" x="223.768" y="498.59"/><use xlink:href="#au" x="227.749" y="498.59"/><use xlink:href="#ar" x="232.949" y="498.59"/><use xlink:href="#aX" x="238.149" y="498.59"/><use xlink:href="#aP" x="110.839" y="518.641"/><use xlink:href="#aQ" x="130.709" y="518.641"/><use xlink:href="#aj" x="137.858" y="518.641"/><use xlink:href="#aR" x="143.465" y="518.641"/><use xlink:href="#aC" x="147.948" y="518.641"/><use xlink:href="#ax" x="153.95" y="518.641"/><use xlink:href="#ar" x="156.699" y="518.641"/><use xlink:href="#aA" x="161.9" y="518.641"/><use xlink:href="#aj" x="169.539" y="518.641"/><use xlink:href="#aD" x="175.146" y="518.641"/><use xlink:href="#aG" x="188.297" y="511.21" fill="red"/><use xlink:href="#aI" x="195.625" y="506.87" fill="red"/><use xlink:href="#ai" x="188.297" y="518.641"/><use xlink:href="#aj" x="193.784" y="518.641"/><use xlink:href="#az" x="199.391" y="518.641"/><use xlink:href="#aA" x="205.393" y="518.641"/><use xlink:href="#ar" x="213.032" y="518.641"/><use xlink:href="#aB" x="218.233" y="514.301"/><use xlink:href="#aY" x="222.887" y="518.641"/><path fill="none" stroke="#000" stroke-miterlimit="10" stroke-width=".398" d="M17.008 545.156h153.637"/><use xlink:href="#bf" x="27.919" y="551.677"/><g fill="red"><use xlink:href="#bg" x="31.354" y="554.57"/><use xlink:href="#bh" x="35.355" y="554.57"/><use xlink:href="#bi" x="40.527" y="554.57"/><use xlink:href="#bj" x="47.581" y="554.57"/><use xlink:href="#bk" x="51.813" y="554.57"/><use xlink:href="#bl" x="55.113" y="554.57"/></g><g fill="red"><use xlink:href="#bm" x="58.165" y="554.57"/><use xlink:href="#bn" x="64.278" y="554.57"/><use xlink:href="#bo" x="68.749" y="554.57"/></g><use xlink:href="#bp" x="72.272" y="554.57" fill="red"/><g fill="red"><use xlink:href="#bm" x="76.735" y="554.57"/><use xlink:href="#bq" x="82.848" y="554.57"/><use xlink:href="#bl" x="86.188" y="554.57"/><use xlink:href="#bj" x="89.479" y="554.57"/><use xlink:href="#br" x="93.711" y="554.57"/></g><use xlink:href="#bs" x="98.836" y="554.57" fill="red"/><g fill="red"><use xlink:href="#bj" x="104.367" y="554.57"/><use xlink:href="#bt" x="108.599" y="554.57"/></g><g fill="red"><use xlink:href="#bu" x="115.573" y="554.57"/><use xlink:href="#bv" x="119.805" y="554.57"/><use xlink:href="#bu" x="124.037" y="554.57"/><use xlink:href="#bw" x="128.269" y="554.57"/><use xlink:href="#bx" x="132.501" y="554.57"/></g><g fill="red"><use xlink:href="#by" x="138.79" y="554.57"/><use xlink:href="#bk" x="143.492" y="554.57"/><use xlink:href="#bz" x="146.791" y="554.57"/><use xlink:href="#bn" x="150.553" y="554.57"/><use xlink:href="#bm" x="155.024" y="554.57"/><use xlink:href="#bk" x="161.137" y="554.57"/><use xlink:href="#bA" x="164.437" y="554.57"/></g><g fill="red"><use xlink:href="#bo" x="168.908" y="554.57"/><use xlink:href="#bB" x="172.67" y="554.57"/><use xlink:href="#br" x="175.021" y="554.57"/></g><use xlink:href="#bC" x="180.155" y="554.57"/><use xlink:href="#bj" x="184.507" y="554.57"/><use xlink:href="#bp" x="188.739" y="554.57"/><use xlink:href="#bm" x="193.202" y="554.57"/><use xlink:href="#bD" x="199.076" y="554.57"/><g fill="red"><use xlink:href="#bz" x="205.12" y="554.57"/><use xlink:href="#bj" x="208.882" y="554.57"/><use xlink:href="#bi" x="213.114" y="554.57"/><use xlink:href="#bB" x="220.167" y="554.57"/><use xlink:href="#bj" x="222.519" y="554.57"/><use xlink:href="#bq" x="226.751" y="554.57"/><use xlink:href="#bl" x="230.09" y="554.57"/></g><use xlink:href="#bs" x="235.665" y="554.57"/><use xlink:href="#bj" x="241.196" y="554.57"/><use xlink:href="#bt" x="245.428" y="554.57"/><use xlink:href="#bj" x="250.131" y="554.57"/><use xlink:href="#bB" x="256.638" y="554.57" fill="red"/><use xlink:href="#bs" x="261.273" y="554.57"/><use xlink:href="#bj" x="266.796" y="554.57"/><use xlink:href="#bt" x="271.028" y="554.57"/><use xlink:href="#bE" x="275.491" y="554.57"/><g fill="red"><use xlink:href="#bF" x="282.477" y="554.57"/><use xlink:href="#bk" x="286.709" y="554.57"/><use xlink:href="#bj" x="290.009" y="554.57"/><use xlink:href="#bz" x="294.241" y="554.57"/></g><use xlink:href="#bC" x="300.285" y="554.57"/><use xlink:href="#bj" x="304.637" y="554.57"/><use xlink:href="#bp" x="308.869" y="554.57"/><use xlink:href="#bm" x="313.332" y="554.57"/><use xlink:href="#bD" x="319.206" y="554.57"/><use xlink:href="#bG" x="322.968" y="554.57"/><use xlink:href="#bH" x="327.598" y="554.57"/><use xlink:href="#bF" x="333.592" y="554.57"/><use xlink:href="#bI" x="337.824" y="554.57"/><use xlink:href="#bD" x="341.585" y="554.57"/><g fill="red"><use xlink:href="#bz" x="347.635" y="554.57"/><use xlink:href="#bj" x="351.397" y="554.57"/><use xlink:href="#bi" x="355.629" y="554.57"/><use xlink:href="#bB" x="362.682" y="554.57"/><use xlink:href="#bj" x="365.034" y="554.57"/><use xlink:href="#bq" x="369.266" y="554.57"/><use xlink:href="#bl" x="372.605" y="554.57"/></g><use xlink:href="#bs" x="378.181" y="554.57"/><use xlink:href="#bj" x="383.704" y="554.57"/><use xlink:href="#bt" x="387.936" y="554.57"/><use xlink:href="#bB" x="392.639" y="554.57"/><use xlink:href="#bD" x="394.99" y="554.57"/><use xlink:href="#bG" x="398.752" y="554.57"/><use xlink:href="#bH" x="17.008" y="564.034"/><use xlink:href="#bF" x="23.001" y="564.034"/><use xlink:href="#bI" x="27.234" y="564.034"/><use xlink:href="#bD" x="30.995" y="564.034"/><g fill="red"><use xlink:href="#bJ" x="37.579" y="564.034"/><use xlink:href="#bK" x="40.871" y="564.034"/><use xlink:href="#bB" x="45.342" y="564.034"/><use xlink:href="#bD" x="47.693" y="564.034"/><use xlink:href="#bL" x="51.455" y="564.034"/><use xlink:href="#bn" x="56.157" y="564.034"/><use xlink:href="#bM" x="60.628" y="564.034"/></g><use xlink:href="#bN" x="66.789" y="564.034" fill="red"/><g fill="red"><use xlink:href="#bn" x="71.252" y="564.034"/><use xlink:href="#br" x="75.723" y="564.034"/><use xlink:href="#bF" x="78.569" y="564.034"/></g><use xlink:href="#bC" x="85.623" y="564.034"/><use xlink:href="#bj" x="89.975" y="564.034"/><use xlink:href="#bp" x="94.207" y="564.034"/><use xlink:href="#bm" x="98.67" y="564.034"/><use xlink:href="#bD" x="104.544" y="564.034"/><use xlink:href="#bG" x="108.306" y="564.034"/><use xlink:href="#bs" x="113.478" y="564.034"/><use xlink:href="#bj" x="119.001" y="564.034"/><use xlink:href="#bt" x="123.233" y="564.034"/><use xlink:href="#bB" x="127.936" y="564.034"/><use xlink:href="#bD" x="130.287" y="564.034"/><g fill="red"><use xlink:href="#bO" x="134.049" y="564.034"/><use xlink:href="#bP" x="137.34" y="564.034"/></g><g fill="red"><use xlink:href="#bJ" x="142.513" y="564.034"/><use xlink:href="#by" x="145.804" y="564.034"/><use xlink:href="#bk" x="150.507" y="564.034"/><use xlink:href="#bz" x="153.806" y="564.034"/><use xlink:href="#bn" x="157.568" y="564.034"/><use xlink:href="#by" x="162.039" y="564.034"/><use xlink:href="#bP" x="166.742" y="564.034"/></g><g fill="red"><use xlink:href="#bk" x="171.914" y="564.034"/><use xlink:href="#bD" x="175.214" y="564.034"/><use xlink:href="#bL" x="178.976" y="564.034"/><use xlink:href="#bP" x="183.678" y="564.034"/><use xlink:href="#bO" x="186.029" y="564.034"/></g><g clip-path="url(#bQ)"><path fill="url(#bR)" d="M15.023 579.684v-11.336h388.063v11.336Zm0 0"/></g><use xlink:href="#bS" x="387.641" y="577.985"/><use xlink:href="#bT" x="394.372" y="577.985"/><path fill="#f2f2f2" stroke="#000" stroke-miterlimit="10" stroke-width=".797" d="M196.602 576.055v-3.989a2.99 2.99 0 0 1 2.988-2.988h18.93a2.99 2.99 0 0 1 2.988 2.988v3.989a2.99 2.99 0 0 1-2.988 2.988h-18.93a2.99 2.99 0 0 1-2.988-2.988Zm0 0"/><use xlink:href="#bU" x="198.439" y="576.948"/><use xlink:href="#bV" x="203.747" y="576.948"/><use xlink:href="#bV" x="209.055" y="576.948"/><use xlink:href="#bW" x="214.363" y="576.948"/><use xlink:href="#bX" x="17.008" y="577.985"/><use xlink:href="#bY" x="20.976" y="577.985"/><use xlink:href="#bZ" x="27.629" y="577.985"/><use xlink:href="#ca" x="29.882" y="577.985"/><use xlink:href="#bX" x="33.85" y="577.985"/><use xlink:href="#cb" x="37.818" y="577.985"/><use xlink:href="#cc" x="40.071" y="577.985"/><use xlink:href="#cd" x="44.039" y="577.985"/><use xlink:href="#ce" x="48.977" y="577.985"/><use xlink:href="#cf" x="59.605" y="577.985"/><use xlink:href="#cg" x="63.573" y="577.985"/><use xlink:href="#ch" x="70.227" y="577.985"/><use xlink:href="#cf" x="75.792" y="577.985"/><use xlink:href="#ci" x="79.76" y="577.985"/><use xlink:href="#cf" x="83.728" y="577.985"/><use xlink:href="#cj" x="87.697" y="577.985"/><use xlink:href="#ce" x="94.35" y="577.985"/><use xlink:href="#ck" x="104.978" y="577.985"/><use xlink:href="#cl" x="110.641" y="577.985"/><use xlink:href="#cm" x="115.042" y="577.985"/><use xlink:href="#cn" x="120.516" y="577.985"/><use xlink:href="#co" x="124.059" y="577.985"/><use xlink:href="#cp" x="128.243" y="577.985"/><use xlink:href="#cf" x="134.039" y="577.985"/><use xlink:href="#ci" x="138.007" y="577.985"/><use xlink:href="#cf" x="141.975" y="577.985"/><use xlink:href="#bX" x="145.943" y="577.985"/></svg>