<svg xmlns="http://www.w3.org/2000/svg" xmlns:xlink="http://www.w3.org/1999/xlink" width="559.371" height="793.701" viewBox="0 0 419.528 595.276"><defs><path id="d" d="M3.344 2.297v-.078L1.5-2.5l1.844-4.703v-.078c0-.11-.078-.203-.188-.203a.24.24 0 0 0-.203.14L1.11-2.562c-.015.015-.015.046-.015.062 0 .031 0 .063.015.078L2.953 2.36a.24.24 0 0 0 .203.141c.11 0 .188-.094.188-.203m0 0"/><path id="e" d="M4.969-1.422c0-.11-.094-.11-.125-.11-.094 0-.11.048-.14.188-.173.64-.345 1.235-.75 1.235-.282 0-.298-.266-.298-.453 0-.22.016-.313.125-.75L4-2.203l.36-1.39c.062-.282.062-.298.062-.344 0-.172-.11-.266-.281-.266-.25 0-.391.219-.422.437-.188-.375-.469-.64-.922-.64-1.156 0-2.39 1.468-2.39 2.922C.406-.547.952.109 1.718.109c.203 0 .703-.046 1.297-.75a.91.91 0 0 0 .906.75c.36 0 .578-.234.75-.546.156-.36.297-.985.297-.985m-1.375-1.89a.6.6 0 0 1-.031.171l-.485 1.954c-.062.187-.062.203-.203.375-.437.546-.844.703-1.125.703-.5 0-.64-.547-.64-.938 0-.5.312-1.719.546-2.187.313-.578.75-.953 1.157-.953.64 0 .78.812.78.875m0 0"/><path id="f" d="M2.781-2.5c0-.016 0-.047-.015-.062L.922-7.344c-.031-.078-.11-.14-.188-.14a.207.207 0 0 0-.203.203v.078L2.375-2.5.531 2.219v.078c0 .11.094.203.203.203.079 0 .157-.062.188-.14l1.844-4.782c.015-.015.015-.047.015-.078m0 0"/><path id="g" d="M6.047-.156c0-.094-.11-.11-.14-.11-.25 0-.376-.03-.5-.312L4.218-3.297 5.766-4.5c.218-.172.812-.625 1.312-.672.063-.016.156-.031.156-.156 0-.047-.03-.11-.109-.11 0 0-.234.016-.281.016h-.328c-.266 0-.563-.016-.813-.016-.047 0-.172 0-.172.141 0 .11.14.125.14.125.11 0 .173.047.173.11 0 .125-.14.25-.172.28l-.047.048c-.016.015-.031.015-.094.078L2.563-2.344l.609-2.5c.078-.265.125-.328.61-.328.171 0 .265 0 .265-.156 0-.047-.031-.11-.125-.11-.14 0-.313.016-.453.016h-.953l-.453-.016c-.047 0-.172 0-.172.141 0 .125.093.125.234.125.219 0 .438 0 .438.11 0 .046 0 .062-.032.171L1.47-.609c-.078.28-.125.343-.61.343-.171 0-.265 0-.265.157C.594-.047.64 0 .719 0c.031 0 .39-.016.453-.031h.484c.672 0 .89.031.938.031s.156 0 .156-.156c0-.11-.094-.11-.234-.11-.25 0-.438 0-.438-.125 0-.046.047-.218.078-.328l.297-1.203 1.25-.969.985 2.25c.046.094.046.11.046.141 0 .203-.187.234-.343.234-.094 0-.188.016-.188.157 0 .062.047.109.11.109.28 0 .578-.031.843-.031.672 0 .64.031.735.031.03 0 .156 0 .156-.156m0 0"/><path id="h" d="M2.828-1.14c0-.11-.11-.11-.156-.11-.125 0-.125.031-.172.172-.14.516-.406.937-.734.937-.157 0-.188-.109-.188-.25 0-.187.063-.328.188-.656l.515-1.39c.063-.172.094-.25.094-.422 0-.438-.312-.657-.656-.657-.75 0-1.078 1.11-1.078 1.22 0 .108.093.108.14.108.14 0 .14-.03.172-.171.125-.407.375-.938.75-.938.14 0 .172.11.172.25 0 .188-.047.344-.156.61L1.156-.953a1.1 1.1 0 0 0-.078.375c0 .36.266.656.672.656.75 0 1.078-1.125 1.078-1.219m.125-3.704a.354.354 0 0 0-.36-.375.55.55 0 0 0-.53.532c0 .234.171.359.359.359.265 0 .531-.234.531-.516m0 0"/><path id="i" d="M4.14-1.14c0-.11-.109-.11-.14-.11-.14 0-.156.047-.187.172-.11.453-.266.937-.61.937-.14 0-.25-.078-.25-.375 0-.125.031-.265.063-.39.03-.125.03-.172.03-.25 0-.563-.546-.75-1.108-.86.296-.187.625-.53.671-.593.454-.5.766-.688 1.063-.688.11 0 .172.063.203.11-.156.03-.344.171-.344.39s.188.266.281.266c.204 0 .407-.14.407-.453 0-.266-.157-.532-.547-.532s-.75.266-1.188.735c-.484.515-.656.594-.796.672l.796-3.188c0-.031.016-.094.016-.125 0-.11-.125-.11-.219-.094l-.828.063c-.11.016-.187.016-.187.156 0 .125.093.125.203.125.375 0 .375.047.375.11a.7.7 0 0 1-.032.171L.657-.266c0 .032-.015.079-.015.11 0 .11.078.234.25.234.14 0 .265-.094.328-.297l.39-1.578c.313.031.891.172.891.656 0 .047 0 .079-.031.188a1 1 0 0 0-.031.25c0 .437.296.781.734.781.36 0 .562-.265.656-.406.188-.297.313-.766.313-.813m0 0"/><path id="j" d="M4.297-2.172c0-.828-.547-1.344-1.266-1.344C2-3.516.921-2.437.921-1.266c0 .875.595 1.344 1.267 1.344 1.062 0 2.109-1.094 2.109-2.25m-.594-.281c0 .265-.125 1.031-.437 1.578-.266.438-.688.734-1.078.734-.297 0-.672-.203-.672-.843 0-.36.172-1.11.422-1.547.343-.578.812-.766 1.078-.766.39 0 .687.297.687.844m0 0"/><path id="k" d="M5.11-1.781V-7.72c0-.39-.094-.578-.579-.578h-.578c-.453 0-.578.156-.578.578v5.86c0 .25 0 .922-1.047.922-.687 0-1.078-.375-1.234-.594-.11-.125-.125-.14-.203-.14-.11 0-.141.109-.157.218C.672-1.078.547-.437.547-.391c0 .11.078.141.297.235a5 5 0 0 0 1.969.422c1.28 0 2.296-.641 2.296-2.047m0 0"/><path id="l" d="M5.672-.578v-3.203c0-1.89-1.828-1.89-2.422-1.89-.562 0-1.156.046-1.953.374-.25.11-.313.14-.313.281 0 .079.063.766.079.875a.17.17 0 0 0 .156.125c.062 0 .093-.03.125-.078.515-.531 1.125-.797 1.86-.797.64 0 .843.391.843 1.094v.422c-.422 0-3.563.031-3.563 1.781C.484-.75 1.156.125 2.22.125c.406 0 1.297-.11 1.86-.937v.234c0 .39.077.578.577.578h.438c.453 0 .578-.156.578-.578M4.047-1.844c0 1.11-1.14 1.11-1.172 1.11-.516 0-.828-.422-.828-.875 0-1.172 1.656-1.266 2-1.266Zm0 0"/><path id="m" d="M5.938-.266s0-.109-.11-.265L3.734-3.25l1.844-1.703c.14-.14.188-.172.188-.266 0-.25-.25-.25-.407-.25h-.703c-.203 0-.437 0-.718.25l-1.72 1.594v-4.094c0-.39-.077-.578-.562-.578h-.25c-.437 0-.578.14-.578.578v7.14c0 .438.125.579.578.579h.203c.454 0 .579-.156.579-.578v-1.235l.562-.515L4.297-.297c.203.266.297.297.64.297h.579c.156 0 .422 0 .422-.266m0 0"/><path id="n" d="M6.25-2.766c0-.562 0-2.843-2.25-2.843-.969 0-1.578.547-1.687.672V-7.72c0-.39-.079-.578-.563-.578h-.453c-.422 0-.563.14-.563.578v7.14C.734-.14.86 0 1.297 0h.484c.203 0 .563 0 .578-.469a1.74 1.74 0 0 0 1.344.594c2.547 0 2.547-2.281 2.547-2.89m-1.625.016c0 .89 0 2.016-1.344 2.016-.5 0-.797-.297-.922-.453v-3.141c.157-.14.516-.422 1.063-.422 1.203 0 1.203 1.11 1.203 2m0 0"/><path id="o" d="M5.656-5.156c0-.313-.328-.313-.484-.313h-.266c-.187 0-.453 0-.625.266-.031.062-1 2.703-1.062 3.5h-.016c-.062-.578-.547-1.688-1.062-2.844-.328-.75-.422-.922-1.016-.922H.813c-.172 0-.47 0-.47.313 0 .047.032.125.063.187L2.672 0c-.11.25-.14.375-.172.5-.14.39-.344.938-1 .938-.39 0-.656-.172-.797-.25C.641 1.14.625 1.14.578 1.14s-.14.03-.14.172c0 .093.062.921.093.968.11.14.766.172.953.172 1.485 0 2.063-1.406 2.157-1.703l1.953-5.656c.062-.157.062-.188.062-.25m0 0"/><path id="p" d="M4.734-1.687c0-.672-.359-1.079-.578-1.282-.468-.422-.89-.5-1.39-.594-.657-.124-1.141-.218-1.141-.687 0-.484.39-.578.86-.578.796 0 1.234.297 1.546.562.11.125.14.125.188.125.125 0 .14-.109.156-.156.031-.11.14-.766.14-.828 0-.187-.624-.36-.765-.406-.469-.14-.86-.14-1.172-.14-.531 0-2.14 0-2.14 1.702 0 .594.265.938.593 1.235.422.375.875.468 1.563.593.344.063.953.172.953.688 0 .562-.469.656-.922.656a2.21 2.21 0 0 1-1.766-.828c-.062-.062-.093-.094-.171-.094-.11 0-.141.11-.157.172-.015.172-.156.86-.156.969 0 .219.89.5.89.5a4.4 4.4 0 0 0 1.36.203c.61 0 2.11-.047 2.11-1.812m0 0"/><path id="q" d="M5.266-.437c0-.454-.36-.454-.72-.454L2.72-.875h-.547l2.922-3.687c.125-.157.14-.22.14-.407 0-.5-.375-.5-.578-.5H1.125c-.156 0-.578 0-.578.453 0 .438.39.438.703.438l1.734-.031h.454L.515-.906C.39-.75.375-.687.375-.5c0 .5.36.5.563.5h3.765c.156 0 .563 0 .563-.437m0 0"/><path id="r" d="M5.969-.578v-3.313c0-1.218-.516-1.718-1.735-1.718-1.265 0-1.796.906-1.953 1.234h-.015v-.594c0-.39-.079-.578-.563-.578h-.406c-.438 0-.578.125-.578.578v4.39c0 .438.125.579.578.579h.469c.453 0 .578-.156.578-.578v-2.64c0-1.032.687-1.532 1.312-1.532.578 0 .688.281.688.89v3.282c0 .39.093.578.578.578h.484c.453 0 .563-.156.563-.578m0 0"/><path id="s" d="M2.313-.578v-4.328c0-.375-.079-.563-.563-.563h-.453c-.422 0-.563.125-.563.563v4.328c0 .437.125.578.563.578h.453c.453 0 .563-.156.563-.578m.093-6.672v-.219c0-.39-.094-.578-.578-.578h-.61c-.452 0-.577.156-.577.578v.219c0 .36.062.578.578.578h.61c.5 0 .577-.219.577-.578m0 0"/><path id="t" d="M5.469-.594c0-.14-.047-.687-.078-.843 0-.032-.032-.157-.141-.157-.047 0-.078 0-.187.125-.204.172-.766.672-1.75.672-1.25 0-1.25-1.219-1.25-1.969 0-.968.062-1.984 1.28-1.984.782 0 1.11.203 1.532.547.14.14.172.14.219.14.125 0 .14-.109.156-.156.016-.093.14-.765.14-.828 0-.11-.077-.156-.28-.25-.579-.266-.938-.375-1.782-.375-1.781 0-2.89.828-2.89 2.922C.438-.766 1.468.125 3.28.125c.313 0 1.031 0 1.828-.406.344-.188.36-.203.36-.313m0 0"/><path id="u" d="M5.719-3.11c0-1.546-.703-2.562-2.485-2.562-1.921 0-2.859 1.063-2.859 2.89 0 1.954 1.125 2.907 3 2.907.469 0 1.14-.047 1.938-.453.25-.125.343-.156.343-.313 0-.078-.031-.421-.047-.515-.046-.375-.062-.39-.171-.39-.047 0-.079 0-.204.124a2.7 2.7 0 0 1-1.796.688c-1.36 0-1.5-1.063-1.532-1.828h3.25c.266 0 .563 0 .563-.547m-1.313-.078h-2.5c.047-.734.282-1.624 1.328-1.624.954 0 1.125.687 1.172 1.625m0 0"/><path id="v" d="M2.594 2.234c-.375-.5-1.25-1.64-.64-4.484.609-2.828 1.952-3.969 2.546-4.484h-.594c-1.25.89-2.265 2.422-2.703 4.484-.453 2.14-.031 3.625.813 4.484Zm0 0"/><path id="w" d="m3.922 0 .11-.562H2.89l1.172-5.5h-.188c-.734.578-1.594.578-1.906.578l-.11.562c.25 0 .704 0 1.25-.203L2.125-.562H.985L.858 0Zm0 0"/><path id="x" d="M6.016 0 4.219-3.766l3-2.453h-.89L2.312-2.922l.703-3.297h-.813L.875 0h.813l.437-2.047 1.469-1.187L5.125 0Zm0 0"/><path id="y" d="M4.75-1.969C5-3.14 4.313-4.14 3.172-4.14c-1.11 0-2.234.97-2.484 2.172C.438-.797 1.188.094 2.28.094 3.391.094 4.5-.812 4.75-1.97m-.719-.093C3.797-1.016 3.063-.516 2.406-.516c-.687 0-1.172-.53-.953-1.546.219-1.047.984-1.485 1.594-1.485.64 0 1.203.453.984 1.485m0 0"/><path id="z" d="m3.734-3.437.157-.641c-.657 0-1.313.328-1.797.86l.172-.813h-.657L.75 0h.719l.39-1.906a1.98 1.98 0 0 1 1.875-1.531m0 0"/><path id="A" d="m4.656-1.5.125-.578h-.89l.797-3.781h-.86L.703-2.08.578-1.5H3L2.688 0h.75l.328-1.5Zm-1.468-.578h-1.75l.75-.906C2.547-3.437 3.797-5 3.906-5.454Zm0 0"/><path id="B" d="m1.656-.016.172-.75h-.781L.89 0h.234L.641 1.14h.375Zm0 0"/><path id="C" d="M4.86-3c.515-2.437-.407-3.062-1.235-3.062-.516 0-.984.171-1.484.609-.547.5-.782.906-.938 1.578-.125.625-.094 1.047.11 1.5.218.484.484.656.906.656.781 0 1.406-.437 1.719-.734C3.453-.86 2.562-.391 1.968-.391c-.25 0-.577-.046-.859-.328l-.406.5c.344.313.719.422 1.14.422C3.048.203 4.439-1.047 4.86-3m-.688-.672c-.14.735-.75 1.375-1.453 1.375-.469 0-.625-.265-.735-.484-.14-.36-.078-.719 0-1.094.094-.39.172-.766.547-1.172.14-.14.453-.453.969-.453.938 0 .781 1.297.719 1.61a.6.6 0 0 1-.047.218m0 0"/><path id="D" d="m5.063-2.172.125-.578H.577l-.125.578Zm0 0"/><path id="E" d="M4.563-1.625c.14-.703-.25-1.297-.938-1.547.703-.312 1.203-.906 1.328-1.515.172-.782-.453-1.375-1.39-1.375-.75 0-1.47.39-1.97.953l.25.515C2.407-5.375 3.11-5.5 3.439-5.5c.468 0 .859.25.734.813A1.56 1.56 0 0 1 2.766-3.5c-.188.016-.328.031-.5.031l-.125.594h.672c.874 0 1 .703.89 1.25-.156.703-.687 1.234-1.375 1.234C1.594-.39 1-.797.766-1.28c-.141.36-.157.39-.235.578.328.531.938.906 1.688.906 1.14 0 2.14-.89 2.344-1.828m0 0"/><path id="F" d="M3.328-2.25c.453-2.125.031-3.625-.812-4.484h-.578c.39.5 1.25 1.656.64 4.484C1.984.594.625 1.734.031 2.234h.594c1.234-.89 2.266-2.421 2.703-4.484m0 0"/><path id="G" d="M-1.86-5.64c-.077 0-.156 0-.156.14 0 .078.047.11.125.11 1.22.062 1.797 1.062 1.797 1.906 0 .672-.422 2.187-2.625 2.187-2.156 0-2.625-1.437-2.625-2.187s.532-1.672 1.907-1.891c.062 0 .109-.016.109-.125 0-.14-.047-.14-.203-.14h-1.875c-.125 0-.203 0-.203.109 0 .062 0 .062.109.14l.594.407a2.12 2.12 0 0 0-.703 1.578c0 1.594 1.28 2.937 2.89 2.937S.171-1.797.171-3.422C.172-4.75-.89-5.64-1.858-5.64m0 0"/><path id="H" d="M-1.703-3.984c-.984 0-1.844.828-1.844 1.875s.86 1.875 1.844 1.875c1 0 1.781-.86 1.781-1.875 0-1.032-.781-1.875-1.781-1.875m-.063.703c.36 0 .797.015 1.141.25.313.203.453.562.453.922 0 .422-.203.765-.484.937-.328.203-.719.219-1.11.219-.312 0-.78 0-1.125-.235a1.14 1.14 0 0 1-.437-.921c0-.422.203-.766.469-.938.343-.219.765-.234 1.093-.234m0 0"/><path id="I" d="M0-6.828h-.266c0 .516 0 .61-.359.61h-1.797c-.64 0-1.094.28-1.094 1.14 0 .734.5 1.11.735 1.234-.578.14-.735.594-.735 1.11 0 .78.547 1.14.766 1.25h-.766l.094 1.156h.266c0-.547.047-.61.437-.61h2.094c.36 0 .36.094.36.61H0c-.031-.344-.031-.688-.031-.906 0-.235 0-.563.031-.907h-.266c0 .5 0 .61-.359.61h-1.437c-.844 0-1.235-.64-1.235-1.14 0-.517.406-.61.844-.61h1.828c.36 0 .36.11.36.61H0c-.031-.345-.031-.688-.031-.907 0-.235 0-.563.031-.906h-.266c0 .515 0 .609-.359.609h-1.437c-.844 0-1.235-.64-1.235-1.14 0-.516.406-.61.844-.61h1.828c.36 0 .36.11.36.61H0c-.031-.344-.031-.688-.031-.907 0-.234 0-.562.031-.906m0 0"/><path id="J" d="M-.953-3.516a.12.12 0 0 0-.11.125c0 .094.047.11.094.125.782.282.797.97.797 1.11 0 .36-.156.734-.531.969-.36.234-.875.234-1.11.234v-2.344c0-.172 0-.219-.187-.219-.703 0-1.547.391-1.547 1.516 0 .984.813 1.766 1.797 1.766 1.031 0 1.828-.86 1.828-1.875 0-1-.844-1.407-1.031-1.407m-1.078.547v2.016c-1.11-.078-1.297-.75-1.297-1.047 0-.937 1.125-.969 1.297-.969m0 0"/><path id="K" d="M-.953-3.516c-.094 0-.094.11-.094.125 0 .063 0 .094.078.125.172.047.797.282.797 1.079 0 .484-.375 1.203-1.562 1.203-1.141 0-1.578-.594-1.578-1.172 0-.078 0-.5.156-.781.062.234.25.265.344.265a.36.36 0 0 0 .374-.375c0-.219-.14-.375-.39-.375-.485 0-.719.531-.719 1.281 0 1.11.875 1.86 1.828 1.86C-.703-.281.078-1.11.078-2.11c0-1.125-.937-1.407-1.031-1.407m0 0"/><path id="L" d="M0-4.484h-.266c0 .515 0 .609-.359.609h-1.797c-.656 0-1.094.313-1.094 1.14 0 .797.579 1.157.766 1.25h-.766l.094 1.157h.266c0-.547.047-.61.437-.61h2.094c.36 0 .36.094.36.61H0c-.031-.344-.031-.688-.031-.906 0-.235 0-.563.031-.907h-.266c0 .5 0 .61-.359.61h-1.437c-.844 0-1.235-.64-1.235-1.125s.344-.61.844-.61h1.828c.36 0 .36.094.36.61H0C-.031-3-.031-3.36-.031-3.562c0-.235 0-.579.031-.922m0 0"/><path id="M" d="M0-4.422h-.266c0 .547-.046.61-.437.61h-4.828l.093 1.187h.266c0-.531.047-.61.438-.61h1.687a1.4 1.4 0 0 0-.469 1.079c0 1 .782 1.875 1.797 1.875.985 0 1.797-.797 1.797-1.797 0-.469-.219-.86-.5-1.125h.5Zm-.984 1.219c.14 0 .172 0 .328.125.328.219.515.578.515.953s-.187.688-.484.875c-.312.219-.703.266-1.078.266-.469 0-.797-.079-1.063-.266a1.15 1.15 0 0 1-.53-.953c0-.375.202-.766.608-1Zm0 0"/><path id="N" d="M-.719-4.094h-.437v.25h.437c.328 0 .453.11.453.281 0 .297-.359.297-.453.297h-1.656c-.781 0-1.172.75-1.172 1.485 0 .656.25 1.25.781 1.25a.36.36 0 0 0 .375-.375.36.36 0 0 0-.375-.375.356.356 0 0 0-.359.297c-.203-.297-.203-.735-.203-.782 0-.453.312-.89.969-.89h.234c.031.453.047.984.281 1.547.313.703.766.843 1.032.843.687 0 .89-.812.89-1.359a1.23 1.23 0 0 0-.64-1.11c.296-.046.609-.25.609-.609 0-.078-.031-.75-.766-.75m-.406 1.438c.781 0 .984.64.984.969 0 .406-.28.765-.671.765-.516 0-1.063-.5-1.094-1.734Zm0 0"/><path id="O" d="M-1-2.812h-.437v.25h.421c.547 0 .844.25.844.546 0 .532-.687.532-.812.532h-2.188v-1.188h-.265v1.188h-1.47v.25c.735 0 1.485.328 1.516 1.078h.22v-.719H-1c.938 0 1.078-.719 1.078-1.078 0-.547-.469-.86-1.078-.86m0 0"/><path id="P" d="M0-2.078h-.266c0 .531-.03.562-.343.562h-2.907l.094 1.157h.266c0-.516.047-.578.437-.578h2.094c.36 0 .36.093.36.609H0c-.031-.313-.031-.766-.031-.89 0-.095 0-.579.031-.86m-4.797.453a.453.453 0 0 0-.453.453.45.45 0 0 0 .453.438.437.437 0 0 0 .438-.438.45.45 0 0 0-.438-.453m0 0"/><path id="Q" d="M-3.016-3.062c-.28 0-.5.25-.5.609 0 .515.391.875.844 1.031v.016h-.844l.094 1.125h.266c0-.547.047-.61.437-.61h2.094c.36 0 .36.11.36.61H0c-.031-.313-.031-.75-.031-.938 0-.468 0-.484.031-1h-.266v.156c0 .579-.078.594-.375.594h-1.171c-.61 0-1.47-.25-1.485-1.015.031.046.094.14.281.14.25 0 .36-.203.36-.36 0-.187-.125-.358-.36-.358m0 0"/><path id="R" d="M-1.719-4.422c-1 0-1.797.813-1.797 1.781 0 .313.079.766.5 1.172h-.5l.094 1.188h.266c0-.563.047-.61.375-.61H.922c.36 0 .36.11.36.61h.265c-.031-.344-.031-.688-.031-.906 0-.235 0-.563.03-.907h-.265c0 .516 0 .61-.36.61H-.39a1.37 1.37 0 0 0 .47-1.047c0-1-.782-1.89-1.798-1.89m0 .719c.907 0 1.578.578 1.578 1.219 0 .28-.125.64-.515.906-.14.094-.156.094-.297.094h-1.703a1.3 1.3 0 0 1-.61-1.094c0-.61.672-1.125 1.547-1.125m0 0"/><path id="S" d="M-.437-1.625a.453.453 0 0 0-.454.453c0 .266.22.438.438.438A.44.44 0 0 0 0-1.172a.45.45 0 0 0-.437-.453m0 0"/><path id="T" d="M-1.312-3.984h-.25v.843h-3.594c-.157 0-.219 0-.219.172 0 .094 0 .11.11.188l3.702 2.547h.25v-2.25h.672c.297 0 .375.015.375.64v.172H0l-.031-1.14L0-3.953h-.266v.172c0 .625-.078.64-.375.64h-.671Zm-.25 1.437v2.031l-2.954-2.03Zm0 0"/><path id="U" d="M-1.422-3.797v.25c.156.016.547.078.703.172.063.047.063.656.063.781v1.422l-.969-1.078a9 9 0 0 1-.5-.594c-.453-.484-.89-.953-1.61-.953-.953 0-1.562.797-1.562 1.781 0 .97.719 1.594 1.438 1.594.39 0 .437-.312.437-.422 0-.172-.11-.422-.422-.422-.406 0-.406.407-.406.5-.594-.234-.781-.765-.781-1.156 0-.734.625-1.125 1.297-1.125.828 0 1.437.578 2.39 1.531l1.047 1c.078.094.094.094.297.094v-3.14Zm0 0"/><path id="V" d="M1.86 5.64c.077 0 .156 0 .156-.14 0-.078-.047-.11-.125-.11C.67 5.329.094 4.329.094 3.485c0-.671.422-2.187 2.625-2.187 2.156 0 2.625 1.437 2.625 2.187s-.532 1.672-1.907 1.891c-.062 0-.109.016-.109.125 0 .14.047.14.203.14h1.875c.125 0 .203 0 .203-.109 0-.062 0-.062-.109-.14l-.594-.407c.313-.28.703-.812.703-1.578C5.61 1.812 4.33.47 2.72.47s-2.89 1.328-2.89 2.953C-.172 4.75.89 5.64 1.858 5.64m0 0"/><path id="W" d="M1.703 3.984c.984 0 1.844-.828 1.844-1.875 0-1.046-.86-1.875-1.844-1.875-1 0-1.781.86-1.781 1.875 0 1.032.781 1.875 1.781 1.875m.063-.703c-.36 0-.797-.015-1.141-.25C.313 2.828.172 2.47.172 2.11c0-.421.203-.765.484-.937.328-.203.719-.219 1.11-.219.312 0 .78 0 1.125.235.28.218.437.546.437.921 0 .422-.203.766-.469.938-.343.219-.765.234-1.093.234m0 0"/><path id="X" d="M0 6.828h.266c0-.516 0-.61.359-.61h1.797c.64 0 1.094-.28 1.094-1.14 0-.734-.5-1.11-.735-1.234.578-.14.735-.594.735-1.11a1.37 1.37 0 0 0-.766-1.25h.766L3.422.328h-.266c0 .547-.047.61-.437.61H.625c-.36 0-.36-.094-.36-.61H0c.031.344.031.688.031.906 0 .235 0 .563-.031.907h.266c0-.5 0-.61.359-.61h1.438c.843 0 1.234.64 1.234 1.14 0 .517-.406.61-.844.61H.625c-.36 0-.36-.11-.36-.61H0c.031.345.031.688.031.907 0 .235 0 .563-.031.906h.266c0-.515 0-.609.359-.609h1.438c.843 0 1.234.64 1.234 1.14 0 .516-.406.61-.844.61H.625c-.36 0-.36-.11-.36-.61H0c.031.344.031.688.031.907 0 .234 0 .562-.031.906m0 0"/><path id="Y" d="M.953 3.516c.094 0 .094-.11.094-.125 0-.063 0-.094-.078-.125a1.07 1.07 0 0 1-.797-1.078c0-.485.375-1.204 1.562-1.204 1.141 0 1.579.594 1.579 1.172 0 .078 0 .5-.157.781a.336.336 0 0 0-.344-.265.36.36 0 0 0-.374.375c0 .219.14.375.39.375.485 0 .719-.531.719-1.281 0-1.11-.875-1.86-1.828-1.86C.703.281-.078 1.11-.078 2.11c0 1.125.937 1.407 1.031 1.407m0 0"/><path id="Z" d="M0 4.484h.266c0-.515 0-.609.359-.609h1.797c.656 0 1.094-.312 1.094-1.14a1.38 1.38 0 0 0-.766-1.25h.766L3.422.327h-.266c0 .547-.047.61-.437.61H.625c-.36 0-.36-.094-.36-.61H0c.031.344.031.688.031.906 0 .235 0 .563-.031.907h.266c0-.5 0-.61.359-.61h1.438c.843 0 1.234.64 1.234 1.125s-.344.61-.844.61H.625c-.36 0-.36-.094-.36-.61H0c.031.344.031.703.031.906 0 .235 0 .579-.031.922m0 0"/><path id="aa" d="M0 4.422h.266c0-.547.046-.61.437-.61h4.828l-.093-1.187h-.266c0 .531-.047.61-.438.61H3.047c.312-.282.469-.657.469-1.079 0-1-.782-1.875-1.797-1.875-.985 0-1.797.797-1.797 1.797 0 .469.219.86.5 1.125h-.5Zm.984-1.219c-.14 0-.171 0-.328-.125a1.15 1.15 0 0 1-.515-.953c0-.375.187-.687.484-.875.313-.219.703-.266 1.078-.266.469 0 .797.079 1.063.266.297.188.53.547.53.953 0 .375-.202.766-.608 1Zm0 0"/><path id="ab" d="M.953 3.516a.12.12 0 0 0 .11-.125c0-.094-.047-.11-.094-.125a1.14 1.14 0 0 1-.797-1.11c0-.36.156-.734.531-.969.36-.234.875-.234 1.11-.234v2.344c0 .172 0 .219.187.219.703 0 1.547-.391 1.547-1.516 0-.984-.813-1.766-1.797-1.766-1.031 0-1.828.86-1.828 1.875 0 1 .844 1.407 1.031 1.407m1.078-.547V.953c1.11.078 1.297.75 1.297 1.047 0 .938-1.125.969-1.297.969m0 0"/><path id="ac" d="M.719 4.094h.437v-.25H.72c-.328 0-.453-.11-.453-.281 0-.297.359-.297.453-.297h1.656c.781 0 1.172-.75 1.172-1.485 0-.656-.25-1.25-.781-1.25a.36.36 0 0 0-.375.375c0 .219.156.375.375.375a.356.356 0 0 0 .359-.297c.203.297.203.735.203.782 0 .453-.312.89-.969.89h-.234c-.031-.453-.047-.984-.281-1.547C1.53.406 1.078.266.813.266c-.688 0-.891.812-.891 1.359 0 .578.328.938.64 1.11-.296.046-.609.25-.609.609 0 .078.031.75.766.75m.406-1.438c-.781 0-.984-.64-.984-.969 0-.406.28-.765.672-.765.515 0 1.062.5 1.093 1.734Zm0 0"/><path id="ad" d="M1.031 3.047c.375 0 .938-.219 1.11-1.172.015-.062.093-.516.093-.547.063-.25.235-.625.547-.625.235 0 .578.188.578.938 0 .89-.656.937-.875.953-.062 0-.093.062-.093.11 0 .14.062.14.203.14h.75c.125 0 .203 0 .203-.11 0-.046 0-.062-.125-.187 0-.016-.078-.094-.078-.11 0 0 0-.03.031-.078.094-.125.172-.359.172-.718 0-1.11-.594-1.36-.985-1.36-.39 0-.624.297-.656.313-.234.328-.265.5-.36 1.047-.077.375-.187.984-.718.984-.312 0-.687-.203-.687-.937C.14.875.766.64 1.188.547c.109-.031.14-.047.14-.14C1.328.28 1.266.28 1.11.28H.125c-.125 0-.203 0-.203.094 0 .063 0 .063.156.203.047.047.14.125.188.172-.328.36-.344.734-.344.938 0 1.015.578 1.359 1.11 1.359m0 0"/><path id="ae" d="M0 4.484h.266c0-.546.046-.609.437-.609h2.813l-.094-1.219h-.266c0 .547-.047.61-.437.61h-1.39C.64 3.266.14 2.859.14 2.25c0-.687.343-.719.75-.719h2.625L3.422.328h-.266c0 .61-.015.61-.719.61H1.235c-.578 0-1.312 0-1.312 1.265 0 .75.578 1.047.64 1.078v.016h-.64Zm0 0"/><path id="af" d="M3.016 3.063c.28 0 .5-.25.5-.61 0-.515-.391-.875-.844-1.031v-.016h.844L3.422.281h-.266c0 .547-.047.61-.437.61H.625C.265.89.265.78.265.28H0c.031.313.031.75.031.938 0 .468 0 .484-.031 1h.266v-.156c0-.579.078-.594.375-.594h1.172c.609 0 1.468.25 1.484 1.015-.031-.046-.094-.14-.281-.14-.25 0-.36.203-.36.36 0 .187.125.358.36.358m0 0"/><path id="ag" d="M1 2.813h.438v-.25h-.422c-.547 0-.844-.25-.844-.547 0-.532.687-.532.812-.532h2.188v1.188h.265V1.484h1.47v-.25c-.735 0-1.485-.328-1.516-1.078h-.22v.719H1c-.937 0-1.078.719-1.078 1.078 0 .547.469.86 1.078.86m0 0"/><path id="ah" d="M1.719 4.422c1 0 1.797-.813 1.797-1.781 0-.313-.079-.766-.5-1.172h.5L3.422.28h-.266c0 .563-.047.61-.375.61H-.922c-.36 0-.36-.11-.36-.61h-.265c.031.344.031.688.031.907 0 .234 0 .562-.03.906h.265c0-.516 0-.61.36-.61H.39a1.37 1.37 0 0 0-.47 1.047c0 1 .782 1.89 1.798 1.89m0-.719C.812 3.703.14 3.125.14 2.484c0-.28.125-.64.515-.906.14-.094.156-.094.297-.094h1.703c.313.188.61.594.61 1.094 0 .61-.672 1.125-1.547 1.125m0 0"/><path id="ai" d="M.438 1.625a.453.453 0 0 0 .453-.453.436.436 0 0 0-.438-.438.44.44 0 0 0-.453.438.45.45 0 0 0 .438.453m0 0"/><path id="aj" d="M1.36 3.875c.671 0 1.265-.531 1.453-1.344.218.625.75 1.11 1.39 1.11s1.094-.72 1.094-1.547c0-.86-.453-1.5-1.063-1.5-.296 0-.421.187-.421.406 0 .25.171.406.406.406.297 0 .406-.265.406-.437.438.344.469.953.469 1.094 0 .203-.063.812-.89.812-.548 0-.891-.234-1.016-.344-.25-.234-.266-.422-.297-.906 0-.156-.016-.219-.125-.219-.11 0-.11.078-.11.219v.39c0 .626-.453 1.032-1.297 1.032-1 0-1.28-.563-1.28-.985 0-.437.155-1.046.577-1.328 0 .297.188.5.438.5.265 0 .437-.187.437-.453 0-.203-.125-.437-.453-.437-.75 0-1.25.812-1.25 1.734 0 1.047.734 1.797 1.531 1.797m0 0"/><path id="ak" d="M5.125 4.11V2.077c0-.203.016-.437.031-.64.032-.422.11-.422.235-.454v-.25L3.703.47v.25c.125.015.672.11.735.219.046.078.046.687.046.796v1.688l-1.109-.813C2.172 1.703.906 1.5.281 1.5c-.078 0-.453 0-.453.375s.36.375.453.375h.39c1.142 0 2.079.203 2.61.594L4.86 4.03c.079.078.094.078.266.078m0 0"/><path id="al" d="M9.953 0v-.516h-.312c-.657 0-.703-.062-.813-.218L5.61-5.047l2.844-2.406c.156-.14.266-.234 1.328-.234v-.516L8.5-8.172c-.36 0-1.297 0-1.594-.031v.515c.266 0 .547.016.86.141l-4.47 3.813v-3.953h1.267v-.516c-.344.031-1.625.031-2.047.031-.438 0-1.72 0-2.063-.031v.515H1.72v7.172H.453V0c.344-.031 1.625-.031 2.063-.031.422 0 1.703 0 2.047.031v-.516H3.297v-2.562L4.53-4.125l2.5 3.344c.016.031.063.094.063.14 0 .125-.578.125-.844.125V0c.39-.031 1.5-.031 1.953-.031.36 0 1.485 0 1.75.031m0 0"/><path id="aP" d="M13.61-7.687v-.516l-1.297.031c-.344 0-1.22 0-1.5-.031v.515c.14 0 1.187 0 1.187.172 0 0 0 .032-.047.141L9.938-2.047l-2.126-5.64h1.125v-.516c-.374.031-1.484.031-1.937.031-.375 0-1.531 0-1.828-.031v.515h1.016l.484 1.297-1.64 4.344-2.126-5.64h1.125v-.516c-.343.031-1.515.031-1.953.031-.375 0-1.515 0-1.812-.031v.515h1L4.109-.171c.079.203.11.281.375.281.266 0 .297-.078.375-.28l2.079-5.5 2.093 5.5c.063.202.094.28.36.28.234 0 .297-.046.375-.28L12.5-7.407c.094-.203.11-.282 1.11-.282m0 0"/><path id="bg" d="M6.14-3.937c0-.797 0-3.907-2.765-3.907-1.64 0-2.812.953-2.812 2.594 0 1.672 1.14 2.563 2.578 2.563.5 0 1.109-.188 1.484-1.032v.344c0 .844 0 3.047-1.86 3.047-.374 0-.812-.11-1.062-.297.36-.062.61-.312.61-.703a.69.69 0 0 0-.704-.703c-.312 0-.718.203-.718.734 0 .828.656 1.438 1.89 1.438 1.516 0 3.36-.985 3.36-4.078M4.61-5.11c0 .843-.344 2.03-1.344 2.03-1.188 0-1.188-.968-1.188-2.14 0-1.156 0-2.187 1.297-2.187.766 0 1.047.672 1.094.812.125.36.14 1.094.14 1.485m0 0"/><path id="am" d="M5.953-1.703c0-.125-.11-.125-.14-.125-.125 0-.141.047-.172.219-.203.765-.422 1.484-.907 1.484-.328 0-.359-.312-.359-.562s.031-.36.156-.875l.266-1.079.422-1.671c.093-.344.093-.36.093-.407 0-.203-.156-.328-.359-.328-.281 0-.453.266-.5.531-.203-.437-.562-.765-1.094-.765-1.406 0-2.875 1.75-2.875 3.5 0 1.125.657 1.906 1.579 1.906.25 0 .843-.047 1.562-.89.094.5.516.89 1.078.89.422 0 .703-.266.89-.656.204-.422.36-1.172.36-1.172M4.313-3.97c0 .078-.016.14-.032.203l-.593 2.344c-.063.219-.063.234-.25.438-.516.656-1.016.859-1.344.859-.594 0-.766-.656-.766-1.125 0-.61.375-2.078.656-2.625.375-.703.907-1.14 1.391-1.14.766 0 .938.968.938 1.046m0 0"/><path id="aE" d="M7.656-6.953c.094-.344.047-.656-.14-.906-.282-.391-.985-.47-1.375-.47-.891 0-1.766.22-2.657.813-.718.485-1.218 1.282-1.421 2.079-.172.718-.235 1.453.156 1.984.406.531 1.094.781 1.844.781.593 0 1.25-.172 1.828-.531l-.25 1.14c-.125.516-.328.97-.578 1.47-.22.374-.5.75-.86 1.046-.469.39-1.031.656-1.578.656-.36 0-.719-.062-.922-.328-.11-.156-.11-.375-.11-.593.016-.157.016-.329-.062-.438a.34.34 0 0 0-.281-.125.75.75 0 0 0-.469.14.84.84 0 0 0-.265.407.98.98 0 0 0 .172.89c.28.391.812.485 1.359.485.984 0 1.984-.406 2.86-1.11.452-.359.78-.812 1.03-1.328.36-.718.61-1.468.797-2.234l.391-1.578-.672.156c-.156.344-.5.828-.687.969-.47.39-1 .547-1.532.547-.5 0-.89-.219-1.156-.563-.36-.484-.312-1.187-.14-1.86a3.62 3.62 0 0 1 1.265-1.952 2.5 2.5 0 0 1 1.547-.516c.297 0 .719.11.922.406.14.188.219.407.14.672-.046.219-.125.469-.328.64-.28.22-.546.25-.828.25l-.093.204c.187.031.468.11.53.11.36 0 .704-.188 1.016-.438.297-.25.47-.563.547-.875m0 0"/><path id="bc" d="m10.344-8.156-.172-.11-.375.422c-.14.14-.36.266-.563.266-.078 0-.25-.031-.359-.047a18 18 0 0 1-1.687-.36l.078-.327-.063-.047-.672.297a10 10 0 0 0-.718-.047c-.954 0-1.813.187-2.657.859-.531.438-1.015 1-1.172 1.61-.046.202-.078.406.032.546.093.094.172.172.328.172.125 0 .265-.094.375-.172a.63.63 0 0 0 .219-.36c.03-.124.015-.296.015-.421.016-.172.016-.312.078-.469.047-.187.375-.61.656-.843.563-.438 1.126-.563 1.72-.563a4.5 4.5 0 0 1 .921.094l-.86 3.172H3.704l-.25.343h1.938l-.282 1.047c-.125.422-.25.844-.484 1.25a3 3 0 0 1-.687.875c-.407.375-.97.672-1.47.672-.312 0-.609-.078-.78-.312a1.1 1.1 0 0 1-.188-.407c-.094-.437-.14-.453-.312-.453a.73.73 0 0 0-.438.14c-.125.11-.203.204-.234.345-.063.25-.032.5.125.672.234.328.609.484 1.062.484.969 0 2.031-.39 2.844-1.094.437-.375.672-.687.906-1.094.281-.5.469-1.015.61-1.546l.14-.579h1.469l.344-.343H6.28l.766-2.97c.156.063.937.329 1.422.47.156.062.344.109.5.109.25 0 .531-.219.703-.422Zm0 0"/><path id="bd" d="M6.828-7.234c.063-.282.016-.578-.125-.75-.234-.328-.672-.407-1.125-.407-.719 0-1.406.094-2.062.625-.438.344-.766.829-.891 1.313-.11.469-.11.937.14 1.266.172.25.47.421.782.53l-.031.126a3.46 3.46 0 0 0-1.766.734C1.172-3.328.734-2.719.563-2.062.438-1.532.438-.984.734-.61c.204.265.516.437.829.562.406.14.859.188 1.328.188.89 0 1.797-.328 2.578-.953.11-.079.265-.297.39-.454l-.39-.578-.157.032c-.125.343-.312.656-.593.875-.469.375-1 .656-1.532.656-.562 0-1.14-.094-1.437-.5-.297-.39-.312-.922-.187-1.469.14-.547.453-1.062.921-1.437.344-.266.782-.407 1.157-.5.562-.125 1.109-.157 1.672-.157l.062-.312c-.406 0-.797-.032-1.172-.14-.25-.063-.5-.173-.656-.391-.219-.282-.266-.704-.172-1.125.14-.516.453-1.032.89-1.391.298-.25.688-.313 1.032-.313.281 0 .469.063.61.204a.5.5 0 0 1 .109.468c-.047.203-.157.328-.266.453-.078.094-.14.172-.187.282a.36.36 0 0 0 .03.234c.079.094.126.094.266.094s.422-.078.625-.266c.22-.234.282-.437.344-.687m0 0"/><path id="an" d="M7.406 0 4.391-8.297H3.328L.328 0h.875l.875-2.422h3.375L6.328 0ZM5.203-3.094h-2.86l1.423-4.344Zm0 0"/><path id="ao" d="M4.703 0v-.734H2.984c-.14 0-.28.015-.421.015H1.547l3.11-4.125v-.468H.483v.703h2.953L.329-.484V0ZM3.047-6.797v-1.016H2.016v1.016Zm0 0"/><path id="ap" d="M5.063 0v-8.297h-.891v3.485a2.65 2.65 0 0 0-1.688-.61c-1.14 0-2.062 1.219-2.062 2.766S1.297.125 2.437.125c.438 0 1.11-.156 1.704-.734V0ZM4.14-1.406c-.282.515-.703.812-1.22.812-.733 0-1.593-.562-1.593-2.047 0-1.593 1.016-2.062 1.703-2.062.469 0 .86.234 1.11.625Zm0 0"/><path id="aq" d="M5.484-2.625c0-1.625-1.187-2.86-2.562-2.86-1.406 0-2.563 1.266-2.563 2.86 0 1.563 1.188 2.75 2.563 2.75 1.406 0 2.562-1.219 2.562-2.75m-.906-.125c0 1.469-.844 2.125-1.656 2.125-.86 0-1.656-.719-1.656-2.125 0-1.453.89-2.016 1.656-2.016.812 0 1.656.625 1.656 2.016m0 0"/><path id="ar" d="m3.89-.344-.171-.703c-.422.375-.86.422-1.078.422-.532 0-.594-.562-.594-.984v-3h1.64v-.703h-1.64v-1.516h-.828v1.516h-1v.703h.969v3.203c0 .703.156 1.531.984 1.531.797 0 1.36-.281 1.719-.469m0 0"/><path id="as" d="M4.86-2.687c0-.516-.048-1.25-.423-1.876-.5-.828-1.328-.921-1.671-.921C1.469-5.484.39-4.25.39-2.687.39-1.11 1.547.124 2.92.124c.563 0 1.22-.156 1.876-.64 0-.047-.047-.438-.047-.438s-.031-.281-.031-.328c-.703.593-1.407.687-1.766.687-.922 0-1.703-.828-1.734-2.093Zm-.704-.641h-2.86c.204-.813.767-1.438 1.47-1.438.359 0 1.187.157 1.39 1.438m0 0"/><path id="at" d="M2.14.703v-6.015h-.89v6.14c0 .781-.625.86-.875.86-.531 0-.86-.344-.875-.375l-.234.718c.375.235.859.406 1.406.406.75 0 1.469-.624 1.469-1.734m0-7.5v-1.016H1.11v1.016Zm0 0"/><path id="au" d="M4.86-.5c0-.031-.032-.406-.048-.453l-.015-.344a2.8 2.8 0 0 1-1.828.672c-1 0-1.64-.875-1.64-2.047 0-.984.484-2.078 1.671-2.078.797 0 1.14.203 1.656.547l.14-.781c-.702-.407-1.093-.5-1.796-.5-1.656 0-2.578 1.453-2.578 2.812C.422-1.14 1.516.125 2.953.125c.578 0 1.25-.156 1.906-.625m0 0"/><path id="av" d="M5.063 0v-3.594c0-.734-.157-1.828-1.594-1.828-.828 0-1.375.469-1.656.813v-3.688H.922V0h.906v-2.969c0-.75.281-1.734 1.188-1.734 1.109 0 1.14.766 1.14 1.187V0Zm0 0"/><path id="aw" d="M7.766-5.312H6.89l-.703 2.437c-.172.563-.516 1.688-.563 2.203-.047-.281-.234-1.078-.484-1.937l-.797-2.703H3.53L2.844-2.97c-.219.75-.5 1.781-.531 2.282h-.016c-.016-.235-.14-.86-.375-1.672l-.844-2.953H.172L1.766 0h.922c.453-1.5 1.156-3.781 1.218-4.61h.016c.015.485.265 1.344.344 1.626L5.109 0h1.063Zm0 0"/><path id="ax" d="M1.813 0v-5.312H.938V0Zm.078-6.797v-1.016H.859v1.016Zm0 0"/><path id="ay" d="M1.813 0v-8.297H.938V0Zm0 0"/><path id="az" d="M4.703 0v-.734H2.984c-.14 0-.28.015-.421.015H1.547l3.11-4.125v-.468H.483v.703h2.953L.329-.484V0Zm0 0"/><path id="aA" d="M5.063 0v-3.594c0-.734-.157-1.828-1.594-1.828-.672 0-1.25.297-1.703.875v-.812H.922V0h.906v-2.969c0-.75.281-1.734 1.188-1.734 1.109 0 1.14.766 1.14 1.187V0Zm0 0"/><path id="aB" d="M4.203-1.516c0-.609-.36-1-.406-1.046-.453-.47-.813-.532-1.531-.672-.438-.094-1.047-.203-1.047-.813 0-.734.843-.734 1-.734.625 0 1.125.14 1.656.437l.14-.765a3.9 3.9 0 0 0-1.687-.375c-.265 0-1.937 0-1.937 1.547 0 .53.297.89.468 1.062.438.36.735.422 1.438.563.39.093 1.078.234 1.078.859 0 .828-.922.828-1.094.828A3.12 3.12 0 0 1 .47-1.219l-.14.813c.046.031.859.531 1.968.531 1.547 0 1.906-.937 1.906-1.64m0 0"/><path id="aC" d="M8.328 0v-3.594c0-.828-.219-1.828-1.61-1.828-1.015 0-1.577.703-1.765.969-.203-.766-.86-.969-1.484-.969-.985 0-1.5.625-1.703.875v-.812H.922V0h.906v-2.969c0-.797.313-1.734 1.188-1.734 1.093 0 1.156.75 1.156 1.187V0h.906v-2.969c0-.797.313-1.734 1.188-1.734 1.093 0 1.156.75 1.156 1.187V0Zm0 0"/><path id="aD" d="M5.172-5.312h-.89c-.548 1.421-1.47 3.765-1.516 4.625H2.75c-.062-.72-.687-2.282-.797-2.532L1.11-5.312H.172L2.39 0l-.422 1.094c-.266.593-.438.656-.657.656-.171 0-.546-.047-.921-.187l.078.78c.062.016.469.095.844.095.296 0 .843 0 1.359-1.313Zm0 0"/><path id="aF" d="M4.797 0v-3.5c0-1.156-.828-1.984-1.938-1.984-.718 0-1.25.172-1.843.5l.078.78c.515-.374 1.062-.593 1.765-.593.547 0 1.032.453 1.032 1.313v.5c-.547.015-1.266.062-1.985.297C1.11-2.422.641-1.97.641-1.375c0 .531.312 1.5 1.328 1.5.656 0 1.5-.203 1.937-.562V0ZM3.89-1.61c0 .25 0 .532-.407.766-.312.203-.718.25-.906.25-.64 0-1.078-.343-1.078-.797 0-.812 1.656-.984 2.39-.984Zm0 0"/><path id="aG" d="m5.672-4.703-.125-.719c-.234 0-1.047 0-1.828.39-.39-.327-.875-.39-1.11-.39-1.046 0-1.875.875-1.875 1.922 0 .422.125.828.391 1.188a1.64 1.64 0 0 0-.344 1.015c0 .453.156.75.297.906C.468 0 .328.516.328.844c0 .875 1.125 1.61 2.594 1.61 1.453 0 2.594-.704 2.594-1.61 0-1.688-1.938-1.688-2.422-1.688H2.078c-.172 0-.672 0-.672-.625 0-.265.047-.343.11-.437.203.14.593.343 1.078.343 1.031 0 1.875-.859 1.875-1.937a2.13 2.13 0 0 0-.36-1.156 7 7 0 0 1 .954-.063c.046 0 .312 0 .609.016M3.64-3.5c0 1.063-.672 1.281-1.032 1.281-.53 0-1.062-.36-1.062-1.265 0-1.063.672-1.282 1.047-1.282.531 0 1.047.36 1.047 1.266M4.688.844c0 .562-.829.953-1.766.953-.922 0-1.766-.375-1.766-.953 0-.047 0-.813.907-.813h1.046c.266 0 1.579 0 1.579.813m0 0"/><path id="aH" d="M4.203-1.516c0-.609-.36-1-.406-1.046-.453-.47-.813-.532-1.531-.672-.438-.094-1.047-.203-1.047-.813 0-.734.843-.734 1-.734.625 0 1.125.14 1.656.437l.14-.765a3.9 3.9 0 0 0-1.687-.375c-.265 0-1.937 0-1.937 1.547 0 .53.297.89.468 1.062.438.36.735.422 1.438.563.39.093 1.078.234 1.078.859 0 .828-.922.828-1.094.828A3.12 3.12 0 0 1 .47-1.219l-.14.813c.046.031.859.531 1.968.531 1.547 0 1.906-.937 1.906-1.64m-.312-6.78h-.922l-1.547 2h.719Zm0 0"/><path id="aI" d="M4.86-.5c0-.031-.032-.406-.048-.453l-.015-.344a2.8 2.8 0 0 1-1.828.672c-1 0-1.64-.875-1.64-2.047 0-.984.484-2.078 1.671-2.078.797 0 1.14.203 1.656.547l.14-.781c-.702-.407-1.093-.5-1.796-.5-1.656 0-2.578 1.453-2.578 2.812C.422-1.14 1.516.125 2.953.125c.578 0 1.25-.156 1.906-.625M4.5-8.297h-.922l-1.547 2h.719Zm0 0"/><path id="aJ" d="M2.11-.016v-.953h-.97V0h.298L1.14 1.5h.468Zm0 0"/><path id="aK" d="M3.797-4.625v-.797c-1.078 0-1.719.64-2.047 1.11V-5.36H.938V0h.875v-2.625c0-1.203.906-1.984 1.984-2m0 0"/><path id="aL" d="M5.563-2.672c0-1.437-.75-2.75-1.875-2.75-.485 0-1.25.156-1.876.672v-.562H.939v7.625h.906V-.531c.406.36.906.656 1.547.656 1.156 0 2.172-1.172 2.172-2.797m-.907.016c0 1.203-.812 2.062-1.703 2.062-.328 0-.562-.125-.781-.297-.297-.25-.328-.468-.328-.656v-2.469a1.47 1.47 0 0 1 1.219-.671c.874 0 1.593.89 1.593 2.03m0 0"/><path id="aM" d="m3.688-5.36-.485-.515-.828.719v-3.14H1.5v3.874L.328-3.375l.453.547.719-.656V0h.875v-4.234Zm0 0"/><path id="aN" d="M5.484-2.625c0-1.625-1.187-2.86-2.562-2.86-1.406 0-2.563 1.266-2.563 2.86 0 1.563 1.188 2.75 2.563 2.75 1.406 0 2.562-1.219 2.562-2.75m-.906-.125c0 1.469-.844 2.125-1.656 2.125-.86 0-1.656-.719-1.656-2.125 0-1.453.89-2.016 1.656-2.016.812 0 1.656.625 1.656 2.016m-.016-5.547h-.906l-1.547 2h.72Zm0 0"/><path id="aO" d="M2.11 0v-.969h-.97V0Zm0 0"/><path id="aQ" d="M6.797-5.875c0-1.266-1.172-2.422-2.797-2.422H1.094V0h1.015v-3.453H4c1.656 0 2.797-1.188 2.797-2.422m-.953-.016c0 .938-.735 1.75-2.094 1.75H2.094v-3.484H3.75c1.406 0 2.094.828 2.094 1.734m0 0"/><path id="aR" d="M5.063 0v-5.312h-.907v3.421c0 .907-.625 1.36-1.406 1.36-.844 0-.922-.313-.922-.844v-3.937H.922v3.984c0 .86.265 1.453 1.25 1.453.344 0 1.281-.062 2.015-.719V0Zm0 0"/><path id="aS" d="M5.469 0 3.25-3.266l1.969-2.046h-1.11L1.813-2.906v-5.39H.938V0h.828v-1.719l.906-.953L4.5 0Zm0 0"/><path id="aT" d="M4.86-2.687c0-.516-.048-1.25-.423-1.876-.5-.828-1.328-.921-1.671-.921C1.469-5.484.39-4.25.39-2.687.39-1.141 1.5.078 2.844.124c-.531.344-.875.828-.828 1.39 0 .516.375 1.016 1.172 1.016.39 0 .703-.062 1.171-.297l-.156-.703c-.266.11-.547.172-.812.172-.328-.031-.625-.094-.625-.453-.016-.531.5-.969 1.047-1.281.328-.094.64-.25.984-.485 0-.046-.047-.437-.047-.437s-.031-.281-.031-.328c-.703.593-1.407.687-1.766.687-.922 0-1.703-.828-1.734-2.093Zm-.704-.641h-2.86c.204-.813.767-1.438 1.47-1.438.359 0 1.187.157 1.39 1.438m0 0"/><path id="aU" d="M7-.453v-3.172H4.547v.719h1.531v2.031a4.6 4.6 0 0 1-1.531.25c-.766 0-1.469-.422-1.938-1.031-.546-.703-.796-1.594-.796-2.485 0-.906.25-1.796.796-2.5.47-.609 1.172-1.03 1.938-1.03.39 0 .797.046 1.172.187.375.14.718.375 1.015.64l.172-1c-.36-.187-.734-.36-1.14-.453a5.4 5.4 0 0 0-1.22-.125c-1.03 0-1.984.469-2.655 1.25C1.14-6.344.78-5.266.78-4.14c0 1.094.36 2.188 1.11 3.016.672.766 1.625 1.25 2.656 1.25C5.39.125 6.234-.078 7-.453m0 0"/><path id="aV" d="m5.219 2.234-.157-.703c-.265.11-.546.172-.812.172-.328-.031-.61-.094-.625-.453C3.609.719 4.109.313 4.656 0h.14v-3.5c0-1.156-.827-1.984-1.937-1.984-.718 0-1.25.172-1.843.5l.078.78c.515-.374 1.062-.593 1.765-.593.547 0 1.032.453 1.032 1.313v.5c-.547.015-1.266.062-1.985.297C1.11-2.422.641-1.97.641-1.375c0 .531.312 1.5 1.328 1.5.656 0 1.5-.203 1.937-.562V0c-.594.328-1.078.906-1.031 1.516 0 .515.375 1.015 1.172 1.015.406 0 .703-.062 1.172-.297M3.89-1.609c0 .25 0 .53-.407.765-.312.203-.718.25-.906.25-.64 0-1.078-.343-1.078-.797 0-.812 1.656-.984 2.39-.984Zm0 0"/><path id="aW" d="M11.688-2.922v-.719H0v.72Zm0 0"/><path id="aX" d="M5.563-2.672c0-1.469-.782-2.75-1.891-2.75-.344 0-1.11.063-1.86.672v-3.547H.939V0h.906v-.531c.547.515 1.125.656 1.547.656 1.14 0 2.172-1.172 2.172-2.797m-.907 0c0 1.563-.968 2.078-1.703 2.078-.328 0-.562-.125-.781-.297-.281-.25-.328-.453-.328-.656V-4.03c.218-.328.64-.672 1.234-.672.719 0 1.578.547 1.578 2.031m0 0"/><path id="aY" d="M5.844-2.266c0-.765-.375-1.328-.625-1.625-.563-.593-1-.718-1.797-.921-.813-.204-1.11-.266-1.375-.516-.156-.172-.485-.469-.485-1 0-.734.657-1.438 1.72-1.438 1.015 0 1.546.391 1.984.766l.172-.953c-.485-.266-1.094-.594-2.157-.594-1.594 0-2.64 1.14-2.64 2.344 0 .844.515 1.39.578 1.453.593.61 1 .703 1.75.906 1.031.25 1.187.297 1.578.688.203.219.375.594.375 1.015 0 .829-.672 1.594-1.703 1.594a3.75 3.75 0 0 1-2.516-1l-.172.969A4.9 4.9 0 0 0 3.22.25C4.75.25 5.844-.937 5.844-2.266m0 0"/><path id="aZ" d="M7.11-2.25c0-1.047-1.032-1.89-2.266-2.094 1.39-.375 1.937-1.172 1.937-1.875 0-1.078-1.218-2.078-2.906-2.078H1.109V0h3.094C5.875 0 7.11-1.078 7.11-2.25M5.86-6.203c0 .844-1.032 1.531-2.298 1.531H2.079v-2.953h1.469c1.281 0 2.312.625 2.312 1.422m.312 3.937c0 .844-.969 1.594-2.313 1.594H2.08v-3.281h1.593c1.547 0 2.5.86 2.5 1.687m0 0"/><path id="ba" d="M4.531-1.766v-6.53h-1v6.483c0 .688-.344 1.329-1.39 1.329a1.96 1.96 0 0 1-1.485-.657L.484-.25c.704.36 1.375.5 2 .5 1.25 0 2.047-.734 2.047-2.016m0 0"/><path id="bb" d="M6.89-2.781v-5.516H5.97v5.531c0 1.594-1 2.344-1.953 2.344-.938 0-1.907-.734-1.907-2.344v-5.53H1.08v5.515C1.078-1.031 2.452.25 4 .25c1.563 0 2.89-1.297 2.89-3.031m0 0"/><path id="bh" d="M4.563 0v-.437H3.266v-5.157c0-.187 0-.297-.266-.297-.11 0-.125 0-.203.063-.688.516-1.656.516-1.828.516H.797v.437h.172a4.2 4.2 0 0 0 1.203-.172v4.61H.89V0c.343-.031 1.422-.031 1.828-.031.422 0 1.484 0 1.844.031m0 0"/><path id="bi" d="M4.86-2.953c0-.469-.032-1.39-.485-2.094-.297-.437-.828-.844-1.719-.844-1.281 0-2.218.72-2.218 1.938 0 1.125.765 1.937 2.093 1.937.406 0 .781-.203 1.063-.687v.172c0 .578-.063 1.156-.235 1.531-.109.234-.468.703-1.171.703-.079 0-.454 0-.735-.187a.55.55 0 0 0 .422-.563c0-.375-.281-.578-.578-.578-.25 0-.594.14-.594.594 0 .61.469 1.14 1.5 1.14 1.25 0 2.656-.796 2.656-3.062m-1.266-.89c0 .406-.172 1.452-1.031 1.452-.86 0-.86-.656-.86-1.53 0-.876 0-1.61.984-1.61.563 0 .766.515.797.593.11.297.11.782.11 1.094m0 0"/><path id="bj" d="M4.766-2.016h-.453c-.016.125-.094.766-.235.829-.11.046-.781.046-.937.046H1.859c.485-.39 1.016-.812 1.47-1.125.75-.53 1.437-1.015 1.437-1.89 0-1.047-.953-1.735-2.25-1.735-1.11 0-1.985.532-1.985 1.36 0 .468.36.687.672.687a.65.65 0 0 0 .656-.672c0-.203-.078-.53-.468-.64.312-.25.718-.282.89-.282.735 0 1.203.547 1.203 1.282 0 .656-.375 1.234-.859 1.718l-2 1.985c-.094.094-.094.11-.094.281V0H4.5Zm0 0"/><path id="bk" d="M3.516-1.406c0-.782-.594-1.5-1.453-1.5-.313 0-.672.062-.985.328v-1.313c.36.094.563.094.672.094.922 0 1.469-.625 1.469-.734 0-.078-.047-.094-.078-.094 0 0-.032 0-.063.016-.172.062-.531.203-1.047.203-.203 0-.562-.016-1.015-.188-.079-.031-.094-.031-.094-.031-.094 0-.094.078-.094.188v2.046c0 .125 0 .204.11.204.062 0 .078 0 .14-.094.297-.375.734-.438.969-.438.422 0 .61.328.64.39.126.235.172.5.172.907 0 .203 0 .61-.218.922a.98.98 0 0 1-.813.422c-.453 0-.922-.25-1.094-.719.266.016.407-.156.407-.344 0-.296-.266-.343-.36-.343 0 0-.343 0-.343.375 0 .625.578 1.25 1.406 1.25.89 0 1.672-.657 1.672-1.547m0 0"/><path id="bl" d="M3.578-1.422c0-.89-.703-1.547-1.515-1.547-.563 0-.86.375-1.016.688 0-.563.047-1.078.312-1.516.235-.375.61-.625 1.063-.625.203 0 .484.047.625.234-.172.016-.328.141-.328.344a.32.32 0 0 0 .328.328c.219 0 .344-.14.344-.343 0-.407-.297-.766-.985-.766-1 0-2.031.922-2.031 2.422C.375-.406 1.219.14 2 .14c.844 0 1.578-.657 1.578-1.563m-.672 0c0 .39 0 .688-.187.969A.82.82 0 0 1 2-.078c-.36 0-.625-.203-.781-.516-.094-.203-.157-.562-.157-.968 0-.688.407-1.204.97-1.204.312 0 .53.125.702.375.172.266.172.563.172.97m0 0"/><path id="bm" d="M2.016 1.734v-.328h-.72V-4.89h.72v-.328H.953v6.953Zm0 0"/><path id="bn" d="M3.516-1.266H3.28c-.015.157-.094.563-.187.625-.047.047-.578.047-.688.047H1.125c.734-.64.984-.843 1.39-1.172.516-.406 1-.843 1-1.5 0-.843-.734-1.359-1.624-1.359-.86 0-1.453.61-1.453 1.25 0 .344.296.39.375.39.156 0 .359-.124.359-.374 0-.125-.047-.375-.406-.375.218-.485.687-.641 1.015-.641.703 0 1.063.547 1.063 1.11 0 .609-.438 1.078-.656 1.328L.516-.266C.437-.203.437-.187.437 0h2.876Zm0 0"/><path id="bo" d="M3.688-1.14v-.25h-.782V-4.5c0-.14 0-.203-.14-.203-.094 0-.125 0-.188.11L.266-1.392v.25h2.062v.563c0 .25 0 .328-.578.328h-.187V0l1.046-.031L3.672 0v-.25h-.188c-.578 0-.578-.078-.578-.328v-.563Zm-1.313-.25H.531l1.844-2.548Zm0 0"/><path id="bp" d="M1.297 1.734v-6.953H.219v.328h.734v6.297H.22v.328Zm0 0"/><path id="bq" d="M7.813-1.75v-.203H.109v.203Zm0 0"/><path id="br" d="M3.578-2.297c0-1.719-.765-2.328-1.578-2.328a1.55 1.55 0 0 0-1.11.422c-.234.234-.515.5-.515 1.125 0 .89.703 1.547 1.516 1.547.562 0 .859-.375 1.015-.688v.14c0 1.735-.844 2-1.265 2-.157 0-.532-.015-.72-.233a.315.315 0 0 0 .313-.329.32.32 0 0 0-.328-.328c-.203 0-.328.14-.328.344 0 .469.39.766 1.063.766 1 0 1.937-.938 1.937-2.438M2.891-3c0 .906-.516 1.266-.953 1.266-.282 0-.532-.079-.735-.407-.156-.25-.156-.546-.156-.937 0-.406 0-.672.203-.953.172-.25.39-.39.75-.39s.578.218.688.405c.187.282.203.782.203 1.016m0 0"/><path id="bs" d="M2.516 0v-.25h-.172c-.578 0-.578-.078-.578-.328v-3.61c0-.234 0-.328.578-.328h.172v-.25l-1.078.032-1.079-.032v.25h.172c.578 0 .578.094.578.329v3.609c0 .25 0 .328-.578.328H.36V0l1.079-.031Zm0 0"/><path id="bt" d="M3.594-2.219c0-.765-.094-1.328-.406-1.812-.22-.313-.657-.594-1.204-.594C.36-4.625.36-2.719.36-2.219s0 2.36 1.625 2.36c1.61 0 1.61-1.86 1.61-2.36m-.625-.094c0 .516 0 1.032-.094 1.47-.14.64-.61.78-.89.78-.329 0-.75-.187-.891-.75C1-1.219 1-1.796 1-2.312c0-.515 0-1.046.094-1.421.156-.547.593-.703.89-.703.375 0 .735.234.86.64.11.375.125.875.125 1.485m0 0"/><path id="bu" d="M5.547 0v-.25h-.125c-.469 0-.516-.078-.594-.266L3.125-4.812c-.031-.11-.062-.157-.187-.157-.141 0-.157.047-.204.157L1.125-.734C1.063-.562.938-.25.313-.25V0c.234-.016.484-.031.718-.031.282 0 .797.031.844.031v-.25c-.312 0-.516-.14-.516-.328 0-.063.016-.078.047-.14l.328-.86H3.72l.406 1.016c0 .03.031.078.031.109 0 .203-.375.203-.562.203V0l1.031-.031c.328 0 .86.031.922.031M3.609-1.828H1.83l.89-2.266Zm0 0"/><path id="bv" d="M4.047 0v-.25c-.469 0-.516-.047-.516-.39v-4.204l-1.047.078v.25c.47 0 .516.063.516.391v1.453a1.37 1.37 0 0 0-.969-.406c-.937 0-1.703.703-1.703 1.578S1.062.063 1.938.063c.578 0 .921-.297 1.03-.422v.422ZM2.969-.734c-.172.328-.531.609-.985.609-.39 0-.671-.234-.812-.437-.14-.204-.219-.485-.219-.922 0-.172 0-.688.281-1.016.282-.312.625-.375.829-.375.328 0 .64.156.828.406.078.11.078.11.078.25Zm0 0"/><path id="bw" d="M5.469-2.75V-3c-.188.016-.313.031-.5.031-.219 0-.485-.015-.688-.031v.25c.235 0 .36.14.36.297 0 .062 0 .078-.047.172L3.922-.547l-.75-1.906a.3.3 0 0 1-.031-.125c0-.156.172-.172.375-.172V-3c-.25.016-.5.031-.75.031-.203 0-.422-.015-.625-.031v.25c.172 0 .312 0 .406.047.094.078.156.312.156.312s-.015.063-.031.079L2.016-.641l-.703-1.812c-.032-.094-.032-.094-.032-.125 0-.172.25-.172.375-.172V-3s-.515.031-.797.031C.641-2.969.422-2.984.203-3v.25c.281 0 .438 0 .5.203l.969 2.453c.047.11.062.157.203.157.125 0 .14-.047.172-.141l.797-1.984.765 1.968c.047.094.063.157.204.157.124 0 .14-.047.187-.157l.875-2.234c.14-.344.375-.422.594-.422m0 0"/><path id="bx" d="M3.266-.844c0-.015-.016-.094-.125-.094-.094 0-.11.047-.125.11-.22.562-.75.672-1 .672-.328 0-.641-.14-.844-.406-.266-.329-.266-.75-.266-1.032h2.157c.156 0 .203 0 .203-.14 0-.625-.344-1.375-1.391-1.375a1.59 1.59 0 0 0-1.61 1.578c0 .89.782 1.594 1.704 1.594.937 0 1.297-.75 1.297-.907m-.485-.922H.906c.078-.984.703-1.14.969-1.14.86 0 .89.969.906 1.14m0 0"/><path id="by" d="M4.11 0v-.25c-.454 0-.516 0-.516-.297v-1.562c0-.61-.297-.97-1.047-.97-.578 0-.938.313-1.14.688v-.687L.374-3v.25c.469 0 .531.047.531.39v1.813c0 .297-.078.297-.531.297V0s.5-.031.797-.031c.25 0 .734.031.797.031v-.25c-.453 0-.516 0-.516-.297v-1.265c0-.72.578-1.063 1.031-1.063.485 0 .547.375.547.734v1.594c0 .297-.062.297-.515.297V0s.5-.031.797-.031c.25 0 .734.031.796.031m0 0"/><path id="bz" d="M2.61-.875v-.39h-.235v.374c0 .485-.219.735-.5.735-.469 0-.469-.578-.469-.703V-2.75h1.078V-3H1.406v-1.281h-.25c0 .625-.281 1.312-.953 1.328v.203h.64v1.875c0 .781.595.938.985.938.469 0 .781-.391.781-.938m0 0"/><clipPath id="b"><path d="M.535.266h6.883v9.636H.535Zm0 0"/></clipPath><clipPath id="a"><path d="M0 0h8v10H0z"/></clipPath><clipPath id="be"><path d="M15.023 568.348H403v11.336H15.023Zm0 0"/></clipPath><linearGradient id="bf" x1="0" x2="388.063" y1="0" y2="0" gradientTransform="matrix(1 0 0 -1 15.024 579.685)" gradientUnits="userSpaceOnUse"><stop offset="0" stop-color="#f2f2f2"/><stop offset=".25" stop-color="#f2f2f2"/><stop offset=".313" stop-color="#f2f2f2"/><stop offset=".344" stop-color="#f2f2f2"/><stop offset=".359" stop-color="#f3f3f3"/><stop offset=".363" stop-color="#f4f4f4"/><stop offset=".367" stop-color="#f5f5f5"/><stop offset=".371" stop-color="#f6f6f6"/><stop offset=".375" stop-color="#f7f7f7"/><stop offset=".379" stop-color="#f8f8f8"/><stop offset=".383" stop-color="#f9f9f9"/><stop offset=".387" stop-color="#fafafa"/><stop offset=".391" stop-color="#fbfbfb"/><stop offset=".395" stop-color="#fcfcfc"/><stop offset=".398" stop-color="#fcfcfc"/><stop offset=".406" stop-color="#fcfcfc"/><stop offset=".438" stop-color="#fcfcfc"/><stop offset=".5" stop-color="#fcfcfc"/><stop offset=".563" stop-color="#fcfcfc"/><stop offset=".566" stop-color="#fcfcfc"/><stop offset=".57" stop-color="#fbfbfb"/><stop offset=".574" stop-color="#fafafa"/><stop offset=".578" stop-color="#f9f9f9"/><stop offset=".582" stop-color="#f8f8f8"/><stop offset=".586" stop-color="#f7f7f7"/><stop offset=".59" stop-color="#f6f6f6"/><stop offset=".594" stop-color="#f5f5f5"/><stop offset=".598" stop-color="#f4f4f4"/><stop offset=".602" stop-color="#f3f3f3"/><stop offset=".609" stop-color="#f3f3f3"/><stop offset=".625" stop-color="#f2f2f2"/><stop offset=".75" stop-color="#f2f2f2"/><stop offset="1" stop-color="#f2f2f2"/></linearGradient><g id="c" clip-path="url(#a)"><g clip-path="url(#b)"><path fill-rule="evenodd" d="m3.977 7.836 3.441 2.066V1.645c0-.762-.617-1.38-1.375-1.38H1.914C1.152.266.535.884.535 1.646v8.257Zm-2.754.851 2.754-1.652L6.73 8.687V1.646a.69.69 0 0 0-.687-.692H1.914a.69.69 0 0 0-.691.692Zm0 0"/></g></g></defs><use xlink:href="#c" transform="translate(9 27)"/><use xlink:href="#d" x="17.008" y="23.315"/><use xlink:href="#e" x="20.884" y="23.315"/><use xlink:href="#f" x="26.154" y="23.315"/><use xlink:href="#g" x="384.039" y="23.315"/><use xlink:href="#h" x="390.168" y="23.315"/><use xlink:href="#i" x="392.79" y="23.315"/><use xlink:href="#j" x="396.727" y="23.315"/><use xlink:href="#k" x="108.656" y="34.908"/><use xlink:href="#l" x="114.861" y="34.908"/><use xlink:href="#m" x="121.137" y="34.908"/><use xlink:href="#n" x="127.485" y="34.908"/><use xlink:href="#o" x="133.821" y="34.908"/><use xlink:href="#p" x="144.186" y="34.908"/><use xlink:href="#m" x="149.231" y="34.908"/><use xlink:href="#l" x="155.579" y="34.908"/><use xlink:href="#q" x="161.856" y="34.908"/><use xlink:href="#l" x="167.546" y="34.908"/><use xlink:href="#r" x="173.823" y="34.908"/><use xlink:href="#s" x="180.529" y="34.908"/><use xlink:href="#r" x="187.977" y="34.908"/><use xlink:href="#l" x="194.684" y="34.908"/><use xlink:href="#q" x="205.348" y="34.908"/><use xlink:href="#l" x="211.039" y="34.908"/><use xlink:href="#n" x="217.315" y="34.908"/><use xlink:href="#s" x="224.022" y="34.908"/><use xlink:href="#t" x="227.082" y="34.908"/><use xlink:href="#s" x="232.928" y="34.908"/><use xlink:href="#u" x="235.989" y="34.908"/><use xlink:href="#v" x="251.066" y="34.908"/><use xlink:href="#w" x="254.652" y="34.908"/><use xlink:href="#x" x="260.606" y="34.908"/><use xlink:href="#y" x="266.756" y="34.908"/><use xlink:href="#z" x="271.105" y="34.908"/><use xlink:href="#A" x="275.597" y="34.908"/><use xlink:href="#B" x="280.206" y="34.908"/><use xlink:href="#C" x="284.115" y="34.908"/><use xlink:href="#D" x="288.723" y="34.908"/><use xlink:href="#w" x="293.332" y="34.908"/><use xlink:href="#E" x="297.94" y="34.908"/><use xlink:href="#F" x="302.549" y="34.908"/><path fill="none" stroke="#000" stroke-miterlimit="10" stroke-width=".398" d="M17.008 39.293h384.094"/><use xlink:href="#G" x="399.042" y="155.233"/><use xlink:href="#H" x="399.042" y="149.12"/><use xlink:href="#I" x="399.042" y="144.888"/><use xlink:href="#J" x="399.042" y="137.834"/><use xlink:href="#K" x="399.042" y="131.251"/><use xlink:href="#H" x="399.042" y="127.489"/><use xlink:href="#L" x="399.042" y="123.257"/><use xlink:href="#M" x="399.042" y="118.555"/><use xlink:href="#N" x="399.042" y="113.853"/><use xlink:href="#L" x="399.042" y="109.621"/><use xlink:href="#L" x="399.042" y="104.918"/><use xlink:href="#N" x="399.042" y="100.216"/><use xlink:href="#O" x="399.042" y="95.984"/><use xlink:href="#P" x="399.042" y="92.692"/><use xlink:href="#N" x="399.042" y="87.52"/><use xlink:href="#I" x="399.042" y="80.466"/><use xlink:href="#H" x="399.042" y="73.413"/><use xlink:href="#Q" x="399.042" y="69.181"/><use xlink:href="#O" x="399.042" y="65.881"/><use xlink:href="#J" x="399.042" y="62.59"/><use xlink:href="#R" x="399.042" y="56.006"/><use xlink:href="#S" x="399.042" y="51.304"/><use xlink:href="#T" x="399.042" y="48.953"/><use xlink:href="#U" x="399.042" y="44.721"/><use xlink:href="#V" x="403.164" y="40.487"/><use xlink:href="#W" x="403.164" y="46.6"/><use xlink:href="#X" x="403.164" y="50.832"/><use xlink:href="#W" x="403.164" y="57.886"/><use xlink:href="#Y" x="403.164" y="64.931"/><use xlink:href="#W" x="403.164" y="68.693"/><use xlink:href="#Z" x="403.164" y="72.925"/><use xlink:href="#aa" x="403.164" y="77.627"/><use xlink:href="#ab" x="403.164" y="82.33"/><use xlink:href="#Z" x="403.164" y="86.091"/><use xlink:href="#ac" x="403.164" y="90.794"/><use xlink:href="#aa" x="403.164" y="95.026"/><use xlink:href="#W" x="403.164" y="99.728"/><use xlink:href="#ad" x="403.164" y="103.96"/><use xlink:href="#ac" x="403.164" y="110.121"/><use xlink:href="#X" x="403.164" y="117.174"/><use xlink:href="#ae" x="403.164" y="123.997"/><use xlink:href="#ab" x="403.164" y="128.699"/><use xlink:href="#af" x="403.164" y="132.461"/><use xlink:href="#ag" x="403.164" y="135.76"/><use xlink:href="#ab" x="403.164" y="139.052"/><use xlink:href="#ah" x="403.164" y="145.627"/><use xlink:href="#ai" x="403.164" y="150.33"/><use xlink:href="#aj" x="403.164" y="152.681"/><use xlink:href="#ak" x="403.164" y="156.913"/><use xlink:href="#al" x="35.442" y="61.174"/><use xlink:href="#am" x="51.953" y="51.089" fill="red"/><use xlink:href="#an" x="51.953" y="61.174"/><use xlink:href="#ao" x="59.688" y="61.174"/><use xlink:href="#ap" x="68.666" y="61.174"/><use xlink:href="#aq" x="74.668" y="61.174"/><use xlink:href="#ar" x="84.423" y="61.174"/><use xlink:href="#as" x="88.655" y="61.174"/><use xlink:href="#at" x="93.855" y="61.174"/><use xlink:href="#au" x="100.837" y="61.174"/><use xlink:href="#av" x="106.037" y="61.174"/><use xlink:href="#aw" x="112.039" y="61.174"/><use xlink:href="#ax" x="120.001" y="61.174"/><use xlink:href="#ay" x="122.751" y="61.174"/><use xlink:href="#ax" x="125.5" y="61.174"/><use xlink:href="#az" x="132.147" y="61.174"/><use xlink:href="#aA" x="137.228" y="61.174"/><use xlink:href="#aq" x="143.229" y="61.174"/><use xlink:href="#aB" x="149.087" y="61.174"/><use xlink:href="#ax" x="153.57" y="61.174"/><use xlink:href="#aC" x="156.32" y="61.174"/><use xlink:href="#aD" x="165.573" y="61.174"/><use xlink:href="#aE" x="174.828" y="51.089" fill="red"/><use xlink:href="#aA" x="174.828" y="61.174"/><use xlink:href="#aF" x="180.829" y="61.174"/><use xlink:href="#aG" x="186.436" y="61.174"/><use xlink:href="#aq" x="192.294" y="61.174"/><use xlink:href="#aH" x="198.152" y="61.174"/><use xlink:href="#aI" x="202.635" y="61.174"/><use xlink:href="#aJ" x="207.836" y="61.174"/><use xlink:href="#au" x="51.953" y="82.818"/><use xlink:href="#ax" x="57.153" y="82.818"/><use xlink:href="#as" x="59.903" y="82.818"/><use xlink:href="#aK" x="65.103" y="82.818"/><use xlink:href="#aL" x="69.085" y="82.818"/><use xlink:href="#ax" x="75.086" y="82.818"/><use xlink:href="#aC" x="77.836" y="82.818"/><use xlink:href="#aD" x="87.089" y="82.818"/><use xlink:href="#aL" x="96.342" y="82.818"/><use xlink:href="#aK" x="102.021" y="82.818"/><use xlink:href="#aF" x="106.002" y="82.818"/><use xlink:href="#aG" x="111.608" y="82.818"/><use xlink:href="#aA" x="117.466" y="82.818"/><use xlink:href="#ax" x="123.468" y="82.818"/><use xlink:href="#as" x="126.217" y="82.818"/><use xlink:href="#aA" x="131.418" y="82.818"/><use xlink:href="#ax" x="137.419" y="82.818"/><use xlink:href="#as" x="140.169" y="82.818"/><use xlink:href="#ax" x="149.267" y="82.818"/><use xlink:href="#am" x="155.915" y="72.733" fill="red"/><use xlink:href="#aG" x="155.915" y="82.818"/><use xlink:href="#aM" x="161.773" y="82.818"/><use xlink:href="#aN" x="165.204" y="82.818"/><use xlink:href="#ap" x="171.385" y="82.818"/><use xlink:href="#aO" x="177.386" y="82.818"/><use xlink:href="#aP" x="32.083" y="104.462"/><use xlink:href="#am" x="51.953" y="94.376" fill="red"/><use xlink:href="#an" x="51.953" y="104.462"/><use xlink:href="#ao" x="59.688" y="104.462"/><use xlink:href="#ap" x="68.666" y="104.462"/><use xlink:href="#aq" x="74.668" y="104.462"/><use xlink:href="#ar" x="84.423" y="104.462"/><use xlink:href="#as" x="88.655" y="104.462"/><use xlink:href="#at" x="93.855" y="104.462"/><use xlink:href="#au" x="100.837" y="104.462"/><use xlink:href="#av" x="106.037" y="104.462"/><use xlink:href="#aw" x="112.039" y="104.462"/><use xlink:href="#ax" x="120.001" y="104.462"/><use xlink:href="#ay" x="122.751" y="104.462"/><use xlink:href="#ax" x="125.5" y="104.462"/><use xlink:href="#az" x="132.147" y="104.462"/><use xlink:href="#aA" x="137.228" y="104.462"/><use xlink:href="#aq" x="143.229" y="104.462"/><use xlink:href="#aB" x="149.087" y="104.462"/><use xlink:href="#ax" x="153.57" y="104.462"/><use xlink:href="#aC" x="156.32" y="104.462"/><use xlink:href="#aD" x="165.573" y="104.462"/><use xlink:href="#aE" x="174.828" y="94.376" fill="red"/><use xlink:href="#aA" x="174.828" y="104.462"/><use xlink:href="#aF" x="180.829" y="104.462"/><use xlink:href="#aG" x="186.436" y="104.462"/><use xlink:href="#aq" x="192.294" y="104.462"/><use xlink:href="#aH" x="198.152" y="104.462"/><use xlink:href="#aI" x="202.635" y="104.462"/><use xlink:href="#aJ" x="207.836" y="104.462"/><use xlink:href="#au" x="51.953" y="126.105"/><use xlink:href="#ax" x="57.153" y="126.105"/><use xlink:href="#as" x="59.903" y="126.105"/><use xlink:href="#aK" x="65.103" y="126.105"/><use xlink:href="#aL" x="69.085" y="126.105"/><use xlink:href="#ax" x="75.086" y="126.105"/><use xlink:href="#aC" x="77.836" y="126.105"/><use xlink:href="#aD" x="87.089" y="126.105"/><use xlink:href="#aL" x="96.342" y="126.105"/><use xlink:href="#aK" x="102.021" y="126.105"/><use xlink:href="#aF" x="106.002" y="126.105"/><use xlink:href="#aG" x="111.608" y="126.105"/><use xlink:href="#aA" x="117.466" y="126.105"/><use xlink:href="#ax" x="123.468" y="126.105"/><use xlink:href="#as" x="126.217" y="126.105"/><use xlink:href="#aA" x="131.418" y="126.105"/><use xlink:href="#ax" x="137.419" y="126.105"/><use xlink:href="#as" x="140.169" y="126.105"/><use xlink:href="#ax" x="149.267" y="126.105"/><use xlink:href="#am" x="155.915" y="116.02" fill="red"/><use xlink:href="#aG" x="155.915" y="126.105"/><use xlink:href="#aM" x="161.773" y="126.105"/><use xlink:href="#aN" x="165.204" y="126.105"/><use xlink:href="#ap" x="171.385" y="126.105"/><use xlink:href="#aO" x="177.386" y="126.105"/><use xlink:href="#al" x="35.442" y="147.749"/><use xlink:href="#aQ" x="51.953" y="147.749"/><use xlink:href="#aK" x="59.401" y="147.749"/><use xlink:href="#az" x="63.382" y="147.749"/><use xlink:href="#aE" x="68.463" y="137.664" fill="red"/><use xlink:href="#as" x="68.463" y="147.749"/><use xlink:href="#aH" x="73.663" y="147.749"/><use xlink:href="#ay" x="78.147" y="147.749"/><use xlink:href="#aF" x="80.896" y="147.749"/><use xlink:href="#ap" x="86.503" y="147.749"/><use xlink:href="#aq" x="92.505" y="147.749"/><use xlink:href="#aw" x="98.04" y="147.749"/><use xlink:href="#aF" x="105.679" y="147.749"/><use xlink:href="#aA" x="111.286" y="147.749"/><use xlink:href="#ax" x="117.287" y="147.749"/><use xlink:href="#aJ" x="120.037" y="147.749"/><use xlink:href="#aA" x="127.186" y="147.749"/><use xlink:href="#aF" x="133.187" y="147.749"/><use xlink:href="#ar" x="142.692" y="147.749"/><use xlink:href="#aR" x="146.924" y="147.749"/><use xlink:href="#aM" x="152.925" y="147.749"/><use xlink:href="#aF" x="156.356" y="147.749"/><use xlink:href="#au" x="161.963" y="147.749"/><use xlink:href="#az" x="167.163" y="147.749"/><use xlink:href="#aS" x="172.244" y="147.749"/><use xlink:href="#aT" x="177.6" y="147.749"/><use xlink:href="#aB" x="186.698" y="147.749"/><use xlink:href="#aS" x="191.181" y="147.749"/><use xlink:href="#aF" x="196.86" y="147.749"/><use xlink:href="#am" x="202.468" y="137.664" fill="red"/><use xlink:href="#az" x="202.468" y="147.749"/><use xlink:href="#aF" x="207.549" y="147.749"/><use xlink:href="#aA" x="213.156" y="147.749"/><use xlink:href="#ax" x="219.157" y="147.749"/><use xlink:href="#aO" x="221.907" y="147.749"/><use xlink:href="#aP" x="32.083" y="169.393"/><use xlink:href="#aQ" x="51.953" y="169.393"/><use xlink:href="#aK" x="59.401" y="169.393"/><use xlink:href="#az" x="63.382" y="169.393"/><use xlink:href="#aE" x="68.463" y="159.307" fill="red"/><use xlink:href="#as" x="68.463" y="169.393"/><use xlink:href="#aH" x="73.663" y="169.393"/><use xlink:href="#ay" x="78.147" y="169.393"/><use xlink:href="#aF" x="80.896" y="169.393"/><use xlink:href="#ap" x="86.503" y="169.393"/><use xlink:href="#aq" x="92.505" y="169.393"/><use xlink:href="#aw" x="98.04" y="169.393"/><use xlink:href="#aF" x="105.679" y="169.393"/><use xlink:href="#aA" x="111.286" y="169.393"/><use xlink:href="#ax" x="117.287" y="169.393"/><use xlink:href="#aJ" x="120.037" y="169.393"/><use xlink:href="#aA" x="127.186" y="169.393"/><use xlink:href="#aF" x="133.187" y="169.393"/><use xlink:href="#ar" x="142.692" y="169.393"/><use xlink:href="#aR" x="146.924" y="169.393"/><use xlink:href="#aM" x="152.925" y="169.393"/><use xlink:href="#aF" x="156.356" y="169.393"/><use xlink:href="#au" x="161.963" y="169.393"/><use xlink:href="#az" x="167.163" y="169.393"/><use xlink:href="#aS" x="172.244" y="169.393"/><use xlink:href="#aT" x="177.6" y="169.393"/><use xlink:href="#aB" x="186.698" y="169.393"/><use xlink:href="#aS" x="191.181" y="169.393"/><use xlink:href="#aF" x="196.86" y="169.393"/><use xlink:href="#am" x="202.468" y="159.307" fill="red"/><use xlink:href="#az" x="202.468" y="169.393"/><use xlink:href="#aF" x="207.549" y="169.393"/><use xlink:href="#aA" x="213.156" y="169.393"/><use xlink:href="#ax" x="219.157" y="169.393"/><use xlink:href="#aO" x="221.907" y="169.393"/><use xlink:href="#al" x="35.442" y="191.036"/><use xlink:href="#aU" x="51.953" y="191.036"/><use xlink:href="#ap" x="59.76" y="191.036"/><use xlink:href="#aD" x="65.761" y="191.036"/><use xlink:href="#aA" x="75.014" y="191.036"/><use xlink:href="#aF" x="81.016" y="191.036"/><use xlink:href="#aC" x="86.623" y="191.036"/><use xlink:href="#az" x="99.773" y="191.036"/><use xlink:href="#aM" x="104.854" y="191.036"/><use xlink:href="#aq" x="108.285" y="191.036"/><use xlink:href="#aE" x="114.143" y="180.951" fill="red"/><use xlink:href="#aK" x="114.143" y="191.036"/><use xlink:href="#az" x="118.124" y="191.036"/><use xlink:href="#as" x="123.205" y="191.036"/><use xlink:href="#au" x="128.405" y="191.036"/><use xlink:href="#az" x="133.606" y="191.036"/><use xlink:href="#aV" x="138.687" y="191.036"/><use xlink:href="#aW" x="148.191" y="191.036"/><use xlink:href="#aX" x="163.792" y="191.036"/><use xlink:href="#aM" x="169.794" y="191.036"/><use xlink:href="#aq" x="173.225" y="191.036"/><use xlink:href="#aG" x="179.083" y="191.036"/><use xlink:href="#aq" x="184.941" y="191.036"/><use xlink:href="#aB" x="190.798" y="191.036"/><use xlink:href="#aM" x="195.282" y="191.036"/><use xlink:href="#aF" x="198.713" y="191.036"/><use xlink:href="#am" x="204.321" y="180.951" fill="red"/><use xlink:href="#aw" x="204.321" y="191.036"/><use xlink:href="#ax" x="212.283" y="191.036"/><use xlink:href="#aC" x="215.033" y="191.036"/><use xlink:href="#aD" x="224.286" y="191.036"/><use xlink:href="#aJ" x="228.661" y="191.036"/><use xlink:href="#aL" x="51.953" y="212.68"/><use xlink:href="#aq" x="58.277" y="212.68"/><use xlink:href="#ay" x="64.135" y="212.68"/><use xlink:href="#ax" x="66.885" y="212.68"/><use xlink:href="#au" x="69.634" y="212.68"/><use xlink:href="#az" x="74.835" y="212.68"/><use xlink:href="#aS" x="79.916" y="212.68"/><use xlink:href="#aq" x="85.272" y="212.68"/><use xlink:href="#aE" x="91.13" y="202.595" fill="red"/><use xlink:href="#aw" x="91.13" y="212.68"/><use xlink:href="#aF" x="98.769" y="212.68"/><use xlink:href="#aA" x="104.376" y="212.68"/><use xlink:href="#ax" x="110.378" y="212.68"/><use xlink:href="#aW" x="117.025" y="212.68"/><use xlink:href="#az" x="132.626" y="212.68"/><use xlink:href="#aF" x="137.707" y="212.68"/><use xlink:href="#aC" x="143.314" y="212.68"/><use xlink:href="#aD" x="152.567" y="212.68"/><use xlink:href="#aS" x="157.923" y="212.68"/><use xlink:href="#aF" x="163.601" y="212.68"/><use xlink:href="#aC" x="169.208" y="212.68"/><use xlink:href="#aD" x="178.461" y="212.68"/><use xlink:href="#am" x="187.716" y="202.595" fill="red"/><use xlink:href="#aR" x="187.716" y="212.68"/><use xlink:href="#aB" x="193.717" y="212.68"/><use xlink:href="#ar" x="198.201" y="212.68"/><use xlink:href="#aF" x="202.433" y="212.68"/><use xlink:href="#aJ" x="208.04" y="212.68"/><use xlink:href="#aG" x="51.953" y="234.324"/><use xlink:href="#ap" x="57.811" y="234.324"/><use xlink:href="#aD" x="63.812" y="234.324"/><use xlink:href="#aE" x="73.065" y="224.238" fill="red"/><use xlink:href="#aA" x="73.065" y="234.324"/><use xlink:href="#aF" x="79.066" y="234.324"/><use xlink:href="#aB" x="84.673" y="234.324"/><use xlink:href="#aq" x="93.054" y="234.324"/><use xlink:href="#au" x="99.235" y="234.324"/><use xlink:href="#az" x="104.435" y="234.324"/><use xlink:href="#as" x="109.516" y="234.324"/><use xlink:href="#aK" x="114.716" y="234.324"/><use xlink:href="#aA" x="118.697" y="234.324"/><use xlink:href="#ax" x="124.699" y="234.324"/><use xlink:href="#aF" x="127.448" y="234.324"/><use xlink:href="#at" x="133.055" y="234.324"/><use xlink:href="#aV" x="136.14" y="234.324"/><use xlink:href="#aW" x="63.908" y="255.967"/><use xlink:href="#aq" x="79.509" y="255.967"/><use xlink:href="#ap" x="85.69" y="255.967"/><use xlink:href="#aL" x="91.691" y="255.967"/><use xlink:href="#aq" x="98.016" y="255.967"/><use xlink:href="#aw" x="103.551" y="255.967"/><use xlink:href="#ax" x="111.513" y="255.967"/><use xlink:href="#aF" x="114.262" y="255.967"/><use xlink:href="#ap" x="119.869" y="255.967"/><use xlink:href="#aF" x="125.871" y="255.967"/><use xlink:href="#aC" x="131.478" y="255.967"/><use xlink:href="#aD" x="140.731" y="255.967"/><use xlink:href="#aC" x="149.984" y="255.967"/><use xlink:href="#ax" x="159.237" y="255.967"/><use xlink:href="#am" x="161.988" y="245.882" fill="red"/><use xlink:href="#aM" x="161.988" y="255.967"/><use xlink:href="#aq" x="165.419" y="255.967"/><use xlink:href="#aH" x="171.277" y="255.967"/><use xlink:href="#au" x="175.76" y="255.967"/><use xlink:href="#ax" x="180.961" y="255.967"/><use xlink:href="#aV" x="183.71" y="255.967"/><use xlink:href="#aO" x="189.317" y="255.967"/><use xlink:href="#aP" x="32.083" y="277.611"/><use xlink:href="#aU" x="51.953" y="277.611"/><use xlink:href="#ap" x="59.76" y="277.611"/><use xlink:href="#aD" x="65.761" y="277.611"/><use xlink:href="#aE" x="75.014" y="267.525" fill="red"/><use xlink:href="#aA" x="75.014" y="277.611"/><use xlink:href="#aF" x="81.015" y="277.611"/><use xlink:href="#aB" x="86.622" y="277.611"/><use xlink:href="#aq" x="95.003" y="277.611"/><use xlink:href="#au" x="101.184" y="277.611"/><use xlink:href="#az" x="106.384" y="277.611"/><use xlink:href="#as" x="111.465" y="277.611"/><use xlink:href="#aK" x="116.665" y="277.611"/><use xlink:href="#aA" x="120.646" y="277.611"/><use xlink:href="#ax" x="126.648" y="277.611"/><use xlink:href="#aF" x="129.397" y="277.611"/><use xlink:href="#at" x="135.004" y="277.611"/><use xlink:href="#aV" x="138.089" y="277.611"/><use xlink:href="#aW" x="63.908" y="299.254"/><use xlink:href="#aq" x="79.509" y="299.254"/><use xlink:href="#ap" x="85.69" y="299.254"/><use xlink:href="#aL" x="91.691" y="299.254"/><use xlink:href="#aq" x="98.016" y="299.254"/><use xlink:href="#aw" x="103.551" y="299.254"/><use xlink:href="#ax" x="111.513" y="299.254"/><use xlink:href="#aF" x="114.262" y="299.254"/><use xlink:href="#ap" x="119.869" y="299.254"/><use xlink:href="#aF" x="125.871" y="299.254"/><use xlink:href="#aC" x="131.478" y="299.254"/><use xlink:href="#aD" x="140.731" y="299.254"/><use xlink:href="#aC" x="149.984" y="299.254"/><use xlink:href="#ax" x="159.237" y="299.254"/><use xlink:href="#am" x="161.988" y="289.169" fill="red"/><use xlink:href="#aM" x="161.988" y="299.254"/><use xlink:href="#aq" x="165.419" y="299.254"/><use xlink:href="#aH" x="171.277" y="299.254"/><use xlink:href="#au" x="175.76" y="299.254"/><use xlink:href="#ax" x="180.961" y="299.254"/><use xlink:href="#aV" x="183.71" y="299.254"/><use xlink:href="#aO" x="189.317" y="299.254"/><use xlink:href="#aP" x="32.083" y="320.898"/><use xlink:href="#aY" x="51.953" y="320.898"/><use xlink:href="#ar" x="58.457" y="320.898"/><use xlink:href="#aF" x="62.689" y="320.898"/><use xlink:href="#ay" x="68.295" y="320.898"/><use xlink:href="#ax" x="71.045" y="320.898"/><use xlink:href="#aH" x="73.795" y="320.898"/><use xlink:href="#aC" x="78.278" y="320.898"/><use xlink:href="#aD" x="87.531" y="320.898"/><use xlink:href="#aB" x="96.784" y="320.898"/><use xlink:href="#ax" x="101.267" y="320.898"/><use xlink:href="#aT" x="104.017" y="320.898"/><use xlink:href="#aE" x="113.115" y="310.813" fill="red"/><use xlink:href="#aH" x="113.115" y="320.898"/><use xlink:href="#aC" x="117.598" y="320.898"/><use xlink:href="#ax" x="126.851" y="320.898"/><use xlink:href="#as" x="129.601" y="320.898"/><use xlink:href="#au" x="134.801" y="320.898"/><use xlink:href="#ax" x="140.002" y="320.898"/><use xlink:href="#as" x="142.751" y="320.898"/><use xlink:href="#aC" x="147.952" y="320.898"/><use xlink:href="#aJ" x="157.205" y="320.898"/><use xlink:href="#aB" x="51.953" y="342.542"/><use xlink:href="#ar" x="56.436" y="342.542"/><use xlink:href="#aF" x="60.668" y="342.542"/><use xlink:href="#ay" x="66.275" y="342.542"/><use xlink:href="#ax" x="69.025" y="342.542"/><use xlink:href="#aH" x="71.774" y="342.542"/><use xlink:href="#aC" x="76.258" y="342.542"/><use xlink:href="#aD" x="85.511" y="342.542"/><use xlink:href="#aB" x="94.764" y="342.542"/><use xlink:href="#ax" x="99.247" y="342.542"/><use xlink:href="#aT" x="101.997" y="342.542"/><use xlink:href="#am" x="111.095" y="332.456" fill="red"/><use xlink:href="#aH" x="111.095" y="342.542"/><use xlink:href="#aC" x="115.578" y="342.542"/><use xlink:href="#ax" x="124.831" y="342.542"/><use xlink:href="#as" x="127.581" y="342.542"/><use xlink:href="#au" x="132.781" y="342.542"/><use xlink:href="#ax" x="137.982" y="342.542"/><use xlink:href="#as" x="140.731" y="342.542"/><use xlink:href="#aC" x="145.932" y="342.542"/><use xlink:href="#aJ" x="155.185" y="342.542"/><use xlink:href="#aB" x="51.953" y="364.185"/><use xlink:href="#ar" x="56.436" y="364.185"/><use xlink:href="#aF" x="60.668" y="364.185"/><use xlink:href="#ay" x="66.275" y="364.185"/><use xlink:href="#ax" x="69.025" y="364.185"/><use xlink:href="#aH" x="71.774" y="364.185"/><use xlink:href="#aC" x="76.258" y="364.185"/><use xlink:href="#aD" x="85.511" y="364.185"/><use xlink:href="#aB" x="94.764" y="364.185"/><use xlink:href="#ax" x="99.247" y="364.185"/><use xlink:href="#aT" x="101.997" y="364.185"/><use xlink:href="#aE" x="111.095" y="354.1" fill="red"/><use xlink:href="#aH" x="111.095" y="364.185"/><use xlink:href="#aC" x="115.578" y="364.185"/><use xlink:href="#ax" x="124.831" y="364.185"/><use xlink:href="#as" x="127.581" y="364.185"/><use xlink:href="#au" x="132.781" y="364.185"/><use xlink:href="#ax" x="137.982" y="364.185"/><use xlink:href="#as" x="140.731" y="364.185"/><use xlink:href="#aC" x="145.932" y="364.185"/><use xlink:href="#aJ" x="155.185" y="364.185"/><use xlink:href="#aH" x="51.953" y="385.829"/><use xlink:href="#aC" x="56.436" y="385.829"/><use xlink:href="#ax" x="65.689" y="385.829"/><use xlink:href="#as" x="68.439" y="385.829"/><use xlink:href="#au" x="73.639" y="385.829"/><use xlink:href="#ax" x="78.84" y="385.829"/><use xlink:href="#as" x="81.589" y="385.829"/><use xlink:href="#aC" x="86.79" y="385.829"/><use xlink:href="#ar" x="99.94" y="385.829"/><use xlink:href="#as" x="104.172" y="385.829"/><use xlink:href="#aG" x="109.373" y="385.829"/><use xlink:href="#aq" x="115.231" y="385.829"/><use xlink:href="#am" x="124.987" y="375.744" fill="red"/><use xlink:href="#aH" x="124.987" y="385.829"/><use xlink:href="#aw" x="129.47" y="385.829"/><use xlink:href="#ax" x="137.432" y="385.829"/><use xlink:href="#aF" x="140.182" y="385.829"/><use xlink:href="#ar" x="145.789" y="385.829"/><use xlink:href="#aF" x="150.021" y="385.829"/><use xlink:href="#aE" x="51.953" y="397.387" fill="red"/><use xlink:href="#ax" x="51.953" y="407.473"/><use xlink:href="#aq" x="58.6" y="407.473"/><use xlink:href="#ap" x="64.781" y="407.473"/><use xlink:href="#aK" x="70.782" y="407.473"/><use xlink:href="#aF" x="74.763" y="407.473"/><use xlink:href="#az" x="80.37" y="407.473"/><use xlink:href="#aV" x="85.451" y="407.473"/><use xlink:href="#ap" x="94.955" y="407.473"/><use xlink:href="#ay" x="100.957" y="407.473"/><use xlink:href="#aF" x="103.706" y="407.473"/><use xlink:href="#am" x="113.211" y="397.387" fill="red"/><use xlink:href="#aw" x="113.211" y="407.473"/><use xlink:href="#aB" x="121.173" y="407.473"/><use xlink:href="#az" x="125.656" y="407.473"/><use xlink:href="#aD" x="130.737" y="407.473"/><use xlink:href="#aB" x="136.093" y="407.473"/><use xlink:href="#ar" x="140.576" y="407.473"/><use xlink:href="#aS" x="144.808" y="407.473"/><use xlink:href="#ax" x="150.487" y="407.473"/><use xlink:href="#au" x="153.236" y="407.473"/><use xlink:href="#av" x="158.437" y="407.473"/><use xlink:href="#aO" x="164.438" y="407.473"/><use xlink:href="#al" x="35.442" y="429.116"/><use xlink:href="#an" x="51.953" y="429.116"/><use xlink:href="#ay" x="59.688" y="429.116"/><use xlink:href="#aX" x="62.438" y="429.116"/><use xlink:href="#aq" x="68.762" y="429.116"/><use xlink:href="#aw" x="74.297" y="429.116"/><use xlink:href="#ax" x="82.259" y="429.116"/><use xlink:href="#as" x="85.009" y="429.116"/><use xlink:href="#aC" x="90.209" y="429.116"/><use xlink:href="#aC" x="103.36" y="429.116"/><use xlink:href="#aD" x="112.613" y="429.116"/><use xlink:href="#aH" x="117.969" y="429.116"/><use xlink:href="#ay" x="122.452" y="429.116"/><use xlink:href="#aT" x="125.201" y="429.116"/><use xlink:href="#aJ" x="130.402" y="429.116"/><use xlink:href="#ao" x="51.953" y="450.76"/><use xlink:href="#as" x="57.034" y="450.76"/><use xlink:href="#aE" x="66.131" y="440.675" fill="red"/><use xlink:href="#ap" x="66.131" y="450.76"/><use xlink:href="#ay" x="72.132" y="450.76"/><use xlink:href="#aF" x="74.882" y="450.76"/><use xlink:href="#aA" x="84.386" y="450.76"/><use xlink:href="#aF" x="90.388" y="450.76"/><use xlink:href="#aB" x="95.995" y="450.76"/><use xlink:href="#aJ" x="100.478" y="450.76"/><use xlink:href="#aF" x="51.953" y="472.404"/><use xlink:href="#aL" x="57.56" y="472.404"/><use xlink:href="#aq" x="63.884" y="472.404"/><use xlink:href="#aB" x="69.742" y="472.404"/><use xlink:href="#am" x="74.225" y="462.318" fill="red"/><use xlink:href="#ar" x="74.225" y="472.404"/><use xlink:href="#aq" x="78.457" y="472.404"/><use xlink:href="#aM" x="84.315" y="472.404"/><use xlink:href="#aN" x="87.746" y="472.404"/><use xlink:href="#aw" x="93.281" y="472.404"/><use xlink:href="#aZ" x="51.953" y="494.047"/><use xlink:href="#aN" x="59.724" y="494.047"/><use xlink:href="#aG" x="65.582" y="494.047"/><use xlink:href="#aw" x="75.337" y="494.047"/><use xlink:href="#aD" x="83.299" y="494.047"/><use xlink:href="#aE" x="88.655" y="483.962" fill="red"/><use xlink:href="#az" x="88.655" y="494.047"/><use xlink:href="#aA" x="93.736" y="494.047"/><use xlink:href="#aF" x="99.737" y="494.047"/><use xlink:href="#au" x="105.344" y="494.047"/><use xlink:href="#az" x="110.545" y="494.047"/><use xlink:href="#aD" x="115.625" y="494.047"/><use xlink:href="#aM" x="120.981" y="494.047"/><use xlink:href="#aq" x="51.953" y="515.691"/><use xlink:href="#aB" x="57.811" y="515.691"/><use xlink:href="#ar" x="62.294" y="515.691"/><use xlink:href="#aF" x="66.526" y="515.691"/><use xlink:href="#ar" x="72.133" y="515.691"/><use xlink:href="#aA" x="76.365" y="515.691"/><use xlink:href="#ax" x="82.367" y="515.691"/><use xlink:href="#as" x="85.116" y="515.691"/><use xlink:href="#am" x="94.214" y="505.606" fill="red"/><use xlink:href="#aC" x="94.214" y="515.691"/><use xlink:href="#ax" x="103.467" y="515.691"/><use xlink:href="#as" x="106.217" y="515.691"/><use xlink:href="#at" x="111.417" y="515.691"/><use xlink:href="#aB" x="114.502" y="515.691"/><use xlink:href="#au" x="118.985" y="515.691"/><use xlink:href="#as" x="124.185" y="515.691"/><use xlink:href="#aO" x="129.386" y="515.691"/><use xlink:href="#aP" x="244" y="61.174"/><use xlink:href="#aE" x="263.87" y="51.089" fill="red"/><use xlink:href="#ba" x="263.87" y="61.174"/><use xlink:href="#aF" x="269.357" y="61.174"/><use xlink:href="#aS" x="274.964" y="61.174"/><use xlink:href="#aX" x="280.643" y="61.174"/><use xlink:href="#aD" x="286.321" y="61.174"/><use xlink:href="#aB" x="295.575" y="61.174"/><use xlink:href="#aS" x="300.058" y="61.174"/><use xlink:href="#aF" x="305.736" y="61.174"/><use xlink:href="#az" x="311.343" y="61.174"/><use xlink:href="#aF" x="316.424" y="61.174"/><use xlink:href="#aA" x="322.031" y="61.174"/><use xlink:href="#ax" x="328.032" y="61.174"/><use xlink:href="#aA" x="334.679" y="61.174"/><use xlink:href="#aF" x="340.681" y="61.174"/><use xlink:href="#az" x="350.185" y="61.174"/><use xlink:href="#aF" x="355.266" y="61.174"/><use xlink:href="#aX" x="360.873" y="61.174"/><use xlink:href="#ax" x="366.874" y="61.174"/><use xlink:href="#au" x="369.624" y="61.174"/><use xlink:href="#ax" x="374.824" y="61.174"/><use xlink:href="#as" x="377.574" y="61.174"/><use xlink:href="#aJ" x="382.774" y="61.174"/><use xlink:href="#am" x="263.87" y="72.733" fill="red"/><use xlink:href="#at" x="263.87" y="82.818"/><use xlink:href="#aF" x="266.954" y="82.818"/><use xlink:href="#aS" x="272.561" y="82.818"/><use xlink:href="#aX" x="278.24" y="82.818"/><use xlink:href="#aD" x="283.919" y="82.818"/><use xlink:href="#aB" x="293.172" y="82.818"/><use xlink:href="#aS" x="297.655" y="82.818"/><use xlink:href="#aF" x="303.333" y="82.818"/><use xlink:href="#az" x="308.94" y="82.818"/><use xlink:href="#aF" x="314.021" y="82.818"/><use xlink:href="#aA" x="319.628" y="82.818"/><use xlink:href="#ax" x="325.63" y="82.818"/><use xlink:href="#aA" x="332.277" y="82.818"/><use xlink:href="#aF" x="338.278" y="82.818"/><use xlink:href="#az" x="347.782" y="82.818"/><use xlink:href="#aF" x="352.863" y="82.818"/><use xlink:href="#aX" x="358.47" y="82.818"/><use xlink:href="#ax" x="364.471" y="82.818"/><use xlink:href="#au" x="367.221" y="82.818"/><use xlink:href="#ax" x="372.421" y="82.818"/><use xlink:href="#as" x="375.171" y="82.818"/><use xlink:href="#aJ" x="380.371" y="82.818"/><use xlink:href="#aE" x="263.87" y="94.376" fill="red"/><use xlink:href="#at" x="263.87" y="104.462"/><use xlink:href="#aF" x="266.954" y="104.462"/><use xlink:href="#aS" x="272.561" y="104.462"/><use xlink:href="#aX" x="278.24" y="104.462"/><use xlink:href="#aD" x="283.919" y="104.462"/><use xlink:href="#aB" x="293.172" y="104.462"/><use xlink:href="#aS" x="297.655" y="104.462"/><use xlink:href="#aF" x="303.333" y="104.462"/><use xlink:href="#az" x="308.94" y="104.462"/><use xlink:href="#aF" x="314.021" y="104.462"/><use xlink:href="#aA" x="319.628" y="104.462"/><use xlink:href="#ax" x="325.63" y="104.462"/><use xlink:href="#aA" x="332.277" y="104.462"/><use xlink:href="#aF" x="338.278" y="104.462"/><use xlink:href="#az" x="347.782" y="104.462"/><use xlink:href="#aF" x="352.863" y="104.462"/><use xlink:href="#aX" x="358.47" y="104.462"/><use xlink:href="#ax" x="364.471" y="104.462"/><use xlink:href="#au" x="367.221" y="104.462"/><use xlink:href="#ax" x="372.421" y="104.462"/><use xlink:href="#as" x="375.171" y="104.462"/><use xlink:href="#aJ" x="380.371" y="104.462"/><use xlink:href="#am" x="263.87" y="116.02" fill="red"/><use xlink:href="#at" x="263.87" y="126.105"/><use xlink:href="#aF" x="266.954" y="126.105"/><use xlink:href="#aS" x="272.561" y="126.105"/><use xlink:href="#aX" x="278.24" y="126.105"/><use xlink:href="#aD" x="283.919" y="126.105"/><use xlink:href="#aB" x="293.172" y="126.105"/><use xlink:href="#aS" x="297.655" y="126.105"/><use xlink:href="#aF" x="303.333" y="126.105"/><use xlink:href="#az" x="308.94" y="126.105"/><use xlink:href="#aF" x="314.021" y="126.105"/><use xlink:href="#aA" x="319.628" y="126.105"/><use xlink:href="#ax" x="325.63" y="126.105"/><use xlink:href="#aA" x="332.277" y="126.105"/><use xlink:href="#aF" x="338.278" y="126.105"/><use xlink:href="#az" x="347.782" y="126.105"/><use xlink:href="#aF" x="352.863" y="126.105"/><use xlink:href="#aX" x="358.47" y="126.105"/><use xlink:href="#ax" x="364.471" y="126.105"/><use xlink:href="#au" x="367.221" y="126.105"/><use xlink:href="#ax" x="372.421" y="126.105"/><use xlink:href="#as" x="375.171" y="126.105"/><use xlink:href="#aO" x="380.371" y="126.105"/><use xlink:href="#al" x="247.359" y="147.749"/><use xlink:href="#bb" x="263.87" y="147.749"/><use xlink:href="#az" x="271.844" y="147.749"/><use xlink:href="#aA" x="276.925" y="147.749"/><use xlink:href="#aF" x="282.926" y="147.749"/><use xlink:href="#aA" x="288.533" y="147.749"/><use xlink:href="#ax" x="294.535" y="147.749"/><use xlink:href="#az" x="263.87" y="169.393"/><use xlink:href="#aF" x="268.951" y="169.393"/><use xlink:href="#aw" x="278.455" y="169.393"/><use xlink:href="#ax" x="286.417" y="169.393"/><use xlink:href="#ap" x="289.167" y="169.393"/><use xlink:href="#aq" x="295.168" y="169.393"/><use xlink:href="#aE" x="301.026" y="159.307" fill="red"/><use xlink:href="#aw" x="301.026" y="169.393"/><use xlink:href="#ax" x="308.988" y="169.393"/><use xlink:href="#aB" x="311.738" y="169.393"/><use xlink:href="#aS" x="316.221" y="169.393"/><use xlink:href="#aq" x="321.577" y="169.393"/><use xlink:href="#aJ" x="327.435" y="169.393"/><use xlink:href="#ap" x="263.87" y="191.036"/><use xlink:href="#ay" x="269.871" y="191.036"/><use xlink:href="#aF" x="272.621" y="191.036"/><use xlink:href="#am" x="282.125" y="180.951" fill="red"/><use xlink:href="#aH" x="282.125" y="191.036"/><use xlink:href="#aw" x="286.608" y="191.036"/><use xlink:href="#ax" x="294.57" y="191.036"/><use xlink:href="#aF" x="297.32" y="191.036"/><use xlink:href="#ar" x="302.927" y="191.036"/><use xlink:href="#aF" x="307.159" y="191.036"/><use xlink:href="#aJ" x="312.766" y="191.036"/><use xlink:href="#ap" x="263.87" y="212.68"/><use xlink:href="#ay" x="269.871" y="212.68"/><use xlink:href="#aF" x="272.621" y="212.68"/><use xlink:href="#aE" x="282.125" y="202.595" fill="red"/><use xlink:href="#aF" x="282.125" y="212.68"/><use xlink:href="#aA" x="287.732" y="212.68"/><use xlink:href="#ax" x="293.733" y="212.68"/><use xlink:href="#aq" x="296.483" y="212.68"/><use xlink:href="#aM" x="302.341" y="212.68"/><use xlink:href="#aN" x="305.772" y="212.68"/><use xlink:href="#aw" x="311.307" y="212.68"/><use xlink:href="#ax" x="263.87" y="234.324"/><use xlink:href="#ap" x="270.517" y="234.324"/><use xlink:href="#ay" x="276.518" y="234.324"/><use xlink:href="#aF" x="279.268" y="234.324"/><use xlink:href="#bc" x="288.772" y="224.238" fill="red"/><use xlink:href="#ay" x="288.772" y="234.324"/><use xlink:href="#aR" x="291.522" y="234.324"/><use xlink:href="#ap" x="297.523" y="234.324"/><use xlink:href="#az" x="303.524" y="234.324"/><use xlink:href="#ax" x="308.605" y="234.324"/><use xlink:href="#aJ" x="311.355" y="234.324"/><use xlink:href="#ax" x="263.87" y="255.967"/><use xlink:href="#ap" x="270.517" y="255.967"/><use xlink:href="#ay" x="276.518" y="255.967"/><use xlink:href="#aF" x="279.268" y="255.967"/><use xlink:href="#bd" x="288.772" y="245.882" fill="red"/><use xlink:href="#ay" x="288.772" y="255.967"/><use xlink:href="#aR" x="291.522" y="255.967"/><use xlink:href="#ap" x="297.523" y="255.967"/><use xlink:href="#az" x="303.524" y="255.967"/><use xlink:href="#ax" x="308.605" y="255.967"/><use xlink:href="#aO" x="311.355" y="255.967"/><use xlink:href="#aP" x="244" y="277.611"/><use xlink:href="#aE" x="263.87" y="267.525" fill="red"/><use xlink:href="#ba" x="263.87" y="277.611"/><use xlink:href="#aF" x="269.357" y="277.611"/><use xlink:href="#aS" x="274.964" y="277.611"/><use xlink:href="#aX" x="280.643" y="277.611"/><use xlink:href="#aD" x="286.321" y="277.611"/><use xlink:href="#aB" x="295.575" y="277.611"/><use xlink:href="#aS" x="300.058" y="277.611"/><use xlink:href="#aF" x="305.736" y="277.611"/><use xlink:href="#az" x="311.343" y="277.611"/><use xlink:href="#aF" x="316.424" y="277.611"/><use xlink:href="#aA" x="322.031" y="277.611"/><use xlink:href="#ax" x="328.032" y="277.611"/><use xlink:href="#aA" x="334.679" y="277.611"/><use xlink:href="#aF" x="340.681" y="277.611"/><use xlink:href="#az" x="350.185" y="277.611"/><use xlink:href="#aF" x="355.266" y="277.611"/><use xlink:href="#aX" x="360.873" y="277.611"/><use xlink:href="#ax" x="366.874" y="277.611"/><use xlink:href="#au" x="369.624" y="277.611"/><use xlink:href="#ax" x="374.824" y="277.611"/><use xlink:href="#as" x="377.574" y="277.611"/><use xlink:href="#aJ" x="382.774" y="277.611"/><use xlink:href="#am" x="263.87" y="289.169" fill="red"/><use xlink:href="#at" x="263.87" y="299.254"/><use xlink:href="#aF" x="266.954" y="299.254"/><use xlink:href="#aS" x="272.561" y="299.254"/><use xlink:href="#aX" x="278.24" y="299.254"/><use xlink:href="#aD" x="283.919" y="299.254"/><use xlink:href="#aB" x="293.172" y="299.254"/><use xlink:href="#aS" x="297.655" y="299.254"/><use xlink:href="#aF" x="303.333" y="299.254"/><use xlink:href="#az" x="308.94" y="299.254"/><use xlink:href="#aF" x="314.021" y="299.254"/><use xlink:href="#aA" x="319.628" y="299.254"/><use xlink:href="#ax" x="325.63" y="299.254"/><use xlink:href="#aA" x="332.277" y="299.254"/><use xlink:href="#aF" x="338.278" y="299.254"/><use xlink:href="#az" x="347.782" y="299.254"/><use xlink:href="#aF" x="352.863" y="299.254"/><use xlink:href="#aX" x="358.47" y="299.254"/><use xlink:href="#ax" x="364.471" y="299.254"/><use xlink:href="#au" x="367.221" y="299.254"/><use xlink:href="#ax" x="372.421" y="299.254"/><use xlink:href="#as" x="375.171" y="299.254"/><use xlink:href="#aJ" x="380.371" y="299.254"/><use xlink:href="#aE" x="263.87" y="310.813" fill="red"/><use xlink:href="#at" x="263.87" y="320.898"/><use xlink:href="#aF" x="266.954" y="320.898"/><use xlink:href="#aS" x="272.561" y="320.898"/><use xlink:href="#aX" x="278.24" y="320.898"/><use xlink:href="#aD" x="283.919" y="320.898"/><use xlink:href="#aB" x="293.172" y="320.898"/><use xlink:href="#aS" x="297.655" y="320.898"/><use xlink:href="#aF" x="303.333" y="320.898"/><use xlink:href="#az" x="308.94" y="320.898"/><use xlink:href="#aF" x="314.021" y="320.898"/><use xlink:href="#aA" x="319.628" y="320.898"/><use xlink:href="#ax" x="325.63" y="320.898"/><use xlink:href="#aA" x="332.277" y="320.898"/><use xlink:href="#aF" x="338.278" y="320.898"/><use xlink:href="#az" x="347.782" y="320.898"/><use xlink:href="#aF" x="352.863" y="320.898"/><use xlink:href="#aX" x="358.47" y="320.898"/><use xlink:href="#ax" x="364.471" y="320.898"/><use xlink:href="#au" x="367.221" y="320.898"/><use xlink:href="#ax" x="372.421" y="320.898"/><use xlink:href="#as" x="375.171" y="320.898"/><use xlink:href="#aJ" x="380.371" y="320.898"/><use xlink:href="#am" x="263.87" y="332.456" fill="red"/><use xlink:href="#at" x="263.87" y="342.542"/><use xlink:href="#aF" x="266.954" y="342.542"/><use xlink:href="#aS" x="272.561" y="342.542"/><use xlink:href="#aX" x="278.24" y="342.542"/><use xlink:href="#aD" x="283.919" y="342.542"/><use xlink:href="#aB" x="293.172" y="342.542"/><use xlink:href="#aS" x="297.655" y="342.542"/><use xlink:href="#aF" x="303.333" y="342.542"/><use xlink:href="#az" x="308.94" y="342.542"/><use xlink:href="#aF" x="314.021" y="342.542"/><use xlink:href="#aA" x="319.628" y="342.542"/><use xlink:href="#ax" x="325.63" y="342.542"/><use xlink:href="#aA" x="332.277" y="342.542"/><use xlink:href="#aF" x="338.278" y="342.542"/><use xlink:href="#az" x="347.782" y="342.542"/><use xlink:href="#aF" x="352.863" y="342.542"/><use xlink:href="#aX" x="358.47" y="342.542"/><use xlink:href="#ax" x="364.471" y="342.542"/><use xlink:href="#au" x="367.221" y="342.542"/><use xlink:href="#ax" x="372.421" y="342.542"/><use xlink:href="#as" x="375.171" y="342.542"/><use xlink:href="#aO" x="380.371" y="342.542"/><use xlink:href="#aP" x="244" y="364.185"/><use xlink:href="#aY" x="263.87" y="364.185"/><use xlink:href="#ar" x="270.374" y="364.185"/><use xlink:href="#aF" x="274.606" y="364.185"/><use xlink:href="#ay" x="280.212" y="364.185"/><use xlink:href="#ax" x="282.962" y="364.185"/><use xlink:href="#aH" x="285.712" y="364.185"/><use xlink:href="#aC" x="290.195" y="364.185"/><use xlink:href="#aD" x="299.448" y="364.185"/><use xlink:href="#aB" x="308.701" y="364.185"/><use xlink:href="#ax" x="313.184" y="364.185"/><use xlink:href="#aT" x="315.934" y="364.185"/><use xlink:href="#aE" x="325.032" y="354.1" fill="red"/><use xlink:href="#aH" x="325.032" y="364.185"/><use xlink:href="#aC" x="329.515" y="364.185"/><use xlink:href="#ax" x="338.768" y="364.185"/><use xlink:href="#as" x="341.518" y="364.185"/><use xlink:href="#au" x="346.718" y="364.185"/><use xlink:href="#ax" x="351.919" y="364.185"/><use xlink:href="#as" x="354.668" y="364.185"/><use xlink:href="#aC" x="359.869" y="364.185"/><use xlink:href="#aJ" x="369.122" y="364.185"/><use xlink:href="#aB" x="263.87" y="385.829"/><use xlink:href="#ar" x="268.353" y="385.829"/><use xlink:href="#aF" x="272.585" y="385.829"/><use xlink:href="#ay" x="278.192" y="385.829"/><use xlink:href="#ax" x="280.942" y="385.829"/><use xlink:href="#aH" x="283.691" y="385.829"/><use xlink:href="#aC" x="288.175" y="385.829"/><use xlink:href="#aD" x="297.428" y="385.829"/><use xlink:href="#aB" x="306.681" y="385.829"/><use xlink:href="#ax" x="311.164" y="385.829"/><use xlink:href="#aT" x="313.914" y="385.829"/><use xlink:href="#am" x="323.012" y="375.744" fill="red"/><use xlink:href="#aH" x="323.012" y="385.829"/><use xlink:href="#aC" x="327.495" y="385.829"/><use xlink:href="#ax" x="336.748" y="385.829"/><use xlink:href="#as" x="339.498" y="385.829"/><use xlink:href="#au" x="344.698" y="385.829"/><use xlink:href="#ax" x="349.899" y="385.829"/><use xlink:href="#as" x="352.648" y="385.829"/><use xlink:href="#aC" x="357.849" y="385.829"/><use xlink:href="#aJ" x="367.102" y="385.829"/><use xlink:href="#aB" x="263.87" y="407.473"/><use xlink:href="#ar" x="268.353" y="407.473"/><use xlink:href="#aF" x="272.585" y="407.473"/><use xlink:href="#ay" x="278.192" y="407.473"/><use xlink:href="#ax" x="280.942" y="407.473"/><use xlink:href="#aH" x="283.691" y="407.473"/><use xlink:href="#aC" x="288.175" y="407.473"/><use xlink:href="#aD" x="297.428" y="407.473"/><use xlink:href="#aB" x="306.681" y="407.473"/><use xlink:href="#ax" x="311.164" y="407.473"/><use xlink:href="#aT" x="313.914" y="407.473"/><use xlink:href="#aE" x="323.012" y="397.387" fill="red"/><use xlink:href="#aH" x="323.012" y="407.473"/><use xlink:href="#aC" x="327.495" y="407.473"/><use xlink:href="#ax" x="336.748" y="407.473"/><use xlink:href="#as" x="339.498" y="407.473"/><use xlink:href="#au" x="344.698" y="407.473"/><use xlink:href="#ax" x="349.899" y="407.473"/><use xlink:href="#as" x="352.648" y="407.473"/><use xlink:href="#aC" x="357.849" y="407.473"/><use xlink:href="#aJ" x="367.102" y="407.473"/><use xlink:href="#aH" x="263.87" y="429.116"/><use xlink:href="#aC" x="268.353" y="429.116"/><use xlink:href="#ax" x="277.606" y="429.116"/><use xlink:href="#as" x="280.356" y="429.116"/><use xlink:href="#au" x="285.556" y="429.116"/><use xlink:href="#ax" x="290.757" y="429.116"/><use xlink:href="#as" x="293.506" y="429.116"/><use xlink:href="#aC" x="298.707" y="429.116"/><use xlink:href="#ar" x="311.857" y="429.116"/><use xlink:href="#as" x="316.089" y="429.116"/><use xlink:href="#aG" x="321.29" y="429.116"/><use xlink:href="#aq" x="327.148" y="429.116"/><use xlink:href="#am" x="336.904" y="419.031" fill="red"/><use xlink:href="#aH" x="336.904" y="429.116"/><use xlink:href="#aw" x="341.387" y="429.116"/><use xlink:href="#ax" x="349.349" y="429.116"/><use xlink:href="#aF" x="352.099" y="429.116"/><use xlink:href="#ar" x="357.706" y="429.116"/><use xlink:href="#aF" x="361.938" y="429.116"/><use xlink:href="#aE" x="263.87" y="440.675" fill="red"/><use xlink:href="#ax" x="263.87" y="450.76"/><use xlink:href="#aq" x="270.517" y="450.76"/><use xlink:href="#ap" x="276.698" y="450.76"/><use xlink:href="#aK" x="282.699" y="450.76"/><use xlink:href="#aF" x="286.68" y="450.76"/><use xlink:href="#az" x="292.287" y="450.76"/><use xlink:href="#aV" x="297.368" y="450.76"/><use xlink:href="#ap" x="306.872" y="450.76"/><use xlink:href="#ay" x="312.874" y="450.76"/><use xlink:href="#aF" x="315.623" y="450.76"/><use xlink:href="#am" x="325.128" y="440.675" fill="red"/><use xlink:href="#aw" x="325.128" y="450.76"/><use xlink:href="#aB" x="333.09" y="450.76"/><use xlink:href="#az" x="337.573" y="450.76"/><use xlink:href="#aD" x="342.654" y="450.76"/><use xlink:href="#aB" x="348.01" y="450.76"/><use xlink:href="#ar" x="352.493" y="450.76"/><use xlink:href="#aS" x="356.725" y="450.76"/><use xlink:href="#ax" x="362.404" y="450.76"/><use xlink:href="#au" x="365.153" y="450.76"/><use xlink:href="#av" x="370.354" y="450.76"/><use xlink:href="#aO" x="376.355" y="450.76"/><g clip-path="url(#be)"><path fill="url(#bf)" d="M15.023 579.684v-11.336h388.063v11.336Zm0 0"/></g><use xlink:href="#bg" x="387.641" y="577.985"/><use xlink:href="#bg" x="394.372" y="577.985"/><path fill="#f2f2f2" stroke="#000" stroke-miterlimit="10" stroke-width=".797" d="M196.602 576.055v-3.989a2.99 2.99 0 0 1 2.988-2.988h18.93a2.99 2.99 0 0 1 2.988 2.988v3.989a2.99 2.99 0 0 1-2.988 2.988h-18.93a2.99 2.99 0 0 1-2.988-2.988Zm0 0"/><use xlink:href="#bh" x="198.439" y="576.948"/><use xlink:href="#bi" x="203.747" y="576.948"/><use xlink:href="#bi" x="209.055" y="576.948"/><use xlink:href="#bj" x="214.363" y="576.948"/><use xlink:href="#bk" x="17.008" y="577.985"/><use xlink:href="#bl" x="20.976" y="577.985"/><use xlink:href="#bm" x="27.629" y="577.985"/><use xlink:href="#bn" x="29.882" y="577.985"/><use xlink:href="#bl" x="33.85" y="577.985"/><use xlink:href="#bo" x="37.818" y="577.985"/><use xlink:href="#bp" x="41.787" y="577.985"/><use xlink:href="#bq" x="46.724" y="577.985"/><use xlink:href="#bn" x="57.353" y="577.985"/><use xlink:href="#br" x="61.321" y="577.985"/><use xlink:href="#bs" x="67.974" y="577.985"/><use xlink:href="#bn" x="73.539" y="577.985"/><use xlink:href="#bt" x="77.508" y="577.985"/><use xlink:href="#bn" x="81.476" y="577.985"/><use xlink:href="#bl" x="85.444" y="577.985"/><use xlink:href="#bq" x="92.097" y="577.985"/><use xlink:href="#bu" x="102.725" y="577.985"/><use xlink:href="#bv" x="108.388" y="577.985"/><use xlink:href="#bw" x="112.789" y="577.985"/><use xlink:href="#bx" x="118.263" y="577.985"/><use xlink:href="#by" x="121.806" y="577.985"/><use xlink:href="#bz" x="125.991" y="577.985"/><use xlink:href="#bn" x="131.786" y="577.985"/><use xlink:href="#bt" x="135.754" y="577.985"/><use xlink:href="#bn" x="139.723" y="577.985"/><use xlink:href="#bk" x="143.691" y="577.985"/></svg>