<svg xmlns="http://www.w3.org/2000/svg" xmlns:xlink="http://www.w3.org/1999/xlink" width="559.371" height="793.701" viewBox="0 0 419.528 595.276"><defs><path id="a" d="m8.844-5.266-.235-2.828H.734l-.25 2.828h.5c.11-1.296.204-2.312 1.938-2.312h.969v7.062H2.078V0l2.594-.031L7.266 0v-.516H5.469v-7.062h.953c1.719 0 1.812 1 1.922 2.312Zm0 0"/><path id="b" d="M6.469-.266c0-.25-.11-.25-.282-.25-.75-.015-.75-.203-.75-.468v-2.594c0-1.094-.875-1.844-2.562-1.844-.656 0-2.078.063-2.078 1.078 0 .5.39.703.703.703.36 0 .719-.25.719-.703a.65.65 0 0 0-.297-.562c.39-.11.687-.11.906-.11.813 0 1.313.454 1.313 1.438v.469C2.25-3.11.344-2.58.344-1.25.344-.172 1.734.078 2.563.078c.921 0 1.5-.515 1.734-1.031 0 .437 0 .953 1.219.953h.609c.25 0 .344 0 .344-.266M4.14-1.656C4.14-.531 3.125-.328 2.75-.328c-.594 0-1.078-.39-1.078-.938 0-1.093 1.297-1.453 2.469-1.515Zm0 0"/><path id="c" d="M7-2.672c0-1.625-1.125-2.703-2.75-2.703-.719 0-1.281.219-1.766.61v-3.532l-2.062.094v.515c.734 0 .828 0 .828.47V0h.5c.203-.234.406-.453.594-.687.61.625 1.265.765 1.75.765C5.734.078 7-.938 7-2.672m-1.437 0c0 .531 0 1.219-.282 1.656-.375.579-.937.688-1.312.688-.813 0-1.25-.563-1.422-.828v-3.047a1.93 1.93 0 0 1 1.547-.781c1.468 0 1.468 1.515 1.468 2.312m0 0"/><path id="d" d="M5.75-1.406c0-.172-.187-.172-.25-.172-.187 0-.203.031-.281.187-.313.782-1.094 1.032-1.672 1.032-1.735 0-1.735-1.61-1.735-2.282h3.594c.266 0 .344 0 .344-.296 0-.36-.078-1.266-.64-1.813-.5-.516-1.173-.672-1.86-.672-1.86 0-2.875 1.219-2.875 2.734C.375-1.016 1.609.079 3.406.079 5.22.078 5.75-1.187 5.75-1.406M4.656-2.984H1.813c.015-.5.03-.953.28-1.391a1.32 1.32 0 0 1 1.157-.64c1.281 0 1.39 1.437 1.406 2.03m0 0"/><path id="e" d="M3.422 0v-.516h-.828v-7.78L.53-8.204v.515c.735 0 .813 0 .813.47v6.702H.53V0C.797-.031 1.656-.031 1.97-.031c.328 0 1.172 0 1.453.031m0 0"/><path id="f" d="M5.594-1.406c0-.14-.125-.14-.25-.14-.188 0-.203.015-.266.155-.078.235-.406 1.032-1.5 1.032-1.687 0-1.687-1.813-1.687-2.36 0-.703.015-2.265 1.578-2.265.078 0 .781.03.781.078 0 0 0 .031-.031.047a.73.73 0 0 0-.188.515c0 .5.407.703.703.703.25 0 .704-.156.704-.718 0-.985-1.375-1.063-2.016-1.063-2.125 0-2.969 1.39-2.969 2.766 0 1.625 1.14 2.734 2.89 2.734 1.876 0 2.25-1.39 2.25-1.484m0 0"/><path id="g" d="M7.172 0v-.516h-.828v-3.14c0-1.14-.485-1.719-1.797-1.719a2.15 2.15 0 0 0-1.969 1.203h-.015v-4.125L.5-8.203v.515c.75 0 .828 0 .828.47v6.702H.5V0c.281-.031 1.14-.031 1.469-.031.343 0 1.203 0 1.484.031v-.516h-.828v-2.546c0-1.282.953-1.922 1.719-1.922.453 0 .703.28.703 1.187v3.281h-.828V0c.281-.031 1.14-.031 1.468-.031.344 0 1.204 0 1.485.031m0 0"/><path id="h" d="M9.422-4.797v-.516c-.344.032-.5.032-.938.032-.484 0-.64 0-1.078-.032v.516c.11 0 .703 0 .703.156 0 0 0 .032-.046.141L6.797-1.39 5.422-4.798h.687v-.516c-.28.032-1 .032-1.312.032l-1.234-.032v.516h.703c.03.094.093.25.14.36.047.078.157.359.157.421l-.047.141-.907 2.266-1.296-3.188H3v-.516c-.281.032-1.094.032-1.406.032-.39 0-.953 0-1.313-.032v.516h.703L2.813-.234c.078.203.124.297.39.297.125 0 .281 0 .375-.235l1.266-3.172 1.265 3.14c.11.266.235.266.375.266.266 0 .313-.078.391-.296L8.609-4.5c.079-.203.11-.297.813-.297m0 0"/><path id="i" d="M6.797-4.797v-.516c-.406.032-.453.032-.938.032l-1.03-.032v.516s.577 0 .577.156c0 .032-.047.11-.047.141L3.953-1.484 2.422-4.797h.656v-.516c-.281.032-1.094.032-1.422.032-.36 0-1.062 0-1.375-.032v.516h.766L3.266 0c-.063.14-.235.484-.297.64C2.719 1.173 2.344 2 1.5 2c-.047 0-.187 0-.312-.078.015-.016.375-.156.375-.61 0-.39-.282-.64-.641-.64-.375 0-.656.25-.656.656 0 .563.515 1.063 1.234 1.063.984 0 1.625-.891 1.875-1.407L5.922-4.53c.062-.172.11-.266.875-.266m0 0"/><path id="j" d="M4.469-1.484v-.625h-.5v.609c0 .797-.36 1.14-.735 1.14-.718 0-.718-.796-.718-1.078v-3.359H4.25v-.516H2.516v-2.28h-.5c0 1.187-.578 2.374-1.766 2.406v.39h.969v3.328c0 1.266.984 1.547 1.844 1.547.874 0 1.406-.672 1.406-1.562m0 0"/><path id="k" d="M6.328-2.625c0-1.61-1.094-2.797-2.969-2.797-1.953 0-2.984 1.25-2.984 2.797C.375-1.047 1.469.078 3.344.078c1.953 0 2.984-1.187 2.984-2.703m-1.422-.11c0 .985 0 2.376-1.547 2.376S1.813-1.75 1.813-2.734c0-.563 0-1.157.218-1.594.266-.484.797-.688 1.313-.688.687 0 1.11.313 1.312.657.25.422.25 1.047.25 1.625m.157-4.968c0-.36-.329-.719-.688-.719-.281 0-.437.203-.516.297L2.516-6.5l.312.39 1.813-1c.156-.093.422-.234.422-.593m0 0"/><path id="l" d="M6.875 0v-.516c-.187 0-.437 0-.562-.015-.172-.031-.22-.063-.344-.235l-2-2.578 1.5-1.219c.156-.125.281-.234 1.11-.234v-.516c-.313.032-.548.032-1 .032-.313 0-.97 0-1.25-.032v.516c.14 0 .421.047.421.14 0 .048-.062.095-.094.11l-2.172 1.75v-5.5l-2.062.094v.515c.734 0 .828 0 .828.47v6.702H.422V0c.266-.031 1.094-.031 1.422-.031.312 0 1.14 0 1.422.031v-.516h-.828v-1.593c.187-.157.374-.313.64-.516l1.438 1.86c.093.093.093.124.093.124 0 .125-.25.125-.406.125V0c.281-.031 1.063-.031 1.39-.031.61 0 .782 0 1.282.031m0 0"/><path id="m" d="M6.328-2.625c0-1.61-1.094-2.797-2.969-2.797-1.953 0-2.984 1.25-2.984 2.797C.375-1.047 1.469.078 3.344.078c1.953 0 2.984-1.187 2.984-2.703m-1.422-.11c0 .985 0 2.376-1.547 2.376S1.813-1.75 1.813-2.734c0-.563 0-1.157.218-1.594.266-.484.797-.688 1.313-.688.687 0 1.11.313 1.312.657.25.422.25 1.047.25 1.625m0 0"/><path id="n" d="M5.11-4.437c0-.61-.626-.938-1.204-.938-.937 0-1.344.828-1.515 1.328h-.016v-1.328l-1.953.094v.515c.734 0 .828 0 .828.47v3.78H.422V0c.266-.031 1.172-.031 1.5-.031.344 0 1.312 0 1.61.031v-.516H2.483v-2.171c0-.391.079-2.297 1.485-2.297-.172.125-.25.328-.25.547 0 .5.39.703.687.703s.703-.203.703-.703m0 0"/><path id="o" d="M7.047 0v-.516c-.75 0-.828 0-.828-.468v-7.313l-2.078.094v.515c.75 0 .828 0 .828.47v2.406a2.45 2.45 0 0 0-1.61-.563C1.656-5.375.453-4.328.453-2.656.453-.937 1.641.078 3.234.078a2.5 2.5 0 0 0 1.672-.625v.625Zm-2.14-1.203c-.5.719-1.11.875-1.532.875-1.484 0-1.484-1.516-1.484-2.297 0-.562 0-1.172.265-1.625.36-.656 1.078-.734 1.344-.734.5 0 1.016.218 1.406.734Zm0 0"/><path id="p" d="M3.328 0v-.516h-.734v-4.859l-2.031.094v.515c.703 0 .78 0 .78.47v3.78H.532V0c.266-.031 1.094-.031 1.422-.031s1.094 0 1.375.031m-.594-7.266a.867.867 0 0 0-1.734 0c0 .485.406.86.86.86.5 0 .874-.39.874-.86m0 0"/><path id="q" d="M7.172 0v-.516h-.828v-3.14c0-1.14-.485-1.719-1.797-1.719-.86 0-1.61.422-2.016 1.313h-.015v-1.313L.5-5.281v.515c.75 0 .828 0 .828.47v3.78H.5V0c.281-.031 1.14-.031 1.469-.031.343 0 1.203 0 1.484.031v-.516h-.828v-2.546c0-1.282.953-1.922 1.719-1.922.453 0 .703.28.703 1.187v3.281h-.828V0c.281-.031 1.14-.031 1.468-.031.344 0 1.204 0 1.485.031m0 0"/><path id="r" d="M4.844-1.656c0-.578-.313-.969-.547-1.188-.5-.406-.906-.484-1.547-.594-.766-.14-1.484-.265-1.484-.843 0-.782 1.062-.782 1.312-.782 1.328 0 1.406.844 1.422 1.141.016.156.11.156.25.156.25 0 .25-.03.25-.312V-5.11c0-.22 0-.313-.172-.313-.078 0-.094 0-.281.11a1.2 1.2 0 0 1-.234.156c-.329-.188-.782-.266-1.204-.266-.359 0-2.156 0-2.156 1.563 0 1.25 1.485 1.515 1.86 1.578.312.062.718.125.765.125.469.11.953.406.953.906 0 .922-1.093.922-1.343.922-.61 0-1.36-.188-1.704-1.344-.062-.234-.078-.25-.28-.25-.25 0-.25.031-.25.313v1.375c0 .218 0 .312.187.312.078 0 .093 0 .343-.203l.313-.219c.531.422 1.172.422 1.39.422.657 0 2.157-.156 2.157-1.734m0 0"/><path id="s" d="M7-2.672c0-1.64-1.11-2.703-2.719-2.703-.703 0-1.312.234-1.797.625v-.625l-2.062.094v.515c.734 0 .828 0 .828.47v6.109H.422v.5c.266-.016 1.125-.016 1.469-.016.328 0 1.203 0 1.484.015v-.5h-.828V-.483c.297.25.828.562 1.547.562C5.719.078 7-.922 7-2.672m-1.437 0c0 1.735-.86 2.344-1.625 2.344-.5 0-1.016-.25-1.391-.813v-3.046a2 2 0 0 1 1.547-.766c.765 0 1.468.703 1.468 2.281m0 0"/><path id="t" d="M5.406-2.36h-.5c-.093 1.266-.36 1.922-1.875 1.922H1.953l3.313-4.421c.093-.125.093-.157.093-.22 0-.234-.109-.234-.343-.234H.688L.563-3.25h.5c.078-1.14.343-1.656 1.656-1.656h1.078L.484-.484c-.109.14-.109.156-.109.25C.375 0 .485 0 .719 0h4.484Zm0 0"/><path id="u" d="M3.078.531v-5.906l-2.14.094v.515c.203 0 .468 0 .64.016.266.047.266.203.266.453V.531C1.844 1.078 1.704 2 .969 2c-.235 0-.39-.047-.485-.078a.7.7 0 0 0 .297-.578C.781.906.47.64.078.64c-.406 0-.719.28-.719.703C-.64 2.03.11 2.39.97 2.39c1 0 2.11-.625 2.11-1.86m.016-7.797a.867.867 0 0 0-1.735 0c0 .485.407.86.86.86.5 0 .875-.39.875-.86m0 0"/><path id="v" d="M8.438-5.89c0-1.298-1.141-2.313-3.11-2.313H.453v.515H1.72v7.172H.453V0c.344-.031 1.625-.031 2.063-.031.422 0 1.703 0 2.047.031v-.516H3.297V-3.64h2.031c2 0 3.11-1.015 3.11-2.25m-1.688 0c0 .78 0 1.796-1.844 1.796H3.234v-3.593h1.672c1.844 0 1.844.984 1.844 1.796m0 0"/><path id="U" d="M9.547-4.031c0-2.703-1.813-4.172-4.063-4.172H.454v.515h1.265v7.172H.453V0h5.031c2.297 0 4.063-1.469 4.063-4.031m-1.625-.016c0 1.406-.172 2.031-.594 2.594-.422.547-1.219.937-2.297.937H3.234v-7.171h1.797c1.047 0 1.875.406 2.313 1.03.36.485.578 1.079.578 2.61m0 0"/><path id="ad" d="M6.89 0v-.516h-.843L4.03-2.953l1.39-1.594c.126-.156.235-.25 1.22-.25v-.516l-1.094.032c-.344 0-.86 0-1.203-.032v.516c.234 0 .484.063.484.14 0 0-.062.11-.078.141L3.703-3.344 2.516-4.797h.515v-.516c-.281.032-1.094.032-1.422.032-.359 0-1 0-1.328-.032v.516h.844l1.86 2.281-1.547 1.75c-.141.172-.235.25-1.22.25V0l1.11-.031c.344 0 .844 0 1.188.031v-.516c-.235 0-.485-.062-.485-.14 0 0 0-.031.078-.125l1.204-1.344L4.64-.515h-.5V0c.28-.031 1.078-.031 1.422-.031.359 0 .984 0 1.328.031m0 0"/><path id="ae" d="M6.797-4.797v-.516c-.422.032-.453.032-.938.032l-1.03-.032v.516c.327 0 .593.063.593.14 0 0 0 .032-.063.157L3.953-1.437l-1.531-3.36h.656v-.516c-.281.032-1.125.032-1.437.032-.344 0-1.047 0-1.36-.032v.516h.766L3.14-.234c.109.234.14.297.406.297.187 0 .297-.032.39-.266l1.985-4.313c.078-.187.125-.28.875-.28m0 0"/><path id="w" d="M3.61-1.406a.92.92 0 0 0-.266-.672c-.235-.235-.438-.266-.844-.36-.266-.062-.594-.124-.594-.5 0-.171.14-.796.922-.796.281 0 .594.109.688.422-.328.062-.328.359-.328.359 0 .078.046.25.265.25.203 0 .39-.156.39-.485 0-.406-.359-.78-1.015-.78a1.373 1.373 0 0 0-1.437 1.327c0 .704.593.829.875.891.422.094.812.188.812.64 0 .266-.203.985-1.187.985-.235 0-.735-.062-.875-.484.422-.047.422-.422.422-.422 0-.25-.204-.297-.313-.297-.047 0-.437.031-.437.562 0 .5.468.86 1.203.86 1.375 0 1.718-1.094 1.718-1.5m0 0"/><path id="x" d="M3.281-1.297c0-.094-.11-.094-.14-.094-.125 0-.125.032-.188.157-.25.625-.625 1.109-1.047 1.109-.11 0-.25-.016-.25-.375 0-.078.016-.266.063-.453l.656-2.64h.766c.156 0 .265 0 .265-.157 0-.11-.094-.11-.234-.11h-.719l.328-1.328c.031-.125.031-.14.031-.171 0-.157-.109-.25-.25-.25-.25 0-.343.187-.39.343l-.344 1.407h-.766c-.14 0-.25 0-.25.156 0 .11.094.11.235.11h.719l-.641 2.577s-.047.157-.047.297c0 .407.281.813.813.813.906 0 1.39-1.297 1.39-1.39m0 0"/><path id="y" d="M4.469-3.375c0-.39-.422-.594-.907-.594-.53 0-.89.328-1.109.625a.784.784 0 0 0-.781-.625c-.297 0-.516.188-.672.531a5.5 5.5 0 0 0-.281.844c0 .125.11.125.156.125.14 0 .14-.047.188-.219.171-.718.343-1.046.593-1.046.14 0 .235.078.235.359 0 .188-.047.422-.063.453l-.64 2.578c-.047.125-.047.14-.047.188 0 .172.14.25.265.25s.297-.047.375-.328l.578-2.344c.016-.063.407-1.156 1.188-1.156.062 0 .312 0 .5.125a.44.44 0 0 0-.313.422c0 .171.125.28.297.28.235 0 .438-.202.438-.468m0 0"/><path id="z" d="M5.172-1.281c0-.11-.11-.11-.156-.11-.125 0-.141.032-.172.204-.157.593-.313 1.062-.61 1.062C4.063-.125 4-.265 4-.5c0-.078.031-.266.078-.453l.61-2.469c.046-.125.046-.14.046-.187 0-.172-.14-.25-.265-.25-.297 0-.36.265-.375.359l-.64 2.563c-.063.25-.438.812-.97.812-.453 0-.5-.469-.5-.687 0-.485.22-1.094.516-1.938.078-.203.125-.297.125-.484 0-.438-.312-.735-.719-.735-.843 0-1.187 1.313-1.187 1.39 0 .11.11.11.156.11.125 0 .14-.047.172-.156.062-.234.312-1.11.844-1.11.078 0 .187.016.187.25 0 .22-.11.485-.172.657-.406 1.11-.5 1.469-.5 1.875 0 .875.64 1.047 1.047 1.047.375 0 .719-.172 1.016-.531.14.39.453.53.75.53.422 0 .61-.359.672-.5.172-.343.28-.843.28-.874m0 0"/><path id="A" d="M5.406-1.281c0-.11-.11-.11-.156-.11-.125 0-.125.032-.187.22-.079.312-.329 1.046-.813 1.046-.078 0-.203-.016-.203-.25 0-.219.11-.5.187-.703.157-.422.532-1.422.532-1.938 0-.593-.36-.953-.985-.953-.656 0-1.078.406-1.312.688-.078-.453-.422-.688-.797-.688-.297 0-.516.188-.672.531a5.5 5.5 0 0 0-.281.844c0 .125.11.125.156.125.14 0 .14-.047.188-.219.171-.718.343-1.046.593-1.046.14 0 .235.078.235.359 0 .188-.047.422-.063.453l-.64 2.578c-.047.125-.047.14-.047.188 0 .172.14.25.265.25.282 0 .328-.172.453-.672l.188-.766.297-1.172c.031-.109.281-.578.5-.796.14-.126.437-.422.922-.422.328 0 .406.297.406.578 0 .515-.375 1.578-.531 1.984-.11.297-.125.344-.125.531 0 .485.343.735.703.735.86 0 1.187-1.313 1.187-1.375m0 0"/><path id="B" d="M4.86-1.281c0-.11-.126-.11-.157-.11-.14 0-.14.032-.187.204-.141.593-.313 1.062-.61 1.062-.172 0-.234-.14-.234-.375 0-.078.031-.266.078-.453l.594-2.406c.047-.125.047-.141.047-.172 0-.156-.125-.25-.266-.25a.364.364 0 0 0-.36.312c-.093-.172-.328-.5-.78-.5-1 0-2.094 1.313-2.094 2.657 0 .921.53 1.406 1.125 1.406.547 0 .937-.422 1.109-.61.094.391.406.61.781.61.406 0 .594-.36.672-.5a5 5 0 0 0 .281-.875m-1.688.156c-.078.313-.64 1-1.125 1-.5 0-.516-.672-.516-.797 0-.453.266-1.453.39-1.781.235-.578.673-1.031 1.063-1.031.547 0 .625.75.625.812 0 .047 0 .047-.015.14Zm0 0"/><path id="C" d="M6-2.312h-.25c-.219 1.39-.453 2.03-1.984 2.03H2.5c-.422 0-.437-.062-.437-.359v-2.39h.828c.89 0 1 .281 1 1.047h.25V-4.36h-.25c0 .765-.11 1.047-1 1.047h-.828v-2.141c0-.313.015-.375.437-.375h1.203c1.406 0 1.656.484 1.797 1.75h.25L5.5-6.094H.344v.266h.203c.687 0 .703.11.703.437v4.688c0 .328-.016.422-.703.422H.344V0h5.265Zm0 0"/><path id="D" d="M6.594 0v-.281h-.14c-.563 0-.657-.078-.75-.328L3.671-6.234c-.047-.11-.078-.188-.219-.188-.14 0-.156.047-.219.203L1.313-.89c-.11.297-.313.61-1 .61V0c.328-.031.578-.031.906-.031L2.234 0v-.281c-.515 0-.671-.281-.671-.453 0-.079.03-.125.046-.172l.422-1.156h2.313l.484 1.359c.047.078.047.11.047.156 0 .266-.5.266-.734.266V0c.406-.031.875-.031 1.28-.031ZM4.25-2.344H2.125L3.188-5.28Zm0 0"/><path id="E" d="M6.516-3.016c0-1.703-1.235-3.109-2.828-3.109H.358v.281h.204c.687 0 .718.094.718.422v4.719c0 .328-.031.422-.718.422H.359V0h3.329C5.25 0 6.515-1.328 6.515-3.016m-.891 0c0 .375 0 1.313-.484 1.938-.47.61-1.11.797-1.672.797H2.5c-.422 0-.453-.063-.453-.36v-4.843c0-.297.031-.36.453-.36h.953c.875 0 1.406.453 1.656.782.391.515.516 1.156.516 2.046m0 0"/><path id="F" d="M6.766-2.172v-.281c-.578.015-.672.015-1.157.015-.343 0-1.109 0-1.437-.015v.281h.297c.828 0 .86.094.86.438v.562c0 1.094-1.36 1.094-1.485 1.094-.735 0-2.422-.438-2.422-2.984 0-2.5 1.64-2.985 2.375-2.985.89 0 1.828.672 2.047 2.125.015.125.031.156.14.156.157 0 .157-.03.157-.218v-2.11c0-.156 0-.234-.11-.234-.062 0-.093.031-.14.11l-.47.671c-.28-.281-.796-.781-1.702-.781-1.735 0-3.203 1.453-3.203 3.266C.516-1.234 1.969.203 3.734.203c.844 0 1.485-.328 1.735-.766.156.235.484.547.562.547.11 0 .11-.078.11-.218v-1.547c0-.36.03-.39.625-.39m0 0"/><path id="G" d="M6.563 0v-.281h-.204c-.687 0-.703-.094-.703-.422v-4.719c0-.328.016-.422.703-.422h.204v-.281c-.407.031-.907.031-1.313.031-.422 0-.922 0-1.328-.031v.281h.219c.687 0 .703.094.703.422v2.094H2.062v-2.094c0-.328.016-.422.704-.422h.218v-.281c-.406.031-.906.031-1.328.031-.406 0-.906 0-1.312-.031v.281h.203c.687 0 .703.094.703.422v4.719c0 .328-.016.422-.703.422H.344V0c.406-.031.906-.031 1.312-.031.422 0 .922 0 1.328.031v-.281h-.218c-.688 0-.703-.094-.703-.422v-2.344h2.78v2.344c0 .328-.015.422-.702.422h-.22V0c.407-.031.907-.031 1.329-.031.406 0 .906 0 1.313.031m0 0"/><path id="H" d="M5.125-5.422c.047-.219 0-.437-.094-.562-.172-.25-.515-.313-.843-.313-.547 0-1.063.078-1.547.469-.328.266-.578.625-.672.984-.078.344-.078.703.11.953.124.188.358.313.577.407l-.015.078a2.7 2.7 0 0 0-1.328.547C.875-2.5.547-2.031.422-1.547.328-1.14.328-.75.547-.453c.156.187.39.328.625.422.312.11.656.14 1 .14.656 0 1.344-.25 1.937-.718.079-.063.204-.22.282-.344l-.282-.422-.125.016c-.093.25-.234.484-.437.656-.36.281-.75.484-1.156.484-.422 0-.86-.062-1.078-.375-.22-.281-.235-.687-.141-1.094.11-.406.328-.796.687-1.078.25-.203.594-.312.875-.375a5.7 5.7 0 0 1 1.25-.125l.047-.218c-.297 0-.593-.032-.875-.11-.187-.062-.375-.14-.5-.297-.156-.218-.203-.53-.125-.843.11-.391.344-.766.672-1.047.219-.188.516-.235.766-.235.219 0 .36.047.469.157.062.062.109.187.078.359-.047.14-.125.234-.203.328a.53.53 0 0 0-.141.219c-.016.062 0 .14.031.172.047.062.078.078.188.078.109 0 .328-.063.468-.219.172-.156.22-.312.266-.5m0 0"/><path id="J" d="M7.328-6.047v-.172a4 4 0 0 0-.984.188 7 7 0 0 0-.766.375c-.375.234-.672.593-.937.953-.407.562-.75 1.11-1.11 1.703-.39.625-1 1.625-1.187 1.86-.188.218-.406.5-.64.687-.141.11-.266.172-.423.172a.25.25 0 0 1-.203-.094.16.16 0 0 1-.047-.156c.016-.063.047-.14.078-.219.016-.047.047-.11.063-.14.016-.063 0-.126-.031-.157-.047-.078-.141-.125-.25-.125-.094 0-.188 0-.282.078a.7.7 0 0 0-.218.328C.328-.53.344-.312.469-.14c.11.157.297.235.515.235.344 0 .72-.188 1.032-.438.375-.297 1.047-1 1.53-1.765h1.985L5.188-.703a1.5 1.5 0 0 0-.079.437c.016.11.016.204.079.282.046.078.171.125.28.125.22 0 .454-.125.673-.235.328-.187.64-.406.922-.672l-.094-.156c-.157.11-.282.203-.438.297-.11.063-.218.125-.343.125-.079 0-.141-.016-.188-.078-.11-.14-.094-.36-.062-.578.109-.625.265-1.266.406-1.89L7-5.657c.047-.157.078-.25.188-.313Zm-.89.328L5.625-2.5H3.797c.375-.687.75-1.375 1.187-2.031.25-.36.5-.75.86-1.016.172-.14.36-.234.531-.281Zm0 0"/><path id="K" d="M7.328-3.516c.172-.671.219-1.375-.14-1.843-.25-.313-.61-.5-1-.625-.516-.172-1.079-.188-1.657-.188l.047-.219-.047-.03-.625.28c-.656.047-1.406.235-2.062.75-.328.266-.594.625-.672 1-.047.172-.063.344-.016.438a.22.22 0 0 0 .203.125c.11 0 .204-.047.297-.125a.57.57 0 0 0 .172-.297c.047-.187.016-.344.078-.547.047-.187.172-.406.344-.547a2.53 2.53 0 0 1 1.594-.547l-.688 2.782c-.11.437-.219.89-.422 1.312-.109.266-.265.531-.484.719-.469.375-1 .594-1.531.594l-.36.453h2.61c.937 0 1.89-.36 2.719-1.016.812-.656 1.406-1.547 1.64-2.469m-.672.047c-.11.469-.265.938-.515 1.375-.22.36-.47.688-.797.953-.297.25-.64.438-.969.532-.437.125-.875.125-1.297.125H1.984v-.094l.391-.328c.39-.328.703-.75.938-1.172a7.7 7.7 0 0 0 .624-1.703l.516-2.11c.453 0 .86.047 1.25.172.297.094.563.219.75.453.36.47.375 1.141.203 1.797m0 0"/><path id="M" d="M5.75-5.219c.063-.265.031-.484-.11-.672-.218-.296-.734-.359-1.03-.359-.673 0-1.329.172-1.985.61-.547.359-.937.968-1.078 1.562-.125.531-.172 1.094.125 1.484S2.484-2 3.047-2c.453 0 .937-.14 1.375-.406l-.188.86c-.093.39-.25.734-.437 1.093a3.1 3.1 0 0 1-.64.797c-.36.281-.766.484-1.188.484-.266 0-.547-.047-.688-.25-.093-.11-.093-.265-.093-.437.015-.11.015-.25-.047-.328-.032-.063-.11-.094-.203-.094-.11 0-.25.015-.344.11C.5-.095.406.015.39.124a.71.71 0 0 0 .125.672c.203.297.609.375 1.015.375.75 0 1.485-.313 2.157-.844a2.9 2.9 0 0 0 .765-.984 7 7 0 0 0 .594-1.688l.297-1.187-.5.125c-.11.265-.375.61-.516.719-.36.296-.75.421-1.156.421-.36 0-.656-.171-.86-.437-.265-.36-.234-.89-.109-1.39a2.68 2.68 0 0 1 .938-1.454c.359-.281.78-.406 1.172-.406.218 0 .546.094.687.312.11.141.172.297.11.5-.032.172-.094.36-.25.485-.204.156-.407.187-.61.187l-.078.157c.14.03.36.078.406.078.266 0 .531-.141.766-.328.203-.188.343-.422.406-.657m0 0"/><path id="N" d="M5.453-4.969c.078-.328.094-.64-.094-.875-.25-.328-.718-.406-1.187-.406-.703 0-1.438.188-2.063.688a3.7 3.7 0 0 0-.968 1.125 6 6 0 0 0-.625 1.625C.39-2.36.328-1.891.375-1.47c.016.375.11.719.313.985.296.406.796.625 1.359.625.61 0 1.281-.157 1.828-.594.172-.14.313-.313.438-.484L4-1.36l-.11.062c-.124.266-.28.547-.53.734-.297.25-.672.391-1.016.391-.39 0-.719-.187-.922-.469-.219-.28-.313-.64-.344-1-.031-.453.031-.921.156-1.406.125-.5.297-1 .563-1.5a3 3 0 0 1 .766-.953 2.23 2.23 0 0 1 1.39-.469c.313 0 .61.078.781.313.157.218.141.484.079.797-.079.312-.235.656-.532.89a1.12 1.12 0 0 1-.718.281c-.11 0-.25 0-.313-.093-.078-.11-.047-.266.031-.406.063-.125.125-.266.063-.375a.37.37 0 0 0-.266-.094.5.5 0 0 0-.312.093.74.74 0 0 0-.172.329c-.047.203-.031.39.062.515.203.25.531.297.875.297.39 0 .844-.125 1.203-.422s.61-.703.72-1.125m0 0"/><path id="O" d="M3.86-.953c0-.063-.063-.125-.11-.125s-.062.016-.125.094c-.703.89-1.672.89-1.781.89-.703 0-.782-.765-.782-1.047 0-.109 0-.39.141-.937h.469c.266 0 .922-.016 1.375-.203.625-.266.672-.797.672-.922 0-.39-.344-.766-.953-.766-1 0-2.36.875-2.36 2.438C.406-.61.938.094 1.828.094 3.11.094 3.86-.86 3.86-.953m-.438-2.25c0 .937-1.438.937-1.797.937H1.25c.36-1.359 1.281-1.5 1.516-1.5.422 0 .656.266.656.563m0 0"/><path id="P" d="M4.469-1.281c0-.094-.078-.094-.11-.094-.093 0-.093.031-.125.172-.156.578-.312 1.11-.687 1.11-.235 0-.266-.235-.266-.423 0-.187.016-.265.125-.656l.188-.812.328-1.25c.062-.25.062-.266.062-.313 0-.14-.109-.234-.265-.234-.219 0-.344.187-.375.39-.156-.328-.422-.578-.828-.578C1.469-3.969.359-2.64.359-1.344.36-.5.86.094 1.547.094c.187 0 .625-.031 1.172-.672.078.375.39.672.812.672.313 0 .516-.203.672-.485.14-.328.266-.89.266-.89M3.234-2.984c0 .062-.015.109-.03.156l-.438 1.765c-.047.157-.047.172-.188.329-.39.5-.75.64-1.015.64-.438 0-.563-.5-.563-.843 0-.454.281-1.563.484-1.97.282-.53.688-.859 1.047-.859.578 0 .703.735.703.782m0 0"/><path id="Q" d="M4.625-6.125s0-.094-.11-.094c-.14 0-.984.078-1.14.094-.078.016-.125.047-.125.172 0 .11.078.11.219.11.422 0 .437.062.437.155l-.015.172-.547 2.125c-.156-.328-.422-.578-.828-.578C1.469-3.969.359-2.64.359-1.344.36-.5.86.094 1.547.094c.187 0 .625-.031 1.172-.672.078.375.39.672.812.672.313 0 .516-.203.672-.485.14-.328.266-.89.266-.89 0-.094-.078-.094-.11-.094-.093 0-.093.031-.125.172-.156.578-.312 1.11-.687 1.11-.235 0-.266-.235-.266-.423 0-.203.016-.28.063-.421Zm-1.39 3.14c0 .063-.016.11-.032.157l-.437 1.765c-.047.157-.047.172-.188.329-.39.5-.75.64-1.015.64-.438 0-.563-.5-.563-.843 0-.454.281-1.563.484-1.97.282-.53.688-.859 1.047-.859.578 0 .703.735.703.782m0 0"/><path id="R" d="M4.25-3.547c0-.14-.11-.234-.266-.234-.078 0-.328.062-.359.375-.156-.328-.484-.563-.828-.563-1.031 0-2.14 1.266-2.14 2.547C.656-.532 1.202 0 1.843 0c.531 0 .953-.422 1.047-.516L2.594.672c-.031.078-.328.969-1.281.969-.172 0-.47-.016-.72-.094a.49.49 0 0 0 .36-.469.307.307 0 0 0-.328-.312.507.507 0 0 0-.484.53c0 .36.328.548 1.187.548 1.125 0 1.766-.703 1.906-1.25l.985-3.969c.015-.062.031-.11.031-.172M3.516-3c0 .047-.016.11-.032.14l-.421 1.72c-.063.218-.266.452-.47.624-.187.157-.452.313-.718.313-.453 0-.578-.453-.578-.813 0-.437.25-1.5.5-1.953.234-.437.625-.797 1-.797.594 0 .719.72.719.766m0 0"/><path id="S" d="M3.86-.953c0-.063-.063-.125-.11-.125s-.062.016-.125.094c-.703.89-1.672.89-1.781.89-.563 0-.813-.437-.813-.984 0-.36.172-1.234.485-1.797.28-.5.765-.89 1.265-.89.297 0 .64.109.766.359-.14 0-.266 0-.39.125A.48.48 0 0 0 3-2.937c0 .218.156.312.328.312.266 0 .5-.203.5-.562 0-.438-.422-.782-1.062-.782-1.203 0-2.391 1.281-2.391 2.547C.375-.609.891.094 1.828.094 3.11.094 3.86-.86 3.86-.953m0 0"/><path id="V" d="M6.578-4.969c.063-.265.047-.531-.11-.734-.14-.203-.421-.297-.687-.344-.437-.062-.906-.062-1.39-.062l.046-.22-.062-.062-.61.297c-.687.094-1.374.328-1.968.782-.328.28-.61.64-.703 1.03-.047.173-.078.36.031.485.016.063.078.094.14.094.11 0 .25-.063.344-.14.094-.063.125-.173.157-.282.03-.094.015-.156.015-.25s0-.203.016-.297c.062-.25.266-.453.469-.61.437-.343 1.062-.53 1.422-.562L3.03-3.187c-.11.468-.265 1.015-.5 1.468-.125.297-.36.61-.625.828-.39.313-.734.422-1.187.422l-.36.485h2.422c.828 0 1.86-.282 2.61-.875.39-.313.78-.75.89-1.22.094-.327.047-.733-.14-.968-.172-.234-.61-.328-.97-.406l-.015-.078c.266-.125.516-.266.75-.453.36-.282.578-.594.672-.985m-.672.235c-.078.328-.25.578-.547.797-.421.343-.921.468-1.406.468-.078 0-.219-.015-.187-.125l.562-2.281c.328 0 .656.016.969.094.187.047.39.125.5.297.156.187.172.468.11.75M5.61-1.97c-.109.407-.359.844-.687 1.125a1.27 1.27 0 0 1-.61.313c-.359.062-.734.078-1.062.078H1.766l-.032-.078c.407-.235.922-.766 1.22-1.188.296-.453.5-1 .671-1.484.219-.016.422-.031.625-.031.266 0 .531 0 .766.078a.87.87 0 0 1 .468.297c.157.218.188.593.125.89m0 0"/><path id="I" d="M1.5 0a1.5 1.5 0 1 0-3 0 1.5 1.5 0 0 0 3 0m0 0"/><path id="L" d="M1.688 0A1.68 1.68 0 0 0 0-1.687 1.68 1.68 0 0 0-1.687 0c0 .938.75 1.688 1.687 1.688A1.68 1.68 0 0 0 1.688 0m-.391 0C1.297.719.719 1.297 0 1.297A1.294 1.294 0 0 1-1.297 0c0-.719.578-1.297 1.297-1.297S1.297-.719 1.297 0m0 0"/><path id="T" d="M3.266-3.86H1.688c-.235 0-.297 0-.516-.015-.313-.031-.328-.062-.344-.172H.625L.422-2.766h.203c.016-.093.063-.484.172-.546.047-.032.531-.032.61-.032h1.312l-.625.781c-.781 1.032-.86 1.985-.86 2.344 0 .063 0 .344.282.344.297 0 .297-.281.297-.36v-.234c0-1.156.234-1.687.484-2.015l.906-1.125c.063-.079.063-.094.063-.25m0 0"/><path id="W" d="M3.078-1.219c0-.765-.61-1.328-1.312-1.328-.47 0-.735.328-.875.594 0-.5.046-.938.28-1.297.204-.328.517-.547.907-.547.172 0 .422.047.531.203-.14.016-.265.11-.265.297 0 .14.094.281.281.281.172 0 .281-.125.281-.296 0-.344-.25-.657-.844-.657-.859 0-1.734.781-1.734 2.078 0 1.547.719 2.016 1.39 2.016.72 0 1.36-.562 1.36-1.344m-.578 0c0 .344 0 .594-.156.828-.14.204-.344.313-.625.313a.72.72 0 0 1-.672-.438C.969-.687.922-.984.922-1.344c0-.578.344-1.031.812-1.031.282 0 .47.11.625.328.141.235.141.485.141.828m0 0"/><path id="X" d="M3.078-1.969c0-1.484-.656-2-1.36-2-.202 0-.609.031-.952.36-.203.203-.438.437-.438.968 0 .766.594 1.329 1.297 1.329.484 0 .734-.329.875-.594v.125c0 1.484-.734 1.703-1.094 1.703-.125 0-.453 0-.61-.188a.277.277 0 0 0 .266-.28.27.27 0 0 0-.28-.282c-.188 0-.298.11-.298.297 0 .406.344.656.922.656.86 0 1.672-.812 1.672-2.094m-.594-.61c0 .782-.453 1.095-.828 1.095-.234 0-.453-.079-.625-.36-.14-.218-.14-.468-.14-.797 0-.343 0-.578.187-.828.14-.203.328-.328.64-.328.313 0 .485.188.579.344.172.25.187.672.187.875m0 0"/><path id="Y" d="M2-.172v-.14c0-.11 0-.172-.078-.172a1 1 0 0 0-.188.062v-2.094c.032-.015.172-.046.188-.062C1.984-2.594 2-2.61 2-2.75v-.14c0-.11 0-.172-.078-.172A1 1 0 0 0 1.734-3v-1.125c0-.11 0-.156-.062-.156-.094 0-.094.047-.094.156v1.172l-.844.265v-1.124c0-.11 0-.157-.062-.157-.078 0-.078.063-.078.172v1.156a.7.7 0 0 0-.188.063c-.078.015-.078.015-.078.172v.14c0 .11 0 .172.063.172.03 0 .172-.047.203-.062v2.094C.563-.047.422-.016.406 0 .328.016.328.031.328.172v.14c0 .11 0 .172.063.172.03 0 .172-.046.203-.062v.703c0 .11 0 .172.062.172.078 0 .078-.063.078-.172v-.75l.844-.266v.704c0 .109 0 .156.078.156s.078-.047.078-.156v-.75c.032-.016.172-.047.188-.063C1.984-.016 2-.031 2-.172m-.422-.203-.844.266v-2.094l.844-.266Zm0 0"/><path id="Z" d="M3.172-1.594c0-.656-.485-1.047-1.078-1.047-.89 0-1.719.829-1.719 1.657C.375-.391.813.063 1.453.063c.86 0 1.719-.797 1.719-1.657m-.485-.218c0 .156-.078.734-.328 1.156-.234.36-.593.547-.89.547S.875-.297.875-.766c0-.25.11-.843.344-1.171.25-.375.593-.532.875-.532.312 0 .594.219.594.656m0 0"/><path id="aa" d="M3.172-.984v-.22H2.5v-2.655c0-.125 0-.172-.125-.172-.078 0-.094 0-.156.078L.234-1.203v.219H2v.5c0 .203 0 .265-.484.265h-.172V0l.906-.031.89.031v-.219h-.156C2.5-.219 2.5-.28 2.5-.484v-.5Zm-1.14-.22H.452L2.031-3.39Zm0 0"/><path id="ab" d="M4.328-1.5c0-.062-.062-.11-.125-.11H.453c-.062 0-.125.048-.125.11 0 .063.063.125.125.125h3.75a.134.134 0 0 0 .125-.125m0 0"/><path id="ac" d="M2.5 0 1.422-1.172l.984-1.11H1.97l-.735.845-.75-.844H.031l1.032 1.11L0 0h.453l.781-.969.813.969Zm0 0"/><path id="af" d="M4.766-2.016h-.453c-.016.125-.094.766-.235.829-.11.046-.781.046-.937.046H1.859c.485-.39 1.016-.812 1.47-1.125.75-.53 1.437-1.015 1.437-1.89 0-1.047-.953-1.735-2.25-1.735-1.11 0-1.985.532-1.985 1.36 0 .468.36.687.672.687a.65.65 0 0 0 .656-.672c0-.203-.078-.53-.468-.64.312-.25.718-.282.89-.282.735 0 1.203.547 1.203 1.282 0 .656-.375 1.234-.859 1.718l-2 1.985c-.094.094-.094.11-.094.281V0H4.5Zm0 0"/><path id="ag" d="M4.89-2.86c0-.921-.03-3.03-2.234-3.03C.47-5.89.406-3.845.406-2.86c0 .938.031 2.97 2.235 2.97 2.187 0 2.25-1.97 2.25-2.97m-1.202-.109c0 .703 0 1.766-.141 2.11a.96.96 0 0 1-.89.609c-.25 0-.86-.11-.985-.937-.063-.47-.063-1.282-.063-1.782 0-.562 0-1.312.063-1.734.14-.719.734-.828.969-.828.297 0 .859.156.984.843.063.438.063 1.204.063 1.72m0 0"/><path id="ah" d="M4.86-1.844c0-.484-.094-.968-.61-1.437-.469-.39-.937-.485-1.484-.485-.578 0-.922.407-1.063.688v-.156c0-1.125.219-1.485.313-1.641a1.47 1.47 0 0 1 1.218-.656c.172 0 .454.031.672.234-.36.078-.484.344-.484.563 0 .39.297.593.594.593a.57.57 0 0 0 .578-.609c0-.547-.375-1.14-1.375-1.14-1.297 0-2.781.827-2.781 3.046 0 .438.03 1.313.421 1.953.391.688 1.016 1 1.829 1 1.28 0 2.171-.734 2.171-1.953m-1.266-.015c0 .906 0 1.562-.922 1.562-.531 0-.766-.406-.828-.562-.125-.282-.125-1-.125-1.032 0-.921.39-1.515 1.015-1.515.86 0 .86.656.86 1.547m0 0"/><path id="ai" d="M3.516-1.266H3.28c-.015.157-.094.563-.187.625-.047.047-.578.047-.688.047H1.125c.734-.64.984-.843 1.39-1.172.516-.406 1-.843 1-1.5 0-.843-.734-1.359-1.624-1.359-.86 0-1.453.61-1.453 1.25 0 .344.296.39.375.39.156 0 .359-.124.359-.374 0-.125-.047-.375-.406-.375.218-.485.687-.641 1.015-.641.703 0 1.063.547 1.063 1.11 0 .609-.438 1.078-.656 1.328L.516-.266C.437-.203.437-.187.437 0h2.876Zm0 0"/><path id="aj" d="M3.578-2.297c0-1.719-.765-2.328-1.578-2.328a1.55 1.55 0 0 0-1.11.422c-.234.234-.515.5-.515 1.125 0 .89.703 1.547 1.516 1.547.562 0 .859-.375 1.015-.688v.14c0 1.735-.844 2-1.265 2-.157 0-.532-.015-.72-.233a.315.315 0 0 0 .313-.329.32.32 0 0 0-.328-.328c-.203 0-.328.14-.328.344 0 .469.39.766 1.063.766 1 0 1.937-.938 1.937-2.438M2.891-3c0 .906-.516 1.266-.953 1.266-.282 0-.532-.079-.735-.407-.156-.25-.156-.546-.156-.937 0-.406 0-.672.203-.953.172-.25.39-.39.75-.39s.578.218.688.405c.187.282.203.782.203 1.016m0 0"/><path id="ak" d="M2.516 0v-.25h-.172c-.578 0-.578-.078-.578-.328v-3.61c0-.234 0-.328.578-.328h.172v-.25l-1.078.032-1.079-.032v.25h.172c.578 0 .578.094.578.329v3.609c0 .25 0 .328-.578.328H.36V0l1.079-.031Zm0 0"/><path id="al" d="M3.594-2.219c0-.765-.094-1.328-.406-1.812-.22-.313-.657-.594-1.204-.594C.36-4.625.36-2.719.36-2.219s0 2.36 1.625 2.36c1.61 0 1.61-1.86 1.61-2.36m-.625-.094c0 .516 0 1.032-.094 1.47-.14.64-.61.78-.89.78-.329 0-.75-.187-.891-.75C1-1.219 1-1.796 1-2.312c0-.515 0-1.046.094-1.421.156-.547.593-.703.89-.703.375 0 .735.234.86.64.11.375.125.875.125 1.485m0 0"/><path id="am" d="M3.578-1.422c0-.89-.703-1.547-1.515-1.547-.563 0-.86.375-1.016.688 0-.563.047-1.078.312-1.516.235-.375.61-.625 1.063-.625.203 0 .484.047.625.234-.172.016-.328.141-.328.344a.32.32 0 0 0 .328.328c.219 0 .344-.14.344-.343 0-.407-.297-.766-.985-.766-1 0-2.031.922-2.031 2.422C.375-.406 1.219.14 2 .14c.844 0 1.578-.657 1.578-1.563m-.672 0c0 .39 0 .688-.187.969A.82.82 0 0 1 2-.078c-.36 0-.625-.203-.781-.516-.094-.203-.157-.562-.157-.968 0-.688.407-1.204.97-1.204.312 0 .53.125.702.375.172.266.172.563.172.97m0 0"/><path id="an" d="M7.813-1.75v-.203H.109v.203Zm0 0"/><path id="ao" d="M5.547 0v-.25h-.125c-.469 0-.516-.078-.594-.266L3.125-4.812c-.031-.11-.062-.157-.187-.157-.141 0-.157.047-.204.157L1.125-.734C1.063-.562.938-.25.313-.25V0c.234-.016.484-.031.718-.031.282 0 .797.031.844.031v-.25c-.312 0-.516-.14-.516-.328 0-.063.016-.078.047-.14l.328-.86H3.72l.406 1.016c0 .03.031.078.031.109 0 .203-.375.203-.562.203V0l1.031-.031c.328 0 .86.031.922.031M3.609-1.828H1.83l.89-2.266Zm0 0"/><path id="ap" d="M4.047 0v-.25c-.469 0-.516-.047-.516-.39v-4.204l-1.047.078v.25c.47 0 .516.063.516.391v1.453a1.37 1.37 0 0 0-.969-.406c-.937 0-1.703.703-1.703 1.578S1.062.063 1.938.063c.578 0 .921-.297 1.03-.422v.422ZM2.969-.734c-.172.328-.531.609-.985.609-.39 0-.671-.234-.812-.437-.14-.204-.219-.485-.219-.922 0-.172 0-.688.281-1.016.282-.312.625-.375.829-.375.328 0 .64.156.828.406.078.11.078.11.078.25Zm0 0"/><path id="aq" d="M5.469-2.75V-3c-.188.016-.313.031-.5.031-.219 0-.485-.015-.688-.031v.25c.235 0 .36.14.36.297 0 .062 0 .078-.047.172L3.922-.547l-.75-1.906a.3.3 0 0 1-.031-.125c0-.156.172-.172.375-.172V-3c-.25.016-.5.031-.75.031-.203 0-.422-.015-.625-.031v.25c.172 0 .312 0 .406.047.094.078.156.312.156.312s-.015.063-.031.079L2.016-.641l-.703-1.812c-.032-.094-.032-.094-.032-.125 0-.172.25-.172.375-.172V-3s-.515.031-.797.031C.641-2.969.422-2.984.203-3v.25c.281 0 .438 0 .5.203l.969 2.453c.047.11.062.157.203.157.125 0 .14-.047.172-.141l.797-1.984.765 1.968c.047.094.063.157.204.157.124 0 .14-.047.187-.157l.875-2.234c.14-.344.375-.422.594-.422m0 0"/><path id="ar" d="M3.266-.844c0-.015-.016-.094-.125-.094-.094 0-.11.047-.125.11-.22.562-.75.672-1 .672-.328 0-.641-.14-.844-.406-.266-.329-.266-.75-.266-1.032h2.157c.156 0 .203 0 .203-.14 0-.625-.344-1.375-1.391-1.375a1.59 1.59 0 0 0-1.61 1.578c0 .89.782 1.594 1.704 1.594.937 0 1.297-.75 1.297-.907m-.485-.922H.906c.078-.984.703-1.14.969-1.14.86 0 .89.969.906 1.14m0 0"/><path id="as" d="M4.11 0v-.25c-.454 0-.516 0-.516-.297v-1.562c0-.61-.297-.97-1.047-.97-.578 0-.938.313-1.14.688v-.687L.374-3v.25c.469 0 .531.047.531.39v1.813c0 .297-.078.297-.531.297V0s.5-.031.797-.031c.25 0 .734.031.797.031v-.25c-.453 0-.516 0-.516-.297v-1.265c0-.72.578-1.063 1.031-1.063.485 0 .547.375.547.734v1.594c0 .297-.062.297-.515.297V0s.5-.031.797-.031c.25 0 .734.031.796.031m0 0"/><path id="at" d="M2.61-.875v-.39h-.235v.374c0 .485-.219.735-.5.735-.469 0-.469-.578-.469-.703V-2.75h1.078V-3H1.406v-1.281h-.25c0 .625-.281 1.312-.953 1.328v.203h.64v1.875c0 .781.595.938.985.938.469 0 .781-.391.781-.938m0 0"/><path id="au" d="M3.516-1.406c0-.782-.594-1.5-1.453-1.5-.313 0-.672.062-.985.328v-1.313c.36.094.563.094.672.094.922 0 1.469-.625 1.469-.734 0-.078-.047-.094-.078-.094 0 0-.032 0-.063.016-.172.062-.531.203-1.047.203-.203 0-.562-.016-1.015-.188-.079-.031-.094-.031-.094-.031-.094 0-.094.078-.094.188v2.046c0 .125 0 .204.11.204.062 0 .078 0 .14-.094.297-.375.734-.438.969-.438.422 0 .61.328.64.39.126.235.172.5.172.907 0 .203 0 .61-.218.922a.98.98 0 0 1-.813.422c-.453 0-.922-.25-1.094-.719.266.016.407-.156.407-.344 0-.296-.266-.343-.36-.343 0 0-.343 0-.343.375 0 .625.578 1.25 1.406 1.25.89 0 1.672-.657 1.672-1.547m0 0"/></defs><use xlink:href="#a" x="60.955" y="36.901"/><use xlink:href="#b" x="69.18" y="36.901"/><use xlink:href="#c" x="75.719" y="36.901"/><use xlink:href="#d" x="83.562" y="36.901"/><use xlink:href="#e" x="89.695" y="36.901"/><use xlink:href="#d" x="93.437" y="36.901"/><use xlink:href="#f" x="104.053" y="36.901"/><use xlink:href="#g" x="109.66" y="36.901"/><use xlink:href="#h" x="116.761" y="36.901"/><use xlink:href="#i" x="126.48" y="36.901"/><use xlink:href="#j" x="133.582" y="36.901"/><use xlink:href="#k" x="138.818" y="36.901"/><use xlink:href="#h" x="145.178" y="36.901"/><use xlink:href="#b" x="159.381" y="36.901"/><use xlink:href="#l" x="165.92" y="36.901"/><use xlink:href="#m" x="172.651" y="36.901"/><use xlink:href="#n" x="179.381" y="36.901"/><use xlink:href="#o" x="184.881" y="36.901"/><use xlink:href="#m" x="192.352" y="36.901"/><use xlink:href="#h" x="198.713" y="36.901"/><use xlink:href="#i" x="208.432" y="36.901"/><use xlink:href="#f" x="215.533" y="36.901"/><use xlink:href="#g" x="221.14" y="36.901"/><use xlink:href="#p" x="233.095" y="36.901"/><use xlink:href="#j" x="241.32" y="36.901"/><use xlink:href="#n" x="246.556" y="36.901"/><use xlink:href="#b" x="252.056" y="36.901"/><use xlink:href="#q" x="258.595" y="36.901"/><use xlink:href="#r" x="266.067" y="36.901"/><use xlink:href="#s" x="271.375" y="36.901"/><use xlink:href="#m" x="279.217" y="36.901"/><use xlink:href="#t" x="285.948" y="36.901"/><use xlink:href="#i" x="291.926" y="36.901"/><use xlink:href="#f" x="299.027" y="36.901"/><use xlink:href="#u" x="305.004" y="36.901"/><use xlink:href="#p" x="309.117" y="36.901"/><use xlink:href="#j" x="317.342" y="36.901"/><use xlink:href="#m" x="322.578" y="36.901"/><use xlink:href="#q" x="329.309" y="36.901"/><use xlink:href="#b" x="336.781" y="36.901"/><use xlink:href="#f" x="343.32" y="36.901"/><use xlink:href="#u" x="349.298" y="36.901"/><use xlink:href="#p" x="353.41" y="36.901"/><path fill="none" stroke="#000" stroke-miterlimit="10" stroke-width=".398" d="M17.008 39.293h384.094"/><use xlink:href="#v" x="17.008" y="63.427"/><use xlink:href="#m" x="25.831" y="63.427"/><use xlink:href="#o" x="32.932" y="63.427"/><use xlink:href="#r" x="40.404" y="63.427"/><use xlink:href="#j" x="45.712" y="63.427"/><use xlink:href="#b" x="50.948" y="63.427"/><use xlink:href="#h" x="57.117" y="63.427"/><use xlink:href="#m" x="66.466" y="63.427"/><use xlink:href="#h" x="72.826" y="63.427"/><use xlink:href="#d" x="82.175" y="63.427"/><use xlink:href="#f" x="92.791" y="63.427"/><use xlink:href="#g" x="98.398" y="63.427"/><use xlink:href="#h" x="105.499" y="63.427"/><use xlink:href="#i" x="115.218" y="63.427"/><use xlink:href="#j" x="122.32" y="63.427"/><use xlink:href="#i" x="127.185" y="63.427"/><use xlink:href="#b" x="138.77" y="63.427"/><use xlink:href="#l" x="145.309" y="63.427"/><use xlink:href="#m" x="152.04" y="63.427"/><use xlink:href="#n" x="158.77" y="63.427"/><use xlink:href="#o" x="164.27" y="63.427"/><use xlink:href="#m" x="171.742" y="63.427"/><use xlink:href="#h" x="178.102" y="63.427"/><use xlink:href="#d" x="187.45" y="63.427"/><path fill="none" stroke="#000" stroke-miterlimit="10" stroke-width=".398" d="M33.547 73.453h351.02M33.746 84.613v-10.96"/><use xlink:href="#w" x="196.292" y="81.324"/><use xlink:href="#x" x="200.058" y="81.324"/><use xlink:href="#y" x="203.115" y="81.324"/><use xlink:href="#z" x="206.997" y="81.324"/><use xlink:href="#A" x="211.938" y="81.324"/><use xlink:href="#B" x="217.111" y="81.324"/><path fill="none" stroke="#000" stroke-miterlimit="10" stroke-width=".398" d="M384.367 84.613v-10.96M33.547 84.813h351.02M33.746 95.969V85.012"/><use xlink:href="#C" x="65.673" y="92.682"/><path fill="none" stroke="#000" stroke-miterlimit="10" stroke-width=".398" d="M103.867 95.969V85.012"/><use xlink:href="#D" x="135.475" y="92.682"/><path fill="none" stroke="#000" stroke-miterlimit="10" stroke-width=".398" d="M173.992 95.969V85.012"/><use xlink:href="#E" x="205.536" y="92.682"/><path fill="none" stroke="#000" stroke-miterlimit="10" stroke-width=".398" d="M244.117 95.969V85.012"/><use xlink:href="#F" x="275.561" y="92.682"/><path fill="none" stroke="#000" stroke-miterlimit="10" stroke-width=".398" d="M314.242 95.969V85.012"/><use xlink:href="#G" x="345.847" y="92.682"/><path fill="none" stroke="#000" stroke-miterlimit="10" stroke-width=".398" d="M384.367 95.969V85.012M33.547 96.168h351.02M33.547 98.559h351.02M33.746 128.824V98.762"/><use xlink:href="#H" x="48.772" y="119.859"/><path fill="none" stroke="#000" stroke-miterlimit="10" stroke-width=".181" d="M60.36 121.969V105.69M69.402 121.969V105.69M78.445 121.969V105.69M87.488 121.969V105.69"/><path fill="none" stroke="#000" stroke-miterlimit="10" stroke-width=".151" d="M59.754 121.367H88.09M59.754 118.352H88.09M59.754 115.34H88.09M59.754 112.324H88.09M59.754 109.309H88.09M59.754 106.297H88.09"/><path d="M58.773 121.969h1.961V105.69h-1.96Zm0 0"/><use xlink:href="#I" x="64.879" y="112.323"/><use xlink:href="#I" x="73.922" y="115.338"/><use xlink:href="#I" x="73.922" y="118.352"/><path fill="none" stroke="#000" stroke-miterlimit="10" stroke-width=".398" d="M103.867 128.824V98.762"/><use xlink:href="#J" x="116.708" y="119.859"/><path fill="none" stroke="#000" stroke-miterlimit="10" stroke-width=".181" d="M130.48 121.969V105.69M139.523 121.969V105.69M148.566 121.969V105.69M157.61 121.969V105.69"/><path fill="none" stroke="#000" stroke-miterlimit="10" stroke-width=".151" d="M129.879 121.367h28.336M129.879 118.352h28.336M129.879 115.34h28.336M129.879 112.324h28.336M129.879 109.309h28.336M129.879 106.297h28.336"/><path d="M128.898 121.969h1.961V105.69h-1.96Zm0 0"/><use xlink:href="#I" x="144.046" y="109.309"/><use xlink:href="#I" x="144.046" y="112.323"/><use xlink:href="#I" x="144.046" y="115.338"/><path fill="none" stroke="#000" stroke-miterlimit="10" stroke-width=".398" d="M173.992 128.824V98.762"/><use xlink:href="#K" x="186.707" y="119.859"/><path fill="none" stroke="#000" stroke-miterlimit="10" stroke-width=".181" d="M200.605 121.969V105.69M209.648 121.969V105.69M218.691 121.969V105.69M227.734 121.969V105.69"/><path fill="none" stroke="#000" stroke-miterlimit="10" stroke-width=".151" d="M200.004 121.367h28.332M200.004 118.352h28.332M200.004 115.34h28.332M200.004 112.324h28.332M200.004 109.309h28.332M200.004 106.297h28.332"/><path d="M199.023 121.969h1.961V105.69h-1.96Zm0 0"/><use xlink:href="#I" x="214.17" y="106.295"/><use xlink:href="#L" x="214.17" y="121.366"/><use xlink:href="#I" x="214.17" y="112.323"/><use xlink:href="#I" x="223.213" y="109.309"/><path fill="none" stroke="#000" stroke-miterlimit="10" stroke-width=".398" d="M244.117 128.824V98.762"/><use xlink:href="#M" x="258.498" y="119.859"/><path fill="none" stroke="#000" stroke-miterlimit="10" stroke-width=".181" d="M270.73 121.969V105.69M279.773 121.969V105.69M288.816 121.969V105.69M297.86 121.969V105.69"/><path fill="none" stroke="#000" stroke-miterlimit="10" stroke-width=".151" d="M270.129 121.367h28.332M270.129 118.352h28.332M270.129 115.34h28.332M270.129 112.324h28.332M270.129 109.309h28.332M270.129 106.297h28.332"/><path d="M269.148 121.969h1.957V105.69h-1.957Zm0 0"/><use xlink:href="#I" x="293.337" y="106.295"/><use xlink:href="#I" x="293.337" y="121.366"/><use xlink:href="#I" x="284.295" y="118.352"/><path fill="none" stroke="#000" stroke-miterlimit="10" stroke-width=".398" d="M314.242 128.824V98.762"/><use xlink:href="#N" x="328.901" y="119.859"/><path fill="none" stroke="#000" stroke-miterlimit="10" stroke-width=".181" d="M340.855 121.969V105.69M349.898 121.969V105.69M358.941 121.969V105.69M367.984 121.969V105.69"/><path fill="none" stroke="#000" stroke-miterlimit="10" stroke-width=".151" d="M340.25 121.367h28.336M340.25 118.352h28.336M340.25 115.34h28.336M340.25 112.324h28.336M340.25 109.309h28.336M340.25 106.297h28.336"/><path d="M339.273 121.969h1.957V105.69h-1.957Zm0 0"/><use xlink:href="#I" x="345.376" y="109.309"/><use xlink:href="#I" x="354.419" y="115.338"/><use xlink:href="#I" x="363.462" y="118.352"/><path fill="none" stroke="#000" stroke-miterlimit="10" stroke-width=".398" d="M384.367 128.824V98.762M33.547 129.023h351.02M33.746 159.29v-30.063"/><use xlink:href="#O" x="50.09" y="150.324"/><path fill="none" stroke="#000" stroke-miterlimit="10" stroke-width=".181" d="M60.36 152.434v-16.278M69.402 152.434v-16.278M78.445 152.434v-16.278M87.488 152.434v-16.278"/><path fill="none" stroke="#000" stroke-miterlimit="10" stroke-width=".151" d="M59.754 151.832H88.09M59.754 148.816H88.09M59.754 145.805H88.09M59.754 142.79H88.09M59.754 139.773H88.09M59.754 136.762H88.09"/><path d="M58.773 152.434h1.961v-16.278h-1.96Zm0 0"/><use xlink:href="#I" x="73.922" y="145.803"/><use xlink:href="#I" x="73.922" y="148.817"/><path fill="none" stroke="#000" stroke-miterlimit="10" stroke-width=".398" d="M103.867 159.29v-30.063"/><use xlink:href="#P" x="119.649" y="150.324"/><path fill="none" stroke="#000" stroke-miterlimit="10" stroke-width=".181" d="M130.48 152.434v-16.278M139.523 152.434v-16.278M148.566 152.434v-16.278M157.61 152.434v-16.278"/><path fill="none" stroke="#000" stroke-miterlimit="10" stroke-width=".151" d="M129.879 151.832h28.336M129.879 148.816h28.336M129.879 145.805h28.336M129.879 142.79h28.336M129.879 139.773h28.336M129.879 136.762h28.336"/><path d="M128.898 152.434h1.961v-16.278h-1.96Zm0 0"/><use xlink:href="#I" x="135.003" y="139.774"/><use xlink:href="#I" x="144.046" y="142.788"/><use xlink:href="#I" x="144.046" y="145.803"/><path fill="none" stroke="#000" stroke-miterlimit="10" stroke-width=".398" d="M173.992 159.29v-30.063"/><use xlink:href="#Q" x="189.854" y="150.324"/><path fill="none" stroke="#000" stroke-miterlimit="10" stroke-width=".181" d="M200.605 152.434v-16.278M209.648 152.434v-16.278M218.691 152.434v-16.278M227.734 152.434v-16.278"/><path fill="none" stroke="#000" stroke-miterlimit="10" stroke-width=".151" d="M200.004 151.832h28.332M200.004 148.816h28.332M200.004 145.805h28.332M200.004 142.79h28.332M200.004 139.773h28.332M200.004 136.762h28.332"/><path d="M199.023 152.434h1.961v-16.278h-1.96Zm0 0"/><use xlink:href="#I" x="205.128" y="136.76"/><use xlink:href="#L" x="205.128" y="151.831"/><use xlink:href="#I" x="214.17" y="142.788"/><use xlink:href="#I" x="223.213" y="139.774"/><path fill="none" stroke="#000" stroke-miterlimit="10" stroke-width=".398" d="M244.117 159.29v-30.063"/><use xlink:href="#R" x="260.363" y="150.324"/><path fill="none" stroke="#000" stroke-miterlimit="10" stroke-width=".398" d="M314.242 159.29v-30.063"/><use xlink:href="#S" x="330.882" y="150.324"/><path fill="none" stroke="#000" stroke-miterlimit="10" stroke-width=".398" d="M384.367 159.29v-30.063M33.547 159.488h351.02M33.746 189.758V159.69"/><use xlink:href="#H" x="46.363" y="180.789"/><use xlink:href="#T" x="51.86" y="177.534"/><path fill="none" stroke="#000" stroke-miterlimit="10" stroke-width=".181" d="M60.36 182.898v-16.277M69.402 182.898v-16.277M78.445 182.898v-16.277M87.488 182.898v-16.277"/><path fill="none" stroke="#000" stroke-miterlimit="10" stroke-width=".151" d="M59.754 182.297H88.09M59.754 179.281H88.09M59.754 176.27H88.09M59.754 173.254H88.09M59.754 170.238H88.09M59.754 167.227H88.09"/><path d="M58.773 182.898h1.961v-16.277h-1.96Zm0 0"/><use xlink:href="#I" x="64.879" y="173.253"/><use xlink:href="#I" x="73.922" y="179.282"/><path fill="none" stroke="#000" stroke-miterlimit="10" stroke-width=".398" d="M103.867 189.758V159.69"/><use xlink:href="#J" x="114.299" y="180.789"/><use xlink:href="#T" x="121.984" y="177.534"/><path fill="none" stroke="#000" stroke-miterlimit="10" stroke-width=".181" d="M130.48 182.898v-16.277M139.523 182.898v-16.277M148.566 182.898v-16.277M157.61 182.898v-16.277"/><path fill="none" stroke="#000" stroke-miterlimit="10" stroke-width=".151" d="M129.879 182.297h28.336M129.879 179.281h28.336M129.879 176.27h28.336M129.879 173.254h28.336M129.879 170.238h28.336M129.879 167.227h28.336"/><path d="M128.898 182.898h1.961v-16.277h-1.96Zm0 0"/><use xlink:href="#I" x="144.046" y="170.239"/><use xlink:href="#I" x="144.046" y="176.268"/><path fill="none" stroke="#000" stroke-miterlimit="10" stroke-width=".398" d="M173.992 189.758V159.69"/><use xlink:href="#K" x="184.298" y="180.789"/><use xlink:href="#T" x="192.108" y="177.534"/><path fill="none" stroke="#000" stroke-miterlimit="10" stroke-width=".181" d="M200.605 182.898v-16.277M209.648 182.898v-16.277M218.691 182.898v-16.277M227.734 182.898v-16.277"/><path fill="none" stroke="#000" stroke-miterlimit="10" stroke-width=".151" d="M200.004 182.297h28.332M200.004 179.281h28.332M200.004 176.27h28.332M200.004 173.254h28.332M200.004 170.238h28.332M200.004 167.227h28.332"/><path d="M199.023 182.898h1.961v-16.277h-1.96Zm0 0"/><use xlink:href="#I" x="214.17" y="167.225"/><use xlink:href="#L" x="214.17" y="182.296"/><use xlink:href="#I" x="205.128" y="170.239"/><use xlink:href="#I" x="214.17" y="173.253"/><path fill="none" stroke="#000" stroke-miterlimit="10" stroke-width=".398" d="M244.117 189.758V159.69"/><use xlink:href="#M" x="256.09" y="180.789"/><use xlink:href="#T" x="262.232" y="177.534"/><path fill="none" stroke="#000" stroke-miterlimit="10" stroke-width=".181" d="M270.73 182.898v-16.277M279.773 182.898v-16.277M288.816 182.898v-16.277M297.86 182.898v-16.277"/><path fill="none" stroke="#000" stroke-miterlimit="10" stroke-width=".151" d="M270.129 182.297h28.332M270.129 179.281h28.332M270.129 176.27h28.332M270.129 173.254h28.332M270.129 170.238h28.332M270.129 167.227h28.332"/><path d="M269.148 182.898h1.957v-16.277h-1.957Zm0 0"/><use xlink:href="#I" x="275.252" y="167.225"/><use xlink:href="#I" x="293.337" y="182.296"/><use xlink:href="#I" x="284.295" y="179.282"/><path fill="none" stroke="#000" stroke-miterlimit="10" stroke-width=".398" d="M314.242 189.758V159.69"/><use xlink:href="#N" x="326.492" y="180.789"/><use xlink:href="#T" x="332.356" y="177.534"/><path fill="none" stroke="#000" stroke-miterlimit="10" stroke-width=".181" d="M340.855 182.898v-16.277M349.898 182.898v-16.277M358.941 182.898v-16.277M367.984 182.898v-16.277"/><path fill="none" stroke="#000" stroke-miterlimit="10" stroke-width=".151" d="M340.25 182.297h28.336M340.25 179.281h28.336M340.25 176.27h28.336M340.25 173.254h28.336M340.25 170.238h28.336M340.25 167.227h28.336"/><path d="M339.273 182.898h1.957v-16.277h-1.957Zm0 0"/><use xlink:href="#I" x="345.376" y="170.239"/><use xlink:href="#I" x="354.419" y="176.268"/><use xlink:href="#I" x="345.376" y="179.282"/><path fill="none" stroke="#000" stroke-miterlimit="10" stroke-width=".398" d="M384.367 189.758V159.69M33.547 189.953h351.02"/><use xlink:href="#U" x="17.008" y="234.143"/><use xlink:href="#m" x="27.313" y="234.143"/><use xlink:href="#o" x="34.414" y="234.143"/><use xlink:href="#b" x="41.886" y="234.143"/><use xlink:href="#j" x="48.426" y="234.143"/><use xlink:href="#l" x="53.662" y="234.143"/><use xlink:href="#m" x="60.393" y="234.143"/><use xlink:href="#h" x="66.753" y="234.143"/><use xlink:href="#d" x="76.102" y="234.143"/><use xlink:href="#f" x="86.718" y="234.143"/><use xlink:href="#g" x="92.325" y="234.143"/><use xlink:href="#h" x="99.426" y="234.143"/><use xlink:href="#i" x="109.145" y="234.143"/><use xlink:href="#j" x="116.247" y="234.143"/><use xlink:href="#i" x="121.112" y="234.143"/><use xlink:href="#b" x="132.697" y="234.143"/><use xlink:href="#l" x="139.236" y="234.143"/><use xlink:href="#m" x="145.967" y="234.143"/><use xlink:href="#n" x="152.697" y="234.143"/><use xlink:href="#o" x="158.197" y="234.143"/><use xlink:href="#m" x="165.668" y="234.143"/><use xlink:href="#h" x="172.028" y="234.143"/><use xlink:href="#d" x="181.377" y="234.143"/><path fill="none" stroke="#000" stroke-miterlimit="10" stroke-width=".398" d="M33.547 243.527h351.02M33.746 254.684v-10.957"/><use xlink:href="#w" x="196.292" y="251.397"/><use xlink:href="#x" x="200.058" y="251.397"/><use xlink:href="#y" x="203.115" y="251.397"/><use xlink:href="#z" x="206.997" y="251.397"/><use xlink:href="#A" x="211.938" y="251.397"/><use xlink:href="#B" x="217.111" y="251.397"/><path fill="none" stroke="#000" stroke-miterlimit="10" stroke-width=".398" d="M384.367 254.684v-10.957M33.547 254.883h351.02M33.746 266.043v-10.961"/><use xlink:href="#C" x="65.673" y="262.754"/><path fill="none" stroke="#000" stroke-miterlimit="10" stroke-width=".398" d="M103.867 266.043v-10.961"/><use xlink:href="#D" x="135.475" y="262.754"/><path fill="none" stroke="#000" stroke-miterlimit="10" stroke-width=".398" d="M173.992 266.043v-10.961"/><use xlink:href="#E" x="205.536" y="262.754"/><path fill="none" stroke="#000" stroke-miterlimit="10" stroke-width=".398" d="M244.117 266.043v-10.961"/><use xlink:href="#F" x="275.561" y="262.754"/><path fill="none" stroke="#000" stroke-miterlimit="10" stroke-width=".398" d="M314.242 266.043v-10.961"/><use xlink:href="#G" x="345.847" y="262.754"/><path fill="none" stroke="#000" stroke-miterlimit="10" stroke-width=".398" d="M384.367 266.043v-10.961M33.547 266.242h351.02M33.547 268.633h351.02M33.746 298.898v-30.066"/><use xlink:href="#O" x="46.186" y="289.931"/><use xlink:href="#T" x="50.365" y="286.677"/><path fill="none" stroke="#000" stroke-miterlimit="10" stroke-width=".181" d="M60.36 292.04v-16.274M69.402 292.04v-16.274M78.445 292.04v-16.274M87.488 292.04v-16.274"/><path fill="none" stroke="#000" stroke-miterlimit="10" stroke-width=".151" d="M59.754 291.438H88.09M59.754 288.426H88.09M59.754 285.41H88.09M59.754 282.395H88.09M59.754 279.383H88.09M59.754 276.367H88.09"/><path d="M58.773 292.04h1.961v-16.274h-1.96Zm0 0"/><use xlink:href="#I" x="73.922" y="288.424"/><path fill="none" stroke="#000" stroke-miterlimit="10" stroke-width=".398" d="M103.867 298.898v-30.066"/><use xlink:href="#P" x="115.746" y="289.931"/><use xlink:href="#T" x="120.489" y="286.677"/><path fill="none" stroke="#000" stroke-miterlimit="10" stroke-width=".181" d="M130.48 292.04v-16.274M139.523 292.04v-16.274M148.566 292.04v-16.274M157.61 292.04v-16.274"/><path fill="none" stroke="#000" stroke-miterlimit="10" stroke-width=".151" d="M129.879 291.438h28.336M129.879 288.426h28.336M129.879 285.41h28.336M129.879 282.395h28.336M129.879 279.383h28.336M129.879 276.367h28.336"/><path d="M128.898 292.04h1.961v-16.274h-1.96Zm0 0"/><use xlink:href="#I" x="135.003" y="279.381"/><use xlink:href="#I" x="144.046" y="285.41"/><path fill="none" stroke="#000" stroke-miterlimit="10" stroke-width=".398" d="M173.992 298.898v-30.066"/><use xlink:href="#Q" x="185.735" y="289.931"/><use xlink:href="#T" x="190.613" y="286.677"/><path fill="none" stroke="#000" stroke-miterlimit="10" stroke-width=".181" d="M200.605 292.04v-16.274M209.648 292.04v-16.274M218.691 292.04v-16.274M227.734 292.04v-16.274"/><path fill="none" stroke="#000" stroke-miterlimit="10" stroke-width=".151" d="M200.004 291.438h28.332M200.004 288.426h28.332M200.004 285.41h28.332M200.004 282.395h28.332M200.004 279.383h28.332M200.004 276.367h28.332"/><path d="M199.023 292.04h1.961v-16.274h-1.96Zm0 0"/><use xlink:href="#I" x="205.128" y="276.367"/><use xlink:href="#L" x="205.128" y="291.438"/><use xlink:href="#I" x="205.128" y="279.381"/><use xlink:href="#I" x="214.17" y="282.396"/><path fill="none" stroke="#000" stroke-miterlimit="10" stroke-width=".398" d="M244.117 298.898v-30.066"/><use xlink:href="#R" x="256.236" y="289.931"/><use xlink:href="#T" x="260.737" y="286.677"/><use xlink:href="#V" x="267.716" y="289.931"/><use xlink:href="#W" x="274.692" y="286.677"/><path fill="none" stroke="#000" stroke-miterlimit="10" stroke-width=".398" d="M314.242 298.898v-30.066"/><use xlink:href="#S" x="326.755" y="289.931"/><use xlink:href="#T" x="330.861" y="286.677"/><path fill="none" stroke="#000" stroke-miterlimit="10" stroke-width=".181" d="M340.855 292.04v-16.274M349.898 292.04v-16.274M358.941 292.04v-16.274M367.984 292.04v-16.274"/><path fill="none" stroke="#000" stroke-miterlimit="10" stroke-width=".151" d="M340.25 291.438h28.336M340.25 288.426h28.336M340.25 285.41h28.336M340.25 282.395h28.336M340.25 279.383h28.336M340.25 276.367h28.336"/><path d="M339.273 292.04h1.957v-16.274h-1.957Zm0 0"/><use xlink:href="#I" x="363.462" y="276.367"/><use xlink:href="#L" x="363.462" y="291.438"/><use xlink:href="#I" x="345.376" y="279.381"/><use xlink:href="#I" x="363.462" y="282.396"/><use xlink:href="#I" x="345.376" y="285.41"/><use xlink:href="#I" x="345.376" y="288.424"/><path fill="none" stroke="#000" stroke-miterlimit="10" stroke-width=".398" d="M384.367 298.898v-30.066M33.547 299.098h351.02M33.746 329.363v-30.066"/><use xlink:href="#H" x="44.868" y="320.396"/><use xlink:href="#W" x="50.365" y="317.142"/><path fill="none" stroke="#000" stroke-miterlimit="10" stroke-width=".181" d="M60.36 322.508V306.23M69.402 322.508V306.23M78.445 322.508V306.23M87.488 322.508V306.23"/><path fill="none" stroke="#000" stroke-miterlimit="10" stroke-width=".151" d="M59.754 321.902H88.09M59.754 318.89H88.09M59.754 315.875H88.09M59.754 312.86H88.09M59.754 309.848H88.09M59.754 306.832H88.09"/><path d="M58.773 322.508h1.961V306.23h-1.96Zm0 0"/><use xlink:href="#I" x="73.922" y="309.846"/><use xlink:href="#I" x="64.879" y="312.861"/><use xlink:href="#I" x="73.922" y="315.875"/><use xlink:href="#I" x="73.922" y="318.889"/><path fill="none" stroke="#000" stroke-miterlimit="10" stroke-width=".398" d="M103.867 329.363v-30.066"/><use xlink:href="#J" x="112.805" y="320.396"/><use xlink:href="#W" x="120.489" y="317.142"/><path fill="none" stroke="#000" stroke-miterlimit="10" stroke-width=".181" d="M130.48 322.508V306.23M139.523 322.508V306.23M148.566 322.508V306.23M157.61 322.508V306.23"/><path fill="none" stroke="#000" stroke-miterlimit="10" stroke-width=".151" d="M129.879 321.902h28.336M129.879 318.89h28.336M129.879 315.875h28.336M129.879 312.86h28.336M129.879 309.848h28.336M129.879 306.832h28.336"/><path d="M128.898 322.508h1.961V306.23h-1.96Zm0 0"/><use xlink:href="#I" x="144.046" y="306.832"/><use xlink:href="#I" x="144.046" y="309.846"/><use xlink:href="#I" x="144.046" y="312.861"/><use xlink:href="#I" x="144.046" y="315.875"/><path fill="none" stroke="#000" stroke-miterlimit="10" stroke-width=".398" d="M173.992 329.363v-30.066"/><use xlink:href="#K" x="182.803" y="320.396"/><use xlink:href="#W" x="190.613" y="317.142"/><path fill="none" stroke="#000" stroke-miterlimit="10" stroke-width=".181" d="M200.605 322.508V306.23M209.648 322.508V306.23M218.691 322.508V306.23M227.734 322.508V306.23"/><path fill="none" stroke="#000" stroke-miterlimit="10" stroke-width=".151" d="M200.004 321.902h28.332M200.004 318.89h28.332M200.004 315.875h28.332M200.004 312.86h28.332M200.004 309.848h28.332M200.004 306.832h28.332"/><path d="M199.023 322.508h1.961V306.23h-1.96Zm0 0"/><use xlink:href="#I" x="214.17" y="306.832"/><use xlink:href="#L" x="214.17" y="321.903"/><use xlink:href="#I" x="214.17" y="312.861"/><path fill="none" stroke="#000" stroke-miterlimit="10" stroke-width=".398" d="M244.117 329.363v-30.066"/><use xlink:href="#M" x="254.595" y="320.396"/><use xlink:href="#W" x="260.737" y="317.142"/><path fill="none" stroke="#000" stroke-miterlimit="10" stroke-width=".181" d="M270.73 322.508V306.23M279.773 322.508V306.23M288.816 322.508V306.23M297.86 322.508V306.23"/><path fill="none" stroke="#000" stroke-miterlimit="10" stroke-width=".151" d="M270.129 321.902h28.332M270.129 318.89h28.332M270.129 315.875h28.332M270.129 312.86h28.332M270.129 309.848h28.332M270.129 306.832h28.332"/><path d="M269.148 322.508h1.957V306.23h-1.957Zm0 0"/><use xlink:href="#I" x="293.337" y="321.903"/><use xlink:href="#I" x="284.295" y="318.889"/><path fill="none" stroke="#000" stroke-miterlimit="10" stroke-width=".398" d="M314.242 329.363v-30.066"/><use xlink:href="#N" x="324.997" y="320.396"/><use xlink:href="#W" x="330.861" y="317.142"/><path fill="none" stroke="#000" stroke-miterlimit="10" stroke-width=".181" d="M340.855 322.508V306.23M349.898 322.508V306.23M358.941 322.508V306.23M367.984 322.508V306.23"/><path fill="none" stroke="#000" stroke-miterlimit="10" stroke-width=".151" d="M340.25 321.902h28.336M340.25 318.89h28.336M340.25 315.875h28.336M340.25 312.86h28.336M340.25 309.848h28.336M340.25 306.832h28.336"/><path d="M339.273 322.508h1.957V306.23h-1.957Zm0 0"/><use xlink:href="#I" x="345.376" y="309.846"/><use xlink:href="#I" x="354.419" y="315.875"/><path fill="none" stroke="#000" stroke-miterlimit="10" stroke-width=".398" d="M384.367 329.363v-30.066M33.547 329.563h351.02M33.746 359.828v-30.066"/><use xlink:href="#O" x="46.186" y="350.861"/><use xlink:href="#W" x="50.365" y="347.607"/><path fill="none" stroke="#000" stroke-miterlimit="10" stroke-width=".181" d="M60.36 352.973v-16.278M69.402 352.973v-16.278M78.445 352.973v-16.278M87.488 352.973v-16.278"/><path fill="none" stroke="#000" stroke-miterlimit="10" stroke-width=".151" d="M59.754 352.367H88.09M59.754 349.355H88.09M59.754 346.34H88.09M59.754 343.324H88.09M59.754 340.313H88.09M59.754 337.297H88.09"/><path d="M58.773 352.973h1.961v-16.278h-1.96Zm0 0"/><use xlink:href="#I" x="73.922" y="340.311"/><use xlink:href="#I" x="73.922" y="346.34"/><use xlink:href="#I" x="73.922" y="349.354"/><path fill="none" stroke="#000" stroke-miterlimit="10" stroke-width=".398" d="M103.867 359.828v-30.066"/><use xlink:href="#P" x="115.746" y="350.861"/><use xlink:href="#W" x="120.489" y="347.607"/><path fill="none" stroke="#000" stroke-miterlimit="10" stroke-width=".181" d="M130.48 352.973v-16.278M139.523 352.973v-16.278M148.566 352.973v-16.278M157.61 352.973v-16.278"/><path fill="none" stroke="#000" stroke-miterlimit="10" stroke-width=".151" d="M129.879 352.367h28.336M129.879 349.355h28.336M129.879 346.34h28.336M129.879 343.324h28.336M129.879 340.313h28.336M129.879 337.297h28.336"/><path d="M128.898 352.973h1.961v-16.278h-1.96Zm0 0"/><use xlink:href="#I" x="144.046" y="337.297"/><use xlink:href="#I" x="135.003" y="340.311"/><use xlink:href="#I" x="144.046" y="343.326"/><use xlink:href="#I" x="144.046" y="346.34"/><path fill="none" stroke="#000" stroke-miterlimit="10" stroke-width=".398" d="M173.992 359.828v-30.066"/><use xlink:href="#Q" x="185.735" y="350.861"/><use xlink:href="#W" x="190.613" y="347.607"/><path fill="none" stroke="#000" stroke-miterlimit="10" stroke-width=".181" d="M200.605 352.973v-16.278M209.648 352.973v-16.278M218.691 352.973v-16.278M227.734 352.973v-16.278"/><path fill="none" stroke="#000" stroke-miterlimit="10" stroke-width=".151" d="M200.004 352.367h28.332M200.004 349.355h28.332M200.004 346.34h28.332M200.004 343.324h28.332M200.004 340.313h28.332M200.004 337.297h28.332"/><path d="M199.023 352.973h1.961v-16.278h-1.96Zm0 0"/><use xlink:href="#I" x="205.128" y="337.297"/><use xlink:href="#L" x="205.128" y="352.368"/><use xlink:href="#I" x="214.17" y="343.326"/><path fill="none" stroke="#000" stroke-miterlimit="10" stroke-width=".398" d="M244.117 359.828v-30.066"/><use xlink:href="#R" x="256.236" y="350.861"/><use xlink:href="#W" x="260.737" y="347.607"/><path fill="none" stroke="#000" stroke-miterlimit="10" stroke-width=".181" d="M270.73 352.973v-16.278M279.773 352.973v-16.278M288.816 352.973v-16.278M297.86 352.973v-16.278"/><path fill="none" stroke="#000" stroke-miterlimit="10" stroke-width=".151" d="M270.129 352.367h28.332M270.129 349.355h28.332M270.129 346.34h28.332M270.129 343.324h28.332M270.129 340.313h28.332M270.129 337.297h28.332"/><path d="M269.148 352.973h1.957v-16.278h-1.957Zm0 0"/><use xlink:href="#I" x="293.337" y="340.311"/><use xlink:href="#I" x="284.295" y="346.34"/><use xlink:href="#I" x="275.252" y="349.354"/><path fill="none" stroke="#000" stroke-miterlimit="10" stroke-width=".398" d="M314.242 359.828v-30.066"/><use xlink:href="#S" x="326.755" y="350.861"/><use xlink:href="#W" x="330.861" y="347.607"/><path fill="none" stroke="#000" stroke-miterlimit="10" stroke-width=".181" d="M340.855 352.973v-16.278M349.898 352.973v-16.278M358.941 352.973v-16.278M367.984 352.973v-16.278"/><path fill="none" stroke="#000" stroke-miterlimit="10" stroke-width=".151" d="M340.25 352.367h28.336M340.25 349.355h28.336M340.25 346.34h28.336M340.25 343.324h28.336M340.25 340.313h28.336M340.25 337.297h28.336"/><path d="M339.273 352.973h1.957v-16.278h-1.957Zm0 0"/><use xlink:href="#I" x="363.462" y="337.297"/><use xlink:href="#L" x="363.462" y="352.368"/><use xlink:href="#I" x="345.376" y="340.311"/><use xlink:href="#I" x="354.419" y="343.326"/><use xlink:href="#I" x="345.376" y="346.34"/><use xlink:href="#I" x="363.462" y="349.354"/><path fill="none" stroke="#000" stroke-miterlimit="10" stroke-width=".398" d="M384.367 359.828v-30.066M33.547 360.027h351.02M33.746 390.293v-30.066"/><use xlink:href="#H" x="44.868" y="381.326"/><use xlink:href="#X" x="50.365" y="378.072"/><path fill="none" stroke="#000" stroke-miterlimit="10" stroke-width=".181" d="M60.36 383.438V367.16M69.402 383.438V367.16M78.445 383.438V367.16M87.488 383.438V367.16"/><path fill="none" stroke="#000" stroke-miterlimit="10" stroke-width=".151" d="M59.754 382.832H88.09M59.754 379.82H88.09M59.754 376.805H88.09M59.754 373.79H88.09M59.754 370.777H88.09M59.754 367.762H88.09"/><path d="M58.773 383.438h1.961V367.16h-1.96Zm0 0"/><use xlink:href="#I" x="73.922" y="367.762"/><use xlink:href="#I" x="64.879" y="373.791"/><use xlink:href="#I" x="73.922" y="379.819"/><path fill="none" stroke="#000" stroke-miterlimit="10" stroke-width=".398" d="M103.867 390.293v-30.066"/><use xlink:href="#J" x="112.805" y="381.326"/><use xlink:href="#X" x="120.489" y="378.072"/><use xlink:href="#O" x="127.468" y="381.326"/><use xlink:href="#W" x="131.646" y="378.072"/><path fill="none" stroke="#000" stroke-miterlimit="10" stroke-width=".398" d="M173.992 390.293v-30.066"/><use xlink:href="#K" x="182.803" y="381.326"/><use xlink:href="#X" x="190.613" y="378.072"/><path fill="none" stroke="#000" stroke-miterlimit="10" stroke-width=".181" d="M200.605 383.438V367.16M209.648 383.438V367.16M218.691 383.438V367.16M227.734 383.438V367.16"/><path fill="none" stroke="#000" stroke-miterlimit="10" stroke-width=".151" d="M200.004 382.832h28.332M200.004 379.82h28.332M200.004 376.805h28.332M200.004 373.79h28.332M200.004 370.777h28.332M200.004 367.762h28.332"/><path d="M199.023 383.438h1.961V367.16h-1.96Zm0 0"/><use xlink:href="#I" x="214.17" y="367.762"/><use xlink:href="#I" x="205.128" y="370.776"/><use xlink:href="#I" x="214.17" y="373.791"/><path fill="none" stroke="#000" stroke-miterlimit="10" stroke-width=".398" d="M244.117 390.293v-30.066"/><use xlink:href="#M" x="254.595" y="381.326"/><use xlink:href="#X" x="260.737" y="378.072"/><path fill="none" stroke="#000" stroke-miterlimit="10" stroke-width=".181" d="M270.73 383.438V367.16M279.773 383.438V367.16M288.816 383.438V367.16M297.86 383.438V367.16"/><path fill="none" stroke="#000" stroke-miterlimit="10" stroke-width=".151" d="M270.129 382.832h28.332M270.129 379.82h28.332M270.129 376.805h28.332M270.129 373.79h28.332M270.129 370.777h28.332M270.129 367.762h28.332"/><path d="M269.148 383.438h1.957V367.16h-1.957Zm0 0"/><use xlink:href="#I" x="275.252" y="367.762"/><use xlink:href="#L" x="275.252" y="382.833"/><path fill="none" stroke="#000" stroke-miterlimit="10" stroke-width=".398" d="M314.242 390.293v-30.066"/><use xlink:href="#N" x="324.997" y="381.326"/><use xlink:href="#X" x="330.861" y="378.072"/><path fill="none" stroke="#000" stroke-miterlimit="10" stroke-width=".181" d="M340.855 383.438V367.16M349.898 383.438V367.16M358.941 383.438V367.16M367.984 383.438V367.16"/><path fill="none" stroke="#000" stroke-miterlimit="10" stroke-width=".151" d="M340.25 382.832h28.336M340.25 379.82h28.336M340.25 376.805h28.336M340.25 373.79h28.336M340.25 370.777h28.336M340.25 367.762h28.336"/><path d="M339.273 383.438h1.957V367.16h-1.957Zm0 0"/><use xlink:href="#I" x="345.376" y="370.776"/><use xlink:href="#I" x="345.376" y="379.819"/><path fill="none" stroke="#000" stroke-miterlimit="10" stroke-width=".398" d="M384.367 390.293v-30.066M33.547 390.492h351.02M33.746 420.758V390.69"/><use xlink:href="#H" x="42.525" y="411.791"/><use xlink:href="#T" x="48.022" y="408.537"/><use xlink:href="#Y" x="51.441" y="408.537"/><path fill="none" stroke="#000" stroke-miterlimit="10" stroke-width=".181" d="M60.36 413.902v-16.277M69.402 413.902v-16.277M78.445 413.902v-16.277M87.488 413.902v-16.277"/><path fill="none" stroke="#000" stroke-miterlimit="10" stroke-width=".151" d="M59.754 413.297H88.09M59.754 410.285H88.09M59.754 407.27H88.09M59.754 404.258H88.09M59.754 401.242H88.09M59.754 398.227H88.09"/><path d="M58.773 413.902h1.961v-16.277h-1.96Zm0 0"/><use xlink:href="#I" x="64.879" y="404.256"/><use xlink:href="#I" x="64.879" y="407.27"/><use xlink:href="#I" x="73.922" y="410.284"/><path fill="none" stroke="#000" stroke-miterlimit="10" stroke-width=".398" d="M103.867 420.758V390.69"/><use xlink:href="#J" x="110.461" y="411.791"/><use xlink:href="#T" x="118.146" y="408.537"/><use xlink:href="#Y" x="121.565" y="408.537"/><path fill="none" stroke="#000" stroke-miterlimit="10" stroke-width=".181" d="M130.48 413.902v-16.277M139.523 413.902v-16.277M148.566 413.902v-16.277M157.61 413.902v-16.277"/><path fill="none" stroke="#000" stroke-miterlimit="10" stroke-width=".151" d="M129.879 413.297h28.336M129.879 410.285h28.336M129.879 407.27h28.336M129.879 404.258h28.336M129.879 401.242h28.336M129.879 398.227h28.336"/><path d="M128.898 413.902h1.961v-16.277h-1.96Zm0 0"/><use xlink:href="#I" x="144.046" y="401.241"/><use xlink:href="#I" x="135.003" y="404.256"/><use xlink:href="#I" x="144.046" y="407.27"/><path fill="none" stroke="#000" stroke-miterlimit="10" stroke-width=".398" d="M173.992 420.758V390.69"/><use xlink:href="#K" x="180.46" y="411.791"/><use xlink:href="#T" x="188.27" y="408.537"/><use xlink:href="#Y" x="191.695" y="408.537"/><path fill="none" stroke="#000" stroke-miterlimit="10" stroke-width=".181" d="M200.605 413.902v-16.277M209.648 413.902v-16.277M218.691 413.902v-16.277M227.734 413.902v-16.277"/><path fill="none" stroke="#000" stroke-miterlimit="10" stroke-width=".151" d="M200.004 413.297h28.332M200.004 410.285h28.332M200.004 407.27h28.332M200.004 404.258h28.332M200.004 401.242h28.332M200.004 398.227h28.332"/><path d="M199.023 413.902h1.961v-16.277h-1.96Zm0 0"/><use xlink:href="#I" x="214.17" y="398.227"/><use xlink:href="#L" x="214.17" y="413.298"/><use xlink:href="#I" x="214.17" y="401.241"/><use xlink:href="#I" x="214.17" y="404.256"/><path fill="none" stroke="#000" stroke-miterlimit="10" stroke-width=".398" d="M244.117 420.758V390.69"/><use xlink:href="#M" x="252.252" y="411.791"/><use xlink:href="#T" x="258.394" y="408.537"/><use xlink:href="#Y" x="261.819" y="408.537"/><path fill="none" stroke="#000" stroke-miterlimit="10" stroke-width=".181" d="M270.73 413.902v-16.277M279.773 413.902v-16.277M288.816 413.902v-16.277M297.86 413.902v-16.277"/><path fill="none" stroke="#000" stroke-miterlimit="10" stroke-width=".151" d="M270.129 413.297h28.332M270.129 410.285h28.332M270.129 407.27h28.332M270.129 404.258h28.332M270.129 401.242h28.332M270.129 398.227h28.332"/><path d="M269.148 413.902h1.957v-16.277h-1.957Zm0 0"/><use xlink:href="#I" x="284.295" y="398.227"/><use xlink:href="#I" x="293.337" y="413.298"/><use xlink:href="#I" x="284.295" y="410.284"/><path fill="none" stroke="#000" stroke-miterlimit="10" stroke-width=".398" d="M314.242 420.758V390.69"/><use xlink:href="#N" x="322.654" y="411.791"/><use xlink:href="#T" x="328.518" y="408.537"/><use xlink:href="#Y" x="331.943" y="408.537"/><path fill="none" stroke="#000" stroke-miterlimit="10" stroke-width=".181" d="M340.855 413.902v-16.277M349.898 413.902v-16.277M358.941 413.902v-16.277M367.984 413.902v-16.277"/><path fill="none" stroke="#000" stroke-miterlimit="10" stroke-width=".151" d="M340.25 413.297h28.336M340.25 410.285h28.336M340.25 407.27h28.336M340.25 404.258h28.336M340.25 401.242h28.336M340.25 398.227h28.336"/><path d="M339.273 413.902h1.957v-16.277h-1.957Zm0 0"/><use xlink:href="#I" x="354.419" y="407.27"/><use xlink:href="#I" x="363.462" y="410.284"/><use xlink:href="#I" x="363.462" y="413.298"/><path fill="none" stroke="#000" stroke-miterlimit="10" stroke-width=".398" d="M384.367 420.758V390.69M33.547 420.957h351.02M33.746 451.223v-30.067"/><use xlink:href="#O" x="46.216" y="442.256"/><use xlink:href="#Z" x="50.395" y="439.001"/><path fill="none" stroke="#000" stroke-miterlimit="10" stroke-width=".181" d="M60.36 444.367V428.09M69.402 444.367V428.09M78.445 444.367V428.09M87.488 444.367V428.09"/><path fill="none" stroke="#000" stroke-miterlimit="10" stroke-width=".151" d="M59.754 443.762H88.09M59.754 440.75H88.09M59.754 437.734H88.09M59.754 434.719H88.09M59.754 431.707H88.09M59.754 428.691H88.09"/><path d="M58.773 444.367h1.961V428.09h-1.96Zm0 0"/><use xlink:href="#I" x="73.922" y="431.706"/><use xlink:href="#I" x="73.922" y="437.735"/><use xlink:href="#I" x="64.879" y="440.749"/><path fill="none" stroke="#000" stroke-miterlimit="10" stroke-width=".398" d="M103.867 451.223v-30.067"/><use xlink:href="#P" x="115.776" y="442.256"/><use xlink:href="#Z" x="120.519" y="439.001"/><path fill="none" stroke="#000" stroke-miterlimit="10" stroke-width=".398" d="M173.992 451.223v-30.067"/><use xlink:href="#Q" x="185.765" y="442.256"/><use xlink:href="#Z" x="190.643" y="439.001"/><path fill="none" stroke="#000" stroke-miterlimit="10" stroke-width=".398" d="M244.117 451.223v-30.067"/><use xlink:href="#R" x="256.266" y="442.256"/><use xlink:href="#Z" x="260.767" y="439.001"/><path fill="none" stroke="#000" stroke-miterlimit="10" stroke-width=".181" d="M270.73 444.367V428.09M279.773 444.367V428.09M288.816 444.367V428.09M297.86 444.367V428.09"/><path fill="none" stroke="#000" stroke-miterlimit="10" stroke-width=".151" d="M270.129 443.762h28.332M270.129 440.75h28.332M270.129 437.734h28.332M270.129 434.719h28.332M270.129 431.707h28.332M270.129 428.691h28.332"/><path d="M269.148 444.367h1.957V428.09h-1.957Zm0 0"/><use xlink:href="#I" x="284.295" y="431.706"/><use xlink:href="#I" x="284.295" y="437.735"/><use xlink:href="#I" x="275.252" y="440.749"/><path fill="none" stroke="#000" stroke-miterlimit="10" stroke-width=".398" d="M314.242 451.223v-30.067"/><use xlink:href="#S" x="326.784" y="442.256"/><use xlink:href="#Z" x="330.891" y="439.001"/><path fill="none" stroke="#000" stroke-miterlimit="10" stroke-width=".398" d="M384.367 451.223v-30.067M33.547 451.422h351.02M33.746 481.688V451.62"/><use xlink:href="#H" x="44.868" y="472.721"/><use xlink:href="#T" x="50.365" y="469.466"/><use xlink:href="#aa" x="50.365" y="475.05"/><path fill="none" stroke="#000" stroke-miterlimit="10" stroke-width=".181" d="M60.36 474.832v-16.277M69.402 474.832v-16.277M78.445 474.832v-16.277M87.488 474.832v-16.277"/><path fill="none" stroke="#000" stroke-miterlimit="10" stroke-width=".151" d="M59.754 474.227H88.09M59.754 471.215H88.09M59.754 468.2H88.09M59.754 465.184H88.09M59.754 462.172H88.09M59.754 459.156H88.09"/><path d="M58.773 474.832h1.961v-16.277h-1.96Zm0 0"/><use xlink:href="#I" x="73.922" y="465.185"/><use xlink:href="#I" x="73.922" y="471.214"/><path fill="none" stroke="#000" stroke-miterlimit="10" stroke-width=".398" d="M103.867 481.688V451.62"/><use xlink:href="#J" x="112.805" y="472.721"/><use xlink:href="#T" x="120.489" y="469.466"/><use xlink:href="#aa" x="120.489" y="475.05"/><path fill="none" stroke="#000" stroke-miterlimit="10" stroke-width=".181" d="M130.48 474.832v-16.277M139.523 474.832v-16.277M148.566 474.832v-16.277M157.61 474.832v-16.277"/><path fill="none" stroke="#000" stroke-miterlimit="10" stroke-width=".151" d="M129.879 474.227h28.336M129.879 471.215h28.336M129.879 468.2h28.336M129.879 465.184h28.336M129.879 462.172h28.336M129.879 459.156h28.336"/><path d="M128.898 474.832h1.961v-16.277h-1.96Zm0 0"/><use xlink:href="#I" x="153.089" y="462.171"/><use xlink:href="#I" x="144.046" y="468.2"/><path fill="none" stroke="#000" stroke-miterlimit="10" stroke-width=".398" d="M173.992 481.688V451.62"/><use xlink:href="#K" x="182.803" y="472.721"/><use xlink:href="#T" x="190.613" y="469.466"/><use xlink:href="#aa" x="190.613" y="475.05"/><path fill="none" stroke="#000" stroke-miterlimit="10" stroke-width=".181" d="M200.605 474.832v-16.277M209.648 474.832v-16.277M218.691 474.832v-16.277M227.734 474.832v-16.277"/><path fill="none" stroke="#000" stroke-miterlimit="10" stroke-width=".151" d="M200.004 474.227h28.332M200.004 471.215h28.332M200.004 468.2h28.332M200.004 465.184h28.332M200.004 462.172h28.332M200.004 459.156h28.332"/><path d="M199.023 474.832h1.961v-16.277h-1.96Zm0 0"/><use xlink:href="#I" x="223.213" y="459.157"/><use xlink:href="#L" x="223.213" y="474.228"/><use xlink:href="#I" x="205.128" y="462.171"/><use xlink:href="#I" x="214.17" y="465.185"/><path fill="none" stroke="#000" stroke-miterlimit="10" stroke-width=".398" d="M244.117 481.688V451.62"/><use xlink:href="#M" x="254.595" y="472.721"/><use xlink:href="#T" x="260.737" y="469.466"/><use xlink:href="#aa" x="260.737" y="475.05"/><path fill="none" stroke="#000" stroke-miterlimit="10" stroke-width=".181" d="M270.73 474.832v-16.277M279.773 474.832v-16.277M288.816 474.832v-16.277M297.86 474.832v-16.277"/><path fill="none" stroke="#000" stroke-miterlimit="10" stroke-width=".151" d="M270.129 474.227h28.332M270.129 471.215h28.332M270.129 468.2h28.332M270.129 465.184h28.332M270.129 462.172h28.332M270.129 459.156h28.332"/><path d="M269.148 474.832h1.957v-16.277h-1.957Zm0 0"/><use xlink:href="#I" x="275.252" y="459.157"/><use xlink:href="#L" x="275.252" y="474.228"/><use xlink:href="#I" x="293.337" y="471.214"/><path fill="none" stroke="#000" stroke-miterlimit="10" stroke-width=".398" d="M314.242 481.688V451.62"/><use xlink:href="#N" x="324.997" y="472.721"/><use xlink:href="#T" x="330.861" y="469.466"/><use xlink:href="#aa" x="330.861" y="475.05"/><path fill="none" stroke="#000" stroke-miterlimit="10" stroke-width=".181" d="M340.855 474.832v-16.277M349.898 474.832v-16.277M358.941 474.832v-16.277M367.984 474.832v-16.277"/><path fill="none" stroke="#000" stroke-miterlimit="10" stroke-width=".151" d="M340.25 474.227h28.336M340.25 471.215h28.336M340.25 468.2h28.336M340.25 465.184h28.336M340.25 462.172h28.336M340.25 459.156h28.336"/><path d="M339.273 474.832h1.957v-16.277h-1.957Zm0 0"/><use xlink:href="#I" x="363.462" y="459.157"/><use xlink:href="#I" x="345.376" y="462.171"/><use xlink:href="#I" x="363.462" y="465.185"/><use xlink:href="#I" x="363.462" y="468.2"/><use xlink:href="#I" x="345.376" y="471.214"/><use xlink:href="#I" x="345.376" y="474.228"/><path fill="none" stroke="#000" stroke-miterlimit="10" stroke-width=".398" d="M384.367 481.688V451.62M33.547 481.887h351.02M33.746 512.152v-30.066"/><use xlink:href="#O" x="41.512" y="503.186"/><use xlink:href="#X" x="45.69" y="499.931"/><use xlink:href="#T" x="45.69" y="505.526"/><use xlink:href="#ab" x="49.115" y="505.526"/><path fill="none" stroke="#000" stroke-miterlimit="10" stroke-width=".181" d="M60.36 505.297V489.02M69.402 505.297V489.02M78.445 505.297V489.02M87.488 505.297V489.02"/><path fill="none" stroke="#000" stroke-miterlimit="10" stroke-width=".151" d="M59.754 504.691H88.09M59.754 501.68H88.09M59.754 498.664H88.09M59.754 495.648H88.09M59.754 492.637H88.09M59.754 489.621H88.09"/><path d="M58.773 505.297h1.961V489.02h-1.96Zm0 0"/><use xlink:href="#I" x="73.922" y="501.679"/><use xlink:href="#I" x="73.922" y="498.665"/><use xlink:href="#I" x="73.922" y="489.622"/><path fill="none" stroke="#000" stroke-miterlimit="10" stroke-width=".398" d="M103.867 512.152v-30.066"/><use xlink:href="#P" x="111.071" y="503.186"/><use xlink:href="#X" x="115.814" y="499.931"/><use xlink:href="#T" x="115.814" y="505.526"/><use xlink:href="#ab" x="119.239" y="505.526"/><path fill="none" stroke="#000" stroke-miterlimit="10" stroke-width=".181" d="M130.48 505.297V489.02M139.523 505.297V489.02M148.566 505.297V489.02M157.61 505.297V489.02M166.652 505.297V489.02"/><path fill="none" stroke="#000" stroke-miterlimit="10" stroke-width=".151" d="M129.879 504.691h37.379M129.879 501.68h37.379M129.879 498.664h37.379M129.879 495.648h37.379M129.879 492.637h37.379M129.879 489.621h37.379"/><path d="M128.898 505.297h1.961V489.02h-1.96Zm0 0"/><use xlink:href="#I" x="144.046" y="498.665"/><use xlink:href="#I" x="162.132" y="495.65"/><use xlink:href="#I" x="135.003" y="492.636"/><path fill="none" stroke="#000" stroke-miterlimit="10" stroke-width=".398" d="M173.992 512.152v-30.066"/><use xlink:href="#Q" x="181.276" y="503.186"/><use xlink:href="#X" x="186.154" y="499.931"/><use xlink:href="#T" x="185.939" y="505.526"/><use xlink:href="#ab" x="189.358" y="505.526"/><path fill="none" stroke="#000" stroke-miterlimit="10" stroke-width=".181" d="M200.605 505.297V489.02M209.648 505.297V489.02M218.691 505.297V489.02M227.734 505.297V489.02"/><path fill="none" stroke="#000" stroke-miterlimit="10" stroke-width=".151" d="M200.004 504.691h28.332M200.004 501.68h28.332M200.004 498.664h28.332M200.004 495.648h28.332M200.004 492.637h28.332M200.004 489.621h28.332"/><path d="M199.023 505.297h1.961V489.02h-1.96Zm0 0"/><use xlink:href="#I" x="223.213" y="498.665"/><use xlink:href="#I" x="214.17" y="495.65"/><use xlink:href="#I" x="223.213" y="492.636"/><path fill="none" stroke="#000" stroke-miterlimit="10" stroke-width=".398" d="M244.117 512.152v-30.066"/><use xlink:href="#R" x="251.786" y="503.186"/><use xlink:href="#X" x="256.287" y="499.931"/><use xlink:href="#T" x="256.063" y="505.526"/><use xlink:href="#ab" x="259.482" y="505.526"/><path fill="none" stroke="#000" stroke-miterlimit="10" stroke-width=".181" d="M270.73 505.297V489.02M279.773 505.297V489.02M288.816 505.297V489.02M297.86 505.297V489.02"/><path fill="none" stroke="#000" stroke-miterlimit="10" stroke-width=".151" d="M270.129 504.691h28.332M270.129 501.68h28.332M270.129 498.664h28.332M270.129 495.648h28.332M270.129 492.637h28.332M270.129 489.621h28.332"/><path d="M269.148 505.297h1.957V489.02h-1.957Zm0 0"/><use xlink:href="#ac" x="273.838" y="505.848"/><use xlink:href="#I" x="275.252" y="501.679"/><use xlink:href="#I" x="284.295" y="495.65"/><use xlink:href="#I" x="293.337" y="492.636"/><use xlink:href="#I" x="293.337" y="489.622"/><path fill="none" stroke="#000" stroke-miterlimit="10" stroke-width=".398" d="M314.242 512.152v-30.066"/><use xlink:href="#S" x="322.304" y="503.186"/><use xlink:href="#X" x="326.411" y="499.931"/><use xlink:href="#T" x="326.187" y="505.526"/><use xlink:href="#ab" x="329.606" y="505.526"/><path fill="none" stroke="#000" stroke-miterlimit="10" stroke-width=".181" d="M340.855 505.297V489.02M349.898 505.297V489.02M358.941 505.297V489.02M367.984 505.297V489.02"/><path fill="none" stroke="#000" stroke-miterlimit="10" stroke-width=".151" d="M340.25 504.691h28.336M340.25 501.68h28.336M340.25 498.664h28.336M340.25 495.648h28.336M340.25 492.637h28.336M340.25 489.621h28.336"/><path d="M339.273 505.297h1.957V489.02h-1.957Zm0 0"/><use xlink:href="#ac" x="343.962" y="505.848"/><use xlink:href="#I" x="363.462" y="501.679"/><use xlink:href="#I" x="345.376" y="498.665"/><use xlink:href="#I" x="363.462" y="492.636"/><use xlink:href="#ac" x="343.962" y="490.777"/><path fill="none" stroke="#000" stroke-miterlimit="10" stroke-width=".398" d="M384.367 512.152v-30.066M33.547 512.352h351.02M33.746 542.617v-30.066"/><use xlink:href="#O" x="46.186" y="533.651"/><use xlink:href="#X" x="50.365" y="530.396"/><path fill="none" stroke="#000" stroke-miterlimit="10" stroke-width=".181" d="M60.36 535.762v-16.278M69.402 535.762v-16.278M78.445 535.762v-16.278M87.488 535.762v-16.278"/><path fill="none" stroke="#000" stroke-miterlimit="10" stroke-width=".151" d="M59.754 535.156H88.09M59.754 532.145H88.09M59.754 529.129H88.09M59.754 526.113H88.09M59.754 523.102H88.09M59.754 520.086H88.09"/><path d="M58.773 535.762h1.961v-16.278h-1.96Zm0 0"/><use xlink:href="#I" x="73.922" y="532.144"/><use xlink:href="#I" x="73.922" y="520.087"/><path fill="none" stroke="#000" stroke-miterlimit="10" stroke-width=".398" d="M103.867 542.617v-30.066"/><use xlink:href="#P" x="115.746" y="533.651"/><use xlink:href="#X" x="120.489" y="530.396"/><path fill="none" stroke="#000" stroke-miterlimit="10" stroke-width=".181" d="M130.48 535.762v-16.278M139.523 535.762v-16.278M148.566 535.762v-16.278M157.61 535.762v-16.278M166.652 535.762v-16.278"/><path fill="none" stroke="#000" stroke-miterlimit="10" stroke-width=".151" d="M129.879 535.156h37.379M129.879 532.145h37.379M129.879 529.129h37.379M129.879 526.113h37.379M129.879 523.102h37.379M129.879 520.086h37.379"/><path d="M128.898 535.762h1.961v-16.278h-1.96Zm0 0"/><use xlink:href="#I" x="144.046" y="529.13"/><use xlink:href="#I" x="162.132" y="526.115"/><use xlink:href="#I" x="135.003" y="523.101"/><use xlink:href="#I" x="153.089" y="520.087"/><path fill="none" stroke="#000" stroke-miterlimit="10" stroke-width=".398" d="M173.992 542.617v-30.066"/><use xlink:href="#Q" x="185.735" y="533.651"/><use xlink:href="#X" x="190.613" y="530.396"/><path fill="none" stroke="#000" stroke-miterlimit="10" stroke-width=".181" d="M200.605 535.762v-16.278M209.648 535.762v-16.278M218.691 535.762v-16.278M227.734 535.762v-16.278"/><path fill="none" stroke="#000" stroke-miterlimit="10" stroke-width=".151" d="M200.004 535.156h28.332M200.004 532.145h28.332M200.004 529.129h28.332M200.004 526.113h28.332M200.004 523.102h28.332M200.004 520.086h28.332"/><path d="M199.023 535.762h1.961v-16.278h-1.96Zm0 0"/><use xlink:href="#I" x="205.128" y="535.158"/><use xlink:href="#ac" x="203.714" y="533.299"/><use xlink:href="#I" x="214.17" y="526.115"/><use xlink:href="#I" x="205.128" y="523.101"/><path fill="none" stroke="#000" stroke-miterlimit="10" stroke-width=".398" d="M244.117 542.617v-30.066"/><use xlink:href="#R" x="256.236" y="533.651"/><use xlink:href="#X" x="260.737" y="530.396"/><path fill="none" stroke="#000" stroke-miterlimit="10" stroke-width=".181" d="M270.73 535.762v-16.278M279.773 535.762v-16.278M288.816 535.762v-16.278M297.86 535.762v-16.278"/><path fill="none" stroke="#000" stroke-miterlimit="10" stroke-width=".151" d="M270.129 535.156h28.332M270.129 532.145h28.332M270.129 529.129h28.332M270.129 526.113h28.332M270.129 523.102h28.332M270.129 520.086h28.332"/><path d="M269.148 535.762h1.957v-16.278h-1.957Zm0 0"/><use xlink:href="#I" x="275.252" y="535.158"/><use xlink:href="#I" x="275.252" y="532.144"/><use xlink:href="#I" x="284.295" y="526.115"/><use xlink:href="#I" x="293.337" y="523.101"/><use xlink:href="#I" x="293.337" y="520.087"/><path fill="none" stroke="#000" stroke-miterlimit="10" stroke-width=".398" d="M314.242 542.617v-30.066"/><use xlink:href="#S" x="326.755" y="533.651"/><use xlink:href="#X" x="330.861" y="530.396"/><path fill="none" stroke="#000" stroke-miterlimit="10" stroke-width=".181" d="M340.855 535.762v-16.278M349.898 535.762v-16.278M358.941 535.762v-16.278M367.984 535.762v-16.278"/><path fill="none" stroke="#000" stroke-miterlimit="10" stroke-width=".151" d="M340.25 535.156h28.336M340.25 532.145h28.336M340.25 529.129h28.336M340.25 526.113h28.336M340.25 523.102h28.336M340.25 520.086h28.336"/><path d="M339.273 535.762h1.957v-16.278h-1.957Zm0 0"/><use xlink:href="#ac" x="343.962" y="536.313"/><use xlink:href="#I" x="363.462" y="532.144"/><use xlink:href="#I" x="345.376" y="529.13"/><use xlink:href="#I" x="363.462" y="526.115"/><use xlink:href="#I" x="363.462" y="523.101"/><path fill="none" stroke="#000" stroke-miterlimit="10" stroke-width=".398" d="M384.367 542.617v-30.066M33.547 542.816h351.02"/><use xlink:href="#e" x="368.955" y="577.985"/><use xlink:href="#ad" x="372.697" y="577.985"/><use xlink:href="#ad" x="379.798" y="577.985"/><use xlink:href="#ad" x="386.899" y="577.985"/><use xlink:href="#ae" x="394.001" y="577.985"/><path fill="#f2f2f2" stroke="#000" stroke-miterlimit="10" stroke-width=".797" d="M196.602 576.055v-3.989a2.99 2.99 0 0 1 2.988-2.988h18.93a2.99 2.99 0 0 1 2.988 2.988v3.989a2.99 2.99 0 0 1-2.988 2.988h-18.93a2.99 2.99 0 0 1-2.988-2.988Zm0 0"/><use xlink:href="#af" x="198.439" y="576.948"/><use xlink:href="#ag" x="203.747" y="576.948"/><use xlink:href="#af" x="209.055" y="576.948"/><use xlink:href="#ah" x="214.363" y="576.948"/><use xlink:href="#ai" x="17.008" y="577.985"/><use xlink:href="#aj" x="20.976" y="577.985"/><use xlink:href="#ak" x="27.629" y="577.985"/><use xlink:href="#ai" x="33.195" y="577.985"/><use xlink:href="#al" x="37.163" y="577.985"/><use xlink:href="#ai" x="41.131" y="577.985"/><use xlink:href="#am" x="45.099" y="577.985"/><use xlink:href="#an" x="51.752" y="577.985"/><use xlink:href="#ao" x="62.381" y="577.985"/><use xlink:href="#ap" x="68.044" y="577.985"/><use xlink:href="#aq" x="72.444" y="577.985"/><use xlink:href="#ar" x="77.919" y="577.985"/><use xlink:href="#as" x="81.462" y="577.985"/><use xlink:href="#at" x="85.646" y="577.985"/><use xlink:href="#ai" x="91.442" y="577.985"/><use xlink:href="#al" x="95.41" y="577.985"/><use xlink:href="#ai" x="99.378" y="577.985"/><use xlink:href="#au" x="103.346" y="577.985"/></svg>